<svg xmlns="http://www.w3.org/2000/svg" viewBox="0 0 256.81 239.25"><defs><style>.cls-1{fill:#8bb9ff;}.cls-2{fill:#6e75e2;}.cls-3{fill:#3340d8;}.cls-4{fill:#f6f9f9;}.cls-5{fill:#e2dff4;}.cls-6{fill:#ffb454;}.cls-7{fill:#e27a4e;}.cls-8{fill:#00cb75;}.cls-9{fill:#ace233;}</style></defs><title>Asset 1</title><g id="Layer_2" data-name="Layer 2"><g id="Layer_1-2" data-name="Layer 1"><path class="cls-1" d="M160.5,239.25H96.3a7.52,7.52,0,0,1-7.42-8.76l8-48.15a7.54,7.54,0,0,1,7.43-6.29h48.15a7.53,7.53,0,0,1,7.42,6.29l8,48.15A7.53,7.53,0,0,1,160.5,239.25Z"/><path class="cls-2" d="M160.5,239.25H128.4v-63.2h24.08a7.53,7.53,0,0,1,7.42,6.29l8,48.15A7.53,7.53,0,0,1,160.5,239.25Z"/><path class="cls-2" d="M184.08,231.73a7.53,7.53,0,0,1-7.53,7.52H80.25a7.53,7.53,0,0,1,0-15.05h96.3A7.53,7.53,0,0,1,184.08,231.73Z"/><path class="cls-3" d="M184.08,231.73a7.53,7.53,0,0,1-7.53,7.52H128.4V224.2h48.15A7.53,7.53,0,0,1,184.08,231.73Z"/><path class="cls-4" d="M249.28,22.57v146a15,15,0,0,1-15.05,15.05H22.57a15.05,15.05,0,0,1-15-15.05v-146a15.05,15.05,0,0,1,15.05-15H234.23A15,15,0,0,1,249.28,22.57Z"/><path class="cls-5" d="M249.28,22.57v146a15,15,0,0,1-15.05,15.05H128.4V7.52H234.23A15,15,0,0,1,249.28,22.57Z"/><path class="cls-2" d="M234.23,0H22.57A22.6,22.6,0,0,0,0,22.57v146A22.6,22.6,0,0,0,22.57,191.1H234.23a22.6,22.6,0,0,0,22.58-22.57v-146A22.6,22.6,0,0,0,234.23,0Zm7.53,168.53a7.53,7.53,0,0,1-7.53,7.52H22.57a7.52,7.52,0,0,1-7.52-7.52v-146a7.52,7.52,0,0,1,7.52-7.52H234.23a7.53,7.53,0,0,1,7.53,7.52Z"/><path class="cls-3" d="M256.81,22.57v146a22.6,22.6,0,0,1-22.58,22.57H128.4v-15H234.23a7.53,7.53,0,0,0,7.53-7.52v-146a7.53,7.53,0,0,0-7.53-7.52H128.4V0H234.23A22.6,22.6,0,0,1,256.81,22.57Z"/><path class="cls-2" d="M135.93,7.52V23.57a7.53,7.53,0,1,1-15.05,0v-16a7.53,7.53,0,0,1,15.05,0Z"/><path class="cls-3" d="M135.93,7.52V23.57a7.53,7.53,0,0,1-7.53,7.53V0A7.53,7.53,0,0,1,135.93,7.52Z"/><path class="cls-6" d="M72.23,135.93a7.53,7.53,0,0,1-7.53-7.53V79.75a7.53,7.53,0,0,1,15,0V128.4A7.53,7.53,0,0,1,72.23,135.93Z"/><path class="cls-7" d="M104.33,135.93a7.53,7.53,0,0,1-7.53-7.53V103.83a7.53,7.53,0,1,1,15,0V128.4A7.53,7.53,0,0,1,104.33,135.93Z"/><circle class="cls-6" cx="180.57" cy="95.8" r="43.64"/><path class="cls-8" d="M224.2,95.8a43.64,43.64,0,0,1-74.49,30.86L180.57,95.8V88.28h36.11a7.52,7.52,0,0,1,7.52,7.52Z"/><path class="cls-2" d="M224.2,95.8H180.57V52.16A43.68,43.68,0,0,1,224.2,95.8Z"/><path class="cls-9" d="M40.13,135.93a7.53,7.53,0,0,1-7.53-7.53V55.67a7.53,7.53,0,0,1,15,0V128.4A7.53,7.53,0,0,1,40.13,135.93Z"/><path class="cls-5" d="M32.6,128.4v7.53a7.53,7.53,0,0,0,7.53,7.52h64.2a7.52,7.52,0,0,0,7.52-7.52V128.4Z"/></g></g></svg>