<svg id="Layer_1" data-name="Layer 1" xmlns="http://www.w3.org/2000/svg" viewBox="0 0 102 102"><defs><style>.cls-1{fill:#f0bc5e;}</style></defs><title>Artboard 1</title><path class="cls-1" d="M93.78,32.9V24.67H85.56V16.45H77.32V8.23H69.11V0H58.54L0,58.54V69.1H8.22v8.23h8.22v8.23h8.25v8.21h8.23V102H43.46L102,43.46V32.9ZM29.61,77.32,11.52,59.23l28-28,18.1,18.09Zm56-29.7L54.38,16.37l4.85-4.85L90.48,42.77Z"/><path d="M45.58,45.58l-2.32-2.32-2.13,2.12-3.29-3.29L32.9,47a5.63,5.63,0,0,0,0,7.94l1,1a2.3,2.3,0,0,1,.68,1.64,2.34,2.34,0,0,1-.68,1.65l-2.61,2.6-2.61-2.6A2.34,2.34,0,0,1,28,57.58a2.3,2.3,0,0,1,.68-1.64l2.13-2.13-2.33-2.33-2.13,2.13a5.57,5.57,0,0,0-1.64,4,5.51,5.51,0,0,0,1,3.22L23.51,63l2.33,2.32L28,63.2l3.29,3.29,4.93-4.94a5.6,5.6,0,0,0,0-7.94l-1-1a2.34,2.34,0,0,1,0-3.3l2.61-2.6,2.61,2.6a2.34,2.34,0,0,1,0,3.3l-2.13,2.12,2.33,2.33L42.77,55a5.58,5.58,0,0,0,.62-7.19Z"/><path d="M39.48,28.93,9.19,59.23,29.61,79.65l30.3-30.3ZM13.84,59.23,39.48,33.58,55.25,49.35,29.61,75Z"/><path d="M59.23,9.19l-7.18,7.18L85.63,50l7.18-7.18ZM56.7,16.37l2.53-2.53L88.16,42.77,85.63,45.3Z"/><path d="M48.19,20.91l2.33-2.33,32.9,32.9-2.33,2.33Z"/><path d="M43.26,25.84l2.32-2.33,32.9,32.91-2.32,2.32Z"/><path d="M59.71,53.81,62,51.48l9.87,9.87-2.32,2.33Z"/><path d="M54.77,58.74l2.33-2.32L67,66.29l-2.33,2.32Z"/><path d="M49.84,63.68l2.32-2.33L62,71.22l-2.32,2.33Z"/><path d="M44.9,68.61l2.33-2.32,9.87,9.87-2.33,2.32Z"/><path d="M40,73.55l2.33-2.33,9.87,9.87-2.32,2.33Z"/><path d="M35,78.48l2.33-2.32L47.23,86,44.9,88.36Z"/></svg>