<svg xmlns="http://www.w3.org/2000/svg" viewBox="0 0 248 248"><defs><style>.cls-1{fill:#cdbeb9;}.cls-2{fill:#80d261;}.cls-10,.cls-11,.cls-12,.cls-13,.cls-14,.cls-15,.cls-2,.cls-3,.cls-4,.cls-5,.cls-7,.cls-8,.cls-9{fill-rule:evenodd;}.cls-3{fill:#4fc122;}.cls-4{fill:#fdb440;}.cls-5{fill:#fe9900;}.cls-6{fill:#f8f2f0;}.cls-7{fill:#6d80aa;}.cls-8{fill:#22a6fe;}.cls-9{fill:#fed1a3;}.cls-10{fill:#ffe5c1;}.cls-11{fill:#49679b;}.cls-12{fill:#ffbc85;}.cls-13{fill:#fd4755;}.cls-14{fill:#e41e2b;}.cls-15{fill:#0182fc;}</style></defs><title>Asset 2</title><g id="Layer_2" data-name="Layer 2"><g id="Layer_1-2" data-name="Layer 1"><path class="cls-1" d="M126.55,145.8a3.74,3.74,0,0,1-3.74-3.74V109.4a3.74,3.74,0,1,1,7.48,0v32.66A3.74,3.74,0,0,1,126.55,145.8Z"/><path class="cls-1" d="M176,224.17a3.72,3.72,0,0,1-2.69-1.14L143.35,192.1a3.74,3.74,0,0,1,5.38-5.2l29.92,30.93a3.74,3.74,0,0,1-2.69,6.34Z"/><path class="cls-1" d="M77.28,224.85a3.74,3.74,0,0,1-2.7-6.33l30.27-31.61a3.75,3.75,0,1,1,5.41,5.18L80,223.7A3.69,3.69,0,0,1,77.28,224.85Z"/><path class="cls-2" d="M107.55,189.5a26.84,26.84,0,0,0,38.49,0,28,28,0,0,0,8-19.65c0-15.36-12.19-27.79-27.22-27.79h-.25c-14.92.14-27,12.53-27,27.79a28,28,0,0,0,8,19.65Z"/><path class="cls-3" d="M121.91,142.49a28,28,0,0,1,11.62,46.34,27,27,0,0,1-14.35,7.7,26.86,26.86,0,0,0,26.86-7,28,28,0,0,0,8-19.65c0-15.36-12.19-27.79-27.22-27.79h-.25A28.39,28.39,0,0,0,121.91,142.49Z"/><path class="cls-4" d="M89,108.83h76.52a2.38,2.38,0,0,0,2.35-2.39V98.6c0-13.79-9.2-17.66-18.61-20.35h-44c-9.41,2.69-18.6,6.56-18.6,20.35v7.84A2.38,2.38,0,0,0,89,108.83Z"/><path class="cls-5" d="M140.27,83.67c9.4,2.68,19,5.41,19,19.2v6h6.26a2.38,2.38,0,0,0,2.35-2.39V98.6c0-13.79-9.2-17.66-18.61-20.35Z"/><path class="cls-6" d="M122.89,180.64a3.74,3.74,0,0,1-2.45-.92l-6.9-6a3.74,3.74,0,0,1,4.9-5.66l4,3.47L133,158.66a3.74,3.74,0,0,1,5.78,4.75l-13,15.86a3.72,3.72,0,0,1-2.57,1.35l-.32,0Z"/><path class="cls-7" d="M207.41,139.16c-14.54.24-29.07,11.41-29.07,33.45l31.5,6.24,26.63-6.24c0-22-14.53-33.21-29.06-33.45Z"/><path class="cls-8" d="M166.81,237.77v7.84a2.37,2.37,0,0,0,1,1.92,2.26,2.26,0,0,0,1.38.47h76.51a2.23,2.23,0,0,0,1.38-.47,2.37,2.37,0,0,0,1-1.92v-7.84c0-13.8-9.19-17.66-18.59-20.37h-44c-9.4,2.71-18.59,6.57-18.59,20.37Z"/><path class="cls-9" d="M185.4,217.4l18.07,10.83c3.06,2,4.81,2,7.88,0l18.06-10.83c-1.68-.48-3.36-.91-5-1.38-3.81-1.06-4.83-6.08-5.62-7.71H196c-.79,1.63-1.79,6.65-5.61,7.71-1.64.47-3.33.9-5,1.38Z"/><path class="cls-10" d="M178.34,181.69c0,9.41,7.63,20.92,17.68,26.62a30.77,30.77,0,0,0,4.11,1.94,18.5,18.5,0,0,0,14.56,0,31.25,31.25,0,0,0,4.1-1.94c10.05-5.7,17.68-17.21,17.68-26.62v-9.08c-11.76-.84-10-10-18.13-7.87-6.28,1.64-8.61,2.48-10.93,2.48s-4.66-.84-10.94-2.48c-8.11-2.13-6.37,7-18.13,7.87Z"/><path class="cls-9" d="M105.3,78.25l18.06,10.81c3.06,2,4.82,2,7.89,0L149.3,78.25c-1.68-.48-3.35-.93-5-1.39-3.82-1.06-4.83-6.09-5.61-7.72H115.91c-.78,1.63-1.79,6.66-5.61,7.72-1.64.46-3.33.91-5,1.39Z"/><path class="cls-7" d="M127.3,0C112.76.24,98.23,11.41,98.23,33.45c41,8.64,25.51,8,58.15,0C156.38,11.41,141.84.24,127.3,0Z"/><path class="cls-10" d="M98.23,42.53c0,9.41,7.65,20.92,17.68,26.61A29,29,0,0,0,120,71.08a18.53,18.53,0,0,0,14.57,0,30.06,30.06,0,0,0,4.11-1.94c10-5.69,17.68-17.2,17.68-26.61V33.45c-11.78-.83-10-10-18.14-7.88-6.27,1.66-8.6,2.49-10.94,2.49s-4.66-.83-10.93-2.49c-8.12-2.13-6.38,7-18.14,7.88v9.08Z"/><path class="cls-9" d="M115.91,69.14A29,29,0,0,0,120,71.08a18.53,18.53,0,0,0,14.57,0,30.06,30.06,0,0,0,4.11-1.94c10-5.69,17.68-17.2,17.68-26.61V33.45a13.74,13.74,0,0,1-9.33-3.93V38.6c0,9.41-7.64,20.92-17.67,26.61a29.1,29.1,0,0,1-4.12,1.94,18.29,18.29,0,0,1-10.79,1.13c.47.29,1,.59,1.44.86Z"/><path class="cls-11" d="M133.2.71c8,5.2,13.85,14.82,13.85,28.81a13.74,13.74,0,0,0,9.33,3.93C156.38,14.41,145.53,3.48,133.2.71Z"/><path class="cls-12" d="M131.73,80c3.41-1.31,3-1.58,3.69-.51a11.09,11.09,0,0,0,4.85,4.15l1.91-1.15,7.12-4.27c-1.68-.48-3.35-.93-5-1.39-3.82-1.06-4.83-6.09-5.61-7.72a30.06,30.06,0,0,1-4.11,1.94,18.53,18.53,0,0,1-14.57,0,29,29,0,0,1-4.11-1.94c-.6,1.24-1.33,4.5-3.35,6.42-.82.78,13.31,7,19.17,4.47Z"/><path class="cls-13" d="M2.34,243.78H78.85a2.37,2.37,0,0,0,2.34-2.39v-7.83c0-13.81-9.19-17.67-18.59-20.37h-44C9.19,215.89,0,219.75,0,233.56v7.83A2.37,2.37,0,0,0,2.34,243.78Z"/><path class="cls-14" d="M53.55,218.61c9.41,2.7,19,5.41,19,19.22v5.95h6.25a2.37,2.37,0,0,0,2.34-2.39v-7.83c0-13.81-9.19-17.67-18.59-20.37Z"/><path class="cls-9" d="M18.59,213.19,36.65,224c3.07,2,4.82,2,7.88,0L62.6,213.19c-1.68-.48-3.37-.92-5-1.39-3.82-1.06-4.82-6.08-5.61-7.71H29.21c-.79,1.63-1.81,6.65-5.62,7.71C22,212.27,20.27,212.71,18.59,213.19Z"/><path class="cls-7" d="M40.59,134.94c-14.53.24-29.06,11.42-29.06,33.45,40.95,8.65,25.5,8,58.13,0C69.66,146.36,55.13,135.18,40.59,134.94Z"/><path class="cls-10" d="M11.53,177.47c0,9.41,7.63,20.92,17.68,26.62a31.25,31.25,0,0,0,4.1,1.94,18.42,18.42,0,0,0,14.56,0A30.77,30.77,0,0,0,52,204.09c10.05-5.7,17.68-17.21,17.68-26.62v-9.08c-11.76-.83-10-10-18.13-7.86-6.28,1.64-8.61,2.47-10.94,2.47s-4.65-.83-10.93-2.47c-8.13-2.14-6.37,7-18.13,7.86v9.08Z"/><path class="cls-9" d="M29.21,204.09a30,30,0,0,0,4.1,1.94,18.42,18.42,0,0,0,14.56,0A29.58,29.58,0,0,0,52,204.09c10.05-5.7,17.68-17.21,17.68-26.62v-9.08a13.76,13.76,0,0,1-9.32-3.93v9.08c0,9.41-7.64,20.92-17.68,26.62a31.25,31.25,0,0,1-4.1,1.94,18.32,18.32,0,0,1-10.8,1.12c.48.31,1,.59,1.45.87Z"/><path class="cls-11" d="M46.5,135.65c8,5.22,13.84,14.82,13.84,28.81a13.76,13.76,0,0,0,9.32,3.93c0-19-10.85-30-23.16-32.74Z"/><path class="cls-12" d="M42.7,215c3.41-1.31,5.28-1.58,6-.51a11.11,11.11,0,0,0,4.84,4.15l1.91-1.15,7.14-4.27c-1.68-.48-3.37-.92-5-1.39-3.82-1.06-4.82-6.08-5.61-7.71A29.58,29.58,0,0,1,47.87,206a18.42,18.42,0,0,1-14.56,0,30,30,0,0,1-4.1-1.94c-.6,1.25-1.33,4.49-3.37,6.41C25,211.28,36.84,217.5,42.7,215Z"/><path class="cls-12" d="M211.06,219.27c1.11-.34,2.37-.85,3.34-1.16a2,2,0,0,1,2.41.41l4.53,3.72,8.07-4.84c-1.68-.48-3.36-.91-5-1.38-3.81-1.06-4.82-6.08-5.61-7.71a31.25,31.25,0,0,1-4.1,1.94,18.5,18.5,0,0,1-14.56,0,30.77,30.77,0,0,1-4.11-1.94c-.59,1.2-1.29,4.27-3.16,6.21,5.58,3.92,12.73,6.38,18.2,4.75Z"/><path class="cls-11" d="M204.87,139.31c9.75,3.38,18,12.12,19.74,26.21l.09.68c2.44,2.25,4.57,5.9,11.77,6.41,0-22-14.53-33.21-29.06-33.45A24,24,0,0,0,204.87,139.31Z"/><path class="cls-9" d="M225,180.26c0,12.62-12.93,27.09-25.59,29.68l.77.31a18.5,18.5,0,0,0,14.56,0,31.25,31.25,0,0,0,4.1-1.94c10.05-5.7,17.68-17.21,17.68-26.62v-9.08c-7.2-.51-9.33-4.16-11.77-6.41a140.3,140.3,0,0,1,.25,14.06Z"/><path class="cls-15" d="M221.34,222.24c9.41,2.69,18.6,6.57,18.6,20.36V248h5.72a2.23,2.23,0,0,0,1.38-.47,2.37,2.37,0,0,0,1-1.92v-7.84c0-13.8-9.19-17.66-18.59-20.37Z"/></g></g></svg>