<svg id="Layer_1" data-name="Layer 1" xmlns="http://www.w3.org/2000/svg" viewBox="0 0 102 102"><defs><style>.cls-1{fill:#f66;}.cls-2{fill:#e62e6b;}.cls-3{fill:#ffe666;}.cls-4{fill:#fabe2c;}.cls-5{fill:#9ee2f8;}.cls-6{fill:#ffbda9;}.cls-7{fill:#f9a58d;}</style></defs><title>Artboard 4</title><circle class="cls-1" cx="57.21" cy="31.8" r="28.8"/><path class="cls-2" d="M57.47,3V60.6a28.8,28.8,0,0,0,0-57.6Z"/><path class="cls-3" d="M49.06,27.4a3.55,3.55,0,1,0-3.55-3.55A3.58,3.58,0,0,0,49.06,27.4Z"/><path class="cls-3" d="M65.38,43.54A3.55,3.55,0,1,0,61.83,40,3.58,3.58,0,0,0,65.38,43.54Z"/><path class="cls-3" d="M64.52,14.67a2.76,2.76,0,0,0-3.61,1.48L48.83,45a2.76,2.76,0,0,0,1.47,3.61,2.7,2.7,0,0,0,1.07.22,2.75,2.75,0,0,0,2.54-1.7L66,18.28a2.76,2.76,0,0,0-1.48-3.61Z"/><path class="cls-4" d="M64.52,14.67a2.76,2.76,0,0,0-3.61,1.48l-3.44,8.19V38.6L66,18.28a2.76,2.76,0,0,0-1.48-3.61Z"/><path class="cls-5" d="M21.39,69.9H9.78A2.77,2.77,0,0,0,7,72.66V94.25A2.77,2.77,0,0,0,9.78,97h8.85l5.52-2.76V72.66A2.76,2.76,0,0,0,21.39,69.9Z"/><path class="cls-6" d="M94.54,69.71a13.27,13.27,0,0,0-18.73,0L67.56,78h0l-3.4,3.41a7.22,7.22,0,0,1-5.1,2.11H38.91a2.81,2.81,0,0,1-2.84-2.63A2.76,2.76,0,0,1,38.83,78H58.2a8.1,8.1,0,0,0,8.07-7.82,1.62,1.62,0,0,0,0-.22,2.77,2.77,0,0,0-2.76-2.76H54.36c-3,0-5.87-1.36-8.91-2.8C42.26,62.86,39,61.3,35.1,61A29.35,29.35,0,0,0,25,62.14a8.9,8.9,0,0,0-6.41,8.49V97H66.08a12.12,12.12,0,0,0,8.64-3.58L94.54,73.61a2.75,2.75,0,0,0,0-3.9Z"/><path class="cls-7" d="M75.81,69.71,67.56,78h0l-3.4,3.41a7.22,7.22,0,0,1-5.1,2.11H57.21V97h8.87a12.12,12.12,0,0,0,8.64-3.58L94.54,73.61a2.75,2.75,0,0,0,0-3.9,13.27,13.27,0,0,0-18.73,0Z"/><path class="cls-7" d="M66.27,70.14a1.55,1.55,0,0,0,0-.22,2.77,2.77,0,0,0-2.76-2.76H57.21V78h1A8,8,0,0,0,66.27,70.14Z"/></svg>