<svg id="Layer_1" data-name="Layer 1" xmlns="http://www.w3.org/2000/svg" viewBox="0 0 102 102"><defs><style>.cls-1{fill:#ffc344;}.cls-2{fill:#596c76;}.cls-3{fill:#feb137;}.cls-4{fill:#60b7ff;}.cls-5{fill:#b3dafe;}.cls-6{fill:#0593fc;}.cls-7{fill:#fe646f;}.cls-8{fill:#fd4755;}.cls-9{fill:#8ac9fe;}</style></defs><title>Artboard 2</title><path class="cls-1" d="M65.25,25.29H10.39a2.48,2.48,0,0,0-2.48,2.42L6.38,95.39a2.48,2.48,0,0,0,2.48,2.53H66.78a2.47,2.47,0,0,0,2.47-2.53L67.72,27.71a2.48,2.48,0,0,0-2.47-2.42Z"/><path class="cls-2" d="M51.26,33.7a1.43,1.43,0,0,1-1.43-1.43V16.78a12,12,0,1,0-24,0V32.27a1.43,1.43,0,0,1-2.86,0V16.78a14.87,14.87,0,1,1,29.73,0V32.27a1.43,1.43,0,0,1-1.42,1.43Z"/><path class="cls-3" d="M67.72,27.71a2.48,2.48,0,0,0-2.47-2.42H58.68a2.48,2.48,0,0,1,2.47,2.42l1.53,67.68a2.47,2.47,0,0,1-2.47,2.53h6.57a2.47,2.47,0,0,0,2.47-2.53Z"/><path class="cls-4" d="M78.15,63.65H69.31V51.84h8.84a2.51,2.51,0,0,1,2.51,2.51v6.79a2.51,2.51,0,0,1-2.51,2.51Z"/><path class="cls-5" d="M73.49,40.94h-.06L53.55,47.7V67.79l19.88,6.74.06,0a1,1,0,0,0,.74-1V41.92A1,1,0,0,0,73.49,40.94Z"/><path class="cls-6" d="M48.49,83.35V59H41.12V83.35A3.63,3.63,0,0,0,44.75,87h.1a3.64,3.64,0,0,0,3.64-3.64Z"/><path class="cls-7" d="M53.55,67.79H41.3a10,10,0,0,1,0-20.09H53.55Z"/><path class="cls-7" d="M93.57,59.17H86.9a1.43,1.43,0,1,1,0-2.85h6.67a1.43,1.43,0,1,1,0,2.85Z"/><path class="cls-7" d="M87.88,49.67a1.41,1.41,0,0,1-1.11-.53,1.43,1.43,0,0,1,.21-2L91.7,43.3a1.43,1.43,0,0,1,1.8,2.21l-4.72,3.84A1.48,1.48,0,0,1,87.88,49.67Z"/><path class="cls-7" d="M92.59,72.51a1.37,1.37,0,0,1-.89-.32L87,68.36a1.43,1.43,0,0,1,1.8-2.22L93.5,70a1.43,1.43,0,0,1-.91,2.53Z"/><path class="cls-8" d="M31.43,55.89a10.27,10.27,0,0,0-.17,1.85,10,10,0,0,0,10,10.05H53.55V64.08H41.3a10,10,0,0,1-9.87-8.19Z"/><path class="cls-9" d="M73.43,41l-3.51,1.19v26a1,1,0,0,1-1.35,1l-15-5.1v3.75l19.88,6.74a1,1,0,0,0,1.35-1V41.92a1,1,0,0,0-1.35-1Z"/></svg>