<svg id="Layer_1" data-name="Layer 1" xmlns="http://www.w3.org/2000/svg" viewBox="0 0 102 102"><defs><style>.cls-1{fill:#a7c7d3;}.cls-2{fill:#fecbaa;}.cls-3{fill:#fdd559;}.cls-4{fill:#ff8812;}.cls-5{fill:#ffae85;}.cls-6{fill:#ff84a7;}.cls-7{fill:#ef6085;}.cls-8{fill:#fedfc5;}.cls-9{fill:#83d9ff;}.cls-10{fill:#5186ff;}</style></defs><title>Artboard 3</title><path class="cls-1" d="M50.77,94.71a1.5,1.5,0,0,1-1.49-1.46,1.51,1.51,0,1,1,1.58,1.45h-.09Zm-6-.23h-.18a1.5,1.5,0,0,1,.3-3h.05a1.5,1.5,0,0,1-.17,3Zm12-.46a1.5,1.5,0,0,1-.29-3h0A1.5,1.5,0,0,1,57.09,94h0A1.43,1.43,0,0,1,56.79,94Zm-18-.68a1.39,1.39,0,0,1-.4-.06h0a1.5,1.5,0,0,1,.77-2.9h0a1.5,1.5,0,0,1-.39,3Zm23.83-.92a1.5,1.5,0,0,1-.51-2.91h0a1.5,1.5,0,0,1,1,2.82h0A1.48,1.48,0,0,1,62.63,92.42ZM33.09,91.29a1.42,1.42,0,0,1-.61-.13h0a1.49,1.49,0,1,1,.63.14Zm35.06-1.35a1.52,1.52,0,1,1,.74-.2l0,0A1.53,1.53,0,0,1,68.15,89.94Zm13.62-13.4h0l-.16-.11ZM12.56,70a1.5,1.5,0,0,1-1.39-.94h0a1.5,1.5,0,0,1,2.77-1.14v0a1.5,1.5,0,0,1-.82,2A1.65,1.65,0,0,1,12.56,70ZM87,67.12a1.58,1.58,0,0,1-.47-.07,1.51,1.51,0,1,1,1.91-1v.06A1.5,1.5,0,0,1,87,67.12ZM10.73,64.23a1.5,1.5,0,0,1-1.46-1.15v0a1.5,1.5,0,0,1,1.11-1.81,1.52,1.52,0,0,1,1.81,1.11v0a1.51,1.51,0,0,1-1.11,1.81A2.09,2.09,0,0,1,10.73,64.23Zm77.63-3-.26,0a1.5,1.5,0,1,1,1.75-1.28V60A1.51,1.51,0,0,1,88.36,61.23Zm-78.55-3a1.51,1.51,0,0,1-1.5-1.37v-.06a1.5,1.5,0,1,1,1.63,1.43Zm79-3.05a1.5,1.5,0,0,1-1.5-1.5v-.11a1.5,1.5,0,1,1,3,0v.11A1.5,1.5,0,0,1,88.82,55.19Zm-79-3H9.67a1.51,1.51,0,1,1,1.63-1.42v.06A1.49,1.49,0,0,1,9.8,52.19Zm78.55-3.13a1.49,1.49,0,0,1-1.47-1.24v-.06A1.5,1.5,0,1,1,88.61,49Zm.25-1.56-.25,0ZM10.71,46.2a1.45,1.45,0,0,1-.35,0A1.51,1.51,0,1,1,12.18,45v.06A1.5,1.5,0,0,1,10.71,46.2Zm76.26-3a1.5,1.5,0,0,1-1.42-1l0,0a1.5,1.5,0,1,1,2.86-.88h0a1.49,1.49,0,0,1-1.43,2ZM12.53,40.42a1.65,1.65,0,0,1-.57-.11,1.5,1.5,0,0,1-.82-2v0a1.5,1.5,0,1,1,2.78,1.13h0A1.5,1.5,0,0,1,12.53,40.42ZM84.7,37.56a1.52,1.52,0,0,1-1.34-.82l0,0A1.5,1.5,0,0,1,86,35.37h0a1.49,1.49,0,0,1-.65,2A1.52,1.52,0,0,1,84.7,37.56ZM15.21,35a1.5,1.5,0,0,1-1.28-2.28,1.5,1.5,0,0,1,2.6,1.5l0,.06A1.5,1.5,0,0,1,15.21,35Zm66.38-2.63a1.52,1.52,0,0,1-.89-2.75,1.52,1.52,0,0,1,2.1.36l0,0a1.52,1.52,0,0,1-.4,2.09A1.54,1.54,0,0,1,81.59,32.36ZM18.7,30a1.49,1.49,0,0,1-1.16-2.45l0,0a1.5,1.5,0,1,1,2.3,1.92h0A1.48,1.48,0,0,1,18.7,30Zm59-2.34a1.5,1.5,0,1,1,1-2.56l0,0a1.5,1.5,0,0,1,0,2.12A1.48,1.48,0,0,1,77.73,27.69Zm-54.84-2a1.5,1.5,0,0,1-1-2.62h0a1.5,1.5,0,1,1,2,2.23l0,0A1.51,1.51,0,0,1,22.89,25.66Zm50.31-2a1.55,1.55,0,0,1-.89-.29l0,0a1.5,1.5,0,1,1,.94.33ZM73.33,22l-.15.2ZM27.7,22a1.48,1.48,0,0,1-1.26-.69,1.51,1.51,0,1,1,2.12.42l0,0A1.49,1.49,0,0,1,27.7,22Zm40.41-1.6a1.46,1.46,0,0,1-.7-.18l0,0a1.5,1.5,0,1,1,1.45-2.63h0a1.5,1.5,0,0,1-.71,2.82ZM33,19.08a1.5,1.5,0,0,1-.62-2.87h0A1.5,1.5,0,1,1,33,19.08Z"/><path class="cls-2" d="M60.86,82.77,38.28,60.2a3.61,3.61,0,1,1,5.11-5.11l-5.81-5.81a3.61,3.61,0,0,1-1.06-2.56,3.79,3.79,0,0,1,0-.58,3.56,3.56,0,0,1,1-2,3.59,3.59,0,0,1,4.77-.29l-2.21-2.21a3.61,3.61,0,0,1-1.06-2.56,2.88,2.88,0,0,1,0-.59,3.64,3.64,0,0,1,1-2,3.56,3.56,0,0,1,2-1,3.63,3.63,0,0,1,3.14,1l2.53,2.54a3.63,3.63,0,0,1-1-3.14,3.56,3.56,0,0,1,1-2,3.62,3.62,0,0,1,5.11,0L67.56,48.63l0-.05A6.47,6.47,0,0,1,70.16,47,6.61,6.61,0,0,1,77,48.58l6.84,6.84a7.05,7.05,0,0,1,2.06,5v4.28A7.58,7.58,0,0,0,88.07,70l1.53,1.52L72.15,89,70.2,87a7.53,7.53,0,0,0-4.84-2.2A7,7,0,0,1,60.86,82.77Z"/><path class="cls-3" d="M71,90.09l19.8-19.8a1.67,1.67,0,0,1,2.36,0l7.06,7a1.68,1.68,0,0,1,0,2.37L80.43,99.51a1.67,1.67,0,0,1-2.36,0l-7-7.05A1.68,1.68,0,0,1,71,90.09Z"/><path class="cls-4" d="M91.35,79.18a1.49,1.49,0,0,0,2.12,0,1.5,1.5,0,0,0-2.12-2.12A1.49,1.49,0,0,0,91.35,79.18Z"/><path class="cls-5" d="M72.61,53.68l-5-5,0-.05A6.47,6.47,0,0,1,70.16,47l4.57,4.57a1.5,1.5,0,1,1-2.12,2.12Z"/><path class="cls-2" d="M41.25,82.78,63.82,60.2a3.61,3.61,0,0,0,0-5.11,3.56,3.56,0,0,0-2-1,3.63,3.63,0,0,0-3.14,1l5.81-5.81a3.6,3.6,0,0,0,1.06-2.56,3.86,3.86,0,0,0,0-.58,3.58,3.58,0,0,0-3-3,3.59,3.59,0,0,0-2.81.71L62,41.66A3.65,3.65,0,0,0,63,39.1a3.81,3.81,0,0,0-.05-.59,3.54,3.54,0,0,0-1-2,3.5,3.5,0,0,0-2-1,3.61,3.61,0,0,0-3.13,1l-2.54,2.54A3.61,3.61,0,1,0,49.21,34L34.54,48.64l0-.06A6.55,6.55,0,0,0,32,47a6.63,6.63,0,0,0-6.81,1.59L18.3,55.43a7,7,0,0,0-2.05,5v4.28A7.51,7.51,0,0,1,14,70l-1.52,1.53L30,89,31.9,87a7.59,7.59,0,0,1,4.85-2.19A7,7,0,0,0,41.25,82.78Z"/><path class="cls-6" d="M31.09,90.1,11.28,70.29a1.67,1.67,0,0,0-2.36,0l-7,7.06a1.67,1.67,0,0,0,0,2.36l19.8,19.8a1.67,1.67,0,0,0,2.36,0l7.06-7.05A1.67,1.67,0,0,0,31.09,90.1Z"/><path class="cls-7" d="M24.33,92.75a1.5,1.5,0,0,0-2.12-2.12,1.5,1.5,0,0,0,2.12,2.12Z"/><path class="cls-5" d="M29.49,53.69l5.05-5,0-.06A6.55,6.55,0,0,0,32,47l-4.58,4.58a1.49,1.49,0,0,0,0,2.12A1.51,1.51,0,0,0,29.49,53.69Z"/><path class="cls-8" d="M65.49,28.68V60.6a3.62,3.62,0,0,1-3.61,3.62,3.54,3.54,0,0,1-2.12-.69,3.59,3.59,0,0,1-1.5-2.93v8.22a3.58,3.58,0,0,1-1.06,2.56,2.61,2.61,0,0,1-.44.37,3.51,3.51,0,0,1-2.11.69,3.61,3.61,0,0,1-3.59-3.17V72.4A3.58,3.58,0,0,1,50,75a4.09,4.09,0,0,1-.44.39,3.62,3.62,0,0,1-5.73-2.95V68.82a3.59,3.59,0,0,1-1.5,2.93,3.51,3.51,0,0,1-2.11.69,3.62,3.62,0,0,1-3.62-3.62V48.07l-.06,0a6.52,6.52,0,0,1-2.93-.69,6.62,6.62,0,0,1-3.69-5.93V31.79a7,7,0,0,1,2-4.95l3-3a7.58,7.58,0,0,0,2.2-5.34V16.31H61.87v2.76a7.54,7.54,0,0,0,1.88,5A7,7,0,0,1,65.49,28.68Z"/><path class="cls-5" d="M63.83,55.09a3.56,3.56,0,0,0-2-1,3.63,3.63,0,0,0-3.14,1l5.81-5.81a3.61,3.61,0,0,0,1.07-2.56,3.9,3.9,0,0,0,0-.58,3.63,3.63,0,0,0-1-2,3.63,3.63,0,0,0-4.77-.29L62,41.66A3.65,3.65,0,0,0,63,39.1a3.81,3.81,0,0,0-.05-.59,3.54,3.54,0,0,0-1-2,3.5,3.5,0,0,0-2-1,3.61,3.61,0,0,0-3.13,1l-2.54,2.54A3.61,3.61,0,1,0,49.21,34L34.54,48.64l0-.06A6.55,6.55,0,0,0,32,47a6.7,6.7,0,0,0-3.44-.21,9.62,9.62,0,0,0,3.77,3.31,9,9,0,0,0,1.33.54V68.82a6.62,6.62,0,0,0,6.61,6.62,6.14,6.14,0,0,0,1.29-.13,6.64,6.64,0,0,0,3.84,3.37L63.82,60.2A3.61,3.61,0,0,0,63.83,55.09Z"/><path class="cls-5" d="M68.49,60.6V47.83a6.94,6.94,0,0,0-.89.75l0,.05L52.89,34a3.62,3.62,0,0,0-5.11,0,3.56,3.56,0,0,0-1,2,3.63,3.63,0,0,0,1,3.14l-2.53-2.54a3.63,3.63,0,0,0-3.14-1,3.53,3.53,0,0,0-2,1,3.57,3.57,0,0,0-1,2,3.81,3.81,0,0,0,0,.59,3.62,3.62,0,0,0,1.07,2.56l2.21,2.21a3.63,3.63,0,0,0-2.82-.72,3.58,3.58,0,0,0-2,1,3.65,3.65,0,0,0-1,2,3.77,3.77,0,0,0,0,.58,3.6,3.6,0,0,0,1.06,2.56l5.81,5.81a3.61,3.61,0,0,0-5.11,5.11L53.4,75.32a6.58,6.58,0,0,0,5.11-1.13,6.7,6.7,0,0,0,.81-.69,6.57,6.57,0,0,0,1.94-4.68V67.19c.2,0,.41,0,.61,0A6.63,6.63,0,0,0,68.49,60.6Z"/><path class="cls-8" d="M65.49,28.68V60.6a3.62,3.62,0,0,1-3.61,3.62h-.17a3.63,3.63,0,0,1-2-.68h0a3.59,3.59,0,0,1-1.5-2.93v8.22a3.58,3.58,0,0,1-1.06,2.56,2.61,2.61,0,0,1-.44.37,3.51,3.51,0,0,1-2.11.69,3.61,3.61,0,0,1-3.59-3.17V72.4A3.58,3.58,0,0,1,50,75a4.09,4.09,0,0,1-.44.39,3.62,3.62,0,0,1-5.73-2.95V68.82a3.59,3.59,0,0,1-1.5,2.93,3.51,3.51,0,0,1-2.11.69,3.62,3.62,0,0,1-3.62-3.62V48.07l-.06,0a6.52,6.52,0,0,1-2.93-.69,6.62,6.62,0,0,1-3.69-5.93V31.79a7,7,0,0,1,2-4.95l3-3a7.47,7.47,0,0,0,1.86-3.11,7.36,7.36,0,0,0,.34-2.23V16.31H61.87v2.76a7,7,0,0,0,.24,1.87,7.54,7.54,0,0,0,1.64,3.11A7.09,7.09,0,0,1,65.49,28.68Z"/><path class="cls-2" d="M65.49,28.68V60.6a3.62,3.62,0,0,1-3.61,3.62h-.17a3.63,3.63,0,0,1-2-.68l.07-30.76a5.67,5.67,0,0,0-.12-.86A13.9,13.9,0,0,0,45.8,20.7H36.86a7.36,7.36,0,0,0,.34-2.23V16.31H61.87v2.76a7,7,0,0,0,.24,1.87,7.54,7.54,0,0,0,1.64,3.11A7.09,7.09,0,0,1,65.49,28.68Z"/><path class="cls-9" d="M63.48,16.32h-28a1.68,1.68,0,0,1-1.67-1.68v-10A1.67,1.67,0,0,1,35.47,3h28a1.67,1.67,0,0,1,1.67,1.67v10A1.68,1.68,0,0,1,63.48,16.32Z"/><path class="cls-10" d="M41.72,9.66a1.5,1.5,0,1,0-1.5,1.5A1.5,1.5,0,0,0,41.72,9.66Z"/><path class="cls-2" d="M59.76,43.89V63.53a3.59,3.59,0,0,1-1.5-2.93v8.22a3.58,3.58,0,0,1-1.06,2.56,2.61,2.61,0,0,1-.44.37V43.89a1.5,1.5,0,0,1,3,0Z"/><path class="cls-2" d="M52.55,43.89V71.77a3.63,3.63,0,0,1-1.49-2.5V72.4A3.58,3.58,0,0,1,50,75a3.31,3.31,0,0,1-.44.39V43.89a1.5,1.5,0,0,1,3,0Z"/><path class="cls-2" d="M45.33,43.89V75.34a3.65,3.65,0,0,1-1.5-2.94V68.82a3.59,3.59,0,0,1-1.5,2.93V43.89a1.5,1.5,0,0,1,3,0Z"/><path class="cls-2" d="M36.61,40.93v7.14l-.07,0a6.52,6.52,0,0,1-2.93-.69V40.93a1.5,1.5,0,1,1,3,0Z"/></svg>