<?xml version="1.0" encoding="utf-8"?>
<!-- Generator: Adobe Illustrator 21.0.0, SVG Export Plug-In . SVG Version: 6.00 Build 0)  -->
<svg version="1.1" id="Layer_1" xmlns="http://www.w3.org/2000/svg" xmlns:xlink="http://www.w3.org/1999/xlink" x="0px" y="0px"
	 viewBox="0 0 78 78" style="enable-background:new 0 0 78 78;" xml:space="preserve">
<style type="text/css">
	.st0{stroke:#000000;stroke-width:0.5;}
	.st1{fill:#00A845;}
	.st2{fill:#FFFFFF;}
	.st3{fill:#FFFFFF;stroke:#000000;stroke-width:2.5;}
</style>
<title>ta03</title>
<desc>Created with Sketch.</desc>
<g id="ta03">
	<g id="Shape-path" transform="translate(14.000000, 10.000000)">
		<path class="st0" d="M10.1,16.9c0-0.6,0.1-2.4,1.3-2.9c1.2-0.5,2.5,0.8,2.8,1.1c0.3,0.3,0.3,0.9-0.1,1.2c-0.3,0.3-0.9,0.3-1.2-0.1
			c-0.3-0.3-0.7-0.6-0.9-0.7c0,0-0.2,0.3-0.2,1.2c-0.1,3.2,2.4,4.1,2.4,4.1c0.2,0.1,0.5,0.3,0.6,0.6v0.2c0,0.1,0,0.1,0,0.2
			c0.7,8.4,7.3,11.1,10.4,11.1S35,30.3,35.7,22c0-0.1,0-0.1,0-0.2v-0.2c0.1-0.2,0.2-0.5,0.6-0.6c0.1,0,2.5-0.9,2.4-4.1
			c0-1.1-0.2-1.3-0.2-1.3c-0.1,0-0.6,0.3-0.9,0.7c-0.3,0.3-0.9,0.3-1.2,0s-0.3-0.9-0.1-1.2c0.2-0.2,1.6-1.6,2.8-1.1
			c1.2,0.5,1.3,2.2,1.3,2.9c0.1,3.1-1.7,4.9-3.1,5.6c-0.9,8.4-7.5,12.2-12.1,12.2S14,30.9,13.1,22.5C11.9,21.8,10.1,20.1,10.1,16.9z
			"/>
		<path class="st0" d="M49.6,42.5c0-0.1,0-0.1,0-0.2c-0.9-6-5.7-11.6-12.2-14.2c-0.4-0.2-1,0-1.1,0.5c-0.2,0.4,0,1,0.5,1.1
			c5.9,2.5,10.3,7.5,11.2,12.8v9.5c0,0,0.2,3.1-1.6,5c-1,1.1-2.5,1.6-4.4,1.6c-0.5,0-0.9,0.4-0.9,0.9c0,0.5,0.4,0.9,0.9,0.9
			c2.5,0,4.3-0.7,5.7-2.2c2.3-2.5,2-6.2,2-6.2C49.6,52.1,49.6,42.5,49.6,42.5z"/>
		<path class="st0" d="M8.5,58.7c-2,0-3.4-0.6-4.4-1.6c-1.8-2-1.6-5-1.6-5.1v-9.4c0.8-5.3,5.2-10.3,11.2-12.8
			c0.4-0.2,0.7-0.7,0.5-1.1C14,28.2,13.5,28,13,28.1C6.5,30.8,1.7,36.4,0.8,42.4c0,0.1,0,0.1,0,0.2v9.4c0,0.2-0.3,3.9,2,6.3
			c1.3,1.5,3.3,2.2,5.7,2.2c0.5,0,0.9-0.4,0.9-0.9C9.4,59.1,9,58.7,8.5,58.7z"/>
		<path d="M38.1,57.7c-1.1,0-2.1-0.4-2.8-1c-2.5,3-6.2,4.7-10,4.7s-7.5-1.7-10-4.7c-0.8,0.6-1.7,1-2.8,1c-2.5,0-4.7-2.1-4.7-4.7
			v-5.9c0-1.2,0-2.7,1-3.7c0.7-0.7,2-1.1,3.6-1.1c0.4,0,0.8,0,1.1,0.1c2.2-4.3,6.7-7.1,11.6-7.1c4.8,0,9.4,2.7,11.6,7
			c0,0.1,0,0.1,0.1,0.2c0.4-0.1,0.7-0.1,1.2-0.1c1.7,0,2.9,0.4,3.6,1.1c1,1,1,2.5,1,3.7V53C42.8,55.6,40.7,57.7,38.1,57.7z"/>
		<path class="st1" d="M27.5,37.2v5.2c1.6,0.7,3,2,3.6,3.6h2.4c0.1-1,0.2-1.9,1-2.6c0.2-0.2,0.5-0.4,0.7-0.6
			C33.6,39.9,30.8,37.8,27.5,37.2z"/>
		<path class="st1" d="M17.2,50.4h2.2c-0.2-0.7-0.4-1.4-0.4-2.1c0-0.2,0-0.3,0-0.5h-1.9L17.2,50.4L17.2,50.4z"/>
		<path class="st2" d="M25.3,52.8c2.5,0,4.6-2.1,4.6-4.6s-2.1-4.6-4.6-4.6s-4.6,2.1-4.6,4.6S22.8,52.8,25.3,52.8z"/>
		<path class="st1" d="M31.5,48.3c0,0.7-0.2,1.5-0.4,2.1h2.3v-2.6h-2C31.5,48,31.5,48.1,31.5,48.3z"/>
		<path class="st1" d="M25.3,36.9c-0.2,0-0.3,0-0.5,0V42c0.2,0,0.3,0,0.5,0c0.2,0,0.3,0,0.5,0v-5.1C25.6,36.9,25.5,36.9,25.3,36.9z"
			/>
		<path class="st1" d="M15.3,42.8c0.3,0.2,0.6,0.3,0.8,0.6c0.7,0.7,0.9,1.7,1,2.6h2.3c0.7-1.6,2-3,3.6-3.6v-5.2
			C19.8,37.8,16.9,39.9,15.3,42.8z"/>
		<path class="st2" d="M15.1,54.2h-1.7c-0.5,0-0.9-0.4-0.9-0.9c0-0.5,0.4-0.9,0.9-0.9h2v-1.3h-2c-0.5,0-0.9-0.4-0.9-0.9
			c0-0.5,0.4-0.9,0.9-0.9h2v-1.5h-2c-0.5,0-0.9-0.4-0.9-0.9c0-0.5,0.4-0.9,0.9-0.9h2c0-0.7-0.2-1.1-0.5-1.5
			c-0.4-0.4-1.2-0.7-2.4-0.7c-1.2,0-2,0.2-2.4,0.7C9.6,45,9.6,46,9.6,47v5.9c0,1.6,1.3,3,3,3C13.7,55.9,14.7,55.3,15.1,54.2z"/>
		<path class="st1" d="M34.1,55.4C34.1,55.4,34.2,55.4,34.1,55.4c-0.3-0.7-0.6-1.6-0.6-2.5v-0.8h-3.3c-1.1,1.5-3,2.4-4.9,2.4
			s-3.8-0.9-4.9-2.4l0,0h-3.2V53c0,0.9-0.2,1.7-0.7,2.4c2.1,2.7,5.3,4.2,8.8,4.2C28.7,59.6,32,58.2,34.1,55.4z"/>
		<path class="st2" d="M38.1,55.9c1.6,0,3-1.3,3-3v-5.9c0-1,0-2-0.5-2.5c-0.4-0.4-1.2-0.7-2.4-0.7c-1.2,0-2,0.2-2.4,0.7
			c-0.3,0.3-0.4,0.9-0.5,1.5h2c0.5,0,0.9,0.4,0.9,0.9c0,0.5-0.4,0.9-0.9,0.9h-2v1.5h2c0.5,0,0.9,0.4,0.9,0.9c0,0.5-0.4,0.9-0.9,0.9
			h-2v1.4h2c0.5,0,0.9,0.4,0.9,0.9s-0.4,0.9-0.9,0.9h-1.7C36,55.3,37,55.9,38.1,55.9z"/>
		<path class="st0" d="M25.8,17.8V22h-1.9c-0.5,0-0.9,0.4-0.9,0.9c0,0.5,0.4,0.9,0.9,0.9h2.7c0.5,0,0.9-0.4,0.9-0.9v-5.1
			c0-0.5-0.4-0.9-0.9-0.9C26.2,17,25.8,17.3,25.8,17.8z"/>
		<path class="st3" d="M11.4,10.8c0-6.1,0-12.4,10.7-13.4c0.2-0.7,1.6-1.3,3.2-1.3s3,0.6,3.1,1.2c10.7,1,10.7,7.3,10.7,13.4
			c0,0.5-0.4,0.9-0.9,0.9h-26C11.8,11.6,11.4,11.2,11.4,10.8z"/>
		<path d="M26.9,6h-3.1c-1.6,0-3,1-3,2.3h9C29.8,7.1,28.5,6,26.9,6z"/>
		<path class="st0" d="M31.8,34.5c-0.2,0.4,0,1,0.4,1.1l4.1,2c0.1,0.1,0.2,0.1,0.3,0.1c0.2,0,0.3,0,0.4-0.1c0.2-0.2,0.4-0.4,0.4-0.7
			l0.3-5c0-0.5-0.3-0.9-0.8-0.9c-0.5,0-0.9,0.3-0.9,0.8l-0.2,3.7l-3-1.4C32.5,33.9,32,34,31.8,34.5z"/>
		<path class="st0" d="M17.6,34l-3,1.4l-0.2-3.7c0-0.5-0.4-0.8-0.9-0.8c-0.5,0-0.8,0.4-0.8,0.9l0.3,5c0,0.2,0.2,0.6,0.4,0.7
			c0.2,0.1,0.2,0.1,0.4,0.1s0.2,0,0.3-0.1l4.1-2c0.4-0.2,0.7-0.7,0.4-1.1C18.6,34,18.1,33.9,17.6,34z"/>
		<path class="st0" d="M9.6,13.7c0-0.5-0.4-0.9-0.9-0.9C8.5,12.8-4.2,13-4.2,26v33.1c0,0.5,0.4,0.9,0.9,0.9s0.9-0.4,0.9-0.9V26
			c0-11.3,10.7-11.5,11.2-11.5C9.2,14.5,9.6,14.2,9.6,13.7z"/>
		<path class="st0" d="M42,12.8c-0.5,0-0.9,0.4-0.9,0.9c0,0.5,0.4,0.9,0.9,0.9s11.2,0.2,11.2,11.5v33.1c0,0.5,0.4,0.9,0.9,0.9
			c0.5,0,0.9-0.4,0.9-0.9V26C54.8,13,42,12.8,42,12.8z"/>
	</g>
</g>
</svg>
