<?xml version="1.0" encoding="utf-8"?>
<!-- Generator: Adobe Illustrator 21.0.0, SVG Export Plug-In . SVG Version: 6.00 Build 0)  -->
<svg version="1.1" id="Layer_1" xmlns="http://www.w3.org/2000/svg" xmlns:xlink="http://www.w3.org/1999/xlink" x="0px" y="0px"
	 viewBox="0 0 78 78" style="enable-background:new 0 0 78 78;" xml:space="preserve">
<style type="text/css">
	.st0{fill:#00A845;}
	.st1{fill:#FFCC01;}
	.st2{fill:#FFFFFF;}
	.st3{fill:#3D3D3D;}
</style>
<title>cu10</title>
<desc>Created with Sketch.</desc>
<g id="cu10">
	<g transform="translate(16.000000, 10.000000)">
		<path id="Shape" d="M28.5,64.8H-1.5c-2.9,0-5.3-2.3-5.3-5.3v-61c0-3,2.4-5.3,5.3-5.3h30.1c2.9,0,5.3,2.3,5.3,5.3v61.1
			C33.8,62.5,31.4,64.8,28.5,64.8z M31.4,50.5H-4.4v9c0,1.6,1.3,2.9,2.9,2.9h30.1c1.6,0,2.9-1.3,2.9-2.9V50.5z M13.5,51.6
			c-2.6,0-4.7,2.1-4.7,4.7s2.1,4.7,4.7,4.7s4.7-2.1,4.7-4.7C18.2,53.8,16.1,51.6,13.5,51.6z M31.4,2.8H-4.4v45.3h35.8V2.8z
			 M12.3,31.2H-1.3v-6.2h13.6V31.2z M10.1,27.3H0.8v1.9H10L10.1,27.3L10.1,27.3z M12.3,21.9H-1.3v-6.2h13.6V21.9z M10.1,18H0.8v1.9
			H10L10.1,18L10.1,18z M12.3,12.2H-1.3V6h13.6V12.2z M10.1,8.2H0.8v1.9H10L10.1,8.2L10.1,8.2z M28.5-4.4H-1.5
			c-1.6,0-2.9,1.3-2.9,2.9v1.9h35.8v-1.9C31.4-3.1,30.1-4.4,28.5-4.4z M13.5-0.8H8.8c-0.6,0-1.2-0.5-1.2-1.2s0.5-1.2,1.2-1.2h4.7
			c0.6,0,1.2,0.5,1.2,1.2C14.7-1.3,14.1-0.8,13.5-0.8z M18.2-0.8h-1.2c-0.6,0-1.2-0.5-1.2-1.2s0.5-1.2,1.2-1.2h1.2
			c0.6,0,1.2,0.5,1.2,1.2C19.5-1.3,19-0.8,18.2-0.8z"/>
		<path id="Shape-path" class="st0" d="M13.5,58.8c-1.3,0-2.4-1.1-2.4-2.4s1.1-2.4,2.4-2.4s2.4,1.1,2.4,2.4
			C15.9,57.7,14.8,58.8,13.5,58.8z"/>
		<polygon id="Path-2" class="st1" points="47,28.6 47,34.5 49.4,32.7 49.4,29.4 		"/>
		<path id="Path" class="st2" d="M50.6,14.1c0-3-2.4-5.5-5.5-5.5h-20c-3,0-5.5,2.4-5.5,5.5v21.5c0,3,2.4,5.5,5.5,5.5h20
			c3,0,5.5-2.4,5.5-5.5V14.1z"/>
		<path id="Wallet" class="st3" d="M51.4,28h-1.1v-2.1V13c0-3-2.4-5.4-5.4-5.4H23.6c-3,0-5.4,2.4-5.4,5.4v23.5c0,3,2.4,5.4,5.4,5.4
			H45c3,0,5.4-2.4,5.4-5.4v-2.1h1.1c0.6,0,1.1-0.4,1.1-1.1V29C52.5,28.5,52.1,28,51.4,28z M23.6,9.8H45c1.8,0,3.2,1.4,3.2,3.2v8.6
			c-0.6-0.4-1.3-0.8-2.1-1v-0.1v-3.2V13c0-0.6-0.4-1.1-1.1-1.1H24.7c-1.8,0-3.3,0.9-4.3,2.1V13C20.4,11.2,21.8,9.8,23.6,9.8z
			 M48.2,36.5c0,1.8-1.4,3.2-3.2,3.2H23.6c-1.8,0-3.2-1.4-3.2-3.2V21.6c0.9,0.7,2,1.1,3.2,1.1H45c1.8,0,3.2,1.4,3.2,3.2V28h-5.4
			c-1.8,0-3.2,1.4-3.2,3.2c0,1.8,1.4,3.2,3.2,3.2h5.4C48.2,34.5,48.2,36.5,48.2,36.5z"/>
		<path id="Wallet-path" class="st0" d="M49.5,32.3h-7.5c-0.6,0-1.1-0.4-1.1-1.1c0-0.6,0.4-1.1,1.1-1.1h7.5V32.3z"/>
		<path class="st0" d="M20.6,17.3c0-1.8,1.4-3.2,3.2-3.2H43v2.1H23.8c-1.4,0-2.6,0.9-3,2.1C20.7,18,20.6,17.6,20.6,17.3z"/>
		<path class="st0" d="M23.8,20.5c-0.6,0-1.1-0.4-1.1-1.1s0.4-1.1,1.1-1.1H43v2.1C43,20.5,23.8,20.5,23.8,20.5z"/>
	</g>
</g>
</svg>
