<?xml version="1.0" encoding="utf-8"?>
<!-- Generator: Adobe Illustrator 21.0.0, SVG Export Plug-In . SVG Version: 6.00 Build 0)  -->
<svg version="1.1" id="Layer_1" xmlns="http://www.w3.org/2000/svg" xmlns:xlink="http://www.w3.org/1999/xlink" x="0px" y="0px"
	 viewBox="0 0 78 78" style="enable-background:new 0 0 78 78;" xml:space="preserve">
<style type="text/css">
	.st0{fill:#00A845;}
	.st1{fill:#FFFFFF;}
</style>
<title>df06</title>
<desc>Created with Sketch.</desc>
<g id="df06">
	<g id="Order-History-595b40b65ba036ed117d0afb" transform="translate(11.000000, 13.000000)">
		<path id="Shape" d="M-0.7-6.6v46.7h-5.8v6.8c0,3.7,3.1,6.8,6.8,6.8h38.9v-2.4c-1.7-0.8-2.9-2.5-2.9-4.4v-6.8h-35V-4.6H46v29.2h1.9
			V-6.6H-0.7z M12,6.5c-0.8,0-1.4,0.6-1.4,1.4s0.6,1.4,1.4,1.4s1.4-0.6,1.4-1.4C13.4,7.3,12.8,6.5,12,6.5z M16.8,7.1V9h19.5V7.1
			C36.3,7.1,16.8,7.1,16.8,7.1z M12,14.3c-0.8,0-1.4,0.6-1.4,1.4s0.6,1.4,1.4,1.4s1.4-0.6,1.4-1.4C13.4,15,12.8,14.3,12,14.3z
			 M16.8,14.9v1.9h19.5v-1.9H16.8z M12,22.1c-0.8,0-1.4,0.6-1.4,1.4S11.2,25,12,25s1.4-0.6,1.4-1.4S12.8,22.1,12,22.1z M16.8,22.7
			v1.9h19.5v-1.9H16.8z M12,29.9c-0.8,0-1.4,0.6-1.4,1.4s0.6,1.4,1.4,1.4s1.4-0.6,1.4-1.4S12.8,29.9,12,29.9z M16.8,30.4v1.9h19.5
			v-1.9H16.8z M-4.6,42.1h38.9v4.9c0,1.9,0.8,3.6,2,4.9H0.3c-2.7,0-4.9-2.2-4.9-4.9C-4.6,46.9-4.6,42.1-4.6,42.1z M-2.7,44
			c-0.5,0-1,0.4-1,1s0.4,1,1,1s1-0.4,1-1S-2.1,44-2.7,44z M1.2,44c-0.5,0-1,0.4-1,1s0.4,1,1,1s1-0.4,1-1S1.8,44,1.2,44z M5.1,44
			c-0.5,0-1,0.4-1,1s0.4,1,1,1s1-0.4,1-1S5.7,44,5.1,44z M9,44c-0.5,0-1,0.4-1,1s0.4,1,1,1c0.5,0,1-0.4,1-1S9.6,44,9,44z M12.9,44
			c-0.5,0-1,0.4-1,1s0.4,1,1,1c0.5,0,1-0.4,1-1S13.5,44,12.9,44z M16.8,44c-0.5,0-1,0.4-1,1s0.4,1,1,1s1-0.4,1-1S17.4,44,16.8,44z
			 M20.7,44c-0.5,0-1,0.4-1,1s0.4,1,1,1s1-0.4,1-1S21.3,44,20.7,44z M24.6,44c-0.5,0-1,0.4-1,1s0.4,1,1,1c0.5,0,1-0.4,1-1
			S25.2,44,24.6,44z M28.4,44c-0.5,0-1,0.4-1,1s0.4,1,1,1c0.5,0,1-0.4,1-1S29.1,44,28.4,44z M32.3,44c-0.5,0-1,0.4-1,1s0.4,1,1,1
			s1-0.4,1-1S33,44,32.3,44z"/>
		<g id="Group" transform="translate(51.000000, 39.000000)">
			<path id="Path" class="st0" d="M-10.9-10.6c-0.4,0-0.7,0.2-0.9,0.4c-0.2,0.3-0.2,0.7,0,1c0.2,0.3,0.5,0.5,0.9,0.4h1v1.9v1.9v2.9
				c0,3.5,1.9,6.6,4.8,8.2C-7.9,8-9.9,11-9.9,14.6v2.9v1.9v1.9h-1c-0.4,0-0.7,0.2-0.9,0.4c-0.2,0.3-0.2,0.7,0,1
				c0.2,0.3,0.5,0.5,0.9,0.4h21.4c0.4,0,0.7-0.2,0.9-0.4c0.2-0.3,0.2-0.7,0-1c-0.2-0.3-0.5-0.5-0.9-0.4h-1v-1.9v-1.9v-2.9
				C9.6,11,7.7,8,4.8,6.3c2.8-1.7,4.8-4.7,4.8-8.2v-2.8v-1.9v-1.9h1c0.4,0,0.7-0.2,0.9-0.4c0.2-0.3,0.2-0.7,0-1
				c-0.2-0.3-0.5-0.5-0.9-0.4L-10.9-10.6L-10.9-10.6z"/>
			<polygon class="st1" points="-7.9,-8.6 7.7,-8.6 7.7,-6.7 -7.9,-6.7 			"/>
			<path class="st1" d="M-7.9-4.7H7.7v2.9c0,3.4-2.2,6.3-5.2,7.4L1.8,5.8v1.4l0.6,0.3c3,1.1,5.2,3.9,5.2,7.4v2.9H-7.9v-2.9
				c0-3.4,2.2-6.3,5.2-7.4l0.6-0.3V5.8l-0.6-0.3c-3-1.1-5.2-3.9-5.2-7.4V-4.7z"/>
			<path d="M-2.1,1.1c-0.5,0-1,0.4-1,1s0.4,1,1,1s1-0.4,1-1S-1.6,1.1-2.1,1.1z"/>
			<path d="M1.8,1.1c-0.5,0-1,0.4-1,1s0.4,1,1,1s1-0.4,1-1S2.3,1.1,1.8,1.1z"/>
			<path d="M-0.1,4c-0.5,0-1,0.4-1,1s0.4,1,1,1s1-0.4,1-1S0.4,4-0.1,4z"/>
			<path d="M-2.1,10.9c-0.5,0-1,0.4-1,1s0.4,1,1,1s1-0.4,1-1S-1.6,10.9-2.1,10.9z"/>
			<path d="M1.8,10.9c-0.5,0-1,0.4-1,1s0.4,1,1,1s1-0.4,1-1S2.3,10.9,1.8,10.9z"/>
			<path d="M-4,13.8c-0.5,0-1,0.4-1,1s0.4,1,1,1s1-0.4,1-1S-3.5,13.8-4,13.8z"/>
			<path d="M-0.1,13.8c-0.5,0-1,0.4-1,1s0.4,1,1,1s1-0.4,1-1S0.4,13.8-0.1,13.8z"/>
			<path d="M3.8,13.8c-0.5,0-1,0.4-1,1s0.4,1,1,1s1-0.4,1-1S4.3,13.8,3.8,13.8z"/>
			<polygon class="st1" points="-7.9,19.6 7.7,19.6 7.7,21.6 -7.9,21.6 			"/>
		</g>
	</g>
</g>
</svg>
