<?xml version="1.0" encoding="utf-8"?>
<!-- Generator: Adobe Illustrator 21.0.0, SVG Export Plug-In . SVG Version: 6.00 Build 0)  -->
<svg version="1.1" id="Layer_1" xmlns="http://www.w3.org/2000/svg" xmlns:xlink="http://www.w3.org/1999/xlink" x="0px" y="0px"
	 viewBox="0 0 78 78" style="enable-background:new 0 0 78 78;" xml:space="preserve">
<style type="text/css">
	.st0{fill:#00A845;}
	.st1{fill:#FFFFFF;stroke:#000000;stroke-width:2.5;}
	.st2{fill:#00A845;stroke:#000000;stroke-width:1.5;}
</style>
<title>cu07</title>
<desc>Created with Sketch.</desc>
<g id="cu07">
	<g transform="translate(19.000000, 10.000000)">
		<path id="Shape" d="M27.3,63.2H-1.4c-2.8,0-5-2.2-5-5V-0.1c0-2.8,2.2-5,5-5h28.7c2.7,0,5,2.2,5,5v58.3
			C32.2,60.9,30,63.2,27.3,63.2z M30,49.5H-4.1v8.6c0,1.5,1.2,2.7,2.7,2.7h28.7c1.5,0,2.7-1.2,2.7-2.7V49.5z M12.9,50.6
			c-2.5,0-4.5,2-4.5,4.5s2,4.5,4.5,4.5s4.5-2,4.5-4.5C17.5,52.7,15.4,50.6,12.9,50.6z M30,4H-4.1v43.3H30V4z M11.7,43.4H-1.2v-9.9
			h12.9V43.4z M9.6,35.6H0.8v5.9h8.8V35.6z M11.7,30.5H-1.2v-9.9h12.9V30.5z M9.6,22.6H0.8v5.9h8.8V22.6z M11.7,17H-1.2V7.1h12.9V17
			z M9.6,9.2H0.8v5.9h8.8V9.2z M27.3-2.9H-1.4c-1.5,0-2.7,1.2-2.7,2.7v1.8H30v-1.8C30-1.7,28.7-2.9,27.3-2.9z M12.9,0.6H8.4
			c-0.6,0-1.1-0.5-1.1-1.1c-0.1-0.7,0.4-1.2,1-1.2h4.5c0.7,0,1.2,0.5,1.2,1.1C14,0.1,13.5,0.6,12.9,0.6z M17.5,0.6h-1.1
			c-0.6,0-1.1-0.5-1.1-1.1s0.5-1.1,1.1-1.1h1.1c0.6,0,1.1,0.5,1.1,1.1S18.1,0.6,17.5,0.6z"/>
		<path id="Shape-path" class="st0" d="M12.9,57.4c-1.3,0-2.3-1-2.3-2.3s1-2.3,2.3-2.3s2.3,1,2.3,2.3C15.2,56.4,14.1,57.4,12.9,57.4
			z"/>
		<path id="Path" class="st1" d="M46.7,10.6C46.7,8.7,45,7,43,7H21c-2,0-3.7,1.6-3.7,3.7v13c0,2,1.6,3.7,3.7,3.7h2.3L23.2,36
			l8.1-8.7h11.8c2,0,3.7-1.6,3.7-3.7L46.7,10.6L46.7,10.6z"/>
		<path id="Bell" class="st2" d="M37,20.4c-1-0.9-1.7-3.1-1.7-5.6c0-1.5-0.9-2.7-2.2-3.2l-0.3-0.1l-0.1-0.3
			c-0.1-0.3-0.3-0.6-0.7-0.6c-0.3,0-0.6,0.3-0.7,0.6l-0.1,0.3l-0.3,0.1c-1.4,0.4-2.2,1.7-2.2,3.2c0,2.5-0.7,4.6-1.7,5.6
			c-0.3,0.3-0.5,0.7-0.5,1.2c0,0.3,0.3,0.7,0.7,0.7h4.2v0.7c0,0.4,0.3,0.7,0.7,0.7c0.3,0,0.7-0.3,0.7-0.7v-0.7h4.2
			c0.3,0,0.7-0.3,0.7-0.7C37.6,21.1,37.4,20.6,37,20.4z M37,20.4L37,20.4L37,20.4L37,20.4z"/>
	</g>
</g>
</svg>
