<?xml version="1.0" encoding="utf-8"?>
<!-- Generator: Adobe Illustrator 21.0.0, SVG Export Plug-In . SVG Version: 6.00 Build 0)  -->
<svg version="1.1" id="Layer_1" xmlns="http://www.w3.org/2000/svg" xmlns:xlink="http://www.w3.org/1999/xlink" x="0px" y="0px"
	 viewBox="0 0 78 78" style="enable-background:new 0 0 78 78;" xml:space="preserve">
<style type="text/css">
	.st0{fill:#00A845;stroke:#000000;stroke-width:2;}
	.st1{fill:#FFFFFF;stroke:#000000;stroke-width:2;}
	.st2{fill:#00A845;stroke:#000000;stroke-width:1.5;}
	.st3{fill:#FFFFFF;stroke:#000000;stroke-width:1.5;}
</style>
<title>ta04</title>
<desc>Created with Sketch.</desc>
<g id="ta04">
	<g transform="translate(12.000000, 10.000000)">
		<g id="Group" transform="translate(18.930246, 44.444445)">
			<path id="Shape" d="M30,7.4c2.3,0,4.2,1.9,4.2,4.2s-1.9,4.2-4.2,4.2s-4.2-1.9-4.2-4.2S27.7,7.4,30,7.4z M30,14
				c1.4,0,2.5-1.1,2.5-2.5S31.4,9.1,30,9.1c-1.4,0-2.5,1.1-2.5,2.5S28.6,14,30,14z"/>
			<path id="Path" d="M17,6.5h1.7c0.3,0,0.4,0.2,0.4,0.4v1.7c0,0.3-0.2,0.4-0.4,0.4H17c-0.3,0-0.4-0.2-0.4-0.4V6.9
				C16.5,6.7,16.7,6.5,17,6.5z"/>
			<path d="M11.9,6.5h1.7c0.3,0,0.4,0.2,0.4,0.4v1.7c0,0.3-0.2,0.4-0.4,0.4h-1.7c-0.3,0-0.4-0.2-0.4-0.4V6.9
				C11.5,6.7,11.6,6.5,11.9,6.5z"/>
			<path d="M9.3,3.1H11c0.3,0,0.4,0.2,0.4,0.4v1.7c0,0.3-0.2,0.4-0.4,0.4H9.3c-0.3,0-0.4-0.2-0.4-0.4V3.5C8.9,3.3,9.1,3.1,9.3,3.1z"
				/>
			<path d="M14.4,3.1h1.7c0.3,0,0.4,0.2,0.4,0.4v1.7c0,0.3-0.2,0.4-0.4,0.4h-1.7c-0.3,0-0.4-0.2-0.4-0.4V3.5
				C13.9,3.3,14.2,3.1,14.4,3.1z"/>
			<path d="M19.4,3.1h1.7c0.3,0,0.4,0.2,0.4,0.4v1.7c0,0.3-0.2,0.4-0.4,0.4h-1.7c-0.3,0-0.4-0.2-0.4-0.4V3.5
				C19,3.3,19.3,3.1,19.4,3.1z"/>
			<path d="M-8.8,7.4V2.3c0-0.3,0.3-0.7,0.6-0.8L-3.5,0c2.1-3.4,5-5.6,9.2-6.8l0.7-2.9c0.1-0.3,0.4-0.6,0.9-0.6h9.3
				c0.4,0,0.7,0.3,0.9,0.6l0.9,3.3l0,0c4.5,1,8,3,10.6,6.1c5.6,0.1,11.4,1.8,11.4,5.1v2.5c0.4,0,0.9,0.3,0.9,0.9v3.4
				c0,0.4-0.3,0.9-0.9,0.9h-3.3c-0.4,0-0.9-0.3-0.9-0.9c0-3.3-2.7-5.9-5.9-5.9c-3.3,0-5.9,2.7-5.9,5.9c0,0.4-0.3,0.9-0.9,0.9H8.1
				c-0.4,0-0.9-0.3-0.9-0.9c0-3.3-2.7-5.9-5.9-5.9s-5.9,2.7-5.9,5.9c0,0.4-0.3,0.9-0.9,0.9h-3.3c-0.4,0-0.9-0.3-0.9-0.9V8.1
				C-9.7,7.7-9.2,7.4-8.8,7.4z M1.5-3.1C0.4-2.3-0.6-1.4-1.4-0.2h3.3L1.5-3.1z M6.6-5.4C5.3-5,4.2-4.6,3.1-4.1l0.6,3.9h9.2l-1.3-5.1
				C10.1-5.5,8.4-5.4,6.6-5.4z M15.8-8.7H7.9L7.5-7.1c3.3-0.2,6.3-0.1,8.8,0.3L15.8-8.7z M13.3-5.4l1.3,5.1h11.8
				C24.2-2.5,20.5-4.8,13.3-5.4z M-7.9,10.7h1.7c0.4-3.8,3.6-6.8,7.6-6.8s7.1,2.9,7.6,6.8h13.6C22.9,6.9,26,3.9,30,3.9
				s7.1,2.9,7.6,6.8h1.7V9c-0.4,0-0.9-0.3-0.9-0.9V5.6h-0.9c-0.4,0-0.9-0.3-0.9-0.9c0-0.4,0.3-0.9,0.9-0.9H38
				c-1.1-1.2-4.6-2.5-9.7-2.5H-2.8l-4.4,1.5V4h0.9c0.4,0,0.9,0.3,0.9,0.9c0,0.4-0.3,0.9-0.9,0.9h-0.9v2.4C-7.2,8.6-7.5,9-8,9
				L-7.9,10.7L-7.9,10.7z"/>
			<path d="M1.3,7.4c2.3,0,4.2,1.9,4.2,4.2s-1.9,4.2-4.2,4.2s-4.2-1.9-4.2-4.2C-2.9,9.2-1,7.4,1.3,7.4z M1.3,14
				c1.4,0,2.5-1.1,2.5-2.5S2.7,9.1,1.3,9.1s-2.5,1.1-2.5,2.5C-1.2,12.9,0,14,1.3,14z"/>
		</g>
		<path d="M6.5,16.4l5.8,17.4L-3.1,59.5h61.2c0.7,0,1.3,0.6,1.3,1.3l0,0c0,0.7-0.6,1.3-1.3,1.3H-5.6c-0.5,0-0.9-0.3-1.2-0.7l0,0
			c-0.3-0.4-0.3-0.9,0-1.4l16-26.1L4,17c-0.2-0.6,0.2-1.3,0.8-1.5l0,0l0,0C5.6,15.4,6.2,15.7,6.5,16.4z"/>
		<path id="Shape-path" class="st0" d="M40.8-3.9c7,0,12.6,5.7,12.6,12.6s-8.6,18.9-12.6,23.9c-4.2-5.1-12.6-16.9-12.6-23.9
			S33.8-3.9,40.8-3.9z"/>
		<path class="st1" d="M40.8,1.9c3.9,0,7,3.1,7,7s-3.1,7-7,7s-7-3.1-7-7C33.8,5.1,37,1.9,40.8,1.9z"/>
		<path class="st2" d="M3.9-1.8c3.2,0,5.8,2.6,5.8,5.8s-3.9,8.7-5.8,10.9C2,12.5-1.8,7.1-1.8,4S0.8-1.8,3.9-1.8z"/>
		<path class="st3" d="M3.9,0.8c1.7,0,3.2,1.5,3.2,3.2S5.6,7.1,3.9,7.1S0.8,5.7,0.8,4S2.1,0.8,3.9,0.8z"/>
		<path d="M40.8,4.6c0.2,0,0.3,0.1,0.3,0.3v3.9l2.1,2c0.1,0.1,0.1,0.3,0,0.3l-0.3,0.3c-0.1,0.1-0.3,0.1-0.3,0l-2.2-2.1
			c0,0,0,0,0-0.1c-0.1,0-0.2-0.1-0.2-0.3V4.6c0-0.2,0.1-0.3,0.3-0.3h0.5V4.6z"/>
	</g>
</g>
</svg>
