<?xml version="1.0" encoding="utf-8"?>
<!-- Generator: Adobe Illustrator 21.0.0, SVG Export Plug-In . SVG Version: 6.00 Build 0)  -->
<svg version="1.1" id="Layer_1" xmlns="http://www.w3.org/2000/svg" xmlns:xlink="http://www.w3.org/1999/xlink" x="0px" y="0px"
	 viewBox="0 0 78 78" style="enable-background:new 0 0 78 78;" xml:space="preserve">
<style type="text/css">
	.st0{fill:#00A845;stroke:#000000;stroke-width:2.5;}
	.st1{fill:#FFFFFF;stroke:#000000;stroke-width:2.5;}
	.st2{stroke:#FFFFFF;stroke-width:0.5;}
	.st3{fill:#00A845;}
</style>
<title>ta01</title>
<desc>Created with Sketch.</desc>
<g id="ta01">
	<g transform="translate(9.000000, 11.000000)">
		<path id="Shape-path" class="st0" d="M48.9-3.9c7.2,0,13,5.8,13,13s-8.9,19.5-13,24.6c-4.3-5.1-13-17.4-13-24.6
			C35.9,2,41.7-3.9,48.9-3.9z"/>
		<path class="st1" d="M48.9,2.1c4,0,7.2,3.2,7.2,7.2s-3.2,7.2-7.2,7.2s-7.2-3.3-7.2-7.2C41.7,5.3,44.9,2.1,48.9,2.1z"/>
		<g id="Group" transform="translate(0.673763, 35.655722)">
			<path id="Shape" class="st2" d="M48.7,13.4c3.1,0,5.6,2.5,5.6,5.6c0,3.1-2.5,5.6-5.6,5.6c-3.1,0-5.6-2.5-5.6-5.6
				C43,15.9,45.6,13.4,48.7,13.4z M48.7,22.3c1.8,0,3.4-1.5,3.4-3.4c0-1.8-1.5-3.4-3.4-3.4c-1.9,0-3.4,1.5-3.4,3.4
				C45.3,20.8,46.8,22.3,48.7,22.3z"/>
			<path id="Path" class="st3" d="M31.3,12.2h2.2c0.3,0,0.6,0.2,0.6,0.6V15c0,0.3-0.2,0.6-0.6,0.6h-2.2c-0.3,0-0.6-0.2-0.6-0.6v-2.2
				C30.8,12.5,31,12.2,31.3,12.2z"/>
			<path class="st3" d="M24.6,12.2h2.2c0.3,0,0.6,0.2,0.6,0.6V15c0,0.3-0.2,0.6-0.6,0.6h-2.2c-0.3,0-0.6-0.2-0.6-0.6v-2.2
				C24,12.5,24.2,12.2,24.6,12.2z"/>
			<path class="st3" d="M21.2,7.8h2.2C23.7,7.8,24,8,24,8.3v2.2c0,0.3-0.2,0.6-0.6,0.6h-2.2c-0.3,0-0.6-0.2-0.6-0.6V8.3
				C20.7,8,20.9,7.8,21.2,7.8z"/>
			<path class="st3" d="M28,7.8h2.2c0.3,0,0.6,0.2,0.6,0.6v2.2c0,0.3-0.2,0.6-0.6,0.6H28c-0.3,0-0.6-0.2-0.6-0.6V8.3
				C27.4,8,27.6,7.8,28,7.8z"/>
			<path class="st3" d="M34.7,7.8h2.2c0.3,0,0.6,0.2,0.6,0.6v2.2c0,0.3-0.2,0.6-0.6,0.6h-2.2c-0.3,0-0.6-0.2-0.6-0.6V8.3
				C34.1,8,34.3,7.8,34.7,7.8z"/>
			<path class="st2" d="M-2.9,13.4V6.7c0-0.5,0.3-0.9,0.7-1.1l6.3-2.1C6.9-1,10.8-3.9,16.4-5.4l1-3.8c0.2-0.5,0.6-0.8,1.1-0.8h12.3
				c0.5,0,1,0.3,1.1,0.8L33-4.8l0,0c6,1.3,10.6,4.1,14,8.1c7.5,0.1,15.2,2.5,15.2,6.7v3.4c0.6,0,1.2,0.5,1.2,1.2v4.5
				c0,0.6-0.5,1.2-1.2,1.2h-4.5c-0.6,0-1.2-0.5-1.2-1.2c0-4.3-3.6-7.9-7.9-7.9s-7.9,3.5-7.9,7.9c0,0.6-0.5,1.2-1.2,1.2H19.5
				c-0.6,0-1.2-0.5-1.2-1.2c0-4.3-3.6-7.9-7.9-7.9s-7.9,3.5-7.9,7.9c0,0.6-0.5,1.2-1.2,1.2h-4.3c-0.6,0-1.2-0.5-1.2-1.2v-4.6
				C-4,13.9-3.5,13.4-2.9,13.4z M10.8-0.5C9.3,0.5,8.1,1.8,7,3.3h4.5L10.8-0.5z M17.4-3.4c-1.7,0.4-3.2,1-4.6,1.7l0.8,5.1h12.2
				l-1.7-6.9C22.2-3.7,19.9-3.6,17.4-3.4z M26.5-3.5l1.7,6.8h15.7C41,0.3,36-2.8,26.5-3.5z M-1.8,17.9h2.3c0.6-5.1,4.8-8.9,10-8.9
				s9.4,3.9,10,8.9h18.1c0.6-5.1,4.8-8.9,10-8.9s9.4,3.9,10,8.9H61v-2.2c-0.6,0-1.2-0.5-1.2-1.2v-3.3h-1.2c-0.6,0-1.2-0.5-1.2-1.2
				c0-0.6,0.5-1.2,1.2-1.2h0.6c-1.5-1.7-6.1-3.4-12.9-3.4H5.1l-5.8,1.9v1.4h1.2c0.6,0,1.2,0.5,1.2,1.2c0,0.6-0.5,1.2-1.2,1.2h-1.1
				v3.4c0,0.6-0.5,1.2-1.2,1.2C-1.8,15.6-1.8,17.9-1.8,17.9z"/>
			<path class="st3" d="M29.9-7.9H19.3l-0.6,2.2C23.1-6,27-5.8,30.4-5.3L29.9-7.9z"/>
			<path class="st2" d="M10.6,13.4c3.1,0,5.6,2.5,5.6,5.6c0,3.1-2.5,5.6-5.6,5.6S4.9,22.2,4.9,19C4.9,15.9,7.5,13.4,10.6,13.4z
				 M10.6,22.3c1.8,0,3.4-1.5,3.4-3.4c0-1.8-1.5-3.4-3.4-3.4S7.2,17,7.2,18.9C7.2,20.8,8.7,22.3,10.6,22.3z"/>
		</g>
	</g>
</g>
</svg>
