<?xml version="1.0" encoding="utf-8"?>
<!-- Generator: Adobe Illustrator 21.0.0, SVG Export Plug-In . SVG Version: 6.00 Build 0)  -->
<svg version="1.1" id="Layer_1" xmlns="http://www.w3.org/2000/svg" xmlns:xlink="http://www.w3.org/1999/xlink" x="0px" y="0px"
	 viewBox="0 0 78 78" style="enable-background:new 0 0 78 78;" xml:space="preserve">
<style type="text/css">
	.st0{fill:#00A845;}
	.st1{fill:#FFFFFF;}
</style>
<title>cu01</title>
<desc>Created with Sketch.</desc>
<g id="cu01">
	<g transform="translate(10.000000, 10.000000)">
		<path id="Shape" d="M26.9,14.5L26.9,14.5L26.9,14.5h0.2h0.1h0.1h0.1h0.1h0.1h0.1h0.1h0.1l0,0l0,0l0,0l0,0l0,0l0,0l0,0l0,0l0,0l0,0
			l0,0l0,0l0,0l0,0l0,0l0,0l0,0l0,0l0,0l0,0l0,0l0,0l0,0l0,0l0,0l0,0l0,0l0,0l0,0l0,0l0,0l0,0l0,0l0,0l0,0l0,0l0,0l0,0l0,0l0,0v0.1
			v0.1v0.1v0.1v0.1V15v0.1v0.1v0.1v0.1v0.1v0.1v3.5V19v0.1v0.1v0.1v0.1v0.1v0.1v0.1v0.1v0.1v0.1v0.1l0,0l0,0l0,0l0,0l0,0l0,0l0,0
			l0,0l0,0l0,0l0,0l0,0l0,0l0,0l0,0l0,0l0,0l0,0l0,0l0,0l0,0l0,0l0,0l0,0l0,0l0,0l0,0l0,0l0,0l0,0l0,0l0,0l0,0l0,0l0,0l0,0l0,0l0,0
			l0,0l0,0h-0.1h-0.1h-0.1h-0.1h-0.1h-0.1h-0.1h-0.1H27h-0.1h-0.1h-0.1H4.4H4.4H4.3H4.2H4.1H4H4H3.9H3.8H3.7H3.6H3.6H3.5l0,0l0,0
			l0,0l0,0l0,0l0,0l0,0l0,0l0,0l0,0l0,0l0,0l0,0l0,0l0,0l0,0l0,0l0,0l0,0l0,0l0,0l0,0l0,0l0,0l0,0l0,0l0,0l0,0l0,0l0,0l0,0l0,0l0,0
			l0,0l0,0l0,0l0,0l0,0l0,0l0,0v-0.1v-0.1v-0.1v-0.1v-0.1v-0.1v-0.1v-0.1v-0.1v-0.1V19v-0.1v-3.5v-0.1v-0.1v-0.1v-0.1v-0.1V15v-0.1
			v-0.1v-0.1v-0.1v-0.1v-0.1l0,0l0,0l0,0l0,0l0,0l0,0l0,0l0,0l0,0l0,0l0,0l0,0l0,0l0,0l0,0l0,0l0,0l0,0l0,0l0,0l0,0l0,0l0,0l0,0l0,0
			l0,0l0,0l0,0l0,0l0,0l0,0l0,0l0,0l0,0l0,0l0,0l0,0l0,0l0,0l0,0h0.1h0.1h0.1h0.1h0.1H4H4h0.1h0.1h0.1h0.1h0.1H26.9L26.9,14.5z
			 M4.4,15.8L4.4,15.8L4.4,15.8L4.4,15.8L4.4,15.8L4.4,15.8L4.4,15.8L4.4,15.8L4.4,15.8L4.4,15.8L4.4,15.8L4.4,15.8L4.4,15.8
			L4.4,15.8L4.4,15.8L4.4,15.8L4.4,15.8L4.4,15.8L4.4,15.8L4.4,15.8L4.4,15.8L4.4,15.8L4.4,15.8L4.4,15.8L4.4,15.8L4.4,15.8
			L4.4,15.8L4.4,15.8L4.4,15.8L4.4,15.8L4.4,15.8L4.4,15.8L4.4,15.8L4.4,15.8L4.4,15.8L4.4,15.8L4.4,15.8L4.4,15.8L4.4,15.8
			L4.4,15.8L4.4,15.8L4.4,15.8L4.4,15.8L4.4,15.8L4.4,15.8L4.4,15.8L4.4,15.8L4.4,15.8L4.4,15.8L4.4,15.8L4.4,15.8L4.4,15.8
			L4.4,15.8L4.4,15.8L4.4,15.8L4.4,15.8L4.4,15.8L4.4,15.8L4.4,15.8L4.4,15.8L4.4,15.8L4.4,15.8L4.4,15.8L4.4,15.8L4.4,15.8
			l-0.1,3.5l0,0l0,0l0,0l0,0l0,0l0,0l0,0l0,0l0,0l0,0l0,0l0,0l0,0l0,0l0,0l0,0l0,0l0,0l0,0l0,0l0,0l0,0l0,0l0,0l0,0l0,0l0,0l0,0l0,0
			l0,0l0,0l0,0l0,0l0,0l0,0h22.4l0,0l0,0l0,0l0,0l0,0l0,0l0,0l0,0l0,0l0,0l0,0l0,0l0,0l0,0l0,0l0,0l0,0l0,0l0,0l0,0l0,0l0,0l0,0l0,0
			l0,0l0,0l0,0l0,0l0,0l0,0l0,0l0,0l0,0l0,0l0,0l0,0l0,0l0,0l0,0l0,0l0,0l0,0l0,0l0,0l0,0l0,0l0,0l0,0l0,0l0,0l0,0l0,0l0,0l0,0l0,0
			l0,0l0,0l0,0l0,0l0,0l0,0l0,0l0,0l0,0v-3.5l0,0l0,0l0,0l0,0l0,0l0,0l0,0l0,0l0,0l0,0l0,0l0,0l0,0l0,0l0,0l0,0l0,0l0,0l0,0l0,0l0,0
			l0,0l0,0l0,0l0,0l0,0l0,0l0,0l0,0l0,0l0,0l0,0l0,0l0,0l0,0l0,0l0,0l0,0l0,0l0,0l0,0l0,0l0,0l0,0l0,0l0,0l0,0l0,0l0,0l0,0l0,0l0,0
			l0,0l0,0l0,0l0,0l0,0l0,0l0,0l0,0l0,0l0,0l0,0l0,0C26.8,15.8,4.4,15.8,4.4,15.8z"/>
		<path d="M26.9,24.4L26.9,24.4L26.9,24.4h0.2h0.1h0.1h0.1h0.1h0.1h0.1h0.1h0.1l0,0l0,0l0,0l0,0l0,0l0,0l0,0l0,0l0,0l0,0l0,0l0,0
			l0,0l0,0l0,0l0,0l0,0l0,0l0,0l0,0l0,0l0,0l0,0l0,0l0,0l0,0l0,0l0,0l0,0l0,0l0,0l0,0l0,0l0,0l0,0l0,0l0,0l0,0l0,0v0.1l0,0v0.1v0.1
			v0.1v0.1v0.1V25v0.1v0.1v0.1v0.1v0.1v3.5v0.1V29v0.1v0.1v0.1v0.1v0.1v0.1v0.1v0.1v0.1v0.1l0,0l0,0l0,0l0,0l0,0l0,0l0,0l0,0l0,0
			l0,0l0,0l0,0l0,0l0,0l0,0l0,0l0,0l0,0l0,0l0,0l0,0l0,0l0,0l0,0l0,0l0,0l0,0l0,0l0,0l0,0l0,0l0,0l0,0l0,0l0,0l0,0l0,0l0,0l0,0l0,0
			h-0.1h-0.1h-0.1h-0.1h-0.1h-0.1h-0.1h-0.1H27h-0.1h-0.1h-0.1H4.4H4.4H4.3H4.2H4.1H4H4H3.9H3.8H3.7H3.6H3.6H3.5l0,0l0,0l0,0l0,0
			l0,0l0,0l0,0l0,0l0,0l0,0l0,0l0,0l0,0l0,0l0,0l0,0l0,0l0,0l0,0l0,0l0,0l0,0l0,0l0,0l0,0l0,0l0,0l0,0l0,0l0,0l0,0l0,0l0,0l0,0l0,0
			l0,0l0,0l0,0l0,0l0,0v-0.1v-0.1v-0.1v-0.1v-0.1v-0.1v-0.1v-0.1v-0.1V29v-0.1v-0.1v-3.5v-0.1v-0.1v-0.1v-0.1V25v-0.1v-0.1v-0.1
			v-0.1v-0.1v-0.1l0,0v-0.1l0,0l0,0l0,0l0,0l0,0l0,0l0,0l0,0l0,0l0,0l0,0l0,0l0,0l0,0l0,0l0,0l0,0l0,0l0,0l0,0l0,0l0,0l0,0l0,0l0,0
			l0,0l0,0l0,0l0,0l0,0l0,0l0,0l0,0l0,0l0,0l0,0l0,0l0,0l0,0h0.1h0.1h0.1h0.1h0.1H4H4h0.1h0.1h0.1h0.1h0.1H26.9L26.9,24.4z
			 M4.4,25.7L4.4,25.7L4.4,25.7L4.4,25.7L4.4,25.7L4.4,25.7L4.4,25.7L4.4,25.7L4.4,25.7L4.4,25.7L4.4,25.7L4.4,25.7L4.4,25.7
			L4.4,25.7L4.4,25.7L4.4,25.7L4.4,25.7L4.4,25.7L4.4,25.7L4.4,25.7L4.4,25.7L4.4,25.7L4.4,25.7L4.4,25.7L4.4,25.7L4.4,25.7
			L4.4,25.7L4.4,25.7L4.4,25.7L4.4,25.7L4.4,25.7L4.4,25.7L4.4,25.7L4.4,25.7L4.4,25.7L4.4,25.7L4.4,25.7L4.4,25.7L4.4,25.7
			L4.4,25.7L4.4,25.7L4.4,25.7L4.4,25.7L4.4,25.7L4.4,25.7L4.4,25.7L4.4,25.7L4.4,25.7L4.4,25.7L4.4,25.7L4.4,25.7L4.4,25.7
			L4.4,25.7L4.4,25.7L4.4,25.7L4.4,25.7L4.4,25.7L4.4,25.7L4.4,25.7L4.4,25.7L4.4,25.7L4.4,25.7L4.4,25.7L4.4,25.7L4.4,25.7
			l-0.1,3.5l0,0l0,0l0,0l0,0l0,0l0,0l0,0l0,0l0,0l0,0l0,0l0,0l0,0l0,0l0,0l0,0l0,0l0,0l0,0l0,0l0,0l0,0l0,0l0,0l0,0l0,0l0,0l0,0l0,0
			l0,0l0,0l0,0l0,0l0,0l0,0h22.4l0,0l0,0l0,0l0,0l0,0l0,0l0,0l0,0l0,0l0,0l0,0l0,0l0,0l0,0l0,0l0,0l0,0l0,0l0,0l0,0l0,0l0,0l0,0l0,0
			l0,0l0,0l0,0l0,0l0,0l0,0l0,0l0,0l0,0l0,0l0,0l0,0l0,0l0,0l0,0l0,0l0,0l0,0l0,0l0,0l0,0l0,0l0,0l0,0l0,0l0,0l0,0l0,0l0,0l0,0l0,0
			l0,0l0,0l0,0l0,0l0,0l0,0l0,0l0,0l0,0v-3.5l0,0l0,0l0,0l0,0l0,0l0,0l0,0l0,0l0,0l0,0l0,0l0,0l0,0l0,0l0,0l0,0l0,0l0,0l0,0l0,0l0,0
			l0,0l0,0l0,0l0,0l0,0l0,0l0,0l0,0l0,0l0,0l0,0l0,0l0,0l0,0l0,0l0,0l0,0l0,0l0,0l0,0l0,0l0,0l0,0l0,0l0,0l0,0l0,0l0,0l0,0l0,0l0,0
			l0,0l0,0l0,0l0,0l0,0l0,0l0,0l0,0l0,0l0,0l0,0l0,0H4.4z"/>
		<path d="M29.1,61.2H2c-2.9,0-5.2-2.3-5.2-5.2V2C-3.1-0.9-0.8-3.2,2-3.2h27c2.9,0,5.2,2.3,5.2,5.2v26h2.1V6.1h4.2
			c0.6-5.2,5-9.3,10.4-9.3c5.7,0,10.4,4.7,10.4,10.4s-4.7,10.4-10.4,10.4c-5.4,0-9.8-4.1-10.3-9.3h-2.1V28h2.1
			c0.5-5.2,5-9.3,10.3-9.3c5.7,0,10.4,4.7,10.4,10.4s-4.7,10.4-10.4,10.4c-5.4,0-9.8-4.1-10.3-9.3h-2.1v19.7h2.1
			c0.5-5.2,5-9.3,10.3-9.3c5.7,0,10.4,4.7,10.4,10.4s-4.7,10.4-10.4,10.4c-5.4,0-9.8-4.1-10.3-9.3h-4.2V30h-2.1v26
			C34.2,58.9,31.9,61.2,29.1,61.2z M32.2,50.8V5.1H-1v45.7H32.2z M47.8,24.8h-2.1v-2.1h2.1V24.8z"/>
		<path id="Shape-path" class="st0" d="M29.1,59.1c1.7,0,3.1-1.4,3.1-3.1v-3.1H-1V56c0,1.7,1.4,3.1,3.1,3.1H29.1z"/>
		<polygon points="20.8,57 10.4,57 10.4,55 20.8,55 		"/>
		<path class="st0" d="M32.2,3V2c0-1.7-1.4-3.1-3.1-3.1H2C0.3-1.1-1.1,0.3-1.1,2v1L32.2,3L32.2,3z"/>
		<path class="st1" d="M50.9,42.5c4.6,0,8.3,3.7,8.3,8.3s-3.7,8.3-8.3,8.3s-8.3-3.7-8.3-8.3C42.6,46.2,46.3,42.5,50.9,42.5z"/>
		<polygon points="49.9,48.7 47.8,48.7 47.8,46.6 49.9,46.6 49.9,44.6 52,44.6 52,46.6 54,46.6 54,48.7 52,48.7 52,55 55,55 55,57 
			49.9,57 		"/>
		<path class="st1" d="M50.9,20.7c4.6,0,8.3,3.7,8.3,8.3s-3.7,8.3-8.3,8.3s-8.3-3.7-8.3-8.3C42.6,24.4,46.3,20.7,50.9,20.7z"/>
		<polygon points="47.8,34.2 45.7,34.2 45.7,26.9 47.8,26.9 		"/>
		<path d="M52,26.9v0.3c0.5-0.2,1-0.3,1.5-0.3c2,0,3.6,1.6,3.6,3.6v3.6H55v-3.6c0-0.9-0.7-1.5-1.5-1.5S52,29.7,52,30.5v3.6h-2.1
			v-7.2H52z"/>
		<path class="st1" d="M50.9-1.1c4.6,0,8.3,3.7,8.3,8.3s-3.7,8.3-8.3,8.3s-8.3-3.7-8.3-8.3C42.6,2.6,46.3-1.1,50.9-1.1z"/>
		<polygon points="55,1 55,3 52,3 52,6.1 55,6.1 55,8.2 52,8.2 52,13.4 49.9,13.4 49.9,8.2 46.7,8.2 46.7,6.1 49.9,6.1 49.9,1 		"/>
		<path id="Path" class="st0" d="M29.3,41c0-0.8-0.6-1.4-1.4-1.4H3c-0.8,0-1.4,0.6-1.4,1.4v2.8c0,0.8,0.6,1.4,1.4,1.4h24.9
			c0.8,0,1.4-0.6,1.4-1.4L29.3,41L29.3,41z"/>
	</g>
</g>
</svg>
