<?xml version="1.0" encoding="utf-8"?>
<!-- Generator: Adobe Illustrator 21.0.0, SVG Export Plug-In . SVG Version: 6.00 Build 0)  -->
<svg version="1.1" id="Layer_1" xmlns="http://www.w3.org/2000/svg" xmlns:xlink="http://www.w3.org/1999/xlink" x="0px" y="0px"
	 viewBox="0 0 78 78" style="enable-background:new 0 0 78 78;" xml:space="preserve">
<style type="text/css">
	.st0{fill:#00A845;stroke:#000000;stroke-width:1.5;}
	.st1{fill:none;stroke:#000000;stroke-width:2.5;}
</style>
<title>cu06</title>
<desc>Created with Sketch.</desc>
<g id="cu06">
	<g transform="translate(18.000000, 10.000000)">
		<g id="Group" transform="translate(1.025641, 61.538462)">
			<path id="Path" class="st0" d="M0.6-9.7l-1.4,4.5h-4.8l3.9,2.8l-1.4,4.5l3.8-2.8l3.8,2.8L3-2.4l3.8-2.8H2.1L0.6-9.7z"/>
			<path class="st0" d="M19.9-9.7l-1.4,4.5h-4.7l3.8,2.8l-1.4,4.5l3.8-2.8l3.8,2.8l-1.4-4.5l3.8-2.8h-4.7L19.9-9.7z"/>
			<path class="st0" d="M38.8-9.7l-1.4,4.5h-4.7l3.8,2.8l-1.4,4.5l3.8-2.8l3.8,2.8l-1.4-4.5l3.8-2.8h-4.7L38.8-9.7z"/>
		</g>
		<path id="Shape" class="st1" d="M35.7,46.5h-4.4c-1.5,0-3.1-0.2-4.9-0.5c-1.8-0.4-3.1-0.7-4.1-1c-1-0.3-2.3-0.7-4.1-1.3
			c-2.8-1-4.6-1.4-5.4-1.5c-0.6,0-1.1-0.3-1.5-0.6c-0.4-0.4-0.6-0.9-0.6-1.5V18c0-0.5,0.2-1.1,0.6-1.5s0.9-0.6,1.4-0.7
			c0.5-0.1,1.4-0.7,2.6-2s2.3-2.7,3.4-4.1c1.5-2,2.7-3.3,3.4-4.1c0.4-0.4,0.8-1,1.1-1.6c0.3-0.7,0.5-1.3,0.6-1.6
			c0.1-0.4,0.3-1.1,0.4-2.1c0.2-0.9,0.3-1.6,0.4-2.1c0.1-0.5,0.4-1.1,0.6-1.8c0.4-0.7,0.7-1.3,1.2-1.7c0.4-0.5,1-0.7,1.5-0.7
			c1.1,0,2,0.1,2.9,0.4c0.8,0.3,1.5,0.5,2.1,0.9c0.5,0.4,1,0.8,1.3,1.3c0.4,0.5,0.6,1.1,0.8,1.5s0.3,1,0.4,1.7
			c0.1,0.7,0.2,1.2,0.2,1.5c0,0.4,0,0.8,0,1.3c0,0.9-0.1,1.7-0.4,2.6c-0.2,0.9-0.4,1.5-0.6,2.1c-0.2,0.5-0.5,1.2-0.9,1.9
			c-0.1,0.2-0.2,0.4-0.4,0.6c-0.2,0.3-0.3,0.5-0.4,0.7c-0.1,0.3-0.2,0.5-0.3,0.8h9.4c1.8,0,3.3,0.6,4.6,2c1.3,1.3,2,2.9,2,4.6
			c0,2-0.6,3.7-1.9,5.1c0.4,1,0.5,1.9,0.5,2.6c0.1,1.7-0.4,3.3-1.4,4.7c0.4,1.3,0.4,2.6,0,4c-0.4,1.3-1,2.3-1.9,3.2
			c0.2,2.5-0.4,4.6-1.7,6.2C40.9,45.5,38.7,46.4,35.7,46.5z M4.2,42.1h-9.9c-0.6,0-1.1-0.2-1.5-0.6c-0.4-0.4-0.6-1-0.6-1.5V18
			c0-0.6,0.2-1.1,0.6-1.5s0.9-0.6,1.5-0.6h9.9c0.6,0,1.1,0.2,1.5,0.6s0.6,1,0.6,1.5v21.9c0,0.6-0.2,1.1-0.6,1.5
			C5.3,41.9,4.9,42.1,4.2,42.1z M0.3,37.1c-0.4,0.4-1,0.6-1.5,0.6c-0.6,0-1.2-0.2-1.5-0.6c-0.4-0.4-0.6-0.9-0.6-1.5
			c0-0.6,0.2-1.1,0.6-1.5c0.4-0.4,0.9-0.6,1.5-0.6s1.1,0.2,1.5,0.6c0.4,0.4,0.6,1,0.6,1.5C0.9,36.2,0.7,36.6,0.3,37.1z"/>
	</g>
</g>
</svg>
