<?xml version="1.0" encoding="utf-8"?>
<!-- Generator: Adobe Illustrator 21.0.0, SVG Export Plug-In . SVG Version: 6.00 Build 0)  -->
<svg version="1.1" id="Layer_1" xmlns="http://www.w3.org/2000/svg" xmlns:xlink="http://www.w3.org/1999/xlink" x="0px" y="0px"
	 viewBox="0 0 78 78" style="enable-background:new 0 0 78 78;" xml:space="preserve">
<style type="text/css">
	.st0{fill:#FFFFFF;stroke:#000000;stroke-width:2.5;}
	.st1{stroke:#FFFFFF;stroke-width:0.5;}
	.st2{fill:url(#Path_1_);}
	.st3{fill:url(#SVGID_1_);}
	.st4{fill:url(#SVGID_2_);}
	.st5{fill:url(#SVGID_3_);}
	.st6{fill:url(#SVGID_4_);}
	.st7{fill:#FFFFFF;stroke:#00A845;stroke-width:2.2;stroke-linejoin:round;}
</style>
<title>ta02</title>
<desc>Created with Sketch.</desc>
<g id="ta02">
	<g transform="translate(11.000000, 11.000000)">
		<path id="Shape-path" class="st0" d="M46.2-1.9c7,0,12.7,5.7,12.7,12.7s-8.7,19.1-12.7,24.1c-4.2-5-12.7-17.1-12.7-24.1
			C33.5,3.8,39.2-1.9,46.2-1.9z"/>
		<path class="st0" d="M46.2,3.9c3.9,0,7,3.1,7,7s-3.1,7-7,7s-7-3.1-7-7C39.2,7.1,42.3,3.9,46.2,3.9z"/>
		<path id="Shape" class="st1" d="M46.6,49.8c3,0,5.5,2.4,5.5,5.5s-2.4,5.5-5.5,5.5s-5.5-2.4-5.5-5.5C41.2,52.3,43.6,49.8,46.6,49.8
			z M46.6,58.6c1.8,0,3.3-1.5,3.3-3.3c0-1.8-1.5-3.3-3.3-3.3s-3.3,1.5-3.3,3.3C43.3,57.1,44.8,58.6,46.6,58.6z"/>
		
			<linearGradient id="Path_1_" gradientUnits="userSpaceOnUse" x1="-198.2269" y1="-298.1963" x2="-215.5553" y2="-298.1963" gradientTransform="matrix(3.7954 0 0 3.7954 813.231 1182.0863)">
			<stop  offset="0" style="stop-color:#797979"/>
			<stop  offset="1" style="stop-color:#0C0C0C"/>
		</linearGradient>
		<path id="Path" class="st2" d="M29.6,48.7h2.2c0.3,0,0.5,0.3,0.5,0.5v2.2c0,0.3-0.3,0.5-0.5,0.5h-2.2c-0.3,0-0.5-0.3-0.5-0.5v-2.2
			C29.1,49,29.4,48.7,29.6,48.7z"/>
		
			<linearGradient id="SVGID_1_" gradientUnits="userSpaceOnUse" x1="-196.2269" y1="-298.1963" x2="-213.5553" y2="-298.1963" gradientTransform="matrix(3.7954 0 0 3.7954 805.6397 1182.0863)">
			<stop  offset="0" style="stop-color:#797979"/>
			<stop  offset="1" style="stop-color:#0C0C0C"/>
		</linearGradient>
		<path class="st3" d="M23.1,48.7h2.2c0.3,0,0.5,0.3,0.5,0.5v2.2c0,0.3-0.3,0.5-0.5,0.5h-2.2c-0.3,0-0.5-0.3-0.5-0.5v-2.2
			C22.5,49,22.8,48.7,23.1,48.7z"/>
		
			<linearGradient id="SVGID_2_" gradientUnits="userSpaceOnUse" x1="-195.2269" y1="-298.004" x2="-212.5553" y2="-298.004" gradientTransform="matrix(3.7954 0 0 3.7954 801.8443 1177.024)">
			<stop  offset="0" style="stop-color:#797979"/>
			<stop  offset="1" style="stop-color:#0C0C0C"/>
		</linearGradient>
		<path class="st4" d="M19.8,44.4h2.2c0.3,0,0.5,0.3,0.5,0.5v2.2c0,0.3-0.3,0.5-0.5,0.5h-2.2c-0.3,0-0.5-0.3-0.5-0.5v-2.2
			C19.2,44.5,19.5,44.4,19.8,44.4z"/>
		
			<linearGradient id="SVGID_3_" gradientUnits="userSpaceOnUse" x1="-197.2268" y1="-298.004" x2="-214.5553" y2="-298.004" gradientTransform="matrix(3.7954 0 0 3.7954 809.4346 1177.024)">
			<stop  offset="0" style="stop-color:#797979"/>
			<stop  offset="1" style="stop-color:#0C0C0C"/>
		</linearGradient>
		<path class="st5" d="M26.3,44.4h2.2c0.3,0,0.5,0.3,0.5,0.5v2.2c0,0.3-0.3,0.5-0.5,0.5h-2.2c-0.3,0-0.5-0.3-0.5-0.5v-2.2
			C25.8,44.5,26.1,44.4,26.3,44.4z"/>
		
			<linearGradient id="SVGID_4_" gradientUnits="userSpaceOnUse" x1="-199.2268" y1="-298.004" x2="-216.5553" y2="-298.004" gradientTransform="matrix(3.7954 0 0 3.7954 817.0254 1177.024)">
			<stop  offset="0" style="stop-color:#797979"/>
			<stop  offset="1" style="stop-color:#0C0C0C"/>
		</linearGradient>
		<path class="st6" d="M32.9,44.4h2.2c0.3,0,0.5,0.3,0.5,0.5v2.2c0,0.3-0.3,0.5-0.5,0.5h-2.2c-0.3,0-0.5-0.3-0.5-0.5v-2.2
			C32.4,44.5,32.6,44.4,32.9,44.4z"/>
		<path class="st1" d="M-3.8,49.8v-6.6c0-0.4,0.3-0.9,0.8-1l6.2-2.1c2.7-4.5,6.5-7.3,11.9-8.8l1-3.7c0.1-0.5,0.5-0.9,1-0.9h12
			c0.5,0,1,0.3,1,0.9l1.1,4.4l0,0c5.9,1.3,10.4,3.9,13.7,8c7.3,0.1,14.8,2.4,14.8,6.6v3.3c0.6,0,1.1,0.5,1.1,1.1v4.4
			c0,0.6-0.5,1.1-1.1,1.1h-4.4c-0.6,0-1.1-0.5-1.1-1.1c0-4.2-3.5-7.7-7.7-7.7s-7.7,3.5-7.7,7.7c0,0.6-0.5,1.1-1.1,1.1H18.1
			c-0.6,0-1.1-0.5-1.1-1.1c0-4.2-3.5-7.7-7.7-7.7s-7.7,3.5-7.7,7.7c0,0.6-0.5,1.1-1.1,1.1h-4.2c-0.6,0-1.1-0.5-1.1-1.1V51
			C-4.8,50.3-4.4,49.8-3.8,49.8z M9.6,36.2c-1.5,1-2.7,2.3-3.7,3.7h4.4L9.6,36.2z M16.1,33.4c-1.6,0.4-3.1,1-4.5,1.6l0.9,4.9h12
			l-1.7-6.8C20.7,33.2,18.5,33.2,16.1,33.4z M28.3,29H17.9L17.3,31c4.3-0.3,8.1-0.1,11.5,0.4L28.3,29z M25,33.4l1.6,6.6H42
			C39.1,37,34.2,34.1,25,33.4z M-2.7,54.2h2.3c0.5-4.9,4.8-8.8,9.8-8.8s9.3,3.8,9.8,8.8h17.7c0.5-4.9,4.8-8.8,9.8-8.8
			c5.1,0,9.3,3.8,9.8,8.8h2.3V52c-0.6,0-1.1-0.5-1.1-1.1v-3.3h-1.1c-0.6,0-1.1-0.5-1.1-1.1s0.5-1.1,1.1-1.1H57
			c-1.5-1.6-6-3.3-12.7-3.3H4.1l-5.6,1.9v1.4h1.1c0.6,0,1.1,0.5,1.1,1.1s-0.5,1.1-1.1,1.1h-1.2v3.3c0,0.6-0.5,1.1-1.1,1.1L-2.7,54.2
			L-2.7,54.2z"/>
		<path class="st1" d="M9.4,49.8c3,0,5.5,2.4,5.5,5.5s-2.4,5.5-5.5,5.5s-5.5-2.4-5.5-5.5S6.3,49.8,9.4,49.8z M9.4,58.6
			c1.8,0,3.3-1.5,3.3-3.3c0-1.8-1.5-3.3-3.3-3.3s-3.3,1.5-3.3,3.3C6.1,57.1,7.5,58.6,9.4,58.6z"/>
		<path class="st7" d="M33.3,20.7c-0.3,1.3-0.9,2.5-1.6,3.6l1.8,2.3c0.6,0.8,0.5,1.8-0.2,2.5l-3.1,3.1c-0.7,0.7-1.7,0.8-2.5,0.2
			l-2.3-1.8c-1.2,0.7-2.4,1.2-3.8,1.6l-0.3,2.9c-0.1,1-1,1.7-1.9,1.7h-4.5c-1,0-1.8-0.7-1.9-1.7l-0.3-2.9c-1.4-0.3-2.8-1-4.1-1.6
			l-2.3,1.7c-0.8,0.6-1.8,0.5-2.5-0.2L0.6,29c-0.7-0.7-0.8-1.7-0.2-2.5l1.7-2.2c-0.7-1.2-1.3-2.6-1.6-4l-2.6-0.2
			c-1-0.1-1.7-1-1.7-1.9v-4.5c0-1,0.7-1.7,1.7-1.9l2.7-0.3C1,10.2,1.5,8.9,2.2,7.6L0.5,5.6C-0.1,4.9,0,3.7,0.7,3l3.2-3.2
			c0.7-0.7,1.7-0.8,2.5-0.2l2,1.6c1.3-0.8,2.7-1.3,4.2-1.7l0.3-2.6c0.1-1,1-1.6,1.9-1.6h4.5c1,0,1.8,0.7,1.9,1.6l0.3,2.6
			c1.5,0.4,2.9,1,4.2,1.8l2.1-1.6c0.8-0.6,1.8-0.5,2.5,0.2L33.5,3c0.7,0.7,0.8,1.7,0.2,2.5L32,7.7c0.7,1.2,1.2,2.6,1.6,4l2.8,0.3
			c1,0.1,1.7,1,1.7,1.9v4.5c0,1-0.7,1.8-1.7,1.9L33.3,20.7z"/>
		<path d="M5.3,19.4c0.6-1.6,2.3-3.6,6.8-3.6h3.8c-0.3,0.3,0.1,1.5,0.3,2.2c0.6-0.1,1.1-0.1,1.7,0c0.3-0.6,0.7-1.8,0.3-2.1h4
			c0,0,5.8-0.1,6.8,4.6c-0.9,2.3-2.3,4.2-4.2,5.6v-3.8h-1.4V27c-1.6,0.9-3.3,1.5-5.1,1.6l0.1-0.1l-0.3-4.7l-0.3-4.5v-0.2
			c-0.4-0.1-0.9-0.1-1.3,0l-0.7,9.4l0,0c-1.9-0.3-3.6-0.9-5.1-1.9v-4.3H9.4v3.4C7.4,24,6,21.8,5.3,19.4z M22.9,9.7
			c0,3-2.5,5.5-5.5,5.5s-5.5-2.5-5.5-5.5s2.5-5.5,5.5-5.5C20.5,4.3,22.9,6.7,22.9,9.7z"/>
	</g>
</g>
</svg>
