<?xml version="1.0" encoding="utf-8"?>
<!-- Generator: Adobe Illustrator 21.0.0, SVG Export Plug-In . SVG Version: 6.00 Build 0)  -->
<svg version="1.1" id="Capa_1" xmlns="http://www.w3.org/2000/svg" xmlns:xlink="http://www.w3.org/1999/xlink" x="0px" y="0px"
	 viewBox="0 0 78 78" style="enable-background:new 0 0 78 78;" xml:space="preserve">
<style type="text/css">
	.st0{fill:#FFCD69;}
	.st1{fill:#FFFFFF;}
	.st2{fill:#A0C8FF;}
	.st3{fill:#FF7B79;}
</style>
<g id="XMLID_412_">
	<path id="XMLID_1282_" class="st0" d="M5.4,10.8h67.3v56.3H5.4V10.8z"/>
	<path id="XMLID_1281_" class="st1" d="M11.4,16.9h55.2v44.3H11.4V16.9z"/>
	<path id="XMLID_1183_" class="st2" d="M21.5,25.2H32v10.5H21.5L21.5,25.2z"/>
	<ellipse id="XMLID_1182_" class="st3" cx="24.6" cy="50.4" rx="6.2" ry="4.8"/>
	<g id="XMLID_261_">
		<path id="XMLID_264_" d="M72.6,9.5H5.4C4.6,9.5,4,10.1,4,10.8v56.3c0,0.8,0.6,1.4,1.4,1.4h67.3c0.8,0,1.4-0.6,1.4-1.4V10.8
			C74,10.1,73.4,9.5,72.6,9.5z M6.7,14.1l3.3,3.3v43.2l-3.3,3.3V14.1z M66.1,15.5H45.2c-0.8,0-1.4,0.6-1.4,1.4
			c0,0.8,0.6,1.4,1.4,1.4h20.1v41.6H12.8V18.2h20.1c0.8,0,1.4-0.6,1.4-1.4s-0.6-1.4-1.4-1.4H11.9l-3.3-3.3h60.7L66.1,15.5z
			 M11.9,62.5h54.1l3.3,3.3H8.7L11.9,62.5z M68,60.6V17.4l3.3-3.3v49.7L68,60.6z"/>
		<path id="XMLID_406_" d="M32,23.8H21.5c-0.8,0-1.4,0.6-1.4,1.4v10.5c0,0.8,0.6,1.4,1.4,1.4H32c0.8,0,1.4-0.6,1.4-1.4V25.2
			C33.3,24.4,32.7,23.8,32,23.8L32,23.8z M30.6,34.3h-7.7v-7.7h7.7L30.6,34.3z"/>
		<path id="XMLID_407_" d="M41.2,28.5c-0.5,0.5-0.5,1.4,0,1.9c0.5,0.5,1.4,0.5,1.9,0l0.9-0.9c0.3-0.3,0.8-0.5,1.2-0.5
			c0.5,0,0.9,0.2,1.2,0.5l0.8,0.8c0.7,0.7,1.6,1,2.4,1c0.9,0,1.8-0.3,2.4-1c0.1-0.1,0.3-0.2,0.5-0.2c0.2,0,0.4,0.1,0.5,0.2
			c1.3,1.3,3.5,1.3,4.9,0l1-1c0.5-0.5,0.5-1.4,0-1.9c-0.5-0.5-1.4-0.5-1.9,0l-1,1c-0.3,0.3-0.7,0.3-1,0c-1.3-1.3-3.5-1.3-4.9,0
			c-0.3,0.3-0.7,0.3-1,0l-0.8-0.8c-1.7-1.7-4.6-1.7-6.3,0L41.2,28.5z"/>
		<path id="XMLID_408_" d="M53.2,37.5c1.3,1.3,3.5,1.3,4.9,0l1-1c0.5-0.5,0.5-1.4,0-1.9c-0.5-0.5-1.4-0.5-1.9,0l-1,1
			c-0.3,0.3-0.7,0.3-1,0c-1.3-1.3-3.5-1.3-4.9,0c-0.3,0.3-0.7,0.3-1,0l-0.8-0.8c-1.7-1.7-4.6-1.7-6.3,0l-0.9,0.9
			c-0.5,0.5-0.5,1.4,0,1.9c0.5,0.5,1.4,0.5,1.9,0l0.9-0.9c0.3-0.3,0.8-0.5,1.2-0.5c0.5,0,0.9,0.2,1.2,0.5l0.8,0.8
			c0.7,0.7,1.6,1,2.4,1c0.9,0,1.8-0.3,2.4-1C52.5,37.2,52.9,37.2,53.2,37.5z"/>
		<path id="XMLID_409_" d="M45.8,50.7c-5.3,0-9.6-4.3-9.6-9.6c0-0.8-0.6-1.4-1.4-1.4c-0.8,0-1.4,0.6-1.4,1.4
			c0,6.8,5.5,12.3,12.3,12.3c0.8,0,1.4-0.6,1.4-1.4S46.6,50.7,45.8,50.7z"/>
		<path id="XMLID_410_" d="M58.2,47.7l-1.7,1.7l-1.7-1.7c-0.5-0.5-1.4-0.5-1.9,0c-0.5,0.5-0.5,1.4,0,1.9l1.7,1.7l-1.7,1.7
			c-0.5,0.5-0.5,1.4,0,1.9c0.3,0.3,0.6,0.4,1,0.4s0.7-0.1,1-0.4l1.7-1.7l1.7,1.7c0.3,0.3,0.6,0.4,1,0.4s0.7-0.1,1-0.4
			c0.5-0.5,0.5-1.4,0-1.9l-1.7-1.7l1.7-1.7c0.5-0.5,0.5-1.4,0-1.9C59.6,47.2,58.7,47.2,58.2,47.7L58.2,47.7z"/>
		<path id="XMLID_1053_" d="M24.6,44.2c-4.2,0-7.6,2.8-7.6,6.2s3.4,6.2,7.6,6.2c4.2,0,7.6-2.8,7.6-6.2C32.1,47,28.7,44.2,24.6,44.2z
			 M24.6,53.8c-2.6,0-4.8-1.6-4.8-3.4s2.2-3.4,4.8-3.4c2.6,0,4.8,1.6,4.8,3.4S27.2,53.8,24.6,53.8z"/>
		<path id="XMLID_1081_" d="M39,18.2c0.4,0,0.7-0.1,1-0.4c0.3-0.3,0.4-0.6,0.4-1s-0.1-0.7-0.4-1c-0.3-0.3-0.6-0.4-1-0.4
			c-0.4,0-0.7,0.1-1,0.4c-0.3,0.3-0.4,0.6-0.4,1s0.1,0.7,0.4,1C38.3,18.1,38.7,18.2,39,18.2z"/>
	</g>
</g>
</svg>
