<?xml version="1.0" encoding="utf-8"?>
<!-- Generator: Adobe Illustrator 21.0.0, SVG Export Plug-In . SVG Version: 6.00 Build 0)  -->
<svg version="1.1" id="Capa_1" xmlns="http://www.w3.org/2000/svg" xmlns:xlink="http://www.w3.org/1999/xlink" x="0px" y="0px"
	 viewBox="0 0 78 78" style="enable-background:new 0 0 78 78;" xml:space="preserve">
<style type="text/css">
	.st0{fill:#FFEC80;}
	.st1{fill:#FF7D95;}
	.st2{fill:#CBF4FB;}
	.st3{fill:#FFFFFF;}
	.st4{fill:#FFF7BF;}
</style>
<g>
	<g>
		<path class="st0" d="M38.9,44.4c0.5,2.9,2.2,5.9,4,7.5c1.5,1.3,3.6,1.8,5.4,1.3c1.2-0.3,2.4-0.9,3.3-2c0.9-1,1.4-2.3,1.5-3.5
			c0.1-1.1-0.1-2.3-0.7-3.3c-0.3-0.7-0.8-1.3-1.4-1.8c-3.6-2.9-4.6,1-10.9-4.2C38.7,39.9,38.4,42.1,38.9,44.4L38.9,44.4z"/>
	</g>
	<g>
		<path class="st1" d="M8.5,25.1h56.4v-9.5c0-1.4-1.1-2.5-2.5-2.5H11.1c-1.4,0-2.5,1.1-2.5,2.5L8.5,25.1z"/>
	</g>
	<g>
		<path class="st2" d="M14.7,44.4h24.2c-0.4-2.3-0.2-4.5,1.2-6.1c6.3,5.2,7.3,1.4,10.9,4.2c0.6,0.5,1.1,1.1,1.4,1.8h6.4V31H14.7
			L14.7,44.4z"/>
	</g>
	<g>
		<path class="st3" d="M8.5,25.1v32.9c0,1.4,1.1,2.5,2.5,2.5h45.8l-8.5-7.4c-1.9,0.4-3.9,0-5.4-1.3c-1.9-1.6-3.5-4.6-4-7.5H14.7V31
			h44.1v13.4h-6.4c0.5,1,0.8,2.2,0.7,3.3L64.9,58V25.1L8.5,25.1L8.5,25.1z"/>
	</g>
	<g>
		<path class="st4" d="M48.3,53.2l8.5,7.4l4.1,3.5l4.7-5.5L64.9,58L53.1,47.7c-0.1,1.3-0.6,2.5-1.5,3.5
			C50.7,52.2,49.5,52.9,48.3,53.2L48.3,53.2z"/>
	</g>
	<g>
		<path class="st0" d="M60.9,64.1l4.6,3.9c1.5,1.3,3.8,1.1,5.1-0.4c1.3-1.5,1.1-3.8-0.4-5.1l-4.6-3.9L60.9,64.1z"/>
	</g>
	<g>
		<path d="M51.8,17.8L51.8,17.8c-0.7,0-1.3,0.6-1.3,1.3c0,0.7,0.6,1.3,1.3,1.3c0.7,0,1.3-0.6,1.3-1.3C53.1,18.4,52.5,17.8,51.8,17.8
			L51.8,17.8z"/>
		<path d="M58,17.8L58,17.8c-0.7,0-1.3,0.6-1.3,1.3c0,0.7,0.6,1.3,1.3,1.3s1.3-0.6,1.3-1.3C59.3,18.4,58.7,17.8,58,17.8z"/>
		<path d="M45.7,17.8L45.7,17.8c-0.7,0-1.3,0.6-1.3,1.3c0,0.7,0.6,1.3,1.3,1.3s1.3-0.6,1.3-1.3C46.9,18.4,46.4,17.8,45.7,17.8
			L45.7,17.8z"/>
		<path d="M32.7,17.8H15.4c-0.7,0-1.3,0.6-1.3,1.3c0,0.7,0.6,1.3,1.3,1.3h17.2c0.7,0,1.3-0.6,1.3-1.3C33.9,18.4,33.4,17.8,32.7,17.8
			z"/>
		<path d="M72.7,65c-0.1-1.3-0.7-2.5-1.7-3.4l-4.8-4.2V15.6c0-2.1-1.7-3.8-3.8-3.8H11.1c-2.1,0-3.8,1.7-3.8,3.8v42.5
			c0,2.1,1.7,3.8,3.8,3.8h45.3l8.3,7.2c0.9,0.8,2,1.2,3.2,1.2c0.1,0,0.2,0,0.4,0c1.3-0.1,2.5-0.7,3.4-1.7
			C72.4,67.5,72.8,66.3,72.7,65L72.7,65z M9.8,15.6c0-0.7,0.6-1.3,1.3-1.3h51.3c0.7,0,1.3,0.6,1.3,1.3v8.3H9.8L9.8,15.6z M11.1,59.3
			c-0.7,0-1.3-0.6-1.3-1.3V26.4h53.8v28.8l-9.3-8.1c0-0.2,0-0.3,0-0.5c0-0.3-0.1-0.7-0.1-1h4.6c0.7,0,1.3-0.6,1.3-1.3V31
			c0-0.7-0.6-1.3-1.3-1.3H42.5c-0.7,0-1.3,0.6-1.3,1.3c0,0.7,0.6,1.3,1.3,1.3h15v10.8h-4.4c-0.4-0.6-0.8-1.1-1.3-1.5c0,0,0,0,0,0
			C49.9,40,48.5,40,47.2,40c-1.5,0-3,0-6.3-2.7c-0.5-0.4-1.3-0.4-1.8,0.1c-1.3,1.5-1.8,3.5-1.7,5.6H15.9V32.3h15
			c0.7,0,1.3-0.6,1.3-1.3c0-0.7-0.6-1.3-1.3-1.3H14.7c-0.7,0-1.3,0.6-1.3,1.3v13.4c0,0.7,0.6,1.3,1.3,1.3h23.2
			c0.8,2.9,2.4,5.6,4.2,7.2c1.4,1.2,3.1,1.8,4.9,1.8c0.3,0,0.7,0,1-0.1l5.5,4.8L11.1,59.3z M50.6,50.4c-0.9,1-2,1.6-3.3,1.7
			c-1.3,0.1-2.6-0.3-3.5-1.2c-2.5-2.2-4.7-7.5-3.4-10.7c3.3,2.4,5.2,2.4,6.8,2.4c1.1,0,1.8,0,2.9,0.9c1,0.9,1.6,2,1.7,3.3
			C51.9,48.1,51.5,49.4,50.6,50.4L50.6,50.4z M50.7,53.6c0.7-0.4,1.3-0.9,1.8-1.5c0.5-0.6,0.9-1.3,1.2-2l10.1,8.7l-3.1,3.5
			L50.7,53.6z M69.6,66.8c-0.4,0.5-1,0.8-1.6,0.8c-0.6,0-1.2-0.2-1.7-0.6L62.7,64l3.1-3.5l3.6,3.1c0.5,0.4,0.8,1,0.8,1.6
			C70.2,65.8,70,66.4,69.6,66.8L69.6,66.8z"/>
		<path d="M23.6,50.8h11.1c0.7,0,1.3-0.6,1.3-1.3s-0.6-1.3-1.3-1.3H23.6c-0.7,0-1.3,0.6-1.3,1.3S22.9,50.8,23.6,50.8z"/>
		<path d="M14.7,50.8h3.8c0.7,0,1.3-0.6,1.3-1.3s-0.6-1.3-1.3-1.3h-3.8c-0.7,0-1.3,0.6-1.3,1.3S14,50.8,14.7,50.8z"/>
		<path d="M25.2,53.5H14.7c-0.7,0-1.3,0.6-1.3,1.3S14,56,14.7,56h10.5c0.7,0,1.3-0.6,1.3-1.3S25.9,53.5,25.2,53.5z"/>
		<path d="M37.4,53.5h-5.7c-0.7,0-1.3,0.6-1.3,1.3s0.6,1.3,1.3,1.3h5.7c0.7,0,1.3-0.6,1.3-1.3S38.1,53.5,37.4,53.5z"/>
		<path d="M36.7,32.3L36.7,32.3c0.7,0,1.3-0.6,1.3-1.3c0-0.7-0.6-1.3-1.3-1.3s-1.3,0.6-1.3,1.3C35.4,31.7,36,32.3,36.7,32.3z"/>
	</g>
</g>
</svg>
