<?xml version="1.0" encoding="utf-8"?>
<!-- Generator: Adobe Illustrator 21.0.0, SVG Export Plug-In . SVG Version: 6.00 Build 0)  -->
<svg version="1.1" id="Layer_1" xmlns="http://www.w3.org/2000/svg" xmlns:xlink="http://www.w3.org/1999/xlink" x="0px" y="0px"
	 viewBox="0 0 78 78" style="enable-background:new 0 0 78 78;" xml:space="preserve">
<style type="text/css">
	.st0{fill:#A2D5F2;}
	.st1{fill:#FF9155;}
	.st2{fill:#BEBEBE;}
	.st3{fill:#FFCDAC;}
	.st4{fill:#07689F;}
	.st5{fill:#FF5959;}
	.st6{fill:#FFFFFF;}
</style>
<path class="st0" d="M29.4,13.3h41.5v30.9H27.2"/>
<path class="st1" d="M26.1,24.9h15.6c1.7,0,3,1.4,3,3c0,1.7-1.4,3-3,3H31.3c-2.3,0-4.1,1.9-4.1,4.1v11.5H12.4v-2.1c0,1.7-1.4,3-3,3
	s-3-1.4-3-3v-9.7c0-4.8,3.6-8.7,8.3-9.1"/>
<path class="st2" d="M12.4,53v-6.4h14.8v24.7H12.4v-7.8"/>
<path class="st3" d="M30,16.9c0,5.6-4.6,10.2-10.2,10.2c-5.6,0-10.2-4.6-10.2-10.2S14.1,6.7,19.8,6.7C25.4,6.7,30,11.2,30,16.9z"/>
<path class="st4" d="M37.2,59c-2.6,0.2-4.7,2.5-4.7,5.1v5.5c0,0.9,0.8,1.7,1.7,1.7s1.7-0.8,1.7-1.7v1.2h8.4v-1.2
	c0,0.9,0.8,1.7,1.7,1.7c0.9,0,1.7-0.8,1.7-1.7v-5.5c0-2.7-2.1-4.9-4.7-5.1"/>
<path class="st3" d="M45.9,54c0,3.2-2.6,5.8-5.8,5.8c-3.2,0-5.8-2.6-5.8-5.8c0-3.2,2.6-5.8,5.8-5.8C43.3,48.2,45.9,50.8,45.9,54z"/>
<path class="st4" d="M58.5,59c-2.6,0.2-4.7,2.5-4.7,5.1v5.5c0,0.9,0.8,1.7,1.7,1.7c0.9,0,1.7-0.8,1.7-1.7v1.2h8.4v-1.2
	c0,0.9,0.8,1.7,1.7,1.7c0.9,0,1.7-0.8,1.7-1.7v-5.5c0-2.7-2.1-4.9-4.7-5.1"/>
<path class="st3" d="M67.2,54c0,3.2-2.6,5.8-5.8,5.8c-3.2,0-5.8-2.6-5.8-5.8c0-3.2,2.6-5.8,5.8-5.8C64.6,48.2,67.2,50.8,67.2,54z"/>
<path class="st5" d="M50.4,17.8h15.7v6.8H50.4V17.8z"/>
<path class="st6" d="M50.4,24.6h15.7v6.8H50.4V24.6z"/>
<path d="M70.9,11.9H30.2C28.3,8,24.4,5.3,19.8,5.3c-6.4,0-11.5,5.2-11.5,11.5c0,3.2,1.3,6.1,3.4,8.2c-1.5,0.6-2.8,1.5-3.9,2.7
	C5.9,29.6,5,32.1,5,34.8v9.7c0,2.4,2,4.4,4.4,4.4c0.6,0,1.2-0.1,1.7-0.4V53c0,0.7,0.6,1.3,1.3,1.3c0.7,0,1.3-0.6,1.3-1.3v-5.1h12.1
	v22h-4.7V53.8c0-0.7-0.6-1.3-1.3-1.3c-0.7,0-1.3,0.6-1.3,1.3v16.2h-4.7v-6.5c0-0.7-0.6-1.3-1.3-1.3c-0.7,0-1.3,0.6-1.3,1.3v7.8
	c0,0.7,0.6,1.3,1.3,1.3h14.8c0.7,0,1.3-0.6,1.3-1.3V46.8c0-0.1,0-0.1,0-0.2v-1.1h42.4c0.7,0,1.3-0.6,1.3-1.3V13.3
	C72.2,12.5,71.6,11.9,70.9,11.9z M10.9,16.9c0-4.9,4-8.9,8.9-8.9c4.9,0,8.9,4,8.9,8.9s-4,8.9-8.9,8.9C14.9,25.7,10.9,21.8,10.9,16.9
	z M13.7,45.3v-7.2c0-0.7-0.6-1.3-1.3-1.3c-0.7,0-1.3,0.6-1.3,1.3v6.4c0,0.9-0.8,1.7-1.7,1.7c-0.9,0-1.7-0.8-1.7-1.7v-9.7
	c0-3.9,2.9-7.2,6.7-7.7c1.2,0.7,2.6,1.1,4.1,1.3v5.3c0,0.7,0.6,1.3,1.3,1.3s1.3-0.6,1.3-1.3v-5.3c2-0.2,3.9-1,5.4-2.1h15.1
	c0.9,0,1.7,0.8,1.7,1.7c0,0.9-0.8,1.7-1.7,1.7H31.3c-3,0-5.5,2.4-5.5,5.5v10.2H13.7z M69.5,42.8H28.5V35c0-1.5,1.3-2.8,2.8-2.8h10.4
	c2.4,0,4.3-1.9,4.3-4.3s-1.9-4.3-4.3-4.3H29.1c1.3-1.9,2.1-4.2,2.1-6.7c0-0.8-0.1-1.5-0.2-2.3h38.5V42.8z"/>
<path d="M11.2,58.8c0.2,0.5,0.7,0.8,1.2,0.8c0.2,0,0.3,0,0.5-0.1c0.7-0.3,1-1,0.7-1.7l0-0.1c-0.3-0.7-1-1-1.7-0.7
	C11.2,57.3,10.9,58,11.2,58.8L11.2,58.8z"/>
<path d="M45.9,35.4c-0.3-0.7-1-1-1.7-0.7c-0.7,0.3-1,1-0.7,1.7l0,0.1c0.2,0.5,0.7,0.8,1.2,0.8c0.2,0,0.3,0,0.5-0.1
	C45.8,36.9,46.2,36.1,45.9,35.4L45.9,35.4z"/>
<path d="M49.9,37.3h16.3c0.7,0,1.3-0.6,1.3-1.3c0-0.7-0.6-1.3-1.3-1.3H49.9c-0.7,0-1.3,0.6-1.3,1.3C48.6,36.7,49.2,37.3,49.9,37.3z"
	/>
<path d="M66.2,38.6H44.3c-0.7,0-1.3,0.6-1.3,1.3c0,0.7,0.6,1.3,1.3,1.3h21.9c0.7,0,1.3-0.6,1.3-1.3C67.5,39.2,66.9,38.6,66.2,38.6z"
	/>
<path d="M45.7,58.4c1-1.2,1.5-2.7,1.5-4.4c0-3.9-3.2-7.1-7.1-7.1S33,50.1,33,54c0,1.7,0.6,3.2,1.5,4.4c-2,1.1-3.4,3.2-3.4,5.7v5.5
	c0,1.7,1.4,3,3,3c0.6,0,1.2-0.2,1.7-0.5h8.3c0.5,0.3,1.1,0.5,1.7,0.5c1.7,0,3-1.4,3-3v-5.5C49,61.7,47.7,59.5,45.7,58.4z M40.1,49.6
	c2.5,0,4.4,2,4.4,4.4c0,2.5-2,4.4-4.4,4.4c-2.5,0-4.4-2-4.4-4.4C35.7,51.6,37.7,49.6,40.1,49.6z M46.4,69.6c0,0.2-0.2,0.4-0.4,0.4
	c-0.2,0-0.4-0.2-0.4-0.4c0,0,0-0.1,0-0.1V66c0-0.7-0.6-1.3-1.3-1.3S43,65.3,43,66v3.5h-5.7V66c0-0.7-0.6-1.3-1.3-1.3
	s-1.3,0.6-1.3,1.3v3.6c0,0.2-0.2,0.4-0.4,0.4c-0.2,0-0.4-0.2-0.4-0.4v-5.5c0-1.9,1.3-3.4,3.1-3.8c1,0.5,2,0.7,3.2,0.7
	c1.1,0,2.2-0.3,3.2-0.7c1.8,0.3,3.1,1.9,3.1,3.8L46.4,69.6L46.4,69.6z"/>
<path d="M66.9,58.4c1-1.2,1.5-2.7,1.5-4.4c0-3.9-3.2-7.1-7.1-7.1c-3.9,0-7.1,3.2-7.1,7.1c0,1.7,0.6,3.2,1.5,4.4
	c-2,1.1-3.4,3.2-3.4,5.7v5.5c0,1.7,1.4,3,3,3c0.6,0,1.2-0.2,1.7-0.5h8.3c0.5,0.3,1.1,0.5,1.7,0.5c1.7,0,3-1.4,3-3v-5.5
	C70.3,61.7,69,59.5,66.9,58.4z M61.4,49.6c2.5,0,4.4,2,4.4,4.4c0,2.5-2,4.4-4.4,4.4c-2.5,0-4.4-2-4.4-4.4
	C57,51.6,58.9,49.6,61.4,49.6z M67.7,69.6c0,0.2-0.2,0.4-0.4,0.4c-0.2,0-0.4-0.2-0.4-0.4c0,0,0-0.1,0-0.1V66c0-0.7-0.6-1.3-1.3-1.3
	c-0.7,0-1.3,0.6-1.3,1.3v3.5h-5.7V66c0-0.7-0.6-1.3-1.3-1.3s-1.3,0.6-1.3,1.3v3.6c0,0.2-0.2,0.4-0.4,0.4c-0.2,0-0.4-0.2-0.4-0.4
	v-5.5c0-1.9,1.3-3.4,3.1-3.8c1,0.5,2,0.7,3.2,0.7c1.1,0,2.2-0.3,3.2-0.7c1.8,0.3,3.1,1.9,3.1,3.8V69.6z"/>
<path d="M50.4,32.7h15.7c0.7,0,1.3-0.6,1.3-1.3V17.8c0-0.7-0.6-1.3-1.3-1.3H50.4c-0.7,0-1.3,0.6-1.3,1.3v13.6
	C49.1,32.1,49.7,32.7,50.4,32.7z M64.8,30.1H51.8v-4.2h13.1V30.1z M51.8,19.1h13.1v4.2H51.8V19.1z"/>
</svg>
