<?xml version="1.0" encoding="utf-8"?>
<!-- Generator: Adobe Illustrator 21.0.0, SVG Export Plug-In . SVG Version: 6.00 Build 0)  -->
<svg version="1.1" id="Capa_1" xmlns="http://www.w3.org/2000/svg" xmlns:xlink="http://www.w3.org/1999/xlink" x="0px" y="0px"
	 viewBox="0 0 78 78" style="enable-background:new 0 0 78 78;" xml:space="preserve">
<style type="text/css">
	.st0{fill:#FFB954;}
	.st1{fill:#FF5D5D;}
	.st2{fill:#FFFFFF;}
</style>
<circle class="st0" cx="39" cy="29.1" r="23"/>
<g>
	<polygon class="st1" points="34.6,52.6 23.4,71.9 19.7,62.9 10.1,64.2 21.1,45.2 	"/>
	<polygon class="st1" points="43.4,52.6 54.6,71.9 58.3,62.9 67.9,64.2 56.9,45.2 	"/>
</g>
<circle class="st2" cx="39" cy="29.1" r="16.1"/>
<polygon class="st0" points="39,19.8 41.9,25.7 48.4,26.7 43.7,31.3 44.8,37.8 39,34.7 33.2,37.8 34.3,31.3 29.6,26.7 36.1,25.7 "/>
<path d="M49.7,26.3c-0.2-0.5-0.6-0.8-1.1-0.9l-5.8-0.8l-2.6-5.3c-0.2-0.5-0.7-0.7-1.2-0.7h0c-0.5,0-1,0.3-1.2,0.7l-2.6,5.3l-5.8,0.8
	c-0.5,0.1-0.9,0.4-1.1,0.9c-0.2,0.5,0,1,0.3,1.4l4.2,4.1l-1,5.8c-0.1,0.5,0.1,1,0.5,1.3c0.2,0.2,0.5,0.3,0.8,0.3
	c0.2,0,0.4-0.1,0.6-0.2l5.2-2.7l5.2,2.7c0.5,0.2,1,0.2,1.4-0.1c0.4-0.3,0.6-0.8,0.5-1.3l-1-5.8l4.2-4.1
	C49.7,27.3,49.9,26.7,49.7,26.3z M42.8,30.3c-0.3,0.3-0.5,0.8-0.4,1.2l0.7,3.8l-3.4-1.8c-0.4-0.2-0.9-0.2-1.2,0l-3.4,1.8l0.7-3.8
	c0.1-0.4-0.1-0.9-0.4-1.2l-2.8-2.7l3.8-0.6c0.4-0.1,0.8-0.3,1-0.7l1.7-3.5l1.7,3.5c0.2,0.4,0.6,0.7,1,0.7l3.8,0.6L42.8,30.3z"/>
<path d="M69.1,63.5L58,44.3c3.3-4.2,5.3-9.5,5.3-15.2C63.4,15.7,52.4,4.7,39,4.7S14.6,15.7,14.6,29.1c0,5.7,2,11,5.3,15.2L8.9,63.5
	c-0.3,0.4-0.2,1,0,1.4c0.3,0.4,0.8,0.6,1.3,0.6l8.6-1.2l3.3,8.1c0.2,0.5,0.6,0.8,1.1,0.8c0,0,0.1,0,0.1,0c0.5,0,0.9-0.3,1.2-0.7
	l11.2-19.3c0,0,0,0,0,0c1.1,0.1,2.1,0.2,3.2,0.2s2.2-0.1,3.2-0.2c0,0,0,0,0,0l11.2,19.3c0.2,0.4,0.7,0.7,1.2,0.7c0,0,0.1,0,0.1,0
	c0.5,0,1-0.4,1.1-0.8l3.3-8.1l8.6,1.2c0.5,0.1,1-0.2,1.3-0.6C69.3,64.5,69.3,64,69.1,63.5z M23.6,68.9L21.2,63l2.2-3.5
	c0.4-0.6,0.2-1.5-0.4-1.8c-0.6-0.4-1.5-0.2-1.8,0.4l-2.2,3.6l-6.3,0.9l9.3-16.1c3,3,6.9,5.2,11.1,6.3L23.6,68.9z M17.3,29.1
	c0-12,9.7-21.7,21.7-21.7s21.7,9.7,21.7,21.7S51,50.8,39,50.8S17.3,41.1,17.3,29.1z M59.1,61.7l-2.2-3.6c-0.4-0.6-1.2-0.8-1.8-0.4
	c-0.6,0.4-0.8,1.2-0.4,1.8l2.2,3.5l-2.4,5.9L45,52.7c4.3-1.1,8.1-3.3,11.1-6.3l9.3,16.1L59.1,61.7z"/>
<path d="M54.7,36.6c1.1-2.3,1.7-4.9,1.7-7.5c0-9.6-7.8-17.4-17.4-17.4c-3,0-5.9,0.8-8.5,2.2c-0.6,0.4-0.9,1.2-0.5,1.8
	s1.2,0.9,1.8,0.5c2.2-1.2,4.7-1.9,7.2-1.9c8.1,0,14.7,6.6,14.7,14.7c0,2.2-0.5,4.3-1.4,6.3c-0.3,0.7,0,1.5,0.6,1.8
	c0.2,0.1,0.4,0.1,0.6,0.1C54,37.3,54.5,37.1,54.7,36.6z"/>
<path d="M49.6,39.4L49.6,39.4c-0.5,0.6-0.5,1.4,0,1.9c0.3,0.3,0.6,0.4,0.9,0.4c0.3,0,0.7-0.1,1-0.4l0,0c0.5-0.5,0.5-1.4,0-1.9
	C50.9,38.8,50.1,38.8,49.6,39.4z"/>
<path d="M46.1,42c-2.2,1.2-4.6,1.8-7.1,1.8c-8.1,0-14.7-6.6-14.7-14.7c0-2.1,0.4-4.2,1.3-6.1c0.3-0.7,0-1.5-0.7-1.8
	c-0.7-0.3-1.5,0-1.8,0.7c-1,2.3-1.6,4.7-1.6,7.2c0,9.6,7.8,17.4,17.4,17.4c2.9,0,5.8-0.7,8.4-2.2c0.6-0.4,0.9-1.2,0.5-1.8
	C47.6,41.9,46.7,41.6,46.1,42z"/>
<path d="M27.2,19.5c0.4,0,0.7-0.1,1-0.4l0,0c0.5-0.5,0.5-1.4-0.1-1.9c-0.5-0.5-1.4-0.5-1.9,0.1l0,0c-0.5,0.5-0.5,1.4,0.1,1.9
	C26.6,19.4,26.9,19.5,27.2,19.5z"/>
</svg>
