<?xml version="1.0" encoding="utf-8"?>
<!-- Generator: Adobe Illustrator 21.0.0, SVG Export Plug-In . SVG Version: 6.00 Build 0)  -->
<svg version="1.1" id="Layer_1" xmlns="http://www.w3.org/2000/svg" xmlns:xlink="http://www.w3.org/1999/xlink" x="0px" y="0px"
	 viewBox="0 0 78 78" style="enable-background:new 0 0 78 78;" xml:space="preserve">
<style type="text/css">
	.st0{fill:#F3F3F3;}
	.st1{clip-path:url(#SVGID_2_);}
	.st2{clip-path:url(#SVGID_2_);fill:#58C1F6;}
	.st3{clip-path:url(#SVGID_2_);fill:#7DDCFE;}
	.st4{clip-path:url(#SVGID_2_);fill:#FE6868;}
	.st5{clip-path:url(#SVGID_2_);fill:#78D2F3;}
	.st6{clip-path:url(#SVGID_2_);fill:#D2D2DC;}
	.st7{clip-path:url(#SVGID_2_);fill:#010101;}
	.st8{clip-path:url(#SVGID_2_);fill:#000101;}
	.st9{clip-path:url(#SVGID_2_);fill:#A9E862;}
	.st10{clip-path:url(#SVGID_2_);fill:#53B9EC;}
</style>
<polygon class="st0" points="10.6,19.1 7.2,44.4 10.6,68.6 69.4,70.8 68.6,19.1 "/>
<g>
	<defs>
		<rect id="SVGID_1_" x="7.2" y="7.2" width="63.5" height="63.6"/>
	</defs>
	<clipPath id="SVGID_2_">
		<use xlink:href="#SVGID_1_"  style="overflow:visible;"/>
	</clipPath>
	<path class="st1" d="M70.8,20v49.8c-0.3,0.8-0.4,0.9-1.4,0.9c-11,0-22,0-33,0c-6.7,0-13.3-0.1-20,0c-4.3,0.1-7.9-3.2-8.8-6.5
		c-0.2-0.7-0.2-1.4-0.2-2.1c0-14.2,0-28.4,0-42.6c0-3,1.5-5.1,4-6.5c2.5-1.4,5-1.4,7.5,0.1c0.6,0.4,1.1,0.9,1.6,1.4
		c0.2,0.3,0.5,0.7,0.7,1c0.5,0.9,0.8,1.9,0.9,2.9c0,0.4,0.2,0.6,0.6,0.6c0.7,0,1.3,0,2,0c0.8,0,1.5,0,2.3,0c2.9,0,5.8,0,8.7,0
		c0.8,0,1.6,0,2.4,0c2.9,0,5.8,0,8.7,0c0.8,0,1.6,0,2.4,0c1.3,0,2.6,0,4,0c0.2,0,0.4,0,0.6,0c0.9,0,1.5,0.5,1.6,1.2
		c0.1,0.7-0.3,1.3-1.2,1.6c-1.7,0.1-3.5,0-5.2,0c-0.8,0-1.6,0-2.4,0c-0.8,0-1.6,0-2.4,0c-2.9,0-5.8,0-8.7,0c-0.8,0-1.6,0-2.4,0
		c-3.2,0-6.4,0-9.5,0c-0.2,0-0.4,0-0.6,0c-0.8,0-0.8,0-0.8,0.8c0,2.7,0,5.4,0,8.2c0,0.6,0,1.3,0,1.9c0,0.8,0,1.6,0,2.4
		c0,2.9,0,5.8,0,8.7c0,0.8,0,1.6,0,2.3c0,4.8,0,9.6,0,14.4c0,2.9-2.2,5.3-5.1,5.7c-0.6,0.1-1.2,0.1-1.7-0.4c-0.3-0.3-0.5-0.6-0.4-1
		c0.2-0.8,0.6-1.4,1.5-1.4c2.3-0.1,3.8-2.4,2.4-4.8c-0.1-0.1-0.1-0.2-0.2-0.3c-1.4-2.2-4.6-2.2-6.6-0.5c-2.5,2.1-2.2,5.4-0.5,7.6
		c0.4,0.5,0.9,1,1.4,1.4c1.2,0.8,2.5,1.2,4,1.2c1.1,0,2.3,0,3.4,0c0.8,0,1.5,0,2.3,0c2.9,0,5.8,0,8.7,0c0.8,0,1.6,0,2.4,0
		c2.9,0,5.8,0,8.8,0c0.8,0,1.6,0,2.4,0c2.9,0,5.8,0,8.8,0c0.8,0,1.6,0,2.4,0c3.7,0,7.4,0,11.1,0c1.1,0,1.1,0,1.1-1.1
		c0-3.7,0-7.4,0-11.1c0-0.8,0-1.6,0-2.4c0-0.4,0-0.7,0-1.1c0-9.6,0-19.3,0-28.9c0-0.3,0-0.7,0-1c0.1-0.5-0.2-0.7-0.7-0.7
		c-0.4,0-0.7,0-1.1,0c-0.7,0-1.5,0-2.2,0c-0.9,0-1.6-0.7-1.6-1.4c0-0.8,0.6-1.4,1.6-1.4c1.8,0,3.6,0,5.4,0
		C70.2,18.9,70.5,19.2,70.8,20"/>
	<path class="st1" d="M34.4,7.2h26.4c2.5,0.5,4.1,2.2,4.1,4.7c-0.1,2.2-1.3,3.8-3.3,4.6c-0.5,0.1-0.9,0.3-1.4,0.3
		c-0.1,0-0.2,0-0.3,0c-2.9,0-5.8,0-8.6,0c-0.8,0-1.6,0-2.4,0c-2.9,0-5.8,0-8.7,0c-0.8,0-1.5,0-2.3,0c-2.6,0.3-4.9-0.5-7.2-1.5
		c-0.6-0.3-1.3-0.5-1.9-0.7c-1.1-0.5-2.3-0.8-3.4-1.4c-0.9-0.4-1.1-1.5-0.4-2.2c0.2-0.2,0.5-0.4,0.9-0.5c2-0.8,4-1.6,6.1-2.4
		C32.7,7.8,33.5,7.3,34.4,7.2"/>
	<path class="st2" d="M19.2,55.3c-3.3-2.1-6.4-1.7-9.4,0.6c-0.1-0.2-0.1-0.4-0.1-0.5c0-11.8,0-23.5,0-35.3c0-3,2.3-5.4,5.1-5.4
		c2.4,0,4.3,1.8,4.3,4.2c0,5.4,0,10.7,0,16.1c0,6.6,0,13.1,0,19.7V55.3z"/>
	<path class="st3" d="M51.8,14.1c-4.6,0-9.2,0-13.9,0c-0.5,0-1,0-1.5,0c-0.3,0-0.4-0.1-0.4-0.4c0-1.2,0-2.5,0-3.7
		c0-0.5,0.3-0.4,0.6-0.4c3.8,0,7.6,0,11.3,0c2.7,0,5.3,0,8,0c0.2,0.2,0,0.4-0.2,0.5C54.4,11.5,53.1,12.9,51.8,14.1"/>
	<path class="st4" d="M59,11.9c0-0.6,0-1.2,0-1.9c0-0.1-0.1-0.3,0.2-0.4c1.2-0.4,2.7,0.3,3.1,1.5c0.5,1.4-0.5,2.9-2,3
		C59,14.2,59,14.2,59,13C59,12.6,59,12.3,59,11.9"/>
	<path class="st5" d="M51.8,14.1c0-0.3,0.2-0.4,0.4-0.5c1.1-1.1,2.2-2.2,3.3-3.3c0.2-0.2,0.4-0.3,0.4-0.5c0.5-0.1,0.6,0.1,0.6,0.6
		c0,1.1,0,2.3,0,3.4c0,0.3,0,0.5-0.5,0.5C54.6,14.1,53.2,14.1,51.8,14.1"/>
	<path class="st6" d="M29.4,11.9c1.2-0.5,2.5-1,3.7-1.4c0.3-0.1,0.4-0.2,0.4,0.2c0,0.9,0,1.7,0,2.6c0,0.3-0.1,0.3-0.3,0.2
		c-1.2-0.5-2.4-1-3.7-1.4C29.5,12,29.5,11.9,29.4,11.9"/>
	<path class="st1" d="M50.9,26c0.8,0,1.7,0,2.5,0c2.9,0,5.8,0,8.7,0c0.7,0.1,1.5-0.2,2.2,0.3c0.4,0.4,0.5,0.8,0.5,1.3
		c0,3,0,5.9,0,8.9c0,1.6-0.2,1.9-1.9,2c-0.8,0.3-1.6,0.1-2.4,0.2c-2.9,0-5.8,0-8.7,0c-0.8,0-1.6,0-2.4,0c-2.9,0-5.8,0-8.8,0
		c-0.8,0-1.6,0-2.4,0c-2.7,0-5.4,0-8.1,0c-0.2,0-0.5,0-0.7-0.2l-2.4,0c-0.4,0-0.7,0-1.1,0c-0.9,0-1.4-0.5-1.4-1.4c0-1.5,0-3,0-4.6
		l0-2.5c0-0.9,0-1.7,0-2.6c0-0.9,0.5-1.4,1.4-1.4c0.9,0,1.7,0,2.6,0c0.8,0,1.7,0,2.5,0c2.9,0,5.8,0,8.7,0c0.8,0,1.7,0,2.5,0
		c2.7,0,5.4,0,8.1,0C50.5,26,50.7,26,50.9,26"/>
	<path class="st7" d="M58,19.4c0.5-0.3,1-0.4,1.5-0.1c0.1,0.1,0.2,0.2,0.4,0.3c0.4,0.8,0.3,1.2-0.1,1.7c-0.4,0.4-0.9,0.5-1.7,0.1
		c-0.2-0.2-0.3-0.5-0.4-0.7C57.4,20.1,57.5,19.6,58,19.4L58,19.4z"/>
	<path class="st1" d="M14.7,24.2c0,1.5,0,2.9,0,4.4c0,0.9-0.5,1.5-1.2,1.5c-0.8,0-1.3-0.6-1.3-1.5c0-2.9,0-5.9,0-8.8
		c0-0.8,0.5-1.4,1.2-1.4c0.7,0,1.3,0.6,1.3,1.4C14.8,21.2,14.7,22.7,14.7,24.2"/>
	<path class="st8" d="M13.5,32.6c0.7,0,1.3,0.6,1.2,1.3c0,0.7-0.6,1.2-1.2,1.2c-0.7,0-1.3-0.6-1.2-1.3
		C12.3,33.2,12.9,32.6,13.5,32.6"/>
	<path class="st1" d="M59.8,41.9c1.2,0,2.3,0,3.5,0c1,0,1.5,0.5,1.5,1.5c0,2.8,0,5.7,0,8.5c0,1-0.5,1.5-1.5,1.5c-1.4,0-2.7,0-4.1,0
		c-0.8,0.3-1.6,0.1-2.3,0.2c-0.7,0-1.4,0-2,0c-1,0-1.6-0.6-1.6-1.6c0-2.9,0-5.7,0-8.6c0-1,0.6-1.5,1.6-1.6c0.8,0,1.7,0,2.5,0
		c0.6,0,1.2,0,1.8,0C59.4,41.7,59.6,41.7,59.8,41.9"/>
	<path class="st1" d="M64.5,56.9c0.3,0.5,0.5,1,0.2,1.5c-0.3,0.5-0.8,0.6-1.3,0.6c-0.3,0-0.7,0-1,0c-2.4,0-4.8,0-7.3,0
		c-0.4,0-0.7,0-1-0.1c-0.5-0.2-0.8-0.6-0.8-1.1c0-0.6,0.3-1.1,0.9-1.3c0.7-0.2,1.5-0.3,2.2,0c2.3,0,4.6,0,6.9,0
		C63.7,56.5,64.1,56.6,64.5,56.9"/>
	<path class="st1" d="M24.6,43.6c0.1-1.4,0.3-1.7,1.8-1.8c0.2-0.1,0.4-0.2,0.6-0.2c2.7,0,5.3,0,8,0c0.8,0.2,1.2,0.6,1.3,1.4
		c0,2.9,0,5.7,0,8.6c0,0.6-0.2,1.2-0.7,1.5c-0.3,0.2-0.6,0.3-1,0.1c-2.8,0-5.6,0-8.3,0c-1.1,0-1.6-0.4-1.6-1.6
		C24.6,49,24.6,46.3,24.6,43.6"/>
	<path class="st1" d="M26.3,64c-0.6,0-1.1-0.1-1.5-0.6c-0.3-1.2,0.2-1.8,1.4-1.9c0.1,0,0.3,0,0.4,0c0.8-0.3,1.6-0.1,2.5-0.2
		c1.8,0,3.6,0,5.4,0c0.6,0,1.2,0.2,1.5,0.8c0.2,0.3,0.3,0.6,0.1,0.9c-0.2,0.5-0.5,0.8-1,1L26.3,64z"/>
	<path class="st1" d="M28.9,59c-0.9,0-1.9,0-2.8,0c-0.8,0-1.4-0.5-1.4-1.2c0-0.7,0.6-1.3,1.4-1.3c1.8,0,3.7,0,5.5,0
		c0.8-0.3,1.6-0.1,2.4-0.2c0.3,0,0.5,0,0.8,0c0.8,0.1,1.4,0.7,1.4,1.4c0,0.7-0.6,1.4-1.4,1.4c-1.2,0.1-2.4,0-3.6,0
		C30.4,59.1,29.6,59.4,28.9,59"/>
	<path class="st1" d="M59.7,64c-0.8,0-1.6,0-2.4,0c-0.8,0-1.7,0-2.5,0c-0.8,0-1.4-0.5-1.4-1.2c0-0.7,0.6-1.3,1.4-1.3
		c1.8,0,3.5,0,5.3,0c0.8,0,1.7,0,2.5,0c0.3,0,0.7,0,1,0c0.7,0,1.2,0.6,1.2,1.2c0,0.7-0.5,1.2-1.3,1.3C62.3,64,61,64,59.7,64"/>
	<path class="st1" d="M48.9,61.5c0.7,0,1.2,0.3,1.5,0.9c0,1.2-0.4,1.5-1.8,1.6c-0.8,0-1.6,0-2.4,0c-1.9,0-3.8,0-5.7,0
		c-0.9,0-1.3-0.4-1.5-1.2c0.1-0.7,0.5-1.2,1.3-1.3c0.2-0.2,0.5-0.2,0.8-0.2c2.3,0,4.7,0,7,0C48.4,61.3,48.7,61.2,48.9,61.5"/>
	<path class="st1" d="M40,59c-0.7-0.3-1.1-0.9-1-1.5c0.1-0.7,0.6-1,1.5-1c0.7,0,1.5,0,2.2,0c0.8-0.3,1.7-0.3,2.5,0
		c1.3,0,2.5,0,3.8,0c0.8,0,1.4,0.5,1.4,1.2c0,0.7-0.6,1.3-1.4,1.3c-2.2,0-4.4,0-6.6,0C41.6,59,40.8,59,40,59"/>
	<path class="st9" d="M44.7,36c-5.7,0-11.3,0-17,0c-0.5,0-0.7-0.1-0.6-0.6c0-2.1,0-4.2,0-6.3c0-0.4,0.1-0.5,0.5-0.5
		c11.4,0,22.8,0,34.2,0c0.4,0,0.5,0.1,0.5,0.5c0,2.1,0,4.3,0,6.4c0,0.5-0.1,0.6-0.6,0.6C56.1,35.9,50.4,36,44.7,36"/>
	<path class="st2" d="M59.1,50.8c-0.9,0-1.9,0-2.8,0c-0.3,0-0.5-0.1-0.4-0.4c0-1.9,0-3.7,0-5.6c0-0.3,0.1-0.5,0.4-0.4
		c1.9,0,3.7,0,5.6,0c0.3,0,0.4,0.1,0.4,0.4c0,1.9,0,3.7,0,5.6c0,0.3-0.1,0.5-0.4,0.4C61,50.8,60,50.8,59.1,50.8L59.1,50.8z"/>
	<path class="st10" d="M30.4,44.4c0.9,0,1.9,0,2.8,0c0.4,0,0.5,0.1,0.4,0.4c0,1.9,0,3.7,0,5.6c0,0.4-0.1,0.5-0.4,0.4
		c-1.9,0-3.7,0-5.6,0c-0.4,0-0.5-0.1-0.4-0.4c0-1.9,0-3.7,0-5.6c0-0.4,0.1-0.5,0.4-0.4C28.5,44.4,29.4,44.4,30.4,44.4L30.4,44.4z"/>
	<path class="st1" d="M46.2,41.9c0.8,0,1.7,0,2.5,0c1.4,0.1,1.7,0.4,1.7,1.9c0,2.6,0,5.3,0,7.9c0,1.3-0.4,1.6-1.7,1.7
		c-0.2,0-0.5,0-0.7,0c-0.8,0.3-1.6,0.3-2.4,0c-1.6,0-3.2,0-4.9,0c-1.5,0-1.8-0.3-1.8-1.7c0-0.8,0-1.7,0-2.5c0-1.9,0-3.8,0-5.7
		c0-1,0.5-1.5,1.5-1.5C42.4,41.9,44.3,41.9,46.2,41.9"/>
	<path class="st4" d="M41.5,47.6c0-0.9,0-1.9,0-2.8c0-0.3,0.1-0.5,0.4-0.4c1.9,0,3.7,0,5.6,0c0.3,0,0.5,0.1,0.4,0.4
		c0,1.9,0,3.7,0,5.6c0,0.3-0.1,0.5-0.4,0.4c-1.9,0-3.7,0-5.6,0c-0.3,0-0.5-0.1-0.4-0.4C41.5,49.5,41.5,48.5,41.5,47.6"/>
</g>
</svg>
