<?xml version="1.0" encoding="utf-8"?>
<!-- Generator: Adobe Illustrator 21.0.0, SVG Export Plug-In . SVG Version: 6.00 Build 0)  -->
<svg version="1.1" id="Layer_1" xmlns="http://www.w3.org/2000/svg" xmlns:xlink="http://www.w3.org/1999/xlink" x="0px" y="0px"
	 viewBox="0 0 78 78" style="enable-background:new 0 0 78 78;" xml:space="preserve">
<style type="text/css">
	.st0{clip-path:url(#SVGID_2_);fill:#FFFFFF;}
</style>
<g>
	<defs>
		<rect id="SVGID_1_" x="4" y="4.4" width="70" height="69.5"/>
	</defs>
	<clipPath id="SVGID_2_">
		<use xlink:href="#SVGID_1_"  style="overflow:visible;"/>
	</clipPath>
	<path class="st0" d="M74,62.6c-0.3,0.3-0.7,0.7-1,1c-1.3,0.9-2.5,1.9-3.8,2.8c-0.4,0.3-0.5,0.5-0.3,1c0.6,1.6,1.1,3.2,1.6,4.9
		c0.2,0.6,0.2,1.1-0.3,1.5c-0.5,0.4-1,0.1-1.4-0.2c-1.4-1-2.7-2-4.1-3c-0.5-0.4-0.8-0.3-1.2,0c-1.3,1-2.7,2-4,2.9
		c-0.5,0.3-1,0.6-1.5,0.2c-0.5-0.4-0.5-0.9-0.3-1.5c0.5-1.6,1-3.2,1.6-4.8c0.2-0.5,0.1-0.8-0.3-1.1c-1.4-1-2.7-2-4.1-3
		c-0.5-0.3-0.9-0.7-0.7-1.4c0.2-0.7,0.8-0.8,1.4-0.8c1.9,0,3.8,0,5.7,0c0.6-1.8,1.2-3.7,1.8-5.5c0.1-0.3,0.3-0.6,0.5-0.8
		c0.6-0.5,1.3-0.1,1.6,0.7c0.5,1.6,1.1,3.3,1.6,4.9c0.2,0.5,0.4,0.7,0.9,0.7c1.7,0,3.3,0,5,0c0.6,0,1.1,0.2,1.4,0.7V62.6z
		 M58.4,63.3c0.1,0.1,0.1,0.2,0.1,0.2c0.7,0.5,1.5,1.1,2.2,1.6c1,0.7,1.1,0.9,0.7,2.1c-0.3,0.9-0.6,1.8-0.9,2.9
		c1-0.7,1.8-1.3,2.7-1.9c0.7-0.5,1-0.5,1.8,0c0.8,0.6,1.7,1.2,2.7,1.9c-0.3-1-0.6-1.8-0.9-2.7c-0.5-1.5-0.5-1.5,0.8-2.5
		c0.7-0.5,1.4-1,2.1-1.5c-1.1-0.1-2.2-0.2-3.2-0.1c-0.8,0-1.2-0.3-1.4-1c-0.2-0.9-0.5-1.7-0.8-2.5c0-0.1-0.1-0.3-0.3-0.5
		c-0.3,1.1-0.6,2-0.9,2.9c-0.4,1.1-0.5,1.2-1.7,1.2C60.4,63.3,59.4,63.3,58.4,63.3"/>
	<path class="st0" d="M4,61.9c0.3-0.5,0.8-0.7,1.4-0.7c1.7,0,3.3,0,5,0c0.6,0,0.8-0.2,0.9-0.7c0.5-1.6,1-3.2,1.5-4.7
		c0.2-0.5,0.4-1,1.1-1.1c0.7,0,0.9,0.5,1.1,1.1c0.6,1.8,1.2,3.6,1.8,5.4c1.9,0,3.9,0,5.8,0c0.3,0,0.7,0.1,1,0.3
		c0.6,0.4,0.4,1.2-0.2,1.7c-1.4,1-2.8,2.1-4.3,3.1c-0.4,0.3-0.5,0.6-0.3,1.1c0.6,1.6,1.1,3.2,1.6,4.9c0.2,0.5,0.2,1-0.3,1.4
		c-0.5,0.4-1,0.2-1.4-0.1c-1.4-1-2.8-2-4.1-3c-0.4-0.3-0.7-0.3-1.1,0c-1.3,1-2.7,2-4.1,3c-0.5,0.3-0.9,0.6-1.5,0.2
		c-0.6-0.4-0.5-1-0.3-1.5c0.5-1.6,1-3.2,1.6-4.7c0.2-0.5,0.1-0.8-0.3-1.1c-1.4-0.9-2.7-1.9-4-2.9c-0.3-0.2-0.6-0.5-0.8-0.8V61.9z
		 M14.1,59.4c0,0-0.1,0-0.1,0c-0.3,0.8-0.5,1.6-0.8,2.4c-0.5,1.6-0.5,1.6-2.2,1.6H8.4c0.8,0.7,1.6,1.3,2.4,1.9
		c0.8,0.6,0.9,0.8,0.6,1.8c-0.3,1-0.6,1.9-1,3.1c0.9-0.7,1.6-1.2,2.4-1.7c1.1-0.8,1.2-0.8,2.4,0c0.7,0.5,1.5,1.1,2.4,1.7
		c-0.3-1.1-0.6-1.9-0.9-2.8c-0.4-1.3-0.4-1.4,0.7-2.3c0.7-0.5,1.5-1.1,2.2-1.6c-1.1-0.1-2.2-0.2-3.2-0.1c-0.8,0-1.2-0.3-1.4-1
		C14.7,61.3,14.4,60.4,14.1,59.4"/>
	<path class="st0" d="M46.3,21.7h0.9c5,0,10.1,0,15.1,0c1.9,0,3.5,0.6,4.5,2.3c1.1,1.9,0.8,4-0.7,5.6c-0.1,0.1-0.2,0.2-0.3,0.4
		c1.2,1.1,1.8,2.5,1.7,4.1c-0.2,1.7-1.1,2.9-2.6,3.7c0.9,1.2,1.3,2.5,1,4c-0.3,1.5-1.2,2.5-2.5,3.3c1,1.3,1.4,2.7,1,4.2
		c-0.6,2.2-2.4,3.5-4.8,3.5c-5,0-9.9,0-14.9,0c-3.8,0-7.5,0-11.3,0c-1.8,0-3.6-0.4-5.2-1.2c-0.2-0.1-0.5-0.1-0.7,0.1
		c-0.7,0.6-1.6,0.9-2.5,1c-2.8,0-5.7,0.1-8.5,0c-2.3-0.1-3.7-1.7-3.7-4c0-3.8,0-7.6,0-11.3c0-2.9,0-5.9,0-8.8c0-2.7,1.6-4.3,4.3-4.3
		c2.5,0,5,0,7.4,0c1,0,1.8,0.2,2.7,0.7c0.1,0.1,0.4,0.1,0.5,0.1c3.8-1.8,7.2-4.1,9.6-7.6c1.2-1.7,1.6-3.8,2-5.8
		c0.3-1.5,0.6-3,0.6-4.5c0.1-1.8,1.4-3.2,3.8-2.2c2,0.8,3,2.4,3.7,4.3c0.6,2,0.6,4.1,0.5,6.2C47.6,17.4,47.2,19.5,46.3,21.7
		 M42.1,6.4c-0.3,1.8-0.5,3.6-0.8,5.3c-0.5,3.7-2,6.9-4.7,9.5c-2.1,2-4.3,3.6-6.9,4.9c-0.8,0.4-1,0.7-1,1.7c0.1,7,0,14.1,0,21.1
		c0,0.4,0.1,0.7,0.5,0.8c1.3,0.7,2.8,0.9,4.3,0.9c8.6,0,17.2,0,25.8,0c0.3,0,0.6,0,0.9,0c1.3-0.2,2.3-1.4,2.2-2.7
		c-0.1-1.4-1.1-2.4-2.5-2.5c-0.7,0-1.4,0-2.1,0c-0.8,0-1.2-0.4-1.2-1c0-0.6,0.5-1,1.3-1c1.1,0,2.2,0,3.3,0c1.6-0.1,2.7-1.2,2.6-2.6
		c0-1.5-1.1-2.5-2.7-2.6c-0.8,0-1.7,0-2.5,0c-0.8,0-1.2-0.4-1.2-1c0-0.6,0.4-1,1.2-1c1.2,0,2.5,0,3.7,0c0.4,0,0.9-0.1,1.3-0.2
		c1.1-0.4,1.9-1.6,1.7-2.7C65.2,32,64.2,31.1,63,31c-1.4-0.1-2.8,0-4.2,0c-0.9,0-1.3-0.4-1.3-1c0-0.7,0.4-1,1.3-1c1.1,0,2.2,0,3.3,0
		c0.4,0,0.8,0,1.2-0.1c1.5-0.2,2.5-1.7,2.1-3.2c-0.3-1.3-1.3-1.9-2.9-1.9c-5.7,0-11.4,0-17.2,0c-0.3,0-0.5,0-0.8,0
		c-0.8-0.1-1.2-0.9-0.8-1.6c1.7-2.8,2.2-5.9,2.2-9c0-1.6-0.2-3.2-1-4.7C44.3,7.4,43.4,6.6,42.1,6.4 M26.2,38.4L26.2,38.4
		c0-3.7,0-7.5,0-11.2c0-0.6-0.2-0.9-0.7-1c-0.3-0.1-0.6-0.1-0.9-0.1c-2.5,0-5,0-7.5,0c-1.5,0-2.2,0.7-2.2,2.2c0,6.6,0,13.3,0,19.9
		c0,1.6,0.7,2.2,2.2,2.2c2.5,0,5,0,7.4,0c0.5,0,0.9-0.1,1.4-0.3c0.2-0.1,0.3-0.4,0.3-0.6C26.2,45.9,26.2,42.2,26.2,38.4"/>
	<path class="st0" d="M33,61.3c0.9,0,1.8,0,2.7,0c0.4,0,0.5-0.1,0.7-0.5c0.5-1.6,1.1-3.3,1.6-4.9c0.2-0.6,0.4-1,1.1-1.1
		c0.7,0,1,0.5,1.1,1.1c0.5,1.6,1.1,3.2,1.6,4.9c0.1,0.4,0.3,0.6,0.8,0.6c1.7,0,3.4,0,5.1,0c0.6,0,1.2,0.1,1.4,0.7
		c0.2,0.6-0.2,1-0.7,1.4c-1.4,1-2.8,2-4.2,3c-0.3,0.2-0.4,0.4-0.3,0.8c0.6,1.6,1.1,3.3,1.6,4.9c0.2,0.5,0.3,1.1-0.3,1.5
		c-0.6,0.4-1.1,0.2-1.5-0.2c-1.4-1-2.8-2-4.2-3.1c-0.3-0.2-0.5-0.2-0.8,0c-1.4,1.1-2.9,2.1-4.4,3.2c-0.7,0.5-1.5,0.3-1.7-0.4
		c-0.1-0.3,0-0.6,0.1-0.9c0.5-1.7,1.1-3.3,1.6-5c0.1-0.4,0.1-0.6-0.3-0.8c-1.4-1-2.7-1.9-4-2.9c-0.5-0.4-1.1-0.7-0.8-1.5
		c0.2-0.8,0.9-0.7,1.6-0.7C31.4,61.3,32.2,61.3,33,61.3 M35.4,70.2c1-0.7,1.8-1.3,2.6-1.9c0.9-0.6,1.1-0.6,1.9,0
		c0.8,0.6,1.6,1.2,2.4,1.8c-0.2-1-0.5-2-0.8-2.9c-0.3-1-0.2-1.2,0.6-1.9c0.8-0.6,1.6-1.2,2.4-1.8c-1.1-0.1-2.2-0.1-3.3-0.1
		c-0.6,0-1-0.3-1.2-0.9c-0.2-0.6-0.4-1.2-0.6-1.8c-0.1-0.4-0.3-0.9-0.4-1.3c-0.4,0.9-0.7,1.8-1,2.8c-0.4,1.1-0.5,1.2-1.7,1.2
		c-1,0-2,0-3,0c0.1,0.1,0.1,0.2,0.1,0.2c0.7,0.5,1.5,1.1,2.2,1.6c1,0.7,1.1,0.9,0.7,2.1C36.1,68.2,35.8,69.1,35.4,70.2"/>
	<path class="st0" d="M23.8,45.3c0,1.7-1.4,3.1-3.1,3.1c-1.7,0-3.1-1.4-3.1-3.1c0-1.7,1.4-3.1,3.1-3.1
		C22.5,42.2,23.9,43.6,23.8,45.3 M21.8,45.3c0-0.6-0.5-1-1-1c-0.6,0-1,0.5-1,1c0,0.6,0.5,1,1,1C21.3,46.3,21.8,45.9,21.8,45.3"/>
</g>
</svg>
