<?xml version="1.0" encoding="utf-8"?>
<!-- Generator: Adobe Illustrator 21.0.0, SVG Export Plug-In . SVG Version: 6.00 Build 0)  -->
<svg version="1.1" id="Layer_1" xmlns="http://www.w3.org/2000/svg" xmlns:xlink="http://www.w3.org/1999/xlink" x="0px" y="0px"
	 viewBox="0 0 78 78" style="enable-background:new 0 0 78 78;" xml:space="preserve">
<style type="text/css">
	.st0{fill:none;}
	.st1{fill:#FFFFFF;}
</style>
<g>
	<path class="st0" d="M47.4,25.5c3.7,0,6.8,2.7,7.4,6.2c1.4-0.3,2.8-1,3.9-2l-0.4-2.8c-0.6-4.5-4.5-7.9-9.1-7.9H21.9
		c-4.5,0-8.4,3.4-9.1,7.9l-0.4,2.8c1.8,1.4,4,2.2,6.3,2.2H40C40.5,28.3,43.6,25.5,47.4,25.5z M16.5,24.7l3.2-3.2
		c0.4-0.4,1.1-0.4,1.5,0c0.4,0.4,0.4,1.1,0,1.5l-3.2,3.2c-0.2,0.2-0.5,0.3-0.8,0.3c-0.3,0-0.6-0.1-0.8-0.3
		C16.1,25.8,16.1,25.1,16.5,24.7z M26.7,21.9L18.6,30c-0.2,0.2-0.5,0.3-0.8,0.3c-0.3,0-0.6-0.1-0.8-0.3c-0.4-0.4-0.4-1.1,0-1.5
		l8.1-8.1c0.4-0.4,1.1-0.4,1.5,0C27.1,20.8,27.1,21.5,26.7,21.9z"/>
	<path class="st0" d="M52.7,52.4h-7.4v3.2h7.4c-0.1-0.5-0.1-1.1-0.1-1.6C52.6,53.4,52.6,52.9,52.7,52.4z"/>
	<path class="st0" d="M47.4,27.6c-2.6,0-4.8,1.9-5.3,4.3h10.4c0.1,0,0.1,0,0.2,0C52.2,29.5,50,27.6,47.4,27.6z"/>
	<path class="st0" d="M65.7,44.2C65.7,44.2,65.7,44.2,65.7,44.2c-0.4,0-0.7-0.1-1.1-0.1c-0.7,0-1.5,0.1-2.2,0.2
		c-1.3,0.3-2.5,0.8-3.5,1.6c-0.8,0.6-1.6,1.3-2.2,2.2c-0.5,0.7-0.9,1.4-1.2,2.2c-0.3,0.7-0.5,1.4-0.6,2.2c-0.1,0.5-0.1,1.1-0.1,1.6
		c0,0.5,0,1.1,0.1,1.6c0,0.2,0.1,0.4,0.1,0.5c0.1,0.6,0.3,1.1,0.5,1.6c0.2,0.4,0.3,0.7,0.5,1.1c0.2,0.4,0.4,0.7,0.7,1
		c0.6,0.8,1.4,1.6,2.2,2.2c1.6,1.1,3.6,1.8,5.7,1.8c5.5,0,9.9-4.4,9.9-9.9c0-4.3-2.8-8-6.6-9.3c0,0,0,0,0,0
		C67.1,44.4,66.4,44.2,65.7,44.2z M69.1,49.6l1.9,1.9l-3.2,3.1l-2.2,2.1l-2.3,2.2l-1.1-1.1l-2.1-2.1l-1.5-1.5l1.6-1.6l2.8,2.9
		c0.2-0.1,0.3-0.1,0.5-0.2l1.6-1.7l0.4-0.4l1.6-1.6l0.5-0.5L69.1,49.6z"/>
	<path class="st0" d="M5.5,49.7v2.1c0,2.1,1.7,3.8,3.8,3.8h15.6v-3.2H11.5C9.1,52.4,7,51.3,5.5,49.7z"/>
	<rect x="30.2" y="42.7" class="st0" width="4.3" height="3.2"/>
	<path class="st0" d="M53.9,44.8c0,0.6,0.5,1.1,1.1,1.1h0.7c0.8-0.8,1.6-1.6,2.6-2.1h-3.3C54.3,43.8,53.9,44.2,53.9,44.8z"/>
	<path class="st0" d="M45.8,45.9c0.9,0,1.6-0.7,1.6-1.6c0-0.9-0.7-1.6-1.6-1.6h-2.7v3.2H45.8z"/>
	<path class="st0" d="M16.2,43.8H8.7v1.1c0,0.6,0.5,1.1,1.1,1.1h6.5c0.6,0,1.1-0.5,1.1-1.1C17.3,44.2,16.8,43.8,16.2,43.8z"/>
	<path class="st0" d="M25.4,42.7c-0.9,0-1.6,0.7-1.6,1.6s0.7,1.6,1.6,1.6h2.7v-3.2H25.4z"/>
	<path class="st0" d="M15.2,59.9v-2.2H9.3c-1.4,0-2.8-0.5-3.8-1.4v3.5H15.2z"/>
	<rect x="36.7" y="42.7" class="st0" width="4.3" height="3.2"/>
	<path class="st0" d="M53.2,50.2c0.3-0.8,0.6-1.5,1-2.2c-1.4-0.3-2.5-1.6-2.5-3.1c0-1.8,1.4-3.2,3.2-3.2h8.6c0.3,0,0.6,0.1,0.8,0.3
		c0.1,0,0.2,0,0.3,0c0.3,0,0.6,0,0.9,0c-0.5-2.8-1.8-5.3-3.8-7.3c-0.9-0.8-1.6-1.8-2.1-2.9c-1.5,1.1-3.3,1.8-5.2,2.1
		c-0.2,0.1-0.3,0.2-0.5,0.2c-0.1,0-0.2,0-0.3,0c-0.4,0-0.7,0-1.1,0H18.7c-2.5,0-5-0.8-7.1-2.3c-0.6,1.1-1.3,2-2.1,2.9
		c-2.6,2.6-4.1,6.1-4,9.8c0.1,3.2,2.8,5.8,6,5.8h14.4h18.3H53.2z M16.2,48.1H9.8c-1.8,0-3.2-1.4-3.2-3.2v-2.2c0-0.6,0.5-1.1,1.1-1.1
		h8.6c1.8,0,3.2,1.4,3.2,3.2C19.5,46.6,18,48.1,16.2,48.1z M25.4,48.1c-2.1,0-3.8-1.7-3.8-3.8c0-2.1,1.7-3.8,3.8-3.8h3.8h6.5H42h3.8
		c2.1,0,3.8,1.7,3.8,3.8c0,2.1-1.7,3.8-3.8,3.8H25.4z"/>
	<rect x="27" y="52.4" class="st0" width="16.1" height="4.3"/>
	<path class="st1" d="M15.2,59.9H5.5v-3.5c-1.2-1-2-2.5-2.1-4.2c0,0.1,0,0.1,0,0.2V61c0,0.6,0.5,1.1,1.1,1.1h11.8
		c0.6,0,1.1-0.5,1.1-1.1v-3.2h-2.1V59.9z"/>
	<path class="st1" d="M67.8,42.3c0-0.1,0-0.1-0.1-0.2C67.7,42.2,67.7,42.3,67.8,42.3C67.7,42.3,67.8,42.3,67.8,42.3z"/>
	<path class="st1" d="M63.6,55.1c-0.2,0.1-0.3,0.2-0.5,0.2l0.1,0.1L63.6,55.1z"/>
	<path class="st1" d="M45.3,55.6v2.1h7.9c-0.2-0.7-0.4-1.4-0.5-2.1H45.3z"/>
	<path class="st1" d="M9.3,55.6c-2.1,0-3.8-1.7-3.8-3.8v-2.1c-1.3-1.4-2.1-3.2-2.1-5.3c0-0.6,0-1.3,0.1-1.9
		c-0.1,0.1-0.1,0.3-0.1,0.4v8.8c0,0.1,0,0.3,0,0.4c0.1-0.5,0.5-0.9,1.1-0.9c0.6,0,1.1,0.5,1.1,1.1v4c1,0.9,2.4,1.4,3.8,1.4h5.9v-0.6
		c0-0.6,0.5-1.1,1.1-1.1c0.6,0,1.1,0.5,1.1,1.1v0.6h7.5v-2.1H9.3z"/>
	<path class="st1" d="M16.2,56c-0.6,0-1.1,0.5-1.1,1.1v0.6h2.1v-0.6C17.3,56.5,16.8,56,16.2,56z"/>
	<path class="st1" d="M5.5,56.4v-4c0-0.6-0.5-1.1-1.1-1.1c-0.5,0-1,0.4-1.1,0.9C3.5,53.8,4.3,55.3,5.5,56.4z"/>
	<path class="st1" d="M11,29c0.3-0.1,0.7,0,1,0.3c0.2,0.1,0.3,0.3,0.5,0.4l0.4-2.8c0.6-4.5,4.5-7.9,9.1-7.9h27.4
		c4.5,0,8.4,3.4,9.1,7.9l0.4,2.8c0.2-0.1,0.3-0.3,0.5-0.4c0.3-0.2,0.6-0.3,1-0.3c0.3,0.1,0.6,0.3,0.7,0.6l-0.4-3
		c-0.8-5.5-5.6-9.7-11.2-9.7H21.9c-5.6,0-10.4,4.2-11.2,9.7l-0.4,3C10.4,29.3,10.7,29.1,11,29z"/>
	<path class="st1" d="M60.1,31.5c-0.1,0-0.1,0-0.2,0c-0.5,0-1-0.4-1.1-0.9l-0.1-0.9c-1.2,0.9-2.5,1.6-3.9,2c0.1,0.4,0.1,0.9,0.1,1.3
		c0,0.4-0.2,0.7-0.5,0.9c1.9-0.3,3.6-1,5.2-2.1c0.6,1.1,1.3,2,2.1,2.9c2,2,3.3,4.5,3.8,7.3c0.1,0,0.3,0,0.4,0
		c0.2-0.2,0.5-0.4,0.8-0.4c0.4,0,0.8,0.2,0.9,0.6c-0.4-3.4-2-6.6-4.5-9c-1-1-1.7-2.1-2.2-3.4c0,0,0-0.1-0.1-0.1l0.1,0.7
		C61.1,30.9,60.7,31.4,60.1,31.5z"/>
	<path class="st1" d="M4.4,41.9c0.6,0,1.1,0.5,1.1,1.1v6.7c1.5,1.6,3.6,2.6,6,2.6h13.3v-1.1c0-0.6,0.5-1.1,1.1-1.1H11.5
		c-3.3,0-6-2.6-6-5.8c-0.1-3.7,1.3-7.2,4-9.8c0.9-0.8,1.6-1.8,2.1-2.9c2.1,1.5,4.5,2.3,7.1,2.3h33.8c0.4,0,0.7,0,1.1,0
		c-0.4-0.1-0.8-0.5-0.8-1c0-0.4,0-0.7-0.1-1.1c-0.1,0-0.1,0-0.2,0H42.1C42.1,32.3,42,32.6,42,33c0,0.6-0.5,1.1-1.1,1.1
		c-0.6,0-1.1-0.5-1.1-1.1c0-0.4,0-0.7,0.1-1.1H18.7c-2.3,0-4.5-0.8-6.3-2.2l-0.1,0.9c-0.1,0.6-0.6,1-1.2,0.9c-0.6-0.1-1-0.6-0.9-1.2
		l0.1-0.7c0,0,0,0.1,0,0.1C9.7,31,9,32.2,8,33.1c-2.6,2.6-4.2,5.9-4.5,9.4C3.6,42.2,4,41.9,4.4,41.9z"/>
	<path class="st1" d="M53.2,50.2h-9c0.6,0,1.1,0.5,1.1,1.1v1.1h7.4C52.8,51.6,52.9,50.9,53.2,50.2z"/>
	<path class="st1" d="M66.8,41.6c-0.3,0-0.6,0.2-0.8,0.4c0.6,0.1,1.2,0.2,1.8,0.3c0-0.1,0-0.1,0-0.2C67.5,41.8,67.2,41.6,66.8,41.6z
		"/>
	<path class="st1" d="M5.5,49.7V43c0-0.6-0.5-1.1-1.1-1.1c-0.4,0-0.8,0.3-1,0.7c-0.1,0.6-0.1,1.3-0.1,1.9
		C3.4,46.5,4.2,48.3,5.5,49.7z"/>
	<path class="st1" d="M60.2,29c-0.3-0.1-0.7,0-1,0.3c-0.2,0.1-0.3,0.3-0.5,0.4l0.1,0.9c0.1,0.5,0.5,0.9,1.1,0.9c0.1,0,0.1,0,0.2,0
		c0.6-0.1,1-0.6,0.9-1.2l-0.1-0.7C60.8,29.3,60.5,29.1,60.2,29z"/>
	<path class="st1" d="M11.1,31.5c0.6,0.1,1.1-0.3,1.2-0.9l0.1-0.9c-0.2-0.1-0.3-0.3-0.5-0.4C11.7,29,11.3,29,11,29
		c-0.3,0.1-0.6,0.3-0.7,0.6l-0.1,0.7C10.1,30.8,10.5,31.4,11.1,31.5z"/>
	<path class="st1" d="M18.1,26.2l3.2-3.2c0.4-0.4,0.4-1.1,0-1.5c-0.4-0.4-1.1-0.4-1.5,0l-3.2,3.2c-0.4,0.4-0.4,1.1,0,1.5
		c0.2,0.2,0.5,0.3,0.8,0.3C17.6,26.6,17.9,26.4,18.1,26.2z"/>
	<path class="st1" d="M25.1,20.4l-8.1,8.1c-0.4,0.4-0.4,1.1,0,1.5c0.2,0.2,0.5,0.3,0.8,0.3c0.3,0,0.6-0.1,0.8-0.3l8.1-8.1
		c0.4-0.4,0.4-1.1,0-1.5C26.2,20,25.6,20,25.1,20.4z"/>
	<path class="st1" d="M54.4,33.9c-0.3,0-0.6,0.1-0.8,0.1c0.1,0,0.2,0,0.3,0C54.1,34.1,54.2,34,54.4,33.9z"/>
	<path class="st1" d="M47.4,25.5c-3.8,0-6.9,2.8-7.4,6.5h2.2c0.5-2.5,2.7-4.3,5.3-4.3c2.6,0,4.8,1.8,5.3,4.3c0.7,0,1.4-0.1,2.1-0.3
		C54.2,28.1,51.1,25.5,47.4,25.5z"/>
	<path class="st1" d="M54.9,33c0-0.5,0-0.9-0.1-1.3c-0.7,0.2-1.4,0.3-2.1,0.3c0.1,0.3,0.1,0.7,0.1,1.1c0,0.5,0.3,0.9,0.8,1
		c0.3,0,0.6-0.1,0.8-0.1C54.7,33.7,54.9,33.4,54.9,33z"/>
	<path class="st1" d="M39.9,33c0,0.6,0.5,1.1,1.1,1.1c0.6,0,1.1-0.5,1.1-1.1c0-0.4,0-0.7,0.1-1.1H40C39.9,32.3,39.9,32.6,39.9,33z"
		/>
	<path class="st1" d="M16.2,41.6H7.6c-0.6,0-1.1,0.5-1.1,1.1v2.2c0,1.8,1.4,3.2,3.2,3.2h6.5c1.8,0,3.2-1.4,3.2-3.2
		C19.5,43,18,41.6,16.2,41.6z M16.2,45.9H9.8c-0.6,0-1.1-0.5-1.1-1.1v-1.1h7.5c0.6,0,1.1,0.5,1.1,1.1C17.3,45.4,16.8,45.9,16.2,45.9
		z"/>
	<path class="st1" d="M54.9,45.9c-0.6,0-1.1-0.5-1.1-1.1c0-0.6,0.5-1.1,1.1-1.1h3.3c1.8-1.1,3.8-1.8,6.1-1.8
		c-0.2-0.2-0.5-0.3-0.8-0.3h-8.6c-1.8,0-3.2,1.4-3.2,3.2c0,1.5,1,2.8,2.5,3.1c0.4-0.7,0.9-1.4,1.5-2.1H54.9z"/>
	<path class="st1" d="M43.5,56.7c0-0.6,0.5-1.1,1.1-1.1h0.6v-3.2H24.8v3.2h0.8c0.6,0,1.1,0.5,1.1,1.1c0,0.6-0.5,1.1-1.1,1.1h-0.8
		c0,0.6,0.5,1.1,1.1,1.1h18.3c0.6,0,1.1-0.5,1.1-1.1v0h-0.6C44,57.7,43.5,57.2,43.5,56.7z M43.1,56.7H27v-4.3h16.1V56.7z"/>
	<path class="st1" d="M44.6,55.6c-0.6,0-1.1,0.5-1.1,1.1c0,0.6,0.5,1.1,1.1,1.1h0.6v-2.1H44.6z"/>
	<path class="st1" d="M26.7,56.7c0-0.6-0.5-1.1-1.1-1.1h-0.8v2.1h0.8C26.2,57.7,26.7,57.2,26.7,56.7z"/>
	<path class="st1" d="M44.2,50.2H25.9c-0.6,0-1.1,0.5-1.1,1.1v1.1h20.4v-1.1C45.3,50.7,44.8,50.2,44.2,50.2z"/>
	<path class="st1" d="M49.6,44.3c0-2.1-1.7-3.8-3.8-3.8H42c0.6,0,1.1,0.5,1.1,1.1v1.1h2.7c0.9,0,1.6,0.7,1.6,1.6
		c0,0.9-0.7,1.6-1.6,1.6h-2.7V47c0,0.6-0.5,1.1-1.1,1.1c-0.6,0-1.1-0.5-1.1-1.1v-1.1h-4.3V47c0,0.6-0.5,1.1-1.1,1.1
		c-0.6,0-1.1-0.5-1.1-1.1v-1.1h-4.3V47c0,0.6-0.5,1.1-1.1,1.1c-0.6,0-1.1-0.5-1.1-1.1v-1.1h-2.7c-0.9,0-1.6-0.7-1.6-1.6
		s0.7-1.6,1.6-1.6h2.7v-1.1c0-0.6,0.5-1.1,1.1-1.1h-3.8c-2.1,0-3.8,1.7-3.8,3.8c0,2.1,1.7,3.8,3.8,3.8h20.4
		C47.9,48.1,49.6,46.4,49.6,44.3z"/>
	<path class="st1" d="M30.2,41.6v1.1h4.3v-1.1c0-0.6,0.5-1.1,1.1-1.1h-6.5C29.7,40.5,30.2,41,30.2,41.6z"/>
	<path class="st1" d="M36.7,41.6v1.1H41v-1.1c0-0.6,0.5-1.1,1.1-1.1h-6.5C36.2,40.5,36.7,41,36.7,41.6z"/>
	<rect x="28.1" y="42.7" class="st1" width="2.1" height="3.2"/>
	<path class="st1" d="M28.1,41.6v1.1h2.1v-1.1c0-0.6-0.5-1.1-1.1-1.1C28.5,40.5,28.1,41,28.1,41.6z"/>
	<path class="st1" d="M28.1,47c0,0.6,0.5,1.1,1.1,1.1c0.6,0,1.1-0.5,1.1-1.1v-1.1h-2.1V47z"/>
	<rect x="34.5" y="42.7" class="st1" width="2.1" height="3.2"/>
	<path class="st1" d="M34.5,41.6v1.1h2.1v-1.1c0-0.6-0.5-1.1-1.1-1.1C35,40.5,34.5,41,34.5,41.6z"/>
	<path class="st1" d="M34.5,47c0,0.6,0.5,1.1,1.1,1.1c0.6,0,1.1-0.5,1.1-1.1v-1.1h-2.1V47z"/>
	<rect x="41" y="42.7" class="st1" width="2.1" height="3.2"/>
	<path class="st1" d="M41,41.6v1.1h2.1v-1.1c0-0.6-0.5-1.1-1.1-1.1C41.4,40.5,41,41,41,41.6z"/>
	<path class="st1" d="M41,47c0,0.6,0.5,1.1,1.1,1.1c0.6,0,1.1-0.5,1.1-1.1v-1.1H41V47z"/>
	<path class="st1" d="M63.2,55.4l-2.8-2.9l-1.6,1.6l1.5,1.5h1.7C62.3,55.6,62.8,55.5,63.2,55.4z"/>
	<path class="st1" d="M65.3,53.5l-1.6,1.7C64.4,54.8,64.9,54.2,65.3,53.5z"/>
	<path class="st1" d="M67.8,52.2c0,0.1,0,0.1,0,0.2v2.2l3.2-3.1l-1.9-1.9l-1.3,1.3v0.9C67.8,51.9,67.8,52,67.8,52.2z"/>
	<path class="st1" d="M62.3,57.7l1.1,1.1l2.3-2.2v-0.2C64.8,57.1,63.6,57.6,62.3,57.7z"/>
	<path class="st1" d="M67.8,52.2c-0.1,1.7-0.9,3.2-2.1,4.2v0.2l2.2-2.1v-2.2C67.8,52.3,67.8,52.2,67.8,52.2z"/>
	<path class="st1" d="M67.8,52.2c0-0.1,0-0.3,0-0.4v-0.9l-0.5,0.5C67.6,51.6,67.8,51.8,67.8,52.2z"/>
	<path class="st1" d="M65.7,53.1l-0.4,0.4c-0.4,0.7-0.9,1.3-1.6,1.7l-0.3,0.4l-0.1-0.1c-0.4,0.1-0.8,0.2-1.3,0.2h-1.7l2.1,2.1
		c1.3-0.1,2.4-0.6,3.4-1.4V53.1z"/>
	<path class="st1" d="M67.8,52.2c-0.1-0.3-0.3-0.6-0.5-0.7l-1.6,1.6v3.3C66.9,55.3,67.7,53.8,67.8,52.2z"/>
	<path class="st1" d="M67.8,42.3c0,0.1,0.1,0.2,0.1,0.3v2c3.9,1.3,6.6,5,6.6,9.3c0,5.5-4.4,9.9-9.9,9.9c-2.1,0-4.1-0.7-5.7-1.8h-3.3
		c2.2,2.5,5.4,4,9,4c6.7,0,12.1-5.4,12.1-12.1C76.7,48.4,72.9,43.7,67.8,42.3z"/>
	<path class="st1" d="M54.2,48c-0.4,0.7-0.7,1.5-1,2.2h2.3c0.3-0.8,0.7-1.5,1.2-2.2h-1.8C54.7,48.1,54.4,48,54.2,48z"/>
	<path class="st1" d="M64.3,41.9c0.2,0.2,0.3,0.5,0.3,0.7v1.4c0.4,0,0.7,0,1.1,0.1c0-0.7-0.1-1.5-0.2-2.2c-0.3,0-0.6,0-0.9,0
		C64.5,41.9,64.4,41.9,64.3,41.9z"/>
	<path class="st1" d="M54.9,52.4h-2.2c-0.1,0.5-0.1,1.1-0.1,1.6c0,0.5,0,1.1,0.1,1.6h2.2c-0.1-0.5-0.1-1.1-0.1-1.6
		C54.7,53.4,54.8,52.9,54.9,52.4z"/>
	<path class="st1" d="M56,59.9h0.7c-0.2-0.3-0.5-0.7-0.7-1V59.9z"/>
	<path class="st1" d="M58.2,43.8c-1,0.6-1.8,1.3-2.6,2.1h3.3c1-0.7,2.2-1.3,3.5-1.6v-0.6H58.2z"/>
	<path class="st1" d="M53.1,57.7c0.2,0.6,0.4,1.2,0.7,1.7v-1.7H53.1z"/>
	<path class="st1" d="M56.7,59.9H56v-1c-0.2-0.4-0.4-0.7-0.5-1.1h-1.6v1.7c0.5,0.9,1.1,1.8,1.8,2.6h3.3C58,61.4,57.3,60.7,56.7,59.9
		z"/>
	<path class="st1" d="M53.9,57.2c0-0.6,0.5-1.1,1.1-1.1c0,0,0,0,0,0c0-0.2-0.1-0.4-0.1-0.5h-2.2c0.1,0.7,0.3,1.5,0.5,2.1h0.7V57.2z"
		/>
	<path class="st1" d="M67.8,44.5c0,0.1,0,0.1,0,0.2c0,0,0,0,0,0v-2c0-0.1,0-0.2-0.1-0.3c0,0,0,0-0.1,0C67.8,43,67.8,43.7,67.8,44.5z
		"/>
	<path class="st1" d="M54.9,56.1c-0.6,0-1.1,0.5-1.1,1.1v0.5h1.6C55.3,57.2,55.1,56.7,54.9,56.1C55,56.1,54.9,56.1,54.9,56.1z"/>
	<path class="st1" d="M65.7,44.2v-1.5c0-0.3,0.1-0.5,0.2-0.7c-0.1,0-0.3,0-0.4,0C65.6,42.7,65.7,43.4,65.7,44.2
		C65.7,44.2,65.7,44.2,65.7,44.2z"/>
	<path class="st1" d="M52.7,52.4h2.2c0.1-0.7,0.3-1.5,0.6-2.2h-2.3C52.9,50.9,52.8,51.6,52.7,52.4z"/>
	<path class="st1" d="M65.7,44.2c0.7,0.1,1.5,0.2,2.1,0.5c0-0.1,0-0.1,0-0.2c0-0.7,0-1.4-0.1-2.1c-0.6-0.2-1.2-0.3-1.8-0.3
		c-0.2,0.2-0.2,0.4-0.2,0.7V44.2z"/>
	<path class="st1" d="M54.2,48c0.2,0.1,0.5,0.1,0.8,0.1h1.8c0.6-0.8,1.4-1.6,2.2-2.2h-3.3C55.1,46.5,54.6,47.2,54.2,48z"/>
	<path class="st1" d="M64.3,41.9c-2.2,0.1-4.3,0.7-6.1,1.8h4.2v0.6c0.7-0.2,1.4-0.2,2.2-0.2v-1.4C64.6,42.4,64.5,42.1,64.3,41.9z"/>
</g>
</svg>
