<?xml version="1.0" encoding="utf-8"?>
<!-- Generator: Adobe Illustrator 21.0.0, SVG Export Plug-In . SVG Version: 6.00 Build 0)  -->
<svg version="1.1" id="Layer_1" xmlns="http://www.w3.org/2000/svg" xmlns:xlink="http://www.w3.org/1999/xlink" x="0px" y="0px"
	 viewBox="0 0 78 78" style="enable-background:new 0 0 78 78;" xml:space="preserve">
<style type="text/css">
	.st0{fill:#FFFFFF;}
</style>
<g id="IzeuKb.tif">
	<g>
		<path class="st0" d="M4,35c0-8.7,0-17.3,0-26c0-1.4,0.7-1.9,2.1-1.6c6.7,1.6,13.3,3.2,20,4.7c0.4,0.1,0.9,0.1,1.4,0
			c6.7-1.6,13.5-3.2,20.2-4.8c0.3-0.1,0.6-0.1,0.8,0c7,1.6,13.9,3.3,20.9,4.9c1.2,0.3,1.4,0.6,1.4,1.9c0,12.8,0,25.7,0,38.5
			c0,0.6,0.1,0.9,0.6,1.3c3.7,2.6,5.2,7.3,3.8,11.6c-1.5,4.4-5.5,7.2-10.1,7.1c-4.4-0.1-8.4-3.1-9.6-7.5c-0.2-0.6-0.4-0.9-1-1
			c-1.5-0.3-3.1-0.7-4.6-1.1c-1.2-0.3-2.4-0.3-3.7,0c-6.3,1.5-12.6,3-19,4.5c-0.3,0.1-0.7,0.1-1.1,0c-6.9-1.6-13.8-3.3-20.8-4.9
			C4.3,62.5,4,62.1,4,60.8C4,52.2,4,43.6,4,35z M6.6,10.2c0,16.8,0,33.5,0,50.3c6.2,1.5,12.4,2.9,18.7,4.4c0-0.2,0.1-0.3,0.1-0.3
			c0-4,0-7.9,0-11.9c0-0.2-0.3-0.6-0.5-0.7c-0.6-0.3-1.3-0.6-1.9-0.8c-1-0.5-1.3-1.1-1-1.8c0.3-0.7,1.1-0.9,2.1-0.5
			c0.4,0.2,0.9,0.4,1.4,0.6c0-0.2,0.1-0.4,0.1-0.5c0-11.2,0-22.4,0-33.6c0-0.6-0.2-0.7-0.7-0.8c-2.2-0.5-4.5-1-6.7-1.6
			C14.2,12,10.4,11.1,6.6,10.2z M46.8,10.2c-6.3,1.5-12.6,3-18.8,4.4c0,0.2,0,0.3,0,0.4c0,11.6,0,23.2,0,34.7c0,0.3,0.2,0.7,0.5,0.9
			c0.6,0.7,0.6,1.4,0,2c-0.2,0.2-0.5,0.6-0.5,1c0,3.5,0,7,0,10.5c0,0.2,0,0.4,0.1,0.7c6.3-1.5,12.5-2.9,18.7-4.4
			c0-12.1,0-24.1,0-36.1c-1.1,0.1-1.6-0.1-1.9-0.8c-0.3-0.9,0.3-1.3,1-1.7c0.1,0,0.2-0.1,0.2-0.1c0.6-0.2,0.7-0.6,0.7-1.2
			c0-1.4,0-2.9,0-4.3C46.8,14.2,46.8,12.3,46.8,10.2z M49.4,20.1c0.3-0.1,0.5-0.2,0.7-0.2c0.8-0.2,1.4,0.1,1.6,0.8
			c0.2,0.7-0.1,1.3-0.8,1.6c-0.2,0.1-0.5,0.2-0.8,0.3c-0.7,0.1-0.9,0.5-0.9,1.2c0,5.8,0,11.6,0,17.4c0,6.1,0,12.3,0,18.4
			c0,0.3,0.2,0.8,0.4,0.9c1.7,0.5,3.4,0.8,5.2,1.3c0.4-3.2,1.7-5.9,4.4-7.8c2.7-1.9,5.6-2.4,8.8-1.6c0-0.3,0-0.4,0-0.6
			c0-12.1,0-24.3,0-36.4c0-0.6-0.2-0.8-0.8-1c-3.4-0.8-6.8-1.6-10.2-2.4c-2.6-0.6-5.2-1.2-7.8-1.8C49.4,13.5,49.4,16.8,49.4,20.1z
			 M73.3,62.4c0-4.3-3.5-7.9-7.8-7.9c-4.5,0-8,3.5-8,8c0,4.3,3.6,7.8,7.9,7.9C69.7,70.3,73.3,66.8,73.3,62.4z"/>
		<path class="st0" d="M19.7,47.3c0,1.1-0.9,1.8-1.7,1.4c-1.6-0.8-3.1-1.6-4.6-2.5c-0.6-0.4-0.8-1-0.4-1.7c0.4-0.6,1-0.8,1.7-0.5
			c1.5,0.8,3,1.6,4.4,2.5C19.4,46.6,19.6,47.1,19.7,47.3z"/>
		<path class="st0" d="M35.2,54.8c-1.2-0.2-2.1-0.3-2.9-0.4c-0.8-0.1-1.2-0.7-1-1.5c0.1-0.7,0.7-1.1,1.4-1c1.6,0.2,3.1,0.3,4.6-0.1
			c0.6-0.2,1.1,0.2,1.3,0.9c0.2,0.6,0,1.2-0.6,1.5C37,54.4,36,54.6,35.2,54.8z"/>
		<path class="st0" d="M43.6,26.4c-0.3,0.5-0.5,0.8-0.7,1.1c-0.9,1.1-1.8,2.2-2.7,3.4c-0.6,0.7-1.2,0.9-1.8,0.6
			c-0.7-0.4-0.9-1.2-0.3-1.9c1-1.3,2.1-2.7,3.2-3.9c0.3-0.3,1-0.4,1.4-0.3C43,25.4,43.2,26,43.6,26.4z"/>
		<path class="st0" d="M42.7,45.8c-0.3,1.2-0.5,2.4-0.8,3.6c-0.2,0.9-1,1.2-1.7,1c-0.7-0.2-0.9-1-0.7-1.8c0.2-1.3,0.4-2.6,0.5-3.9
			c0-1,0.4-1.6,1.2-1.7c0.8,0,1.3,0.5,1.4,1.5c0,0.4,0,0.8,0,1.2C42.6,45.7,42.6,45.7,42.7,45.8z"/>
		<path class="st0" d="M37.5,33.6c0.5,0.4,0.9,0.6,1.1,0.9c0.8,1.4,1.5,2.8,2.2,4.2c0.2,0.3,0.3,0.8,0.2,1c-0.2,0.4-0.6,0.9-0.9,1
			c-0.4,0.1-1.1-0.2-1.3-0.5c-0.8-1.2-1.5-2.4-2.2-3.7c-0.3-0.5-0.3-1.2-0.2-1.8C36.5,34.2,37.1,33.9,37.5,33.6z"/>
		<path class="st0" d="M60.7,23.9c-0.2,0.3-0.5,0.8-0.8,0.9c-0.4,0.1-1.1,0.1-1.3-0.2c-1-1.2-2.2-2-3.7-2.6
			c-0.6-0.2-0.8-0.9-0.5-1.5c0.2-0.6,0.7-1,1.4-0.8c2,0.5,3.5,1.7,4.7,3.3C60.6,23.2,60.6,23.5,60.7,23.9z"/>
		<path class="st0" d="M67.1,62.4c0.9,0.9,1.7,1.6,2.5,2.4c0.7,0.7,0.7,1.4,0.2,1.9c-0.6,0.5-1.3,0.5-1.9-0.2
			c-0.8-0.8-1.5-1.6-2.4-2.5c-0.8,0.9-1.6,1.7-2.4,2.4c-0.7,0.7-1.4,0.8-1.9,0.2c-0.6-0.5-0.5-1.3,0.2-2c0.8-0.8,1.5-1.5,2.4-2.4
			c-0.9-0.8-1.7-1.6-2.5-2.5c-0.7-0.7-0.6-1.7,0.2-2.1c0.6-0.3,1.1-0.1,1.6,0.3c0.8,0.8,1.6,1.6,2.4,2.5c0.9-0.9,1.6-1.7,2.4-2.5
			c0.7-0.7,1.4-0.8,1.9-0.2c0.6,0.6,0.5,1.3-0.2,2C68.7,60.8,68,61.5,67.1,62.4z"/>
	</g>
</g>
</svg>
