<?xml version="1.0" encoding="utf-8"?>
<!-- Generator: Adobe Illustrator 21.0.0, SVG Export Plug-In . SVG Version: 6.00 Build 0)  -->
<svg version="1.1" id="Layer_1" xmlns="http://www.w3.org/2000/svg" xmlns:xlink="http://www.w3.org/1999/xlink" x="0px" y="0px"
	 viewBox="0 0 78 78" style="enable-background:new 0 0 78 78;" xml:space="preserve">
<style type="text/css">
	.st0{clip-path:url(#SVGID_2_);fill:#FFFFFF;}
</style>
<g>
	<defs>
		<rect id="SVGID_1_" x="2.1" y="16.7" width="73.3" height="47"/>
	</defs>
	<clipPath id="SVGID_2_">
		<use xlink:href="#SVGID_1_"  style="overflow:visible;"/>
	</clipPath>
	<path class="st0" d="M38.7,63.7c-11.2,0-22.5,0-33.7,0c-2.6,0-2.9-0.3-2.9-2.9c0-3,0-6,0-9c0-1.5,0.5-2.2,2.1-2.3
		c5.3-0.4,9.1-4.4,9-9.5c0-5-3.9-9-9.1-9.3c-1.5-0.1-2-0.8-2-2.2c0-3,0-6,0-9c0-2.1,0.6-2.7,2.7-2.7c12.8,0,25.6,0,38.5,0
		c9.6,0,19.2,0,28.8,0c3.1,0,3.2,0.1,3.2,3.2c0,2.8,0,5.7,0,8.5c0,1.4-0.5,2.1-2,2.2c-5.3,0.3-9.1,4.3-9.1,9.3
		C64.2,45,67.8,49,73,49.5c2.1,0.2,2.3,0.4,2.3,2.5c0,3.1,0,6.2,0,9.3c0,1.9-0.4,2.3-2.3,2.3C61.6,63.7,50.1,63.7,38.7,63.7
		 M72.3,19.9H5.4c0,1.6,0,3,0,4.5c0,2.8,0,2.8,2.7,3.8c5.3,1.9,8.8,7.1,8.5,12.4c-0.4,6-4.2,10.4-10.1,11.8c-0.4,0.1-1,0.5-1,0.8
		c-0.1,2.3,0,4.6,0,7h66.9c0-2.2,0-4.3,0-6.4c0-1-0.3-1.3-1.3-1.6c-4.7-1.1-7.9-4-9.3-8.6c-2.3-7.1,2.1-14.3,9.3-16
		c0.5-0.1,1.2-0.6,1.2-0.9C72.3,24.5,72.3,22.2,72.3,19.9"/>
	<path class="st0" d="M47.1,27c0.7,0.6,1.3,1.3,2.1,2C41,37,32.9,44.9,24.7,53c-0.3-0.4-0.9-1.1-1.5-1.9c8-7.8,16.1-15.8,24.3-23.8
		C47.3,27.2,47.2,27.1,47.1,27"/>
	<path class="st0" d="M42.4,52.5c-3.4-0.1-6.1-2.9-5.9-6.3c0.2-3.4,2.9-5.9,6.3-5.8c3.4,0.1,6.1,3,5.9,6.3
		C48.5,50.1,45.8,52.6,42.4,52.5 M42.7,43.5c-1.7-0.1-3.1,1.2-3.1,2.8c-0.1,1.7,1.3,3.2,3,3.2c1.7,0,3-1.3,3-3
		C45.6,44.8,44.4,43.6,42.7,43.5"/>
	<path class="st0" d="M35.5,33.7c0,3.3-2.7,6-6,6c-3.4,0-6.1-2.7-6.1-6.1c0-3.3,2.7-6,6-6C32.8,27.6,35.5,30.3,35.5,33.7 M29.4,36.7
		c1.7,0,3-1.3,3-3c0-1.7-1.4-3.1-3.1-3.1c-1.6,0-3,1.4-2.9,3.1C26.4,35.4,27.7,36.7,29.4,36.7"/>
	<rect x="54.5" y="25.6" class="st0" width="2.8" height="2.9"/>
	<rect x="54.4" y="42.9" class="st0" width="2.9" height="2.8"/>
	<rect x="54.5" y="51.6" class="st0" width="2.8" height="2.9"/>
	<rect x="54.5" y="34.4" class="st0" width="2.9" height="2.8"/>
</g>
</svg>
