<?xml version="1.0" encoding="utf-8"?>
<!-- Generator: Adobe Illustrator 21.0.0, SVG Export Plug-In . SVG Version: 6.00 Build 0)  -->
<svg version="1.1" id="Layer_1" xmlns="http://www.w3.org/2000/svg" xmlns:xlink="http://www.w3.org/1999/xlink" x="0px" y="0px"
	 viewBox="0 0 78 78" style="enable-background:new 0 0 78 78;" xml:space="preserve">
<style type="text/css">
	.st0{fill:#FFFFFF;}
</style>
<g>
	<g>
		<path class="st0" d="M54.6,63c-0.7,0-1.2,0.5-1.2,1.2v2.4c0,0.7,0.5,1.2,1.2,1.2c0.7,0,1.2-0.5,1.2-1.2v-2.4
			C55.8,63.5,55.3,63,54.6,63z"/>
	</g>
</g>
<g>
	<g>
		<path class="st0" d="M54.6,70.2c-0.7,0-1.2,0.5-1.2,1.2v1.2h-1.2c-0.7,0-1.2,0.5-1.2,1.2c0,0.7,0.5,1.2,1.2,1.2h2.4
			c0.7,0,1.2-0.5,1.2-1.2v-2.4C55.8,70.7,55.3,70.2,54.6,70.2z"/>
	</g>
</g>
<g>
	<g>
		<path class="st0" d="M47.7,72.6h-4.5c-0.7,0-1.2,0.5-1.2,1.2c0,0.7,0.5,1.2,1.2,1.2h4.5c0.7,0,1.2-0.5,1.2-1.2
			C48.9,73.1,48.3,72.6,47.7,72.6z"/>
	</g>
</g>
<g>
	<g>
		<path class="st0" d="M29.5,72.6H25c-0.7,0-1.2,0.5-1.2,1.2c0,0.7,0.5,1.2,1.2,1.2h4.5c0.7,0,1.2-0.5,1.2-1.2
			C30.7,73.1,30.2,72.6,29.5,72.6z"/>
	</g>
</g>
<g>
	<g>
		<path class="st0" d="M38.6,72.6h-4.5c-0.7,0-1.2,0.5-1.2,1.2c0,0.7,0.5,1.2,1.2,1.2h4.5c0.7,0,1.2-0.5,1.2-1.2
			C39.8,73.1,39.3,72.6,38.6,72.6z"/>
	</g>
</g>
<g>
	<g>
		<path class="st0" d="M20.5,72.6h-4.5c-0.7,0-1.2,0.5-1.2,1.2c0,0.7,0.5,1.2,1.2,1.2h4.5c0.7,0,1.2-0.5,1.2-1.2
			C21.7,73.1,21.1,72.6,20.5,72.6z"/>
	</g>
</g>
<g>
	<g>
		<path class="st0" d="M11.4,72.6h-1.2v-1.2c0-0.7-0.5-1.2-1.2-1.2s-1.2,0.5-1.2,1.2v2.4C7.8,74.5,8.3,75,9,75h2.4
			c0.7,0,1.2-0.5,1.2-1.2C12.6,73.1,12.1,72.6,11.4,72.6z"/>
	</g>
</g>
<g>
	<g>
		<path class="st0" d="M9,30.1c-0.7,0-1.2,0.5-1.2,1.2v5c0,0.7,0.5,1.2,1.2,1.2s1.2-0.5,1.2-1.2v-5C10.2,30.6,9.7,30.1,9,30.1z"/>
	</g>
</g>
<g>
	<g>
		<path class="st0" d="M9,40.1c-0.7,0-1.2,0.5-1.2,1.2v5c0,0.7,0.5,1.2,1.2,1.2s1.2-0.5,1.2-1.2v-5C10.2,40.6,9.7,40.1,9,40.1z"/>
	</g>
</g>
<g>
	<g>
		<path class="st0" d="M9,60.2c-0.7,0-1.2,0.5-1.2,1.2v5c0,0.7,0.5,1.2,1.2,1.2s1.2-0.5,1.2-1.2v-5C10.2,60.7,9.7,60.2,9,60.2z"/>
	</g>
</g>
<g>
	<g>
		<path class="st0" d="M9,50.1c-0.7,0-1.2,0.5-1.2,1.2v5c0,0.7,0.5,1.2,1.2,1.2s1.2-0.5,1.2-1.2v-5C10.2,50.7,9.7,50.1,9,50.1z"/>
	</g>
</g>
<g>
	<g>
		<path class="st0" d="M9,20c-0.7,0-1.2,0.5-1.2,1.2v5c0,0.7,0.5,1.2,1.2,1.2s1.2-0.5,1.2-1.2v-5C10.2,20.6,9.7,20,9,20z"/>
	</g>
</g>
<g>
	<g>
		<path class="st0" d="M14.9,7.8C14.3,5,11.9,3,9,3C5.7,3,3,5.7,3,9c0,2.9,2,5.3,4.8,5.9v1.3c0,0.7,0.5,1.2,1.2,1.2s1.2-0.5,1.2-1.2
			v-1.3C13.5,14.2,15.6,11.1,14.9,7.8z M9,12.6C7,12.6,5.4,11,5.4,9S7,5.4,9,5.4S12.6,7,12.6,9S11,12.6,9,12.6z"/>
	</g>
</g>
<g>
	<g>
		<path class="st0" d="M54.6,3c-11.3,0-20.4,9.1-20.4,20.4c0,10.9,18.6,35.7,19.4,36.7l1,1.3l1-1.3c0.8-1,19.4-25.8,19.4-36.7
			C75,12.1,65.9,3,54.6,3z M54.6,57.4c-3.8-5.3-18-25.2-18-34c0-9.9,8.1-18,18-18c9.9,0,18,8.1,18,18C72.6,32.2,58.5,52.1,54.6,57.4
			z"/>
	</g>
</g>
<g>
	<g>
		<path class="st0" d="M54.6,15c-4.6,0-8.4,3.8-8.4,8.4s3.8,8.4,8.4,8.4S63,28,63,23.4S59.2,15,54.6,15z M54.6,29.4
			c-3.3,0-6-2.7-6-6s2.7-6,6-6c3.3,0,6,2.7,6,6S57.9,29.4,54.6,29.4z"/>
	</g>
</g>
</svg>
