<?xml version="1.0" encoding="utf-8"?>
<!-- Generator: Adobe Illustrator 21.0.0, SVG Export Plug-In . SVG Version: 6.00 Build 0)  -->
<svg version="1.1" id="Layer_1" xmlns="http://www.w3.org/2000/svg" xmlns:xlink="http://www.w3.org/1999/xlink" x="0px" y="0px"
	 viewBox="0 0 78 78" style="enable-background:new 0 0 78 78;" xml:space="preserve">
<style type="text/css">
	.st0{fill:#FFFFFF;}
</style>
<g transform="translate(1 1)">
	<g>
		<g>
			<path class="st0" d="M40.8,49.8h19.7c0.7,0,1.2-0.5,1.2-1.2V37.5c0-0.7-0.5-1.2-1.2-1.2H40.8c-0.7,0-1.2,0.5-1.2,1.2v11.1
				C39.6,49.3,40.1,49.8,40.8,49.8z M42.1,38.7h17.2v8.6H42.1V38.7z"/>
			<path class="st0" d="M7.6,33.8h9.8c0.7,0,1.2-0.5,1.2-1.2c0-0.7-0.5-1.2-1.2-1.2H7.6c-0.7,0-1.2,0.5-1.2,1.2
				C6.4,33.3,6.9,33.8,7.6,33.8z"/>
			<path class="st0" d="M22.4,33.8h9.8c0.7,0,1.2-0.5,1.2-1.2c0-0.7-0.5-1.2-1.2-1.2h-9.8c-0.7,0-1.2,0.5-1.2,1.2
				C21.1,33.3,21.6,33.8,22.4,33.8z"/>
			<path class="st0" d="M7.6,38.7h16c0.7,0,1.2-0.5,1.2-1.2s-0.5-1.2-1.2-1.2h-16c-0.7,0-1.2,0.5-1.2,1.2S6.9,38.7,7.6,38.7z"/>
			<path class="st0" d="M32.2,36.2h-3.7c-0.7,0-1.2,0.5-1.2,1.2s0.5,1.2,1.2,1.2h3.7c0.7,0,1.2-0.5,1.2-1.2S33,36.2,32.2,36.2z"/>
			<path class="st0" d="M74.2,21c-0.9-1.1-2-1.7-3.3-1.8l-3-0.4v-3.5v-2.5c0-2.7-2.2-4.9-4.9-4.9H6.4c-2.7,0-4.9,2.2-4.9,4.9v2.5
				v9.8v27.1c0,2.2,1.5,4.1,3.5,4.7c-0.1,2.5,1.8,4.7,4.4,4.9l56.9,6.4c0.1,0,0.4,0,0.5,0c2.5,0,4.7-1.8,4.9-4.2l3.7-39.5
				C75.4,23.3,75.1,22,74.2,21z M3.9,16.5h61.6v3.2v4.2H3.9V16.5z M6.4,10.4H63c1.4,0,2.5,1.1,2.5,2.5v1.2H3.9v-1.2
				C3.9,11.5,5,10.4,6.4,10.4z M3.9,52.2V26.4h61.6v25.9c0,1.4-1.1,2.5-2.5,2.5H6.5H6.4C5,54.7,3.9,53.6,3.9,52.2z M72.8,24
				l-3.7,39.5c-0.1,1.4-1.4,2.3-2.7,2.2L9.7,59.4c-1.2-0.1-2.1-1.1-2.2-2.2H63c2.7,0,4.9-2.2,4.9-4.9V25.2v-4.1l2.8,0.2
				c0.6,0,1.2,0.4,1.6,0.9C72.7,22.7,73,23.4,72.8,24z"/>
		</g>
	</g>
</g>
</svg>
