<?xml version="1.0" encoding="utf-8"?>
<!-- Generator: Adobe Illustrator 21.0.0, SVG Export Plug-In . SVG Version: 6.00 Build 0)  -->
<svg version="1.1" id="Layer_1" xmlns="http://www.w3.org/2000/svg" xmlns:xlink="http://www.w3.org/1999/xlink" x="0px" y="0px"
	 viewBox="0 0 78 78" style="enable-background:new 0 0 78 78;" xml:space="preserve">
<style type="text/css">
	.st0{fill:#FFFFFF;}
</style>
<g id="Taxi-Placeholder-Station-Smartphone-Location">
	<path class="st0" d="M46.2,61.6h11.3v2.3H46.2V61.6z"/>
	<path class="st0" d="M46.2,57h11.3v2.3H46.2V57z"/>
	<path class="st0" d="M65.4,57c-1.9,0-3.4,1.5-3.4,3.4s1.5,3.4,3.4,3.4s3.4-1.5,3.4-3.4C68.8,58.6,67.3,57.1,65.4,57
		C65.4,57,65.4,57,65.4,57z M65.4,61.6c-0.6,0-1.1-0.5-1.1-1.1s0.5-1.1,1.1-1.1s1.1,0.5,1.1,1.1S66,61.6,65.4,61.6z"/>
	<path class="st0" d="M38.3,57c-1.9,0-3.4,1.5-3.4,3.4s1.5,3.4,3.4,3.4c1.9,0,3.4-1.5,3.4-3.4C41.7,58.6,40.2,57.1,38.3,57
		C38.3,57,38.3,57,38.3,57z M38.3,61.6c-0.6,0-1.1-0.5-1.1-1.1s0.5-1.1,1.1-1.1c0.6,0,1.1,0.5,1.1,1.1S38.9,61.6,38.3,61.6z"/>
	<path class="st0" d="M74.4,51.4c0-1.9-1.5-3.4-3.4-3.4c-0.7,0-1.3,0.2-1.9,0.6l-1.6-4.3l-0.9-3.6c-0.3-1-1.2-1.7-2.2-1.7h-5.9v-3.4
		c0-0.6-0.5-1.1-1.1-1.1H46.2c-0.6,0-1.1,0.5-1.1,1.1V39h-5.9c-1,0-1.9,0.7-2.2,1.7l-0.9,3.6l-1.6,4.3C34,48.2,33.3,48,32.7,48
		c-1.9,0-3.4,1.5-3.4,3.4c0,0,0,0,0,0c0,1.2,0.6,2.2,1.6,2.8c-0.3,0.5-0.5,1.1-0.5,1.7v14.7c0,1.2,1,2.3,2.3,2.3h4.5
		c1.2,0,2.3-1,2.3-2.3v-2.3h24.8v2.3c0,1.2,1,2.3,2.3,2.3H71c1.2,0,2.3-1,2.3-2.3V55.9c0-0.6-0.2-1.2-0.5-1.7
		C73.8,53.6,74.4,52.6,74.4,51.4z M47.3,36.7h9V39h-9V36.7z M39.2,41.3h25.3l0.6,2.3H38.6L39.2,41.3z M38,45.8h27.8l2.5,6.8h-20
		c-0.6-2.4-3.1-3.9-5.5-3.2c-1.6,0.4-2.8,1.7-3.2,3.2h-4.2L38,45.8z M45.9,52.5H42c0.6-1.1,2-1.4,3-0.8
		C45.4,51.9,45.7,52.2,45.9,52.5L45.9,52.5z M31.5,51.4c0-0.6,0.5-1.1,1.1-1.1c0.4,0,0.8,0.2,1,0.6L33,52.5c-0.1,0-0.2,0.1-0.4,0.1
		C32.1,52.5,31.5,52,31.5,51.4C31.5,51.4,31.5,51.4,31.5,51.4z M37.2,70.6h-4.5v-2.5c0.4,0.1,0.7,0.2,1.1,0.2h3.4V70.6z M71,70.6
		h-4.5v-2.3h3.4c0.4,0,0.8-0.1,1.1-0.2V70.6z M71,64.9c0,0.6-0.5,1.1-1.1,1.1H33.8c-0.6,0-1.1-0.5-1.1-1.1v-9c0-0.6,0.5-1.1,1.1-1.1
		h36.1c0.6,0,1.1,0.5,1.1,1.1V64.9z M71,52.5c-0.1,0-0.2,0-0.4-0.1l-0.6-1.6c0.2-0.4,0.6-0.6,1-0.6c0.6,0,1.1,0.5,1.1,1.1
		C72.1,52,71.6,52.5,71,52.5z"/>
	<path class="st0" d="M7.9,66.1V11.9c0-2.5,2-4.5,4.5-4.5h31.6c2.5,0,4.5,2,4.5,4.5v20.3h2.3V11.9c0-3.7-3-6.8-6.8-6.8H12.4
		c-3.7,0-6.8,3-6.8,6.8v54.1c0,3.7,3,6.8,6.8,6.8h15.8v-2.3H12.4C9.9,70.6,7.9,68.6,7.9,66.1z"/>
	<path class="st0" d="M43.9,70.6h-2.3v2.3h2.3c1.5,0,2.9-0.5,4.1-1.4l-1.4-1.8C45.9,70.3,44.9,70.6,43.9,70.6z"/>
	<path class="st0" d="M22.5,64.9c0,1.9,1.5,3.4,3.4,3.4c0,0,0,0,0,0h2.3v-2.3h-2.3c-0.6,0-1.1-0.5-1.1-1.1s0.5-1.1,1.1-1.1h2.3v-2.3
		h-2.3C24,61.6,22.5,63.1,22.5,64.9C22.5,64.9,22.5,64.9,22.5,64.9z"/>
	<path class="st0" d="M20.3,9.7h2.3v2.3h-2.3V9.7z"/>
	<path class="st0" d="M24.8,9.7h6.8v2.3h-6.8V9.7z"/>
	<path class="st0" d="M12.4,30c0,6,8.9,16.1,9.3,16.5c0.4,0.5,1.1,0.5,1.6,0.1c0,0,0,0,0,0c0,0,0.1-0.1,0.1-0.1
		c0.4-0.4,9.3-10.5,9.3-16.5c0-5.6-4.5-10.2-10.2-10.2S12.4,24.4,12.4,30L12.4,30z M22.5,22.1c4.4,0,7.9,3.5,7.9,7.9
		c0,3.8-5.1,10.7-7.9,14.1c-2.8-3.3-7.9-10.2-7.9-14.1C14.6,25.6,18.2,22.1,22.5,22.1z"/>
	<path class="st0" d="M22.5,32.2c1.9,0,3.4-1.5,3.4-3.4c0-1.9-1.5-3.4-3.4-3.4c-1.9,0-3.4,1.5-3.4,3.4
		C19.1,30.7,20.6,32.2,22.5,32.2C22.5,32.2,22.5,32.2,22.5,32.2z M22.5,27.7c0.6,0,1.1,0.5,1.1,1.1S23.1,30,22.5,30
		c-0.6,0-1.1-0.5-1.1-1.1S21.9,27.7,22.5,27.7z"/>
</g>
</svg>
