<?xml version="1.0" encoding="utf-8"?>
<!-- Generator: Adobe Illustrator 21.0.0, SVG Export Plug-In . SVG Version: 6.00 Build 0)  -->
<svg version="1.1" id="Layer_1" xmlns="http://www.w3.org/2000/svg" xmlns:xlink="http://www.w3.org/1999/xlink" x="0px" y="0px"
	 viewBox="0 0 78 78" style="enable-background:new 0 0 78 78;" xml:space="preserve">
<style type="text/css">
	.st0{fill:#FFFFFF;}
</style>
<path class="st0" d="M71.3,27.1H38.4c-1.9,0-3.5,1.6-3.5,3.5v41.1c0,1.9,1.6,3.5,3.5,3.5h32.9c1.9,0,3.5-1.6,3.5-3.5V30.6
	C74.8,28.6,73.2,27.1,71.3,27.1z M72.4,71.7c0,0.6-0.5,1.2-1.2,1.2H38.4c-0.6,0-1.2-0.5-1.2-1.2V30.6c0-0.6,0.5-1.2,1.2-1.2h32.9
	c0.6,0,1.2,0.5,1.2,1.2V71.7z"/>
<path class="st0" d="M66.6,31.8H43.1c-2,0-3.5,1.6-3.5,3.5v3.5c0,1.9,1.6,3.5,3.5,3.5h23.5c1.9,0,3.5-1.6,3.5-3.5v-3.5
	C70.1,33.3,68.5,31.8,66.6,31.8z M67.7,38.8c0,0.6-0.5,1.2-1.2,1.2H43.1c-0.6,0-1.2-0.5-1.2-1.2v-3.5c0-0.6,0.5-1.2,1.2-1.2h23.5
	c0.6,0,1.2,0.5,1.2,1.2V38.8z"/>
<path class="st0" d="M46.6,44.7h-2.3c-1.3,0-2.3,1.1-2.3,2.3v2.4c0,1.3,1.1,2.3,2.3,2.3h2.3c1.3,0,2.4-1.1,2.4-2.3V47
	C48.9,45.8,47.9,44.7,46.6,44.7z M44.2,49.4V47h2.3v2.4H44.2z"/>
<path class="st0" d="M56,44.7h-2.3c-1.3,0-2.4,1.1-2.4,2.3v2.4c0,1.3,1.1,2.3,2.4,2.3H56c1.3,0,2.3-1.1,2.3-2.3V47
	C58.3,45.8,57.3,44.7,56,44.7z M53.6,49.4V47H56v2.4H53.6z"/>
<path class="st0" d="M65.4,44.7H63c-1.3,0-2.3,1.1-2.3,2.3v2.4c0,1.3,1.1,2.3,2.3,2.3h2.3c1.3,0,2.3-1.1,2.3-2.3V47
	C67.7,45.8,66.7,44.7,65.4,44.7z M63,49.4V47h2.3v2.4H63z"/>
<path class="st0" d="M46.6,54.1h-2.3c-1.3,0-2.3,1.1-2.3,2.4v2.3c0,1.3,1.1,2.4,2.3,2.4h2.3c1.3,0,2.4-1.1,2.4-2.4v-2.3
	C48.9,55.2,47.9,54.1,46.6,54.1z M44.2,58.8v-2.3h2.3v2.3H44.2z"/>
<path class="st0" d="M56,54.1h-2.3c-1.3,0-2.4,1.1-2.4,2.4v2.3c0,1.3,1.1,2.4,2.4,2.4H56c1.3,0,2.3-1.1,2.3-2.4v-2.3
	C58.3,55.2,57.3,54.1,56,54.1z M53.6,58.8v-2.3H56v2.3H53.6z"/>
<path class="st0" d="M65.4,54.1H63c-1.3,0-2.3,1.1-2.3,2.4v2.3c0,1.3,1.1,2.4,2.3,2.4h2.3c1.3,0,2.3-1.1,2.3-2.4v-2.3
	C67.7,55.2,66.7,54.1,65.4,54.1z M63,58.8v-2.3h2.3v2.3H63z"/>
<path class="st0" d="M46.6,63.5h-2.3c-1.3,0-2.3,1.1-2.3,2.3v2.3c0,1.3,1.1,2.4,2.3,2.4h2.3c1.3,0,2.4-1.1,2.4-2.4v-2.3
	C48.9,64.6,47.9,63.5,46.6,63.5z M44.2,68.2v-2.3h2.3v2.3H44.2z"/>
<path class="st0" d="M56,63.5h-2.3c-1.3,0-2.4,1.1-2.4,2.3v2.3c0,1.3,1.1,2.4,2.4,2.4H56c1.3,0,2.3-1.1,2.3-2.4v-2.3
	C58.3,64.6,57.3,63.5,56,63.5z M53.6,68.2v-2.3H56v2.3H53.6z"/>
<path class="st0" d="M65.4,63.5H63c-1.3,0-2.3,1.1-2.3,2.3v2.3c0,1.3,1.1,2.4,2.3,2.4h2.3c1.3,0,2.3-1.1,2.3-2.4v-2.3
	C67.7,64.6,66.7,63.5,65.4,63.5z M63,68.2v-2.3h2.3v2.3H63z"/>
<path class="st0" d="M6.6,69.4V21.2h10.6c1.9,0,3.5-1.6,3.5-3.5V7.1h29.4c0.6,0,1.2,0.5,1.2,1.2v16.5h2.4V8.3c0-1.9-1.6-3.5-3.5-3.5
	H20.5c-0.9,0-1.8,0.4-2.5,1L5.3,18.5c-0.7,0.7-1,1.6-1,2.5v48.4c0,1.9,1.6,3.5,3.5,3.5h24.7v-2.3H7.8C7.2,70.6,6.6,70,6.6,69.4z
	 M18.4,8.8v8.9c0,0.6-0.5,1.2-1.2,1.2H8.3L18.4,8.8z"/>
<path class="st0" d="M30.1,34.1c0-5.2-4.2-9.4-9.4-9.4s-9.4,4.2-9.4,9.4s4.2,9.4,9.4,9.4S30.1,39.3,30.1,34.1z M19.6,27.2v4.6
	c0,0.6-0.5,1.2-1.2,1.2h-4.6C14.3,30,16.6,27.7,19.6,27.2z M20.7,41.2c-3.4,0-6.4-2.5-6.9-5.9h4.6c1.9,0,3.5-1.6,3.5-3.5v-4.6
	c3.6,0.6,6.2,3.9,5.8,7.5C27.4,38.4,24.4,41.2,20.7,41.2z"/>
<path class="st0" d="M29.5,17.7c1,0,1.8-0.8,1.8-1.8v-3.5c0-1-0.8-1.8-1.8-1.8H26c-1,0-1.8,0.8-1.8,1.8v3.5c0,1,0.8,1.8,1.8,1.8
	H29.5z M26.6,13H29v2.3h-2.4V13z"/>
<path class="st0" d="M33.7,10.6H36V13h-2.4V10.6z"/>
<path class="st0" d="M38.4,10.6h10.6V13H38.4V10.6z"/>
<path class="st0" d="M33.7,15.3H36v2.3h-2.4V15.3z"/>
<path class="st0" d="M38.4,15.3h10.6v2.3H38.4V15.3z"/>
<path class="st0" d="M24.3,20h2.4v2.4h-2.4V20z"/>
<path class="st0" d="M29,20h15.3v2.4H29V20z"/>
<path class="st0" d="M46.6,20h2.4v2.4h-2.4V20z"/>
<path class="st0" d="M30.7,45.9h-3.5c-1,0-1.8,0.8-1.8,1.8v3.5c0,1,0.8,1.8,1.8,1.8h3.5c1,0,1.8-0.8,1.8-1.8v-3.5
	C32.5,46.7,31.7,45.9,30.7,45.9z M30.1,50.6h-2.4v-2.4h2.4V50.6z"/>
<path class="st0" d="M20.7,45.9h2.4v2.3h-2.4V45.9z"/>
<path class="st0" d="M9,45.9h9.4v2.3H9V45.9z"/>
<path class="st0" d="M20.7,50.6h2.4v2.3h-2.4V50.6z"/>
<path class="st0" d="M9,50.6h9.4v2.3H9V50.6z"/>
<path class="st0" d="M9,65.3c0,1,0.8,1.8,1.8,1.8h3.5c1,0,1.8-0.8,1.8-1.8v-3.5c0-1-0.8-1.8-1.8-1.8h-3.5c-1,0-1.8,0.8-1.8,1.8V65.3
	z M11.3,62.3h2.4v2.4h-2.4V62.3z"/>
<path class="st0" d="M18.4,60h2.4v2.4h-2.4V60z"/>
<path class="st0" d="M23.1,60h9.4v2.4h-9.4V60z"/>
<path class="st0" d="M18.4,64.7h2.4V67h-2.4V64.7z"/>
<path class="st0" d="M23.1,64.7h9.4V67h-9.4V64.7z"/>
<path class="st0" d="M30.1,55.3h2.4v2.3h-2.4V55.3z"/>
<path class="st0" d="M13.7,55.3h14.1v2.3H13.7V55.3z"/>
<path class="st0" d="M9,55.3h2.3v2.3H9V55.3z"/>
</svg>
