<?xml version="1.0" encoding="utf-8"?>
<!-- Generator: Adobe Illustrator 23.0.3, SVG Export Plug-In . SVG Version: 6.00 Build 0)  -->
<svg version="1.1" id="Layer_1" xmlns="http://www.w3.org/2000/svg" xmlns:xlink="http://www.w3.org/1999/xlink" x="0px" y="0px"
	 viewBox="0 0 225 116.2" style="enable-background:new 0 0 225 116.2;" xml:space="preserve">
<style type="text/css">
	.st0{fill:#07319B;}
	.st1{fill:#4895D1;}
	.st2{fill:#70B3E3;}
	.st3{fill:#FFFFFF;}
	.st4{fill:#2F5AC8;}
	.st5{fill:#092978;}
	.st6{fill:#6EB0EF;}
	.st7{fill:#FF5C97;}
	.st8{fill:#154282;}
	.st9{fill:#143C6D;}
	.st10{fill:#F6FBFF;}
	.st11{fill:#072F91;}
	.st12{fill:#D8E7FF;}
	.st13{fill:#038DCA;}
	.st14{opacity:6.000000e-02;fill:#FFFFFF;enable-background:new    ;}
	.st15{fill:#4EB3FA;}
	.st16{fill:#663300;}
	.st17{fill:#000446;}
	.st18{fill:#1C5175;}
	.st19{fill:#F4B1B1;}
	.st20{fill:#ED8082;}
	.st21{fill:#0B1B3B;}
	.st22{fill:#123B6D;}
	.st23{opacity:4.000000e-02;fill:#FFFFFF;enable-background:new    ;}
</style>
<g>
	<path class="st0" d="M3.3,112.8h218.2c0.2,0,0.3,0.2,0.3,0.3l0,0c0,0.2-0.2,0.3-0.3,0.3H3.3c-0.2,0-0.3-0.2-0.3-0.3l0,0
		C3,113,3.1,112.8,3.3,112.8"/>
	<g>
		<rect x="122" y="53.2" class="st1" width="43.3" height="59.8"/>
		<polygon class="st2" points="122,113.1 122,53.2 165.3,53.2 		"/>
		<rect x="124.9" y="56.6" class="st3" width="37.7" height="51.9"/>
		<path class="st4" d="M144.2,50.7c-0.7,0-1.2,0.5-1.2,1.2s0.5,1.2,1.2,1.2s1.2-0.5,1.2-1.2C145.4,51.3,144.9,50.7,144.2,50.7
			 M140.7,52c0.4-1.2,1.6-2.3,3.5-2.3s3.1,1,3.5,2.3c2.3,0,6.1,1.7,6.6,4.3v1.4h-10h-10v-1.4C134.6,53.6,138.4,52,140.7,52z"/>
		<rect x="134.2" y="56.3" class="st5" width="20.1" height="1.4"/>
		<path class="st6" d="M136,64.1h-5.7c-0.4,0-0.7,0.1-0.9,0.4c-0.2,0.2-0.4,0.6-0.4,0.9v5.7c0,0.4,0.1,0.7,0.4,0.9
			c0.2,0.2,0.6,0.4,0.9,0.4h5.7c0.4,0,0.7-0.1,0.9-0.4c0.2-0.2,0.4-0.6,0.4-0.9v-5.7c0-0.4-0.1-0.7-0.4-0.9
			C136.6,64.3,136.3,64.1,136,64.1 M130.3,63.6h5.7c0.5,0,1,0.2,1.3,0.5c0.3,0.3,0.5,0.8,0.5,1.3v5.7c0,0.5-0.2,1-0.5,1.3
			s-0.8,0.5-1.3,0.5h-5.7c-0.5,0-1-0.2-1.3-0.5s-0.5-0.8-0.5-1.3v-5.7c0-0.5,0.2-1,0.5-1.3l0,0C129.4,63.8,129.8,63.6,130.3,63.6z"
			/>
		<path class="st7" d="M130.3,68.3c-0.3-0.3-0.3-0.7,0-1s0.7-0.3,1,0c0.4,0.4,1.3,1.5,1.9,2.1l5.2-5.2c0.3-0.3,0.7-0.3,1,0
			c0.3,0.3,0.3,0.7,0,1l-5.7,5.7l0,0l0,0c-0.3,0.2-0.7,0.2-1-0.1C132.5,70.9,130.9,68.9,130.3,68.3"/>
		<path class="st6" d="M136,78.2h-5.7c-0.4,0-0.7,0.1-0.9,0.4c-0.2,0.2-0.4,0.6-0.4,0.9v5.7c0,0.4,0.1,0.7,0.4,0.9
			c0.2,0.2,0.6,0.4,0.9,0.4h5.7c0.4,0,0.7-0.1,0.9-0.4c0.2-0.2,0.4-0.6,0.4-0.9v-5.7c0-0.4-0.1-0.7-0.4-0.9
			C136.6,78.4,136.3,78.2,136,78.2 M130.3,77.7h5.7c0.5,0,1,0.2,1.3,0.5s0.5,0.8,0.5,1.3v5.7c0,0.5-0.2,1-0.5,1.3S136.5,87,136,87
			h-5.7c-0.5,0-1-0.2-1.3-0.5s-0.5-0.8-0.5-1.3v-5.7c0-0.5,0.2-1,0.5-1.3l0,0C129.4,77.9,129.8,77.7,130.3,77.7z"/>
		<path class="st6" d="M136,92.5h-5.7c-0.4,0-0.7,0.1-0.9,0.4c-0.2,0.2-0.4,0.6-0.4,0.9v5.7c0,0.4,0.1,0.7,0.4,0.9
			c0.2,0.2,0.6,0.4,0.9,0.4h5.7c0.4,0,0.7-0.1,0.9-0.4c0.2-0.2,0.4-0.6,0.4-0.9v-5.7c0-0.4-0.1-0.7-0.4-0.9S136.3,92.5,136,92.5
			 M130.3,92h5.7c0.5,0,1,0.2,1.3,0.5s0.5,0.8,0.5,1.3v5.7c0,0.5-0.2,1-0.5,1.3s-0.8,0.5-1.3,0.5h-5.7c-0.5,0-1-0.2-1.3-0.5
			s-0.5-0.8-0.5-1.3v-5.7c0-0.5,0.2-1,0.5-1.3l0,0C129.4,92.2,129.8,92,130.3,92z"/>
		<path class="st7" d="M130.3,82.4c-0.3-0.3-0.3-0.7,0-1s0.7-0.3,1,0c0.4,0.4,1.3,1.5,1.9,2.1l5.2-5.2c0.3-0.3,0.7-0.3,1,0
			s0.3,0.7,0,1l-5.7,5.7l0,0l0,0c-0.3,0.2-0.7,0.2-1-0.1C132.5,85,130.9,83.1,130.3,82.4"/>
		<path class="st7" d="M130.3,96.7c-0.3-0.3-0.3-0.7,0-1s0.7-0.3,1,0c0.4,0.4,1.3,1.5,1.9,2.1l5.2-5.2c0.3-0.3,0.7-0.3,1,0
			s0.3,0.7,0,1l-5.7,5.7l0,0l0,0c-0.3,0.2-0.7,0.2-1-0.1C132.5,99.3,130.9,97.4,130.3,96.7"/>
		<path class="st6" d="M143.6,70.4h14.8c0.4,0,0.7,0.3,0.7,0.6c0,0.3-0.3,0.6-0.7,0.6h-14.8c-0.4,0-0.7-0.3-0.7-0.6
			C142.9,70.6,143.2,70.4,143.6,70.4 M143.6,65.2h5.7c0.4,0,0.7,0.3,0.7,0.6c0,0.3-0.3,0.6-0.7,0.6h-5.7c-0.4,0-0.7-0.3-0.7-0.6
			C142.9,65.4,143.2,65.2,143.6,65.2z M143.6,67.8h14.8c0.4,0,0.7,0.3,0.7,0.6c0,0.3-0.3,0.6-0.7,0.6h-14.8c-0.4,0-0.7-0.3-0.7-0.6
			C142.9,68,143.2,67.8,143.6,67.8z"/>
		<path class="st6" d="M143.6,84.2h14.8c0.4,0,0.7,0.3,0.7,0.6c0,0.3-0.3,0.6-0.7,0.6h-14.8c-0.4,0-0.7-0.3-0.7-0.6
			C142.9,84.5,143.2,84.2,143.6,84.2 M143.6,79h5.7c0.4,0,0.7,0.3,0.7,0.6s-0.3,0.6-0.7,0.6h-5.7c-0.4,0-0.7-0.3-0.7-0.6
			S143.2,79,143.6,79z M143.6,81.6h14.8c0.4,0,0.7,0.3,0.7,0.6s-0.3,0.6-0.7,0.6h-14.8c-0.4,0-0.7-0.3-0.7-0.6
			S143.2,81.6,143.6,81.6z"/>
		<path class="st6" d="M143.6,98.3h14.8c0.4,0,0.7,0.3,0.7,0.6c0,0.3-0.3,0.6-0.7,0.6h-14.8c-0.4,0-0.7-0.3-0.7-0.6
			C142.9,98.6,143.2,98.3,143.6,98.3 M143.6,93.1h5.7c0.4,0,0.7,0.3,0.7,0.6c0,0.3-0.3,0.6-0.7,0.6h-5.7c-0.4,0-0.7-0.3-0.7-0.6
			C142.9,93.4,143.2,93.1,143.6,93.1z M143.6,95.7h14.8c0.4,0,0.7,0.3,0.7,0.6c0,0.3-0.3,0.6-0.7,0.6h-14.8c-0.4,0-0.7-0.3-0.7-0.6
			C142.9,96,143.2,95.7,143.6,95.7z"/>
		<polygon class="st8" points="69.2,96.7 85.9,96.7 88.7,109 72,109 		"/>
		<path class="st9" d="M39.6,37.1h81.5c2.9,0,5.2,2.4,5.2,5.2v49.2c0,2.9-2.4,5.2-5.2,5.2H39.6c-2.9,0-5.2-2.4-5.2-5.2V42.3
			C34.4,39.4,36.7,37.1,39.6,37.1"/>
		<path class="st8" d="M36.2,37.1h81.5c2.9,0,5.2,2.4,5.2,5.2v49.2c0,2.9-2.4,5.2-5.2,5.2H36.2c-2.9,0-5.2-2.4-5.2-5.2V42.3
			C30.9,39.4,33.3,37.1,36.2,37.1"/>
		<path class="st10" d="M36.1,42.2h81.5c0.1,0,0.1,0.1,0.1,0.1v49.2c0,0.1-0.1,0.1-0.1,0.1H36.1c-0.1,0-0.1-0.1-0.1-0.1L36.1,42.2
			C36,42.2,36.1,42.2,36.1,42.2"/>
		<polygon class="st9" points="67.9,96.7 84,96.7 86.6,109 70.6,109 		"/>
		<rect x="35.9" y="42.2" class="st11" width="1.3" height="49.5"/>
		<path class="st12" d="M75.4,92.6c0.9,0,1.7,0.7,1.7,1.7c0,0.9-0.7,1.7-1.7,1.7s-1.7-0.7-1.7-1.7C73.7,93.3,74.5,92.6,75.4,92.6"/>
		<rect x="39.6" y="79.4" class="st13" width="35.6" height="10.2"/>
		<rect x="79.1" y="79.4" class="st13" width="35.6" height="10.2"/>
		<path class="st9" d="M66.1,108.9h22.6v2.2c0,1.2-1,2.2-2.2,2.2H63.9v-2.2C63.9,109.9,64.9,108.9,66.1,108.9"/>
		<path class="st8" d="M64.7,108.9h17.5v2.2c0,1.2-0.9,2.2-2,2.2H62.7v-2.2C62.7,109.9,63.6,108.9,64.7,108.9"/>
		<rect x="82.3" y="81.3" class="st12" width="15.6" height="1.3"/>
		<rect x="82.3" y="85.6" class="st12" width="29.4" height="1.3"/>
		<rect x="42.6" y="81.3" class="st12" width="15.6" height="1.3"/>
		<rect x="42.6" y="85.6" class="st12" width="29.4" height="1.3"/>
		<path class="st14" d="M64.2,109.8h16.2c0.3,0,0.6,0.3,0.6,0.6c0,0.3-0.3,0.6-0.6,0.6H64.2c-0.3,0-0.6-0.3-0.6-0.6
			C63.6,110,63.9,109.8,64.2,109.8"/>
		<g>
			<path class="st7" d="M42.8,59.8l4.8-3.2v5.7C45.6,62.4,43.9,61.4,42.8,59.8"/>
			<path class="st13" d="M47.6,62.3v-5.7l2.1,5.3C49.1,62.1,48.4,62.3,47.6,62.3"/>
			<path class="st13" d="M47.6,56.6v-5.7c3.2,0,5.7,2.6,5.7,5.7c0,2.4-1.5,4.5-3.6,5.3L47.6,56.6z"/>
			<path class="st8" d="M47.6,50.9v5.7l-4.8,3.2c-0.6-0.9-1-2-1-3.2C41.9,53.5,44.4,50.9,47.6,50.9"/>
		</g>
		<g>
			<path class="st7" d="M42.8,73.4l4.8-3.2v5.7C45.6,76,44,75,42.8,73.4"/>
			<path class="st13" d="M47.6,75.9v-5.7l2.1,5.3C49.1,75.7,48.5,75.9,47.6,75.9"/>
			<path class="st13" d="M47.6,70.2v-5.7c3.2,0,5.7,2.6,5.7,5.7c0,2.4-1.5,4.5-3.6,5.3L47.6,70.2z"/>
			<path class="st8" d="M47.6,64.5v5.7l-4.8,3.2c-0.6-0.9-1-2-1-3.2C42,67.1,44.5,64.5,47.6,64.5"/>
		</g>
		<path class="st13" d="M108.8,75.9h-2.9V62.3h2.9V75.9z M103.5,75.9h-2.9V60.8h2.9V75.9z M98.3,75.9h-2.9V65.2h2.9V75.9z M114,75.9
			h-3v-17h2.9L114,75.9L114,75.9z"/>
		<g>
			<path class="st8" d="M78,77.7c-0.3-0.2-3.7-2.8-4.1-3.1C59.3,64.3,50,44.5,51.4,26.2l0.3-4.4L56,21c7.4-1.2,12.8-3.5,19.3-7.4
				L78,12l2.7,1.6c6.5,3.8,11.9,6.1,19.3,7.4l4.2,0.7l0.3,4.4c1.4,18.8-8.3,39.1-23.5,49.2L78,77.7z"/>
			<path class="st3" d="M77.9,17.7C70.4,22.1,64.4,24.6,56,26c-1.4,17.8,8.2,36.6,21.9,45.7c13.6-9,23.2-27.9,21.9-45.7
				C91.3,24.5,85.4,22.1,77.9,17.7"/>
			<path class="st13" d="M57.5,27.3c-0.3,6.8,0.9,13.6,3.4,19.8C64.3,56,70.3,64.4,78,69.8c7.7-5.4,13.7-13.8,17.1-22.7
				c2.4-6.3,3.7-13.1,3.4-19.8c-3.5-0.7-7-1.6-10.4-2.9c-3.5-1.4-6.9-3.1-10.1-5c-3.4,2-6.9,3.8-10.7,5.2
				C64.1,25.8,60.8,26.7,57.5,27.3"/>
			<path class="st13" d="M57.5,27.3c-0.3,6.8,0.9,13.6,3.4,19.8C64.3,56,70.3,64.4,78,69.8l0,0V19.4c-3.4,2-6.9,3.8-10.7,5.2
				C64.1,25.8,60.8,26.7,57.5,27.3"/>
			<path class="st3" d="M83.1,38c1.1,0.1,2,1.1,2,2.3v8.4c0,1.3-1,2.3-2.2,2.3h-10c-1.2,0-2.2-1.1-2.2-2.3v-8.4
				c0-1.2,0.8-2.1,1.9-2.3v-2l0,0c0.1-2.9,2.5-5.2,5.3-5.2s5.2,2.3,5.3,5.2l0,0c0,0.1,0,0.2,0,0.2c0,0.1,0,0.1,0,0.2V38H83.1z
				 M77.9,40.5c1.2,0,2.3,1.1,2.3,2.4c0,0.9-0.5,1.7-1.2,2.1v3.9h-2.1V45c-0.7-0.4-1.2-1.2-1.2-2.1C75.6,41.5,76.6,40.5,77.9,40.5z
				 M74.5,38h6.7v-1.6c0-0.1,0-0.1,0-0.2c0-0.1,0-0.1,0-0.2l0,0l0,0c-0.1-1.8-1.6-3.3-3.4-3.3s-3.3,1.4-3.4,3.3v0.2V38H74.5z"/>
		</g>
		<path class="st15" d="M176.1,4.2h-13.9c-3.1,0-5.7,2.5-5.7,5.7v3.8c0,3.1,2.5,5.7,5.7,5.7H173l3,2.8v-2.8c3.1,0,5.7-2.5,5.7-5.7
			V9.9C181.8,6.8,179.3,4.2,176.1,4.2"/>
		<path class="st3" d="M175,10.9c-0.7,0-1.3,0.6-1.3,1.3s0.6,1.3,1.3,1.3s1.3-0.6,1.3-1.3S175.7,10.9,175,10.9"/>
		<path class="st3" d="M169.2,10.9c-0.7,0-1.3,0.6-1.3,1.3s0.6,1.3,1.3,1.3s1.3-0.6,1.3-1.3S169.9,10.9,169.2,10.9"/>
		<path class="st3" d="M163.4,10.9c-0.7,0-1.3,0.6-1.3,1.3s0.6,1.3,1.3,1.3s1.3-0.6,1.3-1.3S164.1,10.9,163.4,10.9"/>
		<path class="st13" d="M177,45.3c-1.5,3.3-3.4,6.4-7.7,7.1c-3.3,0-14.9-4.2-15.4-7.3s1.6-3.2,1.6-3.2s11.4,3.9,12.3,3.6
			c0.7-0.2,4.1-3.5,6.2-5.4C174.4,39.7,177.6,43.9,177,45.3"/>
		<path class="st16" d="M169,112.5h10.7c0.5,0,0.9-0.4,1-0.9c0-0.1,0-0.1,0-0.2l-0.4-5.6c0,0-0.4-0.2-1.1-0.4
			c-0.4-0.1-0.7-0.4-0.8-0.7v-0.1c-0.2-1.1-1.8-1.4-2.1-0.4c0,0.1-0.1,0.3-0.1,0.4v0.1c0,0.2-0.1,0.4-0.1,0.6l0,0
			c-0.1,0.5-0.1,0.8-0.1,0.8c-0.1,0.2-0.3,0.4-0.4,0.5c-0.1,0.1-0.1,0.2-0.2,0.3c-0.1,0.2-0.3,0.4-0.4,0.5c-0.1,0.1-0.1,0.2-0.2,0.2
			c-0.1,0.2-0.3,0.4-0.4,0.5c-0.1,0.1-0.1,0.1-0.2,0.2c-0.5,0.6-1.1,1-1.8,1.1c-1.2,0.2-3,0.3-4,2v0.1
			C168.2,112.1,168.5,112.5,169,112.5"/>
		<path class="st17" d="M169,112.5h10.7c0.5,0,0.9-0.4,1-0.9h-12.3C168.2,112.1,168.5,112.5,169,112.5"/>
		<path class="st13" d="M178.1,38.5h8.1c2,0,4.8,1,6,2.4c1.7,2,1.1,25.3,0.6,28.4l-0.6,0.4c0,12.5,1.7,25.3,1,37.2l-4.9,0.1
			l-6.2-31.6l-3.2-5.5l-5.1-0.4l-1.4-0.2l1.5-29.3C175.1,39.2,176.5,38.5,178.1,38.5"/>
		<path class="st18" d="M178.1,38.5h1.3l0.2,2l1.1,18.3l-4.6-14.5l1.5-1.5l-1.1-1.1l1.1-3.1C177.8,38.5,178,38.5,178.1,38.5"/>
		<path class="st13" d="M187.3,45.9c-0.8-1.7-0.2-5,1.5-5.7c0.5-0.2,1.4-0.6,2.3-0.2c6.2,3.5,13.3,34.7,5.4,31.5
			c-1-0.3-2.3-7.5-4.3-14.2C190.5,51.8,188,47.4,187.3,45.9"/>
		<path class="st18" d="M184.7,38.5l-0.4,1.8l-3.5,18.5l6.4-14.3l-1.3-1.7l1.3-1l-0.8-3.3C186,38.5,185.1,38.5,184.7,38.5"/>
		<path class="st3" d="M178.9,38.5c-0.5,4,1.4,15.9,1.9,20.3c0.1-0.3,3.9-17.2,4.3-20.3h-3.7C180.6,38.5,179.6,38.4,178.9,38.5"/>
		<path class="st19" d="M176.8,34.5c-0.3,1.9,1.9,3.3,3.4,3.2v0.9l-0.1,0.1c-0.5,1.3,0.9,2.2,1.4,2.7c0.4-0.3,2.8-1,2.9-2.8h-0.1
			v-3.3c0.1,0,0.2-0.1,0.3-0.1c0.3-0.2,0.5-0.7,0.4-1.2s-0.8-0.2-0.8-0.2l0,0c0.6-1.5,1.4-2.8-0.2-3.6c-1.6-0.8-4.7-0.8-4.7-0.8
			l-1.9-0.2C177.9,30.1,176.9,33.3,176.8,34.5"/>
		<path class="st20" d="M182.9,36.3c-0.7,1.8-1.3,2.4-2.8,2.6v-1.2C180.7,37.7,182.1,37.2,182.9,36.3"/>
		<polygon class="st13" points="173.3,68.5 183.1,68.4 181.3,107.2 175.1,107.2 		"/>
		<path class="st16" d="M186.6,111.9c0.1,1.6,5.6,1,6.5,0.6c0.3-0.2,0.5-0.5,0.5-0.9c0-0.7-0.2-1.5-0.4-2.2
			c-0.4-1.1-0.3-1.1-0.5-1.8c0,0,0.1-1.2-1.7-1.7s-2.5,2.6-2.8,3.1s-1.4,1.3-1.5,2.6C186.6,111.6,186.6,111.8,186.6,111.9"/>
		<path class="st17" d="M186.7,112.4c0.1,1,5.5,0.9,6.4,0.4c0.3-0.2,0.5-0.9,0.5-1.3c-0.6,0.3-1.6,0.7-3.1,0.7
			c-1.9,0-3.2-0.3-3.9-0.7C186.6,111.7,186.7,112.3,186.7,112.4"/>
		<path class="st21" d="M182.9,31.3c0.6,0.5,0.6,1.2,0.2,2.6c-0.1,0.4-0.3,0.7,0.3,0.3c0.3-0.2,0.8-0.4,0.9-0.3
			c0.4,0.3,0.3,0.9,0,1.2c-0.1,0.1-0.4,0.3-0.4,0.3s0.8,0.2,1.5-0.4c0.7-0.6,2.9-2.5,2.5-5c-0.6-3.4-4.5-3.9-6.9-5.4
			c-0.7-0.5-1.4-1-1.5-1c-2.6,0.1-4.4,2.8-3.5,5C177.3,31.4,181.4,29.9,182.9,31.3"/>
		<path class="st5" d="M195.4,74.9c0,0-0.1-2.1,0.5-2.3c0.6-0.2,2.8,0,2.8,0s0.6,0.1,0.6,0.9s0,1.4,0,1.4h-0.7c0,0,0.1-1.1-0.1-1.3
			c-0.1-0.2-2.2-0.1-2.2-0.1s-0.3,0-0.3,0.6s0,0.8,0,0.8H195.4z"/>
		<rect x="188" y="74.5" class="st22" width="5" height="20.4"/>
		<polygon class="st8" points="192.8,74.5 204.3,74.8 204.3,94.9 192.8,94.9 		"/>
		<path class="st23" d="M204,74.8h0.1l0.2,1.8v18.3h-11.5v-6.2C199.2,98.5,203.3,83.4,204,74.8"/>
		<path class="st19" d="M195.7,72.9c0.1,0,0.4-0.7,0.4-0.5l-0.4,1.9c0,0,0.5,0.2,0.8-0.1c0.3-0.3,0.3-0.3,0.3-0.3l-0.1,0.7
			c0,0,0.3,0.2,0.5-0.1c0.2-0.2,0.4-0.1,0.4-0.1l0.2,0.4c0.5,0,0.5-0.7,0.8-0.2c0.2,0.3,0.3,0.3,0.5-0.1c0.1-0.4,0.1-0.9,0.2-1
			c0.1-0.9,0-2.4-0.6-2.8c-0.3-0.3-1.7-0.2-2.1,0C196.4,70.7,194.6,72.4,195.7,72.9"/>
		<path class="st7" d="M179.8,51.1c0.4,3,0.8,6.1,1,7.8c0.7-2.6,1.3-5.5,1.8-8.1l-0.7-7.1l0.5-1.1l-1-1.1l-1,1.1l0.5,1.1L179.8,51.1
			z"/>
		<rect x="186.3" y="48.8" class="st18" width="3.5" height="0.7"/>
		<path class="st19" d="M154.5,42c-0.1-0.4-0.6-2.2-1-2.5c-0.2-0.1-0.2-0.1-0.3,0s-0.1,0.3-0.1,0.5c0.1,0.3-0.1,0.7,0,0.9
			c-1.9,0.8-3.8-1.5-4.3-0.6c0.1,0.9,0,2.9,5.3,4.7c0.3-0.2,0.9-1.1,1-2.1L154.5,42z"/>
	</g>
</g>
</svg>
