<?xml version="1.0" encoding="utf-8"?>
<!-- Generator: Adobe Illustrator 21.0.0, SVG Export Plug-In . SVG Version: 6.00 Build 0)  -->
<svg version="1.1" id="Layer_1" xmlns="http://www.w3.org/2000/svg" xmlns:xlink="http://www.w3.org/1999/xlink" x="0px" y="0px"
	 viewBox="0 0 225 232.7" style="enable-background:new 0 0 225 232.7;" xml:space="preserve">
<style type="text/css">
	.st0{fill:#154284;}
	.st1{fill:#07345A;}
	.st2{fill:#FD5C95;}
	.st3{fill:#355389;}
	.st4{fill:#038DCA;}
	.st5{fill:#5184CE;}
	.st6{fill:#1D58A0;}
	.st7{fill:#184655;}
	.st8{fill:#FFFFFF;}
	.st9{opacity:0.6;fill:#9BC1F9;enable-background:new    ;}
	.st10{opacity:0.3;fill:#9BC1F9;enable-background:new    ;}
	.st11{fill:#FF8FBD;}
	.st12{fill:#9BC1F9;}
	.st13{fill:#11345E;}
	.st14{fill:#FDC0AE;}
	.st15{fill:#323441;}
	.st16{fill:#F7A491;}
	.st17{fill:#25468F;}
	.st18{fill:#F47458;}
	.st19{opacity:0.5;fill:#F47458;enable-background:new    ;}
	.st20{fill:#057CA5;}
	.st21{opacity:0.6;fill:#C5DDF9;enable-background:new    ;}
</style>
<path class="st0" d="M13.8,46l1-1.7l-0.9-1.7c-0.1-0.2,0.1-0.4,0.3-0.4l1.9,0.3l1.4-1.4c0.1-0.1,0.4-0.1,0.4,0.1l0.2,2l1.7,0.9
	c0.2,0.1,0.2,0.4,0,0.4l-1.9,1.1l-0.3,2c0,0.2-0.3,0.3-0.4,0.1L16,46.1l-2,0.3C13.8,46.4,13.7,46.2,13.8,46z"/>
<path class="st1" d="M115.3,54l0.8-1.3l-0.7-0.2c-0.1-0.1-0.2-0.2-0.1-0.3l0,0c0.1-0.1,0.2-0.2,0.3-0.1l0.8,0.3l0.8-1.2l-0.7-0.3
	c-0.1-0.1-0.2-0.2-0.1-0.3l0,0c0.1-0.1,0.2-0.2,0.3-0.1l0.8,0.3l0.9-1.3c0.1-0.1,0.2-0.1,0.3-0.1h0.1c0.1,0.1,0.2,0.2,0.1,0.4
	l-0.8,1.2l1.1,0.4l0.9-1.3c0.1-0.1,0.2-0.1,0.3-0.1h0.1c0.1,0.1,0.2,0.2,0.1,0.4l-0.8,1.2l0.7,0.2c0.1,0.1,0.2,0.2,0.1,0.3l0,0
	c-0.1,0.1-0.2,0.2-0.3,0.1l-0.8-0.3l-0.7,1.2l0.7,0.3c0.1,0.1,0.2,0.2,0.1,0.3l0,0c-0.1,0.1-0.2,0.2-0.3,0.1l-0.8-0.3l-0.9,1.4
	c-0.1,0.1-0.2,0.1-0.3,0.1l-0.1-0.1c-0.1-0.1-0.2-0.2-0.1-0.4l0.8-1.3l-1.1-0.4l-0.9,1.4c-0.1,0.1-0.2,0.1-0.3,0.1l-0.1-0.1
	C115.3,54.4,115.1,54.1,115.3,54z M118.1,52.9l0.8-1.2l-1.1-0.4l-0.7,1.2L118.1,52.9z"/>
<path class="st2" d="M110.1,76.5l-1.1,5.7c0.1,0.3,0.3,0.3,1.1,0.5c1.2,0.3,2.5,0.7,3.7,1.1c0.2,0.1,0.4,0.3,0.4,0.5
	c0.2,1.2,0.4,2.5,0.8,3.7c0.1,0.3,0.1,0.5-0.2,0.9c-1.3,1-2.5,2.1-3.8,3.1c0.4,1.4,2.5,4.5,3.5,5.2c1.3-0.8,2.7-1.5,4.1-2.3
	c0.4-0.2,0.7-0.2,1.1,0.1c1,0.8,2,1.4,3.1,2c0.4,0.2,0.7,0.4,0.5,1c-0.2,1.4-0.2,2.8-0.4,4.3c0,0.3,0,0.7,0.4,0.7
	c1.7,0.3,3.6,0.7,5.3,1.1c0.4,0.1,0.4-0.2,0.5-0.5c0.4-1.3,0.8-2.6,1.2-4c0.1-0.5,0.3-0.7,0.9-0.8c1.4-0.2,2.7-0.4,4.3-0.8
	c1,1.2,2.2,2.6,3.3,4c2-0.9,3.6-2.1,5.2-3.6c-0.9-1.5-1.7-3.2-2.5-4.5c0.9-1.4,1.7-2.7,2.5-4c0.2-0.4,0.4-0.4,0.9-0.4
	c1.4,0.1,2.8,0.2,4.1,0.4c0.3,0,0.5,0,0.7-0.3c0.5-1.7,1-3.5,1.1-5.2c0-0.4-0.1-0.5-0.5-0.7c-1.4-0.4-2.7-0.9-4.1-1.2
	c-0.3-0.1-0.4-0.2-0.5-0.7c-0.2-1.3-0.5-2.7-0.9-4c-0.1-0.3,0-0.4,0.2-0.7c1.3-1.1,2.5-2.1,3.8-3.2c-0.9-1.9-2-3.6-3.5-5.2
	c-1.6,0.9-3.2,1.7-4.7,2.5c-1.4-1-2.8-1.9-4.4-2.9c0.1-1.2,0.2-2.7,0.3-4.1c0.1-1.2,0.3-1.1-1-1.4c-0.1,0-0.2-0.1-0.3-0.2
	c-1.1-0.2-2.2-0.4-3.2-0.7c-0.2,0-0.5,0-0.8,0c-0.7-0.1-1,0-1.1,0.7c-0.3,1.4-0.8,2.7-1.2,4.1c-0.1,0.2-0.3,0.3-0.4,0.4
	c-1.2,0.3-2.4,0.4-3.6,0.8c-0.5,0.2-0.9,0-1.2-0.4c-1-1.2-2-2.4-3.1-3.7c-1.7,1.2-3.5,2.3-5.2,3.5c0.2,0.3,0.3,0.5,0.4,0.8
	c0.7,1.2,1.3,2.5,2.1,3.7c0.2,0.3,0.1,0.5-0.1,0.9c-0.8,1.1-1.4,2.3-2.2,3.4c-0.1,0.2-0.4,0.3-0.7,0.3c-1.2-0.1-2.3-0.2-3.5-0.3
	C110.8,76.2,110.3,76.2,110.1,76.5z M120.7,81.3c1-5.1,5.9-8.5,11-7.5l0,0c5.1,1,8.5,5.9,7.5,11l0,0c-1,5.1-5.9,8.5-11,7.5l0,0
	C123.1,91.3,119.8,86.3,120.7,81.3L120.7,81.3z"/>
<polygon class="st3" points="72.8,45.2 76.2,45.5 74.8,42.9 "/>
<g>
	<path class="st2" d="M85.2,74.3c-0.1,1.1,0.9,2.2,2,2.4c1.1,0.2,2.2-0.5,2.5-1.5c0.8-2.1-1.5-3.7-2.7-2.4c-1.1,1.2-0.8,2.8,0.4,2.8
		c0.4,0,1.2-0.4,0.9-1c-0.1-0.1-0.2-0.1-0.3,0c-0.1,0.2-0.1,0.2-0.1,0.2C87.7,75,87.6,75,87.4,75c-1.2,0-0.4-2.8,1.1-2.2
		c0.8,0.3,1.1,1.3,0.8,2.1c-0.2,0.8-1,1.4-1.9,1.3c-1-0.1-1.9-1-1.9-2C85.5,74.1,85.2,74.1,85.2,74.3L85.2,74.3z"/>
</g>
<g>
	<g>
		<path class="st4" d="M147,32l1,0.4c0,0,1.6-0.3,1.9-0.7c0.2-0.3,0.3-1.1,0.5-1.1c0.2,0,0.7,0.1,0.8,0.7c0,0.4-0.7,1.5-0.5,1.6
			c0,0.1,0.7,0.3,1.1,0.5c0.3,0.1,0.4,0.4,0.4,0.7l0,0c0,0.2-0.1,0.4-0.3,0.4l-0.3,0.1l0.1,0.3c0,0.2-0.1,0.4-0.3,0.5l-0.2,0.1
			l0.1,0.2c0.1,0.2-0.1,0.5-0.3,0.5h-0.2l0,0c0,0.2-0.1,0.4-0.3,0.4h-0.2l-2.7-1.2c-0.2-0.1-0.4-0.2-0.7-0.4l-0.9-0.5
			c-0.1-0.1-0.1-0.2-0.1-0.3l1.1-2.4C146.7,32,146.9,32,147,32z"/>
	</g>
</g>
<path class="st5" d="M117.3,80.1h-15.8c-2.5,0-4.6,2.1-4.6,4.6v3.5c0,2.5,2.1,4.6,4.6,4.6h15.8c2.5,0,4.6-2.1,4.6-4.6v-3.5
	C121.9,82.2,119.8,80.1,117.3,80.1z"/>
<polygon class="st0" points="94.4,206 75,214.8 75,216.8 144,216.8 144,214.8 124.4,206 "/>
<rect x="94.4" y="167.7" class="st0" width="30" height="38.2"/>
<path class="st0" d="M200.3,179.7V93.4c0-4.1-3.3-7.4-7.4-7.4H25.6c-4.1,0-7.4,3.3-7.4,7.4v86.2H200.3z"/>
<rect x="75" y="214.8" class="st6" width="68.9" height="2"/>
<rect x="94.4" y="201.4" class="st6" width="30" height="4.5"/>
<path class="st0" d="M18.2,179.7v13.9c0,2.8,1.9,5.2,4.3,5.2H196c2.3,0,4.3-2.3,4.3-5.2v-13.9H18.2z"/>
<path class="st7" d="M111.2,83.5c0,1-0.8,1.6-1.6,1.6c-1,0-1.6-0.8-1.6-1.6c0-1,0.8-1.6,1.6-1.6C110.6,81.9,111.2,82.6,111.2,83.5z"
	/>
<path class="st8" d="M196,176V93.7c0-2.2-1.9-3.9-4-3.9H26.5c-2.2,0-4,1.7-4,3.9V176H196z"/>
<rect x="30.1" y="96.4" class="st9" width="104.4" height="8.5"/>
<rect x="171.6" y="114.6" class="st9" width="7.1" height="55.1"/>
<rect x="161.7" y="131.4" class="st9" width="7.1" height="38.3"/>
<rect x="181.6" y="126.5" class="st9" width="7.1" height="43.2"/>
<rect x="151.7" y="124.9" class="st9" width="7.1" height="44.9"/>
<rect x="141.8" y="138.2" class="st9" width="7.1" height="31.6"/>
<g>
	<rect x="171.6" y="127.3" class="st10" width="7.1" height="42.5"/>
	<rect x="161.7" y="140.3" class="st10" width="7.1" height="29.5"/>
	<rect x="181.6" y="136.6" class="st10" width="7.1" height="33.2"/>
	<rect x="151.7" y="135.3" class="st10" width="7.1" height="34.5"/>
	<rect x="141.8" y="145.4" class="st10" width="7.1" height="24.3"/>
</g>
<rect x="33.7" y="108.4" class="st9" width="96.3" height="12.3"/>
<rect x="68" y="124.3" class="st9" width="62" height="3.2"/>
<rect x="33.7" y="124.3" class="st9" width="30.5" height="36.6"/>
<rect x="68" y="131" class="st9" width="62" height="3.2"/>
<rect x="68" y="151" class="st9" width="62" height="3.2"/>
<rect x="68" y="157.7" class="st9" width="62" height="3.2"/>
<path class="st2" d="M5.4,137.4l57.9-0.1c0.9,0,1.5,0.7,1.5,1.5l0.1,76.3c0,0.9-0.7,1.5-1.5,1.5l-57.9,0.1c-0.9,0-1.5-0.7-1.5-1.5
	L3.9,139C3.9,138.1,4.7,137.4,5.4,137.4z"/>
<rect x="7.2" y="139.6" transform="matrix(1 -1.801074e-03 1.801074e-03 1 -0.3186 6.246631e-02)" class="st8" width="54.7" height="74.6"/>
<path class="st2" d="M46.3,136.3c0-0.3-0.3-0.7-0.7-0.7H22.7c-0.3,0-0.7,0.3-0.7,0.7v2.4h24.1L46.3,136.3z"/>
<path class="st2" d="M34.1,132.9c-2,0-3.6,1.6-3.6,3.6c0,2,1.6,3.6,3.6,3.6c2,0,3.6-1.6,3.6-3.6C37.9,134.4,36.2,132.9,34.1,132.9z
	 M34.1,138.7c-1.3,0-2.3-1-2.3-2.3c0-1.3,1-2.3,2.3-2.3c1.3,0,2.3,1,2.3,2.3C36.5,137.7,35.5,138.7,34.1,138.7z"/>
<g>
	<path class="st11" d="M45.9,135.7c0.2,0.1,0.3,0.3,0.3,0.5v2.4H22.1c0,1.6,1.3,2.9,2.9,2.9h18.2c1.6,0,2.9-1.3,2.9-2.9v-2.4
		C46.3,136,46.2,135.8,45.9,135.7z"/>
	<path class="st12" d="M22.7,135.7L22.7,135.7c-0.2,0-0.4,0.1-0.5,0.2C22.4,135.8,22.5,135.7,22.7,135.7z"/>
	<path class="st12" d="M22.1,136.1L22.1,136.1L22.1,136.1z"/>
</g>
<g>
	<path class="st7" d="M55.5,161.6h-7.8v-7.8h7.8V161.6z M48,161.2h7.1v-7.1H48V161.2z"/>
</g>
<g>
	<path class="st7" d="M55.5,174.4h-7.8v-7.8h7.8V174.4z M48.1,174.1h7.1V167h-7.1V174.1z"/>
</g>
<g>
	<path class="st7" d="M55.5,187.4h-7.8v-7.8h7.8V187.4z M48.1,187.1h7.1V180h-7.1V187.1z"/>
</g>
<g>
	<path class="st7" d="M55.5,200.3h-7.8v-7.8h7.8V200.3z M48.1,200h7.1v-7.1h-7.1V200z"/>
</g>
<rect x="11.2" y="153.9" transform="matrix(1 -1.802514e-03 1.802514e-03 1 -0.2784 5.047594e-02)" class="st0" width="33.3" height="1.1"/>
<rect x="11.2" y="157.1" transform="matrix(1 -1.802514e-03 1.802514e-03 1 -0.2841 5.048094e-02)" class="st0" width="33.3" height="1.1"/>
<rect x="11.2" y="160.3" transform="matrix(1 -1.802514e-03 1.802514e-03 1 -0.2898 5.048614e-02)" class="st0" width="33.3" height="1.1"/>
<rect x="11.2" y="167.4" transform="matrix(1 -1.799401e-03 1.799401e-03 1 -0.3021 5.041025e-02)" class="st0" width="33.3" height="1.1"/>
<rect x="11.2" y="170.5" transform="matrix(1 -1.799712e-03 1.799712e-03 1 -0.3078 5.042407e-02)" class="st0" width="33.3" height="1.1"/>
<rect x="11.2" y="173.7" transform="matrix(1 -1.799401e-03 1.799401e-03 1 -0.3135 5.042038e-02)" class="st0" width="33.3" height="1.1"/>
<rect x="11.2" y="180" transform="matrix(1 -1.799401e-03 1.799401e-03 1 -0.3249 5.043070e-02)" class="st0" width="33.3" height="1.1"/>
<rect x="11.2" y="183.2" transform="matrix(1 -1.799401e-03 1.799401e-03 1 -0.3306 5.043586e-02)" class="st0" width="33.3" height="1.1"/>
<rect x="11.2" y="186.3" transform="matrix(1 -1.799398e-03 1.799398e-03 1 -0.3362 5.044074e-02)" class="st0" width="33.3" height="1.1"/>
<rect x="11.2" y="192.7" transform="matrix(1 -1.799713e-03 1.799713e-03 1 -0.3477 5.045987e-02)" class="st0" width="33.3" height="1.1"/>
<rect x="11.2" y="195.8" transform="matrix(1 -1.799401e-03 1.799401e-03 1 -0.3533 5.045631e-02)" class="st0" width="33.3" height="1.1"/>
<rect x="11.2" y="199" transform="matrix(1 -1.799712e-03 1.799712e-03 1 -0.3591 5.047017e-02)" class="st0" width="33.3" height="1.1"/>
<rect x="11.3" y="207.2" transform="matrix(1 -1.802303e-03 1.802303e-03 1 -0.3744 5.537724e-02)" class="st0" width="38.4" height="1.1"/>
<rect x="11.3" y="209.9" transform="matrix(1 -1.802454e-03 1.802454e-03 1 -0.3793 6.217527e-02)" class="st0" width="46" height="1.1"/>
<g>
	<polygon class="st2" points="51.6,160.3 49.2,156.1 50,155.6 51.4,158.1 53.7,152.5 54.7,152.9 	"/>
</g>
<g>
	<polygon class="st2" points="51.6,173.4 49.2,169.2 50.1,168.8 51.5,171.2 53.7,165.6 54.7,166 	"/>
</g>
<g>
	<polygon class="st2" points="51.6,199 49.2,194.9 50.1,194.3 51.5,196.7 53.8,191.3 54.7,191.6 	"/>
</g>
<polygon class="st2" points="54.3,181.5 53.7,180.9 51.6,182.9 49.6,180.9 49,181.5 51,183.5 49,185.5 49.6,186.1 51.6,184.2 
	53.7,186.1 54.3,185.5 52.4,183.5 "/>
<path class="st10" d="M12.7,189.2c-2,0-3.8,0.4-5.6,1.1v1.9c1.6-0.9,3.6-1.3,5.6-1.3c7,0,12.7,5.7,12.7,12.7c0,4.5-2.3,8.4-5.8,10.7
	h2.7c0.2-0.2,0.4-0.3,0.5-0.5c2.7-2.7,4.1-6.3,4.1-10.2s-1.5-7.4-4.3-10.2C20.2,190.6,16.6,189.2,12.7,189.2z"/>
<path class="st10" d="M12.7,193.1c-2.1,0-3.9,0.5-5.6,1.6v1c1.5-1.1,3.5-1.7,5.6-1.7c5.3,0,9.6,4.3,9.6,9.6c0,5.3-4.3,9.6-9.6,9.6
	c-2.1,0-3.9-0.7-5.6-1.7v1c1.6,1,3.5,1.6,5.6,1.6c5.8,0,10.5-4.7,10.4-10.5C23.2,197.7,18.5,193,12.7,193.1z"/>
<g>
	<path class="st7" d="M22.8,150.3v-3.7h-1.5v-0.3h3.4v0.3h-1.5v3.7H22.8z"/>
	<path class="st7" d="M28.6,150v0.3h-2.9v-4h2.8v0.3h-2.4v1.4h1.7v0.3h-1.7v1.6L28.6,150L28.6,150z"/>
	<path class="st7" d="M29,149.3l0.4-0.1c0.1,0.3,0.3,0.5,0.5,0.7s0.4,0.2,0.8,0.2c0.3,0,0.5-0.1,0.8-0.2c0.2-0.1,0.3-0.3,0.3-0.5
		c0-0.2-0.1-0.3-0.2-0.4c-0.1-0.1-0.3-0.2-0.7-0.3c-0.2,0-0.4-0.1-0.7-0.2c-0.2-0.1-0.4-0.1-0.5-0.2c-0.2-0.1-0.4-0.2-0.5-0.3
		c-0.1-0.1-0.1-0.3-0.1-0.4c0-0.3,0.1-0.5,0.4-0.8c0.2-0.2,0.7-0.3,1.1-0.3s0.8,0.1,1,0.2c0.2,0.1,0.4,0.4,0.5,0.8l-0.4,0.1
		c-0.1-0.2-0.3-0.4-0.4-0.5c-0.2-0.1-0.4-0.2-0.8-0.2c-0.3,0-0.5,0.1-0.7,0.2c-0.2,0.1-0.2,0.3-0.2,0.5c0,0.1,0.1,0.3,0.2,0.4
		s0.3,0.2,0.5,0.2c0.1,0,0.2,0.1,0.4,0.1c0.5,0.1,0.8,0.2,1,0.3c0.2,0.1,0.4,0.2,0.5,0.4c0.1,0.1,0.1,0.3,0.1,0.5
		c0,0.3-0.1,0.7-0.4,0.9c-0.3,0.2-0.7,0.3-1.1,0.3s-0.8-0.1-1.1-0.2C29.4,150,29.2,149.7,29,149.3z"/>
	<path class="st7" d="M34.1,150.3v-3.7h-1.5v-0.3H36v0.3h-1.5v3.7H34.1z"/>
	<path class="st7" d="M37.1,150.3v-4h0.4v4H37.1z"/>
	<path class="st7" d="M39.4,146.6v3.7h-0.4v-4h0.8l2.4,3.4v-3.4h0.4v4H42L39.4,146.6z"/>
	<path class="st7" d="M46.8,149.9c-0.2,0.2-0.3,0.3-0.5,0.4c-0.2,0.1-0.5,0.1-0.8,0.1c-0.7,0-1.1-0.2-1.4-0.5
		c-0.3-0.3-0.4-0.9-0.4-1.5c0-0.7,0.2-1.2,0.5-1.5c0.3-0.3,0.8-0.5,1.4-0.5c0.4,0,0.8,0.1,1.1,0.3c0.2,0.2,0.4,0.5,0.5,0.9l-0.4,0.1
		c-0.1-0.3-0.2-0.5-0.4-0.8c-0.2-0.1-0.4-0.2-0.8-0.2c-0.4,0-0.8,0.1-1.1,0.4c-0.2,0.3-0.3,0.8-0.3,1.3c0,0.5,0.1,1.1,0.3,1.3
		c0.2,0.3,0.7,0.4,1.1,0.4c0.3,0,0.7-0.1,0.9-0.2c0.2-0.2,0.3-0.4,0.3-0.7v-0.4h-1.2v-0.3h1.7v2h-0.4v-0.5H46.8z"/>
</g>
<g>
	<g>
		<g>
			<path class="st13" d="M90.4,50l-1.1,4.1l3.3-1.9l9.6-3.6l-7.1-0.2c0,0-3.7,0.4-3.9,0.5C90.9,49.3,90.4,50,90.4,50z"/>
			<polygon class="st0" points="87.5,47.2 102.2,48.8 90.4,50 			"/>
			<polygon class="st0" points="94.5,54.8 91.1,51.3 102.2,48.8 			"/>
		</g>
		<g>
			<g>
				<path class="st0" d="M68.2,62.7c0.1-0.3,0.2-0.7,0.3-1c0.1-0.3,0.2-0.5,0.3-0.9l0.3,0.1c-0.1,0.3-0.2,0.5-0.3,0.9
					c-0.1,0.3-0.2,0.7-0.3,1c0,0.1,0,0.2-0.1,0.3l-0.3-0.2C68.1,62.8,68.1,62.7,68.2,62.7z M70.1,58.8c0.4-0.5,1-1.1,1.5-1.6
					l0.2,0.2c-0.5,0.5-1.1,1.1-1.5,1.6L70.1,58.8z M81.1,59.5C81.1,59.5,81.1,59.4,81.1,59.5l0.2-0.3l0,0l0,0c0.2,0.1,0.7,0.1,1,0
					c0.2-0.1,0.4-0.3,0.7-0.5l0.3,0.2c-0.2,0.3-0.4,0.5-0.8,0.7c-0.4,0.2-1,0.1-1.2,0C81.2,59.5,81.1,59.5,81.1,59.5z M73.4,55.8
					c0.7-0.4,1.3-0.8,2-1.1l0.1,0.3c-0.7,0.3-1.3,0.7-2,1.1L73.4,55.8z M80,56.6c0-0.3,0.1-0.7,0.2-1c0.1-0.2,0.1-0.3,0.2-0.5
					l0.3,0.1c-0.1,0.2-0.1,0.3-0.2,0.5c-0.1,0.3-0.2,0.7-0.2,0.9s0,0.4,0,0.7H80C80,57.1,80,56.9,80,56.6z M81.8,55L81.8,55l0.1-0.3
					l0,0c0.7,0.4,1.2,1.1,1.4,1.7l-0.3,0.1C82.9,56,82.5,55.4,81.8,55z M77.6,54c0.4-0.1,1.1-0.2,1.5-0.1c0.3,0,0.5,0,0.8,0.1v0.3
					c-0.2,0-0.5-0.1-0.8-0.1c-0.2,0-0.8,0-1.4,0.1L77.6,54z M82,53.3c0.5-0.5,1.2-1,1.9-1.3l0.1,0.3c-0.7,0.3-1.3,0.8-1.9,1.2
					L82,53.3z"/>
			</g>
			<g>
				<path class="st0" d="M86,51.6c0.3-0.1,0.8-0.1,1.1-0.1v-0.3c-0.4,0-0.8,0-1.2,0.1L86,51.6z"/>
			</g>
		</g>
	</g>
	<g>
		<path class="st4" d="M60.3,55.6c0.2,0,0.9,0.2,1.7,1.9c1.1,2.2,2.8,8.6,2.8,8.6L60,67.9l-0.7-1.3l-1.1-10.5
			C58.3,56.2,60.3,55.6,60.3,55.6z"/>
		<path class="st4" d="M53.8,54.7c1.4,0,4.9,0.4,6.6,1c0,0,1.2,10.3-1.1,18.1c-0.5,1.7,0.4,7.3,0.4,7.3l-14.7-0.2
			c0,0,1.7-13.3,1.1-15.5c-0.7-2.2-0.7-9.6-0.7-9.6s0.1,0,3.3-0.5C50.2,54.8,52.3,54.7,53.8,54.7z"/>
		<path class="st14" d="M52.2,100.1c0,0,0.3,3.7,0.9,4.8c0.5,1.1,0,2.8-0.1,3.1c0,0.2-1.3,0.5-3.2,0.3c-2-0.2-2-0.7-1.7-1.4
			c0.1-0.8,1.2-1.6,1.3-2.4c0.1-0.7-0.5-3.2-0.5-3.2L52.2,100.1z"/>
		<path class="st15" d="M58.1,77.8c0,0,10.2-0.5,12.4,0.8c2.3,1.4-1.6,8.1-1.6,8.1s-7.1-0.3-21,0.4c-3.3,0.2-3.6-8.5-2.9-9.3
			C45.6,77.3,58.1,77.8,58.1,77.8z"/>
		<path class="st4" d="M49.5,108.6c-2-0.2-1.7-1.2-1.6-2c0.1-0.4,0.7-1,1-1.5c0.2,0.1,0.4,0.4,1.3,0.7c0.9,0.2,2.2-0.2,2.9-0.5
			c0.3,1.1,0.3,2.4,0.2,2.6C53.5,108,51.5,108.8,49.5,108.6z"/>
		<path class="st15" d="M50.6,85.1c0.4,3.1,2.4,18.3,2.4,18.3l-4.7,0.5c0,0-5.8-20-5.5-23s2.4-3.3,2.4-3.3S49.5,77.1,50.6,85.1z"/>
		<path class="st16" d="M45.3,56.8c1.4-0.5,2.1,11.9,2.2,17c2.4,0.2,6.7,0,7.8-0.1c0.5,0,1.6-0.4,2.2-0.5c0.5-0.1,1-0.1,1.2-0.1
			c0.1,0,2.6,1.1,2.8,1.3c0.2,0.3,1,1,0.9,1.3c-0.1,0.3-1.4-0.9-1.4-0.9l-0.7-0.3c0.8,0.8,2.3,1.7,2.1,2.1s-1.5-0.7-2.5-1.3
			c0.8,0.8,1.9,2.1,1.6,2.3c-0.2,0.2-1.4-1.3-2.6-1.7c-0.4-0.1-0.9,0.3-1.3,0.3c-0.2,0-0.7,0.1-1,0l-1.3-0.3c-0.4,0-0.4,0.3-0.9,0.4
			c-0.5,0.1-1.4,0.2-2.1,0.4c-3.9,1-5.2,1.4-6.4,1.4C42.2,77.9,42,58.1,45.3,56.8z"/>
		<path class="st4" d="M42.7,68.4c-0.2-5.2-0.2-11.7,2.7-12.8c1.2-0.4,3.2,2.2,2.8,12.9C46.6,68.7,44.3,68.8,42.7,68.4z"/>
		<path class="st14" d="M66.2,103.7c0,0-0.7,1.2-0.1,2.2s3.3,2.5,3.6,3.1c0.3,0.5,0.2,0.9,0.2,0.9l-8.3-2l0.7-2.5l0.8-1.7
			L66.2,103.7z"/>
		<path class="st4" d="M66.6,106.4c0,0-2.3,0.4-3.3-0.3c-0.9-0.8-0.9-0.9-1.2-0.8c-0.2,0.1-0.5,1.1-0.8,1.7
			c-0.1,0.3,0.1,0.8,0.4,0.9l8.6,2.1c0.7,0.1,1.1-0.3,0.7-0.8c-0.3-0.3-0.7-0.7-0.9-0.9C69.5,108,66.6,106.4,66.6,106.4z"/>
		<path class="st15" d="M65.5,80.2c0.7-1.4,2.2-3.2,4.8-2.1c2.5,1,3.2,3.6,2.4,6.2c-0.8,2.6-6,17.9-6.2,20h-4.1c0,0,0.8-12.1,1-15.1
			C63.4,86.6,64.3,82.6,65.5,80.2z"/>
		<path class="st7" d="M72.1,66.1H58.3c-0.3,0-0.7,0.2-0.9,0.5l-4.3,10.5h-7.6c-0.2,0-0.4,0.2-0.4,0.4l0,0c0,0.2,0.2,0.4,0.4,0.4
			h21.8c0.5,0,1.1-0.3,1.4-0.9l4.3-9.6C73.2,66.9,72.8,66.1,72.1,66.1z"/>
		<path class="st8" d="M64.7,72.3c-0.1,0.4-0.5,0.8-0.9,0.7c-0.4-0.1-0.7-0.5-0.5-1c0.1-0.4,0.5-0.8,0.9-0.7
			C64.5,71.4,64.8,71.8,64.7,72.3z"/>
		<g>
			<path class="st17" d="M57.2,42.1c-0.4-0.1-0.9-0.3-1.2-0.5c-0.4-0.2-1-0.4-1.4-0.5c-0.8-0.1-2.1,0-2.8,0.8
				c-0.9,1-2.5,0.2-2.2,5.3c0.3,5.9,3.6,5.2,3.7,5.1c0.1-0.1,2.9-3.8,2.9-3.8s1,2.2,1,2.1C57.1,50.6,62.2,43.8,57.2,42.1z"/>
			<path class="st14" d="M54.7,52.8l0.3,2.1c0,0,0.7,3.1-0.2,3.6c-0.8,0.5-3.5-3.7-3.5-3.7l0.3-5.3L54.7,52.8z"/>
			<path class="st18" d="M51.5,51.2c0.7,1.9,2.3,2.9,3.4,3.4l-0.2-1.7l-3.1-3.3L51.5,51.2z"/>
			<path class="st14" d="M54.4,43.7c1.7-0.3,3.3,1.1,3.3,2.8c0,0.8-0.1,1.6-0.2,2.7c-0.3,2.4-2.1,4.6-3.2,4.4s-3.8-2.3-3.4-5.8
				C51.3,45.7,52.7,44,54.4,43.7z"/>
			<path class="st14" d="M51.7,48.2c-0.1,0.5-0.5,0.9-1,0.9C50.3,49,50,48.6,50.1,48c0.1-0.5,0.5-0.9,1-0.9
				C51.5,47.3,51.8,47.7,51.7,48.2z"/>
			<path class="st17" d="M51.1,47.2c0,0,1.3,0.3,1.9-0.5s2.3-2.7,4.5-2c2.2,0.8-2-1.9-2.2-1.9s-2.3,0-2.3,0s-1.6,1.3-1.7,1.5
				c-0.1,0.1-0.5,1.7-0.5,1.7L51.1,47.2z"/>
		</g>
		<path class="st8" d="M53.6,50.8l2.4,0.4c0,0-0.2,0.9-1.3,0.8C53.4,51.7,53.6,50.8,53.6,50.8z"/>
	</g>
</g>
<g>
	<path class="st14" d="M80.1,208.2c0,0-0.4,2.8-1.1,3.8c-0.2,0.3-0.7,0.7-1,1.3c-0.4,0.9-0.2,2.2,0.1,2.9c0.2,0.3,0,0.3,0.3,0.4
		c1.1,0.3,2.4-0.2,2.8-1.3c0.2-0.7,0.5-1.4,0.5-2.5c0.1-2.6,1-3.9,1-3.9L80.1,208.2z"/>
	<path class="st14" d="M92.7,209.5c0,0,0.2,3.3,0,4.4c-0.1,0.5-0.8,1.7-0.4,2.3c0.3,0.5,0.7,0.7,0.7,0.7l7.3,0.1
		c0.4,0,0.1-0.2-0.2-0.5c-0.5-0.4-1-0.7-2.6-1.4c-0.1,0-0.5-0.3-0.7-0.4c-0.3-0.2-0.8-0.5-1.1-1c-0.5-0.5-0.5-3.5-0.5-3.5
		L92.7,209.5z"/>
	<path class="st15" d="M98.3,166.1c0,0,0.9,5.2,0.3,8.7c-0.7,3.5-3.5,35.6-3.5,35.6l-3.3,0.2c0,0-0.7-13.4-0.5-15.3
		c0.1-1.9,1.1-5,1.1-5l-0.3-10.8l4.1-14.3L98.3,166.1z"/>
	<path class="st15" d="M88.8,165.1c0,0-2.5,3.8-3.2,7.1c-0.7,3.2,0.4,13.1-0.8,17.2c-0.7,2.3-3.1,5.8-3.4,8.7
		c-0.3,2.9-1.7,10.6-1.7,10.6l3.3,0.7l7.5-19.2l5.9-17.4l1.5-9L88.8,165.1z"/>
	<path class="st2" d="M81.6,214.7c-1.7,0.3-2.9-0.8-3.6-1.5c-0.4,0.9-0.7,2.2-0.3,2.9c0.3,0.7,1.1,0.7,1.9,0.7c0.7,0,1.3-0.3,1.6-1
		C81.3,215.5,81.5,215.2,81.6,214.7z"/>
	<path class="st2" d="M96.7,214.5c-2,0.5-3.4,0.1-4.1-0.2c-0.2,0.5-0.4,1.3-0.3,1.7c0.2,0.5,0.4,0.7,0.7,0.7c1.7,0,6.6,0.1,7.9,0.1
		c0.2,0,0.3-0.2,0.2-0.3C100.5,216,96.8,214.5,96.7,214.5z"/>
	<path class="st14" d="M110,157c0.1-0.3-1.3-0.7-1.3-1s1.9-0.1,2-0.4c0.2-0.4-2.1-0.3-2.1-0.5c0.1-0.2,2.4-0.5,2.2-0.9
		c-0.2-0.4-2.4,0.5-2.4,0.2c0-0.3,2.1-0.7,2.2-1.3c0-0.3-3.6,1.2-3.9,1c-0.3-0.2,0.5-1.6,0.3-1.9c-0.3-0.2-1.5,2.6-1.7,2.7
		c-0.2,0.1-5.1,1.5-6.8,1.9c-0.1-0.5-1.4-3.7-1.5-4.3c-1,0.5-2.2-0.1-3.3,0.3c0.5,1.7,1.6,7.6,2.1,7.9c1.4,0.8,8.6-3.1,9.8-3.7
		c1.2-0.7,1.9-0.3,2.6-0.5C108.9,156.4,109.9,157.3,110,157z"/>
	<path class="st17" d="M97.1,139.7c0.3-1.6,0.8-3.4-0.2-5.1c-0.8-1.5-2.1-2.3-3.7-2.5c-4.4-0.5-3.5,3.6-9.6,4.5
		c-2,0.3-3.7,0.5-5.3,1.5c-2.8,1.7-3.9,4.5-2.1,9c4.7,11,15.9,1.4,17.7-0.5C95.5,144.5,96.9,140.8,97.1,139.7z"/>
	<path class="st2" d="M90.1,145c0,0-2.2,0.2-3.6,1.7c-1.3,1.4,2.2,13.1,2.4,15c0.2,1.9-2.3,7-2.3,7s8.7,1.7,10.9,0.2
		c0,0,0.2-14.3,0-15.6c-0.2-1.3-2.3-6.7-2.7-7.2C94.4,145.5,90.1,145,90.1,145z"/>
	<path class="st14" d="M91.2,140.5c0,0,0,0.1,0,0.2c-0.1,0.8-0.8,3.5-1.1,4.3c-0.4,0.9,1.6,3.7,3.6,3.4c0.5-0.1-0.5-2.6-0.4-2.8
		c0.1-0.5,0.2-1.2,0.3-2c0.1-0.4,0.1-0.8,0.2-1.2c0.2-1.1,0.4-2,0.4-2L91.2,140.5z"/>
	<path class="st19" d="M91.2,140.7c0-0.2,0-0.2,0-0.2l3.1-0.1c0,0-0.2,0.9-0.4,2c-0.1,0.3-0.1,0.8-0.2,1.2c-0.4-0.1-1-0.3-1.4-0.8
		c-0.5-0.4-0.9-1-1.1-1.6C91.1,141,91.2,140.8,91.2,140.7z"/>
	<path class="st14" d="M93.1,133.3c0,0-1.2,0.2-2.1,1.3c-0.9,1.2-1.9,4.7,0.3,6.7c2.2,2,4.4-0.2,4.7-2.6
		C96.4,136.3,96.4,133.2,93.1,133.3z"/>
	<path class="st14" d="M96.7,138.1c-0.1,0.5-0.5,1-0.8,0.9c-0.3-0.1-0.4-0.7-0.3-1.2c0.1-0.5,0.5-1,0.8-0.9
		C96.7,137,96.8,137.5,96.7,138.1z"/>
	<path class="st17" d="M94.4,133.3c0,0-2.8,3.3-4.3,3.5c-1.3,0.1-1.5,2-1.5,2s0.4-4.1,1.9-4.9C91.9,133,94.4,133.3,94.4,133.3z"/>
	<path class="st14" d="M90.7,137.5c0.1,0.7-0.1,1.2-0.5,1.2c-0.4,0.1-0.8-0.3-0.9-1c-0.1-0.7,0.1-1.2,0.5-1.2
		C90.1,136.6,90.6,137,90.7,137.5z"/>
	<path class="st4" d="M90.6,154.4l9.4,1.4c0.3,0,0.4,0.3,0.4,0.5l-1.9,12.4c0,0.3-0.3,0.4-0.5,0.4l-9.4-1.4c-0.3,0-0.4-0.3-0.4-0.5
		l1.9-12.4C90,154.6,90.4,154.4,90.6,154.4z"/>
	<path class="st20" d="M97.6,155c0-0.1,0-0.1-0.1-0.1l-3.9-0.5c-0.1,0-0.1,0-0.1,0.1l-0.1,0.4l4.1,0.5L97.6,155z"/>
	<path class="st20" d="M95.6,154.1c-0.3,0-0.7,0.2-0.7,0.5c0,0.3,0.2,0.7,0.5,0.7s0.7-0.2,0.7-0.5C96.2,154.5,95.9,154.1,95.6,154.1
		z M95.5,155.1c-0.2,0-0.3-0.2-0.3-0.4s0.2-0.3,0.4-0.3s0.3,0.2,0.3,0.4S95.7,155.1,95.5,155.1z"/>
	<path class="st20" d="M97.6,154.9C97.6,154.9,97.6,155,97.6,154.9v0.5l-4.1-0.5c0,0.3,0.1,0.5,0.4,0.5l3.1,0.4
		c0.3,0,0.5-0.1,0.5-0.4L97.6,154.9C97.6,155,97.6,154.9,97.6,154.9z"/>
	<path class="st8" d="M94.6,139.8h-2.1c0,0,0,0.8,1,0.9C94.6,140.7,94.6,139.8,94.6,139.8z"/>
	<path class="st14" d="M84,157.6l3.4,0.3c0,0-0.1,2.8,0,3.2c0,0,5.8,1.6,8.2,2.1c0,0,1.1-0.7,1.5-0.9s1.6-0.4,1.9-0.4
		c0.2,0,0.2,0.2,0,0.3c-0.2,0.1-0.8,0.3-1,0.8c0,0,0.4,0,0.8-0.1c0.2-0.1,0.7-0.3,0.7-0.4c0-0.1,0.1-0.4,0.1-0.4s0,0.1,0.1,0.2
		c0,0.1,0.1,0.2,0.1,0.3c0,0.2,0.1,0.4,0.1,0.5c0,0.2-0.1,1-0.1,1.2c0,0.4-0.2,0.7-0.4,0.8c-0.4,0.1-0.9,0.2-1.4,0.3
		c-1.2,0.1-2.2-0.2-2.6-0.2s-7.9-0.8-7.9-0.8s-2.9-0.4-3.2-0.9C84,163,84,157.6,84,157.6z"/>
	<path class="st2" d="M87,146.2c0,0-1.1,0.5-2,2.7c-0.9,2.1-1.2,12.4-1.2,12.4l3.5-0.5l1.7-4.8c1.3-2.9,1-6.2-0.9-8.8
		C87.7,146.4,87.3,146.1,87,146.2z"/>
</g>
<rect x="142.8" y="96.4" class="st9" width="15.1" height="15.1"/>
<rect x="160.5" y="96.4" class="st9" width="29.3" height="2.1"/>
<rect x="160.5" y="100.8" class="st9" width="19.8" height="2.1"/>
<rect x="160.5" y="105" class="st9" width="26.3" height="2.1"/>
<g>
	<path class="st14" d="M199.9,146.3c-0.7-0.5-5.3,1.6-5.3,2.3c0.1,0.8-3.3,7.8-3.3,7.8l-5.8-4.7l0,0c0-0.2-0.7-2-0.7-2.3
		c0-0.3-1-1-1.4-0.9c-0.4,0.1,0.4,0.7,0.4,0.8c0.1,0.3-0.4,0.4-0.4,0.4s-1.6-0.5-1.7-1.1c0-0.5-1.2,1-1.1,1.2
		c0.1,0.2,2.8,2.4,3.3,2.8c0,0,7.5,8.6,8.1,8.8c0.4,0.2,2.2-2.7,3.7-4.7C197.2,154.8,201.8,147.8,199.9,146.3z"/>
	<path class="st14" d="M215,209.7c0,0,1,1,1.1,1.4c0,0.3,0.1,4.4-0.3,4.7c-0.4,0.3-1.6,0.7-1.3,1.1c0.3,0.3,2.6,0.2,4.1,0.1
		c0.4,0,1-3.6,1.2-4.1c0.2-0.8,0.9-2.5,0.7-3.1c-0.1-0.2-0.7-0.8-1.4-1.3s-1.6-1.6-1.6-1.6L215,209.7z"/>
	<path class="st14" d="M204.3,212c0,0,0.9,2.6,1,2.6c0.1,0.4,0.3,1.4,0.3,1.9c0,1.4-6.4-1.2-4.9-1.9c0.1-0.1,0.5-0.5,0.5-1
		c0.1-0.8-0.5-1.6-0.5-1.6H204.3z"/>
	<g>
		<g>
			<path class="st15" d="M194.3,163.2c0,0-0.4,4.7-0.4,4.8c0,7.6-1.5,22.5-1.2,23.9c0.7,3.5,8.2,21.3,8.2,21.3l4-0.4l-4.4-21.5
				l1-8.4l2.7-16.9L194.3,163.2z"/>
			<path class="st15" d="M207.9,167.4l0.8,4.5l2.1,18.3l8,17.9c0,0-1.1,2.6-2.7,2.9l-12.7-18.3l-7.9-23.5l0.3-5.2L207.9,167.4z"/>
		</g>
	</g>
	<path class="st4" d="M192.7,152.1l5.7,0.5c0,0,0.2-4.6,0.2-6.9c0-2.6-0.2-6.1-0.5-6c-0.9,0.2-2.1,0.7-2.8,1.7
		C192.7,145,192.7,152.1,192.7,152.1z"/>
	<path class="st4" d="M195.5,145.3c-0.1,0.8-2.3,22.9-2.3,22.9c10.3,4.9,15.9,0.9,15.9,0.9s-0.3-15.6,0.1-17.7
		c0.2-1.4,0.5-10.7-0.3-11c-1.2-0.3-2.5-0.7-3.9-0.9c-1.2-0.1-6.1-0.2-7,0.1C198,139.7,195.9,141.9,195.5,145.3z"/>
	<path class="st4" d="M219.1,208.5c0,0-2.4,6.8-3.3,7.1c-0.2,0.1-1.4,0.3-1.6,0.9c-0.1,0.1,0,0.7,0,0.7h5c0,0,0.7-2.9,0.9-4.3
		c0,0,1.3-3.2,1.2-3.5C220.9,209.1,219.1,208.5,219.1,208.5z"/>
	<path class="st4" d="M206,216.9l-0.8-2.3c0,0-1.5,0.7-2.3,0.5c-0.8-0.1-2.3-0.5-2.3-0.5c-3.1,1-5.6,1.5-5.1,2.3l0,0H206z"/>
	<g>
		<path class="st16" d="M191.9,161.5l-0.1-0.1c0.2-2.2,0.1-4.3-0.5-5c0,0,0.2-0.3,0.3-0.7c0.8,0.7,1.2,2.2,1,4.9
			c0,0.2-0.1,0.3-0.1,0.5C192.2,161.3,192,161.6,191.9,161.5z"/>
	</g>
	<path class="st14" d="M203.6,135.4l0.7,4.4c0,0-2.4,5.2-3.8,4.7c-1.2-0.3-0.4-5-0.4-5s0.7-2.5,0.4-3.7
		C200.2,134.6,203.6,135.4,203.6,135.4z"/>
	<path class="st18" d="M200.3,135.8c-0.2-1.2,3.2-0.4,3.2-0.4l0.1,0.3c-0.1,0.2-0.2,0.4-0.3,0.7c-0.8,0.8-2,1.3-2.9,1.3
		C200.4,137.1,200.4,136.3,200.3,135.8z"/>
	<g>
		<path class="st14" d="M204.1,129.2c0.1,0,0.8,4.9-0.5,6.3c-1.3,1.4-3.8,1.9-4.7,0.8c-1-1.2-1-6.6,1.1-8
			C201.9,127,204.1,129.2,204.1,129.2z"/>
		<path class="st17" d="M200.7,125.6c1.5,0.3,2.5,1.2,2.9,1.6c0.7,0.1,1.6,0.4,2.6,2.1c1.2,2,0.3,4.1-1.1,5.2
			c-1.4,1.1-1.4,2.3-1.4,2.3l-0.2-0.7c-0.1-0.4-0.2-1-0.2-1.5c0-0.3,0.1-0.7,0.2-0.9c0.3-0.8-0.8-1.2-1-1.9
			c-0.2-0.4-0.2-1.5-0.7-2.3l-0.4-0.5c0,0-1-0.8-2-0.5C198.7,128.9,198.8,125.2,200.7,125.6z"/>
		<path class="st14" d="M202.7,133.1c0,0.7,0.2,1.1,0.7,1.1c0.3,0,0.7-0.4,0.7-1.1s-0.2-1.1-0.7-1.1
			C202.9,131.9,202.7,132.4,202.7,133.1z"/>
	</g>
	<path class="st8" d="M200.6,134.4l-2-0.1c0,0,0,0.8,0.9,0.8C200.5,135.3,200.6,134.4,200.6,134.4z"/>
	<g>
		<path class="st0" d="M184.8,145.8c0.4-0.4,0.9-1,1.3-1.4l8.4,8.2c0.5,0.5,0.3,1.5-0.4,2.3c-0.8,0.8-1.7,1-2.3,0.4l-8.4-8.2
			C183.9,146.7,184.4,146.3,184.8,145.8z"/>
		
			<ellipse transform="matrix(0.6988 -0.7153 0.7153 0.6988 -42.4997 160.563)" class="st21" cx="169.4" cy="130.7" rx="21.2" ry="21.4"/>
		<path class="st8" d="M184.7,145.4c-3.5,3.7-8.3,6.1-13.5,6.7l-23-23.4v-0.1c0.5-5.3,3.1-10,6.7-13.4L184.7,145.4z"/>
		<path class="st8" d="M169.2,109.5l21.3,21.6c0,0.7,0,1.3-0.1,2c-0.3,3.1-1.3,5.8-2.6,8.3L159,112.1
			C162,110.5,165.5,109.5,169.2,109.5z"/>
		<path class="st0" d="M152.6,147.9c9.5,9.3,24.8,9.2,34.1-0.3c9.3-9.5,9.1-24.7-0.5-34.1c-9.5-9.3-24.8-9.2-34.1,0.3
			C142.9,123.4,143.1,138.6,152.6,147.9z M154.6,146c-8.4-8.2-8.6-21.7-0.4-30.1s21.6-8.5,30.1-0.2c8.4,8.2,8.6,21.7,0.4,30.1
			C176.5,154,163,154.1,154.6,146z"/>
		<path class="st0" d="M153.7,146.8c9,8.7,23.3,8.6,32-0.3c8.7-9,8.5-23.3-0.4-32c-9-8.7-23.3-8.6-32,0.3
			C144.5,123.8,144.7,138.1,153.7,146.8z M154.6,146c-8.4-8.2-8.6-21.7-0.4-30.1s21.6-8.5,30.1-0.2c8.4,8.2,8.6,21.7,0.4,30.1
			C176.5,154,163,154.1,154.6,146z"/>
		<path class="st0" d="M220.6,181.9l1.3-1.3c1.3-1.3,1.3-3.5-0.1-4.8l-24.2-23.6c-1.3-1.3-3.5-1.3-4.8,0.1l-1.3,1.3
			c-1.3,1.3-1.3,3.5,0.1,4.8l24.2,23.6C217.1,183.3,219.3,183.2,220.6,181.9z"/>
	</g>
	<path class="st14" d="M219.3,168.6v-0.1c-0.1-1.5-1.4-14.4-1.6-15c-0.2-0.5-5.9-8.6-5.9-8.6l-2.8,3.8l5.5,7.3
		c0.1,0.4,2.1,9.2,2.1,9.2s0.4,1.6,0.5,2.5c-0.1,0.2-0.2,0.4-0.2,0.7c-0.2,0.3-0.4,0.7-0.5,1c-0.2,0.3-0.7,1.1-0.7,1.2
		c-0.1,0.2-0.1,0.7-0.2,1c-0.1,0.3-0.1,0.7-0.1,0.8c0,0.1-0.1,0.3-0.2,0.4c-0.1,0.2,0.1,0.4,0.3,0.3c0.2-0.1,0.3-0.3,0.4-0.4
		c0.2-0.4,0.4-1.3,0.4-1.2c0.1,0,0.3,1.4,0.3,1.6c0,0.1,0.3,1.7,0.4,2.1c0.1,0.3,0.3,0.2,0.4,0.1c0-0.1-0.2-2.4-0.2-2.4
		s0-0.3,0.1-0.2c0.1,0.1,0.3,2.2,0.4,2.5c0.1,0.3,0.3,0.4,0.4,0.2c0.2-0.3-0.1-2.5-0.1-2.5s0-0.3,0.1-0.2c0.1,0,0.2,1.7,0.3,2
		c0.1,0.1,0.3,0.2,0.4,0c0.1-0.3-0.2-2.3-0.2-2.3s0-0.1,0.1-0.1s0.3,1.5,0.4,1.6c0.1,0.1,0.2,0,0.2,0c0.3-0.2-0.1-1.6-0.1-2.3
		s-0.3-1.5-0.2-2.4C219.3,168.8,219.3,168.7,219.3,168.6z"/>
	<path class="st4" d="M216.2,149.9l-4.9,3.3c0,0-2.7-4.1-4.3-5.6c-1.9-1.9,0.7-7.4,1.9-7.1C211.7,141.3,216.2,149.9,216.2,149.9z"/>
</g>
</svg>
