<?xml version="1.0" encoding="utf-8"?>
<!-- Generator: Adobe Illustrator 21.0.0, SVG Export Plug-In . SVG Version: 6.00 Build 0)  -->
<svg version="1.1" id="Layer_1" xmlns="http://www.w3.org/2000/svg" xmlns:xlink="http://www.w3.org/1999/xlink" x="0px" y="0px"
	 viewBox="0 0 110 110" style="enable-background:new 0 0 110 110;" xml:space="preserve">
<style type="text/css">
	.st0{fill:#FFFFFF;stroke:#464646;stroke-width:2;stroke-miterlimit:10;}
	.st1{fill:#464646;}
</style>
<path class="st0" d="M101.8,107.5H8.2c-3.2,0-5.7-2.6-5.7-5.7V8.2c0-3.2,2.6-5.7,5.7-5.7h93.5c3.2,0,5.7,2.6,5.7,5.7v93.5
	C107.5,104.9,104.9,107.5,101.8,107.5z"/>
<g>
	<polygon class="st1" points="51.5,41.8 51.5,59.6 62.8,59.6 62.8,56.5 54.6,56.5 54.6,41.8 	"/>
	<path class="st1" d="M82,56.1c0-14.9-12.1-27-27-27c-13.4,0-24.5,9.8-26.6,22.5H24l7.5,12.9l7.7-12.9h-4.5
		c2.1-9.4,10.4-16.3,20.3-16.3c11.5,0,20.8,9.3,20.8,20.8c0,9.9-7.1,18.2-16.3,20.3v6.4C72.2,80.6,82,69.5,82,56.1z"/>
	<path class="st1" d="M28.6,79.9l2-2.1c1.3-1.4,2.2-2.5,2.7-3.2c0.5-0.7,0.7-1.5,0.7-2.5c0-1.4-0.5-2.5-1.4-3.3
		c-0.9-0.8-2.2-1.2-3.8-1.2c-1.5,0-2.7,0.5-3.7,1.4c-0.9,0.9-1.4,2.1-1.3,3.5l0,0.1h3.3c0-0.8,0.1-1.3,0.4-1.7
		c0.3-0.4,0.7-0.7,1.2-0.7c0.6,0,1,0.2,1.3,0.5c0.3,0.3,0.4,0.8,0.4,1.3c0,0.4-0.1,0.9-0.4,1.4c-0.3,0.5-0.7,1.1-1.3,1.8l-4.7,5v2.3
		h10.2v-2.7L28.6,79.9C28.6,79.9,28.6,79.9,28.6,79.9z"/>
	<path class="st1" d="M43.7,68h-3.3V68l-5.9,9.5l0.2,2.1h5.8v3.1h3.3v-3.1h1.6V77h-1.6C43.7,77,43.7,68,43.7,68z M40.3,77h-2.9
		l2.5-4.2l0.3-0.4l0.1,0V77z"/>
	<path class="st1" d="M56.4,82.7v-6.3c0-0.5,0-0.9,0-1.3c-0.1-1-0.4-1.8-0.9-2.4c-0.6-0.8-1.5-1.2-2.7-1.2c-0.6,0-1.1,0.1-1.5,0.4
		s-1,0.7-1.2,1.1v-5.2h-3.5v14.8h3.5v-8c0-0.2,0.3-0.3,0.6-0.4c0.2-0.1,0.5-0.1,0.8-0.1c0.5,0,0.9,0.2,1.2,0.5
		c0.3,0.3,0.4,0.9,0.4,1.7v6.3h1.2H56.4L56.4,82.7z"/>
</g>
</svg>
