<?xml version="1.0" encoding="utf-8"?>
<!-- Generator: Adobe Illustrator 21.0.0, SVG Export Plug-In . SVG Version: 6.00 Build 0)  -->
<svg version="1.1" id="Layer_1" xmlns="http://www.w3.org/2000/svg" xmlns:xlink="http://www.w3.org/1999/xlink" x="0px" y="0px"
	 viewBox="0 0 110 110" style="enable-background:new 0 0 110 110;" xml:space="preserve">
<style type="text/css">
	.st0{fill:#FFFFFF;stroke:#464646;stroke-width:2;stroke-miterlimit:10;}
	.st1{fill:#464646;}
</style>
<path class="st0" d="M101.8,107.5H8.2c-3.2,0-5.7-2.6-5.7-5.7V8.2c0-3.2,2.6-5.7,5.7-5.7h93.5c3.2,0,5.7,2.6,5.7,5.7v93.5
	C107.5,104.9,104.9,107.5,101.8,107.5z"/>
<g>
	<path class="st1" d="M77.8,33.7c-0.2-1.2-1.2-2-2.4-2h-5.3c-0.4-0.8-1.2-1.3-2.1-1.3H42.1c-0.9,0-1.7,0.5-2.1,1.3h-5.3
		c-1.2,0-2.2,0.9-2.4,2c0,0.2-0.7,4.1,0.6,8.5c0.9,3.1,3,6.9,7.5,9.3c-0.7,1.9-1.7,3.9-2.8,6.2c-0.2,0.5-0.2,1,0.2,1.4
		c3.5,3.8,7.4,6.4,11.6,7.6c0,0.1,0,0.2,0,0.3v0.2c0,1.2,0.7,2.3,1.7,2.9c0.2,2-0.3,5.2-1.4,7.8H45c-1,0-1.9,0.8-1.9,1.9v4.1
		c0,1,0.8,1.9,1.9,1.9h20c1,0,1.9-0.8,1.9-1.9v-4.1c0-1-0.8-1.9-1.9-1.9h-4.6C59.3,75.2,58.9,72,59,70c1-0.5,1.7-1.6,1.7-2.9V67
		c0-0.1,0-0.2,0-0.3c4.2-1.2,8.1-3.8,11.6-7.6c0.4-0.4,0.4-1,0.2-1.4c-1.1-2.3-2-4.3-2.8-6.2c4.6-2.4,6.6-6.1,7.5-9.3
		C78.5,37.8,77.8,33.9,77.8,33.7z M37.5,40.9c-0.5-1.6-0.6-3.2-0.6-4.4h3c0.4,0.8,1.2,1.3,2.1,1.3c0.4,0,0.8-0.1,1.2-0.3
		c0,0,0,0,0,0.1c0.2,1.9,0,4.8-1.3,9.1C39.8,45.4,38.3,43.5,37.5,40.9z M47.4,60.8c-1.9,0.5-3.9-1.2-5-2.6c-0.3-0.3-0.5-0.7-0.4-1.1
		c0.1-0.3,0.3-0.5,0.4-0.7c0.6-1,1.2-2,1.6-3.1c1-2.2,1.7-4.6,2.3-6.9c0.4-1.8,0.7-3.6,1-5.4c0.5,3,0.4,6.1-0.2,9
		c-0.2,1.1-0.5,2.3-0.9,3.4c-0.5,1.4-1.1,2.8-1.9,4C45.2,58.6,46.2,59.8,47.4,60.8z M72.5,40.9c-0.8,2.6-2.3,4.5-4.5,5.8
		c-1.3-4.3-1.5-7.2-1.3-9.2c0.3,0.2,0.8,0.3,1.2,0.3c0.9,0,1.7-0.5,2.1-1.3h3C73.1,37.8,73,39.3,72.5,40.9z"/>
</g>
</svg>
