<?xml version="1.0" encoding="utf-8"?>
<!-- Generator: Adobe Illustrator 21.0.0, SVG Export Plug-In . SVG Version: 6.00 Build 0)  -->
<svg version="1.1" id="Layer_1" xmlns="http://www.w3.org/2000/svg" xmlns:xlink="http://www.w3.org/1999/xlink" x="0px" y="0px"
	 viewBox="0 0 110 110" style="enable-background:new 0 0 110 110;" xml:space="preserve">
<style type="text/css">
	.st0{fill:#464646;}
</style>
<g>
	<g>
		<path class="st0" d="M80,41.2c-6.3-4.9-12.5-9.9-18.8-14.8c-2.7-2.1-4-4.8-3.5-8.2c0.1-0.9-0.4-1.1-1.3-0.9
			c-2.2,0.7-3.9,1.9-5,3.9c-1.4,2.9-3.7,3.9-6.5,3.8c-4.2-0.2-6.9,2.1-9.1,5.3c-2.5,3.4-3.7,7.4-4.6,11.4c-1,4.3-1.5,8.6-1.7,12.9
			c-0.2,3.3-0.1,6.6-0.2,9.9c0,0.2,0,0.3,0,0.4v8.9h41.6v-6.7c0,0,0.3-2.8-1.7-4.9c-2.1-2.1-4.3-4-4.3-4c-1.1-0.9-2-1.9-2.9-2.9
			l-7.7-9.9c0.5,0.4,0.9,0.8,1.4,1.1c2.4,1.8,4.9,2.6,7.8,1.8c1.7-0.4,3.4-0.2,4.9,0.8c0.8,0.6,1.8,1,2.7,1.5
			c2.2,1.1,4.9,0.6,6.5-1.3c1-1.2,1.9-2.3,2.9-3.5C81.8,44.5,81.5,42.4,80,41.2z"/>
	</g>
</g>
<g>
	<g>
		<path class="st0" d="M76.4,89.4l-4.7-9.5c-0.4-0.8-1.2-1.3-2.1-1.3H31.7c-0.9,0-1.7,0.5-2.1,1.3l-4.7,9.4
			c-0.4,0.7-0.3,1.6,0.1,2.3s1.2,1.1,2,1.1h47.2c0.8,0,1.6-0.4,2-1.1C76.7,91,76.7,90.1,76.4,89.4z"/>
	</g>
</g>
</svg>
