<?xml version="1.0" encoding="utf-8"?>
<!-- Generator: Adobe Illustrator 21.0.0, SVG Export Plug-In . SVG Version: 6.00 Build 0)  -->
<svg version="1.1" id="Layer_1" xmlns="http://www.w3.org/2000/svg" xmlns:xlink="http://www.w3.org/1999/xlink" x="0px" y="0px"
	 viewBox="0 0 110 110" style="enable-background:new 0 0 110 110;" xml:space="preserve">
<style type="text/css">
	.st0{fill:#464646;}
</style>
<g>
	<path class="st0" d="M43.3,60.8c-1.6-1.6-4.3-1.6-5.9,0l-2.6,2.6c0.1,1.8-0.5,3.5-1.8,4.8L20.1,81.1c-0.8,0.8-0.8,2.1,0,2.9
		l5.9,5.9c0.8,0.8,2.1,0.8,2.9,0L41.9,77c1.3-1.3,3-1.9,4.8-1.8l2.6-2.6c1.6-1.6,1.6-4.3,0-5.9L43.3,60.8z"/>
	<path class="st0" d="M61,28.4L37.3,52.1c-1.7,1.7-2.7,3.8-3,6l0.2-0.2c3.2-3.3,8.5-3.3,11.8,0l5.9,5.9c3.3,3.2,3.3,8.5,0,11.8
		L52,75.7c2.2-0.3,4.3-1.3,6-3L81.6,49L61,28.4z"/>
	<path class="st0" d="M87.5,43.1c4.1-4.1,4.1-10.6,0-14.7l-5.9-5.9c-4.1-4.1-10.6-4.1-14.7,0l-2.9,2.9l20.6,20.6L87.5,43.1z"/>
	<circle class="st0" cx="82.2" cy="73.6" r="8.3"/>
</g>
</svg>
