<?xml version="1.0" encoding="utf-8"?>
<!-- Generator: Adobe Illustrator 21.0.0, SVG Export Plug-In . SVG Version: 6.00 Build 0)  -->
<svg version="1.1" id="Layer_1" xmlns="http://www.w3.org/2000/svg" xmlns:xlink="http://www.w3.org/1999/xlink" x="0px" y="0px"
	 viewBox="0 0 110 110" style="enable-background:new 0 0 110 110;" xml:space="preserve">
<style type="text/css">
	.st0{fill:#FFFFFF;stroke:#464646;stroke-width:2;stroke-miterlimit:10;}
	.st1{fill:#464646;}
</style>
<path class="st0" d="M101.8,107.5H8.2c-3.2,0-5.7-2.6-5.7-5.7V8.2c0-3.2,2.6-5.7,5.7-5.7h93.5c3.2,0,5.7,2.6,5.7,5.7v93.5
	C107.5,104.9,104.9,107.5,101.8,107.5z"/>
<g>
	<g>
		<path class="st1" d="M80,67.6v-5.6l-22.5-14V32.5c0-2.3-1.9-4.2-4.2-4.2c-2.3,0-4.2,1.9-4.2,4.2v15.4l-22.5,14v5.6l22.5-7V76
			l-5.6,4.2v4.2l9.8-2.8l9.8,2.8v-4.2L57.5,76V60.5L80,67.6z"/>
	</g>
</g>
</svg>
