<?xml version="1.0" encoding="utf-8"?>
<!-- Generator: Adobe Illustrator 21.0.0, SVG Export Plug-In . SVG Version: 6.00 Build 0)  -->
<svg version="1.1" id="Layer_1" xmlns="http://www.w3.org/2000/svg" xmlns:xlink="http://www.w3.org/1999/xlink" x="0px" y="0px"
	 viewBox="0 0 110 110" style="enable-background:new 0 0 110 110;" xml:space="preserve">
<style type="text/css">
	.st0{fill:#464646;}
</style>
<path class="st0" d="M54,18.8c-19.5,0-35.2,15.8-35.2,35.2S34.5,89.2,54,89.2S89.2,73.5,89.2,54C89.2,34.5,73.5,18.8,54,18.8z
	 M55.3,28.9L67.5,24c1.4,0.6,2.7,1.4,4,2.2l0,0c1.3,0.8,2.5,1.7,3.6,2.7l0.1,0.1c0.5,0.4,1,0.9,1.5,1.4c0.1,0.1,0.1,0.1,0.2,0.2
	c0.5,0.5,1,1,1.5,1.5c0,0,0.1,0.1,0.1,0.1c0.4,0.5,0.8,1,1.2,1.5c0.1,0.1,0.2,0.2,0.3,0.4c0.4,0.5,0.8,1.1,1.2,1.7L78.9,46l-12,4
	l-11.6-9.3L55.3,28.9z M27.9,34c0.1-0.1,0.2-0.2,0.3-0.4c0.4-0.5,0.8-1,1.2-1.4c0,0,0.1-0.1,0.1-0.1c0.5-0.5,1-1,1.5-1.5
	c0.1-0.1,0.1-0.1,0.2-0.2c0.5-0.5,1-0.9,1.5-1.4l0.1-0.1c1.1-1,2.3-1.8,3.6-2.6l0,0c1.3-0.8,2.6-1.5,4-2.2l12.3,4.9v11.9L41.2,50
	l-12-4l-2.4-10.4C27.1,35.1,27.5,34.5,27.9,34z M26.5,72c-0.3-0.5-0.7-1.1-1-1.6l-0.1-0.1c-0.3-0.5-0.6-1.1-0.9-1.7l0,0
	C24,67.4,23.4,66.2,23,65v0c-0.2-0.6-0.4-1.2-0.6-1.8l-0.1-0.2c-0.2-0.6-0.3-1.1-0.4-1.7c0-0.1,0-0.1,0-0.2c-0.3-1.3-0.5-2.6-0.6-4
	l7.2-8.6l11.9,4l3.5,13.9l-5.7,7.6L26.5,72z M61.8,86c-0.6,0.1-1.2,0.3-1.8,0.4c-0.1,0-0.2,0-0.3,0c-0.5,0.1-1,0.2-1.6,0.2
	c-0.1,0-0.3,0-0.4,0.1c-0.5,0.1-1,0.1-1.5,0.1c-0.2,0-0.3,0-0.5,0c-0.6,0-1.3,0.1-1.9,0.1c-0.6,0-1.2,0-1.7,0c-0.1,0-0.1,0-0.2,0
	c-0.5,0-1-0.1-1.5-0.1l-0.1,0c-1.1-0.1-2.2-0.3-3.3-0.5l-7-10.9l5.6-7.5h16.4l5.7,7.5L61.8,86z M86.1,61c0,0.1,0,0.1,0,0.2
	c-0.1,0.6-0.3,1.2-0.4,1.7l-0.1,0.2c-0.2,0.6-0.4,1.2-0.6,1.8v0c-0.4,1.2-1,2.5-1.5,3.6l0,0c-0.3,0.6-0.6,1.1-0.9,1.7l-0.1,0.1
	c-0.3,0.5-0.6,1.1-1,1.6l-11.6,1.8l-5.7-7.6l3.5-13.9l11.9-4l7.2,8.6C86.6,58.4,86.4,59.7,86.1,61z"/>
</svg>
