<?xml version="1.0" encoding="utf-8"?>
<!-- Generator: Adobe Illustrator 21.0.0, SVG Export Plug-In . SVG Version: 6.00 Build 0)  -->
<svg version="1.1" id="Layer_1" xmlns="http://www.w3.org/2000/svg" xmlns:xlink="http://www.w3.org/1999/xlink" x="0px" y="0px"
	 viewBox="0 0 110 110" style="enable-background:new 0 0 110 110;" xml:space="preserve">
<style type="text/css">
	.st0{fill:#464646;}
</style>
<g>
	<path class="st0" d="M73.1,76.5c-7.1,0-14-1.1-20.7-3.4c-5-1.7-10.2-2.5-15.5-2.5H13.8c-2.2,0-4.1-0.8-5.6-2.2
		c-0.1,0.4-0.1,0.9-0.1,1.3V80c0,1.5,1.2,2.7,2.7,2.7h22.3c3.4,0,6.6-1.3,9-3.7c0,0,0,0,0,0c1-1,2.5-1.3,3.8-0.8l5.6,2.2
		c3.8,1.5,7.8,2.3,11.9,2.3h17.9c7.5,0,14-4,17.6-10c-4.2,2.4-9.1,3.8-14.1,3.8L73.1,76.5L73.1,76.5z"/>
	<path class="st0" d="M54.1,67.9c2.8,0.9,5.7,1.7,8.6,2.2l-4.1-2.2c-5.1-2.7-10.8-5.7-16.1-8.5c-3-1.6-6.6-1.5-9.5,0.3
		c-2.1,1.3-3.6,3.2-4.3,5.5h8.1C42.8,65.1,48.6,66,54.1,67.9z"/>
	<path class="st0" d="M90.3,50.8c-5,0-9.9-1.4-14.1-4.1l-4,8.1c-0.7,1.4-2.3,1.9-3.7,1.2c-1.4-0.7-1.9-2.3-1.2-3.7l4.3-8.7
		c-1.4-0.9-2.8-1.9-4.2-2.8l-4,8.1c-0.7,1.4-2.3,1.9-3.7,1.2c-1.4-0.7-1.9-2.3-1.2-3.7l4.3-8.7c-1.4-1-2.9-1.9-4.2-2.8l-4,8.1
		c-0.7,1.4-2.3,1.9-3.7,1.2c-1.4-0.7-1.9-2.3-1.2-3.7l4.3-8.7c-3.7-2.5-6.2-4.2-6.2-4.2c-1.1-0.7-2.5-0.6-3.5,0.3l-5.4,5.4
		c-2.5,2.5-6.4,2.5-8.9,0c-0.8-0.8-4.3-3.8-9.2-2.4c-3.3,0.9-5.8,3.5-6.6,6.8l-3,12.1c-0.1,0.2-0.1,0.4-0.1,0.7v11.8
		c0,1.5,1.2,2.7,2.7,2.7h9.3c0.8-4.2,3.3-8,7.1-10.2c4.5-2.7,10.2-2.9,14.9-0.4c5.3,2.8,11,5.8,16.1,8.5l7.9,4.2
		c4.7,2.5,10,3.8,15.3,3.8h0.5c6.1,0,11.8-2.4,16.1-6.7c0.5-0.5,0.8-1.2,0.8-1.9C101.9,56,96.7,50.8,90.3,50.8L90.3,50.8z"/>
</g>
</svg>
