<?xml version="1.0" encoding="utf-8"?>
<!-- Generator: Adobe Illustrator 21.0.0, SVG Export Plug-In . SVG Version: 6.00 Build 0)  -->
<svg version="1.1" id="Layer_1" xmlns="http://www.w3.org/2000/svg" xmlns:xlink="http://www.w3.org/1999/xlink" x="0px" y="0px"
	 viewBox="0 0 110 110" style="enable-background:new 0 0 110 110;" xml:space="preserve">
<style type="text/css">
	.st0{fill:#464646;}
</style>
<path class="st0" d="M87.4,20.6c-9.9-9.9-27.5-8.5-39.3,3.3c-5.1,5.1-8.5,11.5-9.5,18.2c-0.9,5.8-2.2,12.6-4.8,18.8l-2.4,5.9
	L15,83.2l9.8,9.8l16.4-16.4l5.9-2.4c6.3-2.6,13-3.9,18.8-4.8c6.6-1.1,13.1-4.4,18.2-9.5C95.9,48.1,97.3,30.5,87.4,20.6z M50,61.3
	l6.4-6.4l4.9,4.9l-4.6,4.6C54.2,63.8,51.9,62.8,50,61.3z M43.4,42l1.5,1.5L43,45.4C43.1,43.1,42.6,46.1,43.4,42z M87.4,46.7
	c-1.2,2.8-2.8,5.6-5,8.1L77.6,50l6.5-6.5L87.4,46.7z M87.4,40.2l1.9-1.9c-0.1,1.1-0.2,2.2-0.4,3.3L87.4,40.2z M74.3,46.8l-4.9-4.9
	l6.5-6.5l4.9,4.9L74.3,46.8z M66.1,38.6l-4.9-4.9l6.5-6.5l4.9,4.9L66.1,38.6z M62.9,41.9l-6.5,6.5l-4.9-4.9l6.5-6.5L62.9,41.9z
	 M71.1,23.9l4.6-4.6c2.4,0.6,4.7,1.6,6.7,3.2L76,28.8L71.1,23.9z M67.8,20.6l-1.4-1.4c1.1-0.2,2.2-0.4,3.3-0.4L67.8,20.6z
	 M64.5,23.9L58,30.4l-4.8-4.8c2.5-2.2,5.3-3.8,8.1-5L64.5,23.9z M54.7,33.7l-6.5,6.5L44.9,37c1.2-2.9,2.9-5.6,5-8.1L54.7,33.7z
	 M48.1,46.8l4.9,4.9L46.7,58c-1.5-2-2.5-4.2-3.1-6.7L48.1,46.8z M59.6,51.7l6.5-6.5l4.9,4.9l-6.5,6.5L59.6,51.7z M74.3,53.3l4.8,4.8
	c-2.5,2.1-5.2,3.8-8.1,5l-3.2-3.2L74.3,53.3z M88.7,32.4l-4.6,4.6L79.2,32l6.3-6.3C87.1,27.7,88.1,29.9,88.7,32.4z M45.4,69.9
	l-4.9,2l-4.4-4.4l2-4.9c0.9-2.1,1.5-4.2,2.1-6.3c1.1,2.5,2.6,4.8,4.6,6.8c2,2,4.3,3.5,6.8,4.6C49.6,68.3,47.5,69,45.4,69.9z
	 M62.6,65l1.9-1.9l1.5,1.5C61.9,65.4,64.9,64.9,62.6,65z"/>
<path class="st0" d="M82.4,69.9c-6.4,0-11.6,5.2-11.6,11.6S76,93,82.4,93C88.8,93,94,87.8,94,81.4S88.8,69.9,82.4,69.9z"/>
</svg>
