<svg xmlns="http://www.w3.org/2000/svg" viewBox="0 0 89.48 72"><title>Asset 9</title><g id="Layer_2" data-name="Layer 2"><g id="Layer_1-2" data-name="Layer 1"><path d="M89.37,64.93l-6.5-15.17a6.51,6.51,0,0,0-3.13-3.31,6.54,6.54,0,0,0,1.89-4.6V6.55A6.56,6.56,0,0,0,75.06,0H14.42A6.56,6.56,0,0,0,7.87,6.55v35.3a6.5,6.5,0,0,0,1.87,4.6,6.55,6.55,0,0,0-3.15,3.31L.11,64.93a1.31,1.31,0,0,0-.11.52A6.56,6.56,0,0,0,6.56,72H82.92a6.56,6.56,0,0,0,6.56-6.55A1.31,1.31,0,0,0,89.37,64.93ZM10.49,6.55a3.94,3.94,0,0,1,3.93-3.93H75.06A3.94,3.94,0,0,1,79,6.55v35.3a4,4,0,0,1-3.93,3.94H14.42a4,4,0,0,1-3.93-3.94ZM9,50.79a3.92,3.92,0,0,1,3.61-2.38H76.85a3.92,3.92,0,0,1,3.61,2.38l5.72,13.35H3.3Zm42.27,16v2.62H38.19V66.76Zm-48.44,0H35.57v2.62h-29a4,4,0,0,1-3.72-2.65Zm80.07,2.62h-29V66.76H86.63a4,4,0,0,1-3.71,2.62Z"/><path d="M10.39,58.89h5.24a1.31,1.31,0,1,0,0-2.62H12.37l1.13-2.62H76l1.13,2.62H20.87a1.31,1.31,0,1,0,0,2.62H79.09a1.31,1.31,0,0,0,1.21-1.82l-2.25-5.25a1.31,1.31,0,0,0-1.2-.79H12.63a1.31,1.31,0,0,0-1.2.79L9.18,57.07a1.31,1.31,0,0,0,1.21,1.82Z"/><path d="M58.86,24.21a12.86,12.86,0,0,0-.43-3.34l1.66-1.22-3.22-5.58L55,14.9a13,13,0,0,0-5.77-3.34L49,9.51H42.54l-.23,2.05a13.08,13.08,0,0,0-5.78,3.34l-1.89-.83-3.21,5.58,1.65,1.22a13.15,13.15,0,0,0,0,6.67l-1.65,1.22,3.21,5.58,1.89-.83a13.08,13.08,0,0,0,5.78,3.34l.23,2H49l.23-2A13,13,0,0,0,55,33.51l1.89.83,3.22-5.58-1.66-1.22a12.84,12.84,0,0,0,.43-3.33ZM48.23,35.32l-.6.13-.19,1.73H44.08l-.19-1.73-.6-.13a11.38,11.38,0,0,1-5.92-3.42L37,31.45l-1.59.69-1.68-2.9,1.39-1-.18-.59a11.47,11.47,0,0,1,0-6.83l.18-.59-1.39-1,1.68-2.9L37,17l.41-.45a11.38,11.38,0,0,1,5.92-3.42l.6-.13.19-1.73h3.36L47.63,13l.6.13a11.38,11.38,0,0,1,5.92,3.42l.41.45,1.59-.69,1.68,2.9-1.4,1,.19.59a11.47,11.47,0,0,1,0,6.83l-.19.59,1.4,1-1.68,2.9-1.59-.69-.41.45A11.38,11.38,0,0,1,48.23,35.32Z"/><path d="M42.34,22.23,41.11,21,38,24.24l3.22,3.15,1.2-1.23-2-1.94Z"/><path d="M49.18,22.23l1.94,2-2,1.94,1.2,1.23,3.22-3.15L50.41,21Z"/><path d="M43.7,29.84,46.15,18.2l1.68.36L45.38,30.19Z"/></g></g></svg>