<?xml version="1.0" encoding="iso-8859-1"?>
<!-- Generator: Adobe Illustrator 24.0.1, SVG Export Plug-In . SVG Version: 6.00 Build 0)  -->
<svg version="1.1" id="objects" xmlns="http://www.w3.org/2000/svg" xmlns:xlink="http://www.w3.org/1999/xlink" x="0px" y="0px"
	 viewBox="0 0 150 150" style="enable-background:new 0 0 150 150;" xml:space="preserve">
<g>
	<g>
		<path style="fill:#D2D2D6;" d="M113.593,95.069c-1.815,10.474-21.029,22.449-38.857,24.555c-17.84,2.095-21.797-9.95-21.797-9.95
			c6.133,4.306,14.675,4.667,20.866-0.512s13.046-6.494,13.046-6.494c-0.396-2.642-4.899-6.389-7.82-3.282
			c-2.909,3.107-5.225,9.775-14.233,8.949c-9.007-0.826-1.292-15.501-1.292-15.501c11.824,4.527,38.939-6.878,38.939-6.878
			c-9.775,1.35-16.537-4.492-16.537-4.492s10.45,0.093,13.127-7.937c1.815-5.458-3.433-10.311-3.433-10.311
			c0.384-2.793,10.287-9.391,10.287-9.391c-16.42,4.271-31.374,28.651-40.056,28.151c-8.682-0.489-9.368-15.28-9.368-15.28
			c-1.059,3.34-2.909,14.663-2.909,14.663c-19.353-5.9-27.883-14.279-11.963-22.774c15.932-8.495,47.574-10.73,47.574-10.73
			l1.385-2.944c22.402-12.615-1.164-34.645-1.164-34.645c18.841,3.363,26.638,19.784,27.371,21.39
			C103.794-0.835,75.573,5.682,75.573,5.682c28.675,15.07,12.475,34.703,12.475,34.703c-31.596-8.123-45.107,4.376-45.107,4.376
			c-10.869-3.736-8.251-25.474-8.251-25.474C11.858,42.654,15.047,72.923,22.704,87.889c7.646,14.977-2.351,12.115,2.281,17.165
			c4.632,5.062,13.814,1.606,14.209,5.074c0.396,3.456-3.968,5.214-3.677,7.588c0.291,2.362,16.257,11.812,16.257,11.812
			c4.341,8.298,11.591,11.882,11.591,11.882c-4.248-9.554,1.594-17.514,1.594-17.514c11.684,1.594,22.833-3.724,22.833-3.724
			c10.881,2.444,11.114,19.772,11.114,19.772c8.472-11.032,3.305-28.011,3.305-28.011c3.27-2.397,10.532-6.622,10.532-6.622
			c5.842-1.059,6.924,8.495,6.924,8.495C122.333,106.916,113.593,95.069,113.593,95.069z M47.399,104.123
			c0,0,8.984-6.517,7.925-15.722c0,0-7.925,15.722-20.645-7.588c0,0-6.075-5.155-9.368,1.478c0,0,0.64-8.856,9.485-3.631
			c8.844,5.225,20.435,15.268,25.661,4.585C61.224,81.663,60.27,102.063,47.399,104.123z M60.352,135.905
			c-3.549-3.561-6.017-15.199-6.017-15.199c4.702,3.689,6.529,2.618,6.715,2.49C57.768,129.783,60.165,135.474,60.352,135.905z
			 M100,134.508c0,0,1.769-11.323-4.958-17.34c0,0,4.248-2.479,5.667-4.248C100.71,112.921,104.609,125.664,100,134.508z"/>
		<path style="fill:#D2D2D6;" d="M104.958,125.664c0,0,9.203-3.541,14.158-10.621c0,0-8.317,3.719-13.627,3.364
			C106.199,122.123,104.958,125.664,104.958,125.664z"/>
		<path style="fill:#D2D2D6;" d="M118.212,95.649c0,0,4.446-5.031,9.402-8.038c4.955-3.009,8.671-6.726,0.884-11.858
			c-7.786-5.135-6.018-7.612-2.831-14.162c3.186-6.547-8.866-29.802-8.866-29.802s8.333,20.952,3.732,29.802
			c-4.602,8.852-2.832,14.692,3.894,16.639C131.153,80.176,118.898,89.705,118.212,95.649z"/>
		<path style="fill:#D2D2D6;" d="M89.383,122.122c0,0,1.06,14.159-10.266,16.99c-7.434,1.416-17.03-3.84-17.03-3.84
			s6.764,10.568,16.323,9.505c9.558-1.063,17.345-14.159,17.345-14.159S92.568,123.538,89.383,122.122z"/>
	</g>
</g>
</svg>
