<?xml version="1.0" encoding="iso-8859-1"?>
<!-- Generator: Adobe Illustrator 24.0.1, SVG Export Plug-In . SVG Version: 6.00 Build 0)  -->
<svg version="1.1" id="objects" xmlns="http://www.w3.org/2000/svg" xmlns:xlink="http://www.w3.org/1999/xlink" x="0px" y="0px"
	 viewBox="0 0 150 150" style="enable-background:new 0 0 150 150;" xml:space="preserve">
<g>
	<path style="fill:#D2D2D6;" d="M51.372,43.061c0.099-0.088,0.252-0.208,0.471-0.372C51.679,42.809,51.526,42.93,51.372,43.061z"/>
	<path style="fill:#D2D2D6;" d="M109.107,80.536c-12.145,2.979-18.781,3.932-25.023,4.797s-8.52,0.427-8.093-12.003
		c0,0-2.486,8.356-9.779,8.356S46.281,74.119,43.85,60.583C41.408,47.036,56.696,29.657,75.696,30.62
		c16.076,0.832,31.211,8.761,38.931,21.629c-2.574-6.976-6.078-13.098-10.48-15.058c-11.488-5.103-25.9-12.944-49.423-6.198
		C31.2,37.739,34.299,76.397,37.76,85.147c0.241,0.613,0.46,1.292,0.624,2.015c0.011,0,0.011,0.011,0.011,0.011
		c0.296,0.307,0.46,0.471,0.46,0.471c-0.066,0.252-0.131,0.504-0.197,0.745V88.4c1.588,8.323-0.186,21.421-0.745,25.111
		c0.318,0.449,0.668,0.832,1.051,1.183c4.501,0.701,20.161,3.472,21.41,7.841c0.263,0.909,0.361,1.982,0.405,3.154
		c0,0.011,0,0.011,0,0.011c0.788,2.015,0.953,3.614,0.953,3.614c-0.241-0.723-0.559-1.391-0.931-1.993
		c0.022,5.049-0.296,10.918,5.771,11.992c0,0,3.526,0.602,7.994,0.876c-2.53-0.591-8.378-2.672-8.093-9.122
		c0.361-8.202,5.782-15.365,5.782-15.365l-6.658,4.194l9.725-10.853l10.426,10.404l-9.243-17.588c0,0-0.942-3.307,2.464-2.661
		c3.417,0.635,9.495,6.198,20.796,7.294c0,0-9.812-4.041-14.587-9.122c0,0,22.647,3.077,25.549-10.13c0,0-11.324,0.164-18.989,0.646
		C91.738,87.884,107.355,82.475,109.107,80.536z M57.231,105.33c0.942-0.427,6.122-3.055,6.79-8.684c0,0-16.043,5.826-23.315-6.68
		l29.152-0.252C69.858,89.713,70.592,100.938,57.231,105.33z"/>
	<path style="fill:#D2D2D6;" d="M114.966,58.951c4.753,15.43-2.333,25.308-2.672,25.757c8.739-28.44-16.295-46.663-33.806-48.371
		c-15.014-1.457-24.301,4.6-26.644,6.352C81.061,19.626,110.136,43.247,114.966,58.951z"/>
	<path style="fill:#D2D2D6;" d="M118.908,111.594c0.186,5.837-2.738,9.845-16.35,13.251c-0.504,0.12-0.986,0.252-1.424,0.394
		c-11.619,3.45-4.534,9.122-10.853,12.977c-1.687,1.029-4.063,1.599-6.669,1.895c-1.577-0.186-2.694-0.438-2.694-0.438
		c7.534-0.482,8.75-3.154,10.458-9.232c1.697-6.078,9.725-7.294,19.942-9.484c10.207-2.19,6.078-21.64,3.888-22.614
		c-2.19-0.975-2.431-2.913-2.431-2.913l3.581-5.716c-0.383,0.997-0.646,1.807-0.81,2.497v0.011
		c-0.602,1.763-1.007,2.957-1.007,2.957s1.095,0.372,2.004,2.015C117.452,98.825,118.733,105.757,118.908,111.594z"/>
	<path style="fill:#D2D2D6;" d="M120.004,78.773c-0.339,1.161-1.194,3.767-2.125,6.549c-0.011,0.033-0.022,0.066-0.033,0.099
		c0,0.011,0,0.011,0,0.011h-0.011V85.42c1.172-3.833,1.84-7.523,2.048-11.05C120.135,76.616,120.168,78.204,120.004,78.773z"/>
	<g>
		<path style="fill:#D2D2D6;" d="M117.879,85.322c3.296-7.743,9.155-24.005,1.949-35.734c-9.801-15.934-26.809-21.026-45.502-23.217
			S32.295,38.286,24.991,53.355c-7.293,15.08,7.217,33.281,8.476,36.336c1.259,3.055-4.654,21.716-4.129,26.009
			c0.526,4.282,8.301,7.206,15.594,6.713c7.294-0.482,13.963,3.942,14.335,10.239c0.372,6.297,5.486,7.753,16.427,7.753
			c0,0-0.427-0.055-1.106-0.208c-0.011,0-0.022,0-0.022-0.011c-2.53-0.591-8.378-2.672-8.093-9.122
			c0.361-8.202,5.782-15.365,5.782-15.365l-6.658,4.194l9.725-10.853l10.426,10.404l-9.243-17.588c0,0-0.942-3.307,2.464-2.661
			c3.417,0.635,9.495,6.198,20.796,7.294c0,0-9.812-4.041-14.587-9.122c0,0,22.647,3.077,25.549-10.13
			c0,0-11.324,0.164-18.989,0.646c0,0,15.616-5.41,17.369-7.348c-12.145,2.979-18.781,3.932-25.023,4.797s-8.52,0.427-8.093-12.003
			c0,0-2.486,8.356-9.779,8.356S46.281,74.118,43.85,60.582c-2.442-13.547,12.846-30.926,31.846-29.963
			c16.076,0.832,31.211,8.761,38.931,21.629c3.778,6.286,5.782,13.744,5.257,22.121c-0.208,3.526-0.876,7.217-2.048,11.05v0.011
			h0.011c0.066-0.022,0.044-0.022,0-0.011C117.857,85.388,117.868,85.355,117.879,85.322z M45.787,120.344
			c-12.035-0.723-13.93-6.779-12.276-12.999c1.643-6.231,2.672-19.219,2.672-19.219s-6.439-6.439-9.9-21.136
			C23.02,53.103,38.811,39.743,40.596,38.286c-25.166,22.428-5.574,45.305-2.212,48.875c0.011,0,0.011,0.011,0.011,0.011
			c0.296,0.307,0.46,0.471,0.46,0.471c-0.066,0.252-0.131,0.504-0.197,0.745v0.011c-3.767,14.521-3.285,21.574-0.745,25.111
			c0.318,0.449,0.668,0.832,1.051,1.183c3.023,2.727,7.863,2.42,12.298,3.099c5.695,0.876,8.323,4.862,9.517,7.896
			c0,0.011,0,0.011,0,0.011c0.788,2.015,0.953,3.614,0.953,3.614c-0.241-0.723-0.559-1.391-0.931-1.993
			c0.011-0.011,0.011-0.011,0-0.011C56.684,120.409,45.787,120.344,45.787,120.344z M69.858,89.713c0,0,0.734,11.225-12.627,15.616
			c0.942-0.427,6.122-3.055,6.79-8.684c0,0-16.043,5.826-23.315-6.68L69.858,89.713z"/>
		<path style="fill:#D2D2D6;" d="M120.683,116.686c0.131,7.162-10.831,6.604-18.124,8.159c-0.504,0.109-0.986,0.241-1.424,0.394
			c-5.903,1.993-6.231,7.48-7.819,12.003c-1.15,3.296-6.417,3.242-9.703,2.869c-1.577-0.186-2.694-0.438-2.694-0.438
			c7.534-0.482,8.75-3.154,10.458-9.232c1.697-6.078,9.725-7.294,19.942-9.484c10.207-2.19,6.078-21.64,3.888-22.614
			c-2.19-0.975-2.431-2.913-2.431-2.913l3.581-5.716c-0.383,0.997-0.646,1.807-0.81,2.497v0.011
			c-0.876,3.658,0.986,3.318,1.599,3.932C117.879,96.886,120.551,109.524,120.683,116.686z"/>
		<path style="fill:#D2D2D6;" d="M51.372,43.061c0.099-0.088,0.252-0.208,0.471-0.372C51.679,42.809,51.526,42.93,51.372,43.061z"/>
		<path style="fill:#D2D2D6;" d="M112.294,84.709c8.739-28.44-16.295-46.663-33.806-48.371c-15.014-1.457-24.301,4.6-26.644,6.352
			c29.218-23.063,58.293,0.559,63.123,16.263C119.719,74.382,112.633,84.26,112.294,84.709z"/>
		<g>
			<path style="fill:#D2D2D6;" d="M32.011,89.516c-0.975-2.376-9.889-13.82-10.48-25.867c-0.011,0-0.022,0.011-0.033,0.011
				c-0.712,0.208-1.522,0.449-2.409,0.745c-2.946,0.975-6.636,2.464-9.779,4.512l9.484,31.737c0,0,6.385-0.208,12.013-1.259
				C31.803,94.828,32.536,90.797,32.011,89.516z M11.324,70.56c0,0,1.095-3.099,8.016-4.008c0,0-7.107,2.365-5.837,6.746
				c1.216,4.172,5.903,22.713,6.352,24.487L11.324,70.56z"/>
			<path style="fill:#D2D2D6;" d="M9.86,74.028c0,0-3.281,1.459-2.918,4.559c0.366,3.1,4.196,15.318,4.196,15.318
				s1.459,3.283,5.286,1.276L9.86,74.028z"/>
		</g>
		<g>
			<path style="fill:#D2D2D6;" d="M127.538,63.485c-0.942-0.318-1.774-0.58-2.431-0.767c0,0.044,0,0.099-0.011,0.142
				c-0.624,12.024-7.042,26.765-8.191,29.043c-1.643,3.274,1.829,1.095,2.19,6.921c5.629,1.051,10.984,1.829,10.984,1.829
				l9.484-31.737C136.343,66.803,131.119,64.712,127.538,63.485z M128.994,97.861c0.307-1.194,5.147-20.314,6.374-24.564
				c1.281-4.38-5.837-6.746-5.837-6.746c6.932,0.909,8.027,4.008,8.027,4.008L128.994,97.861z"/>
			<path style="fill:#D2D2D6;" d="M139.017,74.028c0,0,3.284,1.459,2.917,4.559c-0.364,3.1-4.193,15.318-4.193,15.318
				s-1.459,3.283-5.288,1.276L139.017,74.028z"/>
		</g>
		<path style="fill:#D2D2D6;" d="M73.31,9.594c-29.95,0-54.228,24.279-54.228,54.228c0,0.752,0.025,1.497,0.067,2.238
			c0.496-0.184,1.023-0.305,1.582-0.319c0.094,0,0.188-0.01,0.282-0.014c0.16-0.037,0.319-0.087,0.477-0.128
			c-0.002-0.194-0.015-0.386-0.015-0.581c0-28.63,23.205-51.836,51.834-51.836c28.607,0,51.797,23.168,51.836,51.765
			c0.799,0.193,1.578,0.43,2.337,0.706c0.027-0.608,0.057-1.215,0.057-1.832C127.54,33.873,103.26,9.594,73.31,9.594z"/>
	</g>
</g>
</svg>
