<?xml version="1.0" encoding="iso-8859-1"?>
<!-- Generator: Adobe Illustrator 24.0.1, SVG Export Plug-In . SVG Version: 6.00 Build 0)  -->
<svg version="1.1" id="objects" xmlns="http://www.w3.org/2000/svg" xmlns:xlink="http://www.w3.org/1999/xlink" x="0px" y="0px"
	 viewBox="0 0 150 150" style="enable-background:new 0 0 150 150;" xml:space="preserve">
<g>
	<g>
		<g>
			<path style="fill:#D2D2D6;" d="M53.331,114.998c-9.691-1.077-17.739-8.19-20.247-17.427c-2.448,16.244-5.306,43.945,2.824,48.207
				c2.58,1.353,5.48,0.983,8.492-0.655c-0.49-1.005-0.755-2.181-0.755-3.518v-15.113c0-4.645,3.103-7.418,8.3-7.418h5.446
				c2.445,0,4.419,0.621,5.832,1.754c0.169-0.463,0.461-0.861,0.839-1.163c1.139-2.389,2.197-4.839,3.162-7.308
				C63.019,114.588,58.188,115.539,53.331,114.998z"/>
			<path style="fill:#D2D2D6;" d="M111.061,114.998c-0.893,0.1-1.787,0.148-2.675,0.148c-3.944,0-7.791-0.985-11.226-2.811
				c0.89,2.277,1.861,4.536,2.9,6.748c0.035-0.001,0.067-0.01,0.103-0.01h6.712c0.982,0,1.84,0.532,2.302,1.324
				c0.47-0.81,1.343-1.324,2.301-1.324h7.211c0.883,0,1.708,0.438,2.203,1.167c0.495,0.731,0.597,1.659,0.27,2.479l-4.409,11.077
				l4.459,11.608c0.044,0.115,0.061,0.235,0.088,0.352c2.542,1.075,4.98,1.176,7.185,0.02c8.13-4.262,5.272-31.964,2.824-48.207
				C128.799,106.808,120.752,113.92,111.061,114.998z"/>
			<path style="fill:#D2D2D6;" d="M134.842,72.35c-0.08-0.383-0.271-0.726-0.538-0.992c-0.089-0.089-0.187-0.169-0.291-0.239
				c-0.314-0.211-0.692-0.335-1.099-0.335H31.478c-0.407,0-0.785,0.123-1.098,0.335c-0.105,0.07-0.202,0.151-0.291,0.239
				c-0.178,0.177-0.322,0.389-0.422,0.623c-0.1,0.235-0.156,0.493-0.157,0.764v5.833c0,0.29,0.045,0.571,0.128,0.836
				c0.083,0.265,0.204,0.515,0.356,0.745c0.305,0.46,0.735,0.839,1.238,1.096c0.335,0.172,0.703,0.29,1.086,0.342
				c1.979,0.269,3.308,2.208,2.79,4.148c-0.244,0.913-0.407,1.856-0.53,2.812c-0.14,1.083-0.222,2.185-0.196,3.312
				c0.017,0.708,0.068,1.423,0.154,2.144c0.074,0.618,0.175,1.229,0.3,1.83c0.503,2.405,1.409,4.666,2.644,6.708
				c1.235,2.042,2.799,3.865,4.616,5.394c1.363,1.147,2.869,2.129,4.486,2.915c0.539,0.262,1.09,0.502,1.652,0.719
				c1.125,0.434,2.294,0.777,3.499,1.018c0.602,0.121,1.214,0.216,1.833,0.285c1.663,0.185,3.294,0.182,4.874,0.008
				c0.79-0.087,1.567-0.216,2.329-0.385c1.905-0.423,3.716-1.096,5.396-1.984c0.672-0.355,1.323-0.745,1.951-1.166
				c0.106-0.071,0.207-0.148,0.311-0.221c1.755-1.223,3.325-2.695,4.649-4.372c1.168-1.48,2.148-3.117,2.902-4.873
				c0.302-0.702,0.567-1.424,0.794-2.163c0.227-0.738,0.416-1.494,0.564-2.263c0.148-0.77,0.255-1.554,0.32-2.35
				c0.064-0.796,0.086-1.605,0.061-2.423c-0.019-0.657-0.069-1.305-0.148-1.944c-0.244-1.982,1.32-3.721,3.317-3.721h2.618
				c0.25,0,0.493,0.027,0.726,0.079c0.467,0.103,0.896,0.303,1.265,0.576c0.185,0.137,0.355,0.292,0.507,0.462
				c0.305,0.341,0.54,0.745,0.683,1.186c0.072,0.221,0.121,0.451,0.144,0.689c0.023,0.237,0.021,0.481-0.009,0.729
				c-0.079,0.639-0.129,1.287-0.148,1.944c-0.036,1.227,0.03,2.433,0.19,3.608c0.107,0.784,0.255,1.554,0.444,2.309
				c0.565,2.264,1.485,4.387,2.699,6.306c0.405,0.64,0.842,1.257,1.309,1.849c0.467,0.592,0.965,1.159,1.491,1.699
				c0.525,0.54,1.079,1.052,1.658,1.535c0.482,0.402,0.985,0.778,1.501,1.137c0.104,0.073,0.205,0.15,0.311,0.221
				c0.628,0.421,1.279,0.811,1.951,1.166c1.68,0.888,3.491,1.561,5.396,1.984c0.762,0.169,1.539,0.298,2.329,0.385
				c0.79,0.087,1.592,0.131,2.406,0.13c0.813-0.001,1.637-0.046,2.468-0.138c1.238-0.138,2.445-0.381,3.612-0.721
				c7.587-2.21,13.484-8.5,15.118-16.317c0.126-0.601,0.226-1.212,0.3-1.83c0.086-0.721,0.137-1.436,0.154-2.144
				c0.027-1.127-0.056-2.228-0.196-3.311c-0.036-0.276-0.054-0.558-0.1-0.832c-0.113-0.672-0.257-1.333-0.43-1.982
				c-0.065-0.243-0.101-0.485-0.11-0.724c-0.028-0.718,0.182-1.406,0.568-1.976c0.258-0.38,0.593-0.709,0.988-0.958
				c0.395-0.25,0.849-0.421,1.344-0.489c1.535-0.208,2.808-1.47,2.808-3.019v-5.833C134.882,72.61,134.868,72.477,134.842,72.35z
				 M122.998,91.902c0,7.982-6.471,14.453-14.453,14.453c-5.489,0-10.264-3.06-12.711-7.568c-1.111-2.047-1.742-4.392-1.742-6.884
				c0-7.982,6.471-14.453,14.453-14.453c6.762,0,12.423,4.651,14.001,10.923C122.83,89.504,122.998,90.682,122.998,91.902z
				 M41.681,88.308c1.6-6.24,7.245-10.859,13.984-10.859c7.982,0,14.453,6.471,14.453,14.453c0,2.469-0.622,4.792-1.713,6.825
				c-2.437,4.54-7.226,7.628-12.739,7.628c-7.982,0-14.453-6.471-14.453-14.453C41.212,90.659,41.386,89.459,41.681,88.308z"/>
			<circle style="fill:#D2D2D6;" cx="108.545" cy="84.711" r="4.335"/>
			<circle style="fill:#D2D2D6;" cx="108.545" cy="99.093" r="4.335"/>
			<path style="fill:#D2D2D6;" d="M111.402,91.902c0,0.269,0.032,0.529,0.079,0.784c0.37,2.018,2.13,3.55,4.256,3.55
				c2.394,0,4.335-1.941,4.335-4.335c0-0.848-0.253-1.634-0.674-2.302c-0.767-1.218-2.115-2.033-3.661-2.033
				C113.342,87.567,111.402,89.508,111.402,91.902z"/>
			<path style="fill:#D2D2D6;" d="M105.689,91.902c0-2.394-1.941-4.335-4.335-4.335c-2.394,0-4.335,1.941-4.335,4.335
				c0,2.394,1.941,4.335,4.335,4.335C103.748,96.237,105.689,94.296,105.689,91.902z"/>
			<path style="fill:#D2D2D6;" d="M52.419,102.585c0,0.173,0.071,0.33,0.185,0.444c0.114,0.114,0.271,0.185,0.444,0.185h5.236
				c0.173,0,0.33-0.071,0.444-0.185c0.114-0.114,0.184-0.271,0.184-0.444v-7.436h0.315h7.121c0.346,0,0.628-0.283,0.628-0.628
				v-5.236c0-0.346-0.283-0.628-0.628-0.628h-7.436V81.22c0-0.173-0.071-0.33-0.184-0.444c-0.114-0.114-0.271-0.185-0.444-0.185
				h-5.236c-0.086,0-0.169,0.018-0.244,0.05c-0.225,0.096-0.384,0.32-0.384,0.579v7.436h-7.436c-0.346,0-0.628,0.283-0.628,0.628
				v0.067v5.17c0,0.346,0.283,0.628,0.628,0.628h7.436V102.585z"/>
		</g>
		<path style="fill:#D2D2D6;" d="M133.489,21.579l-6.779,3.685c-2.349-14.739-15.554-18.112-15.554-18.112l0.471,10.705
			C90.639-0.381,67.342,3.811,67.342,3.811l4.708,5.902C58.858,3.99,32.945,8.893,32.945,8.893l8.481,3.161
			C13.628,20.952,7.974,37.956,7.974,37.956c0.081,0.082,0.162,0.158,0.243,0.24c1.36-0.231,8.645-1.429,13.557-1.429
			c0,0-5.705,1.463-10.353,4.529c5.973,5.563,11.968,9.868,17.891,13.121c-0.618,6.943,0.133,12.304,0.556,14.57
			c0.142,0.763,0.249,1.195,0.249,1.195c0.212-0.502,0.438-0.981,0.667-1.457c2.174-4.536,5.026-7.923,7.346-10.18
			c38.953,15.157,72.554-11.171,72.554-11.171l-4.24-5.732c18.998,6.971,26.354,23.793,27.678,27.217
			c0.154,0.397,0.231,0.624,0.231,0.624c0.059-0.16,0.11-0.333,0.167-0.497C139.975,53.25,133.489,21.579,133.489,21.579z"/>
	</g>
	<g>
		<path style="fill:#D2D2D6;" d="M56.318,130.17v-3.185c0-0.575-0.307-0.843-0.96-0.843h-1.381c-0.652,0-0.96,0.268-0.96,0.843
			v14.119c0,0.575,0.307,0.843,0.96,0.843h1.381c0.652,0,0.96-0.268,0.96-0.843v-4.105h-1.919v-4.258h8.632v8.862
			c0,2.878-1.535,4.758-5.639,4.758h-5.448c-4.105,0-5.639-1.88-5.639-4.758v-15.115c0-2.878,1.535-4.758,5.639-4.758h5.448
			c4.105,0,5.639,1.88,5.639,4.758v3.683H56.318z"/>
		<path style="fill:#D2D2D6;" d="M80.83,141.564v4.796H65.715v-24.631h14.77v4.796h-8.056v5.026h6.944v4.796h-6.944v5.218H80.83z"/>
		<path style="fill:#D2D2D6;" d="M98.053,141.564v4.796H82.938v-24.631h14.77v4.796h-8.056v5.026h6.944v4.796h-6.944v5.218H98.053z"
			/>
		<path style="fill:#D2D2D6;" d="M100.161,121.729h6.714v24.631h-6.714V121.729z M118.729,146.36h-7.212l-4.604-12.584l4.566-12.047
			h7.213l-4.796,12.047L118.729,146.36z"/>
	</g>
</g>
</svg>
