<?xml version="1.0" encoding="iso-8859-1"?>
<!-- Generator: Adobe Illustrator 24.0.1, SVG Export Plug-In . SVG Version: 6.00 Build 0)  -->
<svg version="1.1" id="objects" xmlns="http://www.w3.org/2000/svg" xmlns:xlink="http://www.w3.org/1999/xlink" x="0px" y="0px"
	 viewBox="0 0 150 150" style="enable-background:new 0 0 150 150;" xml:space="preserve">
<g>
	<g>
		<g>
			<g>
				<g>
					<g>
						<path style="fill:#D2D2D6;" d="M32.484,124.941c-0.562,0-1.124,0-1.679-0.008c-0.57,0-1.124,0-1.679-0.008
							c-4.991-0.023-9.679-0.045-13.957-0.076c-0.03-0.007-0.061-0.023-0.091-0.03l-3.366-1.124l-0.828-0.281
							c-0.243-0.076-0.479-0.19-0.707-0.296c-0.456-0.243-0.874-0.539-1.246-0.889c-0.744-0.699-1.269-1.595-1.542-2.545
							c-0.137-0.479-0.205-0.972-0.198-1.466l0.038-1.755l0.061-7.088l-0.068-7.081c-0.061-2.363-0.084-4.726-0.19-7.088
							c-0.046-1.178-0.076-2.363-0.137-3.54l-0.099-1.77c-0.03-0.616-0.053-1.125,0.008-1.664c0.22-2.165,1.77-4.201,3.989-5.068
							c-1.17,0.205-2.31,0.76-3.214,1.618c-0.896,0.859-1.565,1.991-1.869,3.244c-0.16,0.623-0.182,1.299-0.213,1.869l-0.091,1.77
							c-0.069,1.178-0.091,2.363-0.144,3.54c-0.106,2.363-0.129,4.726-0.19,7.088l-0.061,7.081l0.061,7.088l0.045,1.793
							c0.015,0.684,0.152,1.367,0.365,2.013c0.425,1.307,1.231,2.469,2.287,3.305c0.524,0.425,1.102,0.775,1.717,1.033
							c0.197,0.084,0.403,0.16,0.608,0.22c-1.846-0.008-3.586-0.015-5.219-0.023c-1.588-1.801-2.522-4.163-2.522-6.693V89.263
							c0-3.7,2.013-7.043,5.128-8.806c0.714-0.41,1.481-0.729,2.302-0.957l7.256-2.006l5.181-1.436l4.042-1.124l1.694-0.464
							l1.725-0.479l1.535-0.425l0.714,9.77h-3.989c-0.106,1.276-0.16,2.568-0.16,3.867v17.269
							C27.781,111.539,29.407,118.59,32.484,124.941z"/>
						<path style="fill:#D2D2D6;" d="M33.988,111.349c-1.003-2.165-1.557-4.574-1.557-7.104c0-1.656,0.236-3.252,0.684-4.764
							L33.988,111.349z"/>
					</g>
				</g>
				<g>
					<g>
						<path style="fill:#D2D2D6;" d="M17.037,77.221l-1.198-12.079c-0.093-0.94-0.843-1.681-1.784-1.764
							c-1.189-0.104-2.85-0.25-4.341-0.381c-1.122-0.098-2.097,0.76-2.139,1.885c-0.129,3.454-0.388,10.403-0.532,14.26
							c-0.05,1.347,1.237,2.341,2.529,1.958c2.021-0.599,4.042-1.198,6.063-1.796C16.542,79.037,17.13,78.162,17.037,77.221z"/>
					</g>
				</g>
				<g>
					<g>
						<path style="fill:#D2D2D6;" d="M13.058,75.804c0.648-7.684,1.28-15.37,1.871-23.059c0.417-5.421,1.885-10.562,4.716-15.238
							c5.587-9.228,15.52-15.326,26.287-16.077c0.787-0.055,1.576-0.082,2.364-0.082c0,0,36.991,0,36.991,0v-4.424
							c0,0-36.983,0-36.991,0c-10.653,0-20.967,4.607-28.108,12.506c-8.327,9.212-9.441,19.895-10.325,31.744
							c-0.364,4.88-0.818,9.754-1.229,14.63H13.058z"/>
					</g>
				</g>
			</g>
			<g>
				<g>
					<g>
						<path style="fill:#D2D2D6;" d="M116.967,104.245c0,2.53-0.555,4.938-1.557,7.104l0.874-11.867
							C116.732,100.994,116.967,102.589,116.967,104.245z"/>
						<path style="fill:#D2D2D6;" d="M141.919,80.458c0,0-0.004,0-0.004-0.004c-0.709-0.407-1.479-0.724-2.293-0.954l-7.261-2.014
							h-0.004l-5.292-1.456l-3.927-1.094l-1.694-0.464l-1.728-0.479l-1.535-0.426l-0.713,9.77h3.991
							c0.106,1.279,0.158,2.569,0.158,3.866v17.273c0,7.231-1.701,14.44-4.923,20.905c0.562,0,1.124,0.008,1.686,0.008
							c0.562,0.008,1.124,0.008,1.679,0.008c4.33,0.023,8.495,0.045,12.414,0.068c0.615-0.211,1.23-0.43,1.845-0.645l3.369-1.124
							l0.826-0.279c0.245-0.079,0.479-0.192,0.709-0.298c0.453-0.241,0.871-0.539,1.245-0.89c0.743-0.698,1.267-1.596,1.543-2.542
							c0.136-0.479,0.204-0.973,0.196-1.467l-0.038-1.754l-0.06-7.088l0.068-7.084c0.06-2.361,0.083-4.723,0.189-7.088
							c0.045-1.177,0.075-2.361,0.147-3.538l0.091-1.773c0.03-0.615,0.06-1.124-0.008-1.663c-0.223-2.165-1.765-4.198-3.991-5.066
							c1.173,0.204,2.312,0.758,3.214,1.618c0.898,0.86,1.565,1.992,1.871,3.244c0.158,0.622,0.181,1.298,0.211,1.867l0.091,1.773
							c0.068,1.177,0.102,2.361,0.147,3.538c0.106,2.365,0.128,4.727,0.189,7.088l0.06,7.084l-0.06,7.088l-0.045,1.792
							c-0.015,0.683-0.143,1.369-0.366,2.014c-0.426,1.305-1.23,2.467-2.286,3.304c-0.524,0.426-1.101,0.773-1.716,1.034
							c-0.313,0.128-0.622,0.241-0.943,0.317c-0.321,0.094-0.585,0.14-0.883,0.207l-1.603,0.358c2.576,0.008,5.032,0.023,7.348,0.03
							c1.999-1.871,3.214-4.53,3.214-7.409V89.262C147.046,85.562,145.031,82.22,141.919,80.458z"/>
					</g>
				</g>
				<g>
					<g>
						<path style="fill:#D2D2D6;" d="M132.362,77.221l1.198-12.079c0.093-0.94,0.843-1.681,1.784-1.764
							c1.189-0.104,2.85-0.25,4.341-0.381c1.122-0.098,2.097,0.76,2.139,1.885c0.129,3.454,0.388,10.403,0.532,14.26
							c0.05,1.347-1.237,2.341-2.529,1.958c-2.021-0.599-4.042-1.198-6.063-1.796C132.857,79.037,132.269,78.162,132.362,77.221z"/>
					</g>
				</g>
				<g>
					<g>
						<path style="fill:#D2D2D6;" d="M136.341,75.804c-0.648-7.684-1.28-15.37-1.871-23.059c-0.417-5.421-1.885-10.562-4.716-15.238
							c-5.587-9.228-15.52-15.326-26.287-16.077c-0.787-0.055-1.575-0.082-2.364-0.082H64.112v-4.424c0,0,36.983,0,36.991,0
							c10.653,0,20.967,4.607,28.108,12.506c8.327,9.212,9.441,19.895,10.325,31.744c0.364,4.88,0.818,9.754,1.229,14.63H136.341z"
							/>
					</g>
				</g>
			</g>
		</g>
		<g>
			<path style="fill:#D2D2D6;" d="M49.442,87.244c-7.725,0-14.27,5.172-16.326,12.237c-0.449,1.513-0.687,3.108-0.687,4.764
				c0,2.531,0.554,4.938,1.558,7.103c2.69,5.843,8.608,9.909,15.454,9.909c7.703,0,14.229-5.153,16.303-12.195
				c0.456-1.528,0.698-3.146,0.698-4.817C66.443,94.871,58.815,87.244,49.442,87.244z M53.218,113.566c0,1.211-0.973,2.18-2.18,2.18
				h-3.199c-1.2,0-2.173-0.969-2.173-2.18v-5.477h-5.485c-1.203,0-2.173-0.973-2.173-2.18v-3.199c0-1.2,0.969-2.173,2.173-2.173
				h5.485v-5.485c0-1.2,0.973-2.173,2.173-2.173h3.199c1.207,0,2.18,0.973,2.18,2.173v5.485h5.477c1.207,0,2.18,0.973,2.18,2.173
				v3.199c0,1.207-0.973,2.18-2.18,2.18h-5.477V113.566z"/>
			<path style="fill:#D2D2D6;" d="M80.674,104.245c0,1.664,0.213,3.274,0.608,4.817H68.116c0.395-1.542,0.608-3.153,0.608-4.817
				c0-8.342-5.318-15.461-12.748-18.143h37.455C86,88.785,80.674,95.903,80.674,104.245z"/>
			<path style="fill:#D2D2D6;" d="M116.284,99.481c-2.022-6.922-8.344-12.033-15.873-12.222c-0.151-0.015-0.302-0.015-0.453-0.015
				c-9.378,0-17.005,7.627-17.005,17.001c0,1.671,0.245,3.289,0.698,4.817c2.075,7.043,8.6,12.195,16.307,12.195
				c6.843,0,12.761-4.066,15.451-9.909c1.003-2.165,1.558-4.572,1.558-7.103C116.967,102.589,116.733,100.994,116.284,99.481z
				 M100.411,91.454c2.622,0,4.749,2.124,4.749,4.749c0,2.622-2.128,4.745-4.749,4.745c-2.622,0-4.749-2.124-4.749-4.745
				C95.662,93.578,97.789,91.454,100.411,91.454z M86.782,104.313c0-2.622,2.127-4.749,4.749-4.749c2.622,0,4.749,2.128,4.749,4.749
				c0,2.622-2.127,4.749-4.749,4.749C88.909,109.062,86.782,106.935,86.782,104.313z M100.411,117.04
				c-2.622,0-4.749-2.128-4.749-4.749c0-1.249,0.483-2.384,1.271-3.229c0.864-0.935,2.105-1.52,3.478-1.52
				c2.622,0,4.749,2.127,4.749,4.749C105.16,114.913,103.032,117.04,100.411,117.04z M108.389,109.062
				c-2.622,0-4.749-2.128-4.749-4.749c0-2.622,2.127-4.749,4.749-4.749c2.622,0,4.749,2.128,4.749,4.749
				C113.138,106.935,111.01,109.062,108.389,109.062z"/>
			<path style="fill:#D2D2D6;" d="M124.511,83.336c-0.226-2.878-0.69-5.681-1.373-8.401c-5.485-21.637-25.126-37.691-48.434-37.691
				c-23.316,0-42.957,16.054-48.442,37.691c-0.683,2.72-1.147,5.522-1.377,8.401c-0.091,1.279-0.143,2.569-0.143,3.866v17.273
				c0,7.02,1.505,14.04,4.383,20.449c0.554,0.008,1.109,0.008,1.679,0.008c0.554,0.008,1.117,0.008,1.679,0.008
				c-3.074-6.349-4.7-13.399-4.7-20.464V87.203c0-1.298,0.053-2.588,0.158-3.866c0.264-3.221,0.853-6.341,1.739-9.344
				c5.715-19.464,23.734-33.712,45.024-33.712c21.279,0,39.302,14.247,45.013,33.712c0.89,3.003,1.475,6.122,1.743,9.344
				c0.106,1.279,0.158,2.569,0.158,3.866v17.273c0,7.231-1.701,14.44-4.923,20.905c0.562,0,1.124,0.008,1.686,0.008
				c0.562,0.008,1.124,0.008,1.679,0.008c3.018-6.533,4.594-13.727,4.594-20.92V87.203
				C124.654,85.905,124.601,84.615,124.511,83.336z"/>
		</g>
		<g>
			<g>
				<g>
					<path style="fill:#D2D2D6;" d="M127.391,83.337H96.082V60.628c0-2.91-2.355-5.265-5.265-5.265H58.581
						c-2.91,0-5.265,2.355-5.265,5.265v22.709H22.007l0.213-7.279l0.767-25.862C23.359,37.494,33.768,27.39,46.478,27.39h55.955
						c12.574,0,22.921,9.899,23.476,22.458l1.155,26.181L127.391,83.337z"/>
				</g>
			</g>
			<g>
				<g>
					<path style="fill:#D2D2D6;" d="M46.858,65.543v17.854h58.302V65.543H46.858z M49.136,81.118V67.821h53.745v13.297H49.136z"/>
				</g>
			</g>
			<g>
				<g>
					<path style="fill:#D2D2D6;" d="M84.937,67.821c-1.573-1.418-3.655-2.278-5.941-2.278H47.405c-0.181,0-0.366,0.008-0.547,0.023
						c-4.666,0.283-8.348,4.149-8.348,8.876c0,4.734,3.682,8.6,8.348,8.872c0.181,0.015,0.366,0.023,0.547,0.023h31.592
						c2.256,0,4.308-0.834,5.873-2.218c1.852-1.626,3.021-4.017,3.021-6.677C87.891,71.812,86.752,69.451,84.937,67.821z
						 M78.996,81.058H47.405c-0.181,0-0.366-0.008-0.547-0.023c-3.387-0.283-6.069-3.131-6.069-6.594
						c0-3.467,2.682-6.315,6.069-6.594c0.181-0.019,0.366-0.026,0.547-0.026h31.592c3.648,0,6.616,2.972,6.616,6.62
						C85.613,78.089,82.644,81.058,78.996,81.058z"/>
				</g>
			</g>
			<g>
				<g>
					<path style="fill:#D2D2D6;" d="M73.472,74.441c0,0.995-0.813,1.8-1.808,1.8s-1.801-0.805-1.801-1.8
						c0-0.995,0.805-1.801,1.801-1.801S73.472,73.445,73.472,74.441z"/>
				</g>
			</g>
			<g>
				<g>
					<path style="fill:#D2D2D6;" d="M80.849,74.441c0,0.995-0.805,1.8-1.801,1.8c-0.995,0-1.801-0.805-1.801-1.8
						c0-0.995,0.805-1.801,1.801-1.801C80.044,72.64,80.849,73.445,80.849,74.441z"/>
				</g>
			</g>
			<g>
				<g>
					<path style="fill:#D2D2D6;" d="M66.087,74.441c0,0.995-0.805,1.8-1.8,1.8c-0.995,0-1.801-0.805-1.801-1.8
						c0-0.995,0.805-1.801,1.801-1.801C65.282,72.64,66.087,73.445,66.087,74.441z"/>
				</g>
			</g>
		</g>
		<g>
			<g>
				<path style="fill:#D2D2D6;" d="M66.444,104.245c0,1.671-0.243,3.29-0.699,4.817H53.217v-0.972h5.478
					c1.208,0,2.181-0.972,2.181-2.18v-3.199c0-1.2-0.972-2.173-2.181-2.173h-5.478v-5.485c0-1.2-0.973-2.173-2.18-2.173h-1.596
					v-5.637C58.816,87.242,66.444,94.87,66.444,104.245z"/>
				<path style="fill:#D2D2D6;" d="M80.674,104.245c0,1.664,0.213,3.274,0.608,4.817H68.116c0.395-1.542,0.608-3.153,0.608-4.817
					c0-8.342-5.318-15.461-12.748-18.143h37.455C86,88.785,80.674,95.903,80.674,104.245z"/>
				<path style="fill:#D2D2D6;" d="M95.662,96.203c0,2.622,2.127,4.745,4.749,4.745v6.594c-1.373,0-2.614,0.585-3.478,1.52h-5.402
					c2.622,0,4.749-2.128,4.749-4.749c0-2.622-2.127-4.749-4.749-4.749c-2.622,0-4.749,2.128-4.749,4.749
					c0,2.622,2.127,4.749,4.749,4.749h-7.88c-0.453-1.528-0.698-3.146-0.698-4.817c0-9.374,7.627-17.001,17.005-17.001
					c0.151,0,0.302,0,0.453,0.015v4.195C97.789,91.454,95.662,93.578,95.662,96.203z"/>
			</g>
			<g>
				<g>
					<g>
						<path style="fill:#D2D2D6;" d="M116.284,99.481c-2.022-6.922-8.344-12.033-15.873-12.222
							c-0.151-0.015-0.302-0.015-0.453-0.015c-9.378,0-17.005,7.627-17.005,17.001c0,1.671,0.245,3.289,0.698,4.817
							c2.075,7.043,8.6,12.195,16.307,12.195c6.843,0,12.761-4.066,15.451-9.909c1.003-2.165,1.558-4.572,1.558-7.103
							C116.967,102.589,116.733,100.994,116.284,99.481z M100.411,91.454c2.622,0,4.749,2.124,4.749,4.749
							c0,2.622-2.128,4.745-4.749,4.745c-2.622,0-4.749-2.124-4.749-4.745C95.662,93.578,97.789,91.454,100.411,91.454z
							 M86.782,104.313c0-2.622,2.127-4.749,4.749-4.749c2.622,0,4.749,2.128,4.749,4.749c0,2.622-2.127,4.749-4.749,4.749
							C88.909,109.062,86.782,106.935,86.782,104.313z M100.411,117.04c-2.622,0-4.749-2.128-4.749-4.749
							c0-1.249,0.483-2.384,1.271-3.229c0.864-0.935,2.105-1.52,3.478-1.52c2.622,0,4.749,2.127,4.749,4.749
							C105.16,114.913,103.032,117.04,100.411,117.04z M108.389,109.062c-2.622,0-4.749-2.128-4.749-4.749
							c0-2.622,2.127-4.749,4.749-4.749c2.622,0,4.749,2.128,4.749,4.749C113.138,106.935,111.01,109.062,108.389,109.062z"/>
					</g>
				</g>
				<g>
					<g>
						<path style="fill:#D2D2D6;" d="M49.442,87.244c-7.725,0-14.27,5.172-16.326,12.237c-0.449,1.513-0.687,3.108-0.687,4.764
							c0,2.531,0.554,4.938,1.558,7.103c2.69,5.843,8.608,9.909,15.454,9.909c7.703,0,14.229-5.153,16.303-12.195
							c0.456-1.528,0.698-3.146,0.698-4.817C66.443,94.871,58.815,87.244,49.442,87.244z M53.218,113.566
							c0,1.211-0.973,2.18-2.18,2.18h-3.199c-1.2,0-2.173-0.969-2.173-2.18v-5.477h-5.485c-1.203,0-2.173-0.973-2.173-2.18v-3.199
							c0-1.2,0.969-2.173,2.173-2.173h5.485v-5.485c0-1.2,0.973-2.173,2.173-2.173h3.199c1.207,0,2.18,0.973,2.18,2.173v5.485h5.477
							c1.207,0,2.18,0.973,2.18,2.173v3.199c0,1.207-0.973,2.18-2.18,2.18h-5.477V113.566z"/>
					</g>
				</g>
			</g>
		</g>
	</g>
</g>
</svg>
