<?xml version="1.0" encoding="iso-8859-1"?>
<!-- Generator: Adobe Illustrator 24.0.1, SVG Export Plug-In . SVG Version: 6.00 Build 0)  -->
<svg version="1.1" id="objects" xmlns="http://www.w3.org/2000/svg" xmlns:xlink="http://www.w3.org/1999/xlink" x="0px" y="0px"
	 viewBox="0 0 150 150" style="enable-background:new 0 0 150 150;" xml:space="preserve">
<g>
	<g>
		<path style="fill:#D2D2D6;" d="M40.465,89.916l-1.32-14.123l0.551,0.486c0.051-1.475,0.286-2.904,0.711-4.253l-2.529-17.553
			c-0.444-3.082-3.303-5.221-6.385-4.776l-2.298,0.331c-1.567,0.226-2.769,1.388-3.119,2.839c-0.218,0.902-0.689,1.708-1.406,2.296
			c-1.021,0.838-2.42,2.367-3.443,4.955c0.866,2.041,1.84,3.33,2.398,3.957c0.181-0.034,0.366-0.056,0.556-0.056
			c1.653,0,2.999,1.345,2.999,2.999c0,1.654-1.345,2.999-2.999,2.999c-0.449,0-0.871-0.106-1.254-0.284
			c0.02,0.55,0.064,1.308,0.158,2.222c0.112,0.951,0.247,2.065,0.497,3.24c0.105,0.592,0.265,1.191,0.415,1.804
			c0.149,0.613,0.361,1.217,0.541,1.834c0.228,0.597,0.433,1.207,0.685,1.785c0.276,0.566,0.492,1.155,0.803,1.67
			c0.308,0.515,0.549,1.052,0.887,1.49c0.326,0.444,0.591,0.901,0.914,1.259c0.318,0.364,0.609,0.698,0.867,0.994
			c0.268,0.286,0.54,0.497,0.745,0.692c0.421,0.378,0.662,0.594,0.662,0.594s-0.251-0.204-0.69-0.561
			c-0.214-0.184-0.499-0.384-0.782-0.659c-0.274-0.285-0.583-0.607-0.921-0.959c-0.344-0.347-0.633-0.793-0.985-1.228
			c-0.364-0.429-0.633-0.958-0.972-1.467c-0.341-0.51-0.588-1.093-0.897-1.657c-0.284-0.576-0.522-1.184-0.784-1.783
			c-0.212-0.616-0.458-1.224-0.64-1.84c-0.183-0.616-0.376-1.22-0.511-1.817c-0.312-1.186-0.505-2.314-0.666-3.282
			c-0.234-1.535-0.308-2.68-0.329-3.092c-0.456-0.526-0.742-1.204-0.742-1.953c0-0.209,0.022-0.413,0.063-0.611
			c-0.324-0.35-0.735-0.848-1.178-1.477c-0.124,1.044-0.197,2.173-0.188,3.418l-1.856,0.268c-1.692,0.244-2.866,1.813-2.622,3.505
			l0.568,3.939c0.244,1.692,1.813,2.866,3.505,2.622l1.856-0.268c2.201,7.689,6.148,10.376,8.318,11.296
			c0.854,0.362,1.533,1.002,1.997,1.806c0.746,1.293,2.226,2.069,3.794,1.843l2.298-0.331c1.429-0.206,2.639-0.945,3.499-1.97
			c0.435-0.519,0.769-1.112,0.996-1.757l-0.62,0.216L40.465,89.916z M32.007,85.724c-0.158-0.814-0.424-1.971-0.671-3.37
			c-0.246-1.399-0.566-3.027-0.848-4.779c-0.295-1.751-0.572-3.624-0.852-5.496c-0.26-1.875-0.522-3.75-0.734-5.513
			c-0.222-1.761-0.376-3.413-0.536-4.824c-0.158-1.412-0.23-2.597-0.309-3.422c-0.058-0.829-0.09-1.302-0.09-1.302
			s0.102,0.463,0.281,1.275c0.158,0.814,0.423,1.971,0.67,3.37c0.246,1.399,0.564,3.027,0.848,4.779
			c0.295,1.751,0.572,3.624,0.853,5.496c0.26,1.875,0.523,3.75,0.735,5.513c0.224,1.761,0.376,3.413,0.536,4.824
			c0.159,1.412,0.23,2.597,0.308,3.422c0.057,0.829,0.09,1.302,0.09,1.302S32.186,86.535,32.007,85.724z M37.297,88.331
			c-0.186-1.012-0.493-2.451-0.789-4.188c-0.294-1.738-0.672-3.76-1.015-5.936c-0.356-2.174-0.698-4.498-1.043-6.822
			c-0.325-2.327-0.652-4.653-0.925-6.839c-0.283-2.184-0.494-4.231-0.702-5.981c-0.207-1.75-0.32-3.218-0.427-4.241
			c-0.086-1.026-0.135-1.612-0.135-1.612s0.118,0.576,0.326,1.585c0.186,1.012,0.492,2.451,0.788,4.188
			c0.295,1.738,0.67,3.761,1.015,5.936c0.356,2.174,0.698,4.498,1.044,6.822c0.325,2.327,0.654,4.653,0.926,6.839
			c0.285,2.184,0.494,4.231,0.702,5.981c0.207,1.75,0.319,3.218,0.426,4.241c0.086,1.026,0.135,1.612,0.135,1.612
			S37.505,89.339,37.297,88.331z"/>
		<path style="fill:#D2D2D6;" d="M23.017,67.483c-0.036,0-0.073-0.001-0.11-0.004c-0.254-0.017-0.489-0.109-0.707-0.235
			c0.115,0.996,0.954,1.775,1.981,1.775c1.105,0,2.004-0.899,2.004-2.004c0-1.002-0.741-1.826-1.702-1.973
			c0.304,0.577,0.255,1.305-0.184,1.836C23.983,67.263,23.51,67.483,23.017,67.483z"/>
		<path style="fill:#D2D2D6;" d="M73.9,5.465c-1.163,0.083-2.326,0.14-3.473,0.261c-2.294,0.235-4.55,0.52-6.712,0.926
			c-2.162,0.404-4.246,0.843-6.199,1.358c-1.961,0.49-3.782,1.073-5.459,1.624c-3.336,1.153-6.08,2.248-7.945,3.141
			c-1.877,0.867-2.91,1.449-2.91,1.449s0.965-0.692,2.781-1.703c1.817-1.002,4.463-2.37,7.792-3.663
			c1.669-0.629,3.487-1.297,5.451-1.878c1.957-0.603,4.049-1.158,6.243-1.598c2.191-0.451,4.477-0.824,6.816-1.07
			c1.168-0.132,2.353-0.199,3.539-0.292c1.124-0.03,2.251-0.104,3.38-0.102l-0.015-2.117C71.127,1.72,26.682,3.547,17.52,44.795
			l0.011,0.008c-0.042,0.177-0.075,0.357-0.086,0.544l-0.09,1.624l-0.03,0.535l-0.035,0.63c-0.066,0.105-0.115,0.219-0.123,0.346
			c-0.506,7.574,1.411,12.398,3.097,15.117c0.498,0.804,0.971,1.425,1.36,1.874c0.128,0.147,0.245,0.278,0.351,0.39
			c0.15,0.157,0.271,0.277,0.366,0.364c0.102,0.094,0.181,0.164,0.204,0.182c0.122,0.099,0.267,0.157,0.422,0.167h0.001
			c0.244,0.017,0.477-0.083,0.633-0.273c0.263-0.319,0.218-0.797-0.102-1.064c-0.004-0.003-0.034-0.029-0.081-0.074
			c-0.074-0.069-0.204-0.198-0.363-0.371c-0.099-0.107-0.209-0.234-0.333-0.382c-0.523-0.625-1.236-1.614-1.929-3.031
			c-0.952-1.949-1.844-4.697-2.11-8.344c0.151,0.092,0.309,0.17,0.476,0.235c0.152,0.06,0.308,0.111,0.471,0.146
			c0.16,0.035,0.321,0.068,0.489,0.077c1.722,0.096,3.196-1.222,3.292-2.944l0.271-4.857c0.096-1.722-1.222-3.196-2.945-3.292
			c-0.082-0.004-0.16,0.009-0.241,0.011C34.943,19.89,52.437,11.931,77.248,10.4l-0.035-5.011C76.107,5.378,75.002,5.444,73.9,5.465
			z M20.734,51.455c0.103-0.03,0.201-0.111,0.303-0.216c0.115-0.088,0.218-0.209,0.306-0.365c0.111-0.137,0.178-0.318,0.249-0.508
			c0.089-0.181,0.104-0.405,0.172-0.615c0.089-0.438,0.133-0.917,0.139-1.4c0.037-0.965-0.048-1.938-0.106-2.668
			c-0.059-0.731-0.118-1.22-0.118-1.22s0.153,0.469,0.302,1.193c0.148,0.724,0.268,1.708,0.253,2.704
			c-0.02,0.497-0.081,0.995-0.189,1.455c-0.074,0.226-0.114,0.452-0.229,0.644c-0.096,0.198-0.186,0.383-0.322,0.525
			c-0.061,0.074-0.119,0.144-0.175,0.212c-0.074,0.049-0.143,0.095-0.209,0.138c-0.126,0.092-0.241,0.157-0.354,0.172
			c-0.209,0.056-0.328,0.088-0.328,0.088S20.54,51.544,20.734,51.455z"/>
		<path style="fill:#D2D2D6;" d="M136.473,68.614l-1.856-0.268c0.009-1.245-0.063-2.374-0.188-3.418
			c-0.443,0.629-0.854,1.127-1.178,1.477c0.041,0.197,0.063,0.401,0.063,0.611c0,0.749-0.286,1.427-0.742,1.953
			c-0.021,0.412-0.094,1.556-0.329,3.092c-0.161,0.968-0.354,2.097-0.666,3.282c-0.136,0.597-0.328,1.202-0.511,1.817
			c-0.182,0.616-0.428,1.224-0.64,1.84c-0.262,0.599-0.5,1.207-0.784,1.783c-0.309,0.564-0.556,1.147-0.897,1.657
			c-0.339,0.509-0.608,1.038-0.972,1.467c-0.352,0.435-0.64,0.881-0.985,1.228c-0.337,0.351-0.647,0.673-0.921,0.959
			c-0.283,0.275-0.568,0.475-0.782,0.659c-0.439,0.357-0.69,0.561-0.69,0.561s0.241-0.216,0.662-0.594
			c0.205-0.194,0.477-0.405,0.745-0.692c0.258-0.296,0.549-0.63,0.867-0.994c0.323-0.358,0.588-0.816,0.914-1.259
			c0.338-0.438,0.579-0.975,0.887-1.49c0.311-0.515,0.527-1.104,0.803-1.67c0.252-0.578,0.456-1.188,0.685-1.785
			c0.179-0.616,0.392-1.221,0.541-1.834c0.15-0.613,0.31-1.211,0.415-1.804c0.25-1.174,0.385-2.288,0.497-3.24
			c0.094-0.914,0.137-1.672,0.158-2.222c-0.383,0.178-0.805,0.284-1.254,0.284c-1.653,0-2.999-1.345-2.999-2.999
			c0-1.653,1.345-2.999,2.999-2.999c0.19,0,0.376,0.022,0.556,0.056c0.558-0.627,1.532-1.916,2.398-3.957
			c-1.023-2.588-2.422-4.117-3.443-4.955c-0.717-0.588-1.188-1.395-1.406-2.296c-0.35-1.451-1.552-2.613-3.119-2.839l-2.298-0.331
			c-3.082-0.444-5.941,1.694-6.385,4.776l-2.53,17.553c0.479,1.521,0.739,3.139,0.739,4.816c0,0.408-0.031,0.807-0.061,1.207
			l0.998,1.18l-2.319,11.261l-0.362-0.273l-0.666-0.501c0.191,0.433,0.431,0.838,0.722,1.208c0.864,1.099,2.127,1.888,3.619,2.103
			l2.298,0.331c1.567,0.226,3.048-0.55,3.793-1.843c0.463-0.803,1.143-1.444,1.997-1.806c2.17-0.92,6.118-3.607,8.318-11.296
			l1.856,0.268c1.692,0.244,3.262-0.93,3.505-2.622l0.568-3.939C139.339,70.427,138.165,68.858,136.473,68.614z M122.099,54.324
			c-0.107,1.023-0.22,2.49-0.427,4.241c-0.208,1.75-0.419,3.797-0.702,5.981c-0.272,2.186-0.6,4.512-0.925,6.839
			c-0.345,2.324-0.687,4.648-1.043,6.822c-0.343,2.176-0.721,4.198-1.015,5.936c-0.295,1.738-0.602,3.177-0.789,4.188
			c-0.208,1.008-0.326,1.585-0.326,1.585s0.049-0.586,0.134-1.612c0.107-1.023,0.219-2.491,0.426-4.241
			c0.208-1.75,0.417-3.797,0.702-5.981c0.272-2.186,0.601-4.512,0.926-6.839c0.346-2.324,0.688-4.648,1.044-6.822
			c0.345-2.175,0.72-4.198,1.015-5.936c0.296-1.738,0.602-3.177,0.788-4.188c0.207-1.009,0.326-1.585,0.326-1.585
			S122.185,53.298,122.099,54.324z M123.16,82.354c-0.246,1.399-0.513,2.556-0.671,3.37c-0.179,0.811-0.282,1.274-0.282,1.274
			s0.033-0.473,0.09-1.302c0.078-0.826,0.149-2.011,0.308-3.422c0.159-1.412,0.312-3.063,0.535-4.824
			c0.211-1.763,0.475-3.638,0.735-5.513c0.281-1.872,0.558-3.745,0.853-5.496c0.284-1.752,0.603-3.38,0.848-4.779
			c0.247-1.399,0.512-2.556,0.67-3.37c0.179-0.811,0.281-1.275,0.281-1.275s-0.033,0.473-0.09,1.302
			c-0.078,0.826-0.151,2.011-0.309,3.422c-0.159,1.412-0.313,3.063-0.536,4.824c-0.211,1.763-0.474,3.638-0.734,5.513
			c-0.28,1.872-0.557,3.745-0.852,5.496C123.726,79.327,123.405,80.955,123.16,82.354z"/>
		<path style="fill:#D2D2D6;" d="M128.311,67.016c0,1.105,0.899,2.004,2.004,2.004c1.027,0,1.866-0.779,1.981-1.775
			c-0.218,0.126-0.453,0.218-0.707,0.235c-0.037,0.003-0.074,0.004-0.11,0.004c-0.493,0-0.966-0.221-1.282-0.605
			c-0.439-0.531-0.488-1.259-0.183-1.836C129.052,65.19,128.311,66.014,128.311,67.016z"/>
		<path style="fill:#D2D2D6;" d="M133.999,42.414c-0.081-0.002-0.159-0.015-0.241-0.011c-1.722,0.096-3.04,1.57-2.944,3.292
			l0.271,4.857c0.096,1.722,1.57,3.04,3.292,2.944c0.168-0.009,0.329-0.042,0.489-0.077c0.163-0.035,0.319-0.086,0.471-0.146
			c0.167-0.066,0.325-0.143,0.476-0.235c-0.265,3.647-1.157,6.395-2.11,8.344c-0.692,1.417-1.405,2.406-1.929,3.031
			c-0.124,0.148-0.234,0.275-0.333,0.382c-0.16,0.172-0.289,0.301-0.363,0.371c-0.048,0.045-0.079,0.072-0.083,0.075
			c-0.318,0.266-0.363,0.743-0.1,1.062c0.157,0.191,0.394,0.29,0.633,0.273h0.001c0.155-0.01,0.3-0.068,0.422-0.167
			c0.022-0.018,0.102-0.088,0.204-0.182c0.095-0.088,0.217-0.207,0.366-0.364c0.106-0.111,0.223-0.242,0.351-0.39
			c0.389-0.448,0.861-1.07,1.36-1.874c1.686-2.719,3.603-7.543,3.097-15.117c-0.009-0.127-0.057-0.241-0.123-0.346l-0.035-0.63
			l-0.03-0.534l-0.091-1.624c-0.011-0.187-0.044-0.367-0.086-0.544l0.011-0.008C127.814,3.547,83.369,1.72,77.308,1.802
			l-0.015,2.116c0.036,0,0.072-0.003,0.108-0.002c1.195,0.015,2.391,0.005,3.579,0.09c1.19,0.052,2.373,0.129,3.542,0.263
			c0.585,0.06,1.168,0.12,1.747,0.18c0.576,0.088,1.15,0.175,1.719,0.262c1.143,0.153,2.259,0.38,3.355,0.606
			c1.101,0.204,2.171,0.459,3.21,0.746c0.52,0.137,1.035,0.272,1.544,0.406c0.502,0.158,0.997,0.314,1.486,0.467
			c1.967,0.577,3.767,1.297,5.442,1.911c1.636,0.715,3.158,1.316,4.437,2.001c1.283,0.672,2.433,1.19,3.321,1.733
			c1.79,1.047,2.813,1.646,2.813,1.646s-1.07-0.506-2.943-1.39c-0.917-0.476-2.1-0.912-3.416-1.488
			c-0.656-0.293-1.372-0.563-2.132-0.831c-0.753-0.284-1.545-0.582-2.371-0.894c-1.683-0.536-3.486-1.17-5.448-1.655
			c-0.487-0.131-0.981-0.263-1.481-0.397c-0.506-0.11-1.018-0.221-1.536-0.334c-1.034-0.227-2.086-0.477-3.173-0.647
			c-1.081-0.198-2.18-0.397-3.305-0.522c-1.12-0.154-2.255-0.295-3.405-0.383c-1.147-0.123-2.307-0.19-3.473-0.233
			c-1.165-0.077-2.337-0.055-3.507-0.065c-0.042-0.001-0.083,0.002-0.125,0.002L77.248,10.4
			C102.059,11.931,119.553,19.89,133.999,42.414z M133.74,51.507c-0.113-0.016-0.228-0.08-0.354-0.172
			c-0.066-0.043-0.135-0.09-0.209-0.138c-0.055-0.067-0.114-0.138-0.175-0.212c-0.136-0.143-0.226-0.328-0.322-0.525
			c-0.115-0.192-0.155-0.418-0.229-0.644c-0.108-0.46-0.17-0.957-0.189-1.455c-0.015-0.996,0.105-1.979,0.253-2.704
			c0.149-0.725,0.302-1.193,0.302-1.193s-0.059,0.489-0.118,1.22c-0.058,0.73-0.143,1.702-0.106,2.668
			c0.006,0.482,0.049,0.962,0.139,1.4c0.068,0.21,0.082,0.435,0.172,0.615c0.071,0.19,0.139,0.371,0.249,0.508
			c0.088,0.156,0.19,0.278,0.306,0.365c0.102,0.105,0.201,0.186,0.303,0.216c0.195,0.088,0.306,0.139,0.306,0.139
			S133.949,51.562,133.74,51.507z"/>
	</g>
	<g>
		<path style="fill:#D2D2D6;" d="M75.608,104.378c0.542-0.729,1.894-1.497,2.702-0.74c0.426,0.399,0.679,0.98,1.176,1.285
			c3.111,1.906,6.056-4.035,3.845-6.248c-0.793-0.793-2.774-6.936-2.774-6.936c-1.784-6.342-3.369-5.351-3.369-5.351
			s-1.585-0.991-3.369,5.351c0,0-1.981,6.143-2.774,6.936C68.338,101.383,73.094,107.763,75.608,104.378z"/>
		<path style="fill:#D2D2D6;" d="M72.946,138.656c-0.649,0.488-1.501,0.66-2.309,0.58c-0.808-0.08-1.579-0.392-2.285-0.793
			c-0.162-0.092-0.398-0.175-0.507-0.024c0.888,0.745,1.871,1.433,3,1.695c1.13,0.262,2.438,0.018,3.196-0.86
			c0.639-0.739,0.788-1.77,0.911-2.74c0.123-0.97,0.312-1.963,0.347-2.936c-0.516,0.544-0.592,1.66-0.814,2.39
			C74.177,136.974,73.785,138.025,72.946,138.656z"/>
		<path style="fill:#D2D2D6;" d="M86.025,138.444c-0.707,0.401-1.477,0.713-2.285,0.793c-0.808,0.079-1.66-0.092-2.309-0.58
			c-0.839-0.631-1.232-1.682-1.538-2.686c-0.223-0.73-0.298-1.846-0.814-2.39c0.035,0.973,0.224,1.966,0.347,2.936
			c0.123,0.969,0.271,2,0.911,2.74c0.758,0.877,2.067,1.122,3.196,0.86c1.13-0.262,2.112-0.95,3-1.695
			C86.423,138.268,86.187,138.352,86.025,138.444z"/>
		<path style="fill:#D2D2D6;" d="M59.883,58.361c1.578,0.769,3.152,1.556,4.688,2.407h3.54c-0.277-0.203-0.55-0.41-0.836-0.599
			c-4.268-2.807-9.742-4.302-14.83-3.896C55.044,56.067,57.539,57.219,59.883,58.361z"/>
		<path style="fill:#D2D2D6;" d="M80.02,84.835c0.195,0.481,0.387,0.961,0.524,1.439c0.266,0.92,0.33,1.883,0.461,2.831
			c0.428,3.078,1.572,6.004,2.707,8.897c-0.774-3.763-1.457-7.605-1.769-11.438c-0.056-0.686-0.034-1.244,0.033-1.729H80.02z"/>
		<path style="fill:#D2D2D6;" d="M70.51,98.002c1.135-2.893,2.28-5.819,2.707-8.897c0.132-0.948,0.196-1.912,0.461-2.831
			c0.138-0.477,0.329-0.958,0.524-1.439h-1.958c0.068,0.485,0.089,1.043,0.033,1.729C71.967,90.397,71.283,94.239,70.51,98.002z"/>
		<path style="fill:#D2D2D6;" d="M94.493,58.361c2.344-1.143,4.839-2.295,7.438-2.087c-5.088-0.406-10.562,1.089-14.83,3.896
			c-0.286,0.188-0.559,0.396-0.836,0.599h3.54C91.341,59.918,92.915,59.131,94.493,58.361z"/>
		<path style="fill:#D2D2D6;" d="M113.446,90.489l2.319-11.261l-0.998-1.18c-0.213,2.843-1.155,5.485-2.659,7.727
			c-0.36,0.536-0.758,1.042-1.177,1.529c-0.225,0.262-0.455,0.519-0.697,0.766c-0.485,0.496-1.005,0.955-1.55,1.385
			c0.372,0.525,0.808,1.065,1.377,1.663l0.002,0.358c0.009,1.593,0.011,3.126-0.218,4.378c-0.159,0.264-0.336,0.518-0.556,0.746
			c-1.187,1.234-2.977,1.625-4.625,1.756c-2.889,0.229-5.779-0.27-8.646-0.697c-0.274-0.041-0.557-0.074-0.843-0.102
			c-0.741-0.284-1.523-0.508-2.257-0.854c-1.736-0.82-3.331-1.94-4.684-3.303c0.715,1.245,1.244,2.622,1.343,4.054
			c0.09,1.291-0.17,2.577-0.394,3.852c-0.224,1.275-0.414,2.584-0.186,3.858c0.228,1.274,0.944,2.526,2.111,3.086
			c-0.308-1.183-0.449-2.41-0.415-3.632c0.011-0.401,0.049-0.805,0.13-1.197c0.485,1.626,1.31,3.169,2.04,4.715
			c0.397,0.84,0.765,1.719,1.039,2.615c-0.245,0.03-0.49,0.106-0.716,0.24c-0.328,0.193-0.581,0.469-0.729,0.785
			c-0.349-0.061-0.767-0.042-0.935,0.052c-0.293,0.161-0.441,0.41-0.507,0.676c-0.229-0.082-0.47-0.096-0.696-0.034
			c-0.298,0.08-0.558,0.285-0.721,0.568c-0.185-0.087-0.392-0.129-0.602-0.106c-0.305,0.032-0.581,0.193-0.772,0.423
			c-0.25-0.155-0.556-0.22-0.851-0.164c-0.08,0.016-0.157,0.039-0.231,0.071c-0.056-0.167-0.142-0.325-0.272-0.469
			c-0.25-0.276-0.609-0.413-1.014-0.397c-0.499,0.025-0.992,0.289-1.287,0.689c-0.224,0.304-0.402,0.638-0.527,0.985
			c-0.362-0.231-0.841-0.284-1.295-0.142c-0.63,0.196-1.084,0.654-1.477,1.156c-0.68-0.51-1.546-0.767-2.396-0.7
			c-0.587,0.048-1.273,0.311-1.693,0.852c-0.421-0.54-1.106-0.804-1.694-0.852c-0.849-0.07-1.715,0.19-2.395,0.7
			c-0.393-0.503-0.848-0.96-1.477-1.156c-0.455-0.142-0.933-0.089-1.295,0.142c-0.125-0.347-0.303-0.681-0.527-0.984
			c-0.294-0.4-0.788-0.664-1.287-0.689c-0.409-0.016-0.764,0.121-1.014,0.397c-0.129,0.143-0.216,0.302-0.272,0.469
			c-0.074-0.031-0.15-0.055-0.23-0.071c-0.297-0.059-0.602,0.01-0.851,0.164c-0.191-0.231-0.467-0.391-0.772-0.423
			c-0.214-0.023-0.417,0.019-0.602,0.106c-0.164-0.283-0.423-0.488-0.721-0.568c-0.227-0.061-0.468-0.047-0.696,0.034
			c-0.067-0.265-0.215-0.514-0.507-0.676c-0.168-0.093-0.588-0.111-0.935-0.052c-0.148-0.316-0.402-0.592-0.729-0.785
			c-0.224-0.131-0.465-0.206-0.706-0.237c0.274-0.897,0.643-1.777,1.04-2.617c0.73-1.546,1.555-3.089,2.04-4.715
			c0.081,0.392,0.119,0.796,0.13,1.197c0.034,1.222-0.106,2.449-0.415,3.632c1.167-0.56,1.883-1.811,2.112-3.086
			c0.228-1.274,0.039-2.583-0.186-3.858c-0.224-1.275-0.484-2.561-0.394-3.852c0.099-1.433,0.629-2.809,1.343-4.054
			c-1.352,1.363-2.948,2.483-4.684,3.303c-0.734,0.347-1.516,0.57-2.257,0.854c-0.286,0.028-0.569,0.062-0.843,0.102
			c-2.867,0.427-5.757,0.926-8.646,0.697c-1.647-0.13-3.438-0.522-4.625-1.756c-0.219-0.228-0.396-0.481-0.556-0.746
			c-0.229-1.253-0.228-2.786-0.218-4.379l0.002-0.357c0.59-0.62,1.04-1.178,1.42-1.721c-0.635-0.507-1.225-1.065-1.776-1.661
			c-0.157-0.17-0.317-0.337-0.467-0.513c-0.393-0.463-0.765-0.943-1.104-1.449c-1.716-2.557-2.721-5.63-2.721-8.934
			c0-0.19,0.022-0.374,0.028-0.563l-0.551-0.486l1.32,14.123l1.146-0.4l0.62-0.216c-0.226,0.645-0.561,1.238-0.996,1.757l-0.002,0.4
			c-0.019,3.26-0.04,6.631,2.075,8.758c1.027,1.033,2.408,1.64,4.198,1.84l1.455,15.518v5.741c0,0.208,0.042,0.414,0.124,0.606
			c0.086,0.201,0.14,0.421,0.202,0.677c0.143,0.586,0.321,1.314,0.944,2.033l6.158,7.091c1.176,1.355,2.394,2.756,3.889,3.923
			c0.675,0.527,1.381,0.985,2.063,1.428c1.09,0.708,2.12,1.376,2.897,2.234c0.275,0.304,0.522,0.633,0.771,0.96
			c0.467,0.616,0.95,1.252,1.603,1.816c0.832,0.72,1.991,1.251,3.166,1.251c0.53,0,1.064-0.108,1.571-0.357l4.839-1.061l4.839,1.061
			c1.633,0.798,3.531,0.15,4.737-0.894c0.652-0.565,1.135-1.2,1.602-1.814c0.249-0.328,0.497-0.657,0.773-0.962
			c0.777-0.859,1.807-1.527,2.897-2.235c0.683-0.443,1.388-0.901,2.064-1.428c1.497-1.168,2.713-2.568,3.889-3.923l6.158-7.091
			c0.623-0.717,0.8-1.446,0.943-2.031c0.062-0.255,0.116-0.476,0.202-0.677c0.082-0.192,0.125-0.398,0.125-0.606v-5.741
			l1.455-15.518c1.79-0.2,3.172-0.808,4.198-1.84c2.114-2.127,2.094-5.497,2.075-8.757l-0.002-0.534
			c-0.291-0.37-0.53-0.776-0.722-1.208l0.666,0.501L113.446,90.489z M94.019,115.803c0.026,0.319,0.05,0.62-0.048,0.855
			c-0.07,0.166-0.252,0.299-0.363,0.252c-0.12-0.048-0.199-0.286-0.216-0.654c-0.02-0.418-0.027-0.839-0.02-1.258
			c0-0.029-0.01-0.055-0.015-0.082c0.06-0.158,0.093-0.329,0.067-0.531c0.019-0.005,0.039-0.011,0.057-0.016
			c0.109-0.03,0.224-0.064,0.335-0.119c0.05-0.025,0.099-0.054,0.149-0.082C93.962,114.704,93.974,115.244,94.019,115.803z
			 M92.616,116.683c0.004,0.734,0.008,1.314-0.392,1.711c-0.105,0.103-0.152,0.111-0.152,0.112
			c-0.002-0.001-0.054-0.012-0.163-0.135c-0.245-0.278-0.405-0.621-0.481-0.983l-0.03-0.343c-0.001-0.016-0.012-0.036-0.015-0.053
			c-0.001-0.043-0.009-0.086-0.007-0.129c0.001-0.023-0.008-0.043-0.01-0.065c0.041-0.025,0.093-0.032,0.131-0.061
			c0.367-0.279,0.536-0.662,0.685-0.998l0.009-0.02c0.132-0.02,0.267-0.071,0.4-0.121c0.003,0.232,0,0.464,0.011,0.696
			c0.002,0.042,0.009,0.115,0.015,0.179L92.616,116.683z M90.684,117.981c0.051,0.578,0.109,1.232-0.099,1.775
			c-0.052,0.137-0.145,0.319-0.288,0.408c-0.093,0.057-0.208,0.055-0.253,0.018c-0.067-0.056-0.108-0.23-0.133-0.334
			c-0.178-0.737-0.32-1.491-0.441-2.242c0.097-0.029,0.194-0.048,0.288-0.097c0.254-0.136,0.455-0.33,0.584-0.554
			c0.032,0.01,0.064,0.017,0.097,0.024c0.003,0.008,0.002,0.016,0.005,0.024c0.033,0.078,0.091,0.135,0.158,0.177
			c0.009,0.106,0.018,0.211,0.038,0.315L90.684,117.981z M89.057,119.674c0.104,0.493,0.075,0.868-0.11,1.431
			c-0.079,0.24-0.272,0.466-0.491,0.576c-0.064,0.031-0.152,0.052-0.246,0.057c-0.016-1.06-0.115-2.117-0.321-3.157
			c0.071-0.027,0.151-0.036,0.214-0.076c0.282-0.181,0.459-0.444,0.598-0.706c0.099,0.605,0.22,1.208,0.355,1.805
			C89.057,119.628,89.052,119.65,89.057,119.674z M87.443,122.428c-0.006,0.252-0.021,0.513-0.129,0.689
			c-0.095,0.155-0.28,0.246-0.472,0.251c-0.173-0.008-0.502-0.222-0.605-0.385c-0.038-0.674-0.159-1.317-0.285-1.943
			c-0.076-0.377-0.145-0.767-0.204-1.164c0.084-0.025,0.171-0.041,0.252-0.076c0.505-0.225,0.898-0.655,1.095-1.163
			c0.001,0,0.002,0,0.004,0C87.352,119.883,87.476,121.156,87.443,122.428z M85.175,121.196c0.184,0.913,0.356,1.775,0.262,2.715
			c-0.016,0.161-0.043,0.347-0.115,0.497c-0.163,0.338-0.619,0.536-1.031,0.454c-0.397-0.081-0.971-0.587-1.183-1.042
			c-0.017-0.037-0.044-0.067-0.07-0.096c0.093-0.902,0.029-1.703-0.055-2.657c-0.019-0.217-0.039-0.45-0.058-0.688
			c0.001,0,0.003,0,0.004-0.001c0.464-0.104,0.872-0.34,1.182-0.676c0.259,0.146,0.55,0.227,0.846,0.255
			C85.02,120.38,85.094,120.795,85.175,121.196z M82.193,121.137c0.105,1.195,0.181,2.058-0.04,3.192
			c-0.082,0.417-0.193,0.848-0.448,1.165c-0.196,0.244-0.558,0.439-0.854,0.348c-0.378-0.117-0.587-0.615-0.755-1.135
			c-0.014-0.042-0.038-0.077-0.063-0.111c0.038-0.373,0.042-0.735,0.036-1.03l-0.052-2.759c0.438-0.154,0.858-0.364,1.225-0.639
			c0.281,0.139,0.584,0.221,0.89,0.252C82.153,120.669,82.174,120.911,82.193,121.137z M79.277,123.58
			c0.015,0.794-0.005,1.549-0.413,2.052c-0.121,0.149-0.257,0.244-0.384,0.266c-0.239,0.045-0.499-0.168-0.618-0.39
			c-0.16-0.295-0.192-0.674-0.212-1.069c-0.054-1.063-0.048-2.211,0.001-3.45c0.264,0.056,0.534,0.093,0.815,0.093
			c0.252,0,0.508-0.025,0.763-0.068L79.277,123.58z M76.725,124.439c-0.02,0.395-0.051,0.774-0.211,1.069
			c-0.119,0.222-0.374,0.436-0.618,0.39c-0.127-0.022-0.263-0.117-0.384-0.266c-0.407-0.503-0.427-1.257-0.412-2.053l0.048-2.562
			c0.251,0.042,0.504,0.065,0.753,0.065c0.284,0,0.558-0.038,0.825-0.096C76.773,122.222,76.78,123.369,76.725,124.439z
			 M74.343,124.593c-0.025,0.034-0.049,0.07-0.063,0.112c-0.169,0.521-0.377,1.019-0.755,1.136c-0.305,0.096-0.66-0.104-0.855-0.348
			c-0.256-0.318-0.37-0.767-0.448-1.165c-0.222-1.133-0.146-1.996-0.041-3.19c0.02-0.227,0.041-0.469,0.06-0.719
			c0.303-0.032,0.602-0.115,0.88-0.252c0.37,0.277,0.793,0.489,1.235,0.643l-0.051,2.755C74.3,123.917,74.311,124.26,74.343,124.593
			z M68.424,121.04c-0.126,0.626-0.246,1.268-0.285,1.942c-0.103,0.163-0.432,0.377-0.605,0.385
			c-0.177,0.007-0.376-0.095-0.472-0.251c-0.107-0.175-0.122-0.426-0.129-0.689c-0.032-1.268,0.091-2.538,0.343-3.78
			c0.2,0.503,0.589,0.929,1.09,1.152c0.084,0.037,0.174,0.054,0.262,0.08C68.569,120.275,68.5,120.664,68.424,121.04z
			 M66.165,121.739c-0.093-0.005-0.181-0.026-0.245-0.058c-0.219-0.11-0.413-0.336-0.491-0.576c-0.186-0.564-0.214-0.939-0.11-1.431
			c0.005-0.024,0-0.047,0.001-0.071c0.134-0.594,0.254-1.192,0.352-1.792c0.138,0.259,0.313,0.516,0.59,0.694
			c0.066,0.042,0.149,0.052,0.223,0.079C66.28,119.624,66.181,120.68,66.165,121.739z M62.307,118.505
			c-0.002,0-0.05-0.008-0.154-0.111c-0.401-0.397-0.397-0.977-0.393-1.711l0.001-0.227c0-0.007-0.004-0.013-0.004-0.019
			c0.005-0.049,0.016-0.09,0.019-0.142c0.011-0.231,0.008-0.462,0.011-0.693c0.13,0.047,0.261,0.098,0.389,0.117l0.009,0.02
			c0.149,0.337,0.318,0.719,0.684,0.998c0.041,0.031,0.096,0.04,0.141,0.066c-0.002,0.021-0.01,0.039-0.01,0.061
			c0.002,0.043-0.006,0.086-0.007,0.129c-0.003,0.017-0.014,0.036-0.015,0.053l-0.03,0.344c-0.076,0.361-0.237,0.704-0.481,0.982
			C62.358,118.494,62.306,118.504,62.307,118.505z M60.361,115.756c0.042-0.524,0.054-1.053,0.051-1.581
			c0.046,0.025,0.092,0.053,0.138,0.076c0.11,0.055,0.226,0.089,0.335,0.119c0.018,0.005,0.039,0.011,0.058,0.016
			c-0.033,0.194,0.005,0.374,0.074,0.544c-0.004,0.023-0.013,0.044-0.013,0.068c0.006,0.42,0,0.839-0.02,1.259
			c-0.017,0.367-0.096,0.606-0.217,0.654c-0.103,0.044-0.294-0.089-0.363-0.252C60.306,116.421,60.331,116.118,60.361,115.756z
			 M63.692,117.981l0.044-0.491c0.02-0.103,0.029-0.206,0.037-0.311c0.067-0.041,0.125-0.1,0.158-0.178
			c0.004-0.009,0.002-0.018,0.006-0.027c0.029-0.006,0.058-0.013,0.086-0.021c0.129,0.225,0.33,0.418,0.584,0.554
			c0.097,0.052,0.198,0.071,0.298,0.1c-0.12,0.749-0.262,1.502-0.44,2.24c-0.025,0.104-0.068,0.278-0.134,0.334
			c-0.045,0.036-0.16,0.039-0.253-0.018c-0.143-0.088-0.235-0.27-0.287-0.408C63.584,119.215,63.641,118.56,63.692,117.981z
			 M69.202,121.196c0.081-0.402,0.155-0.817,0.217-1.241c0.292-0.029,0.579-0.109,0.835-0.253c0.31,0.337,0.719,0.573,1.183,0.676
			c0.005,0.001,0.01,0.001,0.014,0.002c-0.019,0.238-0.038,0.471-0.058,0.689c-0.084,0.953-0.147,1.754-0.055,2.655
			c-0.026,0.029-0.053,0.058-0.071,0.096c-0.211,0.455-0.786,0.961-1.181,1.041c-0.418,0.084-0.87-0.115-1.032-0.453
			c-0.072-0.151-0.098-0.336-0.115-0.498C68.845,122.971,69.018,122.109,69.202,121.196z M93.589,111.673
			c0.172-0.101,0.354-0.133,0.53-0.131c0.099,0.429,0.163,0.86,0.201,1.293c-0.188,0.273-0.511,0.535-0.856,0.707
			c-0.05,0.025-0.102,0.037-0.153,0.051l-0.198-1.249C93.147,112.081,93.319,111.832,93.589,111.673z M91.852,112.543
			c0.09-0.02,0.338-0.012,0.494,0.015l0.278,1.751c0,0.063,0.002,0.128,0.016,0.203c0.015,0.076,0.002,0.129-0.043,0.184
			c-0.114,0.137-0.375,0.223-0.589,0.242l-0.172-1.469c0-0.003-0.002-0.005-0.002-0.008c0-0.003,0.001-0.005,0-0.008
			c-0.005-0.032-0.011-0.066-0.02-0.097C91.72,112.887,91.749,112.607,91.852,112.543z M90.273,113.457
			c0.057-0.113,0.152-0.196,0.252-0.223c0.101-0.028,0.225-0.001,0.33,0.068c0.092,0.06,0.159,0.144,0.186,0.233
			c0.003,0.016,0.006,0.03,0.01,0.044l0.24,2.051c0.003,0.025,0.025,0.039,0.032,0.062c-0.083,0.164-0.173,0.312-0.307,0.413
			c-0.11,0.084-0.275,0.123-0.41,0.098c-0.055-0.01-0.083-0.039-0.113-0.067l-0.228-2.241c-0.001-0.01-0.007-0.017-0.008-0.026
			c-0.001-0.005,0.003-0.008,0.002-0.013c-0.009-0.046-0.022-0.09-0.036-0.134C90.211,113.639,90.228,113.544,90.273,113.457z
			 M89.079,113.719c0.149-0.019,0.316,0.09,0.381,0.229c0.005,0.022,0.014,0.043,0.021,0.065l0.236,2.321
			c0.007,0.217-0.174,0.392-0.331,0.476c-0.117,0.063-0.283,0.109-0.434,0.075l-0.206-2.794
			C88.746,113.917,88.907,113.737,89.079,113.719z M87.218,114.262c0.043-0.14,0.167-0.268,0.306-0.294
			c0.168-0.03,0.365,0.081,0.435,0.24l0.211,2.862c-0.137,0.335-0.274,0.626-0.496,0.769c-0.096,0.062-0.248,0.078-0.362,0.035
			c-0.044-0.016-0.064-0.04-0.078-0.066l-0.031-3.397C87.209,114.361,87.214,114.312,87.218,114.262z M84.626,115.144
			c0.024-0.548,0.232-1.113,0.584-1.59c0.153-0.207,0.429-0.355,0.689-0.368c0.111-0.004,0.274,0.013,0.386,0.137
			c0.162,0.179,0.173,0.494,0.149,0.809c-0.017,0.081-0.022,0.164-0.02,0.248c0,0.005-0.003,0.009-0.003,0.014l0.032,3.507
			c-0.004,0.491-0.319,0.973-0.767,1.173c-0.396,0.177-0.878,0.118-1.241-0.119l0.19-3.81c0-0.001,0-0.001,0-0.001
			S84.626,115.144,84.626,115.144z M82.985,114.683c0.239-0.076,0.491-0.048,0.656,0.07c0.123,0.087,0.186,0.215,0.191,0.381
			l-0.193,3.873c-0.209,0.299-0.514,0.516-0.883,0.599c-0.38,0.086-0.787,0.025-1.147-0.151l0.119-3.658
			C82.086,115.31,82.478,114.84,82.985,114.683z M77.668,115.914c0.205-0.488,0.813-0.704,1.272-0.741
			c0.714-0.065,1.447,0.196,1.993,0.67l-0.118,3.634c-0.884,0.695-2.131,0.988-3.129,0.717l-0.106-3.359
			c0.005-0.144,0.006-0.303-0.001-0.467C77.587,116.206,77.611,116.051,77.668,115.914z M75.426,115.173
			c0.459,0.037,1.067,0.253,1.272,0.741c0.057,0.136,0.081,0.291,0.09,0.452c-0.007,0.165-0.005,0.325-0.001,0.47l-0.106,3.358
			c-0.999,0.271-2.246-0.022-3.129-0.717l-0.118-3.634C73.978,115.37,74.707,115.113,75.426,115.173z M70.724,114.752
			c0.165-0.118,0.417-0.145,0.656-0.07c0.507,0.158,0.9,0.628,1.258,1.114l0.118,3.658c-0.359,0.176-0.764,0.236-1.147,0.151
			c-0.369-0.083-0.674-0.301-0.884-0.599l-0.193-3.873C70.538,114.968,70.601,114.84,70.724,114.752z M68.081,113.324
			c0.112-0.125,0.272-0.142,0.386-0.137c0.259,0.013,0.536,0.161,0.689,0.368c0.352,0.477,0.559,1.042,0.584,1.59c0,0,0,0,0,0
			c0,0.001,0,0.002,0,0.002l0.19,3.81c-0.362,0.237-0.845,0.296-1.241,0.119c-0.448-0.2-0.763-0.682-0.767-1.173l0.032-3.507
			c0-0.005-0.003-0.009-0.003-0.014c0.001-0.084-0.003-0.167-0.02-0.248C67.908,113.817,67.919,113.503,68.081,113.324z
			 M66.841,113.968c0.139,0.026,0.263,0.154,0.306,0.294c0.004,0.05,0.009,0.099,0.014,0.148l-0.031,3.397
			c-0.014,0.026-0.034,0.05-0.078,0.066c-0.113,0.043-0.265,0.028-0.362-0.035c-0.221-0.142-0.358-0.433-0.495-0.769l0.211-2.862
			C66.476,114.05,66.67,113.936,66.841,113.968z M65.286,113.719c0.172,0.018,0.334,0.198,0.334,0.371l-0.206,2.794
			c-0.15,0.033-0.317-0.012-0.434-0.075c-0.157-0.084-0.338-0.259-0.331-0.476l0.236-2.321c0.007-0.022,0.015-0.043,0.021-0.065
			C64.97,113.809,65.137,113.7,65.286,113.719z M63.51,113.301c0.106-0.069,0.227-0.096,0.33-0.068
			c0.101,0.027,0.195,0.11,0.252,0.223c0.044,0.087,0.062,0.182,0.05,0.265c-0.015,0.043-0.027,0.088-0.036,0.134
			c-0.001,0.005,0.003,0.009,0.002,0.013c-0.002,0.009-0.007,0.017-0.008,0.026l-0.228,2.241c-0.03,0.028-0.058,0.056-0.113,0.067
			c-0.137,0.026-0.299-0.014-0.41-0.098c-0.133-0.101-0.223-0.249-0.306-0.413c0.007-0.023,0.029-0.037,0.032-0.062l0.239-2.052
			c0.003-0.014,0.006-0.028,0.01-0.044C63.352,113.446,63.418,113.362,63.51,113.301z M62.459,112.521
			c0.154,0.085,0.186,0.366,0.092,0.836c-0.008,0.032-0.015,0.065-0.02,0.097c0,0.003,0.001,0.005,0,0.008
			c0,0.003-0.002,0.005-0.002,0.008l-0.172,1.469c-0.214-0.019-0.475-0.105-0.589-0.242c-0.045-0.055-0.058-0.108-0.043-0.184
			c0.014-0.075,0.017-0.14,0.016-0.203l0.278-1.752C62.174,112.53,62.41,112.518,62.459,112.521z M60.776,111.673
			c0.27,0.159,0.443,0.408,0.476,0.669l-0.198,1.249c-0.051-0.014-0.103-0.026-0.152-0.051c-0.34-0.168-0.658-0.426-0.847-0.694
			c0.037-0.437,0.102-0.874,0.203-1.308C60.43,111.54,60.607,111.573,60.776,111.673z M52.28,123.868
			c-0.059-0.242-0.129-0.528-0.239-0.84v-5.526c0-0.048-0.002-0.096-0.007-0.143l-0.315-3.355c0.577-2.427,0.572-4.998,0.547-7.512
			c0.665,3.272,1.394,6.583,2.542,9.708c-0.266,3.168-0.483,6.118-1.616,9.144l-0.636-0.732
			C52.434,124.469,52.386,124.304,52.28,123.868z M92.204,135.216c-0.57,0.445-1.19,0.847-1.846,1.273
			c-1.208,0.784-2.456,1.595-3.503,2.751c-0.335,0.37-0.639,0.768-0.942,1.166c-0.388,0.511-0.755,0.994-1.164,1.349
			c-0.471,0.408-1.112,0.611-1.399,0.439c-0.141-0.083-0.295-0.144-0.455-0.179l-5.376-1.179c-0.217-0.048-0.443-0.048-0.66,0
			l-5.376,1.179c-0.161,0.035-0.315,0.096-0.456,0.18c-0.288,0.172-0.928-0.032-1.399-0.44c-0.41-0.355-0.777-0.838-1.166-1.35
			c-0.302-0.398-0.606-0.795-0.94-1.165c-1.046-1.156-2.296-1.967-3.503-2.751c-0.656-0.426-1.276-0.828-1.846-1.273
			c-1.26-0.983-2.328-2.212-3.458-3.514l-1.797-2.07c-0.628-1.793-0.815-3.783-0.883-5.702c-0.038-1.083,0.108-3.183-0.071-5.013
			c0.459,0.961,0.956,1.904,1.536,2.806c-1.675-4.244-2.956-8.644-3.819-13.124c-0.378-1.963-0.677-3.981-0.358-5.955
			c1.774,4.037,3.594,8.123,6.298,11.592c0,0.491-0.012,0.987-0.053,1.496c-0.031,0.383-0.067,0.817,0.107,1.232
			c0.172,0.411,0.598,0.747,1.051,0.747c0.096,0,0.193-0.023,0.289-0.056c0.06,0.473,0.2,0.925,0.58,1.302
			c0.231,0.229,0.463,0.341,0.711,0.341c0.004,0,0.007,0,0.011,0c0.234-0.004,0.415-0.11,0.547-0.217
			c0.018,0.32,0.066,0.643,0.186,0.958c0.139,0.366,0.345,0.635,0.612,0.8c0.177,0.109,0.376,0.164,0.571,0.164
			c0.113,0,0.224-0.019,0.328-0.055c0.032,0.135,0.071,0.269,0.116,0.406c0.146,0.443,0.479,0.831,0.889,1.037
			c0.188,0.094,0.385,0.14,0.58,0.147c0.013,0.334,0.05,0.681,0.243,0.994c0.237,0.387,0.674,0.63,1.126,0.63
			c0.02,0,0.039-0.001,0.058-0.002c0.183-0.008,0.385-0.086,0.579-0.189c0.001,0.007,0,0.013,0.001,0.02
			c0.023,0.23,0.063,0.5,0.188,0.761c0.27,0.562,0.901,0.922,1.557,0.922c0.116,0,0.232-0.011,0.348-0.035
			c0.462-0.094,0.922-0.438,1.275-0.827c0.099,0.403,0.249,0.825,0.535,1.179c0.341,0.424,0.834,0.667,1.311,0.667
			c0.134,0,0.267-0.02,0.395-0.059c0.439-0.136,0.728-0.469,0.927-0.818c0.065,0.119,0.12,0.241,0.208,0.351
			c0.245,0.301,0.543,0.49,0.861,0.547c0.065,0.011,0.131,0.017,0.197,0.017c0.48-0.001,0.961-0.301,1.234-0.779
			c0.273,0.477,0.754,0.779,1.234,0.778c0.066,0,0.132-0.005,0.197-0.017c0.319-0.057,0.617-0.246,0.861-0.548
			c0.089-0.11,0.139-0.237,0.204-0.357c0.199,0.351,0.489,0.687,0.932,0.825c0.128,0.039,0.26,0.059,0.395,0.059
			c0.477,0,0.97-0.242,1.311-0.667c0.285-0.354,0.436-0.776,0.535-1.179c0.353,0.389,0.813,0.734,1.276,0.828
			c0.115,0.023,0.231,0.034,0.347,0.034c0.655,0,1.286-0.359,1.555-0.921c0.126-0.261,0.167-0.532,0.189-0.762
			c0.001-0.007,0-0.013,0.001-0.02c0.195,0.103,0.397,0.18,0.579,0.189c0.02,0.001,0.039,0.002,0.058,0.002
			c0.452,0,0.888-0.242,1.126-0.629c0.193-0.315,0.23-0.672,0.242-0.995c0.195-0.007,0.393-0.053,0.581-0.148
			c0.41-0.206,0.742-0.593,0.888-1.037c0.045-0.137,0.083-0.271,0.116-0.406c0.104,0.036,0.215,0.055,0.328,0.055
			c0.194-0.001,0.394-0.054,0.571-0.164c0.267-0.165,0.473-0.434,0.612-0.8c0.119-0.313,0.166-0.639,0.184-0.959
			c0.133,0.107,0.315,0.215,0.55,0.218c0.003,0,0.006,0,0.01,0c0.366,0,0.625-0.256,0.711-0.341c0.38-0.376,0.521-0.828,0.58-1.301
			c0.096,0.032,0.193,0.056,0.289,0.056c0.454,0,0.88-0.336,1.052-0.747c0.173-0.413,0.138-0.845,0.104-1.272
			c-0.039-0.483-0.051-0.969-0.051-1.456c2.705-3.47,4.525-7.555,6.299-11.593c0.319,1.973,0.021,3.992-0.357,5.955
			c-0.863,4.48-2.144,8.88-3.819,13.124c0.58-0.902,1.077-1.845,1.536-2.806c-0.179,1.831-0.032,3.931-0.071,5.013
			c-0.068,1.919-0.255,3.91-0.883,5.702l-1.797,2.069C94.582,132.945,93.465,134.231,92.204,135.216z M102.342,117.358
			c-0.004,0.048-0.006,0.095-0.006,0.143v5.526c-0.11,0.312-0.18,0.599-0.239,0.841c-0.106,0.436-0.154,0.601-0.277,0.742
			l-0.636,0.733c-1.132-3.027-1.349-5.976-1.616-9.144c1.148-3.125,1.877-6.436,2.541-9.708c-0.025,2.514-0.03,5.085,0.547,7.513
			L102.342,117.358z"/>
		<path style="fill:#D2D2D6;" d="M62.627,62.341c5.224,2.492,8.89,7.711,9.15,13.811c0.01,0.23,0.035,0.456,0.035,0.689
			c0,1.823-0.319,3.568-0.881,5.203c-0.142,0.413-0.293,0.822-0.467,1.219h1.287h3.033h4.654h3.033h1.56
			c-0.209-0.478-0.395-0.967-0.558-1.467c-0.508-1.562-0.79-3.225-0.79-4.954c0-0.201,0.023-0.397,0.03-0.596
			c0.227-6.14,3.905-11.399,9.155-13.904h-4.675h-2.834H70.015h-2.834H62.627z"/>
		<path style="fill:#D2D2D6;" d="M44.09,85.437c0.203,0.274,0.409,0.545,0.631,0.804c0.552,0.646,1.153,1.25,1.809,1.791
			c2.506,2.066,5.716,3.309,9.21,3.309c1.895,0,3.702-0.376,5.363-1.04c1.604-0.642,3.062-1.563,4.325-2.702
			c0.908-0.819,1.719-1.742,2.398-2.764c0.169-0.255,0.325-0.52,0.478-0.786c0.148-0.257,0.285-0.52,0.417-0.786
			c0.25-0.503,0.47-1.022,0.661-1.556c0.186-0.518,0.345-1.048,0.471-1.592c0.124-0.535,0.224-1.079,0.287-1.634
			c0.058-0.516,0.093-1.039,0.096-1.57c0-0.023,0.004-0.046,0.004-0.069c0-7.73-6.085-14.048-13.714-14.46
			c-0.262-0.014-0.521-0.04-0.786-0.04h0c-0.265,0-0.524,0.026-0.786,0.04c-7.629,0.412-13.714,6.73-13.714,14.46
			c0,0.282,0.026,0.557,0.042,0.835C41.448,80.573,42.464,83.239,44.09,85.437z M44.929,74.339c0-0.33,0.27-0.601,0.601-0.601h5.006
			h2.101V67.82v-1.189c0-0.248,0.152-0.462,0.367-0.553c0.072-0.03,0.151-0.047,0.233-0.047h1.716h0.786h0.448h0.338h1.717
			c0.165,0,0.315,0.068,0.424,0.177s0.177,0.259,0.177,0.424v0.619v1.591v4.897h7.107c0.33,0,0.601,0.27,0.601,0.601v5.005
			c0,0.33-0.27,0.601-0.601,0.601h-7.107v3.318v0.786v0.786v1.76v0.457c0,0.165-0.068,0.315-0.177,0.424s-0.259,0.177-0.424,0.177
			h-5.005c-0.165,0-0.315-0.068-0.424-0.177c-0.109-0.109-0.177-0.259-0.177-0.424v-2.085v-5.022h-3.302h-3.805
			c-0.33,0-0.601-0.27-0.601-0.601V74.339z"/>
		<path style="fill:#D2D2D6;" d="M98.756,62.341L98.756,62.341c-0.265,0-0.524,0.026-0.786,0.04
			c-7.629,0.412-13.714,6.73-13.714,14.46c0,0.124,0.016,0.245,0.019,0.368c0.007,0.282,0.02,0.562,0.043,0.84
			c0.043,0.519,0.11,1.032,0.207,1.534c0.164,0.85,0.408,1.67,0.713,2.46c0.161,0.416,0.34,0.822,0.537,1.218
			c0.132,0.266,0.269,0.529,0.417,0.786c0.153,0.266,0.309,0.531,0.478,0.786c0.7,1.054,1.54,2.004,2.483,2.841
			c1.297,1.151,2.797,2.07,4.445,2.7c1.605,0.614,3.34,0.965,5.158,0.965c3.453,0,6.624-1.217,9.117-3.239
			c0.461-0.374,0.894-0.777,1.306-1.204c0.403-0.417,0.775-0.862,1.126-1.325c1.366-1.802,2.325-3.927,2.732-6.241l0.06-0.418
			c0.099-0.678,0.16-1.368,0.16-2.073c0-0.039-0.005-0.076-0.006-0.115c-0.061-7.677-6.117-13.935-13.708-14.345
			C99.28,62.367,99.022,62.341,98.756,62.341z M103.101,69.634c0,2.13-1.536,3.894-3.559,4.265
			c-0.256,0.047-0.517,0.079-0.786,0.079c-0.269,0-0.53-0.032-0.786-0.079c-2.023-0.371-3.559-2.135-3.559-4.265
			c0-0.112,0.025-0.216,0.033-0.326c0.051-0.673,0.25-1.3,0.573-1.853c0.627-1.073,1.687-1.854,2.953-2.086
			c0.256-0.047,0.517-0.079,0.786-0.079c0.269,0,0.531,0.032,0.786,0.079c0.077,0.014,0.15,0.033,0.226,0.051
			c1.799,0.431,3.147,1.977,3.298,3.87C103.075,69.405,103.101,69.516,103.101,69.634z M103.101,84.049
			c0,2.399-1.945,4.345-4.345,4.345c-1.448,0-2.722-0.716-3.511-1.805c-0.372-0.513-0.635-1.106-0.754-1.754
			c-0.047-0.256-0.079-0.517-0.079-0.786c0-0.269,0.032-0.53,0.079-0.786c0.324-1.767,1.712-3.155,3.479-3.479
			c0.256-0.047,0.517-0.079,0.786-0.079c0.269,0,0.531,0.032,0.786,0.079c1.961,0.36,3.449,2.032,3.539,4.074
			C103.084,83.922,103.101,83.983,103.101,84.049z M91.548,72.497c2.399,0,4.345,1.945,4.345,4.345s-1.945,4.345-4.345,4.345
			s-4.345-1.945-4.345-4.345S89.149,72.497,91.548,72.497z M110.308,76.841c0,2.399-1.945,4.345-4.345,4.345
			c-0.414,0-0.806-0.076-1.185-0.184c-1.819-0.518-3.16-2.175-3.16-4.16c0-1.572,0.843-2.937,2.095-3.7
			c0.658-0.401,1.423-0.645,2.25-0.645C108.363,72.497,110.308,74.442,110.308,76.841z"/>
	</g>
	<g>
		<g>
			<path style="fill:#D2D2D6;" d="M50.868,32.796c-0.02-1.121-0.041-2.242-0.061-3.364c-0.011-0.609-0.323-0.793-0.97-0.57
				c-0.457,0.157-0.913,0.319-1.367,0.484c-0.643,0.236-0.94,0.62-0.932,1.194c0.072,4.703,0.144,9.406,0.216,14.109
				c0.009,0.574,0.322,0.817,0.979,0.767c0.464-0.036,0.929-0.071,1.393-0.106c0.658-0.048,0.963-0.352,0.952-0.962
				c-0.026-1.446-0.053-2.891-0.079-4.337c-0.643,0.097-1.285,0.199-1.926,0.303c-0.024-1.454-0.049-2.907-0.073-4.361
				c2.868-0.685,5.77-1.265,8.695-1.74c0.063,3.403,0.126,6.805,0.189,10.208c0.061,3.335-1.454,5.511-5.616,5.48
				c-1.841,0-3.682,0-5.523,0c-4.169-0.05-5.723-1.66-5.718-4.102c0-4.344,0-8.688,0-13.032c0.015-2.416,1.416-4.982,5.385-6.986
				c1.763-0.85,3.551-1.625,5.362-2.324c4.103-1.579,5.735,0.243,5.788,3.552c0.026,1.414,0.052,2.828,0.079,4.242
				C55.364,31.691,53.105,32.206,50.868,32.796z"/>
		</g>
		<g>
			<path style="fill:#D2D2D6;" d="M76.026,43.815c0.004,2.029,0.008,4.058,0.012,6.087c-5.108,0-10.217,0-15.325,0
				c-0.167-9.706-0.334-19.413-0.5-29.119c5.058-1.267,10.222-1.977,15.399-2.131c0.005,2.028,0.01,4.056,0.015,6.085
				c-2.804,0.067-5.605,0.268-8.391,0.602c0.024,2.075,0.048,4.149,0.072,6.224c2.387-0.215,4.783-0.356,7.182-0.423
				c0.008,2.025,0.015,4.051,0.023,6.076c-2.382,0.045-4.762,0.141-7.136,0.286c0.025,2.154,0.05,4.307,0.075,6.461
				C70.306,43.878,73.165,43.829,76.026,43.815z"/>
		</g>
		<g>
			<path style="fill:#D2D2D6;" d="M93.6,44.171c-0.031,1.91-0.063,3.821-0.094,5.731c-5.108,0-10.217,0-15.325,0
				c0.005-10.427,0.011-20.854,0.016-31.28c5.179,0.032,10.354,0.621,15.434,1.766c-0.031,1.916-0.062,3.831-0.092,5.747
				c-2.762-0.503-5.546-0.873-8.342-1.109c-0.018,2.101-0.035,4.202-0.053,6.303c2.393,0.152,4.781,0.378,7.157,0.678
				c-0.029,1.932-0.059,3.864-0.088,5.795c-2.366-0.203-4.741-0.356-7.119-0.459c-0.018,2.181-0.037,4.362-0.055,6.543
				C87.896,43.946,90.751,44.041,93.6,44.171z"/>
		</g>
		<g>
			<path style="fill:#D2D2D6;" d="M96.16,21.006c2.293,0.605,4.564,1.325,6.802,2.16c-0.169,8.912-0.337,17.824-0.506,26.735
				c-2.269,0-4.538,0-6.807,0C95.819,40.27,95.989,30.638,96.16,21.006z M114.475,49.902c-2.437,0-4.875,0-7.312,0
				c-1.489-4.23-2.951-8.808-4.41-13.652c1.615-4.066,3.212-7.826,4.767-11.203c2.354,1.067,4.664,2.266,6.919,3.598
				c-1.5,2.58-3.083,5.651-4.713,9.129C111.27,42.212,112.841,46.285,114.475,49.902z"/>
		</g>
	</g>
</g>
</svg>
