<?xml version="1.0" encoding="iso-8859-1"?>
<!-- Generator: Adobe Illustrator 24.0.1, SVG Export Plug-In . SVG Version: 6.00 Build 0)  -->
<svg version="1.1" id="objects" xmlns="http://www.w3.org/2000/svg" xmlns:xlink="http://www.w3.org/1999/xlink" x="0px" y="0px"
	 viewBox="0 0 150 150" style="enable-background:new 0 0 150 150;" xml:space="preserve">
<g>
	<g>
		<polygon style="fill:#D2D2D6;" points="124.372,85.749 117.946,120.406 128.503,88.503 125.979,67.847 		"/>
		<g>
			<path style="fill:#D2D2D6;" d="M111.29,28.6c0,0,5.063,0.011,8.621,3.038c-4.011-4.042-14.552-11.967-34.28-10.005
				c0,0,7.45-6.956,17.854-7.263c0,0-12.624-3.1-32.439,5.985c0,0-2.792-3.529-18.189-4.26c0,0,6.943,2.329,8.78,4.777
				c0,0-10.405-2.142-18.669-1.223c0,0,7.652,1.53,10.712,3.366c0,0-19.743,2.595-26.853,20.273
				c-7.109,17.679,0.535,44.909,0.535,44.909l6.333,34.302l42.018,24.148l41.48-25.103l-38.42,17.758l0.667-10.061
				c0,0-11.736-1.83-20.278-8.431c0,0,21.098,3.44,36.575-10.149c0,0,4.152,2.018,5.988,4.773c0,0,0-7.039-12.852-10.099
				c0,0,5.41,3.31,4.741,4.338c0,0-6.264,5.934-16.523,7.062l-10.552-5.172l8.12,2.378l10.466-7.534l-11.476,4.361l-9.869-3.213
				l3.971-36.957l1.021,15.312l4.877-4.749l13.771,8.263l-7.574-7.804l21.528,15.93l16.802-10.652l-11.018,4.82l11.706-13.542
				l1.008-4.799c0,0-12.255,0.667-27.402,5.717c-4.327,1.443-16.985-6.656-16.985-6.656l-0.416-14.87l2.023,7.985l1.836-6.886
				c0,0,2.525,5.05,8.263,7.115c0,0-3.901-6.197-3.673-9.64c0,0,3.213,6.427,4.82,6.656c0,0-1.836-4.819-0.918-7.114
				c0,0,13.439,2.93,19.342,10.416c0,0,1.773-6.055-1.211-12.941c0,0,4.361,4.361,4.131,8.492c0,0,1.607-3.901-0.689-8.034
				c0,0,19.184,13.688,18.514,29.455C132.577,71.221,138.602,46.043,111.29,28.6z M72.731,140.832l-35.804-21.115l-5.049-31.444
				l9.18,30.067L72.731,140.832z"/>
			<path style="fill:#D2D2D6;" d="M119.912,31.637c1.318,1.328,1.936,2.241,1.936,2.241
				C121.305,32.986,120.636,32.254,119.912,31.637z"/>
		</g>
		<g>
			<path style="fill:#D2D2D6;" d="M24.196,66.964l-13.433,6.161l8.262,28.231l12.854-2.295L24.196,66.964z M19.713,99.061
				l-7.114-25.247l9.639-4.131l-6.656,5.738L19.713,99.061z"/>
			<polygon style="fill:#D2D2D6;" points="13.058,79.093 8.008,82.536 14.205,97.684 10.992,83.224 			"/>
		</g>
		<g>
			<path style="fill:#D2D2D6;" d="M122.461,99.061l12.853,2.295l8.262-28.231l-13.434-6.161L122.461,99.061z M138.756,75.421
				l-6.656-5.738l9.641,4.131l-7.116,25.247L138.756,75.421z"/>
			<polygon style="fill:#D2D2D6;" points="141.281,79.093 146.331,82.536 140.133,97.684 143.347,83.224 			"/>
		</g>
		<path style="fill:#D2D2D6;" d="M78.01,3.353c-34.478,0-62.428,27.95-62.428,62.428c0,1.859,0.118,3.686,0.282,5.502
			c0.692-0.594,1.531-1.05,2.551-1.271c-0.045-0.946-0.079-1.897-0.079-2.855c0-32.958,26.716-59.674,59.674-59.674
			c32.958,0,59.674,26.716,59.674,59.674c0,1.248-0.05,2.483-0.128,3.709c0.989,0.139,1.84,0.465,2.55,0.944
			c0.196-1.987,0.333-3.992,0.333-6.03C140.439,31.303,112.488,3.353,78.01,3.353z"/>
	</g>
</g>
</svg>
