<?xml version="1.0" encoding="iso-8859-1"?>
<!-- Generator: Adobe Illustrator 24.0.1, SVG Export Plug-In . SVG Version: 6.00 Build 0)  -->
<svg version="1.1" id="Layer_1" xmlns="http://www.w3.org/2000/svg" xmlns:xlink="http://www.w3.org/1999/xlink" x="0px" y="0px"
	 viewBox="0 0 150 150" style="enable-background:new 0 0 150 150;" xml:space="preserve">
<g>
	<path style="fill:#D2D2D6;" d="M19.276,47.949c0,0,6-2.588,13.412-15.529c4.588-6.706,10.118-13.732,21.647-14.689
		c-2.706-1.781-12.118-1.899-12.118-1.899s5.765-6.471,21.412-5.294c5.412,0.706,8.941,4.235,8.941,4.235s5.294-8.706,22.353-2.824
		c-1.059,0.118-6.824,1.294-9.059,3.765c4.941-1.059,18.118-2.588,30.823,10.824c5.882,7.059,8.118,14.353,7.059,27.882
		c-1.765-4.824-5.412-10.235-11.294-10.706c1.176,2.353,2.353,4.235,1.647,13.059c-3.176,0.471-24.941,3.765-40.823-18.823
		c0,5.059-2,12.635-13.647,19.259c-3.294-0.788-9.647-1.729-19.059,2.388c-2.588-0.471-5.529,0-5.529,0s-3.059,0.588-3.412,4.235
		c-1.294,0-5.176,0-5.176,0s6.546-4.194,5.294-16C29.746,48.891,21.393,49.479,19.276,47.949z"/>
	<path style="fill:#D2D2D6;" d="M117.035,61.771c-2.35-0.06-6.11,0.24-6.11,0.24s-4-3.41-13.89-3.65c-9.29,0-15.94,1.66-18.05,3.54
		c-2.48,0.06-6.71,0.05-6.71,0.05s-3.47-3.71-17.76-3.3c-6.47-0.05-9.75,0.55-14.59,3.25c-2.59,0.04-5.88-0.13-5.88-0.13
		s-1.06,0.83,0,3.88c1.58-0.05,4,0,4,0s-1.06,4.48,1.82,10.77s8.88,9.12,15.17,9.41c6.3,0.3,13.36-4.08,16-11.04
		c1.83-4.72,1.95-9.66,1.95-9.66l5.76-0.12c0,0-0.47,6.35,1.59,10.35s6.82,9.06,14.29,10.18c7.47,1.11,13.12-2.83,16.36-7.94
		c2.53-4.42,2.53-11.65,2.53-11.65l4.47-0.24C117.985,65.711,119.215,62.131,117.035,61.771z M64.925,77.601
		c-3,3.88-8.47,5.17-11.94,4.82c-7.89-1.71-11.3-9.71-11.83-13.24c-0.53-3.53,0.89-4.53,0.89-4.53c3.88-3.41,14.11-3,14.11-3
		s0,0,4.77,0c4.76,0,7.7,1.83,8.47,3C69.625,71.071,67.925,73.711,64.925,77.601z M104.275,79.301c-3.76,3.83-8,3.71-9.82,3.24
		c-7.65-2.53-10.65-8.53-11.77-11.83c-1.12-3.29-0.53-6.35-0.53-6.35c1.36-3.88,13.83-2.88,18.53-2.65c4.71,0.24,7.94,1.83,9.3,3.89
		C111.805,70.131,108.035,75.481,104.275,79.301z"/>
	<g>
		<path style="fill:#D2D2D6;stroke:#D2D2D6;stroke-linejoin:round;stroke-miterlimit:10;" d="M51.293,99.715v2.455h-3.672v-2.619
			c0-2.578-1.241-4.133-4.069-4.133c-2.779,0-4.069,1.555-4.069,4.133v15.142c0,2.579,1.291,4.134,4.069,4.134
			c2.828,0,4.069-1.555,4.069-4.134v-5.729h-3.573v-2.865h7.245v8.431c0,4.338-2.481,7.202-7.84,7.202
			c-5.309,0-7.791-2.864-7.791-7.202V99.715c0-4.338,2.481-7.203,7.791-7.203C48.812,92.512,51.293,95.377,51.293,99.715z"/>
		<path style="fill:#D2D2D6;stroke:#D2D2D6;stroke-linejoin:round;stroke-miterlimit:10;" d="M58.838,115.675l-1.339,5.771h-3.573
			l6.649-28.646h5.607l6.649,28.646h-3.871l-1.34-5.771H58.838z M59.335,112.934h7.741L63.156,96.4L59.335,112.934z"/>
		<path style="fill:#D2D2D6;stroke:#D2D2D6;stroke-linejoin:round;stroke-miterlimit:10;" d="M88.664,121.404h-3.722l-5.756-22.795
			v22.836h-3.375V92.799h5.409l5.706,22.876l5.508-22.876h5.409v28.646h-3.672v-23.04L88.664,121.404z"/>
		<path style="fill:#D2D2D6;stroke:#D2D2D6;stroke-linejoin:round;stroke-miterlimit:10;" d="M114.173,105.485v2.864h-8.485v10.19
			h10.42v2.905h-14.291V92.799h14.291v2.905h-10.42v9.781H114.173z"/>
	</g>
	<g>
		<path style="fill:#D2D2D6;" d="M58.383,129.31c0-2.331,1.155-3.835,3.486-3.835c2.354,0,3.508,1.504,3.508,3.835v7.888
			c0,2.31-1.155,3.835-3.508,3.835c-2.332,0-3.486-1.525-3.486-3.835V129.31z M60.061,137.284c0,1.395,0.588,2.201,1.809,2.201
			c1.242,0,1.809-0.807,1.809-2.201v-8.062c0-1.373-0.566-2.201-1.809-2.201c-1.22,0-1.809,0.828-1.809,2.201V137.284z"/>
		<path style="fill:#D2D2D6;" d="M68.252,125.627l2.484,13.271l2.462-13.271h1.569l-2.854,15.253h-2.506l-2.876-15.253H68.252z"/>
		<path style="fill:#D2D2D6;" d="M81.5,132.382v1.525h-3.726v5.426h4.576v1.547h-6.275v-15.253h6.275v1.547h-4.576v5.208H81.5z"/>
		<path style="fill:#D2D2D6;" d="M87.315,125.627c2.397,0,3.399,1.221,3.399,3.486v1.242c0,1.678-0.588,2.724-1.896,3.138
			c1.395,0.414,1.917,1.547,1.917,3.182v2.375c0,0.675,0.021,1.307,0.305,1.83H89.32c-0.196-0.436-0.283-0.828-0.283-1.853v-2.396
			c0-1.722-0.806-2.266-2.223-2.266h-1.198v6.515h-1.7v-15.253H87.315z M86.88,132.817c1.351,0,2.157-0.436,2.157-2.092v-1.46
			c0-1.372-0.501-2.092-1.765-2.092h-1.656v5.644H86.88z"/>
	</g>
</g>
</svg>
