<?xml version="1.0" encoding="utf-8"?>
<!-- Generator: Adobe Illustrator 23.0.3, SVG Export Plug-In . SVG Version: 6.00 Build 0)  -->
<svg version="1.1" id="Layer_1" xmlns="http://www.w3.org/2000/svg" xmlns:xlink="http://www.w3.org/1999/xlink" x="0px" y="0px"
	 viewBox="0 0 225 135.5" style="enable-background:new 0 0 225 135.5;" xml:space="preserve">
<style type="text/css">
	.st0{fill:#EBEBEB;}
	.st1{fill:#F5F5F5;}
	.st2{fill:#FAFAFA;}
	.st3{fill:#E0E0E0;}
	.st4{fill:#FFFFFF;}
	.st5{fill:#263238;}
	.st6{fill:#0A8AC6;}
	.st7{fill:#0A729B;}
	.st8{opacity:0.6;}
	.st9{fill:#E8505B;}
	.st10{fill:#0B76A0;}
	.st11{fill:#0C78A3;}
	.st12{fill:#455A64;}
	.st13{fill-rule:evenodd;clip-rule:evenodd;fill:#E8505B;}
	.st14{opacity:0.8;}
	.st15{fill-rule:evenodd;clip-rule:evenodd;fill:#FFFFFF;}
	.st16{fill:#FD5C95;}
	.st17{fill:#E8505B;stroke:#E8505B;stroke-width:0.2;stroke-miterlimit:10;}
	.st18{fill:#EBEBEB;stroke:#000000;stroke-width:0.2;stroke-miterlimit:10;}
	.st19{fill:#FC2B80;}
	.st20{opacity:0.2;}
	.st21{opacity:0.3;}
	.st22{fill:#EFEFEF;stroke:#000000;stroke-width:0.3;stroke-miterlimit:10;}
	.st23{fill:#23478E;}
	.st24{fill:#F9BFAD;}
	.st25{fill:#EB996E;}
</style>
<g>
	<g>
		<g>
			<g>
				<path class="st0" d="M178.7,79l0.5,9.3c0,0.3,0.3,0.6,0.6,0.6l16.7,0.1c0.3,0,0.6-0.3,0.6-0.6l0.1-7.2c0-0.3-0.3-0.6-0.6-0.6
					h-10.3c-0.2,0-0.3-0.1-0.4-0.2l-1.8-1.8c-0.1-0.1-0.3-0.2-0.4-0.2h-4.3C178.9,78.4,178.7,78.7,178.7,79z"/>
			</g>
		</g>
		<g>
			<g>
				
					<rect x="182.6" y="75.7" transform="matrix(7.328264e-03 -1 1 7.328264e-03 101.8268 272.2802)" class="st1" width="10.9" height="18.3"/>
			</g>
		</g>
		<g>
			<g>
				<path class="st0" d="M177.5,80.3l1.3,11.4c0,0.2,0.2,0.4,0.4,0.4l17.8,0.1c0.2,0,0.4-0.2,0.4-0.4l1-11.4c0-0.2-0.2-0.4-0.4-0.4
					l-20.1-0.1C177.6,79.8,177.5,80,177.5,80.3z"/>
			</g>
		</g>
	</g>
	<g>
		<g>
			
				<rect x="155.1" y="108" transform="matrix(0.9749 -0.2228 0.2228 0.9749 -20.9138 38.7209)" class="st2" width="12.1" height="8.1"/>
		</g>
		<g>
			<g>
				<g>
					<path class="st3" d="M166.2,106.9c0,0,0,0-0.1,0.1s-0.2,0.2-0.3,0.4c-0.2,0.3-0.6,0.8-1,1.3c-0.8,1.1-2,2.6-3.3,4.3l0,0l0,0
						h-0.1c-1.9-0.9-3.7-1.8-5-2.4c-0.6-0.3-1.1-0.6-1.5-0.7c-0.2-0.1-0.3-0.2-0.4-0.2c-0.1,0-0.1-0.1-0.1-0.1s0.1,0,0.1,0.1
						c0.1,0,0.2,0.1,0.4,0.2c0.4,0.2,0.9,0.4,1.5,0.7c1.3,0.6,3,1.5,5,2.4h0.1h-0.1c1.3-1.7,2.5-3.2,3.3-4.3c0.4-0.5,0.8-1,1-1.3
						c0.1-0.1,0.2-0.3,0.3-0.3C166.1,106.9,166.2,106.9,166.2,106.9z"/>
				</g>
			</g>
		</g>
		<g>
			<g>
				<path class="st3" d="M156.2,117.5c0,0,0.6-1.3,1.4-2.9c0.8-1.6,1.5-2.8,1.5-2.8s-0.6,1.3-1.4,2.9
					C156.9,116.2,156.2,117.5,156.2,117.5z"/>
			</g>
		</g>
		<g>
			<g>
				<path class="st3" d="M163,110.8c0,0,1.1,0.9,2.5,2s2.5,2,2.4,2c0,0-1.1-0.9-2.5-2C164.1,111.7,163,110.8,163,110.8z"/>
			</g>
		</g>
	</g>
	<g>
		<g id="XMLID_44_">
			<g id="XMLID_50_">
				<path class="st0" d="M54.9,114L54.9,114c-4.1,0-7.4-3.3-7.4-7.4l0,0c0-4.1,3.3-7.4,7.4-7.4l0,0c4.1,0,7.4,3.3,7.4,7.4l0,0
					C62.3,110.7,58.9,114,54.9,114z"/>
			</g>
			<g id="XMLID_45_">
				<g id="XMLID_47_">
					<g id="XMLID_49_">
						<rect x="51.5" y="105" class="st4" width="1.5" height="4.9"/>
					</g>
					<g id="XMLID_48_">
						<path class="st4" d="M52.3,104.3c0.5,0,0.9-0.4,0.9-0.9s-0.4-0.9-0.9-0.9s-0.9,0.4-0.9,0.9C51.4,103.9,51.8,104.3,52.3,104.3z
							"/>
					</g>
				</g>
				<g id="XMLID_46_">
					<path class="st4" d="M55.5,107.3c0-0.7,0.3-1.1,0.9-1.1c0.6,0,0.8,0.4,0.8,1.1s0,2.6,0,2.6h1.5c0,0,0-1.8,0-3.1
						c0-1.3-0.8-2-1.8-2s-1.5,0.8-1.5,0.8V105H54v4.9h1.5C55.5,109.9,55.5,108.1,55.5,107.3z"/>
				</g>
			</g>
		</g>
		<g id="XMLID_61_">
			<g id="XMLID_72_">
				<path class="st3" d="M141.2,125.3L141.2,125.3c-2.7,0-4.9-2.2-4.9-4.9l0,0c0-2.7,2.2-4.9,4.9-4.9l0,0c2.7,0,4.9,2.2,4.9,4.9l0,0
					C146.1,123.1,143.9,125.3,141.2,125.3z"/>
			</g>
			<g id="XMLID_62_">
				<g id="XMLID_68_">
					<path class="st4" d="M140.4,122c0.1,0,0.3-0.1,0.4-0.2c0.1-0.1,0.2-0.2,0.2-0.3c0.1-0.2,0.2-0.3,0.2-0.5s0-0.4-0.1-0.5
						s-0.2-0.2-0.4-0.3c0.1-0.1,0.2-0.1,0.3-0.2s0.2-0.3,0.2-0.5s-0.1-0.4-0.2-0.5c-0.2-0.2-0.5-0.4-0.9-0.4h-1.7v3.4h1.5
						C140.1,122.1,140.3,122,140.4,122z M139.1,119.2h0.7c0.2,0,0.3,0,0.4,0.1c0.1,0.1,0.2,0.2,0.2,0.3c0,0.1,0,0.2-0.1,0.3
						c-0.1,0.1-0.2,0.1-0.4,0.1h-0.8L139.1,119.2L139.1,119.2z M139.1,121.5v-0.9h0.8c0.1,0,0.3,0,0.3,0.1c0.1,0.1,0.2,0.2,0.2,0.4
						c0,0.2-0.1,0.4-0.2,0.4c-0.1,0-0.2,0.1-0.3,0.1L139.1,121.5L139.1,121.5z"/>
				</g>
				<g id="XMLID_63_">
					<g id="XMLID_65_">
						<path class="st4" d="M141.8,121.8c0.3,0.2,0.6,0.3,0.9,0.3c0.4,0,0.7-0.1,1-0.4c0.1-0.2,0.2-0.3,0.2-0.5h-0.7
							c0,0.1-0.1,0.1-0.1,0.2c-0.1,0.1-0.2,0.1-0.4,0.1c-0.1,0-0.3,0-0.4-0.1c-0.2-0.1-0.3-0.3-0.3-0.5h1.8c0-0.2,0-0.4,0-0.5
							c0-0.2-0.1-0.4-0.2-0.5c-0.1-0.2-0.3-0.3-0.4-0.4c-0.2-0.1-0.4-0.1-0.6-0.1c-0.4,0-0.7,0.1-0.9,0.4c-0.2,0.2-0.3,0.6-0.3,1
							C141.4,121.3,141.6,121.6,141.8,121.8z M142.3,120.1c0.1-0.1,0.2-0.1,0.4-0.1s0.3,0,0.4,0.1c0.1,0.1,0.2,0.2,0.2,0.4h-1.1
							C142.1,120.4,142.2,120.2,142.3,120.1z"/>
					</g>
					<g id="XMLID_64_">
						<rect x="141.9" y="118.8" class="st4" width="1.5" height="0.3"/>
					</g>
				</g>
			</g>
		</g>
		<g>
			<g>
				<g>
					<g>
						<g>
							
								<rect x="189.8" y="12.6" transform="matrix(0.1698 -0.9855 0.9855 0.1698 141.6924 214.6875)" class="st0" width="17" height="21.3"/>
						</g>
					</g>
				</g>
			</g>
			<g>
				<g>
					
						<rect x="190.7" y="13.3" transform="matrix(0.1698 -0.9855 0.9855 0.1698 141.5816 214.5479)" class="st1" width="14.9" height="19.8"/>
				</g>
			</g>
			<g>
				<g>
					<polygon class="st3" points="187.2,28.9 195.5,20.9 198.8,27.3 202.2,24.8 206.7,32.2 					"/>
				</g>
			</g>
			<g>
				<g>
					<g>
						<g>
							<path class="st3" d="M201.7,20.8c-0.1,0.8-1,1.4-1.8,1.3s-1.4-1-1.3-1.8c0.1-0.8,1-1.4,1.8-1.3
								C201.3,19.2,201.9,20,201.7,20.8z"/>
						</g>
					</g>
				</g>
			</g>
		</g>
		<g>
			<g>
				<path class="st0" d="M190,56.3v6.9c0,1.2-1,2.3-2.3,2.3H163c-1.2,0-2.3-1-2.3-2.3v-5.8l-3.1-3.2l30.1-0.1
					C189,54,190,55,190,56.3z"/>
			</g>
			<g>
				<g>
					<polygon class="st1" points="164.4,58.2 186.9,58.1 186.9,57.4 164.4,57.5 					"/>
				</g>
			</g>
			<g>
				<g>
					<polygon class="st1" points="164.4,60.5 186.9,60.4 186.9,59.7 164.4,59.8 					"/>
				</g>
			</g>
			<g>
				<g>
					
						<rect x="164.4" y="62" transform="matrix(1 -4.920701e-03 4.920701e-03 1 -0.3048 0.8316)" class="st1" width="8.9" height="0.7"/>
				</g>
			</g>
		</g>
		<g id="XMLID_51_">
			<g id="XMLID_60_">
				<path class="st0" d="M34.7,18L34.7,18c-3.2,0-5.8-2.6-5.8-5.8l0,0c0-3.2,2.6-5.8,5.8-5.8l0,0c3.2,0,5.8,2.6,5.8,5.8l0,0
					C40.5,15.4,37.9,18,34.7,18z"/>
			</g>
			<g id="XMLID_52_">
				<path class="st4" d="M34.7,8.4c-2,0-3.7,1.7-3.7,3.7s1.7,3.7,3.7,3.7s3.7-1.7,3.7-3.7S36.8,8.4,34.7,8.4z M34.7,9.1
					c0.7,0,1.3,0.2,1.9,0.6c-0.4,0.5-0.9,0.9-1.5,1.1c-0.3-0.6-0.7-1.1-1.1-1.7C34.2,9.1,34.5,9.1,34.7,9.1z M33.4,9.4
					c0.4,0.5,0.8,1.1,1.1,1.7c-0.8,0.2-1.6,0.3-2.7,0.3C32,10.6,32.6,9.8,33.4,9.4z M31.7,12.2C31.7,12.1,31.7,12.1,31.7,12.2
					c1.2-0.1,2.2-0.2,3.1-0.5c0.1,0.1,0.1,0.3,0.2,0.4c-1,0.3-1.9,1-2.6,2C31.9,13.6,31.7,12.9,31.7,12.2z M34.7,15.2
					c-0.7,0-1.4-0.2-1.9-0.6c0.6-1,1.4-1.6,2.3-1.9c0.3,0.7,0.5,1.5,0.6,2.3C35.5,15.1,35.1,15.2,34.7,15.2z M36.4,14.7
					c-0.1-0.7-0.3-1.4-0.6-2.1c0.6-0.1,1.2-0.1,1.9,0.1C37.6,13.5,37.1,14.2,36.4,14.7z M35.6,12c-0.1-0.2-0.2-0.3-0.2-0.5
					c0.7-0.3,1.3-0.7,1.7-1.3c0.4,0.5,0.7,1.1,0.7,1.8C37,11.9,36.3,11.8,35.6,12z"/>
			</g>
		</g>
	</g>
	<g>
		<g>
			<path class="st5" d="M222.3,133.3c0,0-57.1,0.1-111.6,0.1s-108.4,0-108.4-0.1c0,0,53.9-0.1,108.4-0.1
				C165.1,133.2,222.3,133.2,222.3,133.3z"/>
		</g>
	</g>
	<g>
		<g>
			<g>
				<g>
					<path class="st6" d="M146,67c0,0,0-0.6,0.1-1.3c0.1-0.7,0.2-1.2,0.2-1.2s0,0.6-0.1,1.3C146.2,66.5,146.1,67,146,67z"/>
				</g>
			</g>
			<g>
				<g>
					<path class="st6" d="M145.3,70.2c0,0,0-0.4,0.1-0.8s0.2-0.8,0.3-0.8c0,0,0,0.4-0.1,0.8C145.5,69.8,145.4,70.2,145.3,70.2z"/>
				</g>
			</g>
			<g>
				<g>
					<path class="st6" d="M144.4,73.3c0,0,0-0.4,0.2-0.8c0.1-0.4,0.3-0.8,0.3-0.7c0,0,0,0.4-0.2,0.8C144.6,73,144.4,73.3,144.4,73.3
						z"/>
				</g>
			</g>
			<g>
				<g>
					<path class="st6" d="M143.1,76.2c0,0,0.1-0.4,0.3-0.8s0.4-0.7,0.4-0.7s-0.1,0.4-0.3,0.8S143.1,76.3,143.1,76.2z"/>
				</g>
			</g>
			<g>
				<g>
					<path class="st6" d="M141.5,79.1c0,0,0.1-0.4,0.3-0.7c0.2-0.4,0.4-0.7,0.5-0.7c0,0-0.1,0.4-0.3,0.7
						C141.8,78.8,141.6,79.1,141.5,79.1z"/>
				</g>
			</g>
			<g>
				<g>
					<path class="st6" d="M139.7,81.8c0,0,0.1-0.3,0.4-0.7c0.3-0.4,0.5-0.6,0.5-0.6s-0.1,0.3-0.4,0.7
						C140,81.5,139.7,81.8,139.7,81.8z"/>
				</g>
			</g>
			<g>
				<g>
					<path class="st6" d="M137.6,84.2c0,0,0.2-0.3,0.5-0.7c0.3-0.3,0.6-0.6,0.6-0.6s-0.2,0.3-0.5,0.7
						C137.9,84,137.6,84.3,137.6,84.2z"/>
				</g>
			</g>
			<g>
				<g>
					<path class="st6" d="M135.3,86.5c0,0,0.2-0.3,0.5-0.6c0.3-0.3,0.6-0.5,0.6-0.5s-0.2,0.3-0.5,0.6
						C135.6,86.3,135.3,86.5,135.3,86.5z"/>
				</g>
			</g>
			<g>
				<g>
					<path class="st6" d="M132.8,88.6c0,0,0.2-0.3,0.6-0.6c0.4-0.3,0.7-0.5,0.7-0.4c0,0-0.2,0.3-0.6,0.6
						C133.1,88.4,132.8,88.6,132.8,88.6z"/>
				</g>
			</g>
			<g>
				<g>
					<path class="st6" d="M130.1,90.3c0,0,0.3-0.3,0.6-0.5c0.4-0.2,0.7-0.4,0.7-0.4s-0.3,0.3-0.6,0.5
						C130.4,90.2,130.1,90.4,130.1,90.3z"/>
				</g>
			</g>
			<g>
				<g>
					<path class="st6" d="M127.2,91.9c0,0,0.3-0.2,0.7-0.4c0.4-0.2,0.7-0.3,0.8-0.3c0,0-0.3,0.2-0.7,0.4
						C127.6,91.8,127.3,91.9,127.2,91.9z"/>
				</g>
			</g>
			<g>
				<g>
					<path class="st6" d="M124.2,93.1c0,0,0.3-0.2,0.7-0.4c0.4-0.2,0.8-0.3,0.8-0.2c0,0-0.3,0.2-0.7,0.4
						C124.6,93.1,124.3,93.2,124.2,93.1z"/>
				</g>
			</g>
			<g>
				<g>
					<path class="st6" d="M121.2,94.1c0,0,0.3-0.2,0.8-0.3c0.4-0.1,0.8-0.2,0.8-0.1c0,0-0.3,0.2-0.8,0.3
						C121.5,94.1,121.2,94.1,121.2,94.1z"/>
				</g>
			</g>
			<g>
				<g>
					<path class="st6" d="M118,94.7c0,0,0.3-0.1,0.8-0.2c0.4-0.1,0.8-0.1,0.8-0.1s-0.3,0.1-0.8,0.2C118.4,94.7,118,94.8,118,94.7z"
						/>
				</g>
			</g>
			<g>
				<g>
					<path class="st6" d="M114.8,95.1c0,0,0.4-0.1,0.8-0.1s0.8,0,0.8,0s-0.4,0.1-0.8,0.1C115.1,95.1,114.8,95.1,114.8,95.1z"/>
				</g>
			</g>
			<g>
				<g>
					<path class="st6" d="M111.5,95.1c0,0,0.4-0.1,0.8-0.1s0.8,0.1,0.8,0.1s-0.4,0.1-0.8,0.1S111.5,95.1,111.5,95.1z"/>
				</g>
			</g>
			<g>
				<g>
					<path class="st6" d="M108.3,94.8c0,0,0.4,0,0.8,0s0.8,0.1,0.8,0.2c0,0-0.4,0-0.8,0C108.6,94.9,108.3,94.8,108.3,94.8z"/>
				</g>
			</g>
			<g>
				<g>
					<path class="st6" d="M105.1,94.2c0,0,0.4,0,0.8,0.1s0.8,0.2,0.8,0.2s-0.4,0-0.8-0.1C105.4,94.4,105.1,94.3,105.1,94.2z"/>
				</g>
			</g>
			<g>
				<g>
					<path class="st6" d="M102,93.3c0,0,0.4,0,0.8,0.2c0.4,0.1,0.8,0.3,0.7,0.3c0,0-0.4,0-0.8-0.2C102.3,93.5,102,93.4,102,93.3z"/>
				</g>
			</g>
			<g>
				<g>
					<path class="st6" d="M99,92.1c0,0,0.4,0.1,0.8,0.2c0.4,0.2,0.7,0.3,0.7,0.4s-0.4-0.1-0.8-0.2C99.3,92.4,99,92.2,99,92.1z"/>
				</g>
			</g>
			<g>
				<g>
					<path class="st6" d="M96.1,90.7c0,0,0.4,0.1,0.8,0.3c0.4,0.2,0.7,0.4,0.7,0.5c0,0-0.4-0.1-0.8-0.3
						C96.4,90.9,96.1,90.7,96.1,90.7z"/>
				</g>
			</g>
			<g>
				<g>
					<path class="st6" d="M93.4,88.9c0,0,0.3,0.1,0.7,0.4c0.4,0.2,0.6,0.5,0.6,0.5s-0.3-0.1-0.7-0.4C93.6,89.2,93.3,88.9,93.4,88.9z
						"/>
				</g>
			</g>
			<g>
				<g>
					<path class="st6" d="M90.8,86.9c0,0,0.3,0.2,0.7,0.5c0.3,0.3,0.6,0.5,0.6,0.6c0,0-0.3-0.2-0.7-0.5C91,87.2,90.8,86.9,90.8,86.9
						z"/>
				</g>
			</g>
			<g>
				<g>
					<path class="st6" d="M88.5,84.7c0,0,0.3,0.2,0.6,0.5c0.3,0.3,0.5,0.6,0.5,0.6s-0.3-0.2-0.6-0.5C88.7,85,88.4,84.7,88.5,84.7z"
						/>
				</g>
			</g>
			<g>
				<g>
					<path class="st6" d="M86.4,82.2c0,0,0.3,0.2,0.6,0.6c0.3,0.3,0.5,0.6,0.4,0.7c0,0-0.3-0.2-0.6-0.6
						C86.5,82.6,86.3,82.3,86.4,82.2z"/>
				</g>
			</g>
			<g>
				<g>
					<path class="st6" d="M84.5,79.6c0,0,0.3,0.3,0.5,0.6c0.2,0.4,0.4,0.7,0.4,0.7s-0.3-0.3-0.5-0.6C84.6,79.9,84.4,79.6,84.5,79.6z
						"/>
				</g>
			</g>
			<g>
				<g>
					<path class="st6" d="M82.9,76.8c0,0,0.2,0.3,0.5,0.7c0.2,0.4,0.4,0.7,0.3,0.8c0,0-0.2-0.3-0.5-0.7C83,77.1,82.8,76.8,82.9,76.8
						z"/>
				</g>
			</g>
			<g>
				<g>
					<path class="st6" d="M81.5,73.8c0,0,0.2,0.3,0.4,0.7c0.2,0.4,0.3,0.8,0.2,0.8c0,0-0.2-0.3-0.4-0.7
						C81.6,74.2,81.5,73.8,81.5,73.8z"/>
				</g>
			</g>
			<g>
				<g>
					<path class="st6" d="M80.5,70.8c0,0,0.2,0.3,0.3,0.7c0.1,0.4,0.2,0.8,0.2,0.8s-0.2-0.3-0.3-0.7C80.5,71.1,80.4,70.8,80.5,70.8z
						"/>
				</g>
			</g>
			<g>
				<g>
					<path class="st6" d="M79.7,67.6c0,0,0.2,0.3,0.2,0.8c0.1,0.4,0.1,0.8,0.1,0.8s-0.2-0.3-0.2-0.8C79.7,68,79.7,67.6,79.7,67.6z"
						/>
				</g>
			</g>
			<g>
				<g>
					<path class="st6" d="M79.3,64.4c0,0,0.1,0.4,0.2,0.8c0,0.4,0.1,0.8,0,0.8c0,0-0.1-0.3-0.2-0.8C79.3,64.8,79.3,64.4,79.3,64.4z"
						/>
				</g>
			</g>
			<g>
				<g>
					<path class="st6" d="M79.2,61.2c0,0,0.1,0.4,0.1,0.8c0,0.4,0,0.8-0.1,0.8c0,0-0.1-0.4-0.1-0.8C79.1,61.5,79.1,61.2,79.2,61.2z"
						/>
				</g>
			</g>
			<g>
				<g>
					<path class="st6" d="M79.4,57.9c0,0,0.1,0.4,0,0.8c0,0.4-0.1,0.8-0.1,0.8s-0.1-0.4,0-0.8C79.2,58.3,79.3,57.9,79.4,57.9z"/>
				</g>
			</g>
			<g>
				<g>
					<path class="st6" d="M79.8,54.7c0,0,0,0.4-0.1,0.8c-0.1,0.4-0.2,0.8-0.2,0.8s0-0.4,0.1-0.8C79.7,55.1,79.8,54.7,79.8,54.7z"/>
				</g>
			</g>
			<g>
				<g>
					<path class="st6" d="M80.6,51.6c0,0,0,0.4-0.1,0.8c-0.1,0.4-0.3,0.8-0.3,0.8s0-0.4,0.1-0.8C80.5,51.9,80.6,51.6,80.6,51.6z"/>
				</g>
			</g>
			<g>
				<g>
					<path class="st6" d="M81.7,48.5c0,0-0.1,0.4-0.2,0.8c-0.2,0.4-0.3,0.7-0.4,0.7c0,0,0.1-0.4,0.2-0.8
						C81.5,48.8,81.7,48.5,81.7,48.5z"/>
				</g>
			</g>
			<g>
				<g>
					<path class="st6" d="M83.1,45.6c0,0-0.1,0.4-0.3,0.8c-0.2,0.4-0.4,0.7-0.4,0.7s0.1-0.4,0.3-0.8S83.1,45.6,83.1,45.6z"/>
				</g>
			</g>
			<g>
				<g>
					<path class="st6" d="M84.8,42.8c0,0-0.1,0.4-0.4,0.7c-0.2,0.4-0.5,0.7-0.5,0.6c0,0,0.1-0.4,0.4-0.7
						C84.5,43.1,84.7,42.8,84.8,42.8z"/>
				</g>
			</g>
			<g>
				<g>
					<path class="st6" d="M86.7,40.2c0,0-0.2,0.3-0.4,0.7c-0.3,0.4-0.5,0.6-0.6,0.6c0,0,0.2-0.3,0.4-0.7
						C86.4,40.5,86.7,40.2,86.7,40.2z"/>
				</g>
			</g>
			<g>
				<g>
					<path class="st6" d="M88.9,37.8c0,0-0.2,0.3-0.5,0.6s-0.6,0.6-0.6,0.5c0,0,0.2-0.3,0.5-0.6C88.6,38,88.8,37.8,88.9,37.8z"/>
				</g>
			</g>
			<g>
				<g>
					<path class="st6" d="M91.3,35.6c0,0-0.2,0.3-0.6,0.6c-0.3,0.3-0.6,0.5-0.7,0.5c0,0,0.2-0.3,0.6-0.6
						C90.9,35.8,91.2,35.6,91.3,35.6z"/>
				</g>
			</g>
			<g>
				<g>
					<path class="st6" d="M93.8,33.7c0,0-0.2,0.3-0.6,0.5c-0.4,0.3-0.7,0.4-0.7,0.4s0.2-0.3,0.6-0.5C93.5,33.8,93.8,33.6,93.8,33.7z
						"/>
				</g>
			</g>
			<g>
				<g>
					<path class="st6" d="M96.6,32c0,0-0.3,0.3-0.7,0.5c-0.4,0.2-0.7,0.4-0.7,0.3c0,0,0.3-0.3,0.7-0.5C96.2,32.1,96.6,31.9,96.6,32z
						"/>
				</g>
			</g>
			<g>
				<g>
					<path class="st6" d="M99.5,30.5c0,0-0.3,0.2-0.7,0.4c-0.4,0.2-0.7,0.3-0.8,0.3c0,0,0.3-0.2,0.7-0.4
						C99.1,30.6,99.5,30.5,99.5,30.5z"/>
				</g>
			</g>
			<g>
				<g>
					<path class="st6" d="M102.5,29.4c0,0-0.3,0.2-0.7,0.3c-0.4,0.1-0.8,0.2-0.8,0.2s0.3-0.2,0.7-0.3
						C102.2,29.4,102.5,29.4,102.5,29.4z"/>
				</g>
			</g>
			<g>
				<g>
					<path class="st6" d="M105.7,28.6c0,0-0.3,0.2-0.8,0.3c-0.4,0.1-0.8,0.2-0.8,0.1c0,0,0.3-0.2,0.8-0.3
						C105.3,28.6,105.6,28.5,105.7,28.6z"/>
				</g>
			</g>
			<g>
				<g>
					<path class="st6" d="M108.8,28c0,0-0.3,0.1-0.8,0.2c-0.4,0.1-0.8,0.1-0.8,0c0,0,0.3-0.1,0.8-0.2C108.5,28,108.8,28,108.8,28z"
						/>
				</g>
			</g>
			<g>
				<g>
					<path class="st6" d="M112.1,27.8c0,0-0.4,0.1-0.8,0.1s-0.8,0-0.8,0s0.4-0.1,0.8-0.1C111.7,27.7,112.1,27.7,112.1,27.8z"/>
				</g>
			</g>
			<g>
				<g>
					<path class="st6" d="M115.3,27.9c0,0-0.4,0.1-0.8,0c-0.4,0-0.8-0.1-0.8-0.1s0.4-0.1,0.8,0C115,27.8,115.3,27.8,115.3,27.9z"/>
				</g>
			</g>
			<g>
				<g>
					<path class="st6" d="M118.5,28.3c0,0-0.4,0-0.8,0c-0.4-0.1-0.8-0.2-0.8-0.2s0.4,0,0.8,0C118.2,28.1,118.5,28.2,118.5,28.3z"/>
				</g>
			</g>
			<g>
				<g>
					<path class="st6" d="M121.7,29c0,0-0.4,0-0.8-0.1s-0.8-0.2-0.8-0.3c0,0,0.4,0,0.8,0.1C121.4,28.8,121.7,28.9,121.7,29z"/>
				</g>
			</g>
			<g>
				<g>
					<path class="st6" d="M124.8,30c0,0-0.4,0-0.8-0.2c-0.4-0.1-0.8-0.3-0.7-0.3c0,0,0.4,0,0.8,0.2C124.5,29.8,124.8,29.9,124.8,30z
						"/>
				</g>
			</g>
			<g>
				<g>
					<path class="st6" d="M127.7,31.3c0,0-0.4-0.1-0.8-0.3c-0.4-0.2-0.7-0.4-0.7-0.4s0.4,0.1,0.8,0.3
						C127.5,31,127.8,31.2,127.7,31.3z"/>
				</g>
			</g>
			<g>
				<g>
					<path class="st6" d="M130.6,32.8c0,0-0.4-0.1-0.7-0.3c-0.4-0.2-0.7-0.4-0.7-0.5c0,0,0.4,0.1,0.7,0.3
						C130.3,32.6,130.6,32.8,130.6,32.8z"/>
				</g>
			</g>
			<g>
				<g>
					<path class="st6" d="M133.2,34.7c0,0-0.3-0.1-0.7-0.4c-0.4-0.3-0.6-0.5-0.6-0.5s0.3,0.1,0.7,0.4
						C133,34.4,133.3,34.6,133.2,34.7z"/>
				</g>
			</g>
			<g>
				<g>
					<path class="st6" d="M135.7,36.8c0,0-0.3-0.2-0.7-0.5c-0.3-0.3-0.6-0.6-0.6-0.6s0.3,0.2,0.7,0.5
						C135.5,36.5,135.8,36.7,135.7,36.8z"/>
				</g>
			</g>
			<g>
				<g>
					<path class="st6" d="M138,39.1c0,0-0.3-0.2-0.6-0.5s-0.5-0.6-0.5-0.6s0.3,0.2,0.6,0.5S138,39.1,138,39.1z"/>
				</g>
			</g>
			<g>
				<g>
					<path class="st6" d="M140,41.6c0,0-0.3-0.2-0.6-0.6c-0.3-0.4-0.5-0.7-0.4-0.7c0,0,0.3,0.2,0.6,0.6
						C139.9,41.3,140.1,41.6,140,41.6z"/>
				</g>
			</g>
			<g>
				<g>
					<path class="st6" d="M141.8,44.3c0,0-0.3-0.3-0.5-0.6c-0.2-0.4-0.4-0.7-0.4-0.7s0.3,0.3,0.5,0.6
						C141.7,44,141.8,44.3,141.8,44.3z"/>
				</g>
			</g>
			<g>
				<g>
					<path class="st6" d="M143.3,47.2c0,0-0.2-0.3-0.4-0.7s-0.3-0.7-0.3-0.8c0,0,0.2,0.3,0.4,0.7C143.2,46.8,143.4,47.1,143.3,47.2z
						"/>
				</g>
			</g>
			<g>
				<g>
					<path class="st6" d="M144.6,50.2c0,0-0.2-0.3-0.4-0.7s-0.3-0.8-0.2-0.8c0,0,0.2,0.3,0.4,0.7C144.5,49.8,144.6,50.1,144.6,50.2z
						"/>
				</g>
			</g>
			<g>
				<g>
					<path class="st6" d="M145.5,53.3c0,0-0.2-0.3-0.3-0.8c-0.1-0.4-0.2-0.8-0.1-0.8c0,0,0.2,0.3,0.3,0.8
						C145.5,52.9,145.5,53.3,145.5,53.3z"/>
				</g>
			</g>
			<g>
				<g>
					<path class="st6" d="M146.1,56.4c0,0-0.1-0.3-0.2-0.8c-0.1-0.4-0.1-0.8-0.1-0.8s0.1,0.3,0.2,0.8
						C146.1,56.1,146.2,56.4,146.1,56.4z"/>
				</g>
			</g>
			<g>
				<g>
					<path class="st6" d="M146.4,59.7c0,0-0.1-0.4-0.1-0.8c0-0.4,0-0.8,0-0.8s0.1,0.4,0.1,0.8C146.5,59.3,146.5,59.7,146.4,59.7z"/>
				</g>
			</g>
			<g>
				<g>
					<path class="st6" d="M146.5,62.9c0,0-0.1-0.4-0.1-0.8c0-0.4,0.1-0.8,0.1-0.8s0.1,0.4,0.1,0.8S146.5,62.9,146.5,62.9z"/>
				</g>
			</g>
		</g>
		<g>
			<g>
				<g>
					<g>
						<path class="st5" d="M141.3,58.6c0-0.3-0.1-0.7-0.1-1s-0.1-0.7-0.2-1c0.1,0.3,0.1,0.7,0.2,1C141.2,57.9,141.3,58.2,141.3,58.6
							z"/>
					</g>
				</g>
				<g>
					<g>
						<path class="st6" d="M138.7,62.6c-0.3-0.6-0.3-1.4-0.5-2c-0.1-0.4-0.3-0.7-0.6-0.9c-0.2-0.1-0.5-0.1-0.7-0.2
							c-0.9-0.3-1.1-1.5-1.9-1.8c-0.3-0.1-0.5-0.1-0.8-0.2c-1.1-0.1-2.2-0.5-2.9-1.4c-0.2-0.3-0.4-0.6-0.7-0.8s-0.7-0.3-1-0.1
							c0.2,0.5,0.5,0.9,0.7,1.4c0.2,0.4,0.4,0.8,0.8,1.1c0.3,0.3,0.9,0.5,1.3,0.3c0.1-0.1,0.3-0.2,0.4-0.2c0.1,0,0.2,0.1,0.3,0.2
							c0.6,0.7,0.4,1.7-0.2,2.4c-0.6,0.7-1.4,1-2.2,1.3c-0.3,0.1-0.6,0.2-0.9,0.2c-0.6-0.1-0.9-0.7-1-1.3c-0.4-1.2-0.5-2.6-1.3-3.6
							c-0.2-0.3-0.5-0.6-0.7-1s-0.1-0.9-0.4-1.3c-0.3-0.4-0.8-0.6-0.8-1.1c0-0.3,0.2-0.6,0.5-0.7c0.3-0.1,0.6-0.2,0.9-0.3
							c0.1-0.1,0.3-0.1,0.3-0.3S127,52,127,51.9c-0.1-0.2,0.1-0.4,0.2-0.6c0.2-0.4-0.3-0.9-0.7-1.1c-0.4-0.2-1-0.3-1.2-0.8
							c-0.1-0.2-0.1-0.4-0.1-0.7c-0.1-0.6-0.5-1.1-1.1-1.2c-0.6-0.1-1.2,0.4-1.1,1c0.1,0.3,0.3,0.5,0.4,0.8s0.1,0.7-0.2,0.8
							c-0.5,0.1-0.9-0.7-1.3-0.4c0.2,0.6,0.3,1.1,0.5,1.7c-0.6,0.3-1.4-0.3-1.7-0.9c-0.3-0.7-0.3-1.4-0.6-2
							c-0.3-0.6-1.2-1.1-1.7-0.7c0,0.8,1,1.1,1.5,1.8c0.3,0.5,0.3,1.2-0.2,1.6c-0.5,0.3-1.3-0.2-1.1-0.8c0.1-0.2,0.2-0.4,0.2-0.6
							c0-0.3-0.2-0.5-0.4-0.6c-0.3-0.3-0.6-0.5-0.9-0.8c-0.2-0.2-0.4-0.3-0.7-0.4c-0.6-0.2-1.3,0.3-1.6,0.9c-0.3,0.6-0.5,1.2-1,1.7
							c-0.7,0.7-1.9,0.7-2.5,0s-0.3-2.1,0.6-2.3c0.3-0.1,0.8-0.1,1-0.4c0.3-0.5-0.6-1.2-0.3-1.8c0.2-0.4,0.9-0.2,1.4-0.4
							c0.5-0.1,0.7-0.6,1-1s0.7-0.8,1.2-0.7c0-0.3-0.1-0.6,0.1-0.8c0.1-0.3,0.5-0.4,0.7-0.3c-0.2,0.4,0,0.9,0.5,1.1
							c0.4,0.2,0.9,0.1,1.3,0.1c0.4-0.1,1-0.2,1-0.7c0-0.1,0-0.3,0-0.4c0.2-0.5,1.2,0.2,1.6-0.2c0.2-0.2,0-0.6-0.3-0.7
							c-0.3-0.1-0.6,0-0.9,0s-0.7-0.2-0.7-0.5s0.3-0.5,0.4-0.8c0.1-0.5-0.8-0.6-1.1-0.2c-0.3,0.4-0.2,1-0.1,1.5s0.1,1.1-0.2,1.5
							c-0.2,0.2-0.6,0.1-0.7-0.1c-0.1-0.3-0.1-0.6-0.1-0.9c0-0.3-0.2-0.6-0.4-0.7c-0.2-0.1-0.4,0-0.6,0.1c-0.8,0.1-1.4-0.9-1.1-1.7
							c0.2-0.8,1-1.3,1.7-1.6c0.5-0.3,1.1-0.5,1.7-0.3c0.2,0.1,0.4,0.4,0.6,0.5c0.4,0.2,0.9,0.2,1.4,0.2c0.7,0,1.4,0.3,2,0.8
							c0.2,0.2,0.4,0.5,0.2,0.7c-0.2,0.2-0.7,0.3-0.6,0.6c0.5,0.2,1.2-0.2,1.2-0.8c0.3,0.1,0.5,0.4,0.5,0.7c0.6-0.6,1.7-0.5,2.2,0.2
							c0.1,0.2,0.2,0.4,0.4,0.5c0.2,0.1,0.5,0.1,0.5-0.2c0-0.1,0-0.1,0-0.2c-0.1-0.3-0.2-0.6-0.3-0.9c0.4-0.2,0.9,0.1,1.2,0.5
							c1.1,1.4,1.8,0.6,3.3,0.8c1,0.2,1.5,0.8,2,1.6c1.8,2.4,4.1,4.4,5.7,7c0.2,0.3,0.3,0.5,0.5,0.8c0-0.1-0.1-0.1-0.1-0.2
							c-0.6-1.7-1.4-3.3-2.3-4.7c-0.2-0.3-0.4-0.6-0.6-0.9c-0.1-0.2-0.3-0.4-0.4-0.6c-0.2-0.2-0.3-0.5-0.5-0.7
							c-0.1-0.2-0.3-0.4-0.4-0.6c-0.1-0.1-0.2-0.3-0.3-0.4c-0.1-0.1-0.2-0.3-0.4-0.4l-0.4-0.4l-0.1-0.1c-0.1-0.2-0.3-0.3-0.4-0.5
							l0,0l-0.1-0.1c-0.1-0.1-0.2-0.3-0.4-0.4c-0.2-0.2-0.4-0.4-0.6-0.6c-0.2-0.2-0.3-0.3-0.5-0.5c-0.2-0.1-0.3-0.3-0.5-0.4
							c-0.2-0.1-0.3-0.3-0.5-0.4c-0.2-0.2-0.4-0.3-0.6-0.5l0,0c-0.6-0.4-1.1-0.9-1.7-1.3c-0.1-0.1-0.3-0.2-0.4-0.3
							c-0.1-0.1-0.3-0.2-0.4-0.3c-0.2-0.1-0.3-0.2-0.4-0.3c-0.2-0.1-0.3-0.2-0.5-0.3c-0.1-0.1-0.2-0.1-0.4-0.2
							c-0.1,0-0.1-0.1-0.2-0.1c-0.3-0.1-0.5-0.3-0.8-0.4c-0.1-0.1-0.3-0.1-0.4-0.2c-0.2-0.1-0.3-0.2-0.5-0.2h-0.1
							c-0.2-0.1-0.3-0.1-0.5-0.2c-0.2-0.1-0.4-0.2-0.7-0.3c-0.3-0.1-0.5-0.2-0.8-0.3s-0.6-0.2-0.9-0.3s-0.6-0.2-0.9-0.3
							s-0.6-0.2-0.9-0.3c-0.6-0.2-1.2-0.3-1.8-0.4l0,0c-0.2,0-0.5-0.1-0.7-0.1l0,0c-0.1,0-0.2,0-0.3-0.1c-0.4-0.1-0.9-0.1-1.3-0.2
							c-0.1,0-0.1,0-0.2,0s-0.3,0-0.4,0c-0.3,0-0.6-0.1-0.9-0.1s-0.6,0-0.9,0s-0.7,0-1,0c-0.9,0-1.7,0-2.6,0.1c-0.2,0-0.4,0-0.6,0.1
							c-0.2,0-0.4,0-0.6,0.1c-0.2,0-0.4,0.1-0.6,0.1s-0.4,0.1-0.6,0.1s-0.4,0.1-0.5,0.1c-0.4,0.1-0.9,0.2-1.3,0.3
							c-0.2,0-0.4,0.1-0.6,0.2c-0.2,0.1-0.4,0.1-0.6,0.2c-0.3,0.1-0.6,0.2-1,0.3l0,0c-0.3,0.1-0.5,0.2-0.8,0.3l0,0
							c-0.3,0.1-0.5,0.2-0.8,0.3l0,0c-0.2,0.1-0.5,0.2-0.7,0.3c-0.3,0.1-0.6,0.2-0.9,0.4c-0.2,0.1-0.5,0.2-0.7,0.3s-0.5,0.2-0.7,0.4
							l0,0c-0.2,0.1-0.5,0.3-0.7,0.4c-0.2,0.1-0.5,0.3-0.7,0.4l0,0c-0.2,0.1-0.4,0.3-0.6,0.4c-0.1,0.1-0.2,0.1-0.2,0.2
							c-0.2,0.1-0.4,0.3-0.7,0.5c-0.3,0.2-0.5,0.4-0.8,0.6c-0.2,0.2-0.5,0.4-0.7,0.5c-1.3,1-2.5,2.2-3.6,3.4
							c-0.4,0.4-0.8,0.9-1.1,1.3c-0.3,0.4-0.6,0.8-0.9,1.2s-0.5,0.7-0.7,1.1c0.2-0.4,0.5-0.7,0.7-1.1c0.1,0,0.1,0,0.2,0
							c0.4,0,0.8,0,1.2-0.2c0.3-0.2,0.6-0.5,0.9-0.7c0.8-0.6,2.1-0.7,2.3-1.6c0.1-0.3,0-0.7,0.1-1c0.2-0.6,1-0.7,1.6-0.6
							c0.3,0,0.6,0,0.7,0.3c0.1,0.2,0,0.4,0,0.5c-0.4,1.1-1.1,2-2.1,2.6c-0.8,0.5-1.8,0.9-2.1,1.8c0.1,0.3,0.7,0.3,0.7,0.6
							s-0.3,0.4-0.4,0.6c-0.2,0.3,0.2,0.7,0.6,0.7s0.7-0.3,1-0.5c0.8-0.8,1.7-1.6,2-2.7c0.1-0.5,0.2-1,0.5-1.3
							c0.4-0.4,1.2-0.1,1.4,0.4c0.4-0.2,0.9-0.4,1.1,0c0.1,0.1,0,0.3,0.1,0.4c0.1,0.6,0.9,0.9,1,1.4c0.1,0.7-0.8,1-1.5,1.1
							c-0.6,0.1-1.2,0.2-1.9,0.3c-0.3,0-0.5,0.1-0.8,0.2c-0.2,0.2-0.4,0.5-0.2,0.7c0.1,0.1,0.2,0.2,0.3,0.3c0.5,0.5,0.1,1.6-0.6,1.6
							c-0.2,0-0.5-0.1-0.7-0.1c-0.7,0-1.3,0.6-1.7,1.3c-0.3,0.6-0.6,1.4-1.2,1.8c-0.9,0.7-2.6,0.5-3,1.6c-0.2,0.4-0.1,0.9,0,1.4
							s0.1,1-0.2,1.4c-0.3,0.4-1,0.5-1.2,0c-0.1-0.2-0.1-0.4,0-0.6c0.1-0.7,0.2-1.4,0.3-2c0.1-0.5,0.1-1.1-0.2-1.5
							c-0.4-0.6-1.4-0.5-1.9-0.1c-0.5,0.5-0.8,1.2-0.9,1.9c-0.1,0.5-0.2,1.2-0.5,1.8l0,0c-0.1,0.6-0.2,1.1-0.2,1.7
							c-0.1,0.6-0.1,1.2-0.1,1.8c0.1-0.1,0.2-0.1,0.2-0.2c0.3-0.3,0.9-1.6,1.4-0.9c0.1,0.2,0.1,0.4,0,0.6c-0.2,0.2-0.5,0.3-0.6,0.5
							c-0.2,0.3,0.1,0.6,0.3,0.8c0.2,0.2,0.5,0.3,0.7,0.5c0.3,0.5,0,1.2,0.3,1.7c0.3,0.4,0.9,0.4,1.4,0.5c0.1,0,0.1,0,0.2,0
							c0.1-1,0.6-1.8,2-2.1c1.9-0.4,4.4,1.1,5.5,2.6c1.2,1.6,1.8,3.9,3.6,4.7c1.3,0.6,3.2,0.4,3.8,1.6c0.6,1.1-0.4,2.4-0.6,3.7
							c-0.1,0.8,0.2,1.7,0.2,2.5c0.1,0.8-0.2,1.8-1,2.2c-0.4,0.2-1,0.2-1.3,0.5c-0.6,0.6-0.1,1.8-0.7,2.3c-0.2,0.2-0.5,0.3-0.8,0.4
							C97.3,83,97.4,85,98,86.4c0,0.1,0,0.1,0.1,0.1c2,1.2,4.2,2.2,6.5,2.9c2.6,0.8,5.4,1.2,8.3,1.2c4.9,0,9.5-1.2,13.6-3.4l0,0
							c0.9-0.5,1.7-1,2.6-1.5c1.3-0.9,2.5-1.8,3.6-2.9c0.8-0.7,1.5-1.5,2.2-2.3c0.5-0.6,0.9-1.1,1.4-1.7c0.2-0.3,0.4-0.6,0.7-0.9
							c0.6-0.9,1.2-1.9,1.7-2.9c0.8-1.4,1.4-2.9,1.9-4.5s0.9-3.2,1.1-4.9c0.1-0.7,0.2-1.3,0.2-2c-0.3,0.3-0.7,0.5-1.2,0.5
							C139.5,63.9,139,63.3,138.7,62.6z"/>
					</g>
				</g>
				<g>
					<g>
						<path class="st5" d="M105.6,40.1c-0.6,0.3-0.9,1-1.3,1.5s-1.2,0.9-1.8,0.4c-0.3-0.2-0.4-0.5-0.4-0.9c0-0.5,0.1-0.9,0.3-1.3
							c0.2-0.4,0.6-0.7,0.8-1.2c0.2-0.4,0.2-1.1-0.3-1.3c-0.2-0.1-0.5-0.1-0.7-0.2c-0.4-0.3-0.1-0.9,0.3-1.1c0.4-0.2,0.9,0,1.4,0
							c1.7,0.1,2.9-1,4.2-1.9c1-0.7,3.1-1.5,4.2-0.8c0.5,0.3,0.6,1,0.2,1.4c-0.2,0.1-0.5,0.2-0.6,0.3c-0.2,0.2-0.2,0.5-0.4,0.8
							c-0.3,0.7-1.2,0.9-1.5,1.6c-0.2,0.4-0.1,0.9-0.4,1.3c-0.2,0.3-0.6,0.4-0.9,0.5c-0.7,0.2-1.5,0.3-2.2,0.5
							C106.2,39.8,105.9,39.9,105.6,40.1z"/>
					</g>
				</g>
				<g>
					<g>
						<path class="st5" d="M130.6,76.9c-0.5,0.1-1-0.2-1.4,0.1c-0.2,0.2-0.3,0.5-0.3,0.7c-0.1,0.4-0.3,0.7-0.7,0.9
							c-0.3,0.2-0.8,0.2-1.1,0c-0.3-0.2-0.4-0.7-0.1-1c0.1-0.1,0.3-0.2,0.4-0.3c0.6-0.6,0.2-1.7,0.7-2.4c0.3-0.4,0.7-0.8,1-1.2
							c0.2-0.3,0.3-0.6,0.8-0.7C131.7,72.7,132.5,76.6,130.6,76.9z"/>
					</g>
				</g>
				<g>
					<g>
						<path class="st7" d="M87.4,69c-0.1-0.8,0.2-1.7,0.2-2.5c0-0.6,0-1.2,0-1.8c-0.5,0-1-0.1-1.5-0.2c-0.1,0-0.2-0.1-0.3-0.1
							c-0.1-0.1-0.1-0.2-0.1-0.3c0-0.6-0.7-1.1-1.2-1.4c-0.3-0.2-0.6-0.3-0.9-0.4c0,0.1,0,0.1,0,0.2c0.1,3.2,0.8,6.3,1.8,9.2
							c0.5,1.3,1.1,2.6,1.8,3.8c0.3,0.5,0.6,1,0.9,1.6c0.4,0.6,0.8,1.2,1.3,1.8c0.4,0.6,0.9,1.1,1.3,1.7c0.6,0.7,1.3,1.4,2,2.1
							c0.6,0.6,1.3,1.2,2,1.7c-1.6-4.2-3.1-8.6-5.8-12.2C88.3,71.2,87.5,70.2,87.4,69z"/>
					</g>
				</g>
				<g>
					<g>
						<path class="st5" d="M83.6,60.9c0,0.2,0,0.3,0,0.5c0,0.1,0,0.3,0,0.4c0-0.1,0-0.3,0-0.4S83.6,61.1,83.6,60.9z"/>
					</g>
				</g>
				<g class="st8">
					<g>
						<path class="st5" d="M96.4,85.5c0.2,0.2,0.5,0.3,0.7,0.5c0.2,0.1,0.3,0.2,0.5,0.3c-0.2-0.1-0.4-0.2-0.5-0.3
							C96.9,85.8,96.7,85.6,96.4,85.5z"/>
					</g>
				</g>
				<g>
					<g>
						<path class="st7" d="M130.4,67.3c1.1-1,1.6-3.2,0.2-3.7c-0.5-0.2-1.2,0-1.7-0.2c-0.7-0.3-1-1-1.3-1.8c-0.7-1.8-1.3-3.7-2-5.5
							c-0.4-1.1-1-2.4-2.2-2.6c-0.7-0.1-1.3,0.2-2,0.3c-2.3,0.4-6.1-5.1-7.8-1.4c-0.2-1-1.9-0.6-2.4,0.3c-0.5,0.9-0.6,2.1-1.5,2.7
							c-0.6,0.5-1.6,0.5-2.1,1.1c-0.4,0.4-0.4,1-0.5,1.6c-0.1,1.1-0.2,2.1-0.3,3.2c-0.1,0.8-0.1,1.8,0.3,2.5s1.5,1.2,2.1,0.6
							c0.3-0.3,0.4-0.7,0.6-1c0.4-0.5,1.1-0.7,1.7-0.6c0.5,0.1,0.9,0.5,1.3,0.9c2.9,3.2,4,7.7,4.1,12c0,0.8,0,1.6,0.3,2.3
							c0.3,0.9,1.1,1.6,1.3,2.5c0.2,0.7,0,1.5,0.3,2.1c0.5,1.2,2.4,1.2,3.4,0.4c1-0.9,1.3-2.2,1.5-3.5s0.3-2.7,1.1-3.8
							c0.4-0.7,1.1-1.2,1.4-2c0.4-1,0.1-2.3,0.5-3.4C127.7,69,129.3,68.3,130.4,67.3z"/>
					</g>
				</g>
				<g class="st8">
					<g>
						<path class="st5" d="M83.6,60.2L83.6,60.2L83.6,60.2L83.6,60.2L83.6,60.2c0,0.1,0,0.1,0,0.2c0,0.2,0,0.3,0,0.5
							c0-0.2,0-0.4,0-0.5C83.6,60.3,83.6,60.3,83.6,60.2z"/>
					</g>
				</g>
				<g class="st8">
					<g>
						<path class="st5" d="M83.6,61.9c0,0.1,0,0.3,0,0.4l0,0l0,0C83.6,62.1,83.6,62,83.6,61.9z"/>
					</g>
				</g>
				<g>
					<g>
						<path class="st7" d="M87.6,63.7c-0.1,0-0.1,0-0.2,0c-0.5-0.1-1.1-0.1-1.4-0.5c-0.3-0.5,0-1.2-0.3-1.7
							c-0.2-0.3-0.5-0.4-0.7-0.5c-0.2-0.2-0.5-0.5-0.3-0.8c0.1-0.2,0.4-0.3,0.6-0.5c0.1-0.2,0.1-0.4,0-0.6c-0.5-0.6-1.1,0.6-1.4,0.9
							c-0.1,0.1-0.2,0.2-0.2,0.2l0,0c0,0.1,0,0.1,0,0.2c0,0.2,0,0.3,0,0.5s0,0.3,0,0.5c0,0.1,0,0.3,0,0.4c0,0.1,0,0.3,0,0.4
							c0.3,0.1,0.6,0.3,0.9,0.4c0.6,0.3,1.2,0.8,1.2,1.4c0,0.1,0,0.2,0.1,0.3c0.1,0.1,0.2,0.1,0.3,0.1c0.5,0.1,1,0.2,1.5,0.2"/>
					</g>
				</g>
				<g>
					<g>
						<path class="st7" d="M87.5,64.8c0,0.6,0.1,1.2,0,1.8c0,0.8-0.3,1.7-0.2,2.5c0.1,1.2,0.9,2.1,1.7,3.1c2.7,3.6,4.2,7.9,5.8,12.2
							l0,0c0.3,0.2,0.6,0.5,0.9,0.7c0.2,0.2,0.5,0.3,0.7,0.5s0.5,0.3,0.7,0.5c0.2,0.1,0.3,0.2,0.5,0.3c0-0.1,0-0.1-0.1-0.1
							C97,84.7,97,82.7,98.3,82c0.3-0.1,0.6-0.2,0.8-0.4c0.6-0.6,0.1-1.8,0.7-2.3c0.3-0.3,0.9-0.3,1.3-0.5c0.8-0.4,1-1.3,1-2.2
							c-0.1-0.8-0.3-1.7-0.2-2.5c0.2-1.3,1.1-2.6,0.6-3.7c-0.6-1.3-2.5-1.1-3.8-1.6c-1.8-0.8-2.4-3.1-3.6-4.7
							c-1.1-1.4-3.6-3-5.5-2.6c-1.4,0.3-1.8,1.1-2,2.1"/>
					</g>
				</g>
				<g>
					<g>
						<path class="st7" d="M85.4,53c0.5-0.5,1.5-0.5,1.9,0.1c0.3,0.4,0.2,1,0.2,1.5c-0.1,0.7-0.2,1.4-0.3,2c0,0.2-0.1,0.4,0,0.6
							c0.2,0.4,0.9,0.3,1.2,0c0.3-0.4,0.2-0.9,0.2-1.4c-0.1-0.5-0.2-1,0-1.4c0.5-1.1,2.1-0.9,3-1.6c0.6-0.4,0.8-1.2,1.2-1.8
							c0.3-0.6,0.9-1.3,1.7-1.3c0.2,0,0.5,0.1,0.7,0.1c0.7,0,1.1-1.1,0.6-1.6c-0.1-0.1-0.2-0.2-0.3-0.3c-0.1-0.2,0-0.6,0.2-0.7
							c0.2-0.2,0.5-0.2,0.8-0.2c0.6-0.1,1.2-0.2,1.9-0.3c0.7-0.1,1.6-0.5,1.5-1.1s-0.9-0.9-1-1.4c0-0.1,0-0.3-0.1-0.4
							c-0.2-0.4-0.8-0.2-1.1,0c-0.1-0.5-0.9-0.8-1.4-0.4c-0.4,0.3-0.4,0.8-0.5,1.3c-0.3,1.1-1.2,1.9-2,2.7c-0.3,0.3-0.6,0.5-1,0.5
							s-0.8-0.4-0.6-0.7c0.1-0.2,0.4-0.4,0.4-0.6c0-0.3-0.6-0.3-0.7-0.6c0.2-0.9,1.3-1.3,2.1-1.8c1-0.6,1.7-1.5,2.1-2.6
							c0.1-0.2,0.1-0.4,0-0.5c-0.1-0.2-0.4-0.3-0.7-0.3c-0.6,0-1.4,0.1-1.6,0.6c-0.1,0.3,0,0.7-0.1,1c-0.2,1-1.5,1.1-2.3,1.6
							c-0.3,0.2-0.6,0.5-0.9,0.7c-0.4,0.2-0.8,0.2-1.2,0.2c-0.1,0-0.1,0-0.2,0c-0.3,0.4-0.5,0.7-0.7,1.1c-0.2,0.4-0.5,0.7-0.7,1.1
							c-1,1.8-1.9,3.6-2.5,5.6c-0.2,0.7-0.4,1.4-0.6,2.1c-0.2,0.7-0.3,1.4-0.4,2.1c0.3-0.6,0.4-1.3,0.5-1.8
							C84.7,54.2,84.9,53.5,85.4,53z"/>
					</g>
				</g>
				<g>
					<g>
						<path class="st7" d="M109.7,38.8c0.3-0.4,0.2-0.9,0.4-1.3c0.3-0.7,1.2-0.9,1.5-1.6c0.1-0.3,0.2-0.6,0.4-0.8
							c0.2-0.2,0.4-0.2,0.6-0.3c0.4-0.3,0.2-1.1-0.2-1.4c-1.1-0.7-3.2,0.1-4.2,0.8c-1.3,0.9-2.5,2-4.2,1.9c-0.5,0-0.9-0.2-1.4,0
							c-0.4,0.2-0.7,0.8-0.3,1.1c0.2,0.2,0.5,0.1,0.7,0.2c0.4,0.2,0.5,0.8,0.3,1.3c-0.2,0.4-0.6,0.7-0.8,1.2
							c-0.2,0.4-0.4,0.9-0.3,1.3c0,0.3,0.1,0.7,0.4,0.9c0.5,0.4,1.3,0.1,1.8-0.4c0.4-0.5,0.7-1.1,1.3-1.5c0.3-0.2,0.6-0.3,0.9-0.3
							c0.7-0.2,1.5-0.3,2.2-0.5C109.1,39.2,109.5,39.1,109.7,38.8z"/>
					</g>
				</g>
				<g class="st8">
					<g>
						<path class="st5" d="M141.4,61c0-0.4,0-0.8,0-1.2C141.4,60.2,141.4,60.6,141.4,61c0,0.1,0,0.3,0,0.4c0,0.6,0,1.3-0.1,1.9
							c0-0.6,0.1-1.3,0.1-1.9C141.5,61.3,141.5,61.2,141.4,61z"/>
					</g>
				</g>
				<g class="st8">
					<g>
						<path class="st5" d="M139.6,51.3c0.1,0.4,0.3,0.7,0.4,1.1C139.9,52.1,139.8,51.7,139.6,51.3L139.6,51.3L139.6,51.3L139.6,51.3
							L139.6,51.3z"/>
					</g>
				</g>
				<g>
					<g>
						<path class="st7" d="M141.6,60.9c0-0.4,0-0.8,0-1.2s-0.1-0.8-0.1-1.2c0-0.3-0.1-0.7-0.1-1s-0.1-0.7-0.2-1c-0.2-1-0.4-2-0.7-3
							c-0.1-0.4-0.2-0.8-0.3-1.1c-0.1-0.4-0.3-0.7-0.4-1.1l0,0l0,0c-0.1-0.3-0.3-0.5-0.5-0.8c-1.6-2.5-3.9-4.5-5.7-7
							c-0.6-0.8-1-1.4-2-1.6c-1.5-0.2-2.3,0.6-3.3-0.8c-0.3-0.4-0.8-0.7-1.2-0.5c0.1,0.3,0.2,0.6,0.3,0.9c0,0.1,0,0.1,0,0.2
							c0,0.2-0.3,0.3-0.5,0.2s-0.3-0.3-0.4-0.5c-0.5-0.7-1.6-0.8-2.2-0.2c0-0.3-0.2-0.6-0.5-0.7c-0.1,0.6-0.7,1-1.2,0.8
							c-0.1-0.3,0.4-0.3,0.6-0.6c0.2-0.2,0-0.5-0.2-0.7c-0.5-0.5-1.3-0.8-2-0.8c-0.5,0-1,0.1-1.4-0.2c-0.2-0.1-0.4-0.4-0.6-0.5
							c-0.5-0.3-1.1,0-1.7,0.3c-0.7,0.4-1.4,0.9-1.7,1.6c-0.3,0.8,0.3,1.8,1.1,1.7c0.2,0,0.4-0.1,0.6-0.1c0.3,0.1,0.4,0.4,0.4,0.7
							s0,0.6,0.1,0.9c0.1,0.3,0.6,0.4,0.7,0.1c0.4-0.4,0.3-1,0.2-1.5c-0.1-0.5-0.2-1.1,0.1-1.5c0.3-0.4,1.2-0.3,1.1,0.2
							c0,0.3-0.4,0.5-0.4,0.8s0.4,0.5,0.7,0.5c0.3,0,0.6-0.1,0.9,0s0.5,0.5,0.3,0.7c-0.4,0.4-1.4-0.3-1.6,0.2c-0.1,0.1,0,0.3,0,0.4
							c0,0.4-0.6,0.6-1,0.7c-0.4,0.1-0.9,0.1-1.3-0.1c-0.4-0.2-0.7-0.7-0.5-1.1c-0.2-0.2-0.6,0-0.7,0.3s-0.1,0.6-0.1,0.8
							c-0.5-0.1-0.9,0.3-1.2,0.7c-0.3,0.4-0.5,0.9-1,1s-1.1-0.1-1.4,0.4s0.6,1.2,0.3,1.8c-0.2,0.3-0.6,0.3-1,0.4
							c-0.9,0.3-1.2,1.6-0.6,2.3s1.9,0.7,2.5,0c0.5-0.5,0.7-1.1,1-1.7c0.3-0.6,1-1.1,1.6-0.9c0.2,0.1,0.5,0.2,0.7,0.4
							c0.3,0.3,0.6,0.5,0.9,0.8c0.2,0.2,0.4,0.4,0.4,0.6c0,0.2-0.2,0.4-0.2,0.6c-0.2,0.6,0.6,1.1,1.1,0.8s0.6-1.1,0.2-1.6
							c-0.5-0.7-1.6-1-1.5-1.8c0.5-0.4,1.4,0,1.7,0.7c0.3,0.6,0.3,1.4,0.6,2c0.3,0.7,1,1.2,1.7,0.9c-0.2-0.6-0.3-1.1-0.5-1.7
							c0.4-0.3,0.9,0.6,1.3,0.4c0.3-0.1,0.3-0.5,0.2-0.8c-0.1-0.3-0.4-0.5-0.4-0.8c-0.1-0.6,0.5-1.1,1.1-1s1,0.6,1.1,1.2
							c0,0.2,0.1,0.5,0.1,0.7c0.2,0.4,0.8,0.6,1.2,0.8c0.5,0.2,0.9,0.6,0.7,1.1c-0.1,0.2-0.3,0.4-0.2,0.6c0.1,0.2,0.3,0.3,0.3,0.4
							c0,0.1-0.1,0.2-0.3,0.3c-0.3,0.1-0.6,0.2-0.9,0.3s-0.6,0.4-0.5,0.7c0,0.5,0.6,0.7,0.8,1.1c0.2,0.4,0.2,0.8,0.4,1.3
							c0.1,0.4,0.4,0.7,0.7,1c0.8,1,0.9,2.4,1.3,3.6c0.2,0.6,0.5,1.2,1,1.3c0.3,0.1,0.6-0.1,0.9-0.2c0.8-0.3,1.7-0.7,2.2-1.3
							c0.6-0.7,0.8-1.8,0.2-2.4c-0.1-0.1-0.2-0.2-0.3-0.2c-0.2,0-0.3,0.1-0.4,0.2c-0.4,0.2-0.9,0-1.3-0.3c-0.3-0.3-0.6-0.7-0.8-1.1
							c-0.2-0.5-0.4-0.9-0.7-1.4c0.3-0.2,0.7-0.1,1,0.1c0.3,0.2,0.4,0.5,0.7,0.8c0.7,0.9,1.8,1.2,2.9,1.4c0.3,0,0.6,0.1,0.8,0.2
							c0.8,0.4,1,1.6,1.9,1.8c0.2,0.1,0.5,0.1,0.7,0.2c0.3,0.2,0.5,0.5,0.6,0.9c0.2,0.7,0.3,1.4,0.5,2c0.3,0.6,0.9,1.2,1.5,1.2
							c0.4,0,0.8-0.2,1.2-0.5l0,0c0-0.6,0.1-1.3,0.1-1.9C141.7,61.2,141.7,61.1,141.6,60.9z"/>
					</g>
				</g>
				<g>
					<g>
						<path class="st9" d="M129.8,73.1c-0.4,0.1-0.5,0.3-0.8,0.7c-0.3,0.4-0.7,0.8-1,1.2c-0.5,0.7,0,1.8-0.7,2.4
							c-0.1,0.1-0.3,0.2-0.4,0.3c-0.2,0.3-0.2,0.8,0.1,1c0.3,0.2,0.8,0.2,1.1,0s0.5-0.5,0.7-0.9c0.1-0.3,0.1-0.6,0.3-0.7
							c0.4-0.3,0.9-0.1,1.4-0.1C132.5,76.6,131.7,72.7,129.8,73.1z"/>
					</g>
				</g>
				<g>
					<g>
						<path class="st7" d="M129.8,73.1c-0.4,0.1-0.5,0.3-0.8,0.7c-0.3,0.4-0.7,0.8-1,1.2c-0.5,0.7,0,1.8-0.7,2.4
							c-0.1,0.1-0.3,0.2-0.4,0.3c-0.2,0.3-0.2,0.8,0.1,1c0.3,0.2,0.8,0.2,1.1,0s0.5-0.5,0.7-0.9c0.1-0.3,0.1-0.6,0.3-0.7
							c0.4-0.3,0.9-0.1,1.4-0.1C132.5,76.6,131.7,72.7,129.8,73.1z"/>
					</g>
				</g>
			</g>
		</g>
	</g>
	<g>
		<g>
			<g>
				<path class="st10" d="M116.5,13.6c-0.9-1.2-2.2-1.8-3.6-1.8c0,0-3.4,0-4.4,3c-0.4,1.1-0.3,2.3,0.2,3.4c0.2,0.4,0.4,0.8,0.6,1.2
					c0.9,1.3,3.6,4.7,3.6,4.7h0.6c0.8-1,2.6-4.5,3.2-5.6C117.4,17,117.5,15,116.5,13.6z M113.4,19.1c-1.6,0-2.9-1.3-2.9-2.9
					s1.3-2.9,2.9-2.9s2.9,1.3,2.9,2.9C116.3,17.9,115,19.1,113.4,19.1z"/>
			</g>
			<g>
				<path class="st6" d="M117.1,13.6c-0.9-1.2-2.2-1.8-3.6-1.8c0,0-3.4,0-4.4,3c-0.4,1.1-0.3,2.3,0.2,3.4c0.2,0.4,0.4,0.8,0.6,1.2
					c0.9,1.3,3.6,4.7,3.6,4.7s3.1-4.3,3.8-5.6C118,17,118.1,15,117.1,13.6z M113.4,19.2c-1.6,0-2.9-1.3-2.9-2.9s1.3-2.9,2.9-2.9
					s2.9,1.3,2.9,2.9S115,19.2,113.4,19.2z"/>
			</g>
		</g>
		<g>
			<path class="st11" d="M113.4,13.4c-1.2,0-2.3,0.8-2.7,1.9c0.4-0.9,1.2-1.4,2.2-1.4c1.4,0,2.5,1.1,2.5,2.5s-1.1,2.5-2.5,2.5
				c-0.8,0-1.5-0.4-1.9-0.9c0.5,0.8,1.4,1.3,2.4,1.3c1.6,0,2.9-1.3,2.9-2.9C116.3,14.7,115,13.4,113.4,13.4z"/>
		</g>
	</g>
	<g>
		<g>
			<g>
				<path class="st6" d="M145.4,51.1c0,0-0.1,0.2-0.3,0.3s-0.4,0.2-0.4,0.2s0.1-0.2,0.3-0.3S145.4,51.1,145.4,51.1z"/>
			</g>
		</g>
		<g>
			<g>
				<path class="st6" d="M148.2,49.4c0,0-0.3,0.3-0.6,0.5c-0.4,0.2-0.7,0.4-0.7,0.4s0.3-0.3,0.6-0.5
					C147.8,49.5,148.1,49.3,148.2,49.4z"/>
			</g>
		</g>
		<g>
			<g>
				<path class="st6" d="M150.9,47.6c0,0-0.3,0.3-0.6,0.5c-0.4,0.2-0.7,0.4-0.7,0.4s0.3-0.3,0.6-0.5
					C150.6,47.7,150.9,47.6,150.9,47.6z"/>
			</g>
		</g>
		<g>
			<g>
				<path class="st6" d="M153.7,45.9c0,0-0.3,0.3-0.6,0.5c-0.4,0.2-0.7,0.4-0.7,0.4s0.3-0.3,0.6-0.5C153.3,46,153.6,45.9,153.7,45.9
					z"/>
			</g>
		</g>
		<g>
			<g>
				<path class="st6" d="M156.4,44.2c0,0-0.3,0.3-0.6,0.5c-0.4,0.2-0.7,0.4-0.7,0.4s0.3-0.3,0.6-0.5
					C156.1,44.3,156.4,44.1,156.4,44.2z"/>
			</g>
		</g>
		<g>
			<g>
				<path class="st6" d="M159.2,42.5c0,0-0.3,0.3-0.7,0.5s-0.7,0.4-0.7,0.3c0,0,0.3-0.3,0.7-0.5S159.2,42.5,159.2,42.5z"/>
			</g>
		</g>
		<g>
			<g>
				<path class="st6" d="M162,40.8c0,0-0.3,0.3-0.7,0.5s-0.7,0.4-0.7,0.3c0,0,0.3-0.3,0.7-0.5C161.6,40.9,162,40.8,162,40.8z"/>
			</g>
		</g>
		<g>
			<g>
				<path class="st6" d="M164.8,39.2c0,0-0.3,0.3-0.7,0.5s-0.7,0.4-0.7,0.3c0,0,0.3-0.3,0.7-0.5C164.4,39.3,164.8,39.1,164.8,39.2z"
					/>
			</g>
		</g>
		<g>
			<g>
				<path class="st6" d="M166.9,37.9c0,0-0.1,0.2-0.3,0.3s-0.4,0.2-0.4,0.1c0,0,0.1-0.2,0.3-0.3C166.7,38,166.9,37.9,166.9,37.9z"/>
			</g>
		</g>
	</g>
	<g>
		<g>
			<g>
				<path class="st6" d="M88,35c0,0,0.1,0.1,0.2,0.3s0.1,0.4,0.1,0.4s-0.1-0.1-0.2-0.3S88,35,88,35z"/>
			</g>
		</g>
		<g>
			<g>
				<path class="st6" d="M86.7,31.8c0,0,0.2,0.3,0.4,0.8c0.2,0.4,0.3,0.8,0.3,0.8s-0.2-0.3-0.4-0.8C86.8,32.2,86.6,31.8,86.7,31.8z"
					/>
			</g>
		</g>
		<g>
			<g>
				<path class="st6" d="M85.4,28.6c0,0,0.2,0.3,0.4,0.8c0.2,0.4,0.3,0.8,0.3,0.8s-0.2-0.3-0.4-0.8C85.4,29,85.3,28.6,85.4,28.6z"/>
			</g>
		</g>
		<g>
			<g>
				<path class="st6" d="M84.1,25.4c0,0,0.2,0.3,0.4,0.8c0.2,0.4,0.3,0.8,0.3,0.8s-0.2-0.3-0.4-0.8C84.1,25.8,84,25.4,84.1,25.4z"/>
			</g>
		</g>
		<g>
			<g>
				<path class="st6" d="M82.7,22.2c0,0,0.2,0.3,0.4,0.8c0.2,0.4,0.3,0.8,0.3,0.8S83.2,23.5,83,23C82.8,22.6,82.7,22.2,82.7,22.2z"
					/>
			</g>
		</g>
		<g>
			<g>
				<path class="st6" d="M81.4,19c0,0,0.2,0.3,0.4,0.8c0.2,0.4,0.3,0.8,0.3,0.8s-0.2-0.3-0.4-0.8C81.5,19.4,81.4,19,81.4,19z"/>
			</g>
		</g>
		<g>
			<g>
				<path class="st6" d="M80.4,16.7c0,0,0.1,0.1,0.2,0.3c0.1,0.2,0.1,0.4,0.1,0.4s-0.1-0.1-0.2-0.3C80.4,16.9,80.4,16.7,80.4,16.7z"
					/>
			</g>
		</g>
	</g>
	<g>
		<g>
			<g>
				<path class="st6" d="M77.2,56.2c0,0,0.2-0.1,0.4-0.1c0.2,0,0.4,0,0.4,0.1c0,0-0.2,0.1-0.4,0.1C77.4,56.2,77.2,56.2,77.2,56.2z"
					/>
			</g>
		</g>
		<g>
			<g>
				<path class="st6" d="M73.7,56.3c0,0,0.4-0.1,0.9-0.1s0.9,0,0.9,0.1c0,0-0.4,0.1-0.9,0.1C74.1,56.4,73.7,56.4,73.7,56.3z"/>
			</g>
		</g>
		<g>
			<g>
				<path class="st6" d="M70.2,56.4c0,0,0.4-0.1,0.9-0.1s0.9,0,0.9,0.1c0,0-0.4,0.1-0.9,0.1S70.2,56.4,70.2,56.4z"/>
			</g>
		</g>
		<g>
			<g>
				<path class="st6" d="M66.7,56.4c0,0,0.4-0.1,0.9-0.1s0.9,0,0.9,0.1c0,0-0.4,0.1-0.9,0.1S66.7,56.5,66.7,56.4z"/>
			</g>
		</g>
		<g>
			<g>
				<path class="st6" d="M63.2,56.4c0,0,0.4-0.1,0.9-0.1c0.5,0,0.9,0,0.9,0.1c0,0-0.4,0.1-0.9,0.1C63.5,56.5,63.2,56.4,63.2,56.4z"
					/>
			</g>
		</g>
		<g>
			<g>
				<path class="st6" d="M59.7,56.3c0,0,0.4-0.1,0.9-0.1s0.9,0.1,0.9,0.1s-0.4,0.1-0.9,0.1C60,56.4,59.6,56.3,59.7,56.3z"/>
			</g>
		</g>
		<g>
			<g>
				<path class="st6" d="M57.1,56.2c0,0,0.2-0.1,0.4-0.1s0.4,0.1,0.4,0.1s-0.2,0.1-0.4,0.1S57.1,56.2,57.1,56.2z"/>
			</g>
		</g>
	</g>
	<g>
		<g>
			<g>
				<path class="st6" d="M80.7,73.8c0,0,0.2-0.1,0.4-0.2c0.2,0,0.4,0,0.4,0s-0.2,0.1-0.4,0.1C80.9,73.8,80.7,73.8,80.7,73.8z"/>
			</g>
		</g>
		<g>
			<g>
				<path class="st6" d="M77.4,74.5c0,0,0.3-0.2,0.8-0.3c0.4-0.1,0.8-0.1,0.8-0.1s-0.3,0.2-0.8,0.3C77.8,74.5,77.5,74.6,77.4,74.5z"
					/>
			</g>
		</g>
		<g>
			<g>
				<path class="st6" d="M74.2,75.3c0,0,0.3-0.2,0.8-0.3c0.4-0.1,0.8-0.2,0.8-0.1s-0.3,0.2-0.8,0.3C74.6,75.3,74.2,75.3,74.2,75.3z"
					/>
			</g>
		</g>
		<g>
			<g>
				<path class="st6" d="M71,76c0,0,0.3-0.2,0.8-0.3c0.4-0.1,0.8-0.1,0.8-0.1s-0.3,0.2-0.8,0.3C71.4,76,71,76.1,71,76z"/>
			</g>
		</g>
		<g>
			<g>
				<path class="st6" d="M67.8,76.8c0,0,0.3-0.2,0.8-0.3c0.4-0.1,0.8-0.1,0.8-0.1s-0.3,0.2-0.8,0.3C68.2,76.8,67.8,76.8,67.8,76.8z"
					/>
			</g>
		</g>
		<g>
			<g>
				<path class="st6" d="M64.6,77.5c0,0,0.3-0.2,0.8-0.3c0.4-0.1,0.8-0.1,0.8-0.1s-0.3,0.2-0.8,0.3C65,77.5,64.6,77.5,64.6,77.5z"/>
			</g>
		</g>
		<g>
			<g>
				<path class="st6" d="M61.4,78.2c0,0,0.3-0.2,0.8-0.3c0.4-0.1,0.8-0.1,0.8-0.1s-0.3,0.2-0.8,0.3C61.8,78.2,61.4,78.2,61.4,78.2z"
					/>
			</g>
		</g>
		<g>
			<g>
				<path class="st6" d="M58.2,78.9c0,0,0.3-0.2,0.8-0.3c0.4-0.1,0.8-0.1,0.8-0.1s-0.3,0.2-0.8,0.3C58.5,78.9,58.2,78.9,58.2,78.9z"
					/>
			</g>
		</g>
		<g>
			<g>
				<path class="st6" d="M54.9,79.6c0,0,0.3-0.2,0.8-0.3c0.4-0.1,0.8-0.1,0.8-0.1s-0.3,0.2-0.8,0.3C55.3,79.6,54.9,79.6,54.9,79.6z"
					/>
			</g>
		</g>
		<g>
			<g>
				<path class="st6" d="M51.7,80.3c0,0,0.3-0.2,0.8-0.3c0.4-0.1,0.8-0.1,0.8-0.1s-0.3,0.2-0.8,0.3C52.1,80.3,51.7,80.3,51.7,80.3z"
					/>
			</g>
		</g>
		<g>
			<g>
				<path class="st6" d="M48.5,80.9c0,0,0.3-0.2,0.8-0.2c0.4-0.1,0.8-0.1,0.8-0.1s-0.3,0.2-0.8,0.2C48.8,80.9,48.5,81,48.5,80.9z"/>
			</g>
		</g>
		<g>
			<g>
				<path class="st6" d="M45.2,81.6c0,0,0.3-0.2,0.8-0.2c0.4-0.1,0.8-0.1,0.8-0.1s-0.3,0.2-0.8,0.2C45.6,81.6,45.2,81.6,45.2,81.6z"
					/>
			</g>
		</g>
		<g>
			<g>
				<path class="st6" d="M42,82.2c0,0,0.3-0.2,0.8-0.2c0.4-0.1,0.8-0.1,0.8-0.1s-0.3,0.2-0.8,0.2C42.4,82.2,42,82.2,42,82.2z"/>
			</g>
		</g>
		<g>
			<g>
				<path class="st6" d="M38.7,82.8c0,0,0.3-0.2,0.8-0.2c0.4-0.1,0.8-0.1,0.8-0.1s-0.3,0.2-0.8,0.2C39.1,82.8,38.8,82.8,38.7,82.8z"
					/>
			</g>
		</g>
		<g>
			<g>
				<path class="st6" d="M35.5,83.4c0,0,0.3-0.1,0.8-0.2c0.4-0.1,0.8-0.1,0.8-0.1s-0.3,0.1-0.8,0.2C35.9,83.4,35.5,83.4,35.5,83.4z"
					/>
			</g>
		</g>
		<g>
			<g>
				<path class="st6" d="M33.1,83.8c0,0,0.2-0.1,0.4-0.2c0.2,0,0.4,0,0.4,0s-0.2,0.1-0.4,0.2S33.1,83.9,33.1,83.8z"/>
			</g>
		</g>
	</g>
	<g>
		<g>
			<g>
				<path class="st6" d="M87.7,87.9c0,0,0.2-0.3,0.5-0.7c0.3-0.3,0.5-0.6,0.6-0.6c0,0-0.2,0.3-0.5,0.7C88,87.7,87.7,87.9,87.7,87.9z
					"/>
			</g>
		</g>
		<g>
			<g>
				<path class="st6" d="M85.6,90.4c0,0,0.2-0.3,0.5-0.7c0.3-0.3,0.5-0.6,0.6-0.6c0,0-0.2,0.3-0.5,0.7
					C85.9,90.2,85.7,90.4,85.6,90.4z"/>
			</g>
		</g>
		<g>
			<g>
				<path class="st6" d="M83.6,92.8c0,0,0.1-0.3,0.4-0.6c0.3-0.3,0.5-0.6,0.5-0.5c0,0-0.1,0.3-0.4,0.6
					C83.9,92.6,83.7,92.8,83.6,92.8z"/>
			</g>
		</g>
	</g>
	<g>
		<g>
			<g>
				<path class="st6" d="M78,40.2c0,0-0.3-0.1-0.7-0.4c-0.4-0.3-0.6-0.5-0.6-0.5s0.3,0.1,0.7,0.4C77.8,39.9,78.1,40.2,78,40.2z"/>
			</g>
		</g>
		<g>
			<g>
				<path class="st6" d="M80.7,42c0,0-0.3-0.1-0.7-0.4c-0.4-0.3-0.6-0.5-0.6-0.5s0.3,0.1,0.7,0.4C80.5,41.8,80.7,42,80.7,42z"/>
			</g>
		</g>
		<g>
			<g>
				<path class="st6" d="M83.1,43.7c0,0-0.3-0.1-0.6-0.3C82.2,43.2,82,43,82,43s0.3,0.1,0.6,0.3C82.9,43.4,83.1,43.6,83.1,43.7z"/>
			</g>
		</g>
	</g>
	<g>
		<g>
			<g>
				<path class="st6" d="M143.5,78.8c0,0-0.4,0-0.8-0.2c-0.4-0.1-0.8-0.3-0.7-0.3c0,0,0.4,0,0.8,0.2
					C143.2,78.6,143.5,78.8,143.5,78.8z"/>
			</g>
		</g>
		<g>
			<g>
				<path class="st6" d="M146.6,79.9c0,0-0.4,0-0.8-0.2c-0.4-0.1-0.8-0.3-0.7-0.3c0,0,0.4,0,0.8,0.2
					C146.2,79.7,146.6,79.9,146.6,79.9z"/>
			</g>
		</g>
		<g>
			<g>
				<path class="st6" d="M149.6,81c0,0-0.4,0-0.8-0.2c-0.4-0.1-0.8-0.3-0.7-0.3c0,0,0.4,0,0.8,0.2C149.3,80.8,149.6,80.9,149.6,81z"
					/>
			</g>
		</g>
		<g>
			<g>
				<path class="st6" d="M152.7,82.1c0,0-0.4,0-0.8-0.2c-0.4-0.1-0.8-0.3-0.7-0.3c0,0,0.4,0,0.8,0.2C152.4,81.9,152.7,82,152.7,82.1
					z"/>
			</g>
		</g>
		<g>
			<g>
				<path class="st6" d="M155.7,83.1c0,0-0.4,0-0.8-0.2c-0.4-0.1-0.8-0.3-0.7-0.3c0,0,0.4,0,0.8,0.2
					C155.4,82.9,155.8,83.1,155.7,83.1z"/>
			</g>
		</g>
		<g>
			<g>
				<path class="st6" d="M158.8,84.2c0,0-0.4,0-0.8-0.2c-0.4-0.1-0.8-0.3-0.7-0.3c0,0,0.4,0,0.8,0.2C158.5,84,158.8,84.1,158.8,84.2
					z"/>
			</g>
		</g>
		<g>
			<g>
				<path class="st6" d="M161.9,85.3c0,0-0.4,0-0.8-0.2c-0.4-0.1-0.8-0.3-0.7-0.3c0,0,0.4,0,0.8,0.2
					C161.5,85.1,161.9,85.2,161.9,85.3z"/>
			</g>
		</g>
		<g>
			<g>
				<path class="st6" d="M164.9,86.3c0,0-0.4,0-0.8-0.2c-0.4-0.1-0.8-0.3-0.7-0.3c0,0,0.4,0,0.8,0.2
					C164.6,86.1,164.9,86.3,164.9,86.3z"/>
			</g>
		</g>
		<g>
			<g>
				<path class="st6" d="M168,87.4c0,0-0.4,0-0.8-0.2c-0.4-0.1-0.8-0.3-0.7-0.3c0,0,0.4,0,0.8,0.2C167.7,87.2,168,87.4,168,87.4z"/>
			</g>
		</g>
		<g>
			<g>
				<path class="st6" d="M171,88.5c0,0-0.4,0-0.8-0.2c-0.4-0.1-0.8-0.3-0.7-0.3c0,0,0.4,0,0.8,0.2C170.7,88.3,171,88.4,171,88.5z"/>
			</g>
		</g>
		<g>
			<g>
				<path class="st6" d="M173.9,89.5c0,0-0.3,0-0.7-0.1s-0.6-0.3-0.6-0.3s0.3,0,0.7,0.1C173.6,89.3,173.9,89.4,173.9,89.5z"/>
			</g>
		</g>
	</g>
	<g>
		<g>
			<g>
				<path class="st6" d="M146.3,71.5c0,0-0.4,0-0.8-0.1c-0.4-0.1-0.8-0.2-0.8-0.3c0,0,0.4,0,0.8,0.1C146,71.3,146.3,71.4,146.3,71.5
					z"/>
			</g>
		</g>
		<g>
			<g>
				<path class="st6" d="M149.5,72.2c0,0-0.4,0-0.8-0.1c-0.4-0.1-0.8-0.2-0.8-0.3c0,0,0.4,0,0.8,0.1C149.2,72,149.5,72.2,149.5,72.2
					z"/>
			</g>
		</g>
		<g>
			<g>
				<path class="st6" d="M152.6,73c0,0-0.4,0-0.8-0.1c-0.4-0.1-0.8-0.2-0.8-0.3c0,0,0.4,0,0.8,0.1C152.3,72.8,152.7,72.9,152.6,73z"
					/>
			</g>
		</g>
		<g>
			<g>
				<path class="st6" d="M155.8,73.7c0,0-0.4,0-0.8-0.1c-0.4-0.1-0.8-0.2-0.8-0.3c0,0,0.4,0,0.8,0.1
					C155.5,73.5,155.8,73.6,155.8,73.7z"/>
			</g>
		</g>
	</g>
	<g>
		<g>
			<g>
				<path class="st6" d="M137.9,86.3c0,0-0.3-0.2-0.6-0.6c-0.3-0.3-0.5-0.6-0.5-0.7c0,0,0.3,0.2,0.6,0.6
					C137.7,85.9,137.9,86.2,137.9,86.3z"/>
			</g>
		</g>
		<g>
			<g>
				<path class="st6" d="M140,88.7c0,0-0.3-0.2-0.6-0.6c-0.3-0.3-0.5-0.6-0.5-0.7c0,0,0.3,0.2,0.6,0.6S140.1,88.7,140,88.7z"/>
			</g>
		</g>
		<g>
			<g>
				<path class="st6" d="M142.2,91.2c0,0-0.3-0.2-0.6-0.5s-0.5-0.6-0.5-0.7c0,0,0.3,0.2,0.6,0.5S142.2,91.1,142.2,91.2z"/>
			</g>
		</g>
		<g>
			<g>
				<path class="st6" d="M144.4,93.5c0,0-0.3-0.2-0.6-0.5s-0.5-0.6-0.5-0.7c0,0,0.3,0.2,0.6,0.5C144.2,93.2,144.4,93.5,144.4,93.5z"
					/>
			</g>
		</g>
		<g>
			<g>
				<path class="st6" d="M146.6,95.9c0,0-0.3-0.2-0.6-0.5s-0.5-0.6-0.5-0.6s0.3,0.2,0.6,0.5C146.4,95.6,146.6,95.9,146.6,95.9z"/>
			</g>
		</g>
		<g>
			<g>
				<path class="st6" d="M148.9,98.2c0,0-0.3-0.2-0.6-0.5s-0.5-0.6-0.5-0.6s0.3,0.2,0.6,0.5S148.9,98.2,148.9,98.2z"/>
			</g>
		</g>
		<g>
			<g>
				<path class="st6" d="M151.2,100.5c0,0-0.3-0.2-0.6-0.5s-0.6-0.6-0.5-0.6c0,0,0.3,0.2,0.6,0.5C151,100.1,151.2,100.4,151.2,100.5
					z"/>
			</g>
		</g>
		<g>
			<g>
				<path class="st6" d="M152.5,101.7h-0.1v-0.1L152.5,101.7L152.5,101.7z"/>
			</g>
		</g>
	</g>
	<g>
		<g>
			
				<rect x="150.1" y="101.2" transform="matrix(0.1552 -0.9879 0.9879 0.1552 24.2079 243.3217)" class="st12" width="8.6" height="12.7"/>
			<path class="st5" d="M160,112.8L160,112.8l-12.6-2l0,0l1.3-8.5l0,0l12.6,2l0,0L160,112.8z M147.4,110.8l12.6,2l1.3-8.5l-12.6-2
				L147.4,110.8z"/>
		</g>
		<g>
			<g>
				<g>
					<path class="st5" d="M161.4,104.4c0,0,0,0-0.1,0.1s-0.2,0.1-0.4,0.3c-0.4,0.2-0.9,0.5-1.5,0.9c-1.3,0.8-3,1.8-4.9,3l0,0l0,0
						l-0.1-0.1c-1.5-1.7-2.9-3.2-3.9-4.3c-0.5-0.5-0.9-1-1.2-1.3c-0.1-0.1-0.2-0.3-0.3-0.4s-0.1-0.1-0.1-0.1s0,0,0.1,0.1
						s0.2,0.2,0.3,0.3c0.3,0.3,0.7,0.8,1.2,1.3c1,1.1,2.4,2.6,3.9,4.3l0.1,0.1h-0.1c1.9-1.1,3.7-2.2,4.9-2.9
						c0.6-0.4,1.1-0.7,1.5-0.9c0.2-0.1,0.3-0.2,0.4-0.2C161.3,104.5,161.4,104.4,161.4,104.4z"/>
				</g>
			</g>
		</g>
		<g>
			<g>
				<path class="st5" d="M147.4,110.9c0,0,1.1-1,2.5-2.3c1.4-1.2,2.6-2.2,2.6-2.2s-1.1,1-2.5,2.3C148.6,110,147.5,111,147.4,110.9z"
					/>
			</g>
		</g>
		<g>
			<g>
				<path class="st5" d="M156.8,107c0,0,0.8,1.3,1.7,2.9s1.6,2.9,1.6,3c0,0-0.8-1.3-1.7-2.9C157.4,108.4,156.7,107.1,156.8,107z"/>
			</g>
		</g>
	</g>
	<g>
		<g>
			<g>
				<g>
					<g>
						<path class="st3" d="M185.7,51.7c0.3-0.2,0.6-0.3,0.9-0.4l0.2-0.9h1.6l0.2,0.9c0.3,0.1,0.6,0.2,0.9,0.4l0.8-0.5l1.1,1.1
							L191,53c0.2,0.3,0.3,0.6,0.4,0.9l0.9,0.2v1.6l-0.9,0.2c-0.1,0.3-0.2,0.6-0.4,0.9l0.5,0.8l-1.1,1.1l-0.8-0.5
							c-0.3,0.2-0.6,0.3-0.9,0.4l-0.2,0.9h-1.6l-0.2-0.9c-0.3-0.1-0.6-0.2-0.9-0.4l-0.8,0.5l-1.1-1.1l0.5-0.8
							c-0.2-0.3-0.3-0.6-0.4-0.9l-0.9-0.2v-1.6l0.9-0.2c0.1-0.3,0.2-0.6,0.4-0.9l-0.5-0.8l1.1-1.1L185.7,51.7L185.7,51.7z
							 M186.5,53.8c-0.6,0.7-0.6,1.7,0,2.4c0.7,0.6,1.7,0.6,2.4,0c0.6-0.7,0.6-1.7,0-2.4C188.2,53.1,187.2,53.1,186.5,53.8z"/>
					</g>
				</g>
			</g>
			<g>
				<g>
					<g>
						<g>
							<path class="st3" d="M186.5,53.8c0,0,0.1-0.1,0.3-0.3c0.2-0.1,0.6-0.3,1.1-0.3c0.2,0,0.5,0.1,0.7,0.3s0.5,0.4,0.6,0.7
								c0.1,0.1,0.1,0.3,0.2,0.5c0,0.2,0,0.3,0,0.5c0,0.3-0.2,0.7-0.5,1s-0.6,0.4-0.9,0.5c-0.2,0-0.3,0-0.5,0s-0.3-0.1-0.5-0.1
								c-0.3-0.1-0.5-0.3-0.7-0.6c-0.2-0.2-0.3-0.5-0.3-0.7c-0.1-0.5,0.1-0.9,0.2-1.1C186.4,53.9,186.5,53.8,186.5,53.8
								s-0.1,0.1-0.2,0.3c-0.1,0.2-0.3,0.6-0.2,1.1c0,0.2,0.1,0.5,0.3,0.7s0.4,0.4,0.7,0.5c0.1,0.1,0.3,0.1,0.4,0.1
								c0.2,0,0.3,0,0.5,0c0.3-0.1,0.6-0.2,0.9-0.5c0.2-0.3,0.4-0.6,0.4-0.9c0-0.2,0-0.3,0-0.5s-0.1-0.3-0.1-0.4
								c-0.1-0.3-0.3-0.5-0.6-0.6c-0.2-0.2-0.5-0.2-0.7-0.3c-0.5-0.1-0.8,0.1-1.1,0.2C186.7,53.7,186.6,53.8,186.5,53.8z"/>
						</g>
					</g>
				</g>
			</g>
			<g>
				<g>
					<g>
						<g>
							<path class="st3" d="M185.7,51.7L185.7,51.7c-0.1,0-0.1-0.1-0.2-0.1c-0.1-0.1-0.3-0.2-0.6-0.4l0,0c-0.3,0.3-0.6,0.7-1.1,1.1
								l0,0c0.2,0.2,0.3,0.5,0.5,0.8l0,0l0,0c-0.2,0.3-0.3,0.6-0.4,0.9l0,0l0,0c-0.3,0.1-0.6,0.1-0.9,0.2l0,0c0,0.5,0,1,0,1.6l0,0
								c0.3,0.1,0.6,0.1,0.9,0.2l0,0l0,0c0.1,0.3,0.2,0.6,0.4,0.9l0,0l0,0c-0.2,0.2-0.3,0.5-0.5,0.8v-0.1c0.4,0.3,0.7,0.7,1.1,1.1
								h-0.1c0.2-0.2,0.5-0.3,0.8-0.5l0,0l0,0c0.3,0.2,0.6,0.3,0.9,0.4l0,0l0,0c0.1,0.3,0.1,0.6,0.2,0.9l0,0c0.5,0,1,0,1.6,0l0,0
								c0.1-0.3,0.1-0.6,0.2-0.9l0,0l0,0c0.3-0.1,0.6-0.2,0.9-0.4l0,0l0,0l0,0c0.3,0.2,0.5,0.3,0.8,0.5h-0.1
								c0.4-0.4,0.7-0.8,1.1-1.1v0.1c-0.2-0.3-0.3-0.5-0.5-0.8l0,0l0,0c0.2-0.3,0.3-0.6,0.4-0.9l0,0l0,0c0.3-0.1,0.6-0.1,0.9-0.2
								l0,0c0-0.5,0-1.1,0-1.6l0,0c-0.3-0.1-0.6-0.1-0.9-0.2l0,0l0,0c-0.1-0.3-0.2-0.6-0.4-0.9l0,0l0,0c0.2-0.3,0.3-0.5,0.5-0.8l0,0
								c-0.4-0.4-0.8-0.7-1.1-1.1l0,0c-0.3,0.2-0.5,0.4-0.8,0.5l0,0l0,0c-0.3-0.2-0.6-0.3-0.9-0.4l0,0l0,0c-0.1-0.3-0.2-0.6-0.2-0.9
								l0,0c-0.6,0-1.1,0-1.6,0l0,0c-0.1,0.4-0.1,0.7-0.2,0.9l0,0l0,0c-0.3,0.1-0.6,0.2-0.7,0.3C185.9,51.6,185.8,51.7,185.7,51.7
								L185.7,51.7L185.7,51.7c0.1-0.1,0.1-0.1,0.2-0.1c0.1-0.1,0.4-0.2,0.7-0.3l0,0c0.1-0.3,0.1-0.6,0.2-0.9l0,0l0,0
								c0.4,0,1,0,1.6,0l0,0l0,0c0.1,0.3,0.1,0.6,0.2,0.9l0,0c0.3,0.1,0.6,0.2,1,0.4l0,0c0.3-0.2,0.5-0.3,0.8-0.5l0,0l0,0
								c0.4,0.3,0.7,0.7,1.1,1.1l0,0l0,0c-0.2,0.3-0.3,0.5-0.5,0.8l0,0c0.2,0.3,0.3,0.6,0.4,0.9l0,0c0.3,0.1,0.6,0.1,0.9,0.2l0,0
								l0,0c0,0.5,0,1,0,1.6l0,0l0,0c-0.3,0.1-0.6,0.1-0.9,0.2l0,0c-0.1,0.3-0.2,0.7-0.4,1l0,0c0.2,0.3,0.3,0.5,0.5,0.8l0,0l0,0
								c-0.4,0.4-0.7,0.7-1.1,1.1l0,0l0,0c-0.3-0.2-0.5-0.3-0.8-0.5l0,0l0,0c-0.3,0.2-0.6,0.3-0.9,0.4l0,0c-0.1,0.3-0.1,0.6-0.2,0.9
								l0,0l0,0c-0.5,0-1.1,0-1.6,0l0,0l0,0c-0.1-0.3-0.2-0.6-0.2-0.9l0,0c-0.3-0.1-0.7-0.2-1-0.4l0,0c-0.3,0.2-0.5,0.4-0.8,0.5l0,0
								l0,0c-0.4-0.4-0.8-0.7-1.1-1.1l0,0l0,0c0.2-0.3,0.3-0.6,0.5-0.8l0,0c-0.2-0.3-0.3-0.6-0.4-0.9l0,0c-0.3-0.1-0.6-0.1-0.9-0.2
								l0,0l0,0c0-0.5,0-1.1,0-1.6l0,0l0,0c0.3-0.1,0.6-0.2,0.9-0.2l0,0c0.1-0.4,0.2-0.7,0.4-1l0,0c-0.2-0.3-0.4-0.5-0.5-0.8l0,0
								l0,0c0.4-0.5,0.8-0.8,1.1-1.1l0,0l0,0c0.3,0.2,0.5,0.3,0.6,0.4C185.6,51.6,185.6,51.6,185.7,51.7L185.7,51.7z"/>
						</g>
					</g>
				</g>
			</g>
		</g>
		<g>
			<g>
				<path class="st13" d="M200.3,56.7c0.6-0.4,1.3-0.6,1.9-0.8l0.4-1.9h3.2l0.5,1.9c0.7,0.2,1.3,0.4,1.9,0.8l1.6-1.1l2.3,2.2l-1,1.6
					c0.4,0.6,0.6,1.3,0.8,1.9l1.9,0.4v3.2l-1.9,0.5c-0.2,0.7-0.4,1.3-0.8,1.9l1.1,1.6l-2.2,2.3l-1.6-1c-0.6,0.4-1.3,0.6-1.9,0.8
					l-0.4,1.9h-3.2l-0.5-1.9c-0.7-0.2-1.3-0.4-1.9-0.8l-1.6,1.1l-2.3-2.2l1-1.6c-0.4-0.6-0.6-1.3-0.8-1.9l-1.9-0.4V62l1.9-0.5
					c0.2-0.7,0.4-1.3,0.8-1.9l-1.1-1.6l2.2-2.3L200.3,56.7L200.3,56.7z M202,60.9c-1.3,1.4-1.3,3.5,0.1,4.9c1.4,1.3,3.5,1.3,4.8-0.1
					s1.3-3.5-0.1-4.9C205.5,59.6,203.3,59.6,202,60.9z"/>
			</g>
			<g class="st14">
				<g>
					<path class="st15" d="M200.3,56.7c0.6-0.4,1.3-0.6,1.9-0.8l0.4-1.9h3.2l0.5,1.9c0.7,0.2,1.3,0.4,1.9,0.8l1.6-1.1l2.3,2.2
						l-1,1.6c0.4,0.6,0.6,1.3,0.8,1.9l1.9,0.4v3.2l-1.9,0.5c-0.2,0.7-0.4,1.3-0.8,1.9l1.1,1.6l-2.2,2.3l-1.6-1
						c-0.6,0.4-1.3,0.6-1.9,0.8l-0.4,1.9h-3.2l-0.5-1.9c-0.7-0.2-1.3-0.4-1.9-0.8l-1.6,1.1l-2.3-2.2l1-1.6c-0.4-0.6-0.6-1.3-0.8-1.9
						l-1.9-0.4V62l1.9-0.5c0.2-0.7,0.4-1.3,0.8-1.9l-1.1-1.6l2.2-2.3L200.3,56.7L200.3,56.7z M202,60.9c-1.3,1.4-1.3,3.5,0.1,4.9
						c1.4,1.3,3.5,1.3,4.8-0.1s1.3-3.5-0.1-4.9C205.5,59.6,203.3,59.6,202,60.9z"/>
				</g>
			</g>
		</g>
	</g>
	<g>
		<g id="XMLID_1446_">
			<path class="st16" d="M77.5,102.3L77.5,102.3c-3.4-1.4-5.1-5.3-3.7-8.8l0,0c1.4-3.4,5.3-5.1,8.8-3.7l0,0c3.4,1.4,5.1,5.3,3.7,8.8
				l0,0C84.9,102.1,81,103.7,77.5,102.3z"/>
		</g>
		<g id="XMLID_1443_">
			<g id="XMLID_1445_">
				<path class="st4" d="M81.5,96.5l-2.5-1l-0.3,0.7l1.7,0.7c-0.6,0.8-1.4,1.1-2.2,0.7c-1.1-0.4-1.6-1.7-1.2-2.8
					c0.4-1.1,1.7-1.6,2.8-1.2c0.5,0.2,0.9,0.6,1.1,1.1l0.8-0.3c-0.3-0.7-0.8-1.3-1.6-1.6c-1.5-0.6-3.2,0.1-3.8,1.6
					c-0.6,1.5,0.1,3.2,1.6,3.8C79.3,98.8,80.8,98.1,81.5,96.5L81.5,96.5z"/>
			</g>
			<g id="XMLID_1444_">
				<polygon class="st4" points="85.2,98 84.1,97.6 84.5,96.5 83.9,96.3 83.5,97.3 82.4,96.9 82.1,97.5 83.2,98 82.8,99 83.4,99.3 
					83.8,98.2 84.9,98.7 				"/>
			</g>
		</g>
	</g>
	<g id="XMLID_5_">
		<g id="XMLID_8_">
			<path class="st12" d="M72.7,41.6L72.7,41.6c-3.2,0-5.8-2.6-5.8-5.8l0,0c0-3.2,2.6-5.8,5.8-5.8l0,0c3.2,0,5.8,2.6,5.8,5.8l0,0
				C78.4,39,75.8,41.6,72.7,41.6z"/>
			<path class="st16" d="M72.7,41.6c-1.5,0-3-0.6-4.1-1.7c-1.1-1.1-1.7-2.5-1.7-4.1c0-1.5,0.6-3,1.7-4.1s2.5-1.7,4.1-1.7
				c1.5,0,3,0.6,4.1,1.7s1.7,2.5,1.7,4.1c0,1.5-0.6,3-1.7,4.1C75.7,41,74.2,41.6,72.7,41.6z"/>
		</g>
		<g id="XMLID_7_">
			<path class="st4" d="M69.6,37.8c0.6,0.4,1.2,0.6,1.9,0.6c2.3,0,3.7-2,3.6-3.7c0.2-0.2,0.5-0.4,0.6-0.7c-0.2,0.1-0.5,0.2-0.7,0.2
				c0.3-0.2,0.5-0.4,0.6-0.7c-0.2,0.1-0.5,0.2-0.8,0.3c-0.2-0.2-0.6-0.4-0.9-0.4c-0.8,0-1.4,0.8-1.2,1.5c-1-0.1-2-0.6-2.6-1.3
				c-0.3,0.6-0.2,1.3,0.4,1.7c-0.2,0-0.4-0.1-0.6-0.2c0,0.6,0.4,1.1,1,1.3c-0.2,0-0.4,0.1-0.6,0c0.2,0.5,0.6,0.9,1.2,0.9
				C70.9,37.7,70.3,37.8,69.6,37.8z"/>
		</g>
	</g>
	<g id="XMLID_11_">
		<g id="XMLID_13_">
			<path class="st16" d="M159.3,77.3L159.3,77.3c-1.9,0-3.4-1.5-3.4-3.4l0,0c0-1.9,1.5-3.4,3.4-3.4l0,0c1.9,0,3.4,1.5,3.4,3.4l0,0
				C162.7,75.8,161.2,77.3,159.3,77.3z"/>
		</g>
		<g id="XMLID_12_">
			<path class="st4" d="M158.2,74.2c0.1,0,0.1,0,0.1-0.1c0,0,0-0.1,0-0.2s0-0.1,0-0.1c-0.1-0.1-0.2-0.3-0.2-0.5
				c0-0.6,0.4-1.1,1.2-1.1c0.6,0,1,0.4,1,0.9c0,0.7-0.3,1.2-0.7,1.2c-0.2,0-0.4-0.2-0.4-0.5c0.1-0.3,0.2-0.6,0.2-0.8
				c0-0.2-0.1-0.4-0.3-0.4c-0.3,0-0.5,0.3-0.5,0.6c0,0.2,0.1,0.4,0.1,0.4s-0.3,1.1-0.3,1.3c-0.1,0.4,0,0.8,0,0.9c0,0,0,0,0.1,0
				c0,0,0.3-0.4,0.4-0.8c0-0.1,0.2-0.6,0.2-0.6c0.1,0.2,0.3,0.3,0.6,0.3c0.8,0,1.3-0.7,1.3-1.6c0-0.7-0.6-1.3-1.5-1.3
				c-1.1,0-1.7,0.8-1.7,1.5C157.7,73.7,157.8,74,158.2,74.2z"/>
		</g>
	</g>
	<g id="XMLID_37_">
		<g id="XMLID_43_">
			<path class="st16" d="M181.8,120.7L181.8,120.7c-3.4,0-6.2-2.8-6.2-6.2l0,0c0-3.4,2.8-6.2,6.2-6.2l0,0c3.4,0,6.2,2.8,6.2,6.2l0,0
				C188.1,117.9,185.3,120.7,181.8,120.7z"/>
		</g>
		<g id="XMLID_38_">
			<g id="XMLID_40_">
				<path class="st15" d="M185.2,114.3c0-1.8-1.5-3.2-3.3-3.2s-3.3,1.4-3.3,3.2v0.1c0,0.6,0.2,1.2,0.5,1.7l-0.6,1.8l1.9-0.6
					c0.5,0.3,1,0.4,1.6,0.4C183.7,117.7,185.2,116.2,185.2,114.3L185.2,114.3z M181.9,117.2c-0.6,0-1.1-0.2-1.5-0.5l-1.1,0.3l0.4-1
					c-0.3-0.5-0.5-1-0.5-1.6c0-0.1,0-0.2,0-0.3c0.1-1.4,1.3-2.5,2.8-2.5s2.7,1.1,2.8,2.6c0,0.1,0,0.1,0,0.2
					C184.7,115.9,183.4,117.2,181.9,117.2z"/>
			</g>
			<g id="XMLID_39_">
				<path class="st15" d="M183.4,115c-0.1,0-0.5-0.2-0.6-0.3c-0.1,0-0.1,0-0.2,0c-0.1,0.1-0.2,0.3-0.3,0.3c0,0.1-0.1,0.1-0.2,0
					c-0.1,0-0.3-0.1-0.7-0.4c-0.2-0.2-0.4-0.5-0.5-0.6c0-0.1,0-0.1,0-0.2l0.1-0.1l0,0c0,0,0-0.1,0.1-0.1c0-0.1,0-0.1,0-0.1
					s-0.2-0.4-0.3-0.6s-0.1-0.1-0.2-0.1c0,0-0.1,0-0.2,0s-0.1,0-0.2,0.1c-0.1,0.1-0.3,0.3-0.3,0.7c0,0.1,0,0.2,0,0.3
					c0.1,0.3,0.3,0.5,0.3,0.6s0.6,0.9,1.4,1.2c0.8,0.3,0.8,0.2,1,0.2s0.5-0.2,0.6-0.4c0.1-0.2,0.1-0.4,0-0.4
					C183.6,115.1,183.5,115.1,183.4,115z"/>
			</g>
		</g>
	</g>
	<g id="XMLID_14_">
		<g id="XMLID_36_">
			<path class="st12" d="M164.2,12L164.2,12c-2.1,0-3.8-1.7-3.8-3.8l0,0c0-2.1,1.7-3.8,3.8-3.8l0,0c2.1,0,3.8,1.7,3.8,3.8l0,0
				C167.9,10.3,166.2,12,164.2,12z"/>
		</g>
		<g id="XMLID_16_">
			<g id="XMLID_30_">
				<path class="st4" d="M164.2,6.5c0.6,0,0.6,0,0.8,0s0.3,0,0.4,0.1c0.1,0,0.2,0.1,0.2,0.2c0.1,0.1,0.1,0.1,0.2,0.2
					c0,0.1,0.1,0.2,0.1,0.4c0,0.2,0,0.3,0,0.8s0,0.6,0,0.8s0,0.3-0.1,0.4c0,0.1-0.1,0.2-0.2,0.2c-0.1,0.1-0.1,0.1-0.2,0.2
					c-0.1,0-0.2,0.1-0.4,0.1s-0.3,0-0.8,0c-0.6,0-0.6,0-0.8,0s-0.3,0-0.4-0.1c-0.1,0-0.2-0.1-0.2-0.2c-0.1-0.1-0.1-0.1-0.2-0.2
					c0-0.1-0.1-0.2-0.1-0.4s0-0.3,0-0.8s0-0.6,0-0.8c0-0.2,0-0.3,0.1-0.4c0-0.1,0.1-0.2,0.2-0.2c0.1-0.1,0.1-0.1,0.2-0.2
					c0.1,0,0.2-0.1,0.4-0.1C163.5,6.5,163.6,6.5,164.2,6.5 M164.2,6.1c-0.6,0-0.6,0-0.8,0s-0.4,0-0.5,0.1s-0.3,0.1-0.4,0.2
					c-0.1,0.1-0.2,0.2-0.2,0.4c-0.1,0.1-0.1,0.3-0.1,0.5s0,0.3,0,0.8s0,0.6,0,0.8s0,0.4,0.1,0.5s0.1,0.3,0.2,0.4
					c0.1,0.1,0.2,0.2,0.4,0.2c0.1,0.1,0.3,0.1,0.5,0.1s0.3,0,0.8,0c0.6,0,0.6,0,0.8,0s0.4,0,0.5-0.1s0.3-0.1,0.4-0.2
					c0.1-0.1,0.2-0.2,0.2-0.4c0.1-0.1,0.1-0.3,0.1-0.5s0-0.3,0-0.8s0-0.6,0-0.8c0-0.2,0-0.4-0.1-0.5s-0.1-0.3-0.2-0.4
					s-0.2-0.2-0.4-0.2c-0.1-0.1-0.3-0.1-0.5-0.1C164.8,6.1,164.7,6.1,164.2,6.1"/>
			</g>
			<g id="XMLID_18_">
				<path class="st4" d="M164.2,7.1c-0.6,0-1.1,0.5-1.1,1.1s0.5,1.1,1.1,1.1s1.1-0.5,1.1-1.1S164.7,7.1,164.2,7.1 M164.2,8.9
					c-0.4,0-0.7-0.3-0.7-0.7c0-0.4,0.3-0.7,0.7-0.7s0.7,0.3,0.7,0.7C164.8,8.6,164.5,8.9,164.2,8.9"/>
			</g>
			<g id="XMLID_17_">
				<path class="st4" d="M165.5,7.1c0,0.1-0.1,0.2-0.2,0.2c-0.1,0-0.2-0.1-0.2-0.2s0.1-0.2,0.2-0.2S165.5,7,165.5,7.1"/>
			</g>
		</g>
	</g>
	<g id="XMLID_1419_">
		<g id="XMLID_1421_">
			<path class="st12" d="M43,75.6L43,75.6c-1.7,0-3.2-1.4-3.2-3.2l0,0c0-1.7,1.4-3.2,3.2-3.2l0,0c1.7,0,3.2,1.4,3.2,3.2l0,0
				C46.2,74.2,44.7,75.6,43,75.6z"/>
		</g>
		<g id="XMLID_1420_">
			<path class="st4" d="M42.5,74.4h0.8v-1.9h0.5l0.1-0.6h-0.6c0,0,0-0.2,0-0.4c0-0.2,0-0.2,0.2-0.2c0.1,0,0.4,0,0.4,0v-0.7
				c0,0-0.4,0-0.5,0c-0.6,0-0.8,0.3-0.8,0.7c0,0.4,0,0.5,0,0.5h-0.4v0.7h0.4v1.9H42.5z"/>
		</g>
	</g>
	<g>
		<g>
			<g>
				<g>
					<path class="st17" d="M154.7,31.4c0,0,0.2,0,0.4-0.3c0.1-0.1,0.2-0.3,0.2-0.5c0-0.1,0-0.2-0.1-0.4c0-0.1-0.1-0.3-0.1-0.4
						c-0.3-1.2-0.7-2.9-1.3-5.1c-0.1-0.5-0.3-1.1-0.4-1.7c-0.1-0.3-0.1-0.6-0.2-0.9c0-0.2-0.1-0.3-0.1-0.4c-0.1-0.1-0.2-0.2-0.3-0.3
						c-0.1-0.1-0.3-0.1-0.4-0.1c-0.1,0-0.3,0.1-0.5,0.1c-0.3,0.1-0.7,0.2-1,0.3c-0.7,0.2-1.4,0.4-2.1,0.5c-2.8,0.7-5.9,1.5-9.2,2.4
						c-0.4,0.1-0.6,0.5-0.6,0.9c0.1,0.4,0.2,0.8,0.3,1.2c0.2,0.8,0.4,1.6,0.6,2.4c0.4,1.5,0.7,3,1.1,4.5c0,0.2,0.1,0.4,0.1,0.5
						c0,0.2,0.1,0.3,0.2,0.4c0.1,0.1,0.3,0.2,0.4,0.2c0.2,0,0.3,0,0.5-0.1c0.7-0.2,1.3-0.3,2-0.5c1.3-0.3,2.4-0.6,3.5-0.9
						c2.1-0.5,3.9-1,5.1-1.3c0.6-0.1,1.1-0.3,1.4-0.3c0.2,0,0.3-0.1,0.4-0.1C154.7,31.4,154.7,31.4,154.7,31.4s0,0-0.1,0
						s-0.2,0.1-0.4,0.1c-0.3,0.1-0.8,0.2-1.4,0.4c-1.2,0.3-2.9,0.8-5.1,1.3c-1.1,0.3-2.2,0.6-3.5,0.9c-0.6,0.2-1.3,0.3-2,0.5
						c-0.2,0-0.3,0.1-0.5,0.1s-0.4-0.1-0.5-0.2c-0.1-0.1-0.2-0.3-0.3-0.5c0-0.2-0.1-0.4-0.1-0.5c-0.3-1.4-0.7-2.9-1.1-4.5
						c-0.2-0.8-0.4-1.6-0.6-2.4c-0.1-0.4-0.2-0.8-0.3-1.2c-0.1-0.5,0.2-0.9,0.7-1.1c3.3-0.8,6.4-1.6,9.2-2.4
						c0.7-0.2,1.4-0.4,2.1-0.5c0.3-0.1,0.7-0.2,1-0.3c0.2,0,0.3-0.1,0.5-0.1s0.4,0,0.5,0.1s0.3,0.2,0.3,0.4c0.1,0.2,0.1,0.3,0.1,0.5
						c0.1,0.3,0.1,0.6,0.2,0.9c0.1,0.6,0.3,1.2,0.4,1.7c0.5,2.1,0.9,3.9,1.2,5.1c0,0.2,0.1,0.3,0.1,0.4s0.1,0.3,0.1,0.4
						c0,0.2-0.1,0.4-0.2,0.6C154.9,31.2,154.8,31.3,154.7,31.4C154.8,31.4,154.7,31.4,154.7,31.4z"/>
				</g>
			</g>
		</g>
		<g>
			<g>
				<polygon class="st9" points="147.5,27 149.5,27.6 148,29 146.5,30.5 146,28.4 145.5,26.4 				"/>
			</g>
		</g>
	</g>
	<g>
		<g>
			<g>
				<g>
					<g>
						<g>
							
								<rect x="160.2" y="25.5" transform="matrix(0.1335 -0.991 0.991 0.1335 110.51 197.9293)" class="st18" width="16.4" height="20.5"/>
						</g>
					</g>
				</g>
			</g>
		</g>
		<g>
			<g>
				
					<rect x="161.3" y="26.2" transform="matrix(0.1335 -0.991 0.991 0.1335 110.5088 197.857)" class="st16" width="14.3" height="19.1"/>
			</g>
		</g>
		<g>
			<g>
				<polygon class="st9" points="158,41.6 165.8,33.6 169.1,39.7 172.3,37.1 176.9,44.1 				"/>
			</g>
		</g>
		<g>
			<g>
				<g>
					<g>
						<circle class="st9" cx="170.3" cy="33.1" r="1.5"/>
					</g>
				</g>
			</g>
		</g>
		<g>
			<g>
				<polygon class="st19" points="158,41.6 165.8,33.6 169.1,39.7 172.3,37.1 176.9,44.1 				"/>
			</g>
		</g>
		<g class="st20">
			<g>
				<g>
					<g>
						<circle cx="170.3" cy="33.1" r="1.5"/>
					</g>
				</g>
			</g>
		</g>
	</g>
	<g>
		<g>
			<g>
				<g>
					<g>
						<g>
							
								<rect x="169.4" y="14.1" transform="matrix(0.1477 -0.989 0.989 0.1477 125.6881 204.9896)" class="st18" width="24.8" height="31"/>
						</g>
					</g>
				</g>
			</g>
		</g>
		<g>
			<g>
				
					<rect x="170.9" y="15.2" transform="matrix(0.1477 -0.989 0.989 0.1477 125.5927 204.9811)" class="st16" width="21.7" height="28.8"/>
			</g>
		</g>
		<g>
			<g>
				<polygon class="st9" points="165.9,38.2 177.8,26.4 182.8,35.6 187.6,31.8 194.4,42.5 				"/>
			</g>
		</g>
		<g>
			<g>
				<g>
					<g>
						<path class="st9" d="M186.9,26c-0.2,1.2-1.3,2.1-2.6,1.9c-1.2-0.2-2.1-1.3-1.9-2.6c0.2-1.2,1.3-2.1,2.6-1.9
							C186.2,23.6,187.1,24.8,186.9,26z"/>
					</g>
				</g>
			</g>
		</g>
		<g>
			<g>
				<polygon class="st19" points="165.9,38.2 177.8,26.4 182.8,35.6 187.6,31.8 194.4,42.5 				"/>
			</g>
		</g>
		<g>
			<g>
				<g>
					<g>
						<path class="st19" d="M186.9,26c-0.2,1.2-1.3,2.1-2.6,1.9c-1.2-0.2-2.1-1.3-1.9-2.6c0.2-1.2,1.3-2.1,2.6-1.9
							C186.2,23.6,187.1,24.8,186.9,26z"/>
					</g>
				</g>
			</g>
		</g>
	</g>
	<g>
		<g>
			<g>
				<path class="st6" d="M172.5,82.6l0.5,9.2c0,0.3,0.3,0.6,0.6,0.6l16.6,0.1c0.3,0,0.6-0.3,0.6-0.6l0.1-7.2c0-0.3-0.3-0.6-0.6-0.6
					h-10.2c-0.2,0-0.3-0.1-0.4-0.2l-1.8-1.8c-0.1-0.1-0.3-0.2-0.4-0.2h-4.3C172.8,81.9,172.5,82.2,172.5,82.6z"/>
			</g>
		</g>
		<g>
			<g>
				
					<rect x="176.5" y="79.2" transform="matrix(7.323510e-03 -1 1 7.323510e-03 92.3225 269.5074)" class="st1" width="10.8" height="18.1"/>
			</g>
		</g>
		<g>
			<g>
				<path class="st6" d="M171.4,83.8l1.3,11.3c0,0.2,0.2,0.4,0.4,0.4l17.6,0.1c0.2,0,0.4-0.2,0.4-0.4l1-11.3c0-0.2-0.2-0.4-0.4-0.4
					l-19.9-0.1C171.5,83.4,171.3,83.6,171.4,83.8z"/>
			</g>
		</g>
	</g>
	<g>
		<g>
			<g>
				<g>
					<path class="st6" d="M12.1,85.8c0,0,7.7-0.1,17.2-0.1s17.2,0,17.2,0.1c0,0-7.7,0.1-17.2,0.1S12.1,85.8,12.1,85.8z"/>
				</g>
			</g>
		</g>
		<g>
			<g>
				<g>
					<circle class="st6" cx="13.2" cy="84.8" r="0.3"/>
				</g>
			</g>
			<g>
				<g>
					<path class="st6" d="M14.4,84.8c0,0.2-0.1,0.3-0.3,0.3s-0.3-0.1-0.3-0.3c0-0.2,0.1-0.3,0.3-0.3C14.3,84.5,14.4,84.6,14.4,84.8z
						"/>
				</g>
			</g>
			<g class="st21">
				<g>
					<path class="st6" d="M15.3,84.8c0,0.2-0.1,0.3-0.3,0.3s-0.3-0.1-0.3-0.3c0-0.2,0.1-0.3,0.3-0.3S15.3,84.6,15.3,84.8z"/>
				</g>
			</g>
		</g>
		<rect x="9.6" y="83.1" class="st22" width="36.4" height="25.5"/>
		<g>
			<g>
				<rect x="15" y="88.2" class="st6" width="9.2" height="9.2"/>
			</g>
		</g>
		<g>
			<g>
				<g>
					<path class="st6" d="M41.7,90.8c0,0-3.6,0.1-8,0.1s-8,0-8-0.1s3.6-0.1,8-0.1C38.2,90.7,41.7,90.8,41.7,90.8z"/>
				</g>
			</g>
		</g>
		<g>
			<g>
				<g>
					<path class="st6" d="M41.7,92.5c0,0-3.6,0.1-8,0.1s-8,0-8-0.1c0,0,3.6-0.1,8-0.1C38.2,92.4,41.7,92.5,41.7,92.5z"/>
				</g>
			</g>
		</g>
		<g>
			<g>
				<g>
					<path class="st6" d="M41.7,94.2c0,0-3.6,0.1-8,0.1s-8,0-8-0.1c0,0,3.6-0.1,8-0.1C38.2,94.1,41.7,94.2,41.7,94.2z"/>
				</g>
			</g>
		</g>
		<g>
			<g>
				<g>
					<path class="st6" d="M35.2,95.9c0,0-0.1,0-0.4,0c-0.3,0-0.6,0-1,0c-0.9,0-2,0-3.3,0s-2.5,0-3.3,0c-0.4,0-0.8,0-1,0
						s-0.4,0-0.4,0s0.1,0,0.4,0s0.6,0,1,0c0.9,0,2,0,3.3,0s2.5,0,3.3,0c0.4,0,0.8,0,1,0C35.1,95.9,35.2,95.9,35.2,95.9z"/>
				</g>
			</g>
		</g>
		<g>
			<g>
				<rect x="15.6" y="100.5" class="st6" width="4.3" height="4.3"/>
			</g>
		</g>
		<g>
			<g>
				<rect x="23.4" y="100.5" class="st6" width="4.3" height="4.3"/>
			</g>
		</g>
		<g>
			<g>
				<rect x="31.2" y="100.5" class="st6" width="4.3" height="4.3"/>
			</g>
		</g>
		<g>
			<g>
				<rect x="39" y="100.5" class="st6" width="4.3" height="4.3"/>
			</g>
		</g>
	</g>
	<g>
		<g>
			<path class="st23" d="M126.6,74.9c0.9,3.3,2.3,5.9,3.6,7.2c1.3,1.3,2.8,2.9,2.7,4.7c0,0.7-0.3,1.5,0.1,2.2c0.4,0.9,1.5,1,2.4,1.5
				c1.2,0.7,1.9,2.2,1.9,3.6c-0.1,1.4-0.8,2.8-1.8,3.8s-2.7,1.8-4,1.1c-0.8-0.4-1.2-1.3-1.6-2.1c-2-4.1-3.9-8.3-5.5-12.6"/>
		</g>
		<g>
			<path class="st23" d="M118.3,60.8c-2.3-2.5-6.2-3.5-9.4-2.2s-5.4,4.6-5.4,8c0,2.2,0.9,4.5,0,6.5c-0.6,1.4-2,2.5-2.2,4.1
				c-0.2,1.8,1.3,3.4,1.2,5.2c-0.1,1.2-0.8,2.2-1.6,3c-0.8,0.8-1.8,1.5-2.6,2.4c-2.2,2.5-2.3,6.3-0.7,9.2c1.6,2.8,4.8,4.6,8,5
				s6.6-0.5,9.4-2.1c1.9-1,3.6-2.4,4.8-4.2c1.1-1.8,1.5-4.2,0.6-6.1"/>
		</g>
		<g>
			<g>
				<g>
					<g>
						<path class="st12" d="M107.9,59.5c0,0,0.6-0.1,1.5,0.1c0.9,0.1,2.1,0.5,3.4,0.9s2.6,0.7,3.5,0.6c0.5,0,0.8-0.1,1.1-0.2
							c0.2-0.1,0.4-0.1,0.4-0.1s-0.5,0.2-1.4,0.2s-2.1-0.2-3.4-0.7c-1.3-0.4-2.5-0.8-3.4-0.9c-0.5,0-0.8,0-1.1,0
							C108.1,59.5,107.9,59.5,107.9,59.5z"/>
					</g>
				</g>
			</g>
		</g>
	</g>
	<g>
		<g>
			<g>
				<path class="st16" d="M136.5,133.3l-5.5-15.4l2.3-14.7c0.7-4,1-7.4,0-9.4c-2.9-5.3-6.3-5.7-11-6.9c-1-0.2-8.3-0.4-9.1-0.2
					c-6.4,0.8-10.4,4.2-12.6,9.7l-2.3,9.8l-3.2,10.3c-0.6,1.3-1.7,2.1-2.9,2.4l-12.8,4.5l0.1,2.5l-0.1,3.4l17.1-3.4
					c3.4-0.7,6.9-2,7.8-5.3l1.8-5.5c0.9,2.3,1.9,4.4,1.9,4.4l-1.1,13.8H136.5z"/>
			</g>
			<g>
				<g>
					<path class="st16" d="M131.7,106l-4.7,16.4c-0.7,2.5-2.7,4.5-5.2,5.3l-20.3,5.6l-2.8-7l18.3-7l4.4-16.4c0,0,1-9.2,9.2-8.8"/>
				</g>
				<g>
					<g>
						<path class="st5" d="M130.6,94.1c0,0-0.1,0-0.2,0c-0.2,0-0.4,0-0.7,0c-0.6,0-1.6,0.1-2.7,0.6c-0.6,0.2-1.2,0.5-1.7,1
							c-0.6,0.5-1.1,1-1.7,1.7c-1,1.4-1.8,3.3-2.1,5.4l0,0l0,0c-1.2,4.6-2.7,10.2-4.3,16.4l0,0l0,0c-5.6,2.2-11.8,4.5-18.3,7v-0.1
							c0.2,0.4,0.3,0.8,0.5,1.2c0.8,2,1.5,3.9,2.3,5.8h-0.1c6.2-1.7,12.1-3.4,17.4-4.8c0.7-0.2,1.3-0.4,2-0.5c0.3-0.1,0.6-0.2,1-0.3
							c0.3-0.1,0.6-0.2,0.9-0.4c1.2-0.5,2.2-1.4,2.9-2.3c0.4-0.5,0.7-1,0.9-1.5c0.2-0.5,0.4-1.1,0.6-1.6c0.3-1.1,0.6-2.1,0.9-3.1
							c1.2-4,2.1-7.1,2.7-9.3c0.3-1.1,0.6-1.9,0.7-2.5c0.1-0.3,0.2-0.5,0.2-0.7c0-0.1,0.1-0.2,0.1-0.2s0,0.1-0.1,0.2
							c0,0.2-0.1,0.4-0.2,0.7c-0.2,0.6-0.4,1.4-0.7,2.5c-0.6,2.2-1.5,5.4-2.7,9.3c-0.3,1-0.6,2-0.9,3.1c-0.2,0.5-0.3,1.1-0.6,1.6
							c-0.2,0.5-0.6,1.1-0.9,1.6c-0.7,1-1.8,1.8-2.9,2.4c-0.3,0.1-0.6,0.3-0.9,0.4s-0.6,0.2-1,0.3c-0.6,0.2-1.3,0.4-2,0.5
							c-5.3,1.5-11.2,3.1-17.4,4.8h-0.1v-0.1c-0.7-1.8-1.5-3.8-2.3-5.8c-0.2-0.4-0.3-0.9-0.5-1.2v-0.1h0.1c6.5-2.5,12.7-4.9,18.3-7
							v0.1c1.7-6.3,3.2-11.9,4.4-16.4l0,0c0.3-2.2,1.1-4.1,2.1-5.5c0.5-0.7,1.1-1.3,1.7-1.7c0.6-0.5,1.2-0.8,1.8-1
							c1.1-0.4,2.1-0.5,2.7-0.6c0.3,0,0.6,0,0.7,0C130.5,94.1,130.6,94.1,130.6,94.1z"/>
					</g>
				</g>
			</g>
			<g>
				<g>
					<path class="st5" d="M118,115.6c0,0-0.1,0-0.2,0c-0.2,0-0.4,0-0.7-0.1c-0.6-0.1-1.3-0.4-1.9-1c-0.7-0.6-1.1-1.3-1.3-1.8
						c-0.1-0.1-0.1-0.3-0.1-0.4s-0.1-0.2-0.1-0.3c0-0.2,0-0.2,0-0.2s0.1,0.3,0.3,0.8c0.2,0.5,0.6,1.1,1.3,1.7c0.6,0.6,1.3,0.9,1.9,1
						C117.7,115.6,118,115.6,118,115.6z"/>
				</g>
			</g>
			<g>
				<g>
					<path class="st5" d="M105.8,103.3c0,0,0,0.2-0.2,0.5c-0.1,0.3-0.3,0.7-0.5,1.3c-0.4,1.1-0.9,2.7-1,4.4c0,0.9,0.1,1.7,0.4,2.5
						c0.2,0.7,0.6,1.4,0.9,1.9s0.6,0.9,0.8,1.1c0.2,0.3,0.3,0.4,0.3,0.4s0,0-0.1-0.1s-0.1-0.2-0.3-0.3c-0.2-0.2-0.5-0.6-0.8-1.1
						s-0.7-1.1-0.9-1.9c-0.3-0.7-0.4-1.6-0.4-2.5c0-1.8,0.6-3.4,1-4.5c0.2-0.5,0.4-1,0.5-1.3C105.7,103.5,105.8,103.3,105.8,103.3z"
						/>
				</g>
			</g>
			<g>
				<g>
					<path class="st5" d="M118.8,121.5c0,0-0.2-0.6-0.8-1.3c-0.5-0.6-1.2-0.9-1.1-0.9c0,0,0.7,0.2,1.3,0.8
						C118.8,120.8,118.9,121.5,118.8,121.5z"/>
				</g>
			</g>
		</g>
		<g>
			<path class="st24" d="M99.1,127.3c0,0-5.8,0.6-5.7,4.4l7.2-0.4L99.1,127.3z"/>
		</g>
		<g>
			<g>
				<g>
					<path class="st2" d="M125.4,108.7c0,0,0-1.1,0-2.4c0-1.4,0-2.4,0-2.4s0,1.1,0,2.4C125.5,107.6,125.4,108.7,125.4,108.7z"/>
				</g>
			</g>
			<g>
				<g>
					<path class="st2" d="M127,106c0,0-0.8,0-1.7,0c-0.9,0-1.7,0-1.7,0s0.8,0,1.7,0C126.3,105.9,127,105.9,127,106z"/>
				</g>
			</g>
			<g>
				<g>
					<path class="st2" d="M126.7,107.7c0,0-0.6-0.6-1.3-1.4c-0.7-0.8-1.2-1.4-1.2-1.5c0,0,0.6,0.6,1.3,1.4
						C126.2,107,126.7,107.7,126.7,107.7z"/>
				</g>
			</g>
			<g>
				<g>
					<path class="st2" d="M124.1,107.4c0,0,0.1-0.2,0.3-0.4c0.2-0.2,0.5-0.5,0.8-0.9c0.3-0.3,0.6-0.6,0.8-0.9
						c0.2-0.2,0.3-0.4,0.4-0.3c0,0-0.1,0.2-0.3,0.4c-0.2,0.2-0.5,0.5-0.8,0.9c-0.3,0.3-0.6,0.6-0.8,0.9
						C124.3,107.3,124.2,107.4,124.1,107.4z"/>
				</g>
			</g>
		</g>
		<g>
			<g>
				<g>
					<path class="st2" d="M130.5,101c0,0,0-1.1,0-2.4c0-1.4,0-2.4,0-2.4s0,1.1,0,2.4S130.5,101,130.5,101z"/>
				</g>
			</g>
			<g>
				<g>
					<path class="st2" d="M132.1,98.3c0,0-0.8,0-1.7,0s-1.7,0-1.7,0s0.8,0,1.7,0C131.3,98.2,132.1,98.2,132.1,98.3z"/>
				</g>
			</g>
			<g>
				<g>
					<path class="st2" d="M131.8,100c0,0-0.6-0.6-1.3-1.4s-1.2-1.4-1.2-1.5c0,0,0.6,0.6,1.3,1.4S131.8,100,131.8,100z"/>
				</g>
			</g>
			<g>
				<g>
					<path class="st2" d="M129.2,99.7c0,0,0.1-0.2,0.3-0.4c0.2-0.2,0.5-0.5,0.8-0.9c0.3-0.3,0.6-0.6,0.8-0.9
						c0.2-0.2,0.3-0.4,0.4-0.3c0,0-0.1,0.2-0.3,0.4c-0.2,0.2-0.5,0.5-0.8,0.9c-0.3,0.3-0.6,0.6-0.8,0.9
						C129.3,99.6,129.2,99.7,129.2,99.7z"/>
				</g>
			</g>
		</g>
		<g>
			<g>
				<g>
					<path class="st2" d="M112.4,128.7c0,0,0-1.1,0-2.4c0-1.4,0-2.4,0-2.4s0,1.1,0,2.4C112.5,127.6,112.5,128.7,112.4,128.7z"/>
				</g>
			</g>
			<g>
				<g>
					<path class="st2" d="M114.1,125.9c0,0-0.8,0-1.7,0c-0.9,0-1.7,0-1.7,0s0.8,0,1.7,0C113.3,125.9,114.1,125.9,114.1,125.9z"/>
				</g>
			</g>
			<g>
				<g>
					<path class="st2" d="M113.7,127.6c0,0-0.6-0.6-1.3-1.4c-0.7-0.8-1.2-1.4-1.2-1.5c0,0,0.6,0.6,1.3,1.4
						C113.2,127,113.8,127.6,113.7,127.6z"/>
				</g>
			</g>
			<g>
				<g>
					<path class="st2" d="M111.2,127.4c0,0,0.1-0.2,0.3-0.4c0.2-0.2,0.5-0.5,0.8-0.9c0.3-0.3,0.6-0.6,0.8-0.9
						c0.2-0.2,0.3-0.4,0.4-0.3c0,0-0.1,0.2-0.3,0.4c-0.2,0.2-0.5,0.5-0.8,0.9c-0.3,0.3-0.6,0.6-0.8,0.9
						C111.3,127.2,111.2,127.4,111.2,127.4z"/>
				</g>
			</g>
		</g>
		<g>
			<g>
				<g>
					<path class="st2" d="M123.8,122.3c0,0,0-1.1,0-2.4c0-1.4,0-2.4,0-2.4s0,1.1,0,2.4C123.8,121.2,123.8,122.3,123.8,122.3z"/>
				</g>
			</g>
			<g>
				<g>
					<path class="st2" d="M125.4,119.6c0,0-0.8,0-1.7,0c-0.9,0-1.7,0-1.7,0s0.8,0,1.7,0C124.6,119.5,125.4,119.5,125.4,119.6z"/>
				</g>
			</g>
			<g>
				<g>
					<path class="st2" d="M125.1,121.3c0,0-0.6-0.6-1.3-1.4c-0.7-0.8-1.2-1.4-1.2-1.5c0,0,0.6,0.6,1.3,1.4
						C124.6,120.6,125.1,121.3,125.1,121.3z"/>
				</g>
			</g>
			<g>
				<g>
					<path class="st2" d="M122.5,121c0,0,0.1-0.2,0.3-0.4c0.2-0.2,0.5-0.5,0.8-0.9c0.3-0.3,0.6-0.6,0.8-0.9c0.2-0.2,0.3-0.4,0.4-0.3
						c0,0-0.1,0.2-0.3,0.4c-0.2,0.2-0.5,0.5-0.8,0.9c-0.3,0.3-0.6,0.6-0.8,0.9C122.6,120.9,122.5,121,122.5,121z"/>
				</g>
			</g>
		</g>
		<g>
			<g>
				<g>
					<path class="st2" d="M127.7,131.5c0,0,0-1.1,0-2.4c0-1.4,0-2.4,0-2.4s0,1.1,0,2.4C127.7,130.4,127.7,131.5,127.7,131.5z"/>
				</g>
			</g>
			<g>
				<g>
					<path class="st2" d="M129.3,128.7c0,0-0.8,0-1.7,0c-0.9,0-1.7,0-1.7,0s0.8,0,1.7,0S129.3,128.7,129.3,128.7z"/>
				</g>
			</g>
			<g>
				<g>
					<path class="st2" d="M129,130.5c0,0-0.6-0.6-1.3-1.4c-0.7-0.8-1.2-1.4-1.2-1.5c0,0,0.6,0.6,1.3,1.4
						C128.5,129.8,129,130.4,129,130.5z"/>
				</g>
			</g>
			<g>
				<g>
					<path class="st2" d="M126.4,130.2c0,0,0.1-0.2,0.3-0.4c0.2-0.2,0.5-0.5,0.8-0.9c0.3-0.3,0.6-0.6,0.8-0.9
						c0.2-0.2,0.3-0.4,0.4-0.3c0,0-0.1,0.2-0.3,0.4s-0.5,0.5-0.8,0.9c-0.3,0.3-0.6,0.6-0.8,0.9C126.6,130,126.4,130.2,126.4,130.2z"
						/>
				</g>
			</g>
		</g>
		<g>
			<g>
				<g>
					<path class="st2" d="M109,116.5c0,0,0-1.1,0-2.4c0-1.4,0-2.4,0-2.4s0,1.1,0,2.4C109.1,115.4,109.1,116.5,109,116.5z"/>
				</g>
			</g>
			<g>
				<g>
					<path class="st2" d="M110.7,113.8c0,0-0.8,0-1.7,0c-0.9,0-1.7,0-1.7,0s0.8,0,1.7,0C109.9,113.7,110.7,113.7,110.7,113.8z"/>
				</g>
			</g>
			<g>
				<g>
					<path class="st2" d="M110.3,115.5c0,0-0.6-0.6-1.3-1.4c-0.7-0.8-1.2-1.4-1.2-1.5s0.6,0.6,1.3,1.4
						C109.8,114.8,110.4,115.5,110.3,115.5z"/>
				</g>
			</g>
			<g>
				<g>
					<path class="st2" d="M107.8,115.2c0,0,0.1-0.2,0.3-0.4c0.2-0.2,0.5-0.5,0.8-0.9c0.3-0.3,0.6-0.6,0.8-0.9
						c0.2-0.2,0.3-0.4,0.4-0.3c0,0-0.1,0.2-0.3,0.4c-0.2,0.2-0.5,0.5-0.8,0.9c-0.3,0.3-0.6,0.6-0.8,0.9
						C107.9,115.1,107.8,115.2,107.8,115.2z"/>
				</g>
			</g>
		</g>
		<g>
			<g>
				<g>
					<path class="st2" d="M116.3,108.5c0,0,0-1.1,0-2.4c0-1.4,0-2.4,0-2.4s0,1.1,0,2.4S116.3,108.5,116.3,108.5z"/>
				</g>
			</g>
			<g>
				<g>
					<path class="st2" d="M117.9,105.7c0,0-0.8,0-1.7,0c-0.9,0-1.7,0-1.7,0s0.8,0,1.7,0S117.9,105.7,117.9,105.7z"/>
				</g>
			</g>
			<g>
				<g>
					<path class="st2" d="M117.6,107.5c0,0-0.6-0.6-1.3-1.4c-0.7-0.8-1.2-1.4-1.2-1.5c0,0,0.6,0.6,1.3,1.4
						C117.1,106.8,117.6,107.5,117.6,107.5z"/>
				</g>
			</g>
			<g>
				<g>
					<path class="st2" d="M115,107.2c0,0,0.1-0.2,0.3-0.4c0.2-0.2,0.5-0.5,0.8-0.9c0.3-0.3,0.6-0.6,0.8-0.9c0.2-0.2,0.3-0.4,0.4-0.3
						c0,0-0.1,0.2-0.3,0.4c-0.2,0.2-0.5,0.5-0.8,0.9c-0.3,0.3-0.6,0.6-0.8,0.9C115.1,107.1,115,107.2,115,107.2z"/>
				</g>
			</g>
		</g>
		<g>
			<g>
				<g>
					<path class="st2" d="M97.2,122.6c0,0,0-1.1,0-2.4c0-1.4,0-2.4,0-2.4s0,1.1,0,2.4S97.2,122.6,97.2,122.6z"/>
				</g>
			</g>
			<g>
				<g>
					<path class="st2" d="M98.8,119.9c0,0-0.8,0-1.7,0c-0.9,0-1.7,0-1.7,0s0.8,0,1.7,0C98,119.8,98.8,119.9,98.8,119.9z"/>
				</g>
			</g>
			<g>
				<g>
					<path class="st2" d="M98.5,121.6c0,0-0.6-0.6-1.3-1.4c-0.7-0.8-1.2-1.4-1.2-1.5c0,0,0.6,0.6,1.3,1.4
						C98,120.9,98.5,121.6,98.5,121.6z"/>
				</g>
			</g>
			<g>
				<g>
					<path class="st2" d="M95.9,121.3c0,0,0.1-0.2,0.3-0.4c0.2-0.2,0.5-0.5,0.8-0.9c0.3-0.3,0.6-0.6,0.8-0.9
						c0.2-0.2,0.3-0.4,0.4-0.3c0,0-0.1,0.2-0.3,0.4c-0.2,0.2-0.5,0.5-0.8,0.9c-0.3,0.3-0.6,0.6-0.8,0.9
						C96.1,121.2,95.9,121.3,95.9,121.3z"/>
				</g>
			</g>
		</g>
		<g>
			<g>
				<g>
					<path class="st2" d="M101.9,109.2c0,0,0-1.1,0-2.4c0-1.4,0-2.4,0-2.4s0,1.1,0,2.4C102,108.1,101.9,109.2,101.9,109.2z"/>
				</g>
			</g>
			<g>
				<g>
					<path class="st2" d="M103.5,106.4c0,0-0.8,0-1.7,0c-0.9,0-1.7,0-1.7,0s0.8,0,1.7,0C102.8,106.4,103.5,106.4,103.5,106.4z"/>
				</g>
			</g>
			<g>
				<g>
					<path class="st2" d="M103.2,108.1c0,0-0.6-0.6-1.3-1.4c-0.7-0.8-1.2-1.4-1.2-1.5c0,0,0.6,0.6,1.3,1.4
						C102.7,107.5,103.2,108.1,103.2,108.1z"/>
				</g>
			</g>
			<g>
				<g>
					<path class="st2" d="M100.7,107.9c0,0,0.1-0.2,0.3-0.4c0.2-0.2,0.5-0.5,0.8-0.9c0.3-0.3,0.6-0.6,0.8-0.9
						c0.2-0.2,0.3-0.4,0.4-0.3c0,0-0.1,0.2-0.3,0.4c-0.2,0.2-0.5,0.5-0.8,0.9c-0.3,0.3-0.6,0.6-0.8,0.9
						C100.8,107.7,100.7,107.9,100.7,107.9z"/>
				</g>
			</g>
		</g>
		<g>
			<g>
				<g>
					<path class="st2" d="M107.9,99.9c0,0,0-1.1,0-2.4c0-1.4,0-2.4,0-2.4s0,1.1,0,2.4C108,98.8,108,99.9,107.9,99.9z"/>
				</g>
			</g>
			<g>
				<g>
					<path class="st2" d="M109.6,97.2c0,0-0.8,0-1.7,0c-0.9,0-1.7,0-1.7,0s0.8,0,1.7,0C108.8,97.1,109.6,97.2,109.6,97.2z"/>
				</g>
			</g>
			<g>
				<g>
					<path class="st2" d="M109.2,98.9c0,0-0.6-0.6-1.3-1.4c-0.7-0.8-1.2-1.4-1.2-1.5s0.6,0.6,1.3,1.4
						C108.7,98.2,109.3,98.9,109.2,98.9z"/>
				</g>
			</g>
			<g>
				<g>
					<path class="st2" d="M106.7,98.6c0,0,0.1-0.2,0.3-0.4c0.2-0.2,0.5-0.5,0.8-0.9c0.3-0.3,0.6-0.6,0.8-0.9
						c0.2-0.2,0.3-0.4,0.4-0.3c0,0-0.1,0.2-0.3,0.4c-0.2,0.2-0.5,0.5-0.8,0.9c-0.3,0.3-0.6,0.6-0.8,0.9
						C106.8,98.5,106.7,98.6,106.7,98.6z"/>
				</g>
			</g>
		</g>
	</g>
	<g>
		<g>
			<g>
				<g>
					<g>
						<g>
							<g>
								<path class="st5" d="M111.8,133.2v-0.9L98.7,131l-6.1-15.6c-0.2-0.5-0.7-0.9-1.2-0.9L69,114.2c-1,0-1.7,1-1.3,1.9l7.8,17
									C87.6,133.3,100,133.4,111.8,133.2z"/>
							</g>
						</g>
					</g>
					<g>
						<g>
							<g>
								<path class="st4" d="M81.9,124.1c0.4,0.6,1.2,0.8,1.8,0.5c0.6-0.4,0.8-1.2,0.5-1.8c-0.4-0.6-1.2-0.8-1.8-0.5
									C81.7,122.7,81.5,123.5,81.9,124.1z"/>
							</g>
						</g>
					</g>
				</g>
			</g>
		</g>
	</g>
	<g>
		<g>
			<g>
				<g>
					<g>
						<g>
							<g>
								<g>
									<g>
										<g>
											<g>
												<g>
													<path class="st24" d="M122.4,63.6v1.7l0.4,25c0,2.9-2.4,5.3-5.5,5.3l0,0c-3.1,0-5.8-2.3-5.8-5.3
														c-0.1-3.1-0.3-6.3-0.3-6.3s-4-0.5-5-5.7c-0.5-2.6-0.5-6.8-0.3-10.2c0.1-3.1,2.8-5.5,5.9-5.3L122.4,63.6z"/>
												</g>
											</g>
										</g>
									</g>
								</g>
							</g>
							<g>
								<g>
									<g>
										<g>
											<g>
												<g>
													<g>
														<path class="st5" d="M107.6,71.1c0,0.4,0.3,0.6,0.7,0.7c0.4,0,0.7-0.3,0.7-0.6c0-0.4-0.3-0.6-0.7-0.7
															C107.9,70.5,107.6,70.7,107.6,71.1z"/>
													</g>
												</g>
											</g>
										</g>
									</g>
								</g>
								<g>
									<g>
										<g>
											<g>
												<g>
													<g>
														<g>
															<path class="st5" d="M106.9,70.2c0.1,0.1,0.6-0.3,1.3-0.3c0.7,0,1.2,0.3,1.3,0.2c0,0-0.1-0.2-0.3-0.4
																c-0.2-0.2-0.6-0.3-1.1-0.3c-0.4,0-0.8,0.2-1,0.4C106.9,70,106.8,70.2,106.9,70.2z"/>
														</g>
													</g>
												</g>
											</g>
										</g>
									</g>
								</g>
							</g>
							<g>
								<g>
									<g>
										<g>
											<g>
												<g>
													<g>
														<path class="st5" d="M114.6,71c0,0.4,0.3,0.6,0.7,0.7c0.4,0,0.7-0.3,0.7-0.6c0-0.4-0.3-0.6-0.7-0.7
															C114.9,70.4,114.6,70.7,114.6,71z"/>
													</g>
												</g>
											</g>
										</g>
									</g>
								</g>
								<g>
									<g>
										<g>
											<g>
												<g>
													<g>
														<g>
															<path class="st5" d="M113.9,70.2c0.1,0.1,0.6-0.3,1.3-0.3c0.7,0,1.2,0.3,1.3,0.2c0,0-0.1-0.2-0.3-0.4
																c-0.2-0.2-0.6-0.3-1.1-0.3c-0.4,0-0.8,0.2-1,0.4C113.9,70,113.8,70.1,113.9,70.2z"/>
														</g>
													</g>
												</g>
											</g>
										</g>
									</g>
								</g>
							</g>
							<g>
								<g>
									<g>
										<g>
											<g>
												<g>
													<g>
														<path class="st5" d="M111.4,75.6c0,0-0.4-0.1-1.2-0.2c-0.2,0-0.4,0-0.4-0.2c0-0.1,0-0.3,0.1-0.5
															c0.2-0.4,0.3-0.9,0.5-1.4c0.7-2,1.2-3.6,1.1-3.7c-0.1,0-0.7,1.6-1.4,3.6c-0.2,0.5-0.3,1-0.5,1.4
															c-0.1,0.2-0.2,0.4-0.1,0.7c0.1,0.1,0.2,0.2,0.3,0.3c0.1,0,0.2,0,0.3,0C111,75.6,111.4,75.6,111.4,75.6z"/>
													</g>
												</g>
											</g>
										</g>
									</g>
								</g>
							</g>
							<g>
								<g>
									<g>
										<g>
											<g>
												<g>
													<path class="st25" d="M111.2,84c0,0,3.5,0.1,6.9-2c0,0-1.6,3.6-6.8,3.3L111.2,84z"/>
												</g>
											</g>
										</g>
									</g>
								</g>
							</g>
							<g>
								<g>
									<g>
										<g>
											<g>
												<g>
													<path class="st25" d="M111.8,77.3c0.2-0.3,0.7-0.5,1.1-0.5c0.3,0,0.6,0.2,0.8,0.4c0.2,0.2,0.2,0.6,0.1,0.8
														c-0.2,0.3-0.6,0.4-0.9,0.3s-0.6-0.3-0.9-0.5c-0.1-0.1-0.2-0.1-0.2-0.2C111.7,77.5,111.7,77.4,111.8,77.3"/>
												</g>
											</g>
										</g>
									</g>
								</g>
							</g>
							<g>
								<g>
									<g>
										<g>
											<g>
												<g>
													<g>
														<path class="st5" d="M113.5,76c-0.1,0-0.1,0.8-0.7,1.3c-0.6,0.6-1.5,0.5-1.5,0.6c0,0,0.2,0.1,0.5,0.1s0.8-0.1,1.2-0.5
															c0.4-0.3,0.6-0.8,0.6-1.1C113.7,76.2,113.6,76,113.5,76z"/>
													</g>
												</g>
											</g>
										</g>
									</g>
								</g>
							</g>
						</g>
					</g>
				</g>
				<g>
					<g>
						<g>
							<g>
								<g>
									<g>
										<path class="st5" d="M113.6,67.4c0.1,0.2,0.8,0.1,1.6,0.2c0.8,0.1,1.5,0.3,1.6,0.1c0-0.1-0.1-0.3-0.4-0.4
											c-0.3-0.2-0.7-0.3-1.2-0.4c-0.5,0-1,0.1-1.3,0.2C113.7,67.1,113.6,67.3,113.6,67.4z"/>
									</g>
								</g>
							</g>
						</g>
					</g>
				</g>
				<g>
					<g>
						<g>
							<g>
								<g>
									<g>
										<path class="st5" d="M107.1,68.2c0.1,0.2,0.6,0,1.2,0s1.1,0.1,1.2-0.1c0-0.1,0-0.2-0.3-0.4c-0.2-0.1-0.6-0.3-1-0.2
											c-0.4,0-0.8,0.2-1,0.4C107.1,67.9,107,68.1,107.1,68.2z"/>
									</g>
								</g>
							</g>
						</g>
					</g>
				</g>
			</g>
		</g>
		<g>
			<g>
				<g>
					<path class="st23" d="M115.9,62c-1.4,1.8,0.1,4.4,1.7,6.1s3.5,3.6,3.1,5.8c-0.5,2.6-4.1,4.3-3.6,6.9c0.2,1,0.9,1.8,1,2.7
						c0,1.8-2.3,2.6-2.9,4.2c-0.9,2.2,1.6,4.5,1.6,6.9c0,1.4-0.8,2.6-0.8,4c-0.1,2.8,3.2,4.9,5.9,4.2c2.7-0.7,4.6-3.3,5.2-6.1
						c0.6-2.7-0.3-6.6-0.7-9.4l4.7,1.1c0.9-0.8-0.3-1.7-0.5-2.9c-0.5-3-2.5-5.5-3.4-8.4c-0.8-2.5-0.8-5.2-1.2-7.9
						c-0.4-2.6-1.2-5.4-3.2-7.1c-2-1.7-5.5-1.9-7.1,0.2"/>
				</g>
			</g>
			<g>
				<g>
					<g>
						<path class="st12" d="M123.4,101.9L123.4,101.9c-0.1-0.2-0.2-0.3-0.3-0.4c-0.2-0.3-0.4-0.7-0.6-1.2c-0.2-0.6-0.4-1.3-0.4-2.1
							c0-0.8,0.1-1.8,0.5-2.8s1.1-1.9,1.9-2.9c0.4-0.5,0.8-1,1.1-1.6c0.3-0.6,0.6-1.2,0.7-1.9c0.1-0.7,0.1-1.5-0.2-2.2
							c-0.2-0.3-0.4-0.7-0.6-0.9c-0.3-0.3-0.6-0.5-0.9-0.7c-0.6-0.4-1.3-0.9-1.6-1.6c-0.4-0.7-0.4-1.5-0.2-2.3
							c0.4-1.6,1.4-2.8,2.1-4.2c0.3-0.7,0.6-1.4,0.6-2.2c0-0.8-0.1-1.5-0.4-2.1c-0.6-1.3-1.5-2.3-2.5-3.1c-0.9-0.8-1.9-1.5-2.6-2.3
							c-0.8-0.7-1.4-1.5-1.7-2.2c-0.4-0.7-0.6-1.5-0.6-2c0-0.6,0-1,0.1-1.3s0.2-0.4,0.1-0.5c0,0-0.1,0.1-0.2,0.4
							c-0.1,0.3-0.2,0.8-0.2,1.4c0,0.6,0.2,1.3,0.6,2.1s1,1.5,1.7,2.3c0.8,0.7,1.7,1.5,2.6,2.3s1.9,1.8,2.4,3.1
							c0.3,0.6,0.4,1.3,0.4,2.1c0,0.7-0.3,1.4-0.6,2.1c-0.3,0.7-0.8,1.3-1.2,2c-0.4,0.7-0.8,1.4-1,2.2c-0.2,0.8-0.2,1.7,0.2,2.4
							c0.4,0.7,1.1,1.2,1.7,1.6c0.3,0.2,0.6,0.4,0.9,0.7c0.3,0.3,0.5,0.6,0.6,0.9c0.3,0.7,0.3,1.4,0.2,2.1c-0.1,0.7-0.4,1.3-0.7,1.9
							c-0.3,0.6-0.7,1.1-1.1,1.6c-0.8,1-1.5,1.9-1.9,2.9s-0.5,2-0.5,2.8c0,0.9,0.2,1.6,0.5,2.1c0.2,0.6,0.5,0.9,0.6,1.2
							C123.2,101.6,123.3,101.7,123.4,101.9L123.4,101.9z"/>
					</g>
				</g>
			</g>
		</g>
	</g>
	<g>
		<g>
			<g>
				<g>
					<path class="st5" d="M57.1,24.1c0,0-11.6,0.1-25.9,0.1s-25.9,0-25.9-0.1c0,0,11.6-0.1,25.9-0.1S57.1,24,57.1,24.1z"/>
				</g>
			</g>
			<g>
				<g>
					<path class="st5" d="M6.8,23c0,0.2-0.2,0.3-0.3,0.3c-0.2,0-0.3-0.2-0.3-0.3c0-0.2,0.2-0.3,0.3-0.3C6.7,22.6,6.8,22.8,6.8,23z"
						/>
				</g>
				<g>
					<path class="st5" d="M8.1,23c0,0.2-0.2,0.3-0.3,0.3c-0.2,0-0.3-0.2-0.3-0.3c0-0.2,0.2-0.3,0.3-0.3C7.9,22.6,8.1,22.8,8.1,23z"
						/>
				</g>
				<g>
					<path class="st5" d="M9.3,23c0,0.2-0.2,0.3-0.3,0.3S8.6,23.1,8.6,23c0-0.2,0.2-0.3,0.3-0.3S9.3,22.8,9.3,23z"/>
				</g>
			</g>
			<rect x="4.5" y="18" class="st22" width="53" height="46.4"/>
		</g>
		<g>
			<rect x="41.3" y="25.7" class="st0" width="13.5" height="11.6"/>
		</g>
	</g>
	<g>
		<g>
			<g>
				<g>
					<g>
						<g>
							<g>
								<g>
									<g>
										<g>
											<g>
												<g>
													<path class="st24" d="M26.3,36.9l6-0.5c0-0.7,0-3.4,0-3.4s2.5-0.4,2.5-2.9s-0.4-8.2-0.4-8.2l0,0
														c-2.9-1.2-6.2-0.8-8.7,1.1l-0.4,0.3L26.3,36.9z"/>
												</g>
											</g>
										</g>
									</g>
									<g>
										<g>
											<g>
												<g>
													<path class="st25" d="M32.2,33c0,0-1.6,0.1-3.2-0.9c0,0,0.8,1.8,3.2,1.6V33z"/>
												</g>
											</g>
										</g>
									</g>
								</g>
							</g>
						</g>
						<g>
							<g>
								<g>
									<g>
										<g>
											<path class="st24" d="M25.6,26c0,0-1.7-0.5-1.7,1.2c0.1,1.7,1.7,1.3,1.7,1.2C25.7,28.3,25.6,26,25.6,26z"/>
										</g>
									</g>
								</g>
							</g>
							<g>
								<g>
									<g>
										<g>
											<g>
												<path class="st25" d="M25.2,27.8C25.2,27.8,25.1,27.8,25.2,27.8c-0.1,0.1-0.2,0.1-0.3,0.1c-0.2-0.1-0.3-0.3-0.4-0.6
													c0-0.2,0-0.3,0.1-0.4c0-0.1,0.1-0.2,0.2-0.2s0.2,0,0.2,0.1v0.1c0,0,0,0,0-0.1c0,0,0-0.1-0.1-0.1c0,0-0.1,0-0.2,0
													s-0.2,0.1-0.3,0.3c-0.1,0.1-0.1,0.3-0.1,0.5c0,0.3,0.2,0.7,0.5,0.7C25,27.9,25.1,27.9,25.2,27.8L25.2,27.8z"/>
											</g>
										</g>
									</g>
								</g>
							</g>
						</g>
						<g>
							<g>
								<g>
									<g>
										<g>
											<g>
												<g>
													<g>
														<g>
															<g>
																<path class="st5" d="M33.4,25.9c0,0.2-0.1,0.3-0.3,0.4c-0.2,0-0.4-0.1-0.4-0.3c0-0.2,0.1-0.3,0.3-0.4
																	C33.3,25.5,33.4,25.7,33.4,25.9z"/>
															</g>
														</g>
													</g>
												</g>
												<g>
													<g>
														<g>
															<g>
																<g>
																	<path class="st5" d="M33.9,25.5c0,0-0.3-0.2-0.7-0.2s-0.7,0.2-0.7,0.1c0,0,0-0.1,0.1-0.2s0.3-0.2,0.6-0.2
																		c0.2,0,0.4,0.1,0.6,0.2C33.8,25.4,33.9,25.5,33.9,25.5z"/>
																</g>
															</g>
														</g>
													</g>
												</g>
											</g>
											<g>
												<g>
													<g>
														<g>
															<g>
																<path class="st5" d="M29.7,26c0,0.2-0.1,0.3-0.3,0.4c-0.2,0-0.4-0.1-0.4-0.3c0-0.2,0.1-0.3,0.3-0.4
																	C29.5,25.7,29.7,25.8,29.7,26z"/>
															</g>
														</g>
													</g>
												</g>
												<g>
													<g>
														<g>
															<g>
																<g>
																	<path class="st5" d="M30.1,25.6c0,0-0.3-0.2-0.7-0.2c-0.4,0-0.7,0.2-0.7,0.1c0,0,0-0.1,0.1-0.2s0.3-0.2,0.6-0.2
																		c0.2,0,0.4,0.1,0.6,0.2C30.1,25.5,30.1,25.6,30.1,25.6z"/>
																</g>
															</g>
														</g>
													</g>
												</g>
											</g>
											<g>
												<g>
													<g>
														<g>
															<g>
																<path class="st5" d="M31.5,28.4c0,0,0.2-0.1,0.6-0.1c0.1,0,0.2,0,0.2-0.1s0-0.2-0.1-0.3c-0.1-0.2-0.2-0.5-0.3-0.7
																	c-0.4-1.1-0.7-1.9-0.6-1.9c0,0,0.4,0.8,0.8,1.9c0.1,0.3,0.2,0.5,0.3,0.7c0,0.1,0.1,0.2,0.1,0.4
																	c0,0.1-0.1,0.1-0.2,0.1c-0.1,0-0.1,0-0.2,0C31.7,28.4,31.5,28.4,31.5,28.4z"/>
															</g>
														</g>
													</g>
												</g>
											</g>
											<g>
												<g>
													<g>
														<g>
															<g>
																<path class="st5" d="M30.4,28.7c0.1,0,0.1,0.4,0.4,0.7c0.4,0.3,0.8,0.2,0.8,0.3c0,0-0.1,0.1-0.3,0.1
																	c-0.2,0-0.4-0.1-0.7-0.2c-0.2-0.2-0.3-0.4-0.3-0.6S30.4,28.7,30.4,28.7z"/>
															</g>
														</g>
													</g>
												</g>
											</g>
										</g>
									</g>
								</g>
								<g>
									<g>
										<g>
											<g>
												<path class="st5" d="M30.2,24.1c0,0.1-0.4,0.1-0.9,0.1c-0.4,0-0.8,0.2-0.9,0.1c0,0,0-0.1,0.2-0.2
													c0.1-0.1,0.4-0.2,0.6-0.2c0.3,0,0.5,0,0.7,0.1C30.2,24,30.2,24,30.2,24.1z"/>
											</g>
										</g>
									</g>
								</g>
								<g>
									<g>
										<g>
											<g>
												<path class="st5" d="M33.7,24.4c-0.1,0.1-0.3,0-0.6,0s-0.6,0.1-0.6,0c0,0,0-0.1,0.1-0.2s0.3-0.1,0.5-0.1
													s0.4,0.1,0.5,0.2C33.7,24.3,33.8,24.4,33.7,24.4z"/>
											</g>
										</g>
									</g>
								</g>
							</g>
						</g>
					</g>
					<g>
						<g>
							<path class="st23" d="M35.5,20.5c0-0.3-0.1-0.6-0.3-0.8s-0.6-0.2-0.8,0.1c0.1-0.4-0.2-0.9-0.7-0.9c-0.4,0-0.7,0.3-1.1,0.4
								c-0.4,0.1-0.8,0-1.2-0.1c-0.4-0.1-0.7-0.4-1.1-0.5c-0.8-0.3-1.7-0.2-2.4,0.1c-0.8,0.3-1.4,1-1.6,1.8
								c-0.5-0.2-1.2,0.1-1.5,0.6s-0.4,1.1-0.4,1.6c0,0.4,0.2,0.8,0.3,1.1V24c0,1.4,0.2,3,0.8,3c1,0,0.8-1.9,0.8-1.9
								c1.2-0.5,0.8-2.3,1.1-2.6c0.3-0.3,1-0.9,3.6,0.4c1,0.5,2.4,0.5,3.1,0.3c0,0,0,0,0.1,0l0,0l0,0c0.2-0.1,0.5-0.2,0.7-0.3
								c0.2-0.1,0.5-0.4,0.6-0.6c0.1-0.3,0.1-0.6-0.1-0.8C35.4,21,35.5,20.8,35.5,20.5z"/>
						</g>
					</g>
				</g>
				<g>
					<g>
						<g>
							<g>
								<path class="st6" d="M23.4,36c0.8-0.2,1.6-0.5,2.6-0.5l0,0c2.1,0.7,4.2,0.7,6.4,0c0.3,0,0.6,0.1,1.1,0.1
									c2.8,0.3,3.8,0.9,5.8,2.9l-0.2,11.2c0,0,0.7,12.7,0.6,14.8H20.8v-8.6v-2.3l-6.2,2.3l0.6-3.3c0,0,2.8-10.8,3.2-12.3
									C18.9,38.4,20.8,36.5,23.4,36z"/>
							</g>
						</g>
						<g>
							<g>
								<path class="st6" d="M17.4,52.6l9.3-1.3l1.8,3.2l-8.6,3.9c-0.5,0.2-1,0.3-1.5,0.3l0,0c-1.5,0-2.9-0.9-3.5-2.3l-0.3-0.7
									L17.4,52.6z"/>
							</g>
						</g>
						<g>
							<g>
								<path class="st6" d="M36.4,36.3c0,0,2.6,0.9,3.7,3.4c0.7,1.6,1.8,9.6,1.8,9.6l1.3,2.6c0.3,0.6,0.5,1.3,0.5,2v0.4
									c0,1-0.3,2-1,2.7l0,0c-0.7,0.9-1.8,1.5-3,1.6c-1.3,0.1-2.9,0.2-3.3-0.2c-0.6-0.7-1.5-2.6-1.5-2.6l3.9-2.1l-1.7-3.1
									L36.4,36.3z"/>
							</g>
						</g>
						<g>
							<g>
								<g>
									<path class="st5" d="M20.5,58.1c0,0,0,0,0.2-0.1c0.1-0.1,0.3-0.1,0.4-0.2c0.4-0.2,1-0.5,1.7-0.8c1.4-0.7,3.4-1.6,5.7-2.6
										v0.1c-0.4-0.6-0.7-1.3-1.1-2c-0.2-0.4-0.5-0.8-0.7-1.2h0.1c-2.7,0.3-5.1,0.5-6.8,0.7c-0.8,0.1-1.5,0.1-2,0.2
										c-0.2,0-0.4,0-0.5,0s-0.2,0-0.2,0s0.1,0,0.2,0s0.3,0,0.5-0.1c0.5-0.1,1.2-0.1,2-0.2c1.7-0.2,4.1-0.4,6.8-0.7h0.1l0,0
										c0.2,0.4,0.4,0.8,0.7,1.2c0.4,0.7,0.7,1.3,1.1,2v0.1h-0.1c-2.3,1-4.3,1.9-5.7,2.5c-0.7,0.3-1.3,0.6-1.7,0.7
										c-0.2,0.1-0.3,0.1-0.5,0.2C20.5,58.1,20.5,58.1,20.5,58.1z"/>
								</g>
							</g>
						</g>
						<g>
							<g>
								<g>
									<path class="st5" d="M22.1,51.7c0,0-0.1-1.7-0.1-3.7c0-2.1,0-3.7,0.1-3.7c0,0,0.1,1.7,0.1,3.7S22.2,51.7,22.1,51.7z"/>
								</g>
							</g>
						</g>
						<g>
							<g>
								<g>
									<path class="st5" d="M38.1,54.2c0,0,0.1,0,0.3,0s0.5,0,0.8,0c0.2,0,0.4,0.1,0.5,0.3s0.2,0.4,0.3,0.6c0,0.2,0,0.5-0.1,0.7
										s-0.3,0.4-0.5,0.6c-0.4,0.3-0.9,0.4-1.3,0.5C37.7,57,37.3,57,36.9,57c-0.7,0-1.1-0.2-1-0.2c0,0,0.4,0.1,1,0.1
										c0.3,0,0.7-0.1,1.1-0.1c0.4-0.1,0.9-0.2,1.3-0.5c0.4-0.3,0.5-0.7,0.5-1.1c0-0.2-0.1-0.4-0.2-0.5c-0.1-0.1-0.3-0.2-0.4-0.3
										c-0.3-0.1-0.6-0.1-0.8-0.1C38.3,54.2,38.1,54.2,38.1,54.2z"/>
								</g>
							</g>
						</g>
						<g>
							<g>
								<g>
									<path class="st5" d="M39.7,58.7c0,0-0.3,0.1-0.7,0.1s-1,0-1.6-0.3c-0.3-0.1-0.6-0.3-0.8-0.4c-0.2-0.2-0.4-0.4-0.5-0.6
										c-0.2-0.4-0.3-0.6-0.2-0.6c0,0,0.1,0.2,0.3,0.6c0.1,0.2,0.3,0.3,0.5,0.5s0.5,0.3,0.8,0.4c0.6,0.2,1.1,0.3,1.5,0.3
										S39.7,58.7,39.7,58.7z"/>
								</g>
							</g>
						</g>
						<g>
							<g>
								<g>
									<path class="st5" d="M41.5,50.6c0,0-0.2,0.2-0.5,0.6c-0.3,0.3-0.7,0.8-1.2,1.3s-0.9,0.9-1.2,1.2s-0.5,0.5-0.5,0.5
										s0.2-0.2,0.5-0.6c0.3-0.3,0.7-0.8,1.2-1.3C40.7,51.4,41.5,50.6,41.5,50.6z"/>
								</g>
							</g>
						</g>
						<g>
							<g>
								<g>
									<path class="st5" d="M37.3,48.9c0,0-0.1-1-0.1-2.1c0-1.2,0-2.1,0.1-2.1c0,0,0.1,1,0.1,2.1C37.4,47.9,37.4,48.9,37.3,48.9z"
										/>
								</g>
							</g>
						</g>
						<g>
							<g>
								<g>
									<path class="st3" d="M39.9,39.8c0,0-4.8,0.1-10.6,0.1c-5.9,0-10.6,0-10.6-0.1c0,0,4.8-0.1,10.6-0.1S39.9,39.7,39.9,39.8z"
										/>
								</g>
							</g>
						</g>
						<g>
							<g>
								<g>
									<path class="st3" d="M40.4,41.5c0,0-5,0.1-11.2,0.1S18,41.6,18,41.5c0,0,5-0.1,11.2-0.1S40.4,41.4,40.4,41.5z"/>
								</g>
							</g>
						</g>
						<g>
							<g>
								<g>
									<path class="st3" d="M39,38.2c0,0-4.4,0.1-9.8,0.1s-9.8,0-9.8-0.1s4.4-0.1,9.8-0.1C34.7,38.2,39,38.2,39,38.2z"/>
								</g>
							</g>
						</g>
						<g>
							<g>
								<g>
									<path class="st3" d="M39.9,63.8c0,0-4.3,0.1-9.6,0.1s-9.6,0-9.6-0.1c0,0,4.3-0.1,9.6-0.1S39.9,63.8,39.9,63.8z"/>
								</g>
							</g>
						</g>
						<g>
							<g>
								<g>
									<path class="st3" d="M39.8,62.7c0,0-4.2,0.1-9.4,0.1s-9.4,0-9.4-0.1c0,0,4.2-0.1,9.4-0.1C35.6,62.6,39.8,62.7,39.8,62.7z"
										/>
								</g>
							</g>
						</g>
						<g>
							<g>
								<g>
									<path class="st3" d="M39.6,61.3c0,0-4.2,0.1-9.4,0.1s-9.4,0-9.4-0.1c0,0,4.2-0.1,9.4-0.1S39.6,61.3,39.6,61.3z"/>
								</g>
							</g>
						</g>
						<g>
							<g>
								<g>
									<path class="st3" d="M25.9,55.5c0,0-0.2-0.1-0.5-0.4c-0.3-0.3-0.6-0.8-0.8-1.4c-0.2-0.6-0.3-1.2-0.3-1.6
										c0-0.4,0.1-0.6,0.1-0.6c0.1,0-0.1,1,0.3,2.1C25.2,54.8,25.9,55.5,25.9,55.5z"/>
								</g>
							</g>
						</g>
						<g>
							<g>
								<g>
									<path class="st3" d="M25,56c0,0-0.2-0.2-0.5-0.5s-0.6-0.9-0.8-1.5c-0.2-0.6-0.3-1.3-0.3-1.7s0.1-0.7,0.1-0.7
										c0.1,0-0.1,1.1,0.3,2.3C24.2,55.2,25.1,56,25,56z"/>
								</g>
							</g>
						</g>
						<g>
							<g>
								<g>
									<path class="st3" d="M24.2,56.4c0,0-0.3-0.1-0.6-0.5c-0.3-0.3-0.7-0.9-0.9-1.6c-0.2-0.7-0.3-1.4-0.2-1.8
										c0.1-0.5,0.2-0.7,0.2-0.7s0,0.3-0.1,0.7c0,0.5,0,1.1,0.2,1.8s0.6,1.2,0.8,1.6C24,56.2,24.2,56.4,24.2,56.4z"/>
								</g>
							</g>
						</g>
						<g>
							<g>
								<g>
									<path class="st3" d="M36.2,57.1c0,0,0.1,0.1,0.3,0.2c0.2,0.1,0.5,0.2,0.9,0.2s0.9,0,1.4-0.1s1.1-0.2,1.4-0.7
										c0.4-0.4,0.5-1,0.4-1.5S40.3,54.3,40,54c-0.5-0.6-1.1-0.6-1-0.7c0,0,0.1,0,0.3,0.1s0.5,0.2,0.8,0.5s0.6,0.7,0.7,1.2
										c0.1,0.5,0,1.2-0.4,1.6c-0.2,0.2-0.5,0.4-0.7,0.5c-0.3,0.1-0.5,0.2-0.8,0.2c-0.5,0.1-1,0.1-1.4,0.1s-0.7-0.2-0.9-0.3
										C36.2,57.2,36.2,57.1,36.2,57.1z"/>
								</g>
							</g>
						</g>
						<g>
							<g>
								<g>
									<path class="st3" d="M39.5,52.8L39.5,52.8c0.2,0,0.3,0,0.4,0.1c0.3,0.1,0.6,0.3,0.9,0.7c0.3,0.4,0.5,0.9,0.7,1.5
										c0.1,0.3,0.1,0.6,0.1,1c0,0.3-0.1,0.7-0.3,1c-0.4,0.6-1,1-1.6,1.2s-1.2,0.2-1.6,0.2c-0.5,0-0.8-0.1-1.1-0.1
										s-0.4-0.1-0.4-0.1s0.6,0.1,1.5,0.1c0.5,0,1,0,1.6-0.2s1.1-0.5,1.5-1.1c0.2-0.3,0.3-0.6,0.3-0.9c0-0.3,0-0.6-0.1-0.9
										c-0.2-0.6-0.4-1.1-0.7-1.4c-0.3-0.4-0.6-0.6-0.8-0.7C39.7,52.9,39.5,52.9,39.5,52.8z"/>
								</g>
							</g>
						</g>
					</g>
				</g>
			</g>
			<g>
				<g>
					<g>
						<g>
							<path class="st24" d="M35.1,49.8l-0.2-0.2c-1-0.8-2.4-1.1-3.7-0.8l0,0c-1,0.2-2,0.7-2.9,1.3l-1.6,1.3l1.7,3l1.2-1.6
								c0,0,1.1,1.5,1.3,1.3s0.4-0.6,0.4-0.6l-0.8-1.1l1.8,0.4l2.7-1.2l-1.2-1.5l1.2,0.4L35.1,49.8L35.1,49.8z"/>
						</g>
					</g>
					<g>
						<g>
							<polygon class="st5" points="32.3,49.5 26.3,56.7 26.8,57.2 36.4,55.7 41.2,48.5 40.7,48.1 							"/>
						</g>
					</g>
					<g>
						<g>
							<path class="st24" d="M38.5,51.4L38.5,51.4c-0.4,0-0.7,0.2-0.9,0.6c-0.1,0.4-0.4,0.8-0.6,0.9c-0.4,0.2-1.2,0.4-1.6,0.2
								c-0.4-0.2-1.9-1.6-2.2-1.4c-0.3,0.2-0.5,0.5-0.2,0.8s1.7,1.2,1.4,1.6c-0.3,0.3-3.3-1.1-3.8-0.9c-0.5,0.1-0.7,0.4-0.5,0.6
								c0.3,0.2,2.3,1,2.4,1.2c0,0-3.1-0.8-3.2-0.6s-0.3,0.5,0,0.6s3,0.8,3.2,0.9c0.2,0.1,1,0.3,1.2,0.3c0.1,0,0.7,0.2,1.3,0.4
								s1.3,0.2,1.9-0.1l0.3-0.1c0.5-0.2,0.8-0.7,0.8-1.2l-0.1-1.1l0.3-0.9L38.5,51.4z"/>
						</g>
					</g>
				</g>
				<g>
					<g>
						<g>
							<path class="st12" d="M41.2,48.6c0,0-0.1,0-0.2,0c-0.1,0-0.3,0.1-0.5,0.1c-0.5,0.1-1.1,0.2-1.9,0.3c-0.8,0.1-1.8,0.3-2.8,0.4
								c-0.5,0.1-1.1,0.2-1.7,0.3c-0.6,0.1-1.2,0.3-1.6,0.7c-0.5,0.4-0.8,0.9-1.2,1.3c-0.4,0.5-0.7,0.9-1.1,1.3
								c-0.7,0.8-1.3,1.6-1.8,2.2c-0.5,0.6-0.9,1.1-1.2,1.5c-0.1,0.2-0.2,0.3-0.3,0.4c-0.1,0.1-0.1,0.1-0.1,0.1s0-0.1,0.1-0.2
								c0.1-0.1,0.2-0.2,0.3-0.4c0.3-0.4,0.7-0.9,1.2-1.5s1.1-1.4,1.8-2.2c0.3-0.4,0.7-0.9,1-1.3c0.4-0.4,0.7-1,1.2-1.4
								c0.5-0.4,1.1-0.6,1.7-0.7c0.6-0.1,1.1-0.2,1.7-0.2c1.1-0.1,2-0.3,2.8-0.4c0.8-0.1,1.4-0.2,1.9-0.3c0.2,0,0.4,0,0.5-0.1
								C41.1,48.6,41.2,48.6,41.2,48.6z"/>
						</g>
					</g>
				</g>
				<g>
					<g>
						<path class="st2" d="M36.7,50.1c-0.1,0.1-0.2,0.1-0.3,0.2s-0.1,0.2,0,0.3s0.3,0.1,0.4,0c0.1-0.1,0.1-0.1,0.2-0.2
							c0-0.1,0-0.2-0.1-0.3C36.8,50.1,36.7,50.1,36.7,50.1"/>
					</g>
				</g>
			</g>
		</g>
	</g>
	<g>
		<g>
			<g>
				<g>
					<g>
						<path class="st9" d="M36.2,120.8c-0.6,0.8-1.6,0.5-2.1,0s-0.7-1.2-0.9-1.9c-0.4-1.5-0.9-3.2-0.6-4.7c0.1-0.5,0.3-0.9,0.6-1.3
							c0.3-0.3,0.8-0.6,1.3-0.4c0.5,0.1,0.9,0.7,1.1,1.2c0.7,1.5,1.1,3.2,1.1,4.8C36.7,119.3,36.6,120.1,36.2,120.8"/>
					</g>
				</g>
			</g>
		</g>
		<g>
			<g>
				<g>
					<g>
						<path class="st16" d="M36.2,120.8c-0.6,0.8-1.6,0.5-2.1,0s-0.7-1.2-0.9-1.9c-0.4-1.5-0.9-3.2-0.6-4.7c0.1-0.5,0.3-0.9,0.6-1.3
							c0.3-0.3,0.8-0.6,1.3-0.4c0.5,0.1,0.9,0.7,1.1,1.2c0.7,1.5,1.1,3.2,1.1,4.8C36.7,119.3,36.6,120.1,36.2,120.8"/>
					</g>
				</g>
			</g>
		</g>
		<g>
			<g>
				<g>
					<g>
						<path class="st16" d="M34.1,124.8c-0.9-0.5-2-0.5-3-0.4c-0.5,0.1-1.1,0.3-1.5,0.7c-0.4,0.4-0.4,1.1,0,1.5
							c0.3,0.2,0.6,0.2,0.9,0.2c0.8,0,1.7-0.1,2.3,0.3c0.4,0.3,0.6,0.7,1,0.9c0.4,0.1,0.9-0.1,1.1-0.5c0.2-0.4,0.2-0.9,0.1-1.3
							C35.1,126.2,35,125.3,34.1,124.8z"/>
					</g>
				</g>
			</g>
		</g>
		<g>
			<g>
				<g>
					<g>
						<path class="st16" d="M37.7,121.9c-0.6-0.7-0.7-1.8-0.5-2.7c0.3-0.9,0.9-1.7,1.6-2.3c0.8-0.7,1.8-1.3,2.8-1.7
							c0.4-0.1,0.8-0.3,1.3-0.2c0.4,0,0.9,0.3,1.1,0.6c0.3,0.6,0,1.3-0.3,1.8c-0.5,1-1.2,1.9-1.9,2.8c-0.6,0.7-1.2,1.4-2,1.8
							c-0.8,0.3-1.7,0.3-2.2-0.3"/>
					</g>
				</g>
			</g>
		</g>
		<g>
			<g>
				<g>
					<g>
						<g>
							<path class="st5" d="M36.2,132.8c0,0,0-0.1-0.1-0.4c0-0.3-0.1-0.6-0.1-1s-0.1-0.9-0.2-1.5c-0.1-0.5-0.3-1.1-0.5-1.7
								c-0.2-0.6-0.5-1.1-0.9-1.5c-0.3-0.4-0.7-0.7-1.1-0.9c-0.4-0.2-0.7-0.3-0.9-0.3s-0.4,0-0.4-0.1c0,0,0.1,0,0.4,0
								c0.2,0,0.6,0.1,1,0.3c0.4,0.2,0.8,0.5,1.2,0.9s0.7,1,0.9,1.6c0.2,0.6,0.4,1.2,0.5,1.7s0.2,1,0.2,1.5c0,0.4,0,0.8,0,1
								C36.2,132.7,36.2,132.8,36.2,132.8z"/>
						</g>
					</g>
				</g>
			</g>
		</g>
		<g>
			<g>
				<g>
					<g>
						<g>
							<path class="st5" d="M36.1,132c0,0,0-0.1,0-0.2c0-0.1,0-0.3,0-0.5c0-0.4,0-1,0-1.8c0-1.5-0.2-3.6-0.4-5.8
								c-0.2-2.3-0.6-4.3-0.9-5.8c-0.1-0.4-0.1-0.7-0.2-1c-0.1-0.3-0.1-0.5-0.2-0.7c0-0.2-0.1-0.3-0.1-0.5c0-0.1,0-0.2,0-0.2
								s0,0.1,0.1,0.2c0,0.1,0.1,0.3,0.1,0.5c0.1,0.2,0.1,0.4,0.2,0.7c0.1,0.3,0.2,0.6,0.2,1c0.3,1.5,0.7,3.5,0.9,5.8
								s0.4,4.3,0.4,5.8c0,0.7,0,1.4,0,1.8c0,0.2,0,0.4,0,0.5C36.1,132,36.1,132,36.1,132z"/>
						</g>
					</g>
				</g>
			</g>
		</g>
		<g>
			<g>
				<g>
					<g>
						<g>
							<path class="st5" d="M36.1,128.1c0,0,0-0.2,0-0.5s0.1-0.8,0.2-1.4c0.1-0.6,0.2-1.2,0.4-2c0.2-0.7,0.5-1.5,0.8-2.3
								c0.7-1.6,1.6-3,2.4-3.8c0.2-0.2,0.4-0.4,0.6-0.5c0.1-0.1,0.2-0.1,0.2-0.2c0.1-0.1,0.2-0.1,0.2-0.2c0.3-0.2,0.4-0.3,0.4-0.3
								s-0.6,0.4-1.4,1.2c-0.8,0.8-1.7,2.2-2.4,3.8c-0.3,0.8-0.6,1.6-0.8,2.3c-0.2,0.7-0.4,1.4-0.5,2s-0.2,1-0.2,1.3
								C36.1,127.9,36.1,128.1,36.1,128.1z"/>
						</g>
					</g>
				</g>
			</g>
		</g>
	</g>
</g>
</svg>
