<?xml version="1.0" encoding="utf-8"?>
<!-- Generator: Adobe Illustrator 23.0.3, SVG Export Plug-In . SVG Version: 6.00 Build 0)  -->
<svg version="1.1" id="Layer_1" xmlns="http://www.w3.org/2000/svg" xmlns:xlink="http://www.w3.org/1999/xlink" x="0px" y="0px"
	 viewBox="0 0 225 232.7" style="enable-background:new 0 0 225 232.7;" xml:space="preserve">
<style type="text/css">
	.st0{fill:#F7F4EE;}
	.st1{fill:#154284;}
	.st2{fill:none;stroke:#FFFFFF;stroke-width:0.764;stroke-linecap:round;stroke-linejoin:round;stroke-miterlimit:10;}
	.st3{fill:#F9BFAD;}
	.st4{fill:#FD5C95;}
	.st5{fill:#407BFF;}
	.st6{fill:#E4897B;}
	.st7{fill:#23478E;}
	.st8{fill:#CE6F64;}
	.st9{fill:#323441;}
	.st10{fill:#263238;}
	.st11{fill:#DE5753;}
	.st12{opacity:0.6;fill:#FAFAFA;enable-background:new    ;}
	.st13{fill:#163568;}
	.st14{opacity:0.3;enable-background:new    ;}
	.st15{fill:#FF318F;}
	.st16{fill:#F7BDAB;}
	.st17{fill:#EB996E;}
	.st18{fill:#FFBE9D;}
	.st19{fill:#23478C;}
	.st20{fill:#0A8AC6;}
	.st21{fill:#E0E0E0;}
	.st22{opacity:0.6;}
	.st23{fill:#FFFFFF;}
	.st24{fill:#323442;}
	.st25{fill:#455A64;}
	.st26{opacity:0.3;}
	.st27{fill:#E8505B;}
	.st28{fill:#EBEBEB;stroke:#000000;stroke-width:0.3;stroke-miterlimit:10;}
	.st29{fill:#F5F5F5;}
	.st30{fill:#EBEBEB;}
	.st31{fill:#0094CD;}
	.st32{fill:#00577B;}
	.st33{fill:#004766;}
	.st34{opacity:0.5;}
	.st35{opacity:0.4;}
	.st36{fill:#EA4C89;}
	.st37{fill:#25D366;}
	.st38{fill:#FF422E;}
	.st39{fill:#8134AF;}
	.st40{fill:#3566C9;}
	.st41{fill:#FAFAFA;stroke:#000000;stroke-width:0.3;stroke-miterlimit:10;}
</style>
<g>
	<g>
		<g>
			<path class="st0" d="M154.4,222.5H95.5c-5.3,0-9.4-4.1-9.4-9.3l1.1-131.3c0-5.2,3.1-8.9,8.4-8.9l59.2-0.9c5.3,0,8.4,3.9,8.4,9.2
				l0.7,131.9C163.9,218.1,159.7,222.5,154.4,222.5z"/>
			<g>
				<path class="st1" d="M152.8,74.5c3.4,0,6,2.6,6,6v132.3c0,3.4-2.6,6-6,6H95.4c-3.4,0-6-2.6-6-6V80.4c0-3.4,2.6-6,6-6L152.8,74.5
					 M152.8,70.2H95.4c-5.6,0-10.2,4.6-10.2,10.2v132.3c0,5.6,4.6,10.2,10.2,10.2h57.5c5.6,0,10.2-4.6,10.2-10.2V80.4
					C163,74.8,158.3,70.2,152.8,70.2L152.8,70.2z"/>
			</g>
			<g>
				<path class="st1" d="M141.4,70.7h-34.8v2.5c0,2.6,2.1,4.9,4.9,4.9h25.2c2.6,0,4.9-2.1,4.9-4.9v-2.5H141.4z"/>
			</g>
			<line class="st2" x1="117.6" y1="73.6" x2="130.9" y2="73.6"/>
		</g>
	</g>
</g>
<g>
	<g>
		<polygon class="st3" points="130.1,94.2 127.3,95.8 123.1,89.6 125.9,87.9 		"/>
		<path class="st4" d="M127.2,95.7l2.3-2.8c0.1-0.1,0.2-0.1,0.3-0.1l2.5,1.5c0.3,0.2,0.3,0.6,0.1,0.8c-0.9,1-1.2,1.4-2.3,2.6
			c-0.6,0.8-1.8,2.4-2.7,3.5c-0.9,1.1-1.9,0.3-1.7-0.3c1.2-2.3,1.2-3.6,1.2-4.7C127,96.1,127.1,95.9,127.2,95.7z"/>
		<path class="st4" d="M125.9,97.3c-0.1-0.1-0.1-0.1-0.1-0.2c0.1-0.5,1.4-1.1,1.5-1.1c0,0,0,0,0.1,0c0,0,0,0,0,0.1
			c-0.3,0.5-0.8,1.2-1.2,1.3c0,0,0,0-0.1,0C126,97.5,125.9,97.4,125.9,97.3z M125.9,97.1L125.9,97.1c0.1,0.2,0.2,0.2,0.3,0.2
			c0.3,0,0.7-0.5,1.1-1.2C126.8,96.5,125.9,96.9,125.9,97.1z"/>
		<path class="st4" d="M125.8,96.3c-0.1-0.1-0.1-0.2,0-0.3c0.1-0.1,0.2-0.2,0.4-0.2c0.5-0.1,1.2,0.4,1.2,0.4s0,0,0,0.1l0,0
			c-0.2,0.1-0.7,0.2-1.1,0.2C126,96.4,125.9,96.4,125.8,96.3z M126.1,95.8c-0.1,0-0.2,0.1-0.3,0.2c-0.1,0.1,0,0.2,0,0.2
			c0.2,0.2,1,0.1,1.4-0.1C127,96,126.5,95.7,126.1,95.8z"/>
		<path class="st3" d="M134.5,45.2l-0.1,0.6l-0.2,0.6c-0.1,0.4-0.2,0.8-0.4,1.2c-0.2,0.8-0.5,1.5-0.8,2.4c-0.3,0.8-0.6,1.5-0.9,2.3
			c-0.2,0.4-0.3,0.8-0.5,1.2l-0.2,0.5c0,0.1-0.1,0.1-0.1,0.2c-0.3,0.4-0.9,0.8-1.5,1c-0.7,0.3-1.4,0.5-2.2,0.7s-1.6,0.4-2.4,0.5
			s-1.6,0.2-2.5,0.3v1.6c1.8,0.2,3.6,0.2,5.4,0c0.9-0.1,1.8-0.3,2.8-0.6c0.5-0.1,1-0.3,1.4-0.6s1-0.6,1.4-1c0.2-0.2,0.5-0.5,0.6-0.8
			c0-0.1,0.1-0.2,0.1-0.2l0.1-0.2l0.1-0.3c0.2-0.4,0.4-0.8,0.6-1.2c0.4-0.8,0.7-1.6,1.1-2.4c0.3-0.9,0.6-1.6,0.9-2.5
			c0.1-0.4,0.3-0.9,0.4-1.2l0.2-0.7c0.1-0.2,0.1-0.4,0.2-0.7L134.5,45.2z"/>
		<g>
			<path class="st5" d="M135.6,41.7c-1.3,0.4-2.3,5.9-2.3,5.9l3.7,2.5c0,0,3.6-5.6,2.5-7C138.3,41.5,137.5,41.2,135.6,41.7z"/>
			<path class="st4" d="M135.6,41.7c-1.3,0.4-2.3,5.9-2.3,5.9l3.7,2.5c0,0,3.6-5.6,2.5-7C138.3,41.5,137.5,41.2,135.6,41.7z"/>
		</g>
		<g>
			<path class="st5" d="M135.4,43.7l2.9,0.7l0.3,2.8c-0.8,1.5-1.6,2.9-1.6,2.9l-2.2-1.5C134.8,47.2,135.1,44.6,135.4,43.7z"/>
			<path class="st4" d="M135.4,43.7l2.9,0.7l0.3,2.8c-0.8,1.5-1.6,2.9-1.6,2.9l-2.2-1.5C134.8,47.2,135.1,44.6,135.4,43.7z"/>
		</g>
		<path class="st6" d="M123.3,56.5l-2.3-2.3l-0.3,3.3c0,0,1.7,1.2,2.9,0.6L123.3,56.5z"/>
		<polygon class="st6" points="118.3,53.9 118.2,56.6 120.7,57.4 120.9,54.2 		"/>
		<polygon class="st3" points="134.7,100.6 131.4,100.6 130.5,93.1 133.6,93.1 		"/>
		<path class="st4" d="M131.2,99.6l3.2-1.7c0.1-0.1,0.3,0,0.3,0.1l1.7,2.3c0.2,0.3,0.1,0.6-0.2,0.8c-1.2,0.6-1.7,0.8-3.1,1.5
			c-0.9,0.5-3.1,1.7-4.2,2.4c-1.2,0.6-1.9-0.5-1.4-0.9c2-1.6,3-3.1,3.4-4C130.9,99.8,131,99.7,131.2,99.6z"/>
		<path class="st7" d="M149.1,29c0.1,3.6,4.4,2.1,4.9,6.2c0.3,2.3,3.1,2.5,3.6,4.6c0.5,2-1.4,3.5,0,6c2,3.4,3.1,9.2-8.1,9.8
			c-8.3,0.5-11.2-8-9.8-13.2s2.2-6,0.7-7.4s-4-2.1-3.2-6.4c0.6-3.4,2.1-3,2.1-3C139.4,23.8,148.9,21.1,149.1,29z"/>
		<g>
			<path class="st5" d="M135.6,41.7c0,0-1.5,0.6,1.5,19.5c5.2,0,10.6,0,13.2,0c-0.2-5.4-0.2-8.7,2.3-19.6c0,0-2.8-0.6-5.6-0.8
				c-2.2-0.1-4-0.2-6,0C138.4,41.1,135.6,41.7,135.6,41.7z"/>
			<path class="st4" d="M135.6,41.7c0,0-1.5,0.6,1.5,19.5c5.2,0,10.6,0,13.2,0c-0.2-5.4-0.2-8.7,2.3-19.6c0,0-2.8-0.6-5.6-0.8
				c-2.2-0.1-4-0.2-6,0C138.4,41.1,135.6,41.7,135.6,41.7z"/>
		</g>
		<path class="st3" d="M146.4,34.1c-0.4,1.9-0.8,5.5,0.6,6.7c0,0-0.5,1.9-4.1,1.9c-3.5,0-1.9-1.9-1.9-1.9c2.1-0.5,2.1-2.1,1.7-3.6
			L146.4,34.1z"/>
		<path class="st8" d="M144.9,35.4l-2.2,1.8c0.1,0.4,0.2,0.7,0.2,1.1c0.9-0.1,1.9-1.1,2-1.8C145,36,145,35.6,144.9,35.4z"/>
		<path class="st3" d="M146.6,29.1c0.4,3.2,0.6,4.5-0.7,6.4c-1.9,2.9-6,2.6-7.3-0.4c-1.2-2.7-1.6-7.5,1.2-9.3
			C142.7,24,146.2,25.8,146.6,29.1z"/>
		<path class="st7" d="M146.6,30.9c-0.5,0.9-7.4-3-6.5-5c0.8-2,2.9-1.3,2.9-1.3s3.7,0.9,4.2,2.7C147.8,29.2,146.6,30.9,146.6,30.9z"
			/>
		<path class="st3" d="M148,31.3c-0.1,0.7-0.4,1.2-0.9,1.6c-0.6,0.6-1.2,0.1-1.3-0.7c-0.1-0.7,0.2-1.8,0.9-2
			C147.5,29.9,148.1,30.5,148,31.3z"/>
		<g>
			<path class="st5" d="M137.1,61.2c0,0-20.5,1.9-20.3,11.8c0.2,10.3,7.6,19.5,7.6,19.5l3.8-2.2c0,0-4.2-9-4-15.2
				c0.2-5.3,19.8-6.2,19.8-6.2l2.7-7.7C146.7,61.2,137.1,61.2,137.1,61.2z"/>
			<path class="st9" d="M137.1,61.2c0,0-20.5,1.9-20.3,11.8c0.2,10.3,7.6,19.5,7.6,19.5l3.8-2.2c0,0-4.2-9-4-15.2
				c0.2-5.3,19.8-6.2,19.8-6.2l2.7-7.7C146.7,61.2,137.1,61.2,137.1,61.2z"/>
		</g>
		<g>
			<path class="st5" d="M130,67l-0.4,4.2c-2.9,0.9-5.1,2.1-5.3,3.7C123.7,71.3,126.3,69.1,130,67z"/>
			<path class="st9" d="M130,67l-0.4,4.2c-2.9,0.9-5.1,2.1-5.3,3.7C123.7,71.3,126.3,69.1,130,67z"/>
		</g>
		<g>
			<path class="st5" d="M140.6,61.2c0,0-14,4.6-14.4,10.4c-0.7,10.6,4,24.6,4,24.6h4.4c0,0-0.3-9.2-0.8-18.8
				c-0.7-12.1,20.7-0.2,16.4-16.2C150.2,61.2,140.6,61.2,140.6,61.2z"/>
			<path class="st9" d="M140.6,61.2c0,0-14,4.6-14.4,10.4c-0.7,10.6,4,24.6,4,24.6h4.4c0,0-0.3-9.2-0.8-18.8
				c-0.7-12.1,20.7-0.2,16.4-16.2C150.2,61.2,140.6,61.2,140.6,61.2z"/>
		</g>
		<path class="st10" d="M142,30.8c0,0.3-0.1,0.5-0.2,0.5c-0.1,0-0.4-0.2-0.4-0.4c0-0.3,0.1-0.5,0.2-0.5
			C141.7,30.3,141.9,30.5,142,30.8z"/>
		<path class="st10" d="M139.1,31.3c0,0.3-0.1,0.5-0.2,0.5c-0.2,0-0.4-0.2-0.4-0.4c0-0.3,0.1-0.5,0.2-0.5S139,31,139.1,31.3z"/>
		<path class="st10" d="M138.7,30.9l-0.7-0.1C138.2,30.8,138.5,31.3,138.7,30.9z"/>
		<path class="st11" d="M139.9,31.6c0,0-0.2,1.2-0.6,1.8c0.4,0.3,1,0,1,0L139.9,31.6z"/>
		<path class="st10" d="M141.7,34.1L141.7,34.1c0.9-0.4,1.2-1.2,1.2-1.2v-0.1h-0.1C142.8,32.8,142.5,33.7,141.7,34.1
			C141.7,34,141.7,34.1,141.7,34.1L141.7,34.1z"/>
		<path class="st10" d="M142.3,29.7C142.3,29.7,142.4,29.7,142.3,29.7c0.1-0.1,0.1-0.1,0.1-0.2c-0.6-0.6-1.2-0.4-1.2-0.4
			c-0.1,0-0.1,0.1-0.1,0.1c0,0.1,0.1,0.1,0.1,0.1S141.7,29.2,142.3,29.7L142.3,29.7z"/>
		<path class="st10" d="M137.5,30.1C137.5,30.1,137.6,30.1,137.5,30.1c0.4-0.7,1-0.9,1-0.9c0.1,0,0.1-0.1,0.1-0.1
			c0-0.1-0.1-0.1-0.1-0.1s-0.7,0.1-1.1,0.9C137.4,30,137.4,30.1,137.5,30.1L137.5,30.1z"/>
		<path class="st4" d="M129.9,100.7c-0.1,0-0.2-0.1-0.3-0.3c0-0.1,0-0.2,0-0.3c0.3-0.3,1.4-0.2,1.5-0.2l0,0c0,0,0,0,0,0.1
			C130.8,100.3,130.4,100.7,129.9,100.7C130,100.8,130,100.8,129.9,100.7z M129.8,100.3L129.8,100.3c0,0.2,0.1,0.3,0.2,0.3
			c0.2,0.1,0.7-0.1,1.2-0.6C130.7,100.1,129.9,100.1,129.8,100.3z"/>
		<path class="st4" d="M131.1,100.1c-0.4,0-1.2-0.4-1.2-0.7c0-0.1,0-0.2,0.1-0.3c0.1-0.1,0.2-0.1,0.3-0.1
			C130.8,99.2,131.2,100,131.1,100.1C131.2,100,131.2,100.1,131.1,100.1C131.2,100.1,131.2,100.1,131.1,100.1L131.1,100.1z
			 M130.1,99.3c-0.1,0.1-0.1,0.1-0.1,0.2c0.1,0.3,0.7,0.6,1.1,0.6c-0.1-0.2-0.5-0.8-0.8-0.8L130.1,99.3
			C130.2,99.2,130.1,99.2,130.1,99.3z"/>
		<path class="st10" d="M141.7,30.3l-0.7-0.1C141,30.3,141.4,30.7,141.7,30.3z"/>
		<path class="st10" d="M150.5,60.4l0.1,1.2c0,0.1-0.1,0.2-0.2,0.2H137c-0.1,0-0.2-0.1-0.2-0.1l-0.1-1.2c0-0.1,0.1-0.2,0.2-0.2h13.4
			C150.3,60.3,150.4,60.4,150.5,60.4z"/>
		<g>
			<path class="st5" d="M148.6,62h0.4c0.1,0,0.1,0,0.1-0.1l-0.2-1.5l-0.1-0.1h-0.4c-0.1,0-0.1,0-0.1,0.1L148.6,62
				C148.5,61.9,148.5,62,148.6,62z"/>
			<path class="st12" d="M148.6,62h0.4c0.1,0,0.1,0,0.1-0.1l-0.2-1.5l-0.1-0.1h-0.4c-0.1,0-0.1,0-0.1,0.1L148.6,62
				C148.5,61.9,148.5,62,148.6,62z"/>
		</g>
		<g>
			<path class="st5" d="M138.1,62h0.4c0.1,0,0.1,0,0.1-0.1l-0.2-1.5l-0.1-0.1h-0.4c-0.1,0-0.1,0-0.1,0.1L138.1,62
				C137.9,61.9,138,62,138.1,62z"/>
			<path class="st12" d="M138.1,62h0.4c0.1,0,0.1,0,0.1-0.1l-0.2-1.5l-0.1-0.1h-0.4c-0.1,0-0.1,0-0.1,0.1L138.1,62
				C137.9,61.9,138,62,138.1,62z"/>
		</g>
		<g>
			<path class="st5" d="M143.3,62h0.4c0.1,0,0.1,0,0.1-0.1l-0.2-1.5l-0.1-0.1h-0.4c-0.1,0-0.1,0-0.1,0.1L143.3,62
				C143.2,61.9,143.3,62,143.3,62z"/>
			<path class="st12" d="M143.3,62h0.4c0.1,0,0.1,0,0.1-0.1l-0.2-1.5l-0.1-0.1h-0.4c-0.1,0-0.1,0-0.1,0.1L143.3,62
				C143.2,61.9,143.3,62,143.3,62z"/>
		</g>
	</g>
	<g>
		<path class="st5" d="M149.5,46.7l1.7,1.4c-0.4,1.9-0.6,3.6-0.8,4.9C150.1,51.7,149.3,47.7,149.5,46.7z"/>
		<path class="st4" d="M149.5,46.7l1.7,1.4c-0.4,1.9-0.6,3.6-0.8,4.9C150.1,51.7,149.3,47.7,149.5,46.7z"/>
	</g>
	<g>
		<polygon class="st13" points="113.5,52.2 136.6,52.2 140,65.7 116.8,65.7 		"/>
		<polygon class="st13" points="125.2,63.2 139.3,66.5 148.3,64 148.3,63.2 		"/>
		<path class="st3" d="M150.6,46.3c0.3,0.9,0.6,1.8,0.9,2.8s0.6,1.8,0.8,2.8s0.5,1.8,0.7,2.8c0.1,0.5,0.2,0.9,0.2,1.3
			c0.1,0.4,0.1,1,0.1,0.9c0,0.1-0.2,0.4-0.4,0.7s-0.6,0.6-0.9,0.8c-0.7,0.5-1.5,1-2.3,1.4c-0.9,0.4-1.7,0.9-2.6,1.2
			c-0.9,0.4-1.8,0.8-2.7,1.1l0.4,1.6c1.1-0.2,2-0.4,3-0.7s1.9-0.6,2.9-1s1.9-0.8,2.9-1.3c0.5-0.3,1-0.7,1.4-1.1c0.5-0.5,1-1,1.2-1.8
			c0.1-0.2,0.1-0.4,0.1-0.7v-0.2v-0.1v-0.2c0-0.3,0-0.6,0-0.9c0-0.6-0.1-1.1-0.2-1.6c-0.2-1.1-0.4-2-0.6-3.1c-0.5-2-1-3.9-1.6-5.9
			L150.6,46.3z"/>
		<g>
			<path class="st5" d="M152.6,41.6c1.3,0.4,3.4,5.6,3.4,5.6l-5.1,3.7c0,0-2.3-4.4-1.7-6.2C149.6,42.9,151,41.1,152.6,41.6z"/>
			<path class="st4" d="M152.6,41.6c1.3,0.4,3.4,5.6,3.4,5.6l-5.1,3.7c0,0-2.3-4.4-1.7-6.2C149.6,42.9,151,41.1,152.6,41.6z"/>
		</g>
		<path class="st3" d="M144.9,62l-3.1-0.8l1.4,3c0,0,2.1,0.1,2.8-1.1L144.9,62z"/>
		<polygon class="st3" points="139.3,62.3 140.8,64.7 143.3,64.2 141.8,61.2 		"/>
		<polygon class="st7" points="112.8,52.2 135.8,52.2 139.2,65.7 116.1,65.7 		"/>
		<polygon class="st10" points="116.1,65.7 116.2,66.5 139.3,66.5 139.2,65.7 		"/>
	</g>
	<path class="st7" d="M140.6,27.2c-3.1,1.2-3.4,3.1-3.2,1.7c0.2-1.8,1.7-3.1,2.8-3.6C140.8,25.1,142,26.6,140.6,27.2z"/>
	<g>
		<path class="st5" d="M146.4,28.8l0.2,0.3c0.1,0.1,0.1,0.2,0,0.3l-1.6,1.5c-0.1,0.1-0.2,0.1-0.3,0l-0.3-0.3c-0.1-0.1-0.1-0.2,0-0.3
			l1.7-1.5C146.2,28.7,146.3,28.7,146.4,28.8z"/>
		<path class="st14" d="M146.4,28.8l0.2,0.3c0.1,0.1,0.1,0.2,0,0.3l-1.6,1.5c-0.1,0.1-0.2,0.1-0.3,0l-0.3-0.3
			c-0.1-0.1-0.1-0.2,0-0.3l1.7-1.5C146.2,28.7,146.3,28.7,146.4,28.8z"/>
	</g>
	<g>
		<path class="st5" d="M146.8,40.6c0,0.3-0.3,1.6-2.9,2.1c0,0,0.8,0.9,1.2,2.8c0,0,4.4-1.7,3.1-4.6l-0.1-0.1L146.8,40.6
			C146.8,40.5,146.8,40.6,146.8,40.6z"/>
		<path class="st15" d="M146.8,40.6c0,0.3-0.3,1.6-2.9,2.1c0,0,0.8,0.9,1.2,2.8c0,0,4.4-1.7,3.1-4.6l-0.1-0.1L146.8,40.6
			C146.8,40.5,146.8,40.6,146.8,40.6z"/>
	</g>
	<g>
		<path class="st5" d="M141.1,40.8c-0.3,0.3-1.2,1.4,1,1.9c0,0-1.2,0.7-1.7,2.7c0,0-3.2-2.2-0.3-4.5l0,0L141.1,40.8
			C141.1,40.7,141.1,40.8,141.1,40.8z"/>
		<path class="st15" d="M141.1,40.8c-0.3,0.3-1.2,1.4,1,1.9c0,0-1.2,0.7-1.7,2.7c0,0-3.2-2.2-0.3-4.5l0,0L141.1,40.8
			C141.1,40.7,141.1,40.8,141.1,40.8z"/>
	</g>
</g>
<g>
	<g>
		<g>
			<g>
				<g>
					<g>
						<g>
							<g>
								<g>
									<g>
										<path class="st10" d="M174.2,108.7c-0.6-1.3-1.1-2.8-1.3-4.2c-0.3-1.4-0.4-3,0.1-4.4c0.1-0.2,0.7-1.6,0.9-1.6
											s-0.2,1.3-0.1,1.4c0.9,1.2,1.2,2.9,1.2,4.4C174.8,105.8,174.5,107.1,174.2,108.7"/>
									</g>
								</g>
							</g>
						</g>
					</g>
				</g>
				<g>
					<g>
						<g>
							<g>
								<g>
									<g>
										<g>
											<path class="st16" d="M182.3,125.5c-2.3,0.1-7.6-6.2-7.8-8.6l-0.8-13.9c-0.3-3.7,1.5-7,5.3-7.3h0.4
												c3.5,0,6.4,2.7,6.7,6.2c0.3,3.3,0.6,6.8,0.5,8.6c0,3.6-3.7,4.1-3.7,4.1s0,0.9,0.1,1.9
												C183.2,118.9,184.6,125.4,182.3,125.5L182.3,125.5z"/>
										</g>
									</g>
								</g>
							</g>
						</g>
					</g>
				</g>
				<g>
					<g>
						<g>
							<g>
								<g>
									<g>
										<g>
											<g>
												<path class="st17" d="M183,114.5c0,0-2.3,0.1-4.7-1.3c0,0,1.2,2.7,4.7,2.4V114.5z"/>
											</g>
										</g>
									</g>
								</g>
							</g>
						</g>
					</g>
				</g>
				<g>
					<g>
						<g>
							<g>
								<g>
									<g>
										<g>
											<g>
												<g>
													<g>
														<g>
															<g>
																<g>
																	<g>
																		<path class="st10" d="M185,104.6c0,0.3-0.2,0.5-0.5,0.5s-0.5-0.2-0.6-0.5c0-0.3,0.2-0.5,0.5-0.5
																			C184.8,104.2,185,104.4,185,104.6z"/>
																	</g>
																</g>
															</g>
														</g>
													</g>
												</g>
											</g>
										</g>
									</g>
								</g>
							</g>
						</g>
					</g>
				</g>
				<g>
					<g>
						<g>
							<g>
								<g>
									<g>
										<g>
											<g>
												<g>
													<g>
														<g>
															<g>
																<g>
																	<g>
																		<g>
																			<path class="st10" d="M185.3,103.5c-0.1,0.1-0.5-0.2-1-0.2c-0.6,0-1,0.3-1.1,0.2c0,0,0-0.2,0.2-0.3
																				c0.2-0.1,0.5-0.3,0.8-0.3c0.4,0,0.7,0.1,0.8,0.3C185.3,103.3,185.3,103.4,185.3,103.5z"/>
																		</g>
																	</g>
																</g>
															</g>
														</g>
													</g>
												</g>
											</g>
										</g>
									</g>
								</g>
							</g>
						</g>
					</g>
				</g>
				<g>
					<g>
						<g>
							<g>
								<g>
									<g>
										<g>
											<g>
												<g>
													<g>
														<g>
															<g>
																<g>
																	<g>
																		<path class="st10" d="M180,104.8c0,0.3-0.2,0.5-0.5,0.5s-0.5-0.2-0.6-0.5c0-0.3,0.2-0.5,0.5-0.5
																			S179.9,104.6,180,104.8z"/>
																	</g>
																</g>
															</g>
														</g>
													</g>
												</g>
											</g>
										</g>
									</g>
								</g>
							</g>
						</g>
					</g>
				</g>
				<g>
					<g>
						<g>
							<g>
								<g>
									<g>
										<g>
											<g>
												<g>
													<g>
														<g>
															<g>
																<g>
																	<g>
																		<g>
																			<path class="st10" d="M179.9,103.6c-0.1,0.1-0.5-0.2-1-0.2c-0.6,0-1,0.3-1.1,0.2c0,0,0-0.2,0.2-0.3
																				c0.2-0.1,0.5-0.3,0.8-0.3c0.4,0,0.7,0.1,0.8,0.3C179.9,103.4,179.9,103.6,179.9,103.6z"/>
																		</g>
																	</g>
																</g>
															</g>
														</g>
													</g>
												</g>
											</g>
										</g>
									</g>
								</g>
							</g>
						</g>
					</g>
				</g>
				<g>
					<g>
						<g>
							<g>
								<g>
									<g>
										<g>
											<g>
												<g>
													<g>
														<g>
															<g>
																<g>
																	<g>
																		<path class="st10" d="M181.9,107.8c0,0,0.4-0.1,0.9-0.2c0.1,0,0.3,0,0.3-0.1s0-0.3-0.1-0.4
																			c-0.1-0.4-0.3-0.7-0.4-1.1c-0.6-1.5-1-2.8-1-2.8c0.1,0,0.6,1.2,1.2,2.7c0.1,0.4,0.3,0.8,0.4,1.1
																			c0.1,0.2,0.2,0.4,0.1,0.6c0,0.1-0.1,0.2-0.2,0.2c-0.1,0-0.2,0-0.2,0C182.2,107.8,181.9,107.8,181.9,107.8z"/>
																	</g>
																</g>
															</g>
														</g>
													</g>
												</g>
											</g>
										</g>
									</g>
								</g>
							</g>
						</g>
					</g>
				</g>
				<g>
					<g>
						<g>
							<g>
								<g>
									<g>
										<g>
											<g>
												<g>
													<g>
														<path class="st10" d="M179.8,101.6c-0.1,0.1-0.6,0-1.2,0c-0.7,0-1.2,0.1-1.2-0.1c0-0.1,0.1-0.2,0.3-0.3
															c0.2-0.1,0.6-0.2,1-0.2s0.8,0.1,1,0.3C179.8,101.4,179.9,101.5,179.8,101.6z"/>
													</g>
												</g>
											</g>
										</g>
									</g>
								</g>
							</g>
						</g>
					</g>
				</g>
				<g>
					<g>
						<g>
							<g>
								<g>
									<g>
										<g>
											<g>
												<g>
													<g>
														<path class="st10" d="M185.2,102.1c-0.1,0.1-0.6,0-1.1,0c-0.6,0-1,0.1-1.1,0c0-0.1,0-0.2,0.2-0.3
															c0.2-0.1,0.5-0.2,0.9-0.2s0.7,0.1,0.9,0.2C185.2,102,185.2,102.1,185.2,102.1z"/>
													</g>
												</g>
											</g>
										</g>
									</g>
								</g>
							</g>
						</g>
					</g>
				</g>
				<g>
					<g>
						<g>
							<g>
								<g>
									<g>
										<path class="st18" d="M174,105.6c-0.1,0-2.5-0.8-2.4,1.7s2.5,1.8,2.5,1.8L174,105.6z"/>
									</g>
								</g>
							</g>
						</g>
					</g>
				</g>
				<g>
					<g>
						<g>
							<g>
								<g>
									<g>
										<g>
											<path class="st17" d="M173.3,108.3L173.3,108.3c-0.2,0.1-0.3,0.2-0.4,0.1c-0.3-0.1-0.5-0.5-0.5-1c0-0.2,0-0.5,0.1-0.6
												c0.1-0.2,0.2-0.3,0.3-0.4c0.1,0,0.2,0,0.3,0.1c0,0.1,0,0.1,0,0.1s0.1,0,0-0.1c0-0.1,0-0.1-0.1-0.2
												c-0.1,0-0.2-0.1-0.2-0.1c-0.2,0-0.4,0.2-0.5,0.4c-0.1,0.2-0.1,0.5-0.1,0.7c0,0.5,0.3,1,0.7,1.1
												C173.2,108.4,173.2,108.4,173.3,108.3L173.3,108.3z"/>
										</g>
									</g>
								</g>
							</g>
						</g>
					</g>
				</g>
				<g>
					<g>
						<g>
							<g>
								<g>
									<g>
										<path class="st19" d="M184.3,97.8c0.4-0.2-0.9-1.4-1.8-1.8c-1.5-0.6-3.7-1-5.1-0.5c-1.6,0.6-3,1.4-3.7,3
											c-0.8,1.5-1,3.3-0.9,5c0,0.5,0.1,1.1,0.4,1.4c0.4,0.5,1.1,0.9,1.1,1.6c0,0.3,0.1,0.6,0.3,0.8c0.5,0.5,1,0,1.2-0.5
											c0.5-1,0.5-2.1,0.5-3.3c0-0.8,0-1.5-0.3-2.3c-0.1-0.4-0.4-0.8-0.5-1.2c-0.1-0.4-0.1-0.9,0.1-1.2c0-0.1,0.1-0.1,0.2-0.2
											c0.7-0.7,1.6-0.9,2.5-0.6c1.4,0.4,3.7,1.1,4.4,0.6c0.9-0.7,1.1-1.2,1.1-1.2L184.3,97.8z"/>
									</g>
								</g>
							</g>
						</g>
					</g>
				</g>
			</g>
		</g>
		<g>
			<g>
				<g>
					<g>
						<g>
							<g>
								<path class="st10" d="M180.4,108.2c0,0,0,0.1,0,0.4c0.1,0.2,0.2,0.5,0.5,0.7s0.6,0.3,0.8,0.4s0.3,0.1,0.4,0
									c0,0-0.1-0.1-0.3-0.2s-0.4-0.2-0.7-0.4C180.6,108.7,180.5,108.2,180.4,108.2z"/>
							</g>
						</g>
					</g>
				</g>
			</g>
		</g>
	</g>
	<g>
		<g>
			<g>
				<g>
					<g>
						<g>
							<polygon class="st18" points="205.1,147.2 187.9,148.4 187.3,142.6 208.1,143.4 							"/>
						</g>
					</g>
				</g>
			</g>
		</g>
		<g>
			<g>
				<g>
					<g>
						<g>
							<g>
								<path class="st19" d="M217.3,128.5l0.2,0.4c-1.3,3-6.3,13.6-6.3,13.6l-6.5,3.6l-16.1,0.1v-0.9l8.1-3.7l10.3-0.2l5-11.2
									c0.1-0.3,0.4-0.5,0.7-0.6L217.3,128.5z"/>
							</g>
						</g>
					</g>
				</g>
			</g>
			<g>
				<g>
					<g>
						<g>
							<g>
								<g>
									<path class="st10" d="M204.6,146c0,0,0.2-0.3,0.4-0.7s0.5-1.1,0.9-1.6c0.3-0.7,0.6-1.2,0.8-1.7s0.3-0.7,0.3-0.8
										c0,0-0.2,0.3-0.4,0.7s-0.5,1.1-0.9,1.6c-0.3,0.7-0.6,1.2-0.8,1.7C204.7,145.7,204.6,146,204.6,146z"/>
								</g>
							</g>
						</g>
					</g>
				</g>
			</g>
			<g>
				<g>
					<g>
						<g>
							<g>
								<polygon class="st10" points="203.1,144.6 196.1,144.7 201.2,141.9 206.8,141.7 								"/>
							</g>
						</g>
					</g>
				</g>
			</g>
			<g>
				<g>
					<g>
						<g>
							<g>
								<g>
									<path class="st10" d="M188.5,145.2c0,0,0.1,0,0.2,0c0.1,0,0.3,0,0.5,0c0.5,0,1.1,0,1.7,0c1.5,0,3.6,0,5.9-0.1
										c2.3,0,4.3-0.1,5.9-0.1c0.8,0,1.3-0.1,1.7-0.1c0.2,0,0.4,0,0.5,0s0.2,0,0.2,0s-0.1,0-0.2,0c-0.1,0-0.3,0-0.5,0
										c-0.5,0-1.1,0-1.7,0c-1.5,0-3.6,0-5.9,0.1c-2.3,0-4.3,0.1-5.9,0.1c-0.8,0-1.3,0.1-1.7,0.1c-0.2,0-0.4,0-0.5,0
										C188.5,145.2,188.5,145.2,188.5,145.2z"/>
								</g>
							</g>
						</g>
					</g>
				</g>
			</g>
			<g>
				<g>
					<g>
						<g>
							<g>
								<g>
									<path class="st10" d="M205.6,145.5c0,0,0-0.1,0.1-0.2c0.1-0.2,0.2-0.4,0.3-0.6c0.3-0.5,0.6-1.2,1-2.1
										c0.9-1.8,2-4.3,3.3-7.1c0.9-1.9,1.7-3.8,2.4-5.4l0,0c1.5-0.4,2.7-0.7,3.7-0.9c0.4-0.1,0.8-0.2,1.1-0.3
										c0.2-0.1,0.4-0.1,0.4-0.1s-0.1,0-0.4,0.1c-0.3,0.1-0.6,0.1-1.1,0.2c-0.9,0.2-2.1,0.5-3.7,0.9l0,0l0,0
										c-0.7,1.5-1.5,3.4-2.4,5.4c-1.2,2.8-2.4,5.3-3.2,7.1c-0.4,0.9-0.7,1.6-1,2.1c-0.1,0.3-0.2,0.5-0.3,0.6
										C205.6,145.4,205.6,145.5,205.6,145.5z"/>
								</g>
							</g>
						</g>
					</g>
				</g>
			</g>
		</g>
		<g>
			<g>
				<g>
					<g>
						<g>
							<g>
								<g>
									<path class="st18" d="M209.5,141.5c0,0-0.3-0.3-0.9,0.5c-0.6,0.8-1.3,2.9-1.3,2.9l-1.1,0.5c0,0,0.9-1.2,0.9-1.5
										s-0.7-0.4-1.1,0.2c-0.4,0.7-1.4,1.9-1.4,1.9s0.4,1.2,0.5,1.2c0.1-0.1,1.8-0.2,1.8-0.2l0.5-0.3c0,0,1.2-0.1,1.2-0.4
										s1.9-1.7,1.9-2s-0.1-1.8-0.1-1.8s0.8-2.2,0.6-2.4C210.8,139.9,210,139.5,209.5,141.5z"/>
								</g>
							</g>
						</g>
					</g>
				</g>
				<g>
					<g>
						<g>
							<g>
								<g>
									<g>
										<path class="st17" d="M209.3,141.5C209.3,141.5,209.4,141.5,209.3,141.5c0.1,0,0.2,0.1,0.2,0.2l0,0
											c-0.1,0.2-0.1,0.6-0.2,1.1s-0.2,1-0.3,1.5c-0.1,0.4-0.3,0.7-0.5,1s-0.4,0.6-0.6,0.8c-0.3,0.5-0.5,0.8-0.5,0.8
											s0.2-0.3,0.6-0.7c0.2-0.2,0.4-0.5,0.6-0.8c0.1-0.1,0.2-0.3,0.3-0.5s0.2-0.4,0.2-0.6c0.1-0.6,0.2-1.1,0.3-1.5
											s0.1-0.8,0.2-1.1l0,0l0,0C209.6,141.5,209.5,141.5,209.3,141.5C209.4,141.5,209.3,141.5,209.3,141.5z"/>
									</g>
								</g>
							</g>
						</g>
					</g>
				</g>
			</g>
			<g>
				<g>
					<g>
						<g>
							<g>
								<g>
									<path class="st17" d="M209.8,145.1c0,0,0.2-0.6,0.4-1.3c0.2-0.8,0.3-1.3,0.2-1.3c0,0-0.2,0.6-0.4,1.3
										C209.9,144.5,209.8,145.1,209.8,145.1z"/>
								</g>
							</g>
						</g>
					</g>
				</g>
			</g>
			<g>
				<g>
					<g>
						<g>
							<g>
								<g>
									<path class="st17" d="M206.4,143.6L206.4,143.6c0.2,0,0.3,0,0.4,0.1s0.1,0.3,0,0.4c-0.1,0.2-0.2,0.4-0.3,0.6
										c-0.1,0.2-0.2,0.4-0.3,0.6c-0.1,0.2-0.2,0.3-0.3,0.5c-0.2,0.3-0.2,0.5-0.2,0.5s0.1-0.1,0.3-0.4c0.1-0.1,0.2-0.3,0.3-0.5
										s0.2-0.4,0.3-0.6c0.1-0.2,0.2-0.4,0.2-0.6c0-0.1,0.1-0.2,0.1-0.3s0-0.2-0.1-0.3C206.6,143.5,206.5,143.5,206.4,143.6
										C206.5,143.6,206.4,143.6,206.4,143.6z"/>
								</g>
							</g>
						</g>
					</g>
				</g>
			</g>
		</g>
	</g>
	<g>
		<g>
			<g>
				<g>
					<g>
						<g>
							<g>
								<g>
									<g>
										<g>
											<g>
												<g>
													<g>
														<g>
															<path class="st20" d="M182.3,209.8l-1.6,6.7c0,0,6.3,3.9,6.2,5.2l-13.3-2.7l2.1-10.7L182.3,209.8z"/>
														</g>
													</g>
												</g>
											</g>
										</g>
									</g>
								</g>
							</g>
						</g>
					</g>
					<g>
						<g>
							<g>
								<g>
									<g>
										<g>
											<g>
												<g>
													<g>
														<g>
															<g>
																<path class="st21" d="M176.6,215.2c-0.3,0-0.5,0.3-0.5,0.6s0.3,0.5,0.6,0.5s0.6-0.3,0.5-0.6
																	C177.2,215.4,176.8,215.1,176.6,215.2"/>
															</g>
														</g>
													</g>
												</g>
											</g>
										</g>
									</g>
								</g>
							</g>
						</g>
					</g>
					<g class="st22">
						<g>
							<g>
								<g>
									<g>
										<g>
											<g>
												<g>
													<g>
														<g>
															<path class="st23" d="M173.5,219.1l0.3-1.1l12.6,3c0,0,0.6,0.4,0.4,0.8L173.5,219.1z"/>
														</g>
													</g>
												</g>
											</g>
										</g>
									</g>
								</g>
							</g>
						</g>
					</g>
					<g>
						<g>
							<g>
								<g>
									<g>
										<g>
											<g>
												<g>
													<g>
														<g>
															<g>
																<path class="st10" d="M180.8,216.6c0,0.1-0.4,0-0.7,0.2c-0.4,0.1-0.6,0.4-0.7,0.4c-0.1,0,0.1-0.4,0.6-0.6
																	C180.5,216.4,180.8,216.5,180.8,216.6z"/>
															</g>
														</g>
													</g>
												</g>
											</g>
										</g>
									</g>
								</g>
							</g>
						</g>
					</g>
					<g>
						<g>
							<g>
								<g>
									<g>
										<g>
											<g>
												<g>
													<g>
														<g>
															<g>
																<path class="st10" d="M182.1,217.4c0,0.1-0.3,0.1-0.6,0.4c-0.3,0.2-0.4,0.5-0.5,0.5s0-0.4,0.3-0.7
																	C181.7,217.3,182.1,217.3,182.1,217.4z"/>
															</g>
														</g>
													</g>
												</g>
											</g>
										</g>
									</g>
								</g>
							</g>
						</g>
					</g>
					<g>
						<g>
							<g>
								<g>
									<g>
										<g>
											<g>
												<g>
													<g>
														<g>
															<g>
																<path class="st10" d="M182.6,219.2c-0.1,0-0.1-0.4,0.2-0.7c0.2-0.3,0.6-0.4,0.6-0.4c0,0.1-0.2,0.2-0.4,0.5
																	C182.7,219,182.7,219.2,182.6,219.2z"/>
															</g>
														</g>
													</g>
												</g>
											</g>
										</g>
									</g>
								</g>
							</g>
						</g>
					</g>
					<g>
						<g>
							<g>
								<g>
									<g>
										<g>
											<g>
												<g>
													<g>
														<g>
															<g>
																<path class="st10" d="M181,215c0,0.1-0.3-0.1-0.7-0.2c-0.4-0.1-0.7,0-0.7-0.1s0.3-0.2,0.8-0.2
																	C180.8,214.6,181,214.9,181,215z"/>
															</g>
														</g>
													</g>
												</g>
											</g>
										</g>
									</g>
								</g>
							</g>
						</g>
					</g>
				</g>
			</g>
		</g>
		<g>
			<g>
				<g>
					<g>
						<g>
							<g>
								<g>
									<g>
										<g>
											<g>
												<g>
													<g>
														<g>
															<path class="st20" d="M177.8,211.6v6.9c0,0,7.1,2.3,7.2,3.7l-13.5,0.5l-0.5-10.9L177.8,211.6z"/>
														</g>
													</g>
												</g>
											</g>
										</g>
									</g>
								</g>
							</g>
						</g>
					</g>
					<g>
						<g>
							<g>
								<g>
									<g>
										<g>
											<g>
												<g>
													<g>
														<g>
															<g>
																<path class="st21" d="M173.5,218.1c-0.3,0.1-0.4,0.4-0.4,0.7c0.1,0.3,0.4,0.5,0.7,0.4s0.5-0.4,0.4-0.7
																	C174.1,218.2,173.7,218,173.5,218.1"/>
															</g>
														</g>
													</g>
												</g>
											</g>
										</g>
									</g>
								</g>
							</g>
						</g>
					</g>
					<g class="st22">
						<g>
							<g>
								<g>
									<g>
										<g>
											<g>
												<g>
													<g>
														<g>
															<path class="st23" d="M171.4,222.7v-1.1l13-0.1c0,0,0.6,0.2,0.6,0.7L171.4,222.7z"/>
														</g>
													</g>
												</g>
											</g>
										</g>
									</g>
								</g>
							</g>
						</g>
					</g>
					<g>
						<g>
							<g>
								<g>
									<g>
										<g>
											<g>
												<g>
													<g>
														<g>
															<g>
																<path class="st10" d="M178,218.5c0,0.1-0.3,0.1-0.7,0.3c-0.3,0.2-0.5,0.5-0.6,0.5s0-0.4,0.4-0.7
																	C177.6,218.4,178,218.4,178,218.5z"/>
															</g>
														</g>
													</g>
												</g>
											</g>
										</g>
									</g>
								</g>
							</g>
						</g>
					</g>
					<g>
						<g>
							<g>
								<g>
									<g>
										<g>
											<g>
												<g>
													<g>
														<g>
															<g>
																<path class="st10" d="M179.4,219.1c0,0.1-0.3,0.2-0.5,0.5s-0.3,0.6-0.3,0.6c-0.1,0-0.1-0.4,0.2-0.8
																	C179,219,179.4,219,179.4,219.1z"/>
															</g>
														</g>
													</g>
												</g>
											</g>
										</g>
									</g>
								</g>
							</g>
						</g>
					</g>
					<g>
						<g>
							<g>
								<g>
									<g>
										<g>
											<g>
												<g>
													<g>
														<g>
															<g>
																<path class="st10" d="M180.3,220.7c-0.1,0-0.2-0.3,0-0.7s0.5-0.5,0.5-0.5c0,0.1-0.2,0.3-0.3,0.6
																	C180.4,220.4,180.3,220.7,180.3,220.7z"/>
															</g>
														</g>
													</g>
												</g>
											</g>
										</g>
									</g>
								</g>
							</g>
						</g>
					</g>
					<g>
						<g>
							<g>
								<g>
									<g>
										<g>
											<g>
												<g>
													<g>
														<g>
															<g>
																<path class="st10" d="M177.8,216.8c0,0.1-0.3,0-0.7,0s-0.7,0.2-0.7,0.1c0,0,0.2-0.3,0.7-0.4
																	C177.5,216.7,177.8,216.8,177.8,216.8z"/>
															</g>
														</g>
													</g>
												</g>
											</g>
										</g>
									</g>
								</g>
							</g>
						</g>
					</g>
				</g>
			</g>
		</g>
		<g>
			<g>
				<g>
					<g>
						<g>
							<g>
								<g>
									<g>
										<path class="st24" d="M167.1,161.1l0.3,5.5l2.4,21.3c0,0-0.5,10.4-0.8,16.3c-0.3,5.1,1,13.9,1,13.9l8.6-0.4l1.7-29.7
											l1.1-18.6l3-8.6L167.1,161.1z"/>
									</g>
								</g>
							</g>
						</g>
					</g>
				</g>
			</g>
			<g>
				<g>
					<g>
						<g>
							<g>
								<g>
									<g>
										<polygon class="st24" points="190.2,161.1 189.4,191 181.8,213.8 181.4,215.1 176.2,214.1 177.7,161 										"/>
									</g>
								</g>
							</g>
						</g>
					</g>
				</g>
			</g>
			<g>
				<g>
					<g>
						<g>
							<g>
								<g>
									<g>
										<g>
											<path class="st25" d="M181.3,169.8L181.3,169.8c0,0.2,0,0.3,0,0.5c0,0.3,0,0.8,0,1.4c0,1.2,0,3,0,5.2
												c-0.1,4.3-0.3,10.4-0.8,17s-1,12.6-1.4,16.9c-0.2,2.1-0.4,3.9-0.5,5.1c-0.1,0.6-0.1,1.1-0.1,1.4c0,0.2,0,0.3,0,0.4
												c0,0.1,0,0.1,0,0.1s0,0,0-0.1s0-0.2,0-0.4c0-0.3,0.1-0.8,0.1-1.4c0.1-1.2,0.3-3,0.5-5.1c0.4-4.3,0.9-10.3,1.3-16.9
												s0.7-12.6,0.8-17c0-2.2,0.1-3.9,0.1-5.2c0-0.6,0-1.1,0-1.4C181.3,170.1,181.3,170,181.3,169.8L181.3,169.8z"/>
										</g>
									</g>
								</g>
							</g>
						</g>
					</g>
				</g>
			</g>
			<g>
				<g>
					<g>
						<g>
							<g>
								<g>
									<g>
										<g>
											<path class="st25" d="M173.6,161.4c0,0,0,0.1,0,0.3s-0.1,0.5-0.2,0.9c-0.2,0.7-0.8,1.6-1.5,2.4c-0.9,0.8-1.8,1.2-2.6,1.2
												c-0.4,0.1-0.7,0.1-0.9,0.1s-0.3,0-0.3,0s0.5,0,1.2-0.2s1.6-0.6,2.5-1.2c0.9-0.8,1.3-1.6,1.5-2.3S173.5,161.4,173.6,161.4
												z"/>
										</g>
									</g>
								</g>
							</g>
						</g>
					</g>
				</g>
			</g>
			<g>
				<g>
					<g>
						<g>
							<g>
								<g>
									<g>
										<path class="st25" d="M181.6,162.3c0,0.3-0.2,0.5-0.4,0.5c-0.3,0-0.5-0.2-0.5-0.4c0-0.3,0.2-0.5,0.4-0.5
											C181.3,161.9,181.5,162,181.6,162.3z"/>
									</g>
								</g>
							</g>
						</g>
					</g>
				</g>
			</g>
			<g>
				<g>
					<g>
						<g>
							<g>
								<g>
									<g>
										<g>
											<path class="st25" d="M189.3,166.2c0,0-0.3-0.2-0.7-0.6c-0.4-0.4-0.8-1-1.2-1.6c-0.4-0.7-0.6-1.4-0.7-1.9
												c-0.1-0.5-0.1-0.9-0.1-0.9s0.1,0.3,0.2,0.8c0.1,0.5,0.3,1.2,0.7,1.8c0.4,0.7,0.8,1.2,1.1,1.6
												C189.1,165.9,189.3,166.1,189.3,166.2z"/>
										</g>
									</g>
								</g>
							</g>
						</g>
					</g>
				</g>
			</g>
		</g>
	</g>
	<g>
		<g>
			<g>
				<g>
					<g>
						<g>
							<g>
								<path class="st20" d="M181.5,118.3l-7.4-5.7l-1.4,2.4c0,0-6.1,4.8-7.1,6.2l2.5,20.7c0,0-1.2,11-1.2,11.8
									c-0.1,0.9-0.7,8.5-0.7,8.5c-0.1,1.4,1.2,3.1,1.4,3.1c0,0,1.2-1.5,2.4-1.4s10.2,2,10.2,2l10.5-2.9l-2.1-20.9l-1-14l-1.2-5.3
									l-2.2-2l-1.2-3.5c0,0-0.3,4.4-0.4,4.2C182.7,121.4,181.5,118.3,181.5,118.3z"/>
							</g>
						</g>
					</g>
				</g>
			</g>
			<g>
				<g>
					<g>
						<g>
							<g>
								<g>
									<path class="st10" d="M173,115.3c0,0,0.1,0.1,0.3,0.4c0.2,0.2,0.5,0.6,0.9,1c0.8,0.8,1.9,1.8,3.2,3
										c0.6,0.6,1.2,1.2,1.6,1.6l0.1,0.1l0.1-0.1c0.8-0.9,1.2-1.6,1.7-2.1c0.2-0.3,0.4-0.5,0.5-0.6s0.2-0.2,0.2-0.2
										s-0.1,0.1-0.2,0.2c-0.1,0.1-0.3,0.3-0.5,0.6c-0.5,0.5-1,1.2-1.7,2.1h0.1c-0.5-0.6-1.1-1.1-1.6-1.6c-1.2-1.2-2.4-2.2-3.2-3
										c-0.4-0.4-0.7-0.7-1-1C173.1,115.4,173,115.3,173,115.3z"/>
								</g>
							</g>
						</g>
					</g>
				</g>
			</g>
			<g>
				<g>
					<g>
						<g>
							<g>
								<g>
									<path class="st10" d="M186.7,152.5C186.7,152.5,186.7,152.4,186.7,152.5c0-0.2,0-0.2,0-0.3c0-0.2-0.1-0.5-0.1-0.9
										c-0.1-0.8-0.2-1.9-0.4-3.4c-0.3-2.8-0.8-6.7-1.3-11c-0.6-4.3-1.1-8.2-1.4-11c-0.2-1.4-0.4-2.5-0.5-3.4
										c-0.1-0.4-0.1-0.7-0.2-0.9c0-0.1,0-0.2,0-0.2c0-0.1,0-0.1,0-0.1s0,0,0,0.1s0,0.1,0,0.2c0,0.2,0.1,0.5,0.1,0.9
										c0.1,0.8,0.3,1.9,0.5,3.4c0.4,2.8,0.9,6.7,1.4,11c0.6,4.3,1.1,8.2,1.3,11c0.2,1.4,0.3,2.5,0.4,3.4c0.1,0.4,0.1,0.7,0.1,0.9
										C186.6,152.2,186.7,152.3,186.7,152.5C186.7,152.4,186.7,152.5,186.7,152.5z"/>
								</g>
							</g>
						</g>
					</g>
				</g>
			</g>
			<g class="st26">
				<g>
					<g>
						<g>
							<g>
								<g>
									<path d="M188.7,144c-0.8,0.5-1.7,0.6-2.5,1.1c-0.6,0.3-1.1,0.8-1.4,1.2c-3.3,3.1-7.4,5.4-11.9,5.7
										c-1.5,0.1-3.2-0.1-4.4-1.1c-0.7-0.6-1.2-1.3-1-2.2c0.3-1,1.3-1.4,2.3-1.8c3-1.1,6.1-2.2,9-3.3c1.9-0.7,3.8-1.3,5.8-1.8
										c1.3-0.3,2.7-0.4,4-0.4"/>
								</g>
							</g>
						</g>
					</g>
				</g>
			</g>
			<g>
				<g>
					<g>
						<g>
							<g>
								<g>
									<path class="st10" d="M179.2,157.2c0,0,2.2-1.2,4.8-2.9c2.6-1.6,4.7-3,4.7-3.1c0,0-2.2,1.2-4.8,2.9
										C181.3,155.8,179.2,157.1,179.2,157.2z"/>
								</g>
							</g>
						</g>
					</g>
				</g>
			</g>
			<g>
				<g>
					<g>
						<g>
							<g>
								<g>
									<path class="st10" d="M186.5,164.1c0,0,0-0.2,0-0.4c0-0.3-0.1-0.7-0.1-1.2c-0.1-1-0.2-2.3-0.2-3.8
										c-0.1-1.5-0.1-2.9-0.2-3.8c0-0.5-0.1-0.9-0.1-1.2s0-0.4,0-0.4s0,0.2,0,0.4c0,0.3,0,0.7,0,1.2c0,1,0.1,2.4,0.1,3.8
										c0.1,1.5,0.1,2.9,0.3,3.8c0.1,0.5,0.1,0.9,0.2,1.2C186.4,164,186.5,164.1,186.5,164.1z"/>
								</g>
							</g>
						</g>
					</g>
				</g>
			</g>
			<g class="st26">
				<g>
					<g>
						<g>
							<g>
								<g>
									<path d="M175.2,140.7c-0.9-2.9-1-6.3-1.1-9.4c-0.5,2.1-1,5.4-1.2,7.6l1,2.1L175.2,140.7z"/>
								</g>
							</g>
						</g>
					</g>
				</g>
			</g>
			<g class="st26">
				<g>
					<g>
						<g>
							<g>
								<g>
									<path d="M182.7,121.5c0,0-0.3-0.1-0.4-0.3c-0.3-0.4-0.5-1-0.9-1.3c-0.8,0.8-1.5,1.6-2.2,2.6c-1.2-1.1-2.2-2.1-3.3-3.3
										c-0.8-1-1.5-1.9-2.2-3l5.2,5.1l2.5-3L182.7,121.5z"/>
								</g>
							</g>
						</g>
					</g>
				</g>
			</g>
			<g>
				<g>
					<g>
						<g>
							<g>
								<g>
									<path class="st10" d="M183,118.8c0,0,0.2,0.5,0.5,1.1s0.7,1.1,0.8,1c0,0-0.3-0.5-0.6-1.1C183.3,119.2,183,118.8,183,118.8z
										"/>
								</g>
							</g>
						</g>
					</g>
				</g>
			</g>
		</g>
		<g>
			<g>
				<g>
					<g>
						<g>
							<g>
								<g>
									<g>
										<path class="st10" d="M175.5,122.7c0,0-0.1-0.1-0.2-0.3c-0.1-0.2-0.4-0.5-0.7-0.8s-0.7-0.6-1.2-1c-0.5-0.3-1-0.7-1.5-0.9
											c-0.7-0.2-1.2-0.2-1.8-0.1s-1.1,0.2-1.4,0.3c-0.4,0.1-0.8,0.2-1,0.2c-0.2,0.1-0.4,0.1-0.4,0.1s0.1,0,0.4,0
											c0.2,0,0.6-0.1,1-0.2s0.9-0.2,1.4-0.3c0.6-0.1,1.2-0.1,1.7,0.1c0.6,0.2,1.1,0.6,1.5,0.9c0.5,0.3,0.9,0.7,1.2,1
											C175.2,122.3,175.5,122.7,175.5,122.7z"/>
									</g>
								</g>
							</g>
						</g>
					</g>
				</g>
				<g>
					<g>
						<g>
							<g>
								<g>
									<g>
										<path class="st18" d="M186.1,138.9v4.2c0,0-6.1,3.2-10.1,4.4s-8.7,1.2-8.7,1.2l1.4-6.8L186.1,138.9z"/>
									</g>
								</g>
							</g>
						</g>
					</g>
					<g>
						<g>
							<g>
								<g>
									<g>
										<path class="st18" d="M198.1,139.3c0,0,0.1-0.5-0.5-0.9c-0.6-0.3-1.7-1-1.7-1l-3.5-0.2l-6.3,1.6v4.2c0,0,3.3,0,4,0
											c0.8-0.1,2.9-0.9,2.9-0.9s3.6,0.3,3.7,0.1c0.2-0.2,0.4-0.5,0.1-0.6c-0.2-0.1-3-0.7-3-0.7l1.8-0.2c0,0,2.7,0.5,2.9,0.4
											s0.4-0.5,0.3-0.7c-0.2-0.3-0.2-0.3-0.2-0.3s0.2-0.5-0.3-0.7l-0.3-0.1L198.1,139.3z"/>
									</g>
								</g>
							</g>
						</g>
					</g>
					<g>
						<g>
							<g>
								<g>
									<g>
										<g>
											<path class="st17" d="M193.2,139.4c0,0,0.3,0.1,0.9,0.1c0.5,0,1.2-0.1,2,0.1c0.4,0.1,0.7,0.3,1.1,0.4
												c0.3,0.1,0.6,0.2,0.9,0.3c0.5,0.1,0.9,0.2,0.9,0.1c0,0-0.3-0.1-0.8-0.2c-0.3-0.1-0.6-0.2-0.9-0.3
												c-0.3-0.1-0.7-0.3-1.1-0.4c-0.4-0.1-0.8-0.1-1.2-0.1s-0.7,0-0.9,0.1C193.6,139.5,193.2,139.4,193.2,139.4z"/>
										</g>
									</g>
								</g>
							</g>
						</g>
					</g>
					<g>
						<g>
							<g>
								<g>
									<g>
										<g>
											<path class="st17" d="M193.5,138.4c0,0,0.3,0.1,0.8,0.1s1.1-0.1,1.7,0.2c0.7,0.2,1.2,0.5,1.6,0.6
												c0.4,0.2,0.7,0.2,0.7,0.2s-0.3-0.1-0.7-0.3s-1-0.4-1.6-0.7c-0.3-0.1-0.7-0.2-1-0.2s-0.6,0-0.8,0.1
												C193.8,138.4,193.5,138.4,193.5,138.4z"/>
										</g>
									</g>
								</g>
							</g>
						</g>
					</g>
					<g>
						<g>
							<g>
								<g>
									<g>
										<path class="st20" d="M165.6,121.2c0,0-1.7,3-1.9,4.4s-0.3,16.5,0,16.8c0.3,0.3,0.8,0.6,0.8,0.6s-1.6,0.4-1.1,1.2
											c0.6,0.9,1.1,1.4,1.1,1.4s0.4,2.8,0.7,2.8c0.3,0.1,2.1,1,2.1,1s4.9-2.9,5.3-4.3s1.3-4.3,1.3-4.3l-1-1.9l2-12.2
											c0,0,1.2-3.9-1.3-5.4C170.9,119.8,166.4,119.5,165.6,121.2z"/>
									</g>
								</g>
							</g>
						</g>
					</g>
					<g>
						<g>
							<g>
								<g>
									<g>
										<g>
											<path class="st10" d="M174.5,129c0,0,0,0.1,0,0.2c0,0.1-0.1,0.3-0.1,0.6c-0.1,0.5-0.2,1.2-0.4,2
												c-0.3,1.7-0.7,4.2-1.2,7.1l0,0l0,0c0.3,0.6,0.6,1.2,1,1.9v-0.1c-0.4,1.3-0.9,2.9-1.3,4.4l-0.1,0.2l-0.1,0.2
												c-0.1,0.1-0.2,0.2-0.3,0.4c-0.1,0.1-0.2,0.2-0.3,0.3s-0.2,0.2-0.3,0.3c-0.5,0.4-0.9,0.8-1.3,1.1c-1,0.7-1.8,1.2-2.7,1.8
												h0.1c-0.5-0.2-0.9-0.5-1.3-0.7c-0.2-0.1-0.4-0.2-0.7-0.3h-0.1h-0.1c0,0,0-0.1-0.1-0.1c0-0.1-0.1-0.2-0.1-0.3
												c-0.2-0.9-0.4-1.6-0.5-2.4l0,0l0,0c-0.3-0.3-0.5-0.7-0.8-1c-0.1-0.2-0.2-0.3-0.3-0.5c-0.1-0.1-0.1-0.1-0.1-0.2
												s0-0.2,0-0.2c0-0.3,0.3-0.5,0.5-0.6s0.5-0.2,0.6-0.3h0.1h-0.1c-0.3-0.2-0.5-0.3-0.7-0.4c-0.1-0.1-0.2-0.2-0.2-0.2l0,0
												l0.1,0.1c0.1,0.1,0.3,0.3,0.6,0.5v-0.1c-0.2,0.1-0.4,0.1-0.7,0.3c-0.1,0.1-0.2,0.1-0.4,0.2c-0.1,0.1-0.2,0.2-0.2,0.4
												c0,0.1,0,0.2,0,0.3s0.1,0.2,0.1,0.2c0.1,0.2,0.2,0.3,0.3,0.5c0.2,0.3,0.5,0.6,0.7,1l0,0c0.1,0.8,0.2,1.5,0.5,2.4
												c0,0.1,0.1,0.2,0.1,0.3s0,0.1,0.1,0.2c0.1,0,0.1,0,0.1,0h0.1c0.2,0.1,0.4,0.2,0.7,0.3c0.4,0.2,0.9,0.4,1.3,0.7l0,0l0,0
												c0.9-0.6,1.8-1.2,2.8-1.8c0.5-0.4,1-0.7,1.3-1.1c0.1-0.1,0.2-0.2,0.3-0.3s0.2-0.2,0.3-0.3s0.2-0.2,0.3-0.4
												c0-0.1,0.1-0.1,0.1-0.2l0.1-0.2c0.5-1.5,1-3.1,1.3-4.4l0,0l0,0c-0.3-0.7-0.7-1.3-1-1.9l0,0c0.5-2.9,0.9-5.4,1.2-7.1
												c0.1-0.9,0.2-1.5,0.3-2c0-0.2,0.1-0.4,0.1-0.6C174.5,129,174.5,129,174.5,129z"/>
										</g>
									</g>
								</g>
							</g>
						</g>
					</g>
					<g>
						<g>
							<g>
								<g>
									<g>
										<g>
											<path class="st10" d="M164.4,143c0,0,0.1,0,0.3,0.1c0.2,0,0.4,0.1,0.8,0.1c0.2,0,0.4-0.1,0.5-0.2
												c0.2-0.1,0.3-0.2,0.5-0.3c0.4-0.3,0.7-0.6,1.1-0.9c0.8-0.6,1.4-1.1,2-1.4c0.5-0.4,0.9-0.6,0.8-0.6c0,0-0.4,0.2-0.9,0.5
												s-1.2,0.8-2,1.3c-0.4,0.3-0.8,0.6-1.1,0.9c-0.3,0.3-0.7,0.5-1,0.5s-0.6,0-0.8,0C164.5,143,164.4,143,164.4,143z"/>
										</g>
									</g>
								</g>
							</g>
						</g>
					</g>
					<g>
						<g>
							<g>
								<g>
									<g>
										<g>
											<path class="st10" d="M164.5,145.8c0,0,0.1,0,0.3,0.1c0.2,0,0.6,0,0.9-0.2c0.7-0.4,1.5-1,2.4-1.6c0.9-0.8,1.5-1.5,2.1-2
												c0.3-0.3,0.5-0.5,0.6-0.7s0.2-0.3,0.2-0.3s-0.4,0.3-0.9,0.9c-0.5,0.5-1.2,1.2-2.1,2c-0.9,0.8-1.7,1.3-2.3,1.7
												c-0.3,0.2-0.6,0.2-0.9,0.2C164.6,145.8,164.5,145.7,164.5,145.8z"/>
										</g>
									</g>
								</g>
							</g>
						</g>
					</g>
				</g>
				<g class="st26">
					<g>
						<g>
							<g>
								<g>
									<g>
										<path d="M170.2,139.9c-0.3,0.5-0.8,1-1.2,1.3c-0.7,0.7-1.3,1.3-2,1.9c-0.4,0.4-0.9,0.8-1.3,0.8c-0.3,0-0.5-0.2-0.8-0.3
											c-0.2-0.1-0.5-0.3-0.4-0.6c0.6,0.2,1.2,0.1,1.8-0.3c0.2-0.2,0.4-0.4,0.6-0.6C167.9,141.3,169,140.6,170.2,139.9"/>
									</g>
								</g>
							</g>
						</g>
					</g>
				</g>
			</g>
			<g>
				<g>
					<g>
						<g>
							<g>
								<g>
									<path class="st17" d="M185.8,143.1c0,0,0.2,0,0.4,0c0.3,0,0.7,0,1.2,0s1.1,0,1.7,0c0.3,0,0.7,0,1,0c0.2,0,0.4-0.1,0.6-0.1
										c0.2-0.1,0.4-0.1,0.5-0.2c0.8-0.2,1.4-0.5,2-0.7l0,0c1,0,1.7,0.1,2.3,0.1c0.3,0,0.5,0,0.7,0s0.2,0,0.2,0s-0.1,0-0.2,0
										c-0.2,0-0.4,0-0.7-0.1c-0.6,0-1.3-0.1-2.3-0.2l0,0l0,0c-0.7,0.2-1.3,0.4-2,0.6c-0.2,0.1-0.4,0.1-0.5,0.2
										c-0.2,0-0.4,0.1-0.5,0.1c-0.4,0-0.7,0-1,0c-0.7,0-1.2,0-1.7,0s-0.9,0-1.2,0C185.9,143.1,185.8,143.1,185.8,143.1z"/>
								</g>
							</g>
						</g>
					</g>
				</g>
			</g>
		</g>
	</g>
</g>
<g>
	<g>
		<g>
			<g>
				<g>
					<path class="st25" d="M129.7,192.5c0,0-0.2,0-0.6,0c-0.4,0-1,0-1.5,0c-1.3,0-3.1,0-5.1,0s-3.7,0-5.1,0c-0.6,0-1.2,0-1.5,0
						c-0.4,0-0.6,0-0.6,0s0.2,0,0.6,0s1,0,1.5,0c1.3,0,3.1,0,5.1,0s3.7,0,5.1,0c0.6,0,1.2,0,1.5,0S129.7,192.5,129.7,192.5z"/>
				</g>
				<g>
					<path class="st25" d="M152.3,196.1c0,0.1-8.3,0.1-18.5,0.1s-18.5,0-18.5-0.1s8.3-0.1,18.5-0.1S152.3,196,152.3,196.1z"/>
				</g>
				<g>
					<path class="st25" d="M140.8,199.4c0,0.1-5.7,0.1-12.7,0.1s-12.7,0-12.7-0.1s5.7-0.1,12.7-0.1
						C135.1,199.3,140.8,199.3,140.8,199.4z"/>
				</g>
			</g>
		</g>
		<g>
			<path class="st10" d="M122.4,205.5l-0.4-0.2c-0.2,0.1-0.4,0.2-0.5,0.2c-0.6,0-1.2-0.5-1.2-1.2c0-0.6,0.5-1.2,1.2-1.2
				c0.6,0,1.2,0.5,1.2,1.2c0,0.3-0.1,0.6-0.3,0.8L122.4,205.5z M121.5,203.3c-0.6,0-1.1,0.5-1.1,1.1s0.5,1.1,1.1,1.1
				c0.2,0,0.3-0.1,0.5-0.2l0,0l0.3,0.1l-0.1-0.3l0,0c0.2-0.2,0.3-0.5,0.3-0.7C122.6,203.8,122.1,203.3,121.5,203.3z"/>
		</g>
		<g>
			<path class="st10" d="M125.1,205.3l-0.5-1.2l-0.9-0.8h2.1L125.1,205.3z M123.9,203.4l0.8,0.7l0.4,1l0.7-1.6L123.9,203.4
				L123.9,203.4z"/>
		</g>
		<g>
			
				<rect x="124.5" y="203.7" transform="matrix(0.8382 -0.5454 0.5454 0.8382 -90.8749 101.2247)" class="st10" width="1.3" height="0.1"/>
		</g>
		<g>
			<path class="st27" d="M119.1,203.6c-0.1-0.3-0.4-0.6-0.7-0.5c-0.3,0-0.6,0.3-0.6,0.6c0-0.3-0.3-0.6-0.7-0.6
				c-0.3,0-0.6,0.2-0.7,0.6c0,0.2,0,0.5,0.2,0.7c0.1,0.2,0.3,0.4,0.5,0.5c0.2,0.2,0.5,0.4,0.7,0.6c0.2-0.2,0.4-0.4,0.7-0.6
				c0.2-0.2,0.3-0.3,0.5-0.5C119.1,204.1,119.1,203.8,119.1,203.6z"/>
		</g>
		<g>
			<g>
				<g>
					<g>
						
							<rect x="97.1" y="189.7" transform="matrix(5.680896e-03 -1 1 5.680896e-03 -94.9654 301.2532)" class="st28" width="13.8" height="17.3"/>
					</g>
				</g>
			</g>
			
				<rect x="98.1" y="190.3" transform="matrix(5.683492e-03 -1 1 5.683492e-03 -94.8159 301.4443)" class="st21" width="12.1" height="16.2"/>
			<polygon class="st29" points="95.9,204.3 101.6,196.8 105.1,201.6 107.5,199.1 112.1,204.4 			"/>
			<g>
				<g>
					<path class="st29" d="M106.6,196c0,0.7-0.6,1.2-1.2,1.2s-1.2-0.6-1.2-1.2c0-0.7,0.6-1.2,1.2-1.2
						C106,194.6,106.6,195.2,106.6,196z"/>
				</g>
			</g>
		</g>
	</g>
	<g>
		<g>
			<g>
				<g>
					<g>
						<path class="st10" d="M124.7,101.6c0,0-0.1,0-0.2,0c-0.2,0-0.3,0-0.6,0c-0.5,0-1.2,0-1.9,0c-1.6,0-3.9,0-6.4,0s-4.8,0-6.4,0
							c-0.8,0-1.4,0-1.9,0c-0.2,0-0.4,0-0.6,0c-0.1,0-0.2,0-0.2,0s0.1,0,0.2,0c0.2,0,0.3,0,0.6,0c0.5,0,1.2,0,1.9,0
							c1.6,0,3.9,0,6.4,0s4.8,0,6.4,0c0.8,0,1.4,0,1.9,0c0.2,0,0.4,0,0.6,0C124.6,101.6,124.7,101.6,124.7,101.6z"/>
					</g>
				</g>
			</g>
			<circle class="st30" cx="100" cy="101.6" r="2.8"/>
		</g>
		<g>
			<g>
				<path class="st25" d="M149.2,161.9c0,0.1-11.8,0.1-26.4,0.1s-26.4,0-26.4-0.1s11.8-0.1,26.4-0.1S149.2,161.9,149.2,161.9z"/>
			</g>
			<g>
				<path class="st25" d="M149.2,157.5c0,0.1-11.8,0.1-26.4,0.1s-26.4,0-26.4-0.1s11.8-0.1,26.4-0.1S149.2,157.5,149.2,157.5z"/>
			</g>
			<g>
				<path class="st25" d="M125.1,166.5c0,0.1-6.4,0.1-14.4,0.1s-14.4,0-14.4-0.1s6.4-0.1,14.4-0.1
					C118.6,166.4,125.1,166.4,125.1,166.5z"/>
			</g>
		</g>
	</g>
	<g>
		<g>
			<path class="st10" d="M121.5,214.4c0,0.7-0.5,1.2-1.2,1.2c-0.6,0-1.2-0.5-1.2-1.2s0.5-1.2,1.2-1.2
				C121,213.3,121.5,213.8,121.5,214.4z"/>
		</g>
		<g>
			<path class="st10" d="M125,214.4c0,0.7-0.5,1.2-1.2,1.2c-0.6,0-1.2-0.5-1.2-1.2s0.5-1.2,1.2-1.2C124.5,213.3,125,213.8,125,214.4
				z"/>
		</g>
		<g>
			<path class="st10" d="M128.5,214.4c0,0.7-0.5,1.2-1.2,1.2c-0.6,0-1.2-0.5-1.2-1.2s0.5-1.2,1.2-1.2
				C128,213.3,128.5,213.8,128.5,214.4z"/>
		</g>
	</g>
	<g>
		<rect x="93.2" y="107.1" class="st21" width="62.6" height="38.3"/>
		<polygon class="st29" points="98.9,145.4 116.9,121.4 128.1,136.5 135.6,128.4 150.4,145.4 		"/>
		<g>
			<g>
				<path class="st29" d="M132.8,118.5c0,2.2-1.8,4-4,4s-4-1.8-4-4s1.8-4,4-4C130.9,114.5,132.8,116.3,132.8,118.5z"/>
			</g>
		</g>
	</g>
</g>
<g>
	<g>
		<g>
			<g>
				<path class="st18" d="M136.2,191.7l1.2-4.1c0.2-0.9,0.5-1.9,0.9-3.2c0.4-1.1,1.2-2.2,2-3.1c1.2-1.2,1.8-1.2,2.7-1.9
					c0.1-0.1,0.2-0.1,0.2-0.2c0.2-0.1,0.3-0.2,0.4-0.4c0.8-0.8,0-2-1.4-1.9c-1.2,0.1-2.9,0.4-5.9,3.5l-0.1,0.1c-1.5,2-3-3.7-3.3-5.9
					c-0.2-1.3-1.6-2.2-3-1.7l-7.1,3.4c-0.6-0.2-1.2-0.2-2.1,0.1c-1.1,0.4-1.6,1.4-1.3,2.5l2.9,11.5l-8.6,28.4h18.4L136.2,191.7z"/>
			</g>
			<g>
				<g>
					<g>
						<g>
							<path class="st31" d="M150.4,165.6l-5.7,11.2l-2.9-0.8l-14.2,11.6c-1.2,1-3,0.9-4-0.4l-5.4-6.3c0,0,11-4.7,13-8.7
								c2-3.9-0.3-4.8-0.3-4.8l5.2-5.9L150.4,165.6z"/>
						</g>
					</g>
					<g>
						<path class="st31" d="M143.1,142.9c0,0-8.3-1.8-20-13.1s-17.2-26.2-18.7-26.1c-1.4,0.1-7.7-2.8-19.5,23
							c-11.9,25.9-7.2,31.8-4.8,31.8c2.4-0.1,18.5-4.5,28.5-3.4c10,1.2,22.9,6.3,22.9,6.3L143.1,142.9z"/>
					</g>
					<g>
						<path class="st27" d="M160.7,157.1l-2.8,5.4l-1.2,2.4c-1.7,3.3-5.8,4.7-9.1,3.1l-17.8-6.2l10.4-23.7l17.8,9.5
							C161.1,149.4,162.5,153.6,160.7,157.1z"/>
					</g>
					<g>
						<path class="st32" d="M160.7,157.1l-2.8,5.4l-1.2,2.4c-1.7,3.3-5.8,4.7-9.1,3.1l-17.8-6.2l10.4-23.7l17.8,9.5
							C161.1,149.4,162.5,153.6,160.7,157.1z"/>
					</g>
					<g>
						<path class="st27" d="M85.9,127.3c-6.3,14-8.9,26.4-5.9,27.9c3.1,1.3,10.7-8.8,17-22.8s8.9-26.4,5.9-27.9
							C99.8,103,92.1,113.3,85.9,127.3z"/>
					</g>
					<g>
						<path class="st33" d="M85.9,127.3c-6.3,14-8.9,26.4-5.9,27.9c3.1,1.3,10.7-8.8,17-22.8s8.9-26.4,5.9-27.9
							C99.8,103,92.1,113.3,85.9,127.3z"/>
					</g>
				</g>
				<g>
					<polygon class="st31" points="162.2,164.9 157.4,163.3 160.4,157.7 163.9,159.9 					"/>
				</g>
				<g class="st22">
					<polygon points="160.4,157.7 157.4,163.3 158.4,163.6 160.8,157.9 					"/>
				</g>
				<g>
					<path class="st31" d="M157,158.9c-0.1,0.2-2.5-0.8-5.4-2.1s-5.2-2.5-5.1-2.7c0.1-0.2,2.5,0.8,5.4,2.1
						C154.8,157.7,157.1,158.8,157,158.9z"/>
				</g>
				<g>
					<path class="st31" d="M158.5,155.5c-0.1,0.2-2.2-0.8-4.9-2c-2.6-1.2-4.7-2.5-4.6-2.6c0.1-0.2,2.2,0.8,4.9,2
						C156.5,154.3,158.5,155.4,158.5,155.5z"/>
				</g>
				<g>
					<path class="st31" d="M155.2,162.5c0,0.1-0.6-0.1-1.5-0.3c-0.5-0.1-1-0.3-1.6-0.5s-1.2-0.5-1.8-0.9c-2.6-1.2-4.6-2.4-4.6-2.6
						c0.1-0.2,2.2,0.8,4.8,2c0.7,0.3,1.2,0.6,1.8,0.9c0.6,0.2,1.1,0.5,1.5,0.7C154.7,162.2,155.2,162.5,155.2,162.5z"/>
				</g>
				<g>
					<path class="st31" d="M98.7,124.2c0,0-7.2-4.5-11.2,5.3c-3.9,9.7,3.7,11.3,3.7,11.3C94.3,136,96.8,130.4,98.7,124.2z"/>
				</g>
				<g class="st34">
					<path d="M106.4,112.6c0,0-0.1,0.7-0.3,1.8c-0.2,1.2-0.6,2.9-1.1,5c-0.3,1.1-0.7,2.2-1,3.4c-0.2,0.6-0.4,1.2-0.6,1.9
						c-0.1,0.3-0.2,0.7-0.3,1s-0.3,0.7-0.4,1c-0.5,1.3-1.1,2.8-1.6,4.2c-0.1,0.4-0.3,0.8-0.4,1.1c-0.1,0.4-0.4,0.8-0.5,1.1
						c-0.4,0.8-0.7,1.4-1.1,2.2s-0.8,1.4-1.1,2.2c-0.2,0.4-0.4,0.8-0.6,1.1c-0.2,0.4-0.4,0.7-0.6,1.1c-0.8,1.3-1.5,2.7-2.3,3.8
						c-0.2,0.3-0.4,0.6-0.6,0.9c-0.2,0.3-0.4,0.6-0.6,0.9c-0.4,0.6-0.8,1.1-1.2,1.6c-0.8,1.1-1.4,2-2.1,2.9c-1.3,1.6-2.5,3-3.4,3.9
						c-0.8,0.9-1.2,1.4-1.2,1.3c0,0,0.4-0.6,1.1-1.5c0.8-1,1.8-2.3,3.2-4c0.6-0.9,1.2-1.8,2-2.9c0.4-0.5,0.8-1.1,1.2-1.6
						c0.2-0.3,0.4-0.6,0.6-0.9s0.4-0.6,0.6-0.9c0.7-1.2,1.4-2.5,2.2-3.8c0.2-0.3,0.4-0.7,0.6-1.1c0.2-0.4,0.4-0.7,0.6-1.1
						c0.4-0.8,0.7-1.4,1.1-2.2s0.7-1.4,1.1-2.2c0.2-0.4,0.4-0.7,0.5-1.1c0.2-0.4,0.3-0.8,0.4-1.1c0.6-1.4,1.2-2.9,1.6-4.1
						c0.1-0.3,0.3-0.7,0.4-1s0.2-0.7,0.3-1c0.2-0.7,0.4-1.2,0.6-1.9c0.4-1.2,0.8-2.3,1.1-3.4c0.5-2.1,0.9-3.7,1.2-5
						C106.1,113.2,106.3,112.6,106.4,112.6z"/>
				</g>
			</g>
			<g class="st35">
				<path d="M119.9,180.2c0.7,1.2,1.3,2.4,2.3,3.4s2.3,1.6,3.7,1.5c1.3-0.1,2.7-1.2,2.7-2.6c0.7,0.5,1.6,0.2,2.2-0.4
					c0.6-0.6,0.7-1.4,0.8-2.3c0.9,0.5,2.1,0.1,2.7-0.8c0.6-0.9,0.7-2,0.4-3s-0.9-1.8-1.4-2.7c0.7,0.1,1.4,0.1,2-0.2s1.1-1.2,0.7-1.7
					c-0.2-0.4-0.6-0.5-1-0.7c-1.1-0.3-1.8-0.6-2.9-0.5c-0.3,0,0.5,2.9-6.5,6.9C121.2,179.6,119.9,180.2,119.9,180.2z"/>
			</g>
		</g>
		<g>
			<path class="st17" d="M135.6,184.4c0,0-0.5-0.1-1.2,0c-0.8,0-1.8,0.2-2.8,0.7c-1.1,0.5-1.8,1.2-2.3,1.8s-0.7,1-0.8,1
				c0,0,0-0.1,0.1-0.3s0.3-0.5,0.5-0.8c0.5-0.6,1.2-1.3,2.3-1.8s2.1-0.7,2.9-0.7c0.4,0,0.7,0,0.9,0.1
				C135.5,184.4,135.6,184.4,135.6,184.4z"/>
		</g>
		<path class="st18" d="M120.4,178.3c1.2,1.1,1.9,2.3,3.1,3.4c0.6,0.5,1.3,1.4,2.1,1.5c0.7,0.1,1.2,0,1.4-0.7
			c0.2-0.6-0.2-1.2-0.5-1.7c-0.8-1.2-1.4-2.1-2-3c-0.3-0.4,0.1-0.5,0.2-0.3c0.6,0.6,1.3,1.1,1.8,1.6c0.7,0.9,0.8,1.9,2.5,1.6
			c0.2,0,0.5-0.1,0.7-0.3c0.7-0.5,0.7-1.3,0.4-2c-0.2-0.6-0.6-1-1-1.4c0.8,0.9,1.5,1.7,2.7,1.8c0.7,0.1,1.3-0.3,1.6-0.9
			c0.4-0.8-0.2-1.5-0.7-2.2c-0.9-1.1-1.9-2.1-3-3c-0.4-0.4-0.9-0.5-1.4-0.6c-0.6,0-1.3,0.1-1.7,0.7c-0.7,1-0.5,1.8-0.5,1.8
			s-1.5-0.8-2.8,0c-1.2,0.8-1.5,2.2-1.5,2.2L120.4,178.3z"/>
		<path class="st18" d="M128.5,171.8c-0.5-0.5-0.6-1.3-0.2-2c0.3-0.5,0.6-1,1-1.2c1.4-0.5,7.8,0.6,7.7,2s-0.5,2.1-3.9,1.5
			c-0.6-0.1-1.5-0.2-1.5-0.2l-0.9,1.2L128.5,171.8z"/>
	</g>
	<g>
		<path class="st17" d="M129.6,177.7c-0.1,0-0.6-1-1.5-1.8c-0.9-0.8-2-1.2-2-1.3c0,0,0.3,0.1,0.7,0.2c0.4,0.2,1,0.5,1.4,1
			c0.5,0.5,0.9,1,1.1,1.3C129.5,177.5,129.6,177.7,129.6,177.7z"/>
	</g>
	<g>
		<path class="st17" d="M130.7,173.4c0,0-0.5-0.3-1.1-0.7c-0.3-0.2-0.6-0.3-0.8-0.4c-0.2-0.1-0.3-0.1-0.3-0.2c0,0,0.2,0,0.4,0
			c0.2,0.1,0.5,0.2,0.8,0.4C130.3,172.9,130.7,173.3,130.7,173.4z"/>
	</g>
	<g>
		<path class="st17" d="M131.7,172.1c0,0-0.6,0.1-1.2-0.1c-0.3-0.1-0.6-0.3-0.8-0.4c-0.2-0.2-0.3-0.3-0.2-0.3c0,0,0.4,0.4,1.1,0.5
			C131.1,172,131.7,172.1,131.7,172.1z"/>
	</g>
	<g>
		<path class="st17" d="M125.6,179.5c0,0-0.3-0.3-0.6-0.8c-0.4-0.5-0.8-1.2-1.4-1.6c-0.7-0.5-1.5-0.7-2.1-0.6
			c-0.6,0.1-0.9,0.3-0.9,0.3s0.1-0.1,0.2-0.2c0.1-0.1,0.4-0.2,0.7-0.3c0.6-0.1,1.4,0,2.2,0.6s1.2,1.2,1.4,1.7
			C125.4,179.1,125.6,179.5,125.6,179.5z"/>
	</g>
	<g>
		<path class="st17" d="M130.4,193.4c0,0.1-1.2,0.2-2.6,0.4c-1.4,0.2-2.6,0.3-2.6,0.2s1.2-0.2,2.6-0.4
			C129.2,193.5,130.4,193.4,130.4,193.4z"/>
	</g>
</g>
<g>
	<g>
		<g>
			<g>
				<g>
					<g>
						<g>
							<g>
								<g>
									<path class="st5" d="M37,204l-1.2,0.3l-3.7-2.9l-0.7-2.4c0,0-1.8,0.4-0.8,3.5c1.1,3.1,0.7,2.3,0.7,2.3s-3.9,1.1-4.1,1.5
										c-0.2,0.3,0.8,4.2,1.3,6.3c0.3,1.1,1.2,1.8,2.2,1.8c0.2,0,0.3,0,0.5-0.1c1-0.3,5.8-2.4,5.8-2.4l2-0.6L37,204z"/>
								</g>
							</g>
						</g>
					</g>
				</g>
			</g>
			<g>
				<g>
					<g>
						<g>
							<g>
								<g>
									<polygon class="st5" points="40.3,202.4 41.7,210.7 39.7,211.3 37.5,203.3 									"/>
								</g>
							</g>
						</g>
					</g>
				</g>
			</g>
		</g>
	</g>
	<g id="XMLID_51_">
		<g id="XMLID_60_">
			<g>
				<path class="st36" d="M67.6,127.7L67.6,127.7c-8.7,0-15.7-7-15.7-15.7l0,0c0-8.7,7-15.7,15.7-15.7l0,0c8.7,0,15.7,7,15.7,15.7
					l0,0C83.3,120.7,76.2,127.7,67.6,127.7z"/>
			</g>
		</g>
		<g id="XMLID_52_">
			<g>
				<path class="st23" d="M67.6,102.1c-5.5,0-10,4.5-10,10s4.5,10,10,10s10-4.5,10-10S73.2,102.1,67.6,102.1z M67.6,103.8
					c1.9,0,3.7,0.7,5,1.7c-1,1.2-2.4,2.3-4.1,3.1c-0.9-1.5-1.8-3.1-2.9-4.5C66.2,103.9,66.9,103.8,67.6,103.8z M63.8,104.7
					c1.2,1.4,2.1,3,3,4.5c-2,0.6-4.4,0.9-7.2,1C60.2,107.7,61.7,105.8,63.8,104.7z M59.3,112.1c0-0.1,0-0.1,0-0.2
					c3.2,0,6-0.4,8.3-1.1c0.2,0.4,0.4,0.8,0.6,1.2c-2.8,0.9-5.1,2.7-6.9,5.4C60.1,115.9,59.3,114.1,59.3,112.1z M67.6,120.3
					c-1.9,0-3.7-0.7-5.1-1.7c1.6-2.6,3.7-4.2,6.3-5c0.8,2,1.3,4.1,1.7,6.2C69.6,120.1,68.6,120.3,67.6,120.3z M72.2,118.9
					c-0.4-1.9-0.9-3.8-1.6-5.8c1.5-0.2,3.3-0.2,5.2,0.2C75.4,115.7,74,117.6,72.2,118.9z M69.9,111.6c-0.2-0.5-0.4-1-0.7-1.4
					c1.9-0.9,3.5-1.9,4.6-3.4c1.2,1.3,1.8,3,1.9,4.9C73.6,111.3,71.7,111.2,69.9,111.6z"/>
			</g>
		</g>
	</g>
	<g>
		<g>
			<g>
				<g>
					<g>
						<g>
							<g>
								<g>
									<path class="st5" d="M56.5,146.4l-1.2-0.2l-2-4l0.4-2.4c0,0-1.8-0.4-2.1,2.7c-0.3,3.2-0.4,2.3-0.4,2.3s-3.8-0.6-4.2-0.3
										c-0.3,0.2-1.1,4-1.3,6.2c-0.2,1.1,0.3,2.1,1.2,2.5c0.1,0.1,0.3,0.1,0.4,0.1c1,0.2,6.1,0.2,6.1,0.2l1.9,0.4L56.5,146.4z"/>
								</g>
							</g>
						</g>
					</g>
				</g>
			</g>
			<g>
				<g>
					<g>
						<g>
							<g>
								<g>
									<polygon class="st5" points="60,146.3 58,154.3 56,153.9 57.2,146 									"/>
								</g>
							</g>
						</g>
					</g>
				</g>
			</g>
		</g>
	</g>
	<g id="XMLID_37_">
		<g id="XMLID_43_">
			<g>
				<path class="st37" d="M69.6,220.6L69.6,220.6c-7.4,0-13.4-6-13.4-13.4l0,0c0-7.4,6-13.4,13.4-13.4l0,0c7.4,0,13.4,6,13.4,13.4
					l0,0C83,214.5,77,220.6,69.6,220.6z"/>
			</g>
		</g>
		<g id="XMLID_38_">
			<g id="XMLID_40_">
				<g>
					<path class="st23" d="M77,206.8c-0.1-3.8-3.3-6.9-7.2-6.9c-3.8,0-7,3.1-7.2,6.8c0,0.1,0,0.2,0,0.3c0,1.3,0.4,2.6,1.1,3.7
						l-1.2,3.8l3.9-1.2c1.1,0.6,2.2,0.9,3.5,0.9c3.9,0,7.2-3.2,7.2-7.1C77,206.9,77,206.8,77,206.8z M69.8,213c-1.2,0-2.4-0.4-3.4-1
						l-2.3,0.8l0.8-2.3c-0.8-1-1.2-2.2-1.2-3.6c0-0.2,0-0.4,0-0.6c0.3-3.1,2.9-5.4,6.1-5.4c3.2,0,5.8,2.4,6.1,5.6c0,0.2,0,0.3,0,0.5
						C75.9,210.3,73.1,213,69.8,213z"/>
				</g>
			</g>
			<g id="XMLID_39_">
				<g>
					<path class="st23" d="M73.1,208.5c-0.2-0.1-1.1-0.5-1.2-0.6c-0.2-0.1-0.3-0.1-0.4,0.1c-0.1,0.2-0.5,0.6-0.6,0.7
						c-0.1,0.1-0.2,0.1-0.4,0c-0.2-0.1-0.8-0.3-1.4-0.9c-0.5-0.5-0.9-1.1-1-1.2c-0.1-0.2,0-0.3,0.1-0.4c0.1-0.1,0.2-0.2,0.3-0.3
						c0,0,0-0.1,0.1-0.1c0-0.1,0.1-0.1,0.1-0.2c0.1-0.1,0-0.2,0-0.3s-0.4-1-0.6-1.3s-0.3-0.3-0.4-0.3s-0.2,0-0.4,0
						c-0.1,0-0.3,0-0.5,0.2s-0.6,0.6-0.6,1.4c0,0.2,0,0.4,0.1,0.6c0.2,0.6,0.6,1.2,0.7,1.2c0.1,0.1,1.2,1.9,3,2.7
						c1.8,0.7,1.8,0.5,2.1,0.5s1.1-0.4,1.2-0.9c0.2-0.4,0.2-0.8,0.1-0.9C73.4,208.6,73.3,208.6,73.1,208.5z"/>
				</g>
			</g>
		</g>
	</g>
	<g id="XMLID_11_">
		<g id="XMLID_13_">
			<g>
				<path class="st38" d="M33.2,134.8L33.2,134.8c-5.7,0-10.3-4.6-10.3-10.3l0,0c0-5.7,4.6-10.3,10.3-10.3l0,0
					c5.7,0,10.3,4.6,10.3,10.3l0,0C43.5,130.2,38.8,134.8,33.2,134.8z"/>
			</g>
		</g>
		<g id="XMLID_12_">
			<g>
				<path class="st23" d="M29.9,125.5c0.2,0.1,0.3,0,0.4-0.2c0-0.1,0.1-0.5,0.1-0.6c0-0.2,0-0.2-0.1-0.4c-0.3-0.3-0.5-0.8-0.5-1.3
					c0-1.7,1.3-3.4,3.5-3.4c1.9,0,2.9,1.2,2.9,2.7c0,2-0.9,3.7-2.2,3.7c-0.8,0-1.2-0.6-1.2-1.3c0.2-0.9,0.6-1.8,0.6-2.5
					c0-0.6-0.3-1.1-1-1.1c-0.8,0-1.3,0.8-1.3,1.8c0,0.7,0.2,1.2,0.2,1.2s-0.8,3.3-0.9,3.8c-0.3,1.2,0,2.5,0,2.7c0,0.1,0.1,0.1,0.2,0
					s1-1.2,1.2-2.3c0.1-0.3,0.5-1.9,0.5-1.9c0.3,0.5,1,0.9,1.7,0.9c2.2,0,3.7-2,3.7-4.8c0-2.1-1.7-4-4.4-4c-3.4,0-5,2.4-5,4.4
					C28.5,124.1,28.8,125.1,29.9,125.5z"/>
			</g>
		</g>
	</g>
	<g id="XMLID_14_">
		<g id="XMLID_36_">
			<g>
				<path class="st39" d="M20.8,184.1L20.8,184.1c-7.8,0-14.1-6.3-14.1-14.1l0,0c0-7.8,6.3-14.1,14.1-14.1l0,0
					c7.8,0,14.1,6.3,14.1,14.1l0,0C34.9,177.7,28.6,184.1,20.8,184.1z"/>
			</g>
		</g>
		<g id="XMLID_16_">
			<g id="XMLID_1_">
				<g>
					<path class="st23" d="M20.8,163.6c2,0,2.3,0,3.1,0s1.2,0.2,1.4,0.3c0.4,0.1,0.6,0.3,0.9,0.6s0.5,0.5,0.6,0.9
						c0.1,0.3,0.2,0.7,0.3,1.4c0,0.8,0,1.1,0,3.1s0,2.3,0,3.1s-0.2,1.2-0.3,1.4c-0.1,0.4-0.3,0.6-0.6,0.9c-0.3,0.3-0.5,0.5-0.9,0.6
						c-0.3,0.1-0.7,0.2-1.4,0.3c-0.8,0-1.1,0-3.1,0s-2.3,0-3.1,0s-1.2-0.2-1.4-0.3c-0.4-0.1-0.6-0.3-0.9-0.6
						c-0.3-0.3-0.5-0.5-0.6-0.9c-0.1-0.3-0.2-0.7-0.3-1.4c0-0.8,0-1.1,0-3.1s0-2.3,0-3.1s0.2-1.2,0.3-1.4c0.1-0.4,0.3-0.6,0.6-0.9
						s0.5-0.5,0.9-0.6c0.3-0.1,0.7-0.2,1.4-0.3C18.5,163.7,18.7,163.6,20.8,163.6 M20.8,162.2c-2.1,0-2.4,0-3.2,0
						c-0.9,0-1.3,0.2-1.9,0.4c-0.5,0.2-1,0.5-1.3,0.9c-0.4,0.4-0.7,0.9-0.9,1.3c-0.2,0.5-0.3,1.1-0.4,1.9c0,0.9,0,1.1,0,3.2
						c0,2.1,0,2.4,0,3.2c0,0.9,0.2,1.3,0.4,1.9c0.2,0.5,0.5,1,0.9,1.3c0.4,0.4,0.9,0.7,1.3,0.9c0.5,0.2,1.1,0.3,1.9,0.4
						c0.9,0,1.1,0,3.2,0s2.4,0,3.2,0c0.9,0,1.3-0.2,1.9-0.4c0.5-0.2,1-0.5,1.3-0.9c0.4-0.4,0.7-0.9,0.9-1.3c0.2-0.5,0.3-1.1,0.4-1.9
						c0-0.9,0-1.1,0-3.2c0-2.1,0-2.4,0-3.2c0-0.9-0.2-1.3-0.4-1.9c-0.2-0.5-0.5-1-0.9-1.3c-0.4-0.4-0.9-0.7-1.3-0.9
						c-0.5-0.2-1.1-0.3-1.9-0.4C23.2,162.2,22.9,162.2,20.8,162.2"/>
				</g>
			</g>
			<g id="XMLID_18_">
				<g>
					<path class="st23" d="M20.8,166c-2.2,0-3.9,1.7-3.9,3.9s1.7,3.9,3.9,3.9s3.9-1.7,3.9-3.9C24.8,167.8,23,166,20.8,166
						 M20.8,172.5c-1.4,0-2.6-1.2-2.6-2.6s1.2-2.6,2.6-2.6s2.6,1.2,2.6,2.6C23.4,171.4,22.2,172.5,20.8,172.5"/>
				</g>
			</g>
			<g id="XMLID_17_">
				<g>
					<path class="st23" d="M25.9,165.8c0,0.5-0.4,1-1,1c-0.5,0-1-0.4-1-1c0-0.5,0.4-1,1-1C25.4,164.9,25.9,165.3,25.9,165.8"/>
				</g>
			</g>
		</g>
	</g>
	<g id="XMLID_1419_">
		<g id="XMLID_1421_">
			<g>
				<path class="st40" d="M55.2,93.7L55.2,93.7c-4.7,0-8.5-3.8-8.5-8.5l0,0c0-4.7,3.8-8.5,8.5-8.5l0,0c4.7,0,8.5,3.8,8.5,8.5l0,0
					C63.6,89.8,59.8,93.7,55.2,93.7z"/>
			</g>
		</g>
		<g id="XMLID_1420_">
			<g>
				<path class="st23" d="M53.8,90.3H56v-5.2h1.4l0.2-1.7H56c0,0,0-0.7,0-1c0-0.4,0.1-0.6,0.5-0.6c0.3,0,1.2,0,1.2,0V80
					c0,0-1.2,0-1.4,0c-1.5,0-2.2,0.7-2.2,2c0,1.2,0,1.3,0,1.3H53V85h1.1L53.8,90.3L53.8,90.3z"/>
			</g>
		</g>
	</g>
	<g>
		<g>
			<g>
				<g>
					<g>
						<g>
							<g>
								<g>
									
										<rect x="48.3" y="162.3" transform="matrix(0.9961 -8.875588e-02 8.875588e-02 0.9961 -15.2296 6.4135)" class="st30" width="32.4" height="24.3"/>
								</g>
							</g>
						</g>
					</g>
				</g>
			</g>
		</g>
		<g>
			<g>
				<g>
					<g>
						<g>
							<g>
								<g>
									<polygon class="st21" points="49.4,188.1 59.3,171.9 67.2,180.8 71.4,175.3 81.7,185.2 									"/>
								</g>
							</g>
						</g>
					</g>
				</g>
			</g>
		</g>
		<g>
			<g>
				<g>
					<g>
						<g>
							<g>
								<g>
									<g>
										<g>
											<path class="st21" d="M69.1,169.3c0.1,1.4-0.9,2.6-2.3,2.8c-1.4,0.1-2.6-0.9-2.8-2.3c-0.1-1.4,0.9-2.6,2.3-2.8
												C67.8,166.9,69,167.8,69.1,169.3z"/>
										</g>
									</g>
								</g>
							</g>
						</g>
					</g>
				</g>
			</g>
		</g>
	</g>
</g>
<g>
	<g>
		<g>
			<g>
				<g>
					<g>
						<g>
							<g>
								<g>
									<path class="st5" d="M37.2,202.3l-1.2,0.3l-3.6-2.9l-0.7-2.3c0,0-1.8,0.4-0.8,3.4c1.1,3,0.6,2.3,0.6,2.3s-3.8,1.1-4,1.5
										c-0.2,0.3,0.8,4.1,1.3,6.2c0.3,1.1,1.2,1.8,2.2,1.8c0.2,0,0.3,0,0.4-0.1c1-0.3,5.6-2.4,5.6-2.4l2-0.6L37.2,202.3z"/>
								</g>
							</g>
						</g>
					</g>
				</g>
			</g>
			<g>
				<g>
					<g>
						<g>
							<g>
								<g>
									<polygon class="st5" points="40.4,200.8 41.8,209 39.9,209.5 37.7,201.8 									"/>
								</g>
							</g>
						</g>
					</g>
				</g>
			</g>
		</g>
	</g>
	<g id="XMLID_44_">
		<g id="XMLID_63_">
			<g>
				<path class="st36" d="M67.1,127.7L67.1,127.7c-8.5,0-15.4-6.8-15.4-15.4l0,0c0-8.5,6.8-15.4,15.4-15.4l0,0
					c8.5,0,15.4,6.8,15.4,15.4l0,0C82.5,120.8,75.7,127.7,67.1,127.7z"/>
			</g>
		</g>
		<g id="XMLID_45_">
			<g>
				<path class="st23" d="M67.1,102.6c-5.4,0-9.8,4.4-9.8,9.8s4.4,9.8,9.8,9.8s9.8-4.4,9.8-9.8S72.6,102.6,67.1,102.6z M67.1,104.3
					c1.8,0,3.6,0.7,4.9,1.7c-1,1.2-2.3,2.3-4,3c-0.9-1.5-1.7-3-2.9-4.4C65.8,104.4,66.4,104.3,67.1,104.3z M63.5,105.1
					c1.1,1.4,2,2.9,2.9,4.4c-2,0.6-4.3,0.9-7.1,0.9C59.9,108.1,61.4,106.2,63.5,105.1z M59,112.3c0-0.1,0-0.1,0-0.2
					c3.2,0,5.9-0.4,8.1-1.1c0.2,0.4,0.4,0.8,0.6,1.2c-2.8,0.9-5,2.6-6.8,5.3C59.8,116.1,59,114.4,59,112.3z M67.1,120.4
					c-1.8,0-3.6-0.7-5-1.7c1.6-2.5,3.7-4.1,6.2-4.9c0.8,2,1.3,4,1.6,6.1C69.1,120.2,68.2,120.4,67.1,120.4z M71.6,119.1
					c-0.4-1.9-0.9-3.7-1.5-5.6c1.5-0.2,3.2-0.2,5.1,0.2C74.8,115.9,73.5,117.8,71.6,119.1z M69.4,111.9c-0.2-0.5-0.4-1-0.7-1.3
					c1.9-0.8,3.4-1.9,4.5-3.4c1.1,1.3,1.8,3,1.9,4.7C73.1,111.6,71.1,111.6,69.4,111.9z"/>
			</g>
		</g>
	</g>
	<g>
		<g>
			<g>
				<g>
					<g>
						<g>
							<g>
								<g>
									<path class="st5" d="M56.3,145.9l-1.2-0.2l-1.9-3.9l0.4-2.3c0,0-1.7-0.4-2,2.7c-0.3,3.1-0.4,2.2-0.4,2.2s-3.8-0.6-4.1-0.3
										c-0.3,0.2-1,3.9-1.3,6c-0.2,1.1,0.3,2.1,1.2,2.5c0.1,0.1,0.3,0.1,0.4,0.1c1,0.2,6,0.2,6,0.2l2,0.3L56.3,145.9z"/>
								</g>
							</g>
						</g>
					</g>
				</g>
			</g>
			<g>
				<g>
					<g>
						<g>
							<g>
								<g>
									<polygon class="st5" points="59.7,145.8 57.7,153.7 55.8,153.3 57,145.6 									"/>
								</g>
							</g>
						</g>
					</g>
				</g>
			</g>
		</g>
	</g>
	<g id="XMLID_27_">
		<g id="XMLID_33_">
			<g>
				<path class="st37" d="M69.1,218.6L69.1,218.6c-7.2,0-13.1-5.9-13.1-13.1l0,0c0-7.2,5.9-13.1,13.1-13.1l0,0
					c7.2,0,13.1,5.9,13.1,13.1l0,0C82.2,212.7,76.3,218.6,69.1,218.6z"/>
			</g>
		</g>
		<g id="XMLID_28_">
			<g id="XMLID_30_">
				<g>
					<path class="st23" d="M76.3,205.1c-0.1-3.7-3.2-6.8-7-6.8c-3.7,0-6.9,3-7,6.7c0,0.1,0,0.2,0,0.3c0,1.3,0.4,2.6,1,3.7l-1.2,3.7
						l3.8-1.2c1.1,0.6,2.2,0.9,3.4,0.9c3.8,0,7-3.2,7-7C76.3,205.2,76.3,205.2,76.3,205.1z M69.3,211.2c-1.2,0-2.3-0.4-3.3-1
						l-2.3,0.8l0.8-2.2c-0.7-1-1.2-2.1-1.2-3.5c0-0.2,0-0.4,0-0.6c0.3-3,2.8-5.3,5.9-5.3s5.7,2.4,5.9,5.4c0,0.2,0,0.3,0,0.5
						C75.2,208.6,72.6,211.2,69.3,211.2z"/>
				</g>
			</g>
			<g id="XMLID_29_">
				<g>
					<path class="st23" d="M72.5,206.8c-0.2-0.1-1.1-0.5-1.2-0.6c-0.2-0.1-0.3-0.1-0.4,0.1c-0.1,0.2-0.5,0.6-0.6,0.7
						c-0.1,0.1-0.2,0.1-0.4,0c-0.2-0.1-0.8-0.3-1.3-0.9c-0.5-0.5-0.9-1.1-1-1.2c-0.1-0.2,0-0.3,0.1-0.4c0.1-0.1,0.2-0.2,0.3-0.3
						c0,0,0-0.1,0.1-0.1c0-0.1,0.1-0.1,0.1-0.2c0.1-0.1,0-0.2,0-0.3s-0.4-1-0.6-1.2c-0.1-0.4-0.3-0.3-0.4-0.3s-0.2,0-0.3,0
						c-0.1,0-0.3,0-0.5,0.2s-0.6,0.6-0.6,1.4c0,0.2,0,0.4,0.1,0.6c0.2,0.6,0.6,1.1,0.6,1.2c0.1,0.1,1.2,1.9,3,2.6
						c1.7,0.7,1.7,0.5,2.1,0.4c0.3,0,1.1-0.4,1.2-0.8c0.2-0.4,0.2-0.8,0.1-0.8C72.8,206.8,72.7,206.8,72.5,206.8z"/>
				</g>
			</g>
		</g>
	</g>
	<g id="XMLID_24_">
		<g id="XMLID_26_">
			<g>
				<path class="st38" d="M33.5,134.7L33.5,134.7c-5.6,0-10.1-4.5-10.1-10.1l0,0c0-5.6,4.5-10.1,10.1-10.1l0,0
					c5.6,0,10.1,4.5,10.1,10.1l0,0C43.6,130.2,39,134.7,33.5,134.7z"/>
			</g>
		</g>
		<g id="XMLID_25_">
			<g>
				<path class="st23" d="M30.2,125.5c0.2,0.1,0.3,0,0.4-0.2c0-0.1,0.1-0.4,0.1-0.6s0-0.2-0.1-0.4c-0.3-0.3-0.5-0.8-0.5-1.3
					c0-1.7,1.3-3.3,3.4-3.3c1.8,0,2.9,1.2,2.9,2.6c0,2-0.9,3.7-2.2,3.7c-0.7,0-1.2-0.6-1.1-1.3c0.2-0.9,0.6-1.8,0.6-2.4
					s-0.3-1.1-1-1.1c-0.8,0-1.3,0.8-1.3,1.8c0,0.7,0.2,1.1,0.2,1.1s-0.8,3.2-0.9,3.7c-0.3,1.2,0,2.5,0,2.6s0.1,0.1,0.2,0
					s1-1.2,1.2-2.2c0.1-0.3,0.5-1.9,0.5-1.9c0.2,0.5,1,0.9,1.6,0.9c2.2,0,3.7-2,3.7-4.7c0-2-1.7-3.9-4.3-3.9c-3.3,0-4.9,2.3-4.9,4.3
					C28.8,124.1,29.2,125.1,30.2,125.5z"/>
			</g>
		</g>
	</g>
	<g id="XMLID_5_">
		<g id="XMLID_23_">
			<g>
				<path class="st39" d="M21.3,182.9L21.3,182.9c-7.6,0-13.8-6.2-13.8-13.8l0,0c0-7.6,6.2-13.8,13.8-13.8l0,0
					c7.6,0,13.8,6.2,13.8,13.8l0,0C35.1,176.7,28.9,182.9,21.3,182.9z"/>
			</g>
		</g>
		<g id="XMLID_6_">
			<g id="XMLID_15_">
				<g>
					<path class="st23" d="M21.3,162.8c2,0,2.3,0,3.1,0s1.2,0.2,1.4,0.3c0.4,0.1,0.6,0.3,0.9,0.6s0.4,0.5,0.6,0.9
						c0.1,0.3,0.2,0.7,0.3,1.4c0,0.8,0,1.1,0,3.1s0,2.3,0,3.1s-0.2,1.2-0.3,1.4c-0.1,0.4-0.3,0.6-0.6,0.9c-0.3,0.3-0.5,0.4-0.9,0.6
						c-0.3,0.1-0.7,0.2-1.4,0.3c-0.8,0-1.1,0-3.1,0s-2.3,0-3.1,0s-1.2-0.2-1.4-0.3c-0.4-0.1-0.6-0.3-0.9-0.6
						c-0.3-0.3-0.4-0.5-0.6-0.9c-0.1-0.3-0.2-0.7-0.3-1.4c0-0.8,0-1.1,0-3.1s0-2.3,0-3.1s0.2-1.2,0.3-1.4c0.1-0.4,0.3-0.6,0.6-0.9
						c0.3-0.3,0.5-0.4,0.9-0.6c0.3-0.1,0.7-0.2,1.4-0.3C19,162.8,19.3,162.8,21.3,162.8 M21.3,161.5c-2,0-2.3,0-3.1,0
						s-1.3,0.2-1.8,0.4s-1,0.5-1.3,0.9c-0.4,0.4-0.7,0.9-0.9,1.3c-0.2,0.5-0.3,1.1-0.4,1.8c0,0.8,0,1.1,0,3.1s0,2.3,0,3.1
						s0.2,1.3,0.4,1.8s0.5,1,0.9,1.3c0.4,0.4,0.9,0.7,1.3,0.9c0.5,0.2,1.1,0.3,1.8,0.4c0.8,0,1.1,0,3.1,0s2.3,0,3.1,0
						s1.3-0.2,1.8-0.4s1-0.5,1.3-0.9s0.7-0.9,0.9-1.3c0.2-0.5,0.3-1.1,0.4-1.8c0-0.8,0-1.1,0-3.1s0-2.3,0-3.1s-0.2-1.3-0.4-1.8
						c-0.2-0.5-0.5-1-0.9-1.3c-0.4-0.4-0.9-0.7-1.3-0.9c-0.5-0.2-1.1-0.3-1.8-0.4C23.7,161.5,23.4,161.5,21.3,161.5"/>
				</g>
			</g>
			<g id="XMLID_8_">
				<g>
					<path class="st23" d="M21.3,165.2c-2.1,0-3.8,1.7-3.8,3.8s1.7,3.8,3.8,3.8s3.8-1.7,3.8-3.8C25.2,166.9,23.5,165.2,21.3,165.2
						 M21.3,171.6c-1.3,0-2.5-1.2-2.5-2.5s1.2-2.5,2.5-2.5s2.5,1.2,2.5,2.5C23.8,170.4,22.7,171.6,21.3,171.6"/>
				</g>
			</g>
			<g id="XMLID_7_">
				<g>
					<path class="st23" d="M26.2,165c0,0.5-0.4,0.9-0.9,0.9s-0.9-0.4-0.9-0.9s0.4-0.9,0.9-0.9C25.9,164.1,26.2,164.5,26.2,165"/>
				</g>
			</g>
		</g>
	</g>
	<g id="XMLID_2_">
		<g id="XMLID_4_">
			<g>
				<path class="st40" d="M55,94.4L55,94.4c-4.6,0-8.3-3.7-8.3-8.3l0,0c0-4.6,3.7-8.3,8.3-8.3l0,0c4.6,0,8.3,3.7,8.3,8.3l0,0
					C63.3,90.7,59.5,94.4,55,94.4z"/>
			</g>
		</g>
		<g id="XMLID_3_">
			<g>
				<path class="st23" d="M53.7,91.1h2V86h1.4l0.2-1.7h-1.5c0,0,0-0.7,0-1c0-0.4,0.1-0.6,0.5-0.6c0.3,0,1.1,0,1.1,0V81
					c0,0-1.2,0-1.4,0c-1.5,0-2.2,0.7-2.2,1.9c0,1.2,0,1.3,0,1.3h-1.1V86h1.1L53.7,91.1L53.7,91.1z"/>
			</g>
		</g>
	</g>
	<g>
		<g>
			<g>
				<g>
					<g>
						<g>
							<g>
								<g>
									<g>
										<g>
											<g>
												
													<rect x="47" y="159.8" transform="matrix(0.9961 -8.875595e-02 8.875595e-02 0.9961 -15.1426 6.3696)" class="st41" width="34.1" height="27.3"/>
											</g>
										</g>
									</g>
								</g>
							</g>
						</g>
					</g>
				</g>
			</g>
		</g>
		<g>
			<g>
				<g>
					<g>
						<g>
							<g>
								<g>
									
										<rect x="48.3" y="161.6" transform="matrix(0.9961 -8.875588e-02 8.875588e-02 0.9961 -15.1467 6.3787)" class="st30" width="31.7" height="23.8"/>
								</g>
							</g>
						</g>
					</g>
				</g>
			</g>
		</g>
		<g>
			<g>
				<g>
					<g>
						<g>
							<g>
								<g>
									<polygon class="st21" points="49.3,186.8 59,171 66.7,179.6 71,174.4 81,184 									"/>
								</g>
							</g>
						</g>
					</g>
				</g>
			</g>
		</g>
		<g>
			<g>
				<g>
					<g>
						<g>
							<g>
								<g>
									<g>
										<g>
											<path class="st21" d="M68.6,168.4c0.1,1.3-0.9,2.6-2.3,2.7c-1.3,0.1-2.6-0.9-2.7-2.3c-0.1-1.3,0.9-2.6,2.3-2.7
												C67.3,166,68.5,166.9,68.6,168.4z"/>
										</g>
									</g>
								</g>
							</g>
						</g>
					</g>
				</g>
			</g>
		</g>
	</g>
</g>
</svg>
