<?xml version="1.0" encoding="utf-8"?>
<!-- Generator: Adobe Illustrator 21.0.0, SVG Export Plug-In . SVG Version: 6.00 Build 0)  -->
<svg version="1.1" id="Layer_1" xmlns="http://www.w3.org/2000/svg" xmlns:xlink="http://www.w3.org/1999/xlink" x="0px" y="0px"
	 viewBox="0 0 50 50" style="enable-background:new 0 0 50 50;" xml:space="preserve">
<style type="text/css">
	.st0{fill:#808080;}
</style>
<title>name</title>
<g id="Icons">
	<path class="st0" d="M41,45h-2v-9c0-2.8-2.2-5-5-5c0,0,0,0,0,0H16c-2.8,0-5,2.2-5,5v9H9v-9c0-3.9,3.1-7,7-7c0,0,0,0,0,0h18
		c3.9,0,7,3.1,7,7V45z"/>
	<path class="st0" d="M25,27c-6.1,0-11-4.9-11-11c0-6.1,4.9-11,11-11s11,4.9,11,11c0,0,0,0,0,0C36,22.1,31.1,27,25,27z M25,7
		c-5,0-9,4-9,9s4,9,9,9c5,0,9-4,9-9c0,0,0,0,0,0C34,11,30,7,25,7z"/>
</g>
</svg>
