<?xml version="1.0" encoding="utf-8"?>
<!-- Generator: Adobe Illustrator 21.0.0, SVG Export Plug-In . SVG Version: 6.00 Build 0)  -->
<svg version="1.1" id="Layer_1" xmlns="http://www.w3.org/2000/svg" xmlns:xlink="http://www.w3.org/1999/xlink" x="0px" y="0px"
	 viewBox="0 0 50 50" style="enable-background:new 0 0 50 50;" xml:space="preserve">
<style type="text/css">
	.st0{fill:#808080;}
</style>
<title>10</title>
<path class="st0" d="M15.1,18.9c0,0.4-0.3,0.7-0.7,0.7c-0.4,0-0.7-0.3-0.7-0.7c0-0.4,0.3-0.7,0.7-0.7l0,0
	C14.8,18.2,15.1,18.5,15.1,18.9z"/>
<path class="st0" d="M22.2,18.9c0,0.4-0.3,0.7-0.7,0.7c-0.4,0-0.7-0.3-0.7-0.7c0-0.4,0.3-0.7,0.7-0.7l0,0
	C21.9,18.2,22.2,18.5,22.2,18.9z"/>
<path class="st0" d="M20.8,23.2h-1.4c0,0.8-0.6,1.4-1.4,1.4c-0.8,0-1.4-0.6-1.4-1.4h-1.4c0.1,1.6,1.5,2.7,3,2.6
	C19.5,25.7,20.7,24.6,20.8,23.2z"/>
<path class="st0" d="M44.8,30.9H27.8c-0.4,0-0.8,0.1-1.1,0.3l-4.6-1.5v-1.5c1.6-1,2.7-2.6,3.2-4.4c1.8-0.2,3.1-1.7,3.1-3.5v-5.6
	c0-5.8-4.7-10.6-10.6-10.6S7.4,8.9,7.4,14.7v5.6c0,1.8,1.3,3.3,3.1,3.5c0.5,1.8,1.7,3.4,3.2,4.4v1.5l-7.2,2.3
	c-2,0.7-3.4,2.6-3.4,4.7v6.8h22.7c0.3,0.8,1.1,1.4,2,1.4h4.2v1.4h-1.4v1.4h11.3v-1.4h-1.4v-1.4h4.2c1.2,0,2.1-0.9,2.1-2.1v-9.9
	C46.9,31.9,45.9,30.9,44.8,30.9z M27.1,33.1c0-0.4,0.3-0.7,0.7-0.7h16.9c0.4,0,0.7,0.3,0.7,0.7v0v7.8H27.1V33.1z M25.7,33.1v9.2
	h-7.1v-6.8l3,3l3.8-6.1l0.4,0.1C25.8,32.7,25.7,32.9,25.7,33.1z M24.1,31.8l-2.7,4.3l-2.4-2.4l2.7-2.7L24.1,31.8z M25.7,22.4
	c0-0.2,0-0.4,0-0.6v-3.4c1.1,0.4,1.7,1.6,1.3,2.7C26.8,21.7,26.3,22.1,25.7,22.4z M17.9,5.5c5.1,0,9.2,4.1,9.2,9.2v2.8
	c-0.4-0.3-0.9-0.5-1.4-0.7v-0.1c0-0.8-0.6-1.4-1.4-1.4H11.6c-0.8,0-1.4,0.6-1.4,1.4v0.1c-0.5,0.1-1,0.3-1.4,0.7v-2.8
	C8.8,9.7,12.9,5.6,17.9,5.5z M8.8,20.3c0-0.9,0.6-1.7,1.4-2v3.4c0,0.2,0,0.4,0,0.6C9.3,22.1,8.8,21.2,8.8,20.3z M11.6,21.8v-4.9
	h12.7v4.9c-0.2,3.5-3.1,6.2-6.6,6.1C14.4,27.7,11.7,25.1,11.6,21.8L11.6,21.8z M18,29.5c1,0,1.9-0.2,2.8-0.5v0.9L18,32.8l-2.8-2.8
	V29C16,29.3,17,29.5,18,29.5L18,29.5z M14.3,31l2.7,2.7l-2.4,2.4l-2.7-4.4L14.3,31z M7,33.5l3.5-1.2l3.8,6.1l3-3v6.8h-7v-4.8H8.8
	v2.1H4.5v-2.6C4.5,35.3,5.5,33.9,7,33.5L7,33.5z M4.5,40.8h4.2v1.4H4.5V40.8z M39.1,46.4h-5.6v-1.4h5.6L39.1,46.4z M44.8,43.6H27.8
	c-0.4,0-0.7-0.3-0.7-0.7l0,0v-0.7h18.4v0.7C45.5,43.3,45.2,43.6,44.8,43.6C44.8,43.6,44.8,43.6,44.8,43.6L44.8,43.6z"/>
<path class="st0" d="M39.6,39.3l3.6-2.7l-3.6-2.7L38.7,35l2.1,1.6l-2.1,1.6L39.6,39.3z"/>
<path class="st0" d="M33.9,38.2l-2.1-1.6l2.1-1.6L33,33.9l-3.6,2.7l3.6,2.7L33.9,38.2z"/>
<path class="st0" d="M34.4,39.2l2.4-5.8l1.3,0.5l-2.4,5.8L34.4,39.2z"/>
</svg>
