<?xml version="1.0" encoding="utf-8"?>
<!-- Generator: Adobe Illustrator 21.0.0, SVG Export Plug-In . SVG Version: 6.00 Build 0)  -->
<svg version="1.1" id="Layer_1" xmlns="http://www.w3.org/2000/svg" xmlns:xlink="http://www.w3.org/1999/xlink" x="0px" y="0px"
	 viewBox="0 0 50 50" style="enable-background:new 0 0 50 50;" xml:space="preserve">
<style type="text/css">
	.st0{fill:#808080;stroke:#808080;stroke-width:0.2;stroke-miterlimit:10;}
	.st1{fill:#808080;}
</style>
<title>11</title>
<path class="st0" d="M19,25c1.5,0,2.7-1.2,2.7-2.7c0,0,0,0,0,0h-1.3c-0.1,0.7-0.7,1.3-1.5,1.2c-0.6-0.1-1.2-0.6-1.2-1.2h-1.3
	C16.3,23.8,17.5,25,19,25z"/>
<path class="st0" d="M16.3,18.3c0,0.4-0.3,0.7-0.7,0.7c-0.4,0-0.7-0.3-0.7-0.7s0.3-0.7,0.7-0.7l0,0C16,17.6,16.3,17.9,16.3,18.3z"/>
<path class="st0" d="M23,18.3c0,0.4-0.3,0.7-0.7,0.7s-0.7-0.3-0.7-0.7s0.3-0.7,0.7-0.7l0,0C22.7,17.6,23,17.9,23,18.3z"/>
<path class="st1" d="M27,24.3v5.3l-3.3-1.2v-1.8c1.2-1,2-2.3,2.4-3.7c1.7-0.2,3-1.6,3-3.3v-5.3c0-5.5-4.5-10-10-10s-10,4.5-10,10
	v5.3c0,1.7,1.3,3.1,3,3.3c0.4,1.5,1.2,2.8,2.4,3.7v1.9l-6.8,2.2c-1.9,0.6-3.2,2.5-3.2,4.5v6.5H27v4h18.7v-17l-4.4-4.4H27z
	 M41.7,26.6l1.7,1.7h-1.7L41.7,26.6z M24.2,30.1l-1,5.1L20,32.9l3.2-3.2L24.2,30.1z M26.3,21.5c0-0.2,0-0.4,0-0.6v-3.2
	c0.8,0.3,1.3,1,1.3,1.9C27.7,20.5,27.1,21.3,26.3,21.5z M10.3,19.6c0-0.8,0.5-1.6,1.3-1.9V21c0,0.2,0,0.4,0,0.6
	C10.8,21.3,10.3,20.5,10.3,19.6z M11.7,16.4c-0.5,0.1-1,0.3-1.5,0.6v-2.7c-0.2-4.8,3.6-8.8,8.4-9c4.8-0.2,8.8,3.6,9,8.4
	c0,0.2,0,0.4,0,0.6V17c-0.4-0.3-0.9-0.5-1.5-0.6c-0.4-1.6-1.9-2.7-3.5-2.7c-0.8,0-1.6,0.3-2.2,0.7L19,15.5l-1.5-1.2
	c-0.6-0.5-1.4-0.7-2.2-0.7C13.7,13.6,12.2,14.7,11.7,16.4z M13,21v-3.7c0-1.3,1-2.3,2.3-2.3c0.5,0,1,0.2,1.4,0.5l2.3,1.7l2.3-1.7
	c0.4-0.3,0.9-0.5,1.4-0.5c1.3,0,2.3,1,2.3,2.3V21c-0.1,3.3-3,5.9-6.3,5.8C15.6,26.6,13.1,24.1,13,21L13,21z M19,28.3
	c1.2,0,2.3-0.3,3.4-0.8v1.2L19,32l-3.3-3.4v-1.2C16.7,28.1,17.8,28.3,19,28.3L19,28.3z M14.8,29.8l3.2,3.2l-3.2,2.3l-1-5.1
	L14.8,29.8z M10.9,40.4v-4H9.6v4h-4v-5.1c0-1.4,0.9-2.7,2.3-3.2l4.6-1.5l1.4,6.9l5.1-3.7l5.1,3.7l1.4-6.9l1.5,0.5v9.3L10.9,40.4z
	 M28.3,44.4V25.7h12v4h4v14.7H28.3z"/>
<path class="st0" d="M36.4,43.1h6.7v-6.7h-6.7V43.1z M37.7,37.7h4v4h-4V37.7z"/>
<path class="st0" d="M29.7,41.7H35v1.3h-5.4V41.7z"/>
<path class="st0" d="M29.7,39.1H35v1.3h-5.4V39.1z"/>
<path class="st0" d="M29.7,36.4H35v1.3h-5.4V36.4z"/>
<path class="st0" d="M29.7,27H31v1.3h-1.3V27z"/>
<path class="st0" d="M32.4,27h6.7v1.3h-6.7V27z"/>
<path class="st0" d="M29.7,29.7h9.4V31h-9.4V29.7z"/>
<path class="st0" d="M41.7,32.4h1.3v1.3h-1.3V32.4z"/>
<path class="st0" d="M29.7,32.4h10.7v1.3H29.7V32.4z"/>
<path class="st1" d="M38.4,23c4.1,0,7.4-3.3,7.4-7.4c0-1.5-0.5-3-1.4-4.3l1.2-1.3l-0.9-0.9l-1.1,1.2c-2.9-2.8-7.6-2.7-10.4,0.2
	s-2.7,7.6,0.2,10.4C34.7,22.2,36.5,23,38.4,23L38.4,23z M38.4,9.6c1.6,0,3.1,0.6,4.2,1.7l-4.9,5.4l-2.9-2.3l-0.8,1l3.8,3.1l5.6-6.2
	c0.6,1,1,2.1,1,3.3c0,3.3-2.7,6-6,6s-6-2.7-6-6C32.3,12.3,35,9.6,38.4,9.6C38.4,9.6,38.4,9.6,38.4,9.6z"/>
</svg>
