<?xml version="1.0" encoding="utf-8"?>
<!-- Generator: Adobe Illustrator 21.0.0, SVG Export Plug-In . SVG Version: 6.00 Build 0)  -->
<svg version="1.1" id="Layer_1" xmlns="http://www.w3.org/2000/svg" xmlns:xlink="http://www.w3.org/1999/xlink" x="0px" y="0px"
	 viewBox="0 0 50 50" style="enable-background:new 0 0 50 50;" xml:space="preserve">
<style type="text/css">
	.st0{fill:#808080;}
</style>
<title>12</title>
<path class="st0" d="M17.7,6.4H26v1.4h-8.3V6.4z"/>
<path class="st0" d="M20.4,42.2h2.8v1.4h-2.8V42.2z"/>
<path class="st0" d="M15,6.4h1.4v1.4H15V6.4z"/>
<path class="st0" d="M43.2,20.2c0-3.3-3.6-6.1-8.3-6.7V7.1c0-1.9-1.5-3.4-3.4-3.4l0,0H12.2c-1.9,0-3.4,1.5-3.4,3.4l0,0v35.9
	c0,1.9,1.5,3.4,3.4,3.4h0h19.3c1.9,0,3.4-1.5,3.4-3.4v0V27C39.6,26.3,43.2,23.5,43.2,20.2z M12.2,5h19.3c1.1,0,2.1,0.9,2.1,2.1v2.1
	H10.1V7.1C10.1,5.9,11,5,12.2,5C12.2,5,12.2,5,12.2,5z M31.5,45H12.2c-1.1,0-2.1-0.9-2.1-2c0,0,0,0,0,0v-2.1h23.5v2.1
	C33.5,44.1,32.6,45,31.5,45z M33.5,39.5H10.1v-29h23.5v2.8h-0.7c-5.7,0-10.3,3.1-10.3,6.9c0.1,2,1.2,3.8,3,4.8l-1.1,5.1l4.8-3.5
	c1.2,0.3,2.5,0.5,3.7,0.5h0.7V39.5z M32.8,25.7c-1.4,0-2.7-0.2-4-0.6l-2.3,1.7l0.5-2.5c0,0-3.1-1.5-3.1-4.2c0-3,4-5.5,9-5.5
	s9,2.5,9,5.5S37.8,25.7,32.8,25.7L32.8,25.7z"/>
<path class="st0" d="M12.2,36.7h6.9v-6.9h-6.9V36.7z M13.5,31.2h4.1v4.1h-4.1V31.2z"/>
<path class="st0" d="M12.2,20.2h6.9v-6.9h-6.9V20.2z M13.5,14.7h4.1v4.2h-4.1V14.7z"/>
<path class="st0" d="M21.1,34h10.3v1.4H21.1V34z"/>
<path class="st0" d="M27.3,18.1h11v1.4h-11L27.3,18.1z"/>
<path class="st0" d="M32.1,20.9h1.4v1.4h-1.4V20.9z"/>
<path class="st0" d="M34.9,20.9h1.4v1.4h-1.4V20.9z"/>
<path class="st0" d="M29.4,20.9h1.4v1.4h-1.4V20.9z"/>
</svg>
