<?xml version="1.0" encoding="utf-8"?>
<!-- Generator: Adobe Illustrator 21.0.0, SVG Export Plug-In . SVG Version: 6.00 Build 0)  -->
<svg version="1.1" id="Layer_1" xmlns="http://www.w3.org/2000/svg" xmlns:xlink="http://www.w3.org/1999/xlink" x="0px" y="0px"
	 viewBox="0 0 50 50" style="enable-background:new 0 0 50 50;" xml:space="preserve">
<style type="text/css">
	.st0{fill:#808080;}
</style>
<title>13</title>
<path class="st0" d="M38.4,20.7c-2.4-2.6-5.6-4.3-9.1-5l0,0c0.2-0.7,0.3-1.5,0.5-2.1c0,0,0-0.1,0-0.1l0.1-0.3
	c0.2-0.6,0.2-1.1,0.3-1.1c1,0,2-0.4,2.7-1.2c1.2-1.1,1.4-2.9,0.7-4.3c-1-1.9-3.2-2.6-5.1-1.6c-1.4-1.6-3.8-1.8-5.4-0.4
	c-0.2,0.1-0.3,0.3-0.4,0.4c-0.5-0.3-1.1-0.4-1.8-0.4c-2.1,0-3.8,1.7-3.7,3.8c0,0,0,0,0,0c0,1,0.4,1.9,1.2,2.6
	c0.7,0.7,1.7,1.1,2.7,1.2c0,0,0.1,0.4,0.3,1.1c0.2,0.8,0.4,1.6,0.6,2.5c-3.5,0.7-6.7,2.4-9.1,5c-5.4,5.6-5.2,14.4,0.4,19.8
	c0.2,0.2,0.4,0.4,0.7,0.6c3.3,2.9,7.5,4.4,11.8,4.4c4.4,0,8.6-1.5,11.8-4.4c5.9-5,6.6-13.9,1.6-19.8C38.9,21.1,38.7,20.9,38.4,20.7
	L38.4,20.7z M20.9,10.6c-0.6,0-1.1-0.3-1.5-0.7c-0.4-0.4-0.7-0.9-0.7-1.5c0-1.2,1-2.2,2.2-2.2c0.5,0,1,0.2,1.5,0.5
	c0.1,0.1,0.1,0.1,0.2,0.1c0.4,0.2,0.8,0,1-0.4C23.7,6,24,5.7,24.4,5.5c0.7-0.4,1.6-0.4,2.3,0C27,5.7,27.3,6,27.5,6.4
	c0,0.1,0.1,0.1,0.1,0.2c0.3,0.3,0.8,0.3,1.1,0.1c0.4-0.3,0.9-0.5,1.4-0.5c1.2,0,2.2,1,2.2,2.2c0,0,0,0,0,0c0,0.6-0.3,1.1-0.7,1.5
	c-0.4,0.4-1,0.7-1.5,0.7c-0.8,0-1.3,0.8-1.7,1.9h-5.9C22.2,11.4,21.7,10.6,20.9,10.6z M28.1,14.1c-0.1,0.5-0.2,1-0.3,1.4h-4.4
	c-0.1-0.5-0.2-1-0.3-1.4H28.1z M36.4,39.9c-3,2.6-6.8,4-10.8,4c-4,0-7.8-1.4-10.8-4c-2.8-2.4-4.4-5.9-4.4-9.6c0-3.2,1.3-6.3,3.5-8.6
	c2.4-2.5,5.5-4.1,8.9-4.6h5.7c3.4,0.5,6.5,2.2,8.9,4.6c2.2,2.3,3.5,5.4,3.5,8.7C40.8,34.1,39.1,37.5,36.4,39.9L36.4,39.9z"/>
<path class="st0" d="M29.3,29.8c-0.9-0.5-1.9-0.9-3-1v-3.5c0.5,0,1,0.2,1.5,0.3c0.4,0.1,0.9,0.3,1.3,0.3c0.6,0,1-0.3,1-1
	c0-0.3-0.3-0.6-0.8-0.9c-1-0.4-2-0.6-3-0.7v-1.3c0-0.4-0.3-0.8-0.8-0.8c-0.4,0-0.8,0.3-0.8,0.8c0,0,0,0,0,0v1.3
	c-0.9,0.1-1.8,0.5-2.6,1.1c-0.9,0.6-1.5,1.7-1.5,2.8c0,0.8,0.3,1.6,1,2.2c0.3,0.2,0.7,0.4,1.1,0.6c0.4,0.1,0.8,0.3,1.2,0.4l0.8,0.1
	v3.9c-0.6-0.1-1.1-0.2-1.7-0.4c-0.5-0.2-1-0.3-1.6-0.4c-0.7,0-1,0.4-1,1.2c0,0.4,0.5,0.8,1.6,1.2c0.9,0.3,1.7,0.4,2.6,0.5v1.3
	c0,0.4,0.3,0.8,0.8,0.8c0.4,0,0.8-0.3,0.8-0.8c0,0,0,0,0,0v-1.3c1-0.1,2-0.4,2.8-1c0.9-0.7,1.5-1.8,1.4-2.9
	C30.6,31.4,30.2,30.4,29.3,29.8z M24.8,28.5h-0.3c-0.3,0-0.5-0.1-0.8-0.2c-0.3-0.1-0.5-0.2-0.7-0.4c-0.1-0.2-0.2-0.4-0.2-0.7
	c0-0.6,0.3-1.1,0.8-1.4c0.3-0.2,0.7-0.4,1.2-0.5L24.8,28.5L24.8,28.5z M28.4,32.5c0,0.6-0.3,1.1-0.8,1.4c-0.4,0.2-0.8,0.4-1.3,0.5
	v-3.6c0.5,0.1,0.9,0.3,1.4,0.5C28.1,31.5,28.4,32,28.4,32.5z"/>
</svg>
