<?xml version="1.0" encoding="utf-8"?>
<!-- Generator: Adobe Illustrator 21.0.0, SVG Export Plug-In . SVG Version: 6.00 Build 0)  -->
<svg version="1.1" id="Layer_1" xmlns="http://www.w3.org/2000/svg" xmlns:xlink="http://www.w3.org/1999/xlink" x="0px" y="0px"
	 viewBox="0 0 50 50" style="enable-background:new 0 0 50 50;" xml:space="preserve">
<style type="text/css">
	.st0{fill:#808080;}
</style>
<title>14</title>
<path class="st0" d="M37.8,12.7c-7.2-7.2-18.8-7.1-25.9,0s-7.1,18.8,0,25.9s18.8,7.1,25.9,0c3.4-3.4,5.4-8.1,5.4-13
	C43.2,20.8,41.2,16.2,37.8,12.7z M41.5,24.9h-7.1c0-2.7-0.4-5.3-1.1-7.9c1.4-0.7,2.6-1.6,3.8-2.6C39.7,17.2,41.3,21,41.5,24.9z
	 M25.6,26.6h7.1c0,2.5-0.4,4.9-1,7.3c-1.9-0.8-4-1.2-6.1-1.3V26.6z M35.8,13.2c-1,0.8-2,1.6-3.1,2.2c-0.3-0.8-0.6-1.5-1-2.3
	c-0.6-1.3-1.4-2.4-2.4-3.5C31.7,10.3,33.9,11.5,35.8,13.2L35.8,13.2z M25.6,9.3c1.7,0.4,3.3,2,4.6,4.5c0.4,0.7,0.7,1.5,0.9,2.3
	c-1.8,0.7-3.7,1.2-5.6,1.2V9.3z M31.7,17.6c0.6,2.4,1,4.8,1,7.3h-7.1v-6C27.7,18.8,29.8,18.4,31.7,17.6L31.7,17.6z M24,24.9h-7.1
	c0-2.5,0.4-4.9,1-7.3c1.9,0.8,4,1.2,6.1,1.3V24.9z M24,9.3v8c-1.9-0.1-3.8-0.5-5.6-1.2c0.3-0.8,0.6-1.5,1-2.3
	C20.6,11.2,22.3,9.6,24,9.3L24,9.3z M20.3,9.6c-1,1-1.8,2.2-2.4,3.5c-0.4,0.7-0.7,1.5-1,2.3c-1.1-0.6-2.2-1.3-3.1-2.2
	C15.6,11.5,17.9,10.3,20.3,9.6L20.3,9.6z M12.6,14.3c1.1,1,2.4,1.9,3.8,2.6c-0.7,2.6-1.1,5.3-1.1,7.9H8.1
	C8.3,20.9,9.9,17.2,12.6,14.3z M8,26.5h7.1c0,2.7,0.4,5.4,1.1,8c-1.4,0.7-2.6,1.6-3.8,2.6C9.8,34.2,8.3,30.5,8,26.5L8,26.5z
	 M13.7,38.3c1-0.8,2-1.6,3.1-2.2c0.3,0.8,0.6,1.5,1,2.2c0.6,1.3,1.4,2.4,2.4,3.4C17.8,41.1,15.6,39.9,13.7,38.3L13.7,38.3z
	 M23.9,42.2c-1.7-0.4-3.3-2-4.6-4.5c-0.4-0.7-0.7-1.4-0.9-2.2c1.8-0.7,3.7-1.2,5.6-1.2V42.2L23.9,42.2z M17.9,33.9
	c-0.6-2.4-1-4.9-1-7.3H24v6C21.9,32.6,19.8,33.1,17.9,33.9z M25.6,42.2v-7.9c1.9,0.1,3.8,0.5,5.6,1.2c-0.3,0.7-0.6,1.5-0.9,2.2
	C29,40.2,27.3,41.8,25.6,42.2L25.6,42.2z M29.3,41.8c1-1,1.8-2.1,2.4-3.4c0.4-0.7,0.7-1.5,1-2.3c1.1,0.6,2.2,1.3,3.1,2.2
	C33.9,39.9,31.7,41.1,29.3,41.8z M37,37.2c-1.1-1-2.4-1.9-3.8-2.6c0.7-2.6,1.1-5.3,1.1-8h7.1C41.3,30.5,39.7,34.3,37,37.2L37,37.2z"
	/>
</svg>
