<svg id="Layer_1" data-name="Layer 1" xmlns="http://www.w3.org/2000/svg" viewBox="0 0 50 50"><defs><style>.cls-1{fill:gray;stroke:gray;stroke-miterlimit:10;stroke-width:0.2px;}</style></defs><title>mail_id</title><path class="cls-1" d="M40.26,38H9.74A3.75,3.75,0,0,1,6,34.26V15.41a3.74,3.74,0,0,1,3.74-3.74H40.26A3.74,3.74,0,0,1,44,15.41V34.26A3.75,3.75,0,0,1,40.26,38ZM9.74,13.1a2.31,2.31,0,0,0-2.31,2.31V34.26a2.32,2.32,0,0,0,2.31,2.31H40.26a2.32,2.32,0,0,0,2.31-2.31V15.41a2.31,2.31,0,0,0-2.31-2.31Z"/><path class="cls-1" d="M25,29a.69.69,0,0,1-.47-.18L7.3,13.65l.94-1.07L25,27.37,41.76,12.58l1,1.07L25.47,28.86A.69.69,0,0,1,25,29Z"/><path class="cls-1" d="M6.91,35.75,18.48,22.56l1.08,1L8,36.7Z"/><path class="cls-1" d="M30.48,23.49l1.07-.94L43.13,35.74l-1.08.94Z"/></svg>