<?xml version="1.0" encoding="utf-8"?>
<!-- Generator: Adobe Illustrator 21.0.0, SVG Export Plug-In . SVG Version: 6.00 Build 0)  -->
<svg version="1.1" id="Layer_1" xmlns="http://www.w3.org/2000/svg" xmlns:xlink="http://www.w3.org/1999/xlink" x="0px" y="0px"
	 viewBox="0 0 50 50" style="enable-background:new 0 0 50 50;" xml:space="preserve">
<style type="text/css">
	.st0{fill:#808080;}
</style>
<title>mobile no</title>
<path class="st0" d="M34.6,2H17.4c-2,0-3.6,1.6-3.6,3.6v38.8c0,2,1.6,3.6,3.6,3.6h17.3c2,0,3.6-1.6,3.6-3.6V5.6
	C38.2,3.6,36.6,2,34.6,2z M36.8,44.4c0,1.2-1,2.2-2.2,2.2H17.4c-1.2,0-2.2-1-2.2-2.2v-4.3h21.6L36.8,44.4z M36.8,38.7H15.2V9.9h21.6
	L36.8,38.7z M36.8,8.5H15.2V5.6c0-1.2,1-2.2,2.2-2.2h17.2c1.2,0,2.2,1,2.2,2.2V8.5z"/>
<path class="st0" d="M26,40.8c-1.2,0-2.2,1-2.2,2.2c0,1.2,1,2.2,2.2,2.2s2.2-1,2.2-2.2C28.2,41.8,27.2,40.8,26,40.8z M26,43.7
	c-0.4,0-0.7-0.3-0.7-0.7c0-0.4,0.3-0.7,0.7-0.7c0.4,0,0.7,0.3,0.7,0.7c0,0,0,0,0,0C26.7,43.4,26.4,43.7,26,43.7z"/>
<path class="st0" d="M28.9,5.6h-5.7c-0.4,0-0.7,0.3-0.7,0.7c0,0.4,0.3,0.7,0.7,0.7c0,0,0,0,0,0h5.7c0.4,0,0.7-0.3,0.7-0.7
	c0,0,0,0,0,0C29.6,5.9,29.3,5.6,28.9,5.6z"/>
<path class="st0" d="M34.6,35.8h-0.7c-0.4,0-0.7,0.3-0.7,0.7c0,0.4,0.3,0.7,0.7,0.7h0.7c0.4,0,0.7-0.3,0.7-0.7
	C35.4,36.1,35,35.8,34.6,35.8z"/>
<path class="st0" d="M31.8,35.8H31c-0.4,0-0.7,0.3-0.7,0.7c0,0.4,0.3,0.7,0.7,0.7h0.7c0.4,0,0.7-0.3,0.7-0.7
	C32.5,36.1,32.2,35.8,31.8,35.8C31.8,35.8,31.8,35.8,31.8,35.8z"/>
<path class="st0" d="M28.9,35.8h-0.7c-0.4,0-0.7,0.3-0.7,0.7c0,0.4,0.3,0.7,0.7,0.7c0,0,0,0,0,0h0.7c0.4,0,0.7-0.3,0.7-0.7
	C29.6,36.1,29.3,35.8,28.9,35.8L28.9,35.8z"/>
</svg>
