<?xml version="1.0" encoding="utf-8"?>
<!-- Generator: Adobe Illustrator 21.0.0, SVG Export Plug-In . SVG Version: 6.00 Build 0)  -->
<svg version="1.1" id="Layer_1" xmlns="http://www.w3.org/2000/svg" xmlns:xlink="http://www.w3.org/1999/xlink" x="0px" y="0px"
	 viewBox="0 0 50 50" style="enable-background:new 0 0 50 50;" xml:space="preserve">
<style type="text/css">
	.st0{fill:#808080;stroke:#808080;stroke-width:0.1;stroke-miterlimit:10;}
</style>
<title>experinece</title>
<g id="outline">
	<path class="st0" d="M44.8,23.3h-10c-0.4,0-0.7,0.3-0.7,0.7v3.3h-1.3V24c0-1.8-1.5-3.3-3.3-3.3h-0.7v-4H33
		c-0.1,0.2-0.1,0.4-0.1,0.7v1.3c0,0.4,0.3,0.7,0.7,0.7h4c0.4,0,0.7-0.3,0.7-0.7v-1.3c0-1.1-0.9-2-2-2l0,0v-2.8
		c0.7-0.2,1.3-0.6,1.7-1.2h1c1.1,0,2-0.9,2-2c0,0,0,0,0,0V8c0-0.4-0.3-0.7-0.7-0.7h-2V6.7c0-0.4-0.3-0.7-0.7-0.7c0,0,0,0-0.1,0h-4
		c-0.4,0-0.7,0.3-0.7,0.7v0.7h-2c-0.4,0-0.7,0.3-0.7,0.7v1.3c0,1.1,0.9,2,2,2l0,0h1c0.4,0.6,0.9,1.1,1.6,1.2v0.1h-7.1
		c0.2-0.4,0.4-0.9,0.4-1.3V10c0-1.5-1.2-2.7-2.7-2.7s-2.7,1.2-2.7,2.7v1.3c0,0.5,0.1,0.9,0.4,1.3h-2.4v-6c0-0.3-0.2-0.6-0.6-0.7
		h-2.7c-0.4,0-0.7,0.3-0.7,0.7v6.7c0,1.9,1.5,3.3,3.4,3.3c0,0,0,0,0,0h2v14.7h-6c-0.4,0-0.7,0.3-0.7,0.7v3.3H6.2
		c-0.4,0-0.7,0.3-0.7,0.7v9.3c0,0.4,0.3,0.7,0.6,0.7c0,0,0,0,0,0h38.7c0.4,0,0.7-0.3,0.7-0.6c0,0,0,0,0,0V24
		C45.5,23.6,45.2,23.3,44.8,23.3z M36.8,17.3V18h-2.7v-0.7c0-0.4,0.3-0.7,0.7-0.7l0,0h1.3C36.5,16.7,36.8,17,36.8,17.3L36.8,17.3z
		 M39.5,8.7v0.7c0,0.4-0.3,0.7-0.6,0.7c0,0,0,0,0,0h-0.7V8.7L39.5,8.7z M32.2,10c-0.4,0-0.7-0.3-0.7-0.6c0,0,0,0,0,0V8.7h1.3V10
		H32.2z M34.2,10V7.3h2.7V10c0,0.7-0.6,1.3-1.3,1.3C34.8,11.3,34.2,10.7,34.2,10C34.2,10,34.2,10,34.2,10z M24.2,11.3V10
		c0-0.7,0.6-1.3,1.3-1.3c0.7,0,1.3,0.6,1.3,1.3v1.3c0,0.7-0.6,1.3-1.3,1.3C24.8,12.7,24.2,12.1,24.2,11.3z M22.8,15.3h-2.6
		c-1.1,0-2-0.9-2-2c0,0,0,0,0,0v-6h1.3v6c0,0.4,0.3,0.7,0.6,0.7c0,0,0,0,0,0h14.7v1.3h-6.7c-0.4,0-0.7,0.3-0.7,0.7v5.3
		c0,0.4,0.3,0.7,0.6,0.7c0,0,0,0,0,0h1.3c1.1,0,2,0.9,2,2v0v3.3h-1.3V24c0-0.4-0.3-0.7-0.7-0.7h-4c-0.4,0-0.7,0.3-0.7,0.7v7.3h-1.3
		V16C23.5,15.7,23.2,15.4,22.8,15.3C22.9,15.3,22.8,15.3,22.8,15.3z M26.2,27.3v-2.7h2.7v2.7H26.2z M6.8,36.7h8.7v8H6.8V36.7z
		 M16.8,32.7h8v12h-8V32.7z M26.2,28.7h8v16h-8L26.2,28.7z M44.2,44.7h-8.7v-20h8.7L44.2,44.7z"/>
</g>
</svg>
