<?xml version="1.0" encoding="utf-8"?>
<!-- Generator: Adobe Illustrator 21.0.0, SVG Export Plug-In . SVG Version: 6.00 Build 0)  -->
<svg version="1.1" id="Layer_1" xmlns="http://www.w3.org/2000/svg" xmlns:xlink="http://www.w3.org/1999/xlink" x="0px" y="0px"
	 viewBox="0 0 50 50" style="enable-background:new 0 0 50 50;" xml:space="preserve">
<style type="text/css">
	.st0{fill:#808080;}
</style>
<title>position</title>
<path class="st0" d="M33.3,47.4H16.7c-0.5,0-0.9-0.4-0.9-0.9l0,0V24.4c0-0.5,0.4-0.9,0.9-0.9h16.6c0.5,0,0.9,0.4,0.9,0.9v0v22.1
	C34.2,47,33.8,47.4,33.3,47.4L33.3,47.4z M17.6,45.6h14.8V25.3H17.6V45.6z"/>
<path class="st0" d="M46.2,47.4H33.3c-0.5,0-0.9-0.4-0.9-0.9l0,0v-7.4c0-0.5,0.4-0.9,0.9-0.9h12.9c0.5,0,0.9,0.4,0.9,0.9v0v7.4
	C47.1,47,46.7,47.4,46.2,47.4z M34.2,45.6h11.1v-5.5H34.2V45.6z"/>
<path class="st0" d="M16.7,47.4H3.8c-0.5,0-0.9-0.4-0.9-0.9V35.5c0-0.5,0.4-0.9,0.9-0.9c0,0,0,0,0,0h12.9c0.5,0,0.9,0.4,0.9,0.9l0,0
	v11.1C17.6,47,17.2,47.4,16.7,47.4z M4.7,45.6h11.1v-9.2H4.7V45.6z"/>
<path class="st0" d="M25,40.1c-0.5,0-0.9-0.4-0.9-0.9v-6.4c-0.5,0-0.9-0.4-0.9-0.9c0-0.5,0.4-0.9,0.9-0.9H25c0.5,0,0.9,0.4,0.9,0.9
	v7.4C25.9,39.7,25.5,40.1,25,40.1z"/>
<path class="st0" d="M29.6,19.8c-0.2,0-0.4-0.1-0.5-0.2l-4-2.8l-4,2.8c-0.4,0.3-1,0.2-1.3-0.3c-0.1-0.2-0.2-0.5-0.1-0.7l1.3-5
	L17,10.4c-0.4-0.3-0.4-0.9-0.1-1.3c0.2-0.2,0.4-0.3,0.7-0.3l4.8-0.3l1.7-4.8c0.2-0.5,0.8-0.7,1.3-0.5c0.2,0.1,0.4,0.3,0.5,0.5
	l1.7,4.8l4.8,0.3c0.4,0,0.7,0.3,0.8,0.6c0.1,0.4,0,0.7-0.3,1l-3.8,3.2l1.3,5c0.1,0.4-0.1,0.8-0.4,1C29.9,19.7,29.7,19.8,29.6,19.8z
	 M25,14.8c0.2,0,0.4,0.1,0.5,0.2l2.5,1.7l-0.8-3.2c-0.1-0.3,0-0.7,0.3-0.9l2.5-2.1l-3.1-0.2c-0.4,0-0.7-0.3-0.8-0.6l-1.1-3l-1.1,3
	c-0.1,0.3-0.5,0.6-0.8,0.6L20,10.6l2.5,2.1c0.3,0.2,0.4,0.6,0.3,0.9l-0.8,3.2l2.5-1.8C24.6,14.9,24.8,14.8,25,14.8z"/>
</svg>
