<?xml version="1.0" encoding="utf-8"?>
<!-- Generator: Adobe Illustrator 21.0.0, SVG Export Plug-In . SVG Version: 6.00 Build 0)  -->
<svg version="1.1" id="Layer_1" xmlns="http://www.w3.org/2000/svg" xmlns:xlink="http://www.w3.org/1999/xlink" x="0px" y="0px"
	 viewBox="0 0 50 50" style="enable-background:new 0 0 50 50;" xml:space="preserve">
<style type="text/css">
	.st0{fill:#808080;stroke:#808080;stroke-width:0.1;stroke-miterlimit:10;}
</style>
<title>qualification</title>
<path class="st0" d="M42,6.7H15c-2.3,0-4.2,1.9-4.2,4.2l-0.2,23.8H5.3c-0.4,0-0.7,0.3-0.7,0.7v3.3c0,3,2.4,5.5,5.4,5.7l0,0h22.8l0,0
	c0.2,0,0.3,0,0.4,0l0,0c3.1,0,5.7-2.6,5.7-5.7c0,0,0,0,0,0V17.8h6.9c0.4,0,0.7-0.3,0.7-0.7v-6C46.4,8.7,44.4,6.7,42,6.7L42,6.7z
	 M10.4,43L10.4,43C7.9,43,6,41,6,38.6V36h21.4v2.6c0,1.5,0.6,3,1.7,4.1c0.1,0.1,0.2,0.2,0.4,0.3L10.4,43z M37.5,38.6
	c0,2.4-1.9,4.4-4.3,4.4c0,0,0,0,0,0l0,0c-2.4,0-4.4-2-4.3-4.4v-3.3c0-0.4-0.3-0.7-0.7-0.7H11.9l0.2-23.7C12.1,9.3,13.4,8,15,8h23.8
	c-0.8,0.8-1.2,2-1.3,3.1V38.6z M45,11.1v5.3h-6.2v-5.3c0-1.7,1.4-3.1,3.1-3.1l0,0C43.6,8,45,9.4,45,11.1L45,11.1z"/>
<path class="st0" d="M21.8,23.3l3.5,2.4c0.2,0.2,0.5,0.2,0.8,0l3.5-2.4c1.3-1,2-2.4,2.1-4v-4.8c0-0.3-0.2-0.5-0.4-0.6l-5.3-2.6
	c-0.2-0.1-0.4-0.1-0.6,0L20,13.8c-0.2,0.1-0.4,0.4-0.4,0.6v4.8C19.7,20.8,20.5,22.3,21.8,23.3z M21.1,14.9l4.6-2.3l4.6,2.3v4.4
	c-0.1,1.1-0.6,2.2-1.5,2.9l-3.1,2.1l-3.1-2.1c-0.9-0.7-1.5-1.7-1.5-2.9V14.9z"/>
<path class="st0" d="M24.5,20.3c0.1,0.1,0.3,0.2,0.5,0.2l0,0c0.2,0,0.4-0.1,0.5-0.2l2.7-2.7c0.3-0.3,0.3-0.7,0-0.9c0,0,0,0,0,0
	c-0.3-0.3-0.7-0.3-1,0L25,18.9L24.1,18c-0.3-0.3-0.7-0.3-1,0c-0.3,0.3-0.3,0.7,0,0.9c0,0,0,0,0,0L24.5,20.3z"/>
<path class="st0" d="M34,27.6H17.8c-0.4-0.1-0.7,0.2-0.8,0.6c-0.1,0.4,0.2,0.7,0.6,0.8c0.1,0,0.1,0,0.2,0H34
	c0.4,0.1,0.7-0.2,0.8-0.6c0.1-0.4-0.2-0.7-0.6-0.8C34.1,27.6,34.1,27.6,34,27.6z"/>
<path class="st0" d="M34,30.7H17.8c-0.4-0.1-0.7,0.2-0.8,0.6c-0.1,0.4,0.2,0.7,0.6,0.8c0.1,0,0.1,0,0.2,0H34
	c0.4,0.1,0.7-0.2,0.8-0.6c0.1-0.4-0.2-0.7-0.6-0.8C34.1,30.7,34.1,30.7,34,30.7z"/>
</svg>
