<?xml version="1.0" encoding="utf-8"?>
<!-- Generator: Adobe Illustrator 21.0.0, SVG Export Plug-In . SVG Version: 6.00 Build 0)  -->
<svg version="1.1" id="Layer_1" xmlns="http://www.w3.org/2000/svg" xmlns:xlink="http://www.w3.org/1999/xlink" x="0px" y="0px"
	 viewBox="0 0 50 50" style="enable-background:new 0 0 50 50;" xml:space="preserve">
<style type="text/css">
	.st0{fill:#808080;}
</style>
<title>employee_status</title>
<path class="st0" d="M30.9,14.7c-1.2,0-2.2,1-2.2,2.2l0,0v0.7h1.5v-0.7c0-0.4,0.3-0.7,0.7-0.7c0.4,0,0.7,0.3,0.7,0.7v0.7h1.5v-0.7
	C33.1,15.7,32.1,14.7,30.9,14.7z"/>
<path class="st0" d="M38.2,14.7c-1.2,0-2.2,1-2.2,2.2v0.7h1.5v-0.7c0-0.4,0.3-0.7,0.7-0.7s0.7,0.3,0.7,0.7v0.7h1.5v-0.7
	C40.4,15.7,39.4,14.7,38.2,14.7L38.2,14.7z"/>
<path class="st0" d="M36,19.9v0.7c0,0.8-0.7,1.5-1.5,1.5c-0.8,0-1.5-0.7-1.5-1.5c0,0,0,0,0,0v-0.7h-1.5v0.7c0,1.6,1.3,2.9,2.9,2.9
	c1.6,0,2.9-1.3,2.9-2.9v-0.7H36z"/>
<path class="st0" d="M41.9,26.5h-3.7v-0.8c2.7-1.2,4.5-3.7,5-6.5h0.9c1.2,0,2.2-1,2.2-2.2c0-1.2-1-2.2-2.2-2.2h-0.7V3h-11
	c-3.6,0-6.6,3-6.6,6.6v5.1H25c-1.2,0-2.2,1-2.2,2.2s1,2.2,2.2,2.2l0,0h0.9c0.5,2.9,2.4,5.3,5,6.5v0.8h-3.7c-2.8,0-5.1,2.3-5.1,5.1
	v0.7h-4.4v-0.7c0-1.2-1-2.2-2.2-2.2h0h-2.9c-1.2,0-2.2,1-2.2,2.2l0,0v0.7H3.7c-0.4,0-0.7,0.3-0.7,0.7l0,0v13.2C3,46.7,3.3,47,3.7,47
	c0,0,0,0,0,0h42.5c0.4,0,0.7-0.3,0.7-0.7l0,0V31.6C47,28.8,44.7,26.5,41.9,26.5z M43.3,16.2h0.7c0.4,0,0.7,0.3,0.7,0.7
	c0,0.4-0.3,0.7-0.7,0.7h-0.7V16.2z M25.7,17.7H25c-0.4,0-0.7-0.3-0.7-0.7c0-0.4,0.3-0.7,0.7-0.7c0,0,0,0,0,0h0.7V17.7z M40.4,27.9
	l-3,4l-0.1-0.1l-1.7-1.7l2.2-2.2L40.4,27.9z M35.7,32.3L35,33.1h-0.9l-0.7-0.7l1.2-1.2L35.7,32.3z M33.4,27.9h2.3l-1.2,1.2
	L33.4,27.9z M27.2,9.6c0-2.8,2.3-5.1,5.1-5.1h9.5v4.4h-6.6v0.7c0,1.2-1,2.2-2.2,2.2h-5.9V9.6z M27.2,17.7v-4.4h5.9
	c1.7,0,3.2-1.2,3.6-2.9h5.2v7.3c0,3-1.8,5.7-4.7,6.8c-0.3,0.1-0.5,0.4-0.5,0.7v1.3h-4.4v-1.3c0-0.3-0.2-0.6-0.5-0.7
	C29,23.4,27.2,20.7,27.2,17.7z M31.3,27.9l2.2,2.2l-1.7,1.7l-0.1,0.1l-3-4H31.3z M11.8,31.6c0-0.4,0.3-0.7,0.7-0.7c0,0,0,0,0,0h2.9
	c0.4,0,0.7,0.3,0.7,0.7l0,0v0.7h-4.4V31.6z M23.5,45.5H4.5v-5.1h7.3v2.2c0,0.4,0.3,0.7,0.7,0.7c0,0,0,0,0,0h2.9
	c0.4,0,0.7-0.3,0.7-0.7l0,0v-2.2h7.3V45.5z M13.3,41.9v-1.5h1.5v1.5L13.3,41.9z M23.5,38.9H4.5v-5.1h19.1V38.9z M25,45.5V33.1
	c0-0.4-0.3-0.7-0.7-0.7h0h-0.7v-0.7c0-1.9,1.4-3.5,3.3-3.6l4.2,5.5c0.1,0.2,0.3,0.3,0.5,0.3h0.1c0.2,0,0.4-0.1,0.5-0.2l0.2-0.2
	l0.7,0.7l-1.4,8.4c0,0.2,0,0.4,0.1,0.6l1.9,2.5L25,45.5z M33.1,42.4l1.3-7.9h0.2l1.3,7.9l-1.4,1.9L33.1,42.4z M45.5,45.5H35.5
	l1.9-2.5c0.1-0.2,0.2-0.4,0.1-0.6l-1.4-8.4l0.7-0.7l0.2,0.2c0.1,0.1,0.3,0.2,0.5,0.2h0.1c0.2,0,0.4-0.1,0.5-0.3l4.2-5.5
	c1.8,0.2,3.2,1.8,3.2,3.6V45.5z"/>
</svg>
