<?xml version="1.0" encoding="utf-8"?>
<!-- Generator: Adobe Illustrator 21.0.0, SVG Export Plug-In . SVG Version: 6.00 Build 0)  -->
<svg version="1.1" id="Layer_1" xmlns="http://www.w3.org/2000/svg" xmlns:xlink="http://www.w3.org/1999/xlink" x="0px" y="0px"
	 viewBox="0 0 50 50" style="enable-background:new 0 0 50 50;" xml:space="preserve">
<style type="text/css">
	.st0{fill:#808080;stroke:#808080;stroke-width:0.2;stroke-miterlimit:10;}
</style>
<title>period</title>
<path class="st0" d="M43.2,40.2l-2.8-4.9V23.1c0-6.6-4.5-12.4-11-14V7.6c-0.1-2-1.7-3.5-3.7-3.4c-1.8,0.1-3.3,1.5-3.4,3.3V9
	c-6.4,1.6-10.9,7.4-10.9,14v12.2l-2.7,5c-0.2,0.4-0.1,0.9,0.3,1.2c0.1,0,0.3,0.1,0.4,0.1h11.4v0.1c0,2.4,1.9,4.3,4.3,4.3
	c0,0,0,0,0,0h1.4c2.3,0,4.3-1.9,4.3-4.2c0,0,0,0,0,0l0,0v-0.1h11.7c0.5,0,0.9-0.4,0.9-0.9C43.3,40.5,43.3,40.3,43.2,40.2L43.2,40.2z
	 M25.9,5.8c1,0,1.8,0.8,1.8,1.8l0,0v1.1c-1.2-0.2-2.4-0.2-3.7,0V7.6C24.1,6.6,24.9,5.8,25.9,5.8z M29.2,41.6c0,1.4-1.1,2.5-2.5,2.5
	h-1.4c-1.4,0-2.5-1.1-2.5-2.5v-0.1h6.5L29.2,41.6L29.2,41.6z M10.9,39.8l2.1-3.9c0.1-0.1,0.1-0.3,0.1-0.4V23.1
	c0-7.1,5.7-12.8,12.8-12.8S38.7,16,38.7,23.1v12.4c0,0.1,0,0.3,0.1,0.4l2.2,3.9H10.9z"/>
</svg>
