<?xml version="1.0" encoding="utf-8"?>
<!-- Generator: Adobe Illustrator 21.0.0, SVG Export Plug-In . SVG Version: 6.00 Build 0)  -->
<svg version="1.1" id="Layer_1" xmlns="http://www.w3.org/2000/svg" xmlns:xlink="http://www.w3.org/1999/xlink" x="0px" y="0px"
	 viewBox="0 0 50 50" style="enable-background:new 0 0 50 50;" xml:space="preserve">
<style type="text/css">
	.st0{fill:#808080;}
</style>
<title>resume_link</title>
<path class="st0" d="M39.8,8.5c-3.9-3.8-10.1-3.8-14,0L11.1,23.3c-0.5,0.5-0.5,1.2,0,1.7s1.2,0.5,1.7,0l14.7-14.8
	c3-2.9,7.7-2.9,10.7,0c2.9,3,2.9,7.7,0,10.7L17.6,41.7c-1.8,1.8-4.8,1.8-6.6,0c-1.8-1.8-1.9-4.7-0.1-6.6c0,0,0,0,0.1-0.1l19.8-19.9
	c0.7-0.7,1.8-0.7,2.5,0c0.7,0.7,0.7,1.8,0,2.5c0,0,0,0,0,0L14.3,36.7c-0.4,0.5-0.4,1.2,0,1.6c0.5,0.5,1.2,0.5,1.6,0l18.9-19.1
	c1.6-1.6,1.6-4.2,0-5.7c0,0,0,0,0,0c-1.6-1.5-4.1-1.5-5.8,0l-19.7,20c-2.7,2.7-2.7,7.1,0,9.9c2.7,2.7,7.1,2.7,9.9,0l20.6-20.8
	C43.6,18.7,43.6,12.4,39.8,8.5z"/>
</svg>
