<?xml version="1.0" encoding="utf-8"?>
<!-- Generator: Adobe Illustrator 21.0.0, SVG Export Plug-In . SVG Version: 6.00 Build 0)  -->
<svg version="1.1" id="Layer_1" xmlns="http://www.w3.org/2000/svg" xmlns:xlink="http://www.w3.org/1999/xlink" x="0px" y="0px"
	 viewBox="0 0 100 100" style="enable-background:new 0 0 100 100;" xml:space="preserve">
<title>1</title>
<g id="fresh_content">
	<path d="M39.9,53.4c1.2,0.7,2.5,1.1,3.9,1.1c1.3,0,2.6-0.4,3.7-1.2l2.5,2.5L50,66.8H38.7c-0.7,0.1-1.2,0.7-1.1,1.3
		c0.1,0.6,0.5,1.1,1.1,1.1h24.9c0.7-0.1,1.2-0.7,1.1-1.3c-0.1-0.6-0.5-1.1-1.1-1.1H52.4V55.9l2.5-2.4c1.2,0.8,2.7,1.2,4.1,1.2
		c1.6,0,3.2-0.5,4.6-1.3c4-2.4,7.5-8.7,4.5-18.5l0,0c-0.1-0.4-0.5-1.5-1.5-1.5h-0.1c-1.1,0-1.5,1.1-1.7,1.6
		c-0.7,1.8-2.1,2.3-5.1,3.2c-1.1,0.3-2.3,0.7-3.7,1.2c-2.3,1-3.9,3.1-4.2,5.5c-0.6,2.4-0.1,4.9,1.2,7l-1.9,1.8l-2-2
		c0.9-1.7,1.1-3.6,0.7-5.4c-0.3-2.1-1.7-3.8-3.6-4.6c-1.1-0.4-2.1-0.7-3-1c-2.5-0.8-3.5-1.1-4.1-2.5c-0.1-0.4-0.6-1.5-1.7-1.4
		c-0.7,0-1.2,0.5-1.5,1.4C33.5,46.2,36.5,51.4,39.9,53.4L39.9,53.4z M54.2,45.4c0.2-1.6,1.3-3,2.7-3.7c1.3-0.5,2.5-0.9,3.5-1.2
		c2.5-0.8,4.5-1.4,5.8-3.2c1.8,7.4-0.9,12.1-3.9,13.9c-1.7,1.1-3.8,1.3-5.7,0.4l4.9-4.8c0.5-0.4,0.6-1.2,0.2-1.7
		c-0.4-0.5-1.2-0.6-1.7-0.2c-0.1,0-0.1,0.1-0.1,0.1l-5,4.9C54,48.6,53.8,47,54.2,45.4L54.2,45.4z M37.9,40.6
		c1.1,1.3,2.8,1.8,4.6,2.3c0.8,0.3,1.9,0.6,2.9,0.9c1.1,0.6,1.9,1.6,2.1,2.9c0.2,1,0.2,2.1-0.2,3.1l-2.6-2.6
		c-0.5-0.5-1.3-0.4-1.7,0.1c-0.4,0.5-0.4,1.2,0,1.7l2.7,2.7c-1.5,0.7-3.2,0.6-4.5-0.3C38.8,49.9,36.7,46.3,37.9,40.6L37.9,40.6z"/>
	<path d="M70.4,72.5H32c-0.7-0.1-1.3,0.4-1.3,1.1c-0.1,0.7,0.4,1.3,1.1,1.3c0.1,0,0.1,0,0.2,0h38.4c0.7,0.1,1.3-0.4,1.3-1.1
		c0.1-0.7-0.4-1.3-1.1-1.3C70.6,72.5,70.5,72.5,70.4,72.5z"/>
	<path d="M77.3,13.2H22.7c-2.4,0-4.4,2-4.4,4.4c0,0,0,0,0,0v66.9c0,2.4,2,4.4,4.4,4.4l0,0h54.6c2.4,0,4.4-2,4.4-4.4l0,0V17.6
		C81.7,15.2,79.7,13.2,77.3,13.2L77.3,13.2L77.3,13.2z M22.7,15.6h54.6c1.1,0,1.9,0.9,1.9,2c0,0,0,0,0,0v9.3H20.7v-9.3
		C20.7,16.5,21.6,15.6,22.7,15.6L22.7,15.6z M77.3,86.4H22.7c-1.1,0-1.9-0.9-1.9-1.9V29.2h58.5v55.3C79.3,85.5,78.4,86.4,77.3,86.4
		C77.3,86.4,77.3,86.4,77.3,86.4z"/>
	<path d="M73.2,22c0.7-0.1,1.2-0.7,1.1-1.3c-0.1-0.6-0.5-1.1-1.1-1.1l0,0c-0.7,0-1.2,0.5-1.2,1.2c0,0,0,0,0,0
		C72,21.4,72.5,21.9,73.2,22z"/>
	<path d="M66.1,22c0.7-0.1,1.2-0.7,1.1-1.3c-0.1-0.6-0.5-1.1-1.1-1.1l0,0c-0.7,0-1.2,0.5-1.2,1.2c0,0,0,0,0,0
		C64.9,21.4,65.4,22,66.1,22L66.1,22z"/>
	<path d="M58.9,22c0.7-0.1,1.2-0.7,1.1-1.3c-0.1-0.6-0.5-1.1-1.1-1.1l0,0c-0.7,0-1.2,0.5-1.2,1.2c0,0,0,0,0,0
		C57.7,21.4,58.2,21.9,58.9,22z"/>
	<path d="M27.3,22h20.1c0.7,0.1,1.3-0.4,1.3-1.1c0.1-0.7-0.4-1.3-1.1-1.3c-0.1,0-0.1,0-0.2,0H27.3c-0.7,0.1-1.2,0.7-1.1,1.3
		C26.2,21.4,26.7,21.9,27.3,22z"/>
</g>
</svg>
