<svg id="Layer_1" data-name="Layer 1" xmlns="http://www.w3.org/2000/svg" viewBox="0 0 100 100"><title>2</title><path d="M87.88,78.8h0L68.26,59.17a29.89,29.89,0,1,0-8.76,8.77L79.12,87.57a1.24,1.24,0,0,0,1.75,0l7-7A1.24,1.24,0,0,0,87.88,78.8ZM59,65.34a27.29,27.29,0,1,1,6.71-6.71A27.22,27.22,0,0,1,59,65.34Zm21,19.6L61.56,66.5l.59-.49.49-.41c.59-.51,1.17-1,1.71-1.57s1.06-1.11,1.56-1.7l.42-.5c.16-.2.33-.38.48-.58L85.25,79.68Z"/><path d="M57.34,30.71a1.24,1.24,0,0,0-1.51.9L50.69,52.16,44.57,32.78a1.25,1.25,0,0,0-.81-.82,1.24,1.24,0,0,0-1.55.82L36.09,52.16,31,31.61v0a1.24,1.24,0,1,0-2.4.62L34.74,57a1.25,1.25,0,0,0,1.17.94,1.21,1.21,0,0,0,1.22-.87l6.26-19.82,6.26,19.82a1.23,1.23,0,0,0,1.18.87h0A1.25,1.25,0,0,0,52,57l6.2-24.81A1.25,1.25,0,0,0,57.34,30.71Z"/></svg>