<?xml version="1.0" encoding="utf-8"?>
<!-- Generator: Adobe Illustrator 21.0.0, SVG Export Plug-In . SVG Version: 6.00 Build 0)  -->
<svg version="1.1" id="Layer_1" xmlns="http://www.w3.org/2000/svg" xmlns:xlink="http://www.w3.org/1999/xlink" x="0px" y="0px"
	 viewBox="0 0 100 100" style="enable-background:new 0 0 100 100;" xml:space="preserve">
<style type="text/css">
	.st0{stroke:#231F20;stroke-width:0.5;stroke-miterlimit:10;}
</style>
<title>3</title>
<path class="st0" d="M74.8,82.7v2.3c0,1.5-0.1,1.5-1.6,1.5H60.9c-8.2,0-16.5,0-24.7,0c-0.7,0-1.4-0.2-1.8-0.7
	C30,81.4,25.5,77,21.1,72.6c-0.4-0.4-0.6-0.9-0.6-1.5c0-18.7,0-37.3,0-56c0-1.2,0.2-1.4,1.4-1.4h51.7c1.2,0,1.5,0.2,1.5,1.5
	c0,14.3,0,28.6,0,42.8c0.1,1.1,0.3,2.1,0.6,3.2c0.4,2.3,0.1,4.7-0.9,6.8c-0.2,0.4-0.2,0.9,0.2,1.2c2.6,2.9,5.2,5.7,7.9,8.6
	c1.7,1.9,1.6,4.8-0.3,6.5c-1.9,1.7-4.8,1.6-6.5-0.3l0,0L74.8,82.7z M73.1,85c0-1.3,0-2.6,0-3.9c0-0.2-0.1-0.4-0.3-0.5
	c-1.6-1.8-3.2-3.5-4.8-5.3c-0.2-0.3-0.6-0.4-1-0.2c-2.1,0.8-4.4,0.9-6.5,0.4c-5.1-1.2-8.4-4.3-9.6-9.3c-1.3-4.8,0.4-9.8,4.3-12.8
	c5-4,12.1-3.6,16.7,0.8c0.4,0.4,0.9,0.8,1.4,1.3V15.6H22.4v55.2h12.7c1.2,0,1.4,0.2,1.4,1.4V85L73.1,85z M63,74
	c6,0.1,10.9-4.7,10.9-10.7c0,0,0,0,0,0c0.1-6-4.7-11-10.7-11c-6-0.1-11,4.7-11,10.7c-0.1,6,4.7,11,10.7,11C62.9,74,62.9,74,63,74z
	 M69.5,74.3C69.5,74.2,69.5,74.2,69.5,74.3c2.7,3,5.4,5.9,8.1,8.9c0.3,0.3,0.7,0.5,1.1,0.7c1.2,0.4,2.5-0.1,3.2-1.1
	c0.7-1.1,0.6-2.5-0.2-3.5c-1.7-1.9-3.4-3.7-5.1-5.6l-2.9-3.2L69.5,74.3z M23.9,72.5l10.8,10.9V72.5H23.9z"/>
<path class="st0" d="M36.2,60.4h9.3c1,0,1.3,0.3,1.3,1.2c0,1,0,2,0,3S46.5,66,45.5,66H26.9c-1.1,0-1.3-0.3-1.3-1.3v-2.9
	c0-1.1,0.3-1.3,1.3-1.3L36.2,60.4z M44.9,64.1v-1.9H27.4v1.9H44.9z"/>
<path class="st0" d="M31,31.3c1.4,0,2.9,0,4.3,0c0.4,0,0.9,0.2,1.2,0.5c2.7,2.7,5.4,5.4,8,8.1c0.9,0.9,0.8,1.2-0.2,1.9
	c-5.5,3.8-13.1,2.3-16.8-3.2c-0.9-1.4-1.6-2.9-1.9-4.5c-0.1-0.5-0.1-1-0.2-1.6c-0.1-0.9,0.2-1.2,1.1-1.2L31,31.3L31,31.3z
	 M42.9,40.7c-0.1-0.2-0.2-0.2-0.2-0.3c-2.4-2.4-4.7-4.7-7.1-7.1c-0.2-0.2-0.5-0.3-0.8-0.3c-1.4,0-2.9,0-4.3,0h-3.2
	c0,2.9,2.3,6.4,5.3,8C35.8,42.8,39.8,42.7,42.9,40.7z"/>
<path class="st0" d="M49.7,32.3c-0.1,2.1-0.7,4.1-1.8,5.8c-0.5,0.8-1.1,0.9-1.7,0.2c-2.7-2.7-5.5-5.4-8.2-8.2
	c-0.3-0.3-0.4-0.6-0.4-1c0-2.8,0-5.7,0-8.5c-0.1-0.5,0.2-0.9,0.7-1c0.1,0,0.2,0,0.3,0C45.1,20.3,49.9,25.8,49.7,32.3z M39.3,21.4
	c0,2.3,0,4.6,0,6.8c0,0.4,0.2,0.8,0.4,1c2.2,2.2,4.3,4.4,6.5,6.6c0.2,0.2,0.3,0.3,0.5,0.5C50.5,29.3,45,22.1,39.3,21.4z"/>
<path class="st0" d="M34.8,57.8h-7.9c-1,0-1.2-0.3-1.2-1.3s0-2.2,0-3.2c0-0.8,0.3-1.1,1.1-1.1h16c0.8,0,1.1,0.3,1.1,1.1
	c0,1.1,0,2.2,0,3.3c0,0.8-0.3,1.1-1.2,1.1C40.1,57.8,37.4,57.8,34.8,57.8z M27.4,56h14.5v-1.9H27.4V56z"/>
<path class="st0" d="M30.7,29h-3.6c-1,0-1.3-0.4-1-1.3c1.2-3.7,4.2-6.6,7.9-7.7c1-0.3,1.4,0,1.4,1v6.7c0,1-0.3,1.3-1.3,1.3L30.7,29z
	 M33.6,27.3V22c-2.5,1-4.5,2.9-5.6,5.3L33.6,27.3z"/>
<path class="st0" d="M70,39.2c0,2.4,0,4.8,0,7.1c0,0.8-0.3,1.2-0.9,1.2s-1-0.5-1-1.2c0-2.5,0-5.1,0-7.6c0-2.3,0-4.5,0-6.8
	c0-0.4,0.2-0.8,0.4-1.1c0.6-0.5,1.4,0,1.4,0.9c0,2.3,0,4.6,0,6.9L70,39.2z"/>
<path class="st0" d="M65.1,40.6v5.8c0,0.7-0.3,1.1-0.9,1.1c-0.6,0-0.9-0.4-0.9-1.2c0-3.9,0-7.8,0-11.7c0-0.4,0.2-0.7,0.5-1
	c0.3-0.2,0.6-0.2,0.8,0c0.2,0.3,0.4,0.6,0.4,1C65.1,36.7,65.1,38.6,65.1,40.6z"/>
<path class="st0" d="M60.1,42.3c0,1.4,0,2.7,0,4.1c0,0.7-0.3,1.2-0.9,1.2c-0.6,0-1-0.6-1-1.1c0,0,0,0,0,0c0-2.8,0-5.6,0-8.5
	c0-0.7,0.3-1.1,0.9-1.1c0.6,0,0.9,0.4,0.9,1.1C60.1,39.4,60.1,40.8,60.1,42.3z"/>
<path class="st0" d="M53.4,44c0-0.8,0-1.6,0-2.4s0.4-1.1,1-1.1s0.9,0.4,0.9,1.1c0,1.6,0,3.3,0,4.8c0,0.7-0.4,1.1-0.9,1.1
	s-0.9-0.5-0.9-1.1C53.5,45.6,53.5,44.8,53.4,44L53.4,44z"/>
<path class="st0" d="M48.5,45.4c0-0.5,0-1,0-1.4c0-0.5,0.3-0.8,0.8-0.9c0,0,0,0,0,0c0.4-0.1,0.8,0.2,0.9,0.6c0,0,0,0.1,0,0.1
	c0.1,1.1,0.1,2.1,0,3.2c0,0.4-0.3,0.7-0.7,0.7c-0.1,0-0.2,0-0.2,0c-0.4-0.2-0.7-0.5-0.8-0.9C48.4,46.3,48.4,45.8,48.5,45.4z"/>
<path class="st0" d="M63,55.1c2.2,0,4.3,0.9,5.9,2.4c0.4,0.3,0.5,0.8,0.2,1.2c0,0-0.1,0.1-0.1,0.1c-0.4,0.4-0.9,0.4-1.4-0.1
	c-1.2-1.3-3-2-4.8-1.9c-1.4,0.1-2.8,0.6-3.9,1.5c-0.6,0.5-1.2,0.5-1.5,0.1c-0.3-0.5-0.2-1,0.4-1.4C59.3,55.7,61.2,55.1,63,55.1z"/>
</svg>
