<svg id="Layer_1" data-name="Layer 1" xmlns="http://www.w3.org/2000/svg" viewBox="0 0 100 100"><defs><style>.cls-1{fill:#010101;}</style></defs><title>4</title><path class="cls-1" d="M83.58,35.71H70.87a1.12,1.12,0,0,1,0-2.24H82.46V25.79a5.2,5.2,0,0,0-5.17-5.2,1.12,1.12,0,0,1,0-2.24,7.44,7.44,0,0,1,7.41,7.44v8.8A1.12,1.12,0,0,1,83.58,35.71Z"/><path class="cls-1" d="M63.33,85.4h-37a10.44,10.44,0,0,1-7.82-3.23c-3.51-3.83-3.19-9.61-3.17-9.85a1.13,1.13,0,0,1,1.12-1h7.41l30.73-.13h0a1.13,1.13,0,0,1,1.12,1.18C55.45,77,56,80,57.46,81.59a5.31,5.31,0,0,0,4,1.45,16.6,16.6,0,0,0,1.82.13,1.12,1.12,0,1,1,0,2.23ZM17.54,73.51c.08,1.65.52,4.91,2.59,7.16a8.36,8.36,0,0,0,6.19,2.5H55.87l-.06-.06c-1.74-1.89-2.51-5-2.4-9.72Z"/><path d="M30.19,48.89a1.14,1.14,0,0,1-.71-.25l-1.64-1.35a1.11,1.11,0,0,1-.16-1.57,1.13,1.13,0,0,1,1.58-.16l.77.63,3-3.7a1.13,1.13,0,0,1,1.58-.16,1.11,1.11,0,0,1,.16,1.57l-3.71,4.58a1.13,1.13,0,0,1-.76.41Z"/><path d="M65.27,46.6H40.36a1.12,1.12,0,1,1,0-2.24H65.27a1.13,1.13,0,0,1,1.12,1.12A1.12,1.12,0,0,1,65.27,46.6Z"/><path d="M65.56,55.88H29.07a1.12,1.12,0,1,1,0-2.24H65.56a1.12,1.12,0,0,1,0,2.24Z"/><path d="M65.56,65.16H29.07a1.12,1.12,0,1,1,0-2.24H65.56a1.12,1.12,0,0,1,0,2.24Z"/><path d="M65.27,37.41H28.55a1.12,1.12,0,0,1-1.12-1.12V26.76a1.12,1.12,0,0,1,1.12-1.12H65.27a1.12,1.12,0,0,1,1.12,1.12v9.53A1.12,1.12,0,0,1,65.27,37.41Zm-35.6-2.24H64.15V27.88H29.67Z"/><path class="cls-1" d="M62.59,85.28a1.12,1.12,0,1,1,0-2.24,7.18,7.18,0,0,0,7.16-7.18V25.67a4.89,4.89,0,0,1,0-.66,7.92,7.92,0,0,1,2-4.47c-10,0-32.38-.06-45.54-.07A2.53,2.53,0,0,0,23.71,23l-.12,49.39a1.12,1.12,0,0,1-1.12,1.12h0a1.12,1.12,0,0,1-1.12-1.12L21.47,23a4.77,4.77,0,0,1,4.76-4.77l25.35,0c6.34,0,12.68,0,17.43,0l5.75,0,1.67,0a5.47,5.47,0,0,1,.57,0v0c.83.08.9.28,1,.84a1.12,1.12,0,0,1-1.15,1.37c-2.81-.16-4.6,2.33-4.86,4.74a3.25,3.25,0,0,0,0,.36V75.86A9.42,9.42,0,0,1,62.59,85.28Z"/></svg>