<svg id="Layer_1" data-name="Layer 1" xmlns="http://www.w3.org/2000/svg" viewBox="0 0 100 100"><title>5</title><path d="M26.76,66.38H20.12A3.32,3.32,0,0,0,16.8,69.7V84.09a1.1,1.1,0,0,0,1.11,1.1H29a1.11,1.11,0,0,0,1.11-1.1V69.7A3.32,3.32,0,0,0,26.76,66.38ZM27.87,83H19V69.7a1.11,1.11,0,0,1,1.11-1.11h6.64a1.11,1.11,0,0,1,1.11,1.11V83Z"/><path d="M44.47,50.89H37.83a3.31,3.31,0,0,0-3.32,3.32V84.09a1.1,1.1,0,0,0,1.1,1.1H46.68a1.11,1.11,0,0,0,1.11-1.1V54.21A3.32,3.32,0,0,0,44.47,50.89ZM45.57,83H36.72V54.21a1.11,1.11,0,0,1,1.11-1.11h6.64a1.1,1.1,0,0,1,1.1,1.11V83Z"/><path d="M62.17,57.53H55.53a3.32,3.32,0,0,0-3.32,3.32V84.09a1.11,1.11,0,0,0,1.11,1.1H64.39a1.1,1.1,0,0,0,1.1-1.1V60.85A3.31,3.31,0,0,0,62.17,57.53ZM63.28,83H54.43V60.85a1.1,1.1,0,0,1,1.1-1.11h6.64a1.11,1.11,0,0,1,1.11,1.11V83Z"/><path d="M79.88,48.67H73.24A3.32,3.32,0,0,0,69.92,52v32.1A1.11,1.11,0,0,0,71,85.19H82.09a1.11,1.11,0,0,0,1.11-1.1V52A3.32,3.32,0,0,0,79.88,48.67ZM81,83H72.13V52a1.11,1.11,0,0,1,1.11-1.1h6.64A1.11,1.11,0,0,1,81,52V83Z"/><path d="M71.6,32.05a6.62,6.62,0,1,0-1.18-1.88l-6.61,4.14a6.61,6.61,0,0,0-9.52-.41L47,28.47a6.64,6.64,0,1,0-10.95,1.25l-9.28,11a6.64,6.64,0,1,0,1.69,1.42l9.28-11a6.58,6.58,0,0,0,7.93-.9L53,35.67a6.64,6.64,0,1,0,12,.51Zm5-8.83a4.43,4.43,0,1,1-4.43,4.43A4.43,4.43,0,0,1,76.56,23.22ZM23.44,50.89a4.43,4.43,0,1,1,4.43-4.43A4.43,4.43,0,0,1,23.44,50.89Zm17.71-21a4.43,4.43,0,1,1,4.42-4.43A4.43,4.43,0,0,1,41.15,29.86Zm17.7,13.28a4.43,4.43,0,1,1,4.43-4.43A4.42,4.42,0,0,1,58.85,43.14Z"/></svg>