<?xml version="1.0" encoding="utf-8"?>
<!-- Generator: Adobe Illustrator 23.0.3, SVG Export Plug-In . SVG Version: 6.00 Build 0)  -->
<svg version="1.1" id="Layer_1" xmlns="http://www.w3.org/2000/svg" xmlns:xlink="http://www.w3.org/1999/xlink" x="0px" y="0px"
	 viewBox="0 0 82 80" style="enable-background:new 0 0 82 80;" xml:space="preserve">
<style type="text/css">
	.st0{fill:#6AAE34;}
	.st1{fill:#FEFFFD;}
	.st2{fill:#F6F7F5;}
	.st3{fill:#F4F4F4;}
	.st4{fill:#F9F9F9;}
	.st5{fill:#FBFFF8;}
</style>
<title>Asset 4</title>
<g>
	<g id="Layer_1-2">
		<path class="st0" d="M20.3,0h41.4C72.9,0,82,9.1,82,20.3v39.4C82,70.9,72.9,80,61.7,80H20.3C9.1,80,0,70.9,0,59.7V20.3
			C0,9.1,9.1,0,20.3,0z"/>
		<path class="st1" d="M52.5,56.5l-4.8-4.8c-1.4-1.4-3.7-1.4-5,0l-2.1,2.1c-4.9-2.5-8.8-6.5-11.4-11.3l2.1-2.1c1.4-1.4,1.4-3.7,0-5
			l-4.8-4.8c-1.4-1.4-3.6-1.4-5,0l-3.9,3.9c-2,2-2.1,5.6-0.2,10c2.2,4.6,5.2,8.8,8.9,12.4c3.6,3.7,7.8,6.7,12.4,8.9
			c1.8,0.8,3.7,1.3,5.7,1.4c1.6,0.1,3.1-0.5,4.2-1.6l3.9-3.9C53.9,60.2,53.9,58,52.5,56.5L52.5,56.5z M50.4,59.4l-3.9,3.9
			c-1,1-3.5,0.9-6.7-0.5c-4.3-2-8.2-4.8-11.5-8.2c-3.4-3.3-6.2-7.2-8.2-11.5c-1.3-3.1-1.5-5.6-0.5-6.7l3.9-3.9
			c0.2-0.2,0.5-0.2,0.7,0l4.8,4.8c0.2,0.2,0.2,0.5,0,0.7c0,0,0,0,0,0l-3.6,3.7l0.5,1c3,6.2,8,11.2,14.2,14.2l1,0.5l3.7-3.7
			c0.2-0.2,0.5-0.2,0.7,0c0,0,0,0,0,0l4.8,4.8c0.1,0.1,0.1,0.2,0.2,0.4C50.6,59.2,50.5,59.3,50.4,59.4z"/>
		<path class="st2" d="M63.3,18.9c-6.4-5.3-15.7-5.3-22.1,0c-5.4,4.3-6.3,12.2-2,17.6c0.6,0.7,1.2,1.4,2,2c0.5,0.5,1.1,0.9,1.7,1.3
			c-1.1,1.7-2.4,3.2-3.9,4.6c3.1-0.3,6.2-1.1,9-2.4c1.4,0.3,2.8,0.5,4.2,0.5c4,0,7.9-1.4,11-3.9c5.4-4.3,6.3-12.2,2-17.6
			C64.7,20.2,64,19.5,63.3,18.9L63.3,18.9z M52.3,39.4c-7,0-12.7-4.8-12.7-10.7s5.7-10.7,12.7-10.7S65,22.8,65,28.7
			S59.3,39.4,52.3,39.4L52.3,39.4z"/>
		<circle class="st3" cx="52.3" cy="28.7" r="2"/>
		<circle class="st4" cx="45.2" cy="28.7" r="2"/>
		<circle class="st5" cx="59.4" cy="28.7" r="2"/>
	</g>
</g>
</svg>
