<svg xmlns="http://www.w3.org/2000/svg" xmlns:xlink="http://www.w3.org/1999/xlink" viewBox="0 0 82 80"><defs><style>.cls-1{fill:url(#linear-gradient);}.cls-2{fill:#fff;stroke:#fff;stroke-miterlimit:10;stroke-width:0.25px;}</style><linearGradient id="linear-gradient" x1="41" y1="80" x2="41" gradientUnits="userSpaceOnUse"><stop offset="0" stop-color="#008b52"/><stop offset="1" stop-color="#209f85"/></linearGradient></defs><title>Asset 2</title><g id="Layer_2" data-name="Layer 2"><g id="Layer_1-2" data-name="Layer 1"><rect class="cls-1" width="82" height="80" rx="20.29"/><path class="cls-2" d="M66.75,36.42l-2.92-.27a15.35,15.35,0,0,0-1.42-3.37l1.85-2.24a1.36,1.36,0,0,0-.08-1.83L60.53,25a1.37,1.37,0,0,0-1.85-.1l-2.23,1.85a16,16,0,0,0-3.36-1.42l-.28-2.91a1.36,1.36,0,0,0-1.37-1.23H46.89V17.1a1.37,1.37,0,1,0-2.74,0V24H39a7.13,7.13,0,0,0-5.65,2.8l-5.64,7.44-9.5,2.59A5.67,5.67,0,0,0,14,42.25v3.63a5.68,5.68,0,0,0,5.69,5.65h.74a7.17,7.17,0,0,0,13.83,0h9.89V62.9a1.37,1.37,0,1,0,2.74,0V59.61h4.55a1.36,1.36,0,0,0,1.37-1.24l.28-2.92A15.84,15.84,0,0,0,56.46,54l2.23,1.85a1.36,1.36,0,0,0,1.84-.08l3.69-3.68a1.39,1.39,0,0,0,.08-1.85L62.45,48a16,16,0,0,0,1.42-3.36l2.88-.27A1.39,1.39,0,0,0,68,43V37.78A1.38,1.38,0,0,0,66.75,36.42ZM27.34,54.09a4.43,4.43,0,1,1,4.42-4.43A4.44,4.44,0,0,1,27.34,54.09Zm16.81-5.32h-9.7a7.17,7.17,0,0,0-14.23,0h-.55a2.92,2.92,0,0,1-2.94-2.9V42.25a3,3,0,0,1,2.16-2.83l10-2.71a1.36,1.36,0,0,0,.73-.49l6-7.8A4.36,4.36,0,0,1,39,26.71h5.16Zm2.74-14.18a6.13,6.13,0,1,1,0,11.63Zm18.37,7.18h0L62.65,42a1.38,1.38,0,0,0-1.2,1.07,13,13,0,0,1-1.82,4.31A1.35,1.35,0,0,0,59.72,49l1.67,2L59.48,53l-2-1.66a1.37,1.37,0,0,0-1.63-.08A12.7,12.7,0,0,1,51.53,53a1.35,1.35,0,0,0-1.07,1.21l-.25,2.63H46.89v-7.8a8.87,8.87,0,0,0,3.85-17.32,8.63,8.63,0,0,0-3.85,0V24H50.2l.26,2.62a1.37,1.37,0,0,0,1.07,1.21,13.26,13.26,0,0,1,4.3,1.81,1.35,1.35,0,0,0,1.62-.1l2-1.67,1.89,1.9-1.68,2.05a1.35,1.35,0,0,0-.09,1.63,12.34,12.34,0,0,1,1.81,4.29,1.38,1.38,0,0,0,1.22,1.07l2.65.26Z"/></g></g></svg>