<svg xmlns="http://www.w3.org/2000/svg" xmlns:xlink="http://www.w3.org/1999/xlink" viewBox="0 0 112.34 108"><defs><style>.cls-1{fill:url(#linear-gradient);}.cls-2{fill:url(#linear-gradient-2);}.cls-3{fill:url(#linear-gradient-3);}.cls-4{fill:url(#linear-gradient-4);}.cls-5{fill:#fff;}.cls-6{fill:url(#linear-gradient-5);}.cls-7{fill:url(#linear-gradient-6);}</style><linearGradient id="linear-gradient" x1="68.13" y1="-348.91" x2="122.36" y2="-294.68" gradientTransform="translate(-0.62 413.71)" gradientUnits="userSpaceOnUse"><stop offset="0" stop-color="#a7f3ce"/><stop offset="1" stop-color="#61db99"/></linearGradient><linearGradient id="linear-gradient-2" x1="85.88" y1="-331.16" x2="62.85" y2="-354.19" gradientTransform="translate(-0.62 413.71)" gradientUnits="userSpaceOnUse"><stop offset="0" stop-color="#61db99" stop-opacity="0"/><stop offset="1" stop-color="#009e74"/></linearGradient><linearGradient id="linear-gradient-3" x1="29.18" y1="-374.38" x2="86.43" y2="-317.12" gradientTransform="translate(-0.62 413.71)" gradientUnits="userSpaceOnUse"><stop offset="0" stop-color="#62e1fb"/><stop offset="1" stop-color="#00a2f3"/></linearGradient><linearGradient id="linear-gradient-4" x1="39.94" y1="-349.24" x2="9.8" y2="-379.38" gradientTransform="translate(-0.62 413.71)" gradientUnits="userSpaceOnUse"><stop offset="0" stop-color="#00a2f3" stop-opacity="0"/><stop offset="1" stop-color="#0075cd"/></linearGradient><linearGradient id="linear-gradient-5" x1="59.65" y1="-349.24" x2="29.51" y2="-379.39" xlink:href="#linear-gradient-4"/><linearGradient id="linear-gradient-6" x1="79.37" y1="-349.24" x2="49.22" y2="-379.39" xlink:href="#linear-gradient-4"/></defs><title>Asset 1</title><g id="Layer_2" data-name="Layer 2"><g id="Layer_1-2" data-name="Layer 1"><path class="cls-1" d="M74.68,33.84a37.12,37.12,0,0,1,36.79,45.1,67.22,67.22,0,0,0-1.68,14.48v9.42a2.61,2.61,0,0,1-2.61,2.62H97.76a67.21,67.21,0,0,0-14.48,1.67,37.09,37.09,0,1,1-8.6-73.29Z"/><path class="cls-2" d="M74.68,33.84a37.12,37.12,0,0,1,36.79,45.1,67.22,67.22,0,0,0-1.68,14.48v9.42a2.61,2.61,0,0,1-2.61,2.62H97.76a67.21,67.21,0,0,0-14.48,1.67,37.09,37.09,0,1,1-8.6-73.29Z"/><path class="cls-3" d="M45.88,0A45.21,45.21,0,0,0,1.06,54.94a82,82,0,0,1,2,17.65V84.07a3.19,3.19,0,0,0,3.18,3.18H17.76a82,82,0,0,1,17.65,2A45.18,45.18,0,1,0,45.88,0Z"/><path class="cls-4" d="M29,42.75a7,7,0,1,0-9.88,9.88l15.1,15.1a7,7,0,1,0,9.88-9.88Z"/><circle class="cls-5" cx="23.91" cy="47.54" r="7"/><path class="cls-6" d="M48.79,42.75a7,7,0,1,0-9.88,9.88L54,67.73a7,7,0,1,0,9.88-9.88Z"/><circle class="cls-5" cx="43.7" cy="47.54" r="7"/><path class="cls-7" d="M68.58,42.75a7,7,0,1,0-9.88,9.88l15.09,15.1a7,7,0,1,0,9.89-9.88Z"/><circle class="cls-5" cx="63.49" cy="47.54" r="7"/></g></g></svg>