<svg id="Layer_1" data-name="Layer 1" xmlns="http://www.w3.org/2000/svg" viewBox="0 0 102 102"><defs><style>.cls-1{fill:#fff;}</style></defs><title>Artboard 1</title><path class="cls-1" d="M79.88,25.41a1.64,1.64,0,1,0,1.64,1.64A1.64,1.64,0,0,0,79.88,25.41Z"/><path class="cls-1" d="M22.12,25.41a1.64,1.64,0,1,0,1.65,1.64A1.64,1.64,0,0,0,22.12,25.41Z"/><path class="cls-1" d="M91.36,45.09h-2A37.48,37.48,0,0,0,85,31.69a1.64,1.64,0,1,0-2.87,1.6,34,34,0,0,1,4,11.8H84.8a1.64,1.64,0,0,0-1.64,1.64V53.3a1.64,1.64,0,0,0,1.64,1.64h6.56A1.64,1.64,0,0,0,93,53.3V46.73A1.64,1.64,0,0,0,91.36,45.09Zm-1.64,6.57H86.44V48.38h3.28Z"/><path class="cls-1" d="M69,57v-.08s0-.07,0-.1a.13.13,0,0,1,0-.06l0-.12s0,0,0,0l0-.14v0l-.07-.16-16.41-30a1.64,1.64,0,0,0-2.88,0l-16.41,30-.07.16v0l0,.14s0,0,0,0l0,.12a.13.13,0,0,1,0,.06s0,.07,0,.1V57s0,0,0,.06v0a.22.22,0,0,1,0,.08.38.38,0,0,0,0,.1.13.13,0,0,0,0,.06.43.43,0,0,0,0,.11s0,0,0,.06,0,.07,0,.11,0,0,0,0L39,73.33a4.76,4.76,0,0,0-1.3.93,4.91,4.91,0,0,0,1.84,8.12v9A1.63,1.63,0,0,0,41.16,93H60.84a1.63,1.63,0,0,0,1.64-1.64v-9a4.76,4.76,0,0,0,1.84-1.16A4.91,4.91,0,0,0,63,73.33l5.92-15.68a0,0,0,0,0,0,0s0-.07,0-.11,0,0,0-.06a.36.36,0,0,0,0-.11.13.13,0,0,0,0-.06.38.38,0,0,0,0-.1.22.22,0,0,1,0-.08v0S69,57,69,57ZM51,55.43a1.64,1.64,0,1,1-1.64,1.64A1.65,1.65,0,0,1,51,55.43Zm8.2,34.29H42.8V82.66H59.2ZM62,78.9a1.63,1.63,0,0,1-1.16.48H41.16a1.64,1.64,0,1,1,0-3.28H60.85A1.64,1.64,0,0,1,62,78.9Zm-2.29-6.08H42.29L37,58.71h4.19a1.64,1.64,0,0,0,0-3.28h-3.8l12-22v19a4.92,4.92,0,1,0,3.28,0v-19l12,22h-3.8a1.64,1.64,0,0,0,0,3.28H65Z"/><path class="cls-1" d="M19.25,31.05a1.64,1.64,0,0,0-2.23.64,37.48,37.48,0,0,0-4.42,13.4h-2A1.64,1.64,0,0,0,9,46.73V53.3a1.64,1.64,0,0,0,1.64,1.64H17.2a1.64,1.64,0,0,0,1.64-1.64V46.73a1.64,1.64,0,0,0-1.64-1.64H15.91a34,34,0,0,1,4-11.8A1.64,1.64,0,0,0,19.25,31.05ZM15.56,51.66H12.28V48.38h3.28Z"/><path class="cls-1" d="M88.08,9a4.93,4.93,0,0,0-4.64,3.28H55.92V10.64A1.63,1.63,0,0,0,54.28,9H47.72a1.63,1.63,0,0,0-1.64,1.64v1.64H18.56a4.92,4.92,0,1,0,0,3.28h16.5a36.64,36.64,0,0,0-9.35,5.59,1.64,1.64,0,1,0,2.11,2.51,37,37,0,0,1,18.26-7.75V17.2a1.63,1.63,0,0,0,1.64,1.64h6.56a1.63,1.63,0,0,0,1.64-1.64V15.91a37,37,0,0,1,18.26,7.75,1.64,1.64,0,1,0,2.11-2.51,36.64,36.64,0,0,0-9.35-5.59h16.5A4.92,4.92,0,1,0,88.08,9ZM13.92,15.56a1.64,1.64,0,1,1,1.64-1.64A1.64,1.64,0,0,1,13.92,15.56Zm38.72-1.64v1.64H49.36V12.28h3.28Zm35.44,1.64a1.64,1.64,0,1,1,1.64-1.64A1.63,1.63,0,0,1,88.08,15.56Z"/></svg>