<svg xmlns="http://www.w3.org/2000/svg" xmlns:xlink="http://www.w3.org/1999/xlink" viewBox="0 0 76.2 104"><defs><style>.cls-1{fill:url(#linear-gradient);}.cls-2{fill:#ebeff0;}.cls-3{fill:url(#linear-gradient-2);}.cls-4{fill:url(#linear-gradient-3);}.cls-5{fill:url(#linear-gradient-4);}</style><linearGradient id="linear-gradient" x1="-17.47" y1="242.33" x2="54.7" y2="170.16" gradientTransform="matrix(1, 0, 0, -1, 0.55, 248.67)" gradientUnits="userSpaceOnUse"><stop offset="0" stop-color="#b8a3dc"/><stop offset="1" stop-color="#7049bd"/></linearGradient><linearGradient id="linear-gradient-2" x1="68.91" y1="212.43" x2="61.09" y2="235.28" gradientTransform="matrix(1, 0, 0, -1, 0.55, 248.67)" gradientUnits="userSpaceOnUse"><stop offset="0" stop-color="#5531aa" stop-opacity="0"/><stop offset="1" stop-color="#5531aa"/></linearGradient><linearGradient id="linear-gradient-3" x1="55.34" y1="235.79" x2="64.42" y2="226.7" xlink:href="#linear-gradient"/><linearGradient id="linear-gradient-4" x1="2315.91" y1="153.53" x2="2315.91" y2="143.45" gradientTransform="translate(2362.93 248.67) rotate(180)" xlink:href="#linear-gradient-2"/></defs><title>Asset 6</title><g id="Layer_2" data-name="Layer 2"><g id="Layer_1-2" data-name="Layer 1"><path class="cls-1" d="M0,6.5v91A6.51,6.51,0,0,0,6.5,104H69.69a6.51,6.51,0,0,0,6.5-6.5V24A7.56,7.56,0,0,0,74,18.62L57.59,2.21A7.55,7.55,0,0,0,52.27,0H6.51A6.52,6.52,0,0,0,0,6.5Z"/><path class="cls-2" d="M31.37,69.66H58.88a1.87,1.87,0,0,0,1.87-1.87V63.21a1.87,1.87,0,0,0-1.87-1.87H31.37a1.87,1.87,0,0,0-1.87,1.87v4.58a1.87,1.87,0,0,0,1.87,1.87Z"/><path class="cls-2" d="M31.37,50.17H58.88a1.87,1.87,0,0,0,1.87-1.87V43.73a1.88,1.88,0,0,0-1.87-1.88H31.37a1.88,1.88,0,0,0-1.87,1.88V48.3a1.87,1.87,0,0,0,1.87,1.87Z"/><path class="cls-2" d="M31.37,89.15H58.88a1.88,1.88,0,0,0,1.87-1.88V82.7a1.87,1.87,0,0,0-1.87-1.87H31.37A1.87,1.87,0,0,0,29.5,82.7v4.57a1.88,1.88,0,0,0,1.87,1.88Z"/><circle class="cls-2" cx="19.67" cy="46.01" r="4.21"/><circle class="cls-2" cx="19.67" cy="65.5" r="4.21"/><circle class="cls-2" cx="19.67" cy="84.99" r="4.21"/><path class="cls-3" d="M57.58,2.21a7.53,7.53,0,0,0-3.47-2V21.42L76.2,43.51V23.94A7.54,7.54,0,0,0,74,18.62Z"/><path class="cls-4" d="M76,22.12c0,.1,0,.2.07.3H56.13a2.55,2.55,0,0,1-2.55-2.55V.12l.48.1A8,8,0,0,1,58,2.39L73.81,18.22A8.07,8.07,0,0,1,76,22.12Z"/><path class="cls-5" d="M76.2,91.19V97.5a6.53,6.53,0,0,1-6.5,6.5H6.5A6.52,6.52,0,0,1,0,97.5V91.19Z"/></g></g></svg>