<svg xmlns="http://www.w3.org/2000/svg" xmlns:xlink="http://www.w3.org/1999/xlink" viewBox="0 0 124 105.18"><defs><style>.cls-1{fill:url(#linear-gradient);}.cls-2{fill:url(#linear-gradient-2);}.cls-3{fill:url(#linear-gradient-3);}.cls-4{fill:url(#linear-gradient-4);}.cls-5{fill:url(#linear-gradient-5);}.cls-6{fill:url(#linear-gradient-6);}.cls-7{fill:url(#linear-gradient-7);}.cls-8{fill:url(#linear-gradient-8);}.cls-9{fill:url(#linear-gradient-9);}.cls-10{fill:url(#linear-gradient-10);}.cls-11{fill:url(#linear-gradient-11);}.cls-12{fill:url(#radial-gradient);}.cls-13{fill:url(#linear-gradient-12);}</style><linearGradient id="linear-gradient" x1="91.02" y1="-498.99" x2="163.28" y2="-498.99" gradientTransform="matrix(0.9, 0.44, 0.44, -0.9, 152.34, -453.1)" gradientUnits="userSpaceOnUse"><stop offset="0" stop-color="#d3e843"/><stop offset="0.62" stop-color="#a9c93c"/><stop offset="1" stop-color="#8db437"/></linearGradient><linearGradient id="linear-gradient-2" x1="96.85" y1="-365.97" x2="18.93" y2="-352.1" gradientTransform="matrix(1, 0, 0, -1, 0, -309.11)" gradientUnits="userSpaceOnUse"><stop offset="0" stop-color="#ffd459"/><stop offset="0.19" stop-color="#ffd254"/><stop offset="0.42" stop-color="#ffcd46"/><stop offset="0.66" stop-color="#ffc52e"/><stop offset="0.91" stop-color="#ffb90e"/><stop offset="1" stop-color="#ffb400"/></linearGradient><linearGradient id="linear-gradient-3" x1="129.34" y1="-381.32" x2="50.25" y2="-360.09" gradientTransform="matrix(1, 0, 0, -1, 0, -309.11)" gradientUnits="userSpaceOnUse"><stop offset="0" stop-color="#e58200" stop-opacity="0"/><stop offset="0.61" stop-color="#bc5836" stop-opacity="0.61"/><stop offset="1" stop-color="#a64153"/></linearGradient><linearGradient id="linear-gradient-4" x1="25.72" y1="-365.61" x2="98.26" y2="-365.61" gradientTransform="matrix(1, 0, 0, -1, 0, -309.11)" gradientUnits="userSpaceOnUse"><stop offset="0" stop-color="#ff706a"/><stop offset="0.81" stop-color="#f64640"/><stop offset="1" stop-color="#f43b36"/></linearGradient><linearGradient id="linear-gradient-5" x1="59.07" y1="-371" x2="41.04" y2="-352.97" gradientTransform="matrix(1, 0, 0, -1, 0, -309.11)" gradientUnits="userSpaceOnUse"><stop offset="0" stop-color="#f43b36" stop-opacity="0"/><stop offset="0.44" stop-color="#d02021" stop-opacity="0.44"/><stop offset="1" stop-color="#a60108"/></linearGradient><linearGradient id="linear-gradient-6" x1="73.88" y1="-382.76" x2="44.17" y2="-353.05" xlink:href="#linear-gradient-5"/><linearGradient id="linear-gradient-7" x1="83.1" y1="-389.4" x2="65.64" y2="-371.94" xlink:href="#linear-gradient-5"/><linearGradient id="linear-gradient-8" x1="42.8" y1="-361.93" x2="57.31" y2="-361.93" gradientTransform="matrix(1, 0, 0, -1, 0, -309.11)" gradientUnits="userSpaceOnUse"><stop offset="0" stop-color="#ecf7ff"/><stop offset="1" stop-color="#c2e0ff"/></linearGradient><linearGradient id="linear-gradient-9" x1="50.14" y1="-370.94" x2="74.06" y2="-370.94" xlink:href="#linear-gradient-8"/><linearGradient id="linear-gradient-10" x1="66.67" y1="-380.25" x2="81.18" y2="-380.25" xlink:href="#linear-gradient-8"/><linearGradient id="linear-gradient-11" x1="25.81" y1="-401.84" x2="98.15" y2="-401.84" xlink:href="#linear-gradient-2"/><radialGradient id="radial-gradient" cx="61.99" cy="-333.04" r="12.73" gradientTransform="matrix(1, 0, 0, -1, 0, -309.11)" gradientUnits="userSpaceOnUse"><stop offset="0" stop-color="#a60108"/><stop offset="0.56" stop-color="#d02021" stop-opacity="0.44"/><stop offset="1" stop-color="#f43b36" stop-opacity="0"/></radialGradient><linearGradient id="linear-gradient-12" x1="59.49" y1="-321.91" x2="64.52" y2="-321.91" gradientTransform="matrix(1, 0, 0, -1, 0, -309.11)" gradientUnits="userSpaceOnUse"><stop offset="0" stop-color="#45425a"/><stop offset="1" stop-color="#2d3251"/></linearGradient></defs><title>Asset 5</title><g id="Layer_2" data-name="Layer 2"><g id="Layer_1-2" data-name="Layer 1"><path class="cls-1" d="M88,22.38,47.29,2.55a13.62,13.62,0,0,0-18.2,6.28l-27.71,57A13.6,13.6,0,0,0,7.66,84L48.4,103.8a13.6,13.6,0,0,0,18.19-6.28L94.31,40.58A13.61,13.61,0,0,0,88,22.38ZM58.79,30.7a7.52,7.52,0,1,1,10-3.47A7.51,7.51,0,0,1,58.79,30.7Z"/><path class="cls-2" d="M29.69,40.58,57.41,97.52A13.6,13.6,0,0,0,75.6,103.8L116.34,84a13.6,13.6,0,0,0,6.28-18.19L94.91,8.83a13.62,13.62,0,0,0-18.2-6.28L36,22.38A13.61,13.61,0,0,0,29.69,40.58ZM55.17,27.23a7.51,7.51,0,1,1,10,3.47A7.52,7.52,0,0,1,55.17,27.23Z"/><path class="cls-3" d="M122.62,65.78l-21-43.24L94.64,15.6a13.55,13.55,0,0,0-10-4.37H58.88L36,22.38a13.61,13.61,0,0,0-6.28,18.2L57.41,97.52A13.6,13.6,0,0,0,75.6,103.8L116.34,84A13.6,13.6,0,0,0,122.62,65.78ZM65.21,30.7a7.52,7.52,0,1,1,3.47-10A7.51,7.51,0,0,1,65.21,30.7Z"/><path class="cls-4" d="M84.65,11.23H39.33A13.61,13.61,0,0,0,25.72,24.84V88.17a13.61,13.61,0,0,0,13.61,13.61H84.65A13.61,13.61,0,0,0,98.26,88.17V24.84A13.61,13.61,0,0,0,84.65,11.23ZM62,31.51A7.52,7.52,0,1,1,69.51,24,7.52,7.52,0,0,1,62,31.51Z"/><path class="cls-5" d="M92.25,80.69,55.31,43.76A8.17,8.17,0,0,0,50,42.16q-7.23,0-7.23,6.66v8c0,2.4.72,4.15,2.13,5.25L71.69,88.77A55.4,55.4,0,0,0,92.25,80.69Z"/><path class="cls-6" d="M93,60.35V80.18a55.37,55.37,0,0,1-31,9.43c-1.63,0-3.24-.07-4.84-.21L50.74,83a2,2,0,0,1-.6-1.38,1.6,1.6,0,0,1,.22-.82L70.15,41a1.62,1.62,0,0,1,1.62-1,2.38,2.38,0,0,1,1.58.6Z"/><path class="cls-7" d="M93,75.83v4.35a55.42,55.42,0,0,1-16.77,7.59L68.8,80.32c-1.41-1.1-2.13-2.85-2.13-5.25v-8q0-6.66,7.23-6.66A8.17,8.17,0,0,1,79.18,62Z"/><path class="cls-8" d="M42.8,56.83v-8q0-6.66,7.23-6.66a8.15,8.15,0,0,1,5.28,1.6q2,1.59,2,5.06v8q0,3.47-2,5.06A8.17,8.17,0,0,1,50,63.49Q42.8,63.49,42.8,56.83Zm3.85-.09c0,2.08,1.12,3.12,3.38,3.12s3.44-1,3.44-3.12V48.91q0-3.12-3.44-3.12c-2.26,0-3.38,1-3.38,3.12Z"/><path class="cls-9" d="M50.14,81.61a1.6,1.6,0,0,1,.22-.82L70.15,41a1.62,1.62,0,0,1,1.62-1,2.38,2.38,0,0,1,1.58.6,1.8,1.8,0,0,1,.71,1.46,2.34,2.34,0,0,1-.16.86L54.1,82.58a1.84,1.84,0,0,1-1.83,1A2,2,0,0,1,50.74,83,2,2,0,0,1,50.14,81.61Z"/><path class="cls-10" d="M79.18,62A8.17,8.17,0,0,0,73.9,60.4q-7.23,0-7.23,6.71v8.07q0,6.7,7.23,6.71a8.17,8.17,0,0,0,5.28-1.61q2-1.61,2-5.1V67.11Q81.18,63.62,79.18,62Zm-1.84,13.1q0,3.15-3.44,3.15c-2.26,0-3.38-1.05-3.38-3.15V67.19c0-2.11,1.12-3.16,3.38-3.16s3.44,1,3.44,3.16Z"/><path class="cls-11" d="M95.18,91.42a7.35,7.35,0,0,1-6.59,0l-3.3-1.69a7.35,7.35,0,0,0-6.59,0l-3.3,1.69a7.35,7.35,0,0,1-6.59,0l-3.3-1.69a7.35,7.35,0,0,0-6.59,0l-3.29,1.69a7.37,7.37,0,0,1-6.6,0l-3.29-1.69a7.37,7.37,0,0,0-6.6,0l-3.29,1.69a7.37,7.37,0,0,1-6.6,0l-3.44-1.77a13.48,13.48,0,0,0,1.64,5.15l1.8.93a7.37,7.37,0,0,0,6.6,0L39.14,94a7.31,7.31,0,0,1,6.6,0L49,95.73a7.37,7.37,0,0,0,6.6,0L58.92,94a7.29,7.29,0,0,1,6.59,0l3.3,1.69a7.35,7.35,0,0,0,6.59,0L78.7,94a7.29,7.29,0,0,1,6.59,0l3.3,1.69a7.35,7.35,0,0,0,6.59,0l1.17-.6a13.56,13.56,0,0,0,1.8-5.23Z"/><path class="cls-12" d="M62.85,11.23c-.28,0-.57,0-.86,0s-.57,0-.85,0a12.73,12.73,0,1,0,1.71,0ZM62,31.51A7.52,7.52,0,1,1,69.51,24,7.52,7.52,0,0,1,62,31.51Z"/><path class="cls-13" d="M62.27,25.61h-.55A4.59,4.59,0,0,1,57.13,21V4.59A4.58,4.58,0,0,1,61.72,0h.55a4.59,4.59,0,0,1,4.59,4.59V21A4.6,4.6,0,0,1,62.27,25.61Z"/></g></g></svg>