<svg xmlns="http://www.w3.org/2000/svg" xmlns:xlink="http://www.w3.org/1999/xlink" viewBox="0 0 82 80"><defs><style>.cls-1{fill:url(#linear-gradient);}.cls-2{fill:#fff;}</style><linearGradient id="linear-gradient" x1="41" y1="80" x2="41" gradientUnits="userSpaceOnUse"><stop offset="0" stop-color="#008b52"/><stop offset="1" stop-color="#209f85"/></linearGradient></defs><title>Asset 6</title><g id="Layer_2" data-name="Layer 2"><g id="Layer_1-2" data-name="Layer 1"><rect class="cls-1" width="82" height="80" rx="20.29"/><path class="cls-2" d="M54.54,26H47a1.63,1.63,0,0,1,0-3.25h6v-6a1.63,1.63,0,1,1,3.25,0v7.59A1.62,1.62,0,0,1,54.54,26Z"/><path class="cls-2" d="M27.46,41.16a1.63,1.63,0,0,1-1.62-1.62V32a1.63,1.63,0,0,1,1.62-1.62h7.59a1.63,1.63,0,0,1,0,3.25h-6v6A1.62,1.62,0,0,1,27.46,41.16Z"/><path class="cls-2" d="M27.83,26.67a1.61,1.61,0,0,1-1.59-2,15.15,15.15,0,0,1,29.3-.75,1.62,1.62,0,1,1-3.11.9,11.91,11.91,0,0,0-23,.59,1.63,1.63,0,0,1-1.58,1.25Z"/><path class="cls-2" d="M41,43.34A15.19,15.19,0,0,1,26.46,32.41a1.62,1.62,0,1,1,3.11-.91,11.9,11.9,0,0,0,23-.59,1.62,1.62,0,0,1,3.16.74A15.08,15.08,0,0,1,41,43.34Z"/><path class="cls-2" d="M24.75,54.16a5.41,5.41,0,1,1,5.41-5.41A5.41,5.41,0,0,1,24.75,54.16Zm0-7.57a2.16,2.16,0,1,0,2.16,2.16A2.16,2.16,0,0,0,24.75,46.59Z"/><path class="cls-2" d="M32.88,65a1.63,1.63,0,0,1-1.63-1.63V62.29a2.72,2.72,0,0,0-2.71-2.71H21a2.72,2.72,0,0,0-2.71,2.71v1.08a1.63,1.63,0,1,1-3.25,0V62.29a6,6,0,0,1,6-6h7.59a6,6,0,0,1,6,6v1.08A1.64,1.64,0,0,1,32.88,65Z"/><path class="cls-2" d="M57.25,54.16a5.41,5.41,0,1,1,5.41-5.41A5.41,5.41,0,0,1,57.25,54.16Zm0-7.57a2.16,2.16,0,1,0,2.16,2.16A2.16,2.16,0,0,0,57.25,46.59Z"/><path class="cls-2" d="M65.38,65a1.63,1.63,0,0,1-1.63-1.63V62.29A2.72,2.72,0,0,0,61,59.58H53.45a2.72,2.72,0,0,0-2.71,2.71v1.08a1.63,1.63,0,1,1-3.25,0V62.29a6,6,0,0,1,6-6H61a6,6,0,0,1,6,6v1.08A1.63,1.63,0,0,1,65.38,65Z"/></g></g></svg>