<svg xmlns="http://www.w3.org/2000/svg" xmlns:xlink="http://www.w3.org/1999/xlink" viewBox="0 0 82 80"><defs><style>.cls-1{fill:url(#linear-gradient);}.cls-2{fill:#fff;}</style><linearGradient id="linear-gradient" x1="41" y1="80" x2="41" gradientUnits="userSpaceOnUse"><stop offset="0" stop-color="#008b52"/><stop offset="1" stop-color="#209f85"/></linearGradient></defs><title>Asset 5</title><g id="Layer_2" data-name="Layer 2"><g id="Layer_1-2" data-name="Layer 1"><rect class="cls-1" width="82" height="80" rx="20.29"/><path class="cls-2" d="M60.13,44.67V52.4H21.47V21.47H36.93V17.6H21.47a3.88,3.88,0,0,0-3.87,3.87V52.4a3.88,3.88,0,0,0,3.87,3.87h17.4v3.86H29.2V64H52.4V60.13H42.73V56.27h17.4A3.88,3.88,0,0,0,64,52.4V44.67Z"/><path class="cls-2" d="M60.13,17.6H56.27A7.73,7.73,0,0,0,64,25.33V21.47A3.87,3.87,0,0,1,60.13,17.6Z"/><path class="cls-2" d="M52.4,17.6H48.53A15.47,15.47,0,0,0,64,33.07V29.2A11.6,11.6,0,0,1,52.4,17.6Z"/><path class="cls-2" d="M44.67,17.6H40.8A23.2,23.2,0,0,0,64,40.8V36.93A19.32,19.32,0,0,1,44.67,17.6Z"/></g></g></svg>