<svg xmlns="http://www.w3.org/2000/svg" xmlns:xlink="http://www.w3.org/1999/xlink" viewBox="0 0 159.04 106.79"><defs><style>.cls-1{fill:url(#linear-gradient);}.cls-2{fill:url(#linear-gradient-2);}.cls-3{fill:url(#linear-gradient-3);}.cls-4{fill:url(#linear-gradient-4);}.cls-5{fill:url(#linear-gradient-5);}.cls-6{fill:url(#linear-gradient-6);}.cls-7{fill:url(#linear-gradient-7);}.cls-8{fill:url(#linear-gradient-8);}.cls-9{fill:url(#linear-gradient-9);}.cls-10{fill:url(#linear-gradient-10);}.cls-11{fill:url(#linear-gradient-11);}.cls-12{fill:url(#linear-gradient-12);}.cls-13{fill:url(#linear-gradient-13);}.cls-14{fill:url(#linear-gradient-14);}.cls-15{fill:url(#linear-gradient-15);}.cls-16{fill:url(#linear-gradient-16);}.cls-17{fill:url(#linear-gradient-17);}.cls-18{fill:#e7f1fd;}.cls-19{fill:url(#linear-gradient-18);}.cls-20{fill:url(#linear-gradient-19);}.cls-21{fill:url(#linear-gradient-20);}.cls-22{fill:url(#linear-gradient-21);}.cls-23{fill:url(#radial-gradient);}.cls-24{fill:url(#linear-gradient-22);}.cls-25{fill:url(#linear-gradient-23);}.cls-26{fill:url(#linear-gradient-24);}.cls-27{fill:url(#linear-gradient-25);}</style><linearGradient id="linear-gradient" x1="21.72" y1="-351.49" x2="55.27" y2="-352.11" gradientTransform="translate(-0.87 414.86)" gradientUnits="userSpaceOnUse"><stop offset="0" stop-color="#e7f1fd"/><stop offset="1" stop-color="#b2c7d8"/></linearGradient><linearGradient id="linear-gradient-2" x1="29.06" y1="-367.94" x2="33.64" y2="-332.01" gradientTransform="translate(-0.87 414.86)" gradientUnits="userSpaceOnUse"><stop offset="0" stop-color="#b2c7d8" stop-opacity="0"/><stop offset="1" stop-color="#879faf"/></linearGradient><linearGradient id="linear-gradient-3" x1="55.72" y1="-352.28" x2="86.78" y2="-348.24" xlink:href="#linear-gradient"/><linearGradient id="linear-gradient-4" x1="158.83" y1="-351.25" x2="111.42" y2="-351.87" xlink:href="#linear-gradient"/><linearGradient id="linear-gradient-5" x1="131.94" y1="-367.55" x2="133.36" y2="-304.61" xlink:href="#linear-gradient-2"/><linearGradient id="linear-gradient-6" x1="102.55" y1="-351.02" x2="77.39" y2="-351.64" xlink:href="#linear-gradient"/><linearGradient id="linear-gradient-7" x1="80.08" y1="-393.06" x2="80.08" y2="-301.18" gradientTransform="translate(-0.87 414.86)" gradientUnits="userSpaceOnUse"><stop offset="0" stop-color="#b3e800"/><stop offset="1" stop-color="#98bc00"/></linearGradient><linearGradient id="linear-gradient-8" x1="31.36" y1="-366.99" x2="35.26" y2="-336.34" gradientTransform="translate(-0.87 414.86)" gradientUnits="userSpaceOnUse"><stop offset="0" stop-color="#98bc00" stop-opacity="0"/><stop offset="1" stop-color="#5e6d03"/></linearGradient><linearGradient id="linear-gradient-9" x1="61.23" y1="-351.56" x2="91.71" y2="-347.6" xlink:href="#linear-gradient-8"/><linearGradient id="linear-gradient-10" x1="124.73" y1="-351.84" x2="101.95" y2="-349.97" xlink:href="#linear-gradient-8"/><linearGradient id="linear-gradient-11" x1="103.09" y1="-330.85" x2="78.22" y2="-404.23" xlink:href="#linear-gradient-8"/><linearGradient id="linear-gradient-12" x1="28.09" y1="-352.43" x2="61.01" y2="-350.77" xlink:href="#linear-gradient-8"/><linearGradient id="linear-gradient-13" x1="63.42" y1="-365.88" x2="61.01" y2="-337.9" gradientTransform="translate(-0.87 414.86)" gradientUnits="userSpaceOnUse"><stop offset="0" stop-color="#909698" stop-opacity="0"/><stop offset="1" stop-color="#909698"/></linearGradient><linearGradient id="linear-gradient-14" x1="63.29" y1="-364.34" x2="61.16" y2="-339.69" gradientTransform="translate(-0.87 414.86)" gradientUnits="userSpaceOnUse"><stop offset="0" stop-color="#889b26" stop-opacity="0"/><stop offset="1" stop-color="#454f1e"/></linearGradient><linearGradient id="linear-gradient-15" x1="129.53" y1="-366.68" x2="130.73" y2="-312.85" xlink:href="#linear-gradient-8"/><linearGradient id="linear-gradient-16" x1="99.64" y1="-363.82" x2="108.17" y2="-341.3" xlink:href="#linear-gradient-13"/><linearGradient id="linear-gradient-17" x1="99.39" y1="-362.62" x2="106.88" y2="-342.85" xlink:href="#linear-gradient-14"/><linearGradient id="linear-gradient-18" x1="130.65" y1="-328.62" x2="57.26" y2="-402" xlink:href="#linear-gradient-8"/><linearGradient id="linear-gradient-19" x1="100.73" y1="-379.59" x2="51.3" y2="-379.59" gradientTransform="translate(-0.87 414.86)" gradientUnits="userSpaceOnUse"><stop offset="0" stop-color="#ff4c4a"/><stop offset="1" stop-color="#ff001c"/></linearGradient><linearGradient id="linear-gradient-20" x1="75.97" y1="-379.59" x2="88.84" y2="-379.59" xlink:href="#linear-gradient-19"/><linearGradient id="linear-gradient-21" x1="105.02" y1="-364.5" x2="69.66" y2="-399.85" gradientTransform="translate(-0.87 414.86)" gradientUnits="userSpaceOnUse"><stop offset="0" stop-color="#ff001c" stop-opacity="0"/><stop offset="1" stop-color="#c1001c"/></linearGradient><radialGradient id="radial-gradient" cx="70.03" cy="-399.48" r="31.21" gradientTransform="translate(-0.87 414.86)" gradientUnits="userSpaceOnUse"><stop offset="0" stop-color="#ffcf42"/><stop offset="0.11" stop-color="#ffcd3c"/><stop offset="0.26" stop-color="#ffc62a"/><stop offset="0.43" stop-color="#ffba0d"/><stop offset="0.5" stop-color="#ffb500"/><stop offset="1" stop-color="#ff7000"/></radialGradient><linearGradient id="linear-gradient-22" x1="23.14" y1="-316.3" x2="23.95" y2="-313.5" xlink:href="#linear-gradient-2"/><linearGradient id="linear-gradient-23" x1="59.78" y1="-315.63" x2="58.91" y2="-313.24" xlink:href="#linear-gradient-2"/><linearGradient id="linear-gradient-24" x1="114.26" y1="-331.34" x2="113.46" y2="-329.12" xlink:href="#linear-gradient-2"/><linearGradient id="linear-gradient-25" x1="100.12" y1="-316.28" x2="101.15" y2="-313.42" xlink:href="#linear-gradient-2"/></defs><title>Asset 7</title><g id="Layer_2" data-name="Layer 2"><g id="Layer_1-2" data-name="Layer 1"><path class="cls-1" d="M5,105.73,35.74,95.51a15.11,15.11,0,0,1,4.79-.78L47.6,17.84a14.81,14.81,0,0,0-3.92.52l-27.6,7.56a2.91,2.91,0,0,0-2.25,1.94L0,102.84C-.37,105.11,2.27,106.65,5,105.73Z"/><path class="cls-2" d="M43,52.79c.45,0,.9,0,1.35.05l3.22-35a14.82,14.82,0,0,0-3.92.53l-27.6,7.56a2.91,2.91,0,0,0-2.25,1.94l-6.26,34,31-8.5A17.25,17.25,0,0,1,43,52.79Z"/><path class="cls-3" d="M75.58,25.33l-24.17-7a13.7,13.7,0,0,0-3.81-.53l-7.07,76.9a13.92,13.92,0,0,1,4.65.78L74.68,106a14.69,14.69,0,0,0,4.84.82V25.88A14,14,0,0,1,75.58,25.33Z"/><path class="cls-4" d="M154,105.73,123.3,95.51a15.11,15.11,0,0,0-4.79-.78l-7.07-76.89a14.81,14.81,0,0,1,3.92.52L143,25.92a2.91,2.91,0,0,1,2.25,1.94l13.79,75C159.41,105.11,156.77,106.65,154,105.73Z"/><path class="cls-5" d="M116,52.79a17.25,17.25,0,0,1,4.47.59l31,8.5-6.26-34A2.91,2.91,0,0,0,143,25.92l-27.6-7.56a14.82,14.82,0,0,0-3.92-.53l3.22,35C115.11,52.81,115.56,52.79,116,52.79Z"/><path class="cls-6" d="M83.46,25.33l24.17-7a13.7,13.7,0,0,1,3.81-.53l7.07,76.9a13.92,13.92,0,0,0-4.65.78L84.36,106a14.69,14.69,0,0,1-4.84.82V25.88A13.94,13.94,0,0,0,83.46,25.33Z"/><path class="cls-7" d="M140.91,31.69a2.1,2.1,0,0,0-1.5-1.64L114.05,23.1l-.63-.15a10,10,0,0,0-2-.19,8.84,8.84,0,0,0-2.45.33l-24.16,7-.56.14-.09,0-.89.2a19.91,19.91,0,0,1-3.77.37,19.43,19.43,0,0,1-3.8-.38c-.55-.11-1-.23-1.51-.36l-24.16-7a5.09,5.09,0,0,0-.56-.14,8.41,8.41,0,0,0-1.24-.17c-.22,0-.44,0-.65,0A10.26,10.26,0,0,0,45,23.1l-25.36,7a2.1,2.1,0,0,0-1.5,1.64l-12,65.22a2.09,2.09,0,0,0,2.71,2.36l25.33-8.43a19.87,19.87,0,0,1,6.35-1,18.59,18.59,0,0,1,6.29,1.06l29.5,10.46a9.77,9.77,0,0,0,3.2.54,9.67,9.67,0,0,0,3.19-.54l29.51-10.46a18.59,18.59,0,0,1,6.29-1.06,19.87,19.87,0,0,1,6.35,1l25.33,8.43a2.09,2.09,0,0,0,2.71-2.36Z"/><path class="cls-8" d="M45,23.1l-25.36,7a2.1,2.1,0,0,0-1.5,1.64L12.84,60.43l25.72-7A17.25,17.25,0,0,1,43,52.79c.45,0,.9,0,1.35.05l2.76-30.07A10.83,10.83,0,0,0,45,23.1Z"/><path class="cls-9" d="M75.72,30.42c-.55-.11-1-.23-1.51-.36l-24.16-7a5.09,5.09,0,0,0-.56-.14,8.41,8.41,0,0,0-1.24-.17c-.22,0-.44,0-.65,0h-.46L41,89.82a18.35,18.35,0,0,1,5.84,1.05l29.5,10.46a9.77,9.77,0,0,0,3.2.54V30.8A19.43,19.43,0,0,1,75.72,30.42Z"/><path class="cls-10" d="M140.91,31.69a2.1,2.1,0,0,0-1.5-1.64L114.05,23.1l-.63-.15a9.7,9.7,0,0,0-1.52-.18l6.16,67.05h.45a19.87,19.87,0,0,1,6.35,1l25.33,8.43a2.09,2.09,0,0,0,2.71-2.36Z"/><path class="cls-11" d="M82.71,101.33l29.51-10.46a18.35,18.35,0,0,1,5.84-1.05l-6.16-67h-.46a8.84,8.84,0,0,0-2.45.33l-24.16,7-.56.14-.09,0-.89.2a19.91,19.91,0,0,1-3.77.37v71.06A9.41,9.41,0,0,0,82.71,101.33Z"/><path class="cls-12" d="M45,23.1l-25.36,7a2.1,2.1,0,0,0-1.5,1.64l-12,65.22a2.09,2.09,0,0,0,2.71,2.36l25.33-8.43a19.87,19.87,0,0,1,6.35-1H41l6.16-67A10.83,10.83,0,0,0,45,23.1Z"/><path class="cls-13" d="M47.39,53.38l27.62,8a16.53,16.53,0,0,0,4.51.62V25.88a14,14,0,0,1-3.94-.55l-24.17-7a13.7,13.7,0,0,0-3.81-.53l-3.22,35A16.33,16.33,0,0,1,47.39,53.38Z"/><path class="cls-14" d="M74.21,30.06l-24.16-7a5.09,5.09,0,0,0-.56-.14,8.41,8.41,0,0,0-1.24-.17c-.22,0-.44,0-.65,0h-.46L44.38,52.84a16.33,16.33,0,0,1,3,.54l27.62,8a16.53,16.53,0,0,0,4.51.62V30.8a19.43,19.43,0,0,1-3.8-.38C75.17,30.31,74.67,30.19,74.21,30.06Z"/><path class="cls-15" d="M146.2,60.43l-5.29-28.74a2.1,2.1,0,0,0-1.5-1.64L114.05,23.1l-.63-.15a9.7,9.7,0,0,0-1.52-.18l2.76,30.07c.45,0,.9-.05,1.35-.05a17.19,17.19,0,0,1,4.47.59Z"/><path class="cls-16" d="M84,61.36l27.62-8a16.33,16.33,0,0,1,3-.54l-3.22-35a13.7,13.7,0,0,0-3.81.53l-24.17,7a13.94,13.94,0,0,1-3.94.55V62A16.53,16.53,0,0,0,84,61.36Z"/><path class="cls-17" d="M84,61.36l27.62-8a16.33,16.33,0,0,1,3-.54L111.9,22.77h-.46a8.84,8.84,0,0,0-2.45.33l-24.16,7-.56.14-.09,0-.89.2a19.91,19.91,0,0,1-3.77.37V62A16.53,16.53,0,0,0,84,61.36Z"/><path class="cls-18" d="M143.93,48.1c.14,5.71-1.29,9.18-4.42,10.79-3.51,1.82-8.31.83-14.68-3-5.36-3.23-11.07-6.21-16.7-4.23a15.07,15.07,0,0,0-5.91,4.27c-.69.75-1.37,1.55-2,2.32-2.63,3.07-5.11,6-8.81,7-3.17.87-6.47.16-10-.6a36.14,36.14,0,0,0-7.28-1.08,18.76,18.76,0,0,0-8.65,2.06,30.58,30.58,0,0,0-7,.16c-.87.08-1.62.15-2.13.17-1.51.06-3.47-.37-4-1.81a5,5,0,0,1-.15-2,40.8,40.8,0,0,1,1.42-8.65l0-.08a6.07,6.07,0,0,0,.25-3.26,4.86,4.86,0,0,0-2.08-2.62,23.35,23.35,0,0,0-6.35-2.79c-3-1-5.87-1.91-7.39-4.36-1.7-2.72-1-6.44.52-8.92,1.69-2.83,4.35-4.87,7.15-6.88l.13-.09c.75-.54,1.46-1.69,1.31-1.68A10.15,10.15,0,0,0,45,23.1l-1.94.53a23.55,23.55,0,0,0-6.47,6.61c-2.25,3.76-2.44,8.2-.5,11.32s5.35,4.26,8.63,5.33a21.34,21.34,0,0,1,5.74,2.48,2.77,2.77,0,0,1,1.19,1.36,4.36,4.36,0,0,1-.25,2l0,.07A44.16,44.16,0,0,0,49.86,62a7.21,7.21,0,0,0,.31,3c.92,2.44,3.56,3.3,5.86,3.3h.4c.57,0,1.34-.09,2.24-.18s2.16-.19,3.29-.25a21.48,21.48,0,0,0-6.33,7.74l0,.1a3,3,0,0,1-1,1.43,3.93,3.93,0,0,1-2.09,0l-.16,0c-7.13-1.33-15.34.66-22.54,5.44-6.25,4.15-11,9.69-15.67,15.08l4.27-1.42A65,65,0,0,1,31.05,84.35C37.76,79.9,45.36,78,51.9,79.25l.16,0a5.52,5.52,0,0,0,3.53-.14,4.71,4.71,0,0,0,2.07-2.51l.05-.09c3-6.32,9.63-10.69,16.18-10.69h.2a35.28,35.28,0,0,1,6.83,1,41.69,41.69,0,0,0,6,1c3.09.75,5.21,4.21,6.35,6.07l0,0c1.74,2.86,3.89,4.5,6.21,4.75a10.38,10.38,0,0,0,4.63-.89l3.19-1.16a9.9,9.9,0,0,1,12.13,4.75,33,33,0,0,0,2,3.34l.46.68a10.75,10.75,0,0,1,1.94,3.68,6.61,6.61,0,0,1,.14,1.43l.9.28,1.39.46a10.93,10.93,0,0,0-.18-2.66,12.8,12.8,0,0,0-2.3-4.5l-.45-.66a32.25,32.25,0,0,1-1.85-3.11,12.19,12.19,0,0,0-15-5.84l-3.2,1.16a8.53,8.53,0,0,1-3.6.75c-2-.21-3.55-2.1-4.49-3.65l0,0a20.91,20.91,0,0,0-4-5.12,7.91,7.91,0,0,0,.81-.19c4.38-1.21,7.21-4.52,10-7.72.64-.75,1.31-1.53,2-2.25a12.85,12.85,0,0,1,5-3.66c4.68-1.66,9.85,1.08,14.74,4,7.11,4.29,12.65,5.29,16.92,3.08a9.61,9.61,0,0,0,4.71-5.52Z"/><path class="cls-19" d="M153,70.29,102.54,19.82,83.46,25.33a13.94,13.94,0,0,1-3.94.55,13.81,13.81,0,0,1-2.73-.27,9.67,9.67,0,0,1-1.21-.28l-14.5-4.18-4.59-1.33a23.33,23.33,0,0,0-.26,3.47c0,10.36,6.78,32.78,16.14,41.1L106.2,98.22l7.66-2.71a13.92,13.92,0,0,1,4.65-.78,15.11,15.11,0,0,1,4.79.78L154,105.73c2.76.92,5.4-.62,5-2.89Z"/><path class="cls-20" d="M102.81,23.29c0,12.86-10.43,44.29-23.29,44.29S56.23,36.15,56.23,23.29a23.29,23.29,0,0,1,46.58,0Z"/><path class="cls-21" d="M101.58,23.84c0,12.18-9.88,42-22.06,42S57.46,36,57.46,23.84a22.06,22.06,0,0,1,44.12,0Z"/><path class="cls-22" d="M102.77,24.62,91.16,12.94A15.95,15.95,0,1,0,68.54,35.4l23,23.14C98,48.76,102.35,33.38,102.77,24.62Z"/><circle class="cls-23" cx="79.52" cy="23.84" r="15.95"/><path class="cls-24" d="M41.81,80.86,40.53,94.73a15.11,15.11,0,0,0-4.79.78L5,105.73c-2.76.92-5.4-.62-5-2.89l2-11a4.74,4.74,0,0,0,3-.07L35.74,81.59a14.84,14.84,0,0,1,4.79-.78C41,80.81,41.38,80.83,41.81,80.86Z"/><path class="cls-25" d="M79.52,92.87v13.92a14.69,14.69,0,0,1-4.84-.82L45.18,95.51a13.92,13.92,0,0,0-4.65-.78l1.28-13.87a13.16,13.16,0,0,1,3.37.73l29.5,10.46A14.69,14.69,0,0,0,79.52,92.87Z"/><path class="cls-26" d="M128,89.15,103.3,80.92a12.19,12.19,0,0,0-3.86-.63l-1-11.17c.34,0,.69,0,1,0a12.18,12.18,0,0,1,3.86.62L128,77.93a3.85,3.85,0,0,0,2.39.06l1.63,8.83C132.38,88.65,130.25,89.89,128,89.15Z"/><path class="cls-27" d="M118.51,94.73a13.92,13.92,0,0,0-4.65.78L84.36,106a14.69,14.69,0,0,1-4.84.82V92.87a14.69,14.69,0,0,0,4.84-.82l29.5-10.46a13.16,13.16,0,0,1,3.37-.73Z"/></g></g></svg>