<svg xmlns="http://www.w3.org/2000/svg" xmlns:xlink="http://www.w3.org/1999/xlink" viewBox="0 0 82 80"><defs><style>.cls-1{fill:url(#linear-gradient);}.cls-2{fill:#fff;}</style><linearGradient id="linear-gradient" x1="41" y1="80" x2="41" gradientUnits="userSpaceOnUse"><stop offset="0" stop-color="#008b52"/><stop offset="1" stop-color="#209f85"/></linearGradient></defs><title>Asset 1</title><g id="Layer_2" data-name="Layer 2"><g id="Layer_1-2" data-name="Layer 1"><rect class="cls-1" width="82" height="80" rx="20.29"/><path class="cls-2" d="M52,45.94l-7.81-5.85V28.16a2.17,2.17,0,1,0-4.34,0v13a2.16,2.16,0,0,0,.87,1.74l8.67,6.51A2.18,2.18,0,0,0,52,45.94Z"/><path class="cls-2" d="M42,13A28,28,0,1,0,70,41,28,28,0,0,0,42,13Zm0,51.66A23.66,23.66,0,1,1,65.66,41,23.68,23.68,0,0,1,42,64.66Z"/></g></g></svg>