<svg xmlns="http://www.w3.org/2000/svg" xmlns:xlink="http://www.w3.org/1999/xlink" viewBox="0 0 95.78 102.07"><defs><style>.cls-1{fill:url(#linear-gradient);}.cls-2{fill:url(#linear-gradient-2);}.cls-3{fill:url(#linear-gradient-3);}.cls-4{fill:url(#linear-gradient-4);}.cls-5{fill:url(#linear-gradient-5);}.cls-6{fill:url(#linear-gradient-6);}.cls-7{fill:url(#linear-gradient-7);}.cls-8{fill:url(#linear-gradient-8);}.cls-9{fill:url(#linear-gradient-9);}.cls-10{fill:url(#linear-gradient-10);}.cls-11{fill:url(#linear-gradient-11);}</style><linearGradient id="linear-gradient" x1="26.32" y1="300.23" x2="114.85" y2="188.71" gradientTransform="matrix(1, 0, 0, -1, 0, 346)" gradientUnits="userSpaceOnUse"><stop offset="0" stop-color="#ffd459"/><stop offset="0.23" stop-color="#ffd355"/><stop offset="0.44" stop-color="#ffcf4a"/><stop offset="0.63" stop-color="#ffc838"/><stop offset="0.82" stop-color="#ffbf1f"/><stop offset="1" stop-color="#ffb400"/></linearGradient><linearGradient id="linear-gradient-2" x1="82.26" y1="326.09" x2="82.26" y2="89.72" gradientTransform="matrix(1, 0, 0, -1, 0, 346)" gradientUnits="userSpaceOnUse"><stop offset="0" stop-color="#e58200" stop-opacity="0"/><stop offset="0.04" stop-color="#e27f04" stop-opacity="0.04"/><stop offset="0.47" stop-color="#c15d2f" stop-opacity="0.47"/><stop offset="0.8" stop-color="#ad4949" stop-opacity="0.8"/><stop offset="1" stop-color="#a64153"/></linearGradient><linearGradient id="linear-gradient-3" x1="34.39" y1="312.8" x2="157.26" y2="191.49" xlink:href="#linear-gradient-2"/><linearGradient id="linear-gradient-4" x1="23.12" y1="354.77" x2="65.68" y2="312.2" xlink:href="#linear-gradient"/><linearGradient id="linear-gradient-5" x1="69.89" y1="328.74" x2="69.89" y2="290.19" xlink:href="#linear-gradient-2"/><linearGradient id="linear-gradient-6" x1="47.89" y1="249.61" x2="47.89" y2="224.17" xlink:href="#linear-gradient-2"/><linearGradient id="linear-gradient-7" x1="62" y1="281.56" x2="-51.18" y2="319.72" xlink:href="#linear-gradient-2"/><linearGradient id="linear-gradient-8" x1="35.34" y1="308.83" x2="75.61" y2="263.65" gradientTransform="matrix(1, 0, 0, -1, 0, 346)" gradientUnits="userSpaceOnUse"><stop offset="0" stop-color="#ff6e3a"/><stop offset="0.16" stop-color="#ff6440"/><stop offset="0.43" stop-color="#ff4b52"/><stop offset="0.77" stop-color="#ff216e"/><stop offset="1" stop-color="#ff0084"/></linearGradient><linearGradient id="linear-gradient-9" x1="6.69" y1="274.04" x2="29.53" y2="274.04" gradientTransform="matrix(1, 0, 0, -1, 0, 346)" gradientUnits="userSpaceOnUse"><stop offset="0" stop-color="#45425a"/><stop offset="1" stop-color="#2d3251"/></linearGradient><linearGradient id="linear-gradient-10" x1="6.69" y1="264.27" x2="29.53" y2="264.27" xlink:href="#linear-gradient-9"/><linearGradient id="linear-gradient-11" x1="6.69" y1="254.5" x2="24.88" y2="254.5" xlink:href="#linear-gradient-9"/></defs><title>Asset 4</title><g id="Layer_2" data-name="Layer 2"><g id="Layer_1-2" data-name="Layer 1"><path class="cls-1" d="M95.78,50.76l-16-24.23H16L0,50.76v47a4.33,4.33,0,0,0,4.33,4.33H91.45a4.33,4.33,0,0,0,4.33-4.33Z"/><path class="cls-2" d="M79.82,26.53H68.74l16,24.23v47a4.33,4.33,0,0,1-4.33,4.33H91.45a4.33,4.33,0,0,0,4.33-4.33v-47Z"/><path class="cls-3" d="M79.82,26.53H16L0,50.76H95.78Z"/><path class="cls-4" d="M70.47,0H25.31A9.35,9.35,0,0,0,16,9.35V26.53H79.82V9.35A9.35,9.35,0,0,0,70.47,0ZM59.39,12.41a4.14,4.14,0,0,1-2.93,1.22H29.33a4.16,4.16,0,0,1,0-8.31H56.46a4.15,4.15,0,0,1,2.93,7.09Z"/><path class="cls-5" d="M70.47,0H60A9.34,9.34,0,0,1,69.3,9.35V26.53H79.82V9.35A9.35,9.35,0,0,0,70.47,0Z"/><path class="cls-6" d="M0,82V97.74a4.33,4.33,0,0,0,4.33,4.33H91.45a4.33,4.33,0,0,0,4.33-4.33V82Z"/><path class="cls-7" d="M36.14,66.83l35.23,35.24H86.85a4.33,4.33,0,0,0,4.33-4.33V65.94L51.77,26.53h-17V64.79A2.23,2.23,0,0,0,36.14,66.83Z"/><path class="cls-8" d="M49.53,67H37a2.23,2.23,0,0,1-2.23-2.23V26.53h17V64.79A2.23,2.23,0,0,1,49.53,67Z"/><path class="cls-9" d="M6.69,70H29.53v4H6.69Z"/><path class="cls-10" d="M6.69,79.75H29.53v4H6.69Z"/><path class="cls-11" d="M6.69,89.52H24.88v4H6.69Z"/></g></g></svg>