<svg xmlns="http://www.w3.org/2000/svg" xmlns:xlink="http://www.w3.org/1999/xlink" viewBox="0 0 96.15 110.15"><defs><style>.cls-1{fill:url(#linear-gradient);}.cls-2{fill:url(#linear-gradient-2);}.cls-3{fill:url(#linear-gradient-3);}.cls-4{fill:url(#linear-gradient-4);}.cls-5{fill:url(#radial-gradient);}.cls-6{fill:url(#radial-gradient-2);}.cls-7{fill:url(#linear-gradient-5);}.cls-8{fill:url(#linear-gradient-6);}.cls-9{fill:url(#linear-gradient-7);}.cls-10{fill:url(#linear-gradient-8);}.cls-11{fill:url(#linear-gradient-9);}.cls-12{fill:url(#linear-gradient-10);}.cls-13{fill:url(#linear-gradient-11);}.cls-14{fill:url(#linear-gradient-12);}</style><linearGradient id="linear-gradient" x1="48.08" y1="-28.47" x2="48.08" y2="-35.71" gradientTransform="matrix(1, 0, 0, -1, 0, 72)" gradientUnits="userSpaceOnUse"><stop offset="0" stop-color="#3b395f"/><stop offset="0.06" stop-color="#37355a"/><stop offset="0.4" stop-color="#232543"/><stop offset="0.72" stop-color="#171b35"/><stop offset="1" stop-color="#131830"/></linearGradient><linearGradient id="linear-gradient-2" x1="60.18" y1="-35.9" x2="50.49" y2="-26.21" gradientTransform="matrix(1, 0, 0, -1, 0, 72)" gradientUnits="userSpaceOnUse"><stop offset="0" stop-color="#131830" stop-opacity="0"/><stop offset="1" stop-color="#131830"/></linearGradient><linearGradient id="linear-gradient-3" x1="33.24" y1="41.7" x2="76.13" y2="-1.2" gradientTransform="matrix(1, 0, 0, -1, 0, 72)" gradientUnits="userSpaceOnUse"><stop offset="0" stop-color="#ff4974"/><stop offset="0.33" stop-color="#fe4672"/><stop offset="0.53" stop-color="#fb3e6c"/><stop offset="0.71" stop-color="#f52f60"/><stop offset="0.86" stop-color="#ee1a51"/><stop offset="1" stop-color="#e4003d"/></linearGradient><linearGradient id="linear-gradient-4" x1="86.97" y1="-9.75" x2="37.52" y2="39.7" gradientTransform="matrix(1, 0, 0, -1, 0, 72)" gradientUnits="userSpaceOnUse"><stop offset="0" stop-color="#e4003d" stop-opacity="0"/><stop offset="0.58" stop-color="#bd294b" stop-opacity="0.58"/><stop offset="1" stop-color="#a64153"/></linearGradient><radialGradient id="radial-gradient" cx="51.95" cy="23.02" r="50" gradientTransform="matrix(1, 0, 0, -1, 0, 72)" gradientUnits="userSpaceOnUse"><stop offset="0" stop-color="#ff4974" stop-opacity="0"/><stop offset="0.4" stop-color="#ff4b75" stop-opacity="0.4"/><stop offset="0.54" stop-color="#ff527b" stop-opacity="0.54"/><stop offset="0.64" stop-color="#ff5d84" stop-opacity="0.64"/><stop offset="0.73" stop-color="#ff6e91" stop-opacity="0.73"/><stop offset="0.8" stop-color="#ff84a1" stop-opacity="0.8"/><stop offset="0.86" stop-color="#ffa0b6" stop-opacity="0.86"/><stop offset="0.92" stop-color="#ffc0cf" stop-opacity="0.92"/><stop offset="0.97" stop-color="#ffe4eb" stop-opacity="0.97"/><stop offset="1" stop-color="#fff"/></radialGradient><radialGradient id="radial-gradient-2" cx="37.75" cy="47.97" r="46.29" gradientTransform="matrix(1, 0, 0, -1, 0, 72)" gradientUnits="userSpaceOnUse"><stop offset="0" stop-color="#ffc738"/><stop offset="0.49" stop-color="#ffc636"/><stop offset="0.67" stop-color="#ffc22f"/><stop offset="0.81" stop-color="#ffbb23"/><stop offset="0.92" stop-color="#ffb112"/><stop offset="1" stop-color="#ffa700"/></radialGradient><linearGradient id="linear-gradient-5" x1="74.68" y1="12.43" x2="49.85" y2="37.26" gradientTransform="matrix(1, 0, 0, -1, 0, 72)" gradientUnits="userSpaceOnUse"><stop offset="0" stop-color="#ffa700" stop-opacity="0"/><stop offset="0.02" stop-color="#fea600" stop-opacity="0.02"/><stop offset="0.63" stop-color="#ec8c00" stop-opacity="0.64"/><stop offset="1" stop-color="#e58200"/></linearGradient><linearGradient id="linear-gradient-6" x1="58.93" y1="-3.75" x2="51.37" y2="12.32" xlink:href="#linear-gradient-5"/><linearGradient id="linear-gradient-7" x1="48.09" y1="44.05" x2="48.09" y2="25.08" gradientTransform="matrix(1, 0, 0, -1, 0, 72)" gradientUnits="userSpaceOnUse"><stop offset="0" stop-color="#fffcf8"/><stop offset="0.19" stop-color="#faf8f6"/><stop offset="0.4" stop-color="#eceef2"/><stop offset="0.64" stop-color="#d5dcea"/><stop offset="0.88" stop-color="#b5c4df"/><stop offset="1" stop-color="#a1b5d8"/></linearGradient><linearGradient id="linear-gradient-8" x1="48.09" y1="21.23" x2="48.09" y2="5.02" xlink:href="#linear-gradient-7"/><linearGradient id="linear-gradient-9" x1="56.75" y1="14.5" x2="44.39" y2="18.89" gradientTransform="matrix(1, 0, 0, -1, 0, 72)" gradientUnits="userSpaceOnUse"><stop offset="0" stop-color="#a1b5d8" stop-opacity="0"/><stop offset="0.26" stop-color="#98abca" stop-opacity="0.25"/><stop offset="0.74" stop-color="#8292a6" stop-opacity="0.74"/><stop offset="1" stop-color="#748290"/></linearGradient><linearGradient id="linear-gradient-10" x1="47.16" y1="16.02" x2="50.16" y2="16.02" gradientTransform="matrix(1, 0, 0, -1, 0, 72)" gradientUnits="userSpaceOnUse"><stop offset="0" stop-color="#00e7b2"/><stop offset="0.25" stop-color="#05e5b1"/><stop offset="0.53" stop-color="#13ddac"/><stop offset="0.83" stop-color="#2ad1a5"/><stop offset="1" stop-color="#3ac9a0"/></linearGradient><linearGradient id="linear-gradient-11" x1="51.13" y1="19.51" x2="46.59" y2="24.06" gradientTransform="matrix(1, 0, 0, -1, 0, 72)" gradientUnits="userSpaceOnUse"><stop offset="0" stop-color="#3ac9a0" stop-opacity="0"/><stop offset="0.04" stop-color="#38c69d" stop-opacity="0.04"/><stop offset="0.42" stop-color="#23aa82" stop-opacity="0.42"/><stop offset="0.75" stop-color="#169971" stop-opacity="0.75"/><stop offset="1" stop-color="#11936b"/></linearGradient><linearGradient id="linear-gradient-12" x1="47.63" y1="24.35" x2="49.11" y2="24.35" xlink:href="#linear-gradient-10"/></defs><title>Asset 3</title><g id="Layer_2" data-name="Layer 2"><g id="Layer_1-2" data-name="Layer 1"><path class="cls-1" d="M10.51,96.71l-9.8,9.45a2.32,2.32,0,0,0,1.61,4H93.83a2.32,2.32,0,0,0,1.6-4L85.54,96.7a4.22,4.22,0,0,0-2.9-1.16H13.42A4.19,4.19,0,0,0,10.51,96.71Z"/><path class="cls-2" d="M60.08,95.55h-24c2.48,2.78,4.76,5.22,6.64,7.2l7.42,7.41h24.5Z"/><path class="cls-3" d="M48.09,0A42.87,42.87,0,0,0,5.22,42.87c0,18.46,26.06,47.82,37.54,59.87a7.36,7.36,0,0,0,10.67,0C64.92,90.69,91,61.33,91,42.87A42.87,42.87,0,0,0,48.09,0Z"/><path class="cls-4" d="M90.78,45.71,68.52,23.45A28.18,28.18,0,1,0,28.68,63.3L60.47,95.1C72.37,81.73,88.84,60.85,90.78,45.71Z"/><path class="cls-5" d="M85.57,42.87A37.48,37.48,0,1,1,48.09,5.39,37.48,37.48,0,0,1,85.57,42.87Z"/><path class="cls-6" d="M76.28,42.87A28.19,28.19,0,1,1,48.09,14.69,28.19,28.19,0,0,1,76.28,42.87Z"/><path class="cls-7" d="M76.15,45.59a28.22,28.22,0,0,1-11.1,19.8L45.59,45.93,40.69,41A10.93,10.93,0,1,1,56.14,25.58Z"/><path class="cls-8" d="M69.76,60.9A28.16,28.16,0,0,1,48.09,71.06c-.79,0-1.58,0-2.36-.1L32.76,58A15.71,15.71,0,0,1,59.2,50.33Z"/><path class="cls-9" d="M59,33A10.94,10.94,0,1,1,48.09,22.05,10.93,10.93,0,0,1,59,33Z"/><path class="cls-10" d="M63.43,58a21.55,21.55,0,0,1-30.67,0,15.72,15.72,0,0,1,30.67,0Z"/><path class="cls-11" d="M63.43,58l-.19.19A21.45,21.45,0,0,1,49,64.4l-2.78-2.78,0,0a2,2,0,0,1-.69-1.66l1-10a.87.87,0,0,1,.2-.46l0,0a1,1,0,0,1-.37-.42l-1.11-2.46a.76.76,0,0,1,0-.51l.43-.07.31,0,.24,0,.28,0,.34,0,.35,0,.35,0h.69c.43,0,.86,0,1.28.05l.33,0,.68.08.32.06.39.06A15.75,15.75,0,0,1,63.43,58Z"/><path class="cls-12" d="M50,61.59l-1.09.9a1.31,1.31,0,0,1-1.67,0l-1.09-.9a1.92,1.92,0,0,1-.68-1.66l1-10a.81.81,0,0,1,.81-.74h1.67a.81.81,0,0,1,.81.74l1,10A1.92,1.92,0,0,1,50,61.59Z"/><path class="cls-13" d="M49.74,49.9a.81.81,0,0,0-.81-.74H47.26a.85.85,0,0,0-.62.29L50,52.83Z"/><path class="cls-14" d="M51.05,46.52,49.93,49a1,1,0,0,1-.91.59H47.17a1,1,0,0,1-.91-.59l-1.11-2.46a.76.76,0,0,1,0-.51,16.41,16.41,0,0,1,3-.28,15.55,15.55,0,0,1,3,.29A.8.8,0,0,1,51.05,46.52Z"/></g></g></svg>