<svg id="Layer_1" data-name="Layer 1" xmlns="http://www.w3.org/2000/svg" viewBox="0 0 102 102"><defs><style>.cls-1{fill:#fff;}</style></defs><title>Artboard 2 copy</title><path class="cls-1" d="M72.11,25.3a1.9,1.9,0,0,0-1.33-.55,1.88,1.88,0,0,0-1.87,1.87A1.88,1.88,0,0,0,69.46,28a1.86,1.86,0,0,0,1.32.55A1.9,1.9,0,0,0,72.11,28a1.87,1.87,0,0,0,0-2.65Z"/><path class="cls-1" d="M89.62,24.75h-12a1.88,1.88,0,0,0,0,3.75h12a5.63,5.63,0,0,1,5.63,5.62v27a5.63,5.63,0,0,1-5.63,5.63H87a1.9,1.9,0,0,0-1.33.55L79.5,73.47,73.33,67.3A1.9,1.9,0,0,0,72,66.75H47.25a5.64,5.64,0,0,1-5.63-5.63V54.38a1.87,1.87,0,1,0-3.74,0v6.74a9.38,9.38,0,0,0,9.37,9.38h24l7,7a1.88,1.88,0,0,0,2.66,0l7-7h1.84A9.39,9.39,0,0,0,99,61.12v-27A9.39,9.39,0,0,0,89.62,24.75Z"/><path class="cls-1" d="M54.75,3H12.38A9.39,9.39,0,0,0,3,12.38v27a9.39,9.39,0,0,0,9.38,9.37h3.94l7,7a1.83,1.83,0,0,0,1.32.55,1.87,1.87,0,0,0,1.33-.55l6.95-7H54.75a9.39,9.39,0,0,0,9.38-9.37v-27A9.39,9.39,0,0,0,54.75,3Zm5.63,36.38A5.63,5.63,0,0,1,54.75,45H32.09a1.88,1.88,0,0,0-1.32.55l-6.18,6.17-6.17-6.17A1.88,1.88,0,0,0,17.09,45H12.38a5.63,5.63,0,0,1-5.63-5.62v-27a5.64,5.64,0,0,1,5.63-5.63H54.75a5.63,5.63,0,0,1,5.63,5.63Z"/><path class="cls-1" d="M79.16,54.77,72.51,39a1.88,1.88,0,0,0-3.46,0L62.4,54.77a1.88,1.88,0,1,0,3.46,1.46L66.8,54h8l.94,2.23a1.88,1.88,0,0,0,1.73,1.15,1.88,1.88,0,0,0,1.73-2.61ZM68.38,50.25l2.4-5.68,2.4,5.68Z"/><path class="cls-1" d="M42.27,32.43l-1.78-1.31a8.56,8.56,0,0,0,.86-3.74v-3a8.63,8.63,0,1,0-17.25,0v3a8.62,8.62,0,0,0,14.07,6.68l1.88,1.39a1.87,1.87,0,1,0,2.22-3ZM37.6,27.38a4.87,4.87,0,0,1-.22,1.44l-2-1.45a1.87,1.87,0,1,0-2.23,3L35,31.7a4.82,4.82,0,0,1-2.24.55,4.88,4.88,0,0,1-4.87-4.87v-3h0a4.88,4.88,0,1,1,9.75,0v3Z"/><path class="cls-1" d="M75.89,86.75,59.64,78a2,2,0,0,0-.89-.22H9.62A6.63,6.63,0,0,0,3,84.43v7.95A6.63,6.63,0,0,0,9.62,99H58.75a2,2,0,0,0,.89-.22l16.25-8.72a1.88,1.88,0,0,0,0-3.31Zm-60.65,8.5H9.62a2.88,2.88,0,0,1-2.87-2.87V84.43a2.88,2.88,0,0,1,2.87-2.87h5.62Zm41.64,0H19V90.13H42.84a1.88,1.88,0,1,0,0-3.75H19V81.56H56.88ZM60.63,94V82.82L71,88.41Z"/><path class="cls-1" d="M51.39,86.93a1.88,1.88,0,0,0-3.2,1.33,1.88,1.88,0,0,0,1.87,1.87,1.87,1.87,0,0,0,1.33-3.2Z"/></svg>