<svg xmlns="http://www.w3.org/2000/svg" xmlns:xlink="http://www.w3.org/1999/xlink" viewBox="0 0 82 80"><defs><style>.cls-1{fill:url(#linear-gradient);}.cls-2{fill:#fff;}</style><linearGradient id="linear-gradient" x1="41" y1="80" x2="41" gradientUnits="userSpaceOnUse"><stop offset="0" stop-color="#008b52"/><stop offset="1" stop-color="#209f85"/></linearGradient></defs><title>Asset 4</title><g id="Layer_2" data-name="Layer 2"><g id="Layer_1-2" data-name="Layer 1"><rect class="cls-1" width="82" height="80" rx="20.29"/><path class="cls-2" d="M52.53,56.53,47.7,51.7a3.58,3.58,0,0,0-5.05,0l-2.12,2.12A26.9,26.9,0,0,1,29.18,42.47l2.12-2.13a3.58,3.58,0,0,0,0-5.05l-4.83-4.82a3.58,3.58,0,0,0-5,0l-3.86,3.86c-2,2-2.08,5.57-.18,10a42,42,0,0,0,8.87,12.41,42,42,0,0,0,12.41,8.87A15,15,0,0,0,44.42,67a5.8,5.8,0,0,0,4.25-1.56l3.86-3.86a3.56,3.56,0,0,0,0-5Zm-2.15,2.89-3.86,3.86c-1.05,1-3.54.87-6.66-.46A38.81,38.81,0,0,1,28.4,54.6a38.94,38.94,0,0,1-8.22-11.46c-1.33-3.12-1.51-5.61-.46-6.66l3.86-3.86a.53.53,0,0,1,.74,0l4.82,4.83a.51.51,0,0,1,0,.74l-3.65,3.66.46,1A30,30,0,0,0,40.18,57.05l1,.46,3.66-3.65a.51.51,0,0,1,.74,0l4.83,4.82a.54.54,0,0,1,.15.37A.53.53,0,0,1,50.38,59.42Z"/><path class="cls-2" d="M63.3,18.94a17.45,17.45,0,0,0-22.09,0,12.51,12.51,0,0,0,0,19.55,16.68,16.68,0,0,0,1.72,1.28,25.78,25.78,0,0,1-3.88,4.59,25.83,25.83,0,0,0,9-2.43,18.47,18.47,0,0,0,4.23.49,16.89,16.89,0,0,0,11-3.93,12.51,12.51,0,0,0,0-19.55Zm-11,20.44c-7,0-12.7-4.79-12.7-10.67s5.7-10.66,12.7-10.66S65,22.83,65,28.71,59.26,39.38,52.26,39.38Z"/><circle class="cls-2" cx="52.26" cy="28.71" r="2.03"/><circle class="cls-2" cx="45.15" cy="28.71" r="2.03"/><circle class="cls-2" cx="59.37" cy="28.71" r="2.03"/></g></g></svg>