<svg xmlns="http://www.w3.org/2000/svg" xmlns:xlink="http://www.w3.org/1999/xlink" viewBox="0 0 116 116"><defs><style>.cls-1{fill:url(#linear-gradient);}.cls-2{fill:url(#linear-gradient-2);}.cls-3{opacity:0.5;fill:url(#linear-gradient-3);}.cls-3,.cls-4{isolation:isolate;}.cls-4{fill:#1a1a1a;opacity:0.3;}.cls-5{fill:url(#linear-gradient-4);}.cls-6{fill:url(#linear-gradient-5);}.cls-7{fill:url(#linear-gradient-6);}.cls-8{fill:url(#linear-gradient-7);}</style><linearGradient id="linear-gradient" x1="58" y1="-412" x2="58" y2="-296" gradientTransform="translate(0 412)" gradientUnits="userSpaceOnUse"><stop offset="0.01" stop-color="#ffe5ae"/><stop offset="1" stop-color="#ff992d"/></linearGradient><linearGradient id="linear-gradient-2" x1="58" y1="-409.98" x2="58" y2="-296.23" gradientTransform="translate(0 412)" gradientUnits="userSpaceOnUse"><stop offset="0" stop-color="#ffd372"/><stop offset="1" stop-color="#ff7900"/></linearGradient><linearGradient id="linear-gradient-3" x1="61.84" y1="-353.87" x2="111.08" y2="-304.63" gradientTransform="translate(0 412)" gradientUnits="userSpaceOnUse"><stop offset="0" stop-color="#ea5918"/><stop offset="1" stop-color="#ff7945" stop-opacity="0"/></linearGradient><linearGradient id="linear-gradient-4" x1="39.65" y1="-352.31" x2="90.51" y2="-352.31" gradientTransform="translate(0 412)" gradientUnits="userSpaceOnUse"><stop offset="0.01" stop-color="#f3e0df"/><stop offset="1" stop-color="#e8e0ba"/></linearGradient><linearGradient id="linear-gradient-5" x1="54.99" y1="-363.84" x2="59.79" y2="-356.79" gradientTransform="translate(0 412)" gradientUnits="userSpaceOnUse"><stop offset="0.01" stop-color="#65bcc0"/><stop offset="1" stop-color="#53838a"/></linearGradient><linearGradient id="linear-gradient-6" x1="20.99" y1="-364.75" x2="90.51" y2="-364.75" xlink:href="#linear-gradient-4"/><linearGradient id="linear-gradient-7" x1="39.56" y1="-332.49" x2="41.36" y2="-342.24" gradientTransform="translate(0 412)" gradientUnits="userSpaceOnUse"><stop offset="0.01" stop-color="#b3a5a4"/><stop offset="1" stop-color="#a8a286"/></linearGradient></defs><title>Asset 2</title><g id="Layer_2" data-name="Layer 2"><g id="Layer_1-2" data-name="Layer 1"><path class="cls-1" d="M116,26.79V89.21A26.78,26.78,0,0,1,89.21,116H26.79A26.78,26.78,0,0,1,0,89.21V26.79A26.78,26.78,0,0,1,26.79,0H89.21A26.78,26.78,0,0,1,116,26.79Z"/><path class="cls-2" d="M26.79,115.09A25.91,25.91,0,0,1,.91,89.21V26.79A25.91,25.91,0,0,1,26.79.91H89.21a25.91,25.91,0,0,1,25.88,25.88V89.21a25.91,25.91,0,0,1-25.88,25.88Z"/><path class="cls-3" d="M116,57.87V89.21A26.78,26.78,0,0,1,89.21,116H65.3L33.51,84.21,90.65,32.52Z"/><polygon class="cls-4" points="91.72 33.82 22.19 51.39 34.64 63.1 34.64 85.42 46.89 76.08 58.79 87.98 91.72 33.82"/><polygon class="cls-5" points="90.51 32.62 39.65 68.84 57.58 86.77 90.51 32.62"/><polygon class="cls-6" points="33.43 61.89 33.43 84.21 39.65 68.84 90.51 32.62 33.43 61.89"/><polygon class="cls-7" points="20.99 50.18 33.43 61.89 90.51 32.62 20.99 50.18"/><polygon class="cls-8" points="33.43 84.21 45.68 74.87 39.65 68.84 33.43 84.21"/><polygon class="cls-5" points="90.51 32.62 39.65 68.84 57.58 86.77 90.51 32.62"/><polygon class="cls-6" points="33.43 61.89 33.43 84.21 39.65 68.84 90.51 32.62 33.43 61.89"/><polygon class="cls-7" points="20.99 50.18 33.43 61.89 90.51 32.62 20.99 50.18"/></g></g></svg>