<?xml version="1.0" encoding="utf-8"?>
<!-- Generator: Adobe Illustrator 23.0.3, SVG Export Plug-In . SVG Version: 6.00 Build 0)  -->
<svg version="1.1" id="Layer_1" xmlns="http://www.w3.org/2000/svg" xmlns:xlink="http://www.w3.org/1999/xlink" x="0px" y="0px"
	 viewBox="0 0 96.2 110.2" style="enable-background:new 0 0 96.2 110.2;" xml:space="preserve">
<style type="text/css">
	.st0{fill:url(#SVGID_1_);}
	.st1{fill:url(#SVGID_2_);}
	.st2{fill:url(#SVGID_3_);}
	.st3{fill:url(#SVGID_4_);}
	.st4{fill:url(#SVGID_5_);}
	.st5{fill:url(#SVGID_6_);}
	.st6{opacity:0.8;fill:#FFFFFF;}
	.st7{opacity:0.8;}
	.st8{fill:#97D5C9;}
	.st9{fill:#5CBFAB;}
	.st10{fill:#5A6E7F;}
</style>
<title>Asset 3</title>
<g>
	<g id="Layer_1-2">
		
			<linearGradient id="SVGID_1_" gradientUnits="userSpaceOnUse" x1="48.0365" y1="-708.47" x2="48.0365" y2="-715.71" gradientTransform="matrix(1 0 0 -1 0 -608)">
			<stop  offset="0" style="stop-color:#3B395F"/>
			<stop  offset="6.000000e-02" style="stop-color:#37355A"/>
			<stop  offset="0.4" style="stop-color:#232543"/>
			<stop  offset="0.72" style="stop-color:#171B35"/>
			<stop  offset="1" style="stop-color:#131830"/>
		</linearGradient>
		<path class="st0" d="M10.5,96.7l-9.8,9.4c-0.9,0.9-1,2.4-0.1,3.3c0.4,0.5,1.1,0.7,1.7,0.7h91.5c1.3,0,2.3-1,2.3-2.3
			c0-0.6-0.3-1.2-0.7-1.7l-9.9-9.5c-0.8-0.7-1.8-1.2-2.9-1.2H13.4C12.3,95.5,11.3,96,10.5,96.7z"/>
		
			<linearGradient id="SVGID_2_" gradientUnits="userSpaceOnUse" x1="60.14" y1="-715.94" x2="50.45" y2="-706.25" gradientTransform="matrix(1 0 0 -1 0 -608)">
			<stop  offset="0" style="stop-color:#131830;stop-opacity:0"/>
			<stop  offset="1" style="stop-color:#131830"/>
		</linearGradient>
		<path class="st1" d="M60.1,95.6h-24c2.5,2.8,4.8,5.2,6.6,7.2l7.4,7.4h24.5L60.1,95.6z"/>
		
			<linearGradient id="SVGID_3_" gradientUnits="userSpaceOnUse" x1="33.2165" y1="-638.3234" x2="76.1065" y2="-681.2234" gradientTransform="matrix(1 0 0 -1 0 -608)">
			<stop  offset="0" style="stop-color:#FF4974"/>
			<stop  offset="0.33" style="stop-color:#FE4672"/>
			<stop  offset="0.53" style="stop-color:#FB3E6C"/>
			<stop  offset="0.71" style="stop-color:#F52F60"/>
			<stop  offset="0.86" style="stop-color:#EE1A51"/>
			<stop  offset="1" style="stop-color:#E4003D"/>
		</linearGradient>
		<path class="st2" d="M48.1,0C24.4,0,5.2,19.2,5.2,42.9l0,0c0,18.5,26.1,47.8,37.5,59.9c2.8,2.9,7.5,3.1,10.4,0.3
			c0.1-0.1,0.2-0.2,0.3-0.3C64.9,90.7,91,61.3,91,42.9C91,19.2,71.8,0,48.1,0L48.1,0z"/>
		
			<linearGradient id="SVGID_4_" gradientUnits="userSpaceOnUse" x1="86.985" y1="-689.735" x2="37.535" y2="-640.285" gradientTransform="matrix(1 0 0 -1 0 -608)">
			<stop  offset="0" style="stop-color:#E4003D;stop-opacity:0"/>
			<stop  offset="0.58" style="stop-color:#BD294B;stop-opacity:0.58"/>
			<stop  offset="1" style="stop-color:#A64153"/>
		</linearGradient>
		<path class="st3" d="M90.8,45.7L68.5,23.5c-10.8-11.2-28.6-11.6-39.8-0.8s-11.6,28.6-0.8,39.8c0.3,0.3,0.5,0.5,0.8,0.8l31.8,31.8
			C72.4,81.7,88.8,60.8,90.8,45.7z"/>
		
			<radialGradient id="SVGID_5_" cx="51.95" cy="-656.98" r="50" gradientTransform="matrix(1 0 0 -1 0 -608)" gradientUnits="userSpaceOnUse">
			<stop  offset="0" style="stop-color:#FF4974;stop-opacity:0"/>
			<stop  offset="0.4" style="stop-color:#FF4B75;stop-opacity:0.4"/>
			<stop  offset="0.54" style="stop-color:#FF527B;stop-opacity:0.54"/>
			<stop  offset="0.64" style="stop-color:#FF5D84;stop-opacity:0.64"/>
			<stop  offset="0.73" style="stop-color:#FF6E91;stop-opacity:0.73"/>
			<stop  offset="0.8" style="stop-color:#FF84A1;stop-opacity:0.8"/>
			<stop  offset="0.86" style="stop-color:#FFA0B6;stop-opacity:0.86"/>
			<stop  offset="0.92" style="stop-color:#FFC0CF;stop-opacity:0.92"/>
			<stop  offset="0.97" style="stop-color:#FFE4EB;stop-opacity:0.97"/>
			<stop  offset="1" style="stop-color:#FFFFFF"/>
		</radialGradient>
		<path class="st4" d="M85.6,42.9c0,20.7-16.8,37.5-37.5,37.5S10.6,63.6,10.6,42.9S27.4,5.4,48.1,5.4l0,0
			C68.8,5.4,85.6,22.2,85.6,42.9z"/>
		
			<radialGradient id="SVGID_6_" cx="37.75" cy="-632.03" r="46.29" gradientTransform="matrix(1 0 0 -1 0 -608)" gradientUnits="userSpaceOnUse">
			<stop  offset="0" style="stop-color:#FFC738"/>
			<stop  offset="0.49" style="stop-color:#FFC636"/>
			<stop  offset="0.67" style="stop-color:#FFC22F"/>
			<stop  offset="0.81" style="stop-color:#FFBB23"/>
			<stop  offset="0.92" style="stop-color:#FFB112"/>
			<stop  offset="1" style="stop-color:#FFA700"/>
		</radialGradient>
		<path class="st5" d="M76.3,42.9c0,15.6-12.6,28.2-28.2,28.2S19.9,58.5,19.9,42.9s12.6-28.2,28.2-28.2l0,0
			C63.7,14.7,76.3,27.3,76.3,42.9z"/>
	</g>
</g>
<g>
	<path class="st6" d="M57.9,52.2c2.3-2.3,3.7-5.5,3.7-9c0-3.5-1.4-6.7-3.7-9c-2.3-2.3-5.5-3.7-9-3.7c-1.9,0-3.7,0.4-5.3,1.2l2.9,3.1
		c0.1,0.1,0.1,0.3,0.1,0.4c0.1-0.2,0.4-0.4,0.7-0.4c0.5,0,0.8,0.4,0.8,0.8v7.2l5.6,5.8c0.3,0.3,0.3,0.9,0,1.2
		c-0.3,0.3-0.9,0.3-1.2,0l-5.8-6.1c-0.2-0.2-0.2-0.4-0.2-0.6v-7.6c0-0.1,0-0.2,0-0.2c-0.1,0.1-0.2,0.2-0.3,0.2l-8.1,1.3L37.7,37
		L37.3,37c-1,1.8-1.6,4-1.6,6.2c0,3.6,1.5,6.9,3.9,9.3c0.8,0.8,1.7,1.5,2.7,2.1c0,0,0.1-0.1,0.1-0.1c0.1-0.1,0.4-0.2,0.6-0.1
		c0.2,0.1,0.4,0.2,0.6,0.3l0,0l0.1,0c0.2,0.1,0.4,0.2,0.6,0.3l0,0l0.1,0c0.5,0.2,0.9,0.3,1.4,0.4l0,0l0,0c0.2,0.1,0.4,0.1,0.6,0.1
		l0,0c0.1,0,0.1,0,0.2,0c0.2,0,0.3,0.1,0.5,0.1l0,0c0.1,0,0.2,0,0.2,0c0.2,0,0.3,0,0.5,0c0.1,0,0.2,0,0.2,0l0,0c0.2,0,0.5,0,0.7,0
		C52.4,55.9,55.6,54.5,57.9,52.2z"/>
	<path class="st7" d="M43,54.5c-0.2-0.1-0.4-0.1-0.6,0.1c0,0-0.1,0.1-0.1,0.1c-0.7,0.7-1.3,1.3-2,2c0,0,0,0,0,0
		c-0.1,0.1-0.2,0.2-0.1,0.4c0,0.1,0.1,0.3,0.2,0.3c2.5,1.5,5.4,2.3,8.4,2.3c4.5,0,8.7-1.8,11.6-4.8c3-3,4.8-7.1,4.8-11.6v0
		c0,0,0,0,0,0v0c0-4.5-1.8-8.7-4.8-11.6c-3-3-7.1-4.8-11.6-4.8c-2.9,0-5.6,0.8-8,2.1l-3.3-3.4c-0.1-0.1-0.3-0.2-0.5-0.1
		c-0.2,0.1-0.3,0.2-0.3,0.4l-1.2,8.7l-0.1,0.7l-0.2,1.6c0,0.1,0,0.3,0.1,0.4c0.1,0.1,0.3,0.2,0.4,0.1l1.5-0.2l0.4-0.1l0.5-0.1
		l8.1-1.3c0.1,0,0.2-0.1,0.3-0.2c0-0.1,0.1-0.1,0.1-0.2c0-0.1,0-0.3-0.1-0.4l-2.9-3.1c1.6-0.7,3.4-1.2,5.3-1.2c3.5,0,6.7,1.4,9,3.7
		c2.3,2.3,3.7,5.5,3.7,9c0,3.5-1.4,6.7-3.7,9c-2.3,2.3-5.5,3.7-9,3.7c-0.2,0-0.5,0-0.7,0l0,0c-0.1,0-0.1,0-0.2,0c-0.2,0-0.3,0-0.5,0
		c-0.1,0-0.2,0-0.2,0l0,0c-0.2,0-0.3-0.1-0.5-0.1c-0.1,0-0.1,0-0.2,0l0,0c-0.2,0-0.4-0.1-0.6-0.1l0,0l0,0c-0.5-0.1-1-0.3-1.4-0.4
		l-0.1,0l0,0c-0.2-0.1-0.4-0.2-0.6-0.3l-0.1,0l0,0C43.4,54.7,43.2,54.6,43,54.5z"/>
	<path class="st7" d="M47.4,34.8c-0.3,0-0.6,0.2-0.7,0.4c0,0.1-0.1,0.1-0.1,0.2c0,0.1,0,0.2,0,0.2v7.6c0,0.2,0.1,0.4,0.2,0.6
		l5.8,6.1c0.3,0.3,0.9,0.3,1.2,0c0.3-0.3,0.3-0.9,0-1.2l-5.6-5.8v-7.2C48.2,35.2,47.8,34.8,47.4,34.8z"/>
</g>
<g>
	<path class="st8" d="M281,576.2c0,96.6,49.6,181.7,124.8,231.1c11.4-11.5,22.9-23,34.3-34.6c-17.5-10.1-33.7-22.3-47.9-36.5
		c-41.5-41.6-67.1-98.7-67.1-162.1c0-39.2,9.9-75.8,27.2-108l-25.9,4.1c-2.6,0.4-5.2-0.4-7-2.3c-1.9-1.8-2.7-4.4-2.4-7l3.9-27.6
		C295.5,475,281,523.9,281,576.2z"/>
	<path class="st9" d="M710.5,730.4c40.1-40.1,64.7-95.1,64.7-156.3c0-61.1-24.7-116.2-64.7-156.3c-40.1-40.1-95.1-64.7-156.3-64.7
		c-33,0-64.1,7.3-92.1,20.2l51.4,54.1c1.8,1.9,2.5,4.5,2.1,7c2.6-4.1,7.1-6.9,12.4-6.9c8.1,0,14.7,6.6,14.7,14.7v126l97.7,101.4
		c5.6,5.8,5.4,15.1-0.4,20.7c-5.8,5.6-15.1,5.4-20.7-0.4L517.4,584.3c-2.6-2.7-4.1-6.4-4.1-10.2V442.2c0-1.4,0.3-2.7,0.6-4
		c-1.3,1.6-3,2.7-5.1,3.1l-142,22.6l-8.3,1.3l-6.3,1c-17.3,32.2-27.2,68.9-27.2,108c0,63.4,25.6,120.5,67.1,162.1
		c14.3,14.2,30.4,26.4,47.9,36.5c0.5-0.5,1-1,1.5-1.5c2.5-2.5,6.5-3.2,9.6-1.5c3.7,1.9,7.4,3.8,11.2,5.5l0,0l1.2,0.5
		c3.5,1.6,7.2,3.1,10.8,4.5l0,0l1.1,0.4c8,3.1,16.3,5.7,24.7,7.8l0.6,0.1l0.1,0c3.7,0.9,7.5,1.7,11.3,2.5l0,0c1,0.2,2.1,0.4,3.4,0.6
		c3,0.5,6,1,9,1.4l0,0c1.5,0.2,2.8,0.4,4.1,0.5c3,0.3,6,0.6,9,0.8c1.5,0.1,2.7,0.2,3.9,0.3l0,0c4.3,0.2,8.5,0.4,12.8,0.4
		C615.4,795.1,670.4,770.5,710.5,730.4z"/>
	<path class="st10" d="M451.3,769.7c-3.2-1.7-7.1-1.1-9.6,1.5c-0.5,0.5-1,1-1.5,1.5c-11.4,11.5-22.9,23-34.3,34.6
		c-0.1,0.1-0.1,0.1-0.2,0.2c-1.8,1.8-2.6,4.3-2.3,6.8c0.3,2.5,1.8,4.7,3.9,6c43,25.7,93.3,40.6,147.1,40.6c79.1,0,151-32.2,202.8-84
		c51.8-51.8,84-123.6,84-202.7v0c0,0,0,0,0,0v-0.1c0-79.1-32.2-150.9-84-202.7c-51.8-51.8-123.7-84-202.8-84
		c-50.6,0-98,13.3-139.2,36.3l-57-60c-2.2-2.3-5.5-3.1-8.5-2.2c-3,1-5.2,3.6-5.6,6.7l-21.4,152.3l-1.8,12.9l-3.9,27.6
		c-0.4,2.6,0.5,5.2,2.4,7c1.9,1.8,4.5,2.7,7,2.3l25.9-4.1l6.3-1l8.3-1.3l142-22.6c2.1-0.3,3.9-1.5,5.1-3.1c0.4-1.3,0.9-2.6,1.7-3.8
		c0.4-2.5-0.3-5.1-2.1-7l-51.4-54.1c28-12.9,59.1-20.2,92.1-20.2c61.2,0,116.2,24.7,156.3,64.7c40.1,40.1,64.7,95.1,64.7,156.3
		c0,61.1-24.7,116.2-64.7,156.3c-40.1,40.1-95.1,64.7-156.3,64.7c-4.3,0-8.5-0.2-12.8-0.4l0,0c-1.1-0.1-2.4-0.2-3.9-0.3
		c-3-0.2-6-0.5-9-0.8c-1.3-0.1-2.6-0.3-4.1-0.5l0,0c-3-0.4-6-0.9-9-1.4c-1.2-0.2-2.4-0.4-3.4-0.6l0,0c-3.8-0.7-7.6-1.5-11.3-2.5
		l-0.1,0l-0.6-0.1c-8.4-2.1-16.7-4.7-24.7-7.8l-1.1-0.4l0,0c-3.6-1.4-7.2-2.9-10.8-4.5l-1.2-0.5l0,0
		C458.7,773.5,455,771.6,451.3,769.7z"/>
	<path class="st8" d="M528,427.6c-5.2,0-9.8,2.8-12.4,6.9c-0.7,1.2-1.3,2.4-1.7,3.8c-0.4,1.3-0.6,2.6-0.6,4v131.9
		c0,3.8,1.5,7.4,4.1,10.2l101.8,105.6c5.6,5.8,14.9,6,20.7,0.4c5.8-5.6,6-14.9,0.4-20.7l-97.7-101.4v-126
		C542.7,434.1,536.1,427.6,528,427.6z"/>
</g>
</svg>
