<svg xmlns="http://www.w3.org/2000/svg" xmlns:xlink="http://www.w3.org/1999/xlink" viewBox="0 0 82 80"><defs><style>.cls-1{fill:url(#linear-gradient);}.cls-2{fill:#fff;stroke:#fff;stroke-miterlimit:10;stroke-width:0.25px;}</style><linearGradient id="linear-gradient" x1="41" y1="80" x2="41" gradientUnits="userSpaceOnUse"><stop offset="0" stop-color="#008b52"/><stop offset="1" stop-color="#209f85"/></linearGradient></defs><title>Asset 3</title><g id="Layer_2" data-name="Layer 2"><g id="Layer_1-2" data-name="Layer 1"><rect class="cls-1" width="82" height="80" rx="20.29"/><path class="cls-2" d="M63,18.2a1.11,1.11,0,0,0-1.1-1.1H25.31a1.07,1.07,0,0,0-.78.32l-6.11,6.11a1.1,1.1,0,0,0-.32.78V60.9A1.11,1.11,0,0,0,19.2,62H55.79a1.09,1.09,0,0,0,.76-.31h0l6.11-6.11h0a1.15,1.15,0,0,0,.32-.78V18.2ZM60.79,53.69h-3.9V24.77l3.9-3.9Zm-1.56,2.2-2.34,2.34V55.89Zm-35-35v2.34H21.87Zm-3.9,4.54h3.9V54.33l-3.9,3.9ZM54.69,59.79H21.87l3.9-3.9H54.69v3.9Zm0-6.1H26.41V25.41H54.69Zm.64-30.48H26.41v-3.9H59.23Z"/></g></g></svg>