<?xml version="1.0" encoding="utf-8"?>
<!-- Generator: Adobe Illustrator 23.0.3, SVG Export Plug-In . SVG Version: 6.00 Build 0)  -->
<svg version="1.1" id="Layer_1" xmlns="http://www.w3.org/2000/svg" xmlns:xlink="http://www.w3.org/1999/xlink" x="0px" y="0px"
	 viewBox="0 0 189.8 173.6" style="enable-background:new 0 0 189.8 173.6;" xml:space="preserve">
<style type="text/css">
	.st0{clip-path:url(#SVGID_2_);}
	.st1{fill:#48D8B5;}
	.st2{fill:#008B52;}
	.st3{fill:#756BD1;}
	.st4{fill:#F7F6F1;}
	.st5{fill:#209F85;}
	.st6{fill:#F9E7E5;}
	.st7{fill:#00B768;}
	.st8{fill:#979DFB;}
	.st9{fill:#232850;}
	.st10{fill:#FDD247;}
	.st11{fill:#F6A087;}
	.st12{fill:#B3B3CF;}
	.st13{fill:#0025FF;}
	.st14{fill:#F5B58F;}
	.st15{fill:#303057;}
</style>
<title>Asset 3</title>
<g>
	<g id="Layer_1-2">
		<g>
			<defs>
				<path id="SVGID_1_" d="M21.7,147.8c3,3.4,6.6,6.3,10.6,8.5c19.3,10.3,41.2,14.1,62.8,13.7c22.6-0.4,47.6,1.4,63.8-17
					c14.4-16.4,16-42.5,7.8-62.2c-5.5-13.3-16.1-24.1-28.1-32.2c-13-8.8-28.1-15.7-42.7-21.3c-7.5-2.9-14.3-4.9-19.3-11.7
					c-2.2-3-4.2-6.2-7.2-8.4s-7.4-3-10.3-0.7c-2,1.6-2.9,4.2-3.8,6.6c-3.2,9-9.5,5.5-16.6,7.4c-7.9,2.1-12.9,9.6-21.6,4.4
					C12,31.8,8,25.3,2,26c-4,0.5-6.8,4.2-8.5,7.8c-4.3,9.6-4,20.6,0.7,30c4.6,8.9,8.9,10.7,9.2,21.1c0.4,10.8,0.9,21.6,3.4,32.2
					S14.1,139.3,21.7,147.8z"/>
			</defs>
			<clipPath id="SVGID_2_">
				<use xlink:href="#SVGID_1_"  style="overflow:visible;"/>
			</clipPath>
			<g class="st0">
				<path id="wall-2" class="st1" d="M20.6,148.8c3.7,2.9,7.6,5.4,11.7,7.6c19.3,10.3,41.2,14.1,62.8,13.7s42.9-4.9,63.8-10.6
					c8.5-2.3,17.4-5.1,23.4-11.9c13.4-15.2,5.6-35.2,0.7-52c-1.9-6.6-3.4-9.7-8.2-13.9c-5.3-4.6-10.3-9.4-15.9-13.5
					C148.2,60.4,136.5,54,124,49.4c-9.5-3.5-18.5-8.5-28.1-12.2c-10.6-4.1-21.5-7.8-32.8-9c-21-2.3-42.7,5.6-50.9,27.5
					c-8.9,23.8-18.8,51.1-6.3,75.7C9.5,138.2,14.5,144.2,20.6,148.8z"/>
				<path class="st2" d="M69.8,145.6c-1-5.1-11.6-3.1-14-13.8c-0.5-2.2,8.8-4.4,9-6.8c0.1-1.2-9-2.6-8.8-3.8
					c1.7-14.1,10.7-22.5,9.1-31.2c-0.6-3.1,6.1-2.1,5.7-4.5c-0.1-0.8-7.1-0.3-7.6-1C60.3,80.3,54,72.3,53.3,68
					c-0.5-3.2,0.9-7.9,2.4-12.3c0.3-1,7.1,0.4,7.4-0.6c1-3-6.7-2-6.7-3.7c0.1-4.5-4.2-22,4.2-23.5c6.2-1.2,18.1,22.2,19.1,28.1
					c0.1,0.7-6.6,5.4-5.9,6s8.8-3.2,9.5-2.6c5.2,4.7,12.6,11,13.6,16.2c1.3,6.7-5.6,18-5.5,22.1c0.2,6.4,8.1,19.5,8,31.5
					c0,0.7-9.2-2.5-9.3-1.8c-0.1,1.3,8.9,6.5,8.5,7.7c-0.2,0.9-16.4-9.4-16.8-8.6c-0.5,1.1,14.7,13.4,13.9,14.5
					c-6,8.1-13.9,3.5-17.8,2.7C74,142.9,69.8,145.6,69.8,145.6z"/>
				<path class="st3" d="M71.2,130.5l1.7-0.1c-1.9,16.4-4.9,31.1-7.7,40.3c-0.4,1.2-2.3,0.6-2-0.6C66.9,157.2,69.6,144,71.2,130.5z"
					/>
				<path class="st4" d="M63,45.3c0.4-0.2,0.5,0.2,1.3,1.3c11.3,18.3,11.9,51.7,8.9,80.6c-0.5,0-1.1,0-1.6,0c3.3-28.6,3-60.7-7-78.8
					c-0.7-1.3-1.1-1.9-1.7-2.7C62.8,45.6,62.9,45.4,63,45.3C63,45.3,63,45.3,63,45.3z"/>
				<path class="st5" d="M59,152c-3-4.8-11.8,0.3-19.1-9.2c-0.5-0.7,10.2-4.2,9.8-4.9c-0.6-1.2-12.2,0.3-12.5-1.1
					c-2.2-9.3,0.9-22.2-1.2-31.6c-0.2-0.8,7.1-3.9,6.8-4.7c-0.3-1-8.2,0.4-8.7-0.5c-4-7.5-12.1-11.1-17.6-16
					c-0.9-0.8,9.1-8.5,8.4-9.4c-0.5-0.6-11.7,5.7-12.1,5c-3.4-5.8-2.3-13.3-2.4-18.7c0-1.3,5.7-2.5,5.5-3.5
					c-0.2-0.8-6.3-1.6-6.7-2.1c-3.1-3.9-10.8-14-4.8-18.2c0.8-0.5,4.2,6,5,5.8c1-0.2-0.6-6.8,0.5-6.4c6.1,2.3,13,12.9,20.3,19.5
					c0.6,0.5-3.4,7.2-2.8,7.7s5.9-5.1,6.6-4.7c5.6,3.7,20.2,8,24.5,14c0.3,0.4-15.5,8.2-15.3,8.7s16.7-5.9,16.9-5.2
					c1.8,6.6-0.1,16.3,1.6,20.4c2.7,6.4,15.5,16.9,20,28.9c0.3,0.7-10,0.5-9.8,1.3c0.4,1.3,11.2,3.6,11.3,4.9c0.1,1-19.7-4-19.8-3
					c-0.1,1.3,19.6,8.6,19.2,9.9c-2.8,10-12.3,8-16.5,8.5C62.1,148,59,152,59,152z"/>
				<path class="st4" d="M16.2,74.8c-0.4-0.3-0.8,0.2-0.5,0.5c26.8,21,43.6,66.6,47.5,98.8c0.1,0.5,0.5,0.8,1,0.7
					c0.5,0,0.8-0.4,0.8-0.9c0,0,0,0,0,0C61.4,144.4,44.5,96.5,16.2,74.8z"/>
				<path class="st5" d="M75.8,151.2c2.1-3.9,10,0.2,14.6-7.8c1-1.6-5.9-5.5-5.4-7.5c0.2-1,7.8,0,8-1c2.1-11.7-3-20.5,0.5-27.1
					c1.2-2.3-4.4-3.1-3.4-4.9c0.3-0.6,5.7,1.4,6.3,0.9c3.4-2.7,10.4-7.7,12-11c1.2-2.4,1.2-6.5,1.2-10.4c0-0.8-5.8-1.3-5.8-2.2
					c0-2.7,5.9-0.1,6.2-1.4c1-3.6,8.8-16.7,2.5-19.8c-4.7-2.3-20,13.7-22.3,18.2c-0.3,0.5,3.9,5.8,3.2,6.2c-0.7,0.3-6.2-4.5-6.9-4.2
					c-5.3,2.5-12.8,5.8-14.9,9.8c-2.7,5.1,0,15.7-1.1,19c-1.7,5.1-11.3,13.7-14.3,23.4c-0.2,0.6,8,0.1,7.9,0.7
					c-0.2,1-8.7,3.1-8.7,4.2c0,0.8,15.4-3.7,15.5-3c0.1,1-15.1,7.3-14.7,8.4c2.8,7.9,10.2,6,13.5,6.3S75.8,151.2,75.8,151.2z"/>
				<path class="st4" d="M105.7,72.4c0.3-0.2,0.7,0.2,0.4,0.4c-0.7,0.6-1.1,0.9-2,1.8c-19.6,19.3-29,71.8-29.2,97.8
					c0,0.5-0.4,0.9-0.9,0.9s-0.9-0.4-0.9-0.9C73.2,149.8,83.2,90.9,105.7,72.4z"/>
				<path class="st6" d="M85.1,167l-1,1.8c0,0-0.7,18.6-5.8,18.6H59.6c-5.1,0-5.8-18.4-5.8-18.4l-1-2c0-0.4,0.4-0.8,0.8-0.8
					c0,0,0,0,0,0h30.7C84.7,166.2,85.1,166.6,85.1,167C85.1,167,85.1,167,85.1,167z"/>
				<g id="couch">
					<path class="st7" d="M149.1,217.3H23.8c-7.3,0-13.3-5.9-13.3-13.3l0,0v-74.3c0-10.6,8.6-19.2,19.2-19.2h0h113.5
						c10.6,0,19.2,8.5,19.2,19.1c0,0,0,0,0,0.1v74.3C162.4,211.4,156.5,217.4,149.1,217.3L149.1,217.3L149.1,217.3z"/>
					<path class="st5" d="M136.1,184H36.8c-3,0-5.5-2.5-5.5-5.5v-11.4c0-3,2.5-5.5,5.5-5.5h99.3c3.1,0,5.6,2.5,5.6,5.6l0,0v11.2
						C141.6,181.5,139.1,184,136.1,184L136.1,184L136.1,184z"/>
					<path class="st3" d="M136.1,211.3H36.8c-3.1,0-5.6-2.5-5.6-5.6l0,0v-11.2c0-3.1,2.5-5.6,5.6-5.6h0h99.2c3.1,0,5.6,2.5,5.6,5.6
						l0,0v11.2C141.6,208.8,139.1,211.3,136.1,211.3z"/>
					<path class="st5" d="M163.5,217.3h-10.3c-4,0-7.2-3.2-7.2-7.2v-61c0-4,3.2-7.2,7.2-7.2h10.3c4,0,7.2,3.2,7.2,7.2v61
						C170.7,214.1,167.5,217.3,163.5,217.3z"/>
					<path class="st8" d="M19.7,217.3H9.4c-4,0-7.2-3.2-7.2-7.2v-61c0-4,3.2-7.2,7.2-7.2h10.3c4,0,7.2,3.2,7.2,7.2v61
						C26.9,214.1,23.6,217.3,19.7,217.3z"/>
					<path class="st2" d="M150.9,116.2H21.4c-2.2,0-4,2.1-4,4.6v10.4c0,2.6,1.8,4.6,4,4.6h6.5c2.2,0,4,2.1,4,4.6v10.1
						c0,2.6,1.8,4.6,4,4.6h101.3c2.2,0,4-2.1,4-4.6v-10.1c0-2.6,1.8-4.6,4-4.6h5.9c2.2,0,4-2.1,4-4.6v-10.4
						C154.9,118.2,153.1,116.2,150.9,116.2z"/>
				</g>
				<g id="character1">
					<path class="st9" d="M79.7,147.8c5.4,5.7,27.5,5.8,27.3,32.9c0,4.4-16.6-10.4-38.9-10.4c-15.8,0-32.3,6.3-34,3.6
						c-7.8-12.4,18.2-24.7,25.1-24.1S79.7,147.8,79.7,147.8z"/>
					<path class="st10" d="M95.3,108.8c13.1,12.5,24.7,48.1,16.5,52.8c-9.2,5.3-25.8-13.1-46.1-14.4c-24-1.4-48-2.3-50.1-5.7
						c-3.1-5,6.1-28,21.3-35C47.4,101.8,88.1,101.9,95.3,108.8z"/>
					<path class="st9" d="M91.1,161.7c7.9-1.8,14,14.2,15.8,19c1.8,4.8,3,45.5,2,49.7s-11.5,4.6-11.5,4.6S76.8,165,91.1,161.7z"/>
					<path class="st11" d="M71.9,85.8c0,0,3.4,18.5,2.2,21.1c-2.1,4.3-14.2,3.3-16.6-0.8c-0.9-1.4,1-5.7,2.1-9.9
						c1.4-5.3,2.3-10.7,2.3-10.7L71.9,85.8z"/>
					<path class="st12" d="M92.8,125.6c0.7,2.1-3.5,32.2-4.2,32.8c-0.6,0.6-43.6,2-45,0.5c-0.7-0.8-6.2-31.9-4.9-32.5
						C40.6,125.6,92.1,123.3,92.8,125.6z"/>
					<path class="st4" d="M106.9,231.4c0.6,6.4,4.4,12.4,2.6,14.9s-14.5,1.9-16.2,0s3-11.1,4.7-14.7
						C98.8,229.9,106.7,229.6,106.9,231.4z"/>
					<path class="st13" d="M34.8,163.2c-4.1,4.1-2.5,16.8-1.9,21.9s13.4,43.6,15.9,47.2s10.5-0.6,10.5-0.6s1.1-33.2-5.5-53.7
						C49.7,165.6,38.7,159.3,34.8,163.2z"/>
					<path class="st4" d="M50.2,229.6c-1.1,6.6-5.2,13.7-3.3,16.3s14.4,2.1,16.1,0c1.7-2.1-3.8-12.2-5.4-16.3
						C57,227.9,50.6,227.8,50.2,229.6z"/>
					<path class="st9" d="M74.1,86.4c14.8-9.7,1.1-24.2-1.8-25.3c1.4,4.9,0.4,5-1.2,4.2c-4.2-1.9-11.1-3.6-15.8,0
						c-6,4.6-1.4,20.7,5.8,23.1C64.6,89.4,70.8,88.6,74.1,86.4z"/>
					<path class="st14" d="M76.7,73.5c2.9,5.1,3.1,19.8,0.2,23.2c-1.3,1.6-12.5,1.3-17.9-13.1c-2.4,0.1-2.7-9.5,1.2-4.7
						c0.5-1.4,1.2-2.8,1.9-4.1C72.1,77,74.5,74.7,76.7,73.5z"/>
				</g>
			</g>
		</g>
		<g id="clock">
			
				<rect x="123.4" y="8.8" transform="matrix(0.2423 -0.9702 0.9702 0.2423 69.8837 139.8477)" class="st15" width="2.1" height="32.8"/>
			
				<rect x="122.1" y="31.8" transform="matrix(0.4126 -0.9109 0.9109 0.4126 48.5015 140.9449)" class="st15" width="22.8" height="2.1"/>
			<rect x="134.7" class="st15" width="2.1" height="7.6"/>
			<rect x="144.1" y="5.9" transform="matrix(0.5 -0.866 0.866 0.5 67.8496 131.5575)" class="st15" width="7.6" height="2.1"/>
			<rect x="153" y="14.8" transform="matrix(0.866 -0.5 0.5 0.866 13.0532 80.4924)" class="st15" width="7.6" height="2.1"/>
			<rect x="156.2" y="26.9" class="st15" width="7.6" height="2.1"/>
			<rect x="155.7" y="36.3" transform="matrix(0.5 -0.866 0.866 0.5 43.6158 155.7937)" class="st15" width="2.1" height="7.5"/>
			<rect x="146.8" y="45.2" transform="matrix(0.866 -0.5 0.5 0.866 -4.6893 80.4912)" class="st15" width="2.1" height="7.5"/>
			<rect x="134.7" y="48.5" class="st15" width="2.1" height="7.5"/>
			<rect x="119.9" y="47.9" transform="matrix(0.5 -0.866 0.866 0.5 19.3896 131.56)" class="st15" width="7.6" height="2.1"/>
			<rect x="111" y="39" transform="matrix(0.866 -0.5 0.5 0.866 -4.6844 62.7524)" class="st15" width="7.6" height="2.1"/>
			<rect x="107.7" y="26.9" class="st15" width="7.6" height="2.1"/>
			<rect x="113.7" y="12.1" transform="matrix(0.5 -0.866 0.866 0.5 43.6134 107.3337)" class="st15" width="2.1" height="7.6"/>
			<rect x="122.6" y="3.2" transform="matrix(0.866 -0.5 0.5 0.866 13.0507 62.7536)" class="st15" width="2.1" height="7.6"/>
		</g>
	</g>
</g>
</svg>
