<?xml version="1.0" encoding="utf-8"?>
<!-- Generator: Adobe Illustrator 21.0.0, SVG Export Plug-In . SVG Version: 6.00 Build 0)  -->
<svg version="1.1" id="Layer_1" xmlns="http://www.w3.org/2000/svg" xmlns:xlink="http://www.w3.org/1999/xlink" x="0px" y="0px"
	 viewBox="0 0 78 78" style="enable-background:new 0 0 78 78;" xml:space="preserve">
<style type="text/css">
	.st0{fill:#B5D01E;}
</style>
<g>
	<path class="st0" d="M72,26.9c-0.3,0.8-0.9,1-1.7,1c-3.6,0-7.3,0-10.9,0c-0.5,0-0.7,0.1-1,0.5c-1.6,2.1-3.6,3.6-6.2,4.2
		c-0.6,0.1-1.2,0.2-1.8,0.1c-0.5,0-0.9,0.1-1.2,0.5c-4.1,4.1-8.1,8.2-12.2,12.2c-1,1-1.6,1-2.6,0c-7.9-7.9-15.9-15.9-23.8-23.8
		c-1-1-1-1.5,0-2.6c4.5-4.5,9-9.1,13.6-13.6c0.3-0.3,0.7-0.5,1-0.8c0.2,0,0.4,0,0.6,0c0.4,0.4,0.9,0.7,1.2,1.1
		c1.1,1.1,2.2,2.2,3.3,3.3c0.3,0.3,0.5,0.3,0.9,0.2c1.8-0.7,3.6-1.3,5.4-2c1.7-0.6,3.5-0.7,5.3-0.5C44,7.1,45.7,8,47.4,8.9
		c2.3,1.1,4.5,2.4,6.7,3.6c0.8,0.4,1.8,0.6,2.7,0.6c0.2-1.3,0.6-1.6,1.9-1.6c1,0,2,0,3,0c0-0.3,0-0.5,0-0.6c0-1.4,0.4-1.8,1.8-1.8
		c2.2,0,4.4,0,6.6,0c0.8,0,1.4,0.2,1.8,0.9C72,15.6,72,21.2,72,26.9z M32.7,11.3c0.2,0.2,0.2,0.3,0.3,0.4c1.5,1.5,2.9,2.9,4.4,4.4
		c0.2,0.2,0.5,0.3,0.7,0.4c2.7,0.9,5.4,1.7,8.2,2.6c1.2,0.4,1.6,1,1.3,1.8c-0.3,0.8-1,1-2.1,0.7c-3.6-1.1-7.2-2.3-10.9-3.4
		c-1.2-0.4-2.4,0-3,1c-0.6,1-0.5,2.2,0.3,3c0.5,0.5,1.1,0.9,1.8,1.1c3.1,1.1,6.3,2.1,9.4,3.2c0.5,0.2,1,0.6,1.4,1
		c2.1,2.3,4.6,3.1,7.6,2.4c2-0.5,3.5-1.9,4.6-3.6c0.1-0.2,0.1-0.4,0.1-0.6c0-3.1,0-6.3,0-9.4c0-0.4-0.1-0.6-0.5-0.6
		c-1.8-0.1-3.4-0.8-4.9-1.6c-2.5-1.4-5.1-2.7-7.7-4c-1.3-0.7-2.8-1-4.2-0.7C37.3,9.9,35.1,10.7,32.7,11.3z M37.7,27.3
		c-0.1,0.2-0.2,0.4-0.2,0.6c-1.2,3.4-4.8,5.5-8.4,4.7c-3.4-0.7-5.8-3.6-5.9-7.1c-0.1-3.4,2.1-6.3,5.5-7.2c0.3-0.1,0.6-0.3,0.7-0.5
		c0.6-0.9,1.4-1.6,2.4-2.1c0.4-0.1,0.7-0.3,1.1-0.4c-0.9-0.9-1.8-1.8-2.7-2.7c-0.2,0.1-0.4,0.3-0.7,0.4c-1,0.4-2,0.8-3.1,1
		c-1.9,0.3-3.7-0.2-5.3-1.2c-0.2-0.1-0.5-0.1-0.6,0c-0.9,0.9-1.8,1.8-2.7,2.7c2,3.2,2,6.4,0.1,9.5c4.4,4.4,8.8,8.8,13.2,13.2
		c1.3-1,3-1.5,4.7-1.5c1.7,0,3.3,0.5,4.6,1.5c1-1,2-2,2.9-2.9c-0.4-1-0.9-2.1-1.2-3.2c-0.2-1.1-0.1-2.2-0.2-3.4
		C40.5,28.3,39.1,27.8,37.7,27.3z M64.4,11.7c0,4.6,0,9.1,0,13.6c1.7,0,3.4,0,5,0c0-4.6,0-9.1,0-13.6c-1.6,0-3.1,0-4.6,0
		C64.6,11.7,64.5,11.7,64.4,11.7z M28.7,21.1c-2,0.7-3.3,3.1-2.9,5.3c0.5,2.3,2.7,4,4.9,3.8c2.3-0.2,4.3-1.9,4.3-3.8
		C32.2,25.6,29.4,24.6,28.7,21.1z M61.7,14.1c-0.8,0-1.5,0-2.2,0c0,3.8,0,7.5,0,11.2c0.8,0,1.5,0,2.2,0
		C61.7,21.6,61.7,17.8,61.7,14.1z M15.9,23.2c1.1-1.6,1.1-4.3,0-5.7c-0.9,0.9-1.9,1.9-2.8,2.9C13.9,21.3,14.9,22.2,15.9,23.2z
		 M32.9,40c1,1,1.9,1.9,2.7,2.7c0.9-0.9,1.8-1.8,2.8-2.8C36.6,39,34.7,39,32.9,40z M25.4,7.9c-0.9,0.9-1.7,1.8-2.6,2.6
		c-0.1,0.1-0.1,0.1-0.1,0.2c1.5,1.1,4.3,1.1,5.6,0C27.3,9.8,26.4,8.9,25.4,7.9z M45.1,33.4c0.5-0.5,1-1,1.5-1.4
		c-0.7-0.4-1.4-0.7-2.1-1.1c0,0-0.1,0.1-0.1,0.1C44.6,31.8,44.9,32.6,45.1,33.4z"/>
	<path class="st0" d="M49,55.4c2.8-0.8,5.5-1.5,8.3-2.3c1.2-0.3,2.3-0.7,3.6-0.6c2.2,0.2,3.6,1.3,4.4,3.3c0.8,2,0.2,3.8-1.2,5.3
		c-0.8,0.8-1.7,1.4-2.8,1.8c-6.7,2.4-13.5,4.9-20.2,7.3c-2.6,0.9-5.3,0.8-7.8-0.4c-2.8-1.3-5.5-2.8-8.3-4.3
		c-1.2-0.6-2.4-1.1-3.8-1.2c0,0.1-0.1,0.2-0.1,0.3c-0.1,0.9-0.5,1.3-1.5,1.3c-1.1,0-2.2,0-3.3,0c0,0.4,0,0.8-0.1,1.1
		c-0.1,0.8-0.5,1.3-1.3,1.3c-2.6,0-5.1,0-7.7,0c-0.9,0-1.3-0.6-1.3-1.5c0-2.1,0-4.2,0-6.3c0-3,0-6.1,0-9.1c0-1.4,0.4-1.8,1.9-1.8
		c3.6,0,7.1,0,10.7,0c0.5,0,0.8-0.2,1.1-0.6c1.7-2.2,3.9-3.9,6.8-4.2c3.4-0.3,6.3,0.8,8.7,3.3c0.2,0.2,0.5,0.4,0.8,0.6
		c2.7,0.9,5.3,1.9,8,2.7C46.3,52,48.2,53,49,55.4z M21.1,61.7c2.3,0.1,4.2,1,6.1,2.1c2.3,1.3,4.7,2.5,7,3.6c1.9,0.9,3.9,1.1,5.9,0.4
		c6.8-2.4,13.6-4.9,20.5-7.4c0.6-0.2,1.2-0.7,1.7-1.2c0.6-0.5,0.8-1.3,0.6-2.1c-0.3-1.7-1.7-2.5-3.5-2c-3.3,0.9-6.6,1.8-9.9,2.7
		c-0.2,0.1-0.5,0.4-0.6,0.6c-0.6,1.7-1.8,2.8-3.5,3.3c-0.9,0.3-1.9,0.3-2.8,0c-3.8-1.2-7.6-2.4-11.3-3.6c-0.6-0.2-1-0.5-1.1-1.2
		c-0.1-1,0.8-1.6,1.9-1.2c2.1,0.6,4.1,1.3,6.2,2c1.8,0.6,3.5,1.2,5.4,1.6c1.7,0.4,3.2-1.2,2.8-2.9c-0.3-1.3-1.3-2-2.5-2.4
		c-3.1-1-6.1-2.1-9.2-3.1c-0.7-0.2-1.2-0.6-1.7-1.1c-1.7-2.1-5.1-3.1-7.6-2.3c-1.7,0.5-2.9,1.6-4,3c-0.4,0.5-0.6,1-0.6,1.7
		c0.1,1,0,2.1,0,3.1C21.1,57.4,21.1,59.5,21.1,61.7z M13.6,65.7c0-4.6,0-9.1,0-13.6c-1.7,0-3.3,0-5,0c0,4.6,0,9.1,0,13.6
		C10.3,65.7,11.9,65.7,13.6,65.7z M16.3,52.1c0,3.8,0,7.5,0,11.2c0.8,0,1.5,0,2.2,0c0-3.8,0-7.5,0-11.2C17.7,52.1,17,52.1,16.3,52.1
		z"/>
	<path class="st0" d="M51,20.7c0.7,0,1.3,0.5,1.3,1.2c0,0.7-0.5,1.3-1.2,1.3c-0.7,0-1.3-0.6-1.3-1.3C49.7,21.2,50.3,20.7,51,20.7z"
		/>
	<path class="st0" d="M25.7,55.5c0-0.7,0.5-1.3,1.3-1.3c0.7,0,1.3,0.6,1.3,1.2c0,0.7-0.6,1.3-1.3,1.3C26.2,56.8,25.7,56.2,25.7,55.5
		z"/>
</g>
</svg>
