<?xml version="1.0" encoding="utf-8"?>
<!-- Generator: Adobe Illustrator 21.0.0, SVG Export Plug-In . SVG Version: 6.00 Build 0)  -->
<svg version="1.1" id="Layer_1" xmlns="http://www.w3.org/2000/svg" xmlns:xlink="http://www.w3.org/1999/xlink" x="0px" y="0px"
	 viewBox="0 0 78 78" style="enable-background:new 0 0 78 78;" xml:space="preserve">
<style type="text/css">
	.st0{fill:#B5D01E;}
</style>
<g>
	<path class="st0" d="M64.8,72c-17.4,0-34.9,0-52.3,0c-0.1,0-0.2-0.1-0.4-0.1c-3.8-0.7-6.2-3-7.3-6.6c-0.1-0.5-0.2-0.9-0.3-1.4
		c0-0.7,0-1.3,0-2c0-0.1,0.1-0.2,0.1-0.4c0.6-3.3,2.4-5.6,5.4-7c0.9-0.4,2-0.6,3-0.9c-0.1-0.2-0.1-0.4-0.2-0.6
		c-0.9-2.2-1.8-4.3-2.7-6.5c-1.9-4.6-3.8-9.3-5.7-13.9c0-0.1,0-0.2,0-0.3c0.2-1.2,1-1.8,2.1-2.2c2.9-1.2,5.8-2.4,8.7-3.6
		c1.4-0.6,2.6,0,3.2,1.3c0.4,1,0.8,2,1.2,3c1.6,3.8,3.1,7.5,4.7,11.3c0.1,0.2,0.3,0.5,0.5,0.5c0.8-0.1,1.5-0.2,2.3-0.4
		c0-0.2,0-0.3-0.1-0.4c-1.6-6.7-3.2-13.4-4.7-20.1c-0.4-1.8-1-3.5-0.8-5.4c0.2-3.2,0.3-6.4,0.4-9.5c0.1-2,0.5-2.6,2.3-3.3
		c0.3,0,0.5,0,0.8,0c1.1,0.3,1.7,1,2.3,2c1.7,3.1,3.4,6.2,5,9.3c0.2,0.3,0.4,0.7,0.5,1.1c1.5,6.3,3,12.7,4.4,19
		c0.3,1.4,0.7,2.8,1,4.3c0.8-0.5,1.5-1.1,2.2-1.5c0.5-0.3,0.7-0.6,0.6-1.1c-0.2-4,0.1-7.9,0.7-11.9c0-0.3-0.1-0.7-0.3-1
		c-2.6-3.3-2-7.1,0.3-9.5c1.4-1.5,2.6-3.2,3.7-5c0.8-1.2,1-2.6,0.7-4c-0.2-0.8,0-1.3,0.7-1.8c0.3,0,0.5,0,0.8,0
		c2.1,1.7,3.9,3.7,5.3,6.1c2.8,5,2.8,9.9-0.6,14.7c-0.2,0.2-0.2,0.5-0.2,0.8c-0.1,2.7-0.2,5.4-0.3,8.1c0,0.9-0.2,1.7-0.3,2.5
		c1.4,0.5,2.7,1,4.1,1.5c0.8-2,1.6-3.9,2.5-5.9c1.1-2.4,1.8-4.9,2.1-7.6c0-0.5,0.4-1,0.8-1.3c2.6-1.7,5.2-3.3,7.9-4.9
		c0.9-0.5,1.6-0.2,1.9,0.8c0.2,0.9,0.4,1.7,0.6,2.6c0.5,2.2,1.1,4.5,1.6,6.7c0,0.1,0,0.2,0,0.3c-0.3,0.5-0.5,1-0.8,1.4
		c-1.2,1.6-2.3,3.3-3.1,5.2c-1.8,4.3-3.6,8.7-5.4,13c-0.1,0.3-0.1,0.7-0.1,1c0,1.3,0.1,2.6,0.1,3.9c0,0.5-0.1,0.9-0.1,1.4
		c0.3,0,0.6,0.1,0.8,0.1c4.4,0.3,7.9,3.8,8.4,8.3c0.4,4.3-2.5,8.5-6.8,9.6C65.7,71.8,65.2,71.9,64.8,72z M38.7,69.7
		c8.4,0,16.8,0,25.1,0c4,0,7.1-3.4,6.8-7.3c-0.3-4-3.9-6.9-7.9-6.3c-1.5,0.2-2-0.3-1.6-1.8c0.5-1.9,0.6-3.7,0.3-5.6
		c-1-5.8-5.6-10.2-11.7-10.9c-5.5-0.6-11.1,2.7-13.3,8c-0.6,1.3-1.1,1.5-2.3,0.7c-2.7-1.8-5.6-2.3-8.8-1.5c-4.7,1.2-7.9,5.2-8.1,10
		c0,0.6-0.2,1.1-0.8,1.3c-0.4,0.1-0.8,0-1.2-0.1c-4.9-1.1-9.3,3.4-8.1,8.3c0.8,3.2,3.5,5.2,6.9,5.2C22.2,69.7,30.4,69.7,38.7,69.7z
		 M21.6,41.3c-0.3,0.1-0.5,0.2-0.7,0.3c-1.1,0.5-2.2,1-3.3,1.4c-0.4,0.1-0.9,0.1-1.2,0c-0.3-0.2-0.6-0.7-0.5-1
		c0.1-0.4,0.4-0.9,0.8-1c1.3-0.6,2.7-1.1,4.1-1.7c-0.3-0.7-0.6-1.4-0.9-2.1c-0.4,0.2-0.7,0.3-1,0.4c-0.3,0.1-0.6,0.3-0.9,0.4
		c-0.8,0.3-1.4,0.1-1.7-0.6c-0.3-0.6,0-1.2,0.8-1.5c0.6-0.3,1.3-0.5,1.9-0.8c-0.3-0.7-0.6-1.4-0.9-2.1c-0.3,0.1-0.5,0.2-0.7,0.3
		c-1.2,0.5-2.3,1-3.5,1.4c-0.8,0.3-1.6-0.2-1.6-1c0-0.6,0.3-1,0.9-1.2c1.3-0.5,2.7-1.1,4-1.7c-0.3-0.7-0.6-1.4-0.9-2.1
		c-3.2,1.3-6.3,2.6-9.5,3.9c2.8,6.6,5.5,13.2,8.3,19.9c1.2-4.2,3.6-7.1,7.4-9C22.2,42.7,21.9,42,21.6,41.3z M27.1,21.6
		c-0.8-0.2-1.6-0.3-2.4-0.5c0.3,1.2,0.5,2.3,0.8,3.4c1.3,5.8,2.7,11.5,4.1,17.3c0,0.2,0.2,0.5,0.3,0.6c0.7,0.2,1.4,0.4,2.2,0.5
		c-0.1-0.3-0.1-0.5-0.1-0.7c-0.9-3.8-1.8-7.6-2.7-11.4c-0.2-0.9,0.1-1.5,0.8-1.7c0.7-0.2,1.3,0.2,1.5,1.2c0.7,2.9,1.3,5.8,2,8.6
		c0.4,1.6,0.7,3.1,1.1,4.8c0.5-0.8,0.9-1.4,1.3-2c0.3-0.4,0.4-0.7,0.2-1.2c-1.3-5.5-2.6-11-3.9-16.5c-0.4-1.5-0.7-3-1.1-4.6
		c-0.6,0.4-1.1,0.8-1.6,1.2c-0.3,0.2-0.4,0.3-0.3,0.7c0.2,0.9,0.4,1.9,0.7,2.8c0.2,0.8-0.1,1.4-0.8,1.6c-0.7,0.1-1.2-0.2-1.4-1.1
		C27.6,23.7,27.4,22.6,27.1,21.6z M48.8,7.7c-0.6,1.3-1.1,2.7-1.8,3.8c-1,1.6-2.3,3-3.5,4.5c-1.6,1.8-1.7,4.5-0.1,6.3
		c0.2,0.2,0.5,0.4,0.8,0.4c2,0.2,4,0.3,5.9,0.4c0.2,0,0.5-0.1,0.6-0.2c1.7-2.3,2.5-4.9,2-7.7c-0.4-2.5-1.5-4.7-3.1-6.6
		C49.2,8.2,49,7.9,48.8,7.7z M67.1,21.4c0,0-0.1-0.1-0.1-0.1c-1.4,0.9-2.9,1.8-4.3,2.7c-0.2,0.1-0.3,0.4-0.3,0.6
		c-0.5,1.8-0.9,3.6-1.3,5.4c-0.1,0.2-0.1,0.5,0,0.7c0.9,2.1,3.6,3.2,5.8,2.4c0.2-0.1,0.5-0.3,0.6-0.6c1-1.6,1.9-3.1,2.9-4.7
		c0.1-0.2,0.3-0.4,0.2-0.5c-0.4-1.7-0.8-3.4-1.2-5.3c-0.2,0.4-0.3,0.6-0.4,0.8c-0.4,1.1-0.9,2.1-1.3,3.2c-0.3,0.6-0.9,0.9-1.5,0.7
		c-0.6-0.2-0.8-0.8-0.6-1.5c0.1-0.2,0.1-0.3,0.2-0.5C66.2,23.7,66.7,22.5,67.1,21.4z M57.6,38.5c2.2,1.6,3.7,3.6,4.9,6
		c1.2-2.9,2.4-5.7,3.5-8.5c0-0.1,0-0.1,0-0.2c-2.5,0.1-4.5-0.8-6.2-2.6C59.1,35,58.3,36.7,57.6,38.5z M23.9,13.6c0,1.4,0,2.6,0,3.8
		c0,0.2,0.2,0.4,0.3,0.6c1,1,2.2,1.5,3.6,1.1c1.3-0.3,2.2-1.3,2.5-2.6c0.1-0.2,0.1-0.4,0-0.6c-0.6-1.1-1.2-2.2-1.8-3.4
		C27.2,13.6,25.8,13.9,23.9,13.6z M43.5,30.7c0,1.8,0,3.7,0,5.5c0.9-0.2,1.9-0.5,2.8-0.6c1-0.1,2-0.2,3-0.2c0.2-1.5,0.3-3,0.5-4.4
		C47.7,30.9,45.7,30.8,43.5,30.7z M49.9,28.8c0-1.3,0-2.3,0-3.4c-1.9-0.1-3.8-0.2-5.7-0.3c-0.1,1.2-0.3,2.2-0.4,3.4
		C45.8,28.5,47.8,28.6,49.9,28.8z M27.4,10.5C26.6,9,25.8,7.5,25,6.1C25,6,24.7,5.8,24.6,5.8c-0.1,0.1-0.3,0.3-0.3,0.5
		c-0.1,1.5-0.1,3.1-0.1,4.6c0,0.2,0.2,0.4,0.4,0.5C25.6,11.5,26.6,11.3,27.4,10.5z"/>
	<path class="st0" d="M44.7,56.6c1.3-0.6,2.6-0.7,3.9-0.3c1.6,0.4,2.8,1.4,3.6,2.9c0.4,0.7,0.2,1.4-0.4,1.7
		c-0.6,0.3-1.2,0.1-1.6-0.6c-1.2-2-3.2-2.5-5.1-1.2c-0.8,0.5-1.4,0.4-2-0.7c-1.1-1.9-3.2-2.7-5.3-2.1c-2,0.6-3.4,2.5-3.2,4.6
		c0,0.5,0.1,0.9,0.3,1.4c0.3,0.9,0.1,1.5-0.6,1.7c-0.7,0.2-1.3-0.1-1.6-1c-1.1-3.1,0.1-6.5,2.9-8.2c2.8-1.7,6.4-1.1,8.6,1.3
		C44.4,56.2,44.6,56.4,44.7,56.6z"/>
	<path class="st0" d="M39.7,45.6c0.5-0.9,0.9-1.9,1.5-2.8c1.3-1.7,3.1-2.6,5.2-2.7c0.8-0.1,1.4,0.4,1.4,1.1c0,0.7-0.4,1.1-1.2,1.2
		c-2.3,0.2-3.8,1.4-4.5,3.6c-0.2,0.7-0.8,1.1-1.4,0.9c-0.5-0.1-0.9-0.6-0.9-1.2C39.9,45.6,39.8,45.6,39.7,45.6z"/>
	<path class="st0" d="M20.5,53.5c0.1-2.4,1.8-4.6,4.1-5.3c0.7-0.2,1.3,0,1.5,0.6c0.2,0.6,0,1.2-0.7,1.5c-1.3,0.5-2.1,1.4-2.5,2.7
		c-0.1,0.3-0.1,0.5-0.1,0.8c-0.1,0.8-0.6,1.2-1.3,1.2C20.8,54.8,20.5,54.3,20.5,53.5z"/>
	<path class="st0" d="M51.3,15.8c0,1.8-0.5,3.4-1.5,4.9c-0.5,0.7-1.1,0.9-1.7,0.5c-0.6-0.4-0.7-1.1-0.2-1.8c0.9-1.4,1.2-2.9,1.1-4.6
		c-0.1-0.9,0.2-1.4,0.9-1.5c0.7-0.1,1.2,0.3,1.3,1.2C51.2,15,51.2,15.4,51.3,15.8z"/>
</g>
</svg>
