<?xml version="1.0" encoding="utf-8"?>
<!-- Generator: Adobe Illustrator 21.0.0, SVG Export Plug-In . SVG Version: 6.00 Build 0)  -->
<svg version="1.1" id="Layer_1" xmlns="http://www.w3.org/2000/svg" xmlns:xlink="http://www.w3.org/1999/xlink" x="0px" y="0px"
	 viewBox="0 0 78 78" style="enable-background:new 0 0 78 78;" xml:space="preserve">
<style type="text/css">
	.st0{fill:#B5D01E;}
</style>
<g>
	<path class="st0" d="M65.5,71.9c-0.6,0-1.3,0-1.9,0c-0.1,0-0.1-0.1-0.2-0.1c-2-0.3-3.5-1.3-4.9-2.7C53.4,63.5,48.2,58,43.1,52.4
		c-0.1-0.2-0.2-0.4-0.3-0.6c-0.4,0.4-0.6,0.6-0.9,0.8c-0.6,0.5-1.2,0.5-1.7,0c-0.5-0.5-0.5-1.2-0.1-1.8c0.2-0.3,0.5-0.6,0.8-0.9
		c-0.6-0.6-1.1-1.2-1.7-1.9c-2.5,2.5-4.9,4.9-7.3,7.4c-0.2,0.2-0.2,0.5-0.1,0.8c0.3,1.4,0.4,2.8,0.2,4.3c-0.7,4.7-3.2,8.2-7.5,10.2
		c-1.3,0.6-2.8,0.8-4.2,1.2c-0.8,0-1.5,0-2.3,0c-0.8-0.2-1.7-0.3-2.5-0.6c-1.4-0.4-1.7-1.4-0.6-2.5c1.3-1.3,2.6-2.6,3.9-3.9
		c0.9-0.8,1.4-1.7,1.2-2.9c-0.1-0.6-0.1-1.1-0.6-1.5c-0.4-0.3-0.7-0.6-1-1c-0.8-1.2-1.9-1.6-3.4-1.4c-0.4,0.1-0.7,0.1-1.1,0.4
		c-1.6,1.6-3.1,3.2-4.7,4.8c-0.9,0.9-2,0.6-2.3-0.5c-1.1-3.4-0.8-6.8,0.9-9.9c2.8-5.2,8.3-7.7,14.1-6.6c0.4,0.1,0.7,0,1-0.3
		c2.9-2.9,5.7-5.8,8.6-8.6c0.1-0.1,0.2-0.3,0.4-0.4c-0.1-0.1-0.1-0.2-0.2-0.2c-5.1-5.1-10.1-10.2-15.2-15.3
		c-0.2-0.2-0.5-0.3-0.8-0.3c-0.8,0-1.7,0.1-2.5,0c-0.4,0-1-0.3-1.2-0.6c-1.8-3-3.6-6-5.4-9c-0.3-0.5-0.4-1.1,0.1-1.5
		C8,8.8,9.5,7.5,10.9,6.1c0.3,0,0.5,0,0.8,0c0,0,0,0.1,0.1,0.1c3,1.8,6.1,3.6,9.1,5.4c0.6,0.3,0.8,0.8,0.8,1.5c0,0.7,0,1.5,0,2.2
		c0,0.5,0.1,0.8,0.5,1.2c5,4.9,9.9,9.9,14.8,14.8c0.1,0.1,0.2,0.3,0.4,0.5c0.2-0.1,0.2-0.1,0.3-0.2c3-3,6-6,9-9
		c0.2-0.2,0.2-0.5,0.2-0.8c-0.3-1.5-0.4-2.9-0.2-4.4c0.7-4.7,3.1-8.1,7.4-10.1c1.3-0.6,2.9-0.8,4.3-1.2c0.8,0,1.5,0,2.3,0
		c0.8,0.2,1.7,0.3,2.5,0.6c1.4,0.4,1.7,1.4,0.6,2.5c-1.5,1.6-3.1,3.1-4.6,4.7c-0.2,0.2-0.3,0.6-0.4,0.9c-0.3,1.5,0.2,2.7,1.4,3.5
		c0,0,0.1,0.1,0.1,0.1c0.8,1.2,1.9,1.5,3.2,1.4c0.4-0.1,0.8-0.1,1.1-0.5c1.6-1.6,3.1-3.2,4.7-4.8c0.9-0.9,2-0.6,2.3,0.6
		c0.1,0.5,0.3,0.9,0.4,1.4c0,1.7,0,3.3,0,5c-0.1,0.3-0.2,0.6-0.3,0.8c-0.5,1.9-1.4,3.6-2.7,5c-3.4,3.8-7.6,5.1-12.6,4.2
		c-0.4-0.1-0.6,0-0.9,0.3c-2.3,2.3-4.5,4.5-6.8,6.8c-0.1,0.1-0.3,0.3-0.4,0.4c0.6,0.6,1.2,1.1,1.8,1.7c1.5-1.2,2-1.3,2.6-0.7
		c0.6,0.6,0.5,1.1-0.7,2.5c0.2,0.2,0.3,0.3,0.5,0.5c5.3,4.9,10.6,9.8,15.9,14.6c1.5,1.3,2.8,2.8,3.3,4.7c0,1.3,0,2.6,0,3.9
		c-0.1,0.2-0.2,0.4-0.3,0.6c-0.7,2-2.1,3.5-4,4.4C67,71.5,66.2,71.7,65.5,71.9z M9,60.1c0.2-0.2,0.4-0.3,0.5-0.5
		c1.1-1.1,2.2-2.2,3.3-3.3c0.4-0.4,0.9-0.6,1.5-0.6c1,0,2,0,3,0c0.6,0,1.1,0.2,1.5,0.6c1,1.1,2.1,2.1,3.2,3.2
		c0.4,0.4,0.6,0.9,0.6,1.5c0,1,0,1.9,0,2.9c0,0.6-0.2,1.1-0.7,1.5c-1.1,1.1-2.2,2.2-3.3,3.3c-0.1,0.1-0.2,0.3-0.4,0.5
		c0.2,0,0.3,0.1,0.4,0.1c2.9,0.1,5.4-0.7,7.5-2.7c3.1-2.9,4.1-6.5,2.9-10.6c-0.2-0.8-0.1-1.3,0.5-1.9c8.3-8.3,16.6-16.6,24.9-24.9
		c0.6-0.6,1.2-0.7,2-0.5c4.7,1.4,9.5-0.6,11.9-4.8c1.1-1.9,1.5-3.9,1.3-6.1c-0.2,0.2-0.4,0.3-0.5,0.5c-1.1,1.1-2.2,2.2-3.3,3.3
		c-0.4,0.4-0.9,0.6-1.5,0.6c-1,0-2,0-3,0c-0.6,0-1.1-0.2-1.5-0.6c-0.7-0.7-1.3-1.4-2-2.1c-1.9-2-1.6-1.3-1.7-4.2
		c-0.1-1.6,0.4-2.8,1.6-3.8c1-0.8,1.8-1.8,2.8-2.8c-0.4,0-0.7-0.1-1-0.1C52.7,8.5,47.6,15,49.4,21.5c0.3,1.1,0.1,1.8-0.7,2.6
		c-8.2,8.1-16.3,16.3-24.4,24.4c-0.7,0.7-1.4,0.9-2.5,0.7C15,47.2,8.3,52.9,9,60.1z M44.6,50.2c0,0,0,0.1,0.1,0.1
		c5.4,5.8,10.7,11.6,16.1,17.5c1.1,1.2,2.5,1.8,4.2,1.6c2.2-0.2,3.7-1.3,4.4-3.4c0.8-2.2,0.2-4.1-1.5-5.6
		c-5.5-5.1-11.1-10.1-16.6-15.2c-0.3-0.3-0.6-0.5-0.8-0.7C48.5,46.3,46.5,48.2,44.6,50.2z M35.6,33.5c-0.2-0.2-0.4-0.3-0.6-0.5
		C30,27.9,24.9,22.9,19.9,17.8c-0.6-0.6-0.8-1.1-0.8-1.9c0-0.6,0-1.2,0-1.7c0-0.5-0.2-0.7-0.5-0.9c-2.2-1.3-4.3-2.6-6.4-3.9
		c-0.2-0.1-0.4-0.3-0.7-0.4c-0.6,0.6-1.2,1.2-1.8,1.8c-0.4,0.3-0.3,0.6-0.1,1c1,1.7,2,3.4,3,5.1c0.4,0.7,0.7,1.6,1.2,1.9
		c0.6,0.3,1.5,0.1,2.3,0.1c0.8,0,1.3,0.2,1.9,0.8c5.1,5.1,10.1,10.2,15.2,15.3c0.2,0.2,0.3,0.4,0.3,0.6C34.4,34.7,35,34.1,35.6,33.5
		z M41.1,46.4c0.6,0.6,1.1,1.2,1.6,1.7c1.9-1.9,3.8-3.8,5.7-5.6c-0.6-0.5-1.2-1.1-1.8-1.6C44.7,42.7,42.9,44.5,41.1,46.4z"/>
	<path class="st0" d="M48.6,31.1c-0.1,0.2-0.3,0.6-0.5,0.9c-5.3,5.3-10.5,10.6-15.8,15.8c-0.6,0.6-1.4,0.7-1.9,0.1
		c-0.6-0.6-0.5-1.3,0.2-2c5.2-5.2,10.4-10.4,15.6-15.6c0.1-0.1,0.3-0.3,0.5-0.4C47.5,29.4,48.6,30,48.6,31.1z"/>
	<path class="st0" d="M52.2,27.3c0,0.7-0.6,1.2-1.3,1.2c-0.7,0-1.3-0.6-1.3-1.3c0-0.7,0.6-1.2,1.3-1.2
		C51.7,26.1,52.2,26.6,52.2,27.3z"/>
	<path class="st0" d="M27.6,49.4c0.7,0,1.3,0.5,1.3,1.2c0,0.7-0.6,1.3-1.3,1.3c-0.7,0-1.3-0.6-1.3-1.3C26.3,50,26.9,49.4,27.6,49.4z
		"/>
	<path class="st0" d="M64.9,63.2c-0.1,1-1.1,1.6-2,1.1c-0.2-0.1-0.4-0.3-0.6-0.5c-3.6-3.6-7.2-7.2-10.9-10.8
		c-0.1-0.1-0.2-0.1-0.2-0.2c-0.7-0.7-0.7-1.4-0.2-2c0.5-0.5,1.3-0.5,2,0.2c2.6,2.6,5.2,5.2,7.8,7.8c1.1,1.1,2.3,2.3,3.4,3.4
		C64.6,62.5,64.7,62.9,64.9,63.2z"/>
</g>
</svg>
