<?xml version="1.0" encoding="utf-8"?>
<!-- Generator: Adobe Illustrator 23.0.3, SVG Export Plug-In . SVG Version: 6.00 Build 0)  -->
<svg version="1.1" id="Isolation_Mode" xmlns="http://www.w3.org/2000/svg" xmlns:xlink="http://www.w3.org/1999/xlink" x="0px"
	 y="0px" viewBox="0 0 225 232" style="enable-background:new 0 0 225 232;" xml:space="preserve">
<style type="text/css">
	.st0{opacity:0.15;fill:#1A50B2;enable-background:new    ;}
	.st1{fill:url(#SVGID_1_);}
	.st2{opacity:0.3;enable-background:new    ;}
	.st3{fill:url(#SVGID_2_);}
	.st4{fill:url(#SVGID_3_);}
	.st5{fill:url(#SVGID_4_);}
	.st6{fill:url(#SVGID_5_);}
	.st7{opacity:0.2;enable-background:new    ;}
	.st8{fill:url(#SVGID_6_);}
	.st9{fill:url(#SVGID_7_);}
	.st10{fill:#E6E9F3;}
	.st11{fill:#C8CDF0;}
	.st12{fill:url(#SVGID_8_);}
	.st13{fill:url(#SVGID_9_);}
	.st14{fill:url(#SVGID_10_);}
	.st15{opacity:0.6;enable-background:new    ;}
	.st16{fill:url(#SVGID_11_);}
	.st17{fill:url(#SVGID_12_);}
	.st18{fill:url(#SVGID_13_);}
	.st19{fill:url(#SVGID_14_);}
	.st20{opacity:0.15;enable-background:new    ;}
	.st21{fill:url(#SVGID_15_);}
	.st22{fill:url(#SVGID_16_);}
	.st23{fill:url(#SVGID_17_);}
	.st24{fill:url(#SVGID_18_);}
	.st25{opacity:0.4;enable-background:new    ;}
	.st26{fill:url(#SVGID_19_);}
	.st27{fill:url(#SVGID_20_);}
	.st28{fill:url(#SVGID_21_);}
	.st29{opacity:0.2;fill:#FFFFFF;enable-background:new    ;}
	.st30{fill:url(#SVGID_22_);}
	.st31{fill:url(#SVGID_23_);}
	.st32{fill:url(#SVGID_24_);}
	.st33{fill:url(#SVGID_25_);}
	.st34{fill:url(#SVGID_26_);}
	.st35{opacity:0.4;fill:#FFFFFF;enable-background:new    ;}
	.st36{fill:url(#SVGID_27_);}
	.st37{fill:#FCD2BB;}
	.st38{fill-rule:evenodd;clip-rule:evenodd;fill:url(#SVGID_28_);}
	.st39{fill:url(#SVGID_29_);}
	.st40{fill:url(#SVGID_30_);}
	.st41{fill:#2A85C4;}
	.st42{fill-rule:evenodd;clip-rule:evenodd;fill:url(#SVGID_31_);}
	.st43{fill:url(#SVGID_32_);}
	.st44{fill:url(#SVGID_33_);}
	.st45{fill:#F7B6B2;}
	.st46{opacity:0.3;fill:#FCD2BB;enable-background:new    ;}
	.st47{fill:#EB5561;}
	.st48{fill:#DC495A;}
	.st49{fill:url(#SVGID_34_);}
	.st50{fill:#B9CCDF;}
	.st51{fill:url(#SVGID_35_);}
	.st52{fill:#A5BACC;}
	.st53{fill:#F4767A;}
	.st54{fill:#ED5561;}
	.st55{fill:#BBCEE1;}
	.st56{fill:#D8395A;}
	.st57{fill:#FFA8E1;}
	.st58{fill:#FF7AD2;}
	.st59{fill:#DE64C6;}
	.st60{fill:#FCEC32;}
	.st61{fill:#F5D012;}
	.st62{fill:#EAA10C;}
	.st63{clip-path:url(#SVGID_37_);}
	.st64{clip-path:url(#SVGID_39_);fill:#3199F0;}
	.st65{opacity:0.3;clip-path:url(#SVGID_41_);}
	.st66{clip-path:url(#SVGID_43_);}
	.st67{opacity:0.3;clip-path:url(#SVGID_45_);}
	.st68{clip-path:url(#SVGID_47_);}
	.st69{clip-path:url(#SVGID_49_);fill:#005BEA;}
	.st70{clip-path:url(#SVGID_51_);fill:#FFFFFF;}
	.st71{clip-path:url(#SVGID_53_);fill:#CEE7FD;}
	.st72{clip-path:url(#SVGID_55_);fill:#CEE7FD;}
	.st73{clip-path:url(#SVGID_57_);fill:#005BEA;}
	.st74{clip-path:url(#SVGID_59_);fill:#FFFFFF;}
	.st75{clip-path:url(#SVGID_61_);fill:#CEE7FD;}
	.st76{clip-path:url(#SVGID_63_);fill:#005BEA;}
	.st77{clip-path:url(#SVGID_65_);fill:#CEE7FD;}
	.st78{clip-path:url(#SVGID_67_);fill:#CEE7FD;}
	.st79{clip-path:url(#SVGID_69_);fill:#3199F0;}
	.st80{fill:#FFFFFF;}
</style>
<g>
	<g>
		<path class="st0" d="M10.3,145l16-9.2c3.8-2.1,9.9-2.1,13.7,0c3.8,2.1,3.8,5.5,0,7.6l0,0l0,0l-16,9.2c-3.8,2.1-9.9,2.1-13.7,0
			S6.5,147.1,10.3,145z"/>
		
			<linearGradient id="SVGID_1_" gradientUnits="userSpaceOnUse" x1="7.5" y1="84.3" x2="26.3603" y2="84.3" gradientTransform="matrix(1 0 0 -1 0 232)">
			<stop  offset="0" style="stop-color:#4BD6ED"/>
			<stop  offset="1" style="stop-color:#1A50B2"/>
		</linearGradient>
		<path class="st1" d="M7.5,146.5L7.5,146.5c0-1.3,0.9-2.7,2.8-3.7c3.7-2,9.7-2,13.3,0c1.9,1,2.8,2.4,2.8,3.7v2.4
			c0,1.3-0.9,2.7-2.8,3.7c-3.7,2-9.7,2-13.3,0c-1.8-1-2.8-2.4-2.8-3.7l0,0V146.5z"/>
		<path class="st2" d="M7.5,146.5c0,1.3,0.9,2.7,2.8,3.7c3.7,2,9.7,2,13.3,0c1.8-1,2.8-2.3,2.8-3.7l0,0v2.4c0,1.3-0.9,2.7-2.8,3.7
			c-3.7,2-9.7,2-13.3,0c-1.8-1-2.8-2.4-2.8-3.7l0,0V146.5L7.5,146.5z"/>
		
			<linearGradient id="SVGID_2_" gradientUnits="userSpaceOnUse" x1="8.7507" y1="98.1" x2="25.0818" y2="98.1" gradientTransform="matrix(1 0 0 -1 0 232)">
			<stop  offset="0" style="stop-color:#F0F2FE"/>
			<stop  offset="1" style="stop-color:#C8CDF0"/>
		</linearGradient>
		<path class="st3" d="M8.8,142.8c0-5.6,3.7-6.4,3.7-8.9s-3.7-3.3-3.7-8.9v-3.5c0-1.2,0.7-2.4,2.4-3.3c3.2-1.8,8.4-1.8,11.6,0
			c1.6,0.9,2.4,2.1,2.4,3.3v3.5c0,5.6-3.7,6.4-3.7,8.9s3.7,3.3,3.7,8.9v3.5c0.1,1.2-0.7,2.4-2.4,3.3c-3.2,1.8-8.4,1.8-11.6,0
			c-1.6-0.9-2.4-2.1-2.4-3.3C8.8,146.3,8.8,142.8,8.8,142.8z"/>
		<path class="st0" d="M11.7,132c-1.1-1.5-3-3-3-7v-3.5c0-1.2,0.7-2.4,2.4-3.3c2.1-1.2,5.1-1.5,7.7-1.2l0,0c0.1,0,0.3,0,0.4,0.1
			c0.1,0,0.2,0,0.2,0c1.2,0.2,2.2,0.6,3.2,1.1c1.6,0.9,2.4,2.1,2.4,3.3v3.5c0,5.6-3.7,6.4-3.7,8.9s3.7,3.3,3.7,8.9v1.7v1.8
			c0.1,1.2-0.7,2.4-2.4,3.3c-0.3,0.2-0.7,0.3-1.1,0.5c-0.2,0.1-0.3,0.1-0.5,0.2c-0.2,0.1-0.4,0.1-0.6,0.2c-0.5,0.1-1.1,0.3-1.6,0.3
			l0,0c-2.7,0.4-5.6,0-7.7-1.2c-1.6-0.9-2.4-2.1-2.4-3.3v-3.5c0-1.1,0.2-2.1,0.4-2.9c-1.7,8.4,9.6,9.9,9.6,0.3
			C18.8,132,15.8,136.4,11.7,132z"/>
		
			<linearGradient id="SVGID_3_" gradientUnits="userSpaceOnUse" x1="7.5" y1="111.9" x2="26.3603" y2="111.9" gradientTransform="matrix(1 0 0 -1 0 232)">
			<stop  offset="0" style="stop-color:#4BD6ED"/>
			<stop  offset="1" style="stop-color:#1A50B2"/>
		</linearGradient>
		<path class="st4" d="M7.5,118.9L7.5,118.9c0-1.3,0.9-2.7,2.8-3.7c3.7-2,9.7-2,13.3,0c1.9,1,2.8,2.4,2.8,3.7v2.4
			c0,1.3-0.9,2.7-2.8,3.7c-3.7,2-9.7,2-13.3,0c-1.8-1-2.8-2.4-2.8-3.7l0,0V118.9z"/>
		<path class="st2" d="M7.5,118.9c0,1.3,0.9,2.7,2.8,3.7c3.7,2,9.7,2,13.3,0c1.8-1,2.8-2.3,2.8-3.7l0,0v2.4c0,1.3-0.9,2.7-2.8,3.7
			c-3.7,2-9.7,2-13.3,0c-1.8-1-2.8-2.4-2.8-3.7l0,0V118.9L7.5,118.9z"/>
		
			<linearGradient id="SVGID_4_" gradientUnits="userSpaceOnUse" x1="9.7515" y1="87" x2="24.0807" y2="87" gradientTransform="matrix(1 0 0 -1 0 232)">
			<stop  offset="0" style="stop-color:#82E3FC"/>
			<stop  offset="1" style="stop-color:#3665FC"/>
		</linearGradient>
		<path class="st5" d="M11.8,143.7c1.4-0.8,3.2-4.2,5.1-4.2c1.8,0,3.7,3.4,5.1,4.2c2.8,1.5,2.8,4.1,0,5.6c-2.8,1.6-7.3,1.6-10.1,0
			S9.1,145.2,11.8,143.7z"/>
		<path class="st2" d="M22,143.7c2.8,1.5,2.8,4.1,0,5.6c-2.8,1.6-7.3,1.6-10.1,0c-2-1.1-2.6-2.7-1.7-4.1c2.6,3.2,8.5,2.1,8.6-4.7
			C20,141.5,21.1,143.2,22,143.7z"/>
		
			<linearGradient id="SVGID_5_" gradientUnits="userSpaceOnUse" x1="11.7993" y1="101.1125" x2="22.0401" y2="101.1125" gradientTransform="matrix(1 0 0 -1 0 232)">
			<stop  offset="0" style="stop-color:#82E3FC"/>
			<stop  offset="1" style="stop-color:#3665FC"/>
		</linearGradient>
		<path class="st6" d="M13.3,128.1c2-1.1,5.3-1.1,7.3,0c1.1,0.6,1.6,1.5,1.5,2.3c-0.1,0.4-0.3,0.8-0.7,1.1l-0.1,0.1
			c-1.9,1.8-3,1.7-3.3,2.3c-0.1,0.3-0.5,0.6-1,0.6l0,0l0,0c-0.6,0-0.9-0.3-1-0.6c-0.2-0.6-1.4-0.4-3.3-2.3l0,0
			c-0.5-0.4-0.7-0.8-0.8-1.3C11.7,129.6,12.1,128.7,13.3,128.1z"/>
		<path class="st7" d="M13.3,128.1c2-1.1,5.3-1.1,7.3,0c1.1,0.6,1.6,1.5,1.5,2.3c-0.1,0.4-0.3,0.8-0.7,1.1l-0.1,0.1
			c-1.9,1.8-3,1.7-3.3,2.3c-0.1,0.3-0.5,0.6-1,0.6l0,0l0,0c-0.6,0-0.9-0.3-1-0.6c-0.2-0.6-1.4-0.4-3.3-2.3l0,0
			c-0.5-0.4-0.7-0.8-0.8-1.3C11.7,129.6,12.1,128.7,13.3,128.1z"/>
		<path class="st7" d="M14.2,128.4c1.5-0.8,4-0.8,5.5,0s1.5,2.2,0,3.1c-1.5,0.8-4,0.8-5.5,0C12.6,130.7,12.6,129.3,14.2,128.4z"/>
	</g>
	<g>
		<polygon class="st0" points="132.1,215 113,204.4 91,216.6 110.2,227.2 		"/>
		
			<linearGradient id="SVGID_6_" gradientUnits="userSpaceOnUse" x1="86.6623" y1="14.4041" x2="124.9008" y2="14.4041" gradientTransform="matrix(1 0 0 -1 0.784 230.9541)">
			<stop  offset="0" style="stop-color:#82E3FC"/>
			<stop  offset="1" style="stop-color:#3665FC"/>
		</linearGradient>
		<polygon class="st8" points="125.7,214.5 106.5,203.9 87.4,214.5 87.4,218.6 106.6,229.2 125.7,218.6 		"/>
		<polygon class="st2" points="106.6,225.1 106.6,229.2 125.7,218.6 125.7,214.5 		"/>
		<polygon class="st0" points="125.7,214.5 106.5,203.9 106.6,225.1 		"/>
		
			<linearGradient id="SVGID_7_" gradientUnits="userSpaceOnUse" x1="99.1384" y1="8.1762" x2="109.5147" y2="26.1485" gradientTransform="matrix(1 0 0 -1 1.0354 230.0154)">
			<stop  offset="0" style="stop-color:#82E3FC"/>
			<stop  offset="1" style="stop-color:#3665FC"/>
		</linearGradient>
		<path class="st9" d="M106.6,225.1l9.2-5.1c3.2-1.7,5.9-5.2,7.3-8.9l-19.2-10.6c-1.4,3.6-4.1,7.1-7.3,8.9l-9.2,5.1L106.6,225.1z"/>
	</g>
	<g>
		<g>
			<path class="st0" d="M173.9,185.7c-2.9,1.6-7.7,1.6-10.6,0L56.4,126.4c-2.9-1.6-2.9-4.3,0-5.9L96.9,98c2.9-1.6,7.7-1.6,10.6,0
				l106.9,59.3c2.9,1.6,2.9,4.3,0,5.9L173.9,185.7z"/>
			<path class="st10" d="M42.1,97.6C42.1,97.6,42,97.6,42.1,97.6L84.7,74l0,0l0,0l0,0c1.7-0.9,4-0.8,6.6,0.6l90,49.9
				c5.2,2.9,9.3,9.8,9.3,15.5v36.4l-42.7,23.7l-4.8-2.7V161c0-2.8-2-6.2-4.5-7.5l-57.2-31.7L44,142.5l-4.8-2.7v-36.4
				C39.2,100.5,40.3,98.5,42.1,97.6z"/>
			<path class="st11" d="M44,106.1c0-2.8,2-3.9,4.5-2.5l32.8,18.2L44,142.5V106.1z"/>
			
				<linearGradient id="SVGID_8_" gradientUnits="userSpaceOnUse" x1="143" y1="98.05" x2="48.2" y2="98.05" gradientTransform="matrix(1 0 0 -1 0 232)">
				<stop  offset="0" style="stop-color:#FDD2A7"/>
				<stop  offset="1" style="stop-color:#F83F76"/>
			</linearGradient>
			<path class="st12" d="M48.5,103.6l90,49.9c2.5,1.4,4.5,4.8,4.5,7.5v3.4l-94.8-52.5v-8.1c0-0.1,0-0.2,0-0.3
				C48.4,103.5,48.5,103.6,48.5,103.6z"/>
			<path class="st2" d="M138.5,157.9l-90-49.9c-0.1,0-0.2-0.1-0.3-0.1c0,0.1,0,0.2,0,0.3v-4.4c0-0.1,0-0.2,0-0.3
				c0.1,0,0.2,0.1,0.3,0.1l90,49.9c2.5,1.4,4.5,4.8,4.5,7.5v3.4l-0.1-0.1C142.5,161.8,140.7,159.1,138.5,157.9z"/>
			
				<linearGradient id="SVGID_9_" gradientUnits="userSpaceOnUse" x1="39.2" y1="83.4173" x2="147.8" y2="83.4173" gradientTransform="matrix(1 0 0 -1 0 232)">
				<stop  offset="0.25" style="stop-color:#FFFFFF"/>
				<stop  offset="0.7" style="stop-color:#DEE4F7"/>
			</linearGradient>
			<path class="st13" d="M39.2,139.8l4.8,2.7v-36.4c0-2.8,2-3.9,4.5-2.5l90,49.9c2.5,1.4,4.5,4.8,4.5,7.5v36.4l4.8,2.7v-36.4
				c0-5.7-4.2-12.7-9.3-15.5l-90-49.9c-5.2-2.9-9.3-0.5-9.3,5.2V139.8z"/>
			<polygon class="st0" points="190.6,176.4 147.9,200.1 147.9,163.7 190.6,140 			"/>
		</g>
		<path class="st0" d="M88.5,112.4l28.8,16c0.3,0.2,0.8,0.2,1.1,0l9.3-5.1c0.2-0.1,0.2-0.2,0.2-0.3c0-0.1-0.1-0.2-0.2-0.3l-28.8-16
			c-0.3-0.2-0.8-0.2-1.1,0l-9.3,5.1c-0.1,0.1-0.2,0.2-0.2,0.3C88.3,112.2,88.4,112.3,88.5,112.4z"/>
		<g>
			<g>
				
					<linearGradient id="SVGID_10_" gradientUnits="userSpaceOnUse" x1="81.6594" y1="111.85" x2="127.0472" y2="111.85" gradientTransform="matrix(1 0 0 -1 0 232)">
					<stop  offset="0" style="stop-color:#59D8BC"/>
					<stop  offset="1" style="stop-color:#4584EC"/>
				</linearGradient>
				<path class="st14" d="M127,126.7v-0.6l0,0c0-0.1-0.1-0.3-0.3-0.4l-33-18.3c-0.4-0.2-0.9-0.2-1.3,0l-10.6,5.9
					c-0.2,0.1-0.3,0.2-0.3,0.3l0,0v0.6l0,0c0,0.1,0.1,0.3,0.3,0.4l33,18.3c0.4,0.2,0.9,0.2,1.3,0l10.6-5.9
					C127,127,127,126.9,127,126.7L127,126.7L127,126.7L127,126.7z"/>
				<path class="st15" d="M126.8,126.5l-10.6,5.9c-0.4,0.2-0.9,0.2-1.3,0l-33-18.3c-0.2-0.1-0.3-0.2-0.3-0.4l0,0v0.6l0,0
					c0,0.1,0.1,0.3,0.3,0.4l33,18.3c0.4,0.2,0.9,0.2,1.3,0l10.6-5.9c0.2-0.1,0.3-0.2,0.3-0.3l0,0l0,0l0,0v-0.6l0,0
					C127,126.2,127,126.4,126.8,126.5z"/>
				
					<linearGradient id="SVGID_11_" gradientUnits="userSpaceOnUse" x1="82.8117" y1="111.9625" x2="125.8961" y2="111.9625" gradientTransform="matrix(1 0 0 -1 0 232)">
					<stop  offset="0" style="stop-color:#59D8BC"/>
					<stop  offset="1" style="stop-color:#4584EC"/>
				</linearGradient>
				<path class="st16" d="M108.6,118c0.1,0.1,0,0.3-0.1,0.4l-1.1,0.6c-0.2,0.1-0.6,0.1-0.9,0l-1.1-0.6c-0.2-0.1-0.2-0.2-0.1-0.4
					l0.1,0.1l1.1,0.6c0.2,0.1,0.6,0.1,0.9,0L108.6,118C108.6,118.1,108.6,118.1,108.6,118z M95.7,113l1.1,0.6c0.2,0.1,0.6,0.1,0.8,0
					l1.1-0.6c0.2-0.1,0.2-0.2,0.1-0.4l-0.1,0.1l-1.1,0.6c-0.2,0.1-0.6,0.1-0.8,0l-1.1-0.6c-0.1,0-0.1-0.1-0.1-0.1
					C95.5,112.8,95.6,112.9,95.7,113z M99.2,117.6l1.1,0.6c0.2,0.1,0.6,0.1,0.8,0l1.1-0.6c0.2-0.1,0.2-0.2,0.1-0.4l-0.1,0.1
					l-1.1,0.6c-0.2,0.1-0.6,0.1-0.8,0l-1.1-0.6c-0.1,0-0.1-0.1-0.1-0.1C99,117.4,99,117.5,99.2,117.6z M107.1,120.3
					c0.2-0.1,0.2-0.2,0.1-0.4l-0.1,0.1l-1.1,0.6c-0.2,0.1-0.6,0.1-0.8,0l-1.1-0.6c-0.1,0-0.1-0.1-0.1-0.1c-0.1,0.1,0,0.3,0.1,0.4
					l1.1,0.6c0.2,0.1,0.6,0.1,0.8,0L107.1,120.3z M109.6,121.6c0.2-0.1,0.2-0.2,0.1-0.4l-0.1,0.1l-1.1,0.6c-0.2,0.1-0.6,0.1-0.8,0
					l-1.1-0.6c-0.1,0-0.1-0.1-0.1-0.1c-0.1,0.1,0,0.3,0.1,0.4l1.1,0.6c0.2,0.1,0.6,0.1,0.8,0L109.6,121.6z M110.9,119.5l-1.1,0.6
					c-0.2,0.1-0.6,0.1-0.8,0l-1.1-0.6c-0.1,0-0.1-0.1-0.1-0.1c-0.1,0.1,0,0.3,0.1,0.4l1.1,0.6c0.2,0.1,0.6,0.1,0.8,0l1.1-0.6
					C111.1,119.7,111.1,119.6,110.9,119.5C111,119.4,111,119.4,110.9,119.5z M113.3,120.8l-1.1,0.6c-0.2,0.1-0.6,0.1-0.8,0l-1.1-0.6
					c-0.1,0-0.1-0.1-0.1-0.1c-0.1,0.1,0,0.3,0.1,0.4l1.1,0.6c0.2,0.1,0.6,0.1,0.8,0l1.1-0.6C113.5,121,113.5,120.9,113.3,120.8
					C113.4,120.7,113.4,120.8,113.3,120.8z M104.7,119c0.2-0.1,0.2-0.2,0.1-0.4l-0.1,0.1l-1.1,0.6c-0.2,0.1-0.6,0.1-0.8,0l-1.1-0.6
					c-0.1,0-0.1-0.1-0.1-0.1c-0.1,0.1,0,0.3,0.1,0.4l1.1,0.6c0.2,0.1,0.6,0.1,0.8,0L104.7,119z M96.8,116.3l1.1,0.6
					c0.2,0.1,0.6,0.1,0.9,0l1.1-0.6c0.2-0.1,0.2-0.2,0.1-0.4l-0.1,0.1l-1.1,0.6c-0.2,0.1-0.6,0.1-0.9,0l-1.1-0.6
					c-0.1,0-0.1-0.1-0.1-0.1C96.6,116,96.6,116.2,96.8,116.3z M115.9,122L115.9,122l-1.2,0.7c-0.2,0.1-0.6,0.1-0.9,0l-1.1-0.6
					c-0.1,0-0.1-0.1-0.1-0.1c-0.1,0.1,0,0.3,0.1,0.4l1.1,0.6c0.2,0.1,0.6,0.1,0.9,0l1.1-0.6C115.9,122.3,115.9,122.1,115.9,122z
					 M100.3,120.9l1.1,0.6c0.2,0.1,0.6,0.1,0.8,0l1.1-0.6c0.2-0.1,0.2-0.2,0.1-0.4l-0.1,0.1l-1.1,0.6c-0.2,0.1-0.6,0.1-0.8,0
					l-1.1-0.6c-0.1,0-0.1-0.1-0.1-0.1C100.1,120.6,100.1,120.8,100.3,120.9z M112.1,122.6L112.1,122.6l-1.2,0.7
					c-0.2,0.1-0.6,0.1-0.9,0l-1.1-0.6c-0.1,0-0.1-0.1-0.1-0.1c-0.1,0.1,0,0.3,0.1,0.4l1.1,0.6c0.2,0.1,0.6,0.1,0.9,0l1.1-0.6
					C112.1,122.9,112.2,122.7,112.1,122.6z M97.9,119.5l1.1,0.6c0.2,0.1,0.6,0.1,0.9,0l1.1-0.6c0.2-0.1,0.2-0.2,0.1-0.4l-0.1,0.1
					l-1.1,0.6c-0.2,0.1-0.6,0.1-0.9,0l-1.1-0.6c-0.1,0-0.1-0.1-0.1-0.1C97.6,119.3,97.7,119.4,97.9,119.5z M95.5,118.2l1.1,0.6
					c0.2,0.1,0.6,0.1,0.8,0l1.1-0.6c0.2-0.1,0.2-0.2,0.1-0.4l-0.1,0.1l-1.1,0.6c-0.2,0.1-0.6,0.1-0.8,0l-1.1-0.6
					c-0.1,0-0.1-0.1-0.1-0.1C95.2,118,95.3,118.1,95.5,118.2z M107.5,124.9l1.1,0.6c0.2,0.1,0.6,0.1,0.9,0l1.1-0.6
					c0.2-0.1,0.2-0.2,0.1-0.4l-0.1,0.1l-1.1,0.6c-0.2,0.1-0.6,0.1-0.9,0l-1.1-0.6c-0.1,0-0.1-0.1-0.1-0.1
					C107.3,124.6,107.3,124.8,107.5,124.9z M106.4,115.4L106.4,115.4c-0.3,0.2-0.7,0.2-1,0.1l-1.1-0.6c-0.1,0-0.1-0.1-0.1-0.1
					c-0.1,0.1,0,0.3,0.1,0.4l1.1,0.6c0.2,0.1,0.6,0.1,0.8,0l0.1-0.1C106.5,115.6,106.5,115.5,106.4,115.4
					C106.6,115.4,106.5,115.4,106.4,115.4z M108.9,116.8L108.9,116.8c-0.3,0.2-0.7,0.2-0.9,0.1l-1.1-0.6c-0.1,0-0.1-0.1-0.1-0.1
					c-0.1,0.1,0,0.3,0.1,0.4l1.1,0.6c0.2,0.1,0.6,0.1,0.8,0l0.1-0.1C109.1,117,109.1,116.9,108.9,116.8
					C109,116.7,108.9,116.7,108.9,116.8z M111.3,118.1L111.3,118.1c-0.3,0.2-0.7,0.2-0.9,0.1l-1.1-0.6c-0.1,0-0.1-0.1-0.1-0.1
					c-0.1,0.1,0,0.3,0.1,0.4l1.1,0.6c0.2,0.1,0.6,0.1,0.8,0l0.1-0.1C111.5,118.3,111.5,118.2,111.3,118.1L111.3,118.1z M97.1,111.1
					l1.1,0.6c0.2,0.1,0.6,0.1,0.8,0l0.1-0.1c0.2-0.1,0.2-0.2,0.1-0.4l-0.1,0.1l-0.1,0.1c-0.2,0.1-0.6,0.1-0.9,0l-1.1-0.6
					c-0.1,0-0.1-0.1-0.1-0.1C96.9,110.9,96.9,111,97.1,111.1z M113.7,119.4L113.7,119.4c-0.3,0.2-0.7,0.2-0.9,0.1l-1.1-0.6
					c-0.1,0-0.1-0.1-0.1-0.1c-0.1,0.1,0,0.3,0.1,0.4l1.1,0.6c0.2,0.1,0.6,0.1,0.8,0l0.1-0.1C113.9,119.6,113.9,119.5,113.7,119.4
					C113.8,119.4,113.7,119.4,113.7,119.4z M101.6,112.8L101.6,112.8c-0.3,0.2-0.7,0.2-0.9,0.1l-1.1-0.6c-0.1,0-0.1-0.1-0.1-0.1
					c-0.1,0.1,0,0.3,0.1,0.4l1.1,0.6c0.2,0.1,0.6,0.1,0.8,0l0.1-0.1C101.8,113,101.8,112.9,101.6,112.8
					C101.7,112.7,101.7,112.7,101.6,112.8z M104,114.1L104,114.1c-0.3,0.2-0.7,0.2-0.9,0.1l-1.1-0.6c-0.1,0-0.1-0.1-0.1-0.1
					c-0.1,0.1,0,0.3,0.1,0.4l1.1,0.6c0.2,0.1,0.6,0.1,0.8,0l0.1-0.1C104.2,114.3,104.2,114.2,104,114.1
					C104.1,114,104.1,114.1,104,114.1z M120.9,123.4L120.9,123.4c-0.3,0.2-0.7,0.2-0.9,0.1l-1.1-0.6c-0.1,0-0.1-0.1-0.1-0.1
					c-0.1,0.1,0,0.3,0.1,0.4l1.1,0.6c0.2,0.1,0.6,0.1,0.8,0l0.1-0.1C121.1,123.6,121.1,123.5,120.9,123.4
					C121,123.4,121,123.4,120.9,123.4z M98.1,114.4l1.1,0.6c0.2,0.1,0.6,0.1,0.8,0l1.1-0.6c0.2-0.1,0.2-0.2,0.1-0.4l-0.1,0.1
					l-1.1,0.6c-0.2,0.1-0.6,0.1-0.8,0l-1.1-0.6c-0.1,0-0.1-0.1-0.1-0.1C97.9,114.1,98,114.3,98.1,114.4z M95,117.5l1.1-0.6
					c0.2-0.1,0.2-0.2,0.1-0.4l-0.1,0.1l-1.1,0.6c-0.2,0.1-0.6,0.1-0.8,0l-1.1-0.6c-0.1,0-0.1-0.1-0.1-0.1c-0.1,0.1,0,0.3,0.1,0.4
					l1.1,0.6C94.4,117.6,94.8,117.6,95,117.5z M103.7,115.5l-1.1,0.6c-0.2,0.1-0.6,0.1-0.9,0l-1.1-0.6c-0.1,0-0.1-0.1-0.1-0.1
					c-0.1,0.1,0,0.3,0.1,0.4l1.1,0.6c0.2,0.1,0.6,0.1,0.9,0l1.1-0.6C103.9,115.7,103.9,115.6,103.7,115.5
					C103.8,115.4,103.7,115.4,103.7,115.5z M106.1,116.8l-1.1,0.6c-0.2,0.1-0.6,0.1-0.8,0l-1.1-0.6c-0.1,0-0.1-0.1-0.1-0.1
					c-0.1,0.1,0,0.3,0.1,0.4l1.1,0.6c0.2,0.1,0.6,0.1,0.8,0l1.1-0.6C106.3,117,106.3,116.9,106.1,116.8
					C106.2,116.7,106.1,116.8,106.1,116.8z M114.8,126.8L114.8,126.8l-1.2,0.7c-0.2,0.1-0.6,0.1-0.8,0L110,126
					c-0.1,0-0.1-0.1-0.1-0.1c-0.1,0.1,0,0.3,0.1,0.4l2.8,1.5c0.2,0.1,0.6,0.1,0.8,0l1.1-0.6C114.8,127,114.9,126.9,114.8,126.8z
					 M118.5,122.1L118.5,122.1c-0.3,0.2-0.7,0.2-0.9,0.1l-1.1-0.6c-0.1,0-0.1-0.1-0.1-0.1c-0.1,0.1,0,0.3,0.1,0.4l1.1,0.6
					c0.2,0.1,0.6,0.1,0.8,0l0.1-0.1C118.7,122.3,118.7,122.2,118.5,122.1C118.6,122,118.6,122.1,118.5,122.1z M116.1,120.8
					L116.1,120.8c-0.3,0.2-0.7,0.2-0.9,0.1l-1.1-0.6c-0.1,0-0.1-0.1-0.1-0.1c-0.1,0.1,0,0.3,0.1,0.4l1.1,0.6c0.2,0.1,0.6,0.1,0.8,0
					l0.1-0.1C116.3,121,116.3,120.9,116.1,120.8C116.2,120.7,116.1,120.7,116.1,120.8z M120.7,124.7L120.7,124.7l-1.2,0.7
					c-0.2,0.1-0.6,0.1-0.9,0l-1.1-0.6c-0.1,0-0.1-0.1-0.1-0.1c-0.1,0.1,0,0.3,0.1,0.4l1.1,0.6c0.2,0.1,0.6,0.1,0.9,0l1.1-0.6
					C120.7,124.9,120.8,124.8,120.7,124.7z M105.9,124.5L105.9,124.5l-1.2,0.7c-0.2,0.1-0.6,0.1-0.8,0l-1.1-0.6
					c-0.1,0-0.1-0.1-0.1-0.1c-0.1,0.1,0,0.3,0.1,0.4l1.1,0.6c0.2,0.1,0.6,0.1,0.8,0l1.1-0.6C106,124.8,106,124.6,105.9,124.5z
					 M103.5,123.2L103.5,123.2l-1.2,0.7c-0.2,0.1-0.6,0.1-0.8,0l-8.4-4.6c-0.1,0-0.1-0.1-0.1-0.1c-0.1,0.1,0,0.3,0.1,0.4l8.4,4.6
					c0.2,0.1,0.6,0.1,0.8,0l1.1-0.6C103.6,123.5,103.6,123.3,103.5,123.2z M110,126.8L110,126.8l-1.2,0.7c-0.2,0.1-0.6,0.1-0.8,0
					l-2.8-1.5c-0.1,0-0.1-0.1-0.1-0.1c-0.1,0.1,0,0.3,0.1,0.4l2.8,1.5c0.2,0.1,0.6,0.1,0.8,0l1.1-0.6C110,127,110.1,126.9,110,126.8
					z M89.1,115.2L89.1,115.2l-1.2,0.7c-0.2,0.1-0.6,0.1-0.9,0l-1.1-0.6c-0.1,0-0.1-0.1-0.1-0.1c-0.1,0.1,0,0.3,0.1,0.4l1.1,0.6
					c0.2,0.1,0.6,0.1,0.9,0l1.1-0.6C89.1,115.4,89.2,115.3,89.1,115.2z M112.4,128.1l-0.1,0.1l-1.1,0.6c-0.2,0.1-0.6,0.1-0.8,0
					l-1.1-0.6c-0.1,0-0.1-0.1-0.1-0.1c-0.1,0.1,0,0.3,0.1,0.4l1.1,0.6c0.2,0.1,0.6,0.1,0.8,0l1.1-0.6
					C112.4,128.4,112.5,128.2,112.4,128.1z M91.5,116.5L91.5,116.5l-1.2,0.7c-0.2,0.1-0.6,0.1-0.8,0l-1.1-0.6
					c-0.1,0-0.1-0.1-0.1-0.1c-0.1,0.1,0,0.3,0.1,0.4l1.1,0.6c0.2,0.1,0.6,0.1,0.8,0l1.1-0.6C91.5,116.8,91.6,116.6,91.5,116.5z
					 M86.7,113.8L86.7,113.8l-1.2,0.7c-0.2,0.1-0.6,0.1-0.8,0l-1.6-0.9c-0.1,0-0.1-0.1-0.1-0.1c-0.1,0.1,0,0.3,0.1,0.4l1.6,0.9
					c0.2,0.1,0.6,0.1,0.8,0l1.1-0.6C86.7,114.1,86.7,114,86.7,113.8z M93.9,117.8L93.9,117.8l-1.2,0.7c-0.2,0.1-0.6,0.1-0.9,0
					l-1.1-0.6c-0.1,0-0.1-0.1-0.1-0.1c-0.1,0.1,0,0.3,0.1,0.4l1.1,0.6c0.2,0.1,0.6,0.1,0.9,0l1.1-0.6C93.9,118.1,94,118,93.9,117.8z
					 M124.3,126.9l-1.1,0.6c-0.2,0.1-0.6,0.1-0.8,0l-2.5-1.4c-0.1,0-0.1-0.1-0.1-0.1c-0.1,0.1,0,0.3,0.1,0.4l2.5,1.4
					c0.2,0.1,0.6,0.1,0.8,0l1.1-0.6C124.5,127.1,124.5,127,124.3,126.9C124.4,126.8,124.4,126.9,124.3,126.9z M121.9,128.2l-1.1,0.6
					c-0.2,0.1-0.6,0.1-0.8,0l-3.8-2.1c-0.1,0-0.1-0.1-0.1-0.1c-0.1,0.1,0,0.3,0.1,0.4l3.8,2.1c0.2,0.1,0.6,0.1,0.8,0l1.1-0.6
					C122.1,128.4,122.1,128.3,121.9,128.2C122,128.2,122,128.2,121.9,128.2z M114.8,129.4l-0.1,0.1l-1.1,0.6c-0.2,0.1-0.6,0.1-0.8,0
					l-1.1-0.6c-0.1,0-0.1-0.1-0.1-0.1c-0.1,0.1,0,0.3,0.1,0.4l1.1,0.6c0.2,0.1,0.6,0.1,0.8,0l1.1-0.6
					C114.8,129.7,114.9,129.6,114.8,129.4z M125.7,126.1L125.7,126.1c-0.3,0.2-0.7,0.2-0.9,0.1l-1.1-0.6c-0.1,0-0.1-0.1-0.1-0.1
					c-0.1,0.1,0,0.3,0.1,0.4l1.1,0.6c0.2,0.1,0.6,0.1,0.8,0l0.1-0.1C125.9,126.3,125.9,126.2,125.7,126.1
					C125.8,126,125.8,126.1,125.7,126.1z M117.1,130.9l-1.1,0.6c-0.2,0.1-0.6,0.1-0.8,0l-1.1-0.6c-0.1,0-0.1-0.1-0.1-0.1
					c-0.1,0.1,0,0.3,0.1,0.4l1.1,0.6c0.2,0.1,0.6,0.1,0.8,0l1.1-0.6c0.2-0.1,0.2-0.2,0.1-0.4C117.2,130.8,117.1,130.9,117.1,130.9z
					 M119.5,129.6l-1.1,0.6c-0.2,0.1-0.6,0.1-0.8,0l-1.1-0.6c-0.1,0-0.1-0.1-0.1-0.1c-0.1,0.1,0,0.3,0.1,0.4l1.1,0.6
					c0.2,0.1,0.6,0.1,0.8,0l1.1-0.6c0.2-0.1,0.2-0.2,0.1-0.4C119.6,129.5,119.6,129.5,119.5,129.6z M118.3,123.4L118.3,123.4
					l-1.2,0.7c-0.2,0.1-0.6,0.1-0.8,0l-1.1-0.6c-0.1,0-0.1-0.1-0.1-0.1c-0.1,0.1,0,0.3,0.1,0.4l1.1,0.6c0.2,0.1,0.6,0.1,0.8,0
					l1.1-0.6C118.3,123.6,118.3,123.5,118.3,123.4z M90.6,115.5l1.1,0.6c0.2,0.1,0.6,0.1,0.8,0l1.1-0.6c0.2-0.1,0.2-0.2,0.1-0.4
					l-0.1,0.1l-1.1,0.6c-0.2,0.1-0.6,0.1-0.8,0l-1.1-0.6c-0.1,0-0.1-0.1-0.1-0.1C90.4,115.3,90.5,115.4,90.6,115.5z M94.4,114.9
					l1.1,0.6c0.2,0.1,0.6,0.1,0.8,0l1.1-0.6c0.2-0.1,0.2-0.2,0.1-0.4l-0.1,0.1l-1.1,0.6c-0.2,0.1-0.6,0.1-0.8,0l-1.1-0.6
					c-0.1,0-0.1-0.1-0.1-0.1C94.2,114.7,94.2,114.8,94.4,114.9z M92,113.6l1.1,0.6c0.2,0.1,0.6,0.1,0.8,0l1.1-0.6
					c0.2-0.1,0.2-0.2,0.1-0.4l-0.1,0.1l-1,0.7c-0.2,0.1-0.6,0.1-0.8,0l-1.1-0.6c-0.1,0-0.1-0.1-0.1-0.1
					C91.8,113.4,91.8,113.5,92,113.6z M93.3,111.7l1.1,0.6c0.2,0.1,0.6,0.1,0.8,0l1.1-0.6c0.2-0.1,0.2-0.2,0.1-0.4l-0.1,0.1
					l-1.1,0.6c-0.2,0.1-0.6,0.1-0.8,0l-1.1-0.6c-0.1,0-0.1-0.1-0.1-0.1C93.1,111.4,93.2,111.6,93.3,111.7z M114.5,123.9L114.5,123.9
					l-1.2,0.7c-0.2,0.1-0.6,0.1-0.8,0l-1.1-0.6c-0.1,0-0.1-0.1-0.1-0.1c-0.1,0.1,0,0.3,0.1,0.4l1.1,0.6c0.2,0.1,0.6,0.1,0.8,0
					l1.1-0.6C114.5,124.2,114.6,124.1,114.5,123.9z M104.7,122.8l1.1-0.6c0.2-0.1,0.2-0.2,0.1-0.4l-0.1,0.1l-1.1,0.6
					c-0.2,0.1-0.6,0.1-0.8,0l-1.1-0.6c-0.1,0-0.1-0.1-0.1-0.1c-0.1,0.1,0,0.3,0.1,0.4l1.1,0.6C104.1,123,104.4,123,104.7,122.8z
					 M107.1,124.2l1.1-0.6c0.2-0.1,0.2-0.2,0.1-0.4l-0.1,0.1l-1.1,0.6c-0.2,0.1-0.6,0.1-0.9,0l-1.1-0.6c-0.1,0-0.1-0.1-0.1-0.1
					c-0.1,0.1,0,0.3,0.1,0.4l1.1,0.6C106.5,124.3,106.8,124.3,107.1,124.2z M85.4,112.6l4,2.2c0.2,0.1,0.6,0.1,0.9,0l1.1-0.6
					c0.2-0.1,0.2-0.2,0.1-0.4l-0.1,0.1l-1.1,0.6c-0.2,0.1-0.6,0.1-0.9,0l-4-2.2c-0.1,0-0.1-0.1-0.1-0.1
					C85.2,112.4,85.2,112.5,85.4,112.6z M90.2,110l1.8,1c0.2,0.1,0.6,0.1,0.8,0l1.1-0.6c0.2-0.1,0.2-0.2,0.1-0.4l-0.1,0.1l-1.1,0.6
					c-0.2,0.1-0.6,0.1-0.8,0l-1.8-1c-0.1,0-0.1-0.1-0.1-0.1C90,109.7,90,109.9,90.2,110z M92.6,108.6l3.2,1.8c0.2,0.1,0.6,0.1,0.8,0
					l0.1-0.1c0.2-0.1,0.2-0.2,0.1-0.4l-0.1,0.1l-0.1,0.1c-0.2,0.1-0.6,0.1-0.8,0l-3.2-1.8c-0.1,0-0.1-0.1-0.1-0.1
					C92.4,108.4,92.4,108.5,92.6,108.6z M117.2,128.1l-0.1,0.1l-1.1,0.6c-0.2,0.1-0.6,0.1-0.9,0l-1.1-0.6c-0.1,0-0.1-0.1-0.1-0.1
					c-0.1,0.1,0,0.3,0.1,0.4l1.1,0.6c0.2,0.1,0.6,0.1,0.9,0l1.1-0.6C117.3,128.4,117.3,128.2,117.2,128.1z M87.8,111.3l2.9,1.6
					c0.2,0.1,0.6,0.1,0.8,0l1.1-0.6c0.2-0.1,0.2-0.2,0.1-0.4l-0.1,0.1l-1.1,0.6c-0.2,0.1-0.6,0.1-0.8,0l-2.9-1.6
					c-0.1,0-0.1-0.1-0.1-0.1C87.6,111.1,87.6,111.2,87.8,111.3z M123.4,124.7L123.4,124.7l-0.2,0.2c-0.2,0.1-0.6,0.1-0.8,0l-1.1-0.6
					c-0.1,0-0.1-0.1-0.1-0.1c-0.1,0.1,0,0.3,0.1,0.4l1.1,0.6c0.2,0.1,0.6,0.1,0.8,0l0.1-0.1C123.5,124.9,123.5,124.8,123.4,124.7z
					 M116.9,125.3L116.9,125.3l-1.2,0.7c-0.2,0.1-0.6,0.1-0.9,0l-1.1-0.6c-0.1,0-0.1-0.1-0.1-0.1c-0.1,0.1,0,0.3,0.1,0.4l1.1,0.6
					c0.2,0.1,0.6,0.1,0.9,0l1.1-0.6C117,125.5,117,125.4,116.9,125.3z"/>
				<path class="st15" d="M108.6,118c0.1,0.1,0,0.3-0.1,0.4l-1.1,0.6c-0.2,0.1-0.6,0.1-0.9,0l-1.1-0.6c-0.2-0.1-0.2-0.2-0.1-0.4
					l0.1,0.1l1.1,0.6c0.2,0.1,0.6,0.1,0.9,0L108.6,118C108.6,118.1,108.6,118.1,108.6,118z M95.7,113l1.1,0.6c0.2,0.1,0.6,0.1,0.8,0
					l1.1-0.6c0.2-0.1,0.2-0.2,0.1-0.4l-0.1,0.1l-1.1,0.6c-0.2,0.1-0.6,0.1-0.8,0l-1.1-0.6c-0.1,0-0.1-0.1-0.1-0.1
					C95.5,112.8,95.6,112.9,95.7,113z M99.2,117.6l1.1,0.6c0.2,0.1,0.6,0.1,0.8,0l1.1-0.6c0.2-0.1,0.2-0.2,0.1-0.4l-0.1,0.1
					l-1.1,0.6c-0.2,0.1-0.6,0.1-0.8,0l-1.1-0.6c-0.1,0-0.1-0.1-0.1-0.1C99,117.4,99,117.5,99.2,117.6z M107.1,120.3
					c0.2-0.1,0.2-0.2,0.1-0.4l-0.1,0.1l-1.1,0.6c-0.2,0.1-0.6,0.1-0.8,0l-1.1-0.6c-0.1,0-0.1-0.1-0.1-0.1c-0.1,0.1,0,0.3,0.1,0.4
					l1.1,0.6c0.2,0.1,0.6,0.1,0.8,0L107.1,120.3z M109.6,121.6c0.2-0.1,0.2-0.2,0.1-0.4l-0.1,0.1l-1.1,0.6c-0.2,0.1-0.6,0.1-0.8,0
					l-1.1-0.6c-0.1,0-0.1-0.1-0.1-0.1c-0.1,0.1,0,0.3,0.1,0.4l1.1,0.6c0.2,0.1,0.6,0.1,0.8,0L109.6,121.6z M110.9,119.5l-1.1,0.6
					c-0.2,0.1-0.6,0.1-0.8,0l-1.1-0.6c-0.1,0-0.1-0.1-0.1-0.1c-0.1,0.1,0,0.3,0.1,0.4l1.1,0.6c0.2,0.1,0.6,0.1,0.8,0l1.1-0.6
					C111.1,119.7,111.1,119.6,110.9,119.5C111,119.4,111,119.4,110.9,119.5z M113.3,120.8l-1.1,0.6c-0.2,0.1-0.6,0.1-0.8,0l-1.1-0.6
					c-0.1,0-0.1-0.1-0.1-0.1c-0.1,0.1,0,0.3,0.1,0.4l1.1,0.6c0.2,0.1,0.6,0.1,0.8,0l1.1-0.6C113.5,121,113.5,120.9,113.3,120.8
					C113.4,120.7,113.4,120.8,113.3,120.8z M104.7,119c0.2-0.1,0.2-0.2,0.1-0.4l-0.1,0.1l-1.1,0.6c-0.2,0.1-0.6,0.1-0.8,0l-1.1-0.6
					c-0.1,0-0.1-0.1-0.1-0.1c-0.1,0.1,0,0.3,0.1,0.4l1.1,0.6c0.2,0.1,0.6,0.1,0.8,0L104.7,119z M96.8,116.3l1.1,0.6
					c0.2,0.1,0.6,0.1,0.9,0l1.1-0.6c0.2-0.1,0.2-0.2,0.1-0.4l-0.1,0.1l-1.1,0.6c-0.2,0.1-0.6,0.1-0.9,0l-1.1-0.6
					c-0.1,0-0.1-0.1-0.1-0.1C96.6,116,96.6,116.2,96.8,116.3z M115.9,122L115.9,122l-1.2,0.7c-0.2,0.1-0.6,0.1-0.9,0l-1.1-0.6
					c-0.1,0-0.1-0.1-0.1-0.1c-0.1,0.1,0,0.3,0.1,0.4l1.1,0.6c0.2,0.1,0.6,0.1,0.9,0l1.1-0.6C115.9,122.3,115.9,122.1,115.9,122z
					 M100.3,120.9l1.1,0.6c0.2,0.1,0.6,0.1,0.8,0l1.1-0.6c0.2-0.1,0.2-0.2,0.1-0.4l-0.1,0.1l-1.1,0.6c-0.2,0.1-0.6,0.1-0.8,0
					l-1.1-0.6c-0.1,0-0.1-0.1-0.1-0.1C100.1,120.6,100.1,120.8,100.3,120.9z M112.1,122.6L112.1,122.6l-1.2,0.7
					c-0.2,0.1-0.6,0.1-0.9,0l-1.1-0.6c-0.1,0-0.1-0.1-0.1-0.1c-0.1,0.1,0,0.3,0.1,0.4l1.1,0.6c0.2,0.1,0.6,0.1,0.9,0l1.1-0.6
					C112.1,122.9,112.2,122.7,112.1,122.6z M97.9,119.5l1.1,0.6c0.2,0.1,0.6,0.1,0.9,0l1.1-0.6c0.2-0.1,0.2-0.2,0.1-0.4l-0.1,0.1
					l-1.1,0.6c-0.2,0.1-0.6,0.1-0.9,0l-1.1-0.6c-0.1,0-0.1-0.1-0.1-0.1C97.6,119.3,97.7,119.4,97.9,119.5z M95.5,118.2l1.1,0.6
					c0.2,0.1,0.6,0.1,0.8,0l1.1-0.6c0.2-0.1,0.2-0.2,0.1-0.4l-0.1,0.1l-1.1,0.6c-0.2,0.1-0.6,0.1-0.8,0l-1.1-0.6
					c-0.1,0-0.1-0.1-0.1-0.1C95.2,118,95.3,118.1,95.5,118.2z M107.5,124.9l1.1,0.6c0.2,0.1,0.6,0.1,0.9,0l1.1-0.6
					c0.2-0.1,0.2-0.2,0.1-0.4l-0.1,0.1l-1.1,0.6c-0.2,0.1-0.6,0.1-0.9,0l-1.1-0.6c-0.1,0-0.1-0.1-0.1-0.1
					C107.3,124.6,107.3,124.8,107.5,124.9z M106.4,115.4L106.4,115.4c-0.3,0.2-0.7,0.2-1,0.1l-1.1-0.6c-0.1,0-0.1-0.1-0.1-0.1
					c-0.1,0.1,0,0.3,0.1,0.4l1.1,0.6c0.2,0.1,0.6,0.1,0.8,0l0.1-0.1C106.5,115.6,106.5,115.5,106.4,115.4
					C106.6,115.4,106.5,115.4,106.4,115.4z M108.9,116.8L108.9,116.8c-0.3,0.2-0.7,0.2-0.9,0.1l-1.1-0.6c-0.1,0-0.1-0.1-0.1-0.1
					c-0.1,0.1,0,0.3,0.1,0.4l1.1,0.6c0.2,0.1,0.6,0.1,0.8,0l0.1-0.1C109.1,117,109.1,116.9,108.9,116.8
					C109,116.7,108.9,116.7,108.9,116.8z M111.3,118.1L111.3,118.1c-0.3,0.2-0.7,0.2-0.9,0.1l-1.1-0.6c-0.1,0-0.1-0.1-0.1-0.1
					c-0.1,0.1,0,0.3,0.1,0.4l1.1,0.6c0.2,0.1,0.6,0.1,0.8,0l0.1-0.1C111.5,118.3,111.5,118.2,111.3,118.1L111.3,118.1z M97.1,111.1
					l1.1,0.6c0.2,0.1,0.6,0.1,0.8,0l0.1-0.1c0.2-0.1,0.2-0.2,0.1-0.4l-0.1,0.1l-0.1,0.1c-0.2,0.1-0.6,0.1-0.9,0l-1.1-0.6
					c-0.1,0-0.1-0.1-0.1-0.1C96.9,110.9,96.9,111,97.1,111.1z M113.7,119.4L113.7,119.4c-0.3,0.2-0.7,0.2-0.9,0.1l-1.1-0.6
					c-0.1,0-0.1-0.1-0.1-0.1c-0.1,0.1,0,0.3,0.1,0.4l1.1,0.6c0.2,0.1,0.6,0.1,0.8,0l0.1-0.1C113.9,119.6,113.9,119.5,113.7,119.4
					C113.8,119.4,113.7,119.4,113.7,119.4z M101.6,112.8L101.6,112.8c-0.3,0.2-0.7,0.2-0.9,0.1l-1.1-0.6c-0.1,0-0.1-0.1-0.1-0.1
					c-0.1,0.1,0,0.3,0.1,0.4l1.1,0.6c0.2,0.1,0.6,0.1,0.8,0l0.1-0.1C101.8,113,101.8,112.9,101.6,112.8
					C101.7,112.7,101.7,112.7,101.6,112.8z M104,114.1L104,114.1c-0.3,0.2-0.7,0.2-0.9,0.1l-1.1-0.6c-0.1,0-0.1-0.1-0.1-0.1
					c-0.1,0.1,0,0.3,0.1,0.4l1.1,0.6c0.2,0.1,0.6,0.1,0.8,0l0.1-0.1C104.2,114.3,104.2,114.2,104,114.1
					C104.1,114,104.1,114.1,104,114.1z M120.9,123.4L120.9,123.4c-0.3,0.2-0.7,0.2-0.9,0.1l-1.1-0.6c-0.1,0-0.1-0.1-0.1-0.1
					c-0.1,0.1,0,0.3,0.1,0.4l1.1,0.6c0.2,0.1,0.6,0.1,0.8,0l0.1-0.1C121.1,123.6,121.1,123.5,120.9,123.4
					C121,123.4,121,123.4,120.9,123.4z M98.1,114.4l1.1,0.6c0.2,0.1,0.6,0.1,0.8,0l1.1-0.6c0.2-0.1,0.2-0.2,0.1-0.4l-0.1,0.1
					l-1.1,0.6c-0.2,0.1-0.6,0.1-0.8,0l-1.1-0.6c-0.1,0-0.1-0.1-0.1-0.1C97.9,114.1,98,114.3,98.1,114.4z M95,117.5l1.1-0.6
					c0.2-0.1,0.2-0.2,0.1-0.4l-0.1,0.1l-1.1,0.6c-0.2,0.1-0.6,0.1-0.8,0l-1.1-0.6c-0.1,0-0.1-0.1-0.1-0.1c-0.1,0.1,0,0.3,0.1,0.4
					l1.1,0.6C94.4,117.6,94.8,117.6,95,117.5z M103.7,115.5l-1.1,0.6c-0.2,0.1-0.6,0.1-0.9,0l-1.1-0.6c-0.1,0-0.1-0.1-0.1-0.1
					c-0.1,0.1,0,0.3,0.1,0.4l1.1,0.6c0.2,0.1,0.6,0.1,0.9,0l1.1-0.6C103.9,115.7,103.9,115.6,103.7,115.5
					C103.8,115.4,103.7,115.4,103.7,115.5z M106.1,116.8l-1.1,0.6c-0.2,0.1-0.6,0.1-0.8,0l-1.1-0.6c-0.1,0-0.1-0.1-0.1-0.1
					c-0.1,0.1,0,0.3,0.1,0.4l1.1,0.6c0.2,0.1,0.6,0.1,0.8,0l1.1-0.6C106.3,117,106.3,116.9,106.1,116.8
					C106.2,116.7,106.1,116.8,106.1,116.8z M114.8,126.8L114.8,126.8l-1.2,0.7c-0.2,0.1-0.6,0.1-0.8,0L110,126
					c-0.1,0-0.1-0.1-0.1-0.1c-0.1,0.1,0,0.3,0.1,0.4l2.8,1.5c0.2,0.1,0.6,0.1,0.8,0l1.1-0.6C114.8,127,114.9,126.9,114.8,126.8z
					 M118.5,122.1L118.5,122.1c-0.3,0.2-0.7,0.2-0.9,0.1l-1.1-0.6c-0.1,0-0.1-0.1-0.1-0.1c-0.1,0.1,0,0.3,0.1,0.4l1.1,0.6
					c0.2,0.1,0.6,0.1,0.8,0l0.1-0.1C118.7,122.3,118.7,122.2,118.5,122.1C118.6,122,118.6,122.1,118.5,122.1z M116.1,120.8
					L116.1,120.8c-0.3,0.2-0.7,0.2-0.9,0.1l-1.1-0.6c-0.1,0-0.1-0.1-0.1-0.1c-0.1,0.1,0,0.3,0.1,0.4l1.1,0.6c0.2,0.1,0.6,0.1,0.8,0
					l0.1-0.1C116.3,121,116.3,120.9,116.1,120.8C116.2,120.7,116.1,120.7,116.1,120.8z M120.7,124.7L120.7,124.7l-1.2,0.7
					c-0.2,0.1-0.6,0.1-0.9,0l-1.1-0.6c-0.1,0-0.1-0.1-0.1-0.1c-0.1,0.1,0,0.3,0.1,0.4l1.1,0.6c0.2,0.1,0.6,0.1,0.9,0l1.1-0.6
					C120.7,124.9,120.8,124.8,120.7,124.7z M105.9,124.5L105.9,124.5l-1.2,0.7c-0.2,0.1-0.6,0.1-0.8,0l-1.1-0.6
					c-0.1,0-0.1-0.1-0.1-0.1c-0.1,0.1,0,0.3,0.1,0.4l1.1,0.6c0.2,0.1,0.6,0.1,0.8,0l1.1-0.6C106,124.8,106,124.6,105.9,124.5z
					 M103.5,123.2L103.5,123.2l-1.2,0.7c-0.2,0.1-0.6,0.1-0.8,0l-8.4-4.6c-0.1,0-0.1-0.1-0.1-0.1c-0.1,0.1,0,0.3,0.1,0.4l8.4,4.6
					c0.2,0.1,0.6,0.1,0.8,0l1.1-0.6C103.6,123.5,103.6,123.3,103.5,123.2z M110,126.8L110,126.8l-1.2,0.7c-0.2,0.1-0.6,0.1-0.8,0
					l-2.8-1.5c-0.1,0-0.1-0.1-0.1-0.1c-0.1,0.1,0,0.3,0.1,0.4l2.8,1.5c0.2,0.1,0.6,0.1,0.8,0l1.1-0.6C110,127,110.1,126.9,110,126.8
					z M89.1,115.2L89.1,115.2l-1.2,0.7c-0.2,0.1-0.6,0.1-0.9,0l-1.1-0.6c-0.1,0-0.1-0.1-0.1-0.1c-0.1,0.1,0,0.3,0.1,0.4l1.1,0.6
					c0.2,0.1,0.6,0.1,0.9,0l1.1-0.6C89.1,115.4,89.2,115.3,89.1,115.2z M112.4,128.1l-0.1,0.1l-1.1,0.6c-0.2,0.1-0.6,0.1-0.8,0
					l-1.1-0.6c-0.1,0-0.1-0.1-0.1-0.1c-0.1,0.1,0,0.3,0.1,0.4l1.1,0.6c0.2,0.1,0.6,0.1,0.8,0l1.1-0.6
					C112.4,128.4,112.5,128.2,112.4,128.1z M91.5,116.5L91.5,116.5l-1.2,0.7c-0.2,0.1-0.6,0.1-0.8,0l-1.1-0.6
					c-0.1,0-0.1-0.1-0.1-0.1c-0.1,0.1,0,0.3,0.1,0.4l1.1,0.6c0.2,0.1,0.6,0.1,0.8,0l1.1-0.6C91.5,116.8,91.6,116.6,91.5,116.5z
					 M86.7,113.8L86.7,113.8l-1.2,0.7c-0.2,0.1-0.6,0.1-0.8,0l-1.6-0.9c-0.1,0-0.1-0.1-0.1-0.1c-0.1,0.1,0,0.3,0.1,0.4l1.6,0.9
					c0.2,0.1,0.6,0.1,0.8,0l1.1-0.6C86.7,114.1,86.7,114,86.7,113.8z M93.9,117.8L93.9,117.8l-1.2,0.7c-0.2,0.1-0.6,0.1-0.9,0
					l-1.1-0.6c-0.1,0-0.1-0.1-0.1-0.1c-0.1,0.1,0,0.3,0.1,0.4l1.1,0.6c0.2,0.1,0.6,0.1,0.9,0l1.1-0.6C93.9,118.1,94,118,93.9,117.8z
					 M124.3,126.9l-1.1,0.6c-0.2,0.1-0.6,0.1-0.8,0l-2.5-1.4c-0.1,0-0.1-0.1-0.1-0.1c-0.1,0.1,0,0.3,0.1,0.4l2.5,1.4
					c0.2,0.1,0.6,0.1,0.8,0l1.1-0.6C124.5,127.1,124.5,127,124.3,126.9C124.4,126.8,124.4,126.9,124.3,126.9z M121.9,128.2l-1.1,0.6
					c-0.2,0.1-0.6,0.1-0.8,0l-3.8-2.1c-0.1,0-0.1-0.1-0.1-0.1c-0.1,0.1,0,0.3,0.1,0.4l3.8,2.1c0.2,0.1,0.6,0.1,0.8,0l1.1-0.6
					C122.1,128.4,122.1,128.3,121.9,128.2C122,128.2,122,128.2,121.9,128.2z M114.8,129.4l-0.1,0.1l-1.1,0.6c-0.2,0.1-0.6,0.1-0.8,0
					l-1.1-0.6c-0.1,0-0.1-0.1-0.1-0.1c-0.1,0.1,0,0.3,0.1,0.4l1.1,0.6c0.2,0.1,0.6,0.1,0.8,0l1.1-0.6
					C114.8,129.7,114.9,129.6,114.8,129.4z M125.7,126.1L125.7,126.1c-0.3,0.2-0.7,0.2-0.9,0.1l-1.1-0.6c-0.1,0-0.1-0.1-0.1-0.1
					c-0.1,0.1,0,0.3,0.1,0.4l1.1,0.6c0.2,0.1,0.6,0.1,0.8,0l0.1-0.1C125.9,126.3,125.9,126.2,125.7,126.1
					C125.8,126,125.8,126.1,125.7,126.1z M117.1,130.9l-1.1,0.6c-0.2,0.1-0.6,0.1-0.8,0l-1.1-0.6c-0.1,0-0.1-0.1-0.1-0.1
					c-0.1,0.1,0,0.3,0.1,0.4l1.1,0.6c0.2,0.1,0.6,0.1,0.8,0l1.1-0.6c0.2-0.1,0.2-0.2,0.1-0.4C117.2,130.8,117.1,130.9,117.1,130.9z
					 M119.5,129.6l-1.1,0.6c-0.2,0.1-0.6,0.1-0.8,0l-1.1-0.6c-0.1,0-0.1-0.1-0.1-0.1c-0.1,0.1,0,0.3,0.1,0.4l1.1,0.6
					c0.2,0.1,0.6,0.1,0.8,0l1.1-0.6c0.2-0.1,0.2-0.2,0.1-0.4C119.6,129.5,119.6,129.5,119.5,129.6z M118.3,123.4L118.3,123.4
					l-1.2,0.7c-0.2,0.1-0.6,0.1-0.8,0l-1.1-0.6c-0.1,0-0.1-0.1-0.1-0.1c-0.1,0.1,0,0.3,0.1,0.4l1.1,0.6c0.2,0.1,0.6,0.1,0.8,0
					l1.1-0.6C118.3,123.6,118.3,123.5,118.3,123.4z M90.6,115.5l1.1,0.6c0.2,0.1,0.6,0.1,0.8,0l1.1-0.6c0.2-0.1,0.2-0.2,0.1-0.4
					l-0.1,0.1l-1.1,0.6c-0.2,0.1-0.6,0.1-0.8,0l-1.1-0.6c-0.1,0-0.1-0.1-0.1-0.1C90.4,115.3,90.5,115.4,90.6,115.5z M94.4,114.9
					l1.1,0.6c0.2,0.1,0.6,0.1,0.8,0l1.1-0.6c0.2-0.1,0.2-0.2,0.1-0.4l-0.1,0.1l-1.1,0.6c-0.2,0.1-0.6,0.1-0.8,0l-1.1-0.6
					c-0.1,0-0.1-0.1-0.1-0.1C94.2,114.7,94.2,114.8,94.4,114.9z M92,113.6l1.1,0.6c0.2,0.1,0.6,0.1,0.8,0l1.1-0.6
					c0.2-0.1,0.2-0.2,0.1-0.4l-0.1,0.1l-1,0.7c-0.2,0.1-0.6,0.1-0.8,0l-1.1-0.6c-0.1,0-0.1-0.1-0.1-0.1
					C91.8,113.4,91.8,113.5,92,113.6z M93.3,111.7l1.1,0.6c0.2,0.1,0.6,0.1,0.8,0l1.1-0.6c0.2-0.1,0.2-0.2,0.1-0.4l-0.1,0.1
					l-1.1,0.6c-0.2,0.1-0.6,0.1-0.8,0l-1.1-0.6c-0.1,0-0.1-0.1-0.1-0.1C93.1,111.4,93.2,111.6,93.3,111.7z M114.5,123.9L114.5,123.9
					l-1.2,0.7c-0.2,0.1-0.6,0.1-0.8,0l-1.1-0.6c-0.1,0-0.1-0.1-0.1-0.1c-0.1,0.1,0,0.3,0.1,0.4l1.1,0.6c0.2,0.1,0.6,0.1,0.8,0
					l1.1-0.6C114.5,124.2,114.6,124.1,114.5,123.9z M104.7,122.8l1.1-0.6c0.2-0.1,0.2-0.2,0.1-0.4l-0.1,0.1l-1.1,0.6
					c-0.2,0.1-0.6,0.1-0.8,0l-1.1-0.6c-0.1,0-0.1-0.1-0.1-0.1c-0.1,0.1,0,0.3,0.1,0.4l1.1,0.6C104.1,123,104.4,123,104.7,122.8z
					 M107.1,124.2l1.1-0.6c0.2-0.1,0.2-0.2,0.1-0.4l-0.1,0.1l-1.1,0.6c-0.2,0.1-0.6,0.1-0.9,0l-1.1-0.6c-0.1,0-0.1-0.1-0.1-0.1
					c-0.1,0.1,0,0.3,0.1,0.4l1.1,0.6C106.5,124.3,106.8,124.3,107.1,124.2z M85.4,112.6l4,2.2c0.2,0.1,0.6,0.1,0.9,0l1.1-0.6
					c0.2-0.1,0.2-0.2,0.1-0.4l-0.1,0.1l-1.1,0.6c-0.2,0.1-0.6,0.1-0.9,0l-4-2.2c-0.1,0-0.1-0.1-0.1-0.1
					C85.2,112.4,85.2,112.5,85.4,112.6z M90.2,110l1.8,1c0.2,0.1,0.6,0.1,0.8,0l1.1-0.6c0.2-0.1,0.2-0.2,0.1-0.4l-0.1,0.1l-1.1,0.6
					c-0.2,0.1-0.6,0.1-0.8,0l-1.8-1c-0.1,0-0.1-0.1-0.1-0.1C90,109.7,90,109.9,90.2,110z M92.6,108.6l3.2,1.8c0.2,0.1,0.6,0.1,0.8,0
					l0.1-0.1c0.2-0.1,0.2-0.2,0.1-0.4l-0.1,0.1l-0.1,0.1c-0.2,0.1-0.6,0.1-0.8,0l-3.2-1.8c-0.1,0-0.1-0.1-0.1-0.1
					C92.4,108.4,92.4,108.5,92.6,108.6z M117.2,128.1l-0.1,0.1l-1.1,0.6c-0.2,0.1-0.6,0.1-0.9,0l-1.1-0.6c-0.1,0-0.1-0.1-0.1-0.1
					c-0.1,0.1,0,0.3,0.1,0.4l1.1,0.6c0.2,0.1,0.6,0.1,0.9,0l1.1-0.6C117.3,128.4,117.3,128.2,117.2,128.1z M87.8,111.3l2.9,1.6
					c0.2,0.1,0.6,0.1,0.8,0l1.1-0.6c0.2-0.1,0.2-0.2,0.1-0.4l-0.1,0.1l-1.1,0.6c-0.2,0.1-0.6,0.1-0.8,0l-2.9-1.6
					c-0.1,0-0.1-0.1-0.1-0.1C87.6,111.1,87.6,111.2,87.8,111.3z M123.4,124.7L123.4,124.7l-0.2,0.2c-0.2,0.1-0.6,0.1-0.8,0l-1.1-0.6
					c-0.1,0-0.1-0.1-0.1-0.1c-0.1,0.1,0,0.3,0.1,0.4l1.1,0.6c0.2,0.1,0.6,0.1,0.8,0l0.1-0.1C123.5,124.9,123.5,124.8,123.4,124.7z
					 M116.9,125.3L116.9,125.3l-1.2,0.7c-0.2,0.1-0.6,0.1-0.9,0l-1.1-0.6c-0.1,0-0.1-0.1-0.1-0.1c-0.1,0.1,0,0.3,0.1,0.4l1.1,0.6
					c0.2,0.1,0.6,0.1,0.9,0l1.1-0.6C117,125.5,117,125.4,116.9,125.3z"/>
				
					<linearGradient id="SVGID_12_" gradientUnits="userSpaceOnUse" x1="82.85" y1="112.35" x2="125.937" y2="112.35" gradientTransform="matrix(1 0 0 -1 0 232)">
					<stop  offset="0" style="stop-color:#59D8BC"/>
					<stop  offset="1" style="stop-color:#4584EC"/>
				</linearGradient>
				<path class="st17" d="M85.4,114.6c-0.2,0.1-0.6,0.1-0.8,0l-1.6-0.9c-0.2-0.1-0.2-0.3,0-0.5l1.1-0.6c0.2-0.1,0.6-0.1,0.8,0
					l1.6,0.9c0.2,0.1,0.2,0.3,0,0.5L85.4,114.6z M91.3,114c0.2-0.1,0.2-0.3,0-0.5l-4-2.2c-0.2-0.1-0.6-0.1-0.8,0l-1.1,0.6
					c-0.2,0.1-0.2,0.3,0,0.5l4,2.2c0.2,0.1,0.6,0.1,0.9,0L91.3,114z M88.9,115.3c0.2-0.1,0.2-0.3,0-0.5l-1.1-0.6
					c-0.2-0.1-0.6-0.1-0.9,0l-1.1,0.6c-0.2,0.1-0.2,0.3,0,0.5l1.1,0.6c0.2,0.1,0.6,0.1,0.9,0L88.9,115.3z M91.3,116.6
					c0.2-0.1,0.2-0.3,0-0.5l-1.1-0.6c-0.2-0.1-0.6-0.1-0.8,0l-1.1,0.6c-0.2,0.1-0.2,0.3,0,0.5l1.1,0.6c0.2,0.1,0.6,0.1,0.8,0
					L91.3,116.6z M93.8,118c0.2-0.1,0.2-0.3,0-0.5l-1.1-0.6c-0.2-0.1-0.6-0.1-0.9,0l-1.1,0.6c-0.2,0.1-0.2,0.3,0,0.5l1.1,0.6
					c0.2,0.1,0.6,0.1,0.9,0L93.8,118z M109.9,126.9c0.2-0.1,0.2-0.3,0-0.5l-2.8-1.5c-0.2-0.1-0.6-0.1-0.8,0l-1.1,0.6
					c-0.2,0.1-0.2,0.3,0,0.5l2.8,1.5c0.2,0.1,0.6,0.1,0.8,0L109.9,126.9z M114.7,126.9c0.2-0.1,0.2-0.3,0-0.5l-2.8-1.5
					c-0.2-0.1-0.6-0.1-0.8,0l-1.1,0.6c-0.2,0.1-0.2,0.3,0,0.5l2.8,1.5c0.2,0.1,0.6,0.1,0.8,0L114.7,126.9z M105.8,124.6
					c0.2-0.1,0.2-0.3,0-0.5l-1.1-0.6c-0.2-0.1-0.6-0.1-0.8,0l-1.1,0.6c-0.2,0.1-0.2,0.3,0,0.5l1.1,0.6c0.2,0.1,0.6,0.1,0.8,0
					L105.8,124.6z M103.4,123.3c0.2-0.1,0.2-0.3,0-0.5l-8.4-4.6c-0.2-0.1-0.6-0.1-0.8,0l-1.1,0.6c-0.2,0.1-0.2,0.3,0,0.5l8.4,4.6
					c0.2,0.1,0.6,0.1,0.8,0L103.4,123.3z M96.8,110.1c0.2-0.1,0.2-0.3,0-0.5l-3.2-1.8c-0.2-0.1-0.6-0.1-0.9,0l-0.1,0.1
					c-0.2,0.1-0.2,0.3,0,0.5l3.2,1.8c0.2,0.1,0.6,0.1,0.8,0L96.8,110.1z M99.2,111.4c0.2-0.1,0.2-0.3,0-0.5l-1.1-0.6
					c-0.2-0.1-0.6-0.1-0.8,0l-0.1,0.1c-0.2,0.1-0.2,0.3,0,0.5l1.1,0.6C98.5,111.6,98.9,111.6,99.2,111.4L99.2,111.4z M101.6,112.8
					c0.2-0.1,0.2-0.3,0-0.5l-1.1-0.6c-0.2-0.1-0.6-0.1-0.9,0l-0.1,0.1c-0.2,0.1-0.2,0.3,0,0.5l1.1,0.6c0.2,0.1,0.6,0.1,0.8,0
					L101.6,112.8z M104,114.1c0.2-0.1,0.2-0.3,0-0.5l-1.1-0.6c-0.2-0.1-0.6-0.1-0.8,0l-0.1,0.1c-0.2,0.1-0.2,0.3,0,0.5l1.1,0.6
					C103.3,114.3,103.7,114.3,104,114.1L104,114.1z M106.4,115.4c0.2-0.1,0.2-0.3,0-0.5l-1.1-0.6c-0.2-0.1-0.6-0.1-0.8,0l-0.1,0.1
					c-0.2,0.1-0.2,0.3,0,0.5l1.1,0.6C105.7,115.6,106.1,115.6,106.4,115.4L106.4,115.4z M108.9,116.8c0.2-0.1,0.2-0.3,0-0.5
					l-1.1-0.6c-0.2-0.1-0.6-0.1-0.8,0l-0.1,0.1c-0.2,0.1-0.2,0.3,0,0.5l1.1,0.6C108.2,117,108.6,117,108.9,116.8L108.9,116.8z
					 M111.3,118.1c0.2-0.1,0.2-0.3,0-0.5l-1.1-0.6c-0.2-0.1-0.6-0.1-0.8,0l-0.1,0.1c-0.2,0.1-0.2,0.3,0,0.5l1.1,0.6
					C110.6,118.3,111,118.3,111.3,118.1L111.3,118.1z M113.7,119.4c0.2-0.1,0.2-0.3,0-0.5l-1.1-0.6c-0.2-0.1-0.6-0.1-0.9,0l-0.1,0.1
					c-0.2,0.1-0.2,0.3,0,0.5l1.1,0.6c0.2,0.1,0.6,0.1,0.8,0L113.7,119.4z M116.1,120.8c0.2-0.1,0.2-0.3,0-0.5l-1.1-0.6
					c-0.2-0.1-0.6-0.1-0.8,0l-0.1,0.1c-0.2,0.1-0.2,0.3,0,0.5l1.1,0.6C115.4,121,115.8,121,116.1,120.8L116.1,120.8z M118.5,122.1
					c0.2-0.1,0.2-0.3,0-0.5l-1.1-0.6c-0.2-0.1-0.6-0.1-0.9,0l-0.1,0.1c-0.2,0.1-0.2,0.3,0,0.5l1.1,0.6c0.2,0.1,0.6,0.1,0.8,0
					L118.5,122.1z M120.9,123.4c0.2-0.1,0.2-0.3,0-0.5l-1.1-0.6c-0.2-0.1-0.6-0.1-0.8,0l-0.1,0.1c-0.2,0.1-0.2,0.3,0,0.5l1.1,0.6
					C120.2,123.6,120.6,123.6,120.9,123.4L120.9,123.4z M123.3,124.8c0.2-0.1,0.2-0.3,0-0.5l-1.1-0.6c-0.2-0.1-0.6-0.1-0.9,0
					l-0.1,0.1c-0.2,0.1-0.2,0.3,0,0.5l1.1,0.6c0.2,0.1,0.6,0.1,0.8,0L123.3,124.8z M125.7,126.1c0.2-0.1,0.2-0.3,0-0.5l-1.1-0.6
					c-0.2-0.1-0.6-0.1-0.8,0l-0.1,0.1c-0.2,0.1-0.2,0.3,0,0.5l1.1,0.6C125,126.3,125.4,126.3,125.7,126.1L125.7,126.1z M93.8,115.3
					c0.2-0.1,0.2-0.3,0-0.5l-1.1-0.6c-0.2-0.1-0.6-0.1-0.8,0l-1.1,0.6c-0.2,0.1-0.2,0.3,0,0.5l1.1,0.6c0.2,0.1,0.6,0.1,0.8,0
					L93.8,115.3z M96.2,116.6c0.2-0.1,0.2-0.3,0-0.5l-1.1-0.6c-0.2-0.1-0.6-0.1-0.9,0l-1.1,0.6c-0.2,0.1-0.2,0.3,0,0.5l1.1,0.6
					c0.2,0.1,0.6,0.1,0.8,0L96.2,116.6z M98.6,118c0.2-0.1,0.2-0.3,0-0.5l-1.1-0.6c-0.2-0.1-0.6-0.1-0.8,0l-1.1,0.6
					c-0.2,0.1-0.2,0.3,0,0.5l1.1,0.6c0.2,0.1,0.6,0.1,0.8,0L98.6,118z M101,119.3c0.2-0.1,0.2-0.3,0-0.5l-1.1-0.6
					c-0.2-0.1-0.6-0.1-0.8,0l-1.1,0.6c-0.2,0.1-0.2,0.3,0,0.5l1.1,0.6c0.2,0.1,0.6,0.1,0.9,0L101,119.3z M103.4,120.6
					c0.2-0.1,0.2-0.3,0-0.5l-1.1-0.6c-0.2-0.1-0.6-0.1-0.8,0l-1.1,0.6c-0.2,0.1-0.2,0.3,0,0.5l1.1,0.6c0.2,0.1,0.6,0.1,0.8,0
					L103.4,120.6z M105.8,122c0.2-0.1,0.2-0.3,0-0.5l-1.1-0.6c-0.2-0.1-0.6-0.1-0.8,0l-1.1,0.6c-0.2,0.1-0.2,0.3,0,0.5l1.1,0.6
					c0.2,0.1,0.6,0.1,0.8,0L105.8,122z M108.2,123.3c0.2-0.1,0.2-0.3,0-0.5l-1.1-0.6c-0.2-0.1-0.6-0.1-0.9,0l-1.1,0.6
					c-0.2,0.1-0.2,0.3,0,0.5l1.1,0.6c0.2,0.1,0.6,0.1,0.9,0L108.2,123.3z M110.6,124.6c0.2-0.1,0.2-0.3,0-0.5l-1.1-0.6
					c-0.2-0.1-0.6-0.1-0.8,0l-1.1,0.6c-0.2,0.1-0.2,0.3,0,0.5l1.1,0.6c0.2,0.1,0.6,0.1,0.9,0L110.6,124.6z M99.9,116
					c0.2-0.1,0.2-0.3,0-0.5l-1.1-0.6c-0.2-0.1-0.6-0.1-0.9,0l-1.1,0.6c-0.2,0.1-0.2,0.3,0,0.5l1.1,0.6c0.2,0.1,0.6,0.1,0.9,0
					L99.9,116z M102.3,117.4c0.2-0.1,0.2-0.3,0-0.5l-1.1-0.6c-0.2-0.1-0.6-0.1-0.8,0l-1.1,0.6c-0.2,0.1-0.2,0.3,0,0.5l1.1,0.6
					c0.2,0.1,0.6,0.1,0.8,0L102.3,117.4z M104.7,118.7c0.2-0.1,0.2-0.3,0-0.5l-1.1-0.6c-0.2-0.1-0.6-0.1-0.8,0l-1.1,0.6
					c-0.2,0.1-0.2,0.3,0,0.5l1.1,0.6c0.2,0.1,0.6,0.1,0.8,0L104.7,118.7z M107.1,120.1c0.2-0.1,0.2-0.3,0-0.5L106,119
					c-0.2-0.1-0.6-0.1-0.8,0l-1.1,0.6c-0.2,0.1-0.2,0.3,0,0.5l1.1,0.6c0.2,0.1,0.6,0.1,0.8,0L107.1,120.1z M109.6,121.4
					c0.2-0.1,0.2-0.3,0-0.5l-1.1-0.6c-0.2-0.1-0.6-0.1-0.8,0l-1.1,0.6c-0.2,0.1-0.2,0.3,0,0.5l1.1,0.6c0.2,0.1,0.6,0.1,0.8,0
					L109.6,121.4z M112,122.7c0.2-0.1,0.2-0.3,0-0.5l-1.1-0.6c-0.2-0.1-0.6-0.1-0.9,0l-1.1,0.6c-0.2,0.1-0.2,0.3,0,0.5l1.1,0.6
					c0.2,0.1,0.6,0.1,0.9,0L112,122.7z M114.4,124.1c0.2-0.1,0.2-0.3,0-0.5l-1.1-0.6c-0.2-0.1-0.6-0.1-0.8,0l-1.1,0.6
					c-0.2,0.1-0.2,0.3,0,0.5l1.1,0.6c0.2,0.1,0.6,0.1,0.8,0L114.4,124.1z M116.8,125.4c0.2-0.1,0.2-0.3,0-0.5l-1.1-0.6
					c-0.2-0.1-0.6-0.1-0.8,0l-1.1,0.6c-0.2,0.1-0.2,0.3,0,0.5l1.1,0.6c0.2,0.1,0.6,0.1,0.9,0L116.8,125.4z M121.9,128.2
					c0.2-0.1,0.2-0.3,0-0.5l-3.8-2.1c-0.2-0.1-0.6-0.1-0.9,0l-1.1,0.6c-0.2,0.1-0.2,0.3,0,0.5l3.8,2.1c0.2,0.1,0.6,0.1,0.8,0
					L121.9,128.2z M119.5,129.6c0.2-0.1,0.2-0.3,0-0.5l-1.1-0.6c-0.2-0.1-0.6-0.1-0.8,0l-1.1,0.6c-0.2,0.1-0.2,0.3,0,0.5l1.1,0.6
					c0.2,0.1,0.6,0.1,0.8,0L119.5,129.6z M117.1,130.9c0.2-0.1,0.2-0.3,0-0.5l-1.1-0.6c-0.2-0.1-0.6-0.1-0.8,0l-1.1,0.6
					c-0.2,0.1-0.2,0.3,0,0.5l1.1,0.6c0.2,0.1,0.6,0.1,0.8,0L117.1,130.9z M114.7,129.6c0.2-0.1,0.2-0.3,0-0.5l-1.1-0.6
					c-0.2-0.1-0.6-0.1-0.9,0l-1.1,0.6c-0.2,0.1-0.2,0.3,0,0.5l1.1,0.6c0.2,0.1,0.6,0.1,0.8,0L114.7,129.6z M117.1,128.2
					c0.2-0.1,0.2-0.3,0-0.5l-1.1-0.6c-0.2-0.1-0.6-0.1-0.9,0l-1.1,0.6c-0.2,0.1-0.2,0.3,0,0.5l1.1,0.6c0.2,0.1,0.6,0.1,0.9,0
					L117.1,128.2z M112.3,128.2c0.2-0.1,0.2-0.3,0-0.5l-1.1-0.6c-0.2-0.1-0.6-0.1-0.8,0l-1.1,0.6c-0.2,0.1-0.2,0.3,0,0.5l1.1,0.6
					c0.2,0.1,0.6,0.1,0.8,0L112.3,128.2z M92.7,112c0.2-0.1,0.2-0.3,0-0.5l-2.9-1.6c-0.2-0.1-0.6-0.1-0.9,0l-1.1,0.6
					c-0.2,0.1-0.2,0.3,0,0.5l2.9,1.6c0.2,0.1,0.6,0.1,0.8,0L92.7,112z M95.1,113.4c0.2-0.1,0.2-0.3,0-0.5l-1.1-0.6
					c-0.2-0.1-0.6-0.1-0.8,0l-1.1,0.6c-0.2,0.1-0.2,0.3,0,0.5l1.1,0.6c0.2,0.1,0.6,0.1,0.8,0L95.1,113.4z M97.5,114.7
					c0.2-0.1,0.2-0.3,0-0.5l-1.1-0.6c-0.2-0.1-0.6-0.1-0.8,0l-1.1,0.6c-0.2,0.1-0.2,0.3,0,0.5l1.1,0.6c0.2,0.1,0.6,0.1,0.8,0
					L97.5,114.7z M106.1,116.8c0.2-0.1,0.2-0.3,0-0.5l-1.1-0.6c-0.2-0.1-0.6-0.1-0.8,0l-1.1,0.6c-0.2,0.1-0.2,0.3,0,0.5l1.1,0.6
					c0.2,0.1,0.6,0.1,0.8,0L106.1,116.8z M108.5,118.1c0.2-0.1,0.2-0.3,0-0.5l-1.1-0.6c-0.2-0.1-0.6-0.1-0.9,0l-1.1,0.6
					c-0.2,0.1-0.2,0.3,0,0.5l1.1,0.6c0.2,0.1,0.6,0.1,0.9,0L108.5,118.1z M110.9,119.5c0.2-0.1,0.2-0.3,0-0.5l-1.1-0.6
					c-0.2-0.1-0.6-0.1-0.8,0l-1.1,0.6c-0.2,0.1-0.2,0.3,0,0.5l1.1,0.6c0.2,0.1,0.6,0.1,0.8,0L110.9,119.5z M113.3,120.8
					c0.2-0.1,0.2-0.3,0-0.5l-1.1-0.6c-0.2-0.1-0.6-0.1-0.8,0l-1.1,0.6c-0.2,0.1-0.2,0.3,0,0.5l1.1,0.6c0.2,0.1,0.6,0.1,0.8,0
					L113.3,120.8z M115.7,122.1c0.2-0.1,0.2-0.3,0-0.5l-1.1-0.6c-0.2-0.1-0.6-0.1-0.9,0l-1.1,0.6c-0.2,0.1-0.2,0.3,0,0.5l1.1,0.6
					c0.2,0.1,0.6,0.1,0.9,0L115.7,122.1z M118.1,123.5c0.2-0.1,0.2-0.3,0-0.5l-1.1-0.6c-0.2-0.1-0.6-0.1-0.8,0L115,123
					c-0.2,0.1-0.2,0.3,0,0.5l1.1,0.6c0.2,0.1,0.6,0.1,0.8,0L118.1,123.5z M120.5,124.8c0.2-0.1,0.2-0.3,0-0.5l-1.1-0.6
					c-0.2-0.1-0.6-0.1-0.9,0l-1.1,0.6c-0.2,0.1-0.2,0.3,0,0.5l1.1,0.6c0.2,0.1,0.6,0.1,0.9,0L120.5,124.8z M124.3,126.9
					c0.2-0.1,0.2-0.3,0-0.5l-2.5-1.4c-0.2-0.1-0.6-0.1-0.8,0l-1.1,0.6c-0.2,0.1-0.2,0.3,0,0.5l2.5,1.4c0.2,0.1,0.6,0.1,0.8,0
					L124.3,126.9z M101.3,114.1c0.2-0.1,0.2-0.3,0-0.5l-1.1-0.6c-0.2-0.1-0.6-0.1-0.8,0l-1.1,0.6c-0.2,0.1-0.2,0.3,0,0.5l1.1,0.6
					c0.2,0.1,0.6,0.1,0.8,0L101.3,114.1z M103.7,115.5c0.2-0.1,0.2-0.3,0-0.5l-1.1-0.6c-0.2-0.1-0.6-0.1-0.8,0l-1.1,0.6
					c-0.2,0.1-0.2,0.3,0,0.5l1.1,0.6c0.2,0.1,0.6,0.1,0.9,0L103.7,115.5z M94,110.1c0.2-0.1,0.2-0.3,0-0.5l-1.8-1
					c-0.2-0.1-0.6-0.1-0.9,0l-1.1,0.6c-0.2,0.1-0.2,0.3,0,0.5l1.8,1c0.2,0.1,0.6,0.1,0.8,0L94,110.1z M96.4,111.5
					c0.2-0.1,0.2-0.3,0-0.5l-1.1-0.6c-0.2-0.1-0.6-0.1-0.8,0l-1.1,0.6c-0.2,0.1-0.2,0.3,0,0.5l1.1,0.6c0.2,0.1,0.6,0.1,0.8,0
					L96.4,111.5z M98.9,112.8c0.2-0.1,0.2-0.3,0-0.5l-1.1-0.6c-0.2-0.1-0.6-0.1-0.8,0l-1.1,0.6c-0.2,0.1-0.2,0.3,0,0.5l1.1,0.6
					c0.2,0.1,0.6,0.1,0.8,0L98.9,112.8z"/>
				
					<linearGradient id="SVGID_13_" gradientUnits="userSpaceOnUse" x1="82.85" y1="112.35" x2="125.937" y2="112.35" gradientTransform="matrix(1 0 0 -1 0 232)">
					<stop  offset="0" style="stop-color:#F0F2FE"/>
					<stop  offset="1" style="stop-color:#C8CDF0"/>
				</linearGradient>
				<path class="st18" d="M85.4,114.6c-0.2,0.1-0.6,0.1-0.8,0l-1.6-0.9c-0.2-0.1-0.2-0.3,0-0.5l1.1-0.6c0.2-0.1,0.6-0.1,0.8,0
					l1.6,0.9c0.2,0.1,0.2,0.3,0,0.5L85.4,114.6z M91.3,114c0.2-0.1,0.2-0.3,0-0.5l-4-2.2c-0.2-0.1-0.6-0.1-0.8,0l-1.1,0.6
					c-0.2,0.1-0.2,0.3,0,0.5l4,2.2c0.2,0.1,0.6,0.1,0.9,0L91.3,114z M88.9,115.3c0.2-0.1,0.2-0.3,0-0.5l-1.1-0.6
					c-0.2-0.1-0.6-0.1-0.9,0l-1.1,0.6c-0.2,0.1-0.2,0.3,0,0.5l1.1,0.6c0.2,0.1,0.6,0.1,0.9,0L88.9,115.3z M91.3,116.6
					c0.2-0.1,0.2-0.3,0-0.5l-1.1-0.6c-0.2-0.1-0.6-0.1-0.8,0l-1.1,0.6c-0.2,0.1-0.2,0.3,0,0.5l1.1,0.6c0.2,0.1,0.6,0.1,0.8,0
					L91.3,116.6z M93.8,118c0.2-0.1,0.2-0.3,0-0.5l-1.1-0.6c-0.2-0.1-0.6-0.1-0.9,0l-1.1,0.6c-0.2,0.1-0.2,0.3,0,0.5l1.1,0.6
					c0.2,0.1,0.6,0.1,0.9,0L93.8,118z M109.9,126.9c0.2-0.1,0.2-0.3,0-0.5l-2.8-1.5c-0.2-0.1-0.6-0.1-0.8,0l-1.1,0.6
					c-0.2,0.1-0.2,0.3,0,0.5l2.8,1.5c0.2,0.1,0.6,0.1,0.8,0L109.9,126.9z M114.7,126.9c0.2-0.1,0.2-0.3,0-0.5l-2.8-1.5
					c-0.2-0.1-0.6-0.1-0.8,0l-1.1,0.6c-0.2,0.1-0.2,0.3,0,0.5l2.8,1.5c0.2,0.1,0.6,0.1,0.8,0L114.7,126.9z M105.8,124.6
					c0.2-0.1,0.2-0.3,0-0.5l-1.1-0.6c-0.2-0.1-0.6-0.1-0.8,0l-1.1,0.6c-0.2,0.1-0.2,0.3,0,0.5l1.1,0.6c0.2,0.1,0.6,0.1,0.8,0
					L105.8,124.6z M103.4,123.3c0.2-0.1,0.2-0.3,0-0.5l-8.4-4.6c-0.2-0.1-0.6-0.1-0.8,0l-1.1,0.6c-0.2,0.1-0.2,0.3,0,0.5l8.4,4.6
					c0.2,0.1,0.6,0.1,0.8,0L103.4,123.3z M96.8,110.1c0.2-0.1,0.2-0.3,0-0.5l-3.2-1.8c-0.2-0.1-0.6-0.1-0.9,0l-0.1,0.1
					c-0.2,0.1-0.2,0.3,0,0.5l3.2,1.8c0.2,0.1,0.6,0.1,0.8,0L96.8,110.1z M99.2,111.4c0.2-0.1,0.2-0.3,0-0.5l-1.1-0.6
					c-0.2-0.1-0.6-0.1-0.8,0l-0.1,0.1c-0.2,0.1-0.2,0.3,0,0.5l1.1,0.6C98.5,111.6,98.9,111.6,99.2,111.4L99.2,111.4z M101.6,112.8
					c0.2-0.1,0.2-0.3,0-0.5l-1.1-0.6c-0.2-0.1-0.6-0.1-0.9,0l-0.1,0.1c-0.2,0.1-0.2,0.3,0,0.5l1.1,0.6c0.2,0.1,0.6,0.1,0.8,0
					L101.6,112.8z M104,114.1c0.2-0.1,0.2-0.3,0-0.5l-1.1-0.6c-0.2-0.1-0.6-0.1-0.8,0l-0.1,0.1c-0.2,0.1-0.2,0.3,0,0.5l1.1,0.6
					C103.3,114.3,103.7,114.3,104,114.1L104,114.1z M106.4,115.4c0.2-0.1,0.2-0.3,0-0.5l-1.1-0.6c-0.2-0.1-0.6-0.1-0.8,0l-0.1,0.1
					c-0.2,0.1-0.2,0.3,0,0.5l1.1,0.6C105.7,115.6,106.1,115.6,106.4,115.4L106.4,115.4z M108.9,116.8c0.2-0.1,0.2-0.3,0-0.5
					l-1.1-0.6c-0.2-0.1-0.6-0.1-0.8,0l-0.1,0.1c-0.2,0.1-0.2,0.3,0,0.5l1.1,0.6C108.2,117,108.6,117,108.9,116.8L108.9,116.8z
					 M111.3,118.1c0.2-0.1,0.2-0.3,0-0.5l-1.1-0.6c-0.2-0.1-0.6-0.1-0.8,0l-0.1,0.1c-0.2,0.1-0.2,0.3,0,0.5l1.1,0.6
					C110.6,118.3,111,118.3,111.3,118.1L111.3,118.1z M113.7,119.4c0.2-0.1,0.2-0.3,0-0.5l-1.1-0.6c-0.2-0.1-0.6-0.1-0.9,0l-0.1,0.1
					c-0.2,0.1-0.2,0.3,0,0.5l1.1,0.6c0.2,0.1,0.6,0.1,0.8,0L113.7,119.4z M116.1,120.8c0.2-0.1,0.2-0.3,0-0.5l-1.1-0.6
					c-0.2-0.1-0.6-0.1-0.8,0l-0.1,0.1c-0.2,0.1-0.2,0.3,0,0.5l1.1,0.6C115.4,121,115.8,121,116.1,120.8L116.1,120.8z M118.5,122.1
					c0.2-0.1,0.2-0.3,0-0.5l-1.1-0.6c-0.2-0.1-0.6-0.1-0.9,0l-0.1,0.1c-0.2,0.1-0.2,0.3,0,0.5l1.1,0.6c0.2,0.1,0.6,0.1,0.8,0
					L118.5,122.1z M120.9,123.4c0.2-0.1,0.2-0.3,0-0.5l-1.1-0.6c-0.2-0.1-0.6-0.1-0.8,0l-0.1,0.1c-0.2,0.1-0.2,0.3,0,0.5l1.1,0.6
					C120.2,123.6,120.6,123.6,120.9,123.4L120.9,123.4z M123.3,124.8c0.2-0.1,0.2-0.3,0-0.5l-1.1-0.6c-0.2-0.1-0.6-0.1-0.9,0
					l-0.1,0.1c-0.2,0.1-0.2,0.3,0,0.5l1.1,0.6c0.2,0.1,0.6,0.1,0.8,0L123.3,124.8z M125.7,126.1c0.2-0.1,0.2-0.3,0-0.5l-1.1-0.6
					c-0.2-0.1-0.6-0.1-0.8,0l-0.1,0.1c-0.2,0.1-0.2,0.3,0,0.5l1.1,0.6C125,126.3,125.4,126.3,125.7,126.1L125.7,126.1z M93.8,115.3
					c0.2-0.1,0.2-0.3,0-0.5l-1.1-0.6c-0.2-0.1-0.6-0.1-0.8,0l-1.1,0.6c-0.2,0.1-0.2,0.3,0,0.5l1.1,0.6c0.2,0.1,0.6,0.1,0.8,0
					L93.8,115.3z M96.2,116.6c0.2-0.1,0.2-0.3,0-0.5l-1.1-0.6c-0.2-0.1-0.6-0.1-0.9,0l-1.1,0.6c-0.2,0.1-0.2,0.3,0,0.5l1.1,0.6
					c0.2,0.1,0.6,0.1,0.8,0L96.2,116.6z M98.6,118c0.2-0.1,0.2-0.3,0-0.5l-1.1-0.6c-0.2-0.1-0.6-0.1-0.8,0l-1.1,0.6
					c-0.2,0.1-0.2,0.3,0,0.5l1.1,0.6c0.2,0.1,0.6,0.1,0.8,0L98.6,118z M101,119.3c0.2-0.1,0.2-0.3,0-0.5l-1.1-0.6
					c-0.2-0.1-0.6-0.1-0.8,0l-1.1,0.6c-0.2,0.1-0.2,0.3,0,0.5l1.1,0.6c0.2,0.1,0.6,0.1,0.9,0L101,119.3z M103.4,120.6
					c0.2-0.1,0.2-0.3,0-0.5l-1.1-0.6c-0.2-0.1-0.6-0.1-0.8,0l-1.1,0.6c-0.2,0.1-0.2,0.3,0,0.5l1.1,0.6c0.2,0.1,0.6,0.1,0.8,0
					L103.4,120.6z M105.8,122c0.2-0.1,0.2-0.3,0-0.5l-1.1-0.6c-0.2-0.1-0.6-0.1-0.8,0l-1.1,0.6c-0.2,0.1-0.2,0.3,0,0.5l1.1,0.6
					c0.2,0.1,0.6,0.1,0.8,0L105.8,122z M108.2,123.3c0.2-0.1,0.2-0.3,0-0.5l-1.1-0.6c-0.2-0.1-0.6-0.1-0.9,0l-1.1,0.6
					c-0.2,0.1-0.2,0.3,0,0.5l1.1,0.6c0.2,0.1,0.6,0.1,0.9,0L108.2,123.3z M110.6,124.6c0.2-0.1,0.2-0.3,0-0.5l-1.1-0.6
					c-0.2-0.1-0.6-0.1-0.8,0l-1.1,0.6c-0.2,0.1-0.2,0.3,0,0.5l1.1,0.6c0.2,0.1,0.6,0.1,0.9,0L110.6,124.6z M99.9,116
					c0.2-0.1,0.2-0.3,0-0.5l-1.1-0.6c-0.2-0.1-0.6-0.1-0.9,0l-1.1,0.6c-0.2,0.1-0.2,0.3,0,0.5l1.1,0.6c0.2,0.1,0.6,0.1,0.9,0
					L99.9,116z M102.3,117.4c0.2-0.1,0.2-0.3,0-0.5l-1.1-0.6c-0.2-0.1-0.6-0.1-0.8,0l-1.1,0.6c-0.2,0.1-0.2,0.3,0,0.5l1.1,0.6
					c0.2,0.1,0.6,0.1,0.8,0L102.3,117.4z M104.7,118.7c0.2-0.1,0.2-0.3,0-0.5l-1.1-0.6c-0.2-0.1-0.6-0.1-0.8,0l-1.1,0.6
					c-0.2,0.1-0.2,0.3,0,0.5l1.1,0.6c0.2,0.1,0.6,0.1,0.8,0L104.7,118.7z M107.1,120.1c0.2-0.1,0.2-0.3,0-0.5L106,119
					c-0.2-0.1-0.6-0.1-0.8,0l-1.1,0.6c-0.2,0.1-0.2,0.3,0,0.5l1.1,0.6c0.2,0.1,0.6,0.1,0.8,0L107.1,120.1z M109.6,121.4
					c0.2-0.1,0.2-0.3,0-0.5l-1.1-0.6c-0.2-0.1-0.6-0.1-0.8,0l-1.1,0.6c-0.2,0.1-0.2,0.3,0,0.5l1.1,0.6c0.2,0.1,0.6,0.1,0.8,0
					L109.6,121.4z M112,122.7c0.2-0.1,0.2-0.3,0-0.5l-1.1-0.6c-0.2-0.1-0.6-0.1-0.9,0l-1.1,0.6c-0.2,0.1-0.2,0.3,0,0.5l1.1,0.6
					c0.2,0.1,0.6,0.1,0.9,0L112,122.7z M114.4,124.1c0.2-0.1,0.2-0.3,0-0.5l-1.1-0.6c-0.2-0.1-0.6-0.1-0.8,0l-1.1,0.6
					c-0.2,0.1-0.2,0.3,0,0.5l1.1,0.6c0.2,0.1,0.6,0.1,0.8,0L114.4,124.1z M116.8,125.4c0.2-0.1,0.2-0.3,0-0.5l-1.1-0.6
					c-0.2-0.1-0.6-0.1-0.8,0l-1.1,0.6c-0.2,0.1-0.2,0.3,0,0.5l1.1,0.6c0.2,0.1,0.6,0.1,0.9,0L116.8,125.4z M121.9,128.2
					c0.2-0.1,0.2-0.3,0-0.5l-3.8-2.1c-0.2-0.1-0.6-0.1-0.9,0l-1.1,0.6c-0.2,0.1-0.2,0.3,0,0.5l3.8,2.1c0.2,0.1,0.6,0.1,0.8,0
					L121.9,128.2z M119.5,129.6c0.2-0.1,0.2-0.3,0-0.5l-1.1-0.6c-0.2-0.1-0.6-0.1-0.8,0l-1.1,0.6c-0.2,0.1-0.2,0.3,0,0.5l1.1,0.6
					c0.2,0.1,0.6,0.1,0.8,0L119.5,129.6z M117.1,130.9c0.2-0.1,0.2-0.3,0-0.5l-1.1-0.6c-0.2-0.1-0.6-0.1-0.8,0l-1.1,0.6
					c-0.2,0.1-0.2,0.3,0,0.5l1.1,0.6c0.2,0.1,0.6,0.1,0.8,0L117.1,130.9z M114.7,129.6c0.2-0.1,0.2-0.3,0-0.5l-1.1-0.6
					c-0.2-0.1-0.6-0.1-0.9,0l-1.1,0.6c-0.2,0.1-0.2,0.3,0,0.5l1.1,0.6c0.2,0.1,0.6,0.1,0.8,0L114.7,129.6z M117.1,128.2
					c0.2-0.1,0.2-0.3,0-0.5l-1.1-0.6c-0.2-0.1-0.6-0.1-0.9,0l-1.1,0.6c-0.2,0.1-0.2,0.3,0,0.5l1.1,0.6c0.2,0.1,0.6,0.1,0.9,0
					L117.1,128.2z M112.3,128.2c0.2-0.1,0.2-0.3,0-0.5l-1.1-0.6c-0.2-0.1-0.6-0.1-0.8,0l-1.1,0.6c-0.2,0.1-0.2,0.3,0,0.5l1.1,0.6
					c0.2,0.1,0.6,0.1,0.8,0L112.3,128.2z M92.7,112c0.2-0.1,0.2-0.3,0-0.5l-2.9-1.6c-0.2-0.1-0.6-0.1-0.9,0l-1.1,0.6
					c-0.2,0.1-0.2,0.3,0,0.5l2.9,1.6c0.2,0.1,0.6,0.1,0.8,0L92.7,112z M95.1,113.4c0.2-0.1,0.2-0.3,0-0.5l-1.1-0.6
					c-0.2-0.1-0.6-0.1-0.8,0l-1.1,0.6c-0.2,0.1-0.2,0.3,0,0.5l1.1,0.6c0.2,0.1,0.6,0.1,0.8,0L95.1,113.4z M97.5,114.7
					c0.2-0.1,0.2-0.3,0-0.5l-1.1-0.6c-0.2-0.1-0.6-0.1-0.8,0l-1.1,0.6c-0.2,0.1-0.2,0.3,0,0.5l1.1,0.6c0.2,0.1,0.6,0.1,0.8,0
					L97.5,114.7z M106.1,116.8c0.2-0.1,0.2-0.3,0-0.5l-1.1-0.6c-0.2-0.1-0.6-0.1-0.8,0l-1.1,0.6c-0.2,0.1-0.2,0.3,0,0.5l1.1,0.6
					c0.2,0.1,0.6,0.1,0.8,0L106.1,116.8z M108.5,118.1c0.2-0.1,0.2-0.3,0-0.5l-1.1-0.6c-0.2-0.1-0.6-0.1-0.9,0l-1.1,0.6
					c-0.2,0.1-0.2,0.3,0,0.5l1.1,0.6c0.2,0.1,0.6,0.1,0.9,0L108.5,118.1z M110.9,119.5c0.2-0.1,0.2-0.3,0-0.5l-1.1-0.6
					c-0.2-0.1-0.6-0.1-0.8,0l-1.1,0.6c-0.2,0.1-0.2,0.3,0,0.5l1.1,0.6c0.2,0.1,0.6,0.1,0.8,0L110.9,119.5z M113.3,120.8
					c0.2-0.1,0.2-0.3,0-0.5l-1.1-0.6c-0.2-0.1-0.6-0.1-0.8,0l-1.1,0.6c-0.2,0.1-0.2,0.3,0,0.5l1.1,0.6c0.2,0.1,0.6,0.1,0.8,0
					L113.3,120.8z M115.7,122.1c0.2-0.1,0.2-0.3,0-0.5l-1.1-0.6c-0.2-0.1-0.6-0.1-0.9,0l-1.1,0.6c-0.2,0.1-0.2,0.3,0,0.5l1.1,0.6
					c0.2,0.1,0.6,0.1,0.9,0L115.7,122.1z M118.1,123.5c0.2-0.1,0.2-0.3,0-0.5l-1.1-0.6c-0.2-0.1-0.6-0.1-0.8,0L115,123
					c-0.2,0.1-0.2,0.3,0,0.5l1.1,0.6c0.2,0.1,0.6,0.1,0.8,0L118.1,123.5z M120.5,124.8c0.2-0.1,0.2-0.3,0-0.5l-1.1-0.6
					c-0.2-0.1-0.6-0.1-0.9,0l-1.1,0.6c-0.2,0.1-0.2,0.3,0,0.5l1.1,0.6c0.2,0.1,0.6,0.1,0.9,0L120.5,124.8z M124.3,126.9
					c0.2-0.1,0.2-0.3,0-0.5l-2.5-1.4c-0.2-0.1-0.6-0.1-0.8,0l-1.1,0.6c-0.2,0.1-0.2,0.3,0,0.5l2.5,1.4c0.2,0.1,0.6,0.1,0.8,0
					L124.3,126.9z M101.3,114.1c0.2-0.1,0.2-0.3,0-0.5l-1.1-0.6c-0.2-0.1-0.6-0.1-0.8,0l-1.1,0.6c-0.2,0.1-0.2,0.3,0,0.5l1.1,0.6
					c0.2,0.1,0.6,0.1,0.8,0L101.3,114.1z M103.7,115.5c0.2-0.1,0.2-0.3,0-0.5l-1.1-0.6c-0.2-0.1-0.6-0.1-0.8,0l-1.1,0.6
					c-0.2,0.1-0.2,0.3,0,0.5l1.1,0.6c0.2,0.1,0.6,0.1,0.9,0L103.7,115.5z M94,110.1c0.2-0.1,0.2-0.3,0-0.5l-1.8-1
					c-0.2-0.1-0.6-0.1-0.9,0l-1.1,0.6c-0.2,0.1-0.2,0.3,0,0.5l1.8,1c0.2,0.1,0.6,0.1,0.8,0L94,110.1z M96.4,111.5
					c0.2-0.1,0.2-0.3,0-0.5l-1.1-0.6c-0.2-0.1-0.6-0.1-0.8,0l-1.1,0.6c-0.2,0.1-0.2,0.3,0,0.5l1.1,0.6c0.2,0.1,0.6,0.1,0.8,0
					L96.4,111.5z M98.9,112.8c0.2-0.1,0.2-0.3,0-0.5l-1.1-0.6c-0.2-0.1-0.6-0.1-0.8,0l-1.1,0.6c-0.2,0.1-0.2,0.3,0,0.5l1.1,0.6
					c0.2,0.1,0.6,0.1,0.8,0L98.9,112.8z"/>
			</g>
			<g>
				
					<linearGradient id="SVGID_14_" gradientUnits="userSpaceOnUse" x1="107.6" y1="122.1697" x2="133.566" y2="122.1697" gradientTransform="matrix(1 0 0 -1 0 232)">
					<stop  offset="0" style="stop-color:#59D8BC"/>
					<stop  offset="1" style="stop-color:#4584EC"/>
				</linearGradient>
				<path class="st19" d="M133.6,109.1L133.6,109.1c0-0.2-0.1-0.4-0.4-0.5l-11.4-6.3c-0.5-0.3-1.2-0.3-1.7-0.1l-11.9,4.5
					c-0.3,0.1-0.5,0.3-0.6,0.5c0,0,0,0,0,0.1l0,0v1.2l0,0c0,0.2,0.1,0.4,0.4,0.5l15.2,8.4c0.3,0.2,0.7,0.2,1.1,0.2s0.8-0.1,1-0.3
					l8.1-6.6c0.2-0.1,0.2-0.3,0.2-0.4l0,0V109.1z"/>
				<path class="st15" d="M133.2,108.6l-11.4-6.3c-0.5-0.3-1.2-0.3-1.7-0.1l-7.4,2.8l15.6,8.6l5-4.1
					C133.7,109.2,133.6,108.8,133.2,108.6z"/>
				<path class="st15" d="M133.6,109.1c0,0.1-0.1,0.3-0.2,0.4l-8.1,6.6c-0.2,0.2-0.6,0.3-1,0.3s-0.8-0.1-1.1-0.2l-15.2-8.4
					c-0.3-0.1-0.4-0.3-0.4-0.5l0,0v1.2l0,0c0,0.2,0.1,0.4,0.4,0.5l15.2,8.4c0.3,0.2,0.7,0.2,1.1,0.2s0.8-0.1,1-0.3l8.1-6.6
					c0.2-0.1,0.2-0.3,0.2-0.4l0,0V109.1L133.6,109.1z"/>
				<path class="st20" d="M133.6,109.1c0,0.1-0.1,0.3-0.2,0.4l-5,4.1v1.2l5-4.1c0.2-0.1,0.2-0.3,0.2-0.4l0,0V109.1L133.6,109.1z"/>
			</g>
			<g>
				
					<linearGradient id="SVGID_15_" gradientUnits="userSpaceOnUse" x1="97.7" y1="142.0971" x2="146.6" y2="142.0971" gradientTransform="matrix(1 0 0 -1 0 232)">
					<stop  offset="0" style="stop-color:#59D8BC"/>
					<stop  offset="1" style="stop-color:#4584EC"/>
				</linearGradient>
				<path class="st21" d="M99.4,60.1l-1.3,0.7l0,0l0,0l0,0c-0.2,0.1-0.4,0.4-0.4,0.8v30.8c0,0.8,0.6,1.8,1.4,2.3l44.9,24.9
					c0.4,0.2,0.7,0.2,0.9,0.1l0,0l0,0l0,0l1.3-0.7l0,0c0.2-0.1,0.4-0.4,0.4-0.8V87.4c0-0.8-0.6-1.8-1.4-2.2l-44.9-24.9
					C100,60,99.7,60,99.4,60.1L99.4,60.1L99.4,60.1L99.4,60.1z"/>
				<path class="st0" d="M99.4,60.1l-1.3,0.7l0,0l0,0l0,0c-0.2,0.1-0.4,0.4-0.4,0.8v30.8c0,0.8,0.6,1.8,1.4,2.3l44.9,24.9
					c0.4,0.2,0.7,0.2,0.9,0.1l0,0l0,0l0,0l1.3-0.7l0,0c0.2-0.1,0.4-0.4,0.4-0.8V87.4c0-0.8-0.6-1.8-1.4-2.2l-44.9-24.9
					C100,60,99.7,60,99.4,60.1L99.4,60.1L99.4,60.1L99.4,60.1z"/>
				
					<linearGradient id="SVGID_16_" gradientUnits="userSpaceOnUse" x1="97.6929" y1="141.7" x2="145.2789" y2="141.7" gradientTransform="matrix(1 0 0 -1 0 232)">
					<stop  offset="0" style="stop-color:#59D8BC"/>
					<stop  offset="1" style="stop-color:#4584EC"/>
				</linearGradient>
				<path class="st22" d="M97.7,92.5c0,0.8,0.6,1.8,1.4,2.3l44.9,24.9c0.7,0.4,1.4,0.1,1.4-0.7V88.1c0-0.8-0.6-1.8-1.4-2.2l-45-25
					c-0.7-0.4-1.4-0.1-1.4,0.7L97.7,92.5L97.7,92.5z"/>
				
					<linearGradient id="SVGID_17_" gradientUnits="userSpaceOnUse" x1="98.5" y1="142.7903" x2="144.4196" y2="142.7903" gradientTransform="matrix(1 0 0 -1 0 232)">
					<stop  offset="0" style="stop-color:#F0F2FE"/>
					<stop  offset="1" style="stop-color:#C8CDF0"/>
				</linearGradient>
				<path class="st23" d="M143.9,116.6L99,91.7c-0.3-0.2-0.5-0.6-0.5-0.9V62.1c0-0.3,0.2-0.5,0.5-0.3l44.9,24.9
					c0.3,0.2,0.5,0.6,0.5,0.9v28.7C144.5,116.7,144.2,116.8,143.9,116.6z"/>
			</g>
		</g>
		<path class="st0" d="M128,139.3c-0.7,0.4-1.7,0.4-2.4,0l-7.5-4.1c-0.7-0.4-0.7-0.9,0-1.3l13-7.2c0.7-0.4,1.7-0.4,2.4,0l7.5,4.1
			c0.7,0.4,0.7,0.9,0,1.3L128,139.3z"/>
		<g>
			
				<linearGradient id="SVGID_18_" gradientUnits="userSpaceOnUse" x1="125.7818" y1="99.1" x2="133.6726" y2="99.1" gradientTransform="matrix(1 0 0 -1 0 232)">
				<stop  offset="0" style="stop-color:#59D8BC"/>
				<stop  offset="1" style="stop-color:#4584EC"/>
			</linearGradient>
			<path class="st24" d="M133.7,132.4v-0.6l0,0l0,0l0,0c0-0.4-0.2-0.7-0.7-1c-1-0.5-2.6-0.5-3.6,0l-2.9,1.6c-0.5,0.3-0.7,0.6-0.7,1
				l0,0l0,0l0,0v0.6l0,0c0,0.4,0.2,0.7,0.7,1c1,0.5,2.6,0.5,3.6,0l2.9-1.6C133.4,133.1,133.7,132.8,133.7,132.4L133.7,132.4
				L133.7,132.4L133.7,132.4z"/>
			<path class="st25" d="M132.9,132.8l-2.9,1.6c-1,0.5-2.6,0.5-3.6,0c-0.5-0.3-0.7-0.6-0.7-1v0.6l0,0c0,0.4,0.2,0.7,0.7,1
				c1,0.5,2.6,0.5,3.6,0l2.9-1.6c0.5-0.3,0.7-0.6,0.7-1l0,0l0,0l0,0v-0.6l0,0C133.7,132.2,133.4,132.6,132.9,132.8z"/>
			
				<linearGradient id="SVGID_19_" gradientUnits="userSpaceOnUse" x1="125.7414" y1="99.4542" x2="133.6662" y2="99.4542" gradientTransform="matrix(1 0 0 -1 0 232)">
				<stop  offset="0" style="stop-color:#59D8BC"/>
				<stop  offset="1" style="stop-color:#4584EC"/>
			</linearGradient>
			<path class="st26" d="M132.9,130.9c-1.2-0.7-3.5-0.9-5.5,0.3c-1,0.6-1.9,1.6-1.6,2.4c0.1,0.3,0.3,0.6,0.7,0.8
				c0.1,0.1,0.2,0.1,0.3,0.1c1,0.4,2.4,0.3,3.2-0.1l2.9-1.6C133.9,132.3,133.9,131.4,132.9,130.9z"/>
		</g>
		<g>
			<path d="M85.9,102.5c1.3,0.7,3.5,0.7,4.9,0c0.7-0.4,1-0.9,1-1.3c0-0.5-0.3-1-1-1.4c-1.3-0.7-3.5-0.7-4.9,0c-0.7,0.4-1,0.9-1,1.3
				l0,0C84.9,101.7,85.2,102.2,85.9,102.5z"/>
			
				<linearGradient id="SVGID_20_" gradientUnits="userSpaceOnUse" x1="83.9723" y1="134.225" x2="90.2944" y2="134.225" gradientTransform="matrix(1 0 0 -1 0 232)">
				<stop  offset="0" style="stop-color:#FDD2A7"/>
				<stop  offset="1" style="stop-color:#F83F76"/>
			</linearGradient>
			<path class="st27" d="M89.4,93c-1.2-0.7-3.2-0.7-4.5,0c-0.6,0.3-0.9,0.8-0.9,1.2l0,0l0,0c0,3.3,0.7,6.9,0.7,7.5l0,0
				c0,0.3,0.2,0.7,0.7,1c1,0.5,2.5,0.5,3.5,0c0.5-0.3,0.7-0.6,0.7-1c0-0.6,0.7-4.2,0.7-7.5C90.3,93.8,90,93.3,89.4,93z"/>
			<path class="st2" d="M89.4,93c-0.5-0.3-1.2-0.5-1.9-0.5c0,0.1,0.1,0.2,0.1,0.2c0.1,0.4,0.2,0.8,0.2,1.3c0,3.5-0.1,7.3-0.1,8
				c0,0.4,0,0.7-0.1,1v0.1c0.5,0,1.1-0.2,1.5-0.4c0.5-0.3,0.7-0.6,0.7-1c0-0.6,0.7-4.2,0.7-7.5C90.3,93.8,90,93.3,89.4,93z"/>
			
				<linearGradient id="SVGID_21_" gradientUnits="userSpaceOnUse" x1="83.9723" y1="137.7" x2="90.2944" y2="137.7" gradientTransform="matrix(1 0 0 -1 0 232)">
				<stop  offset="0" style="stop-color:#FDD2A7"/>
				<stop  offset="1" style="stop-color:#F83F76"/>
			</linearGradient>
			<path class="st28" d="M84.9,95.5c1.2,0.7,3.2,0.7,4.5,0c0.6-0.3,0.9-0.8,0.9-1.2c0-0.4-0.3-0.9-0.9-1.2c-1.2-0.7-3.2-0.7-4.5,0
				c-0.6,0.3-0.9,0.8-0.9,1.2l0,0C84,94.7,84.3,95.1,84.9,95.5z"/>
			<path class="st29" d="M84.9,95.5c1.2,0.7,3.2,0.7,4.5,0c0.6-0.3,0.9-0.8,0.9-1.2c0-0.4-0.3-0.9-0.9-1.2c-1.2-0.7-3.2-0.7-4.5,0
				c-0.6,0.3-0.9,0.8-0.9,1.2l0,0C84,94.7,84.3,95.1,84.9,95.5z"/>
			
				<linearGradient id="SVGID_22_" gradientUnits="userSpaceOnUse" x1="84.4061" y1="138.0625" x2="89.8601" y2="138.0625" gradientTransform="matrix(1 0 0 -1 0 232)">
				<stop  offset="0" style="stop-color:#FDD2A7"/>
				<stop  offset="1" style="stop-color:#F83F76"/>
			</linearGradient>
			<path class="st30" d="M89.1,92.7L89.1,92.7c-0.2-0.2-0.3-0.2-0.3-0.3c-0.9-0.5-2.3-0.5-3.2,0l0,0c-0.1,0-0.2,0.1-0.2,0.2
				l-0.1,0.1c-0.4,0.4-0.8,1-0.8,1.6l0,0c0,0.4,0.3,0.8,0.8,1.1c1.1,0.6,2.8,0.6,3.9,0c0.5-0.3,0.8-0.7,0.8-1.1
				C89.9,93.7,89.5,93.1,89.1,92.7z"/>
			<path class="st2" d="M89.1,92.7L89.1,92.7c-0.2-0.2-0.3-0.2-0.3-0.3c-0.3-0.2-0.7-0.3-1.1-0.3l0.6,3.5c0.3-0.1,0.6-0.2,0.9-0.3
				c0.5-0.3,0.8-0.7,0.8-1.1C89.9,93.7,89.5,93.1,89.1,92.7z"/>
			
				<linearGradient id="SVGID_23_" gradientUnits="userSpaceOnUse" x1="84.8473" y1="138.7" x2="89.4191" y2="138.7" gradientTransform="matrix(1 0 0 -1 0 232)">
				<stop  offset="0" style="stop-color:#FDD2A7"/>
				<stop  offset="1" style="stop-color:#F83F76"/>
			</linearGradient>
			<path class="st31" d="M85.5,94.2c0.9,0.5,2.3,0.5,3.2,0c0.4-0.2,0.7-0.6,0.7-0.9s-0.2-0.6-0.7-0.9c-0.9-0.5-2.3-0.5-3.2,0
				c-0.4,0.2-0.7,0.6-0.7,0.9l0,0C84.8,93.6,85.1,94,85.5,94.2z"/>
			<path class="st29" d="M85.5,94.2c0.9,0.5,2.3,0.5,3.2,0c0.4-0.2,0.7-0.6,0.7-0.9s-0.2-0.6-0.7-0.9c-0.9-0.5-2.3-0.5-3.2,0
				c-0.4,0.2-0.7,0.6-0.7,0.9l0,0C84.8,93.6,85.1,94,85.5,94.2z"/>
		</g>
	</g>
	<g>
		<g>
			<path class="st0" d="M52.9,184.8c0.6-0.3,24.9-13.7,25.3-13.9c6.5-3.6,17.1-3.6,23.7,0c6.5,3.6,6.6,9.5,0,13.1
				c-0.6,0.3-26,14.3-26.3,14.4l-0.4,0.2l0,0c-6.6,2.9-16.2,2.7-22.3-0.7C46.4,194.3,46.4,188.4,52.9,184.8z"/>
			<path class="st0" d="M105.3,195.1c3.8-4.1,10.6-5.5,9.5-8.3c-0.7-2.8-1.8-3.4-7.7-4.2c-6.1-0.8-5.2,2.6-10.4,5.4
				C91.7,190.6,98.7,202.1,105.3,195.1z"/>
			
				<linearGradient id="SVGID_24_" gradientUnits="userSpaceOnUse" x1="47.9939" y1="42.25" x2="81.874" y2="42.25" gradientTransform="matrix(1 0 0 -1 0 232)">
				<stop  offset="0" style="stop-color:#F0F2FE"/>
				<stop  offset="1" style="stop-color:#C8CDF0"/>
			</linearGradient>
			<path class="st32" d="M81.9,191.2v-2.7l0,0c0-2.4-1.6-4.8-5-6.7c-6.6-3.7-17.3-3.7-24,0c-3.3,1.8-5,4.2-5,6.6l0,0l0,0l0,0v2.7
				l0,0c0,2.4,1.6,4.8,5,6.6c6.6,3.7,17.3,3.7,24,0C80.2,196.1,81.9,193.7,81.9,191.2L81.9,191.2L81.9,191.2
				C81.9,191.3,81.9,191.3,81.9,191.2z"/>
			<path class="st0" d="M76.9,195.1c-6.6,3.7-17.4,3.7-24,0c-3.3-1.8-5-4.2-5-6.6v2.7c0,2.4,1.6,4.8,5,6.6c6.6,3.7,17.3,3.7,24,0
				c3.3-1.8,5-4.2,5-6.6l0,0l0,0v-2.7l0,0C81.9,190.9,80.2,193.3,76.9,195.1z"/>
			<path class="st0" d="M69.2,186.1c-2.4-1.3-6.2-1.3-8.5,0c-2.4,1.3-2.4,3.4,0,4.7s6.2,1.3,8.5,0C71.6,189.6,71.6,187.5,69.2,186.1
				z"/>
			
				<linearGradient id="SVGID_25_" gradientUnits="userSpaceOnUse" x1="60.9593" y1="55.25" x2="68.9074" y2="55.25" gradientTransform="matrix(1 0 0 -1 0 232)">
				<stop  offset="0" style="stop-color:#59D8BC"/>
				<stop  offset="1" style="stop-color:#4584EC"/>
			</linearGradient>
			<path class="st33" d="M68.9,165L68.9,165c0-0.6-0.4-1.1-1.2-1.6c-1.5-0.9-4.1-0.9-5.6,0c-0.8,0.4-1.2,1-1.2,1.6l0,0l0,0l0,0v23.5
				l0,0c0,0.6,0.4,1.1,1.2,1.6c1.5,0.9,4.1,0.9,5.6,0c0.8-0.4,1.2-1,1.2-1.6l0,0V165z"/>
			<path class="st2" d="M68.9,165c0-0.6-0.4-1.1-1.2-1.6c-0.8-0.4-1.8-0.6-2.8-0.6v27.9c1,0,2-0.2,2.8-0.6c0.8-0.4,1.2-1,1.2-1.6
				l0,0V165L68.9,165z"/>
		</g>
		
			<linearGradient id="SVGID_26_" gradientUnits="userSpaceOnUse" x1="59.6" y1="69.1545" x2="87.6622" y2="69.1545" gradientTransform="matrix(1 0 0 -1 0 232)">
			<stop  offset="0" style="stop-color:#F0F2FE"/>
			<stop  offset="1" style="stop-color:#C8CDF0"/>
		</linearGradient>
		<path class="st34" d="M86.5,164.9l-19,10.8l-5.3-9.4l-2.6-15.8l0.5-0.3c0.4-0.2,0.8-0.3,1.1-0.1l26.5,14.7
			C87.4,164.7,87,164.7,86.5,164.9z"/>
		<path class="st35" d="M86.5,164.9l-19,10.8l-5.3-9.4l-2.6-15.8l0.5-0.3c0.4-0.2,0.8-0.3,1.1-0.1l26.5,14.7
			C87.4,164.7,87,164.7,86.5,164.9z"/>
		<g>
			
				<linearGradient id="SVGID_27_" gradientUnits="userSpaceOnUse" x1="56.9576" y1="63.096" x2="56.9576" y2="83.1652" gradientTransform="matrix(1 0 0 -1 0 232)">
				<stop  offset="0" style="stop-color:#242748"/>
				<stop  offset="1" style="stop-color:#203A5F"/>
			</linearGradient>
			<path class="st36" d="M51.5,155.3l3.3-6.4l6.2,6.2l2.4-0.7v14.2c-0.9,0.2-1.8,0.3-2.7,0.3l0,0C53.3,169.1,48.3,161.7,51.5,155.3z
				"/>
			<g>
				<g>
					<path class="st37" d="M86.8,165.5c0.1,1.9,0.5,3.7,1.5,5.8c2.1,4.3,3.9,7.2,5.4,7.2s4.3,1.2,2.6,2.8c-1.7,1.6-3.1,1.8-5.7,0.8
						s-3.7-4.6-7.1-4.6c-1.8,0-2.7-1.1-2.3-2.8c0.5-1.6,1.3-3.1,0.6-7.5v-0.1C83.1,168.1,86.1,166.7,86.8,165.5z"/>
					
						<linearGradient id="SVGID_28_" gradientUnits="userSpaceOnUse" x1="88.9857" y1="49.2377" x2="88.9857" y2="59.0385" gradientTransform="matrix(1 0 0 -1 0 232)">
						<stop  offset="0" style="stop-color:#242748"/>
						<stop  offset="1" style="stop-color:#203A5F"/>
					</linearGradient>
					<path class="st38" d="M81.2,175.9c-0.1-0.9,0.2-2.2,0.5-2.9c2.7-0.4,6,2.4,7.7,4.6l0.4,0.5l0,0c0.1,0.1,0.3,0.3,0.4,0.4
						c1.3,1.5,2.5,2.7,4,1.6c1.3-1,0.5-1.2-0.6-1.6h0.1c1.5,0,4.3,1.2,2.6,2.8c-1.7,1.6-3.1,1.8-5.7,0.8s-3.7-4.6-7.1-4.6
						C82.2,177.5,81.4,176.9,81.2,175.9L81.2,175.9z"/>
					
						<linearGradient id="SVGID_29_" gradientUnits="userSpaceOnUse" x1="89.0478" y1="49.2377" x2="89.0478" y2="55.7057" gradientTransform="matrix(1 0 0 -1 0 232)">
						<stop  offset="0" style="stop-color:#242748"/>
						<stop  offset="1" style="stop-color:#203A5F"/>
					</linearGradient>
					<path class="st39" d="M88.5,178.8c2.3,2.2,3.6,4.9,6.5,2.8c0.7-0.5,1.3-1.1,1.8-1.6c0.1,0.4,0,0.8-0.5,1.3
						c-1.7,1.6-3.1,1.8-5.7,0.8s-3.7-4.6-7.1-4.6c-1.2,0-2-0.5-2.2-1.3C83.2,176.6,86.5,176.8,88.5,178.8z"/>
					<path class="st2" d="M88.5,178.8c2.3,2.2,3.6,4.9,6.5,2.8c0.7-0.5,1.3-1.1,1.8-1.6c0.1,0.4,0,0.8-0.5,1.3
						c-1.7,1.6-3.1,1.8-5.7,0.8s-3.7-4.6-7.1-4.6c-1.2,0-2-0.5-2.2-1.3C83.2,176.6,86.5,176.8,88.5,178.8z"/>
					
						<linearGradient id="SVGID_30_" gradientUnits="userSpaceOnUse" x1="83.6118" y1="47.2677" x2="83.6118" y2="55.0584" gradientTransform="matrix(1 0 0 -1 0 232)">
						<stop  offset="0" style="stop-color:#242748"/>
						<stop  offset="1" style="stop-color:#203A5F"/>
					</linearGradient>
					<path class="st40" d="M83.2,177.1c1.2,0.3,1.5-0.2,1.3,1.1s1,6,0.8,6.3s-0.5,0.4-0.8,0.1c-0.3-0.2-1.1-5.5-2.1-6.6
						C81.4,176.9,82.2,176.8,83.2,177.1z"/>
				</g>
				<path class="st41" d="M48.7,143l-3.3,6.4c-3.2,6.4,1.7,13.8,9.2,13.6l0,0c1.8,0,3.5-0.4,5.2-1.2l14.5-6.5
					c0.3-0.3,0.8-0.1,0.9,0.3l0.3,1.5c0.5,2.6,1.7,5.1,3.4,7.3l1.8,2.2c1.1,1.4,2.9,1.9,4.6,1.4c1.2-0.4,1.9-1.6,1.7-2.7l-3.5-16.1
					c-0.9-4.3-5.5-6.8-9.8-5.6L55,149.1L48.7,143z"/>
			</g>
			<g>
				<g>
					<path class="st37" d="M99.9,173.1c0.1,1.9,0.5,3.7,1.5,5.8c2.1,4.3,3.9,7.2,5.4,7.2s4.3,1.2,2.6,2.8c-1.7,1.6-3.1,1.8-5.7,0.8
						s-3.7-4.6-7.1-4.6c-1.8,0-2.7-1.1-2.3-2.8c0.5-1.6,1.3-3.1,0.6-7.5v-0.1C96.2,175.7,99.2,174.3,99.9,173.1z"/>
					
						<linearGradient id="SVGID_31_" gradientUnits="userSpaceOnUse" x1="102.1054" y1="41.6377" x2="102.1054" y2="51.4385" gradientTransform="matrix(1 0 0 -1 0 232)">
						<stop  offset="0" style="stop-color:#242748"/>
						<stop  offset="1" style="stop-color:#203A5F"/>
					</linearGradient>
					<path class="st42" d="M94.3,183.5c-0.1-0.9,0.2-2.2,0.5-2.9c2.7-0.4,6,2.4,7.7,4.6l0.4,0.5l0,0c0.1,0.1,0.3,0.3,0.4,0.4
						c1.3,1.5,2.5,2.7,4,1.6c1.3-1,0.5-1.2-0.6-1.6h0.1c1.5,0,4.3,1.2,2.6,2.8c-1.7,1.6-3.1,1.8-5.7,0.8s-3.7-4.6-7.1-4.6
						C95.3,185.1,94.5,184.5,94.3,183.5L94.3,183.5z"/>
					
						<linearGradient id="SVGID_32_" gradientUnits="userSpaceOnUse" x1="102.1674" y1="41.6377" x2="102.1674" y2="48.1057" gradientTransform="matrix(1 0 0 -1 0 232)">
						<stop  offset="0" style="stop-color:#242748"/>
						<stop  offset="1" style="stop-color:#203A5F"/>
					</linearGradient>
					<path class="st43" d="M101.6,186.4c2.3,2.2,3.6,4.9,6.5,2.8c0.7-0.5,1.3-1.1,1.8-1.6c0.1,0.4,0,0.8-0.5,1.3
						c-1.7,1.6-3.1,1.8-5.7,0.8s-3.7-4.6-7.1-4.6c-1.2,0-2-0.5-2.2-1.3C96.3,184.2,99.6,184.4,101.6,186.4z"/>
					<path class="st2" d="M101.6,186.4c2.3,2.2,3.6,4.9,6.5,2.8c0.7-0.5,1.3-1.1,1.8-1.6c0.1,0.4,0,0.8-0.5,1.3
						c-1.7,1.6-3.1,1.8-5.7,0.8s-3.7-4.6-7.1-4.6c-1.2,0-2-0.5-2.2-1.3C96.3,184.2,99.6,184.4,101.6,186.4z"/>
					
						<linearGradient id="SVGID_33_" gradientUnits="userSpaceOnUse" x1="96.7315" y1="39.6677" x2="96.7315" y2="47.4584" gradientTransform="matrix(1 0 0 -1 0 232)">
						<stop  offset="0" style="stop-color:#242748"/>
						<stop  offset="1" style="stop-color:#203A5F"/>
					</linearGradient>
					<path class="st44" d="M96.3,184.7c1.2,0.3,1.5-0.2,1.3,1.1s1,6,0.8,6.3s-0.5,0.4-0.8,0.1c-0.3-0.2-1.1-5.5-2.1-6.6
						C94.5,184.5,95.3,184.4,96.3,184.7z"/>
				</g>
				<path class="st41" d="M61.8,150.6l-3.3,6.4c-3.2,6.4,1.7,13.8,9.2,13.6l0,0c1.8,0,3.5-0.4,5.2-1.2l14.5-6.5
					c0.3-0.3,0.8-0.1,0.9,0.3l0.3,1.5c0.5,2.6,1.7,5.1,3.4,7.3l1.8,2.2c1.1,1.4,2.9,1.9,4.6,1.4c1.2-0.4,1.9-1.6,1.7-2.7l-3.5-16.1
					c-0.9-4.3-5.5-6.8-9.8-5.6l-18.7,5.5L61.8,150.6z"/>
			</g>
			<path class="st41" d="M50.6,158.7c0.4,7.6,16.1-2.8,16.1-3.3l1.4,1.4l18.7-5.5c4.3-1.3,8.9,1.3,9.8,5.6L100,173
				c0.2,1.1-0.5,2.4-1.7,2.7c-0.2,0.1-0.4,0.1-0.6,0.1l-3.6-4.7c-1.7-2.2-2.8-4.6-3.4-7.3l-0.3-1.5c-0.1-0.4-0.6-0.6-0.9-0.3
				l-1.8,0.8l0,0c-0.1,0-0.2,0-0.3,0.1l-14.5,6.5c-1.6,0.7-3.4,1.1-5.2,1.2l0,0c-2.4,0.1-4.5-0.7-6.2-1.9c-0.3,0-0.6,0.1-0.9,0.1
				l0,0C54.6,169.1,50.1,164.1,50.6,158.7z"/>
			<g>
				<path class="st45" d="M63.6,120.9c-0.7-0.2-1.4,3.7,0.7,4.8c2.1,1-10.7,0.9-9.8-0.2s0.6-2.2,1.4-2.2c0.8,0,4-2.9,2.1-6
					c-1.8-3.1,3.7-2.7,4.4-1.9c0.6,0.8,3,1.4,2.5,2.4C64.4,118.9,64.7,121.2,63.6,120.9z"/>
				<path class="st7" d="M63.6,120.9c-0.7-0.2-1.4,3.7,0.7,4.8c2.1,1-10.7,0.9-9.8-0.2s0.6-2.2,1.4-2.2c0.8,0,4-2.9,2.1-6
					c-1.8-3.1,3.7-2.7,4.4-1.9c0.6,0.8,3,1.4,2.5,2.4C64.4,118.9,64.7,121.2,63.6,120.9z"/>
				<path class="st45" d="M67.8,109.5c-0.3-1.1-2.4-2-3.7-0.5c-1.7,2.1-1.8,3-3.9,5.2c-0.2,0.2-0.4,0.4-0.5,0.5
					c0-0.2-0.1-0.4-0.1-0.5c-0.3-1.2-1.3-2-2.1-1.7c-0.8,0.2-1.2,1.4-0.9,2.5c0.2,0.6,0.5,1.1,1,1.4c1.4,2.1,1.7,2.9,4.1,3.8
					c1.9,0.7,4.4,1.1,4.9-0.4c0.4-1.2,1.7-2.2,1.7-4c0-1.2-0.7-3.3-0.5-4.3C67.9,111,68,110.1,67.8,109.5z"/>
				<path class="st37" d="M67.8,109.5c-0.3-1.1-2.4-2-3.7-0.5c-1.7,2.1-1.8,3-3.9,5.2c-0.2,0.2-0.4,0.4-0.5,0.5
					c0-0.2-0.1-0.4-0.1-0.5c-0.3-1.2-1.3-2-2.1-1.7c-0.8,0.2-1.2,1.4-0.9,2.5c0.2,0.6,0.5,1.1,1,1.4c1.4,2.1,1.7,2.9,4.1,3.8
					c1.9,0.7,4.4,1.1,4.9-0.4c0.4-1.2,1.7-2.2,1.7-4c0-1.2-0.7-3.3-0.5-4.3C67.9,111,68,110.1,67.8,109.5z"/>
				<path class="st37" d="M63.3,119.9c1.3-0.5,1.2,0.6,2.6-1.7c1.4-2.2,0.9-4.4,1-6.2c0.2-1.8,0.1-1.8-1-3.4
					c-0.1-0.1-0.2-0.3-0.3-0.4c1-0.1,2,0.5,2.2,1.3c0.1,0.5,0.1,1.4,0,2.1c-0.2,1,0.5,3.2,0.5,4.3c0,1.8-1.3,2.7-1.7,4
					c-0.3,1-1.5,1.2-2.8,1c-0.1,0-0.1,0-0.2,0c-0.7-0.2-1.4,3.7,0.7,4.8c0.7,0.4-0.3,0.5-1.9,0.6c-0.1-1.3-0.1-2.5-0.2-3
					C62,121.7,62,120.4,63.3,119.9z"/>
				<g>
					<g>
						<path class="st37" d="M81.1,123.6c0,0,2.3-2.3,3.3-2.3c0.9,0,3.6,0.3,5,0.4c1.5,0,1.9,0.7,2.4,0.2s-0.8-1.5-1.9-1.6
							c-1.2,0-1.2-0.4-1.2-1s4-3.3,3.3-3.9c-0.6-0.6-2.3,1.4-3.2,1.4c-0.5,0-0.5-0.5-0.9-0.6c-0.4,0-0.4,0.1-0.6,0.1
							s-0.1-0.1-0.4-0.1s-0.4,0.2-0.6,0.2c-0.1,0-0.2-0.1-0.4-0.1c-0.2,0-1.2,0.3-1.8,0.9c-0.7,0.6-1.9,1.1-2.9,1.8
							c-1,0.7-1.6,2.2-1.6,3.4C79.6,123.6,80.3,124.3,81.1,123.6z"/>
						<path class="st46" d="M81.1,123.6c0,0,2.3-2.3,3.3-2.3c0.9,0,3.6,0.3,5,0.4c1.5,0,1.9,0.7,2.4,0.2s-0.8-1.5-1.9-1.6
							c-1.2,0-1.2-0.4-1.2-1s4-3.3,3.3-3.9c0,0-0.1-0.1-0.2-0.1c-1.2,1.1-3.6,3.3-5.2,3.5c-1.8,0.3-3.3,0.4-5.8,2.6
							c-0.5,0.4-0.9,0.8-1.3,1.1C79.6,123.7,80.3,124.3,81.1,123.6z"/>
					</g>
					<path class="st37" d="M70.2,126.1c-0.3-0.1-0.5-0.2-0.8-0.3c0.3-0.1,0.5-0.2,0.7-0.3l11-6.5l0.6,3.9l-8,6.6
						c-0.5,0.5-1.2,0.8-1.8,1.1c0.2-0.2,0.3-0.5,0.3-0.9C72.3,128.3,71.4,126.8,70.2,126.1z"/>
					<path class="st47" d="M50.6,125.9c0.3-1.7,2.1-2.9,3.9-2.5l14.1,2.5c0.3,0.1,0.6,0,0.9,0c0.2,0,0.5,0.1,0.8,0.3
						c1.2,0.6,2.1,2.2,2.1,3.5c0,0.4-0.1,0.7-0.3,0.9c-1.1,0.5-2.3,0.6-3.5,0.5l-14.9-1.2C51.6,129.7,50.2,127.8,50.6,125.9z"/>
					<path class="st37" d="M73.5,126.5c-1.1,0.8-1.9,0.5-2.3,0.5l0,0c0.3,0.4,0.6,0.8,0.8,1.3c0,0,0,0,0,0.1
						c0.1,0.2,0.1,0.4,0.2,0.6c0,0.1,0,0.1,0,0.2c0,0.2,0.1,0.4,0.1,0.6c0,0.4-0.1,0.7-0.3,0.9c0.6-0.3,1.3-0.6,1.8-1.1l8-6.6
						l-0.3-2C81.1,121.2,73.5,126.5,73.5,126.5z"/>
					<path class="st47" d="M54.1,123.3c1.7,1.3,15,4.3,17.2,3.6c0.7,0.8,1.1,1.8,1.1,2.7c0,0.4-0.1,0.7-0.3,0.9
						c-1.1,0.5-2.3,0.6-3.5,0.5l-14.9-1.2c-2.1-0.2-3.5-2-3.1-4C50.9,124.3,52.4,123.2,54.1,123.3z"/>
				</g>
				<g>
					<path class="st37" d="M96.7,126.2c2-1.5,3.2-1.9,3.4-3.4c0.2-1.5,0.2-0.8,0.5-1.5s0.7-1.4,1.5-2.1s1.2-1.8,1.8-1.6
						c0.5,0.2,0.3,0.8,0.3,1.1c0,0.3-1,1.7-1,1.8c0.1,0.1,0.8-0.1,1.4-0.3c0.6-0.2,1.2-0.5,1.8-0.8c0.5-0.3,2.6-1.6,3-1.4
						s0,0.8,0,0.8s0.7,0.1,0.2,1s-1,1.5-1,1.5s0.2,0.4-0.2,1c-0.4,0.6-0.5,0.6-0.5,0.6s0.2,0.4-1,1.5s-4.5,1.7-5.4,2.7
						c-1,1-0.7,1-2.6,2.5C98.3,130,95.3,127.4,96.7,126.2z"/>
					<path class="st37" d="M88,132.3c-0.3-0.1-0.5-0.2-0.7-0.3c0.3-0.1,0.5-0.2,0.7-0.3l10.4-6.7l0.7,4.3l-7.5,6.4
						c-0.5,0.5-1.2,0.8-1.8,1.1c0.2-0.2,0.3-0.5,0.3-0.9C90.1,134.6,89.1,133,88,132.3z"/>
					<path class="st48" d="M88,132.3c-0.3-0.1-0.5-0.2-0.7-0.3c-0.3,0.1-0.6,0.1-0.9,0l-7.9-1.4c-3.9-0.7-6.9-1.8-12.2-4.3
						c-0.9-0.5-1.8-0.9-2.6-1.3c-2.7-1.2-5.6-1.8-9.4-1.9c-1.7,0-7.3,0.2-7.3,3.7c0,3.8,0.4,7.8,2.9,12.2c0.4,0.6,0.7,1.3,1,2
						c0.1,0.2,0.1,0.4,0.2,0.6c0,0.1,0.1,0.2,0.1,0.3c1,4.1,1.5,4.8,1.5,9c0,1.2-0.3,2.2-0.7,3.2c0.7,1.1,2.8,2.2,6.3,3.6
						c0.1,0,0.2,0.1,0.3,0.1c5.7,2.2,11.6,0,12-0.4s0.2-7.9,0.6-11.7c0.1-0.3,0.1-0.7,0.1-1.1c0.5-3.1,2.6-2.8,3.6-5.5
						c0.2-0.5,0.3-0.9,0.3-1.3c1.9-1,4-1.2,5.4-1.2l0,0l5.8,0.5c1.2,0.1,2.4-0.1,3.5-0.5c0.2-0.2,0.3-0.5,0.3-0.9
						C90.1,134.6,89.1,133,88,132.3z"/>
					<path class="st37" d="M89,133.2c1.6-0.5,2.8-1.3,3.9-2.2l0,0c1.4-1,2.1-1.5,3.9-2.9l0,0c0.2-0.1,0.4-0.3,0.6-0.4
						c1.9-1.6,3-2.1,3.2-2.4c0.8-0.9,1.4-2.5,2.9-3.2c0.7-0.3,4.1-2,6-3.3l0,0l0,0l0,0l0,0l0,0l0,0l0,0c0.2,0,0.6,0.2,0.2,0.9
						c-0.5,0.9-1,1.5-1,1.5s0.2,0.4-0.2,1c-0.4,0.6-0.5,0.6-0.5,0.6s0.2,0.4-1,1.5s-4.5,1.7-5.4,2.7s-0.8,1-2.4,2.4l0,0l-7.5,6.4
						c-0.5,0.5-1.2,0.8-1.8,1.1c0.2-0.2,0.3-0.5,0.3-0.9C90.1,135,89.6,134,89,133.2z"/>
				</g>
				<path class="st48" d="M89,133.2c-2.1,0.7-15.5-2.4-17.2-3.6l0,0c-0.8-0.6-1.7-1.2-2.9-2c-0.8-0.4-1.7-0.8-2.6-1.2
					c-0.3-0.1-0.5-0.3-0.8-0.4s-0.5-0.2-0.7-0.4c-0.4-0.2-0.8-0.4-1.1-0.5c-2.7-1.2-5.6-1.8-9.4-1.9c-0.1,0-0.2,0-0.3,0
					s-0.1,0-0.2,0c-0.1,0-0.1,0-0.2,0c-0.1,0-0.2,0-0.3,0h-0.1c-0.1,0-0.3,0-0.4,0h-0.1c-0.2,0-0.3,0-0.5,0c0,0,0,0-0.1,0
					c-0.2,0-0.3,0-0.5,0.1l0,0c-1.7,0.3-3.6,0.9-4.3,2.4c0,0,0,0-0.1,0c0,0.1,0,0.1,0,0.2s-0.1,0.1-0.1,0.2l0,0c0,0,0,0,0.1,0
					c-0.2,3.4,0,7.1,1.9,11.2c0.3,0.7,0.6,1.4,0.8,2.1c0.1,0.2,0.1,0.4,0.2,0.6c0,0.1,0.1,0.2,0.1,0.3c0.6,4.2,1.1,4.9,0.7,9.1
					c-0.1,1.2-0.5,2.2-1,3.1c0.6,1.2,2.6,2.5,5.9,4.1c0.1,0,0.2,0.1,0.2,0.1c3.1,1.5,6.5,1.6,8.8,1.3l0,0c0,0.3,0,0.6,0,0.9l0,0l0,0
					c0.4,0,0.7,0,1-0.1c0.1,0,0.1,0,0.2,0c0.3,0,0.6-0.1,0.9-0.1H67c0.3-0.1,0.6-0.1,0.9-0.2l0,0c0.6-0.1,1.1-0.3,1.5-0.4h0.1
					c0.1,0,0.3-0.1,0.4-0.1c0,0,0.1,0,0.1-0.1c0.1,0,0.2-0.1,0.2-0.1h0.1c0.1,0,0.1-0.1,0.2-0.1c0.4-0.4,0.2-7.5,0.5-11.3
					c0.1-0.4,0.1-0.9,0.2-1.5c0.5-3.1,2.6-2.8,3.6-5.5c0.1-0.2,0.1-0.5,0.2-0.7c0-0.1,0-0.1,0-0.2c0-0.2,0-0.3,0-0.4
					c1.9-1,4-1.2,5.4-1.2l0,0l5.8,0.5c1.2,0.1,2.4-0.1,3.5-0.5c0.2-0.2,0.3-0.5,0.3-0.9C90.1,135,89.6,134,89,133.2z M68.1,132.2
					c-0.1,0.2-0.2,0.5-0.4,0.7c-0.6,1.4-1.2,2.4-1.6,3.4c-0.3-1.1-0.5-2-0.6-2.7c-0.5-5.3-9.4-3.6-18.1-7.8c1.8-1,4.5-1.1,5.6-1.1
					c3.8,0.1,6.7,0.7,9.4,1.9c1.2,0.5,2.5,1.2,3.9,2c0.2,0.1,0.5,0.3,0.7,0.4c0,0,0.1,0,0.1,0.1c0.2,0.1,0.4,0.3,0.6,0.4
					c0.1,0.1,0.2,0.1,0.3,0.2c0,0,0.1,0,0.1,0.1C68.8,130.3,68.6,131.1,68.1,132.2L68.1,132.2z"/>
				
					<linearGradient id="SVGID_34_" gradientUnits="userSpaceOnUse" x1="59.6882" y1="103.9656" x2="59.6882" y2="129.6342" gradientTransform="matrix(1 0 0 -1 0 232)">
					<stop  offset="0" style="stop-color:#242748"/>
					<stop  offset="1" style="stop-color:#203A5F"/>
				</linearGradient>
				<path class="st49" d="M52.4,105.8c0.3-0.5,0.7-0.9,1.2-1.3c0.1-0.1,0.1-0.1,0.2-0.2l0.1-0.1c0.1,0,0.1-0.1,0.2-0.1l0,0
					c1.5-1.1,3.4-1.7,5.5-1.7c4.6,0,8.2,2.9,8.2,6.5c0,0.8-0.2,1.5-0.5,2.2l0,0c-1.2,3.6-1.7,2.7-2.2,6.1c-1.1,8.1,3.3,6.9,3.9,10.8
					c-1.2-0.8-2.5-1.5-3.7-2.1l0,0c-1.7-0.8-2.4,0.1-5.7-0.6c-3.4-0.7-5.7-1.5-8.2-7C49.9,114.8,49.9,109.3,52.4,105.8z"/>
				<path class="st7" d="M68,108.9c0,0.8-0.2,1.5-0.5,2.2l0,0c-1.2,3.6-1.7,2.7-2.2,6.1c-1.1,8.1,3.3,6.9,3.9,10.8
					c-1.2-0.8-2.5-1.5-3.7-2.1l0,0c-1.7-0.8-2.4,0.1-5.7-0.6c-3.4-0.7-5.7-1.5-8.2-7c-0.1-0.1-0.1-0.2-0.1-0.4
					c2.7,4.3,9.4,5.9,8.9,1.7c-0.9-7.4,2.3-9.9,3.2-13c0.8-2.8-4.2-3.7-6.9-3.8c1-0.3,2-0.5,3.2-0.5C64.3,102.4,68,105.3,68,108.9z"
					/>
			</g>
		</g>
		<path class="st50" d="M36.3,118.8c0-0.5,0.3-1.2,0.8-1.5c0.3-0.2,0.5-0.2,0.7-0.1l0,0l17.6,9.8l0,0c-0.2-0.1-0.4,0-0.6,0.1
			c-0.5,0.3-0.9,1-0.8,1.5l5.9,39.5c0,0.2,0,0.3,0.1,0.4l0,0l5.4,10.5c0.1,0.1,0.2,0.2,0.3,0.3l0,0l0,0l-26.5-14.7l0,0
			c-0.1-0.1-0.2-0.2-0.3-0.3l-5.4-10.5l0,0c-0.1-0.1-0.1-0.2-0.1-0.4L36.3,118.8z"/>
		
			<linearGradient id="SVGID_35_" gradientUnits="userSpaceOnUse" x1="53.9288" y1="78.8833" x2="88.1064" y2="78.8833" gradientTransform="matrix(1 0 0 -1 0 232)">
			<stop  offset="0" style="stop-color:#F0F2FE"/>
			<stop  offset="1" style="stop-color:#C8CDF0"/>
		</linearGradient>
		<path class="st51" d="M54.8,127c0.5-0.3,0.9-0.1,1,0.4l6.5,38.9l5.3,9.4l19-10.8c0.9-0.5,1.6-0.1,1.6,0.9s-0.7,2.1-1.6,2.6l0,0
			l-19.9,10.8c-0.5,0.3-1,0.2-1.2-0.2L60,168.5l0,0c-0.1-0.1-0.1-0.2-0.1-0.4L54,128.6C53.9,128,54.3,127.3,54.8,127z"/>
		<path class="st52" d="M54.8,127c0.5-0.3,0.9-0.1,1,0.4l6.5,38.9l5.3,9.4l19-10.8c0.9-0.5,1.6-0.1,1.6,0.9s-0.7,2.1-1.6,2.6l0,0
			l-19.9,10.8c-0.5,0.3-1,0.2-1.2-0.2L60,168.5l0,0c-0.1-0.1-0.1-0.2-0.1-0.4L54,128.6C53.9,128,54.3,127.3,54.8,127z"/>
		<path class="st20" d="M37.8,117.1L37.8,117.1l17.6,9.8l0,0c-0.2-0.1-0.4,0-0.6,0.1l-17.7-9.8C37.4,117.1,37.6,117,37.8,117.1z"/>
		<path class="st20" d="M59.9,168.1c0,0.2,0,0.3,0.1,0.4l0,0l5.4,10.5c0.1,0.1,0.2,0.2,0.3,0.3l0,0l0,0l-26.5-14.7l0,0
			c-0.1-0.1-0.2-0.2-0.3-0.3l-5.4-10.5l0,0c-0.1-0.1-0.1-0.2-0.1-0.4L59.9,168.1z"/>
	</g>
</g>
<g>
	<g>
		<g>
			<path class="st53" d="M88.6,35.6l-17.3-10c-0.5-0.3-1.1-0.3-1.7,0.1l0,0l-3.8,2.2l1.8,2.4l0.7,0.8v17.2c0,1,0.5,2,1.4,2.5l13,7.5
				l0.1,0.7l2.6,3.7l4.1-2.4l0,0l0,0l0,0c0.4-0.2,0.6-0.6,0.6-1.1V38.3C90.1,37.1,89.5,36.1,88.6,35.6z"/>
			<path class="st54" d="M84.5,37.9L67,27.8c-0.9-0.5-1.9,0.1-1.9,1.1v21c0,1,0.5,2,1.4,2.5L84,62.5c0.9,0.5,2-0.1,2-1.1V40.5
				C86,39.4,85.5,38.5,84.5,37.9z"/>
		</g>
	</g>
	<g>
		<path class="st55" d="M85.4,62.5L85.4,62.5L85.4,62.5C85.3,62.5,85.4,62.5,85.4,62.5z"/>
		<path class="st56" d="M86,61.4V40.5c0-0.4-0.1-0.7-0.2-1l4.1-2.3c0.1,0.3,0.2,0.6,0.2,1v20.9c0,0.5-0.3,0.9-0.6,1.1l0,0l0,0l0,0
			l-4,2.4C85.8,62.3,86,61.9,86,61.4z"/>
	</g>
</g>
<g>
	<g>
		<g>
			<path class="st57" d="M188,81.8l-17.3-10c-0.5-0.3-1.1-0.3-1.7,0.1l0,0l-3.8,2.2l1.8,2.4l0.7,0.8v17.2c0,1,0.5,2,1.4,2.5l13,7.5
				l0.1,0.7l2.6,3.7l4.1-2.4l0,0l0,0l0,0c0.4-0.2,0.6-0.6,0.6-1.1V84.5C189.5,83.3,188.9,82.3,188,81.8z"/>
			<path class="st58" d="M184,84.2L166.4,74c-0.9-0.5-1.9,0.1-1.9,1.1v21c0,1,0.5,2,1.4,2.5l17.5,10.1c0.9,0.5,2-0.1,2-1.1V86.7
				C185.4,85.7,184.9,84.7,184,84.2z"/>
		</g>
	</g>
	<g>
		<path class="st55" d="M184.8,108.8L184.8,108.8L184.8,108.8C184.7,108.8,184.8,108.8,184.8,108.8z"/>
		<path class="st59" d="M185.4,107.6V86.7c0-0.4-0.1-0.7-0.2-1l4.1-2.3c0.1,0.3,0.2,0.6,0.2,1v20.9c0,0.5-0.3,0.9-0.6,1.1l0,0l0,0
			l0,0l-4,2.4C185.2,108.5,185.4,108.1,185.4,107.6z"/>
	</g>
</g>
<g>
	<g>
		<g>
			<path class="st60" d="M151,37.1l-17.3-10c-0.5-0.3-1.1-0.3-1.7,0.1l0,0l-3.8,2.2l1.8,2.4l0.7,0.8v17.2c0,1,0.5,2,1.4,2.5l13,7.5
				l0.1,0.7l2.6,3.7l4.1-2.4l0,0l0,0l0,0c0.4-0.2,0.6-0.6,0.6-1.1V39.8C152.5,38.6,151.9,37.7,151,37.1z"/>
			<path class="st61" d="M147,39.5l-17.5-10.1c-0.9-0.5-1.9,0.1-1.9,1.1v21c0,1,0.5,2,1.4,2.5l17.5,10.1c0.9,0.5,2-0.1,2-1.1V42.1
				C148.5,41,147.9,40,147,39.5z"/>
		</g>
	</g>
	<g>
		<path class="st55" d="M147.8,64.1L147.8,64.1L147.8,64.1L147.8,64.1z"/>
		<path class="st62" d="M148.5,63V42.1c0-0.4-0.1-0.7-0.2-1l4.1-2.3c0.1,0.3,0.2,0.6,0.2,1v20.9c0,0.5-0.3,0.9-0.6,1.1l0,0l0,0l0,0
			l-4,2.4C148.2,63.9,148.5,63.5,148.5,63z"/>
	</g>
</g>
<g>
	<g>
		<defs>
			
				<rect id="SVGID_36_" x="100.5" y="73.4" transform="matrix(0.9996 -2.804052e-02 2.804052e-02 0.9996 -2.668 3.3384)" width="34.4" height="46.8"/>
		</defs>
		<clipPath id="SVGID_37_">
			<use xlink:href="#SVGID_36_"  style="overflow:visible;"/>
		</clipPath>
		<g class="st63">
			<g>
				<defs>
					
						<rect id="SVGID_38_" x="100.5" y="73.4" transform="matrix(0.9996 -2.804052e-02 2.804052e-02 0.9996 -2.668 3.3384)" width="34.4" height="46.8"/>
				</defs>
				<clipPath id="SVGID_39_">
					<use xlink:href="#SVGID_38_"  style="overflow:visible;"/>
				</clipPath>
				<path class="st64" d="M133.8,89.6L133.8,89.6c-0.1,0.1-0.4,0.1-0.6,0l-24.8-13.4c-0.5-0.2-0.8-0.9-0.9-1.4
					c0-0.3,0.1-0.4,0.2-0.5l0.5-0.3l0,0c0.1-0.1,0.4-0.1,0.6,0l24.8,13.4c0.5,0.2,0.8,0.9,0.9,1.4l0,0c0,0.3-0.1,0.5-0.2,0.5l0,0
					L133.8,89.6z"/>
			</g>
			<g>
				<defs>
					
						<rect id="SVGID_40_" x="100.5" y="73.4" transform="matrix(0.9996 -2.804052e-02 2.804052e-02 0.9996 -2.668 3.3384)" width="34.4" height="46.8"/>
				</defs>
				<clipPath id="SVGID_41_">
					<use xlink:href="#SVGID_40_"  style="overflow:visible;"/>
				</clipPath>
				<g class="st65">
					<g>
						<g>
							<defs>
								
									<rect id="SVGID_42_" x="108.1" y="74.1" transform="matrix(0.9996 -2.804052e-02 2.804052e-02 0.9996 -2.249 3.4195)" width="25.4" height="15.6"/>
							</defs>
							<clipPath id="SVGID_43_">
								<use xlink:href="#SVGID_42_"  style="overflow:visible;"/>
							</clipPath>
							<path class="st66" d="M133.6,89.3c0,0-0.1,0-0.3-0.1l-24.8-13.4c-0.2-0.1-0.3-0.3-0.5-0.5c-0.1-0.2-0.2-0.4-0.2-0.6
								s0-0.2,0.1-0.3c0,0,0.1,0,0.3,0.1L133,87.9c0.3,0.2,0.7,0.7,0.7,1.1C133.7,89.2,133.7,89.3,133.6,89.3"/>
						</g>
					</g>
				</g>
			</g>
			<g>
				<defs>
					
						<rect id="SVGID_44_" x="100.5" y="73.4" transform="matrix(0.9996 -2.804052e-02 2.804052e-02 0.9996 -2.668 3.3384)" width="34.4" height="46.8"/>
				</defs>
				<clipPath id="SVGID_45_">
					<use xlink:href="#SVGID_44_"  style="overflow:visible;"/>
				</clipPath>
				<g class="st67">
					<g>
						<g>
							<defs>
								
									<rect id="SVGID_46_" x="108.6" y="74.3" transform="matrix(0.9996 -2.804052e-02 2.804052e-02 0.9996 -2.2448 3.4251)" width="24.8" height="14.9"/>
							</defs>
							<clipPath id="SVGID_47_">
								<use xlink:href="#SVGID_46_"  style="overflow:visible;"/>
							</clipPath>
							<path class="st68" d="M133.7,88.8l-24.6-13.3c-0.2-0.1-0.3-0.3-0.5-0.5c-0.1-0.1-0.1-0.3-0.2-0.4L133,87.9
								C133.3,88.1,133.6,88.4,133.7,88.8"/>
						</g>
					</g>
				</g>
			</g>
			<g>
				<defs>
					
						<rect id="SVGID_48_" x="100.5" y="73.4" transform="matrix(0.9996 -2.804052e-02 2.804052e-02 0.9996 -2.668 3.3384)" width="34.4" height="46.8"/>
				</defs>
				<clipPath id="SVGID_49_">
					<use xlink:href="#SVGID_48_"  style="overflow:visible;"/>
				</clipPath>
				<path class="st69" d="M133.6,89.8c-0.1,0-0.3,0-0.5-0.1l-24.8-13.4c-0.5-0.3-0.9-1-0.9-1.5c0-0.3,0.1-0.6,0.3-0.7l0.5-0.3l0,0
					c0.2-0.1,0.5-0.1,0.7,0l24.8,13.4c0.5,0.3,0.9,1,0.9,1.5l0,0c0,0.3-0.1,0.5-0.3,0.7l0,0l-0.5,0.3
					C133.8,89.8,133.7,89.8,133.6,89.8 M108.3,74l-0.5,0.3c-0.1,0.1-0.1,0.2-0.1,0.4c0,0.5,0.4,1,0.8,1.2l24.8,13.4
					c0.2,0.1,0.3,0.1,0.4,0l0,0l0.5-0.3l0,0c0.1-0.1,0.2-0.2,0.1-0.4l0,0c0-0.5-0.4-1-0.8-1.2L108.7,74C108.6,74,108.4,74,108.3,74
					L108.3,74"/>
			</g>
			<g>
				<defs>
					
						<rect id="SVGID_50_" x="100.5" y="73.4" transform="matrix(0.9996 -2.804052e-02 2.804052e-02 0.9996 -2.668 3.3384)" width="34.4" height="46.8"/>
				</defs>
				<clipPath id="SVGID_51_">
					<use xlink:href="#SVGID_50_"  style="overflow:visible;"/>
				</clipPath>
				<path class="st70" d="M100.9,104.9c-0.1-2.1,1.3-4.6,3.1-5.7l3.1,1.7l-0.6-20c-0.1-2,1.2-4.4,2.8-5.5L133,88.1
					c-1.6,1-2.9,3.4-2.8,5.3l0.6,20.2c0.1,2-1.3,4.6-3.1,5.7c-0.9,0.5-1.7,0.6-2.3,0.3l0,0l0,0l0,0L102,106.9l0,0
					C101.3,106.6,100.9,105.9,100.9,104.9"/>
			</g>
			<g>
				<defs>
					
						<rect id="SVGID_52_" x="100.5" y="73.4" transform="matrix(0.9996 -2.804052e-02 2.804052e-02 0.9996 -2.668 3.3384)" width="34.4" height="46.8"/>
				</defs>
				<clipPath id="SVGID_53_">
					<use xlink:href="#SVGID_52_"  style="overflow:visible;"/>
				</clipPath>
				<path class="st71" d="M109.3,75.3L133,88.1c-0.2,0.1-0.4,0.3-0.5,0.4l-23.6-12.8C109,75.6,109.2,75.4,109.3,75.3"/>
			</g>
			<g>
				<defs>
					
						<rect id="SVGID_54_" x="100.5" y="73.4" transform="matrix(0.9996 -2.804052e-02 2.804052e-02 0.9996 -2.668 3.3384)" width="34.4" height="46.8"/>
				</defs>
				<clipPath id="SVGID_55_">
					<use xlink:href="#SVGID_54_"  style="overflow:visible;"/>
				</clipPath>
				<path class="st72" d="M127.6,119.3c-0.9,0.5-1.7,0.6-2.3,0.3l0,0l0,0l0,0l-23.4-12.7l0,0c-0.6-0.3-1-1-1-2.1
					c-0.1-2.1,1.3-4.6,3.1-5.7l3.1,1.7v-1.4l23.7,12.8v1.4C130.8,115.7,129.4,118.2,127.6,119.3"/>
			</g>
			<g>
				<defs>
					
						<rect id="SVGID_56_" x="100.5" y="73.4" transform="matrix(0.9996 -2.804052e-02 2.804052e-02 0.9996 -2.668 3.3384)" width="34.4" height="46.8"/>
				</defs>
				<clipPath id="SVGID_57_">
					<use xlink:href="#SVGID_56_"  style="overflow:visible;"/>
				</clipPath>
				<path class="st73" d="M126.2,120c-0.3,0-0.6-0.1-0.9-0.2l0,0l0,0l0,0l-23.4-12.7l0,0c-0.7-0.4-1.1-1.1-1.1-2.2
					c-0.1-2.1,1.4-4.7,3.2-5.8c0.1,0,0.1,0,0.2,0l2.8,1.5l-0.6-19.7c-0.1-2,1.2-4.5,2.9-5.7c0.1,0,0.1,0,0.2,0L133,87.9
					c0.1,0,0.1,0.1,0.1,0.1c0,0.1,0,0.1-0.1,0.2c-1.6,1-2.8,3.3-2.7,5.1l0.6,20.2c0.1,2.1-1.4,4.7-3.2,5.8
					C127.2,119.8,126.7,119.9,126.2,120 M125.5,119.4L125.5,119.4c0.6,0.3,1.3,0.2,2.1-0.3c1.7-1,3-3.5,3-5.5L130,93.4
					c-0.1-1.9,1.1-4.1,2.7-5.3l-23.3-12.6c-1.6,1.1-2.7,3.5-2.7,5.3l0.6,20c0,0.1,0,0.1-0.1,0.2c-0.1,0-0.1,0-0.2,0l-3-1.6
					c-1.7,1.1-3,3.5-2.9,5.5l0,0c0,0.9,0.4,1.6,0.9,1.9l0,0L125.5,119.4L125.5,119.4"/>
			</g>
			<g>
				<defs>
					
						<rect id="SVGID_58_" x="100.5" y="73.4" transform="matrix(0.9996 -2.804052e-02 2.804052e-02 0.9996 -2.668 3.3384)" width="34.4" height="46.8"/>
				</defs>
				<clipPath id="SVGID_59_">
					<use xlink:href="#SVGID_58_"  style="overflow:visible;"/>
				</clipPath>
				<path class="st74" d="M124.4,117.5c0,1,0.4,1.7,1,2.1L102,106.9l0,0c-0.6-0.3-1-1-1-2.1c-0.1-2.1,1.3-4.6,3.1-5.7l23.5,12.7
					C125.7,112.9,124.3,115.5,124.4,117.5"/>
			</g>
			<g>
				<defs>
					
						<rect id="SVGID_60_" x="100.5" y="73.4" transform="matrix(0.9996 -2.804052e-02 2.804052e-02 0.9996 -2.668 3.3384)" width="34.4" height="46.8"/>
				</defs>
				<clipPath id="SVGID_61_">
					<use xlink:href="#SVGID_60_"  style="overflow:visible;"/>
				</clipPath>
				<path class="st75" d="M125.4,119.6L102,106.9l0,0c-0.6-0.3-1-1-1-2.1c0-0.2,0-0.3,0-0.5l23.5,12.7c0,0.2,0,0.3,0,0.5
					C124.4,118.6,124.8,119.3,125.4,119.6"/>
			</g>
			<g>
				<defs>
					
						<rect id="SVGID_62_" x="100.5" y="73.4" transform="matrix(0.9996 -2.804052e-02 2.804052e-02 0.9996 -2.668 3.3384)" width="34.4" height="46.8"/>
				</defs>
				<clipPath id="SVGID_63_">
					<use xlink:href="#SVGID_62_"  style="overflow:visible;"/>
				</clipPath>
				<path class="st76" d="M125.4,119.8C125.3,119.8,125.3,119.8,125.4,119.8C125.3,119.7,125.3,119.7,125.4,119.8l-23.5-12.7l0,0
					c-0.7-0.4-1.1-1.1-1.1-2.2c-0.1-2.1,1.4-4.7,3.2-5.8c0.1,0,0.1,0,0.2,0l23.5,12.7c0.1,0,0.1,0.1,0.1,0.1c0,0.1,0,0.1-0.1,0.2
					c-1.7,1-3,3.5-3,5.5c0,0.9,0.3,1.6,0.9,1.9l0,0c0.1,0,0.1,0.2,0.1,0.2C125.5,119.7,125.4,119.8,125.4,119.8 M102,106.8
					l22.5,12.2c-0.2-0.4-0.3-0.8-0.3-1.4c-0.1-2,1.2-4.5,2.9-5.7L104,99.4c-1.7,1.1-3,3.5-2.9,5.5
					C101.1,105.8,101.4,106.5,102,106.8L102,106.8"/>
			</g>
			<g>
				<defs>
					
						<rect id="SVGID_64_" x="100.5" y="73.4" transform="matrix(0.9996 -2.804052e-02 2.804052e-02 0.9996 -2.668 3.3384)" width="34.4" height="46.8"/>
				</defs>
				<clipPath id="SVGID_65_">
					<use xlink:href="#SVGID_64_"  style="overflow:visible;"/>
				</clipPath>
				<path class="st77" d="M109.2,83.7L109.2,83.7l2.2,1.1c0.1,0,0.1,0.1,0.2,0.1l-0.4,0.2l-1.6-0.8L109.2,83.7z M111.2,86v1.1
					l-1.6-0.9v-1.1l-0.5-0.8l0.1,1.9c0,0.1,0.1,0.3,0.2,0.4l2.1,1.1c0.1,0.1,0.2,0,0.2-0.1l-0.1-1.9L111.2,86z M109.3,88.2
					L109.3,88.2l2.2,1.1c0.1,0,0.1,0.1,0.2,0.1l-0.4,0.2l-1.6-0.8L109.3,88.2z M111.3,90.4v1.1l-1.6-0.9v-1.1l-0.5-0.8l0.1,1.9
					c0,0.1,0.1,0.3,0.2,0.4l2.1,1.1c0.1,0.1,0.2,0,0.2-0.1l-0.1-1.9L111.3,90.4z M109.4,92.6L109.4,92.6l2.2,1.1
					c0.1,0,0.1,0.1,0.2,0.1l-0.4,0.2l-1.6-0.8L109.4,92.6z M111.4,94.9V96l-1.6-0.9V94l-0.5-0.8l0.1,1.9c0,0.1,0.1,0.3,0.2,0.4
					l2.1,1.1c0.1,0.1,0.2,0,0.2-0.1l-0.1-1.9L111.4,94.9z M111.8,98.2l-2.1-1.1c-0.1-0.1-0.2,0-0.2,0.1l0.1,2.4
					c0,0.1,0.1,0.3,0.2,0.4l2.1,1.1c0.1,0.1,0.2,0,0.2-0.1l-0.1-2.4C112,98.4,111.9,98.3,111.8,98.2 M111.6,100.4l-1.6-0.9l-0.1-1.8
					l1.6,0.9L111.6,100.4z"/>
			</g>
			<g>
				<defs>
					
						<rect id="SVGID_66_" x="100.5" y="73.4" transform="matrix(0.9996 -2.804052e-02 2.804052e-02 0.9996 -2.668 3.3384)" width="34.4" height="46.8"/>
				</defs>
				<clipPath id="SVGID_67_">
					<use xlink:href="#SVGID_66_"  style="overflow:visible;"/>
				</clipPath>
				<path class="st78" d="M127.3,94.4c0,0.1-0.1,0.2-0.2,0.1l-13.6-7.4c-0.1-0.1-0.2-0.2-0.2-0.4c0-0.1,0.1-0.2,0.2-0.1l13.6,7.4
					C127.2,94.1,127.3,94.3,127.3,94.4 M125.8,94.5c0-0.1-0.1-0.3-0.2-0.4l-12-6.5c-0.1-0.1-0.2,0-0.2,0.1s0.1,0.3,0.2,0.4l12,6.5
					C125.7,94.7,125.8,94.7,125.8,94.5 M127.5,98.9c0,0.1-0.1,0.2-0.2,0.1l-13.6-7.4c-0.1-0.1-0.2-0.2-0.2-0.4
					c0-0.1,0.1-0.2,0.2-0.1l13.6,7.4C127.4,98.6,127.5,98.7,127.5,98.9 M125.9,99c0-0.1-0.1-0.3-0.2-0.4l-12-6.5
					c-0.1-0.1-0.2,0-0.2,0.1s0.1,0.3,0.2,0.4l12,6.5C125.8,99.2,125.9,99.1,125.9,99 M127.6,103.3c0,0.1-0.1,0.2-0.2,0.1L113.8,96
					c-0.1-0.1-0.2-0.2-0.2-0.4c0-0.1,0.1-0.2,0.2-0.1l13.6,7.4C127.5,103,127.6,103.2,127.6,103.3 M126.1,103.4
					c0-0.1-0.1-0.3-0.2-0.4l-12-6.5c-0.1-0.1-0.2,0-0.2,0.1s0.1,0.3,0.2,0.4l12,6.5C126,103.6,126.1,103.6,126.1,103.4 M127.7,107.7
					c0,0.1-0.1,0.2-0.2,0.1l-13.6-7.4c-0.1-0.1-0.2-0.2-0.2-0.4c0-0.1,0.1-0.2,0.2-0.1l13.6,7.4
					C127.6,107.4,127.7,107.6,127.7,107.7 M126.2,107.9c0-0.1-0.1-0.3-0.2-0.4l-12-6.5c-0.1-0.1-0.2,0-0.2,0.1s0.1,0.3,0.2,0.4
					l12,6.5C126.1,108.1,126.2,108,126.2,107.9"/>
			</g>
			<g>
				<defs>
					
						<rect id="SVGID_68_" x="100.5" y="73.4" transform="matrix(0.9996 -2.804052e-02 2.804052e-02 0.9996 -2.668 3.3384)" width="34.4" height="46.8"/>
				</defs>
				<clipPath id="SVGID_69_">
					<use xlink:href="#SVGID_68_"  style="overflow:visible;"/>
				</clipPath>
				<path class="st79" d="M110.4,86.4l-1.6-2.7l0.3-0.2l1.3,2.1l1.6-1l0.3,0.5L110.4,86.4z M112.4,89.7l-0.3-0.5l-1.6,1l-1.3-2.1
					l-0.3,0.2l1.6,2.7L112.4,89.7z M112.6,94.2l-0.3-0.5l-1.6,1l-1.3-2.1l-0.3,0.2l1.6,2.7L112.6,94.2z"/>
			</g>
		</g>
	</g>
</g>
<g>
	<g>
		<g>
			<path class="st80" d="M81,51.9c-0.3-0.2-0.5-0.3-0.8-0.5c0-1.2,0-1.8,0-3c0-0.2-0.2-0.5-0.4-0.6c-1.7-1-2.5-1.5-4.2-2.5
				c0-1,0-1.6,0-2.6c1.7,1,2.5,1.5,4.2,2.5c0.2,0.1,0.4,0,0.4-0.2c0-1.4,0-2,0-3.4c0-0.2-0.2-0.5-0.4-0.6c-3.6-2.1-5.4-3.2-9-5.3
				c-0.2-0.1-0.4,0-0.4,0.2c0,1.4,0,2,0,3.4c0,0.2,0.2,0.5,0.4,0.6c1.7,1,2.5,1.5,4.2,2.5c0,1,0,1.6,0,2.6c-1.7-1-2.5-1.5-4.2-2.5
				c-0.2-0.1-0.4,0-0.4,0.2c0,1.2,0,1.8,0,3c-0.3-0.2-0.5-0.3-0.8-0.5c-0.2-0.1-0.4,0-0.4,0.2c0,1,0,1.5,0,2.6
				c0,0.2,0.2,0.5,0.4,0.6c1.2,0.7,1.8,1.1,3.1,1.8c0-1.3,0-2,0-3.4c-0.6-0.4-0.9-0.6-1.6-0.9c0-1,0-1.6,0-2.6
				c1.5,0.9,2.3,1.3,3.8,2.2c0,1,0,1.6,0,2.6c-0.6-0.4-0.9-0.5-1.5-0.9c0,1.3,0,2,0,3.4c1.5,0.9,2.3,1.3,3.8,2.2l0,0
				c0-1.3,0-2,0-3.4l0,0c-0.6-0.4-0.9-0.5-1.5-0.9c0-1,0-1.6,0-2.6c1.5,0.9,2.3,1.3,3.8,2.2c0,1,0,1.6,0,2.6
				c-0.6-0.4-0.9-0.6-1.6-0.9c0,1.3,0,2,0,3.4c1.2,0.7,1.8,1.1,3.1,1.8c0.2,0.1,0.4,0,0.4-0.2c0-1,0-1.5,0-2.6
				C81.4,52.3,81.2,52.1,81,51.9z"/>
		</g>
	</g>
</g>
<g>
	<g>
		<path class="st80" d="M138.2,54c1,0.4,1.8-0.2,2.3-1.6c-0.8-0.7-1.6-1.2-2.3-1.7C138.2,52.1,138.2,52.7,138.2,54z"/>
		<path class="st80" d="M139.8,54.7c0.1,0,0.1,0,0.2,0h0.1c0.1,0,0.1,0,0.2,0h0.1c0.1,0,0.1,0,0.2,0h0.1c0.1,0,0.1,0,0.2,0h0.1
			c0.1,0,0.1,0,0.2,0h0.1h0.1h0.1h0.1h0.1h0.1h0.1c0,0,0.1,0,0.1-0.1h0.1c0,0,0.1,0,0.1-0.1c0,0,0.1,0,0.1-0.1l0,0
			c-0.5-0.6-1-1.1-1.5-1.6c-0.3,0.8-0.8,1.5-1.4,1.8c0,0,0,0,0.1,0C139.7,54.7,139.7,54.7,139.8,54.7z"/>
		<path class="st80" d="M144.3,50.7c-1.1-0.6-1.6-1-2.7-1.6c0,1.2-0.2,2.3-0.5,3.3c0.6,0.5,1.2,1.1,1.7,1.8
			C143.7,53.5,144.2,52.3,144.3,50.7z"/>
		<path class="st80" d="M138.2,46.6c1.2,0.7,1.8,1,2.9,1.7c0-1.2-0.2-2.4-0.4-3.7c-0.8-0.3-1.6-0.6-2.5-1.1
			C138.2,44.8,138.2,45.4,138.2,46.6z"/>
		<path class="st80" d="M138.2,39.7c0,1.3,0,2,0,3.3c0.8,0.5,1.6,0.8,2.3,1.1C140,42.1,139.2,40.5,138.2,39.7z"/>
		<path class="st80" d="M138.2,50.2c0.8,0.5,1.7,1.1,2.5,1.8c0.3-0.9,0.4-2,0.4-3.2c-1.2-0.7-1.8-1-2.9-1.7
			C138.2,48.4,138.2,49,138.2,50.2z"/>
		<path class="st80" d="M142.8,45c-0.5,0-1.1-0.1-1.7-0.2c0.3,1.3,0.4,2.6,0.5,3.8c1.1,0.6,1.6,1,2.7,1.6
			C144.2,48.6,143.7,46.8,142.8,45z"/>
		<path class="st80" d="M142.5,44.5L142.5,44.5c-0.1-0.1-0.1-0.2-0.1-0.2c0-0.1-0.1-0.1-0.1-0.2c0-0.1-0.1-0.1-0.1-0.2
			c0-0.1-0.1-0.1-0.1-0.2c0-0.1-0.1-0.1-0.1-0.2c0-0.1-0.1-0.1-0.1-0.2c0-0.1-0.1-0.1-0.1-0.2c0-0.1-0.1-0.1-0.1-0.2
			c0-0.1-0.1-0.1-0.1-0.2c0-0.1-0.1-0.1-0.1-0.2c0-0.1-0.1-0.1-0.1-0.2c-0.1-0.1-0.1-0.1-0.2-0.2c0-0.1-0.1-0.1-0.1-0.2
			c-0.1-0.1-0.1-0.1-0.2-0.2c0-0.1-0.1-0.1-0.1-0.2c-0.1-0.1-0.1-0.1-0.2-0.2l-0.1-0.1c-0.1-0.1-0.1-0.1-0.2-0.2l-0.1-0.1
			c-0.1-0.1-0.1-0.1-0.2-0.2l-0.1-0.1c0,0,0,0-0.1,0c0.7,1.1,1.2,2.3,1.4,3.5C141.5,44.4,142.1,44.5,142.5,44.5z"/>
		<path class="st80" d="M131.7,42.8c1.1,0.6,1.6,1,2.7,1.6c0-1.2,0.2-2.3,0.5-3.3c-0.6-0.5-1.2-1.1-1.7-1.8
			C132.2,40,131.7,41.2,131.7,42.8z"/>
		<path class="st80" d="M137.8,53.8c0-1.3,0-2,0-3.3c-0.8-0.5-1.6-0.8-2.3-1.1C136,51.4,136.8,53,137.8,53.8z"/>
		<path class="st80" d="M137.8,46.9c-1.2-0.7-1.8-1-2.9-1.7c0,1.2,0.2,2.4,0.4,3.7c0.8,0.3,1.6,0.6,2.5,1.1
			C137.8,48.7,137.8,48.1,137.8,46.9z"/>
		<path class="st80" d="M137.8,39.5c-1-0.4-1.8,0.2-2.3,1.6c0.8,0.6,1.6,1.2,2.3,1.7C137.8,41.5,137.8,40.8,137.8,39.5z"/>
		<path class="st80" d="M137.8,43.3c-0.8-0.5-1.7-1.1-2.5-1.8c-0.3,0.9-0.4,2-0.4,3.2c1.2,0.7,1.8,1,2.9,1.7
			C137.8,45.1,137.8,44.5,137.8,43.3z"/>
		<path class="st80" d="M136.4,38.9L136.4,38.9c-0.1,0-0.1,0-0.2-0.1c-0.1,0-0.1,0-0.2,0h-0.1c-0.1,0-0.1,0-0.2,0h-0.1
			c-0.1,0-0.1,0-0.2,0h-0.1c-0.1,0-0.1,0-0.2,0H135c-0.1,0-0.1,0-0.2,0h-0.1h-0.1h-0.1h-0.1h-0.1h-0.1h-0.1c0,0-0.1,0-0.1,0.1h-0.1
			c0,0-0.1,0-0.1,0.1c0,0-0.1,0-0.1,0.1l0,0c0.5,0.6,1,1.1,1.5,1.6C135.3,39.9,135.7,39.2,136.4,38.9z"/>
		<path class="st80" d="M133.6,49.2c0,0.1,0.1,0.1,0.1,0.2c0,0.1,0.1,0.1,0.1,0.2c0,0.1,0.1,0.1,0.1,0.2c0,0.1,0.1,0.1,0.1,0.2
			c0,0.1,0.1,0.1,0.1,0.2c0,0.1,0.1,0.1,0.1,0.2c0,0.1,0.1,0.1,0.1,0.2c0,0.1,0.1,0.1,0.1,0.2c0,0.1,0.1,0.1,0.1,0.2
			c0,0.1,0.1,0.1,0.1,0.2c0.1,0.1,0.1,0.1,0.2,0.2c0,0.1,0.1,0.1,0.1,0.2c0.1,0.1,0.1,0.1,0.2,0.2c0,0.1,0.1,0.1,0.1,0.2
			c0.1,0.1,0.1,0.1,0.2,0.2l0.1,0.1c0.1,0.1,0.1,0.1,0.2,0.2l0.1,0.1c0.1,0.1,0.1,0.1,0.2,0.2l0.1,0.1c0,0,0,0,0.1,0
			c-0.7-1.1-1.2-2.3-1.4-3.5c-0.5-0.2-1.1-0.2-1.5-0.2l0,0C133.5,49.1,133.5,49.2,133.6,49.2z"/>
		<path class="st80" d="M133.1,48.5c0.5,0,1.1,0.1,1.7,0.2c-0.3-1.3-0.4-2.6-0.5-3.8c-1.1-0.6-1.6-1-2.7-1.6
			C131.7,44.9,132.2,46.7,133.1,48.5z"/>
	</g>
</g>
<g>
	<g>
		<path class="st80" d="M173.2,86.4c-1.6,1-1.3,4.4,0.6,6.9c0.1,0.1,0.1,0.1,0.2,0.1c0.4-0.2,0.7-0.4,1-0.8c0-0.1,0-0.2-0.1-0.3
			c-0.3-0.3-0.6-0.8-0.7-1.3l0,0c-0.2-0.5-0.3-1.1-0.2-1.5l0,0c0.1-0.6,0.7-0.8,1.2-1.1l0,0c0.7-0.4,1-0.6,1.7-1s1.8,0.3,2.5,1.5
			s0.7,2.5,0,2.9c-0.4,0.2-0.6,0.4-1.1,0.6c0,0-0.1,0.1,0,0.2c0.2,0.9,0.3,2.1,0.1,2.9c0,0,0,0.1,0,0c0.9-0.5,1.3-0.8,2.2-1.3
			c1.4-0.8,1.4-3.5,0-6c-1.5-2.6-3.9-4-5.4-3.1C174.5,85.6,174.1,85.9,173.2,86.4L173.2,86.4L173.2,86.4z"/>
		<path class="st80" d="M177.4,95.8L177.4,95.8L177.4,95.8c0.5-0.7,0.6-1.7,0.3-2.9l0,0l0,0c-0.2-1.1-0.8-2.3-1.5-3.4
			c-0.1-0.1-0.2-0.1-0.2-0.1c-0.4,0.1-0.8,0.4-1,0.8c0,0.1,0,0.2,0.1,0.3c0.3,0.4,0.6,0.8,0.7,1.3l0,0c0.1,0.3,0.3,0.9,0.2,1.4l0,0
			c-0.1,0.7-0.7,0.9-1.2,1.2l0,0c-0.4,0.2-1.3,0.8-1.7,1c-0.7,0.4-1.8-0.3-2.6-1.5c-0.7-1.2-0.7-2.5,0-2.9c0.4-0.2,0.6-0.4,1.1-0.6
			c0,0,0.1-0.1,0-0.2c-0.2-1-0.3-2.1-0.2-2.9c0,0,0-0.1,0,0c-0.9,0.5-1.3,0.8-2.2,1.3c-1.5,0.8-1.4,3.6,0,6.1
			c1.5,2.5,3.9,3.9,5.3,3.1C174.9,97.4,177.1,96.4,177.4,95.8L177.4,95.8z"/>
	</g>
</g>
</svg>
