<?xml version="1.0" encoding="iso-8859-1"?>
<!-- Generator: Adobe Illustrator 24.0.1, SVG Export Plug-In . SVG Version: 6.00 Build 0)  -->
<svg version="1.1" id="Layer_1" xmlns="http://www.w3.org/2000/svg" xmlns:xlink="http://www.w3.org/1999/xlink" x="0px" y="0px"
	 viewBox="0 0 800 800" style="enable-background:new 0 0 800 800;" xml:space="preserve">
<path style="fill:#2B2B3F;" d="M667.183,436.309l-19.026,10.985c-1.671,0.965-2.701,2.748-2.701,4.678v21.97
	c0,1.93,1.03,3.713,2.701,4.678l19.026,10.985c1.671,0.965,3.731,0.965,5.402,0l19.026-10.985c1.671-0.965,2.701-2.748,2.701-4.678
	v-21.97c0-1.93-1.03-3.713-2.701-4.678l-19.026-10.985C670.914,435.344,668.855,435.344,667.183,436.309z"/>
<path style="fill:#2B2B3F;" d="M720.319,436.309l-19.026,10.985c-1.671,0.965-2.701,2.748-2.701,4.678v21.97
	c0,1.93,1.03,3.713,2.701,4.678l19.026,10.985c1.671,0.965,3.731,0.965,5.402,0l19.026-10.985c1.671-0.965,2.701-2.748,2.701-4.678
	v-21.97c0-1.93-1.03-3.713-2.701-4.678l-19.026-10.985C724.049,435.344,721.99,435.344,720.319,436.309z"/>
<path style="fill:#2B2B3F;" d="M693.686,390.179l-19.026,10.985c-1.671,0.965-2.701,2.748-2.701,4.678v21.97
	c0,1.93,1.03,3.713,2.701,4.678l19.026,10.985c1.671,0.965,3.731,0.965,5.402,0l19.026-10.985c1.671-0.965,2.701-2.748,2.701-4.678
	v-21.97c0-1.93-1.03-3.713-2.701-4.678l-19.026-10.985C697.416,389.214,695.357,389.214,693.686,390.179z"/>
<path style="fill:#2B2B3F;" d="M751.509,395.47l-11.455,6.614c-1.216,0.702-1.964,1.999-1.964,3.402v13.228
	c0,1.404,0.749,2.7,1.964,3.402l11.455,6.614c1.216,0.702,2.713,0.702,3.929,0l11.455-6.614c1.216-0.702,1.964-1.999,1.964-3.402
	v-13.228c0-1.404-0.749-2.7-1.964-3.402l-11.455-6.614C754.222,394.768,752.724,394.768,751.509,395.47z"/>
<path style="fill:#2B2B3F;" d="M534.769,450.98H308.98c-26.553,0-48.079-21.526-48.079-48.079V168.923
	c0-26.553,21.526-48.079,48.079-48.079h225.789c26.553,0,48.079,21.526,48.079,48.079v233.978
	C582.848,429.454,561.322,450.98,534.769,450.98z"/>
<path style="fill:#64FF73;" d="M536.323,459.162H307.427c-25.695,0-46.525-20.83-46.525-46.525V196.544
	c0-25.695,20.83-46.525,46.525-46.525h228.896c25.695,0,46.525,20.83,46.525,46.525v216.094
	C582.848,438.332,562.018,459.162,536.323,459.162z"/>
<path style="fill:#151523;" d="M537.396,470.088H306.353c-26.205,0-47.448-21.243-47.448-47.448V199.943
	c0-26.205,21.243-47.448,47.448-47.448h231.043c26.205,0,47.448,21.243,47.448,47.448v222.697
	C584.844,448.844,563.601,470.088,537.396,470.088z"/>
<ellipse transform="matrix(0.9045 -0.4264 0.4264 0.9045 -53.3268 245.58)" style="fill:#64FF73;" cx="521.726" cy="241.871" rx="56.589" ry="53.452"/>
<ellipse transform="matrix(0.9045 -0.4264 0.4264 0.9045 -54.1431 245.7627)" style="fill:#151523;" cx="521.726" cy="243.785" rx="56.589" ry="53.452"/>
<ellipse transform="matrix(0.9045 -0.4264 0.4264 0.9045 -54.1431 245.7627)" style="fill:#2B2B3F;" cx="521.726" cy="243.785" rx="42.038" ry="39.708"/>
<ellipse style="fill:#2B2B3F;" cx="423.86" cy="685.367" rx="300.715" ry="47.707"/>
<path style="fill:#151523;" d="M773.255,686.821c0,18.606-54.345,35.202-139.24,45.999c77.583-10.815,126.97-27.086,126.97-45.29
	c0-32.561-157.961-58.958-352.809-58.958S55.366,654.969,55.366,687.53c0,25.402,96.189,47.07,231.046,55.34
	c-148.811-7.676-256.371-29.862-256.371-56.048c0-32.561,166.384-58.958,371.607-58.958
	C606.89,627.863,773.255,654.261,773.255,686.821z"/>
<path style="fill:#2B2B3F;" d="M397.689,644.419h-8.907c-12.524,0-22.677-10.153-22.677-22.677v-77.343
	c0-12.524,10.153-22.677,22.677-22.677h8.907c12.524,0,22.677,10.153,22.677,22.677v77.343
	C420.367,634.266,410.214,644.419,397.689,644.419z"/>
<path style="fill:#151523;" d="M372.179,658.174h-11.574c-16.275,0-29.468-13.193-29.468-29.468v-38.224
	c0-16.275,13.193-29.468,29.468-29.468h11.574c16.275,0,29.468,13.193,29.468,29.468v38.224
	C401.648,644.981,388.454,658.174,372.179,658.174z"/>
<path style="fill:#686889;" d="M401.658,477.348l-8.288,87.69l-6.719,71.094c-1.57,16.52-15.448,29.153-32.063,29.153
	c-13.342,0-24.904-8.155-29.747-19.908c-1.244-2.967-2.029-6.164-2.316-9.533l-5.073-59.188l-8.518-99.31
	c0-25.593,20.75-46.362,46.362-46.362c5.36,0,10.49,0.919,15.275,2.584c6.662,2.316,12.634,6.125,17.515,11.007
	C396.471,452.961,401.658,464.542,401.658,477.348z"/>
<path style="fill:#8D8DB5;" d="M377.501,457.938l-8.288,87.69l-6.719,71.094c-1.57,16.52-15.448,29.154-32.063,29.154
	c-1.914,0-3.771-0.172-5.589-0.498c-1.244-2.967-2.029-6.164-2.316-9.533l-5.073-59.188l-8.518-99.31
	c0-25.593,20.75-46.362,46.362-46.362c5.36,0,10.49,0.919,15.275,2.584C374.974,440.653,377.501,448.999,377.501,457.938z"/>
<path style="fill:#2B2B3F;" d="M401.649,477.348l-8.289,87.69c-5.896,17.151-22.148,29.23-41.022,29.23
	c-14.242,0-26.971-6.891-34.896-17.611l-8.518-99.31c0-25.593,20.75-46.362,46.362-46.362c12.806,0,24.387,5.187,32.791,13.591
	C396.462,452.961,401.649,464.542,401.649,477.348z"/>
<circle style="fill:#151523;" cx="591.391" cy="377.535" r="58.834"/>
<path style="fill:#2B2B3F;" d="M631.862,415.844c-2.067,1.608-4.403,3.178-7.006,4.671l-2.89,10.739
	c-6.394,3.254-21.631-11.083-33.518-31.68l-61.829-71.975l-43.319-50.421c-8.155-14.146-7.389-30.972,0.555-43.989
	c3.618-5.953,8.748-11.083,15.199-14.816c4.537-2.622,9.341-4.326,14.223-5.149c2.412-0.421,4.843-0.632,7.274-0.632
	c14.873,0,29.345,7.714,37.308,21.535l79.861,138.321C648.113,390.443,646.237,404.627,631.862,415.844z"/>
<path style="fill:#686889;" d="M631.862,415.844c-6.719-5.551-14.644-15.314-21.477-27.124l-61.829-71.975l-43.319-50.421
	c-8.155-14.146-7.389-30.972,0.555-43.989c2.029-3.35,4.537-6.413,7.485-9.112c2.412-0.421,4.843-0.632,7.274-0.632
	c14.873,0,29.345,7.714,37.308,21.535l79.861,138.321C648.113,390.443,646.237,404.627,631.862,415.844z"/>
<ellipse transform="matrix(0.6399 -0.7684 0.7684 0.6399 -223.5983 438.1601)" style="fill:#151523;" cx="355.755" cy="457.678" rx="48.976" ry="64.802"/>
<ellipse transform="matrix(0.6399 -0.7684 0.7684 0.6399 -207.2567 438.8367)" style="fill:#2B2B3F;" cx="364.647" cy="440.579" rx="34.112" ry="45.134"/>
<ellipse transform="matrix(0.7684 -0.6399 0.6399 0.7684 -168.1978 413.2102)" style="fill:#2B2B3F;" cx="486.835" cy="439.004" rx="70.718" ry="53.448"/>
<ellipse transform="matrix(0.7684 -0.6399 0.6399 0.7684 -158.5034 402.6783)" style="fill:#151523;" cx="477.13" cy="420.344" rx="49.255" ry="37.226"/>
<ellipse transform="matrix(0.4264 -0.9045 0.9045 0.4264 -34.9832 428.5722)" style="fill:#64FF73;" cx="320.442" cy="241.871" rx="53.452" ry="56.589"/>
<ellipse transform="matrix(0.4264 -0.9045 0.9045 0.4264 -36.7146 429.6701)" style="fill:#151523;" cx="320.442" cy="243.785" rx="53.452" ry="56.589"/>
<ellipse transform="matrix(0.4264 -0.9045 0.9045 0.4264 -36.7146 429.6701)" style="fill:#2B2B3F;" cx="320.442" cy="243.785" rx="39.708" ry="42.038"/>
<path style="fill:#2B2B3F;" d="M358.875,277.178l-43.319,50.421l-61.829,71.975c-11.887,20.597-27.124,34.934-33.518,31.68
	l-2.89-10.739c-12.481-7.197-18.912-15.754-19.41-25.957c-0.325-6.642,1.857-13.993,6.547-22.109l75.784-131.258l4.077-7.063
	c6.623-11.504,17.764-18.778,29.9-20.884c2.431-0.44,4.92-0.651,7.408-0.651c7.312,0,14.72,1.857,21.497,5.781
	c3.733,2.163,7.025,4.786,9.82,7.772c2.067,2.182,3.848,4.537,5.379,7.044C366.264,246.206,367.03,263.033,358.875,277.178z"/>
<path style="fill:#686889;" d="M348.29,257.405l-43.319,50.42L243.142,379.8c-11.887,20.597-27.124,34.934-33.518,31.68
	l-2.89-10.739c-3.388-1.952-6.336-4.02-8.825-6.183c-0.325-6.642,1.857-13.993,6.547-22.109l75.784-131.258l4.077-7.063
	c6.623-11.504,17.764-18.778,29.9-20.884c2.431-0.44,4.92-0.651,7.408-0.651c7.312,0,14.72,1.857,21.497,5.781
	c3.733,2.163,7.025,4.786,9.82,7.772C355.315,236.406,353.975,247.546,348.29,257.405z"/>
<circle style="fill:#151523;" cx="236.299" cy="394.911" r="58.834"/>
<circle style="fill:#64FF73;" cx="228.894" cy="403.744" r="56.611"/>
<circle style="fill:#64FF73;" cx="600.969" cy="392.997" r="58.834"/>
<circle style="fill:#2B2B3F;" cx="228.894" cy="405.658" r="56.611"/>
<circle style="fill:#151523;" cx="228.894" cy="405.658" r="36.853"/>
<path style="fill:#151523;" d="M289.966,283.695c0,13.936,5.647,26.55,14.797,35.7c3.197,3.197,6.834,5.972,10.796,8.212
	l43.319-50.421c8.155-14.146,7.389-30.972-0.555-43.989h-17.879C312.573,233.198,289.966,255.805,289.966,283.695z"/>
<path style="fill:#686889;" d="M379.922,567.42c-17.515,16.079-44.754,14.912-60.834-2.584l-99.444-125.592
	c-9.571-10.433-16.079-21.497-16.079-32.121c0-7.236,3.005-14.261,10.088-20.769c1.895-1.723,3.828-3.197,5.838-4.384
	c16.501-9.935,36.159-2.163,50.497,13.457l112.518,111.178c4.843,5.264,8.116,11.409,9.858,17.86
	C396.423,539.473,392.173,556.184,379.922,567.42z"/>
<path style="fill:#8D8DB5;" d="M392.365,524.465c-0.402,0.402-0.823,0.804-1.244,1.187c-17.515,16.079-44.735,14.912-60.815-2.603
	l-99.463-125.592c-4.632-5.054-8.557-10.26-11.351-15.486c16.501-9.935,36.159-2.163,50.497,13.457l112.518,111.178
	C387.35,511.87,390.623,518.014,392.365,524.465z"/>
<ellipse transform="matrix(0.7119 -0.7023 0.7023 0.7119 -277.1604 403.6041)" style="fill:#2B2B3F;" cx="353.29" cy="539.576" rx="37.006" ry="32.071"/>
<path style="fill:#2B2B3F;" d="M375.827,562.397c-2.22,2.182-4.613,4.077-7.102,5.647c-3.484,2.221-7.197,3.828-10.949,4.843
	c-11.236,3.044-22.932,0.689-30.838-7.312c-2.68-2.737-4.709-5.896-6.068-9.322c-5.034-12.404-1.512-28.273,9.896-39.529
	c11.39-11.236,27.297-14.529,39.643-9.361c3.407,1.417,6.547,3.503,9.227,6.221C392.078,526.18,390.355,548.059,375.827,562.397z"/>
<path style="fill:#B7B7E5;" d="M319.368,565.115c0.444,0.45,0.901,0.886,1.358,1.295c-2.404-2.764-4.292-5.876-5.623-9.215
	c-5.698-14.089-1.692-32.132,11.267-44.917c12.959-12.785,31.041-16.535,45.065-10.661c3.32,1.376,6.407,3.305,9.125,5.76
	c-0.403-0.463-0.833-0.926-1.277-1.376c-3.065-3.107-6.623-5.459-10.497-7.069c-14.038-5.888-32.12-2.138-45.078,10.647
	s-16.965,30.829-11.253,44.931C314.012,558.405,316.303,562.008,319.368,565.115z"/>
<ellipse transform="matrix(0.7119 -0.7023 0.7023 0.7119 -273.9074 395.9881)" style="fill:#151523;" cx="345.635" cy="531.804" rx="34.8" ry="21.171"/>
<path style="fill:#151523;" d="M446.803,470.768h-64.924c-23.965,0-44.265-17.661-47.582-41.395l-23.578-168.72
	c-4.038-28.897,18.404-54.694,47.582-54.694h110.758c29.03,0,51.428,25.547,47.632,54.327l-22.256,168.72
	C491.283,452.905,470.909,470.768,446.803,470.768z"/>
<path style="fill:#151523;" d="M491.843,529.188h-21.282c-29.925,0-54.184-24.259-54.184-54.184v-36.729
	c0-29.925,24.259-54.184,54.184-54.184h21.282c29.925,0,54.184,24.259,54.184,54.184v36.729
	C546.027,504.929,521.768,529.188,491.843,529.188z"/>
<circle style="fill:#2B2B3F;" cx="600.969" cy="394.911" r="58.834"/>
<circle style="fill:#151523;" cx="600.969" cy="394.911" r="41.9"/>
<path style="fill:#2B2B3F;" d="M477.509,374.314c0,1.091-0.172,2.144-0.479,3.139v0.019c-0.517,1.608-1.397,3.024-2.565,4.192
	c-0.842,0.842-1.818,1.531-2.891,2.029c-1.34,0.651-2.852,1.015-4.441,1.015H365.279c-0.096,0-0.191,0-0.287-0.019
	c-5.609-0.134-10.107-4.728-10.107-10.375c0-2.871,1.168-5.475,3.044-7.351c0.498-0.498,1.034-0.938,1.608-1.321h0.019
	c1.646-1.091,3.599-1.723,5.723-1.723h101.856C472.858,363.92,477.509,368.571,477.509,374.314z"/>
<path style="fill:#151523;" d="M552.202,283.695c0,13.936-5.647,26.55-14.797,35.7c-3.197,3.197-6.834,5.972-10.796,8.212
	l-43.319-50.421c-8.155-14.146-7.389-30.972,0.555-43.989h17.879C529.595,233.198,552.202,255.805,552.202,283.695z"/>
<path style="fill:#2B2B3F;" d="M456.261,399.582c0,0.713-0.113,1.401-0.313,2.051c-0.338,1.051-0.913,1.989-1.676,2.752
	c-1.226,1.226-2.927,1.989-4.791,1.989h-66.557c-3.753,0-6.792-3.04-6.792-6.792c0-1.876,0.763-3.577,1.989-4.803
	c0.325-0.325,0.676-0.613,1.051-0.851c1.076-0.725,2.364-1.138,3.753-1.138h66.557C453.222,392.79,456.261,395.829,456.261,399.582z
	"/>
<path style="fill:#686889;" d="M531.93,276.306c0,2.929-0.249,5.8-0.727,8.576c-1.799,10.509-6.834,19.908-14.05,27.124
	c-9.15,9.15-21.765,14.797-35.7,14.797H352.185c-24.961,0-45.692-18.109-49.75-41.921c-0.479-2.776-0.727-5.647-0.727-8.576
	c0-13.936,5.647-26.55,14.778-35.7c9.131-9.131,21.765-14.778,35.7-14.778h129.267C509.323,225.828,531.93,248.435,531.93,276.306z"
	/>
<path style="fill:#2B2B3F;" d="M531.93,293.457c0,13.936-5.647,26.55-14.778,35.7c-9.15,9.131-21.765,14.778-35.7,14.778H352.185
	c-27.89,0-50.478-22.607-50.478-50.478c0-2.929,0.249-5.8,0.727-8.576c4.058,23.813,24.789,41.921,49.75,41.921h129.267
	c13.935,0,26.55-5.647,35.7-14.797c7.216-7.217,12.251-16.615,14.05-27.124C531.682,287.657,531.93,290.529,531.93,293.457z"/>
<path style="fill:#686889;" d="M611.227,609.621c-23.755,0.842-43.702-17.726-44.563-41.481l0.536-41.979l0.134-9.686l0.498-38.916
	l0.115-9.456l0.746-58.135c-0.861-23.755,9.954-45.156,33.728-46.018c0.517-0.019,1.015-0.019,1.512-0.019
	c22.588,0,30.532,18.625,31.374,41.864l6.183,56.508l1.034,9.59l4.384,40.065l1.091,10.03l4.709,43.07
	C653.569,588.813,635.001,608.759,611.227,609.621z"/>
<path style="fill:#151523;" d="M423.999,269.265h-11.613c-16.329,0-29.567-13.238-29.567-29.567v-52.705
	c0-16.329,13.238-29.567,29.567-29.567h11.613c16.329,0,29.567,13.238,29.567,29.567v52.705
	C453.565,256.028,440.328,269.265,423.999,269.265z"/>
<path style="fill:#686889;" d="M453.562,181.323v41.079c0,19.544-15.831,35.375-35.375,35.375
	c-19.525,0-35.375-15.831-35.375-35.375v-41.079c0-8.021,2.661-15.429,7.178-21.344c6.451-8.518,16.673-14.031,28.197-14.031
	c9.762,0,18.606,3.962,25.019,10.356c1.244,1.244,2.393,2.584,3.446,4.001C450.997,166.181,453.562,173.436,453.562,181.323z"/>
<path style="fill:#2B2B3F;" d="M538.535,477.865l-18.549,196.399c-1.933,20.444-19.104,36.064-39.663,36.064
	c-0.708,0-1.417-0.019-2.125-0.057c-19.716-1.034-35.834-16.462-37.538-36.37l-16.807-196.035c0-31.661,25.67-57.331,57.35-57.331
	c11.122,0,21.497,3.159,30.283,8.652c3.733,2.316,7.178,5.053,10.26,8.135C532.122,447.697,538.535,462.034,538.535,477.865z"/>
<path style="fill:#686889;" d="M538.535,477.865l-18.549,196.399c-1.933,20.444-19.104,36.064-39.663,36.064
	c-0.708,0-1.417-0.019-2.125-0.057c-8.71-6.585-14.644-16.692-15.639-28.33l-16.807-196.035c0-31.661,25.689-57.35,57.35-57.35
	c2.852,0,5.647,0.211,8.384,0.632c3.733,2.316,7.178,5.053,10.26,8.135C532.122,447.697,538.535,462.034,538.535,477.865z"/>
<path style="fill:#151523;" d="M487.54,623.239h-16.684c-23.459,0-42.476,19.017-42.476,42.476v33.187
	c0,6.312,5.117,11.429,11.429,11.429h78.778c6.312,0,11.429-5.117,11.429-11.429v-33.187
	C530.016,642.256,510.999,623.239,487.54,623.239z"/>
<path style="fill:#686889;" d="M507.087,662.382h-55.358c-3.487,0-6.314-2.827-6.314-6.314v-2.48c0-3.487,2.827-6.314,6.314-6.314
	h55.358c3.487,0,6.314,2.827,6.314,6.314v2.48C513.401,659.556,510.574,662.382,507.087,662.382z"/>
<path style="fill:#686889;" d="M507.087,681.893h-55.358c-3.487,0-6.314-2.827-6.314-6.314v-2.48c0-3.487,2.827-6.314,6.314-6.314
	h55.358c3.487,0,6.314,2.827,6.314,6.314v2.48C513.401,679.066,510.574,681.893,507.087,681.893z"/>
<path style="fill:#686889;" d="M519.553,708.937h-80.291c-3.421,0-6.194-2.773-6.194-6.194v-2.433c0-3.421,2.773-6.194,6.194-6.194
	h80.291c3.421,0,6.194,2.773,6.194,6.194v2.433C525.747,706.163,522.974,708.937,519.553,708.937z"/>
<ellipse style="fill:#2B2B3F;" cx="610.633" cy="571.094" rx="37.006" ry="32.071"/>
<path style="fill:#2B2B3F;" d="M647.645,571.096c0,17.706-16.577,32.063-37.021,32.063c-20.425,0-37.002-14.357-37.002-32.063
	c0-3.828,0.766-7.504,2.201-10.911c5.149-12.347,18.798-21.171,34.8-21.171c16.022,0,29.67,8.825,34.8,21.171
	C646.86,563.592,647.645,567.267,647.645,571.096z"/>
<path style="fill:#B7B7E5;" d="M652.717,565.449c0,0.632-0.019,1.263-0.057,1.876c-0.23-3.656-1.072-7.197-2.469-10.509
	c-5.839-14.031-21.363-24.062-39.567-24.062s-33.709,10.031-39.567,24.062c-1.397,3.312-2.24,6.853-2.45,10.509
	c-0.038-0.613-0.057-1.244-0.057-1.876c0-4.365,0.881-8.537,2.508-12.404c5.857-14.05,21.363-24.081,39.567-24.081
	s33.728,10.03,39.567,24.081C651.818,556.911,652.717,561.084,652.717,565.449z"/>
<path style="fill:#151523;" d="M645.425,560.176c-5.13,12.347-18.778,21.171-34.8,21.171c-16.003,0-29.651-8.825-34.8-21.171
	c0.88-2.106,2.029-4.135,3.388-6.011c6.508-9.112,18.147-15.161,31.412-15.161s24.923,6.049,31.431,15.161
	C643.415,556.042,644.544,558.071,645.425,560.176z"/>
<path style="fill:#F15A24;" d="M638.99,554.165c-5.891,8.205-16.394,13.664-28.365,13.664c-11.954,0-22.457-5.459-28.348-13.664
	c1.607-2.246,3.541-4.267,5.77-6.029c5.925-4.768,13.872-7.653,22.578-7.653s16.635,2.885,22.578,7.653
	C635.432,549.881,637.384,551.919,638.99,554.165z"/>
<path style="fill:#FBB03B;" d="M633.203,548.136c-5.942,4.75-13.871,7.635-22.578,7.635s-16.635-2.885-22.578-7.635
	c5.925-4.768,13.872-7.653,22.578-7.653S627.261,543.368,633.203,548.136z"/>
<path style="fill:#F15A24;" d="M366.695,507.609c0.89,10.851-3.925,22.667-13.757,31.023c-9.818,8.345-22.255,11.193-32.821,8.567
	c-0.248-2.966-0.07-5.977,0.53-8.979c1.538-8.052,6.051-15.969,13.201-22.046s15.677-9.244,23.885-9.476
	C360.782,506.575,363.808,506.886,366.695,507.609z"/>
<path style="fill:#FBB03B;" d="M357.734,506.697c-1.564,8.05-6.063,15.954-13.213,22.032c-7.151,6.078-15.677,9.244-23.873,9.49
	c1.538-8.052,6.051-15.969,13.201-22.046S349.525,506.93,357.734,506.697z"/>
<path style="fill:#2B2B3F;" d="M497.276,641.437H459.45c-4.532,0-8.206-3.674-8.206-8.206v-16.394c0-4.532,3.674-8.206,8.206-8.206
	h37.826c4.532,0,8.206,3.674,8.206,8.206v16.394C505.482,637.763,501.808,641.437,497.276,641.437z"/>
<path style="fill:#2B2B3F;" d="M477.509,349.046c0,1.091-0.172,2.144-0.479,3.139v0.019c-0.517,1.608-1.397,3.025-2.565,4.192
	c-0.842,0.842-1.838,1.551-2.929,2.048c-1.34,0.651-2.833,0.995-4.403,0.995H365.279c-0.077,0-0.172,0-0.249-0.019
	c-5.628-0.115-10.145-4.709-10.145-10.375c0-2.871,1.168-5.475,3.044-7.351c0.498-0.498,1.034-0.938,1.608-1.321h0.019
	c1.646-1.091,3.599-1.723,5.723-1.723h101.856C472.858,338.652,477.509,343.304,477.509,349.046z"/>
<path style="fill:#686889;" d="M477.509,374.314c0,1.091-0.172,2.144-0.479,3.139v0.019c-1.646,1.091-3.618,1.723-5.743,1.723
	H369.432c-5.724,0-10.375-4.652-10.375-10.394c0-1.11,0.172-2.163,0.479-3.159h0.019c1.646-1.091,3.599-1.723,5.723-1.723h101.856
	C472.858,363.92,477.509,368.571,477.509,374.314z"/>
<path style="fill:#686889;" d="M456.261,399.582c0,0.713-0.113,1.401-0.313,2.051c-1.076,0.725-2.364,1.138-3.753,1.138h-66.557
	c-3.74,0-6.78-3.04-6.78-6.792c0-0.713,0.113-1.401,0.313-2.051c1.076-0.725,2.364-1.138,3.753-1.138h66.557
	C453.222,392.79,456.261,395.829,456.261,399.582z"/>
<path style="fill:#686889;" d="M477.509,349.046c0,1.091-0.172,2.144-0.479,3.139v0.019c-1.646,1.091-3.618,1.723-5.743,1.723
	H369.432c-5.724,0-10.375-4.652-10.375-10.394c0-1.091,0.172-2.163,0.479-3.159h0.019c1.646-1.091,3.599-1.723,5.723-1.723h101.856
	C472.858,338.652,477.509,343.304,477.509,349.046z"/>
<path style="fill:#B7B7E5;" d="M467.173,344.878h-60.468c-0.705,0-1.276-0.571-1.276-1.276v-0.501c0-0.705,0.571-1.276,1.276-1.276
	h60.468c0.705,0,1.276,0.571,1.276,1.276v0.501C468.448,344.307,467.877,344.878,467.173,344.878z"/>
<path style="fill:#B7B7E5;" d="M467.173,370.332h-60.468c-0.705,0-1.276-0.571-1.276-1.276v-0.501c0-0.705,0.571-1.276,1.276-1.276
	h60.468c0.705,0,1.276,0.571,1.276,1.276v0.501C468.448,369.761,467.877,370.332,467.173,370.332z"/>
<path style="fill:#B7B7E5;" d="M449.507,397.527h-39.513c-0.46,0-0.834-0.373-0.834-0.834v-0.327c0-0.46,0.373-0.834,0.834-0.834
	h39.513c0.46,0,0.834,0.373,0.834,0.834v0.327C450.341,397.154,449.967,397.527,449.507,397.527z"/>
<path style="fill:#2B2B3F;" d="M500.633,261.574h-27.538c-2.566,0-4.646-2.08-4.646-4.646v-9.051c0-2.566,2.08-4.646,4.646-4.646
	h27.538c2.566,0,4.646,2.08,4.646,4.646v9.051C505.279,259.493,503.199,261.574,500.633,261.574z"/>
<path style="fill:#B7B7E5;" d="M500.633,259.659h-27.538c-2.566,0-4.646-2.08-4.646-4.646v-9.051c0-2.566,2.08-4.646,4.646-4.646
	h27.538c2.566,0,4.646,2.08,4.646,4.646v9.051C505.279,257.579,503.199,259.659,500.633,259.659z"/>
<path style="fill:#2B2B3F;" d="M472.277,254.385v-7.795c0-0.799,0.647-1.446,1.446-1.446h26.281c0.799,0,1.446,0.647,1.446,1.446
	v7.795c0,0.799-0.647,1.446-1.446,1.446h-26.281C472.924,255.831,472.277,255.184,472.277,254.385z"/>
<path style="fill:#686889;" d="M472.277,254.514v-6.236c0-0.728,0.59-1.317,1.318-1.317h26.538c0.728,0,1.318,0.59,1.318,1.317
	v6.236c0,0.728-0.59,1.317-1.318,1.317h-26.538C472.867,255.831,472.277,255.241,472.277,254.514z"/>
<path style="fill:#64FF73;" d="M503.444,267.164h-33.161c-1.013,0-1.835-0.821-1.835-1.835v-0.721c0-1.013,0.821-1.835,1.835-1.835
	h33.161c1.013,0,1.835,0.821,1.835,1.835v0.721C505.279,266.342,504.458,267.164,503.444,267.164z"/>
<g>
	<path style="fill:#64FF73;" d="M474.627,274.466h-4.421c-0.405,0-0.734-0.328-0.734-0.734v-2.923c0-0.405,0.328-0.734,0.734-0.734
		h4.421c0.405,0,0.734,0.328,0.734,0.734v2.923C475.36,274.137,475.032,274.466,474.627,274.466z"/>
	<path style="fill:#FBB03B;" d="M481.851,274.466h-4.421c-0.405,0-0.734-0.328-0.734-0.734v-2.923c0-0.405,0.328-0.734,0.734-0.734
		h4.421c0.405,0,0.734,0.328,0.734,0.734v2.923C482.584,274.137,482.256,274.466,481.851,274.466z"/>
	<path style="fill:#64FF73;" d="M489.074,274.466h-4.421c-0.405,0-0.734-0.328-0.734-0.734v-2.923c0-0.405,0.328-0.734,0.734-0.734
		h4.421c0.405,0,0.734,0.328,0.734,0.734v2.923C489.808,274.137,489.48,274.466,489.074,274.466z"/>
	<path style="fill:#64FF73;" d="M496.298,274.466h-4.421c-0.405,0-0.734-0.328-0.734-0.734v-2.923c0-0.405,0.328-0.734,0.734-0.734
		h4.421c0.405,0,0.734,0.328,0.734,0.734v2.923C497.032,274.137,496.704,274.466,496.298,274.466z"/>
	<path style="fill:#64FF73;" d="M503.522,274.466h-4.421c-0.405,0-0.734-0.328-0.734-0.734v-2.923c0-0.405,0.328-0.734,0.734-0.734
		h4.421c0.405,0,0.734,0.328,0.734,0.734v2.923C504.256,274.137,503.927,274.466,503.522,274.466z"/>
</g>
<path style="fill:#2B2B3F;" d="M446.652,160.305c-0.498,0.88-1.053,1.723-1.665,2.527c-0.077,0.115-0.172,0.23-0.268,0.345
	c-0.593,0.766-1.225,1.474-1.914,2.163c-0.172,0.172-0.345,0.325-0.517,0.498c-0.077,0.077-0.172,0.172-0.268,0.249
	c-4.307,3.943-10.05,6.355-16.348,6.355h-14.491c-6.451,0-12.289-2.508-16.635-6.623c-0.096-0.077-0.172-0.153-0.268-0.268
	c-0.861-0.823-1.665-1.742-2.393-2.699c-0.115-0.134-0.211-0.249-0.268-0.383c-0.613-0.804-1.149-1.627-1.627-2.489
	c6.451-8.518,16.673-14.031,28.197-14.031c0.383,0,0.785,0,1.168,0.019c8.614,0.287,16.462,3.656,22.473,9.035
	c0.479,0.421,0.938,0.861,1.378,1.302C444.451,157.548,445.599,158.888,446.652,160.305z"/>
<path style="fill:#2B2B3F;" d="M449.887,199.948h-0.115c0.077,0.727,0.115,1.474,0.115,2.24c0,10.873-7.159,20.08-17.037,23.124
	c-2.259,0.708-4.671,1.091-7.178,1.091h-14.491c-13.38,0-24.215-10.835-24.215-24.215c0-0.766,0.038-1.512,0.115-2.24h-0.115
	v-22.837h0.096c1.034,12.423,11.428,22.186,24.119,22.186h14.491c2.508,0,4.92-0.383,7.178-1.091
	c3.809-1.168,7.217-3.273,9.954-6.011c3.924-3.924,6.508-9.207,6.987-15.084h0.096V199.948z"/>
<path style="fill:#151523;" d="M432.85,198.206v27.105c-2.259,0.708-4.671,1.091-7.178,1.091h-1.512v-27.105h1.512
	C428.18,199.297,430.592,198.914,432.85,198.206z"/>
<ellipse transform="matrix(0.866 -0.5 0.5 0.866 -23.7826 221.7642)" style="fill:#B7B7E5;" cx="401.926" cy="155.261" rx="6.959" ry="4.369"/>
<ellipse transform="matrix(0.866 -0.5 0.5 0.866 -24.7754 225.6772)" style="fill:#B7B7E5;" cx="408.732" cy="159.07" rx="4.113" ry="2.582"/>
<ellipse transform="matrix(0.866 -0.5 0.5 0.866 -71.0894 181.1344)" style="fill:#B7B7E5;" cx="302.457" cy="223.222" rx="8.456" ry="5.308"/>
<ellipse transform="matrix(0.866 -0.5 0.5 0.866 -72.2175 184.8637)" style="fill:#B7B7E5;" cx="308.852" cy="227.192" rx="3.185" ry="1.999"/>
<circle style="fill:#8D8DB5;" cx="334.048" cy="262.774" r="23.438"/>
<circle style="fill:#8D8DB5;" cx="363.009" cy="278.957" r="7.254"/>
<line style="fill:none;stroke:#B7B7E5;stroke-width:2;stroke-linecap:round;stroke-miterlimit:10;" x1="257.742" y1="394.911" x2="349.287" y2="486.787"/>
<line style="fill:none;stroke:#B7B7E5;stroke-width:2;stroke-linecap:round;stroke-miterlimit:10;" x1="624.426" y1="389.187" x2="640.279" y2="539.576"/>
<path style="fill:#515170;" d="M647.999,521.988c-9.896-8.805-23.411-14.203-38.303-14.203c-17.132,0-32.427,7.159-42.496,18.376
	l0.134-9.686c10.528-10.432,25.612-16.979,42.362-16.979c14.184,0,27.182,4.671,37.212,12.462L647.999,521.988z"/>
<path style="fill:#515170;" d="M642.524,471.893c-9.341-6.757-21.152-10.777-33.997-10.777c-16.137,0-30.627,6.336-40.696,16.443
	l0.115-9.456c10.413-9.456,24.751-15.275,40.581-15.275c12.27,0,23.641,3.503,32.963,9.475L642.524,471.893z"/>
<line style="fill:none;stroke:#B7B7E5;stroke-width:2;stroke-linecap:round;stroke-miterlimit:10;" x1="552.202" y1="243.785" x2="591.391" y2="310.47"/>
<line style="fill:none;stroke:#B7B7E5;stroke-width:2;stroke-linecap:round;stroke-miterlimit:10;" x1="285.505" y1="247.971" x2="236.299" y2="330.585"/>
<path style="fill:#2B2B3F;" d="M492.35,529.188h-23.36c-10.478,0-19.397-7.625-21.028-17.975l-10.998-69.823
	c-2.035-12.918,7.95-24.599,21.028-24.599h45.356c13.077,0,23.062,11.681,21.028,24.599l-10.998,69.823
	C511.747,521.563,502.828,529.188,492.35,529.188z"/>
<path style="fill:#B7B7E5;" d="M490.561,511.972h-19.782c-8.873,0-16.426-6.457-17.807-15.222l-9.314-59.128
	c-1.723-10.939,6.733-20.831,17.807-20.831h38.409c11.074,0,19.53,9.892,17.807,20.831l-9.314,59.128
	C506.987,505.516,499.434,511.972,490.561,511.972z"/>
<path style="fill:#151523;" d="M505.342,446.557l-0.249,1.531l-5.972,37.863c-0.919,5.838-5.953,10.145-11.868,10.145h-13.17
	c-5.915,0-10.949-4.307-11.868-10.145l-5.953-37.882l-0.249-1.512c-1.149-7.293,4.479-13.878,11.868-13.878h25.593
	C500.844,432.678,506.49,439.263,505.342,446.557z"/>
<path style="fill:#2B2B3F;" d="M505.093,448.088l-5.972,37.863c-0.919,5.838-5.953,10.145-11.868,10.145h-13.17
	c-5.915,0-10.949-4.307-11.868-10.145l-5.953-37.882c1.283-5.13,5.934-9.016,11.619-9.016h25.593
	C499.14,439.053,503.811,442.958,505.093,448.088z"/>
<g>
	<path style="fill:#151523;" d="M496.716,550.058H465.66c-2.575,0-4.662-2.087-4.662-4.662v-1.831c0-2.575,2.087-4.662,4.662-4.662
		h31.056c2.575,0,4.662,2.087,4.662,4.662v1.831C501.379,547.971,499.291,550.058,496.716,550.058z"/>
	<path style="fill:#2B2B3F;" d="M496.716,548.144H465.66c-2.575,0-4.662-2.087-4.662-4.662v-1.831c0-2.575,2.087-4.662,4.662-4.662
		h31.056c2.575,0,4.662,2.087,4.662,4.662v1.831C501.379,546.057,499.291,548.144,496.716,548.144z"/>
</g>
<g>
	<path style="fill:#151523;" d="M496.716,566.837H465.66c-2.575,0-4.662-2.087-4.662-4.662v-1.831c0-2.575,2.087-4.662,4.662-4.662
		h31.056c2.575,0,4.662,2.087,4.662,4.662v1.831C501.379,564.749,499.291,566.837,496.716,566.837z"/>
	<path style="fill:#2B2B3F;" d="M496.716,564.923H465.66c-2.575,0-4.662-2.087-4.662-4.662v-1.831c0-2.575,2.087-4.662,4.662-4.662
		h31.056c2.575,0,4.662,2.087,4.662,4.662v1.831C501.379,562.835,499.291,564.923,496.716,564.923z"/>
</g>
<g>
	<path style="fill:#151523;" d="M496.716,583.615H465.66c-2.575,0-4.662-2.087-4.662-4.662v-1.831c0-2.575,2.087-4.662,4.662-4.662
		h31.056c2.575,0,4.662,2.087,4.662,4.662v1.831C501.379,581.528,499.291,583.615,496.716,583.615z"/>
	<path style="fill:#2B2B3F;" d="M496.716,581.701H465.66c-2.575,0-4.662-2.087-4.662-4.662v-1.831c0-2.575,2.087-4.662,4.662-4.662
		h31.056c2.575,0,4.662,2.087,4.662,4.662v1.831C501.379,579.614,499.291,581.701,496.716,581.701z"/>
</g>
<g>
	<path style="fill:#151523;" d="M496.716,600.394H465.66c-2.575,0-4.662-2.087-4.662-4.662V593.9c0-2.575,2.087-4.662,4.662-4.662
		h31.056c2.575,0,4.662,2.087,4.662,4.662v1.831C501.379,598.307,499.291,600.394,496.716,600.394z"/>
	<path style="fill:#2B2B3F;" d="M496.716,598.48H465.66c-2.575,0-4.662-2.087-4.662-4.662v-1.831c0-2.575,2.087-4.662,4.662-4.662
		h31.056c2.575,0,4.662,2.087,4.662,4.662v1.831C501.379,596.392,499.291,598.48,496.716,598.48z"/>
</g>
<ellipse style="fill:#151523;" cx="639.016" cy="701.357" rx="56.168" ry="15.99"/>
<path style="fill:#151523;" d="M661.132,555.523c2.296-5.51,3.532-11.48,3.532-17.714c0-27.71-24.602-50.175-54.961-50.175
	s-54.961,22.465-54.961,50.175c0,6.234,1.236,12.204,3.532,17.714c-3.938-7.1-6.146-15.135-6.146-23.63
	c0-29.017,25.785-52.541,57.575-52.541s57.575,23.524,57.575,52.541C667.278,540.388,665.071,548.424,661.132,555.523z"/>
<path style="fill:#151523;" d="M659.947,508.853c2.296-5.51,3.532-11.48,3.532-17.714c0-27.71-24.602-50.175-54.961-50.175
	s-54.961,22.465-54.961,50.175c0,6.234,1.236,12.204,3.532,17.714c-3.938-7.1-6.146-15.135-6.146-23.63
	c0-29.017,25.785-52.541,57.575-52.541s57.575,23.524,57.575,52.541C666.093,493.718,663.885,501.754,659.947,508.853z"/>
<polygon style="fill:#F15A24;" points="364.226,562.646 357.737,562.646 357.737,572.848 335.781,546.471 344.625,539.101 "/>
<path style="fill:#F15A24;" d="M368.725,568.044c-3.484,2.221-7.197,3.828-10.949,4.843l-0.038-0.038v-10.203h6.489L368.725,568.044
	z"/>
<path style="fill:#2B2B3F;" d="M363.228,579.472v32.523c0,3.034-2.46,5.494-5.494,5.494h0c-3.034,0-5.494-2.46-5.494-5.494v-27.718
	l0.038,0.038C356.03,583.3,359.744,581.692,363.228,579.472z"/>
<path style="fill:#FF9343;" d="M368.725,568.044v32.523c0,3.034-2.46,5.494-5.494,5.494l0,0c-3.034,0-5.494-2.46-5.494-5.494
	v-27.718l0.038,0.038C361.527,571.872,365.241,570.264,368.725,568.044z"/>
<g style="opacity:0.56;">
	<ellipse cx="609.866" cy="554.559" rx="58.923" ry="39.045"/>
	<ellipse style="fill:#020201;" cx="609.866" cy="554.559" rx="58.48" ry="38.752"/>
	<ellipse style="fill:#050301;" cx="609.866" cy="554.559" rx="58.038" ry="38.459"/>
	<ellipse style="fill:#070502;" cx="609.866" cy="554.559" rx="57.595" ry="38.166"/>
	<ellipse style="fill:#0A0702;" cx="609.866" cy="554.559" rx="57.153" ry="37.872"/>
	<ellipse style="fill:#0C0903;" cx="609.866" cy="554.559" rx="56.71" ry="37.579"/>
	<ellipse style="fill:#0F0A04;" cx="609.866" cy="554.559" rx="56.268" ry="37.286"/>
	<ellipse style="fill:#110C04;" cx="609.866" cy="554.559" rx="55.825" ry="36.993"/>
	<ellipse style="fill:#140E05;" cx="609.866" cy="554.559" rx="55.382" ry="36.699"/>
	<ellipse style="fill:#161005;" cx="609.866" cy="554.559" rx="54.94" ry="36.406"/>
	<ellipse style="fill:#191106;" cx="609.866" cy="554.559" rx="54.497" ry="36.113"/>
	<ellipse style="fill:#1B1306;" cx="609.866" cy="554.559" rx="54.055" ry="35.819"/>
	<ellipse style="fill:#1E1507;" cx="609.866" cy="554.559" rx="53.612" ry="35.526"/>
	<ellipse style="fill:#201708;" cx="609.866" cy="554.559" rx="53.17" ry="35.233"/>
	<ellipse style="fill:#231808;" cx="609.866" cy="554.559" rx="52.727" ry="34.94"/>
	<ellipse style="fill:#251A09;" cx="609.866" cy="554.559" rx="52.284" ry="34.646"/>
	<ellipse style="fill:#281C09;" cx="609.866" cy="554.559" rx="51.842" ry="34.353"/>
	<ellipse style="fill:#2A1E0A;" cx="609.866" cy="554.559" rx="51.399" ry="34.06"/>
	<ellipse style="fill:#2D1F0B;" cx="609.866" cy="554.559" rx="50.957" ry="33.766"/>
	<ellipse style="fill:#2F210B;" cx="609.866" cy="554.559" rx="50.514" ry="33.473"/>
	<ellipse style="fill:#32230C;" cx="609.866" cy="554.559" rx="50.071" ry="33.18"/>
	<ellipse style="fill:#34250C;" cx="609.866" cy="554.559" rx="49.629" ry="32.887"/>
	<ellipse style="fill:#37260D;" cx="609.866" cy="554.559" rx="49.186" ry="32.593"/>
	<ellipse style="fill:#39280D;" cx="609.866" cy="554.559" rx="48.744" ry="32.3"/>
	<ellipse style="fill:#3C2A0E;" cx="609.866" cy="554.559" rx="48.301" ry="32.007"/>
	<ellipse style="fill:#3E2C0F;" cx="609.866" cy="554.559" rx="47.859" ry="31.714"/>
	<ellipse style="fill:#412D0F;" cx="609.866" cy="554.559" rx="47.416" ry="31.42"/>
	<ellipse style="fill:#432F10;" cx="609.866" cy="554.559" rx="46.973" ry="31.127"/>
	<ellipse style="fill:#463110;" cx="609.866" cy="554.559" rx="46.531" ry="30.834"/>
	<ellipse style="fill:#483311;" cx="609.866" cy="554.559" rx="46.088" ry="30.54"/>
	<ellipse style="fill:#4B3412;" cx="609.866" cy="554.559" rx="45.646" ry="30.247"/>
	<ellipse style="fill:#4D3612;" cx="609.866" cy="554.559" rx="45.203" ry="29.954"/>
	<ellipse style="fill:#503813;" cx="609.866" cy="554.559" rx="44.761" ry="29.661"/>
	<ellipse style="fill:#523A13;" cx="609.866" cy="554.559" rx="44.318" ry="29.367"/>
	<ellipse style="fill:#543B14;" cx="609.866" cy="554.559" rx="43.875" ry="29.074"/>
	<ellipse style="fill:#573D14;" cx="609.866" cy="554.559" rx="43.433" ry="28.781"/>
	<ellipse style="fill:#593F15;" cx="609.866" cy="554.559" rx="42.99" ry="28.488"/>
	<ellipse style="fill:#5C4016;" cx="609.866" cy="554.559" rx="42.548" ry="28.194"/>
	<ellipse style="fill:#5E4216;" cx="609.866" cy="554.559" rx="42.105" ry="27.901"/>
	<ellipse style="fill:#614417;" cx="609.866" cy="554.559" rx="41.663" ry="27.608"/>
	<ellipse style="fill:#634617;" cx="609.866" cy="554.559" rx="41.22" ry="27.314"/>
	<ellipse style="fill:#664718;" cx="609.866" cy="554.559" rx="40.777" ry="27.021"/>
	<ellipse style="fill:#684919;" cx="609.866" cy="554.559" rx="40.335" ry="26.728"/>
	<ellipse style="fill:#6B4B19;" cx="609.866" cy="554.559" rx="39.892" ry="26.435"/>
	<ellipse style="fill:#6D4D1A;" cx="609.866" cy="554.559" rx="39.45" ry="26.141"/>
	<ellipse style="fill:#704E1A;" cx="609.866" cy="554.559" rx="39.007" ry="25.848"/>
	<ellipse style="fill:#72501B;" cx="609.866" cy="554.559" rx="38.565" ry="25.555"/>
	<ellipse style="fill:#75521B;" cx="609.866" cy="554.559" rx="38.122" ry="25.262"/>
	<ellipse style="fill:#77541C;" cx="609.866" cy="554.559" rx="37.679" ry="24.968"/>
	<ellipse style="fill:#7A551D;" cx="609.866" cy="554.559" rx="37.237" ry="24.675"/>
	<ellipse style="fill:#7C571D;" cx="609.866" cy="554.559" rx="36.794" ry="24.382"/>
	<ellipse style="fill:#7F591E;" cx="609.866" cy="554.559" rx="36.352" ry="24.088"/>
	<ellipse style="fill:#815B1E;" cx="609.866" cy="554.559" rx="35.909" ry="23.795"/>
	<ellipse style="fill:#845C1F;" cx="609.866" cy="554.559" rx="35.466" ry="23.502"/>
	<ellipse style="fill:#865E20;" cx="609.866" cy="554.559" rx="35.024" ry="23.209"/>
	<ellipse style="fill:#896020;" cx="609.866" cy="554.559" rx="34.581" ry="22.915"/>
	<ellipse style="fill:#8B6221;" cx="609.866" cy="554.559" rx="34.139" ry="22.622"/>
	<ellipse style="fill:#8E6321;" cx="609.866" cy="554.559" rx="33.696" ry="22.329"/>
	<ellipse style="fill:#906522;" cx="609.866" cy="554.559" rx="33.254" ry="22.036"/>
	<ellipse style="fill:#936722;" cx="609.866" cy="554.559" rx="32.811" ry="21.742"/>
	<ellipse style="fill:#956923;" cx="609.866" cy="554.559" rx="32.368" ry="21.449"/>
	<ellipse style="fill:#986A24;" cx="609.866" cy="554.559" rx="31.926" ry="21.156"/>
	<ellipse style="fill:#9A6C24;" cx="609.866" cy="554.559" rx="31.483" ry="20.862"/>
	<ellipse style="fill:#9D6E25;" cx="609.866" cy="554.559" rx="31.041" ry="20.569"/>
	<ellipse style="fill:#9F7025;" cx="609.866" cy="554.559" rx="30.598" ry="20.276"/>
	<ellipse style="fill:#A27126;" cx="609.866" cy="554.559" rx="30.156" ry="19.983"/>
	<ellipse style="fill:#A47327;" cx="609.866" cy="554.559" rx="29.713" ry="19.689"/>
	<ellipse style="fill:#A77527;" cx="609.866" cy="554.559" rx="29.27" ry="19.396"/>
	<ellipse style="fill:#A97628;" cx="609.866" cy="554.559" rx="28.828" ry="19.103"/>
	<ellipse style="fill:#AB7828;" cx="609.866" cy="554.559" rx="28.385" ry="18.81"/>
	<ellipse style="fill:#AE7A29;" cx="609.866" cy="554.559" rx="27.943" ry="18.516"/>
	<ellipse style="fill:#B07C29;" cx="609.866" cy="554.559" rx="27.5" ry="18.223"/>
	<ellipse style="fill:#B37D2A;" cx="609.866" cy="554.559" rx="27.058" ry="17.93"/>
	<ellipse style="fill:#B57F2B;" cx="609.866" cy="554.559" rx="26.615" ry="17.636"/>
	<ellipse style="fill:#B8812B;" cx="609.866" cy="554.559" rx="26.172" ry="17.343"/>
	<ellipse style="fill:#BA832C;" cx="609.866" cy="554.559" rx="25.73" ry="17.05"/>
	<ellipse style="fill:#BD842C;" cx="609.866" cy="554.559" rx="25.287" ry="16.757"/>
	<ellipse style="fill:#BF862D;" cx="609.866" cy="554.559" rx="24.845" ry="16.463"/>
	<ellipse style="fill:#C2882E;" cx="609.866" cy="554.559" rx="24.402" ry="16.17"/>
	<ellipse style="fill:#C48A2E;" cx="609.866" cy="554.559" rx="23.959" ry="15.877"/>
	<ellipse style="fill:#C78B2F;" cx="609.866" cy="554.559" rx="23.517" ry="15.584"/>
	<ellipse style="fill:#C98D2F;" cx="609.866" cy="554.559" rx="23.074" ry="15.29"/>
	<ellipse style="fill:#CC8F30;" cx="609.866" cy="554.559" rx="22.632" ry="14.997"/>
	<ellipse style="fill:#CE9130;" cx="609.866" cy="554.559" rx="22.189" ry="14.704"/>
	<ellipse style="fill:#D19231;" cx="609.866" cy="554.559" rx="21.747" ry="14.41"/>
	<ellipse style="fill:#D39432;" cx="609.866" cy="554.559" rx="21.304" ry="14.117"/>
	<ellipse style="fill:#D69632;" cx="609.866" cy="554.559" rx="20.861" ry="13.824"/>
	<ellipse style="fill:#D89833;" cx="609.866" cy="554.559" rx="20.419" ry="13.531"/>
	<ellipse style="fill:#DB9933;" cx="609.866" cy="554.559" rx="19.976" ry="13.237"/>
	<ellipse style="fill:#DD9B34;" cx="609.866" cy="554.559" rx="19.534" ry="12.944"/>
	<ellipse style="fill:#E09D35;" cx="609.866" cy="554.559" rx="19.091" ry="12.651"/>
	<ellipse style="fill:#E29F35;" cx="609.866" cy="554.559" rx="18.649" ry="12.357"/>
	<ellipse style="fill:#E5A036;" cx="609.866" cy="554.559" rx="18.206" ry="12.064"/>
	<ellipse style="fill:#E7A236;" cx="609.866" cy="554.559" rx="17.763" ry="11.771"/>
	<ellipse style="fill:#EAA437;" cx="609.866" cy="554.559" rx="17.321" ry="11.478"/>
	<ellipse style="fill:#ECA637;" cx="609.866" cy="554.559" rx="16.878" ry="11.184"/>
	<ellipse style="fill:#EFA738;" cx="609.866" cy="554.559" rx="16.436" ry="10.891"/>
	<ellipse style="fill:#F1A939;" cx="609.866" cy="554.559" rx="15.993" ry="10.598"/>
	<ellipse style="fill:#F4AB39;" cx="609.866" cy="554.559" rx="15.551" ry="10.305"/>
	<ellipse style="fill:#F6AD3A;" cx="609.866" cy="554.559" rx="15.108" ry="10.011"/>
	<ellipse style="fill:#F9AE3A;" cx="609.866" cy="554.559" rx="14.665" ry="9.718"/>
	<ellipse style="fill:#FBB03B;" cx="609.866" cy="554.559" rx="14.223" ry="9.425"/>
</g>
<g style="opacity:0.56;">
	
		<ellipse transform="matrix(0.8054 -0.5927 0.5927 0.8054 -246.3412 307.0728)" cx="344.521" cy="528.729" rx="58.923" ry="39.045"/>
	
		<ellipse transform="matrix(0.8054 -0.5927 0.5927 0.8054 -246.3412 307.0728)" style="fill:#020201;" cx="344.521" cy="528.729" rx="58.48" ry="38.752"/>
	
		<ellipse transform="matrix(0.8054 -0.5927 0.5927 0.8054 -246.3412 307.0728)" style="fill:#050301;" cx="344.521" cy="528.729" rx="58.038" ry="38.459"/>
	
		<ellipse transform="matrix(0.8054 -0.5927 0.5927 0.8054 -246.3412 307.0728)" style="fill:#070502;" cx="344.521" cy="528.729" rx="57.595" ry="38.166"/>
	
		<ellipse transform="matrix(0.8054 -0.5927 0.5927 0.8054 -246.3412 307.0728)" style="fill:#0A0702;" cx="344.521" cy="528.729" rx="57.153" ry="37.872"/>
	
		<ellipse transform="matrix(0.8054 -0.5927 0.5927 0.8054 -246.3412 307.0728)" style="fill:#0C0903;" cx="344.521" cy="528.729" rx="56.71" ry="37.579"/>
	
		<ellipse transform="matrix(0.8054 -0.5927 0.5927 0.8054 -246.3412 307.0728)" style="fill:#0F0A04;" cx="344.521" cy="528.729" rx="56.268" ry="37.286"/>
	
		<ellipse transform="matrix(0.8054 -0.5927 0.5927 0.8054 -246.3412 307.0728)" style="fill:#110C04;" cx="344.521" cy="528.729" rx="55.825" ry="36.993"/>
	
		<ellipse transform="matrix(0.8054 -0.5927 0.5927 0.8054 -246.3412 307.0728)" style="fill:#140E05;" cx="344.521" cy="528.729" rx="55.382" ry="36.699"/>
	
		<ellipse transform="matrix(0.8054 -0.5927 0.5927 0.8054 -246.3412 307.0728)" style="fill:#161005;" cx="344.521" cy="528.729" rx="54.94" ry="36.406"/>
	
		<ellipse transform="matrix(0.8054 -0.5927 0.5927 0.8054 -246.3412 307.0728)" style="fill:#191106;" cx="344.521" cy="528.729" rx="54.497" ry="36.113"/>
	
		<ellipse transform="matrix(0.8054 -0.5927 0.5927 0.8054 -246.3412 307.0728)" style="fill:#1B1306;" cx="344.521" cy="528.729" rx="54.055" ry="35.819"/>
	
		<ellipse transform="matrix(0.8054 -0.5927 0.5927 0.8054 -246.3412 307.0728)" style="fill:#1E1507;" cx="344.521" cy="528.729" rx="53.612" ry="35.526"/>
	
		<ellipse transform="matrix(0.8054 -0.5927 0.5927 0.8054 -246.3412 307.0728)" style="fill:#201708;" cx="344.521" cy="528.729" rx="53.17" ry="35.233"/>
	
		<ellipse transform="matrix(0.8054 -0.5927 0.5927 0.8054 -246.3412 307.0728)" style="fill:#231808;" cx="344.521" cy="528.729" rx="52.727" ry="34.94"/>
	
		<ellipse transform="matrix(0.8054 -0.5927 0.5927 0.8054 -246.3412 307.0728)" style="fill:#251A09;" cx="344.521" cy="528.729" rx="52.284" ry="34.646"/>
	
		<ellipse transform="matrix(0.8054 -0.5927 0.5927 0.8054 -246.3412 307.0728)" style="fill:#281C09;" cx="344.521" cy="528.729" rx="51.842" ry="34.353"/>
	
		<ellipse transform="matrix(0.8054 -0.5927 0.5927 0.8054 -246.3412 307.0728)" style="fill:#2A1E0A;" cx="344.521" cy="528.729" rx="51.399" ry="34.06"/>
	
		<ellipse transform="matrix(0.8054 -0.5927 0.5927 0.8054 -246.3412 307.0728)" style="fill:#2D1F0B;" cx="344.521" cy="528.729" rx="50.957" ry="33.766"/>
	
		<ellipse transform="matrix(0.8054 -0.5927 0.5927 0.8054 -246.3412 307.0728)" style="fill:#2F210B;" cx="344.521" cy="528.729" rx="50.514" ry="33.473"/>
	
		<ellipse transform="matrix(0.8054 -0.5927 0.5927 0.8054 -246.3412 307.0728)" style="fill:#32230C;" cx="344.521" cy="528.729" rx="50.071" ry="33.18"/>
	
		<ellipse transform="matrix(0.8054 -0.5927 0.5927 0.8054 -246.3412 307.0728)" style="fill:#34250C;" cx="344.521" cy="528.729" rx="49.629" ry="32.887"/>
	
		<ellipse transform="matrix(0.8054 -0.5927 0.5927 0.8054 -246.3412 307.0728)" style="fill:#37260D;" cx="344.521" cy="528.729" rx="49.186" ry="32.593"/>
	
		<ellipse transform="matrix(0.8054 -0.5927 0.5927 0.8054 -246.3412 307.0728)" style="fill:#39280D;" cx="344.521" cy="528.729" rx="48.744" ry="32.3"/>
	
		<ellipse transform="matrix(0.8054 -0.5927 0.5927 0.8054 -246.3412 307.0728)" style="fill:#3C2A0E;" cx="344.521" cy="528.729" rx="48.301" ry="32.007"/>
	
		<ellipse transform="matrix(0.8054 -0.5927 0.5927 0.8054 -246.3412 307.0728)" style="fill:#3E2C0F;" cx="344.521" cy="528.729" rx="47.859" ry="31.714"/>
	
		<ellipse transform="matrix(0.8054 -0.5927 0.5927 0.8054 -246.3412 307.0728)" style="fill:#412D0F;" cx="344.521" cy="528.729" rx="47.416" ry="31.42"/>
	
		<ellipse transform="matrix(0.8054 -0.5927 0.5927 0.8054 -246.3412 307.0728)" style="fill:#432F10;" cx="344.521" cy="528.729" rx="46.973" ry="31.127"/>
	
		<ellipse transform="matrix(0.8054 -0.5927 0.5927 0.8054 -246.3412 307.0728)" style="fill:#463110;" cx="344.521" cy="528.729" rx="46.531" ry="30.834"/>
	
		<ellipse transform="matrix(0.8054 -0.5927 0.5927 0.8054 -246.3412 307.0728)" style="fill:#483311;" cx="344.521" cy="528.729" rx="46.088" ry="30.54"/>
	
		<ellipse transform="matrix(0.8054 -0.5927 0.5927 0.8054 -246.3412 307.0728)" style="fill:#4B3412;" cx="344.521" cy="528.729" rx="45.646" ry="30.247"/>
	
		<ellipse transform="matrix(0.8054 -0.5927 0.5927 0.8054 -246.3412 307.0728)" style="fill:#4D3612;" cx="344.521" cy="528.729" rx="45.203" ry="29.954"/>
	
		<ellipse transform="matrix(0.8054 -0.5927 0.5927 0.8054 -246.3412 307.0728)" style="fill:#503813;" cx="344.521" cy="528.729" rx="44.761" ry="29.661"/>
	
		<ellipse transform="matrix(0.8054 -0.5927 0.5927 0.8054 -246.3412 307.0728)" style="fill:#523A13;" cx="344.521" cy="528.729" rx="44.318" ry="29.367"/>
	
		<ellipse transform="matrix(0.8054 -0.5927 0.5927 0.8054 -246.3412 307.0728)" style="fill:#543B14;" cx="344.521" cy="528.729" rx="43.875" ry="29.074"/>
	
		<ellipse transform="matrix(0.8054 -0.5927 0.5927 0.8054 -246.3412 307.0728)" style="fill:#573D14;" cx="344.521" cy="528.729" rx="43.433" ry="28.781"/>
	
		<ellipse transform="matrix(0.8054 -0.5927 0.5927 0.8054 -246.3412 307.0728)" style="fill:#593F15;" cx="344.521" cy="528.729" rx="42.99" ry="28.488"/>
	
		<ellipse transform="matrix(0.8054 -0.5927 0.5927 0.8054 -246.3412 307.0728)" style="fill:#5C4016;" cx="344.521" cy="528.729" rx="42.548" ry="28.194"/>
	
		<ellipse transform="matrix(0.8054 -0.5927 0.5927 0.8054 -246.3412 307.0728)" style="fill:#5E4216;" cx="344.521" cy="528.729" rx="42.105" ry="27.901"/>
	
		<ellipse transform="matrix(0.8054 -0.5927 0.5927 0.8054 -246.3412 307.0728)" style="fill:#614417;" cx="344.521" cy="528.729" rx="41.663" ry="27.608"/>
	
		<ellipse transform="matrix(0.8054 -0.5927 0.5927 0.8054 -246.3412 307.0728)" style="fill:#634617;" cx="344.521" cy="528.729" rx="41.22" ry="27.314"/>
	
		<ellipse transform="matrix(0.8054 -0.5927 0.5927 0.8054 -246.3412 307.0728)" style="fill:#664718;" cx="344.521" cy="528.729" rx="40.777" ry="27.021"/>
	
		<ellipse transform="matrix(0.8054 -0.5927 0.5927 0.8054 -246.3412 307.0728)" style="fill:#684919;" cx="344.521" cy="528.729" rx="40.335" ry="26.728"/>
	
		<ellipse transform="matrix(0.8054 -0.5927 0.5927 0.8054 -246.3412 307.0728)" style="fill:#6B4B19;" cx="344.521" cy="528.729" rx="39.892" ry="26.435"/>
	
		<ellipse transform="matrix(0.8054 -0.5927 0.5927 0.8054 -246.3412 307.0728)" style="fill:#6D4D1A;" cx="344.521" cy="528.729" rx="39.45" ry="26.141"/>
	
		<ellipse transform="matrix(0.8054 -0.5927 0.5927 0.8054 -246.3412 307.0728)" style="fill:#704E1A;" cx="344.521" cy="528.729" rx="39.007" ry="25.848"/>
	
		<ellipse transform="matrix(0.8054 -0.5927 0.5927 0.8054 -246.3412 307.0728)" style="fill:#72501B;" cx="344.521" cy="528.729" rx="38.565" ry="25.555"/>
	
		<ellipse transform="matrix(0.8054 -0.5927 0.5927 0.8054 -246.3412 307.0728)" style="fill:#75521B;" cx="344.521" cy="528.729" rx="38.122" ry="25.262"/>
	
		<ellipse transform="matrix(0.8054 -0.5927 0.5927 0.8054 -246.3412 307.0728)" style="fill:#77541C;" cx="344.521" cy="528.729" rx="37.679" ry="24.968"/>
	
		<ellipse transform="matrix(0.8054 -0.5927 0.5927 0.8054 -246.3412 307.0728)" style="fill:#7A551D;" cx="344.521" cy="528.729" rx="37.237" ry="24.675"/>
	
		<ellipse transform="matrix(0.8054 -0.5927 0.5927 0.8054 -246.3412 307.0728)" style="fill:#7C571D;" cx="344.521" cy="528.729" rx="36.794" ry="24.382"/>
	
		<ellipse transform="matrix(0.8054 -0.5927 0.5927 0.8054 -246.3412 307.0728)" style="fill:#7F591E;" cx="344.521" cy="528.729" rx="36.352" ry="24.088"/>
	
		<ellipse transform="matrix(0.8054 -0.5927 0.5927 0.8054 -246.3412 307.0728)" style="fill:#815B1E;" cx="344.521" cy="528.729" rx="35.909" ry="23.795"/>
	
		<ellipse transform="matrix(0.8054 -0.5927 0.5927 0.8054 -246.3412 307.0728)" style="fill:#845C1F;" cx="344.521" cy="528.729" rx="35.466" ry="23.502"/>
	
		<ellipse transform="matrix(0.8054 -0.5927 0.5927 0.8054 -246.3412 307.0728)" style="fill:#865E20;" cx="344.521" cy="528.729" rx="35.024" ry="23.209"/>
	
		<ellipse transform="matrix(0.8054 -0.5927 0.5927 0.8054 -246.3412 307.0728)" style="fill:#896020;" cx="344.521" cy="528.729" rx="34.581" ry="22.915"/>
	
		<ellipse transform="matrix(0.8054 -0.5927 0.5927 0.8054 -246.3412 307.0728)" style="fill:#8B6221;" cx="344.521" cy="528.729" rx="34.139" ry="22.622"/>
	
		<ellipse transform="matrix(0.8054 -0.5927 0.5927 0.8054 -246.3412 307.0728)" style="fill:#8E6321;" cx="344.521" cy="528.729" rx="33.696" ry="22.329"/>
	
		<ellipse transform="matrix(0.8054 -0.5927 0.5927 0.8054 -246.3412 307.0728)" style="fill:#906522;" cx="344.521" cy="528.729" rx="33.254" ry="22.036"/>
	
		<ellipse transform="matrix(0.8054 -0.5927 0.5927 0.8054 -246.3412 307.0728)" style="fill:#936722;" cx="344.521" cy="528.729" rx="32.811" ry="21.742"/>
	
		<ellipse transform="matrix(0.8054 -0.5927 0.5927 0.8054 -246.3412 307.0728)" style="fill:#956923;" cx="344.521" cy="528.729" rx="32.368" ry="21.449"/>
	
		<ellipse transform="matrix(0.8054 -0.5927 0.5927 0.8054 -246.3412 307.0728)" style="fill:#986A24;" cx="344.521" cy="528.729" rx="31.926" ry="21.156"/>
	
		<ellipse transform="matrix(0.8054 -0.5927 0.5927 0.8054 -246.3412 307.0728)" style="fill:#9A6C24;" cx="344.521" cy="528.729" rx="31.483" ry="20.862"/>
	
		<ellipse transform="matrix(0.8054 -0.5927 0.5927 0.8054 -246.3412 307.0728)" style="fill:#9D6E25;" cx="344.521" cy="528.729" rx="31.041" ry="20.569"/>
	
		<ellipse transform="matrix(0.8054 -0.5927 0.5927 0.8054 -246.3412 307.0728)" style="fill:#9F7025;" cx="344.521" cy="528.729" rx="30.598" ry="20.276"/>
	
		<ellipse transform="matrix(0.8054 -0.5927 0.5927 0.8054 -246.3412 307.0728)" style="fill:#A27126;" cx="344.521" cy="528.729" rx="30.156" ry="19.983"/>
	
		<ellipse transform="matrix(0.8054 -0.5927 0.5927 0.8054 -246.3412 307.0728)" style="fill:#A47327;" cx="344.521" cy="528.729" rx="29.713" ry="19.689"/>
	
		<ellipse transform="matrix(0.8054 -0.5927 0.5927 0.8054 -246.3412 307.0728)" style="fill:#A77527;" cx="344.521" cy="528.729" rx="29.27" ry="19.396"/>
	
		<ellipse transform="matrix(0.8054 -0.5927 0.5927 0.8054 -246.3412 307.0728)" style="fill:#A97628;" cx="344.521" cy="528.729" rx="28.828" ry="19.103"/>
	
		<ellipse transform="matrix(0.8054 -0.5927 0.5927 0.8054 -246.3412 307.0728)" style="fill:#AB7828;" cx="344.521" cy="528.729" rx="28.385" ry="18.81"/>
	
		<ellipse transform="matrix(0.8054 -0.5927 0.5927 0.8054 -246.3412 307.0728)" style="fill:#AE7A29;" cx="344.521" cy="528.729" rx="27.943" ry="18.516"/>
	
		<ellipse transform="matrix(0.8054 -0.5927 0.5927 0.8054 -246.3412 307.0728)" style="fill:#B07C29;" cx="344.521" cy="528.729" rx="27.5" ry="18.223"/>
	
		<ellipse transform="matrix(0.8054 -0.5927 0.5927 0.8054 -246.3412 307.0728)" style="fill:#B37D2A;" cx="344.521" cy="528.729" rx="27.058" ry="17.93"/>
	
		<ellipse transform="matrix(0.8054 -0.5927 0.5927 0.8054 -246.3412 307.0728)" style="fill:#B57F2B;" cx="344.521" cy="528.729" rx="26.615" ry="17.636"/>
	
		<ellipse transform="matrix(0.8054 -0.5927 0.5927 0.8054 -246.3412 307.0728)" style="fill:#B8812B;" cx="344.521" cy="528.729" rx="26.172" ry="17.343"/>
	
		<ellipse transform="matrix(0.8054 -0.5927 0.5927 0.8054 -246.3412 307.0728)" style="fill:#BA832C;" cx="344.521" cy="528.729" rx="25.73" ry="17.05"/>
	
		<ellipse transform="matrix(0.8054 -0.5927 0.5927 0.8054 -246.3412 307.0728)" style="fill:#BD842C;" cx="344.521" cy="528.729" rx="25.287" ry="16.757"/>
	
		<ellipse transform="matrix(0.8054 -0.5927 0.5927 0.8054 -246.3412 307.0728)" style="fill:#BF862D;" cx="344.521" cy="528.729" rx="24.845" ry="16.463"/>
	
		<ellipse transform="matrix(0.8054 -0.5927 0.5927 0.8054 -246.3412 307.0728)" style="fill:#C2882E;" cx="344.521" cy="528.729" rx="24.402" ry="16.17"/>
	
		<ellipse transform="matrix(0.8054 -0.5927 0.5927 0.8054 -246.3412 307.0728)" style="fill:#C48A2E;" cx="344.521" cy="528.729" rx="23.959" ry="15.877"/>
	
		<ellipse transform="matrix(0.8054 -0.5927 0.5927 0.8054 -246.3412 307.0728)" style="fill:#C78B2F;" cx="344.521" cy="528.729" rx="23.517" ry="15.584"/>
	
		<ellipse transform="matrix(0.8054 -0.5927 0.5927 0.8054 -246.3412 307.0728)" style="fill:#C98D2F;" cx="344.521" cy="528.729" rx="23.074" ry="15.29"/>
	
		<ellipse transform="matrix(0.8054 -0.5927 0.5927 0.8054 -246.3412 307.0728)" style="fill:#CC8F30;" cx="344.521" cy="528.729" rx="22.632" ry="14.997"/>
	
		<ellipse transform="matrix(0.8054 -0.5927 0.5927 0.8054 -246.3412 307.0728)" style="fill:#CE9130;" cx="344.521" cy="528.729" rx="22.189" ry="14.704"/>
	
		<ellipse transform="matrix(0.8054 -0.5927 0.5927 0.8054 -246.3412 307.0728)" style="fill:#D19231;" cx="344.521" cy="528.729" rx="21.747" ry="14.41"/>
	
		<ellipse transform="matrix(0.8054 -0.5927 0.5927 0.8054 -246.3412 307.0728)" style="fill:#D39432;" cx="344.521" cy="528.729" rx="21.304" ry="14.117"/>
	
		<ellipse transform="matrix(0.8054 -0.5927 0.5927 0.8054 -246.3412 307.0728)" style="fill:#D69632;" cx="344.521" cy="528.729" rx="20.861" ry="13.824"/>
	
		<ellipse transform="matrix(0.8054 -0.5927 0.5927 0.8054 -246.3412 307.0728)" style="fill:#D89833;" cx="344.521" cy="528.729" rx="20.419" ry="13.531"/>
	
		<ellipse transform="matrix(0.8054 -0.5927 0.5927 0.8054 -246.3412 307.0728)" style="fill:#DB9933;" cx="344.521" cy="528.729" rx="19.976" ry="13.237"/>
	
		<ellipse transform="matrix(0.8054 -0.5927 0.5927 0.8054 -246.3412 307.0728)" style="fill:#DD9B34;" cx="344.521" cy="528.729" rx="19.534" ry="12.944"/>
	
		<ellipse transform="matrix(0.8054 -0.5927 0.5927 0.8054 -246.3412 307.0728)" style="fill:#E09D35;" cx="344.521" cy="528.729" rx="19.091" ry="12.651"/>
	
		<ellipse transform="matrix(0.8054 -0.5927 0.5927 0.8054 -246.3412 307.0728)" style="fill:#E29F35;" cx="344.521" cy="528.729" rx="18.649" ry="12.357"/>
	
		<ellipse transform="matrix(0.8054 -0.5927 0.5927 0.8054 -246.3412 307.0728)" style="fill:#E5A036;" cx="344.521" cy="528.729" rx="18.206" ry="12.064"/>
	
		<ellipse transform="matrix(0.8054 -0.5927 0.5927 0.8054 -246.3412 307.0728)" style="fill:#E7A236;" cx="344.521" cy="528.729" rx="17.763" ry="11.771"/>
	
		<ellipse transform="matrix(0.8054 -0.5927 0.5927 0.8054 -246.3412 307.0728)" style="fill:#EAA437;" cx="344.521" cy="528.729" rx="17.321" ry="11.478"/>
	
		<ellipse transform="matrix(0.8054 -0.5927 0.5927 0.8054 -246.3412 307.0728)" style="fill:#ECA637;" cx="344.521" cy="528.729" rx="16.878" ry="11.184"/>
	
		<ellipse transform="matrix(0.8054 -0.5927 0.5927 0.8054 -246.3412 307.0728)" style="fill:#EFA738;" cx="344.521" cy="528.729" rx="16.436" ry="10.891"/>
	
		<ellipse transform="matrix(0.8054 -0.5927 0.5927 0.8054 -246.3412 307.0728)" style="fill:#F1A939;" cx="344.521" cy="528.729" rx="15.993" ry="10.598"/>
	
		<ellipse transform="matrix(0.8054 -0.5927 0.5927 0.8054 -246.3412 307.0728)" style="fill:#F4AB39;" cx="344.521" cy="528.729" rx="15.551" ry="10.305"/>
	
		<ellipse transform="matrix(0.8054 -0.5927 0.5927 0.8054 -246.3412 307.0728)" style="fill:#F6AD3A;" cx="344.521" cy="528.729" rx="15.108" ry="10.011"/>
	
		<ellipse transform="matrix(0.8054 -0.5927 0.5927 0.8054 -246.3412 307.0728)" style="fill:#F9AE3A;" cx="344.521" cy="528.729" rx="14.665" ry="9.718"/>
	
		<ellipse transform="matrix(0.8054 -0.5927 0.5927 0.8054 -246.3412 307.0728)" style="fill:#FBB03B;" cx="344.521" cy="528.729" rx="14.223" ry="9.425"/>
</g>
<g style="opacity:0.56;">
	<ellipse transform="matrix(0.8054 -0.5927 0.5927 0.8054 -18.2395 274.1142)" cx="408.373" cy="164.837" rx="38.264" ry="25.355"/>
	
		<ellipse transform="matrix(0.8054 -0.5927 0.5927 0.8054 -18.2395 274.1142)" style="fill:#020201;" cx="408.373" cy="164.837" rx="37.976" ry="25.165"/>
	
		<ellipse transform="matrix(0.8054 -0.5927 0.5927 0.8054 -18.2395 274.1142)" style="fill:#050301;" cx="408.373" cy="164.837" rx="37.689" ry="24.974"/>
	
		<ellipse transform="matrix(0.8054 -0.5927 0.5927 0.8054 -18.2395 274.1142)" style="fill:#070502;" cx="408.373" cy="164.837" rx="37.401" ry="24.784"/>
	
		<ellipse transform="matrix(0.8054 -0.5927 0.5927 0.8054 -18.2395 274.1142)" style="fill:#0A0702;" cx="408.373" cy="164.837" rx="37.114" ry="24.594"/>
	
		<ellipse transform="matrix(0.8054 -0.5927 0.5927 0.8054 -18.2395 274.1142)" style="fill:#0C0903;" cx="408.373" cy="164.837" rx="36.826" ry="24.403"/>
	
		<ellipse transform="matrix(0.8054 -0.5927 0.5927 0.8054 -18.2395 274.1142)" style="fill:#0F0A04;" cx="408.373" cy="164.837" rx="36.539" ry="24.213"/>
	
		<ellipse transform="matrix(0.8054 -0.5927 0.5927 0.8054 -18.2395 274.1142)" style="fill:#110C04;" cx="408.373" cy="164.837" rx="36.252" ry="24.022"/>
	
		<ellipse transform="matrix(0.8054 -0.5927 0.5927 0.8054 -18.2395 274.1142)" style="fill:#140E05;" cx="408.373" cy="164.837" rx="35.964" ry="23.832"/>
	
		<ellipse transform="matrix(0.8054 -0.5927 0.5927 0.8054 -18.2395 274.1142)" style="fill:#161005;" cx="408.373" cy="164.837" rx="35.677" ry="23.641"/>
	
		<ellipse transform="matrix(0.8054 -0.5927 0.5927 0.8054 -18.2395 274.1142)" style="fill:#191106;" cx="408.373" cy="164.837" rx="35.389" ry="23.451"/>
	
		<ellipse transform="matrix(0.8054 -0.5927 0.5927 0.8054 -18.2395 274.1142)" style="fill:#1B1306;" cx="408.373" cy="164.837" rx="35.102" ry="23.26"/>
	
		<ellipse transform="matrix(0.8054 -0.5927 0.5927 0.8054 -18.2395 274.1142)" style="fill:#1E1507;" cx="408.373" cy="164.837" rx="34.815" ry="23.07"/>
	
		<ellipse transform="matrix(0.8054 -0.5927 0.5927 0.8054 -18.2395 274.1142)" style="fill:#201708;" cx="408.373" cy="164.837" rx="34.527" ry="22.88"/>
	
		<ellipse transform="matrix(0.8054 -0.5927 0.5927 0.8054 -18.2395 274.1142)" style="fill:#231808;" cx="408.373" cy="164.837" rx="34.24" ry="22.689"/>
	
		<ellipse transform="matrix(0.8054 -0.5927 0.5927 0.8054 -18.2395 274.1142)" style="fill:#251A09;" cx="408.373" cy="164.837" rx="33.952" ry="22.499"/>
	
		<ellipse transform="matrix(0.8054 -0.5927 0.5927 0.8054 -18.2395 274.1142)" style="fill:#281C09;" cx="408.373" cy="164.837" rx="33.665" ry="22.308"/>
	
		<ellipse transform="matrix(0.8054 -0.5927 0.5927 0.8054 -18.2395 274.1142)" style="fill:#2A1E0A;" cx="408.373" cy="164.837" rx="33.378" ry="22.118"/>
	
		<ellipse transform="matrix(0.8054 -0.5927 0.5927 0.8054 -18.2395 274.1142)" style="fill:#2D1F0B;" cx="408.373" cy="164.837" rx="33.09" ry="21.927"/>
	
		<ellipse transform="matrix(0.8054 -0.5927 0.5927 0.8054 -18.2395 274.1142)" style="fill:#2F210B;" cx="408.373" cy="164.837" rx="32.803" ry="21.737"/>
	
		<ellipse transform="matrix(0.8054 -0.5927 0.5927 0.8054 -18.2395 274.1142)" style="fill:#32230C;" cx="408.373" cy="164.837" rx="32.515" ry="21.546"/>
	
		<ellipse transform="matrix(0.8054 -0.5927 0.5927 0.8054 -18.2395 274.1142)" style="fill:#34250C;" cx="408.373" cy="164.837" rx="32.228" ry="21.356"/>
	
		<ellipse transform="matrix(0.8054 -0.5927 0.5927 0.8054 -18.2395 274.1142)" style="fill:#37260D;" cx="408.373" cy="164.837" rx="31.941" ry="21.166"/>
	
		<ellipse transform="matrix(0.8054 -0.5927 0.5927 0.8054 -18.2395 274.1142)" style="fill:#39280D;" cx="408.373" cy="164.837" rx="31.653" ry="20.975"/>
	
		<ellipse transform="matrix(0.8054 -0.5927 0.5927 0.8054 -18.2395 274.1142)" style="fill:#3C2A0E;" cx="408.373" cy="164.837" rx="31.366" ry="20.785"/>
	
		<ellipse transform="matrix(0.8054 -0.5927 0.5927 0.8054 -18.2395 274.1142)" style="fill:#3E2C0F;" cx="408.373" cy="164.837" rx="31.078" ry="20.594"/>
	
		<ellipse transform="matrix(0.8054 -0.5927 0.5927 0.8054 -18.2395 274.1142)" style="fill:#412D0F;" cx="408.373" cy="164.837" rx="30.791" ry="20.404"/>
	
		<ellipse transform="matrix(0.8054 -0.5927 0.5927 0.8054 -18.2395 274.1142)" style="fill:#432F10;" cx="408.373" cy="164.837" rx="30.504" ry="20.213"/>
	
		<ellipse transform="matrix(0.8054 -0.5927 0.5927 0.8054 -18.2395 274.1142)" style="fill:#463110;" cx="408.373" cy="164.837" rx="30.216" ry="20.023"/>
	
		<ellipse transform="matrix(0.8054 -0.5927 0.5927 0.8054 -18.2395 274.1142)" style="fill:#483311;" cx="408.373" cy="164.837" rx="29.929" ry="19.832"/>
	
		<ellipse transform="matrix(0.8054 -0.5927 0.5927 0.8054 -18.2395 274.1142)" style="fill:#4B3412;" cx="408.373" cy="164.837" rx="29.641" ry="19.642"/>
	
		<ellipse transform="matrix(0.8054 -0.5927 0.5927 0.8054 -18.2395 274.1142)" style="fill:#4D3612;" cx="408.373" cy="164.837" rx="29.354" ry="19.452"/>
	
		<ellipse transform="matrix(0.8054 -0.5927 0.5927 0.8054 -18.2395 274.1142)" style="fill:#503813;" cx="408.373" cy="164.837" rx="29.067" ry="19.261"/>
	
		<ellipse transform="matrix(0.8054 -0.5927 0.5927 0.8054 -18.2395 274.1142)" style="fill:#523A13;" cx="408.373" cy="164.837" rx="28.779" ry="19.071"/>
	
		<ellipse transform="matrix(0.8054 -0.5927 0.5927 0.8054 -18.2395 274.1142)" style="fill:#543B14;" cx="408.373" cy="164.837" rx="28.492" ry="18.88"/>
	
		<ellipse transform="matrix(0.8054 -0.5927 0.5927 0.8054 -18.2395 274.1142)" style="fill:#573D14;" cx="408.373" cy="164.837" rx="28.204" ry="18.69"/>
	
		<ellipse transform="matrix(0.8054 -0.5927 0.5927 0.8054 -18.2395 274.1142)" style="fill:#593F15;" cx="408.373" cy="164.837" rx="27.917" ry="18.499"/>
	
		<ellipse transform="matrix(0.8054 -0.5927 0.5927 0.8054 -18.2395 274.1142)" style="fill:#5C4016;" cx="408.373" cy="164.837" rx="27.63" ry="18.309"/>
	
		<ellipse transform="matrix(0.8054 -0.5927 0.5927 0.8054 -18.2395 274.1142)" style="fill:#5E4216;" cx="408.373" cy="164.837" rx="27.342" ry="18.118"/>
	
		<ellipse transform="matrix(0.8054 -0.5927 0.5927 0.8054 -18.2395 274.1142)" style="fill:#614417;" cx="408.373" cy="164.837" rx="27.055" ry="17.928"/>
	
		<ellipse transform="matrix(0.8054 -0.5927 0.5927 0.8054 -18.2395 274.1142)" style="fill:#634617;" cx="408.373" cy="164.837" rx="26.767" ry="17.737"/>
	
		<ellipse transform="matrix(0.8054 -0.5927 0.5927 0.8054 -18.2395 274.1142)" style="fill:#664718;" cx="408.373" cy="164.837" rx="26.48" ry="17.547"/>
	
		<ellipse transform="matrix(0.8054 -0.5927 0.5927 0.8054 -18.2395 274.1142)" style="fill:#684919;" cx="408.373" cy="164.837" rx="26.193" ry="17.357"/>
	
		<ellipse transform="matrix(0.8054 -0.5927 0.5927 0.8054 -18.2395 274.1142)" style="fill:#6B4B19;" cx="408.373" cy="164.837" rx="25.905" ry="17.166"/>
	
		<ellipse transform="matrix(0.8054 -0.5927 0.5927 0.8054 -18.2395 274.1142)" style="fill:#6D4D1A;" cx="408.373" cy="164.837" rx="25.618" ry="16.976"/>
	
		<ellipse transform="matrix(0.8054 -0.5927 0.5927 0.8054 -18.2395 274.1142)" style="fill:#704E1A;" cx="408.373" cy="164.837" rx="25.33" ry="16.785"/>
	
		<ellipse transform="matrix(0.8054 -0.5927 0.5927 0.8054 -18.2395 274.1142)" style="fill:#72501B;" cx="408.373" cy="164.837" rx="25.043" ry="16.595"/>
	
		<ellipse transform="matrix(0.8054 -0.5927 0.5927 0.8054 -18.2395 274.1142)" style="fill:#75521B;" cx="408.373" cy="164.837" rx="24.756" ry="16.404"/>
	
		<ellipse transform="matrix(0.8054 -0.5927 0.5927 0.8054 -18.2395 274.1142)" style="fill:#77541C;" cx="408.373" cy="164.837" rx="24.468" ry="16.214"/>
	
		<ellipse transform="matrix(0.8054 -0.5927 0.5927 0.8054 -18.2395 274.1142)" style="fill:#7A551D;" cx="408.373" cy="164.837" rx="24.181" ry="16.023"/>
	
		<ellipse transform="matrix(0.8054 -0.5927 0.5927 0.8054 -18.2395 274.1142)" style="fill:#7C571D;" cx="408.373" cy="164.837" rx="23.893" ry="15.833"/>
	
		<ellipse transform="matrix(0.8054 -0.5927 0.5927 0.8054 -18.2395 274.1142)" style="fill:#7F591E;" cx="408.373" cy="164.837" rx="23.606" ry="15.643"/>
	
		<ellipse transform="matrix(0.8054 -0.5927 0.5927 0.8054 -18.2395 274.1142)" style="fill:#815B1E;" cx="408.373" cy="164.837" rx="23.319" ry="15.452"/>
	
		<ellipse transform="matrix(0.8054 -0.5927 0.5927 0.8054 -18.2395 274.1142)" style="fill:#845C1F;" cx="408.373" cy="164.837" rx="23.031" ry="15.262"/>
	
		<ellipse transform="matrix(0.8054 -0.5927 0.5927 0.8054 -18.2395 274.1142)" style="fill:#865E20;" cx="408.373" cy="164.837" rx="22.744" ry="15.071"/>
	
		<ellipse transform="matrix(0.8054 -0.5927 0.5927 0.8054 -18.2395 274.1142)" style="fill:#896020;" cx="408.373" cy="164.837" rx="22.456" ry="14.881"/>
	
		<ellipse transform="matrix(0.8054 -0.5927 0.5927 0.8054 -18.2395 274.1142)" style="fill:#8B6221;" cx="408.373" cy="164.837" rx="22.169" ry="14.69"/>
	
		<ellipse transform="matrix(0.8054 -0.5927 0.5927 0.8054 -18.2395 274.1142)" style="fill:#8E6321;" cx="408.373" cy="164.837" rx="21.882" ry="14.5"/>
	
		<ellipse transform="matrix(0.8054 -0.5927 0.5927 0.8054 -18.2395 274.1142)" style="fill:#906522;" cx="408.373" cy="164.837" rx="21.594" ry="14.309"/>
	
		<ellipse transform="matrix(0.8054 -0.5927 0.5927 0.8054 -18.2395 274.1142)" style="fill:#936722;" cx="408.373" cy="164.837" rx="21.307" ry="14.119"/>
	
		<ellipse transform="matrix(0.8054 -0.5927 0.5927 0.8054 -18.2395 274.1142)" style="fill:#956923;" cx="408.373" cy="164.837" rx="21.019" ry="13.929"/>
	
		<ellipse transform="matrix(0.8054 -0.5927 0.5927 0.8054 -18.2395 274.1142)" style="fill:#986A24;" cx="408.373" cy="164.837" rx="20.732" ry="13.738"/>
	
		<ellipse transform="matrix(0.8054 -0.5927 0.5927 0.8054 -18.2395 274.1142)" style="fill:#9A6C24;" cx="408.373" cy="164.837" rx="20.445" ry="13.548"/>
	
		<ellipse transform="matrix(0.8054 -0.5927 0.5927 0.8054 -18.2395 274.1142)" style="fill:#9D6E25;" cx="408.373" cy="164.837" rx="20.157" ry="13.357"/>
	
		<ellipse transform="matrix(0.8054 -0.5927 0.5927 0.8054 -18.2395 274.1142)" style="fill:#9F7025;" cx="408.373" cy="164.837" rx="19.87" ry="13.167"/>
	
		<ellipse transform="matrix(0.8054 -0.5927 0.5927 0.8054 -18.2395 274.1142)" style="fill:#A27126;" cx="408.373" cy="164.837" rx="19.582" ry="12.976"/>
	
		<ellipse transform="matrix(0.8054 -0.5927 0.5927 0.8054 -18.2395 274.1142)" style="fill:#A47327;" cx="408.373" cy="164.837" rx="19.295" ry="12.786"/>
	
		<ellipse transform="matrix(0.8054 -0.5927 0.5927 0.8054 -18.2395 274.1142)" style="fill:#A77527;" cx="408.373" cy="164.837" rx="19.008" ry="12.595"/>
	
		<ellipse transform="matrix(0.8054 -0.5927 0.5927 0.8054 -18.2395 274.1142)" style="fill:#A97628;" cx="408.373" cy="164.837" rx="18.72" ry="12.405"/>
	
		<ellipse transform="matrix(0.8054 -0.5927 0.5927 0.8054 -18.2395 274.1142)" style="fill:#AB7828;" cx="408.373" cy="164.837" rx="18.433" ry="12.215"/>
	
		<ellipse transform="matrix(0.8054 -0.5927 0.5927 0.8054 -18.2395 274.1142)" style="fill:#AE7A29;" cx="408.373" cy="164.837" rx="18.145" ry="12.024"/>
	
		<ellipse transform="matrix(0.8054 -0.5927 0.5927 0.8054 -18.2395 274.1142)" style="fill:#B07C29;" cx="408.373" cy="164.837" rx="17.858" ry="11.834"/>
	
		<ellipse transform="matrix(0.8054 -0.5927 0.5927 0.8054 -18.2395 274.1142)" style="fill:#B37D2A;" cx="408.373" cy="164.837" rx="17.571" ry="11.643"/>
	
		<ellipse transform="matrix(0.8054 -0.5927 0.5927 0.8054 -18.2395 274.1142)" style="fill:#B57F2B;" cx="408.373" cy="164.837" rx="17.283" ry="11.453"/>
	
		<ellipse transform="matrix(0.8054 -0.5927 0.5927 0.8054 -18.2395 274.1142)" style="fill:#B8812B;" cx="408.373" cy="164.837" rx="16.996" ry="11.262"/>
	
		<ellipse transform="matrix(0.8054 -0.5927 0.5927 0.8054 -18.2395 274.1142)" style="fill:#BA832C;" cx="408.373" cy="164.837" rx="16.708" ry="11.072"/>
	
		<ellipse transform="matrix(0.8054 -0.5927 0.5927 0.8054 -18.2395 274.1142)" style="fill:#BD842C;" cx="408.373" cy="164.837" rx="16.421" ry="10.881"/>
	
		<ellipse transform="matrix(0.8054 -0.5927 0.5927 0.8054 -18.2395 274.1142)" style="fill:#BF862D;" cx="408.373" cy="164.837" rx="16.134" ry="10.691"/>
	
		<ellipse transform="matrix(0.8054 -0.5927 0.5927 0.8054 -18.2395 274.1142)" style="fill:#C2882E;" cx="408.373" cy="164.837" rx="15.846" ry="10.501"/>
	
		<ellipse transform="matrix(0.8054 -0.5927 0.5927 0.8054 -18.2395 274.1142)" style="fill:#C48A2E;" cx="408.373" cy="164.837" rx="15.559" ry="10.31"/>
	
		<ellipse transform="matrix(0.8054 -0.5927 0.5927 0.8054 -18.2395 274.1142)" style="fill:#C78B2F;" cx="408.373" cy="164.837" rx="15.271" ry="10.12"/>
	
		<ellipse transform="matrix(0.8054 -0.5927 0.5927 0.8054 -18.2395 274.1142)" style="fill:#C98D2F;" cx="408.373" cy="164.837" rx="14.984" ry="9.929"/>
	
		<ellipse transform="matrix(0.8054 -0.5927 0.5927 0.8054 -18.2395 274.1142)" style="fill:#CC8F30;" cx="408.373" cy="164.837" rx="14.697" ry="9.739"/>
	
		<ellipse transform="matrix(0.8054 -0.5927 0.5927 0.8054 -18.2395 274.1142)" style="fill:#CE9130;" cx="408.373" cy="164.837" rx="14.409" ry="9.548"/>
	
		<ellipse transform="matrix(0.8054 -0.5927 0.5927 0.8054 -18.2395 274.1142)" style="fill:#D19231;" cx="408.373" cy="164.837" rx="14.122" ry="9.358"/>
	
		<ellipse transform="matrix(0.8054 -0.5927 0.5927 0.8054 -18.2395 274.1142)" style="fill:#D39432;" cx="408.373" cy="164.837" rx="13.834" ry="9.167"/>
	
		<ellipse transform="matrix(0.8054 -0.5927 0.5927 0.8054 -18.2395 274.1142)" style="fill:#D69632;" cx="408.373" cy="164.837" rx="13.547" ry="8.977"/>
	
		<ellipse transform="matrix(0.8054 -0.5927 0.5927 0.8054 -18.2395 274.1142)" style="fill:#D89833;" cx="408.373" cy="164.837" rx="13.26" ry="8.787"/>
	
		<ellipse transform="matrix(0.8054 -0.5927 0.5927 0.8054 -18.2395 274.1142)" style="fill:#DB9933;" cx="408.373" cy="164.837" rx="12.972" ry="8.596"/>
	
		<ellipse transform="matrix(0.8054 -0.5927 0.5927 0.8054 -18.2395 274.1142)" style="fill:#DD9B34;" cx="408.373" cy="164.837" rx="12.685" ry="8.406"/>
	
		<ellipse transform="matrix(0.8054 -0.5927 0.5927 0.8054 -18.2395 274.1142)" style="fill:#E09D35;" cx="408.373" cy="164.837" rx="12.397" ry="8.215"/>
	
		<ellipse transform="matrix(0.8054 -0.5927 0.5927 0.8054 -18.2395 274.1142)" style="fill:#E29F35;" cx="408.373" cy="164.837" rx="12.11" ry="8.025"/>
	
		<ellipse transform="matrix(0.8054 -0.5927 0.5927 0.8054 -18.2395 274.1142)" style="fill:#E5A036;" cx="408.373" cy="164.837" rx="11.823" ry="7.834"/>
	
		<ellipse transform="matrix(0.8054 -0.5927 0.5927 0.8054 -18.2395 274.1142)" style="fill:#E7A236;" cx="408.373" cy="164.837" rx="11.535" ry="7.644"/>
	
		<ellipse transform="matrix(0.8054 -0.5927 0.5927 0.8054 -18.2395 274.1142)" style="fill:#EAA437;" cx="408.373" cy="164.837" rx="11.248" ry="7.453"/>
	
		<ellipse transform="matrix(0.8054 -0.5927 0.5927 0.8054 -18.2395 274.1142)" style="fill:#ECA637;" cx="408.373" cy="164.837" rx="10.96" ry="7.263"/>
	
		<ellipse transform="matrix(0.8054 -0.5927 0.5927 0.8054 -18.2395 274.1142)" style="fill:#EFA738;" cx="408.373" cy="164.837" rx="10.673" ry="7.072"/>
	
		<ellipse transform="matrix(0.8054 -0.5927 0.5927 0.8054 -18.2395 274.1142)" style="fill:#F1A939;" cx="408.373" cy="164.837" rx="10.386" ry="6.882"/>
	
		<ellipse transform="matrix(0.8054 -0.5927 0.5927 0.8054 -18.2395 274.1142)" style="fill:#F4AB39;" cx="408.373" cy="164.837" rx="10.098" ry="6.692"/>
	
		<ellipse transform="matrix(0.8054 -0.5927 0.5927 0.8054 -18.2395 274.1142)" style="fill:#F6AD3A;" cx="408.373" cy="164.837" rx="9.811" ry="6.501"/>
	
		<ellipse transform="matrix(0.8054 -0.5927 0.5927 0.8054 -18.2395 274.1142)" style="fill:#F9AE3A;" cx="408.373" cy="164.837" rx="9.523" ry="6.311"/>
	
		<ellipse transform="matrix(0.8054 -0.5927 0.5927 0.8054 -18.2395 274.1142)" style="fill:#FBB03B;" cx="408.373" cy="164.837" rx="9.236" ry="6.12"/>
</g>
<path style="fill:#2B2B3F;" d="M465.392,317.154c3.268,0,5.307-3.565,3.614-6.361c-3.781-6.248-10.341-14.848-17.8-14.848h-59.733
	c-7.459,0-14.019,8.601-17.8,14.848c-1.692,2.796,0.346,6.361,3.614,6.361l0,0c-1.323,1.731-2.495,3.5-3.485,5.122
	c-1.759,2.883,0.305,6.572,3.682,6.572h87.711c3.377,0,5.441-3.689,3.682-6.572C467.888,320.654,466.715,318.884,465.392,317.154
	L465.392,317.154z"/>
<path style="fill:#35AF3E;" d="M459.199,312.4h-75.726c0-2.756,1.129-5.264,2.929-7.083c1.819-1.799,4.326-2.929,7.083-2.929h55.704
	C454.72,302.389,459.199,306.868,459.199,312.4z"/>
<path style="fill:#64FF73;" d="M458.989,312.4h-75.305c0.383-1.953,1.359-3.714,2.718-5.073c1.819-1.819,4.326-2.929,7.083-2.929
	h55.704C454.031,304.399,458.07,307.844,458.989,312.4z"/>
<path style="fill:#35AF3E;" d="M459.199,327.168h-75.726c0-2.756,1.129-5.264,2.929-7.083c1.819-1.799,4.326-2.929,7.083-2.929
	h55.704C454.72,317.156,459.199,321.635,459.199,327.168z"/>
<path style="fill:#64FF73;" d="M458.989,327.168h-75.305c0.383-1.953,1.359-3.714,2.718-5.073c1.819-1.819,4.326-2.929,7.083-2.929
	h55.704C454.031,319.166,458.07,322.612,458.989,327.168z"/>
<g>
	<path style="fill:#35AF3E;" d="M497.734,447.615h-34.128c0-1.242,0.509-2.372,1.32-3.192c0.82-0.811,1.95-1.32,3.192-1.32h25.104
		C495.715,443.103,497.734,445.122,497.734,447.615z"/>
	<path style="fill:#64FF73;" d="M497.639,447.615h-33.938c0.173-0.88,0.612-1.674,1.225-2.286c0.82-0.82,1.95-1.32,3.192-1.32
		h25.104C495.405,444.009,497.225,445.562,497.639,447.615z"/>
</g>
<g>
	<path style="fill:#35AF3E;" d="M473.012,705.132h-34.128c0-1.242,0.509-2.372,1.32-3.192c0.82-0.811,1.95-1.32,3.192-1.32h25.104
		C470.994,700.62,473.012,702.639,473.012,705.132z"/>
	<path style="fill:#64FF73;" d="M472.917,705.132h-33.938c0.173-0.88,0.612-1.674,1.225-2.286c0.82-0.82,1.95-1.32,3.192-1.32
		h25.104C470.683,701.526,472.503,703.079,472.917,705.132z"/>
</g>
<g>
	<path style="fill:#35AF3E;" d="M518.443,705.132h-34.128c0-1.242,0.509-2.372,1.32-3.192c0.82-0.811,1.95-1.32,3.192-1.32h25.104
		C516.424,700.62,518.443,702.639,518.443,705.132z"/>
	<path style="fill:#64FF73;" d="M518.348,705.132H484.41c0.173-0.88,0.612-1.674,1.225-2.286c0.82-0.82,1.95-1.32,3.192-1.32h25.104
		C516.114,701.526,517.934,703.079,518.348,705.132z"/>
</g>
<g>
	<path style="fill:#35AF3E;" d="M497.734,456.639h-34.128c0-1.242,0.509-2.372,1.32-3.192c0.82-0.811,1.95-1.32,3.192-1.32h25.104
		C495.715,452.127,497.734,454.146,497.734,456.639z"/>
	<path style="fill:#64FF73;" d="M497.639,456.639h-33.938c0.173-0.88,0.612-1.674,1.225-2.286c0.82-0.82,1.95-1.32,3.192-1.32
		h25.104C495.405,453.033,497.225,454.586,497.639,456.639z"/>
</g>
<g>
	<path style="fill:#35AF3E;" d="M496.287,465.663h-31.234c0-1.242,0.466-2.372,1.208-3.192c0.75-0.811,1.784-1.32,2.921-1.32h22.975
		C494.44,461.151,496.287,463.169,496.287,465.663z"/>
	<path style="fill:#64FF73;" d="M496.2,465.663h-31.06c0.158-0.88,0.561-1.674,1.121-2.286c0.75-0.82,1.784-1.32,2.921-1.32h22.975
		C494.155,462.057,495.821,463.609,496.2,465.663z"/>
</g>
<g>
	<path style="fill:#35AF3E;" d="M495.563,474.686h-29.786c0-1.242,0.444-2.372,1.152-3.192c0.715-0.811,1.702-1.32,2.786-1.32
		h21.911C493.801,470.174,495.563,472.193,495.563,474.686z"/>
	<path style="fill:#64FF73;" d="M495.48,474.686H465.86c0.151-0.88,0.535-1.674,1.069-2.286c0.715-0.82,1.702-1.32,2.786-1.32
		h21.911C493.53,471.08,495.119,472.633,495.48,474.686z"/>
</g>
<g>
	<path style="fill:#35AF3E;" d="M494.107,483.71h-26.874c0-1.242,0.401-2.372,1.039-3.192c0.645-0.811,1.535-1.32,2.513-1.32h19.768
		C492.517,479.198,494.107,481.217,494.107,483.71z"/>
	<path style="fill:#64FF73;" d="M494.032,483.71h-26.725c0.136-0.88,0.482-1.674,0.965-2.286c0.645-0.82,1.535-1.32,2.513-1.32
		h19.768C492.273,480.104,493.706,481.657,494.032,483.71z"/>
</g>
<g>
	<path style="fill:#35AF3E;" d="M491.062,492.734h-20.784c0-1.242,0.31-2.372,0.804-3.192c0.499-0.811,1.187-1.32,1.944-1.32h15.289
		C489.833,488.222,491.062,490.241,491.062,492.734z"/>
	<path style="fill:#64FF73;" d="M491.004,492.734h-20.669c0.105-0.88,0.373-1.674,0.746-2.286c0.499-0.82,1.187-1.32,1.944-1.32
		h15.289C489.644,489.128,490.752,490.681,491.004,492.734z"/>
</g>
<path style="fill:#64FF73;" d="M444.872,158.459c-6.394-6.298-15.161-10.184-24.846-10.184c-11.524,0-21.746,5.513-28.197,14.031
	c-4.518,5.915-7.178,13.323-7.178,21.344v41.079c0,8.767,3.197,16.788,8.499,22.971c-6.566-6.413-10.662-15.39-10.662-25.306
	v-41.079c0-8.021,2.661-15.429,7.178-21.344c6.451-8.518,16.673-14.031,28.196-14.031c9.762,0,18.606,3.962,25.019,10.356
	C443.57,156.985,444.24,157.712,444.872,158.459z"/>
<path style="fill:#B7B7E5;" d="M287.134,449.621c-26.261,0.899-55.127-5.774-82.328-20.656
	c-64.26-35.148-94.907-102.784-68.494-151.084c14.176-25.872,41.842-40.94,74.399-43.932c-27.34,5.375-50.131,19.823-62.575,42.564
	c-26.678,48.721,4.259,116.978,69.07,152.438C240.196,441.522,264.346,448.282,287.134,449.621z"/>
<path style="fill:#B7B7E5;" d="M553.051,328.767c26.261,0.899,55.127-5.774,82.328-20.656
	c64.26-35.148,94.907-102.784,68.494-151.084c-14.176-25.872-41.842-40.94-74.399-43.932c27.34,5.375,50.131,19.823,62.575,42.564
	c26.678,48.721-4.259,116.978-69.07,152.438C599.989,320.668,575.839,327.428,553.051,328.767z"/>
<path style="fill:#B7B7E5;" d="M547,300.661c18.083,0.619,37.959-3.976,56.689-14.223c44.248-24.202,65.351-70.775,47.163-104.033
	c-9.761-17.815-28.811-28.19-51.229-30.251c18.826,3.701,34.519,13.65,43.088,29.308c18.37,33.548-2.933,80.549-47.56,104.965
	C579.32,295.083,562.691,299.738,547,300.661z"/>
<path style="fill:#B7B7E5;" d="M268.645,413.338c-17.991-1.922-37.027-9.258-54.135-22.03
	c-40.418-30.167-54.783-79.238-32.112-109.618c12.162-16.27,32.479-23.873,54.965-22.77c-19.158,1.025-36.092,8.675-46.771,22.978
	c-22.891,30.641-8.389,80.164,32.374,110.597C237.425,403.285,253.237,410.225,268.645,413.338z"/>
<ellipse style="fill:#B7B7E5;" cx="640.474" cy="211.417" rx="12.265" ry="9.554"/>
<ellipse style="fill:#B7B7E5;" cx="626.22" cy="225.004" rx="6.132" ry="4.777"/>
<ellipse style="fill:#2B2B3F;" cx="198.958" cy="748.037" rx="48.611" ry="14.964"/>
<path style="fill:#2B2B3F;" d="M94.471,94.536l-25.799,14.895c-2.806,1.62-4.534,4.614-4.534,7.853v29.79
	c0,3.24,1.728,6.234,4.534,7.853l25.799,14.895c2.806,1.62,6.263,1.62,9.068,0l25.799-14.895c2.806-1.62,4.534-4.614,4.534-7.853
	v-29.79c0-3.24-1.728-6.234-4.534-7.853l-25.799-14.895C100.733,92.916,97.276,92.916,94.471,94.536z"/>
<path style="fill:#2B2B3F;" d="M169.494,94.536l-25.799,14.895c-2.806,1.62-4.534,4.614-4.534,7.853v29.79
	c0,3.24,1.728,6.234,4.534,7.853l25.799,14.895c2.806,1.62,6.263,1.62,9.068,0l25.799-14.895c2.806-1.62,4.534-4.614,4.534-7.853
	v-29.79c0-3.24-1.728-6.234-4.534-7.853l-25.799-14.895C175.757,92.916,172.3,92.916,169.494,94.536z"/>
<path style="fill:#2B2B3F;" d="M133.058,29.512l-25.799,14.895c-2.806,1.62-4.534,4.614-4.534,7.853v29.79
	c0,3.24,1.728,6.234,4.534,7.853l25.799,14.895c2.806,1.62,6.263,1.62,9.068,0l25.799-14.895c2.806-1.62,4.534-4.614,4.534-7.853
	V52.26c0-3.24-1.728-6.234-4.534-7.853l-25.799-14.895C139.32,27.892,135.864,27.892,133.058,29.512z"/>
<path style="fill:#686889;" d="M206.618,506.697h-43.659c-2.419,0-4.38-1.961-4.38-4.38v-1.72c0-2.419,1.961-4.38,4.38-4.38h43.659
	c2.419,0,4.38,1.961,4.38,4.38v1.72C210.998,504.736,209.037,506.697,206.618,506.697z"/>
<path style="fill:#686889;" d="M184.507,525.841h-21.548c-2.419,0-4.38-1.961-4.38-4.38v-1.72c0-2.419,1.961-4.38,4.38-4.38h21.548
	c2.419,0,4.38,1.961,4.38,4.38v1.72C188.887,523.88,186.926,525.841,184.507,525.841z"/>
<path style="fill:#2B2B3F;" d="M320.595,354.908l6.295,24.912c0.704,2.788,2.194,5.315,4.292,7.281l27.803,26.061
	c1.474,1.382,3.667-0.579,2.459-2.198l-16.6-22.241c-1.067-1.43-1.753-3.108-1.992-4.876l-2.877-21.231
	c-0.489-3.611-2.775-6.729-6.071-8.283l-8.019-3.78C322.989,349.188,319.811,351.805,320.595,354.908z"/>
<path style="fill:#2B2B3F;" d="M39.378,387.409c-3.412,1.706-6.21,4.451-7.987,7.821c-0.476,0.902-1.821,0.902-2.297,0
	c-1.777-3.37-4.575-6.115-7.987-7.821c-0.926-0.463-0.926-1.816,0-2.279c3.412-1.706,6.21-4.451,7.987-7.821
	c0.476-0.902,1.821-0.902,2.297,0c1.777,3.37,4.575,6.115,7.987,7.821C40.304,385.593,40.304,386.947,39.378,387.409z"/>
<path style="fill:#2B2B3F;" d="M74.054,342.062c-7.882,3.941-14.346,10.281-18.451,18.067c-1.099,2.084-4.206,2.084-5.305,0
	c-4.105-7.786-10.569-14.126-18.451-18.067c-2.139-1.069-2.138-4.196,0-5.266c7.882-3.941,14.346-10.281,18.451-18.067
	c1.099-2.084,4.206-2.084,5.305,0c4.105,7.786,10.569,14.126,18.451,18.067C76.192,337.865,76.192,340.992,74.054,342.062z"/>
<path style="fill:#2B2B3F;" d="M776.694,348.923c-7.882,3.941-14.346,10.281-18.451,18.067c-1.099,2.084-4.206,2.084-5.305,0
	c-4.105-7.786-10.569-14.126-18.451-18.067c-2.138-1.069-2.138-4.196,0-5.266c7.882-3.941,14.346-10.281,18.451-18.067
	c1.099-2.084,4.206-2.084,5.305,0c4.105,7.786,10.569,14.126,18.451,18.067C778.832,344.726,778.832,347.853,776.694,348.923z"/>
<path style="fill:#686889;" d="M728.519,312.048c-4.795,2.397-8.727,6.255-11.224,10.991c-0.669,1.268-2.559,1.268-3.227,0
	c-2.497-4.736-6.43-8.593-11.224-10.991c-1.301-0.65-1.301-2.553,0-3.203c4.795-2.397,8.727-6.254,11.224-10.991
	c0.669-1.268,2.559-1.268,3.227,0c2.497,4.736,6.43,8.593,11.224,10.991C729.82,309.495,729.82,311.397,728.519,312.048z"/>
<path style="fill:#686889;" d="M233.481,522.604c-2.643,1.322-4.811,3.448-6.188,6.059c-0.369,0.699-1.411,0.699-1.779,0
	c-1.377-2.611-3.545-4.738-6.188-6.059c-0.717-0.359-0.717-1.407,0-1.766c2.643-1.322,4.811-3.448,6.188-6.059
	c0.369-0.699,1.411-0.699,1.779,0c1.377,2.611,3.545,4.738,6.188,6.059C234.198,521.197,234.198,522.246,233.481,522.604z"/>
</svg>
