<?xml version="1.0" encoding="iso-8859-1"?>
<!-- Generator: Adobe Illustrator 24.0.1, SVG Export Plug-In . SVG Version: 6.00 Build 0)  -->
<svg version="1.1" id="Layer_1" xmlns="http://www.w3.org/2000/svg" xmlns:xlink="http://www.w3.org/1999/xlink" x="0px" y="0px"
	 viewBox="0 0 712 736" style="enable-background:new 0 0 712 736;" xml:space="preserve">
<g>
	<g>
		<g>
			<g>
				<path style="fill:#64FF73;" d="M302.337,694.495c-5.716,0-11.34-1.502-16.264-4.342L98.594,581.91
					c-2.939-1.701-4.693-4.741-4.693-8.134c0-3.391,1.754-6.429,4.692-8.13l339.218-195.847c0.573-0.328,1.281-0.328,1.85,0
					l202.825,117.098c2.938,1.7,4.689,4.738,4.689,8.132c0,3.393-1.754,6.434-4.689,8.129l-323.88,186.995
					C313.678,692.993,308.053,694.495,302.337,694.495z M438.737,373.538L100.444,568.851c-1.78,1.029-2.843,2.869-2.843,4.925
					c0,2.058,1.063,3.901,2.845,4.93l187.478,108.244c8.722,5.032,20.103,5.032,28.833,0l323.878-186.995
					c1.779-1.027,2.842-2.869,2.842-4.925c0-2.056-1.063-3.898-2.842-4.927L438.737,373.538z"/>
			</g>
			<g>
				<g>
					<g>
						<g>
							<g>
								<path style="fill:#686889;" d="M439.154,294.133l-45.122-267.7l3.628-1.528l-5.452-3.125l0.009,0.032
									c-1.057-0.704-2.554-0.661-4.201,0.29l-360.614,208.2c-2.961,1.71-5.202,6.094-4.682,9.16l45.48,269.828
									c0.239,1.406,0.933,2.338,1.9,2.746l-0.006,0.002l5.335,3.082l0.916-4.98l-0.304,0.093l358.43-206.94
									C437.433,301.584,439.675,297.199,439.154,294.133z"/>
								<path style="fill:#686889;" d="M29.412,237.622l-5.929-2.623c-0.665,1.518-0.992,3.115-0.763,4.463l45.48,269.828
									c0.239,1.406,0.933,2.338,1.9,2.746l-0.006,0.002l5.335,3.082l0.916-4.98l-0.304,0.093l18.137-10.472L29.412,237.622z"/>
								<path style="fill:#515170;" d="M439.154,294.133l-45.122-267.7l2.759-1.162c-0.94-1.699-2.907-2.077-5.154-0.781
									L31.024,232.691c-2.961,1.71-5.202,6.095-4.682,9.16L71.822,511.68c0.119,0.703,0.355,1.286,0.678,1.747l2.119,1.225
									c0.287,0.025,0.59,0.012,0.905-0.039l0.823-4.473l-0.304,0.092l358.43-206.939
									C437.433,301.583,439.675,297.199,439.154,294.133z"/>
								<path style="fill:#8D8DB5;" d="M440.13,306.539l-360.614,208.2c-2.784,1.607-5.168,0.679-5.657-2.203l-45.48-269.828
									c-0.52-3.066,1.721-7.45,4.682-9.16l360.614-208.2c2.784-1.607,5.168-0.679,5.657,2.203l45.48,269.828
									C445.332,300.444,443.091,304.829,440.13,306.539z"/>
								<g>
									<polygon style="fill:#2B2B3F;" points="388.96,42.57 41.358,243.259 84.463,497.381 431.833,296.827 									"/>
								</g>
							</g>
							<g>
								<path style="fill:#686889;" d="M666.811,434.286l-19.68,10.278L449.796,330.631c-3.302-1.906-9.068-1.667-12.881,0.534
									L96.565,527.667c-3.257-1.822-18.107-8.963-18.107-8.963l7.204,18.77c0,0,0.025-0.02,0.029-0.023
									c0.298,0.835,0.939,1.613,2.014,2.235L295.54,659.678c3.301,1.907,9.068,1.668,12.88-0.533l348.285-201.083
									c1.566-0.904,2.524-1.998,2.922-3.107l0.027,0.018L666.811,434.286z"/>
								<path style="fill:#8D8DB5;" d="M663.769,437.521L306.823,643.605c-3.907,2.256-9.817,2.501-13.201,0.547L80.618,521.174
									c-3.384-1.953-2.959-5.366,0.948-7.621L438.512,307.47c3.907-2.256,9.817-2.501,13.201-0.547L664.717,429.9
									C668.1,431.854,667.676,435.266,663.769,437.521z"/>
								<path style="fill:#515170;" d="M663.769,435.464L306.823,641.547c-3.907,2.256-9.817,2.501-13.201,0.547L80.618,519.117
									c-1.108-0.64-1.766-1.442-2.069-2.302c-0.535,1.604,0.107,3.227,2.069,4.359l213.003,122.978
									c3.384,1.953,9.294,1.708,13.201-0.547l356.946-206.083c2.628-1.517,3.639-3.551,3.017-5.319
									C666.398,433.364,665.41,434.516,663.769,435.464z"/>
								<path style="fill:#2842A2;" d="M199.158,599.026v-3.915c0-0.371,0.226-0.542,0.504-0.381l13.807,7.971
									c0.278,0.161,0.504,0.592,0.504,0.963v3.915c0,0.371-0.226,0.542-0.504,0.381l-13.807-7.971
									C199.383,599.828,199.158,599.397,199.158,599.026z"/>
								<path style="fill:#2842A2;" d="M219.804,610.946v-3.915c0-0.371,0.226-0.541,0.504-0.381l13.807,7.971
									c0.278,0.161,0.504,0.592,0.504,0.963v3.915c0,0.371-0.226,0.542-0.504,0.381l-13.807-7.971
									C220.029,611.748,219.804,611.317,219.804,610.946z"/>
								<linearGradient id="SVGID_1_" gradientUnits="userSpaceOnUse" x1="135.0115" y1="456.518" x2="545.9271" y2="456.518">
									<stop  offset="0" style="stop-color:#C0BFF6"/>
									<stop  offset="0.2938" style="stop-color:#C5C4F7"/>
									<stop  offset="0.6399" style="stop-color:#D3D2F9"/>
									<stop  offset="1" style="stop-color:#E9E9FD"/>
								</linearGradient>
								<path style="fill:url(#SVGID_1_);" d="M136.15,509.656l296.623-171.255c1.978-1.142,4.414-1.141,6.391,0.003l105.626,61.112
									c1.517,0.877,1.516,3.067-0.002,3.944L248.304,574.635c-1.975,1.14-4.409,1.141-6.384,0l-105.769-61.034
									C134.632,512.725,134.632,510.533,136.15,509.656z"/>
								<path style="fill:#9198DB;" d="M136.151,513.601l1.062,0.613l295.56-170.642c1.978-1.142,4.414-1.141,6.391,0.003
									l104.564,60.497l1.061-0.613c1.517-0.876,1.518-3.066,0.002-3.944l-105.626-61.112c-1.977-1.144-4.413-1.145-6.391-0.003
									L136.15,509.656C134.632,510.533,134.632,512.725,136.151,513.601z"/>
								<g>
									<polygon style="fill:#8D8DB5;" points="447.135,353.882 189.477,502.641 178.02,496.026 435.678,347.267 									"/>
									<polygon style="fill:#8D8DB5;" points="475.222,370.098 233.548,509.628 222.091,503.014 463.765,363.483 									"/>
									<polygon style="fill:#8D8DB5;" points="493.515,380.659 208.97,544.941 197.514,538.327 482.059,374.045 									"/>
									<polygon style="fill:#8D8DB5;" points="511.808,391.221 227.264,555.503 215.807,548.889 500.352,384.606 									"/>
									<polygon style="fill:#8D8DB5;" points="530.102,401.783 245.557,566.065 234.1,559.45 518.645,395.168 									"/>
									<polygon style="fill:#8D8DB5;" points="173.908,511.629 162.452,518.243 150.995,511.629 162.451,505.015 									"/>
									<polygon style="fill:#8D8DB5;" points="214.317,520.731 190.539,534.459 179.082,527.845 202.861,514.116 									"/>
								</g>
								<linearGradient id="SVGID_2_" gradientUnits="userSpaceOnUse" x1="375.8367" y1="508.9549" x2="526.5189" y2="508.9549">
									<stop  offset="0" style="stop-color:#C0BFF6"/>
									<stop  offset="0.2938" style="stop-color:#C5C4F7"/>
									<stop  offset="0.6399" style="stop-color:#D3D2F9"/>
									<stop  offset="1" style="stop-color:#E9E9FD"/>
								</linearGradient>
								<path style="fill:url(#SVGID_2_);" d="M444.194,551.099l79.98-46.177c3.126-1.805,3.126-4.731,0-6.536l-54.693-31.577
									c-3.126-1.805-8.194-1.805-11.32,0l-79.98,46.177c-3.126,1.805-3.126,4.731,0,6.536l54.693,31.577
									C436,552.904,441.068,552.904,444.194,551.099z"/>
								<path style="fill:#9198DB;" d="M378.181,515.661l79.98-46.177c3.126-1.805,8.194-1.805,11.32,0l54.693,31.577
									c0.965,0.557,1.595,1.226,1.964,1.931c0.827-1.579,0.196-3.357-1.964-4.605l-54.693-31.577
									c-3.126-1.805-8.194-1.805-11.32,0l-79.98,46.177c-2.161,1.248-2.792,3.026-1.965,4.605
									C376.586,516.887,377.216,516.218,378.181,515.661z"/>
							</g>
						</g>
						<g style="opacity:0.11;">
							<defs>
								<polygon id="SVGID_4_" style="opacity:0.11;" points="388.96,42.57 41.358,243.259 84.463,497.381 431.833,296.827 								
									"/>
							</defs>
							<clipPath id="SVGID_3_">
								<use xlink:href="#SVGID_4_"  style="overflow:visible;"/>
							</clipPath>
							<g style="clip-path:url(#SVGID_3_);">
								
									<linearGradient id="SVGID_5_" gradientUnits="userSpaceOnUse" x1="2329.9326" y1="345.0611" x2="2918.5994" y2="345.0611" gradientTransform="matrix(1 0 0 1 -2278.6904 0)">
									<stop  offset="0" style="stop-color:#C0BFF6"/>
									<stop  offset="0.2938" style="stop-color:#C5C4F7"/>
									<stop  offset="0.6399" style="stop-color:#D3D2F9"/>
									<stop  offset="1" style="stop-color:#E9E9FD"/>
								</linearGradient>
								<path style="fill:url(#SVGID_5_);" d="M438.864,307.045L81.918,513.129c-3.907,2.256-9.817,2.501-13.201,0.547
									l-213.003-122.977c-3.384-1.954-2.959-5.366,0.948-7.622l356.946-206.083c3.907-2.256,9.817-2.501,13.201-0.547
									l213.003,122.978C443.196,301.378,442.771,304.79,438.864,307.045z"/>
								
									<linearGradient id="SVGID_6_" gradientUnits="userSpaceOnUse" x1="2291.1885" y1="301.8487" x2="2441.8706" y2="301.8487" gradientTransform="matrix(1 0 0 1 -2278.6904 0)">
									<stop  offset="0" style="stop-color:#C0BFF6"/>
									<stop  offset="0.2938" style="stop-color:#C5C4F7"/>
									<stop  offset="0.6399" style="stop-color:#D3D2F9"/>
									<stop  offset="1" style="stop-color:#E9E9FD"/>
								</linearGradient>
								<path style="fill:url(#SVGID_6_);" d="M80.855,343.993l79.98-46.177c3.126-1.805,3.126-4.731,0-6.536l-54.693-31.577
									c-3.126-1.805-8.194-1.805-11.32,0l-79.98,46.177c-3.126,1.805-3.126,4.731,0,6.536l54.693,31.577
									C72.661,345.798,77.729,345.798,80.855,343.993z"/>
								<path style="fill:#9198DB;" d="M14.843,308.555l79.98-46.177c3.126-1.805,8.194-1.805,11.32,0l54.693,31.577
									c0.965,0.557,1.595,1.226,1.964,1.931c0.827-1.579,0.196-3.357-1.964-4.605l-54.693-31.577
									c-3.126-1.805-8.194-1.805-11.32,0l-79.98,46.177c-2.161,1.248-2.792,3.027-1.965,4.605
									C13.247,309.781,13.878,309.112,14.843,308.555z"/>
								<g>
									<path style="fill:#ADB1F2;" d="M-20.316,416.157l296.623-171.255c1.978-1.142,4.414-1.141,6.391,0.003l105.627,61.112
										c1.517,0.877,1.516,3.067-0.002,3.944L91.837,481.135c-1.975,1.14-4.409,1.141-6.384,0l-105.769-61.034
										C-21.835,419.225-21.835,417.033-20.316,416.157z"/>
									<path style="fill:#9198DB;" d="M-20.316,420.102l1.062,0.613l295.56-170.642c1.978-1.142,4.414-1.141,6.391,0.003
										l104.564,60.497l1.061-0.613c1.517-0.876,1.518-3.066,0.002-3.944l-105.627-61.112c-1.977-1.144-4.413-1.145-6.391-0.003
										L-20.316,416.157C-21.835,417.033-21.835,419.225-20.316,420.102z"/>
									<g>
										<polygon style="fill:#24126A;" points="360.681,301.849 102.271,451.042 112.507,456.952 370.917,307.759 										"/>
										<polygon style="fill:#24126A;" points="333.454,286.129 87.839,427.934 98.075,433.844 343.69,292.039 										"/>
										<polygon style="fill:#24126A;" points="69.499,438.523 46.559,451.768 56.795,457.677 79.735,444.433 										"/>
										<polygon style="fill:#24126A;" points="89.76,458.265 73.787,467.487 84.023,473.397 99.996,464.175 										"/>
										<polygon style="fill:#24126A;" points="316.393,276.279 29.499,441.918 39.735,447.828 326.629,282.189 										"/>
										<polygon style="fill:#24126A;" points="299.333,266.429 12.438,432.068 22.675,437.978 309.569,272.339 										"/>
										<polygon style="fill:#24126A;" points="282.273,256.58 -4.622,422.218 5.614,428.128 292.509,262.489 										"/>
									</g>
								</g>
							</g>
						</g>
					</g>
				</g>
			</g>
			<g>
				<polygon style="fill:#64FF73;" points="172.246,400.493 200.369,384.239 201.193,389.121 173.071,405.375 				"/>
				<polygon style="fill:#64FF73;" points="204.891,381.643 220.215,372.786 221.04,377.67 205.716,386.526 				"/>
				<polygon style="fill:#64FF73;" points="244.057,359.026 255.144,352.618 255.969,357.501 244.882,363.909 				"/>
				<polygon style="fill:#64FF73;" points="235.971,363.699 239.76,361.509 240.585,366.392 236.796,368.582 				"/>
				<polygon style="fill:#64FF73;" points="224.794,370.159 231.675,366.182 232.499,371.065 225.619,375.042 				"/>
				<polygon style="fill:#64FF73;" points="194.497,363.142 205.584,356.734 206.409,361.618 195.322,368.025 				"/>
				<polygon style="fill:#64FF73;" points="168.478,378.181 190.201,365.625 191.025,370.509 169.302,383.064 				"/>
				<g>
					<polygon style="fill:#64FF73;" points="199.622,299.036 221.345,286.481 222.17,291.364 200.447,303.92 					"/>
					<polygon style="fill:#64FF73;" points="188.445,305.496 195.325,301.52 196.15,306.402 189.27,310.379 					"/>
				</g>
				<polygon style="fill:#64FF73;" points="203.247,321.377 224.97,308.822 225.795,313.705 204.072,326.261 				"/>
				<polygon style="fill:#64FF73;" points="192.071,327.837 198.951,323.86 199.775,328.743 192.895,332.72 				"/>
				<polygon style="fill:#64FF73;" points="183.587,202.624 142.665,226.275 141.84,221.393 182.762,197.741 				"/>
				<polygon style="fill:#64FF73;" points="198.009,194.289 187.884,200.141 187.059,195.258 197.184,189.406 				"/>
				<polygon style="fill:#64FF73;" points="269.921,189.544 228.999,213.195 228.174,208.312 269.096,184.661 				"/>
				<polygon style="fill:#64FF73;" points="284.343,181.209 274.217,187.061 273.393,182.177 283.518,176.325 				"/>
				<polygon style="fill:#64FF73;" points="155.636,231.022 144.549,237.431 143.724,232.547 154.811,226.139 				"/>
				<polygon style="fill:#64FF73;" points="223.09,216.554 212.003,222.962 211.178,218.079 222.265,211.671 				"/>
				<polygon style="fill:#64FF73;" points="181.655,215.984 159.933,228.539 159.108,223.656 180.831,211.101 				"/>
				<polygon style="fill:#64FF73;" points="192.832,209.525 185.952,213.501 185.127,208.618 192.007,204.641 				"/>
				<polygon style="fill:#64FF73;" points="219.051,194.397 197.328,206.952 196.504,202.069 218.226,189.514 				"/>
				<polygon style="fill:#64FF73;" points="230.228,187.937 223.348,191.913 222.523,187.03 229.403,183.054 				"/>
				<polygon style="fill:#64FF73;" points="221.205,205.393 210.118,211.801 209.294,206.918 220.381,200.51 				"/>
				<polygon style="fill:#64FF73;" points="247.225,190.355 225.502,202.91 224.677,198.027 246.4,185.472 				"/>
				<polygon style="fill:#64FF73;" points="258.401,183.896 251.521,187.872 250.697,182.989 257.577,179.013 				"/>
				<polygon style="fill:#64FF73;" points="169.118,235.474 146.433,248.585 145.608,243.702 168.293,230.591 				"/>
				<polygon style="fill:#64FF73;" points="189.819,223.51 173.414,232.991 172.589,228.108 188.994,218.626 				"/>
				<polygon style="fill:#64FF73;" points="205.202,214.619 194.115,221.027 193.291,216.143 204.378,209.736 				"/>
				<polygon style="fill:#64FF73;" points="312.727,164.852 290.042,177.963 289.217,173.08 311.902,159.969 				"/>
				<polygon style="fill:#64FF73;" points="333.428,152.888 317.023,162.369 316.198,157.486 332.603,148.004 				"/>
				<polygon style="fill:#64FF73;" points="348.811,143.997 337.724,150.404 336.9,145.521 347.987,139.113 				"/>
				<polygon style="fill:#64FF73;" points="303.867,312.25 326.552,299.139 327.377,304.022 304.692,317.133 				"/>
				<polygon style="fill:#64FF73;" points="283.166,324.215 299.571,314.733 300.396,319.617 283.991,329.098 				"/>
				<polygon style="fill:#64FF73;" points="267.783,333.106 278.87,326.698 279.694,331.581 268.608,337.989 				"/>
				<polygon style="fill:#64FF73;" points="296.338,328.891 319.022,315.78 319.847,320.663 297.162,333.774 				"/>
				<polygon style="fill:#64FF73;" points="275.636,340.855 292.041,331.374 292.865,336.258 276.461,345.739 				"/>
				<polygon style="fill:#64FF73;" points="260.253,349.747 271.34,343.339 272.164,348.222 261.077,354.63 				"/>
				<polygon style="fill:#64FF73;" points="204.742,308.26 212.404,303.832 213.229,308.716 205.567,313.144 				"/>
				<polygon style="fill:#64FF73;" points="190.32,316.596 200.445,310.744 201.27,315.628 191.145,321.479 				"/>
				<polygon style="fill:#64FF73;" points="171.148,246.564 148.464,259.674 147.639,254.791 170.323,241.68 				"/>
				<polygon style="fill:#64FF73;" points="191.85,234.599 175.445,244.08 174.62,239.197 191.025,229.716 				"/>
				<polygon style="fill:#64FF73;" points="207.233,225.708 196.146,232.116 195.321,227.233 206.408,220.825 				"/>
				<polygon style="fill:#64FF73;" points="158.009,266.401 150.348,270.829 149.523,265.946 157.184,261.518 				"/>
				<polygon style="fill:#64FF73;" points="172.431,258.065 162.306,263.917 161.481,259.034 171.607,253.182 				"/>
				<polygon style="fill:#64FF73;" points="193.042,246.153 176.728,255.582 175.903,250.699 192.218,241.27 				"/>
				<polygon style="fill:#64FF73;" points="215.166,339.018 222.827,334.59 223.652,339.474 215.991,343.902 				"/>
				<polygon style="fill:#64FF73;" points="200.744,347.354 210.869,341.503 211.694,346.386 201.568,352.237 				"/>
				<polygon style="fill:#64FF73;" points="180.132,359.266 196.447,349.838 197.272,354.721 180.957,364.15 				"/>
				<polygon style="fill:#64FF73;" points="226.836,320.908 243.15,311.48 243.975,316.363 227.661,325.792 				"/>
				<polygon style="fill:#64FF73;" points="200.152,335.455 222.142,322.745 222.967,327.628 200.977,340.338 				"/>
				<polygon style="fill:#64FF73;" points="188.976,341.914 195.856,337.938 196.681,342.821 189.8,346.797 				"/>
				<polygon style="fill:#64FF73;" points="178.249,348.114 185.13,344.137 185.954,349.02 179.074,352.997 				"/>
				<g>
					<polygon style="fill:#64FF73;" points="179.723,285.08 201.445,272.525 202.27,277.408 180.547,289.963 					"/>
					<polygon style="fill:#64FF73;" points="168.546,291.54 175.426,287.563 176.251,292.446 169.37,296.423 					"/>
					<polygon style="fill:#64FF73;" points="181.218,271.963 188.879,267.535 189.704,272.418 182.042,276.846 					"/>
					<polygon style="fill:#64FF73;" points="208.267,280.901 215.929,276.473 216.754,281.356 209.092,285.784 					"/>
					<polygon style="fill:#64FF73;" points="219.19,274.596 237.575,263.977 238.4,268.86 220.014,279.479 					"/>
					<polygon style="fill:#64FF73;" points="240.836,262.1 251.772,255.782 252.597,260.665 241.661,266.983 					"/>
					<polygon style="fill:#64FF73;" points="166.795,280.299 176.921,274.447 177.745,279.33 167.62,285.182 					"/>
					<g>
						<polygon style="fill:#64FF73;" points="165.841,268.837 173.503,264.409 174.327,269.292 166.666,273.72 						"/>
						<polygon style="fill:#64FF73;" points="151.419,277.173 161.544,271.321 162.369,276.204 152.244,282.056 						"/>
					</g>
					<polygon style="fill:#64FF73;" points="197.15,287.318 204.03,283.342 204.855,288.225 197.974,292.202 					"/>
					<polygon style="fill:#64FF73;" points="186.423,293.518 193.304,289.541 194.129,294.424 187.248,298.402 					"/>
				</g>
				<polygon style="fill:#64FF73;" points="239.272,349.582 262.741,336.017 263.566,340.9 240.097,354.464 				"/>
				<polygon style="fill:#64FF73;" points="212.986,364.774 234.976,352.064 235.8,356.948 213.81,369.657 				"/>
				<polygon style="fill:#64FF73;" points="201.809,371.234 208.689,367.258 209.514,372.14 202.634,376.117 				"/>
				<polygon style="fill:#64FF73;" points="191.082,377.433 197.963,373.457 198.788,378.339 191.907,382.317 				"/>
				<polygon style="fill:#64FF73;" points="185.219,380.822 170.373,389.402 171.198,394.286 186.043,385.706 				"/>
			</g>
		</g>
	</g>
	<g>
		<polygon style="opacity:0.6;fill:#64FF73;" points="511.809,710.536 446.615,672.896 511.808,635.258 577.001,672.898 		"/>
		<path style="fill:#64FF73;" d="M511.809,712.386c-0.318,0-0.639-0.084-0.926-0.248L445.69,674.5
			c-0.571-0.331-0.924-0.941-0.924-1.602c0-0.662,0.353-1.272,0.924-1.602l65.19-37.638c0.573-0.328,1.279-0.328,1.852,0
			l65.195,37.638c0.571,0.331,0.924,0.941,0.924,1.602c0,0.662-0.353,1.271-0.924,1.602l-65.193,37.638
			C512.448,712.302,512.127,712.386,511.809,712.386z M450.316,672.897l61.493,35.502l61.493-35.502l-61.495-35.502L450.316,672.897
			z"/>
	</g>
	<g>
		<polygon style="opacity:0.6;fill:#64FF73;" points="655.947,674.754 621.741,655.006 655.946,635.258 690.151,655.006 		"/>
		<polygon style="opacity:0.6;fill:#64FF73;" points="655.947,655.006 621.741,635.258 655.946,615.51 690.151,635.258 		"/>
		<polygon style="opacity:0.6;fill:#64FF73;" points="655.947,635.258 621.741,615.51 655.946,595.762 690.151,615.51 		"/>
		<path style="fill:#64FF73;" d="M655.946,676.604c-0.318,0-0.639-0.083-0.926-0.247l-34.206-19.748
			c-0.571-0.331-0.924-0.941-0.924-1.602c0-0.661,0.353-1.272,0.924-1.602l34.206-19.748c0.573-0.328,1.279-0.328,1.852,0
			l34.204,19.748c0.571,0.331,0.924,0.941,0.924,1.602c0,0.662-0.353,1.272-0.924,1.602l-34.204,19.748
			C656.586,676.521,656.265,676.604,655.946,676.604z M625.44,655.007l30.506,17.612l30.504-17.612l-30.504-17.611L625.44,655.007z"
			/>
	</g>
</g>
</svg>
