<?xml version="1.0" encoding="utf-8"?>
<!-- Generator: Adobe Illustrator 23.0.3, SVG Export Plug-In . SVG Version: 6.00 Build 0)  -->
<svg version="1.1" id="Layer_1" xmlns="http://www.w3.org/2000/svg" xmlns:xlink="http://www.w3.org/1999/xlink" x="0px" y="0px"
	 viewBox="0 0 216 170" style="enable-background:new 0 0 216 170;" xml:space="preserve">
<style type="text/css">
	.st0{fill:#1B1E33;}
	.st1{fill:#273366;}
	.st2{fill:#33498A;}
	.st3{fill:#FFFFFF;}
	.st4{fill:#1C2340;}
	.st5{fill:none;stroke:#20294A;stroke-width:7;stroke-miterlimit:10;}
	.st6{fill:#20294A;}
	.st7{fill:#F57A8C;}
	.st8{fill:#FF7D7D;}
	.st9{fill:#FF9191;}
	.st10{fill:#44549C;}
	.st11{fill:none;stroke:#20294A;stroke-width:5;stroke-miterlimit:10;}
	.st12{fill:#556AC2;}
	.st13{fill:none;stroke:#FFFFFF;stroke-width:2;stroke-miterlimit:10;}
	.st14{font-family:'MyriadPro-Regular';}
	.st15{font-size:16.797px;}
	.st16{fill:none;stroke:#5BE392;stroke-width:2;stroke-miterlimit:10;}
	.st17{fill:none;stroke:#75F4FF;stroke-width:2;stroke-miterlimit:10;}
	.st18{fill:#5BE392;}
	.st19{fill:none;stroke:#5BE392;stroke-width:2;stroke-linecap:round;stroke-miterlimit:10;}
	.st20{opacity:0.32;fill:#29335E;enable-background:new    ;}
</style>
<g id="Layer_3">
	<path class="st0" d="M200.1,170H15.9C7.1,170,0,162.9,0,154.1V15.9C0,7.1,7.1,0,15.9,0h184.2c8.8,0,15.9,7.1,15.9,15.9v138.2
		C216,162.9,208.9,170,200.1,170z"/>
</g>
<g id="Background">
	<path class="st1" d="M208.8,16.9v134.8c0,1.4-0.3,2.8-0.8,4.1c0,0,0,0.1,0,0.1c-0.3,0.8-0.8,1.5-1.3,2.1c-1.9,2.4-4.8,3.9-8,3.9
		H17.8c-5.6,0-10.2-4.6-10.2-10.2V16.9c0-5.6,4.6-10.2,10.2-10.2h180.9C204.2,6.8,208.8,11.3,208.8,16.9z"/>
</g>
<g id="Objects">
	<ellipse class="st2" cx="107.9" cy="93.1" rx="55.1" ry="55.1"/>
	<g>
		<path class="st1" d="M148.9,126.5H66.5l16.6-32.6c0.8-1.5,2.3-2.5,4-2.5H128c1.7,0,3.2,0.9,4,2.4L148.9,126.5z"/>
		<g>
			<path class="st3" d="M130.7,68.1v1.2c0-2.9-1.6-5.6-4.2-7l-15.3-8.2c-1.9-1-4.3-1.1-6.2-0.1l-16.3,8.3c-2.7,1.3-4.3,4.1-4.3,7.1
				v-1.2c0-3,1.7-5.7,4.3-7.1l16.3-8.3c2-1,4.3-1,6.2,0.1l15.3,8.2C129.1,62.5,130.7,65.1,130.7,68.1z"/>
			<path class="st1" d="M130.7,68.9v15.6c0,2.5-2,4.5-4.5,4.5H88.8c-2.5,0-4.5-2-4.5-4.5V69c0-3,1.7-5.7,4.3-7.1l16.3-8.3
				c2-1,4.3-1,6.2,0.1l15.3,8.2C129.1,63.3,130.7,65.9,130.7,68.9z"/>
		</g>
	</g>
	<g>
		<path class="st4" d="M107.9,134.1V97h-5.6l-4.5-1c-3.8-1.2-8-0.7-11.3,1.3l-28.7,17c-2.2,1.3-4.1,3.2-5.5,5.4l-6.8,11.4
			L107.9,134.1z"/>
		<path class="st4" d="M107.8,134.1V97h5.6l4.5-1c3.8-1.2,8-0.7,11.3,1.3l26.3,15.6c3.8,2.2,6.9,5.4,9.2,9.2l5.4,9.1L107.8,134.1z"
			/>
		<path class="st5" d="M111.2,64h-7.8c-3.8,0-6.9,3.1-6.9,6.9v3.5h21.6v-3.5C118.1,67.1,115,64,111.2,64z"/>
		<path class="st6" d="M95.5,84.5h3.2V72h-3.2c-0.8,0-1.4,0.6-1.5,1.5c0,0-0.3,1.4-0.3,4.5c0,3,0.3,5,0.3,5
			C94.2,83.9,94.7,84.5,95.5,84.5z"/>
		<path class="st6" d="M93.8,83.5h2.5V73h-2.5c-0.7,0-1.1,0.5-1.2,1.3c0,0-0.3,1.2-0.3,3.8c0,2.5,0.3,4.1,0.3,4.1
			C92.7,83,93.1,83.5,93.8,83.5z"/>
		<path class="st6" d="M119.6,84.5h-3.2V72h3.2c0.8,0,1.4,0.6,1.5,1.5c0,0,0.3,1.4,0.3,4.5c0,3-0.3,5-0.3,5
			C121,83.9,120.5,84.5,119.6,84.5z"/>
		<path class="st6" d="M121.4,83.5h-2.5V73h2.5c0.7,0,1.1,0.5,1.2,1.3c0,0,0.3,1.2,0.3,3.8c0,2.5-0.3,4.1-0.3,4.1
			C122.5,83,122.1,83.5,121.4,83.5z"/>
		<path class="st7" d="M99.2,85.3h-0.5c-0.7,0-1.3-0.6-1.3-1.3v-1.9c0-0.7,0.6-1.3,1.3-1.3h0.5c0.7,0,1.3,0.6,1.3,1.3V84
			C100.5,84.8,99.9,85.3,99.2,85.3z"/>
		<path class="st7" d="M117.2,85.3h-0.5c-0.7,0-1.3-0.6-1.3-1.3v-1.9c0-0.7,0.6-1.3,1.3-1.3h0.5c0.7,0,1.3,0.6,1.3,1.3V84
			C118.5,84.8,117.9,85.3,117.2,85.3z"/>
		<rect x="102.3" y="86.6" class="st8" width="11.1" height="10.4"/>
		<path class="st9" d="M108,68.6h-5.7c-3.4,0-5.9,3.1-5.3,6.4l2.3,12.4c0.3,1.8,1.6,3.4,3.3,4.1l2.2,1c2,0.9,4.2,0.9,6.2,0l2.2-1
			c1.7-0.7,3-2.3,3.3-4.1l1.8-9.5c0.6-3.2-1.2-9.3-4.5-9.3L108,68.6L108,68.6z"/>
		<path class="st4" d="M98,74.6l1.9-6.6c0.5-1.7,2.1-2.8,3.8-2.6l11.3,1.2c2,0.2,3.5,1.9,3.5,3.9v4.7c-0.5,2.4-2.8-0.5-5.2-0.6
			L98,74.6z"/>
		<path class="st4" d="M101.6,67h-1.3c-1.8,0-3.3,1.5-3.3,3.4v6.5h3.6L101.6,67z"/>
		<path class="st10" d="M120.7,76.9v3.3c0,2-1.7,3.5-3.6,3.2c-1.4-0.2-3.1-0.3-4.9-0.4c-0.8,0-1.6-0.1-2.4-0.1c-0.6,0-1.3,0-1.9,0
			c-1.6,0-3.2,0.1-4.6,0.1c-0.4,0-0.8,0.1-1.3,0.1c-0.5,0-0.9,0.1-1.3,0.1c-0.7,0.1-1.4,0.1-2,0.2c-0.2,0-0.4,0-0.5,0
			C96.4,83.4,95,82,95,80.2v-3.3c0-1.8,1.5-3.3,3.3-3.3h19.1C119.2,73.6,120.7,75.1,120.7,76.9z"/>
		<path class="st10" d="M120.7,76.9v3.9c0,2-1.7,3.5-3.6,3.2c-1.4-0.2-3.1-0.3-4.9-0.4c-0.8,0-1.6-0.1-2.4-0.1c-0.6,0-1.3,0-1.9,0
			c-1.6,0-3.2,0.1-4.6,0.1c-0.4,0-0.8,0.1-1.3,0.1c-0.5,0-0.9,0.1-1.3,0.1c-0.7,0.1-1.4,0.1-2,0.2c-0.2,0-0.4,0-0.5,0
			C96.4,84,95,82.6,95,80.8v-3.9c0-1.8,1.5-3.3,3.3-3.3h19.1C119.2,73.6,120.7,75.1,120.7,76.9z"/>
		<path class="st11" d="M95.8,83.5v1c0,2.2,1.1,4.2,2.9,5.5l4.3,2.9"/>
		<path class="st6" d="M104.7,92.5c0,0.6-0.6,1.1-1.3,1.1c-0.7,0-1.3-0.5-1.3-1.1c0-0.6,0.6-1.1,1.3-1.1
			C104.1,91.4,104.7,91.9,104.7,92.5z"/>
		<path class="st12" d="M115.5,73l-3.3,10c-0.8,0-1.6-0.1-2.4-0.1L113,73L115.5,73L115.5,73z"/>
		<path class="st12" d="M104,73l-3.4,10.2c-0.7,0.1-1.4,0.1-2,0.2c-0.2,0-0.4,0-0.5,0l3.5-10.4H104z"/>
		<path class="st3" d="M106.6,73l-3.3,10c-0.4,0-0.8,0.1-1.3,0.1l3.4-10.1H106.6z"/>
		<path class="st3" d="M108.2,73l-3.3,10c-0.2,0-0.4,0-0.6,0l3.3-10.1H108.2z"/>
		<path class="st3" d="M108.2,73l-3.3,10c-0.2,0-0.4,0-0.6,0l3.3-10.1H108.2z"/>
		<path class="st13" d="M106.8,136.5l-10.7-10.7c-0.8-0.8-0.8-2,0-2.8l10.7-10.7c0.8-0.8,2-0.8,2.8,0l10.7,10.7c0.8,0.8,0.8,2,0,2.8
			l-10.7,10.7C108.8,137.3,107.6,137.3,106.8,136.5z"/>
		<rect x="98" y="114.7" class="st4" width="20.4" height="20.4"/>
		<text transform="matrix(1 0 0 1 101.274 130.9294)" class="st10 st14 st15">G</text>
		<path class="st3" d="M120.7,76.3v0.6c0-1.8-1.5-3.3-3.3-3.3H98.3c-1.8,0-3.3,1.5-3.3,3.3v-0.6c0-1.8,1.5-3.3,3.3-3.3h19.1
			C119.2,73,120.7,74.5,120.7,76.3z"/>
		<path class="st8" d="M102.3,97l0.4,0.3c3.1,2.8,7.9,2.7,10.8-0.3l0,0H102.3z"/>
	</g>
	<g>
		<polyline class="st16" points="28.9,108.9 23.6,108.9 23.6,50.9 29.3,50.9 		"/>
		<polyline class="st17" points="187.2,108.9 191.9,108.9 191.9,50.9 186.8,50.9 		"/>
	</g>
	<g>
		<rect x="185" y="97" class="st18" width="2" height="7"/>
		<rect x="181.1" y="97" class="st18" width="2" height="7"/>
		<rect x="177.3" y="97" class="st18" width="2" height="7"/>
		<rect x="173.4" y="97" class="st18" width="2" height="7"/>
		<rect x="169.5" y="97" class="st18" width="2" height="7"/>
		<rect x="165.6" y="97" class="st18" width="2" height="7"/>
	</g>
	<g>
		<rect x="29.1" y="83.4" class="st10" width="31.9" height="8.4"/>
		<path class="st18" d="M57.3,79.5H29.1v3.7H61l0,0C61,81.2,59.3,79.5,57.3,79.5z"/>
		<path class="st3" d="M30.7,85.8h27c0.1,0,0.2-0.1,0.2-0.2l0,0c0-0.1-0.1-0.2-0.2-0.2h-27c-0.1,0-0.2,0.1-0.2,0.2l0,0
			C30.5,85.7,30.6,85.8,30.7,85.8z"/>
	</g>
	<g>
		<rect x="29.1" y="94.9" class="st10" width="31.9" height="8.4"/>
		<path class="st3" d="M30.7,97.5h27c0.1,0,0.2-0.1,0.2-0.2l0,0c0-0.1-0.1-0.2-0.2-0.2h-27c-0.1,0-0.2,0.1-0.2,0.2l0,0
			C30.5,97.4,30.6,97.5,30.7,97.5z"/>
		<path class="st3" d="M30.7,100.5h27c0.1,0,0.2-0.1,0.2-0.2l0,0c0-0.1-0.1-0.2-0.2-0.2h-27c-0.1,0-0.2,0.1-0.2,0.2l0,0
			C30.5,100.4,30.6,100.5,30.7,100.5z"/>
	</g>
	<g>
		<rect x="165.6" y="60.6" class="st10" width="21.4" height="33"/>
		<path class="st18" d="M165.6,60.7H187v-3.5h-18C167.1,57.2,165.6,58.8,165.6,60.7L165.6,60.7z"/>
		<path class="st3" d="M178.3,63.7h5.8c0.1,0,0.2-0.1,0.2-0.2l0,0c0-0.1-0.1-0.2-0.2-0.2h-5.8c-0.1,0-0.2,0.1-0.2,0.2l0,0
			C178.1,63.6,178.2,63.7,178.3,63.7z"/>
		<path class="st4" d="M181.2,68.4c0,0.9,0.7,1.6,1.6,1.6c0.9,0,1.6-0.7,1.6-1.6c0-0.9-0.7-1.6-1.6-1.6
			C181.9,66.8,181.2,67.5,181.2,68.4z"/>
		<path class="st3" d="M171.4,67.8h8.1c0.1,0,0.2-0.1,0.2-0.2l0,0c0-0.1-0.1-0.2-0.2-0.2h-8.1c-0.1,0-0.2,0.1-0.2,0.2l0,0
			C171.2,67.7,171.3,67.8,171.4,67.8z"/>
		<path class="st3" d="M177,69.2h2.5c0.1,0,0.2-0.1,0.2-0.2l0,0c0-0.1-0.1-0.2-0.2-0.2H177c-0.1,0-0.2,0.1-0.2,0.2l0,0
			C176.8,69.2,176.9,69.2,177,69.2z"/>
		<path class="st4" d="M181.2,75.2c0,0.9,0.7,1.6,1.6,1.6c0.9,0,1.6-0.7,1.6-1.6c0-0.9-0.7-1.6-1.6-1.6
			C181.9,73.6,181.2,74.3,181.2,75.2z"/>
		<path class="st3" d="M171.4,74.6h8.1c0.1,0,0.2-0.1,0.2-0.2l0,0c0-0.1-0.1-0.2-0.2-0.2h-8.1c-0.1,0-0.2,0.1-0.2,0.2l0,0
			C171.2,74.5,171.3,74.6,171.4,74.6z"/>
		<path class="st3" d="M171.3,76h8.2c0.1,0,0.2-0.1,0.2-0.2l0,0c0-0.1-0.1-0.2-0.2-0.2h-8.2c-0.1,0-0.2,0.1-0.2,0.2l0,0
			C171.1,75.9,171.2,76,171.3,76z"/>
		<path class="st4" d="M181.2,82c0,0.9,0.7,1.6,1.6,1.6c0.9,0,1.6-0.7,1.6-1.6s-0.7-1.6-1.6-1.6C181.9,80.4,181.2,81.1,181.2,82z"/>
		<path class="st3" d="M171.4,81.4h8.1c0.1,0,0.2-0.1,0.2-0.2l0,0c0-0.1-0.1-0.2-0.2-0.2h-8.1c-0.1,0-0.2,0.1-0.2,0.2l0,0
			C171.2,81.3,171.3,81.4,171.4,81.4z"/>
		<path class="st3" d="M173.6,82.8h5.8c0.1,0,0.2-0.1,0.2-0.2l0,0c0-0.1-0.1-0.2-0.2-0.2h-5.8c-0.1,0-0.2,0.1-0.2,0.2l0,0
			C173.4,82.7,173.5,82.8,173.6,82.8z"/>
		<path class="st4" d="M181.2,88.7c0,0.9,0.7,1.6,1.6,1.6c0.9,0,1.6-0.7,1.6-1.6c0-0.9-0.7-1.6-1.6-1.6
			C181.9,87.2,181.2,87.9,181.2,88.7z"/>
		<path class="st3" d="M171.4,88.2h8.1c0.1,0,0.2-0.1,0.2-0.2l0,0c0-0.1-0.1-0.2-0.2-0.2h-8.1c-0.1,0-0.2,0.1-0.2,0.2l0,0
			C171.2,88.1,171.3,88.2,171.4,88.2z"/>
		<path class="st3" d="M173.6,89.6h5.8c0.1,0,0.2-0.1,0.2-0.2l0,0c0-0.1-0.1-0.2-0.2-0.2h-5.8c-0.1,0-0.2,0.1-0.2,0.2l0,0
			C173.4,89.5,173.5,89.6,173.6,89.6z"/>
	</g>
	<path class="st10" d="M208.8,120.3v31.5c0,1.4-0.3,2.8-0.8,4.1l0.1,0.1c0,0-0.1,0-0.1,0c-0.3,0.8-0.8,1.5-1.3,2.1
		c-1.9,2.4-4.8,3.9-8,3.9H17.8c-5.6,0-10.2-4.6-10.2-10.2v-31.5c0,0,11.5,3.7,31.4,7.1c2.5,0.4,5.2,0.9,8,1.3c0.7,0.1,1.3,0.2,2,0.3
		c0.6,0.1,1.2,0.2,1.9,0.3c0.2,0,0.3,0,0.5,0.1c0.8,0.1,1.6,0.2,2.5,0.3c0.7,0.1,1.5,0.2,2.3,0.3h0c1.7,0.2,3.3,0.4,5.1,0.6
		c1.6,0.2,3.2,0.3,4.8,0.5c0.6,0.1,1.1,0.1,1.7,0.2h0c0,0,0,0,0,0c0.1,0,0.2,0,0.3,0h0c0.7,0.1,1.3,0.1,2,0.2h0
		c0.4,0,0.9,0.1,1.3,0.1c2,0.2,4.1,0.3,6.2,0.5c6.5,0.5,13.3,0.8,20.4,1c1.8,0,3.5,0.1,5.3,0.1c1.5,0,3,0,4.5,0h0.3
		c1.6,0,3.3,0,4.9,0c1.8,0,3.6-0.1,5.3-0.1c8.2-0.2,16-0.6,23.3-1.2c0,0,0,0,0,0c0.2,0,0.4,0,0.6-0.1c1.8-0.1,3.6-0.3,5.4-0.5
		c0.5-0.1,1-0.1,1.5-0.2c0.7-0.1,1.4-0.1,2-0.2c0.2,0,0.4,0,0.6-0.1c2.2-0.2,4.4-0.5,6.6-0.7c0.5-0.1,1.1-0.1,1.6-0.2
		c1.6-0.2,3.1-0.4,4.6-0.6c0.4-0.1,0.8-0.1,1.3-0.2c0,0,0.1,0,0.1,0c0.2,0,0.4-0.1,0.7-0.1c0.7-0.1,1.4-0.2,2-0.3
		c0.7-0.1,1.4-0.2,2.1-0.3c0.7-0.1,1.3-0.2,2-0.3C195.5,124.5,208.8,120.3,208.8,120.3z"/>
	<g>
		<path class="st18" d="M144,146.9c-2.6,0.3-5.2,0.6-7.7,0.8c-0.5,0.1-1-0.4-1-0.9l-0.1-3.7c0-0.5,0.4-0.9,0.8-1
			c2.5-0.3,5-0.5,7.4-0.8c0.5-0.1,1,0.3,1,0.8l0.4,3.7C144.9,146.4,144.5,146.9,144,146.9z"/>
		<path class="st4" d="M135.1,142.3l0.2,5.5c-0.5,0-1,0.1-1.5,0.1c-2.5,0.2-5.1,0.4-7.6,0.6c-0.6,0-1.1,0.1-1.7,0.1
			c-2.5,0.2-4.9,0.3-7.3,0.3l1.8-5.3c2.2-0.1,4.4-0.3,6.5-0.5c0.5,0,1-0.1,1.4-0.1c2.3-0.2,4.6-0.4,6.8-0.6
			C134.2,142.4,134.7,142.4,135.1,142.3z"/>
		<path class="st18" d="M176.1,142.2c-2.4,0.4-4.8,0.8-7.3,1.3c-0.4,0.1-0.8-0.1-1-0.5l-1.7-3.7c-0.3-0.6,0.1-1.2,0.7-1.3
			c2.3-0.4,4.5-0.8,6.6-1.2c0.4-0.1,0.7,0.1,1,0.4l2.5,3.7C177.1,141.4,176.8,142.1,176.1,142.2z"/>
		<path class="st4" d="M165.5,138.1l2.6,5.5c-0.5,0.1-1.1,0.2-1.6,0.3c-3,0.5-6,0.9-9.1,1.4c-0.5,0.1-0.9,0.1-1.4,0.2
			c-3.2,0.4-6.4,0.9-9.6,1.2c-0.5,0.1-0.9,0.1-1.4,0.2l-0.6-5.6c0.4-0.1,0.9-0.1,1.3-0.2c3.1-0.4,6.1-0.8,9-1.2
			c0.4-0.1,0.9-0.1,1.3-0.2c2.8-0.4,5.4-0.9,8-1.3C164.5,138.3,165,138.2,165.5,138.1z"/>
		<path class="st4" d="M208.8,128.2v7.2c-1.1,0.3-2.3,0.6-3.5,0.9c-0.6,0.2-1.3,0.3-2,0.5c-3.3,0.8-7.1,1.6-11.2,2.4
			c-0.6,0.1-1.2,0.2-1.8,0.4c-3.5,0.7-7.2,1.4-11,2.1c-0.6,0.1-1.2,0.2-1.8,0.3l-3.6-5.4c0.6-0.1,1.1-0.2,1.7-0.3
			c3.6-0.7,6.9-1.4,9.9-2.1c0.5-0.1,1-0.2,1.5-0.3c4-0.9,7.6-1.8,10.6-2.5c0,0,0,0,0,0c0.6-0.1,1.1-0.3,1.6-0.4
			C205.4,129.3,208.8,128.2,208.8,128.2z"/>
		<path class="st18" d="M156.8,153.6c-2.8,0.3-5.6,0.6-8.5,0.9c-0.5,0-1-0.3-1-0.8l-0.5-4.3c-0.1-0.5,0.3-1,0.8-1
			c2.7-0.3,5.4-0.6,8-1c0.5-0.1,0.9,0.2,1,0.7l1,4.4C157.7,153,157.4,153.6,156.8,153.6z"/>
		<path class="st4" d="M146.6,148.4l0.8,6.2c-0.5,0.1-1,0.1-1.6,0.1c-3.4,0.3-6.8,0.6-10.3,0.8c-0.6,0-1.1,0.1-1.7,0.1
			c-2.9,0.2-5.7,0.4-8.6,0.5c-0.7,0-1.4,0.1-2.1,0.1c-2.7,0.1-5.4,0.2-8.1,0.3c0,0-0.1,0-0.1,0c-0.1,0-0.2,0-0.3,0l2-6
			c2.5-0.1,5.1-0.2,7.6-0.3c0.6,0,1.2-0.1,1.8-0.1c2.6-0.2,5.2-0.3,7.8-0.6c0.5,0,1-0.1,1.5-0.1c3.3-0.3,6.6-0.6,9.8-0.9
			C145.6,148.5,146.1,148.5,146.6,148.4z"/>
		<path class="st18" d="M168.9,152.1c-2.8,0.4-5.7,0.8-8.7,1.1c-0.5,0.1-0.9-0.2-1-0.7l-1.1-4.5c-0.1-0.5,0.2-1.1,0.8-1.2
			c2.6-0.4,5.2-0.7,7.8-1.1c0.4-0.1,0.8,0.2,1,0.5l2,4.5C169.9,151.4,169.5,152,168.9,152.1z"/>
		<path class="st4" d="M157.8,147.1l1.6,6.3c-0.5,0.1-1,0.1-1.5,0.2l-1.4-6.2C156.9,147.2,157.3,147.1,157.8,147.1z"/>
		<path class="st4" d="M208.8,137.1v7.2c-1.8,0.5-4,1-6.5,1.7c-0.9,0.2-1.9,0.5-3,0.7c-0.7,0.2-1.5,0.3-2.2,0.5
			c-3.7,0.8-7.9,1.6-12.4,2.4c-0.6,0.1-1.2,0.2-1.9,0.3c-3.5,0.6-7.2,1.2-11,1.7c-0.6,0.1-1.2,0.2-1.7,0.2h0l-0.5-1.1l-2-4.5
			l-0.3-0.6c0.6-0.1,1.1-0.2,1.6-0.3c3.4-0.5,6.7-1.1,9.8-1.7h0c0.6-0.1,1.2-0.2,1.8-0.3c4-0.7,7.8-1.5,11.3-2.2
			c0.6-0.1,1.3-0.3,1.9-0.4c3.2-0.7,6.1-1.4,8.6-2c0.9-0.2,1.7-0.4,2.5-0.6c0.7-0.2,1.4-0.4,2-0.5
			C207.5,137.5,208.2,137.3,208.8,137.1z"/>
		<path class="st4" d="M208.8,151.8c0,1.4-0.3,2.8-0.8,4.1l0.1,0.1c0,0-0.1,0-0.1,0c-0.9,0.2-1.8,0.3-2.7,0.5
			c-4.4,0.8-9.2,1.5-14.4,2.2c-0.7,0.1-1.3,0.2-2,0.3c-4.1,0.5-8.4,1-12.9,1.5c-0.6,0.1-1.2,0.1-1.9,0.2c-4.1,0.4-8.3,0.8-12.6,1.2
			c-0.6,0-1.1,0.1-1.7,0.1c-0.5,0-0.9,0.1-1.4,0.1h-45.6l1.2-3.7c0.9,0,1.9,0,2.8-0.1c0,0,0.1,0,0.1,0c2-0.1,3.9-0.1,5.9-0.2
			c0.7,0,1.5-0.1,2.2-0.1c3-0.1,5.9-0.3,8.8-0.5c0.6,0,1.1-0.1,1.7-0.1v0c3.5-0.2,7-0.5,10.4-0.8c0.5,0,1.1-0.1,1.6-0.1
			c3.6-0.3,7.2-0.7,10.7-1.1c0.5-0.1,1-0.1,1.6-0.2c3.8-0.4,7.5-0.9,11.1-1.4c0.6-0.1,1.2-0.2,1.8-0.2c4-0.6,7.7-1.1,11.3-1.7
			c0.6-0.1,1.3-0.2,1.9-0.3c4.7-0.8,9-1.6,12.7-2.4h0c0.8-0.2,1.6-0.3,2.3-0.5c1.1-0.3,2.2-0.5,3.3-0.8c1.7-0.4,3.2-0.8,4.6-1.2
			V151.8z"/>
		<polygon class="st10" points="127.3,140.3 126.9,143.1 126.7,144.9 126.7,145 126.2,148.6 126,150.2 125.3,156.2 125,157.9 
			124.5,162 122.1,162 122.8,158 123.1,156.3 124.2,150.3 124.5,148.7 125.1,145.5 125.5,143.2 125.9,140.9 		"/>
		<path class="st10" d="M135.8,162h-1.8c0-1.5,0-3,0-4.5c0-0.6,0-1.2,0-1.7c0-2.1,0-4.1-0.1-6c0-0.6,0-1.1,0-1.7c0-2.1,0-4,0-5.5
			c0-0.2,0-0.5,0-0.7c0-1.9,0-3,0-3l1.2-1.5l0.1,3.8l0,1.3l0,0.8l0,0.4l0.1,4.3l0.1,1.7l0.2,6l0.1,1.7v0L135.8,162z"/>
		<polygon class="st10" points="148.3,162 146.6,162 146,156.5 145.8,154.7 145.1,148.6 145,146.8 144.9,146 144.9,146 144.9,145.9 
			144.7,144.7 144.4,142.2 144.4,142.2 144.4,142.1 144.4,142.1 144.4,142.1 144.4,142.1 144.3,141.3 144.3,140.9 144,137.9 
			143.8,136.8 144.3,136.3 145,135.7 145.5,140 145.6,140.7 145.7,141.1 146.4,146.7 146.6,148.4 146.7,149.3 146.7,149.3 
			146.7,149.4 147.3,153.7 147.3,153.7 147.4,154.6 147.6,156.4 		"/>
		<path class="st10" d="M161.5,162h-1.7l0-0.1l-1.5-6.6l-0.4-1.8l-0.2-1l0,0l0,0l-1-4.4l-0.2-0.8l-0.4-1.8l-0.1-0.2v0l-1.2-5.3v0
			l0-0.1l-0.1-0.5l-1.2-5.3l1.6,1.6l0.6,2.3l0.3,1.2l0.1,0.5l0.5,2.1v0l0.9,3.5l0.5,1.8l0.2,1l0,0v0l0.5,2.1c0,0,0,0,0,0
			c0,0,0,0,0,0l0.6,2.4l0,0l0,0l0,0l0.2,0.7l0.4,1.8l1.7,6.6L161.5,162z"/>
		<polygon class="st10" points="176.7,162 174.7,162 174,160.6 170.9,153.7 170.1,151.9 170.1,151.9 169.6,150.8 167.6,146.3 
			167.6,146.3 167.3,145.7 166.5,143.9 166.1,143 164,138.4 163.8,138 163,136.2 164.1,135 165.4,137.8 165.5,138.1 166.1,139.2 
			166.6,140.4 166.6,140.4 166.8,140.9 167.3,141.9 167.8,143 167.8,143 167.8,143 168.1,143.6 168.9,145.4 171.9,151.7 
			172.7,153.4 175.9,160.4 		"/>
		<path class="st10" d="M193,162h-2.2l-2-3.1l-4.8-7.2l-1.1-1.7l-4.1-6.2h0l-1.2-1.8l-0.8-1.2l-2.1-3.2l-0.4-0.6l-0.3-0.5l0-0.1
			l-2-3h1.9l0.9,1.4c0,0,0,0,0,0l0.9,1.3l0,0l3.7,5.4l1.2,1.8l4.2,6.2l1.2,1.7l4.9,7.2L193,162z"/>
		<path class="st10" d="M208,155.9c0,0-0.1,0-0.1,0c-0.3,0.8-0.8,1.5-1.3,2.1l-1.4-1.6l-6.6-7.5h0l-1.5-1.7l-5.3-6l-1.5-1.7
			l-4.7-5.4l-2.7-3.1l0.6-1l3.6,3.8l5.1,5.3l1.5,1.6l5.7,6l1.6,1.7L208,155.9L208,155.9z"/>
		<path class="st10" d="M206.8,137.7l2,1.8v2.7c-1.3-1.3-2.7-2.6-4-3.9c-0.5-0.5-1-1-1.5-1.4c-2.1-2.1-4.1-4-5.6-5.4c0,0,0,0,0,0
			c-1.9-1.9-3.2-3.1-3.3-3.1v-1.7l4.9,4.4l6,5.4L206.8,137.7z"/>
	</g>
	<g>
		<path class="st17" d="M156.2,59.1c0,1.1,0.9,1.9,1.9,1.9c1.1,0,1.9-0.9,1.9-1.9c0-1.1-0.9-1.9-1.9-1.9
			C157.1,57.2,156.2,58.1,156.2,59.1z"/>
		<path class="st4" d="M149.6,59.1c0,1.1,0.9,1.9,1.9,1.9c1.1,0,1.9-0.9,1.9-1.9c0-1.1-0.9-1.9-1.9-1.9
			C150.4,57.2,149.6,58.1,149.6,59.1z"/>
		<path class="st4" d="M142.9,59.1c0,1.1,0.9,1.9,1.9,1.9c1.1,0,1.9-0.9,1.9-1.9c0-1.1-0.9-1.9-1.9-1.9
			C143.8,57.2,142.9,58.1,142.9,59.1z"/>
		<path class="st4" d="M136.3,59.1c0,1.1,0.9,1.9,1.9,1.9c1.1,0,1.9-0.9,1.9-1.9c0-1.1-0.9-1.9-1.9-1.9
			C137.1,57.2,136.3,58.1,136.3,59.1z"/>
	</g>
	<g>
		<path class="st4" d="M46.1,65.4c0,2.2-0.9,4.3-2.4,5.7c-0.1,0.1-0.2,0.2-0.3,0.2c-1.2,1.1-2.6,1.8-4.3,2.1
			c-0.4,0.1-0.8,0.1-1.2,0.1s-0.8,0-1.2-0.1c-1.6-0.2-3.1-1-4.3-2c-1.6-1.5-2.6-3.6-2.6-6c0-2.2,0.9-4.3,2.4-5.7
			c1.5-1.5,3.5-2.4,5.7-2.4s4.3,0.9,5.7,2.4C45.2,61.1,46.1,63.1,46.1,65.4z"/>
		<circle class="st10" cx="38" cy="64.4" r="3.2"/>
		<path class="st10" d="M43.5,71.3c-1.2,1.1-2.6,1.8-4.3,2.1h-2.4c-1.6-0.2-3.1-1-4.3-2c0.1-0.5,0.4-1,0.9-1.2l3.5-1.6
			c0.7-0.3,1.5-0.3,2.2,0l3.5,1.6C43.1,70.4,43.4,70.8,43.5,71.3z"/>
		<path class="st16" d="M46.1,65.4c0,2.2-0.9,4.3-2.4,5.7c-0.1,0.1-0.2,0.2-0.3,0.2c-1.2,1.1-2.6,1.8-4.3,2.1
			c-0.4,0.1-0.8,0.1-1.2,0.1s-0.8,0-1.2-0.1c-1.6-0.2-3.1-1-4.3-2c-1.6-1.5-2.6-3.6-2.6-6c0-2.2,0.9-4.3,2.4-5.7
			c1.5-1.5,3.5-2.4,5.7-2.4s4.3,0.9,5.7,2.4C45.2,61.1,46.1,63.1,46.1,65.4z"/>
	</g>
	<g>
		<line class="st19" x1="47.1" y1="73" x2="60.3" y2="73"/>
		<line class="st19" x1="47.1" y1="71.4" x2="53.3" y2="71.4"/>
	</g>
	<path class="st20" d="M83.3,153.9L83.3,153.9c1.1,0.9,0.7,3.2-0.7,3.4l-15.1,2.1c-1.5,0.2-3-0.1-4.3-0.7l-8.6-4.5
		c0,0-9.4,1.1-12.2,0c-2.8-1.1-13.9-23.8,0.1-28.7c14-4.9,31.8,10.3,31.8,10.3L83.3,153.9z"/>
	<g>
		<path class="st6" d="M60.8,155.5l-6.4-4.7c0,0-2.5-14.8-2.6-15c-0.1-0.1,9.5-1.2,15.2-1.9c2.5-0.3,5,0.8,6.5,2.9l8.2,11.4
			c1.2,1.7,1.8,3.7,1.6,5.7l0,0c-0.1,1.3-1.1,2.4-2.3,2.6l-9.7,1.6C67.6,158.6,63.8,157.7,60.8,155.5z"/>
		<path class="st9" d="M51.8,151.2l-2.5,0.6l-1.5,0.4c-1.1,0.3-2.3-0.2-3-1.1l-3.6-5.3c-0.9-1.3-1-3.1-0.3-4.5l1.8-3.5
			c0.2-1.1,0.8-2.1,1.7-2.9c0.1-0.1,0.2-0.2,0.3-0.2l2.5-1.8l0.7-0.5l1.9,6.7l-0.3,0.7l-2,4.3l0.9,2l2.9,0.6L51.8,151.2z"/>
		<path class="st8" d="M52.2,136.6c-0.4-0.8,19.6-3.5,19.6-3.5l-6.3-6L53,127.6l-2.9,2.2L52.2,136.6z"/>
		<path class="st18" d="M69.6,140.7l5.6,8.4c0.4,0.7,1.2,1,2,0.9l2.8-0.4c0.9-0.1,1.5-1.2,0.9-2l-5.2-8.5c-0.3-0.5-0.9-0.8-1.4-0.7
			l-4,0.6C69.5,139.2,69.1,140.1,69.6,140.7z"/>
		<path class="st18" d="M59.7,141.7l6.6,9.4c0.2,0.3,0.7,0.5,1.1,0.5l4.3-0.5c0.7-0.1,1.1-0.8,0.7-1.4l-6.3-9.6
			c-0.1-0.1-0.3-0.2-0.4-0.2l-5.5,0.8C59.7,140.6,59.4,141.2,59.7,141.7z"/>
		<path class="st9" d="M81.8,147.8c-0.3,0.2-0.7,0.3-1.1,0.3h-0.1c-2.1,0-4.1-1.2-5.1-3.1l-4-8.2L61,125.7c0,0,1.6-0.7,3.2-1.5
			c0.2-0.1,0.5-0.2,0.7-0.3c1.7-0.8,3.7-0.4,5.1,0.9l8.5,8.2c0.3,0.3,0.5,0.7,0.6,1.1l3.4,11.6C82.8,146.4,82.4,147.3,81.8,147.8z"
			/>
		<path class="st8" d="M51.8,151.2l-2.5,0.6l-5.5-8.4c-0.3-0.5-0.5-1.1-0.4-1.7l1-6.8c0.1-0.1,0.2-0.2,0.3-0.2l2.5-1.8l2.3,6.9
			l-2,4.3l0.9,2l2.9,0.6L51.8,151.2z"/>
		<path class="st9" d="M56.1,152.2C56.1,152.2,56.1,152.3,56.1,152.2C56,152.3,56,152.3,56.1,152.2c-1.6,0.7-3.4,0.2-4.3-1.2
			c-0.4-0.7-0.9-1.4-1.2-2c-0.4-0.6-0.6-1.3-0.8-2c-0.6-2.6-1.9-9.5-2.6-13c-0.3-1.3,0-2.8,0.8-3.9l0.1-0.2c0.7-1.1,1.9-1.8,3.1-1.9
			v0c0.6-0.1,1.3,0,1.9,0.3l0.7,0.3l2.8,16.5l1.2,3.1C58.3,149.8,57.6,151.6,56.1,152.2z"/>
		<path class="st8" d="M56.1,152.2C56.1,152.2,56.1,152.3,56.1,152.2C56,152.3,56,152.3,56.1,152.2c0-0.1,0-0.2,0-0.4
			c0.3-1.3,0.2-2.6-0.4-3.8l-1.1-2.2c-0.1-0.1-0.1-0.3-0.1-0.4l-3.3-17.3v0c0.6-0.1,1.3,0,1.9,0.3l0.7,0.3l2.8,16.5l1.2,3.1
			C58.3,149.8,57.6,151.6,56.1,152.2z"/>
		<path class="st8" d="M81.8,147.8c-0.3,0.2-0.7,0.3-1.1,0.3h-0.1c-2.1,0-4.1-1.2-5.1-3.1l-4-8.2L61,125.7c0,0,1.6-0.7,3.2-1.5
			c2.1,2,6.9,7,9.2,9.5c0.9,0.9,1.6,2.1,2,3.3l2.1,5.8c0.5,1.5,1.5,2.9,2.8,3.9L81.8,147.8z"/>
		<path class="st9" d="M70.6,147.1c0,1.6-1.1,3.1-2.7,3.5c-0.2,0.1-0.4,0.1-0.6,0.1c-1.8,0.2-3.5-1-3.9-2.8l-1.7-7.3l-2.3-8.3
			l-6.4-4.8l1.6-1.7l1-1.1c1.6-1.7,4.2-2,6.1-0.7l1,0.6c2.8,1.8,4.8,4.8,5.4,8.1l1.2,6.5l1.2,7.2C70.6,146.7,70.6,146.9,70.6,147.1z
			"/>
		<path class="st8" d="M67.9,150.6c-0.2,0.1-0.4,0.1-0.6,0.1c-1.8,0.2-3.5-1-3.9-2.8l-1.7-7.3l-2.3-8.3l-6.4-4.8l1.6-1.7l5,3.2
			c1.2,0.8,2.1,2,2.4,3.4l3.2,14.5c0.2,1,0.7,1.9,1.5,2.6L67.9,150.6z"/>
	</g>
	<g>
		<path class="st20" d="M137.2,142c0,0,0-9.1,2.8-9.9c2.8-0.8,32.7-4.2,32.7-4.2l5.2,8L137.2,142z"/>
		<g>
			<g>
				<path class="st9" d="M155.1,127.4l-4.2,4.5l-5,5.3l-1.1,7c-0.3,1.6-1.7,2.8-3.3,2.8h-0.1c-1.4,0-2.5-1.2-2.4-2.6l0.2-7.8
					c0-0.6,0.2-1.1,0.6-1.6l5.8-7.5c1.2-1.8,3.6-2.5,5.6-1.7L155.1,127.4z"/>
				<path class="st9" d="M161.6,125.5l-2.4,7.1l-0.4,1.2l-2,5.8l-1.7,10.6c0,0.9-0.4,1.7-1,2.2c-0.6,0.6-1.4,0.9-2.3,0.9
					c-0.1,0-0.3,0-0.4,0c-1.6-0.2-2.9-1.6-2.9-3.3l-0.5-9.9c0-0.6,0.1-1.1,0.3-1.6l4.5-11.4c0.2-0.6,0.6-1.2,1.1-1.7
					c1.1-1.1,2.7-1.4,4.2-0.9l1.9,0.6L161.6,125.5z"/>
				<path class="st9" d="M167.2,137.8l-2.2,10.6c-0.1,0.8-0.5,1.5-1.1,2.1c-0.6,0.6-1.4,0.9-2.2,1c-0.5,0-1,0-1.4-0.2
					c-1.5-0.6-2.7-2.1-2.4-4.3l1.6-9.1c0,0-0.3-1.7-0.6-4.2c-0.1-0.8-0.2-1.6-0.2-2.4c-0.1-0.9-0.1-1.9-0.1-2.8
					c0-1.4,0.6-2.7,1.5-3.6c0.5-0.5,1.2-0.9,1.9-1.1l0.3-0.1c1.3-0.4,2.7,0.2,3.2,1.4c0.1,0.3,0.2,0.7,0.2,1.1l1.6,10.4
					C167.3,137.1,167.3,137.5,167.2,137.8z"/>
				<path class="st9" d="M174.8,137.1l-1.5,4.4c-0.3,0.8-1.1,1.4-1.9,1.4c0,0-0.1,0-0.1,0c-0.1,0-0.2,0-0.2,0
					c-1.7-0.3-2.2-1.7-2.4-3.7l-0.1-3.1c0,0-0.9-1.6-2-3.5v0c-1.7-3-4-6.9-4-7.1l3.1-0.9c1.4-0.4,2.9,0.2,3.7,1.5l5.1,8.6
					C175,135.4,175.1,136.3,174.8,137.1z"/>
			</g>
			<path class="st8" d="M152.5,127.9l-1,2.5l-0.6,1.5l-5,5.3l-1.1,7c-0.3,1.6-1.7,2.8-3.3,2.8h0l0.6-1c0.3-0.4,0.4-0.9,0.5-1.4
				l1.5-7.6c0.1-0.6,0.4-1.2,0.9-1.7L152.5,127.9z"/>
			<path class="st8" d="M159.9,147.9l0.3,3.4c-1.5-0.6-2.7-2.1-2.4-4.3l1.6-9.1c0,0-0.3-1.7-0.6-4.2l-2,5.8l-1.7,10.6
				c0,0.9-0.4,1.7-1,2.2c-0.6,0.6-1.4,0.9-2.3,0.9c-0.1,0-0.3,0-0.4,0l0,0c1.3-1.5,2-3.4,2.3-5.4l0.9-7.4c0-0.4,0.2-0.8,0.3-1.2
				l3.6-7.9l0,0l0.6,1.2l1.4,4c0.3,1,0.5,2.1,0.3,3.1l-0.9,6.5C159.9,146.8,159.9,147.3,159.9,147.9z"/>
			<path class="st8" d="M171.3,142.9c-0.1,0-0.2,0-0.2,0c-1.7-0.3-2.2-1.7-2.4-3.7l-0.1-3.1c0,0-0.9-1.6-2-3.5v0l-1-5.3l3.9,5.9
				c0.9,1.4,1.3,3.2,1.1,4.9l-0.2,1.8c-0.1,0.8,0.1,1.7,0.5,2.4L171.3,142.9z"/>
		</g>
	</g>
</g>
</svg>
