<?xml version="1.0" encoding="iso-8859-1"?>
<!-- Generator: Adobe Illustrator 24.0.1, SVG Export Plug-In . SVG Version: 6.00 Build 0)  -->
<svg version="1.1" id="Capa_1" xmlns="http://www.w3.org/2000/svg" xmlns:xlink="http://www.w3.org/1999/xlink" x="0px" y="0px"
	 viewBox="0 0 150 150" style="enable-background:new 0 0 150 150;" xml:space="preserve">
<g id="R4FLXK.tif">
	<g>
		<linearGradient id="SVGID_1_" gradientUnits="userSpaceOnUse" x1="19.7615" y1="89.0744" x2="130.0805" y2="89.0744">
			<stop  offset="0" style="stop-color:#6368FF"/>
			<stop  offset="1" style="stop-color:#9530FF"/>
		</linearGradient>
		<path style="fill:url(#SVGID_1_);" d="M19.761,81.418c0-1.842,0-3.683,0-5.525c0.079-0.38,0.181-0.756,0.234-1.139
			c0.364-2.637,0.531-5.317,1.106-7.907c2.76-12.435,9.722-21.518,21.591-26.564c7.241-3.078,14.569-3.712,22.046-0.789
			c2.599,1.016,5.283,1.812,7.897,2.79c2.191,0.82,4.315,0.903,6.479-0.076c1.23-0.557,2.518-0.986,3.772-1.492
			c6.705-2.707,13.535-4.22,20.853-3.026c10.845,1.769,19.055,7.206,24.512,16.928c-1.397,1.067-2.82,2.145-4.233,3.235
			c-5.641,4.352-9.761,9.648-10.445,17.033c-0.758,8.184,1.481,15.267,7.947,20.634c1.976,1.64,4.257,2.911,6.375,4.383
			c2.131,1.481,2.656,2.968,1.783,5.406c-2.694,7.53-6.315,14.589-10.927,21.127c-2.486,3.524-5.3,6.753-8.689,9.451
			c-4.997,3.979-10.571,5.823-16.896,4.153c-2.811-0.742-5.509-1.927-8.236-2.967c-4.143-1.58-8.294-2.015-12.514-0.309
			c-1.092,0.441-2.191,0.885-3.322,1.204c-3.55,1.001-7.117,1.942-10.678,2.907c-1.139,0-2.279,0-3.419,0
			c-4.811-0.803-8.829-3.126-12.336-6.432c-5.397-5.088-9.314-11.235-12.583-17.814c-4.689-9.438-8.054-19.319-9.592-29.78
			C20.223,85.04,20.003,83.227,19.761,81.418z"/>
		<linearGradient id="SVGID_2_" gradientUnits="userSpaceOnUse" x1="74.842" y1="20.9582" x2="99.9279" y2="20.9582">
			<stop  offset="0" style="stop-color:#6368FF"/>
			<stop  offset="1" style="stop-color:#9530FF"/>
		</linearGradient>
		<path style="fill:url(#SVGID_2_);" d="M75.033,35.54C72.959,21.237,88.176,6.104,99.854,6.306
			C101.01,22.332,88.419,36.757,75.033,35.54z"/>
	</g>
</g>
</svg>
