<?xml version="1.0" encoding="iso-8859-1"?>
<!-- Generator: Adobe Illustrator 24.0.1, SVG Export Plug-In . SVG Version: 6.00 Build 0)  -->
<svg version="1.1" id="Capa_1" xmlns="http://www.w3.org/2000/svg" xmlns:xlink="http://www.w3.org/1999/xlink" x="0px" y="0px"
	 viewBox="0 0 150 150" style="enable-background:new 0 0 150 150;" xml:space="preserve">
<g id="OhOYG4.tif">
	<g>
		
			<linearGradient id="SVGID_1_" gradientUnits="userSpaceOnUse" x1="97.778" y1="78.0963" x2="144.355" y2="78.0963" gradientTransform="matrix(1 0 0 -1 0 150)">
			<stop  offset="0" style="stop-color:#6368FF"/>
			<stop  offset="1" style="stop-color:#9530FF"/>
		</linearGradient>
		<path style="fill:url(#SVGID_1_);" d="M144.355,103.262c-2.513,0.041-5.026,0.106-7.539,0.117
			c-4.522,0.019-9.045,0.005-13.567,0.005c-0.551,0-1.101,0-1.848,0c0-2.829,0.084-5.488-0.023-8.139
			c-0.116-2.861-0.076-5.79-0.697-8.556c-1.242-5.527-4.587-9.667-9.534-12.446c-3.976-2.234-7.992-4.396-11.988-6.594
			c-0.44-0.242-0.865-0.511-1.381-0.817c5.556-6.848,7.925-14.549,6.835-23.429c1.365,0.219,2.688,0.44,4.013,0.642
			c5.355,0.818,10.282-0.462,14.87-3.171c0.854-0.504,1.524-0.593,2.42-0.251c3.106,1.187,6.247,2.285,9.357,3.461
			c4.957,1.875,8.023,5.344,8.867,10.655c0.022,0.14,0.141,0.264,0.215,0.395C144.355,71.176,144.355,87.219,144.355,103.262z"/>
		
			<linearGradient id="SVGID_2_" gradientUnits="userSpaceOnUse" x1="78.638" y1="43.6765" x2="114.7448" y2="43.6765" gradientTransform="matrix(1 0 0 -1 0 150)">
			<stop  offset="0" style="stop-color:#6368FF"/>
			<stop  offset="1" style="stop-color:#9530FF"/>
		</linearGradient>
		<path style="fill:url(#SVGID_2_);" d="M78.638,139.666c2.49-10.503,4.967-21.009,7.473-31.508
			c2.743-11.496,5.511-22.986,8.271-34.477c0.046-0.192,0.127-0.376,0.239-0.7c0.409,0.16,0.785,0.263,1.119,0.444
			c3.925,2.123,7.847,4.254,11.765,6.391c4.884,2.664,7.211,6.866,7.222,12.345c0.032,15.835,0.011,31.67,0.011,47.505
			C102.703,139.666,90.671,139.666,78.638,139.666z"/>
		
			<linearGradient id="SVGID_3_" gradientUnits="userSpaceOnUse" x1="35.744" y1="43.7315" x2="71.85" y2="43.7315" gradientTransform="matrix(1 0 0 -1 0 150)">
			<stop  offset="0" style="stop-color:#6368FF"/>
			<stop  offset="1" style="stop-color:#9530FF"/>
		</linearGradient>
		<path style="fill:url(#SVGID_3_);" d="M35.752,139.666c0-15.682,0.017-31.364-0.008-47.047c-0.01-6.013,2.504-10.418,7.92-13.18
			c3.379-1.722,6.671-3.613,10.005-5.424c0.665-0.361,1.344-0.699,2.203-1.144c0.705,2.856,1.389,5.56,2.039,8.273
			c4.646,19.403,9.285,38.809,13.924,58.214c0.023,0.098,0.011,0.205,0.015,0.307C59.818,139.666,47.785,139.666,35.752,139.666z"/>
		
			<linearGradient id="SVGID_4_" gradientUnits="userSpaceOnUse" x1="6.1313" y1="78.1199" x2="52.714" y2="78.1199" gradientTransform="matrix(1 0 0 -1 0 150)">
			<stop  offset="0" style="stop-color:#6368FF"/>
			<stop  offset="1" style="stop-color:#9530FF"/>
		</linearGradient>
		<path style="fill:url(#SVGID_4_);" d="M45.828,43.384c-0.774,9.693,0.944,15.554,6.886,23.48
			c-1.121,0.629-2.221,1.257-3.331,1.866c-3.056,1.678-6.11,3.36-9.177,5.018c-7.414,4.009-11.078,10.249-11.116,18.647
			c-0.016,3.587-0.003,7.174-0.003,10.874c-7.675,0-15.205,0-22.954,0c0-0.522,0-1.067,0-1.612c0-14.749-0.005-29.498,0.002-44.248
			c0.003-6.606,3.208-11.144,9.46-13.437c3.073-1.127,6.136-2.283,9.231-3.346c0.545-0.187,1.359-0.197,1.825,0.083
			c5.788,3.468,11.907,4.505,18.458,2.726C45.303,43.383,45.516,43.405,45.828,43.384z"/>
		
			<linearGradient id="SVGID_5_" gradientUnits="userSpaceOnUse" x1="52.2819" y1="102.4528" x2="98.1864" y2="102.4528" gradientTransform="matrix(1 0 0 -1 0 150)">
			<stop  offset="0" style="stop-color:#6368FF"/>
			<stop  offset="1" style="stop-color:#9530FF"/>
		</linearGradient>
		<path style="fill:url(#SVGID_5_);" d="M98.186,47.609c-0.072,12.735-10.441,23.05-23.069,22.947
			c-12.696-0.103-22.869-10.52-22.835-23.2c0.034-12.731,10.752-23.06,23.475-22.814C88.116,24.781,98.256,35.063,98.186,47.609z"/>
		
			<linearGradient id="SVGID_6_" gradientUnits="userSpaceOnUse" x1="95.0258" y1="128.7801" x2="127.826" y2="128.7801" gradientTransform="matrix(1 0 0 -1 0 150)">
			<stop  offset="0" style="stop-color:#6368FF"/>
			<stop  offset="1" style="stop-color:#9530FF"/>
		</linearGradient>
		<path style="fill:url(#SVGID_6_);" d="M127.826,21.485c-0.186,5.94-2.844,10.846-8.352,13.953
			c-5.389,3.04-10.881,2.903-16.228-0.217c-0.79-0.461-1.421-1.271-1.985-2.024c-1.259-1.681-2.201-3.668-3.69-5.092
			c-2.085-1.993-2.555-4.398-2.545-6.978c0.03-8.392,6.721-15.655,14.874-16.277c8.713-0.665,16.282,5.158,17.731,13.67
			C127.777,19.376,127.751,20.261,127.826,21.485z"/>
		
			<linearGradient id="SVGID_7_" gradientUnits="userSpaceOnUse" x1="22.6898" y1="128.7999" x2="55.3106" y2="128.7999" gradientTransform="matrix(1 0 0 -1 0 150)">
			<stop  offset="0" style="stop-color:#6368FF"/>
			<stop  offset="1" style="stop-color:#9530FF"/>
		</linearGradient>
		<path style="fill:url(#SVGID_7_);" d="M22.69,21.15c0.036-8.414,6.398-15.498,14.634-16.295C45.727,4.041,53.484,9.647,55.07,17.9
			c0.388,2.016,0.245,4.189,0.003,6.249c-0.125,1.067-0.916,2.104-1.557,3.053c-1.404,2.078-2.885,4.105-4.375,6.122
			c-0.472,0.638-0.975,1.344-1.632,1.741c-5.351,3.234-10.859,3.412-16.373,0.478C25.847,32.728,22.664,27.182,22.69,21.15z"/>
		
			<linearGradient id="SVGID_8_" gradientUnits="userSpaceOnUse" x1="71.8793" y1="47.406" x2="78.6713" y2="47.406" gradientTransform="matrix(1 0 0 -1 0 150)">
			<stop  offset="0" style="stop-color:#6368FF"/>
			<stop  offset="1" style="stop-color:#9530FF"/>
		</linearGradient>
		<path style="fill:url(#SVGID_8_);" d="M75.083,124.742c-0.867-3.591-1.807-7.166-2.57-10.779
			c-0.377-1.785-0.581-3.637-0.595-5.461c-0.063-7.908-0.035-15.818-0.014-23.727c0.002-0.758,0.064-1.56,0.316-2.263
			c0.477-1.329,1.536-2.037,2.947-2.066c1.481-0.031,2.588,0.681,3.098,2.068c0.257,0.7,0.316,1.505,0.318,2.263
			c0.024,6.317-0.144,12.639,0.061,18.949c0.176,5.439-0.501,10.706-1.987,15.91c-0.481,1.685-0.844,3.404-1.262,5.107
			C75.292,124.743,75.187,124.742,75.083,124.742z"/>
	</g>
</g>
</svg>
