<?xml version="1.0" encoding="iso-8859-1"?>
<!-- Generator: Adobe Illustrator 24.0.1, SVG Export Plug-In . SVG Version: 6.00 Build 0)  -->
<svg version="1.1" id="Capa_1" xmlns="http://www.w3.org/2000/svg" xmlns:xlink="http://www.w3.org/1999/xlink" x="0px" y="0px"
	 viewBox="0 0 150 150" style="enable-background:new 0 0 150 150;" xml:space="preserve">
<g id="g4Q2jU.tif">
	<g>
		
			<linearGradient id="SVGID_1_" gradientUnits="userSpaceOnUse" x1="47.3444" y1="49.1382" x2="110.4834" y2="49.1382" gradientTransform="matrix(1 0 0 -1 0 150)">
			<stop  offset="0" style="stop-color:#6368FF"/>
			<stop  offset="1" style="stop-color:#9530FF"/>
		</linearGradient>
		<path style="fill:url(#SVGID_1_);" d="M66.51,144.021c-0.719-0.208-1.47-0.341-2.152-0.636c-3.224-1.396-5.28-3.771-5.397-7.363
			c-0.153-4.669-0.117-9.345-0.076-14.018c0.009-1.064-0.367-1.454-1.339-1.731c-5.879-1.678-10.139-7.13-10.164-13.246
			c-0.063-15.37-0.03-30.741-0.024-46.111c0.001-1.839,0.85-2.823,2.658-3.144c0.481-0.085,0.983-0.066,1.476-0.066
			c18.282-0.003,36.565-0.003,54.847-0.002c3.243,0,4.136,0.898,4.136,4.156c0,14.786,0.025,29.572-0.013,44.358
			c-0.016,6.187-2.858,10.685-8.415,13.44c-0.2,0.099-0.397,0.208-0.605,0.29c-2.472,0.978-2.465,0.977-2.475,3.674
			c-0.014,4.089,0.06,8.182-0.089,12.266c-0.151,4.142-2.98,7.168-7.096,7.917c-0.163,0.03-0.311,0.142-0.466,0.216
			c-0.539,0-1.079,0-1.618,0c-0.935-0.276-1.929-0.431-2.795-0.85c-3.229-1.559-4.98-4.168-5.024-7.775
			c-0.058-4.752-0.014-9.505-0.014-14.356c-2.002,0-3.902,0-5.9,0c0,0.586,0,1.075,0,1.565c-0.001,4.264-0.001,8.528-0.005,12.791
			c-0.002,2.05-0.695,3.84-1.967,5.443c-1.511,1.904-3.599,2.696-5.866,3.182C67.589,144.021,67.05,144.021,66.51,144.021z"/>
		
			<linearGradient id="SVGID_2_" gradientUnits="userSpaceOnUse" x1="47.365" y1="121.0684" x2="110.4649" y2="121.0684" gradientTransform="matrix(1 0 0 -1 0 150)">
			<stop  offset="0" style="stop-color:#6368FF"/>
			<stop  offset="1" style="stop-color:#9530FF"/>
		</linearGradient>
		<path style="fill:url(#SVGID_2_);" d="M93.938,21.265c4.247,2.384,7.758,5.415,10.528,9.264c3.881,5.393,5.917,11.413,5.998,18.07
			c0.026,2.112-0.96,3.14-3.051,3.271c-0.358,0.022-0.718,0.012-1.078,0.012c-18.283,0-36.566,0.002-54.849-0.007
			c-0.76,0-1.546,0.002-2.273-0.182c-1.162-0.293-1.884-1.477-1.847-2.967c0.273-10.731,4.829-19.215,13.462-25.533
			c0.937-0.685,1.948-1.269,3.044-1.977c-0.402-0.978-0.794-1.961-1.208-2.934c-1.156-2.719-2.357-5.419-3.47-8.156
			c-0.817-2.008,0.091-3.714,2.077-4.097c1.281-0.248,2.431,0.447,3.115,1.997c1.427,3.235,2.857,6.471,4.186,9.747
			c0.409,1.008,0.816,1.199,1.868,0.898c5.643-1.615,11.323-1.618,16.965,0.003c1.063,0.305,1.458,0.092,1.863-0.908
			c1.345-3.318,2.802-6.591,4.22-9.88c0.509-1.181,1.467-2.032,2.679-1.86c0.888,0.125,2.023,0.803,2.406,1.559
			c0.39,0.772,0.241,2.036-0.101,2.918c-1.248,3.211-2.676,6.352-4.034,9.52C94.279,20.389,94.139,20.761,93.938,21.265z
			 M70.282,37.534c-0.011-1.612-1.306-2.865-2.93-2.835c-1.621,0.03-2.855,1.326-2.811,2.95c0.043,1.563,1.285,2.773,2.853,2.778
			C69.007,40.434,70.293,39.145,70.282,37.534z M90.44,40.428c1.616-0.009,2.874-1.299,2.845-2.919
			c-0.028-1.619-1.32-2.85-2.952-2.813c-1.555,0.035-2.781,1.287-2.789,2.846C87.538,39.153,88.826,40.437,90.44,40.428z"/>
		
			<linearGradient id="SVGID_3_" gradientUnits="userSpaceOnUse" x1="24.3398" y1="69.276" x2="41.4593" y2="69.276" gradientTransform="matrix(1 0 0 -1 0 150)">
			<stop  offset="0" style="stop-color:#6368FF"/>
			<stop  offset="1" style="stop-color:#9530FF"/>
		</linearGradient>
		<path style="fill:url(#SVGID_3_);" d="M24.424,80.682c0-5.031-0.091-10.064,0.029-15.092c0.092-3.847,3.286-7.102,7.05-7.674
			c4.984-0.758,8.452,2.503,9.387,5.465c0.319,1.01,0.533,2.1,0.537,3.154c0.04,9.48,0.039,18.96,0.016,28.439
			c-0.011,4.308-3.142,8.062-7.07,8.579c-4.676,0.617-8.602-1.943-9.772-6.458c-0.243-0.938-0.241-1.955-0.247-2.936
			c-0.024-4.493-0.011-8.986-0.011-13.478C24.371,80.682,24.397,80.682,24.424,80.682z"/>
		
			<linearGradient id="SVGID_4_" gradientUnits="userSpaceOnUse" x1="116.3576" y1="69.306" x2="133.4437" y2="69.306" gradientTransform="matrix(1 0 0 -1 0 150)">
			<stop  offset="0" style="stop-color:#6368FF"/>
			<stop  offset="1" style="stop-color:#9530FF"/>
		</linearGradient>
		<path style="fill:url(#SVGID_4_);" d="M133.405,80.74c-0.001,5.031,0.106,10.065-0.033,15.092
			c-0.121,4.401-4.009,7.845-8.499,7.81c-4.527-0.035-8.427-3.628-8.461-8.053c-0.075-9.883-0.069-19.768-0.006-29.652
			c0.028-4.446,4.024-8.298,8.508-8.188c5.368,0.132,8.416,4.219,8.473,7.898C133.465,70.678,133.406,75.709,133.405,80.74z"/>
	</g>
</g>
</svg>
