<?xml version="1.0" encoding="utf-8"?>
<!-- Generator: Adobe Illustrator 21.0.0, SVG Export Plug-In . SVG Version: 6.00 Build 0)  -->
<svg version="1.1" id="Layer_1" xmlns="http://www.w3.org/2000/svg" xmlns:xlink="http://www.w3.org/1999/xlink" x="0px" y="0px"
	 viewBox="0 0 150 150" style="enable-background:new 0 0 150 150;" xml:space="preserve">
<style type="text/css">
	.st0{fill:#666666;}
</style>
<title>Asset 5</title>
<g id="Layer_2">
	<g id="Layer_1-2">
		<path class="st0" d="M111.8,71L77.6,39.8c-1.5-1.4-3.8-1.4-5.3,0L38.2,71c-1.6,1.4-1.7,3.9-0.3,5.5c0.7,0.8,1.8,1.3,2.9,1.3h5.5
			v31.2c0,1.2,1,2.2,2.2,2.2h18.7c1.2,0,2.2-1,2.2-2.2V90h11v18.9c0,1.2,1,2.2,2.2,2.2h18.7c1.2,0,2.2-1,2.2-2.2V77.8h5.5
			c2.2,0,3.9-1.7,3.9-3.9C113.1,72.8,112.6,71.7,111.8,71z"/>
		<path class="st0" d="M103.1,43.3h-15L105.4,59V45.5C105.4,44.3,104.4,43.3,103.1,43.3z"/>
	</g>
</g>
</svg>
