<?xml version="1.0" encoding="utf-8"?>
<!-- Generator: Adobe Illustrator 21.0.0, SVG Export Plug-In . SVG Version: 6.00 Build 0)  -->
<svg version="1.1" id="Layer_1" xmlns="http://www.w3.org/2000/svg" xmlns:xlink="http://www.w3.org/1999/xlink" x="0px" y="0px"
	 viewBox="0 0 150 150" style="enable-background:new 0 0 150 150;" xml:space="preserve">
<style type="text/css">
	.st0{fill:#666666;}
</style>
<title>Asset 9</title>
<g id="Layer_2">
	<g id="Layer_1-2">
		<path class="st0" d="M96.7,41.2l1.6-1.5l0,0c-2.5-2.5-6.5-2.5-9,0c0,0,0,0,0,0l-1.5,1.5H96.7z"/>
		<path class="st0" d="M84.8,44.2l-3,3h8.4l3.2-3L84.8,44.2z"/>
		<path class="st0" d="M83.7,53.2l3.2-3h-8.2l-3,3H83.7z"/>
		<path class="st0" d="M72.7,56.2l-3,3h7.5l3.2-3H72.7z"/>
		<path class="st0" d="M63.8,94.7c-1.9,2.8-4.5,5-7.5,6.4v12.2l1.5,6h7.5v-3l-1.5-3V94.7z"/>
		<path class="st0" d="M103.4,82.6L99,90.3l6.8,7.9l-3,6l-1.5,1.5v7.5h3l3-1.5l5.6-9.3c2-3.4,1.6-7.8-1.1-10.7L103.4,82.6z"/>
		<path class="st0" d="M116.8,34.9l2.5-4.2l-6.3,3.8L116.8,34.9z"/>
		<path class="st0" d="M108.7,37.1l-1.8,1.1l4.9,4.9l3.2-5.3L108.7,37.1z"/>
		<path class="st0" d="M104.3,39.7h-3L78.8,62.2h-33c-2.8,0-5.6,0.8-8,2.3l8.4,3.8c0.3,0,0.7-0.1,1-0.1h0.5c-0.3,1-0.5,2-0.5,3v16.5
			c0,3.3-2.7,6-6,6c0,0,0,0,0,0v19.5l1.5,6h7.5v-3l-1.5-3V99.8c6,0,11.4-3.5,13.8-9h25.3v22.5l1.5,6h7.5v-3l-1.5-3V90.8l6-10.5V57.7
			l12,3l4.5-7.5L104.3,39.7z M105.8,50.2c-0.8,0-1.5-0.7-1.5-1.5c0-0.8,0.7-1.5,1.5-1.5c0.8,0,1.5,0.7,1.5,1.5c0,0,0,0,0,0
			C107.3,49.6,106.6,50.2,105.8,50.2z"/>
		<path class="st0" d="M35.1,66.7c-1.6,1.6-2.8,3.6-3.5,5.7l8.8-0.9c0.5-0.6,1.2-1.2,1.9-1.7L35.1,66.7z"/>
		<path class="st0" d="M30.7,77.3V85l7.5-5.8v-1.9c0-0.9,0.1-1.7,0.4-2.6l-7.8,0.8C30.8,76,30.7,76.6,30.7,77.3z"/>
		<path class="st0" d="M30.7,93.8c4.2,0,7.5-3.4,7.5-7.5c0,0,0,0,0,0V83l-7.5,5.8V93.8z"/>
	</g>
</g>
</svg>
