<?xml version="1.0" encoding="utf-8"?>
<!-- Generator: Adobe Illustrator 21.0.0, SVG Export Plug-In . SVG Version: 6.00 Build 0)  -->
<svg version="1.1" id="Layer_1" xmlns="http://www.w3.org/2000/svg" xmlns:xlink="http://www.w3.org/1999/xlink" x="0px" y="0px"
	 viewBox="0 0 150 150" style="enable-background:new 0 0 150 150;" xml:space="preserve">
<style type="text/css">
	.st0{fill:#666666;}
</style>
<title>Shop</title>
<g id="Layer_2">
	<g id="Layer_1-2">
		<path id="Shop" class="st0" d="M109.1,73v38.2c0,1.1-0.9,2-2,2H71V83c0-1.1-0.9-2-2-2l0,0H52.9c-1.1,0-2,0.9-2,2c0,0,0,0,0,0v30.1
			h-8c-1.1,0-2-0.9-2-2V73h0.7c2.9,0,5.6-1.4,7.3-3.7c0,0,0.1,0.1,0.1,0.2c1.7,2.3,4.4,3.6,7.2,3.6h2.5c2.9,0,5.7-1.4,7.4-3.8
			c0.1,0.2,0.3,0.3,0.4,0.5c1.9,2.1,4.6,3.3,7.5,3.3h2.1c2.9,0,5.6-1.2,7.5-3.4c0.1-0.2,0.3-0.3,0.4-0.5c1.7,2.4,4.4,3.8,7.4,3.8
			h2.5c2.8,0,5.5-1.3,7.2-3.6c0-0.1,0.1-0.1,0.1-0.2c1.7,2.3,4.4,3.7,7.3,3.7H109.1z M99.1,99.1V83c0-1.1-0.9-2-2-2l0,0H83
			c-1.1,0-2,0.9-2,2c0,0,0,0,0,0v16.1c0,1.1,0.9,2,2,2l0,0h14.1C98.2,101.1,99.1,100.2,99.1,99.1z M48.8,36.8c-1.6,0-3,0.9-3.7,2.4
			L35,61.9c-0.7,1.6-0.5,3.5,0.5,4.9c1,1.4,2.6,2.2,4.3,2.1h1.7c2.3,0,4.2-1.5,4.8-3.7L51,48.6l3.3-11.7H48.8z M58.4,36.8l-7.2,25.8
			c-0.4,1.5-0.1,3.1,0.9,4.4c0.9,1.3,2.4,2,4,2h2.5c2.6,0,4.7-1.9,5-4.5l3.1-27.7H58.4z M79.2,36.8h-8.5l-2.8,25.4
			c-0.2,1.7,0.4,3.4,1.5,4.7c1.1,1.3,2.8,2,4.5,2h2.1c1.7,0,3.4-0.7,4.5-2c1.1-1.3,1.7-3,1.5-4.7L79.2,36.8z M91.5,36.8h-8.3
			l3.1,27.7c0.3,2.5,2.4,4.5,5,4.5h2.5c2.8,0,5-2.3,5-5c0-0.5-0.1-0.9-0.2-1.3L91.5,36.8z M104.9,39.2c-0.6-1.4-2.1-2.4-3.7-2.4
			h-5.5L99,48.6l4.6,16.8c0.6,2.2,2.6,3.7,4.8,3.7h1.7c1.7,0,3.3-0.8,4.3-2.1c1-1.4,1.2-3.3,0.5-4.9L104.9,39.2z"/>
	</g>
</g>
</svg>
