<?xml version="1.0" encoding="iso-8859-1"?>
<!-- Generator: Adobe Illustrator 24.0.1, SVG Export Plug-In . SVG Version: 6.00 Build 0)  -->
<svg version="1.1" id="Capa_1" xmlns="http://www.w3.org/2000/svg" xmlns:xlink="http://www.w3.org/1999/xlink" x="0px" y="0px"
	 viewBox="0 0 150 150" style="enable-background:new 0 0 150 150;" xml:space="preserve">
<linearGradient id="SVGID_1_" gradientUnits="userSpaceOnUse" x1="41.3515" y1="66.18" x2="41.3515" y2="74.836" gradientTransform="matrix(1 0 0 -1 0 150)">
	<stop  offset="0.002" style="stop-color:#9ACE34"/>
	<stop  offset="1" style="stop-color:#C7FE58"/>
</linearGradient>
<path style="fill:url(#SVGID_1_);" d="M43.244,83.82c2.387,0,4.328-1.942,4.328-4.328c0-2.387-1.942-4.328-4.328-4.328h-8.113v8.656
	L43.244,83.82L43.244,83.82z"/>
<linearGradient id="SVGID_2_" gradientUnits="userSpaceOnUse" x1="38.907" y1="26.606" x2="38.907" y2="97.626" gradientTransform="matrix(1 0 0 -1 0 150)">
	<stop  offset="0.002" style="stop-color:#9ACE34"/>
	<stop  offset="1" style="stop-color:#C7FE58"/>
</linearGradient>
<path style="fill:url(#SVGID_2_);" d="M74.417,87.884c0-19.58-15.93-35.51-35.51-35.51s-35.51,15.93-35.51,35.51
	s15.93,35.51,35.51,35.51S74.417,107.465,74.417,87.884z M22.281,108.734v-8.129h4.721V75.163h-4.721v-8.129h12.524v-6.262h8.129
	v6.262h0.31c6.869,0,12.457,5.588,12.457,12.457c0,2.72-0.879,5.237-2.364,7.288c2.694,2.287,4.409,5.695,4.409,9.497
	c0,6.869-5.588,12.457-12.457,12.457h-2.355v6.262h-8.129v-6.262L22.281,108.734L22.281,108.734z"/>
<linearGradient id="SVGID_3_" gradientUnits="userSpaceOnUse" x1="124.853" y1="111.199" x2="124.853" y2="145.587" gradientTransform="matrix(1 0 0 -1 0 150)">
	<stop  offset="0.002" style="stop-color:#9ACE34"/>
	<stop  offset="1" style="stop-color:#C7FE58"/>
</linearGradient>
<path style="fill:url(#SVGID_3_);" d="M107.659,4.413v34.388h34.388L107.659,4.413z"/>
<linearGradient id="SVGID_4_" gradientUnits="userSpaceOnUse" x1="42.374" y1="49.395" x2="42.374" y2="58.051" gradientTransform="matrix(1 0 0 -1 0 150)">
	<stop  offset="0.002" style="stop-color:#9ACE34"/>
	<stop  offset="1" style="stop-color:#C7FE58"/>
</linearGradient>
<path style="fill:url(#SVGID_4_);" d="M49.617,96.277c0-2.387-1.942-4.328-4.328-4.328H35.131v8.656h10.158
	C47.676,100.605,49.617,98.663,49.617,96.277z"/>
<linearGradient id="SVGID_5_" gradientUnits="userSpaceOnUse" x1="103.585" y1="73.461" x2="103.585" y2="83.397" gradientTransform="matrix(1 0 0 -1 0 150)">
	<stop  offset="0.002" style="stop-color:#9ACE34"/>
	<stop  offset="1" style="stop-color:#C7FE58"/>
</linearGradient>
<path style="fill:url(#SVGID_5_);" d="M108.553,71.571c0-2.739-2.229-4.968-4.968-4.968c-2.739,0-4.968,2.228-4.968,4.968
	c0,2.739,2.229,4.968,4.968,4.968C106.324,76.539,108.553,74.311,108.553,71.571z"/>
<linearGradient id="SVGID_6_" gradientUnits="userSpaceOnUse" x1="114.024" y1="42.683" x2="114.024" y2="52.619" gradientTransform="matrix(1 0 0 -1 0 150)">
	<stop  offset="0.002" style="stop-color:#9ACE34"/>
	<stop  offset="1" style="stop-color:#C7FE58"/>
</linearGradient>
<path style="fill:url(#SVGID_6_);" d="M118.992,102.349c0-2.739-2.229-4.968-4.968-4.968c-2.739,0-4.968,2.228-4.968,4.968
	c0,2.739,2.229,4.968,4.968,4.968S118.992,105.088,118.992,102.349z"/>
<linearGradient id="SVGID_7_" gradientUnits="userSpaceOnUse" x1="89.685" y1="6.864" x2="89.685" y2="145.656" gradientTransform="matrix(1 0 0 -1 0 150)">
	<stop  offset="0.002" style="stop-color:#9ACE34"/>
	<stop  offset="1" style="stop-color:#C7FE58"/>
</linearGradient>
<path style="fill:url(#SVGID_7_);" d="M99.53,46.93V4.344H37.254v39.935c0.548-0.021,1.098-0.034,1.652-0.034
	c16.707,0,31.249,9.439,38.579,23.262h13.652c1.714-5.237,6.645-9.032,12.448-9.032c7.221,0,13.096,5.875,13.096,13.096
	s-5.875,13.096-13.096,13.096c-5.803,0-10.733-3.795-12.448-9.032H80.793c1.139,3.888,1.752,7.997,1.752,12.248
	c0,3.583-0.437,7.066-1.256,10.401h20.287c1.714-5.237,6.645-9.032,12.447-9.032c7.221,0,13.096,5.875,13.096,13.096
	s-5.875,13.096-13.096,13.096c-5.803,0-10.733-3.795-12.447-9.032H78.41c-6.981,14.823-22.062,25.11-39.504,25.11
	c-0.553,0-1.104-0.014-1.652-0.034v11.648h104.862V46.93H99.53z"/>
</svg>
