<?xml version="1.0" encoding="iso-8859-1"?>
<!-- Generator: Adobe Illustrator 24.0.1, SVG Export Plug-In . SVG Version: 6.00 Build 0)  -->
<svg version="1.1" id="Capa_1" xmlns="http://www.w3.org/2000/svg" xmlns:xlink="http://www.w3.org/1999/xlink" x="0px" y="0px"
	 viewBox="0 0 150 150" style="enable-background:new 0 0 150 150;" xml:space="preserve">
<g id="XMLID_9_">
	
		<linearGradient id="XMLID_2_" gradientUnits="userSpaceOnUse" x1="23.758" y1="17.054" x2="23.758" y2="101.67" gradientTransform="matrix(1 0 0 -1 0 150)">
		<stop  offset="0.002" style="stop-color:#9ACE34"/>
		<stop  offset="1" style="stop-color:#C7FE58"/>
	</linearGradient>
	<path id="XMLID_16_" style="fill:url(#XMLID_2_);" d="M38.744,102.975V48.33H8.772v84.616L38.744,102.975z"/>
	
		<linearGradient id="XMLID_3_" gradientUnits="userSpaceOnUse" x1="72.461" y1="49.22" x2="72.461" y2="101.67" gradientTransform="matrix(1 0 0 -1 0 150)">
		<stop  offset="0.002" style="stop-color:#9ACE34"/>
		<stop  offset="1" style="stop-color:#C7FE58"/>
	</linearGradient>
	<path id="XMLID_15_" style="fill:url(#XMLID_3_);" d="M46.236,48.33h52.45v52.45h-52.45C46.236,100.78,46.236,48.33,46.236,48.33z"
		/>
	
		<linearGradient id="XMLID_4_" gradientUnits="userSpaceOnUse" x1="88.544" y1="109.163" x2="88.544" y2="139.134" gradientTransform="matrix(1 0 0 -1 0 150)">
		<stop  offset="0.002" style="stop-color:#9ACE34"/>
		<stop  offset="1" style="stop-color:#C7FE58"/>
	</linearGradient>
	<path id="XMLID_14_" style="fill:url(#XMLID_4_);" d="M130.852,10.866H46.236v29.971h54.645L130.852,10.866z"/>
	
		<linearGradient id="XMLID_5_" gradientUnits="userSpaceOnUse" x1="24.8555" y1="109.163" x2="24.8555" y2="136.939" gradientTransform="matrix(1 0 0 -1 0 150)">
		<stop  offset="0.002" style="stop-color:#9ACE34"/>
		<stop  offset="1" style="stop-color:#C7FE58"/>
	</linearGradient>
	<path id="XMLID_13_" style="fill:url(#XMLID_5_);" d="M38.744,13.061L10.967,40.837h27.777V13.061z"/>
	
		<linearGradient id="XMLID_6_" gradientUnits="userSpaceOnUse" x1="121.1645" y1="49.219" x2="121.1645" y2="133.836" gradientTransform="matrix(1 0 0 -1 0 150)">
		<stop  offset="0.002" style="stop-color:#9ACE34"/>
		<stop  offset="1" style="stop-color:#C7FE58"/>
	</linearGradient>
	<path id="XMLID_12_" style="fill:url(#XMLID_6_);" d="M106.179,46.136v54.645h29.971V16.164L106.179,46.136z"/>
	
		<linearGradient id="XMLID_7_" gradientUnits="userSpaceOnUse" x1="120.0675" y1="13.95" x2="120.0675" y2="41.727" gradientTransform="matrix(1 0 0 -1 0 150)">
		<stop  offset="0.002" style="stop-color:#9ACE34"/>
		<stop  offset="1" style="stop-color:#C7FE58"/>
	</linearGradient>
	<path id="XMLID_11_" style="fill:url(#XMLID_7_);" d="M106.179,108.273v27.777l27.777-27.777H106.179z"/>
	
		<linearGradient id="XMLID_8_" gradientUnits="userSpaceOnUse" x1="56.378" y1="11.755" x2="56.378" y2="41.727" gradientTransform="matrix(1 0 0 -1 0 150)">
		<stop  offset="0.002" style="stop-color:#9ACE34"/>
		<stop  offset="1" style="stop-color:#C7FE58"/>
	</linearGradient>
	<path id="XMLID_10_" style="fill:url(#XMLID_8_);" d="M98.686,108.273H44.042L14.07,138.245h84.616V108.273z"/>
</g>
</svg>
