<?xml version="1.0" encoding="iso-8859-1"?>
<!-- Generator: Adobe Illustrator 24.0.1, SVG Export Plug-In . SVG Version: 6.00 Build 0)  -->
<svg version="1.1" id="Capa_1" xmlns="http://www.w3.org/2000/svg" xmlns:xlink="http://www.w3.org/1999/xlink" x="0px" y="0px"
	 viewBox="0 0 150 150" style="enable-background:new 0 0 150 150;" xml:space="preserve">
<g>
	<g>
		
			<linearGradient id="SVGID_1_" gradientUnits="userSpaceOnUse" x1="69.7557" y1="1.7995" x2="69.7557" y2="143.2435" gradientTransform="matrix(1 0 0 -1 0 150)">
			<stop  offset="0.002" style="stop-color:#9ACE34"/>
			<stop  offset="1" style="stop-color:#C7FE58"/>
		</linearGradient>
		<path style="fill:url(#SVGID_1_);" d="M135.664,8.976c-1.675-1.525-4.285-1.378-5.887,0.224l-1.268,1.268l-2.844-2.843
			c-1.057-1.056-2.776-1.182-3.899-0.196c-1.23,1.08-1.275,2.956-0.136,4.095l2.911,2.911l-4.749,4.749l-1.687-1.687
			c-1.643-1.643-4.307-1.643-5.951,0l-30.018,30.02c-1.19,1.19-1.514,2.915-0.98,4.4l-2.992,2.992
			c-0.461-0.169-0.95-0.263-1.45-0.263c-1.116,0-2.186,0.443-2.975,1.232l-4.71,4.71l-4.438-4.438
			c-2.432-2.432-6.277-2.628-8.943-0.455L38.481,69.682c-1.463,1.191-2.356,2.955-2.452,4.839c-0.096,1.884,0.614,3.729,1.948,5.063
			l6.029,6.029l-4.71,4.71c-0.789,0.789-1.232,1.859-1.232,2.975c0,0.509,0.097,1.008,0.272,1.475l-2.912,2.877
			c-1.486-0.534-3.21-0.211-4.4,0.98L3.7,125.953c-1.672,1.672-1.638,4.394,0.075,6.024l15.833,15.064
			c1.853,1.763,4.837,1.479,6.324-0.603l22.498-31.492c1.146-1.671,0.938-3.922-0.495-5.354l-2.292-2.292l2.337-2.342l3.7,3.7
			l7.041,20.975c0.588,1.75,2.221,2.869,3.987,2.869c0.366,0,0.737-0.048,1.107-0.148l18.065-4.916
			c1.368-0.372,2.511-1.367,2.97-2.709c0.653-1.908-0.122-3.95-1.778-4.965l-1.744-1.069l-5.429-19.953l4.912-4.169
			c7.434,5.272,16.375,8.155,25.569,8.155c1.564,0,3.135-0.083,4.707-0.253c1.552-0.167,2.876-1.199,3.442-2.653l4.794-12.308
			c0.533-1.369,0.314-2.916-0.578-4.083c-0.892-1.167-2.328-1.784-3.789-1.628c-7.124,0.761-14.219-0.656-20.407-3.902
			c0.029-0.28,0.052-0.561,0.064-0.844c0.156-3.82-1.305-7.562-4.008-10.265l-2.227-2.227l2.428-2.428l4.165,4.165
			c0.791,0.791,1.863,1.232,2.975,1.232c0.087,0,0.175-0.003,0.262-0.008c1.205-0.075,2.319-0.664,3.06-1.618l26.254-33.785
			c1.302-1.675,1.153-4.057-0.347-5.557l-1.431-1.431l10.068-10.068C137.502,13.376,137.453,10.604,135.664,8.976z M61.726,92.19
			l-2.155,2.155c-0.548,0.548-1.266,0.822-1.984,0.822c-0.718,0-1.436-0.274-1.984-0.822c-1.095-1.095-1.095-2.872,0-3.967
			l2.155-2.155c1.096-1.095,2.872-1.095,3.967,0C62.821,89.319,62.821,91.095,61.726,92.19z M49.956,79.663l-4.67-4.67L59.749,63.21
			l3.33,3.33L49.956,79.663z"/>
	</g>
</g>
</svg>
