<?xml version="1.0" encoding="iso-8859-1"?>
<!-- Generator: Adobe Illustrator 24.0.1, SVG Export Plug-In . SVG Version: 6.00 Build 0)  -->
<svg version="1.1" id="Capa_1" xmlns="http://www.w3.org/2000/svg" xmlns:xlink="http://www.w3.org/1999/xlink" x="0px" y="0px"
	 viewBox="0 0 150 150" style="enable-background:new 0 0 150 150;" xml:space="preserve">
<g>
	<g>
		
			<linearGradient id="SVGID_1_" gradientUnits="userSpaceOnUse" x1="127.514" y1="20.98" x2="127.514" y2="73.649" gradientTransform="matrix(1 0 0 -1 0 150)">
			<stop  offset="0.002" style="stop-color:#9ACE34"/>
			<stop  offset="1" style="stop-color:#C7FE58"/>
		</linearGradient>
		<path style="fill:url(#SVGID_1_);" d="M122.992,76.351h-10.436c1.064,2.912,1.645,6.055,1.645,9.331v39.442
			c0,1.366-0.238,2.677-0.67,3.896h17.253c6.445,0,11.688-5.243,11.688-11.688V95.83C142.471,85.089,133.733,76.351,122.992,76.351z
			"/>
	</g>
</g>
<g>
	<g>
		
			<linearGradient id="SVGID_2_" gradientUnits="userSpaceOnUse" x1="22.487" y1="20.98" x2="22.487" y2="73.649" gradientTransform="matrix(1 0 0 -1 0 150)">
			<stop  offset="0.002" style="stop-color:#9ACE34"/>
			<stop  offset="1" style="stop-color:#C7FE58"/>
		</linearGradient>
		<path style="fill:url(#SVGID_2_);" d="M35.8,85.682c0-3.276,0.581-6.419,1.645-9.331H27.009c-10.741,0-19.48,8.739-19.48,19.48
			v21.501c0,6.445,5.243,11.688,11.688,11.688H36.47c-0.433-1.22-0.67-2.53-0.67-3.896C35.8,125.124,35.8,85.682,35.8,85.682z"/>
	</g>
</g>
<g>
	<g>
		
			<linearGradient id="SVGID_3_" gradientUnits="userSpaceOnUse" x1="74.9995" y1="20.98" x2="74.9995" y2="83.798" gradientTransform="matrix(1 0 0 -1 0 150)">
			<stop  offset="0.002" style="stop-color:#9ACE34"/>
			<stop  offset="1" style="stop-color:#C7FE58"/>
		</linearGradient>
		<path style="fill:url(#SVGID_3_);" d="M86.929,66.202H63.071c-10.741,0-19.48,8.739-19.48,19.48v39.442
			c0,2.151,1.744,3.896,3.896,3.896h55.025c2.152,0,3.896-1.744,3.896-3.896V85.682C106.409,74.941,97.67,66.202,86.929,66.202z"/>
	</g>
</g>
<g>
	<g>
		
			<linearGradient id="SVGID_4_" gradientUnits="userSpaceOnUse" x1="75" y1="88.595" x2="75" y2="135.449" gradientTransform="matrix(1 0 0 -1 0 150)">
			<stop  offset="0.002" style="stop-color:#9ACE34"/>
			<stop  offset="1" style="stop-color:#C7FE58"/>
		</linearGradient>
		<path style="fill:url(#SVGID_4_);" d="M75,14.551c-12.918,0-23.427,10.509-23.427,23.427c0,8.762,4.836,16.414,11.978,20.432
			c3.388,1.906,7.293,2.995,11.449,2.995s8.061-1.089,11.449-2.995c7.142-4.018,11.978-11.67,11.978-20.432
			C98.427,25.061,87.918,14.551,75,14.551z"/>
	</g>
</g>
<g>
	<g>
		
			<linearGradient id="SVGID_5_" gradientUnits="userSpaceOnUse" x1="33.863" y1="78.573" x2="33.863" y2="113.613" gradientTransform="matrix(1 0 0 -1 0 150)">
			<stop  offset="0.002" style="stop-color:#9ACE34"/>
			<stop  offset="1" style="stop-color:#C7FE58"/>
		</linearGradient>
		<path style="fill:url(#SVGID_5_);" d="M33.863,36.387c-9.661,0-17.52,7.859-17.52,17.52s7.859,17.52,17.52,17.52
			c2.451,0,4.784-0.508,6.904-1.42c3.665-1.578,6.687-4.371,8.557-7.87c1.313-2.456,2.059-5.257,2.059-8.23
			C51.383,44.247,43.524,36.387,33.863,36.387z"/>
	</g>
</g>
<g>
	<g>
		
			<linearGradient id="SVGID_6_" gradientUnits="userSpaceOnUse" x1="116.137" y1="78.573" x2="116.137" y2="113.613" gradientTransform="matrix(1 0 0 -1 0 150)">
			<stop  offset="0.002" style="stop-color:#9ACE34"/>
			<stop  offset="1" style="stop-color:#C7FE58"/>
		</linearGradient>
		<path style="fill:url(#SVGID_6_);" d="M116.137,36.387c-9.661,0-17.52,7.859-17.52,17.52c0,2.973,0.747,5.775,2.059,8.23
			c1.87,3.499,4.892,6.292,8.557,7.87c2.12,0.912,4.453,1.42,6.904,1.42c9.661,0,17.52-7.859,17.52-17.52
			S125.798,36.387,116.137,36.387z"/>
	</g>
</g>
</svg>
