<?xml version="1.0" encoding="iso-8859-1"?>
<!-- Generator: Adobe Illustrator 24.0.1, SVG Export Plug-In . SVG Version: 6.00 Build 0)  -->
<svg version="1.1" id="Capa_1" xmlns="http://www.w3.org/2000/svg" xmlns:xlink="http://www.w3.org/1999/xlink" x="0px" y="0px"
	 viewBox="0 0 150 150" style="enable-background:new 0 0 150 150;" xml:space="preserve">
<g>
	<g>
		
			<linearGradient id="SVGID_1_" gradientUnits="userSpaceOnUse" x1="75.0015" y1="62.689" x2="75.0015" y2="145.035" gradientTransform="matrix(1 0 0 -1 0 150)">
			<stop  offset="0.002" style="stop-color:#9ACE34"/>
			<stop  offset="1" style="stop-color:#C7FE58"/>
		</linearGradient>
		<path style="fill:url(#SVGID_1_);" d="M140.931,4.966h-16.688c-2.268,0-4.104,1.835-4.104,4.104v4.104H86.555
			C84.855,8.407,80.343,4.966,75,4.966s-9.855,3.441-11.555,8.207H29.861V9.069c0-2.268-1.835-4.104-4.104-4.104H9.069
			c-2.268,0-4.104,1.835-4.104,4.104v16.414c0,2.268,1.835,4.104,4.104,4.104h16.688c2.268,0,4.104-1.835,4.104-4.104v-4.158h16.853
			C32.473,30.222,23.082,45.848,21.96,63.35c-4.924,1.612-8.513,6.195-8.513,11.65c0,6.788,5.522,12.311,12.311,12.311
			S38.068,81.788,38.068,75c0-5.236-3.3-9.688-7.917-11.465c1.4-19.512,15.015-35.958,33.954-40.651
			c2.048,3.96,6.137,6.702,10.896,6.702s8.847-2.742,10.896-6.702c18.938,4.692,32.554,21.138,33.954,40.65
			c-4.618,1.777-7.917,6.229-7.917,11.465c0,6.788,5.522,12.311,12.311,12.311c6.788,0,12.311-5.522,12.311-12.311
			c0-5.455-3.59-10.038-8.513-11.65c-1.122-17.502-10.513-33.073-24.754-41.97h16.853v4.104c0,2.268,1.835,4.104,4.104,4.104h16.688
			c2.268,0,4.104-1.835,4.104-4.104V9.069C145.034,6.801,143.199,4.966,140.931,4.966z"/>
	</g>
</g>
<g>
	<g>
		
			<linearGradient id="SVGID_2_" gradientUnits="userSpaceOnUse" x1="74.9998" y1="4.966" x2="74.9998" y2="21.654" gradientTransform="matrix(1 0 0 -1 0 150)">
			<stop  offset="0.002" style="stop-color:#9ACE34"/>
			<stop  offset="1" style="stop-color:#C7FE58"/>
		</linearGradient>
		<path style="fill:url(#SVGID_2_);" d="M102.918,139.944c-2.146-6.568-8.33-11.598-15.607-11.598H62.689
			c-7.277,0-13.461,5.03-15.607,11.598c-0.828,2.532,1.327,5.09,3.991,5.09h47.853C101.591,145.034,103.745,142.477,102.918,139.944
			z"/>
	</g>
</g>
<g>
	<g>
		
			<linearGradient id="SVGID_3_" gradientUnits="userSpaceOnUse" x1="74.9998" y1="28.036" x2="74.9998" y2="109.071" gradientTransform="matrix(1 0 0 -1 0 150)">
			<stop  offset="0.002" style="stop-color:#9ACE34"/>
			<stop  offset="1" style="stop-color:#C7FE58"/>
		</linearGradient>
		<path style="fill:url(#SVGID_3_);" d="M111.243,89.138L79.104,40.929v38.93c4.766,1.7,8.207,6.212,8.207,11.555
			c0,6.788-5.522,12.311-12.311,12.311s-12.311-5.522-12.311-12.311c0-5.343,3.441-9.855,8.207-11.555v-38.93L38.757,89.138
			c-1.086,1.627-0.87,3.795,0.513,5.178c7.533,7.533,12.349,17.238,14.207,27.648c2.851-1.156,5.951-1.825,9.212-1.825H87.31
			c3.261,0,6.361,0.668,9.212,1.824c1.858-10.411,6.674-20.115,14.207-27.648C112.112,92.933,112.329,90.765,111.243,89.138z"/>
	</g>
</g>
<g>
	<g>
		
			<linearGradient id="SVGID_4_" gradientUnits="userSpaceOnUse" x1="75" y1="54.481" x2="75" y2="62.689" gradientTransform="matrix(1 0 0 -1 0 150)">
			<stop  offset="0.002" style="stop-color:#9ACE34"/>
			<stop  offset="1" style="stop-color:#C7FE58"/>
		</linearGradient>
		<path style="fill:url(#SVGID_4_);" d="M75,87.311c-2.264,0-4.104,1.839-4.104,4.104c0,2.264,1.839,4.104,4.104,4.104
			s4.104-1.839,4.104-4.104C79.104,89.15,77.264,87.311,75,87.311z"/>
	</g>
</g>
</svg>
