<?xml version="1.0" encoding="iso-8859-1"?>
<!-- Generator: Adobe Illustrator 24.0.1, SVG Export Plug-In . SVG Version: 6.00 Build 0)  -->
<svg version="1.1" id="Capa_1" xmlns="http://www.w3.org/2000/svg" xmlns:xlink="http://www.w3.org/1999/xlink" x="0px" y="0px"
	 viewBox="0 0 150 150" style="enable-background:new 0 0 150 150;" xml:space="preserve">
<g>
	
		<linearGradient id="SVGID_1_" gradientUnits="userSpaceOnUse" x1="104.8401" y1="62.8297" x2="104.8401" y2="87.1712" gradientTransform="matrix(1 0 0 -1 0 150)">
		<stop  offset="0.002" style="stop-color:#9ACE34"/>
		<stop  offset="1" style="stop-color:#C7FE58"/>
	</linearGradient>
	<path style="fill:url(#SVGID_1_);" d="M100.214,64.064c-1.647,1.647-1.647,4.318,0,5.965c2.747,2.747,2.747,7.194,0,9.941
		c-1.647,1.647-1.647,4.318,0,5.965s4.318,1.647,5.965,0c6.03-6.03,6.03-15.841,0-21.871
		C104.532,62.417,101.861,62.417,100.214,64.064L100.214,64.064z"/>
	
		<linearGradient id="SVGID_2_" gradientUnits="userSpaceOnUse" x1="120.1961" y1="50.1038" x2="120.1961" y2="99.8952" gradientTransform="matrix(1 0 0 -1 0 150)">
		<stop  offset="0.002" style="stop-color:#9ACE34"/>
		<stop  offset="1" style="stop-color:#C7FE58"/>
	</linearGradient>
	<path style="fill:url(#SVGID_2_);" d="M118.904,51.34c-1.647-1.647-4.318-1.647-5.965,0s-1.647,4.318,0,5.965
		c9.757,9.757,9.757,25.634,0,35.391c-1.647,1.647-1.647,4.318,0,5.965c1.647,1.647,4.318,1.647,5.965,0
		C131.95,85.614,131.95,64.386,118.904,51.34z"/>
	
		<linearGradient id="SVGID_3_" gradientUnits="userSpaceOnUse" x1="135.7056" y1="37.3787" x2="135.7056" y2="112.6202" gradientTransform="matrix(1 0 0 -1 0 150)">
		<stop  offset="0.002" style="stop-color:#9ACE34"/>
		<stop  offset="1" style="stop-color:#C7FE58"/>
	</linearGradient>
	<path style="fill:url(#SVGID_3_);" d="M131.628,38.615c-1.647-1.647-4.318-1.647-5.965,0c-1.647,1.647-1.647,4.318,0,5.965
		c17.058,17.058,17.058,43.782,0,60.841c-1.647,1.647-1.647,4.318,0,5.965c1.647,1.647,4.318,1.647,5.965,0
		C152.091,90.922,152.113,59.099,131.628,38.615z"/>
	
		<linearGradient id="SVGID_4_" gradientUnits="userSpaceOnUse" x1="15.5285" y1="39.289" x2="15.5285" y2="110.71" gradientTransform="matrix(1 0 0 -1 0 150)">
		<stop  offset="0.002" style="stop-color:#9ACE34"/>
		<stop  offset="1" style="stop-color:#C7FE58"/>
	</linearGradient>
	<path style="fill:url(#SVGID_4_);" d="M28.041,39.29H7.234c-2.329,0-4.218,1.888-4.218,4.218v62.985
		c0,2.329,1.888,4.218,4.218,4.218h20.807V39.29z"/>
	
		<linearGradient id="SVGID_5_" gradientUnits="userSpaceOnUse" x1="62.3455" y1="14.3509" x2="62.3455" y2="135.6495" gradientTransform="matrix(1 0 0 -1 0 150)">
		<stop  offset="0.002" style="stop-color:#9ACE34"/>
		<stop  offset="1" style="stop-color:#C7FE58"/>
	</linearGradient>
	<path style="fill:url(#SVGID_5_);" d="M68.982,16.217L36.477,36.003v77.994l32.505,19.786c8.434,5.134,19.232-0.931,19.232-10.808
		v-95.95C88.214,17.151,77.418,11.081,68.982,16.217L68.982,16.217z"/>
</g>
</svg>
