<?xml version="1.0" encoding="iso-8859-1"?>
<!-- Generator: Adobe Illustrator 24.0.1, SVG Export Plug-In . SVG Version: 6.00 Build 0)  -->
<svg version="1.1" id="Capa_1" xmlns="http://www.w3.org/2000/svg" xmlns:xlink="http://www.w3.org/1999/xlink" x="0px" y="0px"
	 viewBox="0 0 150 150" style="enable-background:new 0 0 150 150;" xml:space="preserve">
<g id="_x30_Xfpvy.tif">
	<g>
		
			<linearGradient id="SVGID_1_" gradientUnits="userSpaceOnUse" x1="77.0111" y1="132.771" x2="77.0111" y2="142.161" gradientTransform="matrix(1 0 0 -1 0 150)">
			<stop  offset="0.002" style="stop-color:#9ACE34"/>
			<stop  offset="1" style="stop-color:#C7FE58"/>
		</linearGradient>
		<path style="fill:url(#SVGID_1_);" d="M104.586,7.84c2.059,0.572,3.93,1.431,5.077,3.37c0.217,0.367,0.393,0.758,0.668,1.293
			c-0.581,0.027-1.034,0.067-1.487,0.067c-6.031,0.004-12.061,0.003-18.092,0.003c-3.259,0-3.889,0.622-3.949,3.89
			c-0.004,0.217-0.026,0.435-0.046,0.766c-14.306,0-28.603,0-42.897,0c-0.812-4.75,1.301-7.838,6.414-9.39
			C68.377,7.84,86.481,7.84,104.586,7.84z"/>
		
			<linearGradient id="SVGID_2_" gradientUnits="userSpaceOnUse" x1="123.5005" y1="52.136" x2="123.5005" y2="94.1442" gradientTransform="matrix(1 0 0 -1 0 150)">
			<stop  offset="0.002" style="stop-color:#9ACE34"/>
			<stop  offset="1" style="stop-color:#C7FE58"/>
		</linearGradient>
		<path style="fill:url(#SVGID_2_);" d="M144.468,59.258c-1.66,2.004-3.271,4.052-4.989,6.005
			c-9.373,10.663-18.772,21.303-28.159,31.955c-0.171,0.194-0.293,0.43-0.436,0.646c-2.85-2.871-5.556-5.599-8.351-8.415
			c1.975-1.75,3.988-3.541,6.008-5.324c10.154-8.96,20.313-17.914,30.462-26.881c2.308-2.039,3.88-1.854,5.465,0.702
			C144.468,58.383,144.468,58.82,144.468,59.258z"/>
		
			<linearGradient id="SVGID_3_" gradientUnits="userSpaceOnUse" x1="77.3405" y1="27.149" x2="77.3405" y2="127.651" gradientTransform="matrix(1 0 0 -1 0 150)">
			<stop  offset="0.002" style="stop-color:#9ACE34"/>
			<stop  offset="1" style="stop-color:#C7FE58"/>
		</linearGradient>
		<path style="fill:url(#SVGID_3_);" d="M62.918,122.851c0-2.863,0.003-5.651-0.001-8.439c-0.004-2.78-0.7-3.47-3.488-3.471
			c-4.722-0.001-9.445,0-14.167,0c-0.471,0-0.943,0-1.479,0c0-5.083,0-10.049,0-15.111c1.529,0.246,3.044,0.49,4.658,0.749
			c0,2.386,0,4.732,0,7.171c1.653,0,3.201,0,4.91,0c0-2.382,0-4.761,0-7.121c16.091-1.568,27.469-14.144,28.721-28.728
			c2.361,0,4.741,0,7.2,0c0-1.701,0-3.248,0-4.909c-2.381,0-4.725,0-7.069,0C79.55,46.424,70.002,36.868,53.42,34.124
			c0-2.224,0-4.569,0-7.022c-1.655,0-3.204,0-4.909,0c0,2.319,0,4.697,0,7.126c-1.632,0.259-3.125,0.495-4.711,0.747
			c0-4.215,0-8.379,0-12.626c14.276,0,28.548,0,43.003,0c0,0.473,0,0.935,0,1.397c0,6.295-0.002,12.591,0.001,18.886
			c0.001,2.846,0.79,3.627,3.672,3.629c6.253,0.004,12.505,0.001,18.758,0.001c0.514,0,1.028,0,1.647,0c0,0.585,0,1.015,0,1.444
			c0,8.875-0.01,17.75,0.017,26.624c0.003,0.854-0.225,1.438-0.889,2.014c-3.864,3.35-7.676,6.76-11.527,10.125
			c-0.333,0.291-0.807,0.538-1.238,0.581c-8.467,0.843-15.037,7.916-15.204,16.42c-0.027,1.398-0.004,2.798-0.011,4.197
			c-0.012,2.395-0.954,4.261-2.972,5.642c-0.706,0.483-1.47,1.23-1.688,2.003c-0.48,1.698,0.8,2.919,2.874,2.933
			c3.585,0.024,7.172,0.064,10.756-0.011c2.962-0.062,5.956-0.043,8.872-0.485c4.338-0.658,7.706-3.092,10.276-6.631
			c0.169-0.233,0.354-0.453,0.668-0.853c0,4.314,0,8.398,0,12.585C94.925,122.851,79.035,122.851,62.918,122.851z"/>
		
			<linearGradient id="SVGID_4_" gradientUnits="userSpaceOnUse" x1="50.9715" y1="64.4" x2="50.9715" y2="110.664" gradientTransform="matrix(1 0 0 -1 0 150)">
			<stop  offset="0.002" style="stop-color:#9ACE34"/>
			<stop  offset="1" style="stop-color:#C7FE58"/>
		</linearGradient>
		<path style="fill:url(#SVGID_4_);" d="M24.894,67.897c1.41,0,2.834,0,4.346,0c0-1.678,0-3.226,0-4.939c-1.462,0-2.921,0-4.384,0
			c0.583-11.896,11.198-22.903,23.549-23.622c0,1.429,0,2.854,0,4.387c1.694,0,3.271,0,4.983,0c0-1.477,0-2.9,0-4.322
			C64.336,39.739,76.102,49.7,77.012,62.922c-1.464,0-2.926,0-4.469,0c0,1.703,0,3.249,0,4.923c1.488,0,2.912,0,4.544,0
			C76.321,75.008,73.3,80.771,67.809,85.6c-0.116-7.104-2.986-12.406-8.997-15.866c6.433-6.282,4.339-14.423,0.211-18.081
			c-4.88-4.324-12.105-4.148-16.597,0.353c-4.418,4.427-5.108,12.233,0.6,17.684c-5.964,3.487-8.913,8.738-8.998,15.605
			C30.002,83.504,24.542,73.146,24.894,67.897z"/>
		
			<linearGradient id="SVGID_5_" gradientUnits="userSpaceOnUse" x1="115.683" y1="108.647" x2="115.683" y2="132.387" gradientTransform="matrix(1 0 0 -1 0 150)">
			<stop  offset="0.002" style="stop-color:#9ACE34"/>
			<stop  offset="1" style="stop-color:#C7FE58"/>
		</linearGradient>
		<path style="fill:url(#SVGID_5_);" d="M139.541,17.613c0,7.894,0,15.784,0,23.74c-15.91,0-31.763,0-47.716,0
			c0-7.875,0-15.758,0-23.74C107.687,17.613,123.572,17.613,139.541,17.613z M134.888,31.852c-12.895,0-25.631,0-38.333,0
			c0,1.66,0,3.21,0,4.725c12.834,0,25.567,0,38.333,0C134.888,34.956,134.888,33.445,134.888,31.852z M110.929,26.953
			c8.054,0,15.976,0,23.95,0c0-1.592,0-3.095,0-4.625c-8.034,0-15.985,0-23.95,0C110.929,23.912,110.929,25.385,110.929,26.953z
			 M96.495,26.935c3.276,0,6.425,0,9.568,0c0-1.61,0-3.112,0-4.613c-3.237,0-6.386,0-9.568,0
			C96.495,23.897,96.495,25.368,96.495,26.935z"/>
		
			<linearGradient id="SVGID_6_" gradientUnits="userSpaceOnUse" x1="77.3196" y1="7.8394" x2="77.3196" y2="22.133" gradientTransform="matrix(1 0 0 -1 0 150)">
			<stop  offset="0.002" style="stop-color:#9ACE34"/>
			<stop  offset="1" style="stop-color:#C7FE58"/>
		</linearGradient>
		<path style="fill:url(#SVGID_6_);" d="M110.866,127.867c0,2.474,0.137,4.842-0.029,7.188c-0.314,4.427-3.304,7.088-7.818,7.096
			c-9.705,0.018-19.41,0.005-29.115,0.006c-7.432,0-14.864,0.009-22.295-0.004c-3.774-0.007-6.566-1.928-7.504-5.14
			c-0.169-0.579-0.236-1.189-0.385-1.97c0.562,0,1.023,0,1.485,0c4.765,0,9.53,0.003,14.295-0.001
			c2.613-0.002,3.41-0.811,3.418-3.448c0.004-1.213,0.001-2.427,0.001-3.726C78.942,127.867,94.829,127.867,110.866,127.867z
			 M79.638,132.587c-1.675,0-3.174,0-4.657,0c0,1.652,0,3.196,0,4.759c1.599,0,3.101,0,4.657,0
			C79.638,135.723,79.638,134.178,79.638,132.587z"/>
		
			<linearGradient id="SVGID_7_" gradientUnits="userSpaceOnUse" x1="34.093" y1="19.973" x2="34.093" y2="34.034" gradientTransform="matrix(1 0 0 -1 0 150)">
			<stop  offset="0.002" style="stop-color:#9ACE34"/>
			<stop  offset="1" style="stop-color:#C7FE58"/>
		</linearGradient>
		<path style="fill:url(#SVGID_7_);" d="M10.171,130.027c0-4.721,0-9.339,0-14.061c15.944,0,31.855,0,47.844,0
			c0,4.691,0,9.339,0,14.061C42.07,130.027,26.187,130.027,10.171,130.027z M53.298,125.297c0-1.63,0-3.136,0-4.68
			c-7.233,0-14.373,0-21.578,0c0,1.599,0,3.104,0,4.68C38.924,125.297,46.069,125.297,53.298,125.297z M14.913,125.276
			c4.049,0,7.992,0,11.935,0c0-1.602,0-3.111,0-4.639c-4.011,0-7.949,0-11.935,0C14.913,122.221,14.913,123.693,14.913,125.276z"/>
		
			<linearGradient id="SVGID_8_" gradientUnits="userSpaceOnUse" x1="50.9074" y1="58.419" x2="50.9074" y2="77.3058" gradientTransform="matrix(1 0 0 -1 0 150)">
			<stop  offset="0.002" style="stop-color:#9ACE34"/>
			<stop  offset="1" style="stop-color:#C7FE58"/>
		</linearGradient>
		<path style="fill:url(#SVGID_8_);" d="M53.402,91.581c0-1.56,0-2.985,0-4.521c-1.667,0-3.213,0-4.916,0c0,1.447,0,2.909,0,4.499
			c-3.33-0.212-6.278-1.16-9.115-2.506c-0.184-0.087-0.367-0.4-0.371-0.611c-0.06-3.445-0.255-6.913,1.721-10.016
			c2.513-3.945,6.161-5.978,10.764-5.708c5.15,0.302,8.989,2.951,10.553,7.963c0.746,2.389,0.593,5.061,0.81,7.608
			c0.02,0.24-0.163,0.635-0.363,0.735C59.664,90.424,56.688,91.284,53.402,91.581z"/>
		
			<linearGradient id="SVGID_9_" gradientUnits="userSpaceOnUse" x1="96.8908" y1="36.6523" x2="96.8908" y2="57.9468" gradientTransform="matrix(1 0 0 -1 0 150)">
			<stop  offset="0.002" style="stop-color:#9ACE34"/>
			<stop  offset="1" style="stop-color:#C7FE58"/>
		</linearGradient>
		<path style="fill:url(#SVGID_9_);" d="M85.597,113.291c1.652-3.043,1.372-6.167,1.375-9.25c0.004-3.905,1.485-7.115,4.513-9.58
			c1.653-1.345,3.546-2.217,5.686-2.403c0.441-0.038,1.04,0.151,1.352,0.455c3.09,3.022,6.165,6.062,9.158,9.179
			c0.409,0.426,0.585,1.348,0.468,1.964c-1.017,5.342-5.469,9.333-10.92,9.599C93.442,113.44,89.638,113.291,85.597,113.291z"/>
		
			<linearGradient id="SVGID_10_" gradientUnits="userSpaceOnUse" x1="19.707" y1="118.35" x2="19.707" y2="132.437" gradientTransform="matrix(1 0 0 -1 0 150)">
			<stop  offset="0.002" style="stop-color:#9ACE34"/>
			<stop  offset="1" style="stop-color:#C7FE58"/>
		</linearGradient>
		<path style="fill:url(#SVGID_10_);" d="M10.212,17.563c6.359,0,12.633,0,18.99,0c0,4.695,0,9.343,0,14.087
			c-6.3,0-12.603,0-18.99,0C10.212,27.001,10.212,22.353,10.212,17.563z M14.965,22.292c0,1.611,0,3.145,0,4.676
			c3.223,0,6.343,0,9.494,0c0-1.612,0-3.148,0-4.676C21.239,22.292,18.118,22.292,14.965,22.292z"/>
		
			<linearGradient id="SVGID_11_" gradientUnits="userSpaceOnUse" x1="50.895" y1="82.3029" x2="50.895" y2="96.5193" gradientTransform="matrix(1 0 0 -1 0 150)">
			<stop  offset="0.002" style="stop-color:#9ACE34"/>
			<stop  offset="1" style="stop-color:#C7FE58"/>
		</linearGradient>
		<path style="fill:url(#SVGID_11_);" d="M50.872,67.697c-3.947-0.015-7.229-3.307-7.136-7.157c0.095-3.945,3.339-7.093,7.273-7.059
			c3.855,0.033,7.044,3.259,7.047,7.13C58.059,64.541,54.845,67.712,50.872,67.697z"/>
	</g>
</g>
</svg>
