<?xml version="1.0" encoding="iso-8859-1"?>
<!-- Generator: Adobe Illustrator 24.0.1, SVG Export Plug-In . SVG Version: 6.00 Build 0)  -->
<svg version="1.1" id="Capa_1" xmlns="http://www.w3.org/2000/svg" xmlns:xlink="http://www.w3.org/1999/xlink" x="0px" y="0px"
	 viewBox="0 0 150 150" style="enable-background:new 0 0 150 150;" xml:space="preserve">
<g>
	<linearGradient id="path2_1_" gradientUnits="userSpaceOnUse" x1="71.7285" y1="142.94" x2="71.7285" y2="7.06">
		<stop  offset="0.002" style="stop-color:#9ACE34"/>
		<stop  offset="1" style="stop-color:#C7FE58"/>
	</linearGradient>
	<path id="path2" style="fill:url(#path2_1_);" d="M116.731,115.939L92.355,74.937l24.376-41.002l11.751,41.002L116.731,115.939z
		 M62.479,111.938L31.852,81.562h48.752l24.376,41.002L62.479,111.938z M62.479,37.811l42.377-10.626L80.48,68.187H31.728
		L62.479,37.811z M124.731,7.06L69.353,21.436l-8.25,14.125l-16.625-0.125L3.851,74.937l40.627,39.502l16.625-0.125l8.25,14.125
		l55.378,14.501l14.875-53.878l-8.376-14l8.376-14.001L124.731,7.06z"/>
</g>
</svg>
