<?xml version="1.0" encoding="iso-8859-1"?>
<!-- Generator: Adobe Illustrator 24.0.1, SVG Export Plug-In . SVG Version: 6.00 Build 0)  -->
<svg version="1.1" id="Capa_1" xmlns="http://www.w3.org/2000/svg" xmlns:xlink="http://www.w3.org/1999/xlink" x="0px" y="0px"
	 viewBox="0 0 150 150" style="enable-background:new 0 0 150 150;" xml:space="preserve">
<g id="ty6RJk.tif">
	<g>
		
			<linearGradient id="SVGID_1_" gradientUnits="userSpaceOnUse" x1="74.9997" y1="45.332" x2="74.9997" y2="115.346" gradientTransform="matrix(1 0 0 -1 0 150)">
			<stop  offset="0.002" style="stop-color:#9ACE34"/>
			<stop  offset="1" style="stop-color:#C7FE58"/>
		</linearGradient>
		<path style="fill:url(#SVGID_1_);" d="M4.985,36.544c0.678-1.224,1.635-1.895,3.115-1.89c8.646,0.03,17.292,0.015,25.938,0.017
			c0.253,0,0.506,0.029,0.954,0.056c0,0.596,0,1.148,0,1.701c0,6.717-0.002,13.435,0.001,20.152c0.001,2.29,0.795,3.087,3.082,3.087
			c24.636,0.002,49.271,0.002,73.907,0c2.197,0,3.022-0.816,3.024-2.99c0.006-6.717,0.002-13.435,0.002-20.152
			c0-0.562,0-1.125,0-1.782c0.525-0.029,0.926-0.071,1.326-0.071c8.438-0.004,16.875-0.007,25.313,0
			c2.396,0.002,3.362,0.928,3.363,3.262c0.007,21.87,0.004,43.741,0.002,65.611c0,0.306-0.026,0.612-0.048,1.123
			c-46.69,0-93.334,0-139.979,0C4.985,81.96,4.985,59.252,4.985,36.544z M105.006,74.744c0,0.778-0.007,1.446,0.001,2.114
			c0.025,1.901,0.875,2.803,2.735,2.805c9.845,0.011,19.689,0.011,29.534,0c1.799-0.002,2.716-0.894,2.73-2.651
			c0.024-3.228,0.023-6.457,0-9.686c-0.012-1.708-0.903-2.645-2.571-2.648c-9.949-0.017-19.898-0.017-29.846,0
			c-1.676,0.003-2.54,0.932-2.58,2.641c-0.017,0.756-0.003,1.513-0.003,2.277c-6.765,0-13.308,0-20.005,0
			c0-0.837,0.02-1.604-0.004-2.369c-0.051-1.6-0.933-2.539-2.516-2.547c-5-0.027-10.001-0.028-15.001,0.001
			c-1.572,0.009-2.433,0.962-2.478,2.582c-0.021,0.762-0.004,1.525-0.004,2.298c-6.764,0-13.345,0-20.005,0
			c0-0.831,0.017-1.556-0.003-2.28c-0.046-1.687-0.928-2.602-2.619-2.605c-9.949-0.015-19.898-0.016-29.846,0.002
			c-1.596,0.003-2.514,0.932-2.529,2.528c-0.03,3.281-0.027,6.562-0.002,9.842c0.013,1.69,0.918,2.582,2.608,2.613
			c1.51,0.028,3.021,0.006,4.532,0.006c8.334,0,16.668,0.005,25.002-0.004c1.986-0.002,2.833-0.864,2.857-2.844
			c0.008-0.664,0.001-1.328,0.001-2.064c6.719,0,13.301,0,20.004,0c0,0.649-0.002,1.21,0,1.772c0.009,2.382,0.772,3.134,3.189,3.139
			c1.392,0.003,2.784,0.001,4.212,0.001c0,1.742,0,3.32,0,4.871c-0.196,0.056-0.292,0.108-0.389,0.108
			c-1.406,0.011-2.812,0.006-4.218,0.023c-1.897,0.023-2.779,0.877-2.789,2.749c-0.017,3.124-0.013,6.249-0.002,9.374
			c0.007,1.991,0.861,2.866,2.826,2.871c4.792,0.012,9.584,0.013,14.376,0c1.894-0.005,2.783-0.88,2.794-2.746
			c0.018-3.124,0.014-6.249,0.002-9.374c-0.007-1.994-0.86-2.855-2.825-2.872c-1.539-0.013-3.078-0.003-4.589-0.003
			c0-1.781,0-3.324,0-5.001c1.683,0,3.286,0.028,4.888-0.008c1.586-0.036,2.472-0.948,2.524-2.543
			c0.025-0.766,0.004-1.533,0.004-2.372C91.694,74.744,98.237,74.744,105.006,74.744z"/>
		
			<linearGradient id="SVGID_2_" gradientUnits="userSpaceOnUse" x1="74.9866" y1="30.309" x2="74.9866" y2="40.332" gradientTransform="matrix(1 0 0 -1 0 150)">
			<stop  offset="0.002" style="stop-color:#9ACE34"/>
			<stop  offset="1" style="stop-color:#C7FE58"/>
		</linearGradient>
		<path style="fill:url(#SVGID_2_);" d="M4.985,109.668c46.6,0,93.2,0,139.972,0c0,2.649,0.095,5.231-0.041,7.802
			c-0.067,1.261-1.049,1.985-2.315,2.165c-0.46,0.065-0.935,0.032-1.404,0.032c-44.157,0.001-88.315-0.005-132.472,0.024
			c-1.65,0.001-2.949-0.365-3.741-1.898C4.985,115.084,4.985,112.376,4.985,109.668z"/>
		
			<linearGradient id="SVGID_3_" gradientUnits="userSpaceOnUse" x1="74.9995" y1="5.333" x2="74.9995" y2="10.3317" gradientTransform="matrix(1 0 0 -1 0 150)">
			<stop  offset="0.002" style="stop-color:#9ACE34"/>
			<stop  offset="1" style="stop-color:#C7FE58"/>
		</linearGradient>
		<path style="fill:url(#SVGID_3_);" d="M50.307,144.667c1.09-1.559,2.146-3.144,3.302-4.652c0.212-0.276,0.832-0.334,1.263-0.334
			c13.418-0.017,26.837-0.017,40.255,0c0.432,0.001,1.052,0.058,1.263,0.334c1.156,1.508,2.212,3.093,3.302,4.652
			C83.231,144.667,66.769,144.667,50.307,144.667z"/>
		
			<linearGradient id="SVGID_4_" gradientUnits="userSpaceOnUse" x1="75.025" y1="95.411" x2="75.025" y2="145.223" gradientTransform="matrix(1 0 0 -1 0 150)">
			<stop  offset="0.002" style="stop-color:#9ACE34"/>
			<stop  offset="1" style="stop-color:#C7FE58"/>
		</linearGradient>
		<path style="fill:url(#SVGID_4_);" d="M109.935,4.777c0,16.656,0,33.194,0,49.812c-23.28,0-46.489,0-69.82,0
			c0-16.554,0-33.129,0-49.812C63.327,4.777,86.572,4.777,109.935,4.777z M80.084,6.32c-5.035,15.105-10.018,30.051-15.03,45.088
			c1.703,0.558,3.213,1.053,4.858,1.592c5.027-15.08,10.011-30.033,15.023-45.069C83.265,7.376,81.797,6.889,80.084,6.32z
			 M60.79,12.959c-0.152,0.087-0.31,0.139-0.416,0.244c-4.866,4.855-9.741,9.701-14.578,14.584
			c-1.256,1.269-1.158,2.597,0.195,3.967c2.488,2.52,5.005,5.011,7.507,7.517c2.387,2.39,4.771,4.784,6.972,6.99
			c1.31-1.189,2.518-2.286,3.85-3.495c-4.392-4.388-8.728-8.721-13.189-13.178c4.419-4.378,8.805-8.723,13.203-13.08
			C63.064,15.237,61.929,14.1,60.79,12.959z M89.248,46.445c0.38-0.348,0.695-0.614,0.986-0.905
			c4.494-4.49,8.988-8.98,13.476-13.476c1.83-1.834,1.84-2.945,0.034-4.755c-4.487-4.497-8.982-8.987-13.477-13.476
			c-0.32-0.32-0.671-0.608-0.896-0.811c-1.259,1.164-2.436,2.251-3.786,3.499c4.44,4.427,8.812,8.785,13.398,13.358
			c-4.42,4.408-8.785,8.762-13.098,13.063C86.976,44.077,88.054,45.201,89.248,46.445z"/>
		
			<linearGradient id="SVGID_5_" gradientUnits="userSpaceOnUse" x1="75.002" y1="15.417" x2="75.002" y2="25.247" gradientTransform="matrix(1 0 0 -1 0 150)">
			<stop  offset="0.002" style="stop-color:#9ACE34"/>
			<stop  offset="1" style="stop-color:#C7FE58"/>
		</linearGradient>
		<path style="fill:url(#SVGID_5_);" d="M60.524,134.583c0.557-3.323,1.095-6.54,1.646-9.83c8.536,0,17.004,0,25.649,0
			c0.545,3.224,1.094,6.474,1.661,9.83C79.824,134.583,70.311,134.583,60.524,134.583z"/>
		
			<linearGradient id="SVGID_6_" gradientUnits="userSpaceOnUse" x1="27.4615" y1="75.441" x2="27.4615" y2="80.25" gradientTransform="matrix(1 0 0 -1 0 150)">
			<stop  offset="0.002" style="stop-color:#9ACE34"/>
			<stop  offset="1" style="stop-color:#C7FE58"/>
		</linearGradient>
		<path style="fill:url(#SVGID_6_);" d="M15.058,74.559c0-1.648,0-3.188,0-4.809c8.273,0,16.476,0,24.807,0c0,1.54,0,3.119,0,4.809
			C31.668,74.559,23.428,74.559,15.058,74.559z"/>
		
			<linearGradient id="SVGID_7_" gradientUnits="userSpaceOnUse" x1="122.5375" y1="75.413" x2="122.5375" y2="80.223" gradientTransform="matrix(1 0 0 -1 0 150)">
			<stop  offset="0.002" style="stop-color:#9ACE34"/>
			<stop  offset="1" style="stop-color:#C7FE58"/>
		</linearGradient>
		<path style="fill:url(#SVGID_7_);" d="M134.941,69.777c0,1.649,0,3.189,0,4.81c-8.273,0-16.477,0-24.807,0c0-1.541,0-3.12,0-4.81
			C118.333,69.777,126.573,69.777,134.941,69.777z"/>
		
			<linearGradient id="SVGID_8_" gradientUnits="userSpaceOnUse" x1="75.031" y1="75.416" x2="75.031" y2="80.219" gradientTransform="matrix(1 0 0 -1 0 150)">
			<stop  offset="0.002" style="stop-color:#9ACE34"/>
			<stop  offset="1" style="stop-color:#C7FE58"/>
		</linearGradient>
		<path style="fill:url(#SVGID_8_);" d="M79.934,69.781c0,1.64,0,3.179,0,4.803c-3.269,0-6.473,0-9.806,0c0-1.533,0-3.11,0-4.803
			C73.316,69.781,76.557,69.781,79.934,69.781z"/>
		
			<linearGradient id="SVGID_9_" gradientUnits="userSpaceOnUse" x1="74.972" y1="55.441" x2="74.972" y2="60.25" gradientTransform="matrix(1 0 0 -1 0 150)">
			<stop  offset="0.002" style="stop-color:#9ACE34"/>
			<stop  offset="1" style="stop-color:#C7FE58"/>
		</linearGradient>
		<path style="fill:url(#SVGID_9_);" d="M70.069,94.559c0-1.649,0-3.189,0-4.809c3.272,0,6.476,0,9.806,0c0,1.542,0,3.12,0,4.809
			C76.677,94.559,73.436,94.559,70.069,94.559z"/>
	</g>
</g>
</svg>
