<?xml version="1.0" encoding="iso-8859-1"?>
<!-- Generator: Adobe Illustrator 24.0.1, SVG Export Plug-In . SVG Version: 6.00 Build 0)  -->
<svg version="1.1" id="Capa_1" xmlns="http://www.w3.org/2000/svg" xmlns:xlink="http://www.w3.org/1999/xlink" x="0px" y="0px"
	 viewBox="0 0 150 150" style="enable-background:new 0 0 150 150;" xml:space="preserve">
<g>
	<g>
		<g>
			
				<linearGradient id="SVGID_1_" gradientUnits="userSpaceOnUse" x1="75.0004" y1="49.1581" x2="75.0004" y2="108.18" gradientTransform="matrix(1 0 0 -1 0 150)">
				<stop  offset="0.002" style="stop-color:#9ACE34"/>
				<stop  offset="1" style="stop-color:#C7FE58"/>
			</linearGradient>
			<path style="fill:url(#SVGID_1_);" d="M145.466,62.018c-0.083-1.77-1.608-3.131-3.379-3.131h-1.403v-3.145
				c0-1.168-0.882-2.189-2.048-2.264c-1.277-0.083-2.339,0.929-2.339,2.189v3.22h-5.251v-1.866c0-1.817-1.473-3.29-3.29-3.29H94.56
				c-1.316,0-2.449,0.775-2.975,1.891h-3.308c-0.161-0.348-0.38-0.67-0.656-0.947c-0.617-0.617-1.454-0.964-2.327-0.964h-5.209
				v-4.908c0-2.69-2.018-4.924-4.693-5.197l-17.226-1.759c-1.467-0.15-2.937,0.331-4.032,1.32s-1.723,2.402-1.723,3.877v6.667
				h-5.209c-0.872,0-1.71,0.347-2.327,0.964c-0.282,0.282-0.504,0.611-0.665,0.966l-3.201-0.019
				c-0.526-1.117-1.659-1.892-2.975-1.891H7.821c-1.849,0-3.335,1.523-3.289,3.372l0.425,17.083c0.05,1.999,1.857,3.492,3.83,3.164
				l29.852-4.973c1.557-0.291,2.687-1.65,2.687-3.234v-2.535l2.587-0.003v4.092l-7.705,15.491c-0.643,1.293-0.358,2.815,0.618,3.791
				c0.202,0.202,0.434,0.381,0.694,0.53l12.707,7.271c0.962,0.551,2.144,0.632,3.14,0.144c1.416-0.694,2.117-2.251,1.762-3.728
				l-0.373-1.556l8.031-14.035l5.021,0.411c1.196,7.025,4.545,13.563,9.628,18.647c0.865,0.865,1.78,1.687,2.742,2.463
				c0.95,0.766,2.253,0.927,3.37,0.436l9.457-4.155c1.052-0.462,1.786-1.439,1.938-2.578s-0.301-2.274-1.195-2.995
				c-4.36-3.519-7.499-8.224-9.126-13.441c0.171-0.139,0.339-0.282,0.502-0.432c2.199-2.026,3.459-4.903,3.459-7.892v-2.462h2.685
				v4.606c0,0.875,0.349,1.711,0.964,2.326c0.048,0.048,0.098,0.095,0.15,0.141c0.708,0.625,1.65,0.915,2.586,0.798l33.197-4.164
				c1.646-0.207,2.881-1.606,2.881-3.265v-1.583h11.134C144.049,65.467,145.555,63.907,145.466,62.018z M58.573,67.146H56.19
				c-0.606,0-1.154-0.245-1.551-0.642c-0.397-0.397-0.643-0.945-0.642-1.551c0-1.211,0.982-2.193,2.194-2.193h2.383
				c1.211,0,2.194,0.982,2.193,2.193C60.766,66.164,59.784,67.146,58.573,67.146z M58.992,53.712v-5.164l14.512,1.482v3.683
				L58.992,53.712z"/>
		</g>
	</g>
</g>
</svg>
