<?xml version="1.0" encoding="iso-8859-1"?>
<!-- Generator: Adobe Illustrator 24.0.1, SVG Export Plug-In . SVG Version: 6.00 Build 0)  -->
<svg version="1.1" id="Capa_1" xmlns="http://www.w3.org/2000/svg" xmlns:xlink="http://www.w3.org/1999/xlink" x="0px" y="0px"
	 viewBox="0 0 150 150" style="enable-background:new 0 0 150 150;" xml:space="preserve">
<g id="xbauhY.tif">
	<g>
		
			<linearGradient id="SVGID_1_" gradientUnits="userSpaceOnUse" x1="74.2808" y1="6.1557" x2="74.2808" y2="124.8471" gradientTransform="matrix(1 0 0 -1 0 150)">
			<stop  offset="0.002" style="stop-color:#9ACE34"/>
			<stop  offset="1" style="stop-color:#C7FE58"/>
		</linearGradient>
		<path style="fill:url(#SVGID_1_);" d="M145.339,62.121c-1.125,2.386-3.035,3.095-5.607,3.083
			c-15.636-0.074-31.272-0.036-46.908-0.035c-0.368,0-0.736,0-1.334,0c0,0.626,0.021,1.203-0.004,1.777
			c-0.101,2.341-1.704,4.078-4.026,4.103c-5.597,0.059-11.195,0.049-16.791-0.007c-2.184-0.022-3.709-1.531-3.969-3.7
			c-0.081-0.679-0.101-1.365-0.153-2.111c-1.393,0-2.718,0-4.218,0c0,2.087,0.004,4.15-0.001,6.214
			c-0.008,3.524-1.567,5.099-5.057,5.109c-1.331,0.004-2.662,0.001-4.178,0.001c0.237,0.514,0.383,0.883,0.57,1.23
			c8.823,16.397,17.657,32.788,26.456,49.197c0.46,0.858,0.988,1.134,1.934,1.142c2.72,0.022,4.452,1.636,4.489,4.04
			c0.038,2.479-1.714,4.205-4.464,4.253c-3.376,0.059-6.754,0.04-10.131,0.021c-2.757-0.015-4.514-1.445-4.781-3.826
			c-0.248-2.213,1.25-3.969,4.063-4.605c-7.304-13.566-14.587-27.092-22.069-40.99c0,16.372,0,32.325,0,48.375
			c0.588,0.06,1.175,0.102,1.756,0.183c2.269,0.318,3.753,2.058,3.672,4.291c-0.077,2.132-1.683,3.855-3.908,3.907
			c-3.837,0.089-7.679,0.096-11.516,0.014c-2.269-0.049-3.923-1.83-3.987-4.006c-0.063-2.15,1.528-3.928,3.789-4.217
			c0.54-0.069,1.086-0.098,1.689-0.15c0-16.006,0-31.954,0-47.903c-0.067-0.038-0.134-0.075-0.201-0.113
			c-7.266,13.48-14.533,26.96-21.862,40.558c0.522,0.154,0.905,0.246,1.274,0.378c1.837,0.659,2.955,2.417,2.77,4.335
			c-0.176,1.835-1.56,3.427-3.454,3.625c-1.786,0.187-3.6,0.138-5.402,0.13c-2.402-0.011-4.816,0.044-7.203-0.171
			c-1.865-0.168-3.204-1.856-3.343-3.718c-0.138-1.845,0.994-3.634,2.773-4.187c0.688-0.214,1.476-0.095,2.182-0.273
			c0.464-0.117,1.057-0.39,1.263-0.771c9.054-16.744,18.071-33.508,27.09-50.271c0.041-0.076,0.042-0.173,0.111-0.478
			c-1.393,0-2.743,0-4.093,0c-3.511-0.001-5.056-1.541-5.072-5.083c-0.013-2.914-0.003-5.829-0.003-8.743c0-0.45,0-0.901,0-1.484
			c13.107,0,26.041,0,39.065,0c0-1.868,0-3.605,0-5.509c-14.745,0-29.473,0-44.294,0c0-6.525,0-12.884,0-19.402
			c14.76,0,29.486,0,44.386,0c0-2.128-0.007-4.101,0.001-6.074c0.015-3.648,1.483-5.1,5.159-5.102c4.95-0.004,9.9-0.01,14.85,0.002
			c3.271,0.008,4.823,1.582,4.835,4.86c0.003,0.869,0.001,1.739,0.001,2.772c0.712,0,1.297,0,1.882,0
			c15.543,0,31.087,0.027,46.63-0.027c2.555-0.009,4.392,0.811,5.339,3.264c0,0.648,0,1.295,0,1.943
			c-0.785,1.792-2.007,3.046-4.071,3.199c0,1.278,0,2.454,0,3.611c2.27,0.44,2.824,0.881,4.071,3.183c0,0.648,0,1.295,0,1.943
			c-0.731,1.908-2.056,3.11-4.096,3.29c0,1.302,0,2.442,0,3.567c2.273,0.468,2.749,0.838,4.096,3.136
			C145.339,60.64,145.339,61.38,145.339,62.121z M132.185,44.748c0-1.216,0-2.342,0-3.516c-7.945,0-15.808,0-23.645,0
			c0,1.242,0,2.37,0,3.516C116.474,44.748,124.302,44.748,132.185,44.748z M132.189,53.289c-7.946,0-15.814,0-23.681,0
			c0,1.216,0,2.308,0,3.429c7.945,0,15.816,0,23.681,0C132.189,55.51,132.189,54.417,132.189,53.289z M100.062,41.297
			c-2.945,0-5.74,0-8.478,0c0,1.263,0,2.347,0,3.434c2.878,0,5.659,0,8.478,0C100.062,43.528,100.062,42.429,100.062,41.297z
			 M91.539,56.711c2.928,0,5.716,0,8.49,0c0-1.217,0-2.312,0-3.449c-2.864,0-5.652,0-8.49,0
			C91.539,54.453,91.539,55.548,91.539,56.711z"/>
		
			<linearGradient id="SVGID_2_" gradientUnits="userSpaceOnUse" x1="9.9014" y1="95.1346" x2="9.9014" y2="112.8429" gradientTransform="matrix(1 0 0 -1 0 150)">
			<stop  offset="0.002" style="stop-color:#9ACE34"/>
			<stop  offset="1" style="stop-color:#C7FE58"/>
		</linearGradient>
		<path style="fill:url(#SVGID_2_);" d="M16.568,37.194c0,5.915,0,11.675,0,17.497c-0.301,0.058-0.559,0.15-0.818,0.151
			c-2.678,0.01-5.358,0.051-8.035-0.007c-2.734-0.06-4.392-1.723-4.44-4.453c-0.052-2.955-0.057-5.912,0.005-8.866
			c0.051-2.416,1.563-4.185,3.856-4.287C10.215,37.091,13.307,37.194,16.568,37.194z"/>
		
			<linearGradient id="SVGID_3_" gradientUnits="userSpaceOnUse" x1="28.477" y1="119.344" x2="28.477" y2="127.9213" gradientTransform="matrix(1 0 0 -1 0 150)">
			<stop  offset="0.002" style="stop-color:#9ACE34"/>
			<stop  offset="1" style="stop-color:#C7FE58"/>
		</linearGradient>
		<path style="fill:url(#SVGID_3_);" d="M24.323,30.656c0-1.608-0.064-3.132,0.015-4.648c0.119-2.309,1.928-3.955,4.195-3.929
			c2.256,0.026,4.004,1.716,4.094,4.039c0.057,1.474,0.011,2.953,0.011,4.538C29.881,30.656,27.184,30.656,24.323,30.656z"/>
		
			<linearGradient id="SVGID_4_" gradientUnits="userSpaceOnUse" x1="55.8004" y1="119.344" x2="55.8004" y2="124.0058" gradientTransform="matrix(1 0 0 -1 0 150)">
			<stop  offset="0.002" style="stop-color:#9ACE34"/>
			<stop  offset="1" style="stop-color:#C7FE58"/>
		</linearGradient>
		<path style="fill:url(#SVGID_4_);" d="M51.725,30.656c-0.097-2.738,1.534-4.619,3.984-4.661c2.545-0.044,4.236,1.801,4.169,4.661
			C57.199,30.656,54.516,30.656,51.725,30.656z"/>
	</g>
</g>
</svg>
