<?xml version="1.0" encoding="iso-8859-1"?>
<!-- Generator: Adobe Illustrator 24.0.1, SVG Export Plug-In . SVG Version: 6.00 Build 0)  -->
<svg version="1.1" id="Capa_1" xmlns="http://www.w3.org/2000/svg" xmlns:xlink="http://www.w3.org/1999/xlink" x="0px" y="0px"
	 viewBox="0 0 150 150" style="enable-background:new 0 0 150 150;" xml:space="preserve">
<g id="_x37_uETW0.tif">
	<g>
		
			<linearGradient id="SVGID_1_" gradientUnits="userSpaceOnUse" x1="4.5092" y1="31.2906" x2="25.3559" y2="43.3265" gradientTransform="matrix(1 0 0 -1 0 150)">
			<stop  offset="0.002" style="stop-color:#9ACE34"/>
			<stop  offset="1" style="stop-color:#C7FE58"/>
		</linearGradient>
		<path style="fill:url(#SVGID_1_);" d="M5.062,117.827c0.686-0.915,1.28-1.92,2.073-2.729c3.549-3.622,7.161-7.183,10.736-10.78
			c1.066-1.073,2.28-1.689,3.817-1.356c1.46,0.316,2.487,1.205,2.912,2.631c0.453,1.518,0.073,2.885-1.064,4.021
			c-2.646,2.642-5.289,5.287-7.934,7.93c-1.064,1.063-2.127,2.127-3.192,3.19c-2.856,2.851-5.552,2.447-7.349-1.099
			C5.062,119.032,5.062,118.43,5.062,117.827z"/>
		
			<linearGradient id="SVGID_2_" gradientUnits="userSpaceOnUse" x1="21.1413" y1="14.5999" x2="42.0196" y2="26.654" gradientTransform="matrix(1 0 0 -1 0 150)">
			<stop  offset="0.002" style="stop-color:#9ACE34"/>
			<stop  offset="1" style="stop-color:#C7FE58"/>
		</linearGradient>
		<path style="fill:url(#SVGID_2_);" d="M24.681,139.253c-0.143-0.085-0.278-0.185-0.429-0.252
			c-2.756-1.224-3.413-4.273-1.291-6.436c3.883-3.958,7.816-7.868,11.758-11.767c1.648-1.63,4.019-1.661,5.55-0.169
			c1.6,1.56,1.599,3.914-0.096,5.629c-3.868,3.913-7.76,7.803-11.68,11.664c-0.561,0.553-1.332,0.893-2.006,1.331
			C25.886,139.253,25.283,139.253,24.681,139.253z"/>
		
			<linearGradient id="SVGID_3_" gradientUnits="userSpaceOnUse" x1="64.6997" y1="81.7612" x2="142.4435" y2="126.6465" gradientTransform="matrix(1 0 0 -1 0 150)">
			<stop  offset="0.002" style="stop-color:#9ACE34"/>
			<stop  offset="1" style="stop-color:#C7FE58"/>
		</linearGradient>
		<path style="fill:url(#SVGID_3_);" d="M91.162,88.27c-11.753-11.746-23.305-23.292-35.22-35.2c0.317-0.185,0.84-0.365,1.192-0.717
			C67.916,41.599,78.78,30.924,89.402,20.014c4.309-4.425,9.422-7.083,15.191-8.782c7.073-2.083,14.332-3.222,21.635-4.058
			c6.357-0.728,11.661,4.603,10.921,10.962c-0.844,7.259-1.966,14.473-4.036,21.508c-1.711,5.816-4.37,10.97-8.827,15.309
			c-10.879,10.592-21.522,21.426-32.252,32.171C91.673,87.486,91.406,87.945,91.162,88.27z"/>
		
			<linearGradient id="SVGID_4_" gradientUnits="userSpaceOnUse" x1="46.1634" y1="58.2203" x2="74.7002" y2="74.696" gradientTransform="matrix(1 0 0 -1 0 150)">
			<stop  offset="0.002" style="stop-color:#9ACE34"/>
			<stop  offset="1" style="stop-color:#C7FE58"/>
		</linearGradient>
		<path style="fill:url(#SVGID_4_);" d="M85.507,94.022c-0.67,0.546-1.42,1.061-2.057,1.691c-3.424,3.387-6.818,6.804-10.228,10.205
			c-0.395,0.393-0.796,0.796-1.253,1.107c-1.892,1.288-2.403,1.228-4.008-0.378C57.683,96.37,47.415,86.084,37.11,75.834
			c-0.73-0.726-0.975-1.338-0.437-2.211c0.425-0.688,0.743-1.483,1.296-2.045c4.011-4.076,8.07-8.106,12.116-12.148
			c0.149-0.149,0.328-0.266,0.452-0.365C62.122,70.647,73.674,82.194,85.507,94.022z"/>
		
			<linearGradient id="SVGID_5_" gradientUnits="userSpaceOnUse" x1="33.4231" y1="42.6853" x2="55.5353" y2="55.4518" gradientTransform="matrix(1 0 0 -1 0 150)">
			<stop  offset="0.002" style="stop-color:#9ACE34"/>
			<stop  offset="1" style="stop-color:#C7FE58"/>
		</linearGradient>
		<path style="fill:url(#SVGID_5_);" d="M58.334,122.802c-1.078,0.045-2.061-0.664-2.973-1.578
			c-6.47-6.484-12.95-12.958-19.427-19.435c-4.348-4.349-8.713-8.681-13.038-13.053c-2.303-2.328-1.64-5.737,1.273-6.629
			c0.632-0.193,1.419-0.297,2.015-0.093c0.865,0.297,1.365,0.053,1.887-0.559c0.333-0.39,0.69-0.814,1.13-1.046
			c1.094-0.578,2.217-1.358,3.378-1.454c0.647-0.053,1.432,1.061,2.088,1.716c9.983,9.965,19.947,19.949,29.944,29.9
			c0.738,0.734,1.083,1.349,0.459,2.301c-0.278,0.424-0.329,1.009-0.637,1.4c-1.322,1.677-2.49,3.232-2.231,5.699
			C62.373,121.601,60.393,122.798,58.334,122.802z"/>
		
			<linearGradient id="SVGID_6_" gradientUnits="userSpaceOnUse" x1="9.0129" y1="19.1268" x2="29.8874" y2="31.1786" gradientTransform="matrix(1 0 0 -1 0 150)">
			<stop  offset="0.002" style="stop-color:#9ACE34"/>
			<stop  offset="1" style="stop-color:#C7FE58"/>
		</linearGradient>
		<path style="fill:url(#SVGID_6_);" d="M13.619,134.921c-1.679-0.238-2.888-0.89-3.58-2.289c-0.679-1.372-0.577-2.748,0.306-4.029
			c0.146-0.211,0.313-0.412,0.495-0.594c3.921-3.924,7.812-7.876,11.78-11.752c2.322-2.268,5.854-1.293,6.59,1.74
			c0.332,1.367-0.036,2.591-0.998,3.564c-3.991,4.035-7.99,8.063-12.058,12.02C15.497,134.221,14.473,134.484,13.619,134.921z"/>
	</g>
</g>
</svg>
