<?xml version="1.0" encoding="iso-8859-1"?>
<!-- Generator: Adobe Illustrator 24.0.1, SVG Export Plug-In . SVG Version: 6.00 Build 0)  -->
<svg version="1.1" id="Layer_1" xmlns="http://www.w3.org/2000/svg" xmlns:xlink="http://www.w3.org/1999/xlink" x="0px" y="0px"
	 viewBox="0 0 963.779 822.678" style="enable-background:new 0 0 963.779 822.678;" xml:space="preserve">
<g>
	<g style="opacity:0.6;">
		<path style="fill:#FFFFFF;" d="M217.808,394.188c-1.045-0.074-2.917-0.111-5.721-0.111c-2.909,0-6.386,0.039-9.74,0.076
			c-4.726,0.052-9.197,0.103-11.57,0.04c-5.015-0.131-29.431-0.588-29.433-0.588c-0.678-0.012-1.321-0.301-1.783-0.797
			c-0.462-0.498-0.701-1.161-0.663-1.838c0.083-1.463,0.052-4.493,0.018-8.001c-0.032-3.399-0.072-7.25-0.021-10.824
			c0.089-6.287,0.002-12.304,0-12.401c0-1.462-0.024-4.503-0.024-4.503c-0.005-0.672,0.26-1.317,0.736-1.791
			c0.475-0.474,1.079-0.704,1.793-0.727c0,0,4.138,0.055,5.352,0.108c0,0,8.514-0.108,15.799-0.108c4.264,0,7.254,0.037,8.885,0.111
			c1.713,0.077,3.617,0.115,5.818,0.115c2.177,0,4.279-0.037,6.132-0.068c1.487-0.026,2.816-0.049,3.898-0.049l23.108,0.002
			l0.494-0.008c2.052,0,6.159,0.333,6.332,0.347c1.305,0.106,2.307,1.203,2.294,2.513c0,0-0.026,2.735-0.047,4.059v12.761
			c0,1.931,0.016,3.494,0.029,4.809c0.021,2.116,0.038,3.646-0.032,5.038c-0.068,1.363-0.076,5.811-0.063,9.52
			c0.005,1.373-1.099,2.492-2.473,2.506c0,0-3.104,0.03-6.887,0.03C223.965,394.408,219.85,394.334,217.808,394.188z
			 M234.475,382.104c0.062-1.244,0.047-2.709,0.026-4.739c-0.013-1.329-0.029-2.909-0.029-4.859v-12.8
			c0.008-0.468,0.016-1.099,0.022-1.724c-1.237-0.081-2.691-0.162-3.607-0.162l-23.602,0.006c-1.058,0-2.357,0.023-3.811,0.048
			c-1.881,0.033-4.012,0.069-6.22,0.069c-2.276,0-4.253-0.039-6.043-0.12c-1.557-0.07-4.471-0.105-8.66-0.105
			c-7.236,0-15.742,0.156-15.869,0.105c-0.589-0.023-1.727-0.048-2.8-0.066c0.003,0.715,0.007,1.436,0.007,1.95
			c0,0.06,0.091,6.147,0,12.509c-0.049,3.514-0.011,7.334,0.021,10.705c0.021,2.23,0.04,4.182,0.034,5.739
			c6.363,0.12,22.929,0.436,26.963,0.541c2.336,0.059,6.75,0.011,11.383-0.042c3.375-0.037,6.87-0.076,9.797-0.076
			c2.965,0,4.895,0.039,6.077,0.123c1.897,0.136,6.004,0.207,11.876,0.207c1.652,0,3.174-0.005,4.36-0.012
			C234.399,386.85,234.41,383.405,234.475,382.104z"/>
	</g>
	<g style="opacity:0.6;">
		<path style="fill:#FFFFFF;" d="M133.616,425.988c7.25,0.139,14.799,0.354,17.586,0.427c2.333,0.06,6.748,0.01,11.382-0.041
			c3.373-0.037,6.87-0.076,9.795-0.076c2.97,0,4.9,0.039,6.076,0.122c1.905,0.136,6.012,0.208,11.878,0.208
			c1.652,0,3.174-0.005,4.359-0.012c-0.002-2.482,0.01-5.965,0.076-7.296c0.062-1.245,0.045-2.712,0.026-4.741
			c-0.013-1.329-0.029-2.909-0.029-4.86v-12.8c0.008-0.468,0.015-1.099,0.023-1.723c-1.239-0.082-2.691-0.163-3.608-0.163
			l-23.602,0.007c-1.058,0-2.357,0.023-3.811,0.048c-1.879,0.032-4.014,0.069-6.222,0.069c-2.278,0-4.253-0.039-6.041-0.12
			c-1.557-0.07-4.472-0.106-8.66-0.106c-3.809,0-6.692,0.033-9.791,0.061c0.021-2.038,0.057-2.851,0.371-5.055
			c2.871-0.024,6.175,0,9.419,0c4.262,0,7.252,0.038,8.884,0.111c1.712,0.077,3.616,0.115,5.817,0.115
			c2.177,0,4.281-0.037,6.136-0.068c1.486-0.026,2.814-0.049,3.897-0.049l23.107,0.002l0.496-0.008c2.05,0,6.158,0.334,6.332,0.348
			c1.306,0.107,2.307,1.204,2.294,2.513c0,0-0.026,2.734-0.047,4.059v12.761c0,1.931,0.016,3.495,0.029,4.81
			c0.021,2.115,0.036,3.643-0.033,5.036c-0.065,1.323-0.08,5.734-0.063,9.52c0.007,1.374-1.099,2.494-2.473,2.507
			c0,0-3.104,0.029-6.887,0.029c-6.067,0-10.184-0.075-12.232-0.221c-1.039-0.073-2.91-0.109-5.721-0.109
			c-2.908,0-6.384,0.039-9.739,0.077c-4.728,0.052-9.204,0.106-11.57,0.038c-2.726-0.07-9.796-0.275-16.948-0.412
			C133.772,429.188,133.752,428.025,133.616,425.988z"/>
	</g>
	<g style="opacity:0.6;">
		<path style="fill:#FFFFFF;" d="M676.357,251.9c-1.026-0.072-2.887-0.109-5.532-0.109h-0.19c-2.909,0-6.386,0.039-9.742,0.076
			c-4.724,0.05-9.202,0.104-11.569,0.037c-5.016-0.128-29.431-0.585-29.432-0.585c-0.678-0.013-1.322-0.301-1.784-0.798
			c-0.462-0.498-0.701-1.161-0.663-1.839c0.083-1.463,0.052-4.492,0.018-8c-0.033-3.399-0.072-7.251-0.021-10.824
			c0.089-6.287,0.002-12.304,0-12.401c0-1.462-0.024-4.503-0.024-4.505c-0.005-0.672,0.26-1.317,0.736-1.79
			c0.476-0.475,1.096-0.685,1.795-0.727c0,0,4.136,0.057,5.35,0.109c0,0,8.514-0.109,15.799-0.109c4.253,0,7.241,0.037,8.885,0.112
			c1.714,0.076,3.617,0.114,5.818,0.114c2.177,0,4.279-0.036,6.132-0.068c1.487-0.026,2.816-0.049,3.899-0.049l23.09,0.002
			c1.849-0.085,6.656,0.324,6.844,0.34c1.306,0.107,2.307,1.203,2.294,2.513c0,0-0.026,2.735-0.047,4.058v12.762
			c0,1.93,0.016,3.494,0.029,4.809c0.021,2.115,0.038,3.645-0.032,5.036c-0.068,1.364-0.076,5.812-0.063,9.52
			c0.005,1.374-1.101,2.494-2.473,2.507c0,0-3.104,0.029-6.885,0.029C682.52,252.121,678.404,252.047,676.357,251.9z
			 M693.023,239.816c0.062-1.242,0.047-2.709,0.026-4.738c-0.013-1.328-0.029-2.908-0.029-4.859v-12.801
			c0.008-0.468,0.016-1.099,0.023-1.724c-1.239-0.081-2.692-0.162-3.607-0.162l-23.602,0.006c-1.059,0-2.357,0.023-3.811,0.047
			c-1.881,0.033-4.012,0.07-6.22,0.07c-2.276,0-4.253-0.039-6.043-0.12c-1.569-0.07-4.482-0.106-8.66-0.106
			c-7.196,0-15.594,0.107-15.862,0.107c-0.001,0-0.003,0-0.005,0c-0.59-0.024-1.727-0.049-2.801-0.067
			c0.003,0.715,0.006,1.436,0.006,1.949c0,0.06,0.091,6.147,0,12.51c-0.049,3.512-0.011,7.332,0.021,10.702
			c0.021,2.232,0.041,4.183,0.034,5.74c6.363,0.12,22.929,0.436,26.966,0.542c2.331,0.06,6.75,0.01,11.38-0.041
			c3.375-0.038,6.87-0.076,9.795-0.076h0.192c2.801,0,4.726,0.039,5.887,0.122c1.904,0.137,6.012,0.208,11.878,0.208
			c1.652,0,3.172-0.005,4.359-0.011C692.946,244.563,692.957,241.118,693.023,239.816z"/>
	</g>
	<g style="opacity:0.6;">
		<path style="fill:#FFFFFF;" d="M711.6,214.944c-1.04-0.073-2.965-0.11-5.722-0.11c-2.909,0-6.386,0.039-9.74,0.076
			c-4.723,0.052-9.184,0.101-11.57,0.039c-5.015-0.128-29.431-0.585-29.432-0.585c-0.678-0.013-1.322-0.301-1.784-0.798
			c-0.461-0.497-0.701-1.161-0.663-1.839c0.083-1.463,0.052-4.494,0.018-8.002c-0.033-3.398-0.071-7.249-0.021-10.822
			c0.089-6.287,0.002-12.303,0-12.401c0-1.463-0.024-4.503-0.024-4.505c-0.005-0.672,0.26-1.317,0.736-1.79
			c0.476-0.473,1.102-0.706,1.793-0.727c0,0,4.139,0.055,5.352,0.109c0,0,8.514-0.109,15.799-0.109c4.253,0,7.241,0.037,8.885,0.112
			c1.714,0.077,3.617,0.114,5.818,0.114c2.177,0,4.279-0.036,6.132-0.068c1.488-0.026,2.816-0.049,3.899-0.049l23.09,0.001
			c1.85-0.086,6.656,0.322,6.844,0.338c1.305,0.105,2.307,1.203,2.294,2.513c0,0-0.026,2.735-0.047,4.059v12.76
			c0,1.93,0.016,3.494,0.029,4.809c0.021,2.117,0.038,3.647-0.032,5.038c-0.068,1.364-0.076,5.81-0.063,9.519
			c0.005,1.374-1.099,2.492-2.473,2.507c0,0-3.104,0.031-6.885,0.031C717.763,215.165,713.647,215.091,711.6,214.944z
			 M728.265,202.86c0.062-1.242,0.047-2.709,0.026-4.739c-0.013-1.328-0.029-2.909-0.029-4.859v-12.799
			c0.008-0.468,0.015-1.099,0.023-1.725c-1.237-0.081-2.69-0.161-3.607-0.161l-23.602,0.007c-1.058,0-2.357,0.023-3.811,0.047
			c-1.881,0.033-4.012,0.07-6.22,0.07c-2.276,0-4.253-0.039-6.043-0.12c-1.569-0.07-4.482-0.106-8.66-0.106
			c-7.277,0-15.77,0.13-15.87,0.107c-0.588-0.025-1.725-0.049-2.798-0.068c0.003,0.715,0.006,1.437,0.006,1.951
			c0,0.06,0.091,6.147,0,12.51c-0.049,3.512-0.011,7.332,0.021,10.702c0.021,2.231,0.041,4.183,0.034,5.741
			c6.363,0.12,22.928,0.436,26.961,0.54c2.327,0.06,6.747,0.011,11.385-0.04c3.375-0.038,6.87-0.077,9.797-0.077
			c2.915,0,4.901,0.041,6.077,0.124c1.904,0.137,6.012,0.208,11.878,0.208c1.652,0,3.172-0.007,4.359-0.013
			C728.189,207.607,728.2,204.162,728.265,202.86z"/>
	</g>
	<g style="opacity:0.6;">
		<path style="fill:#FFFFFF;" d="M293.526,568.074c-1.04-0.073-2.964-0.11-5.721-0.11c-2.909,0-6.385,0.039-9.74,0.076
			c-4.724,0.052-9.202,0.106-11.57,0.039c-5.016-0.128-29.431-0.585-29.431-0.585c-0.679-0.013-1.322-0.301-1.783-0.798
			c-0.462-0.498-0.701-1.161-0.663-1.837c0.081-1.46,0.051-4.482,0.017-7.979c-0.033-3.406-0.071-7.265-0.021-10.847
			c0.089-6.287,0.001-12.304,0-12.401c0-1.463-0.025-4.503-0.025-4.505c-0.005-0.671,0.26-1.317,0.736-1.79
			c0.476-0.471,1.134-0.746,1.794-0.727c0,0,4.138,0.055,5.352,0.109c0,0,8.513-0.109,15.799-0.109c4.251,0,7.241,0.037,8.885,0.112
			c1.714,0.076,3.616,0.114,5.818,0.114c2.177,0,4.28-0.036,6.134-0.068c1.487-0.026,2.815-0.049,3.898-0.049l23.09,0.002
			c1.821-0.078,6.654,0.322,6.844,0.338c1.305,0.106,2.307,1.203,2.295,2.514c0,0-0.026,2.734-0.047,4.059v12.76
			c0,1.93,0.016,3.494,0.029,4.809c0.021,2.117,0.036,3.647-0.033,5.038c-0.069,1.39-0.077,5.996-0.063,9.519
			c0.006,1.374-1.099,2.492-2.472,2.507c0,0-3.104,0.031-6.887,0.031C299.691,568.295,295.575,568.22,293.526,568.074z
			 M310.193,555.991c0.062-1.244,0.046-2.71,0.026-4.741c-0.013-1.328-0.03-2.908-0.03-4.859v-12.799
			c0.008-0.468,0.016-1.099,0.023-1.725c-1.238-0.081-2.691-0.161-3.608-0.161l-23.602,0.006c-1.059,0-2.358,0.023-3.811,0.047
			c-1.879,0.033-4.012,0.07-6.22,0.07c-2.277,0-4.253-0.039-6.042-0.12c-1.57-0.07-4.483-0.106-8.66-0.106
			c-7.255,0-15.768,0.127-15.87,0.107c-0.589-0.024-1.725-0.049-2.799-0.068c0.004,0.715,0.007,1.437,0.007,1.951
			c0.001,0.06,0.09,6.147,0,12.51c-0.049,3.52-0.012,7.348,0.021,10.725c0.021,2.222,0.041,4.167,0.033,5.718
			c6.363,0.12,22.929,0.436,26.967,0.541c2.331,0.06,6.747,0.01,11.381-0.042c3.374-0.037,6.87-0.076,9.796-0.076
			c2.914,0,4.901,0.04,6.075,0.123c1.905,0.137,6.013,0.208,11.878,0.208c1.652,0,3.173-0.006,4.359-0.013
			C310.117,560.799,310.127,557.305,310.193,555.991z"/>
	</g>
	<g style="opacity:0.6;">
		<path style="fill:#FFFFFF;" d="M328.766,531.118c-1.033-0.075-2.903-0.111-5.718-0.111c-2.909,0-6.385,0.039-9.741,0.076
			c-4.724,0.052-9.188,0.102-11.57,0.039c-5.016-0.13-29.431-0.587-29.431-0.587c-0.679-0.013-1.322-0.301-1.784-0.798
			c-0.461-0.498-0.701-1.161-0.663-1.839c0.081-1.46,0.052-4.484,0.017-7.985c-0.033-3.403-0.072-7.261-0.021-10.839
			c0.089-6.287,0.001-12.304,0-12.401c0-1.461-0.024-4.502-0.024-4.503c-0.005-0.672,0.26-1.317,0.736-1.79
			c0.476-0.473,1.124-0.725,1.794-0.727c0,0,4.136,0.055,5.352,0.107c0,0,8.513-0.107,15.799-0.107c4.336,0,7.242,0.036,8.885,0.111
			c1.713,0.076,3.617,0.114,5.818,0.114c2.177,0,4.281-0.036,6.134-0.068c1.487-0.026,2.815-0.049,3.898-0.049l23.124,0.002
			l0.478-0.008c2.052,0,6.159,0.333,6.333,0.348c1.306,0.107,2.306,1.203,2.294,2.513c0,0-0.026,2.734-0.047,4.058v12.762
			c0,1.93,0.016,3.493,0.029,4.809c0.021,2.117,0.037,3.645-0.032,5.036c-0.069,1.39-0.077,5.998-0.063,9.521
			c0.006,1.374-1.099,2.492-2.472,2.507c0,0-3.104,0.031-6.887,0.031C334.935,531.339,330.818,531.264,328.766,531.118z
			 M345.436,519.033c0.062-1.242,0.046-2.709,0.026-4.739c-0.013-1.328-0.029-2.909-0.029-4.859v-12.801
			c0.007-0.468,0.015-1.099,0.023-1.723c-1.239-0.081-2.692-0.163-3.608-0.163l-23.601,0.006c-1.059,0-2.358,0.023-3.812,0.047
			c-1.879,0.033-4.012,0.07-6.22,0.07c-2.277,0-4.254-0.039-6.042-0.12c-1.545-0.068-4.459-0.104-8.66-0.104
			c-7.26,0-15.757,0.109-15.868,0.106c-0.589-0.024-1.727-0.047-2.801-0.067c0.004,0.715,0.007,1.435,0.007,1.949
			c0.001,0.06,0.09,6.148,0,12.51c-0.049,3.518-0.012,7.344,0.021,10.719c0.022,2.224,0.041,4.17,0.033,5.724
			c6.37,0.12,22.951,0.437,26.961,0.541c2.335,0.058,6.752,0.01,11.387-0.041c3.374-0.037,6.87-0.076,9.796-0.076
			c2.976,0,4.907,0.039,6.075,0.124c1.905,0.137,6.013,0.208,11.879,0.208c1.652,0,3.173-0.007,4.358-0.013
			C345.36,523.842,345.37,520.347,345.436,519.033z"/>
	</g>
	<g style="opacity:0.6;">
		<path style="fill:#FFFFFF;" d="M636.58,214.944c-1.041-0.073-2.967-0.11-5.723-0.11c-2.908,0-6.386,0.039-9.74,0.076
			c-4.723,0.052-9.184,0.101-11.57,0.039c-5.016-0.128-29.431-0.585-29.432-0.585c-0.678-0.013-1.322-0.301-1.784-0.798
			c-0.462-0.497-0.701-1.161-0.663-1.839c0.083-1.46,0.052-4.477,0.018-7.973c-0.034-3.408-0.071-7.268-0.021-10.852
			c0.089-6.287,0.001-12.303,0-12.401c0-1.463-0.025-4.503-0.025-4.505c-0.005-0.672,0.26-1.317,0.737-1.79
			c0.476-0.473,1.114-0.706,1.793-0.727c0,0,4.139,0.055,5.352,0.109c0,0,8.514-0.109,15.799-0.109c4.251,0,7.239,0.037,8.885,0.112
			c1.713,0.077,3.617,0.114,5.818,0.114c2.177,0,4.279-0.036,6.132-0.068c1.487-0.026,2.816-0.049,3.898-0.049l23.09,0.001
			c1.857-0.086,6.656,0.322,6.844,0.338c1.305,0.105,2.307,1.203,2.294,2.513c0,0-0.026,2.735-0.047,4.059v12.76
			c0,1.93,0.016,3.494,0.029,4.809c0.021,2.117,0.037,3.647-0.032,5.038c-0.068,1.364-0.077,5.81-0.063,9.519
			c0.005,1.374-1.099,2.492-2.473,2.507c0,0-3.104,0.031-6.887,0.031C642.743,215.165,638.627,215.091,636.58,214.944z
			 M653.246,202.86c0.062-1.242,0.047-2.709,0.026-4.739c-0.013-1.328-0.029-2.909-0.029-4.859v-12.799
			c0.008-0.468,0.015-1.099,0.023-1.725c-1.237-0.081-2.691-0.161-3.607-0.161l-23.603,0.007c-1.058,0-2.357,0.023-3.811,0.047
			c-1.881,0.033-4.012,0.07-6.22,0.07c-2.276,0-4.253-0.039-6.043-0.12c-1.57-0.07-4.484-0.106-8.66-0.106
			c-7.277,0-15.783,0.13-15.87,0.107c-0.589-0.025-1.725-0.049-2.798-0.068c0.003,0.715,0.007,1.437,0.007,1.951
			c0,0.06,0.091,6.147,0,12.51c-0.051,3.523-0.013,7.352,0.021,10.73c0.021,2.221,0.041,4.162,0.034,5.713
			c6.363,0.12,22.928,0.436,26.961,0.54c2.326,0.06,6.747,0.011,11.385-0.04c3.375-0.038,6.871-0.077,9.797-0.077
			c2.913,0,4.9,0.041,6.077,0.124c1.904,0.137,6.01,0.208,11.876,0.208c1.652,0,3.173-0.007,4.36-0.013
			C653.169,207.607,653.181,204.162,653.246,202.86z"/>
	</g>
	<g style="opacity:0.6;">
		<path style="fill:#FFFFFF;" d="M474.991,346.111c-1.04-0.073-2.967-0.111-5.723-0.111c-2.909,0-6.386,0.039-9.74,0.077
			c-4.723,0.052-9.184,0.101-11.57,0.039c-5.016-0.128-29.431-0.585-29.432-0.585c-0.678-0.013-1.322-0.301-1.784-0.798
			c-0.462-0.497-0.701-1.161-0.663-1.839c0.083-1.46,0.052-4.477,0.018-7.972c-0.034-3.408-0.071-7.269-0.021-10.852
			c0.09-6.286,0.002-12.303,0-12.401c0-1.463-0.024-4.503-0.024-4.505c-0.005-0.672,0.26-1.317,0.737-1.79
			c0.476-0.473,1.114-0.706,1.793-0.727c0,0,4.139,0.055,5.352,0.109c0,0,8.514-0.109,15.799-0.109c4.251,0,7.239,0.038,8.885,0.112
			c1.713,0.076,3.617,0.114,5.818,0.114c2.177,0,4.279-0.036,6.132-0.068c1.488-0.026,2.816-0.049,3.898-0.049l23.091,0.001
			c1.857-0.086,6.656,0.322,6.844,0.338c1.305,0.106,2.307,1.203,2.294,2.513c0,0-0.026,2.734-0.047,4.059v12.76
			c0,1.93,0.016,3.494,0.03,4.809c0.021,2.117,0.037,3.647-0.033,5.038c-0.068,1.364-0.077,5.81-0.063,9.519
			c0.005,1.374-1.099,2.492-2.473,2.507c0,0-3.104,0.031-6.887,0.031C481.154,346.332,477.038,346.257,474.991,346.111z
			 M491.657,334.027c0.062-1.242,0.047-2.709,0.026-4.739c-0.013-1.328-0.029-2.909-0.029-4.859v-12.799
			c0.008-0.468,0.015-1.099,0.023-1.725c-1.237-0.081-2.691-0.161-3.608-0.161l-23.603,0.006c-1.058,0-2.357,0.023-3.811,0.047
			c-1.881,0.033-4.012,0.07-6.22,0.07c-2.276,0-4.253-0.039-6.043-0.12c-1.571-0.07-4.484-0.106-8.66-0.106
			c-7.277,0-15.783,0.13-15.87,0.107c-0.589-0.025-1.725-0.049-2.798-0.068c0.003,0.715,0.007,1.437,0.007,1.951
			c0,0.06,0.091,6.147,0,12.51c-0.051,3.523-0.013,7.352,0.021,10.73c0.021,2.221,0.041,4.162,0.034,5.713
			c6.363,0.12,22.928,0.436,26.961,0.54c2.326,0.06,6.747,0.011,11.385-0.041c3.375-0.038,6.87-0.076,9.797-0.076
			c2.913,0,4.9,0.04,6.077,0.123c1.904,0.137,6.01,0.208,11.876,0.208c1.652,0,3.173-0.006,4.36-0.013
			C491.58,338.774,491.592,335.329,491.657,334.027z"/>
	</g>
	<g style="opacity:0.6;">
		<path style="fill:#FFFFFF;" d="M775.735,400.934c-1.041-0.073-2.967-0.111-5.723-0.111c-2.909,0-6.386,0.039-9.74,0.077
			c-4.723,0.052-9.184,0.101-11.57,0.039c-5.016-0.128-29.431-0.585-29.432-0.585c-0.678-0.013-1.322-0.301-1.783-0.798
			c-0.462-0.497-0.701-1.161-0.663-1.839c0.083-1.46,0.052-4.477,0.018-7.972c-0.034-3.408-0.071-7.269-0.021-10.852
			c0.089-6.286,0.002-12.303,0-12.401c0-1.463-0.024-4.503-0.024-4.505c-0.005-0.672,0.26-1.317,0.737-1.79
			c0.476-0.473,1.114-0.706,1.793-0.727c0,0,4.139,0.055,5.352,0.109c0,0,8.514-0.109,15.799-0.109c4.251,0,7.239,0.038,8.885,0.112
			c1.713,0.076,3.617,0.114,5.818,0.114c2.177,0,4.279-0.036,6.132-0.068c1.488-0.026,2.816-0.049,3.898-0.049l23.09,0.001
			c1.857-0.086,6.656,0.322,6.844,0.338c1.305,0.106,2.307,1.203,2.294,2.513c0,0-0.026,2.734-0.047,4.059v12.76
			c0,1.93,0.016,3.494,0.029,4.809c0.021,2.117,0.037,3.647-0.033,5.038c-0.068,1.364-0.076,5.81-0.063,9.519
			c0.005,1.374-1.099,2.492-2.473,2.507c0,0-3.104,0.031-6.887,0.031C781.898,401.156,777.782,401.081,775.735,400.934z
			 M792.401,388.85c0.062-1.242,0.047-2.709,0.026-4.739c-0.013-1.328-0.029-2.909-0.029-4.859v-12.799
			c0.008-0.468,0.015-1.099,0.023-1.725c-1.237-0.081-2.691-0.161-3.608-0.161l-23.602,0.006c-1.058,0-2.357,0.023-3.811,0.047
			c-1.881,0.033-4.012,0.07-6.22,0.07c-2.276,0-4.253-0.039-6.043-0.12c-1.57-0.07-4.484-0.106-8.66-0.106
			c-7.277,0-15.783,0.13-15.87,0.107c-0.589-0.025-1.725-0.049-2.798-0.068c0.003,0.715,0.007,1.437,0.007,1.951
			c0,0.06,0.091,6.147,0,12.51c-0.051,3.523-0.013,7.352,0.021,10.73c0.021,2.221,0.041,4.162,0.034,5.713
			c6.363,0.12,22.928,0.436,26.961,0.54c2.326,0.06,6.747,0.011,11.385-0.041c3.375-0.038,6.87-0.076,9.797-0.076
			c2.913,0,4.9,0.04,6.077,0.123c1.904,0.137,6.01,0.208,11.876,0.208c1.652,0,3.173-0.006,4.36-0.013
			C792.324,393.597,792.336,390.152,792.401,388.85z"/>
	</g>
	<g style="opacity:0.6;">
		<path style="fill:#FFFFFF;" d="M448.357,52.832c-0.011-1.105-0.021-2.264-0.03-3.439c1.464-0.709,3.583-1.472,4.982-2.112
			c0.007,1.884,0.025,3.753,0.042,5.501c0.021,2.221,0.041,4.162,0.034,5.713c6.363,0.12,22.928,0.436,26.961,0.54
			c2.326,0.06,6.747,0.011,11.385-0.041c3.375-0.038,6.871-0.076,9.797-0.076c2.913,0,4.9,0.041,6.077,0.123
			c1.904,0.136,6.01,0.208,11.876,0.208c1.652,0,3.173-0.007,4.36-0.013c-0.002-2.551,0.01-5.996,0.075-7.298
			c0.062-1.242,0.047-2.708,0.026-4.739c-0.013-1.328-0.029-2.908-0.029-4.859l-0.142-9.795c2.214-0.067,3.514,0.126,5.184,0.157
			l-0.047,9.638c0,1.93,0.016,3.494,0.029,4.809c0.021,2.117,0.037,3.647-0.033,5.038c-0.068,1.364-0.076,5.81-0.063,9.519
			c0.005,1.374-1.099,2.492-2.473,2.507c0,0-3.104,0.031-6.887,0.031c-6.067,0-10.184-0.075-12.23-0.221
			c-1.04-0.073-2.967-0.111-5.722-0.111c-2.909,0-6.386,0.039-9.74,0.076c-4.723,0.052-9.184,0.101-11.57,0.039
			c-5.015-0.129-29.431-0.585-29.432-0.585c-0.678-0.013-1.321-0.301-1.783-0.798c-0.462-0.497-0.701-1.16-0.663-1.839
			C448.422,59.344,448.391,56.327,448.357,52.832z"/>
	</g>
	<g style="opacity:0.6;">
		<path style="fill:#FFFFFF;" d="M822.969,265.345c0.09-6.287,0.001-12.304,0-12.401c0-1.462-0.024-4.503-0.024-4.504
			c-0.005-0.671,0.26-1.317,0.736-1.79c0.476-0.473,1.085-0.743,1.794-0.727c0,0,4.134,0.056,5.35,0.108c0,0,9.487,0.059,17.268,0.1
			c0,0,0.511,0.729,1.948,2.649c0.336,0.962,1.332,1.627,1.792,2.523c-8.443-0.095-20.966-0.279-21.072-0.279
			c-0.002,0-0.003,0-0.005-0.001c-0.589-0.024-1.726-0.047-2.8-0.066c0.004,0.715,0.007,1.436,0.007,1.949
			c0.001,0.06,0.09,6.147,0,12.51c-0.05,3.525-0.013,7.359,0.021,10.74c0.022,2.215,0.041,4.154,0.034,5.703
			c6.363,0.12,22.929,0.436,26.964,0.541c1.774,0.046,6.238-0.293,9.611-0.327c0.616,1.843,0.711,3.056,1.022,5.288
			c-4.42,0.049-8.528,0.092-10.764,0.031c-5.016-0.131-29.431-0.587-29.431-0.587c-0.679-0.012-1.323-0.3-1.783-0.798
			c-0.462-0.497-0.701-1.16-0.663-1.837c0.08-1.458,0.051-4.474,0.017-7.965C822.956,272.796,822.919,268.932,822.969,265.345z"/>
	</g>
	<path style="fill:#FFC9D3;" d="M488.877,552.202c0,0,33.266,3.548,48.79-31.935c0,0,28.387-69.193,30.161-108.668
		c0,0-15.081,27.5-39.919,33.709c-24.838,6.21-51.895,19.072-63.427,52.782C452.95,531.799,488.877,552.202,488.877,552.202z"/>
	<g>
		<path style="fill:#3644AC;" d="M551.527,364.443c-28.111-9.437-27.081-18.248-51.196-27.845
			c-11.551-4.597-21.847-14.576-28.595-21.437c-19.177-19.496-18.723-46.804-15.768-61.657
			c2.955-14.853-20.443-18.496-11.821-48.417c5.166-17.93,22.249-19.553,32.06-18.604c6.975,0.674,25.613,10.938,25.613,10.938
			c29.326-15.356,35.791,4.83,53.57,33.867c11.581,18.913,33.569,23.742,45.134,24.69c11.565,0.948,41.01,12.116,44.592,45.084
			c1.587,14.611,1.663,26.574-3.984,37.143c-13.045,24.417-41.198,36.675-68.196,30.553L551.527,364.443z"/>
	</g>
	<g>
		<path style="fill:#FFCFBC;" d="M471.88,215.123c0,0-15.912,7.965-4.752,38.382c11.338,30.904,28.787,39.369,36.33,25.657
			c6.098-11.086,11.79,12.652,4.625,31.59c0,0,22.752,22.53,37.978-16.698c0,0-6.234-6.504-12.637-25.134
			c-3.284-9.555-9.681-24.014-6.879-31.001c4.763-11.874-11.183-23.526-12.637-8.585c0,0-2.356,2.739-8.703-3.082
			C498.755,220.337,484.752,207.575,471.88,215.123z"/>
	</g>
	<g>
		<path style="fill:#FFCFBC;" d="M467.231,249.333c0,0,0.006,10.371-1.887,20.693c0,0,3.647,0.58,11.308-2.246
			C476.652,267.78,473.464,255.054,467.231,249.333z"/>
	</g>
	<g>
		<path style="fill:#FFFFFF;" d="M535.807,257.71c1.196-0.891,2.252-1.977,3.132-3.234c2.152-3.078,2.977-6.81,2.322-10.507
			c-1.202-6.789-7.297-11.779-14.179-11.607l0.08,3.22c5.303-0.132,10,3.715,10.928,8.948c0.503,2.851-0.132,5.727-1.791,8.1
			c-1.659,2.369-4.142,3.955-6.995,4.462c-5.884,1.042-11.518-2.899-12.561-8.784c-0.867-4.896,1.885-9.572,7.157-12.197
			l-1.434-2.884c-6.621,3.294-10.02,9.282-8.894,15.642c1.351,7.634,8.661,12.745,16.294,11.395
			C532.053,259.877,534.076,258.998,535.807,257.71z"/>
	</g>
	<g>
		<path style="fill:#F79FB2;" d="M599.371,376.887c0,0,58.983-18.283,88.701,16.313c0,0,20.271,19.684,15.968,48.346
			c0,0-15.416,71.472-99.705,87.428C604.334,528.974,536.528,491.926,599.371,376.887z"/>
	</g>
	<g>
		<path style="fill:#152889;" d="M628.637,718.761c-6.093-6.404-42.262-6.522-54.556-17.696V574.887H559v126.34
			c-2.448,2.368-6.665,5.041-13.972,6.926c-16.189,4.177-39.002,6.976-40.4,19.957c0,0,6.951-0.493,61.514-0.434
			c56.774,0.062,64.681-2.263,64.681-2.263S632.013,722.31,628.637,718.761z"/>
	</g>
	<g>
		<path style="fill:#FFCFBC;" d="M405.949,681.459c0,0,4.342,17.14-7.956,27.24c-12.298,10.101-24.204,8.62-24.204,8.62
			s-8.789,2.349-3.273,7.33c5.516,4.981,17.447,3.944,27.449,0.913c10.002-3.032,13.644,0.154,17.32,0.858
			c3.676,0.704,16.762,0.076,14.869-14.839c-1.893-14.915-6.537-22.892-4.981-30.122H405.949z"/>
	</g>
	<g>
		<path style="fill:#FFCFBC;" d="M322.626,642.217c0,0-7.062,21.377-22.803,23.724s-25.194-5.041-25.194-5.041
			s-8.747-2.501-6.574,4.607c2.174,7.107,12.941,12.348,23.08,14.886c10.139,2.538,11.626,7.142,14.418,9.634
			c2.792,2.493,14.341,8.677,20.38-5.091c6.039-13.768,8.576-27.377,15.915-33.437L322.626,642.217z"/>
	</g>
	<g>
		<path style="fill:#6175C1;" d="M405.949,681.459c0,0,6.968,2.897,19.223,0c0,0,8.774-36.942,11.395-73.07
			c1.465-20.192-4.194-41.319-4.194-41.319c16.166-1.331,46.789-0.889,46.789-0.889l59.602-0.062c0,0-55.61-56.613-97.303-54.223
			c-41.693,2.39-66.172-2.069-52.411,70.351C394.018,608.39,396.634,632.669,405.949,681.459z"/>
	</g>
	<g>
		<path style="fill:#FFFFFF;" d="M510.043,304.153c0,0,18.074,15.035,36.017-10.099c0,0,48.837,17.208,52.357,38.683
			c6.298,38.421-2.235,58.762-12.607,121.911c0,0,0.349,26.44-81.181,14.209c0,0-2.499-23.847-4.177-39.747
			c-2.416-22.887-7.298-38.796-7.298-38.796s-19.723,37.398-48.41,46.843l-78.638-0.49l-4.14-12.302
			c0,0,60.815-11.166,83.108-46.964C470.764,336.146,484.378,314.628,510.043,304.153z"/>
	</g>
	<g>
		<path style="fill:#8896D8;" d="M322.626,642.217c0,0,17.342-59.705,44.039-123.378c26.941-64.255,47.006-53.398,130.96-42.144
			l5.489-20.271c17.22-1.774,38.366-5.391,82.696-1.774c0,0,17.686,22.623,20.272,47.37c3.176,30.395-3.764,57.047-38.254,67.848
			c0,0-39.688,7.342-76.579-16.679c-24.795-16.145-66.847-39.226-86.698-36.349c-28.275,4.097-15.867,63.514-15.867,63.514
			c-4.581,15.632-21.67,40.657-46.835,71.147C341.849,651.499,334.16,651.852,322.626,642.217z"/>
	</g>
	<g>
		<g>
			<rect x="216.584" y="436.667" style="fill:#152889;" width="286.53" height="19.756"/>
		</g>
		<g>
			<rect x="245.858" y="454.649" style="fill:#152889;" width="16.855" height="274.42"/>
		</g>
		<g>
			<rect x="453.88" y="454.649" style="fill:#152889;" width="16.855" height="274.42"/>
		</g>
	</g>
	<g>
		<path style="fill:#FFCFBC;" d="M412.917,410.256c0,0-26.214,0.755-38.097,8.719c-11.883,7.964-19.573,9.437-11.883,10.136
			c7.689,0.699,49.98,0,49.98,0S417.46,420.392,412.917,410.256z"/>
		<path style="fill:#9FADE2;" d="M286.551,429.77l3.243,6.897h119.228l-2.065-6.897l-33.913-76.54
			c-1.038-3.665-4.963-6.897-8.687-6.897H259.383c-3.725,0-8.202,2.661-6.744,6.897L286.551,429.77z"/>
		
			<rect x="402.803" y="429.11" transform="matrix(-1 -4.491797e-11 4.491797e-11 -1 880.4024 865.7775)" style="fill:#9FADE2;" width="74.796" height="7.557"/>
	</g>
	<g>
		<path style="fill:#FFC9D3;" d="M479.162,566.182c0,0,0.444,12.419,12.863,15.968h133.063c0,0,33.266,3.548,48.79-31.935
			c0,0,28.387-69.193,30.161-108.669c0,0-15.081,27.5-39.919,33.709c-24.839,6.21-51.895,19.072-63.427,52.782
			c-11.532,33.709-20.847,36.371-41.25,36.814C539.041,565.295,479.162,566.182,479.162,566.182z"/>
	</g>
	<g>
		<path style="fill:#E4E8F4;" d="M412.917,410.256c0,0,31.379-6.456,49.121-6.943c12.287-0.337,46.552,0,46.552,0
			c12.233-8.437,31.001-28.144,36.699-47.334c12.417-41.819,29.081-47.696,42.967-38.787c12.56,8.058,23.289,32.831,4.422,68.597
			c-27.737,52.585-57.897,63.846-92.227,60.757c-27.222-2.45-87.534-17.435-87.534-17.435L412.917,410.256z"/>
	</g>
	<g>
		<path style="fill:#FFFFFF;" d="M334.291,388.12c3.269,5.672,1.504,14.151-4.652,15.423c-8.156,1.685-13.588-1.564-17.031-8.057
			c-3.443-6.494-0.407-11.08,5.147-14.025C323.309,378.515,330.621,381.752,334.291,388.12z"/>
	</g>
	<g>
		<g>
			<path style="fill:#F79FB2;" d="M226.674,423.036c0,0-21.512,1.885-22.843-12.087c-1.085-11.396,12.087-20.292,24.062-8.76
				c0,0,1.553,1.596-0.776,3.659c-2.329,2.063-5.101-2.218-8.538-3.548c-3.438-1.331-10.201,2.772-8.982,8.982
				c1.22,6.21,11.664,5.921,16.189,6.542C228.07,418.138,229.557,421.927,226.674,423.036z"/>
		</g>
		<g>
			<path style="fill:#F79FB2;" d="M220.132,393.791h42.58c0,0,2.351,37.258-10.357,42.876h-22.761
				C229.594,436.667,218.949,430.753,220.132,393.791z"/>
		</g>
	</g>
	<g>
		<g>
			<path style="fill:#6175C1;" d="M750.904,521.489c0,0-5.623-37.853-8.171-46.179c-3.291-10.756-4.903-26.777,4.149-36.206
				c9.051-9.428,10.419-31.617,10.419-35.011c0-3.394,3.394-54.309,40.732-46.766c0,0,15.463,3.772,7.92,30.926
				c0,0-7.922,16.217,2.074,26.4c9.995,10.183,18.668,33.566,0,56.194c-18.668,22.629-13.353,30.914-10.371,39.6
				c13.6,39.609-15.339,75.979-18.48,85.683c-3.141,9.704-6.912,25.633-3.761,34.799l-10.98,0.204L750.904,521.489z"/>
		</g>
		<g>
			<path style="fill:#152889;" d="M770.273,632.589c0.11,0,0.223-0.012,0.336-0.034c0.898-0.185,1.476-1.062,1.292-1.959
				c-4.197-20.432,3.169-56.844,3.243-57.208c4.061-15.499,5.239-35.3-1.489-85.788c-3.872-29.056-1.024-52.058,2.048-66.238
				c3.33-15.369,7.63-23.977,7.673-24.062c0.413-0.819,0.087-1.817-0.731-2.23c-0.818-0.415-1.815-0.088-2.229,0.729
				c-0.182,0.358-4.501,8.976-7.925,24.715c-3.147,14.465-6.07,37.922-2.125,67.523c6.634,49.783,5.417,69.823,1.548,84.597
				c-0.332,1.606-7.599,37.528-3.264,58.629C768.81,632.05,769.502,632.589,770.273,632.589z"/>
		</g>
		<g>
			<path style="fill:#D8DDEF;" d="M789.279,631.93c0,0,0-8.924,18.318-17.379c0,0,13.621-4.227,18.318-22.076
				c4.697-17.849,17.849-13.152,26.304-7.985c8.455,5.167,27.663,0,27.688-26.773c0,0-5.711-14.091,6.551-21.606
				c12.262-7.515,16.959-34.36-9.345-34.09c-26.303,0.271-51.085,13.261-76.562,50.999c-35.409,52.449-21.625,78.91-21.625,78.91
				H789.279z"/>
		</g>
		<g>
			<path style="fill:#152889;" d="M782.255,633.589c0.168,0,0.34-0.026,0.51-0.081c0.873-0.28,1.307-1.204,1.07-2.089
				c-2.265-8.447-0.138-17.452-0.104-17.518c0.053-0.105,0.099-0.222,0.129-0.335c14.204-53.612,84.246-89.24,84.952-89.593
				c0.82-0.411,1.151-1.408,0.741-2.228c-0.41-0.818-1.407-1.149-2.227-0.74c-0.719,0.361-71.953,36.603-86.632,91.555
				c-0.597,1.271-2.541,10.879-0.017,19.881C780.874,633.15,781.554,633.589,782.255,633.589z"/>
		</g>
		<g>
			<path style="fill:#8896D8;" d="M750.705,631.134c0,0-19.234-10.937-15.463-32.812c3.771-21.875-15.84-26.777-20.366-27.532
				c-4.526-0.754-33.943-12.823-29.417-56.949c0,0,1.509-28.286-3.772-38.469c-5.28-10.183-18.48-40.732,0-50.16
				c18.48-9.429,31.303,7.541,38.092,24.89c0,0,5.28,19.99,9.806,24.893c4.526,4.903,37.337,33.566,34.697,93.155l-6.422,62.983
				H750.705z"/>
		</g>
		<g>
			<path style="fill:#152889;" d="M753.723,632.794c0.888,0,1.624-0.702,1.658-1.598c1.906-50.729-20.093-116.88-32.708-135.994
				c-12.232-18.533-20.918-36.859-21.005-37.042c-0.391-0.828-1.378-1.186-2.209-0.792c-0.829,0.39-1.184,1.379-0.793,2.209
				c0.087,0.185,8.869,18.716,21.236,37.454c12.408,18.802,34.043,83.973,32.16,134.043c-0.034,0.916,0.68,1.685,1.596,1.719
				C753.681,632.794,753.702,632.794,753.723,632.794z"/>
		</g>
		<g>
			<path style="fill:#3644AC;" d="M720.88,636.255c-0.977-3.799-2.034-5.326,5.326-5.326h90.808c7.516,0,5.623,2.583,5.326,5.326
				l-18.79,85.637c-1.213,5.913-0.626,5.377-5.326,5.326h-53.228c-5.013,0.037-4.425,0.822-5.326-5.326L720.88,636.255z"/>
		</g>
	</g>
	<g>
		<g>
			<g>
				<path style="fill:#152889;" d="M64.185,728.802c-0.44-0.145-0.191-0.476,1.023-0.41l0.862,0.56L64.185,728.802z"/>
			</g>
		</g>
		<g>
			<g>
				<path style="fill:#152889;" d="M72.355,727.765c1.428,0.271,3.075,0.748,2.15,1.263c-1.414-0.538-1.756-0.313-3.279-0.954
					c-1.216-0.065-2.121,0.18-1.916,0.386c-0.43-0.144-1.888,0.123-2.541-0.228c1.581-0.434,3.584-0.451,5.675-0.093
					C72.893,728.014,72.457,727.868,72.355,727.765z"/>
			</g>
		</g>
		<g>
			<g>
				<path style="fill:#152889;" d="M191.065,726.892l-0.765,0.066C190.509,726.921,190.771,726.901,191.065,726.892z"/>
			</g>
		</g>
		<g>
			<g>
				<path style="fill:#152889;" d="M264.617,726.584c-0.56-0.013-0.794-0.069-0.822-0.12
					C264.315,726.501,264.742,726.536,264.617,726.584z"/>
			</g>
		</g>
		<g>
			<g>
				<path style="fill:#152889;" d="M277.175,725.967c-0.27,0.018-0.496,0.026-0.74,0.038
					C276.717,725.954,277.001,725.925,277.175,725.967z"/>
			</g>
		</g>
		<g>
			<g>
				<path style="fill:#152889;" d="M191.065,726.892l1.965-0.176C193.168,726.898,192.023,726.851,191.065,726.892z"/>
			</g>
		</g>
		<g>
			<g>
				<path style="fill:#152889;" d="M88.725,729.115c-0.412-0.027-0.754-0.079-1.067-0.148c0.338,0.024,0.665,0.045,1.002,0.06
					C88.678,729.058,88.693,729.084,88.725,729.115z"/>
			</g>
		</g>
		<g>
			<g>
				<path style="fill:#152889;" d="M158.641,726.438l-0.597-0.001c-0.176-0.064-0.34-0.141-0.496-0.228L158.641,726.438z"/>
			</g>
		</g>
		<g>
			<g>
				<path style="fill:#152889;" d="M133.758,726.352c0.563-0.021,0.758,0.455,0.974,0.663c-0.318-0.196-0.734-0.289-1.227-0.326
					C133.496,726.598,133.57,726.49,133.758,726.352z"/>
			</g>
		</g>
		<g>
			<g>
				<path style="fill:#152889;" d="M94.301,727.188l-0.7-0.065C93.783,727.143,94.09,727.162,94.301,727.188z"/>
			</g>
		</g>
		<g>
			<g>
				<path style="fill:#152889;" d="M176.452,726.335c0.042-0.07,0.131-0.133,0.227-0.169
					C176.679,726.225,176.589,726.281,176.452,726.335z"/>
			</g>
		</g>
		<g>
			<g>
				<path style="fill:#152889;" d="M300.157,725.358c-0.045,0.005-0.06,0.005-0.102,0.009
					C299.45,725.313,299.793,725.323,300.157,725.358z"/>
			</g>
		</g>
		<g>
			<g>
				<path style="fill:#152889;" d="M511.139,725.709c-2.39,0.425,3.89,0.546,0.291,1.018
					C511.765,726.541,508.159,725.985,511.139,725.709z"/>
			</g>
		</g>
		<g>
			<g>
				<path style="fill:#152889;" d="M89.369,729.053c0.336,0.005,0.677,0.009,1.02,0.005
					C89.925,729.073,89.611,729.072,89.369,729.053z"/>
			</g>
		</g>
		<g>
			<g>
				<path style="fill:#152889;" d="M511.43,726.727c0,0.002,0,0.004,0,0.004l-0.372,0.045
					C511.212,726.756,511.299,726.743,511.43,726.727z"/>
			</g>
		</g>
		<g>
			<g>
				<path style="fill:#152889;" d="M353.111,725.644c-0.108,0.084-0.32,0.147-0.54,0.208
					C352.59,725.803,352.711,725.744,353.111,725.644z"/>
			</g>
		</g>
		<g>
			<g>
				<path style="fill:#152889;" d="M313.661,726.321l0.976-0.064C314.251,726.3,313.937,726.315,313.661,726.321z"/>
			</g>
		</g>
		<g>
			<g>
				<path style="fill:#152889;" d="M373.594,726.315c0.531-0.036,0.711-0.102,1.436-0.038c-0.067,0.024-0.134,0.041-0.22,0.058
					C374.547,726.27,374.198,726.239,373.594,726.315z"/>
			</g>
		</g>
		<g>
			<g>
				<path style="fill:#152889;" d="M394.913,726.318c-0.113,0.036-0.262,0.064-0.393,0.096c-0.211-0.01-0.458-0.017-0.676-0.026
					L394.913,726.318z"/>
			</g>
		</g>
		<g>
			<g>
				<path style="fill:#152889;" d="M807.643,729.679c0.467-0.134,0.757-0.281,0.984-0.427
					C808.298,729.59,811.43,729.711,807.643,729.679z"/>
			</g>
		</g>
		<g>
			<g>
				<path style="fill:#152889;" d="M88.736,728.848c0.125,0.12,0.307,0.179,0.634,0.205c-0.245-0.005-0.48-0.015-0.709-0.026
					C88.598,728.956,88.584,728.89,88.736,728.848z"/>
			</g>
		</g>
		<g>
			<g>
				<path style="fill:#152889;" d="M374.461,730.066l3.387-0.07C376.901,730.042,375.67,730.066,374.461,730.066z"/>
			</g>
		</g>
		<g>
			<g>
				<path style="fill:#152889;" d="M654.695,729.611l0.777,0.057C655.173,729.679,654.897,729.666,654.695,729.611z"/>
			</g>
		</g>
		<g>
			<g>
				<path style="fill:#152889;" d="M387.9,730.066c0.604-0.168,1.245-0.265,1.907-0.329c0.14,0.038,0.301,0.068,0.394,0.122
					L387.9,730.066z"/>
			</g>
		</g>
		<g>
			<g>
				<path style="fill:#152889;" d="M808.634,729.247c-0.007,0.002-0.007,0.005-0.007,0.005S808.627,729.249,808.634,729.247z"/>
			</g>
		</g>
		<g>
			<g>
				<path style="fill:#152889;" d="M819.607,729.471c1.794-0.024,3.638,0.549,6.044,0.715c1.208-0.295-0.44-0.857,2.299-0.805
					c-0.056-0.926-0.164-1.841-0.308-2.749c-2.476,0.004-4.94,0.04-7.368,0.161c0.14-0.104,0.483-0.141,1.167-0.219
					c-9.885,1.28-15.465-1.31-24.382-0.313l0.612,0.191c-4.533-0.102,0.62,0.191-2.679,0.472c-0.625-0.624-5.761-0.484-8.378-0.713
					c0.409,0.128,1.308,0.115,2.063,0.204c-0.489,0.14-0.685,0.511-1.994,0.397c-2.894-0.893-9.136-0.803-13.74-1.069
					c-0.554,0.409-4.531,0.767-6.594,1.431c-0.48-0.148-1.331-0.462-2.105-0.767c-1.667,0.264-2.912,0.061-4.103-0.181
					c1.467,0.007,2.758,0.018,3.748,0.032c-0.038-0.014-0.074-0.029-0.103-0.042c0.149,0.028,0.416,0.035,0.643,0.049
					c1.003,0.02,1.527,0.043,1.287,0.077c1.849-0.393-0.125-0.316,0-0.792c-1.508,0.017-4.626-0.148-4.975,0.211
					c-0.903,0.006-1.5,0.059-2.441,0.131c-0.574-0.073-1.183-0.114-1.863-0.07l0.305,0.049c-0.107,0.067-0.247,0.108-0.39,0.15
					c-2.947,0.204-7.097-0.508-9.525-0.835c2.406,0.6-0.618,0.677-0.618,1.111c-0.283-0.034,2.732-0.06,6.475-0.071
					c-0.269,0.047-0.48,0.125-0.547,0.281c-3.241,0.463-5.535-0.406-10.247-0.085c0.304,0.049,0.909,0.149,0.685,0.31
					c-1.661,0.123-3.204-0.225-3.584-0.484c-0.416,0.426-3.99,0.734-5.762,0.545c-1.552-0.352-1.328-0.513-4.145-0.477l1.237,0.301
					c-3.321,0.251-2.716-0.442-5.455-0.195c1.091-0.121,1.194,0.195,0.371,0.257c-3.468-0.167-3.547-0.332-6.031-0.934l0.458,0.471
					c-2.943-0.282-8.5-0.858-8.564-0.219c0.931-0.981-6.425-0.516-8.99-0.497c0.882,0.029,1.043,0.236,1.131,0.34
					c-5.384-0.648-10.899-0.021-16.347-0.032l-0.867,0.715c-2.881-0.028-3.701-1.44-6.824-1.409l1.129,0.342
					c-5.537-0.114-7.773-0.054-12.253,0.068l0.087,0.479c-1.603-0.223-3.605-0.22-5.222-0.444
					c-3.657,1.164-14.511-0.613-21.21,0.686l-0.422-0.893c-2.561,0.019-5.842-0.16-7.045,0.51l0.569-0.013
					c0.253,0.683-2.563,0.016-4.159,0.166c-1.209-0.075-2.419-0.519-1.378-0.655c-6.802,0.453-16.905-0.017-21.138,0.792
					c-6.818-0.292-11.961-1.001-19.324-0.909l0.086,0.105c-2.483,0.12-7.458,0.362-7.444,1.107
					c-5.302-0.173-8.683-1.198-15.005-0.866l1.37,0.285c-1.603,0.147-4.175-0.209-4.815-0.296c-0.56,0.015-0.151,0.163-0.073,0.267
					c-1.514,0.255-2.41-0.147-3.619-0.221l0.491,0.253c-5.038,0.512-12.985-0.497-19.467-0.372c1.194,0.075,0.56,0.358,0.08,0.477
					c-2.659-0.831-9.952-0.632-12.664-0.824l1.671,0.325c-5.285-0.545-4.574,0.874-9.818,0.323l3.012-0.477
					c-2.139,0.141-3.952-0.019-3.444-0.389c-2.483,0.275-0.305,0.634-4.057,0.713c-0.157,0.232,2.703,0.159,1.472,0.46l-5.194,0.618
					c-0.153,0.067-0.807,0.084-2.52,0.018c0.452-1.034-4.306-0.055-1.696-1.063c-7.358-0.077-13.571,0.606-19.886,0.128
					c-2.59,1.005-12.528,0.037-11.895,1.332c-3.57,0.011-6.462-0.247-8.66-0.771c0.713-0.103,1.623,0.061,2.345,0.125
					c-0.933-0.33-5.23-0.384-7.022-0.379c2.347,0.294,6.139,0.547,7.976,1.042c-3.241-0.125-7.765-0.61-9.572-0.771l-0.827,0.668
					c-2.732-0.49-2.29,0.539-5.029-0.119l0.518-0.2c-5.012,0.047-5.077-0.617-9.741-0.703l0.205,0.264
					c-1.603,0.105-3.983-0.519-5.542,0.084l3.043,0.025c-0.309,0.466-2.636,0.672-3.685,0.907c-3.226-0.122-1.136-0.762-2.752-0.824
					c-0.685,0.437-0.169,0.235,0.953,0.664c-3.606-0.156-8.458-0.341-11.021-0.901c-0.16,0.069,0.022,0.166,0.022,0.166
					c-3.748,0.078-7.051-0.711-9.345-0.338l0.727,0.065c-3.001,0.642-7.765-0.607-8.383,0.491c-1.42,0.205,3.226-0.043,0.948,0.497
					c-4.46,0.347-2.95-0.923-6.869-0.612c0.537-0.035,0.364,0.032,0.546,0.132c-2.841-0.024-6.611-0.132-9.741-0.244
					c-3.846,0.895-11.775-0.223-16.191,0.819c1.407-0.37-1.107-0.429-1.113-0.594c0,0,0.182,0.097,0.006,0.165
					c-1.61,0.028-1.807-0.322-2.412-0.469c-1.319,0.317-4.457-0.342-5.295-0.133c-0.023-0.231-1.312-0.17-2.746-0.167
					c2.877,0.26,0.925,0.496,2.219,0.859c-4.295,0.114-4.926-1.018-9.394-0.838l-2.47,0.44c-0.503-0.667-4.645-0.397-4.553-0.644
					c-0.765,0.208-1.885,0.329-1.718,0.663c-1.792-0.161-4.466,0.18-5.208-0.216l1.778-0.174c-5.533,0.251-8.843-0.707-13.104-0.261
					l0.087,0.999c-2.834,0.409-5.243-0.549-7.695,0.056c0.858-0.335,1.044-0.235-0.771-0.564c1.074-0.069,3.063,0.191,4.855,0.185
					l-3.81-0.587l5.938,0.284c-2.543-0.393-2.361-0.295-1.321-0.698c-3.612-0.322-3.897,0.479-7.333,0.09
					c-1.247,0.138,0.035,0.499-1.385,0.702c-3.066-0.356-5.835,0.719-8.034,0.191c-0.707,0.103,1.261,0.03,1.092,0.264
					c-1.98-0.095-3.401-0.055-3.976-0.356l1.698-0.11c-1.488,0.027-1.734-0.38-4.575-0.147c-1.638-0.23-2.569-0.725-0.784-0.731
					c-0.723-0.064-2.313,0.205-1.75,0.506c-4.431,0.012-2.121-1.066-6.396-0.59c0.291,0.031,0.603,0.081,0.443,0.141
					c-1.069,0.071-1.959,0.073-2.688,0.009c3.781,0.086-1.18,0.802,3.288,0.621c-0.491,0.533-3.396,0.11-4.816,0.314
					c-2.179-0.36-0.241-0.764-1.339-1.028c0.02,0.167-0.882,0.169-1.948,0.239l1.036-0.401c-0.905,0.001-1.794,0.004-2.879-0.093
					l1.815,0.162c-1.968,0.071-4.959,0.712-8.405,0.326c0.918,0.164,2.738,0.489,0.429,0.696c-3.781-0.256-0.882,0.168-3.017,0.474
					c-3.757-0.088-0.654-0.717-6.198-0.469c-0.598,0.002-0.045-0.234,0.557-0.344c-3.78,0.195-5.845-0.087-9.517,0.204
					c1.602-0.104,2.841-0.242,0.677-0.433c0.925,0.329-3.014,0.308-4.434,0.512l-0.371-0.201c-1.134,0.218,0.08,0.304,1.005,0.377
					c-0.029-0.068,0.302-0.132,0.989-0.115c1.807,0.161,1.152,0.929-1.712,1.003c-3.065-0.189-2.569-0.725-2.045-0.926
					c-4.101,0.213-3.839-0.921-7.757-0.609c-0.896,0.001-3.877,0.809-6.738,0.885c-1.471-0.461,3.552-0.344,1.907-0.738
					c-4.735,1.146-9.732-0.704-15.951-0.019l0.78,0.563c-1.443,0.036-2.864,0.074-4.488,0.012l2.13-0.306
					c-1.445-0.128-4.844-0.017-3.733,0.411c-3.263-0.457-3.952-0.189-6.991-0.045c3.221-0.045,0.058-0.078,2.41,0.214
					c-3.379,0.276-3.641,0.088-5.98-0.038c0.387,0.199-0.844,0.503-1.749,0.504c-2.185-0.359-5.936-0.281-8.996-0.472l0.008,0.167
					c-5.126-0.214-10.692,0.565-15.858,0.069c-0.093-0.011-0.182-0.011-0.258-0.022l0.404-0.035c1.776-0.531-4.01-0.374-5.586-0.594
					c-0.344,0.135-0.509,0.368-1.4,0.371c-0.051-0.499-1.994-0.259-2.732-0.491c-1.776,0.172,0.227,0.598-2.819,0.574
					c-1.178-0.043-1.318-0.303-1.178-0.493c-0.643,0.253-2.588,0.451-4.197,0.511c0.546,0.131,1.427-0.039,1.791-0.007
					c0.205,0.265-0.879,0.169-0.851,0.504c-1.427,0.037-0.575-0.466-2.36-0.292l1.655,0.394c-0.716,0.1-1.627-0.063-1.982-0.094
					c1.085,0.096,0.931,0.496,0.777,0.73c-4.144-0.289-0.807-1.062-1.027-1.495c-3.919,0.31-7.007-0.211-10.052-0.237l0.576,0.464
					c-1.484-0.071-2.198-0.176-2.738-0.375l-2.288-0.003c1.318,0.166,1.756,0.313,1.852,0.685c-2.434-0.128-5.777-0.011-6.404-0.632
					l0.096,0.103c-3.241,0.222-10.016,0.354-9.796,0.56c-3.484-0.205-7.9,0.153-7.998-0.461c-2.076-0.148-5.384,0.793-6.869,0.022
					c-2.463,0.407-0.131,0.166,0.625,0.622c-2.461,0.406-4.966-0.631-5.787,0.254c-2.876-0.273,0.667-0.183-0.3-0.576
					c-0.607,0.823-5.342,0.132-8.036,0.603c-1.209-0.334,1.229-0.205-0.854-0.558c0.205,0.206-0.902,0.245-1.462,0.264l-0.533-0.516
					l-2.739,1.274c-4.07-0.606,0.831-0.885-4.594-1.123l0.327,0.043c-1.473,0.533-3.868-0.401-7.779,0.005
					c1.338-0.102,0.549,0.247,0.976,0.395l-2.179-0.21c0.196,0.028,0.291,0.062,0.08,0.122c-1.916,0.388-1.66-0.21-3.89,0.138
					c1.536,0.105,1.072,0.498,0.394,0.681l-3.19-0.584l1.296,0.704c-3.11,0.056-7.729-1.066-9.316-0.099l1.545,0.106
					c-0.118,0.166-1.042,0.68-3.132,0.323c-0.517-0.066-0.884-0.333-0.584-0.434l-1.178,0.122c0.753,0.455,4.633,0.586,7.071,0.716
					c-0.765-0.188-2.649-0.337-2.074-0.624c2.17,0.149,4.239,0.457,6.336,0.608c-0.858-0.184-1.374-0.478-1.777-0.662
					c2.346-0.243,1.756,0.314,3.535,0.358c0.676-0.185,1.138-0.307,0.689-0.451c2.216,0.189,3.985,0.233,6.337-0.009
					c0,0-2.652-0.337-1.194-0.601c4.32,0.277,5.18,0.833,9.834,1.152c5.398,0.773,10.465-0.474,14.218,0.09
					c0.205,0.207-2.805,0.364-0.371,0.494c-0.423-0.414,1.462-0.265,1.581-0.43c2.642,0.605,3.896-0.135,5.768,0.279
					c-0.438-0.144,1.1-0.304,2.112-0.446c-0.295-0.512,2.919-0.204-0.931-0.935c3.962,0.772,7.009-0.191,9.95,0.988l-1.013,0.144
					l3.979-0.24l-0.169,0.012c1.721-0.084,1.989,0.051,4.306-0.481c-0.998-0.125-2.434-0.127-3.432-0.253
					c2.127-0.451,4.414,0.38,6.764,0.406c-0.107-0.372-2.452-0.131-1.758-0.583c1.673-0.059,3.103,0.213,4.654,0.318l-0.219-0.205
					c4.146-0.468,1.618,1.014,4.654,0.318c-0.096,0.122,0.291,0.254,0.102,0.374c1.129-0.218,3.766-0.587,1.152-0.846
					c1.441,0,3.081,0.18,3.817,0.411c-1.221,0.304-1.523,0.15-1.983,0.541l5.812,0.213c0.649-0.001-0.48-0.2-1.296-0.203
					c6.824-1.093,13.804,0.923,21.495-0.39c-0.867,0.335,0.56,0.298,1.3,0.528c2.495-0.105,6.267-0.018,8.576-0.223l-0.736-0.23
					c5.937,0.282,10.03,0.647,13.949,0.503c0.191,0.1-0.029-0.332-0.738-0.398c2.894,0.423,6.362-0.918,7.155-0.021l-1.066,0.07
					c5.722-0.149,12.052,0.497,17.965,0.612c1.385-0.536-3.408-0.056-2.198-0.691c4.101-0.211,8.26,0.241,12.723,0.061
					c-0.727-0.065-0.56-0.129-0.909-0.164c4.443-0.345-0.49,0.534,3.254,0.456c-0.202-0.264-0.02-0.331,1.225-0.468l1.101,0.429
					c0.182-0.068,0.153-0.399-0.401-0.531c1.661,0.563,6.642,0.181,7.953,0.709c0.336-0.134-0.595-0.631-0.079-0.833
					c1.987-0.156,3.354,0.055,4.684,0.256c0-0.002-0.009-0.002-0.009-0.002c1.4-0.372,4.815-0.315,4.088-0.38
					c3.576-0.176,0.566,0.298,3.285,0.623l-2.85,0.24l5.035,0.12l-1.997-0.26c2.31-0.207,4.684,0.253,7.371,0.242l-1.231,0.306
					l3.067,0.188c0.302-0.631,3.925-0.142,2.243-0.872c5.579-0.309,9.215,0.465,14.237,0.547c-0.467-0.03-0.25-0.136-0.403-0.221
					c3.027-0.142,4.85,0.186,6.664,0.513c-0.371-0.197-1.093-0.262-1.106-0.43c3.583-0.008,2.178,0.361,6.132,0.55
					c-1.093-0.264-0.751-0.399,0.327-0.467c-0.167,0.232,0.745,0.396,1.471,0.461c-2.977-1.256,4.43-0.512,2.557-1.506
					c0.197,0.266,6.344,0.814,4.581,1.318l-1.076-0.094c-0.125,0.347,1.338,0.21,2.443,0.235c-0.571-0.058-1.175-0.136-1.191-0.207
					c5.602,0.415,11.479,0.032,17.774,0.346c-0.546-0.13-3.083-0.357-1.465-0.461c6.249-0.184,9.884,0.471,16.185,0.785
					c0.285-0.801-6.818-0.114-7.057-0.877c6.642,0.179,13.476,0.457,20.86,0.868c2.579-1.173,7.204,0.479,11.784-0.437
					c-0.434,0.393,1.844,0.535,4.33,0.546c-0.854-0.32,1.769-0.329,1.04-0.56c2.179,0.36,8.465,0.508,8.218-0.257
					c0.569,0.74,4.675-0.035,6.466,0.489c2.748-0.277,5.893,0.154,9.338-0.069c-1.104,0.426,2.63,0.261,4.268,0.376
					c-0.308-0.034-0.596-0.077-0.479-0.121c1.033-0.404,3.97,0.354,5.915,0.114c0.88-0.168-0.218-0.43,1.212-0.468
					c0.033,0.331,5.263,0.717,7.202,0.311c-0.896,0.002-0.911-0.166-1.459-0.294c9.179,0.569,18.975-0.124,28.351,0.546
					l-1.663-0.559c5.857-0.719,3.848,0.919,8.494,0.839c12.703-0.272,25.887-1.075,38.278-0.711c0.909,0.164-0.525,0.2-0.678,0.434
					c1.078-0.069,1.385-0.536,2.847-0.241l-0.327,0.301c5.66-0.816,16.345,0.552,20.538-0.726c5.417,0.481,9.232-0.346,15.809,0.377
					c2.076-0.268-2.412-0.519,0.393-0.594l6.098,0.471l-0.33-0.045c5.88,0.903,15.539-1.01,22.923-0.36l-0.315-0.045
					c-0.171-0.208,1.351-0.461,2.545-0.39c0.416,0.148-0.387,0.225-1.101,0.402c6.579,0.352,8.021,0.368,13.222,0.439
					c-2.245-0.311,2.083-0.271,2.307-0.704c1.369,0.283-0.787,0.449,2.259,0.686c4.334,0.04,8.327-0.333,11.923-0.485
					c1.458,0.385,3.373,0.279,3.468,0.754c4.895,0.028,7.62,0.217,13.629,0.213l0.154-0.164c1.616,0.594,5.208-0.301,6.328,0.041
					c-0.167-0.21-0.807-0.297-0.647-0.461l2.73,0.191c-1.289-0.18-2.025-0.742,0.221-0.806c2.336,0.417-0.643,0.284,0.495,0.625
					l0.705-0.551c1.763,0.06,2.258,0.683,0.102,0.85c6.011-0.007,11.946,0.257,17.301,0.166l-0.569-0.359
					c2.965,0.133,6.973,0.13,8.734-0.185c0.08,0.105,0.809,0.297,0.336,0.416c3.275,0.452,0.81-0.443,3.507-0.151
					c-0.758-0.087-1.479-0.167-1.6-0.326l7.22,0.441c0.075-0.267,4.463-0.866,7.515-0.63c0.118,0.15-0.758,0.353-1.536,0.384
					l1.954,0.134l1.505-0.624l2.828,0.547l0.051-0.521c2.083,0.104,2.91,0.773,4.594,0.727c6.309-0.332,5.026-0.511,9.506-1.005
					c0.504,0.997,7.131-0.037,8.269,0.679c5.986-0.75,14.656-0.295,22.501-0.51l-0.643-0.088c3.352-0.463,3.817,0.756,7.432,0.555
					l-0.905-0.148c4.642-0.532,12.786-0.046,17.192,0.375c-0.901-0.149-0.444-0.469,0.976-0.435c1.2,0.195-1.167,0.698,1.329,0.51
					c-0.617-0.096-0.129-0.315,0.44-0.32l2.448,0.496c6.406-0.341,13.942-0.699,20.584-0.411c1.232-0.176,0.33-0.356,0.038-0.527
					c5.266,0.105,10.504,0.52,15.258,0.611l0.483-0.575c2.329,0,1.442,0.881,4.472,0.368c0.675-0.077-2.003-0.037-2.834-0.292
					c4.677-0.437,2.761,0.561,7.227,0.497l-1.167-0.65c3.424-0.384,3.906,0.342,5.151,0.725c4.809,0.765,3.416-1.253,9.956-0.679
					c1.036,0.32-0.342,0.472,0.694,0.792c4.601-0.168,5.148,0.291,9.761,0.125c2.461-0.969-2.347,0,0.331-0.906l-3.505,0.219
					c3.023-0.511-2.748-0.13-2.274-0.704c2.265-0.166,5.711,0.32,8.667,0.511c0-0.434-3.434-0.05-2.07-0.637l1.516,0.177
					c-0.415-0.128-0.489-0.292-1.376-0.28c0.544-0.409,1.783-0.024,3.229-0.014c0.098,0.226,0.025,0.545-0.455,0.858
					c0.055-0.048,0.167-0.1,0.387-0.155c2.963,0.624,7.969,0.152,10.512,0.648C819.124,729.611,819.473,729.574,819.607,729.471z
					 M762.626,725.641c0.191,0.063,0.301,0.148,0.396,0.239c-0.029-0.02-0.089-0.041-0.118-0.058
					c-0.727-0.033-1.28-0.049-1.754-0.057C761.288,725.667,761.624,725.573,762.626,725.641z M751.974,728.917
					c-1.016-0.003-1.977,0-2.748,0.019c0.945-0.139,2.438-0.233,2.092-0.343C751.956,728.584,752.196,728.753,751.974,728.917z"/>
			</g>
			<g>
				<path style="fill:#152889;" d="M757.118,728.98c-0.353-0.007-0.907-0.016-1.556-0.027c0-0.002,0-0.005,0-0.009
					C756.344,728.964,756.794,728.973,757.118,728.98z"/>
			</g>
		</g>
		<g>
			<g>
				<path style="fill:#152889;" d="M764.429,726.264c0.145,0.011,0.225,0.03,0.414,0.035c-0.205,0.042-0.4,0.078-0.598,0.107
					c-0.122-0.05-0.247-0.1-0.355-0.149C764.071,726.26,764.26,726.261,764.429,726.264z"/>
			</g>
		</g>
		<g>
			<g>
				<path style="fill:#152889;" d="M190.167,726.969l0.134-0.011c-0.111,0.019-0.213,0.038-0.28,0.068
					C190.109,727.003,190.109,726.988,190.167,726.969z"/>
			</g>
		</g>
		<g>
			<g>
				<polygon style="fill:#152889;" points="661.75,729.846 661.759,729.725 662.313,729.831 				"/>
			</g>
		</g>
		<g>
			<g>
				<path style="fill:#152889;" d="M155.276,728.601c-0.067,0.042-0.198,0.085-0.458,0.122
					C154.838,728.691,155.036,728.648,155.276,728.601z"/>
			</g>
		</g>
		<g>
			<g>
				<path style="fill:#152889;" d="M140.205,728.708l-2.132,0.169C138.995,728.781,139.667,728.735,140.205,728.708z"/>
			</g>
		</g>
		<g>
			<g>
				<path style="fill:#152889;" d="M128.616,728.943c-0.146-0.083-0.188-0.146-0.227-0.204c0.009-0.001,0.016-0.001,0.023-0.003
					L128.616,728.943z"/>
			</g>
		</g>
		<g>
			<g>
				<path style="fill:#152889;" d="M312.863,729.502c0.156,0.003,0.31,0.009,0.447,0.022
					C314.359,729.616,313.646,729.579,312.863,729.502z"/>
			</g>
		</g>
		<g>
			<g>
				<path style="fill:#152889;" d="M258.033,728.391c0.582,0.086,1.155,0.171,1.763,0.224
					C258.82,728.652,258.061,728.662,258.033,728.391z"/>
			</g>
		</g>
		<g>
			<g>
				<path style="fill:#152889;" d="M374.089,730.074c-0.006-0.003,0-0.004-0.006-0.008c0.131,0.002,0.247,0,0.378,0L374.089,730.074
					z"/>
			</g>
		</g>
		<g>
			<g>
				<path style="fill:#152889;" d="M262.346,728.607c-0.976,0.095-1.792,0.074-2.549,0.008
					C260.596,728.584,261.539,728.535,262.346,728.607z"/>
			</g>
		</g>
		<g>
			<g>
				<path style="fill:#152889;" d="M78.392,729.159l-0.558,0.02c0.009-0.031-0.024-0.057-0.066-0.076L78.392,729.159z"/>
			</g>
		</g>
		<g>
			<g>
				<path style="fill:#152889;" d="M77.767,729.102l-0.62-0.056C77.432,729.046,77.679,729.05,77.767,729.102z"/>
			</g>
		</g>
		<g>
			<g>
				<path style="fill:#152889;" d="M75.843,728.926l1.305,0.12C76.696,729.047,76.139,729.062,75.843,728.926z"/>
			</g>
		</g>
		<g>
			<g>
				<path style="fill:#152889;" d="M93.732,728.939l0.176,0.173C93.813,729.076,93.75,729.02,93.732,728.939z"/>
			</g>
		</g>
		<g>
			<g>
				<path style="fill:#152889;" d="M98.394,728.989c-1.112,0.039-2.79,0.368-4.341,0.26l-0.145-0.137
					C94.637,729.368,97.338,728.698,98.394,728.989z"/>
			</g>
		</g>
		<g>
			<g>
				<path style="fill:#152889;" d="M117.852,726.858l-3.906,0.138c0.683-0.184,1.581-0.431-0.196-0.475
					C118.674,725.973,112.734,726.932,117.852,726.858z"/>
			</g>
		</g>
		<g>
			<g>
				<path style="fill:#152889;" d="M129.964,726.591c-2.099-0.085,0.024-0.267-0.087-0.37
					C131.209,726.388,131.531,726.43,129.964,726.591z"/>
			</g>
		</g>
		<g>
			<g>
				<path style="fill:#152889;" d="M217.496,726.59l-0.211-0.433C218.902,726.219,217.3,726.324,217.496,726.59z"/>
			</g>
		</g>
		<g>
			<g>
				<polygon style="fill:#152889;" points="234.228,728.826 232.654,729.095 231.904,728.698 				"/>
			</g>
		</g>
		<g>
			<g>
				<polygon style="fill:#152889;" points="244.112,725.744 243.406,725.682 246.105,725.839 				"/>
			</g>
		</g>
		<g>
			<g>
				<path style="fill:#152889;" d="M391.121,725.898l-0.489,0.533C389.539,726.335,389.309,725.736,391.121,725.898z"/>
			</g>
		</g>
		<g>
			<g>
				<path style="fill:#152889;" d="M454.585,726.44c0.691-0.267,2.477-0.438,3.576-0.176
					C456.735,726.301,455.312,726.509,454.585,726.44z"/>
			</g>
		</g>
		<g>
			<g>
				<polygon style="fill:#152889;" points="644.919,725.572 643.642,725.394 646.048,725.542 				"/>
			</g>
		</g>
	</g>
	<g>
		<g>
			<path style="fill:#D8DDEF;" d="M190.02,651.948c0,0-0.428,10.107-1.347,28.544c-0.538,10.813,2.019,22.521,3.38,31.057
				c0,0,4.187,3.396,5.118,7.24c1.025,4.23-2.304,7.229-5.16,7.366c-5.495,0.263-11.992,3.07-14.567-19.715
				c-1.73-15.306-5.646-35.941-3.906-43.774c1.741-7.833,10.95-14.596,16.074-12.565L190.02,651.948z"/>
		</g>
		<g>
			<path style="fill:#3644AC;" d="M192.509,711.944c0,0-1.733-1.996-3.365,7.844c0,0-0.593,5.585-4.642,5.736
				c0,0,4.177,3.233,10.339-0.302C194.841,725.223,201.658,720.916,192.509,711.944z"/>
		</g>
		<path style="fill:#D8DDEF;" d="M101.022,678.466c0,0,31.248-9.541,38.581,6.537c7.334,16.078,0.88,26.563-2.009,29.01
			c0,0,18.494-1.354,19.842,5.314s-6.48,7.47-6.48,7.47l-64.865,0.459C86.091,727.256,85.864,688.007,101.022,678.466z"/>
		<g>
			<path style="fill:#D8DDEF;" d="M197.404,609.827c0,0-5.875-13.708-22.411-13.49c-16.536,0.218-22.576,6.536-22.979,13.49
				c-0.679,11.715,6.007,26.11,22.543,26.11S197.621,623.534,197.404,609.827z"/>
		</g>
		<g>
			<path style="fill:#3644AC;" d="M179.834,596.695l1.868,0.387c1.858-2.895,7.654-11.164,13.744-12.06
				c0,0,3.264,5.657,1.958,24.805C197.404,609.827,182.16,609.827,179.834,596.695z"/>
		</g>
		<g>
			<path style="fill:#8896D8;" d="M169.743,596.693l-2.188,0.138c-1.902-2.952-7.537-10.92-13.582-11.809
				c0,0-3.264,5.657-1.958,24.805C152.014,609.827,165.261,609.827,169.743,596.693z"/>
		</g>
		<g>
			<path style="fill:#D8DDEF;" d="M190.876,625.928c0,0,1.734,17.843,0,26.763c-3.519,18.098-17.839,30.157-20.064,33.134
				c-2.695,3.605-17.591,33.05-22.378,37.184c0,0-25.003,5.987-67.214,4.247c0,0-0.124-74.641,51.95-95.363
				c0,0,14.144-2.988,19.521-14.263C152.691,617.63,187.177,605.91,190.876,625.928z"/>
			<path style="fill:#BCC5DD;" d="M183.441,641.783c0,0-2.469-5.177-7.748-4.547c-8.776,1.049-6.143,12.931-6.937,17.476
				c-0.951,5.44-3.819,14.696-22.029,18.917c-15.306,3.548-13.115-8.638-38.566,3.52c-32.317,15.438,38.066,53.415,45.133,39.258
				C163.194,696.571,185.233,676.962,183.441,641.783z"/>
		</g>
		<g>
			<path style="fill:#8896D8;" d="M144.91,626.572c0,0-7.42,4.429-11.739,5.321c-4.319,0.891-26.056,8.47-39.569,40.362
				c0,0,36.422-4.494,44.472-14.696C154.66,636.539,152.989,626.597,144.91,626.572z"/>
		</g>
		<g>
			<path style="fill:#D8DDEF;" d="M164.023,650.1c5.706,0.944,6.242,9.209,2.981,30.392c-1.647,10.7,2.019,22.521,3.38,31.057
				c0,0,4.186,3.396,5.118,7.24c1.026,4.23-1.812,8.124-4.668,8.26c-5.495,0.263-12.484,2.175-15.059-20.61
				c-1.73-15.306-5.646-35.941-3.906-43.774C153.611,654.832,158.095,649.12,164.023,650.1z"/>
		</g>
		<g>
			<path style="fill:#FCDEE4;" d="M163.194,597.934c0,0-4.356-10.775-9.658-11.876c0,0-2.636,7.27-1.674,18.512
				C151.861,604.57,157.472,599.058,163.194,597.934z"/>
		</g>
		<g>
			<path style="fill:#FCDEE4;" d="M186.169,597.934c0,0,4.355-10.775,9.658-11.876c0,0,2.636,7.27,1.675,18.512
				C197.501,604.57,191.89,599.058,186.169,597.934z"/>
		</g>
		<g>
			<g>
				<path style="fill:#AFBBE8;" d="M181.39,612.081c0,2.039,1.653,3.692,3.692,3.692c2.039,0,3.692-1.653,3.692-3.692
					c0-2.039-1.653-3.692-3.692-3.692C183.042,608.39,181.39,610.042,181.39,612.081z"/>
			</g>
			<g>
				<path style="fill:#152889;" d="M185.081,608.39c0,0,4.169,3.692,0,7.383C185.081,615.773,181.39,612.081,185.081,608.39z"/>
			</g>
		</g>
		<g>
			<g>
				<path style="fill:#AFBBE8;" d="M161.372,612.081c0,2.039,1.653,3.692,3.692,3.692c2.039,0,3.692-1.653,3.692-3.692
					c0-2.039-1.653-3.692-3.692-3.692C163.025,608.39,161.372,610.042,161.372,612.081z"/>
			</g>
			<g>
				<path style="fill:#152889;" d="M165.063,608.39c0,0,4.169,3.692,0,7.383C165.063,615.773,161.372,612.081,165.063,608.39z"/>
			</g>
		</g>
		<g>
			<path style="fill:#EA839E;" d="M177.446,617.625c0,0-2.937-1.523-5.875,0C171.571,617.625,173.747,625.241,177.446,617.625z"/>
		</g>
		<g>
			<path style="fill:#8896D8;" d="M191.647,640.867c0,0-8.118-2.955-11.813,5.438c-3.695,8.393-8.339,28.353-2.388,28.447
				c5.95,0.094,9.444-3.093,11.903-8.315c0,0,0.171-5.615,0.5-8.196C190.423,653.729,191.647,649.973,191.647,640.867z"/>
		</g>
		<g>
			<path style="fill:#3644AC;" d="M145.823,648.16c0,0,5.367-1.16,4.207,6.818c-1.16,7.978,5.793,15.231,2.244,17.697
				c-3.549,2.466-12.978,10.444-19.505,2.031C126.241,666.292,134.364,651.206,145.823,648.16z"/>
		</g>
		<path style="fill:#8896D8;" d="M160.228,722.992c0,0-2.897-4.913-3.799-11.792c-0.902-6.879-3.864-29.097-3.864-29.097
			s1.152-5.397,4.414-3.637c3.262,1.76,1.116,10.964,4.427,14.808c2.321,2.695,3.845,8.799,1.282,15.612
			c-1.205,3.204-0.578,11.301,0.876,12.815C165.017,723.217,162.778,725.797,160.228,722.992z"/>
		<path style="fill:#D8DDEF;" d="M96.151,678.466c0,0,31.248-9.541,38.581,6.537c7.334,16.078,0.88,26.563-2.01,29.01
			c0,0,18.494-1.354,19.842,5.314s-6.48,7.47-6.48,7.47l-64.865,0.459C81.22,727.256,79.503,693.508,96.151,678.466z"/>
		<g>
			<path style="fill:#8896D8;" d="M104.312,679.924c0,0-11.099,10.532-2.898,24.192c0,0,1.416,6.31,6.464,3.263
				c5.049-3.046,1.294-8.84,9.481-15.843C125.547,684.533,113.322,670.964,104.312,679.924z"/>
		</g>
		<path style="fill:#D8DDEF;" d="M81.22,727.256c0,0-2.828,27.301,18.497,32.893c18.235,4.782,52.171,1.049,55.69-6.641
			c3.518-7.689,0.426-15.728-12.008-11.883c-12.434,3.845-25.547,13.281-45.005,2.097c-7.965-4.579-6.823-10.708-7.509-16.592
			C90.885,727.129,88.18,720.926,81.22,727.256z"/>
		<path style="fill:#8896D8;" d="M156.357,745.133c0,0-4.156,8.026-9.398,5.404c-5.243-2.621-13.005,2.379-19.26-3.267
			c0,0,16.985-6.388,21.181-6.628C153.076,740.401,155.963,742.855,156.357,745.133z"/>
		<path style="fill:#8896D8;" d="M103.623,761.002c0,0,0.788-9.417-7.472-10.815c-8.26-1.398-7.69-11.086-13.917-9.562
			C82.234,740.625,84.228,757.837,103.623,761.002z"/>
		<path style="fill:#3644AC;" d="M84.211,700.339c0,0,13.18,10.178,10.09,15.421c-3.09,5.243-13.206,4.503-13.206,4.503
			S81.58,709.117,84.211,700.339z"/>
	</g>
	<g>
		<path style="fill:#FFFFFF;" d="M325.912,266.999c3.958,13.801,16.461,20.079,30.156,16.819
			c17.887-4.259,23.196-16.53,20.37-30.606c-2.827-14.077-12.925-23.844-30.606-20.37
			C325.338,236.869,321.593,251.942,325.912,266.999z"/>
		<path style="fill:#F79FB2;" d="M350.946,253.035c0,0,7.305-6.576,12.267-1.4c4.962,5.176-0.74,11.507-5.381,15.893
			c-2.581,2.439-8.622,7.087-8.622,7.087s-3.816-3.401-5.178-4.807c-4.289-4.431-10.243-12.415-5.851-18.23
			C342.575,245.763,348.249,250.022,350.946,253.035z"/>
	</g>
	<g>
		<path style="fill:#FFFFFF;" d="M371.297,160.2c-1.272,14.301,8.135,24.657,22.086,26.541c18.222,2.461,27.59-7.078,30.016-21.229
			c2.427-14.151-3.482-26.898-21.229-30.016C381.601,131.881,372.685,144.598,371.297,160.2z"/>
		<path style="fill:#6175C1;" d="M414.727,156.315l-0.055,18.699c0,0-0.003,1.209-17.443,0.95
			c-13.248-0.197-14.689-3.047-13.433-7.628c0,0-2.447-2.7-0.511-6.954c0,0-1.713-4.152,1.372-5.985c0,0,3.11-1.077,8.466-1.338
			c0,0-2.593-5.663-1.421-8.641c1.172-2.978,2.756-3.323,4.117-3.247c1.361,0.076,2.062,1.924,2.811,3.799
			c1.096,2.742,3.878,7.1,6.065,7.528C406.883,153.927,414.727,156.315,414.727,156.315z"/>
	</g>
	<g>
		<path style="fill:#8896D8;" d="M230.362,178.886l55.994-4.763c12.466-1.06,17.864,6.241,18.673,15.745l0.429,5.043
			c0.759,8.926-0.889,16.506-14.039,18.44l4.879,11.195c1.324,3.139-1.905,2.502-1.905,2.502l-15.019-7.819
			c0,0-3.99-2.139-7.548-4.124l-38.107,3.242c-9.503,0.808-17.51-2.088-18.672-15.745l-0.429-5.043
			C213.81,188.054,219.332,179.824,230.362,178.886z"/>
		<path style="fill:#FFFFFF;" d="M279.299,186.436c0,0,5.635-6.943,10.826-2.994c5.191,3.95,0.889,10.214-2.662,14.812
			c-1.974,2.557-6.672,7.821-6.672,7.821s-3.91-2.516-5.333-3.588c-4.481-3.375-10.961-9.708-7.836-15.556
			C270.747,181.085,276.354,184.064,279.299,186.436z"/>
		<g>
			<path style="fill:#FFFFFF;" d="M224.639,198.98c-0.546-6.423,2.588-11.208,7.621-11.636c4.965-0.422,8.537,3.587,9.1,10.213
				c0.564,6.628-2.279,11.183-7.244,11.605C229.083,209.591,225.186,205.404,224.639,198.98z M228.588,198.644
				c0.295,3.467,2.015,6.843,5.193,6.573c4.022-0.342,3.731-6.16,3.632-7.324c-0.099-1.162-0.794-6.946-4.816-6.604
				C229.418,191.56,228.293,195.179,228.588,198.644z"/>
		</g>
		<g>
			<path style="fill:#FFFFFF;" d="M247.521,208.023l9.177-0.781c0.732-0.062,1.37-0.526,1.656-1.204
				c0.286-0.678,0.172-1.458-0.295-2.028c-0.037-0.045-3.722-4.516-7.609-8.653c-1.392-1.48-2.145-3.669-1.684-4.879
				c0.093-0.244,0.376-0.984,2.187-1.138c1.524-0.13,1.854,2.032,1.887,2.279c0.139,1.076,1.011,1.843,2.209,1.714
				c1.078-0.133,1.85-1.107,1.722-2.187c-0.251-2.149-1.861-6.116-6.153-5.751c-3.729,0.317-5.078,2.434-5.549,3.667
				c-1.187,3.102,0.46,6.844,2.495,9.008c1.832,1.948,3.616,3.972,4.978,5.552l-5.356,0.456c-1.091,0.093-1.899,1.051-1.806,2.141
				C245.471,207.307,246.43,208.115,247.521,208.023z"/>
		</g>
	</g>
	<path style="fill:#E4E8F4;" d="M493.153,390.314c3.573-1.447,4.765-5.995,2.25-8.916c-3.877-4.503-7.183-13.66-5.661-32.218
		c0,0-0.666-3.845-4.751,4.893C480.906,362.812,474.528,377.315,493.153,390.314L493.153,390.314z"/>
	<path style="fill:#6175C1;" d="M497.624,476.695c0,0,20.554,2.823,44.613,5.255c28.767,2.908,3.952-28.818,3.952-28.818
		s-29.771,0.994-43.075,3.292L497.624,476.695z"/>
</g>
</svg>
