<?xml version="1.0" encoding="utf-8"?>
<!-- Generator: Adobe Illustrator 21.0.0, SVG Export Plug-In . SVG Version: 6.00 Build 0)  -->
<svg version="1.1" id="Capa_1" xmlns="http://www.w3.org/2000/svg" xmlns:xlink="http://www.w3.org/1999/xlink" x="0px" y="0px"
	 viewBox="0 0 115 107" style="enable-background:new 0 0 115 107;" xml:space="preserve">
<style type="text/css">
	.st0{fill:#666666;}
</style>
<g>
	<g>
		<path class="st0" d="M72.5,56.2h-5.3c-0.9,0-1.6-0.7-1.6-1.6v-7.4c0-0.9,0.7-1.6,1.6-1.6h5.3c0.9,0,1.6,0.7,1.6,1.6v7.4
			C74.1,55.5,73.4,56.2,72.5,56.2z"/>
	</g>
	<g>
		<path class="st0" d="M72.5,71.1h-5.3c-0.9,0-1.6-0.7-1.6-1.6v-7.4c0-0.9,0.7-1.6,1.6-1.6h5.3c0.9,0,1.6,0.7,1.6,1.6v7.4
			C74.1,70.4,73.4,71.1,72.5,71.1z"/>
	</g>
	<g>
		<path class="st0" d="M57.1,39.2h4.2v36.1h-4.2V39.2z"/>
	</g>
	<g>
		<path class="st0" d="M50.7,52h-8.5c-1.2,0-2.1-0.9-2.1-2.1c0-1.2,0.9-2.1,2.1-2.1h8.5c1.2,0,2.1,0.9,2.1,2.1
			C52.9,51,51.9,52,50.7,52z"/>
	</g>
	<g>
		<path class="st0" d="M50.7,60.5h-8.5c-1.2,0-2.1-0.9-2.1-2.1c0-1.2,0.9-2.1,2.1-2.1h8.5c1.2,0,2.1,0.9,2.1,2.1
			C52.9,59.5,51.9,60.5,50.7,60.5z"/>
	</g>
	<g>
		<path class="st0" d="M50.7,69h-8.5c-1.2,0-2.1-0.9-2.1-2.1s0.9-2.1,2.1-2.1h8.5c1.2,0,2.1,0.9,2.1,2.1S51.9,69,50.7,69z"/>
	</g>
	<g>
		<path class="st0" d="M76.2,30.8H38c-3.5,0-6.4,2.8-6.4,6.4v34c0,3.5,2.8,6.4,6.4,6.4h38.2c3.5,0,6.4-2.8,6.4-6.4v-34
			C82.6,33.6,79.7,30.8,76.2,30.8z M76.2,73.2H38c-1.2,0-2.1-0.9-2.1-2.1V41.4h42.5v29.7C78.3,72.3,77.3,73.2,76.2,73.2z"/>
	</g>
</g>
</svg>
