<?xml version="1.0" encoding="utf-8"?>
<!-- Generator: Adobe Illustrator 21.0.0, SVG Export Plug-In . SVG Version: 6.00 Build 0)  -->
<svg version="1.1" id="Capa_1" xmlns="http://www.w3.org/2000/svg" xmlns:xlink="http://www.w3.org/1999/xlink" x="0px" y="0px"
	 viewBox="0 0 115 107" style="enable-background:new 0 0 115 107;" xml:space="preserve">
<style type="text/css">
	.st0{fill:#666666;}
</style>
<title>tech-icon1</title>
<g>
	<path class="st0" d="M59.5,39.5c0,0.1,0,0.3,0,0.3c-2.4,9.1-4.8,18.3-7.2,27.3c-0.1,0.2-0.1,0.3-0.4,0.3c-0.7-0.1-1.4,0-2-0.1
		c-1.8-0.3-3.1-1.2-3.7-2.9c-0.5-1.6-1-3.2-1.4-4.8c-1-4-2-7.9-3-11.9c-0.1-0.3-0.2-0.6-0.3-0.8c-0.3-0.4-0.8-0.4-1,0
		c-0.2,0.3-0.3,0.7-0.4,1.1c-1.2,4.9-2.4,9.8-3.7,14.7c-0.1,0.6-0.3,1.2-0.6,1.8c-0.7,1.9-2.2,2.9-4.1,3c-0.7,0.1-1.3,0-2,0
		c-0.2-0.8-0.4-1.6-0.7-2.4c-2.2-8.3-4.4-16.7-6.7-25c0-0.1-0.1-0.2-0.1-0.3c0-0.1-0.1-0.2,0.2-0.2c0.4,0,0.9,0,1.3,0
		c0.1,0,0.2,0.1,0.3,0.1c2.2,0.3,3.8,1.6,4.4,3.8c1.1,4.2,2.2,8.4,3.3,12.6c0.2,0.8,0.4,1.6,0.7,2.5c0.1-0.2,0.1-0.3,0.1-0.3
		c0.9-3.5,1.7-6.9,2.6-10.4c0.3-1.4,0.6-2.7,1.2-4c0.5-1,1-1.9,2-2.4c1.2-0.5,2.4-0.7,3.8-0.5c1.4,0.3,2.5,1,3.2,2.4
		c0.3,0.7,0.7,1.5,1,2.2c0.9,3.3,1.8,6.7,2.6,10c0.3,1,0.5,2,0.8,3.1c0.1-0.1,0.1-0.2,0.1-0.3c1.3-5,2.6-9.8,3.9-14.8
		c0.5-1.9,1.7-3.1,3.6-3.7c0.4-0.1,0.8-0.2,1.2-0.3C58.6,39.5,59.1,39.5,59.5,39.5z"/>
	<path class="st0" d="M69.7,67.6c-0.3-0.1-0.5-0.1-0.9-0.1c3.1-4.7,6.2-9.3,9.4-13.9c-3.1-4.6-6-9.2-9.2-13.9c0.3-0.1,0.6-0.1,1-0.1
		c0.5,0,1,0,1.6,0c0.1,0,0.3,0.1,0.4,0.1c1.1,0.1,2.1,0.4,2.9,1.2c0.4,0.4,0.8,0.8,1.2,1.3c1.6,2.3,3.3,4.6,4.9,7
		c0.5,0.7,0.9,0.7,1.4,0.1c0.1-0.1,0.1-0.1,0.1-0.1c1.2-1.8,2.4-3.5,3.6-5.2c0.6-0.9,1.4-1.8,2.1-2.6c0.6-0.7,1.4-1.1,2.2-1.3
		c0.5-0.1,1-0.2,1.5-0.3c0.7,0,1.6,0,2.3,0c0.2,0,0.2,0.1,0.2,0.2c-0.1,0.1-0.1,0.1-0.2,0.3c-3,4.4-6,8.9-9,13.3
		c-0.2,0.3-0.1,0.4,0,0.6c3,4.4,5.9,8.8,8.9,13.2c0.1,0.1,0.1,0.2,0.2,0.3c-0.3,0.1-0.5,0.1-0.8,0.1c-0.3,0-0.6,0-1,0
		c-0.2,0-0.3-0.1-0.5-0.1c-1.6-0.1-3.1-0.5-4.2-1.8c-0.3-0.3-0.7-0.7-1-1.1c-1.5-2.1-3-4.2-4.4-6.3c-0.6-0.9-1-0.9-1.6,0
		c-1.2,1.7-2.3,3.5-3.5,5.2c-0.5,0.7-1.1,1.4-1.6,2.1c-0.9,1.1-2.1,1.7-3.5,1.9c-0.5,0.1-1,0.1-1.6,0.2C70.3,67.6,70,67.6,69.7,67.6
		z"/>
	<path class="st0" d="M66.4,44.2c0,0.1,0,0.3,0,0.4c0,5.7,0,11.5,0,17.2c0,0.9-0.1,1.8-0.1,2.6c-0.1,1.8-1.1,2.7-2.9,3.1
		c-0.6,0.1-1.3,0.1-2,0.1c0-0.2,0-0.3,0-0.5c0-6.1,0-12.2,0-18.4c0-1,0.4-1.8,1.3-2.2c0.3-0.1,0.5-0.3,0.7-0.4c1.1-0.5,2.2-1,2.9-2
		C66.3,44.1,66.3,44.1,66.4,44.2z"/>
	<path class="st0" d="M66.4,39.5c0.1,2.7-0.5,3.6-2.6,4.7c-0.8,0.4-1.7,0.7-2.4,1.3c-0.1,0-0.1,0-0.1-0.1c0-1.2,0-2.3,0.3-3.5
		c0.4-1.4,1.4-2.1,2.9-2.3C65.2,39.5,65.8,39.5,66.4,39.5z"/>
</g>
</svg>
