<?xml version="1.0" encoding="utf-8"?>
<!-- Generator: Adobe Illustrator 21.0.0, SVG Export Plug-In . SVG Version: 6.00 Build 0)  -->
<svg version="1.1" id="Capa_1" xmlns="http://www.w3.org/2000/svg" xmlns:xlink="http://www.w3.org/1999/xlink" x="0px" y="0px"
	 viewBox="0 0 115 107" style="enable-background:new 0 0 115 107;" xml:space="preserve">
<style type="text/css">
	.st0{fill:#666666;}
</style>
<title>tech-icon1</title>
<path class="st0" d="M79.1,30.8c2.4,2.4,3.6,5.4,3.7,9v25.3c-0.1,3.6-1.3,6.6-3.7,9c-2.4,2.4-5.4,3.6-9,3.7H44.9
	c-3.6-0.1-6.6-1.3-9-3.7c-2.4-2.4-3.6-5.4-3.7-9V39.8c0.1-3.6,1.3-6.6,3.7-9c2.4-2.4,5.4-3.6,9-3.7h25.3
	C73.7,27.2,76.7,28.4,79.1,30.8L79.1,30.8z M75.6,51.2c-0.8-0.8-1.2-1.8-1.2-3v-8.4c0-1.2-0.5-2.2-1.2-3c-0.8-0.8-1.8-1.2-3-1.2
	h-4.3v21.1L49.1,35.5h-4.2c-1.2,0-2.2,0.5-3,1.2s-1.2,1.8-1.2,3v8.4c0,1.2-0.5,2.2-1.2,3s-1.8,1.2-3,1.2c1.2,0,2.2,0.5,3,1.2
	c0.8,0.8,1.2,1.8,1.2,3V65c0,1.2,0.5,2.2,1.2,3c0.8,0.8,1.8,1.2,3,1.2h4.2v-21l16.8,21.1h4.2c1.2,0,2.2-0.5,3-1.2
	c0.8-0.8,1.2-1.8,1.2-3v-8.4c0-1.2,0.5-2.2,1.2-3c0.8-0.8,1.8-1.2,3-1.2C77.4,52.4,76.4,52,75.6,51.2L75.6,51.2z"/>
</svg>
