<?xml version="1.0" encoding="utf-8"?>
<!-- Generator: Adobe Illustrator 21.0.0, SVG Export Plug-In . SVG Version: 6.00 Build 0)  -->
<svg version="1.1" id="Capa_1" xmlns="http://www.w3.org/2000/svg" xmlns:xlink="http://www.w3.org/1999/xlink" x="0px" y="0px"
	 viewBox="0 0 115 107" style="enable-background:new 0 0 115 107;" xml:space="preserve">
<style type="text/css">
	.st0{fill:#666666;}
</style>
<title>tech-icon1</title>
<g>
	<path class="st0" d="M37.3,31.4c4.1-2.1,7.2-4.2,10.7-5.3c1.7-0.6,4.1-0.4,5.6,0.3c7.1,3.5,14.1,7.3,21.2,11c2,1,2.9,2.5,2.9,4.8
		c-0.1,4.4,0.1,8.8-0.1,13.1c0,0.9-0.6,2.3-1.4,2.7c-3.1,1.9-6.5,3.5-9.7,5.2c-1.8,0.8-2.8,0.4-2.7-1.8c0-3.8-0.2-7.6,0.1-11.3
		c0.3-3.5-1-5.5-4.2-7.1C52.3,39.5,45.2,35.6,37.3,31.4z"/>
	<path class="st0" d="M56.7,81.2c-4.3-2.3-7.9-4.2-11.4-6.3c-0.8-0.5-1.4-2.1-1.4-3.2c-0.1-8.9,0-17.7-0.1-26.7c0-2.5,0.9-3,3.1-1.9
		c0.2,0.1,0.3,0.2,0.5,0.3c11.5,6.5,9.3,2.8,9.4,15.2c0.1,6.1,0,12.1,0,18.3C56.8,78.1,56.7,79.2,56.7,81.2z"/>
</g>
</svg>
