<?xml version="1.0" encoding="utf-8"?>
<!-- Generator: Adobe Illustrator 21.0.0, SVG Export Plug-In . SVG Version: 6.00 Build 0)  -->
<svg version="1.1" id="Capa_1" xmlns="http://www.w3.org/2000/svg" xmlns:xlink="http://www.w3.org/1999/xlink" x="0px" y="0px"
	 viewBox="0 0 115 107" style="enable-background:new 0 0 115 107;" xml:space="preserve">
<style type="text/css">
	.st0{fill:#666666;}
</style>
<title>tech-icon1</title>
<g>
	<path class="st0" d="M65.8,43.9c-4-2.2-8-2.6-12.1-0.6c-3,1.4-5,3.7-6.1,6.8c-2.2,6.1,0.9,12.9,7,15.2c6.9,2.7,14.7-1.3,16.5-8.8
		c0.1,0.1,0.3,0.3,0.4,0.4c2.9,2.9,5.9,5.8,8.8,8.7c1.7,1.7,1.7,3.5,0,5.2c-1.4,1.4-2.8,2.8-4.2,4.2c-1.8,1.7-3.6,1.7-5.3,0
		c-1.5-1.4-3-2.9-4.5-4.4c-0.1-0.1-0.3-0.3-0.5-0.5c0,0.3,0,0.4,0,0.6c0,2.2,0,4.3,0,6.4c0,2.3-1.3,3.6-3.6,3.6c-2.1,0-4.2,0-6.3,0
		c-2.2,0-3.5-1.4-3.6-3.6c0-2.2,0-4.2,0-6.4c0-0.2,0-0.4,0-0.7c-0.2,0.2-0.4,0.4-0.5,0.4c-1.5,1.5-3,3-4.5,4.5c-1,1-2.2,1.5-3.6,1
		c-0.6-0.2-1.1-0.6-1.5-0.9c-1.5-1.4-3-2.9-4.5-4.4c-1.6-1.6-1.6-3.4,0-5c1.5-1.5,3-3.1,4.5-4.6c0.1-0.1,0.2-0.3,0.4-0.5
		c-0.3,0-0.5,0-0.6,0c-2.2,0-4.3,0-6.4,0c-0.4,0-0.9,0-1.3-0.1c-1.5-0.3-2.5-1.4-2.6-2.9c-0.1-2.4-0.1-4.8,0-7.3
		c0.1-1.6,1.2-2.7,2.8-2.9c0.9-0.1,1.7-0.1,2.5-0.1c1.7,0,3.3,0,5,0c0.2,0,0.4,0,0.6,0c-0.2-0.2-0.4-0.4-0.5-0.5
		c-1.5-1.5-3-3-4.5-4.5c-1.7-1.7-1.7-3.5,0-5.2c1.4-1.4,2.9-2.9,4.3-4.3c1.6-1.6,3.4-1.6,5.1,0c1.5,1.5,3.1,3,4.7,4.5
		c0.1,0.1,0.2,0.2,0.4,0.4c0-0.3,0-0.5,0-0.6c0-2.1,0-4.2,0-6.3c0-2.3,1.3-3.6,3.6-3.7c2.1,0,4.2,0,6.3,0c2.2,0,3.5,1.3,3.6,3.6
		c0,4.1,0,8.1,0,12.2C65.8,43.2,65.8,43.5,65.8,43.9z"/>
	<path class="st0" d="M59.1,49c2.7,0,4.9,2.2,4.9,4.9s-2.2,4.9-5,4.9c-2.7,0-5-2.2-5-4.9C54.2,51.3,56.4,49,59.1,49z"/>
</g>
</svg>
