<?xml version="1.0" encoding="utf-8"?>
<!-- Generator: Adobe Illustrator 21.0.0, SVG Export Plug-In . SVG Version: 6.00 Build 0)  -->
<svg version="1.1" id="Capa_1" xmlns="http://www.w3.org/2000/svg" xmlns:xlink="http://www.w3.org/1999/xlink" x="0px" y="0px"
	 viewBox="0 0 115 107" style="enable-background:new 0 0 115 107;" xml:space="preserve">
<style type="text/css">
	.st0{fill:#666666;}
</style>
<title>tech-icon38</title>
<path class="st0" d="M34.9,61.3c1.5,1.3,2.6,2.2,3.7,3.2c7.1,6.3,15.4,7,24.2,5.3c0.9-0.4,1.6-1.2,1.8-2.2
	c0.1-6.6,0.1-13.1-0.1-19.7c-0.2-1.2-0.6-2.3-1.2-3.3c-0.6-1-1.3-2-2.1-2.9c-6.1-8-2.9-6.3-13.1-5.3c-5,0.5-10.1,1.2-15.2,1.9
	c-0.8-2.6,0.3-4.2,2.1-5.6c4-2.8,8.6-3.7,13.2-4.5c7.8-1.3,15.8-0.8,23.3,1.5c1.2,0.4,2.4,0.8,3.6,1.4c4.9,2.4,5.6,4.1,4.6,9.5
	C77.9,50,76.1,59.5,74.6,69c-0.7,4-2.7,6.6-6.3,8.1c-8.4,3.4-16.8,3.5-25.1-0.2c-4.6-1.8-7.7-6.2-7.9-11.1
	C35.2,64.4,35.1,63.2,34.9,61.3z"/>
<path class="st0" d="M36,43.9c8.3,4.7,16.9,5,25.3,5.1c0,5.7,0,11.1-0.1,16.5c0,0.5-1,1.3-1.7,1.4c-7,0.8-13.7,0.4-19.3-4.5
	c-1.4-1.2-2.3-2.8-2.7-4.6C36.9,53.4,36.6,49,36,43.9z"/>
<path class="st0" d="M61,46.1c-8.8,0.1-16.8-0.2-23.9-5.6c5.8-0.7,11.6-1.4,17.5-2c0.7,0,1.4,0.4,1.8,0.9
	C57.8,41.5,59.2,43.6,61,46.1z"/>
</svg>
