<?xml version="1.0" encoding="utf-8"?>
<!-- Generator: Adobe Illustrator 21.0.0, SVG Export Plug-In . SVG Version: 6.00 Build 0)  -->
<svg version="1.1" id="Capa_1" xmlns="http://www.w3.org/2000/svg" xmlns:xlink="http://www.w3.org/1999/xlink" x="0px" y="0px"
	 viewBox="0 0 115 107" style="enable-background:new 0 0 115 107;" xml:space="preserve">
<style type="text/css">
	.st0{fill:#666666;}
</style>
<title>tech-icon1</title>
<g>
	<path class="st0" d="M44.3,77.1c1.7-0.7,2.7-2.2,2.2-4c-0.3-1-1.6-2-2.7-2.1c-0.9-0.1-1.7,0.3-2.3,0.9c-0.6,0.6-0.9,1.4-0.9,2.3
		c-1.9-1.7-3.2-6.8-0.9-10.9c2.5-4.3,8.1-6,12.5-3.7c4.6,2.3,6.6,7.8,4.5,12.5C54.6,76.2,49.5,79.2,44.3,77.1z"/>
	<path class="st0" d="M32.4,49.3c2.1,1.6,3.2,1.7,4.5,0.7c1.1-0.8,1.6-2.3,1.2-3.5c-0.6-1.7-1.7-2.2-4-1.9c1.3-2.7,5.9-5.5,10.7-4
		c5.5,1.7,7.8,6.6,6.6,11.4c-1,4.3-5.5,8-10.9,7.1C35.3,58.3,31.9,53.8,32.4,49.3z"/>
	<path class="st0" d="M55.4,29.2c-0.9,1.9-0.8,3.3,0.4,4.3c1.1,0.9,2.7,0.9,3.8,0.1c1.3-1,1.5-2.2,0.6-4.4c3.5,0.1,7.2,4.8,7.1,9.4
		c-0.1,5.8-4.7,9.3-9.5,9.4c-4.9,0.1-9.6-4.2-9.6-9.6C48.1,34.2,51.9,29.3,55.4,29.2z"/>
	<path class="st0" d="M74.2,74.2c-0.1-1.9-1.1-3.1-2.7-3.2c-1.3-0.1-2.8,0.9-3.2,2.2C68,74.7,68.7,76,70.5,77
		c-2.9,2-8.7,0.3-11.2-3.3c-3-4.2-1.9-10.3,2.4-13.2s10.2-2,13.2,2.2C77.7,66.5,76.7,72.1,74.2,74.2z"/>
	<path class="st0" d="M81.2,44.7c-2.8-0.5-3.6,0.8-4.1,2.2c-0.4,1.2,0.2,2.7,1.3,3.4c1.3,0.8,2.6,0.5,4.2-1c1.1,2.7-2,8-5.8,9.4
		c-5,1.9-10.2,0-12.4-5c-2-4.7,0.2-10.4,4.8-12.4C74.4,38.9,79.3,41.4,81.2,44.7z"/>
	<path class="st0" d="M54,54.9c0-2,1.5-3.7,3.5-3.7c2.1,0,3.7,1.6,3.7,3.6c0,1.9-1.7,3.6-3.6,3.6C55.6,58.5,54,56.9,54,54.9z"/>
</g>
</svg>
