<?xml version="1.0" encoding="utf-8"?>
<!-- Generator: Adobe Illustrator 21.0.0, SVG Export Plug-In . SVG Version: 6.00 Build 0)  -->
<svg version="1.1" id="Capa_1" xmlns="http://www.w3.org/2000/svg" xmlns:xlink="http://www.w3.org/1999/xlink" x="0px" y="0px"
	 viewBox="0 0 115 107" style="enable-background:new 0 0 115 107;" xml:space="preserve">
<style type="text/css">
	.st0{fill:#666666;}
</style>
<title>tech-icon1</title>
<g>
	<path class="st0" d="M59.9,84.5c-0.6-1.6-0.9-3.3-1-4.9c-0.2-2.8-0.3-5.6-0.3-8.3c0-0.8-0.2-1.7-0.3-2.5c0-0.2-0.3-0.3-0.5-0.3
		c-1.3,0-2.7,0-4,0c-4.5,0-8.9,0-13.4,0c-3.6,0-6.3-2.7-6.3-6.3c0-8.4,0-16.8,0-25.2c0-3.7,2.7-6.3,6.4-6.3c8.3,0,16.8,0,25.1,0
		c0.7,0,1.3,0.1,1.9,0.3c0.5,0.2,0.7,0,0.9-0.3c1.3-1.7,2.7-3.3,4.5-4.5c0.6-0.4,1.3-0.8,2-1.1c2.2-0.9,4.2-0.4,5.8,1.3
		c1.5,1.6,2.1,3.5,2.2,5.7c0.1,3.1-0.8,6.1-1.9,9c-1.6,4.2-3.8,8.2-6.2,12c-0.2,0.2-0.4,0.3-0.6,0.4c-2.4,1.1-4.7,2.2-7,3.3
		c-0.1,0.1-0.2,0.1-0.3,0.2c2.1-0.6,4.2-1.1,6.5-1.8c-0.1,0.3-0.2,0.3-0.3,0.5c-1.7,2.4-3.5,4.8-5.1,7.2c-0.2,0.2-0.3,0.3-0.5,0.5
		c-2.9,1.5-5.3,3.5-6.7,6.6c2.9-14.6,8.7-27.9,17.3-40.1c-0.2,0.2-0.4,0.3-0.6,0.6c-0.2,0.2-0.4,0.4-0.6,0.6
		c-3.7,3.9-6.6,8.3-9.1,13c-4.3,8-6.9,16.6-8.1,25.6c-0.6,4.4-0.8,8.7,0.2,13c0.1,0.4,0.3,0.9,0.3,1.3c0,0.2-0.1,0.3-0.1,0.5
		C60,84.5,60,84.5,59.9,84.5z M65.1,35.5c-0.3,0-0.5,0-0.7,0c-7.9,0-15.8,0-23.7,0c-1.3,0-1.7,0.3-1.7,1.6c0,8.2,0,16.4,0,24.7
		c0,1.3,0.4,1.7,1.7,1.7c5.2,0,10.4,0,15.7,0c0.2,0,0.4,0,0.7,0c-0.3-1-0.8-1.9-0.8-2.8c0-0.9,0.3-1.9,0.5-2.9c0.1,0,0.1,0,0.2,0
		c0.6,1.2,1.3,2.4,1.9,3.5c0.1,0,0.1,0,0.2-0.1c-0.5-1.4-1-2.9-1.6-4.4c-0.1-0.2-0.2-0.4-0.2-0.5c0.3-0.9,0.6-1.8,0.9-2.9
		c0.7,1.2,1.2,2.2,1.8,3.2c0-0.3,0-0.4-0.1-0.7c-0.3-1.1-0.8-2.1-1.1-3.2c-0.1-0.3-0.2-0.6-0.1-0.8c1.2-5.6,3.4-10.9,6.1-15.8
		C64.8,35.9,64.9,35.7,65.1,35.5z"/>
</g>
</svg>
