<?xml version="1.0" encoding="utf-8"?>
<!-- Generator: Adobe Illustrator 21.0.0, SVG Export Plug-In . SVG Version: 6.00 Build 0)  -->
<svg version="1.1" id="Capa_1" xmlns="http://www.w3.org/2000/svg" xmlns:xlink="http://www.w3.org/1999/xlink" x="0px" y="0px"
	 viewBox="0 0 115 107" style="enable-background:new 0 0 115 107;" xml:space="preserve">
<style type="text/css">
	.st0{fill:#666666;}
</style>
<title>tech-icon1</title>
<g>
	<path class="st0" d="M68.4,23.2L68.4,23.2c0.1,0,0.3,0,0.4,0c0.3,0.2,0.4,0.5,0.1,0.9c-0.1,0.1-0.1,0.3-0.2,0.4
		c-0.1,0.1-0.1,0.2-0.2,0.4c-0.3,0.4-0.4,0.7-0.7,1.1c-0.2,0.2-0.4,0.5-0.5,0.8c-0.4,0.7-0.8,1.3-1.1,2c-0.1,0.1-0.1,0.1,0,0.2
		c0.3,0.1,0.6,0.4,0.9,0.5l0,0c0,0.1,0.1,0.1,0.2,0.1c0,0.1,0.1,0.1,0.1,0.1l0.1,0.1c0,0.1,0.1,0.1,0.1,0.1l0.1,0.1
		c0.5,0.4,1.1,0.9,1.6,1.4c1,0.9,1.8,2,2.6,3.1c0.1,0.2,0.2,0.4,0.3,0.6c0.4,0.6,0.6,1.3,1,1.9c0,0.1,0,0.1,0.1,0.2v0.1
		c0,0.1,0,0.1,0.1,0.1c0,0.3,0.1,0.5,0.2,0.8c0,0.1,0,0.1,0.1,0.1c0.1,0.6,0.2,1.3,0.4,1.9c0,0.1,0,0.1,0,0.2c0,0.2-0.1,0.4,0.1,0.5
		c0,0.1,0,0.1,0,0.1v0.1c0,0,0,0,0,0.1c-0.1,0.1-0.1,0.1-0.1,0.1c-0.4,0-0.8-0.1-1.3,0c-0.4,0-0.9-0.1-1.3,0c-0.4-0.1-1-0.1-1.4,0
		c-0.4-0.1-1-0.1-1.4,0c-0.5-0.1-1-0.1-1.5,0c-0.4,0-0.9-0.1-1.3,0c-0.4-0.1-1-0.1-1.4,0c-0.4-0.1-1-0.1-1.4,0c-0.4-0.1-1-0.1-1.4,0
		c-0.4-0.1-1-0.1-1.4,0c-0.4-0.1-1,0-1.4,0c-0.4,0-1-0.1-1.4,0c-0.4,0-1,0-1.4,0c-0.4-0.1-1-0.1-1.4,0c-0.4,0-1,0-1.4,0
		c-0.4-0.1-1-0.1-1.4,0c-0.4,0-1,0-1.4,0c-0.4-0.1-1-0.1-1.4,0c-0.4,0-1,0-1.4,0c-0.4-0.1-1-0.1-1.4,0c-0.4,0-1-0.1-1.4,0
		c-0.4,0-0.7,0-1.1,0c-0.1-0.1-0.1-0.2-0.1-0.3c0-0.1,0-0.2,0-0.4l0.1-0.1c0,0-0.1,0-0.1-0.1c0.1-0.1,0.1-0.3,0.1-0.4
		c0.1-0.4,0.2-1,0.3-1.4c0.1-0.4,0.3-1,0.4-1.4c0.1-0.2,0.1-0.4,0.3-0.6c0.3-0.7,0.7-1.4,1-2.1l0.1-0.1l0,0c0.1-0.1,0.1-0.1,0.1-0.2
		c1-1.7,2.5-3.1,4.1-4.3c0.1-0.1,0.1-0.1,0.2-0.2c0.1-0.1,0.3-0.2,0.4-0.3c0.3-0.1,0.6-0.3,0.9-0.4c0.1-0.1,0.1-0.2,0-0.3
		c-0.2-0.4-0.4-1-0.8-1.4c0-0.1-0.1-0.3-0.2-0.4c0-0.1,0-0.1-0.1-0.1l0,0c0-0.1,0-0.1-0.1-0.1c0-0.1-0.1-0.1-0.1-0.2s0-0.1-0.1-0.1
		l0,0l-0.1-0.1c0,0,0-0.1-0.1-0.1c0-0.1,0-0.1-0.1-0.1l0,0c-0.1-0.4-0.4-0.7-0.7-1.1c0,0,0,0,0-0.1c0-0.1,0-0.1-0.1-0.1
		c0,0,0-0.1-0.1-0.1c0-0.1-0.1-0.3-0.2-0.4c-0.3-0.5-0.3-0.6,0.1-1c0,0,0,0,0.1,0c0.2,0,0.4,0,0.6,0.2c0.1,0.1,0.2,0.3,0.3,0.5
		c0.4,0.6,0.7,1.2,1,1.8c0,0.1,0.1,0.1,0.1,0.1s0.1,0.1,0.1,0.1l0,0c0.4,0.8,0.9,1.6,1.3,2.5c0.1,0.1,0.1,0.1,0.3,0.1
		c0.2-0.1,0.5-0.2,0.7-0.4c0.1,0,0.1-0.1,0.2-0.1c0.4-0.1,0.7-0.1,1-0.4c0.1,0,0.1,0,0.1-0.1c0.2,0,0.4-0.1,0.7-0.2
		c0.3,0,0.6,0,0.8-0.1c0.5,0,1-0.1,1.4-0.1c0.1,0,0.1,0,0.1,0c0.2,0,0.4,0.1,0.6-0.1c0.2,0,0.4,0,0.7,0c0.4,0,1,0.1,1.4,0.1
		c0.1,0,0.2,0,0.3,0c0.1,0.1,0.2,0.1,0.3,0c0.1,0,0.1,0,0.2,0c0.1,0.1,0.1,0.1,0.3,0.1c0.1,0,0.1,0,0.1,0c0.3,0.1,0.5,0.1,0.8,0.2
		c0.8,0.1,1.6,0.4,2.4,0.7c0.1,0,0.1,0,0.1,0.1c0.1,0.1,0.2,0.1,0.4,0.2s0.3,0.1,0.3-0.1c0,0,0,0,0-0.1c0.1,0,0.1-0.1,0.1-0.1
		c0.1-0.2,0.3-0.4,0.3-0.7c0.1,0,0.1,0,0.1-0.1c0.2-0.4,0.5-0.8,0.7-1.3c0.1-0.1,0.2-0.4,0.3-0.5C67.4,24.8,67.8,23.9,68.4,23.2z
		 M64.5,33.9L64.5,33.9c-0.1,0.1-0.1,0.2-0.1,0.4c-0.1,0.1-0.1,0.2,0,0.4c-0.1,0.7,0.8,1.3,1.3,1.1c0.7,0,1-0.4,1.2-1.1
		c0.1-0.9-0.7-1.6-1.6-1.3c-0.1,0-0.1,0-0.1,0.1l-0.1,0.1c-0.1,0-0.2,0.1-0.3,0.2l-0.1,0.1c0,0,0,0.1-0.1,0.1
		C64.6,33.8,64.5,33.8,64.5,33.9z M52.2,35.5c0.1,0,0.1-0.1,0.1-0.1l0.1-0.1c0.1,0,0.1-0.1,0.1-0.1c0.1-0.1,0.2-0.4,0.1-0.6
		c0.1-0.8-0.6-1.5-1.3-1.3c-0.1,0-0.1,0-0.1,0c-0.1-0.1-0.1,0-0.1,0.1c-0.5,0.1-0.8,0.5-0.9,1.1c-0.1,0.7,0.7,1.6,1.5,1.3
		c0.1,0,0.1,0,0.1,0C52,35.7,52.1,35.7,52.2,35.5L52.2,35.5z"/>
	<path class="st0" d="M65,80c-0.1,0-0.1,0-0.1,0c-0.7,0.1-1.3-0.1-2-0.2c-0.1,0-0.1-0.1-0.1-0.1c0-0.1-0.1-0.1-0.1-0.1l0,0
		c0-0.1-0.1-0.1-0.1-0.1c-0.1-0.1-0.3-0.2-0.4-0.3c0-0.1-0.1-0.1-0.1-0.1l0,0c0-0.1-0.1-0.1-0.1-0.1l0,0c-0.1-0.1-0.1-0.2-0.3-0.3
		c0,0,0-0.1-0.1-0.1c0-0.1,0-0.1-0.1-0.1l0,0L61,78.4c0-0.1,0-0.1-0.1-0.1c-0.4-1-0.2-2-0.2-3c0-1.9,0-3.9,0-5.8
		c0-0.3-0.1-0.4-0.4-0.4c-1.3,0-2.5,0-3.8,0c-0.4,0-0.4,0.1-0.4,0.4c0,2.5,0,4.9,0,7.4c0,0.1,0,0.3,0,0.4c0,0.1,0,0.1,0,0.2
		c-0.1,0.4-0.3,0.8-0.4,1.3l0,0c-0.1,0.1-0.3,0.3-0.4,0.4l0,0c-0.1,0-0.1,0.1-0.1,0.1l0,0c-0.1,0-0.1,0.1-0.1,0.1l0,0
		c-0.4,0.2-0.8,0.4-1.2,0.7l0,0l0,0h-0.1c-0.1,0-0.1,0-0.1,0c-0.1,0-0.1,0-0.2,0.1c-0.1,0-0.1,0-0.2,0c-0.7,0.1-1.3-0.1-1.9-0.3l0,0
		c0-0.1-0.1-0.1-0.1-0.1c-0.6-0.4-1.1-0.9-1.5-1.6v-0.1c0-0.1-0.1-0.2-0.1-0.3c0-0.1,0-0.1-0.1-0.1l0,0l0,0c0-0.1,0-0.2-0.1-0.4
		c0-0.1,0-0.1,0-0.1c0-1.8,0-3.5,0-5.3c0-0.6,0-1.2,0-1.8c0-0.4,0-0.7,0-1C49.1,69,49,69,48.8,69c-1.2-0.1-2.5,0.1-3.6-0.1
		c-0.1,0-0.1,0-0.1,0H45c0,0,0,0-0.1,0c-0.1-0.1-0.2-0.1-0.3-0.1l0,0c-0.1-0.1-0.1-0.1-0.3-0.2c0,0,0,0-0.1,0
		c-0.1-0.1-0.3-0.3-0.5-0.4c0-0.1-0.1-0.1-0.1-0.1c0-0.1-0.1-0.2-0.2-0.2l0,0c-0.2-0.4-0.5-0.9-0.6-1.4c-0.1-2.1,0-4.2,0-6.2
		c0-0.2,0.1-0.3,0.3-0.3c0.4,0,0.7,0,1,0c0.4,0,1,0,1.4,0c0.4,0.1,1,0,1.4,0s1,0,1.4,0c0.4,0.1,1,0,1.4,0s1,0,1.4,0
		c0.4,0.1,1,0,1.4,0c0.1,0,0.1,0,0.1,0c0.4-0.1,0.6,0.1,0.7,0.4c0.1,0.2,0.2,0.4,0.4,0.6l0,0c0.1,0.2,0.3,0.4,0.6,0.6
		c0,0.1,0.1,0.1,0.1,0.1c0.1,0.1,0.2,0.2,0.4,0.3l0,0c0.2,0.1,0.4,0.3,0.7,0.4c0.1,0.1,0.1,0.1,0.2,0.1c0.1,0.1,0.2,0.1,0.4,0.1
		c0.1,0,0.1,0,0.1,0c0.5,0.2,1.1,0.1,1.6,0.1c0.4,0,1,0,1.4,0c0.1,0,0.4,0.1,0.5,0c0.1,0,0.1,0,0.2,0c0.2,0.1,0.4,0.1,0.6,0
		c0.1,0,0.1,0,0.1,0c0.4,0.1,1,0,1.4,0c0.4,0,0.7,0,1.1,0c0.1,0,0.2-0.1,0.2-0.2c0.1-0.6,0.1-1.2,0-1.8c0-0.1,0-0.1,0-0.2
		c0.1-0.1,0.1-0.1,0-0.2c0-0.1,0-0.1,0-0.2c0.1-0.1,0.1-0.1,0.1-0.1c0.4,0,1,0,1.4,0c0.5,0.1,1,0.1,1.5,0c0.4,0.1,1,0,1.4,0
		c0.5,0.1,1,0.1,1.5,0c0.4,0.1,1,0,1.4,0c0.5,0.1,1,0.1,1.5,0c0.1,0,0.4,0,0.5,0c0.7,0,0.7,0,0.7,0.7v0.1c-0.1,0.4-0.1,1,0,1.5
		c-0.1,0.4-0.1,1,0,1.4c0,0.4,0,0.8,0,1.2c0,0.7,0.1,1.3-0.1,1.9c-0.1,0.3-0.2,0.5-0.3,0.8c0,0,0,0,0,0.1c-0.1,0-0.1,0.1-0.1,0.1
		s-0.1,0.1-0.1,0.1l-0.1,0.1c-0.2,0.2-0.4,0.4-0.6,0.6c-0.1,0-0.1,0.1-0.1,0.1c-1,0.6-2,0.6-3.1,0.6c-0.5,0-1,0-1.6,0
		c-0.2,0-0.3,0.1-0.3,0.3c0,2.7,0,5.4,0,8.1c0,0.1,0,0.1,0,0.1c-0.1,0.6-0.4,1-0.7,1.6l0,0l0,0c-0.1,0.1-0.3,0.2-0.4,0.4l0,0
		c-0.1,0-0.1,0-0.1,0.1l0,0c-0.2,0.1-0.5,0.2-0.7,0.4c-0.1,0-0.1,0-0.1,0.1c-0.1,0-0.2,0-0.3,0.1c-0.1,0-0.1,0-0.1,0.1
		C65.1,80,65.1,80,65,80z M49.4,63.5L49.4,63.5c0,0.1,0.1,0.1,0.1,0.1c0.1,0.1,0.1,0.1,0.2,0.1c0.1,0.1,0.2,0.4,0.2,0.6
		c0,0.4,0,0.7,0,1c0,0.1,0,0.1,0.1,0.2c0.1,0,0.1-0.1,0.2-0.1c0.2-0.2,0.4-0.4,0.5-0.7c0.3-0.4,0.4-1,0.4-1.5c0-0.2,0-0.5-0.2-0.7
		c0-0.2-0.1-0.4-0.2-0.5c0-0.1,0-0.1-0.1-0.1l0,0c-0.1-0.3-0.4-0.2-0.7-0.1c-0.3-0.1-0.7-0.1-1,0h-0.1c-0.1,0-0.1,0-0.2,0
		c-0.7,0-1.3,0-2,0c-0.6,0-0.6,0-0.8,0.6l-0.1,0.1c0,0,0,0,0,0.1s-0.1,0.1-0.1,0.1s0,0.1-0.1,0.1v0.1c0,0.1-0.1,0.1-0.1,0.2
		c-0.1,0.1-0.1,0.1,0,0.3c0,0.1,0,0.2,0,0.4c-0.1,0.1-0.1,0.2,0,0.3c0,0.1,0,0.1,0,0.1s0,0.1,0,0.1c0.1,0.1,0.1,0.2,0.1,0.3
		c0.1,0.4,0.4,0.7,0.7,1c0.1,0.1,0.1,0.1,0.1,0.1c0.1,0,0.1-0.1,0.1-0.2c0-0.2,0-0.4,0-0.7s0-0.4,0-0.7c0,0,0,0,0-0.1c0,0,0,0,0.1,0
		s0.1,0,0.1-0.1c0.1,0,0.1-0.1,0.1-0.1c0.2-0.1,0.5-0.2,0.7-0.4l0,0c0.1,0,0.1,0,0.1-0.1c0.1,0,0.1-0.1,0.2-0.1
		c0.1,0,0.2-0.1,0.3-0.1l0,0l0,0c0,0,0.1,0,0.1,0.1c0.1,0.1,0.3,0.2,0.4,0.3c0.1,0.1,0.1,0.1,0.3,0.1C49.3,63.5,49.4,63.5,49.4,63.5
		z M67.9,62.5c0,0.2,0,0.4-0.1,0.7c-0.1,0.1-0.1,0.4-0.1,0.5c0,0.2,0.1,0.3,0.3,0.3c0.9,0,1.8,0,2.7,0c0.1,0,0.2,0,0.2-0.1
		c0-0.4,0.1-0.7-0.1-1.1c0-0.1,0-0.1,0-0.1v-0.1c0-0.2,0-0.4,0-0.7c0.1-0.2,0-0.3-0.2-0.3c-0.8,0-1.7,0-2.5,0
		c-0.1,0-0.2,0.1-0.2,0.2c0,0.1,0,0.1,0,0.1C67.9,62.1,67.9,62.3,67.9,62.5z"/>
	<path class="st0" d="M34.1,36.4c0-0.1,0-0.1,0-0.2c0-0.6-0.1-1.2-0.2-1.8c0-0.1,0-0.1,0-0.2c0.1-0.1,0-0.2,0-0.3c0-0.1,0-0.1,0-0.2
		c0.1-0.1,0.1-0.2-0.1-0.3c0-0.1,0-0.1,0-0.2c-0.1-0.6-0.1-1.2-0.3-1.7c0-0.1,0-0.1,0-0.2c0.1-0.1,0-0.2,0-0.3c0-0.1,0-0.1,0-0.2
		c0.1-0.1,0.1-0.2-0.1-0.3c0-0.1,0-0.1,0-0.1c0-0.4-0.1-1-0.1-1.4c-0.1-1,0.1-1.8,0.6-2.6l0,0c0.1,0,0.1-0.1,0.1-0.1l0,0
		c0.1,0,0.1-0.1,0.1-0.1c0.1-0.1,0.3-0.3,0.5-0.4c0.4-0.3,1-0.4,1.4-0.6c0.4-0.1,1,0,1.4,0c0.1,0,0.1,0,0.1,0l0,0l0,0c0,0,0,0,0.1,0
		c0.1,0.1,0.2,0.1,0.3,0.1c0,0,0,0,0.1,0l0.1,0.1c0,0.1,0.1,0.1,0.1,0.1c0.1,0.1,0.4,0.3,0.6,0.4c0.1,0.1,0.2,0.2,0.4,0.4
		c0.1,0.1,0.2,0.3,0.4,0.4c0,0.1,0.1,0.1,0.1,0.1l0,0l0.1,0.1l0,0l0.1,0.1l0,0l0.1,0.1l0,0v0.1c0,0.1,0,0.1,0,0.1
		c0,0.1,0.1,0.3,0.1,0.4c0,0.1,0,0.1,0,0.1c0,0.1-0.1,0.2,0.1,0.3c0,0.1,0,0.1,0,0.2c-0.1,0.1,0,0.2,0.1,0.3c0,0.1,0,0.1,0,0.2
		c0,0.1-0.1,0.1,0.1,0.2c0,0.1,0,0.1,0.1,0.3c-0.1,0.1,0,0.2,0,0.3c0,0.1,0,0.1,0,0.2s-0.1,0.2,0.1,0.3c0,0.1,0,0.1,0.1,0.2
		c0,0.6,0.1,1.2,0.2,1.7c0,0.1,0,0.1,0,0.2c-0.1,0.1,0,0.2,0.1,0.3c0,0.1,0,0.1,0,0.2s-0.1,0.2,0.1,0.3c0,0.1,0,0.1,0,0.1
		c0,0.6,0.1,1.2,0.2,1.8c0,0.1,0,0.1,0,0.2c-0.1,0.1,0,0.2,0.1,0.3c0,0.1,0,0.1,0,0.2c0.1,0.6,0.1,1.2,0.3,1.8c0,0.1,0,0.1,0,0.2
		s0,0.1,0.1,0.2c0,0.1,0,0.1,0,0.2c-0.1,0.1,0,0.1,0.1,0.2c0,0.1,0,0.1,0,0.2c-0.1,0.1-0.1,0.2,0.1,0.3c0,0.1,0,0.1,0,0.2
		c-0.1,0.1,0,0.2,0,0.3c0,0.1,0,0.1,0,0.2s-0.1,0.2,0.1,0.3c0,0.1,0,0.1,0,0.2c0,0.6,0.1,1.2,0.2,1.7c0,0.1,0,0.1,0.1,0.3
		c-0.1,0.1,0,0.1,0,0.2c0,0.1,0,0.2,0,0.4c0,0.7-0.1,1.3-0.5,2c-0.1,0.1-0.3,0.3-0.3,0.4l0,0c-0.1,0.1-0.1,0.1-0.2,0.2
		c0,0,0,0,0,0.1c-0.1,0-0.1,0.1-0.1,0.1l0,0c-0.1,0-0.2,0.1-0.2,0.2l0,0c-0.6,0.3-1.3,0.6-1.9,0.6c-0.1,0-0.1,0-0.2,0h-0.1
		c-0.1,0-0.2,0-0.3,0c-0.1-0.1-0.1-0.1-0.2-0.1c-0.1,0-0.1,0-0.1,0c-0.2-0.1-0.4-0.1-0.7-0.2c-0.4-0.2-0.9-0.5-1.2-0.9
		c-0.1-0.3-0.4-0.5-0.5-0.8c0,0,0,0,0-0.1c0-0.1-0.1-0.4-0.1-0.5c0-0.1,0-0.1-0.1-0.2c-0.1-0.6-0.1-1.2-0.2-1.7c0-0.1,0-0.2-0.1-0.4
		c0.1-0.1,0.1-0.1,0-0.1c-0.1-0.3,0-0.6-0.1-1c0-0.4-0.1-0.8-0.1-1.2c-0.1-0.6-0.1-1.2-0.3-1.8c0-0.1,0-0.1,0-0.1
		c0.1-0.1,0-0.2,0-0.3c0-0.1,0-0.1,0-0.2C34.1,36.6,34.1,36.5,34.1,36.4z"/>
	<path class="st0" d="M71.4,42.7c0.4,0,1,0,1.4,0s0.8,0,1.3,0l0,0c0,0.1,0,0.3,0.1,0.4c-0.1,0.4-0.1,1,0,1.4c-0.1,0.4-0.1,1,0,1.4
		c-0.1,0.4-0.1,1,0,1.4c-0.1,0.4-0.1,1,0,1.4c-0.1,0.4-0.1,1,0,1.4c-0.1,0.4-0.1,1,0,1.4c-0.1,0.4-0.1,1,0,1.4c-0.1,0.4-0.1,1,0,1.4
		c0,0.1,0,0.1,0,0.2c0.1,0.4-0.1,0.4-0.4,0.4c-0.7,0-1.5,0-2.2,0c-0.8,0-0.8,0-0.9-0.8c0-0.2,0-0.4,0-0.7c0.1-0.7-0.1-1.3-0.1-2.1
		c0-0.1-0.1-0.1-0.2-0.1c-0.5,0-1,0-1.5,0c-0.2,0-0.3,0.1-0.2,0.3c-0.1,0.2-0.1,0.4,0,0.7c-0.1,0.1-0.1,0.1-0.1,0.3
		c0,0.7-0.1,1.4-0.1,2.1c0,0.3-0.1,0.4-0.4,0.4c-1.1,0-2.2,0-3.4,0c-0.3,0-0.4-0.1-0.4-0.4c0-0.7,0-1.6,0-2.3c0-0.1,0.1-0.4-0.2-0.3
		H64c0,0,0,0-0.1,0h-0.1c0,0,0,0-0.1,0h-0.1c0,0,0,0-0.1,0h-0.1c0,0,0,0-0.1,0h-0.1c0,0,0,0-0.1,0h-0.1c0,0,0,0-0.1,0h-0.1
		c0,0,0,0-0.1,0H63c0,0,0,0-0.1,0s-0.1,0-0.1,0h-0.1c-0.1,0-0.1,0-0.1,0c0,0,0,0-0.1,0c-0.2,0.1-0.4,0.1-0.6,0.1h-0.1
		c-0.1,0-0.1,0-0.1,0h-0.1c-0.1,0-0.1,0-0.1,0c0,0,0,0-0.1,0h-0.1c0,0,0,0-0.1,0h-0.1c-0.2-0.1-0.4-0.1-0.6,0h-0.1c0,0,0,0-0.1,0
		h-0.1c0,0,0,0-0.1,0h-0.1c0,0,0,0-0.1,0H60c0,0,0,0-0.1,0s-0.1,0-0.1,0h-0.1c-0.1,0-0.1,0-0.2,0h-0.1c-0.1,0-0.1,0-0.2,0h-0.1
		c-0.1,0-0.1,0-0.2,0h-0.1c-0.1,0-0.1,0-0.1,0h-0.1c-0.1,0-0.1,0-0.1,0h-0.1c0,0,0,0-0.1,0h-0.1c0,0,0,0-0.1,0h-0.1c0,0,0,0-0.1,0
		h-0.1c0,0,0,0-0.1,0h-0.1c-0.1-0.1-0.3-0.1-0.4,0c-0.1,0-0.1,0-0.3,0c-0.1,0-0.1,0-0.1,0c-0.1,0-0.1,0-0.2,0.1c-0.1,0-0.1,0-0.1,0
		s-0.1,0-0.1,0.1c-0.1,0-0.1,0-0.1,0.1c0,0,0,0-0.1,0c-0.1,0-0.2,0.1-0.3,0.1c-0.2,0-0.4,0.1-0.5,0.3c-0.1,0-0.1,0.1-0.1,0.1
		c-0.1,0.1-0.2,0.1-0.3,0.2l-0.1,0.1l0,0c-0.1,0-0.1,0-0.1,0.1c-0.6,0.4-1,0.9-1.3,1.5c0.1,0.4-0.1,0.4-0.3,0.4c-1,0-1.9,0-2.9,0
		c-0.1,0-0.3,0-0.4-0.1c0-0.2,0-0.4,0-0.6c0-0.4,0-1,0.1-1.4c0.1-0.1,0.2-0.1,0.3-0.2c0.1,0,0.1-0.1,0.1-0.1c0.1,0,0.1-0.1,0.1-0.1
		c0.4-0.4,0.7-0.8,0.7-1.3c0-0.1,0-0.2,0.1-0.3c0.1-0.2,0.1-0.4,0-0.7c0-0.1,0-0.1,0-0.1c-0.1-0.7-0.4-1.2-0.9-1.6
		c-0.1-0.1-0.2-0.1-0.2,0.1c0,0.4,0,0.8,0,1.2c0,0.2-0.1,0.4-0.3,0.5c-0.3,0.1-0.7,0.3-0.9,0.6l0,0c-0.1,0-0.2,0.1-0.2,0.1l0,0
		c-0.1,0.1-0.2,0.1-0.4,0c-0.4-0.2-0.7-0.4-1-0.6c-0.1-0.1-0.4-0.1-0.4-0.4c0-0.4,0-1,0-1.4c0-0.1,0-0.1,0-0.1
		c-0.1-0.1-0.2,0.1-0.2,0.1c-0.4,0.4-0.7,0.9-0.7,1.4c-0.2,0.5-0.1,1,0.1,1.4c0.1,0.4,0.3,0.7,0.6,1c0.7,0.4,0.7,1,0.7,1.6
		c0,0.1,0,0.3,0,0.4c0,0.1,0,0.3,0,0.4c0,0.1,0,0.1-0.1,0.1l0,0l0,0c-0.1,0-0.2,0-0.4,0c-0.1,0-0.1,0-0.2,0h-0.1c-0.1,0-0.1,0-0.2,0
		c-0.1,0-0.1,0-0.1,0c-0.1,0-0.1,0-0.1,0H46c-0.4-0.1-1-0.1-1.4,0h-0.1c-0.1,0-0.2,0-0.4,0h-0.1c-0.1,0-0.3,0-0.4,0h-0.1
		c-0.1,0-0.1,0-0.1,0h-0.1c-0.1-0.2,0-0.4-0.1-0.7c0-1,0-1.9,0-2.8c0-3,0-6,0-9c0.4-0.1,0.8,0,1.3,0c0.4,0.1,1,0,1.4,0
		c0.4,0,1,0,1.4,0s1,0,1.4,0c0.4,0,1,0,1.4,0s1,0,1.4,0c0.4,0,1,0,1.4,0c0.4,0,1,0,1.4,0c0.4,0,1,0,1.4,0c0.4,0,1,0,1.4,0s1,0,1.4,0
		c0.4,0,1,0,1.4,0s1,0,1.4,0c0.4,0,1,0,1.4,0c0.4,0.1,0.9,0,1.3,0c0.1,0,0.1,0,0.1,0c0.4,0,1,0,1.4,0s1,0.1,1.4,0c0.4,0,1,0,1.4,0
		s0.9,0,1.3,0c0.1,0,0.1,0,0.1,0C70.5,42.8,70.9,42.8,71.4,42.7z M72.3,51.8c0,0.2,0,0.4,0,0.6s0.1,0.3,0.3,0.3c0.1,0,0.2,0,0.3,0
		c0.8,0.1,0.8,0.1,0.7-0.7v-0.1c0.1-0.4,0.1-0.9,0-1.3c0-0.5-0.1-1-0.4-1.5c0,0,0,0,0-0.1c-0.1-0.2-0.2-0.4-0.4-0.4
		c-0.4-0.4-0.9-0.5-1.5-0.5c-1.2,0-2.4,0-3.5,0c-1,0-1,0-0.9,1c0,0.4,0,1,0,1.4c-0.1,0.4,0.1,0.4,0.4,0.4c1.4,0,2.8,0,4.2,0
		c0.3,0,0.5,0,0.7,0.1C72.3,51.2,72.3,51.5,72.3,51.8z M64.5,47.1c-0.3-0.1-0.3,0.1-0.3,0.2c0,1.3,0,2.7,0,4c0,0.2,0.1,0.3,0.3,0.3
		c0.5,0,1,0,1.6,0c0.1,0,0.3-0.1,0.3-0.3c0-1.3,0-2.7,0-4.1c0-0.1,0-0.3-0.2-0.2C65.5,47.1,65,47.2,64.5,47.1z"/>
	<path class="st0" d="M81,42.8c0.1,0.1,0.2,0.3,0.4,0.4c0.6,0.8,0.7,1.8,0.7,2.8c0,4.6,0,9.3,0,13.9c0,0.7-0.2,1.5-0.7,2.1
		c0,0.1-0.1,0.1-0.1,0.1c-0.5,0.5-1.2,1-1.9,1.2c-0.1,0-0.1,0-0.1,0c-0.4,0-0.7,0-1.2,0c-0.1,0-0.1,0-0.2,0
		c-0.3-0.1-0.6-0.2-0.8-0.3c-0.6-0.3-1-0.8-1.4-1.3l0,0c-0.1-0.3-0.2-0.6-0.4-0.8c0-0.1,0-0.3-0.1-0.4c0-0.4,0-0.8,0-1.2
		c0-3.9,0-7.7,0-11.5c0-1.1-0.1-2.2,0.1-3.3c0-0.1,0-0.1,0.1-0.1v-0.1c0.1-0.1,0.1-0.2,0.1-0.3c0.3-0.7,0.8-1.3,1.5-1.7
		c0.1,0,0.1,0,0.1-0.1c1-0.4,2-0.4,3,0c0.2,0.1,0.5,0.3,0.7,0.4C81,42.7,81,42.8,81,42.8z"/>
	<path class="st0" d="M62.8,58.9c-0.1,0.5-0.1,1,0,1.5c0,0.2,0,0.4,0,0.6c0,0,0,0-0.1,0c-0.5-0.1-1-0.1-1.5,0
		c-0.1,0-0.1-0.1-0.1-0.1l0.1-0.1c0-1.7,0-3.5,0-5.2c0-0.1,0-0.2-0.1-0.2c-0.4,0-0.7,0-1,0c-0.4-0.1-1-0.1-1.4,0c-0.1,0-0.4,0-0.5,0
		c-0.1-0.1-0.3,0-0.4,0.1c-0.1,0-0.1,0-0.1,0.1c-0.1,0-0.1,0-0.1,0.1c0,0,0,0-0.1,0c-0.2,0.1-0.4,0.2-0.6,0.4
		c-0.1,0-0.1,0.1-0.1,0.2c-0.2,0.1-0.3,0.4-0.3,0.7c0,0.1,0,0.1,0,0.1c-0.1,0.5,0.1,1.4,0.5,1.7c0.1,0.2,0.3,0.3,0.4,0.4
		c0.8,0.4,1.6,0.3,2.5,0.2h0.1l0,0l0,0h0.1l0,0l0,0c0.1,0.1,0.1,0.2,0.1,0.3c0,0.2,0,0.4,0,0.7c0,0.1-0.1,0.1,0,0.2
		c0.1,0.4-0.1,0.4-0.4,0.4c-0.4,0-0.7-0.1-1.1,0h-0.1h-0.1h-0.1c-0.1-0.1-0.1-0.1-0.2,0c-0.1,0-0.2,0-0.3,0
		c-0.1-0.1-0.1-0.1-0.2-0.1c-0.1,0-0.1,0-0.1,0c-0.7-0.2-1.3-0.6-1.8-1c-0.1-0.1-0.1-0.1-0.1-0.1c0-0.1-0.1-0.2-0.2-0.2l0,0
		c-0.1-0.2-0.2-0.4-0.4-0.7c-0.1-0.4-0.3-1-0.3-1.4c0-0.5,0.1-1,0.2-1.4c0-0.1,0.1-0.1,0.1-0.2c0.1-0.1,0.1-0.2,0.1-0.3
		c0.1-0.1,0.2-0.3,0.3-0.5c0.1,0,0.1-0.1,0.1-0.1c0.1-0.1,0.1-0.1,0.1-0.2c0.1-0.1,0.3-0.2,0.4-0.4c0.1-0.1,0.3-0.1,0.4-0.2
		c0.1,0,0.2-0.1,0.3-0.1c0.1-0.1,0.4-0.1,0.5-0.1c0.4-0.1,1-0.1,1.4-0.1c0.4,0,1,0,1.4,0c0.4,0.1,1,0.1,1.4,0c0.4,0,0.9,0,1.3,0
		c0,0,0,0,0.1,0c0.1,0.3-0.1,0.7,0.1,1c0,0.4,0,0.7,0,1.1v0.1c0,0.1,0,0.1,0,0.2c-0.1,0.4-0.1,1,0,1.4c0,0.4,0,0.7,0,1.1v0.1
		C62.8,58.8,62.8,58.8,62.8,58.9z"/>
</g>
</svg>
