<?xml version="1.0" encoding="utf-8"?>
<!-- Generator: Adobe Illustrator 21.0.0, SVG Export Plug-In . SVG Version: 6.00 Build 0)  -->
<svg version="1.1" id="Capa_1" xmlns="http://www.w3.org/2000/svg" xmlns:xlink="http://www.w3.org/1999/xlink" x="0px" y="0px"
	 viewBox="0 0 115 107" style="enable-background:new 0 0 115 107;" xml:space="preserve">
<style type="text/css">
	.st0{fill:#666666;}
</style>
<title>tech-icon1</title>
<g>
	<path class="st0" d="M46,49c-3.2,5.5-6.4,11.1-9.6,16.6c0.2,0,0.3,0,0.4,0c3.2,0,6.4,0,9.7,0c0.2,0,0.4,0.1,0.5,0.3
		c1.3,2.3,2.6,4.6,4,6.9c0.1,0.1,0.1,0.2,0.2,0.4c-9.3,0-18.6,0-27.9,0C30.9,60,38.4,46.9,46,33.8C53.6,46.9,61.1,60,68.7,73.1
		c-0.1,0-0.2,0-0.4,0c-2.7,0-5.4,0-8.1,0c-0.2,0-0.4-0.1-0.5-0.3c-4.5-7.8-9.1-15.6-13.6-23.5C46.1,49.2,46.1,49.1,46,49z"/>
	<path class="st0" d="M77.5,58.1c2.9,5.1,5.8,10,8.7,15.1c-0.2,0-0.2,0-0.4,0c-2.7,0-5.4,0-8.1,0c-0.2,0-0.4-0.1-0.5-0.2
		c-4.2-7.3-8.5-14.7-12.7-22c-0.1-0.1-0.1-0.2-0.2-0.4c0.2,0,0.3,0,0.4,0c4.2,0,8.4,0,12.6,0c2.3,0,4.3-1.7,4.5-4
		c0.2-2.5-1.3-4.5-3.7-5c-0.3-0.1-0.6-0.1-0.9-0.1c-6,0-11.9,0-17.9,0c-0.3,0-0.4-0.1-0.5-0.3c-1.3-2.3-2.6-4.6-4-6.9
		c-0.1-0.1-0.1-0.2-0.2-0.4c0.1,0,0.2,0,0.4,0c7.5,0,15,0,22.5,0c5.7,0,10.8,4.3,11.7,10C90,48,89,51.5,86.1,54.5
		c-2.1,2.2-4.7,3.3-7.6,3.5C78.1,58,77.8,58,77.5,58.1z"/>
</g>
</svg>
