<?xml version="1.0" encoding="utf-8"?>
<!-- Generator: Adobe Illustrator 21.0.0, SVG Export Plug-In . SVG Version: 6.00 Build 0)  -->
<svg version="1.1" id="Capa_1" xmlns="http://www.w3.org/2000/svg" xmlns:xlink="http://www.w3.org/1999/xlink" x="0px" y="0px"
	 viewBox="0 0 115 107" style="enable-background:new 0 0 115 107;" xml:space="preserve">
<style type="text/css">
	.st0{fill:#666666;}
</style>
<title>tech-icon1</title>
<g>
	<g>
		<g>
			<path class="st0" d="M72.9,28.7c-3.8-1.4-9-2.2-14.4-2.2s-10.6,0.7-14.4,2.2c-3.3,1.2-5.3,2.8-5.3,4.2c0,1.5,2,3,5.3,4.2l0,0
				c3.8,1.4,9,2.2,14.4,2.2s10.6-0.7,14.4-2.2c3.3-1.2,5.3-2.8,5.3-4.2C78.3,31.4,76.3,29.9,72.9,28.7z"/>
		</g>
	</g>
	<g>
		<g>
			<path class="st0" d="M58.5,70.4c-7.7,0-15.8-1.6-19.8-4.6v10.3c0,1.5,2,3,5.3,4.2c3.8,1.4,9,2.2,14.4,2.2c3.2,0,6.5-0.2,9.6-0.9
				c6-1.1,10.2-3.4,10.2-5.5V65.8C74.4,68.9,66.2,70.4,58.5,70.4z M62,77.4H55c-0.6,0-1.2-0.6-1.2-1.2c0-0.6,0.6-1.2,1.2-1.2H62
				c0.6,0,1.2,0.6,1.2,1.2C63.2,76.9,62.6,77.4,62,77.4z"/>
		</g>
	</g>
	<g>
		<g>
			<path class="st0" d="M58.5,56c-7.7,0-15.8-1.6-19.8-4.6v10.2c0,1.5,2,3,5.3,4.2c3.8,1.4,9,2.2,14.4,2.2s10.6-0.7,14.4-2.2
				c3.3-1.2,5.3-2.8,5.3-4.2V51.4C74.4,54.4,66.2,56,58.5,56z M62,62.8H55c-0.6,0-1.2-0.6-1.2-1.2c0-0.6,0.6-1.2,1.2-1.2H62
				c0.6,0,1.2,0.6,1.2,1.2C63.2,62.2,62.6,62.8,62,62.8z"/>
		</g>
	</g>
	<g>
		<g>
			<path class="st0" d="M58.5,41.7c-7.7,0-15.8-1.6-19.8-4.6v10.2c0,1.5,2,3,5.3,4.2c3.8,1.4,9,2.2,14.4,2.2s10.6-0.7,14.4-2.2
				c3.3-1.2,5.3-2.8,5.3-4.2V37.1C74.4,40.1,66.2,41.7,58.5,41.7z M62,48.6H55c-0.6,0-1.2-0.6-1.2-1.2c0-0.6,0.6-1.2,1.2-1.2H62
				c0.6,0,1.2,0.6,1.2,1.2C63.2,48,62.6,48.6,62,48.6z"/>
		</g>
	</g>
</g>
</svg>
