<?xml version="1.0" encoding="utf-8"?>
<!-- Generator: Adobe Illustrator 21.0.0, SVG Export Plug-In . SVG Version: 6.00 Build 0)  -->
<svg version="1.1" id="Capa_1" xmlns="http://www.w3.org/2000/svg" xmlns:xlink="http://www.w3.org/1999/xlink" x="0px" y="0px"
	 viewBox="0 0 115 107" style="enable-background:new 0 0 115 107;" xml:space="preserve">
<style type="text/css">
	.st0{fill:#666666;}
</style>
<title>tech-icon1</title>
<g>
	<path class="st0" d="M84.1,71.4c0,0.4,0,1.2-0.1,2c-0.3,1.9-1.8,3.3-3.7,3.7c-6.1,1.1-12.1,2.2-18.2,3.2c-0.9,0.2-1.8,0.2-2.8,0.2
		c-2-0.2-3.4-1.6-3.8-3.9c-0.2-0.8-0.2-1.7-0.2-2.6C55,66.3,54.8,58.7,54.6,51c-0.2-6-0.4-12.1-0.6-18c0-1-0.1-2.2,0.2-3.2
		c0.5-2.7,2.4-3.9,5.1-3.5c3.6,0.5,7.2,0.8,10.9,1.3c2.3,0.3,4.6,0.6,6.8,1c2.7,0.5,4.4,2.3,4.7,5.1c0.2,2.4,0.4,4.9,0.5,7.4
		c0.3,5.3,0.7,10.6,1,15.8C83.4,61.4,83.7,66.2,84.1,71.4z M58.3,51c0.1,5.1,0.2,9.2,0.2,13.2c0,0.5,0.1,1,0.2,1.4
		c0.4,2.4,1.9,3.7,4.3,3.6c1.8-0.1,3.6-0.2,5.4-0.4c3.3-0.4,6.6-1,9.9-1.4c1.5-0.2,2.3-1,2.7-2.3c0.2-0.9,0.4-1.8,0.3-2.7
		c-0.2-4.6-0.4-9.2-0.6-13.7c-0.2-2.6-0.2-5.1-0.5-7.8c-0.2-2.7-2-4.3-4.7-4.5c-2.5-0.2-5-0.2-7.5-0.5c-2-0.2-4-0.3-6-0.6
		c-1.5-0.2-3.1,0.6-3.6,2c-0.3,0.9-0.5,1.9-0.5,2.9C57.9,44.1,58.2,48.1,58.3,51z"/>
	<path class="st0" d="M53.3,74c-1.4,0.2-2.9,0.4-4.3,0.5c-1,0.1-2,0.2-3,0c-2.1-0.4-3.4-2.2-3.5-4.3c0-11.2,0-22.3,0-33.5
		c0-3.1,2.2-4.9,5.4-4.5c1.4,0.2,2.7,0.4,4.2,0.6c0.1,2.3,0.2,4.7,0.2,7.1c-0.2,0-0.3,0-0.5,0c-1.1-0.1-2.2-0.2-3.3-0.2
		c-1.7,0-2.7,1-2.7,2.7c0,7.2,0,14.5,0,21.7c0,1.6,1.1,2.7,2.7,2.6c1.3-0.1,2.6-0.2,3.9-0.3c0.2,0,0.3,0,0.5,0
		C53.1,68.9,53.2,71.4,53.3,74z"/>
	<path class="st0" d="M40.5,62.3c0.1,1.8,0.2,3.6,0.2,5.5c-1.2,0-2.3,0.2-3.5,0.1c-1.6-0.2-2.6-1.4-2.6-3.1c0-3.7,0-7.4,0-11.1
		c0-3.9,0-7.7,0-11.6c0-1.8,1-3.1,2.8-3.4c0.7-0.2,1.5-0.1,2.5-0.2c0,1.8,0,3.4,0,5.1c-0.4,0-0.9,0-1.3,0c-1,0-1.6,0.6-1.7,1.5
		c0,0.2,0,0.4,0,0.6c0,4.7,0,9.5,0,14.2c0,0.3,0,0.6,0.1,0.9c0.2,0.8,0.6,1.3,1.4,1.3c0.3,0,0.6,0,1,0
		C39.8,62.3,40.1,62.3,40.5,62.3z"/>
	<path class="st0" d="M33.1,45.6c0,0.9,0,1.8,0,2.7c-0.3,0-0.6,0-1,0c-0.8,0-1.1,0.2-1.1,1c0,2.4,0,4.8,0,7.2c0,0.7,0.3,1,1,1
		c0.3,0,0.6,0,1,0c0,1,0,1.9,0,2.9c-0.6,0-1.4,0.1-2,0c-0.7-0.1-1.3-0.8-1.3-1.6c0-3.9,0-7.9,0-11.8c0-0.9,0.6-1.5,1.6-1.6
		C32,45.5,32.5,45.6,33.1,45.6z"/>
</g>
</svg>
