<?xml version="1.0" encoding="utf-8"?>
<!-- Generator: Adobe Illustrator 21.0.0, SVG Export Plug-In . SVG Version: 6.00 Build 0)  -->
<svg version="1.1" id="Capa_1" xmlns="http://www.w3.org/2000/svg" xmlns:xlink="http://www.w3.org/1999/xlink" x="0px" y="0px"
	 viewBox="0 0 115 107" style="enable-background:new 0 0 115 107;" xml:space="preserve">
<style type="text/css">
	.st0{fill:#666666;}
</style>
<title>tech-icon37</title>
<path class="st0" d="M56.5,26.3l5.5,3.2l3.4,2c-0.1,0.2-0.2,0.2-0.3,0.3l-8.6,5.3c-0.2,0.2-0.4,0.2-0.6,0.1
	c-2.9-1.6-5.8-3.2-8.7-4.8c-0.1-0.1-0.2-0.1-0.2-0.2l0.6-0.4l8.2-5.1c0.2-0.1,0.4-0.1,0.4-0.4L56.5,26.3z"/>
<path class="st0" d="M60.6,39.6c0.1-0.2,0.3-0.2,0.5-0.3c2.8-1.7,5.6-3.4,8.5-5.1c0.2-0.2,0.6-0.2,0.8,0c3.3,1.9,6.7,3.9,10,5.8
	c0.3,0.1,0.4,0.4,0.4,0.7c0,8.9,0,17.8,0,26.7c0,0.3-0.1,0.5-0.4,0.6c-7.9,4.5-15.7,8.9-23.6,13.4c-0.2,0.1-0.5,0.1-0.7,0L36,69.4
	c-0.8-0.5-1.8-1.1-2.6-1.6c-0.2-0.1-0.4-0.4-0.4-0.6c0-7.3,0-14.7,0-22.1c0-0.5,0.1-0.4,0.5-0.3c2.9,1.4,5.8,2.9,8.7,4.3
	c0.3,0.1,0.5,0.4,0.4,0.7c0,3.9,0,7.8,0,11.7c0,0.3,0.1,0.6,0.4,0.8c4.4,2.5,8.9,5.1,13.3,7.6c0.3,0.2,0.6,0.2,0.8,0
	c4.5-2.6,9-5.1,13.5-7.7c0.3-0.1,0.5-0.5,0.5-0.8c0-5.1,0-10.2,0-15.2c0-0.4-0.2-0.7-0.5-0.8c-3.2-1.8-6.4-3.7-9.7-5.6
	C60.9,39.9,60.7,39.8,60.6,39.6z"/>
</svg>
