<?xml version="1.0" encoding="utf-8"?>
<!-- Generator: Adobe Illustrator 21.0.0, SVG Export Plug-In . SVG Version: 6.00 Build 0)  -->
<svg version="1.1" id="Capa_1" xmlns="http://www.w3.org/2000/svg" xmlns:xlink="http://www.w3.org/1999/xlink" x="0px" y="0px"
	 viewBox="0 0 115 107" style="enable-background:new 0 0 115 107;" xml:space="preserve">
<style type="text/css">
	.st0{fill:#666666;}
</style>
<title>tech-icon1</title>
<g>
	<path class="st0" d="M57.4,23.6c5.4,0.1,10.7,0.7,15.7,2.6c2.6,1,5.2,2.2,7.2,4.2c1.3,1.3,2.1,2.7,2.1,4.6c-0.1,1.8-1,3.2-2.2,4.4
		c-1.7,1.7-3.8,2.8-5.9,3.7c-3.5,1.4-7.1,2.2-10.8,2.6C60.6,46,57.8,46.1,55,46c-5.1-0.1-10.3-1-15.1-3.1c-2.4-1-4.6-2.3-6.2-4.3
		c-1.8-2.4-1.8-4.9,0-7.2c1.6-2.1,3.8-3.4,6.3-4.3c3.6-1.5,7.4-2.4,11.2-2.8C53.2,23.9,55.3,23.8,57.4,23.6z"/>
	<path class="st0" d="M32.3,50.3c0.3,1.3,1,2.4,1.8,3.4c1.8,1.9,4,3.2,6.3,4.1c3.4,1.3,6.8,2.1,10.4,2.6c3.1,0.4,6.3,0.4,9.3,0.3
		c5.1-0.2,10.1-1.1,14.9-3.2c2.3-1,4.5-2.3,6-4.3c0.7-0.8,1.1-1.8,1.3-2.8c0,2.5,0,5,0,7.5c0,1.4-0.4,2.6-1.3,3.7
		c-0.9,1.2-2,2.1-3.2,2.9c-3.2,2.1-6.8,3.2-10.4,3.9c-4.1,0.8-8.3,1.1-12.4,0.9c-5.2-0.2-10.4-1-15.2-3.2c-2-0.8-3.8-1.8-5.3-3.4
		c-1.5-1.4-2.3-3.1-2.3-5.1C32.3,55.2,32.3,52.7,32.3,50.3z"/>
	<path class="st0" d="M32.3,38.8c0.4,1.5,1.2,2.8,2.3,3.8c2.3,2.1,5.1,3.5,8.1,4.4c3.8,1.2,7.6,1.8,11.5,2.1
		c3.6,0.2,7.1,0.1,10.7-0.4c4-0.6,7.9-1.5,11.6-3.4c1.8-0.9,3.3-2,4.6-3.5c0.7-0.9,1.2-1.8,1.5-2.9c0,0.1,0,0.4,0,0.5
		c0,2.2-0.1,4.5,0,6.7c0.1,2.1-0.8,3.7-2.2,5.1c-2.1,2.1-4.7,3.3-7.5,4.3c-3,1-6.1,1.7-9.3,2c-3.5,0.4-7,0.4-10.4,0.1
		c-3.9-0.3-7.6-1-11.3-2.3c-2.3-0.8-4.5-1.8-6.3-3.4c-1.5-1.2-2.7-2.6-3.1-4.6c0-0.1-0.1-0.2-0.1-0.4C32.3,44.2,32.3,41.5,32.3,38.8
		z"/>
	<path class="st0" d="M82.5,61.9c0,2.7,0.1,5.4,0,8.1c-0.1,1.7-1,3.1-2.1,4.3c-2.2,2.2-5,3.5-7.9,4.4c-3,1-6.2,1.7-9.3,1.9
		c-2.9,0.2-5.7,0.4-8.6,0.2c-5.5-0.2-10.8-1.2-15.8-3.7c-2-1-3.8-2.1-5.1-4c-0.8-1-1.3-2.2-1.3-3.5c0-2.4,0-4.9,0-7.3
		c0-0.1,0-0.4,0-0.5c0.5,2.3,2,3.8,3.8,5.1c2.6,1.9,5.6,3,8.7,3.8c4.8,1.3,9.6,1.7,14.6,1.5c4.7-0.1,9.4-0.8,13.8-2.4
		c2.6-1,5-2.1,7.1-4C81.3,64.7,82.2,63.5,82.5,61.9z"/>
</g>
</svg>
