<?xml version="1.0" encoding="utf-8"?>
<!-- Generator: Adobe Illustrator 21.0.0, SVG Export Plug-In . SVG Version: 6.00 Build 0)  -->
<svg version="1.1" id="Capa_1" xmlns="http://www.w3.org/2000/svg" xmlns:xlink="http://www.w3.org/1999/xlink" x="0px" y="0px"
	 viewBox="0 0 115 107" style="enable-background:new 0 0 115 107;" xml:space="preserve">
<style type="text/css">
	.st0{fill:#666666;}
</style>
<title>tech-icon1</title>
<g>
	<path class="st0" d="M31.9,54.3c0.4-10,4.9-17.4,13.8-22.2c2.8-1.5,6-2.3,9.2-2.6c4.7-0.4,9,0.6,13.2,2.7c0.3,0.1,0.4,0.2,0.1,0.5
		c-1,0.8-1.8,1.8-2.3,3c-0.1,0.3-0.3,0.4-0.6,0.2c-2-0.9-4.1-1.5-6.3-1.8c-3.6-0.4-7.1,0.1-10.4,1.6c-6.4,3-10.4,8-11.7,14.9
		c-1.2,6.4,0.4,12.1,4.7,17.1c2.9,3.4,6.6,5.5,11.1,6.4c6.6,1.3,12.4-0.3,17.4-4.6c3.4-2.9,5.5-6.6,6.5-11c0.9-4,0.5-8-1-11.7
		c-0.2-0.7-0.3-0.5,0.4-0.8c1.2-0.4,2.1-1.2,2.9-2.1c0.2-0.3,0.4-0.2,0.5,0.1c1.7,3.7,2.5,7.6,2.3,11.7c-0.3,5.8-2.4,10.9-6.2,15.2
		c-3.4,3.9-7.7,6.6-12.8,7.7c-8.2,1.8-15.7,0-22.1-5.5c-4.3-3.7-6.9-8.5-8-14.2C32.1,57.4,31.9,55.8,31.9,54.3z"/>
	<path class="st0" d="M56.7,43.1c6.3,0,11.3,5,11.3,11.3c0,6.2-5.1,11.3-11.3,11.3c-6.3,0-11.3-5-11.3-11.3
		C45.4,48.2,50.4,43.1,56.7,43.1z"/>
	<path class="st0" d="M78.1,39c0,2.8-2.3,5.1-5.2,5.1s-5.1-2.3-5.1-5.3c0-2.8,2.3-5.1,5.2-5.1C75.8,33.8,78.1,36.1,78.1,39z"/>
</g>
</svg>
