<?xml version="1.0" encoding="utf-8"?>
<!-- Generator: Adobe Illustrator 21.0.0, SVG Export Plug-In . SVG Version: 6.00 Build 0)  -->
<svg version="1.1" id="Capa_1" xmlns="http://www.w3.org/2000/svg" xmlns:xlink="http://www.w3.org/1999/xlink" x="0px" y="0px"
	 viewBox="0 0 115 107" style="enable-background:new 0 0 115 107;" xml:space="preserve">
<style type="text/css">
	.st0{fill:#666666;}
</style>
<title>tech-icon1</title>
<g>
	<path class="st0" d="M62.2,74.4c0.1,0,0.1,0,0.2,0h15.3c1.8,0,3.3-1.5,3.3-3.3V35.6c0-1.8-1.5-3.3-3.3-3.3H62.4c-0.1,0-0.1,0-0.2,0
		v-4.2l-29.9,4v42.5l29.9,4.1V74.4z M62.5,50.1c0,0,0.4,0,0.4-0.1c0-0.1-0.1-0.1-0.1-0.1l-0.1-0.2c0,0,0.2-0.1,0.9-0.1
		c0.7,0.1,0.4,0.5,0.7,0.7c0.3,0.1-0.2,0.5-0.4,0.7c-0.1,0.2-0.3-0.3-0.3-0.3s0.1-0.2-0.1-0.2c-0.3-0.1-0.4,0.5-0.3,0.5
		c0.1,0,0.3,0.2,0.3,0.3c0,0.1,0,0.1-0.1,0.4C63.3,51.8,63,52,63,52s-0.1-0.1-0.1,0.1s0,0.6,0,0.7c0,0.1-0.4-0.2-0.4-0.5
		c-0.1-0.2-0.3-0.1-0.4,0v-2.7c0.7-0.7,1.2-0.8,1.2-0.8l0.1,0.6c0,0-0.3,0.1-0.4,0c-0.1-0.1-0.2-0.1-0.2-0.1l-0.2,0.3
		c0,0-0.1,0.2-0.1,0.3C62.4,50,62.5,50.1,62.5,50.1z M64.7,49.5c-0.4-0.4-0.7-0.6-0.7-0.8c0-0.1,0.4-0.1,0.4-0.2
		c0.6-0.6,1.5-0.4,1.5-0.3c-0.1,0.3-0.4,0.2-0.4,0.4c0,0.3-0.5,0.7-0.4,0.7C65.1,49.5,65.1,50,64.7,49.5z M63.6,57.2
		c0.1,0.1-0.3,0.9-0.3,0.9c-0.2-0.1-0.4-0.4-0.4-0.6c-0.1-0.2-0.2-0.4-0.1-0.6c0-0.2-0.2-0.4-0.3-0.5c-0.1-0.1-0.2-0.4-0.2-0.5
		c0-0.1-0.1-0.1-0.1-0.2v-2.3c0.1,0,0.1-0.1,0.2-0.1c0.1-0.1,0.7-0.1,0.7,0.1c0.1,0.2,0.6,0.3,0.7,0.4s0.6,0.1,0.7,0.3
		s-0.1,0.7-0.2,0.7c0,0.1-0.2,0.5-0.3,0.7C64,55.8,64,55.9,63.9,56c-0.1,0.1-0.2,0.3-0.2,0.3v0.5C63.5,56.7,63.5,57,63.6,57.2z
		 M62.4,34.2h15.3c0.7,0,1.4,0.7,1.4,1.4v35.5c0,0.7-0.7,1.4-1.4,1.4H62.4c-0.1,0-0.1,0-0.2,0V58c0.9,0.7,2.2,1.2,3.5,1.2
		c3.3,0,6-2.6,6-6c0-3.3-2.6-6-6-6c-1.3,0-2.6,0.4-3.5,1.2V34.3C62.2,34.3,62.3,34.2,62.4,34.2z M70,51.6l-1.1-0.5
		c0,0-0.1,0.4,0.2,0.8c0,0-0.1,0.5-0.4,0.4L68.1,52c0,0-0.2-0.1-0.6,0.1c-0.4,0.2-0.9,0-0.9,0s0.1-0.4,0.4-0.6l0.3-0.2
		c0,0-0.1-0.4,0-0.7c0.1-0.3,0.2,0,0.5-0.3c0.3-0.2,0.5,0.4,0.9,0.4c0.4-0.1,0.2-0.1,0.5-0.3c0.3-0.1,0.5,0.3,0.5,0.3l0.6,0.1
		c0,0-0.1-0.7-0.1-0.5c0.4,0.7,0.9,2.3,0.7,2.6c-0.1-0.1-0.2-0.1-0.2-0.1h-0.7l0.4,0.5c0,0,0.2,0.3,0.5,0.3c-0.2,2.2-2,3.6-2,3.6
		c-0.3-0.3-0.1-0.6-0.1-0.6l0.1-0.4l0.1-0.7c0,0,0-0.7-0.7-0.4c-0.7,0.2-0.4,0.2-1.2,0.3c-0.7,0.1-0.7-1.6-0.7-1.6
		c0-2.4,1.9-0.7,1.9-0.7c1,0.7,1.2-0.6,1.2-0.6l0.7-0.3l0.1-0.4L70,51.6z M68.1,48.7c0.1-0.1,0.6,0.1,0.9,0.6
		c-0.2,0.9-0.7,0.7-0.7,0.7S68,50,68,49.6l0.4-0.3C68.3,49.4,68.1,48.9,68.1,48.7z M39.3,57l-0.7-1.6c-0.3-0.7-0.5-1.1-0.7-1.6l0,0
		c-0.1,0.5-0.4,0.9-0.7,1.6L36.5,57l-2-0.1l2.3-4.4l-2.2-4.2l2-0.1l0.7,1.6c0.2,0.6,0.4,0.9,0.7,1.5l0,0c0.2-0.6,0.4-0.9,0.6-1.5
		l0.7-1.6l2.1-0.1l-2.3,4.4l2.5,4.6L39.3,57z M50.3,57.3l-0.1-3.6c-0.1-1.1-0.1-2.5-0.1-3.9H50c-0.3,1.2-0.7,2.6-1,3.6L47.8,57
		l-1.6-0.1l-0.9-3.5c-0.3-1-0.6-2.3-0.7-3.5l0,0c-0.1,1.2-0.1,2.6-0.1,3.7L44.4,57l-1.8-0.1l0.6-9l2.6-0.1l0.9,3.1
		c0.3,1,0.6,2.2,0.7,3.4h0.1c0.3-1,0.6-2.3,0.8-3.4l0.9-3.1l2.8-0.1l0.6,9.5L50.3,57.3z M60.2,57.5L54,57.4v-9.7l2.2-0.1v7.9l4,0.1
		V57.5z"/>
	<polygon class="st0" points="78.6,52.8 73.5,50.5 73.5,51.6 77.4,53.2 77.4,53.3 73.5,54.9 73.5,56 78.6,53.7 	"/>
</g>
</svg>
