<?xml version="1.0" encoding="utf-8"?>
<!-- Generator: Adobe Illustrator 21.0.0, SVG Export Plug-In . SVG Version: 6.00 Build 0)  -->
<svg version="1.1" id="Capa_1" xmlns="http://www.w3.org/2000/svg" xmlns:xlink="http://www.w3.org/1999/xlink" x="0px" y="0px"
	 viewBox="0 0 115 107" style="enable-background:new 0 0 115 107;" xml:space="preserve">
<style type="text/css">
	.st0{fill:#666666;}
</style>
<title>tech-icon1</title>
<g>
	<path class="st0" d="M57.6,82.6c-1.9-0.9-3.6-1.9-5.5-2.9c-4.6-2.7-9.4-5.3-14-7.9c-0.2-0.1-0.3-0.3-0.6-0.3
		c0.1-0.2,0.3-0.3,0.3-0.4C49,59.9,60.3,48.6,71.5,37.3c0.5-0.5,0.9-0.8,1.5-0.5c0.7,0.2,0.8,0.8,0.9,1.3c0.9,5.5,1.8,10.9,2.7,16.4
		c0.9,5.6,1.8,11,2.7,16.6c0.1,0.4,0,0.6-0.4,0.8c-6.2,3.4-12.4,6.9-18.6,10.3c-0.4,0.2-0.9,0.4-1.3,0.5
		C58.7,82.6,58.2,82.6,57.6,82.6z"/>
	<path class="st0" d="M46.3,24.8c0.3,0.3,0.8,0.7,0.9,1c1.9,3.5,3.9,7.2,5.7,10.8c0.2,0.3,0.2,0.5,0,0.8
		c-4.6,8.3-9.2,16.3-13.7,24.6c-0.1,0.2-0.2,0.3-0.3,0.3c0.3-1.7,0.5-3.4,0.8-5c0.8-5,1.5-9.9,2.4-14.9c0.8-5.4,1.7-10.8,2.5-16.3
		c0.1-0.7,0.5-1,0.9-1.3C45.9,24.8,46.1,24.8,46.3,24.8z"/>
	<path class="st0" d="M38.4,67.6c0.1-0.2,0.2-0.3,0.3-0.5C44.8,56.1,51.1,45,57.3,33.9c0.5-0.8,1-1.1,1.7-0.9
		c0.3,0.2,0.6,0.4,0.8,0.7c1.4,2.8,2.9,5.5,4.4,8.3c0,0,0,0.1,0,0.2C55.6,50.6,47,59.2,38.4,67.6C38.5,67.7,38.4,67.7,38.4,67.6z"/>
</g>
</svg>
