<?xml version="1.0" encoding="utf-8"?>
<!-- Generator: Adobe Illustrator 21.0.0, SVG Export Plug-In . SVG Version: 6.00 Build 0)  -->
<svg version="1.1" id="Capa_1" xmlns="http://www.w3.org/2000/svg" xmlns:xlink="http://www.w3.org/1999/xlink" x="0px" y="0px"
	 viewBox="0 0 115 107" style="enable-background:new 0 0 115 107;" xml:space="preserve">
<style type="text/css">
	.st0{fill:#666666;}
</style>
<title>tech-icon1</title>
<path class="st0" d="M58.6,76.8c-3.1,0-6.3,0-9.5,0c-2.3,0-4-1-5.2-3c-3.3-5.6-6.5-11.2-9.8-16.8c-1.3-2.2-1.3-4.4,0-6.6
	c3.3-5.6,6.6-11.3,9.8-16.9c1.1-1.9,2.8-2.9,5-2.9c3.4-0.1,6.8,0,10.3,0c2.9,0,5.8,0,8.7,0c2.4,0,4.2,1,5.4,3.1
	c3.3,5.6,6.5,11.2,9.8,16.7c1.3,2.2,1.3,4.5,0,6.7c-3.3,5.6-6.6,11.3-9.8,16.9c-1.1,1.9-2.8,2.9-5,2.9C65,76.8,61.8,76.8,58.6,76.8z
	 M58.6,53.5c-0.1-0.1-0.1-0.1-0.1-0.2c-1-1.8-2-3.6-2.9-5.5c-1-1.8-2-3.6-2.9-5.4C52.5,42.2,52.3,42,52,42c-1.3,0-2.6,0-3.8,0
	c-0.3,0-0.6,0.3-0.4,0.6c0.1,0.1,0.1,0.2,0.1,0.3c1.9,3.4,3.7,6.9,5.6,10.3c0.1,0.2,0.1,0.3,0,0.6c-1.9,3.5-3.8,7-5.6,10.4
	c-0.3,0.6-0.1,0.8,0.5,0.8c1.2,0,2.4,0,3.6,0c0.3,0,0.5-0.1,0.7-0.4c1.9-3.4,3.7-6.9,5.6-10.3c0.1-0.2,0.2-0.4,0.3-0.7
	c0.1,0.1,0.1,0.2,0.1,0.3c0.6,1.2,1.3,2.3,1.9,3.5c1.3,2.4,2.6,4.9,3.9,7.3c0.1,0.2,0.3,0.4,0.6,0.4c1.3,0,2.6,0,3.9,0
	c0.3,0,0.6-0.3,0.4-0.7c-0.1-0.1-0.1-0.1-0.1-0.3c-1.8-3.4-3.7-6.8-5.5-10.3c-0.1-0.2-0.1-0.4,0-0.6c1.9-3.4,3.7-6.8,5.6-10.3
	c0.3-0.6,0.1-1-0.6-1c-1.1,0.1-2.3,0-3.5,0c-0.3,0-0.6,0.1-0.7,0.4c-1.6,3-3.3,6.1-4.9,9.1C59.3,52.2,58.9,52.8,58.6,53.5z"/>
</svg>
