<?xml version="1.0" encoding="utf-8"?>
<!-- Generator: Adobe Illustrator 21.0.0, SVG Export Plug-In . SVG Version: 6.00 Build 0)  -->
<svg version="1.1" id="Capa_1" xmlns="http://www.w3.org/2000/svg" xmlns:xlink="http://www.w3.org/1999/xlink" x="0px" y="0px"
	 viewBox="0 0 115 107" style="enable-background:new 0 0 115 107;" xml:space="preserve">
<style type="text/css">
	.st0{fill:#666666;}
</style>
<title>tech-icon1</title>
<path class="st0" d="M62.7,78.2c0.7-0.2,1.5-0.4,2.3-0.6c5.2-1.7,9.7-4.6,14-8c3.3-2.6,6.4-5.5,8.8-8.8c0.6-0.8,1.2-1.8,1.6-2.6
	c0.9-1.5,0.7-3-0.2-4.5c-1.5-2.3-3.5-4.3-5.8-6.1c-4.8-3.8-10.2-6.3-16.2-7.3c-0.1,0-0.2,0-0.1-0.2c1,1.2,2.1,2.3,3.1,3.5
	c3.4,4.5,4.1,9.5,2,14.7c-2.2,5.1-6.1,8.2-11.7,9c-8.1,1-15.6-4.6-16.6-12.7c-0.7-5.9,1.1-10.9,4.5-15.6c2.6-3.6,5.9-6.4,9.7-8.8
	c0.3-0.2,0.7-0.4,1-0.3c7.1,0.7,14,2.4,20.2,6c5.7,3.2,10.5,7.5,13.5,13.4c0.8,1.7,1.3,3.7,1.8,5.6c0.4,1.4-0.1,2.8-0.7,4.1
	c-1.6,3.4-4.2,6.1-6.9,8.5c-6.2,5.3-13.2,9-21.4,10.5c-0.9,0.1-1.7,0.3-2.6,0.4C62.7,78.4,62.7,78.3,62.7,78.2z M71.6,52.6
	c0-7.2-5.9-13.2-13-13.2c-7.2-0.1-13.2,5.9-13.2,13.2c0,7.3,5.9,13.1,13.1,13.1C65.7,65.6,71.5,59.9,71.6,52.6z"/>
<path class="st0" d="M54.3,30c-2.2,0.9-4.4,1.5-6.4,2.6c-7.2,3.6-13.4,8.5-18.4,14.8c-0.7,1-1.4,2.1-2,3.1c-0.7,1.4-0.6,2.6,0.2,3.9
	c1.5,2.5,3.5,4.5,5.8,6.4c5.8,4.8,12.4,7.4,19.8,8.3c4.4,0.5,8.8,0.4,13.1-0.8c1.4-0.4,2.6-1,3.9-1.5c0,0.1-0.1,0.3-0.1,0.4
	c-2.9,4.5-6.6,8.3-11.3,11c-0.3,0.2-0.7,0.4-1,0.3c-6.9-0.8-13.7-2.4-19.8-5.9c-5.8-3.2-10.6-7.5-13.6-13.5
	c-0.9-1.7-1.4-3.7-1.8-5.6c-0.4-1.6,0.3-3.1,1-4.6c1.6-3.1,3.9-5.5,6.4-7.7c6.3-5.6,13.5-9.4,21.9-11C52.7,30.2,53.6,30,54.3,30
	L54.3,30z"/>
<path class="st0" d="M70.4,52.5c0,6.5-5.3,12.1-11.8,12.1c-6.7,0-12.2-5.3-12.1-12c0-6.3,4.9-11.8,11.9-12
	C65,40.5,70.4,46,70.4,52.5z M66.5,52.5c0-4.5-3.6-8-8.1-8c-4.6,0-8.2,3.6-8.1,8.3c0.1,4.5,3.7,8,8.3,8C63,60.7,66.6,57.1,66.5,52.5
	z"/>
<path class="st0" d="M58.4,47.3c3,0,5.3,2.3,5.3,5.3c0,2.9-2.3,5.3-5.3,5.4c-2.9,0-5.4-2.4-5.4-5.4C53.2,49.6,55.5,47.3,58.4,47.3z"
	/>
</svg>
