<?xml version="1.0" encoding="utf-8"?>
<!-- Generator: Adobe Illustrator 21.0.0, SVG Export Plug-In . SVG Version: 6.00 Build 0)  -->
<svg version="1.1" id="Capa_1" xmlns="http://www.w3.org/2000/svg" xmlns:xlink="http://www.w3.org/1999/xlink" x="0px" y="0px"
	 viewBox="0 0 115 107" style="enable-background:new 0 0 115 107;" xml:space="preserve">
<style type="text/css">
	.st0{fill:#666666;}
</style>
<title>tech-icon1</title>
<path class="st0" d="M74.7,26.9c-2.6-1.5-5.8-1.5-8.5,0.1c-8.5,4.9-16,9.2-23.1,13.4c-0.5,0.3-1.1,1-1.3,1.8l-0.1,0.4
	c-1.5,5.7-3.1,11.3-4.6,17c-0.2,0.7,0,1.7,0.6,2.2l0.1,0.1c0.6,0.3,1.6,0.2,2.1-0.1c1.9-1.1,3.8-2.2,5.6-3.3c1.7-1,3.6-2,5.5-3.2
	L47,69.4c-0.1,0.5-0.4,1.5,0.5,2.4c1.9,1.9,3.9,3.8,5.7,5.7c1,1,1.9,1.9,2.9,2.9c0.2,0.2,0.8,0.8,1.6,0.8c0.1,0,0.2,0,0.4,0
	c0.9-0.2,1.3-1.3,1.4-1.7c1.4-5.1,2.8-10.5,4.2-15.7c0-0.1,0.2-0.3,0.2-0.4c1.5-1,3.1-2,4.7-2.8c2.7-1.4,4.4-3.6,5.3-6.9
	c0.6-2.4,1.3-4.8,1.9-7.1c0.7-2.4,1.3-4.8,1.9-7.2c0.1-0.3,0.1-0.6,0.2-0.8c0.4-1.4,0.8-2.8,0.8-4.3C78.8,31.1,77.2,28.4,74.7,26.9z
	 M52.4,62.6c0.4-1.6,0.8-3.1,1.3-4.7c0.4-1.6,0.9-3.1,1.3-4.7c0.1-0.3,0.2-0.5,0.5-0.7c1.3-0.7,2.6-1.5,3.8-2.2
	c1.2-0.7,2.5-1.4,3.8-2.1c0.8-0.4,1.6-0.6,2.4-0.6c1.7,0,3.3,0.9,4.2,2.4c1.4,2.4,0.6,5.3-1.7,6.7c-3,1.8-6,3.6-9,5.3
	c-2.5,1.5-5.1,3-7.6,4.5C51.8,65.2,52.1,63.9,52.4,62.6z M72.1,47.3c-0.4-0.4-0.7-0.9-1.2-1.3l-0.1-0.1c-2.9-2.3-6.2-2.6-9.3-0.8
	c-6.7,3.8-13.4,7.7-20,11.5c1.2-4.4,2.4-8.9,3.6-13.3c0-0.1,0.1-0.2,0.3-0.3c3-1.7,6-3.5,9-5.2c3-1.8,6-3.5,9.1-5.2
	c1.4-0.8,2.8-1.6,4.3-2.5c1-0.5,1.9-0.8,2.8-0.8c1.1,0,2.1,0.4,3,1.1c1.6,1.3,2.2,3.2,1.7,5.3C74.3,39.1,73.3,42.8,72.1,47.3z
	 M59.4,65.9c-0.8,2.9-1.5,5.7-2.3,8.6l-0.3,1.3c-0.8-0.8-1.6-1.6-2.4-2.4c-0.9-0.9-1.8-1.8-2.7-2.8c2.1-1.2,4.2-2.5,6.3-3.8
	L59.4,65.9z"/>
</svg>
