<?xml version="1.0" encoding="utf-8"?>
<!-- Generator: Adobe Illustrator 21.0.0, SVG Export Plug-In . SVG Version: 6.00 Build 0)  -->
<svg version="1.1" id="Capa_1" xmlns="http://www.w3.org/2000/svg" xmlns:xlink="http://www.w3.org/1999/xlink" x="0px" y="0px"
	 viewBox="0 0 115 107" style="enable-background:new 0 0 115 107;" xml:space="preserve">
<style type="text/css">
	.st0{fill:#A1A1A1;}
	.st1{fill:#2A2A2A;}
	.st2{fill:#7F7F7F;}
	.st3{fill:#868686;}
	.st4{fill:#7A7A7A;}
	.st5{fill:#ADADAD;}
	.st6{fill:#AAAAAA;}
	.st7{fill:#D6D6D6;}
	.st8{fill:#777777;}
	.st9{fill:#A2A2A2;}
	.st10{fill:#333333;}
	.st11{fill:#373737;}
	.st12{fill:#6C6C6C;}
	.st13{fill:#A0A0A0;}
	.st14{fill:#646464;}
	.st15{fill:#E8E8E8;}
	.st16{fill:#1E1E1E;}
	.st17{fill:#A6A6A6;}
	.st18{fill:#999999;}
	.st19{fill:#929292;}
	.st20{fill:#BBBBBB;}
	.st21{fill:#898989;}
	.st22{fill:#B0B0B0;}
	.st23{fill:#444444;}
	.st24{fill:#969696;}
	.st25{fill:#818181;}
	.st26{fill:#8D8D8D;}
	.st27{fill:#9B9B9B;}
	.st28{fill:#A8A8A8;}
	.st29{fill:#8B8B8B;}
	.st30{fill:#909090;}
	.st31{fill:#A9A9A9;}
	.st32{fill:#949494;}
	.st33{fill:#9E9E9E;}
	.st34{fill:#7D7D7D;}
	.st35{fill:#7E7E7E;}
	.st36{fill:#6F6F6F;}
	.st37{fill:#D9D9D9;}
	.st38{fill:#8A8A8A;}
	.st39{fill:#616161;}
	.st40{fill:#353535;}
	.st41{fill:#707070;}
	.st42{fill:#9D9D9D;}
	.st43{fill:#BFBFBF;}
	.st44{fill:#DADADA;}
	.st45{fill:#6A6A6A;}
	.st46{fill:#727272;}
	.st47{fill:#6E6E6E;}
	.st48{fill:#B1B1B1;}
	.st49{fill:#AEAEAE;}
	.st50{fill:#B6B6B6;}
	.st51{fill:#282828;}
	.st52{fill:#8F8F8F;}
	.st53{fill:#C0C0C0;}
	.st54{fill:#888888;}
	.st55{fill:#EAEAEA;}
	.st56{fill:#DBDBDB;}
	.st57{fill:#E0E0E0;}
	.st58{fill:#3A3A3A;}
	.st59{fill:#D0D0D0;}
	.st60{fill:#D8D8D8;}
	.st61{fill:#2C2C2C;}
	.st62{fill:#797979;}
	.st63{fill:#9F9F9F;}
	.st64{fill:#434343;}
	.st65{fill:#757575;}
	.st66{fill:#515151;}
	.st67{fill:#363636;}
	.st68{fill:#AFAFAF;}
	.st69{fill:#464646;}
	.st70{fill:#4F4F4F;}
	.st71{fill:#B7B7B7;}
	.st72{fill:#939393;}
	.st73{fill:#B9B9B9;}
	.st74{fill:#C1C1C1;}
	.st75{fill:#CCCCCC;}
	.st76{fill:#C5C5C5;}
	.st77{fill:#C8C8C8;}
	.st78{fill:#C2C2C2;}
	.st79{fill:#676767;}
	.st80{fill:#878787;}
	.st81{fill:#7B7B7B;}
	.st82{fill:#8C8C8C;}
	.st83{fill:#737373;}
	.st84{fill:#A7A7A7;}
	.st85{fill:#808080;}
	.st86{fill:#4E4E4E;}
	.st87{fill:#535353;}
	.st88{fill:#4B4B4B;}
	.st89{fill:#9A9A9A;}
	.st90{fill:#919191;}
	.st91{fill:#B5B5B5;}
	.st92{fill:#CBCBCB;}
	.st93{fill:#C9C9C9;}
	.st94{fill:#787878;}
	.st95{fill:#5F5F5F;}
	.st96{fill:#E2E2E2;}
	.st97{fill:#D2D2D2;}
	.st98{fill:#EFEFEF;}
	.st99{fill:#D7D7D7;}
	.st100{fill:#F4F4F4;}
	.st101{fill:#585858;}
	.st102{fill:#5D5D5D;}
	.st103{fill:#858585;}
	.st104{fill:#C3C3C3;}
	.st105{fill:#DFDFDF;}
	.st106{fill:#4A4A4A;}
	.st107{fill:#343434;}
	.st108{fill:#666666;}
	.st109{fill:#474747;}
	.st110{fill:#A4A4A4;}
	.st111{fill:#7C7C7C;}
	.st112{fill:#CACACA;}
	.st113{fill:#5B5B5B;}
	.st114{fill:#5C5C5C;}
	.st115{fill:#CDCDCD;}
	.st116{fill:#3B3B3B;}
	.st117{fill:#9C9C9C;}
	.st118{fill:#626262;}
	.st119{fill:#2D2D2D;}
	.st120{fill:#484848;}
	.st121{fill:#606060;}
	.st122{fill:#292929;}
	.st123{fill:#262626;}
	.st124{fill:#494949;}
	.st125{fill:#717171;}
	.st126{fill:#575757;}
	.st127{fill:#2B2B2B;}
	.st128{fill:#696969;}
	.st129{fill:#454545;}
	.st130{fill:#636363;}
	.st131{fill:#6B6B6B;}
	.st132{fill:#828282;}
	.st133{fill:#848484;}
	.st134{fill:#545454;}
	.st135{fill:#525252;}
	.st136{fill:#686868;}
	.st137{fill:#767676;}
</style>
<title>tech-icon43</title>
<path class="st0" d="M63.6,27.7c0.2,0.6,0.6,0.4,1,0.2c1.5-0.7,3.1-1.3,4.6-2c0.7-0.4,1.6-0.4,2.4-0.2c2.9,0.9,5.8,1.8,8.7,2.8
	c0.4,0.1,0.7,0.2,0.9,0.5c0,0.2-0.1,0.3-0.2,0.5c-2.6,1.1-4.9,2.5-7.4,3.8c-2.7,1.4-5.1,3.2-7.8,4.5c-0.1,0.1-0.2,0.1-0.3,0.2
	c-1.7,0.4-3.1,1.6-4.7,2.3c-0.4,0.2-0.8,0.3-1.1-0.1c-0.2-0.5,0.2-0.7,0.5-0.9c0.3-0.2,0.6-0.4,0.9-0.6c1.7-0.4,3.1-1.6,4.7-2.4
	c0.3-0.1,0.5-0.3,0.7-0.5c-0.2-0.3-0.5-0.2-0.7-0.1c-1.6,0.3-3.3,0.4-4.9,0.5c-0.3,0-0.5,0.1-0.8,0.2c-2.2,1-4.6,1.7-6.6,3.2
	c-0.9,0.6-1.6,1.3-2.4,2c-0.8,0.6-1.7,1-2.6,1.2c-0.2,0-0.5-0.1-0.5-0.3c0-0.4,0.3-0.5,0.6-0.7c2-0.5,3.3-2,4.7-3.3
	c1.8-1,3.5-2,5.2-3c0.9-0.5,1.8-0.8,2.8-0.8c1,0.1,2,0,3-0.2c0.7-0.2,1.4-0.5,2-0.9c1.3-0.7,1.8-1.7,1.4-2.9c-0.6-1-1.8-1.6-2.9-1.2
	c-1,0.2-1.1,0.1-1.4-0.9C63.2,28.3,63.1,27.9,63.6,27.7z"/>
<path class="st1" d="M63.6,27.7c0,0.3,0,0.7,0.1,1c0.1,0.5,0.2,1.1,0.5,1.6c0.1,0.3,0.4,0.6,0.5,0.9c0,0.1,0,0.2,0.1,0.3
	c0,0.1,0.1,0.2,0.1,0.3v0.2c-0.1,0.6,0.1,1.4-0.6,1.7c-0.9,0.4-1.8,0.5-2.8,0.2c-0.5-0.1-0.9-0.6-0.9-1.1c0.2-0.6,0.6-0.3,1-0.2
	c-0.1-0.9-0.3-1.8-0.4-2.7c0-0.2,0-0.5-0.2-0.7c-0.2-0.1-0.4,0.3-0.6,0.3c-0.1,0-0.2,0.1-0.2,0.1c-0.5-0.1-1,0-1.4,0.2
	c-2.2,0.9-4.3,1.8-6.5,2.8c-0.8,0.3-1,0.7-0.9,1.5c0.1,0.7,0.1,1.4,0.1,2.1c0,0.1,0,0.3,0,0.4c0,0.1,0,0.3,0.1,0.4
	c0,0.1,0,0.3,0.1,0.4c0.1,1.7-1.2,2.5-2.1,3.6c-0.3,0.2-0.7,0.6-1.1,0.1c-0.1-0.2-0.1-0.5-0.1-0.8c0-0.5,0.2-0.9-0.1-1.3
	c-0.1-0.1-0.1-0.3-0.2-0.4c-0.1-0.2-0.2-0.5-0.2-0.7c0.1-0.5,0.1-1,0-1.5c-0.1-1.6-0.3-3.1-0.6-4.7c0-0.1,0.1-0.2,0.2-0.2
	c0.2-0.1,0.3-0.1,0.5,0c1.2,0.1,1.7-0.9,2.4-1.6c0.1-0.1,0.2-0.3,0.3-0.5c0.4-0.4,1-0.7,1.6-0.9c2.9-1.1,5.9-2.2,8.8-3.3
	c0.5-0.2,1.1-0.3,1.7-0.2c0.6,0.3,0.9,0.8,0.9,1.4C63.5,26.8,63.5,27.2,63.6,27.7z"/>
<path class="st2" d="M26,61.8c-0.6-3.5-1.3-7-1.9-10.5c-0.1-0.4-0.1-0.7-0.2-1.1c0.3-0.1,0.5,0.1,0.7,0.3c0.2,0.4,0.7,0.8,1.1,0.9
	c2.6,0.7,3.8,2.5,4.3,5.1c0.4,1.9,1,3.8,1.5,5.7c0.3,1.2,0.5,2.4,0.9,3.6c0.1,0.6,0.4,1.1,0.8,1.5c0.9,0.7,1.5,1.6,2.6,2
	c0.3,0.3,0.5,0.7,1.1,0.7c0.4,0.3,0.8,0.8,1.5,0.9c0.9,0.6,1.5,1.4,2.6,1.7c1,0.7,1.9,1.6,3.1,2c0.6,0.5,1.2,0.8,1.8,1.3
	c0.3,0.3,0.7,0.5,0.8,0.9c0,0.1,0,0.3-0.1,0.3c-0.4,0.3-0.7-0.1-0.9-0.3c-4.5-2.9-9.1-5.9-13.7-8.9c-1.6-1-3.1-2.1-4.8-3
	c-0.5-0.4-0.9-0.8-1.2-1.3C25.8,63,25.9,62.4,26,61.8z"/>
<path class="st3" d="M80.8,29.2l0.4-0.2c1.3,1.4,2.5,2.9,3.6,4.5c0.8,1,1.5,2.1,2.2,3.1c0.2,0.2,0.3,0.6,0.1,0.8
	c-0.8,0.3-1.6,0.7-2.4,1.2c-0.4,0.2-0.9,0.7-1.4,0.2c0-0.1,0-0.1,0-0.2c0.2-1.2,0.2-1.1-1-1.2c-1-0.1-1.9-0.1-2.9,0
	c-0.4,0-0.8-0.1-1-0.4c-0.6-0.6-1.4-0.9-2.3-0.9c-1.5,0.1-3,0-4.5-0.3c-0.4-0.1-0.9,0-0.9-0.5c0-0.5,0.3-0.7,0.6-0.9
	c1.6-1,3.3-2,5.1-2.9C77.8,30.8,79.3,30,80.8,29.2z"/>
<path class="st4" d="M35.8,69.6c-1.3-0.5-2.5-1.4-3.4-2.5c-0.5-0.8-0.8-1.8-0.9-2.8c-0.4-2.1-1.1-4.1-1.5-6.1
	c-0.2-0.7-0.4-1.4-0.6-2.1c-0.3-1.9-1.7-3.4-3.5-3.9c-1-0.2-1.8-0.8-2.2-1.7c-0.1-0.2-0.1-0.4-0.1-0.6c0.1-0.2,0.3-0.4,0.6-0.3
	c0.1,0,0.1,0,0.2,0.1c0.4,0.2,0.9,0.3,1.4,0.3c1.3,0,2.6,0.3,3.6,1.1c0.9,0.7,1.6,1.6,2,2.6c0.5,1.1,0.9,2.3,1.2,3.5
	c0.9,4,2,8,3.2,11.9C36,69.2,36,69.4,35.8,69.6z"/>
<path class="st5" d="M31.8,42.4l8.4-3.8l2.8-1.3c0.6-0.6,1.3-1.1,2-1.3c0.7-0.2,1.3-0.7,1.7-1.2c0.5,0.7,0.6,1.7,0.1,2.5
	c-0.8,0.3-1.6,0.7-2.2,1.2c-0.2,0.1-0.4,0.2-0.6,0.3c-1.1-0.3-2.2,0.3-2.4,1.4c0,0,0,0.1,0,0.1c-0.4,1.2,0.3,2.5,1.5,3
	c0.8,0.3,1.7,0.4,2.6,0.2c2.3-0.4,4.5-1.4,6.4-2.8c0.5-0.4,1.1-0.7,1.7-1c0.7-0.6,1.8-0.7,2.6-0.2c0.5,0.2,0.9,0.3,1.4,0.3
	c0.9,0.1,1,0.4,0.5,1.2c-0.1,0.2-0.3,0.4-0.5,0.6c-0.1,0-0.2,0-0.3,0c-0.4-0.3-1-0.2-1.4,0.1c-0.8,0.5-1.7,0.2-2.5,0.3
	c-1.1,0.1-2.2,0.3-3.2,0.8c-2,1-4.2,1.7-6.4,2c-0.3,0-0.6,0-0.9-0.1c-0.8-0.1-0.9,0.1-1,0.9c0,1.1,0.2,2.3-0.2,3.4
	c0,0.1,0,0.2-0.1,0.3c-0.2,0.3-0.5,0.4-0.9,0.3c-0.3-1-0.8-1.9-1.5-2.7c-0.2-0.5-0.4-1-0.4-1.6c-0.1-0.6-0.5-1.1-1.1-1.4
	c-0.7-0.3-1.2-0.8-1.9-1.2c-0.4-0.3-1-0.4-1.5-0.3c-0.9,0.1-1.7,0.2-2.5,0.4C32.1,42.8,31.8,42.9,31.8,42.4z"/>
<path class="st6" d="M31.8,42.4c1.2-0.2,2.4-0.3,3.5-0.5c0.4-0.1,0.8,0,1.1,0.3c0.5,0.4,1.1,0.8,1.7,1c1,0.4,1.6,1.3,1.7,2.4
	c0.1,0.9,0.5,1.7,1.2,2.2c0.5,0.3,0.6,0.9,0.2,1.4c0,0-0.1,0.1-0.1,0.1c-0.1,0.7-0.9,0.8-1.3,1.3c-0.4,0.1-0.8,0-1.2-0.2
	c-1-0.5-2-1-3-1.5c-0.4-0.2-0.8-0.4-1.2-0.6c-0.3-0.2-0.6-0.3-0.7-0.7c0.2-0.6,0.6-0.5,1-0.4c1,0.4,2,0.9,3,1.3l1,0.4
	c0.2,0.1,0.4,0.2,0.5,0c0.1-0.2-0.1-0.4-0.2-0.5c-0.1-0.1-0.2-0.2-0.3-0.3c-1.8-1-3.6-2.1-5.7-2.5c-1.3-0.3-2.4-0.9-3.5-1.7
	c-0.3-0.1-0.4-0.4-0.3-0.7C30.3,43.1,31,42.7,31.8,42.4z"/>
<path class="st7" d="M86.9,49c0.3,0.3,0.5,0.7,0.5,1.2c-0.1,0.4-0.4,0.7-0.8,0.7c-0.5,0.1-1,0.3-1.5,0.6c-0.7,0.3-1.2,0.8-1,1.6
	c-0.1,0.8,0.2,1.6-0.2,2.4c-0.4,0.2-0.5-0.1-0.7-0.4c-0.5,1-1.2,1.9-1.9,2.7c-0.3,0.1-0.6,0.3-0.9,0.1c-0.2-0.2-0.2-0.5,0-0.7
	c0,0,0,0,0,0c0.5-0.6,0.9-1.3,1.3-2c0.5-1.2,0.4-2.6-0.4-3.7c-0.5-0.6-0.9-1.4-1.7-1.8c-0.8-0.9-1.9-1.5-3.1-1.7
	c-0.2,0-0.4-0.1-0.5-0.2c-3.1-1.5-6.3-1.5-9.6-1.2c-0.4,0.1-0.8,0.1-1.1-0.1c-0.3-0.5-0.9-0.5-1.3-0.4c-1.9,0.4-3.8,1.1-5.5,2
	c-0.3,0.2-0.7,0.4-1,0c0-0.1-0.1-0.2-0.1-0.3c0-0.5,0.5-0.5,0.7-0.8c2.3-1.1,4.5-2.2,7.1-2.2c1.5,0,2.9-0.3,4.4-0.2
	c1.4,0,2.8,0.2,4.1,0.5c0.8,0.2,1.6,0.4,2.4,0.6c0.9,0.4,1.8,0.3,2.6,0.9c0.7,0.5,1.4,0.9,2.1,1.3c0.6,0.5,1.1,1,1.7,1.5
	c0,0,0.1,0,0.1,0c1,1.3,0.9,1.1,2.5,0.3C85.7,49.5,86.3,49.2,86.9,49z"/>
<path class="st8" d="M38.1,71.2c-0.4-0.3-1-0.5-1.3-1c-0.6-0.5-1-1.1-1.1-1.8c-0.9-3.6-2-7.3-2.9-10.9c-0.4-2-1.2-4-2.4-5.7
	c-1-1.2-2.5-2-4.1-2.1c-0.5-0.1-1,0-1.4-0.1s-1-0.2-1.3-0.7c0,0,0-0.1,0-0.1c-0.1-0.1-0.1-0.2,0-0.2c0.9,0,1.9-0.1,2.8-0.3
	c1.5-0.1,3,0.4,4.1,1.3c1.3,0.9,2.3,2.2,2.9,3.7c0.7,1.6,1.2,3.3,1.6,5.1c0.6,2.4,1.3,4.7,1.9,7.1c0.4,1.7,0.8,3.4,1.3,5.1
	C38.3,70.8,38.4,71,38.1,71.2z"/>
<path class="st9" d="M29.5,43.5c1.7,1.4,3.9,1.9,5.9,2.6c1.4,0.6,2.7,1.3,3.9,2c0.2,0.1,0.4,0.3,0.6,0.5c0.3,0.3,0.5,0.6,0.2,0.9
	c-0.2,0.3-0.6,0.4-1,0.2c-1-0.4-2-0.9-3-1.3c-0.7-0.3-1.3-0.9-2.1-0.7c-0.1,0.2-0.4,0.2-0.5,0.1c-0.4-0.1-0.7-0.3-1.1-0.5
	c-0.3-0.3-0.7-0.3-1.1-0.5c-1.1-0.7-2.3-1.2-3.5-1.7c-0.3-0.2-0.6-0.3-0.6-0.7C28.1,44,28.8,43.7,29.5,43.5z"/>
<path class="st8" d="M23.6,48.9c0.5,0.4,1.1,0.6,1.7,0.5c3.2-0.2,6,1.8,6.8,4.9c1.2,3.2,1.7,6.7,2.7,9.9c0.5,2.1,1.1,4.1,1.8,6.1
	c-0.4-0.1-0.8-0.3-1-0.7c-0.4-0.7-0.7-1.5-0.9-2.4c-0.6-2.3-1.3-4.5-1.9-6.8c-0.5-1.8-0.9-3.7-1.4-5.5s-1.3-3.3-3-4.2
	c-1.5-0.9-3.3-0.7-4.9-1L23.6,48.9z"/>
<path class="st10" d="M86.6,40.5l-1,7c-0.1,0.1-0.2,0.2-0.3,0.2c-1.1-0.2-2.2-0.5-3.2-1c-0.3-0.3,0-0.7,0-1.1c0-0.4,0.5-0.4,0.6-0.7
	c0.2-0.7,0.3-1.4,0.1-2c0.1-0.3,0.2-0.7,0.3-1c0-0.1,0.1-0.2,0.1-0.2c1-0.3,1.9-0.7,2.7-1.4c0.2-0.2,0.4-0.4,0.7-0.2
	C86.6,40.3,86.6,40.4,86.6,40.5z"/>
<path class="st11" d="M62.6,24.9l-9.9,3.8c-0.7,0.3-1.4,0.5-2,0.8c-0.1,0.1-0.1,0.1-0.2,0.1c-0.4,0.1-0.8,0.1-1.2,0.1
	c-0.9-0.1-0.9-0.2-0.6-0.8c0.5-0.4,1.1-0.6,1.7-0.8c3.3-1.2,6.6-2.4,9.9-3.5C60.9,24.3,61.9,24.4,62.6,24.9z"/>
<path class="st12" d="M83.4,38.9c1-0.5,1.9-1,2.8-1.6c0.3-0.2,0.7-0.5,0.9,0.2c0,0.4,0,0.8-0.2,1.2c-0.6-0.6-1.1-0.4-1.7,0.1
	c-1.3,1-2.8,1.6-4.1,2.5c-0.9,0.5-1.5,1.4-1.5,2.4c0,0.3-0.1,0.5-0.2,0.8c-0.9,0.8-1.9,1.3-3,1.7c-0.1,0-0.2,0-0.2,0
	c-0.7-0.2-1.5-0.5-2.2-0.6c-0.1,0-0.2,0-0.4-0.1c-0.3-0.4-0.1-0.7,0.2-0.9c0.9-0.7,1.8-1.2,2.8-1.7c1.7-1.1,3.5-2.3,5.2-3.4
	c0.3-0.2,0.7-0.4,1-0.6C82.9,38.7,83.2,38.7,83.4,38.9C83.4,38.9,83.4,38.9,83.4,38.9z"/>
<path class="st13" d="M83.8,55.6c0.2-0.9,0.2-1.7,0.2-2.6c0.1-0.1,0.2-0.1,0.2,0c0.1,0.1,0.1,0.2,0.2,0.3c0,0.1,0,0.2,0,0.2
	c-0.1,1.1,0.1,2.2,0.1,3.3c0,0.9,0.6,1.6,1.5,1.9c0.3,0.3,0.3,0.8,0,1.1c0,0,0,0,0,0c-0.2,0.3-0.5,0.7-1,0.4c-0.3-0.2-0.4,0-0.5,0.2
	c-0.3,1.3,0.2,2.7-0.4,4c-0.3,2-0.5,4.1-0.9,6.1c-0.1,0.8-0.3,1.6-0.5,2.4c-0.3,0-0.3-0.2-0.4-0.4c0.3-2.2,0.3-4.3,0.5-6.5
	c0.2-2.4,0.3-4.8,0.3-7.3c0-0.8,0.4-1.5,0.3-2.2c-0.1-0.2-0.1-0.5,0-0.8C83.5,55.8,83.6,55.7,83.8,55.6z"/>
<path class="st14" d="M79,44.1c0.2-0.2,0.3-0.5,0.3-0.7c0-1.1,0.6-2,1.6-2.5c1.6-1,3.2-2.1,4.9-3.1c1-0.7,1.1-0.6,1.1,0.6
	c0,0.1,0,0.1,0,0.2c0,0.7-0.1,1.3-0.3,1.9l-0.1-0.3c-0.2-0.1-0.3-0.1-0.5,0.1c-0.9,0.6-1.7,1.1-2.7,1.6l-0.1,0
	c-0.1,0.1-0.1,0.1-0.2,0c-0.1,0-0.1-0.1-0.1-0.2c-0.1-0.3-0.1-0.6-0.5-0.6c-1,0-2,0.6-2.4,1.5c-0.1,0.4,0,0.9-0.2,1.3
	C79.6,44.1,79.4,44.4,79,44.1z"/>
<path class="st15" d="M85.2,47.6h0.3c0.5,0.5,1.1,0.8,1.3,1.5c-0.1,0.5-0.5,0.7-0.9,0.9s-0.9,0.5-1.3,0.7c-1.3,0.7-1.3,0.7-2.1-0.5
	l-0.2-0.3c-0.1-0.3-0.2-0.6,0.1-0.9C83.3,48.4,84.1,47.6,85.2,47.6z"/>
<path class="st16" d="M46.7,37.2c0.2-0.8,0.2-1.6,0-2.3c-0.3-1.3-0.4-2.6-0.3-3.9c0,0,0.1,0,0.1,0c0.4-0.3,0.6,0,0.9,0.2
	c0,0.1,0,0.2,0,0.2c0.7,0.9,0.6,1.9,0.7,2.9c0.1,1,0.2,1.7,0.3,2.7c0,0.3,0.1,0.7-0.3,0.9c0,0.1-0.1,0.1-0.2,0.1
	c-0.3-0.1-0.6,0-0.8-0.2C46.8,37.7,46.5,37.5,46.7,37.2z"/>
<path class="st17" d="M82.4,72.7l0.2,0.3c0,0.2,0,0.4,0,0.6l-0.3,0.5c0.1,0.3,0.1,0.6,0.1,0.9c0,0.2-0.1,0.4-0.1,0.6
	c-0.1,0.3-0.2,0.7-0.2,1c-0.9,2.7-2.9,4.2-5.4,5.4c-2.9,1.3-5.9,1.4-9,1.3c-1,0-2-0.1-3-0.4c-0.3,0-0.6-0.2-0.9-0.4
	c0-0.1,0-0.3,0.2-0.4c0.2-0.1,0.5-0.1,0.7-0.1c1.3,0.3,2.7,0.4,4,0.5c1.7,0.1,3.5-0.1,5.1-0.6c1-0.1,1.9-0.4,2.8-0.8
	c0.4-0.2,0.9-0.4,1.3-0.7c0.7-0.3,1.3-0.8,1.7-1.4c0.5-0.4,0.6-1,0.9-1.4c0.4-0.6,0.7-1.3,0.9-2c0.2-0.7,0.4-1.5,0.6-2.3
	C82.1,73,82,72.7,82.4,72.7z"/>
<path class="st18" d="M27.4,44.4c1.5,0.6,2.9,1.3,4.3,2.2c-0.2,0.8-0.8,0.8-1.4,0.7c-0.9-0.2-1.7-0.4-2.5-0.8
	c-0.4-0.2-0.8-0.3-1.2-0.5c-0.3-0.1-0.5-0.4-0.5-0.7C26.5,44.9,26.9,44.6,27.4,44.4z"/>
<path class="st19" d="M26.1,45.3c1,0.6,2.2,1.1,3.3,1.5c0.8,0.2,1.6,0.4,2.3-0.2c0.4,0.1,0.7,0.2,1,0.5c0.1,0.7-0.4,0.8-0.9,0.9
	c-0.5,0.1-1.1-0.1-1.7-0.1c-0.6-0.1-1.2-0.3-1.7-0.6c-0.6-0.3-1.3-0.4-1.9-0.3c-0.5-0.3-1.3-0.3-1.4-1
	C25.3,45.7,25.7,45.4,26.1,45.3z"/>
<path class="st20" d="M83.9,64.5c-0.1-1.4,0-2.9,0.1-4.3c0.1-0.1,0.3-0.3,0.4-0.2c0.4,0.5,0.8,0.3,1.2,0c0.1-0.1,0.3,0,0.4,0.2
	C85.6,61.7,84.9,63.2,83.9,64.5z"/>
<path class="st21" d="M25,45.9c0.5,0.1,0.9,0.6,1.5,0.7c0,0.7-0.8,0.7-1.1,1.1c-0.3,0.2-0.6,0.3-0.9,0.4c-0.1,0.1-0.3,0.2-0.4,0.3
	c-0.1,0.1-0.2,0.1-0.4,0.2v0.2C22.9,47.4,23.2,46.8,25,45.9z"/>
<path class="st22" d="M86.1,60.2c-0.5,0.1-0.5,0.1-1.5,1.4c-0.3-0.3-0.1-0.6,0-0.9c0.1-0.3,0.1-0.7-0.4-0.6c0.1-0.6,0.1-1.1,0.8-0.3
	c0.2,0.3,0.4,0.2,0.6-0.1c0.2-0.3,0.3-0.6,0.3-0.9c0-0.1,0-0.2,0-0.3c0.3-0.3,0.5-0.7,1-0.2C86.7,59.1,86.4,59.7,86.1,60.2z"/>
<path class="st23" d="M47.3,31.3L46.4,31c0.3-1,1.1-1.7,2.2-2c0,0.7,0.5,0.4,0.8,0.5c0,0.6-0.7,0.6-0.9,0.9
	C48,30.6,47.6,30.9,47.3,31.3z"/>
<path class="st24" d="M84.1,53h-0.1c-0.3-0.7,0-1.1,0.6-1.5c0.9-0.5,1.9-0.8,2.8-1.3c0.1,0.3,0.2,0.6,0.1,0.9
	c-0.2,0.3-0.5,0.5-0.9,0.5c-0.3,0-0.6,0.1-0.8,0.3c-0.2,0.2-0.4,0.3-0.6,0.5C84.8,52.4,84.5,52.9,84.1,53z"/>
<path class="st25" d="M85.6,51.5c0.6-0.4,1.3-0.2,2-0.5c0.1,0.8,0.1,1.5,0,2.3c-0.2,0.3-0.4,0.4-0.7,0.3c0,0-0.1-0.1-0.1-0.1
	c0-0.7-0.4-1.4-1.1-1.8C85.6,51.7,85.6,51.6,85.6,51.5z"/>
<path class="st26" d="M86.9,53.5l0.7-0.2c0.1,0.7,0,1.3-0.2,2C87,55.4,87,56,86.5,55.8c-0.1-0.1-0.1-0.1-0.2-0.2c0-0.1,0-0.3,0-0.4
	C86.5,54.6,86.2,53.9,86.9,53.5z"/>
<path class="st27" d="M86.6,55.8c0.2-0.3,0.3-0.7,0.8-0.5c0,0.3,0,0.7-0.1,1c-0.2,0.6-0.2,1.3-1.1,1.3c-0.1-0.1-0.2-0.2-0.2-0.3
	C85.9,56.7,86.1,56.2,86.6,55.8z"/>
<path class="st28" d="M86.2,57.6c0.2-0.5,0.8-0.8,1-1.3c-0.1,0.7-0.2,1.5-0.5,2.1l-1,0.3C85.4,58.1,85.7,57.8,86.2,57.6z"/>
<path class="st29" d="M83.4,38.9c-2.2,1.5-4.4,3-6.7,4.3c-0.1-0.1-0.2-0.2-0.3-0.1c-1.5,0.5-2.6-0.4-3.7-1.1c-0.5-0.3-1-0.5-1.5-0.6
	c-2.4-0.4-4.7-1-7.1-1.3c-0.2,0-0.4,0-0.6-0.1c-0.3-0.1-0.5-0.3-0.5-0.6c-0.1-0.3,0.1-0.5,0.4-0.7c0.6-0.5,1.3-0.8,2-1.2
	c1.1-0.8,2.5-1.3,3.6-2c3.5-2.2,7.2-4,10.8-5.9c0.3-0.2,0.6-0.3,1-0.4c-0.2,0.3-0.5,0.5-0.8,0.7c-2.2,1.1-4.3,2.2-6.5,3.4
	c-0.8,0.5-1.5,1-2.2,1.6C71.2,34.9,71,35,71,35.3s0.3,0.1,0.5,0.2c1.5,0.3,3.1,0.4,4.6,0.3c0.9-0.1,1.9,0.3,2.5,1
	c0.5,0.6,1.2,0.2,1.7,0.2c1.1-0.1,2.1,0.3,3.2,0.2c0.3,0,0.6,0.2,0.7,0.5c0.1,0.3-0.2,0.5-0.3,0.7L83.4,38.9z"/>
<path class="st30" d="M65.4,37.6c-0.5,0.6-1.2,0.8-1.7,1.3c-0.5,0.5-0.3,0.7,0.2,0.8c1.8,0.1,3.5,0.4,5.2,0.9
	c1.4,0.3,2.9,0.2,4.2,1.3c0.8,0.8,1.9,1.1,2.9,0.9c0.3-0.1,0.6,0,0.5,0.5c-0.9,0.5-1.6,1-2.5,1.6c-0.3,0.2-0.6,0.3-0.6,0.7
	c-1-0.1-1.9-0.3-2.8-0.3L69.7,45c-2.1-0.2-4.1-1.1-6.1-1.6c-1.5-0.4-3.1-0.7-4.6-0.8c-0.9,0-1-0.6-0.6-1.3c0.3-0.3,0.5-0.7,0.8-1
	c0.2-0.2,0.4-0.3,0.6-0.2c0.4,0,0.8-0.2,1.1-0.4C62.4,39.1,63.8,38.2,65.4,37.6z"/>
<path class="st31" d="M59.8,40.2l-0.3,0.3c-0.3,0.3-0.6,0.6-0.9,0.8c-0.2,0.2-0.5,0.3-0.7,0l0.1-0.1c0.6-0.9,0.6-0.9-0.5-1
	c-0.4,0-0.7-0.1-1.1-0.2c-1-0.6-1.9-0.3-2.8,0.2c-1.3,0.7-2.5,1.7-3.8,2.3c-1.3,0.7-2.7,1.2-4.2,1.4c-1.3,0.2-2.7-0.1-3.7-1
	c-0.7-0.7-0.9-1.7-0.6-2.6c0.2-1,1.1-1.7,2.1-1.8c0.2,0,0.4,0,0.7,0c0.2,0.4-0.3,0.5-0.5,0.7c-0.1,0.3-0.4,0.3-0.6,0.4
	c-0.9,0.6-1.2,1.7-0.6,2.6c0.1,0.2,0.3,0.4,0.5,0.5c1,0.7,2.3,0.9,3.4,0.5c0.7-0.3,1.4-0.5,2.2-0.7c0.9-0.3,1.7-0.6,2.5-1.1
	c0.8-0.6,1.6-1.2,2.4-1.8c1.1-0.8,2.3-1.4,3.5-1.8c0.7-0.3,1.5-0.6,2.3-0.9c0.7-0.5,1.7-0.3,2.2,0.4c0.2,0.2,0.5,0.4,0.7,0.5
	c0.6,0.3,0.6,0.5,0.1,1c-0.3,0.2-0.6,0.4-0.9,0.6C60.7,39.4,60.2,39.8,59.8,40.2z"/>
<path class="st32" d="M51.1,36.6v-0.3c0.2-0.3,0.5-0.4,0.9-0.3c2.3,0.1,4.2-1.1,6.2-2c0.5-0.3,0.8-0.8,0.9-1.3
	c0.1-0.4,0.2-0.8,0.4-1.2c0.2-0.3,0.5-0.6,0.9-0.4c0.5,0.6,0.2,1.3,0,1.8c-0.3,1-0.2,1.3,0.9,1.4c1.5,0.2,3-0.1,4.5-0.7
	c0.4-0.2,0.7-0.4,1-0.7c0.5-0.5,0.7-1.3,0.4-2c-0.4-0.6-1.1-0.8-1.7-0.7c-0.2,0-0.3,0.2-0.5,0.3c-0.3,0.1-0.6,0-0.9,0.1
	c-0.2-0.6-0.2-1.2-0.2-1.8c0.2,0.5,0.4,0.8,1,0.6c0.5-0.2,1-0.2,1.5,0c0.9,0.1,1.6,0.9,1.7,1.8c0.2,1-0.3,2-1.2,2.5
	c-1.4,0.8-2.8,1.6-4.5,1.4c-2.1-0.3-3.7,0.9-5.4,1.7l-3.7,2c-0.1,0.1-0.2,0.1-0.3,0.1c0.1-0.8,0.7-1.1,1.2-1.5s0.9-0.5,1.3-0.9
	c-1.2,0.4-2.4,0.6-3.6,0.4C51.5,36.9,51.3,36.8,51.1,36.6z"/>
<path class="st17" d="M61.3,39.2c0.1-0.1,0.2-0.2,0.3-0.3c0.5-0.4,1-0.7-0.1-0.9c-0.2-0.1-0.4-0.2-0.5-0.4c-0.3-0.6-1-0.8-1.6-0.5
	c0,0,0,0,0,0c-1.6,0.6-3.3,1.1-4.9,1.9c-0.9,0.5-1.7,1.1-2.5,1.8c-0.3,0.3-0.7,0.5-1,0.6c1.2-1.2,2.5-2.2,4-3c1-0.5,2-0.9,3-1.4
	c1.3-0.8,2.8-1.2,4.3-1.2c1.5,0,3-0.3,4.5-0.4c0.3,0,0.7-0.2,0.8,0.2c0.1,0.4-0.2,0.5-0.5,0.7C65.1,37.3,63.2,38.3,61.3,39.2z"/>
<path class="st26" d="M51.1,36.6c1.6,0.1,3.2-0.1,4.7-0.7c0.1,0,0.3-0.1,0.4-0.1c0.2,0,0.4-0.1,0.5,0.2c0.1,0.2-0.1,0.3-0.2,0.4
	c-0.6,0.4-1.1,0.7-1.7,1.1c-0.7,0.4-1.3,0.8-1.8,1.3c-1.1,1.4-2.6,2.6-4.3,3.3L48,42.3c-0.1,0.2-0.2,0.3-0.4,0.4
	c-1.1,0.4-2.3,0.6-3.5,0.5h-0.3c-0.6-0.3-1.1-0.7-1.4-1.3c-0.3-0.5-0.4-1,0.2-1.5c0.1,0,0.3,0,0.4,0.1c0.6,1.7,1.6,2.3,3.3,1.7
	c0.8-0.5,1.6-0.9,2.5-1.1c1.4-0.6,2.6-1.6,3.5-2.8c0.4-0.6,0.3-0.8-0.3-0.9c-0.3,0-0.6-0.2-0.8-0.5L51.1,36.6z"/>
<path class="st0" d="M47.6,42.5l0.3-0.2l0.5,0.2c-2,1.3-4,1.5-5.6,0.5c-1-0.6-1.4-2-0.7-3c0.2-0.3,0.4-0.5,0.7-0.7
	c0.2,0.1,0.2,0.4,0.2,0.6c0,0.1,0,0.3-0.1,0.4c-0.6,0.5-0.6,1.5-0.1,2.1c0.1,0.1,0.2,0.2,0.2,0.2c0.3,0.2,0.6,0.4,1,0.6l0,0
	C45.2,43.2,46.5,43,47.6,42.5z"/>
<path class="st24" d="M48.6,42c1.7-0.8,2.8-2.2,4.3-3.3h0.3C51.8,40,50.6,41.5,48.6,42z"/>
<path class="st33" d="M50.9,33.9c0,0,0.1,0,0.1,0c0.1,0.1,0.3,0.1,0.3,0.3c0.2,0.9,0.9,1,1.6,1c0.7,0,1.3-0.2,1.9-0.5
	c0.7-0.4,1.5-0.7,2.2-1.1c0.5-0.2,0.9-0.8,0.9-1.3c0.1-0.7,0.4-1.3,0.9-1.7c0.4-0.4,1.2-0.3,1.2-1.2l0.1,0.1
	c0.6,0.4,0.4,0.9,0.3,1.4c-0.1,0.1-0.2,0.3-0.3,0.3c-0.5,0.3-0.9,0.8-0.8,1.4c-0.1,1-0.8,1.8-1.7,2c-1.6,0.5-3,1.4-4.7,1.6
	c-0.7,0.1-1.3,0.1-2,0.1C50.9,35.5,50.9,34.7,50.9,33.9z"/>
<path class="st34" d="M60.8,32.5c0.4,1.1,2.5,1.6,3.3,0.8c0.5-0.5,0.2-1.2,0.3-1.8c0.4,0.1,0.9,0.2,1-0.5c0.1-0.1,0.1-0.1,0.2-0.1
	c0.3,0,0.4,0.3,0.4,0.5c0-0.3,0-0.7,0.4-0.7c0.7,0.5,0.8,0.9,0.2,2c-1.5,1.4-3.6,2-5.6,1.6c-0.8-0.1-1.3-0.8-1.2-1.5
	c0-0.2,0.1-0.4,0.2-0.5c0.1-0.1,0.2-0.3,0.3-0.4C60.9,31.8,60.9,32.1,60.8,32.5z"/>
<path class="st16" d="M60.8,32.5l-0.3-0.7c-0.2-0.3,0-0.7-0.2-1c0-0.5,0-0.9,0-1.4c0-0.2,0.1-0.4,0.1-0.5c0.1-0.3,0.4-0.5,0.8-0.5
	c0.4,0,0.4,0.4,0.4,0.7c0.1,0.9,0.2,1.8,0.4,2.7c0,0.2,0.1,0.3,0.1,0.5c0,0.4,0.6,0.7,0.2,1c-0.4,0.2-0.8-0.2-1.1-0.5
	C61,32.6,60.9,32.5,60.8,32.5z"/>
<path class="st35" d="M51.1,36.9c0.5,0.1,1,0.2,1.5,0.2c0.5,0.1,0.8,0.4,0.4,0.8c-1.1,1.4-2.4,2.5-3.9,3.4c-0.1,0-0.3,0.1-0.4,0.1
	c-0.1-0.1,0-0.2,0.1-0.3c0.9-0.6,1.7-1.4,2.4-2.3c0.4-0.5-0.1-1-0.2-1.5L51.1,36.9z"/>
<path class="st13" d="M48.5,38.7c0.2,0.5,0.3,1,0.1,1.5c-0.2,0.2-0.4,0.5-0.6,0.7c-0.7,0.6-1.4,0.4-1.6-0.6c0-0.1,0-0.3,0.1-0.4
	C47,39.3,47.7,38.8,48.5,38.7z"/>
<path class="st36" d="M51.1,37.2c0.2,0.2,0.3,0.4,0.5,0.5c0.2,0.1,0.3,0.5,0.2,0.7c0,0,0,0.1-0.1,0.1c-0.7,1.1-1.6,2-2.8,2.6
	c-0.1-0.3,0.2-0.3,0.3-0.5c0.2-0.3,0.5-0.5,0.7-0.8C50.8,39.3,51.2,38.2,51.1,37.2z"/>
<path class="st37" d="M48.5,38.7c-0.4,0.7-1.1,0.9-1.7,1.2c-0.2,0-0.3-0.2-0.4-0.4c0-0.2,0.1-0.4,0.2-0.6c0.5-0.2,0.9-0.9,1.6-0.5
	L48.5,38.7z"/>
<path class="st38" d="M46.8,40.2c0.2,0.8,0.6,0.8,1.2,0.4c0.2-0.1,0.4-0.3,0.6-0.4l-0.2,0.7c-0.4,0.9-1.4,1.3-1.9,0.7
	C46.5,41.1,46.2,40.5,46.8,40.2z"/>
<path class="st39" d="M46.8,41.6c0.8,0.2,1.2-0.4,1.7-0.8c0.3,0.2,0.5-0.2,0.8-0.2L49,41.2l-0.2,0.2l-2.5,1.2
	c-0.2,0.1-0.3,0.1-0.5,0c-0.1-0.1-0.1-0.1-0.1-0.2c0.1-0.4,0.5-0.7,0.9-0.7C46.7,41.6,46.8,41.6,46.8,41.6z"/>
<path class="st40" d="M50.4,29.5h0.2c-0.5,0.9-1.3,1.7-2.2,2.2c-0.2,0.1-0.4,0.1-0.5,0c0,0,0,0,0-0.1c0.6-0.8,1.4-1.5,2.2-2.1
	C50.1,29.4,50.3,29.4,50.4,29.5z"/>
<path class="st41" d="M47.3,31.3c-0.2-0.9,0.6-0.9,1-1.2c0.3-0.2,0.5-0.2,0.6,0.2c-0.3,0.6-0.8,1-1.5,1.1h-0.1
	C47.3,31.4,47.3,31.4,47.3,31.3z"/>
<path class="st11" d="M47.4,31.5l1.3-1c0.3-0.4,0.6-1,1.3-0.9c-0.6,0.8-1.4,1.5-2.3,2L47.4,31.5z"/>
<path class="st42" d="M65.5,31c0,0.1,0,0.2,0,0.2c0,0.4-0.1,0.8-0.6,0.9s-0.3-0.5-0.6-0.6v-0.2C64.7,31,65.1,30.9,65.5,31z"/>
<path class="st43" d="M63.9,30.5c0.2-0.4,0.5-0.3,0.9-0.4c0.5-0.2,0.7,0.1,0.7,0.5c-0.2,0.4-0.7,0.4-1.1,0.6L63.9,30.5z"/>
<path class="st20" d="M48.3,38.4c-0.6,0-1,0.5-1.5,0.7c-0.5,0.2-0.5-0.3-0.3-0.6s0.9-0.4,1.3-0.5h0.1L48.3,38.4z"/>
<path class="st44" d="M64.4,31.2c0.3-0.3,0.6-0.5,1-0.5c0.2,0.1,0.3,0.1,0.2,0.3h-0.1c-0.3,0.2-0.7,0.4-1.1,0.3
	C64.4,31.3,64.4,31.2,64.4,31.2z"/>
<path class="st45" d="M46.5,76.7l-2.6-1.8c-1.2-0.9-1.3-2.2-1.6-3.5c-0.3-1.7-0.7-3.3-1.3-4.9c-0.4-1-0.6-2-0.9-3.1
	c-1-3-1.7-6.1-2.9-9c-0.5-1.2-1.4-2.3-2.5-3c-0.5-0.3-1.3-0.5-1.2-1.3c0.3-0.3,0.6-0.1,0.8,0c2.2,1.2,4.3,2.4,5.5,4.9
	c0.8,1.7,1.6,3.4,2.2,5.2c1,2.8,2,5.7,3.2,8.4c0.3,0.7,0.2,1.4,0.6,2.2c0.2-0.3,0.3-0.7,0.3-1.1c0-0.6,0-1.2,0-1.8
	c0-0.3,0.2-0.6,0.5-0.7c0.4,0,0.5,0.3,0.6,0.5c0.1,0.3,0.1,0.6,0.1,1c0,0.8,0.2,1.5,0.2,2.2c0,0.3,0,0.7-0.2,1
	c-0.3,0.2-0.4,0.1-0.5-0.2c0.2,1.5,0.1,2.9,0.2,4.4C47.1,76.4,47.1,76.9,46.5,76.7z"/>
<path class="st46" d="M23.7,48.6l0.1-0.3c0.8-0.1,1.5-0.3,2.2-0.6c0.8-0.4,1.8-0.4,2.6,0c1.8,0.8,3.4,1.8,5,3c1,1,1.8,2.2,2.2,3.5
	c0.9,2.3,1.6,4.7,2.2,7.1c1,3.7,2.1,7.4,2.9,11.1c0.1,0.3,0.1,0.5-0.1,0.7l-2.6-1.6c-1.1-3.2-1.6-6.5-2.6-9.7
	c-0.9-2.7-1.3-5.5-2.5-8.1c-1-2.5-3.1-4.3-5.7-4.7c-0.7-0.1-1.4,0-2.1,0.2C24.7,49,24.1,48.9,23.7,48.6z"/>
<path class="st47" d="M40.7,72.9c-0.2-0.5-0.4-1.1-0.6-1.7c-1.2-5.4-2.7-10.7-4.3-15.9c-0.4-1.8-1.4-3.4-2.7-4.6
	c-1.6-1.3-3.3-2.3-5.2-3c-0.6-0.2-1.3-0.1-1.8,0.2c-0.5,0.2-1,0.4-1.5,0.6c-0.3,0.1-0.7,0.1-0.9-0.2l0.5-0.3
	c0.5,0.2,0.9-0.2,1.3-0.5c0.3-0.2,0.7-0.4,1.1-0.5c0.6-0.1,1.1,0,1.6,0.3c0.7,0.3,1.4,0.6,2.1,1c0.9,0.4,1.6,0.9,2.5,1.3
	c0.2,0.1,0.6,0.2,0.5,0.6c0.7,0.5,1.5,1.1,2.2,1.6c1.5,1.2,2,3,2.6,4.7c1,3.1,1.9,6.3,2.9,9.5c0.4,1.6,0.8,3.1,1.4,4.6
	c0.1,0.1,0.1,0.3,0.1,0.4c0.1,1.4,0.5,2.8,1.2,4C42.8,74.3,41.7,73.6,40.7,72.9z"/>
<path class="st46" d="M47.8,77.2c-0.5,0.3-0.9,0-1.3-0.2c0-0.1,0-0.2,0-0.3c0.4-0.3,0.3-0.6,0.3-1c-0.1-1.8-0.1-3.6,0-5.5
	c0.4,0.5,0.1,1.2,0.4,1.7c0.5,0.2,0.4,0.6,0.4,1c0,1.2,0.2,2.4,0.3,3.6c0,0.1,0.1,0.3,0.1,0.4C47.9,77,47.8,77.1,47.8,77.2z"/>
<path class="st19" d="M57.8,41.3c0.6-0.1,1.1-0.6,1.6-0.9c-0.1,0.4-0.5,0.6-0.7,0.9c-0.2,0.2-0.3,0.4-0.3,0.7
	c0.1,0.3,0.4,0.3,0.6,0.3c2.8-0.1,5.4,1,8,1.7c0.9,0.2,1.7,0.4,2.5,0.9c-1.3,0.2-2.5,0.1-3.8,0.3c-2.6,0.3-5.2,1.1-7.5,2.4
	c-0.3,0.1-0.5,0.3-0.7,0.5c-0.2,0.3-0.4,0.5-0.7,0.7c-0.2,0.1-0.3,0.2-0.5,0.2c-1.1,0.4-1.7,1.4-2.6,2.1c-0.2,0.2-0.4,0.5-0.8,0.3
	c-0.2-0.4,0.1-0.6,0.3-0.8c1.3-1.5,2.8-2.9,4.5-3.9c0.4-0.2,0.7-0.5,1.1-0.7c0.2-0.1,0.5-0.3,0.4-0.6c-0.1-0.2-0.4-0.4-0.6-0.3
	c-0.8,0-1.6-0.2-2.4-0.2c-0.4,0-0.8,0-1.2-0.2c-0.5-0.3-0.6-0.7-0.2-1.1c0.5-0.4,0.9-0.9,1.3-1.2c0.2-0.2,0.5-0.4,0.7-0.6
	c0.2-0.3,0.4-0.4,0.7-0.4L57.8,41.3z"/>
<path class="st48" d="M41.9,49.1v-0.2c0.8-1.1,1.3-2.2,1.7-3.5c0.1-0.3,0.4-0.6,0.7-0.7c0.6-0.2,1.3-0.3,1.9-0.5
	c1.3-0.3,2.6-0.7,3.8-1.3c0.5-0.2,1-0.4,1.6-0.4c1.5-0.2,2.9-0.5,4.3-1c0.3-0.1,0.7-0.4,1,0c0.3,0.4-0.1,0.6-0.4,0.9
	c-0.3,0.3-0.8,0.6-1.3,0.6c-0.4-0.3-0.8,0-1.2,0.1c-3.7,2.1-7.5,3.9-11.2,6C42.5,49.1,42.2,49.4,41.9,49.1z"/>
<path class="st49" d="M56.4,42.2c0.1-0.2,0.4-0.4,0.3-0.6c-0.2-0.3-0.5-0.1-0.7,0c-0.9,0.3-1.7,0.7-2.6,1c-0.7,0.3-1.4,0.4-2.2,0.3
	c-0.3-0.1-0.6,0-0.9,0.1c-1.4,0.7-2.8,1.1-4.3,1.5c-1,0-1.8,0.7-2.1,1.6c-0.3,1-0.7,2.3-2,2.8c0.1-1.3,0.1-2.5,0-3.8
	c0-0.9,0.1-1.1,0.9-0.9c2.5,0.6,4.7-0.3,6.8-1.3c1-0.5,2-0.8,3-1.2c0.2-0.1,0.5-0.1,0.7-0.1c1.1,0.2,2.2,0.1,3.2-0.5
	c0.4-0.2,0.9-0.1,1.1,0.3c0,0,0,0,0,0L57.2,42C56.9,42.1,56.7,42.4,56.4,42.2z"/>
<path class="st50" d="M41.9,49.1c2-0.9,3.8-2,5.7-3c2.3-1.1,4.5-2.3,6.7-3.5c0.3-0.2,0.7-0.4,1,0.1c0.1,0.5-0.2,0.5-0.5,0.7
	c-1.4,0.8-2.9,1.5-4.2,2.4c-0.7,0.4-1.5,0.5-2,1.1L48.2,47c-0.4,0.1-0.8,0.2-1.2,0.4c-1.6,1-3.5,1.7-5.1,2.7
	c-0.5,0.3-1.1,0.5-1.7,0.6c-0.1,0-0.2,0-0.2,0c-0.1-0.1-0.2-0.1-0.1-0.3c0.2-0.6,0.8-0.9,1.3-1.1L41.9,49.1z"/>
<path class="st51" d="M46.8,41.6c-0.3,0.3-0.6,0.5-1,0.7c-0.7,0.3-1.5,0.2-2-0.3c-0.3-0.2-0.5-0.5-0.7-0.8c-0.1-0.2-0.1-0.4-0.2-0.6
	l-0.2-0.1c-0.2-0.1-0.1-0.3,0-0.5l0.1-0.3c0.2-0.3,0.6-0.3,0.9-0.1c0.1,0.1,0.1,0.1,0.2,0.2c0.2,0.3,0.4,0.4,0.7,0.5
	c0.3,0.1,0.5-0.2,0.5-0.4c0.1-0.2-0.1-0.4-0.4-0.5c-0.3,0-0.5,0-0.8,0c-0.4,0-0.7-0.1-0.6-0.6l0.7-0.5l0.5-0.2
	c0.2-0.1,0.4-0.1,0.6-0.1c0.8,0.1,1.4,0.7,1.5,1.4l0.1,0.3l0.1,0.3L46.8,41.6z"/>
<path class="st52" d="M45,38.3l-0.5-0.1c0.7-0.4,1.4-0.8,2.2-1l0.4,0.3c-0.2,0.7-0.9,1-1.6,0.8C45.3,38.3,45.2,38.3,45,38.3z"/>
<path class="st53" d="M55.8,73.2c0.2-0.2,0.2-0.5,0-0.7c-0.1-0.2-0.2-0.4-0.2-0.6c-0.1-1.7-0.5-3.5-0.6-5.2
	c-0.1-1.7-0.1-3.2-0.1-4.9c-0.1-0.9-0.1-1.8,0-2.7c0-0.3,0.1-0.7,0.3-0.9c0.7-0.3,0.8,0.3,1,0.7c-0.2,2.7-0.1,5.5-0.1,8.2
	c0,2.1,0.2,4.2,0.6,6.2c0,0.6,0.1,1.2,0.5,1.7c0.1,0.6,0.3,1.2,0.3,1.8c-0.1,0.1-0.2,0.2-0.3,0.3c-0.3,0-0.5-0.2-0.6-0.5
	c-0.1-0.5-0.1-1.1-0.3-1.6c-0.1-0.4-0.2-0.8-0.3-1.1C55.9,73.6,55.9,73.4,55.8,73.2z"/>
<path class="st34" d="M39.9,50.5l0.2,0.2c1,0.4,1.4,0.9,1.4,1.8c-0.1,0.2-0.3,0.3-0.4,0.5c-0.4,0.5-0.7,0.6-1.1,0.1
	c-0.3-0.4-0.7-0.6-1.2-0.8c-1.3-0.8-2.6-1.5-4-2.1C34.3,50.1,34,50,34,49.5c0.4-0.8,1.3-0.7,2-0.8L39.9,50.5z"/>
<path class="st54" d="M36,48.7c-0.5,0.5-1.2,0.5-1.8,0.8c-0.1,0.2-0.3,0.2-0.5,0.2c-0.7-0.3-1.3-0.6-1.9-0.9
	c-0.2-0.1-0.3-0.2-0.4-0.5c0-0.2,0.2-0.4,0.4-0.5c0.6-0.2,1.2-0.3,1.9-0.4l0.5,0.2C34.8,48,35.4,48.4,36,48.7z"/>
<path class="st55" d="M80.7,57.9l0.7-0.3c0.4-0.3,0.7-0.6,1.1-0.9c0.3-0.3,0.7-0.4,0.9,0.2c0,0.1,0,0.2,0,0.3
	c-0.4,0.6-0.9,1.2-1.4,1.7L81.8,59c-0.4,0.5-1.1,0.9-1.2,1.6c-0.3,0.5-0.5,1.1-0.5,1.7c-0.3,1.1-0.4,2.3-0.4,3.4
	c0,0.4-0.1,0.7-0.3,1C79.2,66.9,79,67,78.7,67c-0.3,0-0.4-0.3-0.4-0.5c0-0.4-0.1-0.8-0.2-1.2c0-0.8-0.1-1.6-0.4-2.4
	c-0.2-0.4-0.4-0.6-0.8-0.7c-1.3-0.2-2.6-0.1-3.9,0.2c-0.9,0.2-1.7,0.3-2.6,0.1c-0.8-0.7-1.7-0.3-2.6-0.4c-1.2-0.1-2.4-0.3-3.6-0.6
	c-0.4-0.1-0.9-0.2-0.7-0.8c0.4-0.4,0.9-0.2,1.4-0.1c0.8,0.2,1.6,0.4,2.4,0.4c1.2,0.3,2.5,0.2,3.7-0.2c0.4,0.1,0.8,0.1,1.2,0.1
	c1,0,2-0.3,2.9-0.8c0.9-0.1,1.7-0.4,2.4-0.9c0.8-0.4,1.6-0.9,2.4-1.4C80.1,57.8,80.4,57.7,80.7,57.9z"/>
<path class="st53" d="M65.4,46.4c0.9-0.1,1.7-0.2,2.5-0.2c3-0.2,6.1,0.2,8.9,1.3c0.1,0,0.2,0.1,0.3,0.2c-0.1,0.2-0.4,0.4-0.6,0.3
	c0,0,0,0-0.1,0c-1-0.4-2.2-0.4-3.2,0.1c-0.9-0.1-1.7-0.2-2.6-0.3c-1.1-0.2-2.1-0.2-3.2,0c-1.3,0.1-2.7,0.4-4,0.7
	c-0.5,0.1-0.9,0-1.3-0.2c-0.5-0.3-1,0.1-1.5,0.3c-0.5,0.1-0.9,0.3-1.1-0.2c0-0.3,0.2-0.5,0.5-0.6c1.5-0.8,3.1-1.3,4.7-1.4
	C64.9,46.2,65.2,46.2,65.4,46.4z"/>
<path class="st56" d="M65.4,46.4c-1.7,0.3-3.3,0.8-4.9,1.5c-0.3,0.1-0.6,0.3-0.9,0.5c-0.7,0.8-1.6,1.3-2.4,2.1
	c-0.2,0.3-0.5,0.4-0.8,0.7c-0.2,0.2-0.3,0.5-0.4,0.7c-0.7,0.8-0.9,1.9-0.5,2.9c0.1,0.3,0.2,0.5,0,0.8c-0.4,0.4-0.9,0-1.3,0
	c-0.4-0.9-0.5-1.9-0.2-2.8c0.5-2,1.8-3.6,3.6-4.6c1.5-0.9,3.2-1.5,4.9-2c1.1-0.3,2.3-0.4,3.4-0.2C65.8,46.4,65.5,46.2,65.4,46.4z"/>
<path class="st57" d="M85.2,47.6c-0.6,0.4-1.2,0.9-1.8,1.2c-0.4,0.3-0.8,0.6-1,1.1c-1-0.9-2.1-1.7-3.3-2.3c-0.2-0.1-0.4-0.1-0.3-0.4
	c0-0.2,0.1-0.3,0.1-0.5c0.1-0.1,0.3-0.2,0.4-0.3c0.2,0,0.4,0,0.7-0.1h0.3c0.6,0.1,1.2-0.2,1.7,0.3C83.2,46.7,84.3,47,85.2,47.6z"/>
<path class="st58" d="M80.7,57.9l-2.9,1.7c-0.2,0-0.3-0.2-0.3-0.4c0.2-0.7,1.1-0.7,1.4-1.3c0.5-0.3,0.9-0.8,1.2-1.4l0.1-0.2
	c0.1-0.2,0.3-0.5,0.3-0.8c0.2-0.5,0-1,0.5-1.4c0.2-0.1,0.4,0.1,0.6,0.2c-0.1-0.4-0.3-0.8-0.4-1.2c-0.1-0.3-0.3-0.6,0.1-0.9
	c0.5-0.1,0.7,0.2,0.8,0.6c0.3,0.6,0.4,1.2,0.5,1.8c0,0.3-0.1,0.5-0.3,0.7c-0.2,0.7-0.5,1.3-1,1.7C80.9,57.4,80.8,57.6,80.7,57.9z"/>
<path class="st20" d="M73.2,47.9c0.9-1.2,2.1-0.6,3.1-0.3c0.2,0.1,0.4,0.1,0.6,0.1c1.2,0.3,2.2,1,3.1,1.8c-0.1,0.1-0.2,0.2-0.3,0.2
	c-0.5-0.2-1.1-0.4-1.5-0.7c-0.6-0.2-1.3-0.3-1.9-0.1c-0.9-0.1-1.7-0.3-2.5-0.6C73.6,48.4,73.3,48.3,73.2,47.9z"/>
<path class="st59" d="M57.6,48.2c-1.1,0.9-2.1,2-2.8,3.3c-0.7,1.2-0.9,2.6-0.5,3.9c0.3,0.1,0.6,0.4,0.6,0.8c0,0.4,0.3,0.5,0.5,0.8
	c0.4,0.6,0.7,1.2,1.1,1.9c0,0.1-0.1,0.2-0.1,0.3c-0.3,0.1-0.3-0.2-0.4-0.3l-0.7-0.7c-0.4,0-0.5-0.3-0.7-0.6
	c-0.4-0.7-0.7-1.4-0.9-2.1c0-0.8,0-1.7-0.1-2.5c-0.1-0.3,0-0.5,0.1-0.8c0.2-0.5,0.4-1.1,0.7-1.6c0.3-0.3,0.5-0.6,0.7-0.9
	c0.6-0.5,1.1-0.9,1.7-1.2c0.2-0.2,0.5-0.4,0.9-0.5L57.6,48.2z"/>
<path class="st24" d="M58.3,47.6c1-0.8,2.2-1.3,3.5-1.6c2.5-0.8,5.2-1.2,7.9-1c1.3-0.1,2.7,0.1,4,0.5h0.3c0,0,0.1,0.1,0,0.1
	c-0.1,0,0,0.1,0,0.1c-1.6-0.3-3.1-0.4-4.7-0.5c-3.6-0.1-7.1,0.7-10.4,2.3C58.7,47.4,58.5,47.5,58.3,47.6z"/>
<path class="st60" d="M83.1,57c-0.2-0.4-0.4-0.1-0.7,0c-0.4,0.3-0.7,0.5-1.2,0.7c0.9-0.9,1.5-2,1.7-3.2c0-0.2,0.1-0.5,0.4-0.4
	c0.3,0,0.3,0.3,0.3,0.5c0,0.4,0,0.8,0,1.1V56C83.5,56.3,83.9,57,83.1,57z"/>
<path class="st19" d="M82.1,55.5l0.1-0.7c0.2-1.3-0.5-2.5-1.6-3.1c-0.3-0.2-0.7-0.4-0.7-0.9c0.5-0.6,0.7-0.6,1.2-0.1
	c0.2,0.2,0.4,0.4,0.6,0.7c0.7,0.9,1,2.1,0.8,3.2C82.6,55,82.4,55.3,82.1,55.5z"/>
<path class="st17" d="M81.8,51.3c-0.5-0.3-0.9-1-1.6-0.5c-0.7,0.1-1.4-0.3-1.5-1.1c0.3-0.4,0.8-0.5,1.2-0.3h0.3
	C80.8,50,81.4,50.6,81.8,51.3z"/>
<path class="st12" d="M79.2,46.9l-0.3,0.2c-0.9-0.2-1.8-0.5-2.6-0.9c-0.1,0-0.1-0.1-0.1-0.1c0,0,0-0.1,0.1-0.1h0.1
	C77.3,45.9,78.4,46.2,79.2,46.9z"/>
<path class="st19" d="M76.2,46.1c0,0.1,0,0.1,0,0.2l-2.3-0.6v-0.2C74.7,45.5,75.5,45.8,76.2,46.1z"/>
<path class="st52" d="M33.7,47.6c-0.5,0.8-1.4,0.5-2.1,0.8c-0.7,0.2-1.4-0.2-1.6-0.8c0.9-0.1,2,0.3,2.8-0.5
	C33,47.2,33.4,47.3,33.7,47.6z"/>
<path class="st61" d="M83.3,41.9c-0.1-0.4,0.3-0.6,0.5-0.8c0.7-0.4,1.4-0.9,2.1-1.3c0.5-0.3,0.6-0.1,0.6,0.4
	c-0.1,0.3-0.3,0.6-0.7,0.8c-0.6,0.3-1.3,0.6-1.9,1C83.8,42.1,83.5,42.1,83.3,41.9z"/>
<path class="st62" d="M79.6,43.8v-1.5c0.2-0.1,0.3-0.2,0.5-0.3c0.5-0.2,0.8,0.2,1.1,0.5l0.1,0.2c0.2,0.1,0.3,0.4,0.3,0.6
	c0,0.6,0.1,1.1,0.9,1.1c0.3,0,0.3,0.4,0.4,0.6c0,0.1,0,0.2-0.1,0.3l-0.6,0.5l-0.2,0.1c-0.9,0.1-0.9-0.6-1-1.2
	c-0.1-0.4,0.1-0.9-0.6-1c-0.5,0.1-0.1,0.7-0.5,0.9c-0.5-0.1-0.4-0.4-0.3-0.7L79.6,43.8z"/>
<path class="st63" d="M83.1,41.8h0.2c0,0.4,0,0.8,0,1.2c-0.1,0.2,0,0.4-0.1,0.5c-0.1,0.4-0.3,0.7-0.8,0.7c-0.5,0-0.7-0.4-0.7-0.8
	s-0.1-0.6-0.5-0.6l0,0c-0.1-0.1-0.1-0.2,0-0.2c0.3-0.3,0.9-0.3,1.2-0.6C82.6,41.8,82.9,41.7,83.1,41.8z"/>
<path class="st64" d="M82.1,45.7h0.2c0.2,0.2,0.2,0.5-0.1,0.7c0,0-0.1,0.1-0.1,0.1h-2c-0.4-0.8-0.3-1.9,0.4-2.5
	c0.2,0,0.3,0.2,0.4,0.4c0,0.3,0.1,0.5,0.1,0.8c0,0.5,0.2,0.7,0.7,0.7C81.8,45.8,82,45.9,82.1,45.7z"/>
<path class="st65" d="M83.1,43.5l0.2-0.5c0.1,0.8,0,1.6-0.3,2.3v-0.3C82.8,44.5,82.8,43.9,83.1,43.5z"/>
<path class="st66" d="M50.1,29.7c-0.5,0.1-0.8,0.7-1.3,0.9c-0.1-0.2-0.3-0.3-0.5-0.3c0.3-0.4,0.8-0.4,1.1-0.7c0.3,0,0.7-0.5,1,0
	L50.1,29.7z"/>
<path class="st67" d="M79.2,46.9c-1.1,0-1.9-0.7-2.9-0.9c0.8-0.9,1.9-1.2,2.7-1.9l0.7-0.3l0,0c0.2,0.7,0.2,1.4,0.2,2.2
	c0,0.3-0.1,0.7-0.4,0.9L79.2,46.9z"/>
<path class="st68" d="M82.4,72.7c-0.4,1-0.3,2-0.8,3c-0.3-0.4-0.4-0.9-0.2-1.4c0.4-1.2,0.6-2.5,0.5-3.8c0-3,0-6.1,0-9.1
	c0-0.7,0.1-1.4,0.1-2.1c0-0.4,0.2-0.9,0.5-1.2c0.4-0.5,0.7-1.1,1.3-1.5c-0.3,1.3-0.4,2.6-0.3,3.9C83.3,64.6,83,68.7,82.4,72.7z"/>
<path class="st19" d="M86.2,57.6c-0.2,0.4-0.3,0.8-0.5,1.1v0.2c-0.9,0-1.7-0.7-1.7-1.6c0,0,0-0.1,0-0.1c0.2-1.3,0-2.5,0.1-3.7
	c0.1,0,0.2,0,0.3,0c0.1,0.1,0.2,0.3,0.2,0.5c0,0.2,0,0.4,0,0.6c0,0.3,0,0.6,0,0.9c0,1.1,0.9,1.3,1.6,1.7L86.2,57.6z"/>
<path class="st69" d="M84.1,53c0-0.6,0.5-0.8,0.9-1.1c0.5-0.3,1.1-0.5,1.6,0c0.1,0.1,0.1,0.3,0.1,0.5c-0.7,0.6-1.6,0.9-2.5,0.9
	L84.1,53z"/>
<path class="st70" d="M84.1,53.3c0.8-0.4,1.6-0.7,2.4-1c0.3,0.9,0.2,1.1-0.7,1c-0.3,0-0.6,0-0.9,0.2c-0.2,0.2-0.5,0.2-0.7,0
	l-0.1-0.1C84.1,53.4,84.1,53.4,84.1,53.3z"/>
<path class="st71" d="M83.8,56.6c-0.4,0.4-0.5,1-1,1.3l-0.1-0.1c-0.1-0.4,0.3-0.5,0.4-0.7v-0.2c0.4-0.2,0.4-0.7,0.6-1
	C83.8,56.2,83.8,56.4,83.8,56.6z"/>
<path class="st72" d="M81.1,42.7v0.2c-0.4-0.2-0.5-0.6-1-0.7c-0.1-0.3,0.2-0.4,0.4-0.5c0.7-0.4,1.5-0.9,2.2-1.3
	c0.5,0.3,0.3,0.9,0.3,1.3c-0.3,0.1-0.6,0.2-0.9,0.4C81.9,42.3,81.4,42.3,81.1,42.7z"/>
<path class="st28" d="M82.8,40.4c-0.7,0.8-1.8,1.1-2.6,1.8l-0.5,0.1C80.5,41.4,81.6,40.7,82.8,40.4z"/>
<path class="st73" d="M82.1,41.8c0.2-0.3,0.7-0.3,1-0.1c0,0,0,0.1,0.1,0.1c-0.2,0.2-0.4,0.3-0.7,0.3C82.3,42.1,82.1,42,82.1,41.8z"
	/>
<path class="st74" d="M45,38.3c0.7-0.2,1.4-0.4,2.1-0.8l0.7,0.3c-0.2,0.3-0.6,0.4-0.9,0.7s-0.4,0.3-0.1,0.5l-0.2,0.5
	C46.2,39,45.7,38.6,45,38.3z"/>
<path class="st43" d="M76.9,81.3c-1.8,0.9-3.8,1.4-5.8,1.5c-0.7,0.1-1.5,0.4-2.2,0c0-0.4,0.3-0.4,0.6-0.4c0.2,0,0.5,0,0.7-0.1
	c0.9-0.3,0.9-0.3,0.6-1.2c-0.1-0.9-0.1-1.8,0.1-2.7c0.3-3.8,0.4-7.7,0.1-11.5c-0.1-1.1,0-2.1-0.1-3.2c0-0.2,0.1-0.5,0.2-0.7
	c0.8-0.6,1.7-0.4,2.5-0.7h0.3c1.7,0,1.8,0.1,1.9,1.8c0.1,3.4,0,6.8-0.2,10.2c-0.1,1.6-0.1,3.3-0.3,4.9c-0.1,1.5,0,1.6,1.5,1.9
	C76.7,81.1,76.8,81.1,76.9,81.3z"/>
<path class="st75" d="M64.7,82.2h-0.6c-0.9,0-1,0-1.1-0.6c0.7-0.3,1.4,0,2-0.1c0.9,0,1.3-0.2,1.4-1.1c0-0.2,0.1-0.3,0.1-0.5
	c-0.1-2.4,0-4.8,0-7.1c0-2.2-0.1-4.3,0-6.6c0-0.8,0-1.6-0.2-2.4c-0.1-0.8,0.1-1.1,0.9-1.1c0.6,0,1.3-0.2,1.9,0.2
	c0.2,0.7,0.3,1.4,0.3,2.1c0,5.2,0,10.5,0,15.7c0,0.7-0.1,1.4-0.9,1.7C67.2,82.6,65.9,82.5,64.7,82.2z"/>
<path class="st76" d="M64.7,82.2c1.3,0.1,2.5,0.2,3.8,0.2c0.8-0.2,1-0.9,1.1-1.6c0.4-4.5,0.5-9,0.2-13.5c-0.1-1.2,0-2.4-0.1-3.5
	c0-0.3,0.1-0.7,0.4-0.9c0.1-0.1,0.2-0.1,0.3-0.1c0.3,0,0.6-0.1,0.9,0.2c0.3,3.4,0.4,6.9,0.3,10.3c-0.1,2.3-0.2,4.6-0.4,6.9
	c-0.1,0.5,0.2,1.1,0.7,1.2c0.2,0.1,0.5,0.1,0.5,0.4c0,0.3-0.3,0.4-0.6,0.4c-0.6,0.1-1.3,0.2-2,0.3c-0.3,0-0.6,0-0.9,0.2
	C67.4,82.8,66,82.6,64.7,82.2z"/>
<path class="st77" d="M76.9,81.3c-0.4,0.1-0.9,0.2-1.3,0.2c-0.6,0.1-0.9-0.1-0.9-0.7c0.2-3.4,0.4-6.8,0.5-10.2c0.1-2.4,0-4.8,0-7.2
	c0-0.6-0.3-0.8-0.8-0.8h-0.8c0-0.3,0.2-0.3,0.4-0.3c0.6-0.1,1.2-0.1,1.8,0c0.6,0.6,0.9,1.4,0.9,2.2c0.1,4.4-0.3,8.8-0.2,13.2
	c0,0.5,0,1.1,0,1.6c-0.1,1.1-0.1,1.2,1,1.1c0.1,0,0.2,0,0.3,0.1c0.2,0,0.3,0.1,0.4,0.3C77.7,80.9,77.3,81.2,76.9,81.3z"/>
<path class="st74" d="M80.8,77.8c-0.3,0.4-0.4,1.1-1,1.3c-0.2-0.2-0.2-0.5,0-0.7c0.3-0.6,0.5-1.2,0.4-1.9c0-3.4-0.1-6.8,0.2-10.2
	c0-2.4,0.3-4.7,0.9-7c0.1-0.2,0.2-0.4,0.4-0.6l0,0c0.3,0,0.4-0.7,0.7-0.1c-0.4,0.9-0.5,2-0.4,3c0,3.3,0,6.6,0,9.9
	C82,73.7,81.6,75.8,80.8,77.8z"/>
<path class="st75" d="M81.5,59.2c-0.7,4.2-1,8.5-0.9,12.8c0,1,0,1.9,0,2.9c0.1,1.5-0.2,2.9-0.9,4.2c-0.5,0.6-1.1,1.2-1.8,1.5h-0.3
	c-0.1-0.5,0.2-0.7,0.5-0.9c0.8-0.6,1.3-1.6,1.2-2.6c0-3.2,0.2-6.4,0.5-9.5c0.2-2.1,0.4-4.2,0.6-6.3C80.4,60.5,80.8,59.7,81.5,59.2z"
	/>
<path class="st71" d="M80.8,77.8c1-2.9,0.8-5.9,0.9-8.9c0.1-3-0.2-6,0.1-8.9c0.1-0.5,0.3-1,0.5-1.5c0-0.2,0.1-0.5,0.4-0.5
	c0,0,0.1,0,0.1,0l0,0c-0.4,0.8-0.6,1.7-0.5,2.5c0,2.5,0,5.1,0,7.6c0.1,2.5-0.2,5.1-0.7,7.6C81.6,76.4,81.3,77.2,80.8,77.8z"/>
<path class="st78" d="M81.8,76.5c0.1,1.9-1.1,3.1-2.4,4.2c-1.8,1.3-3.9,2.2-6.1,2.5c-4.2,0.8-8.5,0.3-12.4-1.5
	c-0.1-0.1-0.3-0.2-0.1-0.4c0.4-0.2,0.7,0,1,0.2c0.7,0.3,1.4,0.7,2.1,1.1c2.2,0.6,4.5,0.8,6.8,0.7c3.1-0.1,6.1-1.1,8.6-2.9
	C80.4,79.2,81.3,77.9,81.8,76.5z"/>
<path class="st22" d="M63.9,82.4c-1.1-0.3-2.1-0.7-3.1-1.1c-1.7-0.7-3.1-2.1-3.7-3.9c-0.1-0.1,0-0.3,0.1-0.4l0.2-0.2
	c0.2,0,0.3,0.1,0.4,0.2l0.1,0.2c0.8,1.5,1.9,2.7,3.4,3.5c0.2,0.2,0.5,0.3,0.7,0.3c0.4,0.1,0.8,0.4,1,0.7l1.2,0.5L63.9,82.4z"/>
<path class="st79" d="M29.9,47.6c0.5,0.4,1,0.6,1.6,0.8l2.1,1.2c0.9,0.6,1.9,1.1,2.9,1.5c1.5,0.7,2.8,1.8,3.6,3.3
	c1.9,3.3,4,6.5,6,9.7c0.3,0.5,0.9,0.7,1,1.3c0.1,0.6,0.2,1.4,0.2,2c0,0.4,0.1,0.9-0.4,1.1c-0.2-0.3-0.1-0.7-0.3-1.1
	c-0.2,0.3-0.3,0.7-0.2,1.1c0,0.9,0,1.9-0.1,2.8c0,0.2-0.1,0.5-0.4,0.5c-0.3,0-0.3-0.2-0.4-0.3c-0.2-0.3-0.3-0.6-0.4-0.9
	c-0.2-1.2-0.6-2.3-1.1-3.4c-0.7-1.6-1.2-3.2-1.8-4.8c-0.9-2.5-1.6-5.1-2.9-7.5C38.8,53.7,38,52.7,37,52c-1.1-0.8-2.2-1.5-3.5-2
	l-3.1-1.6c-0.6-0.4-1.3-0.7-2-1c-0.6-0.2-1.2-0.2-1.8-0.2c-0.3,0.2-0.7,0.4-1,0.4c-0.2,0-0.5,0.1-0.4-0.3l1.3-0.9
	c0.5-0.2,1-0.1,1.5,0.1C28.5,47.1,29.2,47.3,29.9,47.6z"/>
<path class="st45" d="M25.1,47.4c0.5,0.3,1-0.1,1.5-0.2c-0.5,0.4-1.1,0.7-1.8,0.9c-0.2,0.1-0.4,0-0.5-0.3L25.1,47.4z"/>
<path class="st47" d="M86.4,52c-0.4-0.6-1-0.1-1.5-0.1c0.2-0.2,0.4-0.3,0.6-0.4c1.3,0.1,1.3,0.1,1.3,2c0,0.6-0.2,1.2-0.3,1.8
	c-0.1,0.1-0.3,0.3-0.5,0.2c-0.6-0.4-1.3-0.3-1.8-0.9V54c0.5-0.5,1.2-0.7,1.9-0.5c0.3,0.1,0.5,0,0.5-0.3C86.6,52.8,86.8,52.3,86.4,52
	z"/>
<path class="st80" d="M86.2,57.3c-0.2,0.1-0.3,0.3-0.6,0.2c-0.7-0.4-1.3-1.1-1.4-1.9c0.2-0.3,0.6-0.4,1-0.3c0.4,0.1,0.9,0.2,1.3,0.3
	v0.2L86.2,57.3z"/>
<path class="st81" d="M86.5,55.6c-0.2,0.5-0.5,0.7-1.1,0.3c-0.4-0.2-0.8-0.3-1.2-0.3v-1c0.8-0.1,1.6,0.1,2.3,0.7V55.6z"/>
<path class="st23" d="M43.3,38.9c0.4,0.3,1,0.4,1.6,0.3c0.2,0,0.5-0.1,0.6,0.1c0.2,0.2,0.1,0.5-0.1,0.7c-0.1,0.2-0.2,0.4-0.4,0.5
	c-0.3,0.5-0.7,0.6-1.1,0c-0.3-0.5-0.7-0.8-1.3-0.8l0.1-0.5C43,39,43.1,38.9,43.3,38.9z"/>
<path class="st82" d="M60.3,30.8c0.1,0.3,0.2,0.7,0.2,1c-0.6,1.5,0,2.4,1.7,2.5c1.6,0,3.2-0.5,4.3-1.6c0.1-0.2,0.2-0.4,0.3-0.6
	c0.3-0.9-0.1-1.3-1.2-1.5c-0.2-0.2-0.6-0.3-0.7-0.7c1.6,0,2.2,0.4,2.4,1.5c0.1,0.6-0.1,1.1-0.5,1.5c-0.8,0.8-1.8,1.4-2.9,1.5
	c-1.1,0.2-2.2,0.2-3.3,0.1c-0.5,0-0.8-0.4-0.8-0.8c0,0,0-0.1,0-0.1c0-0.9,0.4-1.6,0.5-2.4C60.3,31,60.3,30.9,60.3,30.8z"/>
<path class="st10" d="M65,29.9l0.9,0.3c0.2,0.2,0.6,0.3,0.5,0.7c0,0.6,0,1.3-0.7,1.7c-0.1-0.5,0.2-1.1-0.1-1.5l-0.2-0.3
	c-0.1-0.3-0.3-0.5-0.6-0.5C64.6,29.9,64.8,29.9,65,29.9z"/>
<path class="st83" d="M42.9,40.6l0.3,0.4c0.4,1.3,1.5,1.3,2.6,1.5h0.5c-0.9,0.5-1.9,0.4-2.7-0.2C43,42,42.7,41.3,42.9,40.6z"/>
<path class="st24" d="M42.7,40v0.5c-0.3,0.7-0.1,1.5,0.6,1.9c0.2,0.2,0.5,0.4,0.7,0.5C42.5,42.6,41.9,41.3,42.7,40z"/>
<path class="st24" d="M47.6,42.5c-1.1,0.7-2.4,0.9-3.6,0.5C45.2,43,46.4,42.9,47.6,42.5z"/>
<path class="st84" d="M59,30.5c-0.3,0.7-0.5,1.5-0.6,2.2c-0.1,0.5-0.4,1-0.9,1.2c-0.9,0.5-1.8,0.9-2.8,1.4c-1,0.4-2.1,0.5-3.2,0.3
	c-0.3,0-0.4-0.3-0.4-0.5c0-0.3,0-0.7,0-1.1C53.7,32.7,56.3,31.5,59,30.5z"/>
<path class="st85" d="M66.3,30.8c-0.2-0.2-0.3-0.4-0.5-0.7c1.3,0.5,1.5,1.6,0.7,2.5C66.7,32,67,31.4,66.3,30.8z"/>
<path class="st86" d="M45.8,42.5c-0.5,0-0.9,0-1.4-0.1c-0.7-0.1-1.2-0.7-1.3-1.4c0.6,0.9,1.6,1.4,2.6,1.3L45.8,42.5z"/>
<path class="st87" d="M47,68.4l-0.1-3.3c-0.1-0.2-0.1-0.4,0-0.6c0.4-0.1,0.8-0.1,1.2-0.2c0.7-0.3,1.3,0.1,1.2,0.9
	c-0.1,2-0.4,4-0.7,5.9c-0.3,1.7-1,3.4-0.9,5.2c0,0.2-0.1,0.4-0.2,0.5c-0.1-0.2-0.2-0.5-0.2-0.8c0.1-1.4-0.1-2.9-0.2-4.3
	C47.2,70.7,47,69.6,47,68.4z"/>
<path class="st45" d="M28.4,47.4c0.7,0.1,1.4,0.5,2,1C29.7,48.2,29,47.8,28.4,47.4z"/>
<path class="st88" d="M48.3,76.8L47.8,77h-0.3c-0.3-2,0.4-3.9,0.8-5.8c0.4-1.9,0.6-3.9,0.6-5.8c0-0.6-0.2-0.9-0.9-0.7
	c-0.4,0.2-0.8,0.2-1.2,0c-0.4-0.1-0.2-0.3-0.1-0.5c0.1-0.2,0.4-0.3,0.6-0.3c0.5,0.2,0.9-0.1,1.2-0.2c0.8-0.4,1.4,0.1,1.4,1
	c-0.2,2.9-0.6,5.7-1.1,8.5c-0.2,0.9-0.4,1.9-0.6,2.8C48.2,76.3,48.2,76.6,48.3,76.8z"/>
<path class="st89" d="M41.2,52.5c-0.3-0.7-0.7-1.3-1.2-1.8l0,0c1.3-0.3,2.5-0.9,3.6-1.6c1.5-0.8,3-1.6,4.4-2.4l0,0
	c0.7-0.3,1.4-0.8,2.1-1.1l4.4-2.4c0.2-0.1,0.3-0.3,0.5-0.4l1.2-0.5l0.8-0.2c-0.2,0.2-0.4,0.4-0.7,0.5c-2,1.5-4.1,2.9-6.1,4.3
	c0.9,0,1.8-0.1,2.6-0.2c0.6-0.1,1.2,0,1.8,0.1c0.7,0.1,0.9,0.6,0.6,1.2c-0.3,0.6-0.8,1.2-1.3,1.6c-2.2,2.4-3.7,5.3-4.4,8.5
	c-0.1,0.5-0.1,1.1-0.1,1.6c-0.1,0.2-0.2,0.3-0.4,0.4c-0.8-0.1-0.8-0.8-0.7-1.3c0.1-1.1,0.4-2.2,0.8-3.2c0.5-1.1,0.9-2.3,1.4-3.4
	c0.1-0.3,0.3-0.6,0.1-0.9s-0.5-0.1-0.9-0.1c-0.5,0.1-1,0.1-1.5,0.2c-0.9,0.2-1.3,0.5-1.4,1.4c0,0.4-0.2,0.8-0.5,1.2
	c-0.5,0.6-0.6,1.4-0.3,2.1c0.2,0.5,0.3,1.1,0.1,1.6c-0.1,0.2-0.1,0.5,0.1,0.7c0.5,0.8,0.9,1.6,1.2,2.4c0.1,0.4-0.2,0.7-0.5,0.8
	c0,0-0.1,0-0.1,0c-0.4,0.1-0.7-0.1-0.9-0.5c-1.6-2.5-3.2-5-4.7-7.5C41.3,53.3,41,53,41.2,52.5z"/>
<path class="st24" d="M49.4,59.6c-0.1-1.6,0.3-3.3,1.1-4.7c1-2.3,2.4-4.5,4.2-6.3c0.2-0.2,0.3-0.4,0.4-0.6c0.3-0.5,0.1-0.7-0.4-0.9
	c-1.3-0.1-2.6,0-3.8,0.2c-0.3,0-0.5,0.1-0.8,0.1s-0.6,0.3-0.7-0.1s0.2-0.5,0.5-0.6c2.1-1.6,4.4-3,6.7-4.2c-0.4,0.4-0.9,0.8-1.3,1.2
	c-0.4,0.4-0.3,0.6,0.2,0.7c0.9,0.1,1.8,0.2,2.8,0.2c0.5,0,1,0.1,1.5,0.4c0.7,0.4,0.7,0.6,0,1c-1.6,0.9-3.1,2-4.6,3.2
	c-0.8,0.6-1.5,1.4-2.1,2.3c0.1,0.3-0.1,0.5-0.3,0.7c-1.6,2.1-2.7,4.7-2.9,7.4C49.7,59.5,49.6,59.6,49.4,59.6z"/>
<path class="st90" d="M49.8,59.4c-0.1-1.1,0-2.3,0.5-3.3c0.6-1.7,1.5-3.3,2.7-4.7c0.9-0.7,1.5-1.6,2.4-2.2c0.3-0.2,0.6-0.3,0.9-0.4
	c-0.1,0.6-0.7,0.8-1,1.3c-0.1,0.3-0.4,0.6-0.7,0.8c-0.6,0.4-1.2,1-1.6,1.7c-0.8,1-1.5,2-1.9,3.2c-0.5,1-0.8,2.2-0.9,3.3
	c0,0.2-0.1,0.3-0.2,0.4C50,59.5,49.8,59.5,49.8,59.4z"/>
<path class="st24" d="M55.3,50c0.1-0.6,0.7-0.9,1-1.3l0.5-0.2C56.4,49.1,55.9,49.6,55.3,50z"/>
<path class="st48" d="M48.1,46.6c-0.5,0.7-1.4,0.9-2.1,1.3c-1.6,0.9-3.1,1.8-4.7,2.6c-0.4,0.2-0.8,0.3-1.3,0.3
	c2.5-1.1,4.9-2.5,7.3-3.8C47.6,46.8,47.9,46.7,48.1,46.6z"/>
<path class="st48" d="M50.3,45.4c-0.6,0.6-1.4,1-2.2,1.2C48.8,46.1,49.5,45.7,50.3,45.4z"/>
<path class="st59" d="M56.8,75.2c-0.3-0.5-0.4-1.1-0.3-1.6c-0.3-1.9-0.4-3.8-0.4-5.7c0-2.4,0-4.7,0-7.1c0-0.4,0.1-0.8,0.3-1.2
	c0.7,0.1,0.7,0.6,0.7,1c0,4.3,0,8.6,0,12.9c0,0.6,0.2,1.1-0.1,1.7C57,75.2,56.9,75.2,56.8,75.2z"/>
<path class="st91" d="M55.8,72.1l-0.3-1c-0.6-0.1-0.5-0.6-0.6-1c-0.2-1.6-0.1-3.1-0.2-4.7c-0.3-2.5-0.3-5.1-0.5-7.6
	c0-0.4-0.1-0.7-0.2-1c-0.1-0.4-0.2-0.7,0.1-1.1c0.4,0.9,0.8,1.8,1.3,2.6c-0.2,1.7-0.2,3.4-0.2,5.2c0,2.3,0.2,4.7,0.5,7
	C55.8,70.9,55.8,71.5,55.8,72.1z"/>
<path class="st92" d="M56.5,59.6c-0.3,4.3-0.3,8.6,0,12.9c0,0.3,0,0.7,0,1.1c-0.4-1.4-0.6-2.9-0.6-4.3c-0.1-2.7,0-5.5,0-8.2
	c0-0.7,0.1-1.4,0.2-2l0.3,0.3C56.5,59.3,56.5,59.4,56.5,59.6z"/>
<path class="st93" d="M57.1,77c0.5,1.5,1.5,2.9,2.9,3.7c0.3,0.2,0.5,0.3,0.7,0.5l0.2,0.3c-1.1-0.4-2-1.2-2.7-2.1
	c-0.2-0.2-0.4-0.4-0.6-0.6c-0.6-0.7-0.9-1.6-0.8-2.5L57.1,77z"/>
<path class="st92" d="M56.8,75.2H57c0.6,0.5,0.8,1.3,0.5,2l-0.2-0.3C57,76.3,56.9,75.8,56.8,75.2z"/>
<path class="st94" d="M49.8,59.4h0.3l0.1,0.1c0,0.1,0,0.2,0,0.3c-0.4,0.3-0.5,0.8-0.5,1.3c0.1,0.7-0.1,1.5-0.5,2.1
	c-0.5,0.5-1.2,0.9-1.9,1l-0.5,0.2c-0.4,0.1-0.5-0.1-0.7-0.4c-2.4-3.7-4.7-7.5-7.1-11.3c-0.1-0.2-0.3-0.4-0.1-0.6
	c0.5,0.1,0.8,0.6,1.2,0.9c0.4,0.3,0.6,0.3,0.6-0.2c0-0.7,0.3-0.2,0.5-0.2c1.8,2.7,3.5,5.5,5.2,8.2c0.4,0.6,0.7,0.7,1.2,0.1
	c0.2-0.7,0.6-1,1.5-1l0.3-0.3L49.8,59.4z"/>
<path class="st95" d="M38.9,52c0.9,1.6,2,3.1,2.9,4.6c1.6,2.6,3.3,5.1,5,7.7v0.9c-1.2-1-1.8-2.4-2.6-3.7c-1.7-2.7-3.4-5.5-5.1-8.3
	c-0.4-0.5-1-1-1.6-1.3c-1.3-0.8-2.7-1.3-3.8-2.3h0.5c0.7,0.5,1.4,0.8,2.2,1.1C37.3,51.1,38.1,51.5,38.9,52z"/>
<path class="st96" d="M70.5,62.4h1c-0.2,0.7-0.8,0.3-1.2,0.5H70c-1.6-0.1-3.2,0-4.8,0.1h-0.3c-0.6,0-1.1-0.5-1.8-0.5
	c-0.4,0-0.6,0.2-0.5,0.6c0.2,3.5,0.1,6.9,0.1,10.4c0,2,0,4,0,6.1c0,1.3-0.6,1.7-1.7,1.1c-1.5-0.7-2.7-2.1-3.3-3.7
	c-0.4-1.5-0.6-3.1-0.5-4.7c0-3.3,0-6.6,0-9.8c-0.1-0.3,0-0.6,0.2-0.9c0.5-0.3,0.6,0.1,0.8,0.4c0.3,0.6,0.4,1.3,0.5,1.9
	c0.2,2.3,0.4,4.7,0.5,6.5c-0.1-2.1,0-4.8,0-7.4c0-0.1,0-0.2,0-0.3c0.3-2,0.2-2,2.3-1.8c2.1,0.7,4.3,1.1,6.5,1.2
	C68.7,62.2,69.6,61.9,70.5,62.4z"/>
<path class="st97" d="M81.5,59.2c-0.9,1-0.8,2.3-1,3.6c-0.6,5-0.8,10-0.7,15.1c0,1.1-0.8,1.6-1.5,2.2c-1,0.3-1.5-0.1-1.4-1.1
	c0.2-1.9,0.2-3.8,0.2-5.7c0-2.7,0.1-5.3,0.1-8c0-1-0.4-1.9-1-2.6c-0.2-0.2-0.5-0.4-0.8-0.4c0-0.1-0.1-0.2,0-0.2
	c0.9-0.4,1.9,0,2.3,0.9c0.3,0.9,0.5,1.8,0.6,2.8c0.2,2,0,4,0.2,6.1c0.1,1.4,0,2.8-0.1,4.2c0.1-2.1,0.7-4.1,0.7-6.2
	c-0.3-1.1,0.1-2,0.3-3c0.3-1.7,0.3-3.4,0.7-5c0.2-0.4,0.3-0.9,0.3-1.3c0.3-0.6,0.8-1.2,1.3-1.6L81.5,59.2z"/>
<path class="st11" d="M67.3,61.4c-1.3-0.1-2.5-0.3-3.8-0.5c-0.3,0.3-0.7,0.2-1.1,0c-0.9-0.3-1.7-0.7-2.7-1c-0.9-0.6-1.7-1.3-2.5-2
	c0-0.1,0-0.2,0-0.2c0.6-0.2,0.9-0.9,0.6-1.5c-0.1-0.1-0.2-0.3-0.3-0.4c-0.1-0.1-0.1-0.3,0-0.5c0.1-0.1,0.2-0.3,0.3-0.3
	c0.2,0,0.3-0.2,0.3-0.4c0,0,0,0,0-0.1c-0.1-0.2,0-0.5,0.3-0.6c0,0,0,0,0.1,0c0.7,0.2,1.4-0.1,1.8-0.6c0.2-0.3,0.6-0.3,0.9-0.2
	c0.3,0.1,0.4,0.4,0.4,0.7c0,0.3,0,0.5-0.2,0.8c0,0.1-0.1,0.1-0.1,0.2c-0.5,0.5-0.3,1.1-0.2,1.6c0.1,0.1,0.3,0.3,0.3,0.4
	c0,0.3,0.1,0.5,0.2,0.7c0.1,0.1,0.2,0.3,0.4,0.4c1.1,1.3,2.8,1.6,4.2,2.3c0.9,0.3,1.8,0.2,2.7,0.4c0.2,0,0.4,0,0.6,0.1
	c0.2,0.1,0.4,0.2,0.4,0.4c0,0.2-0.3,0.2-0.5,0.2C68.8,61.4,68.1,61.4,67.3,61.4z"/>
<path class="st98" d="M60,59.6l3.6,1.3c0.9,0.4,1.8,0.6,2.7,0.7c1.1,0.2,2.3,0.3,3.5,0.3c0.3,0,0.6,0.2,0.7,0.5
	c-2.9,0.2-5.9-0.1-8.7-0.8c-0.2,0-0.3-0.1-0.5-0.2c-0.7-0.3-1.4-0.3-2-0.5c-1.3-0.5-2.3-1.3-3.1-2.5c-0.1-0.1-0.2-0.3-0.1-0.5
	c0.1-0.2,0.3-0.2,0.5-0.2c0.5,0.2,0.9,0.4,1.3,0.7C58.5,58.9,59.2,59.3,60,59.6z"/>
<path class="st99" d="M79.3,69.8c0,2.2-0.3,4.5-0.5,6.7c0,0.1,0,0.3-0.1,0.4c-0.1,0.2-0.2,0.6-0.5,0.6c-0.3,0-0.3-0.4-0.4-0.7
	c0-0.6,0-1.2,0.2-1.8c0.2-2.9,0.3-5.9,0.1-8.9c0-1.1-0.2-2.2-0.8-3.1c-0.5-0.9-1-1-2-0.7c-0.5,0.2-1-0.1-1.5,0.2l-0.3,0.2l0,0
	c-0.8,0.1-1.5,0.2-2.3,0.3c-0.3,0-0.7,0.1-1-0.2l1.2-0.3c1.5-0.3,3-0.4,4.5-0.5c1.7,0.1,2,0.3,2.2,1.9c0.1,0.5,0.1,0.9,0.1,1.4
	c0,1.3,0.5,2.6,0.4,3.9c-0.1,0.7-0.1,1.5-0.2,2.1C78.8,70.8,78.5,70.1,79.3,69.8z"/>
<path class="st81" d="M67.3,61.4h2.3c-1.2-0.1-2.4-0.4-3.6-0.9c-0.6-0.4-0.6-0.5,0.1-1c0.5,0,1,0.1,1.5,0.2c0.8,0.2,1.6,0.2,2.4,0.2
	c0.4,0,0.8,0.1,1.1,0.3c0.2,0.4,0.3,0.8,0.1,1.2C69.9,61.6,68.6,61.6,67.3,61.4z"/>
<path class="st100" d="M76,61.2c0.7-0.5,1.4-1,2.1-1.4c0.8-0.4,1.6-0.6,2.4-1c0.2-0.1,0.4-0.2,0.5,0c0.1,0.2-0.1,0.3-0.2,0.4
	C79.5,60.4,78.1,61.4,76,61.2z"/>
<path class="st44" d="M79.3,69.8l-0.7,2.4c-0.2-0.9-0.3-1.9-0.2-2.8c0.5-0.3,0.4-0.8,0.6-1.2c0.6-2,0.4-4.1,0.9-6.1
	c0-0.6,0.2-1.1,0.5-1.6c0.3,1-0.2,2-0.3,3C79.8,65.5,79.6,67.6,79.3,69.8z"/>
<path class="st57" d="M79.8,62c-0.2,2.4-0.4,4.7-0.7,7.1c0,0.2-0.1,0.5-0.3,0.6c-0.3,0.1-0.3-0.3-0.5-0.4v-4.1
	c0.2,0.3,0.2,0.7,0.2,1.1c0,0.2,0,0.4,0.2,0.4c0.2,0,0.3-0.1,0.4-0.3c0.2-0.4,0.2-0.9,0.2-1.4C79.2,64,79.4,63,79.8,62z"/>
<path class="st101" d="M77.5,59.3l0.2,0.4c-0.7,0.5-1.6,0.8-2.4,0.8l-0.1-0.1c0-0.1,0-0.2,0-0.2c0.3-0.5,1-0.2,1.3-0.7
	C76.7,58.9,77.1,58.8,77.5,59.3z"/>
<path class="st102" d="M75.2,60.4c-0.9,0.7-1.9,0.7-3,0.8c-0.2,0.1-0.4,0.1-0.5,0c-0.1-0.2,0.1-0.3,0.2-0.4c0.7-0.2,1.4-0.4,2.1-0.6
	C74.4,60.1,74.9,60.1,75.2,60.4L75.2,60.4z"/>
<path class="st103" d="M71.8,61.2h0.5c-0.4,0.2-0.8,0.2-1.2,0.2c-0.8-0.5-0.8-0.5,0-1l0.1-0.1C71.9,60.3,71.9,60.4,71.8,61.2z"/>
<path class="st75" d="M82.8,57.9l-0.5,0.5l-0.7,0.3c0.4-0.6,0.9-1.1,1.5-1.6C83,57.4,82.9,57.7,82.8,57.9z"/>
<path class="st71" d="M56.2,51.1c0.9-1.1,2.1-2,3.4-2.7c0.9-0.1,1.6-0.6,2.4-0.8c0.3-0.1,0.6-0.3,0.5,0.3c-0.1,0.5,0.4,0.3,0.7,0.3
	c0.1,0.4-0.2,0.4-0.4,0.5c-0.7,0.3-1.4,0.5-2.1,0.7c-1.5-0.4-2.6,0.6-3.6,1.4C56.8,51.1,56.6,51.6,56.2,51.1z"/>
<path class="st38" d="M60.6,49.2l2.6-1c1.3-0.4,2.7-0.6,4.1-0.7c0.7-0.1,1.5-0.1,2.2-0.1c0.1,0,0.2,0.1,0.1,0.2
	c-0.5,0.6-1.3,0.5-2,0.5c-2.8,0.2-5.5,0.9-8,2.2c-0.3,0.2-0.6,0.3-0.9,0.4c-0.1,0-0.3-0.1-0.4-0.2c-0.3-0.4,0-0.6,0.3-0.9
	C59.3,49.5,60,49.3,60.6,49.2z"/>
<path class="st19" d="M69.6,47.8v-0.2c0.3-0.1,0.7-0.1,1,0l2.6,0.3l3.3,0.9c0.3,0.2,0.7,0,1.1,0.2c0.3,0.2,1,0.2,0.8,0.9
	c-0.1,0.1-0.2,0.2-0.4,0.2c-1.9-0.8-3.8-1.3-5.9-1.6c-0.4-0.1-0.9-0.1-1.3-0.1S69.9,48.2,69.6,47.8z"/>
<path class="st49" d="M70.6,47.6h-1h-2.3C68.4,47.3,69.5,47.3,70.6,47.6z"/>
<path class="st13" d="M60.6,49.2c-0.6,0.6-1.6,0.7-2.1,1.3c0,0.3-0.2,0.4-0.4,0.5c-0.6,0-1.1,0.3-1.4,0.8c-0.2,0.2-0.4,0.6-0.9,0.3
	c-0.1-0.2,0-0.3,0.1-0.5l0.4-0.6c0.4,0.1,0.5-0.2,0.7-0.4c0.4-0.3,0.8-0.7,1.2-1C58.7,49,59.8,48.8,60.6,49.2z"/>
<path class="st104" d="M55.8,51.7v0.5c0.1,0.6,0.1,1.2,0,1.7c-0.1,0.5,0,1,0.2,1.4c0.1,0.1,0.1,0.3,0.2,0.4c0.1,0.3,0.3,0.6,0.5,0.7
	c0.3,0.4,0.8,0.7,0.8,1.3c0,0,0,0.1,0,0.1c-0.2,0.2-0.4,0.1-0.6,0c-0.9-0.3-1.1-1.3-1.7-1.8c-0.1-0.1-0.1-0.4,0.1-0.5
	c-0.4-1-0.4-2.1-0.1-3.1C55.3,52.2,55.5,51.9,55.8,51.7z"/>
<path class="st105" d="M55.3,55.6c0.5,0.8,1,1.5,1.6,2.1c-0.4,0.3-0.7-0.1-1-0.2c-0.3-0.1-0.5-0.4-0.8-0.3c-0.5-0.5-0.8-1.1-0.9-1.8
	C54.6,55.3,55.1,55.3,55.3,55.6z"/>
<path class="st106" d="M80.7,44.1c-0.4,0.8-0.6,1.6-0.5,2.5H80c-0.3-0.6-0.3-1.3,0-2c0-0.5,0-1,0-1.5c0-0.2,0.1-0.4,0.3-0.4
	c0.2,0,0.3,0.2,0.3,0.4C80.7,43.5,80.9,43.8,80.7,44.1z"/>
<path class="st12" d="M80,44.6v2l-0.5,0.2c0.2-1,0.2-2,0.2-3L80,44.6z"/>
<path class="st107" d="M56.5,56.6c-0.3-0.2-0.5-0.5-0.5-0.9c-0.5-1.9,0.3-3.8,2-4.8c0.3-0.2,0.6-0.3,0.9-0.5c3.3-2.1,7-2.7,10.8-2.8
	c2.9,0.1,5.7,0.8,8.4,2c1.1,0.5,2.1,1.3,3,2.2c0.2,0.2,0.4,0.3,0.2,0.6c0.3,0.6,0.5,1.3,0.7,2c0,0.3,0.3,0.8-0.2,0.9
	c-0.5,0.1-0.8-0.2-0.7-0.8c0-0.1,0-0.2-0.1-0.2c-0.3-0.1-0.3-0.1-0.3,0.6c-0.1,0.5-0.3,0.9-0.5,1.4c-0.6,1.2-1.6,2.1-2.8,2.7
	C77.1,59,76.8,59,76.5,59c-0.1-0.1-0.2-0.1-0.3-0.3c-0.1-0.4,0.1-0.6,0.5-0.8c0.5-0.3,1-0.6,1.4-0.9c0.8-0.2,0.7-0.9,0.7-1.4
	c0.1-0.9-0.1-1.8,0.6-2.6c0.3-0.3-0.1-0.7-0.2-1.1c0-0.1,0-0.2,0-0.2v-0.1c0.2-0.3,0.5-0.2,0.7,0l0,0c-0.1-0.1-0.2-0.2-0.4-0.2
	c-0.2,0-0.2,0.1-0.3,0.1c-0.9-0.4-1.6-1-2.4-1.4c-0.2-0.1-0.4-0.2-0.7-0.3c-1.4-0.4-2.9-0.7-4.3-0.9c-2.2-0.3-4.5-0.2-6.7,0.3
	c-2.6,0.5-5,1.7-6.9,3.5c-1.3,0.7-1.3,1.9-1.3,3.1C56.9,56.2,56.9,56.5,56.5,56.6z"/>
<path class="st30" d="M76.5,58.9c1.4-0.5,2.7-1.5,3.5-2.8c0.1-0.1,0.2-0.2,0.3-0.1c0.1,0.1,0.1,0.3,0,0.5c-0.1,0.2,0,0.1,0,0.1
	c-0.3,0.7-0.7,1.2-1.3,1.6c-0.4,0.4-0.9,0.8-1.5,1c-0.4-0.1-0.8,0.1-1,0.5c-0.2-0.1-0.3-0.3-0.3-0.4c0-0.1,0-0.1,0-0.2
	C76.3,59,76.4,58.9,76.5,58.9z"/>
<path class="st85" d="M81.1,52.5c-0.6-0.9-1.4-1.7-2.4-2.2c-0.3-0.1-0.6-0.3-0.8-0.6h0.3c0.2-0.1,0.3-0.1,0.3,0.2
	c0.4,0.4,0.9,0.7,1.5,1c0.3,0.4,0.7,0.7,1.2,1c1,0.6,1.4,1.9,1,2.9C82.2,53.9,81.8,53.1,81.1,52.5z"/>
<path class="st108" d="M80.5,54.8l-0.1-1.4c0.4,0.2,0.4,0.6,0.6,0.9l-0.3,1.5C80.2,55.5,80.6,55.1,80.5,54.8z"/>
<path class="st81" d="M80.5,54.8c0.2,0.3,0.2,0.7,0.2,1l-0.3,0.7c0-0.2-0.1-0.4-0.3-0.3L80.5,54.8z"/>
<path class="st109" d="M79,58.3l1.3-1.6C80.3,57.4,79.7,58,79,58.3z"/>
<path class="st49" d="M78.7,49.9l-0.3-0.2c-0.5-0.5-1.3-0.5-1.8-1c1.3-0.7,2.3,0,3.3,0.9L78.7,49.9z"/>
<path class="st15" d="M55.2,57.3c-0.1-0.6,0.1-0.7,0.6-0.4c0.5,0.3,0.7,0.8,1.2,0.9l0.5,0.1l2.5,1.6c-0.9,0-1.5-0.6-2.2-1
	c-0.5-0.3-1-0.5-1.5-0.6c0.2,0.5,0.5,0.9,0.9,1.1c1,0.8,2.1,1.4,3.4,1.9c0.3,0.1,0.5,0.2,0.7,0.4h-0.1c-1.6-0.2-1.7-0.1-1.7,1.6
	c0,2.9,0,5.7,0,8.6c0,0.3,0,0.7-0.1,1c-0.4-0.2-0.4-0.5-0.5-0.8c-0.3-1.7-0.4-3.5-0.6-5.3c0-1.7-0.3-3.3-0.8-4.9
	c-0.3,0-0.4-0.3-0.4-0.6c-0.1-0.7-0.3-1.4-0.7-2L55.2,57.3z"/>
<path class="st44" d="M56.4,58.9c0.8,0.7,0.8,1.7,1.2,2.6c0,4.3,0,8.6,0,12.9c0,0.9,0.1,1.8,0.3,2.7c-0.1,0.1-0.1,0.2-0.3,0.2
	c0-0.1,0-0.1,0-0.2c-0.1-0.7-0.3-1.3-0.5-2c-0.3-4.8-0.1-9.6-0.1-14.5c0-0.4-0.1-0.8-0.4-1.1l-0.2-0.3V58.9z"/>
<path class="st110" d="M54,55.6c0.3,1.8,0.5,3.6,0.5,5.4c0.1,2.4,0.3,4.8,0.6,7.2c0.1,0.6,0.2,1.2,0.2,1.9c-0.6,0-0.5-0.5-0.6-0.8
	c-0.4-1.7-0.5-3.6-0.8-5.3c0-0.9-0.1-1.8-0.3-2.7c-0.1-1.2-0.1-2.3-0.2-3.5c0-0.3,0-0.5,0-0.8c0-1.2,0.4-2.4,0.3-3.7
	c0-0.2,0-0.5,0.4-0.5L54,55.6z"/>
<path class="st80" d="M50.1,59.4c-0.2-1.7,0.5-3.1,1.2-4.6c0.7-1.4,1.7-2.7,2.8-3.9c0.2-0.2,0.3-0.5,0.5-0.1
	c-0.4,0.4-0.3,1.1-0.6,1.5c-0.5,0-0.5,0.5-0.7,0.7c-1,1.2-1.8,2.6-2.3,4.1c-0.1,0.6-0.2,1.2-0.3,1.8C50.6,59.3,50.5,59.6,50.1,59.4
	L50.1,59.4z"/>
<path class="st111" d="M50.6,58.9c-0.1-1.9,0.9-3.5,1.8-5c0.3-0.5,0.7-1,1.1-1.5c0.1-0.2,0.3-0.3,0.5,0c-0.1,0.1-0.1,0.3,0,0.5
	c-0.2,0.9-0.3,1.9-0.2,2.9c0,0.5,0,0.9,0,1.4c-0.5,0-0.5-0.3-0.5-0.7c-0.1-0.6,0-1.1,0.1-1.7c-0.1-0.2-0.1-0.7-0.4-0.2
	c-0.9,1.2-1.7,2.5-1.6,4.1c0,0.1-0.1,0.2-0.2,0.3C51,59,50.8,59,50.6,58.9z"/>
<path class="st82" d="M83.1,43.5c-0.1,0.5-0.1,1-0.2,1.5c-0.1-0.1-0.1-0.3-0.4-0.2c-0.9,0.4-0.9-0.3-1-0.8c-0.2-0.5-0.1-0.8-0.4-1.1
	c0.2,0,0.4,0,0.5,0.3C82.1,44,82.1,44,83.1,43.5z"/>
<path class="st45" d="M80.7,44.1c0-0.3,0-0.7,0-1c0.5,0.4,0.9,1.1,0.9,1.8c0,0.4,0.2,0.8,0.6,0.9L81.8,46c-0.5,0.2-0.7-0.1-0.8-0.5
	c0-0.3-0.1-0.6-0.3-0.8L80.7,44.1z"/>
<path class="st112" d="M82.1,41.8c0.2,0.1,0.3,0.2,0.3,0.3c-0.3,0.4-0.8,0.5-1.3,0.5C81.1,41.9,81.7,42.1,82.1,41.8z"/>
<path class="st113" d="M80.7,44.6c0.4-0.1,0.7,0.1,0.7,0.5c0,0.3,0.2,0.6,0.5,0.8c-0.9,0.5-1.1,0.4-1.2-0.6
	C80.7,45.1,80.7,44.9,80.7,44.6z"/>
<path class="st114" d="M86.4,52c0.6,0.6,0.3,1.4,0.2,2.1c0,0.2-0.2,0.3-0.3,0.1c-0.6-0.9-1.3-0.4-2-0.2c0-0.2,0-0.3,0-0.5
	c0.7-0.1,1.3-0.6,2.1-0.5c0.3,0.1,0.2-0.5,0.2-0.7L86.4,52z"/>
<path class="st77" d="M71.3,62.7c0.8-0.1,1.5-0.2,2.3-0.2c-0.8,0.2-1.6,0.4-2.5,0.5h-0.9C70.5,62.5,71,63,71.3,62.7z"/>
<path class="st97" d="M71.3,62.7l-1,0.3h-0.2c-0.4,0.2-0.8,0.5-1.1,0h-1.7c-0.5,0-0.8,0.2-0.6,0.8c0.1,0.4,0.2,0.9,0.2,1.4
	c0,5.2,0,10.4,0,15.6c0,1-0.4,1.3-1.5,1.2c-0.8-0.1-1.6-0.2-2.4-0.3c-0.4-0.1-0.8-0.2-1.2-0.5c0.2-0.4,0.6-0.3,0.9-0.3
	c0.8,0,1-0.2,1.1-1c0-0.3,0-0.5,0-0.9V65.1c0-0.5,0-1.1-0.1-1.6c-0.3-1-0.1-1.1,0.8-1.1c0.2,0,0.4,0,0.6,0.1l0,0
	c1.7,0.3,3.4,0.3,5.1,0.2L71.3,62.7L71.3,62.7z"/>
<path class="st77" d="M69,63h1.1c-0.1,1.4-0.1,2.7,0.1,4.1c0.1,1.6,0.1,3.3,0.1,4.9c0.1,3.1-0.1,6.3-0.3,9.4c-0.1,0.9-0.2,1-1.5,1
	c0.4-0.4,0.5-1,0.5-1.5c0-5.2,0-10.5,0-15.7C69,64.5,68.5,63.7,69,63z"/>
<path class="st115" d="M73.9,62.4c0.5-0.2,1-0.2,1.5-0.2c1.2,0.2,2.1,1.3,2.1,2.6c0.1,1.6,0.1,3.1,0,4.7c-0.1,1.1,0.1,2.1,0,3.2
	c-0.2,2,0.1,4-0.3,5.9c-0.2,0.6,0.1,1.3,0.7,1.5c0.1,0,0.2,0.1,0.4,0.1l-0.7,0.5h-0.2c-1,0.2-1.2,0-1.2-1c0.1-3.1,0.1-6.2,0.2-9.4
	c0.1-1.8,0.1-3.7,0.1-5.5c0.1-0.9-0.3-1.8-0.9-2.4L73.9,62.4z"/>
<path class="st75" d="M75.7,62.4c0.7,0.5,1.2,1.3,1.1,2.1c0.1,4.7-0.3,9.4-0.2,14.1c0,0.3-0.1,0.5-0.1,0.8c-0.1,0.7,0.1,1.2,1,1.2
	c-1.1,0.5-1.4,0.4-1.5-0.9c-0.1-3.4,0.2-6.8,0.2-10.2c0-1.4,0.1-2.9,0.1-4.3C76.4,64.2,76.2,63.2,75.7,62.4z"/>
<path class="st37" d="M65,62.5c-0.2,0-0.4,0-0.7,0c-0.5,0-0.7,0.2-0.4,0.7c0.2,0.4,0.3,0.9,0.2,1.3v15.6c0,1.3-0.3,1.5-1.6,1.2
	c-0.3-0.1-0.6-0.1-0.9-0.1c-1.9-0.7-3.4-2.1-4.3-4l0.3-0.2c0.5,1.2,1.3,2.2,2.4,3c0.3,0.2,0.6,0.4,1,0.5c0.6,0.2,1,0,1-0.7
	c0-5.4,0-10.9,0-16.3c0-0.4-0.2-0.8-0.5-1.1c-0.1-0.1-0.3-0.2-0.2-0.4c0.1-0.2,0.3-0.2,0.5-0.2C63.1,62.1,64,62.3,65,62.5z"/>
<path class="st4" d="M44.5,40.4c-0.2,0-0.3-0.2-0.3-0.4c0-0.1,0.1-0.2,0.2-0.3c0,0,0,0,0,0c0.2,0,0.4,0.1,0.4,0.3
	C44.8,40.2,44.6,40.3,44.5,40.4C44.5,40.4,44.5,40.4,44.5,40.4z"/>
<path class="st10" d="M54,61.2c0.3,2.7,0.6,5.4,1.1,8.1c0.1,0.3,0.1,0.5,0.2,0.8c0.1,0.3,0.1,0.7,0.2,1c0.1,0.5-0.2,1.1-0.7,1.3
	c-1.5,0.9-2.9,2-4.4,2.9c-0.8,0.2-1,0.1-1-0.7c0.1-1.3,0.2-2.5,0.5-3.7c0.3-2.1,0.5-4.3,0.7-6.4c0.1-0.6-0.1-1.2-0.6-1.5
	c-0.1-0.1-0.2-0.2-0.3-0.4c0-0.1,0-0.2,0-0.3c0.1-0.2,0.2-0.3,0.4-0.4c0.2-0.1,0.4-0.2,0.6-0.2c0.5,0.2,1,0.1,1.4-0.2
	c0.5-0.4,1.1-0.6,1.7-0.5C53.9,61.1,54,61.1,54,61.2z"/>
<path class="st116" d="M49.9,62.5c1.2,0.6,1.2,1.5,1.1,2.6c-0.2,3-0.7,6-1.2,9c-0.1,0.5-0.3,1.2,0.6,1.2c-0.4,0.4-0.9,0.8-1.5,1
	c-0.9,0.1-0.7-0.5-0.6-0.9c0.1-0.8,0.3-1.6,0.5-2.4c0.5-2.8,0.9-5.6,1.1-8.4c0-0.4,0-0.9-0.5-1c-0.2-0.1-0.3-0.2-0.4-0.4
	C49.2,62.8,49.4,62.4,49.9,62.5z"/>
<path class="st64" d="M49.1,63c1.3,0.4,1.1,1.3,1,2.4c-0.3,3.3-0.8,6.6-1.5,9.8c-0.1,0.4-0.2,0.9,0.3,1.1c-0.2,0.2-0.4,0.4-0.7,0.5
	c-0.5,0-0.6-0.3-0.4-0.8c1-3.6,1.6-7.4,1.7-11.2c0-0.9-0.3-1.2-1.2-0.9c-0.4,0.1-0.7,0.4-1.1,0.1l1.7-1.1C49,62.9,49,62.9,49.1,63z"
	/>
<path class="st117" d="M49.1,59.9c-0.5,0.4-1,0.7-1.5,1c-0.5,0.2-0.8,0.1-0.7-0.5c0.1-0.7-0.5-1.2-0.8-1.7c-0.3-0.4-0.5-0.7-0.1-1.2
	c0.3-0.3,0.1-0.7-0.1-1.1c-0.5-0.9-0.3-2.1,0.5-2.8c0.2-0.2,0.2-0.4,0.2-0.7c0.2-1.6,0.4-1.6,2-2c0.6-0.1,1.2-0.1,1.7-0.3
	c0.7-0.2,1,0.1,0.9,0.9c-0.1,0.4-0.2,0.8-0.5,1.1c-0.9,1.9-1.6,3.8-2,5.9C48.8,59,48.9,59.5,49.1,59.9z"/>
<path class="st118" d="M50.3,62.2L50,62.4c-0.4-0.9-0.4-2,0.2-2.8v-0.2l0.5-0.5l0.5-0.2c0.1,0.1,0.2,0.4,0.1,0.5
	c-0.2,0.5-0.3,1.1-0.2,1.7C51,61.5,50.7,62,50.3,62.2z"/>
<path class="st47" d="M50.1,59.6c-0.1,0.9-0.2,1.9-0.2,2.8c0,0.1,0,0.1,0,0.1L49.1,63H49c0.4-0.6,0.5-1.4,0.5-2.1
	C49.3,60.4,49.6,59.8,50.1,59.6z"/>
<path class="st99" d="M70.1,62.7c-1.7,0.3-3.4,0.2-5.1-0.2C66.7,62.6,68.4,62.8,70.1,62.7z"/>
<path class="st16" d="M58,52.5c2.7-2.8,6.1-3.6,9.8-4c2.9-0.2,5.8,0.2,8.6,1.2c0.4,0.3,0.3,0.7-0.1,0.7c-0.8,0-1.5,0.6-2.3,0.5
	c-0.4,0.1-0.8,0-1.1-0.2c-1.1-0.4-2.2-0.7-3.4-0.9c-1.6-0.1-3.1-0.6-4.7-0.1c-0.4,0.1-0.9,0.1-1.1,0.5c-0.2,0.2-0.5,0.4-0.9,0.5
	c-1.2,0.5-2.5,0.8-3.5,1.9c-0.4,0.3-0.3,0.9-0.6,1.1c-0.3,0.1-0.5,0.4-0.4,0.7c0.1,0.3,0,0.6-0.2,0.8l-0.3,0.2
	c-0.2,0.4-0.5,0.7-1,0.5c-0.5-0.2-0.4-0.6-0.4-1.1C56.5,53.8,57.3,53.2,58,52.5z"/>
<path class="st116" d="M61.1,54.6c-0.1-0.4,0.5-0.8,0.1-1c-0.4-0.2-0.7,0.3-0.9,0.6c-0.6,0.6-1.1,0.2-1.6-0.1c0-0.1,0-0.3,0.1-0.4
	c0.5-0.5,0.7-1.3,1.5-1.5c0.9-0.3,1.7-0.7,2.6-1c0.3-0.1,0.7-0.3,1,0c0.3,0.3,0.2,0.6,0.1,1c0,0.1,0,0.3,0,0.4
	c-0.1,0.4-0.4,0.5-0.7,0.7c-0.4,0.3-0.8,0.7-1.2,1.1C61.6,54.6,61.4,54.8,61.1,54.6z"/>
<path class="st119" d="M58,52.5c-0.3,0.5-0.6,0.9-1,1.3c-0.4,0.4-0.6,1.1-0.4,1.7c0,0.3,0.3,0.3,0.5,0.2c0.2-0.1,0.5-0.1,0.7-0.2
	c0.5,0.3,0.5,1,1.1,1.3c0.2,0.1-0.1,0.3-0.2,0.5c-0.3,0.4-0.7,0.6-1.2,0.6c-0.4-0.3-0.8-0.7-1-1.1c0.2-0.7-0.3-1.3-0.1-2
	C56.5,53.7,57.1,52.9,58,52.5z"/>
<path class="st19" d="M66,59.7c-0.5,1.1,0.4,0.3,0.6,0.4c-0.1,0.4-0.4,0.3-0.6,0.4c-1.6-0.3-3.1-1.1-4.3-2.3
	c-0.1-0.3,0.1-0.3,0.4-0.4c0.3,0,0.6,0.2,0.7,0.5c0.1-0.2,0.3-0.4,0.5-0.5c0.3,0,0.6,0,0.9,0.1c0.2,0.2,0.4,0.4,0.6,0.5
	c0.1,0.6,0.6,0.7,1.1,0.9C66,59.4,66.1,59.5,66,59.7z"/>
<path class="st18" d="M61.1,54.6c0.7-0.9,1.5-1.6,2.5-2.1c0.2-0.5,0.8-0.7,1.3-0.6c0.6,0.3,0.4,0.6,0,0.9c-0.8,0.4-1.5,1-1.9,1.7
	c-0.3,0.2-0.5,0.5-0.6,0.9c-0.1,0.1-0.1,0.1-0.2,0.1C61.3,55.8,61,55.7,61.1,54.6C61.1,54.7,61.1,54.7,61.1,54.6z"/>
<path class="st80" d="M61.1,54.8c0.2,0.4,0.5,0.7,1,0.5c0.6,0.2,0.6,0.9,1,1.2c0.1,0.2,0.2,0.4,0.2,0.6c-0.5,0.7-0.5,0.7-1.5,0.1
	c-0.3-0.2-0.6-0.3-0.9-0.4C60.6,56.1,60.7,55.4,61.1,54.8z"/>
<path class="st39" d="M60.9,56.8c0.4,0,0.5-0.3,0.5-0.8l0.5,0.9c0.4,0.2,0.5,0.6,0.6,1c-0.1,0.1-0.1,0.2-0.3,0.2l-0.5,0.1l-0.3-0.3
	c0.3-0.4-0.1-0.6-0.2-0.9L60.9,56.8z"/>
<path class="st61" d="M58.8,53.8l-0.2,0.3c-0.1,0.1-0.1,0.3,0,0.4c0,0,0,0,0,0c0.2,0.1,0.3,0.5,0.2,0.7c0,0,0,0,0,0
	c-0.2,0.2-0.5,0-0.7,0c0.2-0.5-0.2-1.3,0.5-1.6C58.7,53.7,58.7,53.8,58.8,53.8z"/>
<path class="st82" d="M61.2,57.1c0.3,0,0.5,0.2,0.6,0.5c0.1,0.3-0.2,0.3-0.4,0.4C61.3,57.7,61,57.4,61.2,57.1z"/>
<path class="st69" d="M71.1,60.4L70,60.2c-0.2,0.1-0.3,0.1-0.4-0.1c0-0.2,0.1-0.3,0.3-0.3c0,0,0,0,0,0c0.5,0,0.9-0.2,1.3-0.4
	c0.7,0,1.4-0.2,2,0.2c0.1,0.1,0.2,0.2,0.2,0.4c0,0.4-0.4,0.5-0.7,0.6C72.2,60.7,71.7,60.2,71.1,60.4L71.1,60.4z"/>
<path class="st120" d="M69.6,60.1l0.3,0.2c-0.9,0.3-1.6-0.2-2.5-0.2c-0.1-0.3,0.1-0.3,0.3-0.4c0.3-0.1,0.6-0.2,0.9-0.4
	c0.3,0,0.7-0.1,1,0.2C69.9,59.8,69.7,59.9,69.6,60.1z"/>
<path class="st121" d="M68,59.9l-0.5,0.2L66,59.7l-0.3-0.2c-0.1-0.4,0.3-0.4,0.5-0.5c0.3,0,0.5,0,0.8,0.1
	C67.3,59.4,67.9,59.3,68,59.9z"/>
<path class="st21" d="M72.8,60.4l0.6-0.4c0.3-0.5,1-0.7,1.5-0.4c0,0,0,0,0.1,0c0.2,0.1,0.1,0.4,0.2,0.5v0.2
	c-1.1,0.1-2.1,0.4-3.1,0.6c-0.2-0.2-0.4-0.4-0.2-0.6S72.5,60.3,72.8,60.4z"/>
<path class="st90" d="M75.2,60.2c-0.1,0-0.3-0.2-0.3-0.3c0.3-0.5,0.9-0.8,1.5-0.7l0.2,0.5L75.2,60.2z"/>
<path class="st65" d="M72.8,60.4c-0.4,0.1-0.9,0-0.7,0.7l-0.3,0.2c-0.2-0.3-0.1-0.9-0.7-0.9C71.6,60.1,72.2,60.1,72.8,60.4z"/>
<path class="st83" d="M58.8,50.5c-0.5,0.5-1,0.9-1.5,1.4c-1,1-1.5,2.4-1.4,3.9l-0.2-0.3c-0.6-2.1-0.1-3.4,2.2-4.6l0.5-0.3L58.8,50.5
	z"/>
<path class="st38" d="M58,50.9c-0.4,0.5-0.9,1-1.3,1.4c-0.8,0.6-1.2,1.7-0.9,2.7c0,0.2,0,0.4,0.1,0.6c-0.5-1-0.5-2.3,0-3.3
	C56.4,51.5,56.9,50.7,58,50.9z"/>
<path class="st119" d="M79.5,52c0.4,0.5,0.6,1.1,0.6,1.7c-0.6-0.3-0.8,0-0.8,0.5c-0.1,0.6-0.2,1.3-0.2,1.9c0.1,0.6-0.3,1.1-0.8,1.3
	c-0.5-0.3-0.4-0.7-0.4-1.2c0-0.2,0.1-0.4,0.1-0.6s0-0.4-0.1-0.4c-0.1-0.1-0.3,0.1-0.4,0.2c-0.2,0.5-0.6,0.9-1.1,1.2
	c-0.2,0.1-0.4,0.1-0.6,0c-0.2-0.2-0.1-0.4,0.1-0.6c0.4-0.4,0.6-0.9,0.6-1.5c0-0.4,0-0.8-0.2-1.1c-0.2-0.4-0.5-0.8-0.9-1.1
	c0-0.3-0.4-0.5-0.2-0.9c0.4-0.3,0.6-0.1,0.9,0.2c-0.3-0.6-0.1-1.1,0.6-1.1c0.8,0.1,1.6,0.4,2.1,1C79.1,51.8,79.3,51.9,79.5,52z"/>
<path class="st67" d="M69.6,59.7c-0.3-0.1-0.7-0.2-1-0.1c-0.1,0.1-0.1,0.1-0.2,0.1c-0.7-0.1-1.3-0.5-2-0.7c-0.5-0.1-0.5-0.5-0.2-0.8
	c0.2-0.3,0.5-0.5,0.9-0.6c0.3,0,0.6,0,0.9,0c0.9,0.1,1.7,0.6,2.6,0.3c0.7,0,1.5-0.1,2.2-0.3c0.5,0.3,0.9-0.5,1.4-0.2
	c0.2,0.7,0.5,1.1,1.4,0.9c0.3-0.1,0.6,0.2,0.8,0.5l0.2,0.2l-0.1,0.2c-1,0.4-2.1,0.6-3.2,0.8c-0.7-0.2-1.4-0.2-2.1-0.1
	C70.6,60,70.1,60,69.6,59.7z"/>
<path class="st122" d="M76.3,58.8h-2c-0.3,0-0.7,0.1-0.8-0.3c-0.1-0.3,0.3-0.5,0.5-0.6l0.2-0.2c-0.1-0.1,0-0.3,0.1-0.3
	c0.5-0.2,0.9-0.7,1.6-0.6c0.6-0.3,1.2-0.6,1.3-1.4c0.1-0.8,0.7-0.6,1.2-0.6c0.4,0.1,0.3,0.6,0.3,0.9c-0.2,0.6-0.3,1.3-0.3,1.9
	C77.7,58,76.9,58.1,76.3,58.8z"/>
<path class="st123" d="M79.5,52c-0.3,0.4-0.5,0-0.7-0.1c-0.5-0.4-1.2-0.7-1.8-0.9c-0.2,0-0.5-0.1-0.6,0.1s0.1,0.4,0.2,0.6
	s0.9,0.5,0.5,0.9c-0.4,0.4-0.6-0.3-0.9-0.5c-0.3-0.2-0.5-0.5-0.8-0.5c-0.5,0.2-1.1-0.1-1.3-0.7c0-0.1,0-0.1,0-0.2
	c0.1,0,0.3,0,0.3-0.1c0.4-0.6,1.1-0.8,1.7-0.5c0.3,0.1,0.3-0.2,0.3-0.4c1.1,0.3,2.2,0.9,3,1.8c0.1,0.1,0.1,0.2,0.2,0.3L79.5,52z"/>
<path class="st119" d="M79.5,51.8l-0.2-0.3c0.7-0.4,0.9,0.3,1.3,0.6c0.2,0.2,0.3,0.5,0.2,0.8C80.3,52.6,80.3,51.7,79.5,51.8z"/>
<path class="st124" d="M73.2,59.9c1-0.3,2-0.9,3.2-0.8c0,0.1,0,0.1,0,0.1l-1.5,0.7L73.4,60L73.2,59.9z"/>
<path class="st86" d="M54,61.2h-0.2c-0.6-0.4-1.1,0-1.6,0.3c-0.5,0.3-0.9,0.6-1.3,0c-0.3-1.2,0-2.4,0.9-3.3c0.3-0.4,0.6-0.7,1-0.9
	c0.7-0.3,0.8-0.3,1.1,0.5C54,58.9,54.1,60.1,54,61.2z"/>
<path class="st79" d="M53.9,57.8c-0.2-0.4-0.4-0.5-0.8-0.2c-0.4,0.3-0.7,0.5-1,0.7c-0.1,0.1-0.3,0.1-0.4,0c-0.2-0.2-0.3-0.6-0.1-0.9
	c0.3-0.9,0.7-1.7,1.2-2.5c0.2-0.3,0.5-0.7,1-0.4c-0.1,0.9,0,1.7,0.2,2.6L53.9,57.8z"/>
<path class="st125" d="M53.7,54.5c-0.2,0-0.4,0.1-0.5,0.3c-0.6,1.1-1.4,2.1-1.4,3.5c-0.1,0.3-0.2,0.5-0.5,0.3
	c-0.1-0.2-0.2-0.5-0.1-0.8c0.4-1.7,1.3-3.2,2.4-4.5C53.7,53.7,53.7,54.1,53.7,54.5z"/>
<path class="st126" d="M51.2,58.6l0.5-0.3H52c-0.9,0.9-0.8,2.1-0.9,3.3c0.1,0.4-0.1,0.5-0.5,0.5l-0.4,0.2c0.2-0.4,0.4-0.8,0.3-1.2
	c-0.1-0.8,0-1.6,0.5-2.2L51.2,58.6z"/>
<path class="st127" d="M50.7,62l0.5-0.5c0.6-0.1,1.1-0.6,1.6-0.9c0.3-0.1,0.5-0.5,0.9-0.3c0.3,0.2,0.1,0.6,0.2,0.9
	c-0.8,0.4-1.6,0.8-2.5,1.1C51.1,62.3,50.9,62.2,50.7,62z"/>
<path class="st10" d="M58.8,53.8l-0.2-0.2c0-0.1,0.1-0.2,0.1-0.2c-0.6-0.4-0.1-0.6,0.1-0.9c0.1-0.1,0.2-0.2,0.3-0.2
	c1-0.6,2.1-1.1,3.3-1.6c0.2-0.1,0.4-0.1,0.6-0.2c0.7-0.3,1.5-0.5,2.2-0.6c1.6-0.2,3.3-0.2,4.9,0.1c1.4,0.2,2.7,0.7,3.9,1.4
	c0.1,0.1,0.2,0.2,0.3,0.2c0.5,0.3,0.8,0.9,0.7,1.5c0,0.5,0.1,0.9,0.1,1.4c-0.3,1-1.1,1.8-2.2,2c-0.2,0-0.4-0.1-0.4-0.3
	c0-0.2,0-0.4,0.2-0.6c0.9-0.3,1.3-1.3,1-2.2c0-0.1-0.1-0.1-0.1-0.2c0,0.1,0,0.3,0,0.4c-0.4,0.8-0.9,0-1.3,0
	c-0.4-0.4-0.9-0.7-1.5-0.7c-0.8-0.7-1.8-0.5-2.8-0.9c-1.1-0.1-2.3,0.1-3.4,0.1l-1.3,0.3c-0.5-0.1-0.4-0.3-0.2-0.6
	c0.1-0.1,0.2-0.3,0.1-0.4c-0.1-0.2-0.3-0.1-0.5-0.1c-0.3,0.1-0.7,0.2-1,0.4c-0.4,0.3-1,0.5-1.5,0.6c-0.3,0-0.7,0.2-0.8,0.5
	C59.6,53.4,59.2,53.6,58.8,53.8z"/>
<path class="st14" d="M73.9,51.8c-2.2-1.3-4.8-1.8-7.4-1.6l-1.3,0C65,50.2,65,50.1,65,50c0.4-0.6,1.1-0.4,1.6-0.5c1-0.1,2-0.1,3,0
	c1.5,0.3,3,0.7,4.4,1.2l1.3,0.9l0.5,0.7c-0.3,0.5-0.7,0.3-1,0C74.6,51.8,74.4,51.5,73.9,51.8z"/>
<path class="st1" d="M69.6,49.5c-1.5,0-3.1,0.1-4.6,0.5c-0.5,0.2-1,0.5-1.5,0.2c-0.1-0.2-0.1-0.4,0.2-0.5
	C65.7,49.3,67.7,49.2,69.6,49.5z"/>
<path class="st70" d="M62.9,50.7c-1.2,0.4-2.3,1-3.4,1.6c-0.1,0.1-0.3,0.1-0.4,0c1.1-0.8,2.3-1.4,3.6-1.8
	C62.8,50.6,62.9,50.6,62.9,50.7z"/>
<path class="st113" d="M62.9,50.7l-0.2-0.2l0.8-0.3l1.5-0.1l0.2,0.2C64.5,50.5,63.7,50.6,62.9,50.7z"/>
<path class="st63" d="M62.4,57.9c-0.2-0.3-0.4-0.6-0.5-1c0.2-0.1,0.5-0.1,0.6,0.1c0.2,0.6,0.4,0,0.5,0c0.1,0,0.1,0,0.2,0
	c0.3,0.1,0.6,0.3,0.7,0.6c0.1,0.1,0.1,0.3,0,0.5h-0.7C63.1,58,62.6,58.5,62.4,57.9z"/>
<path class="st95" d="M64,58.1l-0.2-0.3c0.1-0.6,0.6-0.3,0.9-0.5c0.2,0,0.3,0.2,0.5,0.3c0.9,0.6,0.9,0.8,0,1.5
	c-0.4,0.1-0.5-0.2-0.7-0.4L64,58.1z"/>
<path class="st125" d="M64.5,58.6l0.7,0.3c0.5-0.3,0.8-0.3,1,0.3l-0.5,0.3C65.2,59.4,64.6,59.3,64.5,58.6z"/>
<path class="st65" d="M62.4,57.9c0.3,0.2,0.7-0.1,0.9,0.2c-0.7,0.6,0.4,0.6,0.3,1c-0.5-0.2-1-0.5-1.4-1L62.4,57.9z"/>
<path class="st36" d="M62.9,56.6c-0.4-0.4-0.7-0.8-0.8-1.3h0.2c0.2-0.3,0.1-0.7,0.5-1c0.6-0.6,1-1.4,2-1.6c0.1,0.1,0.2,0.2,0.2,0.3
	c0,0.4-0.3,0.5-0.6,0.6c-0.4,0.2-0.6,0.5-0.6,0.9c0,0.1,0,0.3-0.1,0.4c-0.5,0.4-0.4,0.9-0.2,1.4C63.3,56.6,63.1,56.6,62.9,56.6z"/>
<path class="st128" d="M64.7,53v-0.3c0-0.2,0.4-0.2,0.2-0.5c1.1-0.4,2.3-0.5,3.5-0.3c0,0.2-0.1,0.3-0.3,0.4c-0.1,0-0.2,0.1-0.3,0.1
	c-0.2,0-0.5,0.1-0.7,0.2c-0.4,0.1-0.8,0.2-1.1,0.3C65.5,52.8,65.2,53.6,64.7,53z"/>
<path class="st80" d="M62.7,54.3c-0.2,0.3,0.1,0.9-0.5,1C61.9,54.7,62.3,54.5,62.7,54.3z"/>
<path class="st70" d="M62.9,56.6l0.4-0.3c0-0.2,0.2-0.3,0.4-0.3c0.3,0,0.4,0.3,0.4,0.5c0,0,0,0,0,0c-0.2,0.2-0.4,0.6-0.8,0.5h-0.1
	L62.9,56.6z"/>
<path class="st62" d="M69.6,59.7h1.5c0.1,0.2,0.1,0.3-0.1,0.3h-1.3c-0.1,0-0.3,0-0.3-0.2C69.3,59.7,69.5,59.8,69.6,59.7z"/>
<path class="st62" d="M68.5,59.6h0.2c0,0.5-0.4,0.3-0.6,0.3c-0.4-0.2-0.9-0.1-1.2-0.5c0.1-0.4,0.4-0.2,0.6-0.2
	C67.8,59.4,68.1,59.5,68.5,59.6z"/>
<path class="st129" d="M68.5,59.6l-1.6-0.2l-0.6-0.2l-1-0.3c0.7-0.8,0-1.1-0.5-1.5c-0.9-0.1-0.9-0.1-0.8-0.9c0-0.2-0.2-0.4-0.4-0.5
	c-0.3,0-0.3-0.2-0.2-0.4c0.5-0.9,1-0.3,1.5-0.1c0.1,0.1,0.2,0.2,0.2,0.3c0,0.2,0,0.3,0,0.5c0,0.6,0.4,1.1,1,1.1c0,0,0.1,0,0.1,0
	c0.2,0,0.5,0,0.7,0.1c0.1,0.1,0.1,0.2,0.1,0.3c-0.3,0.2-0.5,0.4-0.6,0.7C67.2,58.8,67.9,59.1,68.5,59.6z"/>
<path class="st83" d="M73.9,51.8c0-0.8,0.4-0.7,0.9-0.3c0.4,0.3,0.6,0.8,1.1,0.7c0.4,0.3,0.7,0.7,0.8,1.1c0.1,0.4,0.3,0.9-0.5,0.8
	c-0.5-0.1-0.6-0.7-0.9-1c-0.3-0.3-0.8-0.8-1.2-1.1L73.9,51.8z"/>
<path class="st66" d="M75.9,56.6c-0.5,0.3-0.9,0.8-1.5,0.8c-0.3-0.1-0.6-0.3-0.5-0.7c0.1-0.2,0.2-0.5,0.5-0.6
	c0.4,0.1,0.9-0.1,1.1-0.5c0.1-0.2,0.3-0.5,0.6-0.6c0.3-0.1,0.3-0.6,0.7-0.5c0.2,0.6-0.1,0.9-0.4,1.3C76.3,56.2,76.1,56.4,75.9,56.6z
	"/>
<path class="st130" d="M76.9,54.6c-0.1,0.3-0.2,0.5-0.4,0.8c-0.2,0.2-0.2,0.1-0.3-0.1c-0.4-0.3-0.5-1-0.1-1.4c0,0,0.1-0.1,0.1-0.1
	c0.5,0.2,0.5-0.2,0.5-0.5C76.9,53.7,77,54.2,76.9,54.6z"/>
<path class="st131" d="M74.6,56.4l-0.5,0.3c0.1,0.7-0.3,0.9-0.9,0.9c-0.2,0-0.3,0.1-0.4,0.2c-0.7,0.3-1.4,0.4-2.1,0.3
	c-0.2-0.2-0.5-0.4-0.9-0.5c-0.3-0.1-0.7-0.3-0.5-0.8c0.2-0.3,0.5-0.2,0.8-0.3c1,0,2-0.3,3-0.4c0.8-0.3,1.5-1,1.8-1.8
	c0.1-0.2,0.1-0.4,0.1-0.6c0-0.2-0.1-0.5,0.2-0.5c0.3-0.1,0.4,0.2,0.6,0.4c0.3,0.8,0.1,1.7-0.5,2.3C75.2,56.3,74.9,56.4,74.6,56.4z"
	/>
<path class="st94" d="M69.3,57.1c0.5,0.2,1,0.4,1.6,0.5c0.2,0.1,0.5-0.1,0.5,0.3c0,0.3-0.3,0.2-0.5,0.3l-0.3,0.1
	c-0.9,0.3-1.8,0.2-2.6-0.3c-0.4-0.3-1.1-0.2-1.4-0.8c-0.3-0.6,0-1,0.5-1.3c0.6,0,0.8,0.5,1.2,0.8C68.5,57.1,68.9,56.9,69.3,57.1
	L69.3,57.1z"/>
<path class="st26" d="M66.8,57.1c0.6,0,0.9,0.5,1.2,0.8h-1l-0.2-0.2c-0.3-0.3-0.9,0.1-1.1-0.5c0-0.1,0.1-0.3,0.2-0.3
	C66.2,56.8,66.6,56.8,66.8,57.1z"/>
<path class="st95" d="M72.8,57.9c0.1-0.5,0.6-0.5,1-0.5c0.2-0.3-0.4-0.5-0.1-0.8c0.1-0.1,0.3,0.1,0.4,0.1l0.3,0.7l-0.2,0.2
	C73.7,57.7,73.3,58,72.8,57.9z"/>
<path class="st47" d="M71.3,52.5c0.5,0.1,1,0.4,1.3,0.9c0.9,0.9,1,1.1,0.1,2c-0.7,0.8-1.8,1-2.7,0.7c-0.3-0.3-0.5-0.5-0.9-0.6
	C69,55,69.3,55,69.5,54.9c0.9-0.2,1.1-0.5,0.8-1.4C70.5,53.1,71,52.9,71.3,52.5z"/>
<path class="st46" d="M71.3,52.5c0.6,0.6,0.6,0.6-0.3,0.9c-0.2,0.1-0.4,0.1-0.5,0.1c-0.2,0.1-0.4,0.1-0.6,0
	c-0.8-0.3-1.6-0.4-2.4-0.3c-0.5,0-1.1,0.4-1.6,0.1c-0.1-0.3,0-0.5,0.2-0.6s0.8,0,1-0.5c0.2-0.1,0.4-0.2,0.7-0.1
	c0.1,0.1,0.2,0.2,0.3,0l0.3-0.2C69.3,51.8,70.4,52,71.3,52.5z"/>
<path class="st129" d="M74.6,56.4c0.3-0.4,0.6-0.9,0.8-1.3c0.3-0.5,0.2-1.2-0.2-1.6c-0.2,0.4,0,0.7-0.3,1c0.1-0.9-0.2-1.8-0.8-2.5
	c0.9,0.4,1.6,1,2.1,1.8c0.1,0.5,0.1,1,0,1.5C75.8,55.9,75.6,56.7,74.6,56.4z"/>
<path class="st116" d="M69.9,55.8c0.7,0.2,1.5,0.1,2.2-0.3c0.8-0.4,0.9-1.1,0.5-2.1c0.3-0.1,0.5,0.7,1,0.1c0.4,0.3,0.6,0.8,0.3,1.3
	c0,0,0,0,0,0.1c-0.2,0.3-0.5,0.6-0.9,0.8c-0.9,0.7-2.1,1-3.2,0.9c-0.3,0-0.6,0-0.7-0.3c0-0.2,0.1-0.4,0.2-0.5
	C69.5,55.6,69.8,55.6,69.9,55.8z"/>
<path class="st114" d="M69.8,56.3c1.1,0,2.2-0.2,3.1-0.8c0.1,0.1,0.2,0.1,0.2,0.3l-0.3,0.3c-0.6,0.6-1.4,0.4-2.1,0.7
	c-0.2,0.1-0.4,0-0.5,0.2l-0.9,0.2l0,0c-0.4-0.2-0.9,0-1.2-0.3l-1-0.8c-0.3-0.1-0.6-0.3-0.5-0.7c0.1-0.3,0.1-0.5,0.4-0.6
	c0.4,0,0.8,0.1,1.1,0.4c0.1,0.1,0.1,0.2,0.1,0.4c-0.1,0.4,0,0.7,0.4,0.7C69.1,56.1,69.4,56.6,69.8,56.3z"/>
<path class="st128" d="M73.1,55.8l-0.2-0.3c0.7-0.5,1.2-1.1,0.7-2c-0.1-0.4-0.3-0.7-0.6-1c0.9,0.3,1.4,1.3,1.1,2.2
	C74,55.2,73.6,55.6,73.1,55.8z"/>
<path class="st64" d="M70.1,56.9l-0.4-0.3c1-0.1,2.1-0.3,3-0.6l0.3,0.2C72.2,56.8,71.2,57,70.1,56.9z"/>
<path class="st36" d="M63.9,56.6c0.2,0.4,0.4,0.7,0.8,0.9c0,0.3,0.2,0.7-0.3,0.3c-0.1-0.1-0.4-0.1-0.5,0c-0.2-0.2-0.5-0.3-0.6-0.7
	C63.3,56.8,63.5,56.5,63.9,56.6z"/>
<path class="st38" d="M66.2,52.7l-0.3,0.5c-0.1,0.3-0.4,0.4-0.6,0.6c-0.2,0.2-0.5,0.3-0.8,0.5c-0.3,0.3-0.8,0.4-1.2,0.2
	c0.3-0.7,0.8-1.2,1.5-1.5c0.5,0,0.7-0.4,1.2-0.5C66,52.6,66.1,52.5,66.2,52.7z"/>
<path class="st132" d="M63.2,54.5l1.2-0.5c0.2,0.4-0.2,0.6-0.3,0.9c-0.2,0.3-0.5,0.5-0.5,0.9c0,0.1,0,0.2,0,0.3l-0.3,0.2
	c-0.4-0.3-0.5-0.8-0.2-1.1c0,0,0,0,0,0C63.2,55,63.3,54.7,63.2,54.5z"/>
<path class="st19" d="M66.2,52.7l-0.3-0.2l1.1-0.4c0.2,0.1,0.5,0.1,0.1,0.3C66.9,52.6,66.5,52.7,66.2,52.7z"/>
<path class="st38" d="M68,52c0.2,0,0.5-0.1,0.7,0.1c-0.4,0.5-0.6,0.5-1-0.1L68,52z"/>
<path class="st46" d="M66.8,55.3l0.3,0.7c-0.3,0.3-0.4,0.7-0.3,1.1H66c-0.2-0.2-0.5-0.4-0.9-0.3c-0.2,0-0.2-0.2-0.3-0.3V56
	c-0.4-0.9-0.1-1.5,0.9-1.8c0.2,0,0.5,0.2,0.6,0.4c0.1,0.1,0.1,0.3,0,0.4c-0.1,0.1-0.1,0.2-0.2,0.3C66,55.2,66,55.3,66,55.2
	c0.1-0.1,0.1,0.1,0.1,0c0.2-0.1,0.3-0.4,0.7-0.3C67.1,55.1,66.8,55.2,66.8,55.3z"/>
<path class="st70" d="M63.5,55.8c-0.2-0.8,0.5-1.2,0.9-1.8l0.6-0.5c0.1-0.1,0.2,0,0.3,0.1c0.1,0.3-0.2,0.5-0.3,0.7
	c-0.2,0.2-0.4,0.6-0.3,1c0.1,0.2,0.1,0.4,0,0.5C64.3,55.9,63.9,55.1,63.5,55.8z"/>
<path class="st101" d="M64.7,55.8l-0.2-0.5c-0.1-0.1-0.1-0.2-0.1-0.3c0.4-1.2,1.7-1.9,2.9-1.6c0,0.1,0.1,0.2,0.1,0.2
	c-0.4,0.6-1,0.5-1.5,0.6c-0.7,0.2-1.1,0.9-1,1.6L64.7,55.8z"/>
<path class="st70" d="M64.9,56.4l0.3,0.2c0.4,0,0.6,0.2,0.7,0.6l1,0.5c-0.9,0.3-1.4-0.2-2-0.7C64.6,56.8,64.5,56.6,64.9,56.4z"/>
<path class="st131" d="M68.1,56.8c0.4-0.2,0.9,0,1.2,0.3C68.9,57.2,68.4,57.5,68.1,56.8z"/>
<path class="st133" d="M65.9,57.3l-0.7-0.6c0.6-0.4,0.7,0,0.9,0.5L65.9,57.3z"/>
<path class="st134" d="M68,55.5v-0.3c-0.1-0.7,0.4-0.6,0.9-0.6s0.8,0.2,0.9-0.4c0-0.2,0-0.4,0-0.5c0-0.1,0.1-0.2,0.2-0.3l0.5,0.2
	c0.2,0.3,0.8,0.4,0.5,0.9c-0.2,0.4-0.6,0.7-1,0.7c-0.3,0-0.6,0.1-0.9,0.2c0.1,0.2,0.5,0.3,0.3,0.6l-0.3,0.2
	C68.6,56.2,68,56.3,68,55.5z"/>
<path class="st103" d="M69.5,55.9c-0.1-0.2-0.5-0.3-0.3-0.6c0.3,0,0.7-0.1,0.8,0.5L69.5,55.9z"/>
<path class="st114" d="M70,53.3v0.3c-0.6,0.3-1.2-0.3-1.7-0.2c-0.9-0.2-1.9-0.1-2.7,0.3c-0.1,0.1-0.2,0-0.3-0.1L65,53.5
	c0.2-0.2,0.5-0.3,0.8-0.3c1.2-0.2,2.4-0.3,3.6-0.3C69.9,52.9,69.8,53.2,70,53.3z"/>
<path class="st41" d="M68,55.5c0.3,0.4,0.8,0.5,1.2,0.7l0.6,0.2c-0.7,0.2-1.4,0.1-2-0.3c-0.1-0.1-0.3-0.2-0.3-0.3
	C67.6,55.5,67.8,55.5,68,55.5z"/>
<path class="st131" d="M70.1,54.1c0.1,0.8-0.5,0.8-1,0.8c-0.5,0-0.9-0.2-1.2,0.2c-0.3-0.1-0.7,0.1-0.8-0.3c-0.2-0.7,0.4-0.8,0.8-0.9
	c0.2-0.1,0.5-0.2,0.6-0.4C69.1,53.4,69.7,53.7,70.1,54.1z"/>
<path class="st135" d="M68.6,53.5c0,0.5-0.4,0.6-0.7,0.7c-0.3,0.1-0.6,0.3-0.7,0.6l-0.3,0.5c-0.1-0.1-0.2-0.4-0.3,0
	c-0.1,0.4,0.1,0.5-0.2,0.7c-0.3-0.3-0.4-0.7-0.3-1.1l0.2-0.2c0.1-0.6,0.8-0.6,1.2-1l0,0c0.3-0.5,0.7-0.3,1.1-0.3
	C68.5,53.4,68.6,53.4,68.6,53.5z"/>
<path class="st136" d="M66,54.8c0.2,0.4,0.3,0.7,0.3,1.1c-0.1-0.1-0.2-0.2-0.4-0.1c-0.1,0.1-0.5,0.5-0.7,0c-0.2-0.4-0.2-0.7,0.4-0.8
	C65.8,55,65.9,54.9,66,54.8z"/>
<path class="st79" d="M67.3,53.7c-0.3,0.4-0.7,0.7-1.2,1l-0.3-0.3C66.2,53.8,66.8,53.8,67.3,53.7z"/>
<path class="st131" d="M68.5,53.5c-0.4,0-0.8,0-1.1,0.2c-1.2-0.3-2.5,0.4-2.8,1.6c-0.4-0.2-0.2-0.5-0.1-0.8c0.2-0.3,0.5-0.6,0.7-0.9
	c1-0.3,2.1-0.5,3.1-0.5C68.4,53.3,68.6,53.3,68.5,53.5z"/>
<path class="st137" d="M68.5,53.5l-0.2-0.3c0.6,0,1.1,0.2,1.6,0.5c0.3,0.1,0.3,0.3,0.2,0.5c-0.6,0.1-0.9-0.6-1.5-0.7L68.5,53.5z"/>
</svg>
