<?xml version="1.0" encoding="utf-8"?>
<!-- Generator: Adobe Illustrator 21.0.0, SVG Export Plug-In . SVG Version: 6.00 Build 0)  -->
<svg version="1.1" id="Capa_1" xmlns="http://www.w3.org/2000/svg" xmlns:xlink="http://www.w3.org/1999/xlink" x="0px" y="0px"
	 viewBox="0 0 115 107" style="enable-background:new 0 0 115 107;" xml:space="preserve">
<style type="text/css">
	.st0{fill:#666666;}
</style>
<title>tech-icon1</title>
<g>
	<path class="st0" d="M84.1,37.8c-0.1,0.5-0.1,1-0.2,1.5c-0.4,2.1-1.4,3.9-2.9,5.4c-2.5,2.5-5,5.1-7.5,7.5
		c-2.9,2.8-6.3,3.7-10.2,2.8c-0.1,0-0.1,0-0.1-0.1c0.1-0.1,0.1-0.1,0.1-0.2c2-2,4-4,6-6c2.6-2.6,5.3-5.2,7.9-7.9
		c1.2-1.2,1.8-2.6,1.6-4.4c-0.1-2.4-2.2-4.6-4.6-4.9c-1.8-0.2-3.4,0.4-4.6,1.6C65,37.8,60.4,42.4,55.8,47c-0.1,0.1-0.1,0.1-0.2,0.2
		h-0.1c-0.1-0.5-0.2-0.9-0.3-1.4c-0.4-3.1,0.5-5.9,2.5-8.3c0.9-1.1,2-2.1,3.1-3.1c1.7-1.7,3.5-3.5,5.2-5.2c1.9-1.8,4.1-2.7,6.6-2.9
		c0.1,0,0.1,0,0.2-0.1c0.4,0,0.6,0,1,0c0.1,0,0.1,0.1,0.2,0.1c0.6,0.1,1.1,0.1,1.6,0.2c4.3,1.1,6.9,3.8,8.1,8.1
		c0.1,0.6,0.2,1.1,0.3,1.6C84.1,36.8,84.1,37.3,84.1,37.8z"/>
	<path class="st0" d="M29.8,69.3c0.1-0.5,0.1-1,0.2-1.5c0.4-2.1,1.4-3.9,3-5.4c2.4-2.4,4.9-4.9,7.4-7.4c1.6-1.7,3.6-2.8,6-3.1
		c1.5-0.2,2.9-0.1,4.4,0.2c0,0,0.1,0,0.1,0.1c-0.1,0.1-0.2,0.1-0.3,0.1c-4.6,4.6-9.1,9.1-13.8,13.8c-1.2,1.2-1.8,2.7-1.6,4.4
		c0.1,2.4,2.2,4.5,4.6,4.8c1.8,0.2,3.3-0.4,4.6-1.6c2.4-2.5,4.9-4.9,7.4-7.4c2.1-2.1,4.3-4.3,6.4-6.4c0.1-0.1,0.1-0.1,0.1-0.2
		c0.1,0,0.1,0,0.1,0.1c0.1,0.5,0.2,0.9,0.3,1.4c0.3,2.9-0.4,5.6-2.3,8c-0.6,0.8-1.4,1.5-2.1,2.3c-2.1,2.1-4.3,4.4-6.4,6.4
		c-1.9,1.8-4.1,2.7-6.6,2.9c-0.1,0-0.2,0-0.3,0.1c-0.3,0-0.6,0-0.9,0c-0.6-0.1-1.3-0.1-1.9-0.3c-4.3-1.1-7-3.8-8.1-8.1
		c-0.1-0.6-0.2-1.1-0.3-1.7C29.8,70.2,29.8,69.7,29.8,69.3z"/>
	<path class="st0" d="M48,65.3c-1.1,0-2.1-0.6-2.6-1.6c-0.4-1-0.2-2.1,0.6-2.9c6.1-6.1,12.1-12.1,18.1-18.1c1-1,2.6-1.1,3.6-0.1
		s1.2,2.5,0.4,3.6c-0.1,0.1-0.3,0.4-0.4,0.5C61.8,52.6,55.9,58.5,50,64.3C49.4,64.9,48.8,65.3,48,65.3z"/>
</g>
</svg>
