<?xml version="1.0" encoding="utf-8"?>
<!-- Generator: Adobe Illustrator 21.0.0, SVG Export Plug-In . SVG Version: 6.00 Build 0)  -->
<svg version="1.1" id="Capa_1" xmlns="http://www.w3.org/2000/svg" xmlns:xlink="http://www.w3.org/1999/xlink" x="0px" y="0px"
	 viewBox="0 0 115 107" style="enable-background:new 0 0 115 107;" xml:space="preserve">
<style type="text/css">
	.st0{fill:#666666;}
</style>
<title>tech-icon1</title>
<g>
	<path class="st0" d="M80.9,33.6c0,2,0,3.9,0,5.9c0,1.4,0,2.9,0,4.3c0,0.6-0.2,1-0.6,1.3c-0.8,0.8-1.7,1.2-2.7,1.6
		c-2,0.8-3.9,1.1-6,1.5c-2.8,0.4-5.6,0.6-8.5,0.7c-4.8,0.1-9.6-0.1-14.3-1.1c-1.8-0.4-3.5-0.8-5.2-1.6c-0.6-0.3-1.3-0.7-1.8-1.3
		c-0.3-0.4-0.4-0.7-0.4-1.2c0-3.2,0-6.6,0-9.8c0-0.1,0-0.2,0-0.3c0.1,0,0.1,0,0.1,0c1.6,1.1,3.4,1.8,5.2,2.2c2.6,0.6,5.2,1,7.9,1.3
		c2.2,0.2,4.4,0.3,6.6,0.3c4.4,0,8.8-0.4,13.1-1.3c1.9-0.4,3.8-0.9,5.6-1.9C80.3,34,80.5,33.8,80.9,33.6z"/>
	<path class="st0" d="M41.5,46.6c2.3,1.6,4.8,2.2,7.3,2.7c3,0.6,6,0.8,9,1c4,0.2,8,0.1,11.9-0.4c2.8-0.4,5.6-0.8,8.3-1.8
		c1-0.4,1.9-0.8,2.7-1.4c0.1,0.1,0.1,0.2,0.1,0.4c0,3.2,0,6.4,0,9.7c0,0.7-0.3,1.2-0.8,1.6c-0.6,0.6-1.4,0.9-2.2,1.3
		c-2.1,0.8-4.4,1.3-6.6,1.6c-4,0.6-8,0.8-12.1,0.7c-1.8-0.1-3.6-0.1-5.4-0.4c-0.1,0-0.3-0.1-0.4-0.2c-2.2-3.7-5.4-6.1-9.7-6.8
		c-0.6-0.1-1.3-0.2-2-0.2c-0.1,0-0.3,0-0.3-0.2c0-2.4,0-4.8,0-7.3C41.5,46.8,41.5,46.7,41.5,46.6z"/>
	<path class="st0" d="M80.9,59.5c0,0.3,0,0.5,0,0.7c0,3.1,0,6.3,0,9.4c0,0.6-0.2,1.1-0.6,1.5c-0.5,0.5-1.1,0.8-1.7,1.1
		c-1.9,0.8-3.9,1.3-5.9,1.7c-3.3,0.6-6.6,0.8-10,0.9c-2.9,0.1-5.9-0.1-8.7-0.4c-0.3,0-0.4-0.1-0.2-0.4c1.7-3.5,2-7,0.8-10.7
		c0-0.1-0.1-0.1-0.1-0.2c-0.1-0.2,0-0.2,0.2-0.2c2.3,0.2,4.7,0.3,7.1,0.3c4.2-0.1,8.5-0.4,12.6-1.2c1.8-0.4,3.7-0.9,5.4-1.8
		C80.1,60.2,80.5,59.9,80.9,59.5z"/>
	<path class="st0" d="M47.2,76.5c0,0.6,0.1,1.1,0.5,1.6c0.1,0.1,0.1,0.2-0.1,0.4c-1,0.6-2,1-3.1,1.3c-0.3,0.1-0.2-0.1-0.3-0.2
		c-0.3-1.1-0.9-1.8-1.9-2.1c-1.6-0.5-3.3,0.5-3.7,2.1c-0.1,0.2-0.1,0.3-0.4,0.2c-1.1-0.3-2-0.7-3-1.2c-0.2-0.1-0.2-0.2-0.1-0.4
		c0.8-1.2,0.6-2.6-0.4-3.6c-1-1-2.4-1.1-3.6-0.4c-0.2,0.1-0.3,0.1-0.4-0.1c-0.6-0.9-1-2-1.3-3c-0.1-0.2,0-0.2,0.2-0.3
		c1.3-0.3,2.3-1.4,2.3-2.8c0-1.4-0.8-2.5-2.3-2.8c-0.2-0.1-0.3-0.1-0.2-0.4c0.3-1.1,0.7-2,1.2-2.9c0.1-0.2,0.1-0.2,0.4-0.1
		c1.1,0.8,2.6,0.6,3.6-0.4c1-1,1.1-2.4,0.4-3.6c-0.1-0.2-0.1-0.3,0.1-0.4c0.9-0.5,1.9-0.9,2.9-1.2c0.2-0.1,0.3-0.1,0.4,0.2
		c0.3,1.3,1.4,2.3,2.8,2.3c1.3,0,2.5-0.9,2.8-2.3c0.1-0.3,0.1-0.3,0.4-0.2c1,0.3,2,0.7,2.9,1.2c0.2,0.1,0.3,0.2,0.1,0.4
		c-1.1,1.7-0.1,3.9,1.8,4.3c0.8,0.1,1.5,0,2.1-0.4c0.2-0.1,0.3-0.1,0.4,0.1c0.6,0.9,0.9,1.9,1.2,3c0.1,0.2,0,0.3-0.2,0.4
		c-1.4,0.4-2.3,1.4-2.3,2.8c0,1.3,0.9,2.5,2.3,2.8c0.2,0.1,0.2,0.1,0.2,0.4c-0.3,1.1-0.7,2-1.2,3c-0.1,0.2-0.2,0.2-0.4,0.1
		c-1.8-1.1-3.9-0.1-4.4,1.8C47.2,76.2,47.2,76.3,47.2,76.5z M46,68c0-2.5-2-4.5-4.5-4.5c-2.5,0-4.5,2-4.5,4.4s2,4.5,4.4,4.6
		C43.9,72.5,46,70.5,46,68z"/>
	<path class="st0" d="M60.8,27.4c3.1-0.1,6.3,0.1,9.4,0.5c2.6,0.4,5.2,0.8,7.6,1.8c0.7,0.3,1.3,0.6,1.9,1.1c0.6,0.6,0.7,1.1,0,1.7
		c-0.7,0.6-1.6,1-2.5,1.3c-2.5,0.8-5,1.3-7.6,1.6c-3,0.4-5.9,0.5-8.8,0.5c-4.3-0.1-8.6-0.4-12.8-1.3c-1.5-0.4-3-0.8-4.3-1.5
		c-0.4-0.2-0.8-0.4-1.1-0.8c-0.4-0.4-0.4-0.8,0-1.3c0.4-0.4,0.9-0.7,1.4-1c1.9-0.8,3.9-1.3,5.9-1.7c2.8-0.5,5.7-0.8,8.6-0.8
		C59.2,27.4,60,27.4,60.8,27.4z"/>
	<path class="st0" d="M44.4,68c0-1.6-1.3-2.9-2.9-2.9c-1.6,0-2.9,1.3-2.9,2.9c0,1.6,1.3,2.9,2.9,2.9C43,70.9,44.4,69.6,44.4,68z"/>
	<path class="st0" d="M44.4,68c0,1.6-1.3,2.9-2.9,2.9c-1.6,0-2.9-1.3-2.9-2.9c0-1.6,1.3-2.9,2.9-2.9C43.1,65.1,44.4,66.4,44.4,68z"
		/>
</g>
</svg>
