<?xml version="1.0" encoding="utf-8"?>
<!-- Generator: Adobe Illustrator 21.0.0, SVG Export Plug-In . SVG Version: 6.00 Build 0)  -->
<svg version="1.1" id="Capa_1" xmlns="http://www.w3.org/2000/svg" xmlns:xlink="http://www.w3.org/1999/xlink" x="0px" y="0px"
	 viewBox="0 0 115 107" style="enable-background:new 0 0 115 107;" xml:space="preserve">
<style type="text/css">
	.st0{fill:#666666;}
</style>
<title>tech-icon1</title>
<g>
	<path class="st0" d="M29.4,40.5c5.5-0.8,11-1.7,16.5-2.5c6.3-1,12.7-2,19-3c0.6-0.1,1.1,0.1,1.1,0.7c0,1.5,0.3,2.9-0.1,4.2
		c-0.8,3.4-2,6.7-3.1,10.3c-2.9-3.3-5.6-6.4-8.2-9.5c-1-1.1-1.7-1.3-2.7-0.5c-1,0.8-1.1,1.6-0.1,2.8c2.9,3.5,5.7,7,8.6,10.6
		c0.6,0.7,1,1.4,0.1,2.6c-0.1-0.3-0.3-0.6-0.5-1c-0.6-1.3-1.6-1.4-2.9-1.1c-1.4,0.3-2.9,0.5-4.2,0.7c-0.6,0.1-1.1,0.3-1.3,1
		c-0.3,1-0.6,2.1-1,3.3c3.3-0.5,6.5-1,9.9-1.5c-0.9,2.4-1.7,4.7-2.6,7c-1.1,3.3-2.2,6.7-3.3,10c-0.1,0.3-0.4,0.6-0.6,0.6
		c-6,1-12,1.9-18,2.9c-0.2,0-0.4,0-0.7,0c-0.3-2.2-0.7-4.4-1-6.6c-1.5-10-3.1-20-4.7-30c0-0.1-0.1-0.3-0.2-0.4
		C29.4,40.9,29.4,40.7,29.4,40.5z M42.6,71.5c1.5-2.1,3.2-3.8,4.1-5.8c2.4-5.8,4.4-11.7,6.7-17.5c0.4-1.2,0.1-1.9-1-2.3
		c-1.5-0.6-2.2-0.3-2.6,1c-1.7,4.7-3.4,9.5-5.4,14C42.9,64.2,42.7,67.7,42.6,71.5z M39.2,60.9c1.3-0.2,2.5-0.4,3.7-0.6
		c0.2-0.1,0.5-0.3,0.6-0.5c0.5-1.1,0.9-2.3,1.5-3.6c-2.2,0.4-4.1,0.8-6.1,1.2C38.8,58.5,38.9,59.6,39.2,60.9z"/>
	<path class="st0" d="M62,78.6c-1.3-0.1-2.6-0.3-3.8-0.9c-0.5-0.2-0.8-1.5-0.7-2.1c0.8-3.1,1.9-6,2.9-9c2.8-8.6,5.6-17.1,8.4-25.7
		c0.6-1.9,0.6-4-0.1-5.9c-1-3.2-3.5-4.7-6.8-4.1c-1,0.2-2.1,0.3-3.2,0.5c0.1-0.4,0.1-0.6,0.2-0.9c-0.1-0.1-0.2-0.1-0.3-0.2
		c2.2-1.3,4.7-2.1,7.2-2.1c2.6,0.1,5.4-0.2,7.9,0.9c1.1,0.5,2.2,1.1,3.1,1.9c1.2,0.9,2.2,1.4,3.8,0.9c1.7-0.6,3,0.5,2.7,2.2
		c-0.1,1-0.4,1.9-0.8,2.8c-0.7,1.8-1.3,1.9-3,1c-0.2-0.1-0.5-0.3-0.7-0.5c-1.6-1.7-3.5-1.5-4.8,0.4c-0.7,1-1.3,2.2-1.6,3.3
		c-1.7,6-3.5,12-5,18.1C66,65.1,64.9,71.1,63.8,77C63.4,78,62.9,78.7,62,78.6"/>
	<path class="st0" d="M71.5,66.5c1.6-2.9,1.1-5.4-1.3-7.3c0.2-1,0.4-2,0.7-3c0.1-0.3,0.4-0.5,0.7-0.6c0.3-0.1,0.8-0.2,1.1-0.3
		c-1.4-4.1,0.3-7.7,1.5-11.4c0.5-1.6,1.2-3.1,1.8-4.7c0.1,0,0.3,0.1,0.4,0.1c1.5,10.5,3.1,21,4.7,31.6c-4.7,0.8-9.4,1.5-14.2,2.2
		c0.7-3.1,1.3-6.1,2-9.2C69.9,64.8,71.5,64.5,71.5,66.5z"/>
</g>
</svg>
