<?xml version="1.0" encoding="utf-8"?>
<!-- Generator: Adobe Illustrator 21.0.0, SVG Export Plug-In . SVG Version: 6.00 Build 0)  -->
<svg version="1.1" id="Capa_1" xmlns="http://www.w3.org/2000/svg" xmlns:xlink="http://www.w3.org/1999/xlink" x="0px" y="0px"
	 viewBox="0 0 115 107" style="enable-background:new 0 0 115 107;" xml:space="preserve">
<style type="text/css">
	.st0{fill:#666666;}
</style>
<title>tech-icon1</title>
<g>
	<path class="st0" d="M43.4,83.1c0-0.4,0.1-0.8,0.1-1.3c1.4,0,2.7,0,4.1,0c0.6,0,1.3,0,1.9,0c1.1-0.1,1.3-0.4,1.2-1.6
		c-0.9,0-1.8,0-2.8,0c-0.9,0-1.8,0-2.7-0.2c-1.3-0.2-1.8-0.8-1.8-2.2c0-1.2,0-2.5,0-3.7c0.6,0,1.1,0,1.8,0c0,1.2,0,2.5,0,3.6
		c0,1.1,0.2,1.3,1.3,1.3c1.4,0,2.8,0,4.3,0c0-1.7,0-3.4,0-5.1c0.2-0.1,0.4-0.1,0.5-0.1c1.4-0.1,1.4-0.1,1.4,1.3c0,1.7,0,3.4,0,5
		s-0.4,2.1-2,2.6c-0.1,0.1-0.2,0.1-0.4,0.2C48.1,83.1,45.7,83.1,43.4,83.1z"/>
	<path class="st0" d="M48.4,58.3c0.4-2.7,0.3-5.5,2.7-7.5c1.6,4.4,3.9,8.6,6.9,12.2c-2.9-2.2-5.5-4.6-6.7-8.3
		c-0.1,0-0.2,0.1-0.3,0.1c-0.1,0.7-0.2,1.5-0.4,2.2c-0.1,0.4-0.1,0.8-0.2,1.3c-0.4,1.8-2.1,2.4-3.5,1.1c-1.3-1.2-2-2.8-2.5-4.5
		c-0.7-2.8-0.7-5.6,0.1-8.4c0.3-0.9,0.6-1.8,0.8-2.7c0.1-0.2,0-0.6-0.1-0.7c-1.7-1.8-2.6-3.9-3.2-6.2c-0.8-2.7-2-5-3.8-7.1
		c-0.5-0.6-0.9-1.3-1.2-2c-0.9-2.4,0.8-4.4,3.4-3.9c2,0.4,3.8,1.2,5.3,2.5c0.8,0.7,1.8,0.9,2.7,1c2.2,0.1,4.3,0.8,6.2,1.9
		c5.3,3.1,9.6,7.2,12.6,12.5c1.3,2.2,2.1,4.6,3.2,6.9c0.8,1.7,1.6,3.3,2.4,5c0.4,0.6,0.8,1.1,1.5,1.3c3.8,1.3,6.9,3.7,9.9,6.3
		c0.6,0.6,1.1,1.3,1.8,2.2c-2.7,0.6-5.1,1.1-7.6,1.5c-0.1,0.1-0.1,0.2-0.1,0.3c0.5,0.5,0.9,1.1,1.5,1.4c1.8,1.2,3.7,2.2,5.2,3.9
		c0.8,1,1.7,1.9,2.5,2.9c-0.1,0.1-0.1,0.1-0.2,0.2c-0.3-0.2-0.6-0.5-0.8-0.7c-1.7-1-3.3-2-5-3c-1.7-1-3.4-1.9-4.6-3.4
		c-0.4-0.5-0.6-1.1-1-1.5c-0.4-0.6-0.1-0.8,0.5-1.1c2.1-0.8,4.3-1.2,6.5-1.1c0.2,0,0.5,0,1-0.1c-0.4-0.5-0.7-0.8-1.1-1.1
		c-1.5-1.1-3.1-2.2-4.7-3.2c-1.4-0.8-2.9-1.3-4.4-1.8c-1.1-0.4-2-0.8-2.5-2c-1.4-2.9-2.9-5.8-4.1-8.8c-1.8-4.6-4.6-8.4-8.4-11.6
		c-1.7-1.4-3.6-2.6-5.4-3.7c-2-1.2-4.1-1.6-6.4-1.6c-0.8,0-1.3-0.4-1.9-0.8c-1.5-1.3-3.3-2.1-5.2-2.5c-0.4-0.1-1.1,0.1-1.3,0.3
		c-0.3,0.4-0.3,0.9-0.1,1.4c0.1,0.5,0.4,0.9,0.7,1.3c0.1,0.1,0.2,0.3,0.3,0.4c2.2,2.5,3.4,5.4,4.4,8.6c0.5,1.7,1.2,3.2,2.5,4.5
		c0.6,0.6,0.8,1.3,0.6,2c-0.5,1.5-1.1,2.9-1.3,4.5c-0.4,2.9-0.1,5.8,1.3,8.4C47.1,57.7,47.5,58.2,48.4,58.3z"/>
	<path class="st0" d="M39.7,80.3c0-2.6,0-5.1,0-7.5c-0.1,0-0.1-0.1-0.1-0.1c-0.1,0.3-0.3,0.5-0.4,0.8c-0.8,1.9-1.7,3.8-2.5,5.6
		c-0.4,0.8-0.8,1.3-1.8,1.3c-1,0-1.5-0.4-2-1.3c-0.8-1.9-1.7-3.8-2.5-5.8c-0.1-0.2-0.2-0.5-0.5-0.7c0,2.5,0,4.9,0,7.4
		c-0.6,0-1.2,0-1.8,0c0-0.3,0-0.6,0-0.8c0-2.1,0-4.2,0-6.4c0-1.3,0.2-1.5,1.3-1.8c1.2-0.3,2.1,0.1,2.5,1.1c0.8,2,1.7,3.9,2.5,5.8
		c0.1,0.3,0.3,0.6,0.5,0.9c1-2.2,1.9-4.4,2.9-6.4c0.7-1.5,1.7-1.9,3.2-1.3c0.4,0.1,0.7,0.6,0.7,1c0.1,2.5,0.1,5,0,7.4
		c0,0.2-0.4,0.4-0.6,0.5C40.6,80.4,40.2,80.3,39.7,80.3z"/>
	<path class="st0" d="M72.9,79.9c0.6,0.6,1.1,1.1,1.7,1.5c-1.5,0.3-1.8,0.1-2.9-0.8c-0.4-0.3-0.9-0.5-1.4-0.5c-1.1-0.1-2.2,0-3.4,0
		c-1.4-0.1-2.7-0.8-2.5-2.6c0.1-1.3,0-2.7,0-4c0-1.1,0.4-1.8,1.5-2c2.1-0.6,4.3-0.4,6.5-0.1c1.3,0.2,1.6,0.8,1.6,2.2
		c0,1.3,0,2.7,0,4.1C74,78.7,73.8,79.4,72.9,79.9z M69.6,79.1c0-0.1,0.1-0.1,0.1-0.2c-0.4-0.4-0.8-0.8-1.3-1.2
		c1.1-0.1,2-0.1,2.7,0.7c0.2,0.2,0.6,0.3,0.8,0.4c0.1-0.4,0.4-0.6,0.4-1c0.1-1.3,0-2.6,0-3.9c0-1-0.4-1.4-1.4-1.4
		c-1.1,0-2.2,0-3.4,0c-1,0-1.3,0.4-1.4,1.3c-0.1,1.3,0,2.6,0,3.9c0,0.7,0.3,1.3,1.1,1.4C68.1,79.2,68.8,79.1,69.6,79.1z"/>
	<path class="st0" d="M63,71.3c0,0.4,0,0.8,0,1.2c-1.5,0-3.1,0-4.6,0c-0.3,0-0.5,0-0.8,0c-1.2,0-1.5,0.2-1.5,1.1
		c-0.1,1.2,0.4,1.7,1.5,1.8c0.9,0.1,1.8,0,2.7,0c0.3,0,0.6,0,0.8,0.1c1.5,0.4,1.9,1.1,1.8,3c-0.1,0.8-1.1,1.7-2.2,1.8
		c-2,0.1-3.9,0.1-5.8,0c-0.2,0-0.4-0.4-0.6-0.5c0.2-0.1,0.4-0.5,0.6-0.5c1.5-0.1,3.1,0,4.6,0c1.3,0,1.8-0.6,1.7-1.8
		c-0.1-0.6-0.4-0.9-0.9-1c-0.9-0.1-1.8-0.1-2.7-0.1c-0.4,0-0.9,0-1.3-0.1c-2-0.4-2.1-1.3-1.8-3.2c0.1-1,1.1-1.6,2.5-1.6
		C58.8,71.2,60.9,71.3,63,71.3z"/>
	<path class="st0" d="M77.3,75c0,0.9,0,1.8,0,2.7c0,1.1,0.3,1.5,1.5,1.5c1.5,0,2.9,0,4.4,0c0.4,0,0.9-0.1,0.8,0.6
		c0,0.6-0.5,0.5-0.8,0.5c-1.6,0-3.2,0-4.8,0c-2.1-0.1-2.9-1.1-2.9-2.9c0.1-1.8,0.1-3.5,0-5.3c0-0.7,0.4-0.8,0.9-0.7
		c0.5,0,1.1-0.1,1,0.7C77.3,73,77.3,74,77.3,75z"/>
	<path class="st0" d="M47.1,32.6c1.2-0.2,1.8,0.1,2.2,1c0.4,0.8,0.1,1.3-0.4,1.9C48.3,34.5,47.7,33.6,47.1,32.6z"/>
</g>
</svg>
