<?xml version="1.0" encoding="utf-8"?>
<!-- Generator: Adobe Illustrator 21.0.0, SVG Export Plug-In . SVG Version: 6.00 Build 0)  -->
<svg version="1.1" id="Capa_1" xmlns="http://www.w3.org/2000/svg" xmlns:xlink="http://www.w3.org/1999/xlink" x="0px" y="0px"
	 viewBox="0 0 115 107" style="enable-background:new 0 0 115 107;" xml:space="preserve">
<style type="text/css">
	.st0{fill:#868686;}
	.st1{fill:#737373;}
	.st2{fill:#7F7F7F;}
	.st3{fill:#6C6C6C;}
	.st4{fill:#717171;}
	.st5{fill:#7B7B7B;}
	.st6{fill:#6D6D6D;}
	.st7{fill:#8D8D8D;}
	.st8{fill:#747474;}
	.st9{fill:#7C7C7C;}
	.st10{fill:#A2A2A2;}
	.st11{fill:#808080;}
	.st12{fill:#909090;}
	.st13{fill:#848484;}
	.st14{fill:#8F8F8F;}
	.st15{fill:#989898;}
	.st16{fill:#686868;}
	.st17{fill:#4C4C4C;}
	.st18{fill:#7A7A7A;}
	.st19{fill:#595959;}
	.st20{fill:#6B6B6B;}
	.st21{fill:#828282;}
	.st22{fill:#666666;}
	.st23{fill:#3D3D3D;}
	.st24{fill:#646464;}
	.st25{fill:#656565;}
	.st26{fill:#6F6F6F;}
	.st27{fill:#5C5C5C;}
	.st28{fill:#818181;}
	.st29{fill:#494949;}
	.st30{fill:#131313;}
	.st31{fill:#1D1D1D;}
	.st32{fill:#1C1C1C;}
	.st33{fill:#121212;}
	.st34{fill:#0D0D0D;}
	.st35{fill:#333333;}
	.st36{fill:#505050;}
	.st37{fill:#787878;}
	.st38{fill:#999999;}
	.st39{fill:#767676;}
	.st40{fill:#272727;}
	.st41{fill:#9A9A9A;}
	.st42{fill:#2C2C2C;}
	.st43{fill:#626262;}
	.st44{fill:#7D7D7D;}
	.st45{fill:#797979;}
	.st46{fill:#6A6A6A;}
	.st47{fill:#606060;}
	.st48{fill:#5B5B5B;}
	.st49{fill:#1B1B1B;}
	.st50{fill:#313131;}
	.st51{fill:#5E5E5E;}
	.st52{fill:#3E3E3E;}
	.st53{fill:#B2B2B2;}
	.st54{fill:#A0A0A0;}
	.st55{fill:#252525;}
	.st56{fill:#515151;}
	.st57{fill:#434343;}
	.st58{fill:#A5A5A5;}
	.st59{fill:#5D5D5D;}
	.st60{fill:#B7B7B7;}
	.st61{fill:#555555;}
	.st62{fill:#484848;}
	.st63{fill:#292929;}
	.st64{fill:#101010;}
	.st65{fill:#1A1A1A;}
	.st66{fill:#4D4D4D;}
	.st67{fill:#535353;}
	.st68{fill:#525252;}
	.st69{fill:#202020;}
	.st70{fill:#363636;}
	.st71{fill:#BCBCBC;}
	.st72{fill:#D7D7D7;}
	.st73{fill:#C3C3C3;}
	.st74{fill:#444444;}
	.st75{fill:#343434;}
	.st76{fill:#2F2F2F;}
	.st77{fill:#3F3F3F;}
	.st78{fill:#3A3A3A;}
	.st79{fill:#585858;}
	.st80{fill:#262626;}
	.st81{fill:#3B3B3B;}
	.st82{fill:#5A5A5A;}
	.st83{fill:#4A4A4A;}
	.st84{fill:#2A2A2A;}
	.st85{fill:#212121;}
	.st86{fill:#2E2E2E;}
	.st87{fill:#151515;}
	.st88{fill:#E4E4E4;}
</style>
<title>tech-icon1</title>
<g>
	<path class="st0" d="M87.6,45.3c-0.1,0.1-0.2,0.3-0.1,0.3c0.5,1.8-0.1,3.4-0.3,5c-0.5,2.8-1.4,5.6-2.6,8.2
		c-2.7,6.1-7.5,9.7-13.7,11.5c-0.9,0.3-1.8,0.5-2.6,0.6c-0.1-0.3,0.1-0.4,0.3-0.5c0.4-0.2,0.9-0.3,1.3-0.5c1-0.3,2-0.8,2.3-2
		c0.1-0.5,0.6-0.9,1.3-0.7c0.5,0.1,1.1,0.1,1.6-0.2c0.5-0.3,0.6-0.8,0.1-1.2c-0.7-0.4-0.7-0.9-0.3-1.4c0.6-0.7,0.7-1.8,1.6-2.3
		c0.4-0.3,0.7-0.5,1.1-0.8c0.6-0.5,0.7-0.8,0.1-1.4c-0.3-0.3-0.4-0.7-0.3-1.1c0.5-1.3,0.5-2.7,0.7-4.1c0.3-1.8-0.2-3.5-0.1-5.3
		c0-0.5-0.5-0.8-0.4-1.4c0.1-0.2,0.2-0.3,0.4-0.3c0.9-0.1,1.7-0.3,2.6-0.3c1.2-0.2,2.3-0.5,3.5-0.6c0.7-0.1,1.4-0.3,2-0.5
		c0.5-0.1,0.8-0.4,0.9-0.9C87,45.1,87.3,45,87.6,45.3z"/>
	<path class="st1" d="M64.3,71.7c-1.4,0.2-2.8,0.3-4.2,0.3c0.1-0.8,0.9-0.9,1.5-1.2c0.1-0.1,0.3-0.1,0.5-0.1c0.1,0,0.1,0,0.2,0
		c0.1,0,0.3,0,0.4,0c0.9,0.2,1.3-0.1,1.4-1.1c0.2-0.8,0.9-1.2,1.6-1.5c0.7-0.3,1.2-0.7,1.6-1.4c0.3-0.7,1.1-0.9,1.4-1.6
		c0.1-0.1,0.1-0.1,0.2-0.1c1.2-0.2,1.2-0.3,1.1-1.6c-0.1-0.7,0.3-1.2,1.1-1.2c0.6,0.1,1.2-0.1,1.6-0.5c0.2-0.2,0.4-0.4,0.3-0.7
		c-0.1-0.3-0.3-0.3-0.6-0.3c-0.3-0.1-0.7,0.1-1,0.1c-0.3,0-0.7-0.1-0.8-0.4s0-0.6,0.3-0.9c0.1-0.1,0.3-0.3,0.4-0.4
		c0.3-0.5,0.2-0.8-0.3-0.9c-0.1,0-0.2-0.1-0.3-0.1c-2.3-0.2-3.7-1.6-4.3-3.8c-0.3-1.2-0.3-2.2-0.5-3.4c-0.1-0.5-0.4-0.9,0-1.4
		c0.1-0.1,0.2-0.1,0.3-0.1c0.5,0.3,0.5,0.8,0.7,1.3c0.2,0.5,0.3,1,0.5,1.5c0.3,0.7,0.8,1.2,1.6,1.4c1.1,0.3,2.2,0.6,3,1.4
		c0.5,0.4,0.9,0.3,1.2-0.3c0.2-0.3,0.3-0.7,0.3-1.1c0.3-1.2,0.5-2.4,0.7-3.7c0.1-0.3,0.1-0.6-0.2-0.8c-0.1-0.1-0.3-0.3-0.3-0.5
		c0.2-0.3,0.6-0.4,0.9-0.5c0.3,0.1,0.7,0.1,1.2,0.1c1,0.5,1.2,1.3,0.9,2.3c-0.4,1.6-0.6,3.3-0.9,5c-0.1,0.6-0.1,1.1,0.5,1.5
		c0.7,0.7,0.5,2.1-0.5,2.8c-1.3,0.9-1.5,1.6-1,3.2c0.1,0.4,0,0.8-0.2,1.1c-0.2,0.3-0.3,0.7-0.5,1.1c-0.3,0.3-0.7,0.4-1.1,0.5
		c-0.5,0.1-0.9,0.5-0.9,1c-0.1,1-0.8,1.6-1.7,1.8c-0.6,0.2-1.1,0.5-1.3,1.2c-0.3,1.1-1.4,1.4-2.4,1.5C66,71.3,65.1,71.5,64.3,71.7z"
		/>
	<path class="st2" d="M64.3,71.7c0.7-0.5,1.4-0.7,2.2-0.7c1.5-0.1,1.9-0.4,2.3-1.8c0.1-0.5,0.5-0.9,1.1-0.9c1-0.2,1.8-0.7,1.9-1.8
		c0.1-0.5,0.4-0.9,1.1-1c0.3-0.1,0.7-0.1,0.9-0.3c0.7-0.5,1.2-1.2,0.9-2.2c-0.1-0.5,0.3-0.7,0.7-0.9c1-0.4,1.2-0.8,0.7-1.8
		c-0.2-0.4-0.1-0.7,0.1-0.9c0.5-0.7,0.7-1.2,0.2-2c-0.3-0.5-0.1-1.2,0.1-1.8c0.3-1.8,0.2-3.7,0.4-5.6c0-0.3,0-0.5-0.1-0.8
		c-0.1-0.3-0.1-0.5,0.2-0.7c0.2-0.1,0.3-0.1,0.5,0.1c0.5,0.5,0.9,1.1,0.7,2c-0.1,0.5,0.1,1.2,0.1,1.8c0.2,2.3-0.1,4.5-0.7,6.7
		c-0.1,0.5-0.1,0.9,0.4,1.2c0.5,0.3,0.5,0.7,0.2,1.2c-0.3,0.4-0.6,0.7-1,0.9c-0.7,0.3-1.3,0.8-1.6,1.6c-0.1,0.3-0.3,0.5-0.5,0.7
		c-0.5,0.9-0.5,0.9,0.3,1.4c0.6,0.3,0.6,0.8,0.2,1.2c-0.6,0.7-1.5,0.9-2.4,0.8c-0.5-0.1-0.9,0.1-0.9,0.5c-0.3,1.4-1.4,1.8-2.6,2.2
		c-0.5,0.2-1.2,0.1-1.7,0.6C66.9,71.5,65.7,71.7,64.3,71.7z"/>
	<path class="st3" d="M62.2,71c-0.8,0.1-1.3,0.9-2.1,1.1c-0.1,0-0.3,0-0.5,0c-0.9-0.1-1.8-0.1-2.8,0c-5.1,0.1-10.1-0.5-14.9-2.1
		c-0.2-0.1-0.4-0.2-0.6-0.3c-1.9-0.8-3.5-2-5.3-3.1c-0.4-0.3-0.8-0.6-0.9-1.2c-0.1-0.4-0.3-0.7-0.6-1c-0.1-0.2-0.3-0.4-0.1-0.7
		c0.3-0.2,0.5-0.1,0.7,0.1c0.6,0.6,1.4,1.1,2.2,1.5c0.3,0.1,0.4,0.3,0.5,0.6c0.5,0.9,1.2,1.6,2.2,1.9c0.6,0.1,1.2,0.4,1.6,1
		c0.4,0.5,1,0.7,1.6,0.8c0.8,0.1,1.7,0.3,2.5,0.5c0.6,0.4,1.2,0.5,2,0.5c0.9,0.4,1.8,0.5,2.7,0.5c2.1,0.1,4.2,0.3,6.2-0.3
		c0.5-0.1,1-0.3,1.5-0.1c0.8,0.2,1.6-0.2,2.2-0.6c1.2-0.5,1.2-0.5,1.8,0.1C62.2,70.4,62.4,70.7,62.2,71z"/>
	<path class="st4" d="M35.4,66.4c-2.2-1.7-3.8-3.7-5-6.2c0-0.5-0.1-0.9-0.3-1.3C29.5,58,29.3,57,29.3,56c-0.1-1.3-0.2-2.6-0.2-3.9
		c0.1-1.2,0.2-2.4,0.5-3.6c0.3-0.9,0.8-1.1,1.6-0.6c-0.1,1-0.5,2-0.5,3c-0.3,2-0.1,3.9,0.3,5.9c0.1,0.6,0.3,1.2,0.5,1.8
		c0.1,0.2,0.1,0.4,0.1,0.6c-0.3,0.8,0.1,1.5,0.6,1.9c0.9,0.8,1.4,2,2.2,2.9c0.5,0.5,0.8,1.2,1.1,1.8C35.4,66,35.6,66.2,35.4,66.4z"
		/>
	<path class="st5" d="M29.1,57.2c-1.3-3.2-2.1-6.4-2.4-9.8c0-1.4,0-1.4,1.5-1.1c0.5,0.1,0.9,0.2,1.2-0.4c0.5-0.3,0.8,0.1,1.3,0.1
		c0.3,0.1,0.7,0.1,1,0.3c0.3,0.3,0.3,0.6,0.1,0.9c-0.2,0.3-0.5,0.3-0.8,0.3c-0.9-0.1-1.6,0.4-1.8,1.6c-0.5,2.2-0.5,4.3,0,6.5
		C29.4,56.6,29.4,56.8,29.1,57.2z"/>
	<path class="st6" d="M35.4,66.4c-0.4-0.8-0.9-1.7-1.5-2.4c-0.7-0.9-1.3-2-2.2-2.8c-0.5-0.5-0.8-1.2-0.6-2c0.1-0.4-0.1-0.7-0.2-1.1
		c-0.9-3-0.9-6.1-0.2-9.1c0.1-0.3,0.2-0.6,0.3-0.9c0.6-0.4,1.2-0.8,1.7-1.4c0.3-0.1,0.5,0,0.7,0.2c0.2,0.5,0.3,0.9,0.1,1.5
		c-0.1,0.1-0.1,0.1-0.2,0.2c-0.1-0.1-0.3-0.1-0.4-0.1c-0.1,0,0,0-0.1,0c-1.2,0.1-1.2,0.1-1.4,1.2c-0.4,2-0.3,4-0.1,6.1
		c0.1,1.3,0.7,2.5,0.7,3.9c0,0.7,0.4,1.4,0.9,1.8c0.7,0.5,1.1,1.3,1.4,2c0,0.1,0,0.1,0,0.1c0.3,0.7,0.9,1.4,1.2,2.2
		c0.1,0.3,0.3,0.4,0.6,0.5c1.8,0.9,3.4,2.3,5.1,3.3C39.2,68.9,37.2,67.9,35.4,66.4z"/>
	<path class="st7" d="M87.6,45.3c-0.3,0.1-0.5,0.1-0.7,0.3c-0.8,0.8-1.8,1-2.8,0.9c-0.4-0.3-0.5-0.6-0.5-1.1c0.1-0.9,0-1.8,0.1-2.7
		c0.1-0.5,0.6-0.4,0.9-0.5c0.8-0.2,1.6-0.4,2.3-0.8c0.5-0.3,0.7-0.1,0.8,0.3C87.7,42.9,87.9,44.1,87.6,45.3z"/>
	<path class="st8" d="M32.7,46.9c-0.1,0.9-0.4,1.1-1.6,1.2c-0.7-0.3-0.9,0.1-1.1,0.7c-0.3,1.2-0.5,2.3-0.5,3.5c0,1-0.1,2,0.1,3
		c0.1,0.5,0.1,1.1-0.1,1.7c-0.1,0.5,0.2,1.1,0.5,1.6c0.4,0.5,0.7,1.1,0.3,1.7c-0.5-0.9-1-1.9-1.3-2.9c0.1-0.3,0-0.5-0.1-0.7
		c-0.9-2.4-0.7-4.9-0.3-7.4c0.3-1.4,0.5-1.6,2-1.8c0.5-0.1,0.9-0.1,0.7-0.8c0.1-0.1,0.2-0.2,0.3-0.2C32.2,46.4,32.7,46.4,32.7,46.9z
		"/>
	<path class="st7" d="M48.4,38.3c0.5-0.1,0.9-0.1,1.4-0.1c4.9,0,9.9,0,14.9,0c0.4,0,0.9,0.1,1.3,0.1c0.1,0.6-0.3,0.5-0.7,0.5
		c-1.2,0-2.2,0-3.4,0c-3.9,0-7.9,0-11.8,0c-0.5,0-0.9,0-1.4,0C48.4,38.9,48.2,38.8,48.4,38.3z"/>
	<path class="st9" d="M48.4,38.3c0.5,0.6,1.2,0.2,1.8,0.3c0.1,0.1,0,0.2-0.1,0.3c-0.8,0.3-1.7,0-2.5,0.3c-0.9,0-1.8-0.1-2.6-0.1
		c-0.7,0-1.5,0-2.2,0c-0.7,0.1-1.4,0.3-2.2,0.3c-1.2,0-2.4-0.1-3.7,0c-0.5,0-0.9,0.1-1.4,0.2c-0.5,0.2-1,0.1-1.4-0.2
		c-0.2-0.4,0-0.5,0.3-0.5C39.1,38.6,43.7,38.3,48.4,38.3z"/>
	<path class="st5" d="M61.9,38.7c1.1,0,2.2,0,3.2,0c0.3,0,0.7,0,0.8-0.3c4,0,8,0.2,11.9,0.5c0.3,0.1,0.5,0.3,0.3,0.6
		c-0.5,0.3-1.2,0.2-1.8,0.2c-2.8-0.5-5.7-0.2-8.5-0.3c-0.3-0.2-0.5-0.1-0.9-0.1c-1.7,0.1-3.4,0.1-5-0.3
		C61.9,38.9,61.9,38.8,61.9,38.7z"/>
	<path class="st10" d="M26.6,41.6c0-0.7,0.3-1.1,0.9-1.3c1-0.4,2-0.6,3-0.7c0.2,0.2,0.1,0.4,0.1,0.5c-0.3,0.5-0.9,0.4-1.4,0.5
		c-0.2,0.1-0.5,0.1-0.5,0.3s0.3,0.3,0.5,0.3c0.2,0.1,0.5,0.1,0.7,0.2c1.5,0.3,3,0.5,4.5,0.7c1.1,0.2,1.3,0.6,0.7,1.3
		c-0.4,0.2-0.8,0.1-1.3,0.1c-0.7-0.1-1.4-0.3-2.1-0.3c-0.3,0.1-0.6-0.1-0.9-0.2c-0.5-0.1-0.9-0.1-1.4-0.3c-0.3-0.1-0.7-0.1-1.2-0.3
		C27.6,42.4,27,42.1,26.6,41.6z"/>
	<path class="st10" d="M87.7,41.7c-0.2-0.2-0.4-0.3-0.6-0.1c-1,0.6-2.1,0.7-3.3,1.1c-0.1,0.4-0.5,0.5-0.9,0.5
		c-0.5,0.1-1.1,0.2-1.6,0.2c-0.4,0-0.8,0.1-1.2-0.1c-0.2-0.2-0.3-0.4-0.1-0.7c0.1-0.1,0.1-0.3,0.3-0.3c0.4-0.1,0.8,0,1.2-0.1
		c1.2-0.4,2.4-0.5,3.6-0.9c0.3-0.1,0.6-0.1,0.6-0.4c0-0.3-0.3-0.3-0.5-0.3c-0.1-0.1-0.3-0.2-0.4-0.3c-0.2-0.2-0.7-0.3-0.2-0.7
		c0.7,0.1,1.4,0.3,2.1,0.5C87.3,40.5,87.7,41,87.7,41.7z"/>
	<path class="st11" d="M26.6,41.6c0.7-0.1,1.2,0.4,1.8,0.6c0.1,0.9,0.1,1.8,0.1,2.6c0,0.4-0.1,0.7-0.5,0.9c-0.7,0.1-1.2-0.3-1.3-1.1
		c-0.1-0.9,0.1-1.8-0.1-2.6C26.6,41.9,26.6,41.8,26.6,41.6z"/>
	<path class="st12" d="M26.6,42c0.3,0.6,0.2,1.3,0.1,2c-0.1,0.9,0.3,1.4,1.2,1.6c0.5-0.3,0.9-0.1,1.4,0.2c0.1,0.1,0.2,0.1,0.2,0.3
		c0.3,0.7,0,0.9-0.7,0.8c-0.2-0.1-0.5-0.1-0.7-0.2c-1-0.3-1-0.3-1.4,0.7c-0.1-0.5-0.2-0.9,0-1.5c0.2-0.4-0.2-0.7-0.2-1.2
		C26.6,43.9,26.6,43,26.6,42z"/>
	<path class="st13" d="M78.2,39.3c-0.1-0.1-0.2-0.3-0.3-0.5c1.6,0.1,3.1,0.3,4.7,0.5c0.3,0.2,0.4,0.5,0.1,0.7
		c-0.7,0.3-1.5-0.1-2.2-0.1c-0.5-0.1-1-0.3-1.6-0.3C78.6,39.8,78.3,39.7,78.2,39.3z"/>
	<path class="st14" d="M30.4,39.9c0.1-0.1,0.1-0.3,0.1-0.5c1.3-0.2,2.6-0.4,3.9-0.5c-0.1,0.1-0.2,0.3-0.3,0.5
		c-0.1,0.3-0.4,0.4-0.7,0.4c-0.7,0.1-1.4,0.3-2.2,0.3C31,40.3,30.6,40.4,30.4,39.9z"/>
	<path class="st15" d="M82.7,39.8c-0.1-0.1-0.4-0.1-0.2-0.5c0.7,0,1.3,0.1,2,0.3c-0.1,0.3,0.2,0.3,0.3,0.5c-0.1,0.3-0.4,0.2-0.6,0.3
		C83.7,40.3,83,40.5,82.7,39.8z"/>
	<path class="st1" d="M56.9,72.1c0.9-0.1,1.8-0.5,2.8,0C58.7,72.1,57.8,72.2,56.9,72.1z"/>
	<path class="st16" d="M84,47.2c-1.2,0.3-2.4,0.5-3.5,0.6c-0.3-0.2-0.3-0.5-0.2-0.8c0.3-0.7,0.9-0.4,1.4-0.6
		c0.7-0.1,1.5-0.5,2.2-0.1C84.1,46.6,84.2,46.9,84,47.2z"/>
	<path class="st17" d="M77.6,48.3c-0.1,0-0.3,0-0.5,0c-0.3,0.4-0.7,0.4-1.2,0.1c-0.4,0-0.7,0-1.2,0c-0.5-0.1-1.1-0.1-1.4-0.7
		c0-0.1,0.1-0.2,0.2-0.3c0.1-0.1,0.3-0.1,0.5-0.1c0.2,0,0.3-0.1,0.5-0.1c0.7-0.1,1.4-0.3,2-0.2c0.5,0.2,1.2,0.3,1.2,1
		C77.8,48.3,77.6,48.3,77.6,48.3z"/>
	<path class="st18" d="M84,47.2c-0.1-0.3-0.1-0.5-0.1-0.8c0.1-0.1,0.3-0.1,0.3-0.1c0.9-0.2,1.8-0.4,2.8-0.7c0.1,0.6-0.2,0.9-0.8,1.1
		C85.4,46.9,84.7,47.1,84,47.2z"/>
	<path class="st19" d="M77.8,48.2c-0.4-0.2-0.6-0.7-1.2-0.7c-0.1-0.1,0.1-0.3,0.2-0.3c0.8-0.3,1.7-0.3,2.5-0.5
		c0.3,0.1,0.8-0.1,1,0.3c0,0.3,0,0.5,0,0.8C79.6,48,78.7,48.2,77.8,48.2z"/>
	<path class="st20" d="M62.2,71c-0.1-0.1-0.2-0.3-0.3-0.5c0.1-0.5,0.6-0.6,0.9-0.8c0.3-0.2,0.5-0.5,0.3-0.9
		c-0.2-0.4-0.1-0.8,0.3-1.1c0.3-0.3,0.7-0.3,1.1-0.1c0.6,0.3,1.3,0,1.6-0.5c0.2-0.3,0.1-0.5-0.2-0.7c-0.5-0.3-0.5-0.7-0.2-1.3
		c0.5-0.8,0.8-1.6,1.4-2.4c0.3-0.3,1-0.4,0.8-1c-0.1-0.5-0.7-0.5-1.2-0.5c-0.8-0.1-1.1-0.7-0.6-1.4c0.2-0.3,0.3-0.7,0.1-0.9
		c-0.7-1.1-0.5-2.4-0.6-3.6c-0.1-1.4-0.1-2.7-0.3-4c-0.1-0.5-0.3-0.9-0.7-1.2c-0.1-0.2-0.1-0.5,0-0.7c0.3-0.2,0.5-0.2,0.8-0.1
		c0.3,0.1,0.5,0.3,0.4,0.7c0.2,1.8,0.4,3.5,0.9,5.1c0.6,1.9,1.9,2.8,3.9,2.9c0.5,0,1.1,0.1,1.3,0.7c0.2,0.5-0.3,0.9-0.6,1.2
		c-0.1,0.1-0.1,0.1-0.1,0.1c-0.1,0.1-0.5,0.3-0.3,0.5c0.1,0.3,0.5,0.1,0.7,0.1c0.4,0,0.7-0.1,1.2-0.1c0.3,0,0.7,0.1,0.9,0.5
		c0.1,0.3,0,0.7-0.3,0.9c-0.6,0.7-1.4,0.9-2.2,0.9c-0.7-0.1-0.9,0.3-0.8,0.9c0.1,1.1-0.1,1.6-1.3,2c-0.3-0.3,0-0.7,0.1-0.9
		c0.1-0.3,0.3-0.5,0.1-0.7c-0.2-0.2-0.5-0.1-0.7,0c-0.3,0.1-0.7,0.3-0.7,0.7c0,0.5,0.3,0.5,0.7,0.6c0.2,0.1,0.4,0.1,0.5,0.3
		c-0.6,0.7-1.3,1.4-1.8,2.2c-0.3,0.4-0.7,0.6-1.1,0.7c-0.7,0.3-1.2,0.6-1.4,1.4c-0.6,0.6-1.3,1.2-2.2,1.2C62.3,71,62.3,71,62.2,71z"
		/>
	<path class="st18" d="M74.5,48.7c0.2,0,0.3,0.1,0.3,0.3c-0.3,1.6-0.3,3.4-0.8,5c-0.1,0.3-0.2,0.6-0.3,0.9c-0.4,0.9-1,1.1-1.8,0.4
		c-0.7-0.7-1.7-1.1-2.6-1.3c-1.3-0.2-2-0.9-2.4-2.1c-0.2-0.7-0.4-1.6-0.7-2.3c0.1-0.2,0.3-0.2,0.5-0.2c0.1,0,0.1,0,0.3,0.1
		c0.2,0.1,0.3,0.3,0.4,0.5c0.5,0.9,1.4,1.3,2.5,1.4c0.7,0,1.5,0.1,2.2,0.4c0.7,0.2,1.1,0.1,1.4-0.7c0.2-0.5,0.2-1.2,0.5-1.7
		C74.1,49,74.2,48.8,74.5,48.7z"/>
	<path class="st9" d="M75.9,48.6c0.3-0.1,0.7-0.2,1.2-0.1c0.7,1.6,0.1,3.3,0.1,4.9c0,1.2-0.2,2.3-0.3,3.5c0,0.3,0,0.5,0.2,0.7
		c0.5,0.6,0.3,1.1-0.2,1.6c-0.4,0.3-0.8,0.7,0,1.2c0.2,0.1,0.3,0.3,0.2,0.5c-0.3,0.7-0.3,1.6-1.4,1.7c-0.5,0-0.6,0.5-0.5,0.9
		c0.1,1-0.2,1.4-1.2,1.8c0.2-0.3,0.3-0.7,0.5-1.1c0.2-0.4,0.3-0.8-0.2-1.1c-0.1-0.1-0.2-0.2-0.2-0.3c-0.2-0.5,0.7-2.6,1.4-2.8
		c0.8-0.3,1-0.9,1.2-1.6c0.1-0.4-0.1-0.7-0.5-0.8c-0.6-0.1-0.7-0.5-0.6-1c0.3-1.9,0.7-3.9,1.1-5.8C76.6,49.7,76.6,49,75.9,48.6z"/>
	<path class="st21" d="M74.5,48.7c-0.3,0.5-0.4,1-0.5,1.6c-0.1,0.5-0.2,0.9-0.4,1.4c-0.3,0.4-0.6,0.9-1.2,0.6
		c-1-0.5-2.1-0.5-3.2-0.6c-1.3-0.1-2-0.9-2.3-2c0.1-0.3,0.4-0.3,0.6-0.3c1.8-0.1,3.5-0.2,5.4-0.3c0.3,0,0.6,0,0.8-0.3
		c0.1,0,0.1-0.1,0.1-0.1C74.1,48.7,74.3,48.7,74.5,48.7z"/>
	<path class="st22" d="M68.8,65.5c-0.1,0-0.2,0-0.3,0c-0.7,0-1.3,0-1.4-0.8c-0.1-0.8,0.5-1,1.1-1.3c0.1-0.1,0.3-0.1,0.4-0.1
		c0.4,0,0.9-0.2,1.3,0.3c0.3,0.4-0.1,0.7-0.3,1.1c-0.2,0.3-0.3,0.6-0.5,0.9C69,65.5,68.9,65.5,68.8,65.5z"/>
	<path class="st23" d="M73.5,47.9c0.6-0.1,0.8,0.5,1.3,0.7c-0.3,0-0.7,0-0.9,0.1l0,0C73.6,49,73.3,49,73,49c-0.5,0-0.9,0-1.4-0.2
		c-0.7-0.3-0.7-0.3-0.4-1.1c0.3-0.3,0.8-0.3,1.2-0.3C72.9,47.3,73.2,47.5,73.5,47.9z"/>
	<path class="st3" d="M62.4,71c0.8-0.2,1.5-0.7,2.2-1.2C64.1,70.9,63.3,71.2,62.4,71z"/>
	<path class="st21" d="M66.7,49.6c-0.1,0-0.3,0-0.5,0s-0.2,0-0.3,0c-0.1-0.1-0.2-0.3-0.3-0.5c0.3-0.3,0.6-0.3,0.9-0.2
		C66.8,49.2,66.9,49.4,66.7,49.6z"/>
	<path class="st24" d="M33.2,48.3c0.1,0,0.1,0,0.1,0c0.2-0.1,0.4-0.1,0.6,0.1c0.3,0.3,0.2,0.7,0.1,1.1c-0.5,2-0.7,4.1-0.2,6.2
		c0.1,0.3,0.1,0.7-0.1,1c-0.5,0.9-0.1,1.7,0.6,2.3c0.5,0.5,0.9,0.9,1,1.6c0,0.3,0.3,0.5,0.4,0.7c0.3,0.5,0.6,0.9,0.7,1.6
		c0.1,0.7,0.6,1.2,1.3,1.3c0.7,0.1,1.2,0.6,1.4,1.3c0.3,0.9,0.9,1.3,1.8,1.4c0.5,0,0.9,0.2,1.2,0.5c0.7,0.6,1.6,1,2.6,1.2
		c0.3,0.1,0.4,0.2,0.6,0.4c0.8,0.9,1.7,1.2,2.8,0.7c0.8-0.3,1.6,0.3,1.7,1.2c-0.2,0.3-0.5,0.3-0.8,0.2c-0.5-0.1-1-0.1-1.5,0
		c-0.7,0-1.4,0-2-0.5c-0.6-0.5-1.4-0.7-2.2-0.8c-0.7-0.1-1.4-0.3-2-1c-0.3-0.3-0.6-0.5-1-0.6c-1.3-0.3-2.4-0.9-2.8-2.3
		c-0.1-0.2-0.3-0.4-0.5-0.5c-0.7-0.3-1.3-0.7-1.8-1.3c-0.4-0.4-0.7-0.8-0.7-1.5c0-0.2,0-0.5-0.1-0.6c-0.9-0.9-1-2.2-1.9-3.2
		c-0.5-0.5-0.7-1.3-0.5-2.1c0.1-0.5,0.1-0.9,0.1-1.4c-0.1-2-0.2-3.9,0.2-5.8C32.6,49,32.7,48.6,33.2,48.3z"/>
	<path class="st25" d="M33.2,48.3c-0.7,2.3-0.8,4.7-0.5,7.1c0.1,0.4,0.1,0.7-0.1,1.1c-0.3,1-0.1,1.7,0.7,2.4c0,0,0.1,0,0.1,0.1
		c0.5,1.2,1.6,2.1,1.6,3.6c0,0.7,1.3,2.2,2.1,2.4c0.6,0.1,0.9,0.3,0.9,0.9c0.1,0.7,1.8,2,2.6,1.9c0.6-0.1,1,0.1,1.3,0.6
		c0.4,0.6,1,0.9,1.7,0.9c0.9,0,1.6,0.3,2,1.2c-0.9-0.3-2-0.2-3-0.7c-0.6-0.3-1.3-0.5-1.7-1.2c-0.3-0.4-0.8-0.5-1.3-0.7
		c-0.8-0.2-1.4-0.7-1.8-1.4c-0.5-0.8-1.2-1.4-2-1.8c-0.5-0.3-0.9-0.8-1.4-1.2l0,0c-0.4-0.9-0.9-1.7-1.6-2.4
		c-0.5-0.5-0.7-1.2-0.7-1.8c0-0.3,0-0.5-0.1-0.7c-0.8-2.1-0.9-4.3-0.9-6.6c0-1,0.2-2.1,0.5-3.1c0.2-0.6,0.5-0.9,1.2-0.7
		C32.9,48.3,33.1,48.3,33.2,48.3z"/>
	<path class="st22" d="M67.4,62.9c-0.4,0.7-0.9,1.5-1.3,2.2c-0.3,0.4-0.1,0.7,0.3,0.9c0.9,0.4,0.9,0.8,0.1,1.4
		c-0.7,0.5-1.3,1.2-2.2,0.5c-0.2-0.2-0.5,0.1-0.7,0.3c-0.2,0.3-0.1,0.5,0.1,0.6c0.4,0.3,0.2,0.6-0.1,0.9c-0.5,0.3-1,0.8-1.7,0.9
		c-0.4-0.6-0.9-0.5-1.4-0.1c-0.3-0.6-0.1-1.2,0.6-1.4c0.5-0.2,0.7-0.5,0.9-0.8c0.4-0.3,0.7-0.7,0.8-1.2c0.4-0.6,0.8-1.2,1.6-1.5
		c0.6-0.3,0.9-0.7,0.6-1.5c-0.3-0.9,0.1-1.4,1.2-1.3C66.6,62.5,67.1,62.4,67.4,62.9z"/>
	<path class="st25" d="M62.4,68.2c-0.3,0.5-0.7,0.7-1.2,0.9c-0.4,0.3-0.7,0.5-0.7,1.2C59.8,70.9,59,71,58,71
		c-1.3-0.1-2.6,0.3-3.9,0.5c-0.4,0.1-0.8,0.3-1.2,0.1c-1.6-0.5-3.1-0.3-4.7-0.7c-0.2-0.1-0.4-0.1-0.6-0.1c0.7-0.8,1.5-0.3,2.2-0.3
		c0.2-0.2,0.5-0.1,0.7-0.1c0.5,0.1,0.9,0,1.3-0.3c0.7-0.5,1.3-0.4,1.9-0.1c1,0.7,1.6,0.7,2.5-0.4c0.5-0.6,0.9-0.6,1.5-0.1
		c0.5,0.5,2,0.1,2-0.5c0.1-0.9,0.8-0.9,1.4-1.2C61.4,68,62,67.9,62.4,68.2z"/>
	<path class="st26" d="M29.5,46.1c-0.1,0-0.2,0-0.3,0c-0.7-1-0.4-2.1-0.3-3.2c0-0.3,0.3-0.5,0.6-0.4c0.5,0.1,1,0.1,1.5,0.3
		c0.1,0.8,0.1,1.6,0.1,2.4c0,0.5-0.1,0.8-0.4,1.2C30.2,46.3,29.8,46.2,29.5,46.1z"/>
	<path class="st25" d="M30.6,46.5c0-1,0-2,0-3c0-0.2,0.1-0.4,0.3-0.5c0.3,0,0.5,0,0.8,0.1c0.3,0.2,0.5,0.3,0.5,0.7
		c0.1,0.8,0.1,1.6,0,2.4c0,0.2-0.1,0.4-0.3,0.5c-0.1,0-0.2,0-0.3,0C31.2,46.5,30.9,46.5,30.6,46.5z"/>
	<path class="st3" d="M32.9,48.3c-0.6,0-0.7,0.5-0.8,0.9c-0.5,2.1-0.6,4.2-0.2,6.3c0.1,0.5,0.1,0.9,0.1,1.4c0,0.1-0.1,0.4,0,0.5
		c0.9,1.1,0.6,2.6,1.3,3.7c0.1,0.1,0.1,0.3,0.2,0.3c1.1,0.4,1,1.4,1.2,2.2c-0.9-1.4-2.6-2.2-2.8-3.9c-0.1-1.6-0.7-3-0.8-4.6
		c-0.2-2-0.1-3.9,0.3-5.9C31.4,48.2,31.8,48,32.9,48.3z"/>
	<path class="st27" d="M31.8,46.6c-0.1-1.2,0.1-2.4-0.1-3.6c0.7,0.1,1.4,0.1,2.1,0.3c0.1,0.9,0.1,1.8,0.1,2.6c0,0.3,0,0.7-0.4,0.9
		c-0.1,0-0.1,0-0.1,0c-0.2,0-0.4,0-0.7,0C32.4,46.8,32.1,46.7,31.8,46.6z"/>
	<path class="st3" d="M33.8,48.6c-0.1-0.1-0.3-0.1-0.5-0.1c0-0.5,0-0.9,0-1.4l0,0c0.3-0.1,0.5-0.2,0.7,0.1c0.1,0.3,0.3,0.5,0.5,0.8
		c0.3,0.3,0.3,0.6,0,0.9C34.3,48.9,34,48.8,33.8,48.6z"/>
	<path class="st28" d="M84.1,46.2c-0.1,0.1-0.2,0.1-0.3,0.1c-0.7,0.1-1.4,0.2-2.1,0.3c-0.3,0.1-0.7,0.1-0.7-0.3
		c-0.1-1.1-0.4-2.2,0.3-3.3c0.8-0.3,1.8-0.3,2.6-0.5c0.3,0.9,0.1,1.8,0.1,2.7C84,45.7,83.9,46,84.1,46.2z"/>
	<path class="st29" d="M61.9,38.7c0,0.1,0,0.1,0,0.1c-0.5,0.5-1.2,0.4-1.8,0.4c-0.3,0-0.7,0-1,0c-0.8,0-1.6,0-2.4,0.1
		c-0.7,0-1.4-0.2-2.2,0.1c-0.3,0-0.7-0.1-1-0.1c-0.9,0.1-1.9,0-2.8-0.1C50.3,39,50.1,39,50,38.8c0-0.1,0-0.1,0-0.1
		C54.1,38.7,58,38.7,61.9,38.7z"/>
	<path class="st30" d="M34.3,42.7c-1.6-0.1-3.1-0.5-4.7-0.8c-0.3-0.6,0.1-0.9,0.6-1.1c0.9-0.3,1.9-0.7,2.8-0.8
		c1.4-0.3,2.9-0.4,4.3-0.4c-0.1-0.1-0.5,0.2-0.5-0.2c1.2-0.1,2.4-0.3,3.7-0.2c1.4-0.1,2.8,0,4.3,0.3c0.5,0.1,0.7,0.7,0.4,1.1
		c-0.5,0.6-0.7,1.4-1.2,2c-0.2,0.3-0.5,0.6-0.9,0.5c0.3,0.1,0.5-0.1,0.8-0.1c0.2,0,0.4,0.1,0.4,0.3c0.1,0.2-0.1,0.3-0.3,0.3
		c-0.3,0.2-0.7,0.3-1.1,0.3c-0.2,0-0.3-0.1-0.5-0.1c-0.5-0.1-1.2,0.1-1.7-0.1c-0.3-0.1-0.5-0.1-0.9-0.1c-1.4,0-2.8-0.1-4.3-0.4
		C35.3,43.1,34.8,42.7,34.3,42.7z"/>
	<path class="st31" d="M43.2,43.5c0.3-0.1,0.6-0.1,0.9-0.2v-0.1c-0.6,0-1.2,0-1.8,0c1.4,0.2,1.6-0.9,2-1.8c0.1-0.1,0.1-0.3,0.2-0.5
		c0.1-0.3,0.8-0.5,0.5-1c-0.3-0.4-0.9-0.6-1.3-0.5c-1.1,0.2-2-0.4-3.1-0.3c0.7-0.2,1.4-0.1,2.2-0.1c0.7,0.1,1.4,0.1,2.2,0.1
		c0.1,0,0.2,0,0.1,0v-0.1c0.9-0.2,1.8-0.1,2.6-0.1c0.1,0.1,0.2,0.1,0.3,0.1c0.6,0,1.2,0,1.8,0c0.5,0,1,0.1,1.2,0.7s-0.3,0.7-0.7,0.9
		c-1.1,0.3-1.9,0.9-2.2,2.2c-0.2,0.8-0.9,0.5-1.6,0.6c0.4,0,0.8,0.1,1.2-0.1c0.1-0.1,0.3,0,0.3,0.2c0,0.2-0.1,0.3-0.3,0.3
		c-0.4,0.1-0.7,0-1.2,0c-0.8,0.1-1.6,0.3-2.5,0.1C43.6,43.8,43.3,43.9,43.2,43.5z"/>
	<path class="st32" d="M36.9,39.3c0.4,0.3,0.9,0.1,1.5,0.2c-1.5,0.1-2.8,0.2-4.2,0.5c-1.3,0.3-2.6,0.7-3.9,1.2
		c-0.3,0.1-0.5,0.5-0.7,0.7c-0.5-0.1-1-0.2-1.6-0.5c-0.2-0.1-0.5-0.2-0.5-0.5s0.3-0.3,0.5-0.4c0.7-0.3,1.6-0.4,2.3-0.6
		c1.2-0.1,2.5-0.3,3.7-0.5C35.1,39.7,36,39.3,36.9,39.3z"/>
	<path class="st33" d="M47.7,39c-0.1-0.1-0.1-0.1-0.1-0.1c0.9,0,1.7,0,2.6-0.1c0.9,0,1.7,0,2.6,0c0.3,0,0.6,0,0.9,0.1
		c-0.1,0.3-0.3,0.4-0.7,0.5C51.2,39.5,49.5,39,47.7,39z"/>
	<path class="st34" d="M44.9,39c0.2,0,0.4,0.1,0.6,0.1c-0.9,0.1-1.9,0.3-2.8,0C43.4,39,44.2,39,44.9,39z"/>
	<path class="st29" d="M59,38.9c0.9,0,2,0,2.9,0c1.6,0,3.3,0,4.9,0c0.3,0,0.7,0,1,0.2c0.3,0.7,0.9,0.9,1.6,1
		c2.1,0.3,4.2,0.7,6.3,1.3c0.7,0.2,1.3,0.5,1.7,1.1c0.1,0.2,0.3,0.4,0.1,0.7c-0.9,0.5-2,0.3-2.9,0.5c-0.3,0.1-0.5-0.1-0.8,0
		c-0.8,0.1-1-0.1-0.8-0.8c0.2-0.6-0.3-0.7-0.7-0.9c-1.2-0.4-2.4-0.7-3.7-0.8c-0.9-0.1-1.8-0.3-2.6-0.4c-0.7-0.3-1.4-0.6-2-1
		c-0.6-0.4-1.5-0.3-2.2,0.1c-0.7,0.3-1.4,0.6-2.1,0.7c-0.8,0.2-1.7,0.2-2.5,0.4c-0.3,0.1-0.5,0.4-0.8,0.5c-0.5,0.2-0.7,0.5-0.7,1.1
		s-0.1,1.1-0.6,1.5c-0.2,0.1-0.3,0.1-0.5-0.1c-0.5-1,0.1-3,1.1-3.5c0.5-0.3,1-0.5,1.6-0.6C58.1,39.7,58.5,39.1,59,38.9z"/>
	<path class="st23" d="M77.6,42.9c-0.2,0-0.4,0-0.5-0.2c-0.5-0.8-1.3-1.1-2.1-1.3c-1.8-0.3-3.7-0.7-5.6-0.9
		c-0.3-0.1-0.7-0.1-1.1-0.2c-0.9-0.3-0.9-0.5-0.4-1.2c2.6-0.1,5.3,0,8,0.1c0.2,0,0.4,0.1,0.6,0.1c-0.1,0.5-0.7,0.3-1,0.4
		c-0.3,0.1-0.9,0-0.9,0.5c0,0.3,0.6,0.3,0.9,0.4c1.5,0.3,2.9,0.7,4.3,1.4c0.3,0.1,0.6,0.2,0.6,0.6c-0.1,0.1-0.1,0.1-0.1,0.1
		C79.4,43.2,78.2,43.3,77.6,42.9z"/>
	<path class="st35" d="M80.3,42.5c-1.7-1-3.6-1.2-5.4-1.7c-0.5-0.1-1.5-0.1-1.5-0.7s0.9-0.5,1.4-0.7c0.5-0.2,1.1-0.1,1.6-0.1
		c0.6,0,1.2,0,1.8,0c0.7,0.1,1.6,0.2,2.3,0.3c-0.3,0.8-1.1,0.7-1.8,1.2c1.1,0.5,2,1,3,1.1c0.5,0.3,0.1,0.5-0.2,0.6
		C81.2,42.5,80.7,42.5,80.3,42.5z"/>
	<path class="st36" d="M33.9,47.1c-0.2-0.1-0.4-0.1-0.7-0.1c0.3-0.9,0.1-1.8,0.1-2.6c0-0.3-0.1-0.7,0.3-0.9c0.4,0,0.8,0,1.3,0
		c0.5-0.1,1.2-0.5,1.6,0.3c-0.5,0.8-0.5,1.7-0.5,2.6c0,0.4-0.1,0.8-0.3,1.2C35.1,47.7,34.5,47.6,33.9,47.1z"/>
	<path class="st37" d="M29.5,42.5c-0.3,0.2-0.3,0.5-0.3,0.8c0,0.9,0,1.8,0,2.7c-0.4-0.1-0.9-0.3-1.3-0.5c0.3-0.8,0.1-1.6,0.1-2.4
		c0-0.3-0.1-0.7,0.3-0.9C28.7,42.2,29.1,42.3,29.5,42.5z"/>
	<path class="st38" d="M36.6,43.7c-0.5-0.1-1-0.2-1.5-0.3c0.2-0.8-0.6-0.3-0.8-0.7c2.2,0.2,4.5,0.4,6.8,0.6c0.1,0.5-0.4,0.6-0.7,0.7
		c-0.6,0.1-1.2,0.2-1.9,0.1c-0.4-0.1-0.8,0-1.3-0.1C37,44,36.7,43.9,36.6,43.7z"/>
	<path class="st39" d="M81.3,43.2c0,0.9,0,1.8,0,2.8c0,0.3,0,0.7,0.5,0.8c-0.4,0.1-0.9,0.2-1.3,0.3c-0.3,0.1-0.7,0.1-0.9,0.1
		c-0.9-0.3-1-0.3-1-1.3c0-0.9-0.1-1.8,0.2-2.6c0.5-0.5,1.1-0.3,1.6-0.1C80.6,43,81,43.1,81.3,43.2z"/>
	<path class="st40" d="M81.6,42.5c-0.3-0.3,0.2-0.3,0.2-0.4c-0.2-0.1-0.5-0.2-0.7-0.3c-0.3-0.1-0.5-0.3-0.5-0.7
		c0-0.3,0.1-0.5,0.5-0.7c0.3-0.1,0.5-0.2,0.9-0.2c0.8-0.1,1.6,0.1,2.4-0.1c0.2,0,0.4,0,0.6,0c0.3,0.1,0.7,0.2,1.1,0.3
		c0.3,0.1,0.8,0.1,0.8,0.5c0,0.3-0.4,0.5-0.7,0.5c-0.7,0.2-1.4,0.4-2,0.5C83.1,42.2,82.4,42.4,81.6,42.5z"/>
	<path class="st41" d="M80.3,43.2c-0.5,0.3-1,0.1-1.4,0.3c-0.4,0.6-1.1,0.3-1.6,0.5c-0.8,0-1.7,0.2-2.5,0.1c-0.2,0-0.3,0-0.5,0
		c-0.4-0.1-0.7,0.3-1.2,0.2c-0.2-0.1-0.4-0.1-0.6-0.1c-0.3-0.3-0.6-0.5-1.1-0.4c-0.3,0.1-0.6,0-0.6-0.4c0-0.1,0.1-0.1,0.1-0.2
		c0.7-0.3,1.5-0.4,2.2,0.1c0.2,0.1,0.4,0.1,0.6,0c1.3,0,2.6-0.1,3.9-0.3c0.9-0.1,1.7-0.1,2.6-0.2C80.2,42.9,80.2,43.1,80.3,43.2z"/>
	<path class="st42" d="M84.2,40.1c0,0.1,0.1,0.4-0.2,0.4c-0.7,0-1.4,0-2,0.1c-0.4,0.1-0.9,0-1,0.4c-0.1,0.4,0.4,0.5,0.6,0.7
		c0.1,0.1,0.1,0.1,0.2,0.3c-1.3,0.1-2.4-0.5-3.5-1c-0.2-0.1-0.4-0.2-0.4-0.5c0.1-0.3,0.3-0.3,0.5-0.3c0.7,0,1.4-0.4,2.2-0.6
		c0.7,0.1,1.5,0.1,2.2,0.1C83.2,39.9,83.7,40,84.2,40.1z"/>
	<path class="st43" d="M74.7,43.9c0.9-0.1,1.7-0.2,2.6-0.2c0.4-0.1,0.7-0.1,0.8,0.4c0.3,0.7-0.5,2.8-1.2,3.3
		c-0.1,0.1-0.1,0.1-0.1,0.1c-0.7,0.1-1.4,0.1-2.1,0.1c-0.2-0.1-0.2-0.4-0.1-0.6c0.1-0.7,0.1-1.4-0.1-2.2
		C74.4,44.6,74.3,44.1,74.7,43.9z"/>
	<path class="st44" d="M72.4,44c0.2,0,0.4,0,0.7,0c0.9,0.2,1.2,0.5,1.2,1.7c0,0.7-0.1,1.4-0.5,2c-0.1,0.1-0.1,0.1-0.2,0.1
		c-0.3,0-0.7,0-1.1,0c-0.1-0.3,0.1-0.4,0.3-0.6c0.3-0.3,0.5-0.7,0.5-1.2c0.1-0.7-0.3-1.1-0.9-1.2c-0.8-0.1-1.6-0.2-2.4,0
		C69.6,45,69.3,45,69,45c-1.4-0.1-1.9,0.5-1.8,1.8c0.1,0.3,0.2,0.7,0,1.1c-0.1,0.1-0.1,0.3-0.3,0.3c-0.9,0-1-0.1-1.1-0.9
		c-0.1-0.9-0.3-1.9,0.1-2.8c0.1-0.2,0.4-0.3,0.6-0.3c0.6-0.3,1.2-0.2,1.8-0.2c0.2,0,0.4,0,0.6,0c0.8-0.1,1.7-0.1,2.5-0.1
		C71.9,43.7,72.2,43.7,72.4,44z"/>
	<path class="st6" d="M74.7,43.9c0.1,0.9,0.1,1.9,0.1,2.8c0,0.3,0,0.7-0.1,1c-0.1,0-0.3,0-0.5,0c-0.2-0.2-0.3-0.5-0.1-0.7
		c0.3-0.7,0.2-1.5,0-2.2c-0.1-0.3-0.3-0.7,0.1-0.9C74.3,43.9,74.5,43.9,74.7,43.9z"/>
	<path class="st45" d="M74.2,43.9c0.1,1.3,0.3,2.6,0,3.9c-0.1,0-0.3,0-0.5,0c0-0.4,0.1-0.7,0.3-1.2c0.3-1.2-0.1-2-0.9-2.6
		C73.4,43.9,73.8,43.9,74.2,43.9z"/>
	<path class="st46" d="M76.9,47.4c0.4-0.8,0.5-1.8,0.7-2.6c0.1-0.4,0.2-0.9-0.4-1.1c0.5-0.3,1.1-0.1,1.6-0.1c0,0.9,0,1.7,0,2.6
		c0,0.5,0.1,0.9,0.7,1.2C78.7,47.3,77.8,47.3,76.9,47.4z"/>
	<path class="st47" d="M67.4,62.9c-0.4,0-0.9,0-1.3,0c-0.7,0-0.9,0.3-0.6,0.9c0.4,0.7,0.2,1.2-0.3,1.5c-0.8,0.4-1.5,1-2.1,1.6
		C63,67,62.9,67,62.9,67c-0.4-0.3-1-0.4-0.9-1.1c0.1-0.6,0.6-0.7,1.2-0.8c0.7-0.1,1.1-0.8,0.7-1.4c-0.3-0.4-0.3-0.7-0.1-1.2
		c0.2-0.4,0.3-0.8,0.4-1.3c0.1-0.6,0.3-1.2,1-1.4c0.5-0.3,0.7-1.1,0.3-1.6c-0.2-0.3-0.4-0.6-0.3-0.9c0.1-2.4,0.1-4.9-0.2-7.3
		c0-0.1,0-0.3,0.1-0.4c0.5,0.1,0.5,0.6,0.6,1c0.3,1.4,0.1,2.8,0.3,4.2c0.1,0.9,0.1,1.7,0.2,2.6c0,0.2,0.1,0.5,0.2,0.6
		c0.5,0.6,0.7,1.2,0.1,1.8c-0.3,0.3,0,0.7,0.4,0.7c0.3,0.1,0.5,0,0.8,0.1c0.5,0.1,0.9,0.3,1,0.8c0.1,0.5-0.2,0.9-0.6,1.1
		C67.8,62.6,67.6,62.8,67.4,62.9z"/>
	<path class="st48" d="M65,49.6c0.5,1.7,0.3,3.5,0.4,5.1c0.1,0.7,0.1,1.4-0.1,2.2c-0.1,0.4,0.1,0.7,0.4,1.1c0.7,0.8,0.5,1.8-0.4,2.2
		C65.2,60.1,65,60,65,59.7c-0.1-1.3-0.5-2.6-0.3-3.9c0.2-1.6,0.1-3.2,0.1-4.8c0-0.5-0.4-0.7-0.7-1.1c-0.3-0.2-0.5-0.5-0.3-0.9
		c0.4-0.3,0.7-0.3,1,0.1C64.8,49.4,64.9,49.5,65,49.6z"/>
	<path class="st49" d="M64.8,49.2c-0.3,0-0.7,0-0.9,0c-0.7,0.6-1.6,0.2-2.3,0.3c-0.1,0-0.3,0.1-0.4,0c-0.1,0.1-0.3,0-0.4,0
		c-0.8-0.1-1-0.5-0.6-1.3c1-0.5,2.1-0.2,3.1-0.2c0.4,0,0.9,0.1,1.3,0.1c0.9-0.1,1.7,0.5,2.5,0.5c0.1,0,0.3,0.2,0.3,0.3
		c-0.1,0.3-0.4,0.3-0.7,0.2c-0.3,0-0.7,0-0.9,0C65.4,49.2,65.1,49.2,64.8,49.2z"/>
	<path class="st7" d="M66.6,49.2c0.2-0.1,0.4-0.1,0.6-0.2c0.1-0.1,0.2-0.3,0.3-0.2c1,0.1,2-0.5,3-0.3c0.4,0.3,0.9,0.3,1.4,0.3
		c0.3-0.1,0.6-0.1,0.9,0.1c0.3,0,0.7,0,0.9,0c-0.1,0.5-0.4,0.6-0.8,0.6c-2,0.1-4.1,0.2-6.2,0.3c-0.1,0-0.1,0-0.1,0
		C66.7,49.5,66.7,49.4,66.6,49.2z"/>
	<path class="st13" d="M67.1,48c-0.1-0.5-0.2-1.1-0.3-1.6c-0.1-1,0.5-2,1.6-2c1.3,0.1,2.6-0.2,3.9-0.1c1.2,0.1,1.6,0.7,1.4,1.8
		c-0.1,0.7-0.3,1.4-1.2,1.6c-0.4,0.1-0.8,0-1.2,0.1c-0.7,0.6-1.6,0.3-2.4,0.3C68.3,48.2,67.6,48.5,67.1,48z"/>
	<path class="st50" d="M68.8,48.1c0.8,0,1.6,0,2.4-0.1c0.1,0,0.3,0,0.6,0.1c-0.2,0.1-0.4,0.1-0.6,0.3c0.6,0.3,1.2,0,1.6,0.3
		c-0.7,0.1-1.5,0.1-2.2,0.1c-0.5-0.1-1-0.1-1.6,0c-0.3,0-0.5,0.1-0.6-0.2c-0.1-0.2,0.1-0.3,0.3-0.4C68.8,48.1,68.8,48.1,68.8,48.1z"
		/>
	<path class="st51" d="M33.8,48.6c0.3,0,0.5,0,0.8,0c0.1,0,0.3,0.1,0.3,0.1c0.1,0.3,0.2,0.5,0.1,0.9c-0.5,2.2-0.6,4.4-0.1,6.6
		c0.1,0.3,0.1,0.7-0.1,1c-0.2,0.7,0,1.2,0.6,1.6c0.4,0.3,0.6,0.7,0.6,1.2c0,0.8,0.3,1.4,0.9,1.8c0.7,0.5,1.4,1.2,1.9,2
		c0.5,0.9,1.4,1.4,2.3,1.8c0.5,0.3,0.9,0.6,1.3,1c0.6,0.7,1.4,1.2,2.3,1.1c0.6,0,1.2,0.1,1.7,0.5c0.5,0.4,1.3,0.2,1.9,0.3
		c0.4,0.1,0.9,0.1,1.1,0.7c0.2,0.6,1.9,0.7,2.4,0.1c0.6-0.7,1.3-0.6,1.8,0.1c0.3,0.4,2,0.3,2-0.2c0.1-0.6,0.5-0.8,0.8-1.2
		c0.7-0.1,1.4-0.5,1.9-0.9c0.1-0.1,0.2-0.1,0.3-0.1c0.9-0.5,1.4-0.3,1.6,0.8c-0.2,0.5-0.5,0.9-0.7,1.4c-0.2,0.6-1.5,0.8-2,0.3
		c-0.5-0.5-0.9-0.4-1.2,0.1c-0.7,1-1.5,1.2-2.8,0.7c-0.6-0.2-1.2-0.3-1.8,0.2c-0.7,0.6-1.4,0.3-2.1-0.1c-0.5-0.7-1-1-1.8-0.5
		c-0.5,0.3-2.2-0.1-2.6-0.7c-0.3-0.5-0.8-0.7-1.4-0.9c-0.6-0.2-1.2-0.5-1.6-0.8c-0.5-0.3-0.9-0.5-1.5-0.4c-0.6,0.1-2-1-2.1-1.7
		c-0.1-0.5-0.3-0.9-0.9-1c-1.2-0.3-1.8-1-1.8-2.2c0-0.1,0-0.3-0.1-0.3c-0.7-0.9-0.9-2.3-2.1-3c-0.7-0.4-0.9-1.6-0.5-2.4
		c0.1-0.2,0.2-0.5,0.1-0.7C32.9,53.4,33.2,51,33.8,48.6z"/>
	<path class="st51" d="M53.7,70.5c0.6-0.1,1.2-0.1,1.8-0.2c0.3-0.1,0.6-0.2,0.7-0.5c0.2-0.6,0.7-0.7,1.2-0.8c0.2-0.1,0.4,0,0.5,0.3
		c0.1,0.6,0.5,0.5,0.9,0.3c0.3-0.1,0.7-0.1,0.5-0.7c-0.2-0.7,0.5-0.5,0.8-0.7c0.8-0.1,1.6-0.4,2.2-1.1c0.1-0.2,0.4-0.1,0.6-0.1
		c0.1,0,0.1,0,0.1,0c0,0.5-0.3,0.9-0.7,1.3c-0.4,0.1-0.8,0.2-1.2,0.3c-0.5,0.1-1,0.2-0.9,0.9c0.1,0.3-0.2,0.4-0.4,0.5
		c-0.8,0.3-1.6,0.8-2.4-0.1c-0.4-0.4-0.8,0.1-1.1,0.4C55.4,71.3,54.7,71.4,53.7,70.5z"/>
	<path class="st24" d="M34.8,48.7c-0.1-0.1-0.1-0.1-0.1-0.1c-0.2-0.5-0.7-0.8-0.7-1.4c0.6,0.1,1.2,0.1,1.8,0.1c0.1,0,0.1,0,0.1,0
		c0.6,0.5,1.3,0.8,2.1,0.8c0.4,0,0.7,0.2,1.2,0.2c0.1,0,0.3,0.1,0.4,0.1c0.4,0.7,0.3,0.7-0.6,1.1c-0.4,0-0.9-0.2-1.3-0.1
		c-0.5-0.1-1-0.1-1.5-0.2C35.6,49,35.1,49.2,34.8,48.7z"/>
	<path class="st42" d="M52.8,39c0.2,0,0.4,0,0.6,0c0.3,0,0.7,0,0.9,0c0.8,0.5,0.8,0.8,0.1,1.4c-0.8,0.7-1.6,1.4-1.7,2.5
		c-0.1,0.5-0.3,0.7-0.8,0.7c-0.6,0-1.2,0.1-1.8-0.1c-0.9-0.9-0.3-2.6,0.9-3.1c0.3-0.1,0.5-0.3,0.8-0.3C52.7,40.1,53,39.7,52.8,39z"
		/>
	<path class="st52" d="M59,38.9c-0.1,0.8-0.6,1.2-1.5,1.3c-0.3,0-0.6,0.1-0.9,0.2c-0.9,0.2-1.4,0.7-1.4,1.6
		c-0.1,0.6-0.2,1.2-0.3,1.7c-0.2,0.3-0.5,0.2-0.7,0.2c-0.2-0.1-0.4-0.1-0.6-0.3c0.3-1.3,0.1-2.7,1.5-3.5c0.6-0.3,0.9-1.1,1.6-1.3
		C57.4,38.9,58.2,38.9,59,38.9z"/>
	<path class="st35" d="M56.6,38.9c-0.3,0.8-0.8,1.4-1.7,1.7c-0.6,0.3-0.7,0.9-0.7,1.5c-0.1,0.5-0.1,1.2-0.6,1.5
		c-0.1,0.2-0.3,0.2-0.5,0.2c-1.3,0-2.6,0-3.9,0c-0.2,0-0.3-0.1-0.5-0.2c0.3-0.7,0.9-0.7,1.6-0.2c0.2,0,0.4,0,0.5,0
		c1.4,0,1.4,0,1.8-1.4c0.2-0.8,0.9-1.2,1.6-1.7c0.5-0.4,0.7-0.8,0.3-1.4C55.1,38.8,55.9,38.9,56.6,38.9z"/>
	<path class="st53" d="M43.2,43.5c0.3,0,0.5,0.1,0.8,0.1c0.6,0.2,1.2,0,1.8,0.1c0.3,0.1,0.5,0.3,0.3,0.6c-0.6,0.3-1.2,0.3-1.8,0.3
		c-0.4-0.1-0.8-0.1-1.2-0.3c-0.3-0.2-0.4-0.5-0.3-0.7C42.9,43.5,43,43.5,43.2,43.5z"/>
	<path class="st54" d="M42.7,43.5c0.2,0.1,0.4,0.2,0.3,0.5c-0.8,0.5-1.6,0.4-2.4,0.1c-0.1-0.1-0.1-0.1-0.1-0.3
		c0.2-0.2,0.5-0.3,0.7-0.5C41.6,43.6,42.1,43.5,42.7,43.5z"/>
	<path class="st55" d="M50.3,43.3c-0.5,0.1-1.1-0.1-1.6,0.1c-0.1,0.2-0.3,0.3-0.5,0.4c-0.1,0-0.3,0-0.4,0c-0.4-0.1-0.8,0.1-1.2-0.1
		c-0.1-0.1-0.1-0.1-0.1-0.3c0.3,0,0.6-0.1,0.9-0.1c0-0.1,0-0.1,0-0.1c-0.7,0-1.4,0-2.2,0c0-0.1,0-0.1,0-0.1c0.1,0,0.1-0.1,0.2-0.1
		c1.2,0.1,2-0.1,2.3-1.5c0.1-0.9,1.2-1.2,1.9-1.4c0.3-0.1,0.8-0.1,0.7-0.5c-0.1-0.5-0.5-0.5-0.9-0.5c-0.6-0.1-1.2,0.1-1.8-0.1
		c1.7,0,3.5,0,5.1,0c0.1,0.1,0.3,0.1,0.3,0.1c0.3,0.1,0.5,0.1,0.5,0.5s-0.3,0.5-0.5,0.6c-0.2,0.1-0.5,0.1-0.7,0.2
		C50.5,41,50.3,41.2,50.3,43.3z"/>
	<path class="st54" d="M46.5,43.5c0,0.1,0.1,0.1,0.1,0.1c-0.3,0.3-0.5,0.1-0.8,0.1c-0.6-0.1-1.2,0.1-1.8-0.2
		C44.8,43.5,45.7,43.5,46.5,43.5z"/>
	<path class="st19" d="M54,43.7c0.3,0,0.5,0,0.8,0c0.1,0,0.3,0,0.5,0c0.2-0.2,0.5-0.3,0.7-0.4c0.4-0.3,0.4-0.7,0.5-1.1
		c0.1-1.1,0.8-1.6,1.8-1.8c2.3-0.3,4.6-0.6,7-0.3c0.8,0.1,1.6,0.4,2.4,0.5c0.3,0.1,0.7,0.2,1.1,0.3c0.7,0.3,1.4,0.5,1.6,1.4
		c0.1,0.3,0.3,0.4,0.5,0.6c0.1,0.1,0.1,0.2,0.1,0.3c0,0.1,0,0.1-0.1,0.1c-0.1,0.3-0.4,0.3-0.7,0.3c-0.5-0.1-1.1,0-1.6-0.1
		c-0.3-0.3-0.7-0.7-0.8-1.2c-0.1-0.6-0.6-1-1.2-1.2c-2.2-0.7-4.5-0.7-6.8-0.1c-0.7,0.2-1,0.8-1.1,1.4c-0.1,0.9-0.6,1.4-1.6,1.4
		c-1.8,0-3.6,0.1-5.4,0c-0.2,0-0.3,0-0.5-0.1c-0.1-0.1-0.1-0.2-0.1-0.3C52,43.6,53,43.5,54,43.7z"/>
	<path class="st56" d="M70.8,43.4c-0.1,0-0.2,0-0.3,0c-0.1-0.1-0.1-0.1-0.1-0.1c0.4-1,0.3-1.2-0.7-1.6c-0.7-0.3-1.4-0.5-2-0.6
		c-2.2-0.5-4.5-0.7-6.7-0.5c-0.9,0.1-1.7,0.1-2.6,0.2c-0.9,0.2-1.4,0.6-1.6,1.6c-0.1,0.3-0.2,0.7-0.2,1.1c-0.1,0.3-0.3,0.5-0.5,0.4
		c-0.1-0.1-0.4-0.1-0.5-0.4c-0.2-1,0.6-2.4,1.6-2.8c0.9-0.1,1.8-0.2,2.7-0.3c2.1-0.6,4.2-0.5,6.3,0.1c1.3,0.3,2.6,0.5,3.9,0.7
		c0.8,0.1,1.6,0.3,2.4,0.5c0.5,0.1,0.9,0.3,1.2,0.7c0.5,0.5,0.4,0.7-0.3,0.9c0.1,0,0.1,0.1,0.1,0.1s0.1,0,0.3,0
		C72.8,43.5,71.7,43.3,70.8,43.4z"/>
	<path class="st29" d="M66.3,40.3c-2.1-0.2-4.2-0.1-6.3-0.1c0.6-0.3,1.2-0.6,1.8-0.9c0.9-0.5,2-0.1,2.9-0.1c0.1,0,0.1,0.1,0.1,0.1
		C64.6,40.3,65.8,39.9,66.3,40.3z"/>
	<path class="st29" d="M57.2,40.4C56.1,41,56,42,55.9,43.1c-0.1,0.2,0.1,0.4,0.3,0.5c-0.3,0-0.5,0-0.8,0c0.1-0.5,0.3-1.1,0.3-1.6
		C55.8,41.1,56.2,40.7,57.2,40.4z"/>
	<path class="st29" d="M39,48.6c-0.4-0.1-0.7-0.1-1.2-0.1c-0.1-0.3-0.3-0.5-0.5-0.5c-0.6-0.1-1.1-0.4-1.6-0.7l0,0c0-0.9,0-1.8,0-2.6
		c0-0.5,0.2-0.9,0.8-0.9c0.7,0,1.3-0.1,1.9,0.1c0.2,0.2,0.1,0.5,0.1,0.7c-0.1,1.1-0.3,2.2,0.5,3.1C39.4,48,39.2,48.3,39,48.6z"/>
	<path class="st57" d="M39,48.6c0-0.2,0-0.4-0.1-0.5c-1.2-1-0.7-2.4-0.6-3.6c0-0.1-0.4-0.7,0.3-0.6c0.6,0,1.2,0.1,1.9,0.1
		c0,0.1,0,0.1,0.1,0.1c0.3,0.1,0.5,0.3,0.4,0.7c-0.3,0.7-0.2,1.5-0.2,2.3c0,0.7-0.2,1.3-0.9,1.7c-0.1,0-0.3,0-0.5-0.1
		C39.2,48.6,39.1,48.6,39,48.6z"/>
	<path class="st58" d="M68.4,43.5c0.8,0,1.6,0,2.4,0c0.5,0,0.9,0,1.4,0c0.3,0,0.5,0.1,0.2,0.5c-1.2,0.1-2.2,0.2-3.4,0.1
		c-0.2-0.3-0.5-0.2-0.9-0.2c-0.3-0.1-0.7,0.1-0.6-0.4C67.8,43.2,68.1,43.3,68.4,43.5z"/>
	<path class="st3" d="M68.8,48.1c0,0.1,0,0.1-0.1,0.1c-0.6,0.3-1.2,0.6-1.9,0.4c-0.5-0.1-0.9-0.1-1.4-0.4c-0.3-0.3-0.3-0.7-0.3-1.1
		c0-0.7-0.1-1.3-0.1-2c0-0.8,0.3-1,1.1-0.7c-0.1,0.9-0.1,1.8-0.1,2.7c0,0.5,0.2,0.9,0.9,0.9C67.7,48.1,68.3,48.1,68.8,48.1z"/>
	<path class="st59" d="M66.3,44.5c-0.6-0.1-0.8,0.2-0.8,0.8c0.1,0.9,0.1,1.9,0.1,2.9c-0.2,0.1-0.5,0.1-0.7,0
		c-0.2-0.2-0.3-0.4-0.3-0.7c0.1-0.8-0.1-1.6-0.2-2.3c-0.1-0.6,0.1-1,0.7-1.1c0.3,0,0.6,0,0.9,0c0.3,0,0.5,0,0.6,0.3
		C66.5,44.4,66.4,44.4,66.3,44.5z"/>
	<path class="st60" d="M67.5,43.7c0.7,0.1,1.5-0.1,2.4,0.1c-0.4,0.1-0.7,0.3-0.9,0.3c-0.1,0-0.3,0-0.5,0c-0.5,0.1-0.9,0.1-1.4,0.1
		c-0.3-0.1-0.5-0.3-0.3-0.6C67,43.4,67.3,43.4,67.5,43.7z"/>
	<path class="st13" d="M67.1,44.1c0.5,0,0.9,0,1.4,0c-0.6,0.3-1.2,0.1-1.8,0.2c-0.2,0-0.4,0-0.6-0.1C66.3,43.7,66.7,44,67.1,44.1z"
		/>
	<path class="st61" d="M62.9,66.9c-0.3,0.3-0.7,0.6-1,0.9c-0.5,0.6-1.1,0.7-1.8,0.2c-0.3-1-0.9-0.7-1.6-0.5
		c-0.5-0.2-0.7-0.7-0.9-1.1c-0.3-0.6,0.1-0.9,0.6-1.1c0.3-0.2,0.7,0,1,0c0.8,0,1.2-0.4,1.2-1.2c0-0.4,0.1-0.7,0.5-0.9
		c0.4-0.2,0.7-0.6,1.3-0.7c0.7-0.1,1.2-0.7,1-1.3c-0.3-0.7-0.3-1.2,0.5-1.6c0.3-0.2,0.4-0.5,0.3-0.9c-0.3-0.9-0.1-1.7,0-2.6
		c0.3-1.9,0.2-3.9,0.2-5.8c0-0.3-0.1-0.6,0.1-0.9c0.7,0.3,0.6,0.9,0.6,1.5c0,2,0,3.9,0,5.9c0,1.1,0.5,2.1,0.3,3.2
		c-0.4,0-0.5,0.3-0.7,0.7c-0.1,0.5-0.3,1-0.5,1.5c-0.1,0.4-0.2,0.7,0.3,0.9c0.3,0.1,0.2,0.3,0.2,0.5c-0.1,1-0.7,1.5-1.7,1.6
		c-0.3,0-0.5,0.1-0.6,0.3c-0.1,0.3,0.1,0.4,0.3,0.5C62.7,66.5,62.8,66.7,62.9,66.9z"/>
	<path class="st62" d="M64.3,49.6c0.3,1,0.1,2,0.2,3c0,1.2,0.1,2.4-0.1,3.5c-0.1,0.7-0.2,1.6,0.1,2.4c0.1,0.5,0.2,1.4-0.7,1.7
		c-0.3,0.1-0.3,0.5-0.2,0.7c0.4,1.3,0.1,1.7-1.2,2c-0.3-0.4,0-0.7,0.1-1c0.2-0.4,0.5-0.8,0-1.3c-0.2-0.2-0.2-0.5,0-0.7
		c1-1.5,0.9-3.2,1.2-4.9c0.2-1.3,0.2-2.6,0.2-3.8c0-0.3,0-0.7-0.3-0.9c-0.1-0.1-0.2-0.1-0.3-0.1c-0.1-0.1-0.3-0.1-0.5-0.1
		c-0.3,0-0.5,0-0.8,0c-0.7,0.1-1.4,0.1-2.2-0.1c-0.3-0.4-0.7-0.5-1.2-0.5c-2,0-3.9,0.1-5.9,0c-0.2-0.1-0.4-0.1-0.3-0.4
		c0.1-0.1,0.3-0.2,0.4-0.2c2.8-0.3,5.6-0.3,8.3,0.2c0.9,0,1.8,0,2.8,0C63.9,49.5,64,49.6,64.3,49.6z"/>
	<path class="st63" d="M65,48.2c0.2,0,0.4,0,0.7,0c0.4,0,0.9,0,1.3,0.1c0.5,0.2,1.1-0.1,1.6,0.1c0.2,0.4,0.6,0.3,0.9,0.3
		c0.4,0,0.8-0.1,1.2,0.1c-1.2,0.1-2.2,0.2-3.4,0.1c-0.7-0.3-1.5,0-2.2-0.3c0-0.3,0.3-0.1,0.5-0.4c-1.8,0-3.5,0-5.2,0
		c-0.5,0.3-1,0.4-1.6,0.4c-1.3,0-2.6,0.1-3.9-0.1c-1.4,0.1-2-0.4-2-1.8c0-0.9,0-1.7,0.9-2.2c1.1-0.2,2.2-0.1,3.3-0.1
		c1.2,0,2.4,0,3.6,0c0.2,0,0.4,0,0.7,0c1.4,0,1.7,0.3,1.8,1.7c0,0.3,0,0.5,0,0.8c0,0.3,0,0.5,0.3,0.7c0.3,0.1,0.5,0.1,0.7,0.1
		C64.5,47.9,64.8,47.9,65,48.2z"/>
	<path class="st64" d="M54.8,48.3c1.8,0,3.7,0,5.5,0C60,48.7,60,49,60.6,49c0.2,0,0.3,0.1,0.5,0.1c-2.8,0-5.6,0-8.3,0
		c-0.1-0.6,0.3-0.4,0.7-0.5c0.4,0,0.8,0,1.1-0.4C54.6,48.3,54.7,48.3,54.8,48.3z"/>
	<path class="st65" d="M68.5,48.3c-0.5-0.1-1.1,0.1-1.6-0.1c0.6,0,1.3,0,1.9,0c0.1,0,0.1,0.1,0.2,0.1C68.8,48.4,68.7,48.3,68.5,48.3
		z"/>
	<path class="st48" d="M34.8,48.7c0.4,0,0.9-0.1,1.3,0.1c0.3,0.3,0.3,0.7,0.2,1c-0.8,2.8-0.3,5.6,0.5,8.3c0.2,0.7,0.5,1.4,0.7,2.2
		c0.1,0.7,0.6,1.2,1.3,1.4c0.5,0.2,0.8,0.5,0.9,1.2c0.1,1,1,1.8,2,1.8c0.7,0,1.2,0.3,1.5,0.9c0.5,0.7,1.2,1.2,2,0.9
		c0.6-0.1,1,0.1,1.6,0.3c0.6,0.6,1.4,1.1,2.2,1c0.4,0.3,0.9,0.4,1.2,0.9c0.3,0.3,0.6,0.2,1,0.1c0.9-0.3,2-0.8,3,0
		c0.3,0.2,0.6,0.2,0.7-0.1c0.3-0.5,0.8-0.7,1.4-0.7c0.2,0.1,0.3,0.1,0.3,0.3c-0.2,0.4-0.6,0.7-0.8,1.2c-0.3,0.7-2,0.7-2.4,0.1
		c-0.4-0.5-0.8-0.5-1.2-0.1c-1.1,0.8-2.2,0.7-3-0.3c-0.5-0.5-1.2-0.5-1.8-0.3c-0.5,0.1-0.9,0.2-1.3-0.4c-0.3-0.4-0.7-0.5-1.2-0.4
		c-1.1,0.1-2-0.4-2.6-1.2c-0.4-0.5-0.8-0.9-1.4-1.2c-1-0.6-2-1.4-2.7-2.4c-0.3-0.5-0.8-0.8-1.3-1.2c-0.8-0.5-1.5-1.1-1.3-2.2
		c0.1-0.4-0.2-0.6-0.5-0.8c-0.7-0.5-1-1.2-0.7-2c0.1-0.3,0.2-0.5,0.1-0.9c-0.5-2.4-0.5-4.7,0.1-7C34.8,49,34.8,48.8,34.8,48.7z"/>
	<path class="st66" d="M49,68.4c-0.9,0-1.8-0.2-2.2-1.2c-0.4-0.5-0.5-1.3-1.3-1.5c-0.1,0-0.1-0.2-0.1-0.3c0.3-0.5,1.1-0.1,1.2-0.8
		c0.5-0.9,0.9-1,1.9-0.4c0.3,0.1,0.4,0.3,0.6,0.5c0.7,0.7,1.7,0.6,2.4-0.2c0.4-0.5,1.5-0.6,2-0.1c1.3,1.3,1.7,1.3,2.9,0
		c0.2-0.1,0.3-0.3,0.5-0.3c0.7-0.3,1.1-0.2,1.4,0.5c0.1,0.3,0.5,0.7,0.3,1.1c-0.4,0.2-0.7,0.5-0.2,0.9c0.3,0.3,0.3,0.6,0.3,1
		c-0.4,0.7-1,0.9-1.8,0.8c-0.1,0-0.3,0-0.5,0c-0.4-0.2-0.8-0.1-1.2-0.5c-0.2-0.2-0.5-0.1-0.7,0.1c-0.7,0.7-2.4,0.8-3.2,0.2
		c-0.5-0.4-0.9-0.5-1.5-0.1C49.5,68.3,49.3,68.3,49,68.4z"/>
	<path class="st67" d="M45.5,65.5C45.5,65.5,45.5,65.5,45.5,65.5c0.5,0.3,1.1,0.1,1.4,0.5c0.3,0.4-0.2,0.9-0.1,1.3
		c-0.5-0.1-1-0.3-1.6-0.1c-0.5,0.2-2-0.6-2.2-1.2c-0.2-0.5-0.5-0.7-1.2-0.7c-1.1,0.1-2.4-1.2-2.4-2.2c0-0.4-0.2-0.6-0.6-0.7
		C37.5,61.8,37,61,37,59.7c0-0.3-0.1-0.5-0.2-0.7c-1.6-3.3-1.7-6.6-0.7-10c0.5,0,1-0.1,1.4,0.1c-0.4,1.6-0.7,3.3-0.6,4.9
		c0.1,1.2,0.5,2.3,0.5,3.5c-0.1,1,0.5,1.5,1.4,1.8c0.9,0.3,1.4,1,1.8,1.8c0.2,0.5,0.6,0.8,1.1,1.2c0.9,0.6,2,0.9,2.4,2
		c0.1,0.3,0.5,0.5,0.8,0.7C45.1,65.1,45.4,65.2,45.5,65.5z"/>
	<path class="st68" d="M37.2,57.6c-0.4-1.7-0.7-3.5-0.7-5.3c0.1-0.9,0.2-1.8,0.4-2.7c0.1-0.3,0.2-0.5,0.5-0.6c0.4,0,0.9,0,1.3,0
		c0.1,0.1,0.1,0.1,0.1,0.3c-1.2,1.9-1.1,3.9-0.7,6c0.1,0.5,0.2,0.9,0.3,1.4C38.6,57.5,38.1,57.8,37.2,57.6z"/>
	<path class="st67" d="M38.8,49.2c0-0.1,0-0.1,0-0.1c0.2-0.1,0.9,0.3,0.5-0.5c0.1,0,0.3,0,0.5,0c0.5-0.4,1.1-0.1,1.6-0.2
		c0.9,0,1.9,0.2,2.9,0.1c1.1,0.3,2.2,0.2,3.3,0.1c0.3,0,0.6-0.1,0.9,0c0.5,0.3,0.9,0.4,1.4,0.2c0.4-0.1,0.8-0.1,1.3-0.1
		c0.4,0.1,0.9,0,1.1,0.5c0.1,0.1,0.2,0.1,0.3,0.1c0.7,0.3,1.4,0.1,2.1,0.1c0.3,0.1,0.7-0.2,0.6,0.4c-0.5,0.5-1.1,0.1-1.6,0.3
		c-1,0.1-2,0.2-3-0.1c-0.9-0.2-1.8,0.1-2.6,0c-0.6-0.1-1.2,0.1-1.8-0.1c-0.9,0-1.8-0.1-2.6-0.1c-0.9-0.1-1.8-0.3-2.8-0.1
		C40.2,49.6,39.4,49.7,38.8,49.2z"/>
	<path class="st36" d="M35.8,47.3c0.5,0.1,1.1,0.1,1.6,0.3c0.5,0.1,0.7,0.3,0.5,0.9C36.9,48.4,36.1,48.3,35.8,47.3z"/>
	<path class="st69" d="M54,43.7c-0.9,0-2,0-2.9,0.1c-0.9,0.3-1.9,0.4-2.8-0.1c0.1-0.1,0.3-0.1,0.5-0.1c1.6,0,3.3,0,4.8,0
		C53.7,43.5,53.8,43.6,54,43.7z"/>
	<path class="st23" d="M41.4,48.7c-0.5,0-1.1,0-1.6-0.1c0.7-1.3,0.2-2.8,0.7-4.1c0.1-0.2-0.1-0.3-0.3-0.3c-0.1,0-0.3,0-0.1-0.1
		c0.1-0.1,0.1,0,0.3,0c0.9,0,1.7,0.1,2.6,0.1c0.3,0.2,0.7,0.1,1.2,0.1c0.2,0.4-0.1,0.5-0.3,0.7c-0.5,0.2-0.7,0.7-0.7,1.2
		c0,0.6,0.1,1.2-0.2,1.8c-0.1,0.3-0.4,0.3-0.7,0.3C41.9,48.3,41.6,48.4,41.4,48.7z"/>
	<path class="st70" d="M42.7,47.9c0-0.7,0-1.6,0-2.3c0-0.7,0.1-1.1,0.9-1.1c0.2,0,0.4-0.1,0.5-0.3c0.7,0,1.3,0,2,0
		c0.1-0.1,0.3-0.2,0.4-0.1c0.1,0,0.1,0,0.2,0.1c0.5,0.3,1,0.1,1.5,0.2c0.3,0,0.7,0.1,0.5,0.5c-0.1,0.2-0.4,0.2-0.6,0.2
		c-0.4,0-0.8,0.1-1.2,0.1c-0.9,0.1-1.2,0.3-1.2,1.2c-0.1,0.7,0.1,1.4-0.3,2c-0.1,0.1-0.3,0.2-0.5,0.1c-0.4-0.1-0.8,0.1-1.3,0
		C43.2,48.3,42.9,48.2,42.7,47.9z"/>
	<path class="st71" d="M46.5,44.2c-0.1,0-0.3,0-0.5,0c-0.1-0.1-0.2-0.3-0.3-0.5c0.3,0,0.5,0,0.8-0.1c0.4,0,0.8,0,1.3,0.1
		c0.5,0.2,1-0.1,1.5,0.2c0.1,0.1,0,0.3-0.1,0.4C48.4,44.3,47.4,44.4,46.5,44.2z"/>
	<path class="st53" d="M49.3,43.9c-0.5-0.1-1,0.1-1.5-0.1c0.1,0,0.2,0,0.3-0.1c0.9,0,1.9,0.1,2.8,0.1c0,0.1,0.1,0.1,0.1,0.1
		C50.5,44.2,49.9,44.1,49.3,43.9z"/>
	<path class="st24" d="M67.5,43.7c-0.3,0-0.5,0-0.8,0c-0.1,0.1-0.2,0.2-0.4,0.2c-1.4,0-2.9,0.1-4.3,0.2c-1.3,0-2.6,0-3.9,0
		c-0.3,0-0.7,0.1-0.9-0.3c0.6-0.1,0.8-0.5,0.9-1c0.3-1.8,0.4-1.9,2.2-2.1c2-0.2,3.9-0.1,5.8,0.1c1.6,0.2,1.9,1.4,2.2,2.6
		C68.1,43.5,67.8,43.6,67.5,43.7z"/>
	<path class="st72" d="M57.2,43.8c1.6,0,3.2,0,4.8,0c0.7-0.1,1.3-0.1,2,0c0.2,0.3,0,0.5-0.3,0.6c-0.2,0.1-0.5,0.1-0.7,0.1
		c-1,0-2,0-2.9,0c-1.6-0.5-3.1-0.3-4.7-0.3c-0.3,0-0.6,0.3-0.9,0.3c-0.2,0-0.5,0-0.7,0c-1.2-0.3-2.4,0.3-3.5,0.2
		c-0.1,0-0.3,0-0.4-0.1c-0.1,0-0.3-0.1-0.3-0.2c-0.1-0.1-0.1-0.3-0.1-0.4c0-0.1,0-0.2,0-0.3c0.6,0,1.2,0,1.8-0.1
		C53.1,43.8,55.1,43.8,57.2,43.8z"/>
	<path class="st19" d="M67.7,41c0.8,0,1.6,0.2,2.3,0.4c0.2,0.1,0.5,0.2,0.7,0.3c0.5,0.3,0.7,0.8,0.7,1.3c0,0.5-0.7,0.1-0.9,0.5
		c-0.3,0-0.5-0.3-0.6-0.5c-0.1-1.1-0.8-1.5-1.8-1.6C68,41.1,67.8,41,67.7,41z"/>
	<path class="st17" d="M60,44.3c1,0,2,0,3-0.1c0.5-0.1,0.9-0.1,1.4-0.2c0.3-0.1,0.6-0.1,0.8,0.3c-0.4,0.1-0.6,0.4-0.5,0.9
		c0.3,1,0.1,2,0.1,3c-0.3,0-0.5,0-0.8,0c-0.3-0.3-0.3-0.7-0.3-1.1c0.1-0.5,0-1.2-0.1-1.7c-0.1-0.3-0.3-0.5-0.6-0.6
		c-1-0.3-2-0.1-3-0.2c-0.3,0-0.6,0.1-0.9-0.1c-0.1-0.1-0.1-0.1-0.1-0.3C59.4,44.1,59.7,44.1,60,44.3z"/>
	<path class="st73" d="M65.3,44.3c-0.7,0-1.5,0-2.2-0.1c0.3-0.2,0.7,0,0.9-0.5c0.8-0.3,1.6,0.1,2.4-0.1c0.1,0,0.2,0,0.3,0
		c0.1,0.1,0.2,0.3,0.3,0.5c-0.3,0-0.7,0-0.9,0.1C65.8,44.3,65.6,44.3,65.3,44.3z"/>
	<path class="st74" d="M58.3,65.6c-0.2-0.3-0.5-0.7-0.7-1c-0.4-0.7-0.8-0.1-1.2,0.1c-0.5-0.1-1.3-0.7-1.3-1.2c0-0.7,0.6-0.7,0.9-0.9
		c1,0.2,1.9,0.1,2.6-0.8c0.3-0.1,0.4-0.3,0.6-0.4c0.5-0.3,0.9-0.3,1.3,0.2c0.2,0.3,0.4,0.5,0.7,0.3c0.3-0.2,0.4-0.5,0.2-0.9
		c-0.3-0.4-0.1-0.7,0.1-1.2c0.9-1.6,1.4-3.3,1.6-5.1c0.1-1.4,0.1-2.8,0.1-4.2c0-0.3,0-0.5,0.3-0.7C64,50,64,50.3,64,50.6
		c0.1,2.3-0.1,4.5-0.5,6.8c-0.1,0.2-0.1,0.4-0.1,0.6c0.1,0.7,0.3,1.5-0.6,1.9c-0.1,0.1-0.3,0.4-0.1,0.6c0.7,1-0.1,1.8-0.4,2.6
		c-0.7,0.3-1.4,0.5-1.2,1.6c0.1,0.7-0.7,0.9-1.3,1.1C59.2,65.9,58.8,65.8,58.3,65.6z"/>
	<path class="st75" d="M58.8,62.1c-0.5,0.9-1.2,1.2-2.6,0.9c-0.4-0.2-0.9-0.2-1.2-0.6c-0.3-0.3-0.6-0.2-0.9,0.1
		c-1,1.1-2.6,1.2-3.7,0.1c-0.5-0.5-0.9-0.6-1.5-0.1c-0.7,0.7-1.6,0.1-2.2-0.2s-1.5-0.7-1.4-1.7c0-0.3-0.2-0.2-0.4-0.3
		c-0.5-0.1-1-0.1-1.5-0.1c-0.4-0.2-0.9-0.4-1.2-0.8c-0.3-0.4-0.5-0.9-0.3-1.4c0.4-0.6,0.2-1.2,0-1.8c-0.7-1.8-0.8-3.7-0.2-5.7
		c0.4-1.3,0.5-1.4,1.9-1.1c0.9,0.1,1.8-0.1,2.6,0.1c0.2,0.4,0.1,0.7-0.1,1.2c-1,2.4-0.5,4.7,1.4,6.4c0.4,0.4,0.7,0.8,0.5,1.4
		c-0.1,0.5,0.1,0.9,0.6,1.1c0.7,0.3,1.5,0.3,2.1-0.3c0.9-0.7,1.5-0.7,2.4,0c1.2,0.9,2.2,0.7,3-0.6c0.2-0.3,0.4-0.5,0.7-0.7
		c1.1-0.7,1.9-1.7,2.8-2.4c1.6-1.2,1.8-2.8,1.9-4.5c0-0.5-0.1-1,0.4-1.4c0.3,0,0.5,0,0.8,0c0.1,0.2,0.2,0.3,0.2,0.6
		c0.1,2-0.1,4-0.7,6c-0.2,0.7-0.6,1.4-1.2,2c-0.2,0.2-0.4,0.3-0.7,0.3c-0.3-0.1-0.6-0.1-0.9,0c-0.9,0.1-1.1,0.5-0.8,1.3
		c0,0.1,0.1,0.2,0.1,0.3c-0.1,0.3-0.1,0.7,0.1,0.9C59.1,61.6,59.1,61.8,58.8,62.1z"/>
	<path class="st76" d="M62.1,49.8c0.1,1.4,0,2.7-0.3,4.1c-0.2,0.7-0.5,1.2-1.1,1.6c-0.2,0.1-0.4,0.3-0.6,0.5c-1.1,1.2-2.3,2.2-3.6,3
		c-0.7,0.3-0.9-0.2-1.2-0.7c-0.2-0.4,0-0.7,0.4-1c0.5-0.3,0.9-0.7,1.3-1.1c1.7-1.7,2-3.6,0.7-5.7c-0.2-0.3-0.5-0.7,0.1-1
		c0.7,0.1,1.4-0.3,2.1,0.2C60.6,49.8,61.3,49.8,62.1,49.8z"/>
	<path class="st77" d="M58.8,62.1c0-0.4-0.2-0.7-0.5-0.9c-0.5-0.4-0.3-0.7,0.1-0.9c0.2-0.3,0.5-0.3,0.7-0.3c0.9,0.1,1.7-0.2,2.1-1.1
		c1.3-2.4,1.8-5.1,1.8-7.9c0-0.4-0.1-0.9,0.2-1.2c0.1,0,0.2,0,0.3,0c0.1,2.3,0.1,4.6-0.5,6.9c-0.3,1.2-0.6,2.3-1.2,3.3
		c-0.1,0.3-0.4,0.5,0,0.7c0.3,0.2,0.4,0.5,0.2,0.8c-0.3,0.5-0.6,1.1-1.2,1.2c-0.4,0.1-0.6-0.3-0.7-0.7c-0.1-0.5-0.5-0.5-0.8-0.3
		C59.3,61.9,59.1,62,58.8,62.1z"/>
	<path class="st78" d="M63.3,49.8c0.1,2.4,0,4.7-0.7,7c-0.3,0.8-0.5,1.7-1.1,2.4c-0.5,0-0.7-0.3-0.7-0.8c1-1.4,1.6-3,1.8-4.7
		c0.1-1.3,0.2-2.6,0.2-3.9C63,49.8,63.2,49.8,63.3,49.8z"/>
	<path class="st65" d="M52.4,49.2c-0.4,0-0.7,0-1.2,0c-0.9-0.2-1.8,0.1-2.8-0.1c-0.3,0-0.5,0-0.8,0c-0.1-0.3,0.1-0.4,0.4-0.5
		c1.4-0.3,2.7-0.7,4.1-0.5c0.7,0.1,1.5,0.3,2.2,0.4c0.1,0.1,0.3,0.3,0.4,0.5c-0.7,0.3-1.5-0.1-2.2,0.3
		C52.6,49.2,52.5,49.2,52.4,49.2z"/>
	<path class="st79" d="M59.8,49.8c-0.7,0-1.5,0-2.2,0c-0.6,0.6-1.2,0.3-1.9,0.2c-0.1-0.1-0.2-0.1-0.2-0.2c-0.6-0.3-1.2-0.1-1.8-0.1
		c-0.3,0-0.7,0.1-0.9-0.3c2.2,0,4.4,0,6.6,0C59.6,49.4,60.2,49.1,59.8,49.8z"/>
	<path class="st80" d="M54.5,48.3c-0.9,0-1.8,0.1-2.7,0C50.3,48.2,49,49,47.7,49c-1.2,0-2.3,0.1-3.4-0.1c-0.3-0.5,0.3-0.5,0.5-0.8
		c0.1,0,0.3,0,0.5,0c0.3-0.4,0.7-0.3,1.1-0.3c0.9,0.1,1.2-0.2,1.3-1.2c0.1-0.7-0.2-1.4,0.4-2c0.2,0,0.4,0,0.7,0
		c0.3-0.5,0.7-0.2,1.2-0.3c0.1,0,0.2,0,0.3,0c0.9,0.1,2,0,2.9,0.1c0.3,0,0.6-0.1,0.9,0.1c0.2,0,0.3-0.1,0.5-0.1
		c0.1-0.1,0.2-0.1,0.3-0.1c1.2-0.1,2.4,0,3.7,0c0.3,0,0.5,0,0.7,0.2c1.4,0,2.8,0,4.2,0.1c0,0.3-0.3,0.3-0.5,0.4
		c-0.6-0.3-1.3-0.2-2-0.2c-2.2,0-4.3,0-6.4,0c-0.3,0-0.5-0.1-0.7,0.1c-0.4,0.7-0.5,1.4-0.5,2.2C53.3,47.9,53.6,48.3,54.5,48.3
		c0.1-0.1,0.3,0,0.5,0.1C54.7,48.3,54.6,48.3,54.5,48.3z"/>
	<path class="st50" d="M60.8,44.7c0.7,0,1.4,0,2.1,0c1.2,0.6,1.4,2.8,0.5,3.5c-0.5,0.1-0.7-0.1-0.7-0.7c0.1-0.6,0.1-1.2-0.1-1.8
		c-0.2-0.7-0.5-1.1-1.3-0.9c-0.2,0-0.3,0-0.5,0C60.6,44.8,60.6,44.7,60.8,44.7z"/>
	<path class="st81" d="M63.3,48.2c0.3-1.2,0.3-2.4-0.5-3.5c0.1-0.1,0.3-0.1,0.5-0.1c0.3,0,0.5,0.1,0.6,0.5c0.2,1.1,0.4,2.2,0.2,3.3
		C63.9,48.2,63.6,48.2,63.3,48.2z"/>
	<path class="st81" d="M60.8,44.7c0,0.1,0,0.1,0,0.1c-2.4,0-4.7,0-7.1,0c-0.3-0.1-0.5,0.1-0.9-0.1C55.5,44.7,58.1,44.7,60.8,44.7z"
		/>
	<path class="st82" d="M49,68.4c0.2-0.2,0.5-0.4,0.6-0.6c0.5-0.7,1-0.7,1.6-0.1c0.5,0.6,1.2,0.7,1.9,0.7c0.4-0.1,0.7-0.2,0.9-0.6
		c0.5-0.8,1-0.8,1.6-0.1c0.2,0.3,0.5,0.5,0.7,0.7c-0.3,0.1-0.7,0.1-0.7,0.5c0,0.3-0.1,0.6-0.5,0.6c-0.4,0-0.9,0.1-1.2-0.3
		c-0.5-0.6-1.5-0.6-2.1-0.1c-0.7,0.7-1.6,0.5-2.1-0.3C49.5,68.5,49.3,68.5,49,68.4z"/>
	<path class="st57" d="M43.6,49.5c-0.9-0.1-1.2,0.2-1.5,1.1c-0.6,2.2-0.4,4.3,0.5,6.3c0.2,0.5,0.3,0.8-0.1,1.2
		c-0.5,0.4-0.2,0.9,0.1,1.3c0.3,0.3,0.7,0.5,1,0.6c0.8,0.5,1.6,0.9,2.2,1.8c0.5,0.8,1.6,0.9,2.5,1c0.3,0,0.7-0.1,0.9,0.3
		c0.2,0.5-0.2,0.7-0.4,1.1c-0.1,0.2-0.3,0.3-0.5,0.3c-1.1-0.4-1.1-0.4-1.4,0.5c-1.1,0.5-1.8-0.3-2.6-0.7c-0.4-0.3-0.4-0.6-0.3-1.6
		c-1.1,0.5-1.7-0.2-2.4-0.7c-0.9-0.6-1.2-1.4-0.7-2.2c-1.2,0.3-1.6-0.5-2-1.3c-0.3-0.5-0.3-1,0.3-1.4c0.5-0.3,0.3-0.7,0.2-1.1
		c-0.5-1.9-0.6-3.8-0.1-5.8c0.3-1.2,0.5-1.3,1.7-1.1C41.8,49.4,42.7,49.2,43.6,49.5z"/>
	<path class="st83" d="M40.9,49.3c-0.7-0.1-1.1,0.3-1.3,1c-0.5,2.1-0.5,4.2,0.3,6.2c0.2,0.5,0.6,1.2-0.5,1c-0.1,0-0.3,0.1-0.3,0.1
		c-0.2,0.6,0.3,1,0.5,1.6c0.2,0.4,0.5,0.3,0.8,0.1c0.3-0.3,0.7-0.3,0.9,0.1c0.3,0.4,0.4,0.7-0.2,0.9c-0.5,0.1-0.5,0.5-0.2,0.8
		c0.9,1.3,1.4,1.5,2.9,1.2c0.4-0.1,0.8,0.1,0.9,0.4c0.3,0.4-0.2,0.4-0.4,0.5c-0.3,0.2-0.3,0.5,0,0.7c0.7,0.4,1.5,0.9,2.4,1
		c-0.3,0.6-0.9,0.5-1.4,0.5c-0.8-0.1-1.4-0.5-1.8-1.2c-0.3-0.7-0.9-1.1-1.6-1.4c-0.9-0.5-1.6-1.4-2.2-2.2c-0.3-0.5-0.8-0.9-1.4-1.1
		c-1.2-0.3-1.6-1.1-1.4-2c0.9-0.2,1-0.7,0.7-1.6c-0.6-2-0.5-4,0-6c0.1-0.5,0.3-0.8,0.9-0.8C39.5,49.2,40.2,49,40.9,49.3z"/>
	<path class="st52" d="M48.3,64.5c0.1-0.3,0.2-0.5,0.3-0.7c0.1-0.2,0.4-0.3,0.2-0.6c-0.1-0.2-0.4-0.3-0.7-0.3
		c-1.4,0.2-2.3-0.3-3-1.5c-0.3-0.6-1.2-0.8-1.6-1.5c0.6,0.1,1.2,0.2,1.8,0c0.3-0.1,0.6,0,0.7,0.3c0.2,0.3-0.1,0.4-0.3,0.5
		c-0.4,0.3-0.3,0.6,0.1,0.8c0.6,0.5,1.4,0.7,2.1,0.9c0.3,0.1,0.5-0.1,0.7-0.3c0.6-0.8,1-0.8,1.7,0c0.5,0.6,1.2,0.8,1.9,0.8
		c0.6,0,1.1-0.2,1.4-0.8c0.5-0.8,1.1-0.7,1.6,0c0.2,0.3,0.5,0.5,0.8,0.8c-0.3,0.1-0.6,0-0.7,0.3c-0.1,0.3,0.3,0.3,0.4,0.5
		c0.1,0.3,0.3,0.5,0.5,0.7c-0.7,1.4-2.2,1.6-3.3,0.3c-0.5-0.6-1-0.6-1.5-0.1C50.7,66,49.1,65.9,48.3,64.5z"/>
	<path class="st84" d="M55.6,49.8c0.7,0,1.3,0,2,0c1.3,1.6,1.6,3.3,0.8,5.3c-0.4,0.9-1.2,1.6-2,2.2c-1,0.7-1.2,0.8,0.1,1.8
		c0,1.4-1.6,1.7-2.6,1.4c-0.3-0.1-0.6-0.3-0.9-0.5c-0.7-0.6-1.2-0.6-1.8,0c-0.8,0.7-2,0.7-2.9,0.2c-0.5-0.3-0.7-0.7-0.5-1.4
		c0.2-0.4,0.1-0.7-0.2-1c-2.2-1.9-2.7-4.8-1.6-7c0.1-0.3-0.2-0.8,0.4-0.9c1.5,0.1,3-0.1,4.5,0.1c-0.2,0.3-0.6,0.4-0.9,0.5
		c-1,0.1-1.8,1-1.9,2.3c-0.3,3,2.5,4.5,4.6,4.3c0.9-0.1,1.8-0.3,2.4-0.9c1.7-1.4,2-3.3,0.7-5.2C55.6,50.5,55.2,50.2,55.6,49.8z"/>
	<path class="st55" d="M55.6,49.8c0.1,0.3,0.3,0.5,0.4,0.7c1.6,2.1,1,5-1.4,6.2c-2.2,1.2-4.5,0.7-6.2-1.1c-1.5-1.6-1.2-4,0.3-5.6
		c0.3-0.3,0.6-0.2,0.9-0.2c0.3,0.1,0.7,0.1,1.1,0.1c0.1,0,0.3,0,0.4,0.2c0.1,0.2-0.1,0.3-0.2,0.4c-0.1,0.1-0.3,0.2-0.5,0.3
		c-1.2,0.8-1.6,2-1.2,3.1c0.5,1.2,1.9,2,3.2,1.8c0.2,0,0.3-0.1,0.5-0.1c1.1-0.3,1.9-0.9,2.2-2c0.3-1.1-0.3-1.9-1-2.6
		c-0.3-0.3-0.9-0.6-0.3-1.2c0.5,0,1.1,0,1.6,0C55.5,49.8,55.6,49.8,55.6,49.8z"/>
	<path class="st85" d="M53.8,49.8c0,0.4,0.3,0.6,0.5,0.8c1.3,1.1,1.6,2.4,1.1,3.7c-0.6,1.3-2.3,2.2-3.7,1.9c-1.8-0.3-3-1.4-3-3
		c-0.1-1.2,0.6-2,1.6-2.6c0.2-0.1,0.3-0.2,0.7-0.4c-0.5-0.2-0.9-0.1-1.3-0.3c0.4,0,0.7,0,1.2,0C51.8,49.8,52.8,49.8,53.8,49.8z"/>
	<path class="st86" d="M44.8,48c-0.1,0.3-0.3,0.5-0.5,0.8c-0.9,0.1-2-0.1-2.9-0.1c-0.1-1.1,0.7-0.7,1.3-0.8
		C43.4,47.9,44.1,48.1,44.8,48z"/>
	<path class="st80" d="M48.5,49c0.9,0.1,1.8-0.1,2.8,0.1C50.3,49.1,49.4,49.3,48.5,49z"/>
	<path class="st86" d="M48,44.6c0,0.8,0,1.6,0,2.4c0,1-0.2,1.2-1.2,1.2c-0.5,0-1-0.1-1.5-0.1c0-0.8,0-1.6,0-2.5
		c0-0.6,0.3-0.9,0.9-0.9S47.4,44.6,48,44.6z"/>
	<path class="st87" d="M49.8,44.3c-0.3,0.2-0.7,0.3-1.2,0.3c-0.7-0.3-1.6-0.1-2.4-0.2c0-0.1,0.1-0.1,0.1-0.1c0.1,0,0.1,0,0.2-0.1
		c0.9-0.1,1.9-0.1,2.8,0C49.6,44.3,49.7,44.3,49.8,44.3z"/>
	<path class="st53" d="M49.5,44.3c-0.9,0-1.9,0-2.8,0c0-0.1-0.1-0.1-0.1-0.1c0.9,0,1.8,0,2.8,0C49.4,44.2,49.4,44.3,49.5,44.3z"/>
	<path class="st6" d="M62.9,43.5c-0.8,0-1.6,0-2.4,0c-0.4,0-0.5-0.1-0.4-0.5c0.3-1.6,0.8-2,2.4-2c0.7,0,1.4,0,2.2,0.2
		c0.5,0.1,0.9,0.3,1.2,0.9c0.4,1,0.1,1.5-0.9,1.5C64.2,43.5,63.5,43.5,62.9,43.5z"/>
	<path class="st60" d="M66.4,43.7c-0.8,0.3-1.6,0.1-2.4,0.1c-0.7,0-1.3,0-2,0C63.5,43.6,65,43.7,66.4,43.7z"/>
	<path class="st88" d="M54.7,44.3c-0.1,0-0.2,0-0.3,0c-0.2-0.3,0.1-0.3,0.2-0.3c1.6,0,3.2,0,4.8,0c0.2,0,0.4,0.1,0.5,0.3
		c-0.3,0-0.5,0-0.7,0C57.7,44.5,56.2,44.4,54.7,44.3z"/>
	<path class="st78" d="M53.9,44.5c-1.3,0-2.5,0.1-3.8-0.1C51.4,44.3,52.6,44.3,53.9,44.5z"/>
	<path class="st72" d="M54.7,44.3c1.5-0.1,3-0.1,4.5,0c0,0.1-0.1,0.1-0.1,0.1C57.7,44.4,56.2,44.6,54.7,44.3z"/>
	<path class="st76" d="M60.9,58.4c0.3,0.2,0.5,0.5,0.7,0.8c-0.2,0.8-0.8,1.3-1.7,1.3c-0.5,0-0.9-0.1-1.4-0.1
		c-0.3-0.4-0.7-0.8-0.3-1.4c0.3-0.5,0.8-0.7,1.4-0.7C60,58.2,60.5,58.2,60.9,58.4z"/>
	<path class="st49" d="M52.2,55c-1.1,0-2.1-0.9-2.1-1.8c-0.1-1.1,0.9-2,2.1-2s2.1,0.9,2.1,2C54.3,54.1,53.3,55,52.2,55z"/>
</g>
</svg>
