<?xml version="1.0" encoding="utf-8"?>
<!-- Generator: Adobe Illustrator 21.0.0, SVG Export Plug-In . SVG Version: 6.00 Build 0)  -->
<svg version="1.1" id="Capa_1" xmlns="http://www.w3.org/2000/svg" xmlns:xlink="http://www.w3.org/1999/xlink" x="0px" y="0px"
	 viewBox="0 0 115 107" style="enable-background:new 0 0 115 107;" xml:space="preserve">
<style type="text/css">
	.st0{fill:#666666;}
</style>
<title>tech-icon40</title>
<path class="st0" d="M70.5,70.4v-5.1h10.2V34.1H34.2v31h10.2v5.1c-3.8,0-7.6,0.2-11.4-0.1c-2.3-0.2-4-2.4-4.1-4.8
	c0-10.5,0-21,0-31.5c0-2.8,2.2-5,5-5c0,0,0.1,0,0.1,0c15.6,0,31.3,0,46.9,0c2.8,0,5.1,2.2,5.1,5c0,0,0,0.1,0,0.1
	c0,10.4,0,20.9,0,31.3c0.1,2.6-1.9,4.9-4.6,5.1C77.8,70.5,74.2,70.4,70.5,70.4z"/>
<path class="st0" d="M42.2,78.1l15.1-15.1l15.2,15.1L42.2,78.1z"/>
</svg>
