<?xml version="1.0" encoding="utf-8"?>
<!-- Generator: Adobe Illustrator 21.0.0, SVG Export Plug-In . SVG Version: 6.00 Build 0)  -->
<svg version="1.1" id="Capa_1" xmlns="http://www.w3.org/2000/svg" xmlns:xlink="http://www.w3.org/1999/xlink" x="0px" y="0px"
	 viewBox="0 0 115 107" style="enable-background:new 0 0 115 107;" xml:space="preserve">
<style type="text/css">
	.st0{fill:#666666;}
</style>
<title>tech-icon1</title>
<g>
	<path class="st0" d="M57.4,71.4c-4.4,0-8.9,0.2-13.4-0.1c-8.6-0.6-15.5-7.1-16.5-15.7c-1.3-11.1,6.8-19.3,16.3-20.2
		c1-0.1,2-0.1,3-0.1c7.1,0,14.1,0,21.2,0c2.6,0,5.2,0.3,7.7,1.2c8.3,3.1,12.3,11,11.7,18.1c-0.7,8.8-6.9,15.4-15.2,16.7
		c-1.5,0.2-3,0.3-4.5,0.4c-3.4,0.1-6.9,0-10.2,0C57.4,71.6,57.4,71.5,57.4,71.4z M57.4,47.3c-3.1,0-6.4,0-9.5,0
		c-0.9,0-1.6,0-2.5,0.1c-3.4,0.3-5.6,2.6-5.9,5.7c-0.2,2.8,1.8,5.5,4.6,6.1c1,0.2,2,0.2,3,0.3c6.6,0,13.2,0,19.8,0
		c0.9,0,1.6,0,2.5-0.1c3-0.2,5.3-2.1,5.8-4.8c0.6-2.6-0.6-5.4-3.1-6.5c-1.1-0.5-2.4-0.8-3.6-0.8C64.8,47.3,61.1,47.3,57.4,47.3z"/>
</g>
</svg>
