<?xml version="1.0" encoding="utf-8"?>
<!-- Generator: Adobe Illustrator 21.0.0, SVG Export Plug-In . SVG Version: 6.00 Build 0)  -->
<svg version="1.1" id="Capa_1" xmlns="http://www.w3.org/2000/svg" xmlns:xlink="http://www.w3.org/1999/xlink" x="0px" y="0px"
	 viewBox="0 0 115 107" style="enable-background:new 0 0 115 107;" xml:space="preserve">
<style type="text/css">
	.st0{fill:#666666;}
</style>
<title>tech-icon1</title>
<g>
	<path class="st0" d="M82.9,59.2c0,3.2,0,6.4,0,9.5c0,0.2-0.1,0.4-0.3,0.4c-2.1,0.7-4.3,1.4-6.5,2.1c-0.2,0.1-0.3,0.1-0.4,0.4
		c-0.7,2.3-1.4,4.7-2.1,7c-0.1,0.1-0.1,0.2-0.3,0.2c-6.2,0-12.4,0-18.6,0c-0.7,0-1.2-0.2-1.6-0.7c-1.2-1.2-2.4-2.4-3.6-3.6
		c-1.3-1.3-2.7-2.7-4-4c-1.5-1.5-2.5-3.3-3.1-5.4c-0.1-0.1-0.1-0.3-0.3-0.4c-1-0.4-1.9-0.7-2.9-1c-0.3-0.1-0.7-0.3-0.9-0.6
		c-1.9-1.9-3.8-3.7-5.7-5.7c-0.7-0.7-1-1.5-1.2-2.3c-0.2-0.9,0-1.6,0.4-2.3c1.5-2.2,2.9-4.4,4.4-6.6c1.8-2.8,3.7-5.5,5.5-8.3
		c0.2-0.3,0.5-0.6,0.8-0.8c4.8-3.2,9.5-6.2,14.2-9.4c0.1-0.1,0.4-0.2,0.5-0.4c1.1-0.9,2.2-0.8,3.4-0.3c0.7,0.4,1.4,0.9,2,1.5
		c1.7,1.7,3.4,3.4,5.1,5.1c0.3,0.3,0.6,0.7,0.7,1.1c0.3,1,0.7,1.9,1,2.9c0.1,0.1,0.1,0.2,0.3,0.3c2.3,0.7,4.2,1.8,5.9,3.5
		c2.2,2.2,4.3,4.4,6.6,6.6c0.6,0.6,0.9,1.2,0.9,2.1c-0.1,3,0,6,0,9.1C83,59.2,82.9,59.2,82.9,59.2z M75.2,70.8
		C64.4,59.9,53.5,49.1,42.6,38.2c0,0.1,0,0.2,0,0.3c0,6.8,0,13.6,0,20.4c0,1.5,0.1,3.1,0.1,4.6c0,0.5,0.1,1,0.8,1.1
		c0.4,0.1,0.7,0.3,1.1,0.4c1.7,0.6,3.4,1.2,5.1,1.8c1.7,0.6,3.4,1.2,5.1,1.8c1.3,0.4,2.7,1,4,1.4c1.5,0.5,3.1,1.1,4.6,1.6
		c1.7,0.6,3.4,1.2,5,1.8c0.1,0,0.2,0.1,0.3,0c0.7-0.3,1.4-0.6,2.1-0.9c0.8-0.4,1.7-0.7,2.5-1C74.1,71.3,74.6,71,75.2,70.8z
		 M43.2,65.2c0,0.1,0.1,0.1,0.1,0.2c0.5,1.7,1.3,3.2,2.6,4.4c1.6,1.6,3.2,3.2,4.9,4.9c1,1,2,2,2.9,2.9c0.2,0.2,0.5,0.4,1,0.4
		c6,0,12,0,18,0c0.2,0,0.3-0.1,0.4-0.2c0.6-2,1.2-4,1.8-5.9c0-0.1,0.1-0.1,0.1-0.3c-0.1,0.1-0.2,0.1-0.3,0.1
		c-1.8,0.8-3.6,1.5-5.4,2.3c-0.1,0.1-0.4,0.1-0.5,0c-6.9-2.4-13.8-4.8-20.6-7.3C46.4,66.3,44.8,65.7,43.2,65.2z M68.6,37.8
		c0-0.1-0.1-0.2-0.1-0.3c-0.3-0.8-0.6-1.7-1-2.5c-0.1-0.2-0.2-0.4-0.4-0.6c-1.8-1.8-3.5-3.5-5.3-5.3c-0.5-0.5-1.1-1-1.8-1.2
		c-0.8-0.3-1.5-0.3-2.3,0.2c-1,0.7-2,1.3-3,2c-3.7,2.4-7.3,4.8-10.9,7.2c-0.1,0.1-0.1,0.1-0.2,0.1c0,0,0,0,0,0.1c0.1,0,0.2,0,0.4,0
		c7.1,0,14.3,0,21.4,0c0.1,0,0.3,0,0.4,0C66.8,37.6,67.7,37.7,68.6,37.8z M75.5,70.4C75.5,70.4,75.5,70.4,75.5,70.4
		c0.4-0.1,0.7-0.2,1-0.7c0.7-1.8,1.5-3.4,2.3-5.1c0.1-0.1,0.1-0.4,0-0.5c-0.5-1.6-1.1-3.2-1.7-4.7c-0.5-1.5-1.1-3.1-1.6-4.6
		c-0.8-2.2-1.5-4.5-2.3-6.7c-0.4-1.3-0.9-2.6-1.4-3.8c-0.7-1.8-1.2-3.7-1.9-5.6c0-0.1-0.1-0.1-0.2-0.2c-0.1-0.1-0.4-0.1-0.5-0.1
		c0,0.1,0.1,0.2,0.1,0.3c0.3,0.9,0.7,1.8,1,2.6c0.4,1.2,0.9,2.4,1.3,3.7c0.7,1.9,1.3,3.9,2.1,5.8c0.4,1.2,0.9,2.4,1.3,3.7
		c0.7,1.9,1.3,3.9,2.1,5.8c0.4,1.2,0.9,2.5,1.3,3.8c0.1,0.1,0.1,0.3,0,0.4c-0.1,0.3-0.2,0.6-0.4,0.9c-0.6,1.4-1.2,2.8-1.8,4.2
		C75.7,69.8,75.5,70.1,75.5,70.4z"/>
</g>
</svg>
