<?xml version="1.0" encoding="utf-8"?>
<!-- Generator: Adobe Illustrator 21.0.0, SVG Export Plug-In . SVG Version: 6.00 Build 0)  -->
<svg version="1.1" id="Capa_1" xmlns="http://www.w3.org/2000/svg" xmlns:xlink="http://www.w3.org/1999/xlink" x="0px" y="0px"
	 viewBox="0 0 115 107" style="enable-background:new 0 0 115 107;" xml:space="preserve">
<style type="text/css">
	.st0{fill:#666666;}
</style>
<title>tech-icon1</title>
<g>
	<path class="st0" d="M59.9,47.6c1.8,1.8,3.5,3.6,5.2,5.3c1,1,1,1,2-0.1c3.7-3.7,7.5-7.6,11.3-11.3c0.7-0.7,0.7-1.1,0-1.7
		c-0.2-0.2-0.4-0.5-0.8-0.9c2.8-0.7,5.3-1.4,8.1-2.1c-0.7,2.8-1.4,5.4-2.1,8.1c-0.5-0.5-0.8-0.7-1.1-1.1c-0.5-0.5-0.9-0.5-1.3,0
		c-2.7,2.8-5.5,5.5-8.2,8.3c-2.1,2.1-4.1,4.1-6.2,6.2c-0.3,0.3-0.5,0.5-1.1,0.9c-1-1.1-2-2.2-3-3.3c-0.8-0.9-1.6-1.6-2.4-2.4
		c-0.5-0.6-0.9-0.3-1.3,0.1c-2.8,2.8-5.6,5.7-8.5,8.5c-0.7,0.7-1.2,1.4-2,2.2c-1.6-1.5-3-2.9-4.3-4.3c-2.4-2.4-1.6-2.2-4,0.1
		c-2.6,2.6-5.2,5.2-7.8,7.8c-0.9-0.9-1.7-1.8-2.5-2.6c4.1-4,8.2-8.2,12.5-12.4c0.5,0.4,1,0.9,1.5,1.4c1.2,1.2,2.4,2.4,3.6,3.7
		c0.5,0.6,1,0.7,1.6,0.1c3.1-3.2,6.2-6.4,9.3-9.5C59.1,48.4,59.4,48.1,59.9,47.6z"/>
	<path class="st0" d="M37.1,66c1.5,2.2,3,4.2,5.3,5.8c0.7-3.1,1.4-6,2.2-9c0.8,0.3,0.9,0.3,0.6,1.3c-0.5,2.3-1.1,4.6-1.6,6.9
		c-0.1,0.4-0.2,0.9-0.3,1.5c0.5-0.3,0.9-0.5,1.2-0.7c4.2-2.6,8.4-5.3,12.6-7.8c0.5-0.3,0.9-0.7,1.2,0.3c-2.3,1.4-4.6,2.8-6.9,4.3
		s-4.7,2.9-7.1,4.4c0.4,0.3,0.7,0.5,0.9,0.7c5.9,3.2,12,3.6,18.3,1.4c1.2-0.5,1.2-0.5,0.7-1.7c-1.2-2.8-2.5-5.5-3.7-8.3
		c0.6-0.7,0.9-0.3,1.1,0.3c1.1,2.6,2.3,5.1,3.4,7.6c0.1,0.3,0.3,0.6,0.6,1.1c0.2-0.7,0.3-1.1,0.5-1.6c0.9-3.1,1.8-6.2,2.7-9.3
		c0.1-0.3,0.4-0.5,0.7-0.7c0.1,0.3,0.3,0.7,0.2,0.9c-0.8,3-1.6,5.9-2.5,8.9c-0.1,0.3-0.1,0.6-0.3,1c3.4-0.7,9.9-9.3,9.8-12.8
		c-1.1,0.1-2.1,0.1-3.2,0.3c-0.3,0-0.6,0.1-0.9,0.1c-0.2,0-0.4-0.3-0.6-0.4c0.1-0.2,0.3-0.5,0.5-0.5c1.2-0.1,2.4-0.3,3.6-0.3
		c0.7,0,1.1-0.3,1.2-1c0.5-2.4,0.5-4.8,0.1-7.2c-0.1-0.7,0-1.2,0.5-1.6c0.5-0.4,0.9-0.9,1.6-1.6c0.3,1.3,0.6,2.4,0.7,3.4
		c1.2,9.7-3.3,19.2-11.8,24.2c-10.4,6.3-24.2,3.9-31.9-5.8L36.4,70C34.8,67.8,34.8,67.7,37.1,66z"/>
	<path class="st0" d="M35.7,46c1.8,0.5,3.3,0.8,4.9,1.2c0.3,0.1,0.5,0.5,0.7,0.7c-0.3,0.1-0.6,0.3-0.8,0.2c-1.4-0.3-2.9-0.7-4.3-1.1
		c-0.7-0.2-1.1,0-1.2,0.7c-1,3.3-1.4,6.8-0.8,10.3c0.1,0.7,0,1.2-0.5,1.6c-0.5,0.4-0.8,0.8-1.2,1.2c-0.1,0.1-0.2,0.1-0.5,0.3
		c-0.2-1.3-0.5-2.6-0.7-3.9c-0.5-6,0.7-11.7,4.2-16.6c4.4-6,10.2-9.7,17.7-10.3C62.6,29.4,70,33,75.7,40.5c0.5,0.7,0.7,1.3-0.1,1.9
		c-0.4,0.3-0.7,0.7-0.9,0.9c-2-2-3.8-4.1-5.8-5.8c-2.1-1.8-4.5-3-7.4-3.6c0.1,1.6,0.3,3,0.3,4.4c0.1,0.5,0.1,0.9,0.1,1.4
		c0,0.3-0.3,0.5-0.4,0.7c-0.2-0.3-0.5-0.5-0.5-0.7c-0.1-1.3-0.2-2.6-0.3-3.9c-0.1-0.6-0.1-1.2-0.2-2c-0.5,0.3-0.8,0.4-1.1,0.6
		c-2.5,1.6-4.9,3.2-7.4,4.8c-0.5,0.3-0.9,0.5-1.1-0.3c2.6-1.7,5.3-3.5,8-5.3c-0.1-0.1-0.1-0.2-0.1-0.3c-4.3-0.7-8.4,0-12.3,1.8
		C41.6,37.2,38,40.9,35.7,46z"/>
	<path class="st0" d="M30.9,69.1c0,1-0.9,1.9-1.8,1.8c-0.9,0-1.8-1-1.8-1.9c0-1,0.9-1.8,1.9-1.8C30.1,67.3,30.9,68.1,30.9,69.1z"/>
	<path class="st0" d="M57.4,48.2c-1.1,1-2.3,0.7-3.5,0.7c-2.4,0-4.9,0-7.3-0.1c-0.3,0-0.7-0.3-1-0.5c0.3-0.1,0.7-0.4,1.1-0.4
		c3.3,0,6.7,0.1,10,0.2C56.9,48.2,57.2,48.2,57.4,48.2L57.4,48.2z"/>
	<path class="st0" d="M57.4,48.3c-1.1-1.1-2.3-2.2-3.4-3.3C53,44,51.9,43,50.8,42c0-0.1,0-0.2,0-0.3c0.3,0,0.8-0.1,0.9,0
		c2.1,1.8,4.1,3.7,6.2,5.5C57.7,47.6,57.6,48,57.4,48.3C57.4,48.2,57.4,48.3,57.4,48.3z"/>
	<path class="st0" d="M70.6,47.5c-0.3,0-0.8,0.1-1.1,0c-1.8-1.1-3.7-2.1-5.5-3.2c-0.3-0.1-0.3-0.6-0.5-0.9c0.3,0,0.7-0.1,0.9,0.1
		c2,1.2,4.1,2.4,6.1,3.6C70.6,47.2,70.6,47.4,70.6,47.5z"/>
	<path class="st0" d="M64.6,50.5c-0.5-0.7-0.9-1.4-1.2-2.2c-0.5-1.1-0.8-2.2-1.1-3.3c-0.1-0.2,0.1-0.5,0.1-0.7
		c0.2,0.1,0.6,0.2,0.7,0.4c0.7,1.8,1.3,3.7,1.9,5.5C64.8,50.4,64.7,50.5,64.6,50.5z"/>
	<path class="st0" d="M44.3,46.3c1.1-1.5,2.2-3,3.3-4.6c0.3,0.2,0.5,0.3,0.7,0.5c-1,1.4-2,2.8-3,4.1c-0.2,0.2-0.6,0.3-0.9,0.3
		C44.4,46.6,44.4,46.4,44.3,46.3z"/>
	<path class="st0" d="M58.5,64.6c0.3,0.1,0.5,0.3,0.8,0.5c-0.7,1.4-1.3,2.7-2,3.9c-0.1,0.2-0.5,0.3-0.8,0.4
		c-0.1-0.1-0.1-0.2-0.2-0.3C57,67.6,57.7,66.1,58.5,64.6z"/>
	<path class="st0" d="M53.5,61.6c1.5-0.7,2.8,0.5,4.3,0.4c0.1,0.1,0.1,0.3,0.1,0.4c-0.3,0.1-0.5,0.5-0.7,0.5
		c-1.2-0.2-2.4-0.5-3.7-0.8C53.5,61.8,53.5,61.7,53.5,61.6z"/>
	<path class="st0" d="M48.2,40c0.4-0.2,0.8-0.7,1.1-0.7c0.4,0.1,0.7,0.6,1,0.9c-0.3,0.3-0.7,0.9-1.1,0.9c-0.3,0.1-0.7-0.5-1.1-0.7
		C48.2,40.3,48.2,40.2,48.2,40z"/>
	<path class="st0" d="M44.5,48.6c-0.3,0.3-0.7,0.7-1.1,0.7c-0.6,0.1-1.1-0.3-1-1c0.1-0.3,0.6-0.8,1-0.9c0.3-0.1,0.7,0.5,1.1,0.7
		C44.5,48.3,44.5,48.5,44.5,48.6z"/>
	<path class="st0" d="M61.2,61.1c0.7-0.7,1.4-1.5,2.2-2.2c0.7,0.3,0.7,0.6,0.2,1.1c-0.5,0.5-0.9,1-1.4,1.4c-0.2,0.1-0.6,0.1-0.9,0.1
		C61.2,61.4,61.2,61.2,61.2,61.1z"/>
	<path class="st0" d="M61.7,43.7c-0.5-0.6-0.9-0.9-1-1.3c-0.1-0.7,0.3-1.1,0.9-0.9c0.4,0.1,0.9,0.5,0.9,0.9
		C62.6,42.6,62.1,43,61.7,43.7z"/>
	<path class="st0" d="M57,71.3c-0.6,0.4-1,0.9-1.2,0.8c-0.3-0.1-0.8-0.6-0.8-1c0-0.3,0.5-0.8,0.9-0.8C56.1,70.3,56.4,70.8,57,71.3z"
		/>
	<path class="st0" d="M61.2,62.7c-0.7,0.5-1,1-1.2,0.9c-0.4-0.1-0.7-0.5-1.1-0.8c0.3-0.3,0.5-0.9,0.9-0.9
		C60.1,62,60.5,62.4,61.2,62.7z"/>
	<path class="st0" d="M71.1,60.5c-0.6,0.4-0.9,0.9-1.2,0.9s-0.7-0.5-1-0.8c0.3-0.3,0.6-0.9,0.9-0.9C70.1,59.6,70.5,60,71.1,60.5z"/>
	<path class="st0" d="M45.1,53.2c-1.1-0.5-1.3-1.4-1.4-2.3c0-0.1,0.2-0.4,0.3-0.5c0.1,0.1,0.4,0.2,0.5,0.4
		C44.7,51.5,44.9,52.4,45.1,53.2z"/>
</g>
</svg>
