<?xml version="1.0" encoding="utf-8"?>
<!-- Generator: Adobe Illustrator 21.0.0, SVG Export Plug-In . SVG Version: 6.00 Build 0)  -->
<svg version="1.1" id="Capa_1" xmlns="http://www.w3.org/2000/svg" xmlns:xlink="http://www.w3.org/1999/xlink" x="0px" y="0px"
	 viewBox="0 0 115 107" style="enable-background:new 0 0 115 107;" xml:space="preserve">
<style type="text/css">
	.st0{fill:#666666;}
</style>
<title>tech-icon1</title>
<g>
	<path class="st0" d="M9,52.1c0.2-0.8,0.3-1.7,0.5-2.4c0.8-2.9,2.9-4.5,5.7-5.3c1.6-0.5,3.2-0.5,4.8-0.2c0.1,0,0.2,0,0.4,0.1
		c0-0.2,0-0.3,0-0.5c0-2.4,0-4.7,0-7.1c0-0.4,0.2-0.5,0.5-0.5c1.6,0,3.1,0,4.8,0c0,0.2,0,0.4,0,0.5c0,7.9,0,15.6,0,23.5
		c0,0.4-0.1,0.5-0.5,0.6c-2.4,0.4-4.8,0.8-7.2,0.7c-1.8-0.1-3.4-0.4-5-1.1c-1.8-0.9-2.9-2.4-3.5-4.3c-0.3-0.7-0.3-1.5-0.5-2.3
		C9,53.2,9,52.6,9,52.1z M20.4,57c0-0.1,0-0.2,0-0.2c0-2.7,0-5.3,0-8c0-0.2-0.1-0.4-0.3-0.4c-0.3-0.1-0.6-0.2-0.9-0.2
		c-1.3-0.2-2.5,0.1-3.5,1c-1,0.9-1.4,2.2-1.4,3.5s0.4,2.5,1.4,3.5C17.1,57.4,18.8,57.4,20.4,57z"/>
	<path class="st0" d="M106,53.4c-0.2,0.8-0.2,1.5-0.5,2.3c-0.6,2-1.6,3.6-3.3,4.7c-0.9,0.7-2.1,1-3.2,1.2c-1.8,0.2-3.5,0.3-5.2-0.4
		c-2.7-0.9-4.3-2.9-5.1-5.6c-0.8-2.7-0.4-5.3,1-7.9c0.8-1.6,2.3-2.6,3.9-3.1c2.3-0.8,4.7-0.8,7.1,0s4,2.7,4.7,5.3
		c0.2,0.7,0.3,1.4,0.4,2.1C106,52.4,106,52.8,106,53.4z M100.7,52.4c-0.1-0.4-0.2-1-0.3-1.7c-0.3-1.1-0.8-2-2-2.3
		c-1.6-0.6-3.1,0.2-3.8,1.8c-0.8,1.9-0.8,3.8,0.2,5.6c0.8,1.9,3.7,2.3,5,0.3C100.4,55.2,100.7,53.9,100.7,52.4z"/>
	<path class="st0" d="M70.5,64.3c1,0.3,2.1,0.8,3,0.9c1.5,0.4,3.1,0.5,4.7,0.1c1.8-0.5,2.5-1.4,2.7-3.1c0.1-0.5,0.2-0.8,0.2-1.4
		c-0.5,0.1-0.8,0.2-1.2,0.2c-1.8,0.5-3.4,0.5-5.1-0.1c-2.8-1-4.3-3-4.8-5.9c-0.2-2,0.1-3.8,0.8-5.7c0.9-2.1,2.6-3.4,4.7-4.2
		s4.1-1,6.3-1c2.3,0,4.5,0.3,6.8,0.7c0.1,0,0.2,0.1,0.3,0.1c-0.4,0.8-0.8,1.6-1.1,2.4c-0.2,0.4-0.4,0.7-0.5,1s-0.4,0.5-0.8,0.4
		c-0.8-0.2-0.8-0.1-0.8,0.6c0.1,2.7,0.2,5.3,0.3,8.1c0.1,2.3,0,4.4-0.5,6.6c-0.8,3.1-2.8,5-5.9,5.8c-3,0.8-6.1,0.6-9-0.5
		c-0.2-0.1-0.3-0.2-0.3-0.3C70.5,67.3,70.5,65.8,70.5,64.3C70.5,64.3,70.6,64.3,70.5,64.3z M81.1,48.5c-1.3-0.5-2.8-0.2-3.9,0.7
		c-1.6,1.4-2.2,3-1.8,5.2c0.2,0.9,0.6,1.8,1.4,2.3c1.3,0.8,2.7,0.8,4,0.2c0.1-0.1,0.2-0.2,0.2-0.4c0-2.5-0.1-5.1-0.1-7.6
		C81.1,48.6,81.1,48.5,81.1,48.5z"/>
	<path class="st0" d="M58.1,48.7c0,4.1,0,8.3,0,12.5c-1.8,0-3.4,0-5.2,0c0-0.2,0-0.3,0-0.4c0-5.1,0-10.1,0-15.2
		c0-0.3,0.1-0.5,0.4-0.5c2.5-0.7,5.1-1.1,7.7-1.1c1.7,0,3.4,0.2,5,1c1.7,0.8,2.5,2.3,2.5,4.1c0.1,2.5,0,5.2,0,7.7c0,1.4,0,2.8,0,4.3
		c-1.7,0-3.4,0-5.2,0c0-0.2,0-0.3,0-0.5c0-3.2,0-6.3,0-9.5c0-0.4,0-0.8-0.1-1.1c-0.2-1.3-0.8-1.8-2.1-1.8
		C60.1,48.2,59.1,48.4,58.1,48.7z"/>
	<path class="st0" d="M37.4,49.4c0-1.2,0-2.4,0-3.8c0-0.1,0.2-0.2,0.2-0.3c1.5-0.7,3-1.1,4.7-1.3c1.3-0.2,2.5-0.3,3.8-0.1
		c0.8,0.2,1.4,0.3,2.1,0.7c1.3,0.7,1.8,1.8,2,3.1c0.1,0.8,0.1,1.8,0.1,2.6c0,3.4-0.1,6.7-0.1,10c0,0.4-0.2,0.5-0.5,0.5
		c-1.5,0.2-3,0.3-4.5,0.5c-2.1,0.2-4,0.3-5.9-0.3c-2-0.6-3-1.9-3-3.9c0-0.8,0-1.4,0.2-2.1c0.4-1.8,1.7-2.7,3.3-3.4
		c1.4-0.5,2.8-0.8,4.2-0.8c0.4-0.1,0.8-0.1,1.1-0.2c0.2,0,0.3-0.2,0.3-0.3c0.2-0.7,0.1-1.3-0.2-1.9c-0.1-0.1-0.2-0.2-0.4-0.2
		c-1.4-0.3-2.8-0.2-4.3,0.2C39.5,48.8,38.5,49.2,37.4,49.4z M45.7,54c-0.7,0.1-1.2,0.2-1.9,0.2c-0.1,0-0.2,0-0.3,0.1
		c-0.5,0.2-1,0.2-1.5,0.4c-0.8,0.2-1.1,0.9-1.1,1.7c0,0.8,0.5,1,1.1,1.2c1.2,0.5,2.4,0.4,3.7,0C45.7,56.5,45.7,55.3,45.7,54z"/>
	<path class="st0" d="M28.9,44.4c1.8,0,3.4,0,5.2,0c0,0.2,0,0.3,0,0.5c0,3.5,0.1,6.9,0,10.4c-0.1,2.5-0.1,5.1-0.6,7.5
		c-0.3,1.8-1,3.2-2.4,4.2c-0.5,0.4-1.1,0.8-1.6,1.1c-0.5,0.4-0.9,0.4-1.4,0.1c-0.5-0.3-1.1-0.5-1.6-0.8c-0.8-0.5-1.7-0.8-2.5-1.2
		c0.5-0.3,0.8-0.5,1.2-0.8c0.9-0.6,1.8-1.2,2.4-2.2c0.8-1,1.1-2.3,1.1-3.5c0.2-1.6,0.2-3.2,0.2-4.9c0-3.4,0-6.8,0-10.2
		C28.9,44.7,28.9,44.6,28.9,44.4z"/>
	<path class="st0" d="M28.9,36.3c1.8,0,3.4,0,5.1,0c0,1.8,0,3.6,0,5.3c-1.7,0-3.4,0-5.1,0C28.9,39.9,28.9,38.1,28.9,36.3z"/>
</g>
</svg>
