<?xml version="1.0" encoding="utf-8"?>
<!-- Generator: Adobe Illustrator 21.0.0, SVG Export Plug-In . SVG Version: 6.00 Build 0)  -->
<svg version="1.1" id="Capa_1" xmlns="http://www.w3.org/2000/svg" xmlns:xlink="http://www.w3.org/1999/xlink" x="0px" y="0px"
	 viewBox="0 0 115 107" style="enable-background:new 0 0 115 107;" xml:space="preserve">
<style type="text/css">
	.st0{opacity:0.44;}
	.st1{fill:#666666;}
</style>
<title>tech-icon41</title>
<g id="Rounded_Rectangle_1_copy" class="st0">
	<path class="st1" d="M83.8,59.9c-0.1-0.3-0.2-0.6-0.4-0.8L67.3,31.2c-1.5-2.6-4.8-3.5-7.5-2L31.9,45.3c-0.4,0.2-0.8,0.5-1.2,0.9
		c-1.7,1.8-2,4.4-0.8,6.5L46,80.7c1.5,2.6,4.8,3.5,7.4,2l27.9-16.1c1.7-1,2.8-2.9,2.7-4.9C84.1,61,84,60.4,83.8,59.9z M61.5,56.3
		C62.8,56.1,63,56,63,55v-8.3c0-1-0.3-1.2-1.5-1.3V45h6v0.4c-1.5,0.1-1.7,0.3-1.7,1.7v8c0,0.7,0.3,1,1.5,1c1.1,0.1,2.1-0.2,2.9-0.9
		c0.7-0.7,1.2-1.5,1.5-2.4h0.5l-0.7,3.9h-10V56.3z M45.1,56.3c1.4-0.1,1.6-0.3,1.6-1.4v-8.1c0-0.9-0.3-1.2-1.5-1.3V45h4.4l3.4,8.2
		l3.5-8.2h4.4v0.4c-1.3,0.1-1.5,0.4-1.5,1.7v7.4c0,1.3,0.1,1.6,1.5,1.7v0.4H55v-0.4c1.3-0.1,1.5-0.4,1.5-1.5v-8.6l-4.3,10.5h-0.4
		l-4.4-10.3v8.1c0,1.3,0.3,1.7,1.8,1.8v0.4h-4.1L45.1,56.3z"/>
</g>
<g id="Rounded_Rectangle_1_copy-2" class="st0">
	<path class="st1" d="M84.7,58.7c-0.1-0.8-0.3-1.6-0.7-2.3L67.9,28.5c-1.5-2.6-4.8-3.5-7.4-2L32.5,42.6c-0.9,0.5-1.6,1.3-2.1,2.2
		c-0.4,0.8-0.7,1.8-0.6,2.7c0,0.9,0.3,1.8,0.7,2.5L46.6,78c1.5,2.6,4.8,3.5,7.4,2c0,0,0,0,0,0L82,63.8
		C83.8,62.8,84.9,60.8,84.7,58.7z M52.2,56.7h-0.5l-4.4-10.3v8.1c0,1.3,0.3,1.7,1.8,1.8v0.4h-4.1v-0.4c1.4-0.1,1.6-0.3,1.6-1.4v-8.1
		c0-0.9-0.3-1.2-1.5-1.3V45h4.4l3.4,8.2l3.5-8.2h4.4v0.4c-1.3,0.1-1.5,0.4-1.5,1.7v7.4c0,1.3,0.1,1.6,1.5,1.7v0.4H55v-0.4
		c1.3-0.1,1.5-0.4,1.5-1.5v-8.6L52.2,56.7z M71.5,56.7h-10v-0.4C62.8,56.1,63,56,63,55v-8.3c0-1-0.3-1.2-1.5-1.3V45h6v0.4
		c-1.5,0.1-1.7,0.3-1.7,1.7v8c0,0.7,0.3,1,1.5,1c1.1,0.1,2.1-0.2,2.9-0.9c0.7-0.7,1.2-1.5,1.5-2.4h0.5L71.5,56.7z"/>
</g>
<g id="Rounded_Rectangle_1_copy-3">
	<path class="st1" d="M84.6,53.4L68.5,25.5c-1.5-2.6-4.8-3.5-7.5-2L33.1,39.6c-1.8,1.1-2.9,3.1-2.7,5.2c0,0.5,0.1,1,0.3,1.4
		c0.1,0.3,0.2,0.6,0.4,0.8l16.1,27.9c1.5,2.6,4.8,3.5,7.4,2c0,0,0,0,0,0l27.9-16.1c0.4-0.3,0.8-0.6,1.2-0.9
		C85.5,58.2,85.8,55.5,84.6,53.4L84.6,53.4z M60.8,45.5c-1.3,0.1-1.5,0.4-1.5,1.7v7.4c0,1.3,0.1,1.6,1.5,1.7v0.4H55v-0.4
		c1.3-0.1,1.5-0.4,1.5-1.5v-8.6l-4.3,10.5h-0.4l-4.4-10.3v8.1c0,1.3,0.3,1.7,1.8,1.8v0.4h-4.1v-0.4c1.4-0.1,1.6-0.3,1.6-1.4v-8.1
		c0-0.9-0.3-1.2-1.5-1.3V45h4.4l3.4,8.2l3.5-8.2h4.4L60.8,45.5z M71.5,56.7h-10v-0.4C62.8,56.1,63,56,63,55v-8.3
		c0-1-0.3-1.2-1.5-1.3V45h6v0.4c-1.5,0.1-1.7,0.3-1.7,1.7v8c0,0.7,0.3,1,1.5,1c1.1,0.1,2.1-0.2,2.9-0.9c0.7-0.7,1.2-1.5,1.5-2.4h0.5
		L71.5,56.7z"/>
</g>
</svg>
