<?xml version="1.0" encoding="utf-8"?>
<!-- Generator: Adobe Illustrator 21.0.0, SVG Export Plug-In . SVG Version: 6.00 Build 0)  -->
<svg version="1.1" id="Capa_1" xmlns="http://www.w3.org/2000/svg" xmlns:xlink="http://www.w3.org/1999/xlink" x="0px" y="0px"
	 viewBox="0 0 115 107" style="enable-background:new 0 0 115 107;" xml:space="preserve">
<style type="text/css">
	.st0{fill:#666666;}
</style>
<title>tech-icon1</title>
<g>
	<path class="st0" d="M65,56.5c1.2-0.7,2.3-1.2,3.7-2c0.6,1.3,1.2,2.6,1.8,3.9c1.7,4,2.8,8,3,12.4c0.1,2,0,3.9-0.7,5.7
		c-1.2,2.9-4,4.2-6.9,3.3c-2-0.7-3.7-1.9-5.3-3.4c-4.5-4.2-7.9-9.1-10.8-14.5c-0.3-0.6-0.6-1.2-1-1.9c-0.4,1.2-0.7,2.3-1,3.3
		c-0.8,2.9-1.4,5.9-1.4,8.9c0,0.4,0.1,0.9,0.1,1.3c0.3,2.1,1.8,3.1,3.9,2.4c1.1-0.4,2-1,3.1-1.5c0.7,1,1.5,2,2.3,3.2
		c-2.3,1.6-4.8,2.9-7.8,2.4c-3-0.5-5.3-3-5.6-6.2c-0.4-3.7,0.1-7.2,1.1-10.7c0.7-2.6,1.8-5.2,2.7-7.8c0.1-0.3,0.1-0.7,0-1
		c-0.4-1.2-1-2.5-1.5-3.8c-1.2,0.4-2.5,0.7-3.7,1.2c-1.5,0.5-2.9,1.2-4,2.3c-1.1,1-1.2,2-0.2,3.1c1,1,2.1,1.7,3.4,2.3
		c0.2,0.1,0.4,0.2,0.7,0.4c-0.5,1.2-1,2.5-1.4,3.7c-0.1,0-0.1,0.1-0.1,0.1c-1.9-0.7-3.7-1.7-5.2-3.1c-1.6-1.7-2.6-3.6-2-6
		c0.3-1.5,1.2-2.6,2.3-3.6c2.2-1.8,4.8-2.9,7.5-3.7c0.5-0.1,1-0.3,1.5-0.4c-0.3-1.1-0.5-2.2-0.7-3.3c-0.5-2.4-0.7-4.8-0.2-7.2
		c0.7-4.1,3.3-5.9,7.4-5.2c2.5,0.4,4.5,1.7,6.4,3.4c-1,1-1.8,2-2.8,3c-1.2-1-2.4-1.8-3.9-2.2c-2.2-0.6-2.9-0.1-3.1,2.2
		c-0.4,2.9,0.4,5.7,1.2,8.5c1.5-0.1,2.9-0.3,4.4-0.5c0.2,0,0.4-0.2,0.5-0.4c2.3-3.2,4.7-6.3,7.5-9.1c1.5-1.5,3.1-3,5-4
		c1.5-0.7,3.1-1.2,4.7-1c2.9,0.4,5,2.6,5.3,5.6c0.4,2.6-0.4,5-1.3,7.5c-1.2-0.6-2.5-1.1-3.6-1.6c0.3-1.5,0.7-3,0.9-4.5
		c0.1-0.6-0.1-1.3-0.4-1.9c-0.4-1-1.3-1.4-2.3-1c-1.2,0.5-2.4,1.2-3.5,2c-2.9,2.3-5.1,5.1-7.5,8.2c0.4,0,0.7,0,1,0
		c5.9,0.1,11.6,1,17.3,2.9c2.2,0.8,4.3,1.7,6.1,3.1c1.3,1,2.4,2,3.1,3.5c1.1,2.3,0.7,4.6-1.1,6.4c-1.8,1.8-4.2,2.6-6.6,3.1
		c-0.2,0.1-0.4,0.1-0.6,0.1c-0.1,0-0.1,0-0.2-0.1c-0.2-1.3-0.4-2.6-0.7-3.9c1-0.4,2-0.6,3-1c0.8-0.4,1.5-0.8,2.2-1.3
		c0.7-0.5,0.7-1,0.2-1.8c-0.4-0.6-0.8-1.1-1.3-1.5c-2-1.6-4.3-2.6-6.7-3.3c-5.7-1.8-11.6-2.3-17.6-2.3c-0.7,0-1.1,0.2-1.5,0.8
		c-0.9,1.5-1.8,2.9-2.7,4.5c-0.1,0.2-0.1,0.5-0.1,0.7c2.9,6.4,6.5,12.2,11.4,17.3c0.9,1,1.9,1.7,2.9,2.5c0.5,0.4,1.1,0.6,1.7,0.8
		c0.8,0.3,1.4,0,1.7-0.8c0.6-1.4,0.6-2.9,0.5-4.3c-0.2-4.6-1.6-8.9-3.6-13C65.5,57.4,65.2,57,65,56.5z"/>
	<path class="st0" d="M58.5,59.6c-2.3,0-4.1-1.9-4-4.2c0-2.3,1.9-4.1,4.2-4c2.3,0.1,4,1.9,4,4.2C62.6,57.8,60.8,59.6,58.5,59.6z"/>
</g>
</svg>
