<?xml version="1.0" encoding="utf-8"?>
<!-- Generator: Adobe Illustrator 21.0.0, SVG Export Plug-In . SVG Version: 6.00 Build 0)  -->
<svg version="1.1" id="Capa_1" xmlns="http://www.w3.org/2000/svg" xmlns:xlink="http://www.w3.org/1999/xlink" x="0px" y="0px"
	 viewBox="0 0 115 107" style="enable-background:new 0 0 115 107;" xml:space="preserve">
<style type="text/css">
	.st0{fill:#666666;}
</style>
<title>tech-icon1</title>
<g>
	<path class="st0" d="M32.1,47.9c2.3-3.5,4.7-6.9,7-10.4c1.1-1.6,2.2-1.6,3.3,0.1c0.5,0.8,1,1.6,1.5,2.4c0.7,1,1.2,2,0.8,3.4
		c-0.3,1.5,0.7,2.7,2.2,3c1.2,0.2,2.6-0.5,3-1.7c0.5-1.4,0-3-1.3-3.3c-2.9-0.7-3.3-3.3-4.5-5.3c-0.7-1.3,0.2-2.7,2-3
		c1.9-0.4,3.9-0.7,5.9-1c2.7-0.4,5.3-0.8,7.9-1.2c0.8-0.1,1.5-0.2,2.2,0.2c0.8,0.5,1.2,1.6,0.7,2.8c-0.8,2.1-2.1,3.9-3.3,5.6
		c-0.6,0.8-1.6,1.2-2.5,1.3c-2.6,0.4-4.2,2.3-4.1,4.9c0.1,2.4,2.2,4.3,4.6,4.3c2.3,0,4.4-1.9,4.6-4.4c0.1-1-0.2-1.8-0.6-2.7
		s-0.3-1.7,0.2-2.5c1.3-2,2.5-4.1,3.8-6.1c1-1.5,2.4-1.9,4.1-1.3c2.1,0.7,3.7,2.2,5.2,3.7c0.7,0.7,0.5,1.6-0.2,2.3
		c-1.6,1.3-3.3,2.4-5.6,1.9c-1.5-0.4-2.7,0.2-3.3,1.5c-0.5,1.2-0.2,2.5,0.8,3.3c0.9,0.7,2.2,0.8,3.3,0.1c0.5-0.3,0.8-0.7,0.9-1.2
		c0.3-1,1-1.5,1.8-1.8c1.8-0.8,3.5-1.6,5.2-2.4c1-0.5,1.9-0.4,2.7,0.1c1.8,1.2,3,2.5,2.7,4.9c-0.2,1.2-0.1,2.5,0,3.8
		c0.1,1-0.5,1.2-1.3,1c-0.8-0.2-1.3-0.8-1.8-1.5c-1-1.8-3.2-2.4-5-1.5c-1.6,0.8-2.4,2.9-1.7,4.7c0.8,2,3.2,2.9,5.2,1.8
		c1-0.5,2.1-1.1,3.3-1.3c0.8-0.1,1.3,0,1.3,1c-0.1,1.8-0.1,3.5,0,5.2c0,0.6-0.2,1.1-0.7,1.5c-2.4,1.5-3.6,1.3-5.1-0.2
		c-0.8-1-1.7-1.7-1.8-3.2c-0.1-1.2-1.5-2.1-2.8-1.9c-1.4,0.1-2.5,1.3-2.5,2.7s1,2.7,2.5,2.7c1.3,0,2.1,0.5,3,1.3
		c1.2,1.1,1.4,2.7,0.6,4.1c-0.4,0.7-1,0.8-1.8,0.7c-1.2-0.2-2.4-0.6-3.5-1c-1.1-0.4-1.8-1.3-1.9-2.5c-0.3-2.2-0.6-4.5-0.9-6.7
		c-0.1-1,0.4-1.6,1-2.4c1-1.2,1.2-2.7,0.5-4.1c-0.7-1.3-1.8-2.1-3.3-2c-1.6,0.1-2.8,0.8-3.3,2.4c-0.5,1.5-0.4,3.1,0.8,3.9
		c1.9,1.2,2.4,2.9,2.5,4.9c0.1,1.8,0.4,3.5,0.6,5.2c0.1,1.5-1.9,4-3.4,4.3c-0.6,0.1-1.1-0.1-1.6-0.4c-1.3-1-2.6-1.7-4.2-2.1
		c-0.3-0.1-0.7-0.2-0.8-0.4c-1-1-1.6-4.4-0.9-5.8c0.5-1,0.8-1.9,0.7-3c-0.2-2.2-2.1-4.1-4.3-4.2c-2.4-0.1-4.5,1.6-4.7,3.8
		c-0.3,2.5,1.2,4.7,3.5,5.3c0.7,0.1,1.5-0.1,1.9,0.5c0.7,0.9,1,2.1,1.3,3.2c0.2,0.7-0.5,0.5-0.8,0.5c-3.2,0.7-5.5,2.5-7.1,5.3
		c-1.1,1.9-1.5,4-1.4,6.2c0.1,0.6,0,1.1-0.5,1.5c-0.9,0.7-1.9,0.2-2.1-1c-0.3-2.7-0.6-5.4-0.7-8.1c-0.1-1.6-0.5-3-2-3.9
		c-0.8-0.5-1.8-1.1-1.1-2.3c0.7-1.2,2.1-1.8,3.2-1.4c1.6,0.5,3.3-0.4,3.6-1.9c0.4-1.6-0.7-3.1-2.3-3.4c-1.3-0.2-2.5,0.6-3,1.9
		c-0.4,1-2.2,2.4-3.3,2.2c-1.5-0.1-1.9-1.2-2.2-2.4c-0.1-0.2-0.1-0.3-0.1-0.5c-0.8-3.2,1.1-5,4.3-4.3c0.6,0.1,1.2,0.4,1.7,0.6
		c2,0.7,4-0.4,4.7-2.4c0.6-1.9-0.4-3.9-2.3-4.6c-1.9-0.7-4,0.4-4.7,2.3c-0.2,0.6-0.1,1.5-0.7,1.7c-1.3,0.5-2.5,1.2-3.9,1.3
		c-1,0.1-1.3-1-1.9-1.6C32.1,49.7,32.1,48.8,32.1,47.9z"/>
	<path class="st0" d="M55.7,56.5c0,1.6-1.3,3-3,3.1c-1.7,0.1-3.1-1.3-3.1-3c0-1.6,1.3-3,3-3C54.2,53.5,55.7,54.9,55.7,56.5z"/>
	<path class="st0" d="M57.6,48.2c-1.6,0-3-1.3-3-3c0-1.7,1.3-3,3.1-3c1.7,0,3,1.3,2.9,3C60.6,47,59.3,48.2,57.6,48.2z"/>
	<path class="st0" d="M77.2,48c1.1,0,2.1,1,2.1,2.1c0,1.2-1,2.2-2.1,2.2c-1.2,0-2.1-0.9-2.1-2.1C75.1,49,76,48,77.2,48z"/>
	<path class="st0" d="M67,48.9c1.2,0.1,2.1,1,2,2.1C69,52.1,68,53,66.9,53c-1.1,0-2.1-1-2.1-2.1C64.8,49.8,65.8,48.8,67,48.9z"/>
	<path class="st0" d="M42.2,52.7c-1.1,0-2.1-1-2.1-2.1s0.9-2.1,2-2.2c1.2-0.1,2.2,0.9,2.1,2.1C44.3,51.8,43.4,52.7,42.2,52.7z"/>
	<path class="st0" d="M70,43.3c-0.1,0.8-0.6,1.5-1.5,1.5s-1.5-0.5-1.6-1.5c-0.1-0.8,0.6-1.5,1.5-1.6C69.4,41.8,70,42.4,70,43.3z"/>
	<path class="st0" d="M73.2,58.6c-0.8-0.1-1.4-0.5-1.4-1.5c-0.1-1,0.5-1.5,1.5-1.6c1-0.1,1.5,0.6,1.6,1.5
		C74.9,57.8,74.1,58.6,73.2,58.6z"/>
	<path class="st0" d="M44.9,59.2c-0.1,0.8-0.6,1.4-1.6,1.3c-1,0-1.5-0.6-1.5-1.6c0-1,0.6-1.5,1.5-1.5C44.3,57.6,44.8,58.1,44.9,59.2
		z"/>
	<path class="st0" d="M48.9,43.6c0,0.8-0.6,1.6-1.5,1.6c-0.9,0-1.5-0.5-1.5-1.4c-0.1-1,0.4-1.5,1.4-1.6
		C48.2,42.1,48.9,42.8,48.9,43.6z"/>
</g>
</svg>
