<?xml version="1.0" encoding="utf-8"?>
<!-- Generator: Adobe Illustrator 21.0.0, SVG Export Plug-In . SVG Version: 6.00 Build 0)  -->
<svg version="1.1" id="Capa_1" xmlns="http://www.w3.org/2000/svg" xmlns:xlink="http://www.w3.org/1999/xlink" x="0px" y="0px"
	 viewBox="0 0 115 107" style="enable-background:new 0 0 115 107;" xml:space="preserve">
<style type="text/css">
	.st0{fill:#666666;}
</style>
<title>tech-icon1</title>
<path class="st0" d="M78.3,68.5c0.4,0.4,0.7,1,1.2,1.3c4.1,2.6,4.2,6.6,3.9,10.8c-0.1,1.2-0.5,1.8-1.8,1.8c-1.9-0.1-3.8,0.1-5.7-0.1
	c-0.9-0.1-2-0.7-2.6-1.5c-2.5-3.4-5.7-4.3-9.9-4.1c-5.7,0.4-11.4,0.1-17.1,0.1c-1.6,0-2.8,0.3-3.8,1.6c-0.2,0.2-0.4,0.4-0.7,0.7
	c-2.6,4.2-6.8,3.4-10.8,3.3c-0.4,0-1.2-0.9-1.2-1.5c-0.1-2-0.1-4.1,0-6.1c0.1-0.7,0.6-1.5,1.1-2.1c1.3-1.4,2.7-2.6,4.1-3.9
	C24,54.8,28.6,39.2,37.6,31.5c10.7-9.2,26.8-9.3,37.7-0.3C84.2,38.4,89.6,54.4,78.3,68.5z M57.9,66.6c0.6-0.1,1.2-0.1,1.8-0.1
	c7.3-0.7,13.1-6.1,13.9-13.6c0.7-6.3-2.8-12.8-10-15.3c-3.7-1.4-7.5-1.5-11.4-0.8c-9.4,1.8-14.9,11-11.7,19.9
	C42.7,63,50.3,67.4,57.9,66.6z"/>
</svg>
