<?xml version="1.0" encoding="utf-8"?>
<!-- Generator: Adobe Illustrator 21.0.0, SVG Export Plug-In . SVG Version: 6.00 Build 0)  -->
<svg version="1.1" id="Capa_1" xmlns="http://www.w3.org/2000/svg" xmlns:xlink="http://www.w3.org/1999/xlink" x="0px" y="0px"
	 viewBox="0 0 115 107" style="enable-background:new 0 0 115 107;" xml:space="preserve">
<style type="text/css">
	.st0{fill:#666666;}
</style>
<title>tech-icon1</title>
<g>
	<path class="st0" d="M76.5,37.5c4.6,0.1,8.4,1.4,11.3,4.7c1.9,2.1,3,4.6,3.4,7.3C92,53.5,91.7,57.4,90,61
		c-2.3,4.9-6.3,7.7-11.6,8.4c-4.3,0.5-8.3-0.5-11.6-3.3c-2.6-2.3-4.1-5.1-4.9-8.4C61,54,61.1,50.4,62.6,47c2.2-5.2,6.1-8.3,11.6-9.2
		C75.1,37.6,75.9,37.6,76.5,37.5z"/>
	<path class="st0" d="M46.2,57.3c-0.2,5.3-2.3,9.1-6.9,11.2c-6.3,2.8-14.7-0.7-15.9-8.8c-0.6-3.6,0.2-7.1,2.5-10
		c1.8-2.4,4.4-3.6,7.3-3.9c2.3-0.3,4.5,0,6.6,1c3.2,1.5,5.1,4.2,5.9,7.6C46,55.4,46.1,56.5,46.2,57.3z"/>
</g>
</svg>
