<?xml version="1.0" encoding="utf-8"?>
<!-- Generator: Adobe Illustrator 21.0.0, SVG Export Plug-In . SVG Version: 6.00 Build 0)  -->
<svg version="1.1" id="Capa_1" xmlns="http://www.w3.org/2000/svg" xmlns:xlink="http://www.w3.org/1999/xlink" x="0px" y="0px"
	 viewBox="0 0 115 107" style="enable-background:new 0 0 115 107;" xml:space="preserve">
<style type="text/css">
	.st0{fill:#666666;}
</style>
<title>tech-icon1</title>
<g>
	<g>
		<g>
			<path class="st0" d="M47.4,44.1c-1-0.2-2,0.5-2.2,1.5l-1.4,7.3c-0.2,1,0.5,2,1.5,2.2c1,0.2,2-0.5,2.2-1.5l1.4-7.3
				C49.1,45.3,48.4,44.3,47.4,44.1z"/>
		</g>
	</g>
	<g>
		<g>
			<path class="st0" d="M69.3,48.1c-1-0.2-2,0.5-2.2,1.5l-1.4,7.3c-0.2,1,0.5,2,1.5,2.2c1,0.2,2-0.5,2.2-1.5l1.4-7.3
				C71,49.3,70.3,48.3,69.3,48.1z"/>
		</g>
	</g>
	<g>
		<g>
			<path class="st0" d="M51,44.9l-2,10.9c-0.2,1,0.5,2,1.5,2.2l-0.7,3.6c-0.2,1,0.5,2,1.5,2.2c1,0.2,2-0.5,2.2-1.5l0.7-3.5l3.7,0.7
				l-0.7,3.6c-0.2,1,0.5,2,1.5,2.2c1,0.2,2-0.5,2.2-1.5l0.7-3.6c1,0.2,2-0.5,2.2-1.5l2-11L51,44.9z"/>
		</g>
	</g>
	<g>
		<g>
			<path class="st0" d="M51.4,42.9L66,45.6c0.4-2.3-0.3-4.5-1.7-6.2l2-1.7c0.4-0.3,0.4-0.9,0.1-1.3C66,36.1,65.4,36,65,36.4
				l-2.2,1.8c-0.8-0.6-1.8-1-2.9-1.2c-1.1-0.2-2.2-0.1-3.1,0.1l-1.3-2.4c-0.2-0.5-0.8-0.6-1.3-0.4s-0.6,0.8-0.4,1.3l1.2,2.3
				C53.3,38.8,51.8,40.7,51.4,42.9z M61.4,40.1c0.5,0.1,0.8,0.6,0.7,1.1C62,41.6,61.6,42,61,41.9c-0.5-0.1-0.8-0.6-0.7-1.1
				C60.4,40.3,60.9,40,61.4,40.1z M57.7,39.4c0.5,0.1,0.8,0.6,0.7,1.1c-0.1,0.5-0.6,0.8-1.1,0.7c-0.5-0.1-0.8-0.6-0.7-1.1
				C56.7,39.6,57.2,39.3,57.7,39.4z"/>
		</g>
	</g>
</g>
<g>
	<g>
		<g>
			<path class="st0" d="M34.7,51.2v-6.9c0.7,0,1.1-0.5,1.1-1.1c0-0.7-0.5-1.1-1.1-1.1c-3.1,0-5.7,2.6-5.7,5.7v2.3
				c0,1.9,1.5,3.4,3.4,3.4h2.3c0.7,0,1.1-0.5,1.1-1.1S35.4,51.2,34.7,51.2z"/>
		</g>
	</g>
	<g>
		<g>
			<path class="st0" d="M78.3,42c-0.7,0-1.1,0.5-1.1,1.1c0,0.7,0.5,1.1,1.1,1.1v6.9c-0.7,0-1.1,0.5-1.1,1.1c0,0.6,0.5,1.1,1.1,1.1
				h2.3c1.9,0,3.4-1.5,3.4-3.4v-2.3C84,44.6,81.5,42,78.3,42z"/>
		</g>
	</g>
	<g>
		<g>
			<path class="st0" d="M48.5,74.2c-0.7,0-1.1,0.5-1.1,1.1h-6.9c0-0.7-0.5-1.1-1.1-1.1c-0.6,0-1.1,0.5-1.1,1.1v2.3
				c0,1.9,1.5,3.4,3.4,3.4h4.6c1.9,0,3.4-1.5,3.4-3.4v-2.3C49.6,74.6,49.1,74.2,48.5,74.2z"/>
		</g>
	</g>
	<g>
		<g>
			<path class="st0" d="M73.7,74.2c-0.7,0-1.1,0.5-1.1,1.1h-6.9c0-0.7-0.5-1.1-1.1-1.1c-0.6,0-1.1,0.5-1.1,1.1v2.3
				c0,1.9,1.5,3.4,3.4,3.4h4.6c1.9,0,3.4-1.5,3.4-3.4v-2.3C74.9,74.6,74.3,74.2,73.7,74.2z"/>
		</g>
	</g>
	<g>
		<g>
			<path class="st0" d="M73.7,26H39.3c-3.2,0-5.7,2.6-5.7,5.7v39c0,3.1,2.6,5.7,5.7,5.7h34.4c3.2,0,5.7-2.6,5.7-5.7v-39
				C79.4,28.6,76.9,26,73.7,26z M43.9,69.6c-1.9,0-3.4-1.5-3.4-3.4c0-1.9,1.5-3.4,3.4-3.4s3.4,1.5,3.4,3.4
				C47.3,68,45.8,69.6,43.9,69.6z M69.1,69.6c-1.9,0-3.4-1.5-3.4-3.4c0-1.9,1.5-3.4,3.4-3.4c1.9,0,3.4,1.5,3.4,3.4
				C72.5,68,71,69.6,69.1,69.6z M71.4,31c1.9,0,3.4,1.5,3.4,3.4v20.2l0,0c0,1.9-1.5,3.4-3.4,3.4H41.6c-1.9,0-3.4-1.5-3.4-3.4V34.5
				c0-1.9,1.5-3.4,3.4-3.4"/>
		</g>
	</g>
</g>
</svg>
