<?xml version="1.0" encoding="utf-8"?>
<!-- Generator: Adobe Illustrator 21.0.0, SVG Export Plug-In . SVG Version: 6.00 Build 0)  -->
<svg version="1.1" id="Capa_1" xmlns="http://www.w3.org/2000/svg" xmlns:xlink="http://www.w3.org/1999/xlink" x="0px" y="0px"
	 viewBox="0 0 115 107" style="enable-background:new 0 0 115 107;" xml:space="preserve">
<style type="text/css">
	.st0{fill:#666666;}
</style>
<title>tech-icon1</title>
<g>
	<path class="st0" d="M34.7,47.4c1,1.5,2,2.9,2.9,4.4c2.2-8.3,6.8-15,13.4-20.4c1.6-1.3,2.1-2.5,1.4-4.4C52,26,51.5,24.9,52,23.5
		c8.3,5.2,15.3,11.5,20,19.9c0.3-0.3,0.4-1.1,0.5-1.7c0.2-0.6,0.3-1.2,0.5-2.3c3.4,8.4,5.7,16.5,4.3,25.3c0.4,0.3,1,0,1.6-0.2
		c0.5-0.1,1-0.2,1.6-0.3c0.1,0.3,0.3,0.3,0.2,0.4C78,71,74.3,76.5,68.8,80.5c-9,6.5-20.9,4.9-27.7-3.9c-4-5.1-5.9-10.9-6.5-17.2
		C34.2,55.6,34.2,51.6,34.7,47.4z M73.7,67.2c0-4.7-3.4-6.9-7.6-5.2c-4.3,1.8-7.6,7-7.2,11.5c0.3,3.4,2.9,5.3,6.3,4.6
		C69.7,77.2,73.7,72,73.7,67.2z M55.7,71.6c-0.2-3.5-1.9-7.1-5.7-9.4c-4-2.5-7.9-0.4-8.3,4.2c-0.3,4.3,1.4,7.9,4.7,10.7
		c1.9,1.6,4,2.3,6.4,1.1C55.2,77,55.7,74.9,55.7,71.6z M57.5,49.8c-2.2,1.9-3.1,4.7-2.5,7.8c0.6-1.2,1-2.4,1.8-3.4
		c1.3-1.8,2,1.3,3.3,0.5C59.2,52.9,58.4,51.3,57.5,49.8z M48.5,50c-0.3-2.2-0.4-4-0.7-6.4c-2.6,2.2-3.8,4.7-4.6,7.6
		c0.9-0.2,0.9-0.8,1.3-1.2C46.4,47.5,46.4,47.5,48.5,50z M69.7,50.8c-0.3-2.8-1.5-5.2-4-7.2c0.2,2.2-0.4,4-0.7,5.8
		c1.4,0.6,1-2.4,2.6-1.1C68.4,49.1,69,50,69.7,50.8z M56.6,38.1c-0.4,1.6-0.9,3.2-1.3,4.7c0.1,0.2,0.2,0.4,0.3,0.6
		c1.5-2.9,3-2.1,4.7-0.1C59.4,40.6,58.6,39.6,56.6,38.1z"/>
	<path class="st0" d="M67.8,73c0,1.6-1.3,2.8-2.9,2.8c-1.6,0-2.9-1.4-2.9-2.9c0.1-1.5,1.6-2.9,3-2.9C66.6,69.9,67.9,71.3,67.8,73z"
		/>
	<path class="st0" d="M53.2,72.9c0,1.7-1.2,2.9-2.9,2.8c-1.6,0-2.9-1.4-2.9-2.9c0-1.5,1.4-2.8,2.8-2.8
		C51.8,69.9,53.2,71.2,53.2,72.9z"/>
</g>
</svg>
