<?xml version="1.0" encoding="utf-8"?>
<!-- Generator: Adobe Illustrator 21.0.0, SVG Export Plug-In . SVG Version: 6.00 Build 0)  -->
<svg version="1.1" id="Capa_1" xmlns="http://www.w3.org/2000/svg" xmlns:xlink="http://www.w3.org/1999/xlink" x="0px" y="0px"
	 viewBox="0 0 115 107" style="enable-background:new 0 0 115 107;" xml:space="preserve">
<style type="text/css">
	.st0{fill:#666666;}
</style>
<title>tech-icon1</title>
<g>
	<path class="st0" d="M110.2,69.7c-2.5,0-5,0-7.5,0c0-0.9,0-1.7,0-2.6c1.5,0,2.9,0,4.4,0c0-8.8,0-17.5,0-26.2c-1.5,0-2.9,0-4.4,0
		c0-0.9,0-1.8,0-2.7c2.5,0,5,0,7.5,0C110.2,48.6,110.2,59.2,110.2,69.7z"/>
	<path class="st0" d="M59.3,71.4c-0.1-0.5-0.2-1.1-0.3-1.6c0-0.3-0.1-0.5-0.1-0.7c0.7-0.2,1.5-0.4,2.2-0.6c0.8-0.3,1.3-1,1.4-1.9
		c0.2-1,0.3-2,0.3-3c0-4.1,0-8.3,0-12.3c0-0.2,0-0.4,0-0.5c1.1,0,2.1,0,3.1,0c0,0.2,0,0.3,0,0.5c0,4.1,0,8.3,0,12.3
		c0,1.4,0,2.6-0.5,4c-0.5,1.5-1.4,2.7-2.9,3.3c-0.6,0.2-1.2,0.4-1.8,0.5C60.2,71.4,59.7,71.4,59.3,71.4z"/>
	<path class="st0" d="M24.6,55.3c0.1-1.9,0.4-3.8,1.3-5.5c1.4-2.6,3.4-4.3,6.4-4.8c2.4-0.5,4.6-0.1,6.7,1.3c1.1,0.7,1.9,1.6,2.6,2.8
		c0.7,1.4,1.2,2.7,1.4,4.3c0.3,2.3,0.1,4.5-0.8,6.7c-1.2,2.8-3.3,4.6-6.3,5.4c-2.2,0.5-4.4,0.3-6.4-0.7c-1.5-0.7-2.5-1.8-3.4-3.3
		c-0.9-1.5-1.4-3.1-1.5-4.8C24.7,56.2,24.6,55.8,24.6,55.3z M27.8,55.5c0,0.2,0.1,0.5,0.1,0.7c0.1,1.4,0.5,2.6,1.1,3.8
		c1.3,2.3,3.4,3.4,5.8,3c1.9-0.3,3.2-1.4,4.1-3c0.9-1.7,1.3-3.6,1.1-5.6c-0.1-1.1-0.3-2.1-0.6-3.1c-0.5-1.2-1.2-2.2-2.2-2.9
		c-1.1-0.8-2.4-1.2-3.8-1c-1.6,0.2-2.9,1-3.8,2.3C28.2,51.3,27.9,53.3,27.8,55.5z"/>
	<path class="st0" d="M45.7,65.2c0-0.6,0-1.2,0-1.8c0-6.4,0.1-12.7,0.1-19.1c0-0.1,0-0.2,0-0.3c1,0,2,0,3,0c0,2.7,0,5.4,0,8.3
		c0.5-0.4,0.9-0.8,1.4-1.1c0.8-0.5,1.7-0.8,2.7-0.8c1.2-0.1,2.3,0.1,3.4,0.6c1,0.5,1.8,1.4,2.4,2.4c0.6,1.1,0.9,2.3,1,3.4
		c0.2,1.9-0.1,3.6-1,5.4c-1,1.9-2.5,3-4.7,3.4c-1.2,0.2-2.4,0-3.4-0.5c-0.8-0.4-1.5-0.9-2-1.7c0,0.6-0.1,1.3-0.1,1.9
		C47.5,65.2,46.6,65.2,45.7,65.2z M48.8,58.1L48.8,58.1c0,0.4,0.1,0.8,0,1.2c0,0.6,0.1,1.2,0.4,1.7c0.6,1.3,1.7,2,3.2,2.1
		c1.5,0.1,2.7-0.6,3.4-2c0.8-1.6,0.8-3.4,0.5-5.1s-1.9-3.2-3.8-3.1c-1.8,0.1-3.3,1.5-3.5,3.1C48.8,56.7,48.8,57.4,48.8,58.1z"/>
	<path class="st0" d="M7.5,69.6c0-10.4,0-21,0-31.4c2.5,0,5,0,7.5,0c0,0.8,0,1.7,0,2.5c-1.5,0-3,0-4.4,0c0,8.8,0,17.5,0,26.2
		c1.5,0,2.9,0,4.4,0c0,0.9,0,1.7,0,2.5C12.5,69.6,10.1,69.6,7.5,69.6z"/>
	<path class="st0" d="M93.3,45.8c-0.3,0.8-0.5,1.6-0.7,2.5c-0.8-0.2-1.5-0.5-2.4-0.6c-0.9-0.2-1.9-0.2-2.8-0.1s-1.8,0.3-2.5,0.7
		c-1.7,0.8-2.8,2.3-3.4,4.1c-0.5,1.5-0.5,2.9-0.4,4.4c0.2,1.3,0.5,2.4,1.2,3.4c0.9,1.4,2.2,2.2,3.7,2.5c0.8,0.2,1.6,0.4,2.4,0.4
		c1.5,0,2.8-0.2,4.1-0.9c0,0,0.1,0,0.2,0c0.2,0.7,0.4,1.5,0.5,2.3c0,0.1-0.1,0.3-0.2,0.3c-0.8,0.3-1.6,0.5-2.5,0.7
		c-0.8,0.2-1.6,0.3-2.5,0.3c-1.6,0-3.3-0.2-4.8-0.9c-1.1-0.5-2-1.1-2.8-1.9c-1.1-1.1-1.7-2.4-2.2-3.8c-0.5-1.5-0.5-3.1-0.5-4.6
		c0.1-1.6,0.5-3.2,1.3-4.5c1.1-2,2.7-3.4,4.7-4.2c1.7-0.7,3.5-0.9,5.4-0.8c1.4,0.1,2.6,0.3,3.8,0.9C93.1,45.7,93.2,45.8,93.3,45.8z"
		/>
	<path class="st0" d="M68.2,58.3c0-0.8,0-1.5,0-2.3c2.5,0,5.1,0,7.6,0c0,0.7,0,1.5,0,2.3C73.3,58.3,70.8,58.3,68.2,58.3z"/>
	<path class="st0" d="M64.2,48.7c-1.1,0.1-1.9-0.7-1.9-1.8c0-0.9,0.7-1.8,2-1.8c1,0,1.7,0.9,1.7,1.8C66.1,47.8,65.3,48.9,64.2,48.7z
		"/>
</g>
</svg>
