<?xml version="1.0" encoding="utf-8"?>
<!-- Generator: Adobe Illustrator 21.0.0, SVG Export Plug-In . SVG Version: 6.00 Build 0)  -->
<svg version="1.1" id="Capa_1" xmlns="http://www.w3.org/2000/svg" xmlns:xlink="http://www.w3.org/1999/xlink" x="0px" y="0px"
	 viewBox="0 0 115 107" style="enable-background:new 0 0 115 107;" xml:space="preserve">
<style type="text/css">
	.st0{fill:#666666;}
</style>
<title>tech-icon1</title>
<g>
	<path class="st0" d="M56.9,35.7c2.3-1.2,4.4-2.6,6.7-3.5c1.9-0.7,4-1.1,6.1-1.5c0.6-0.1,1.5,0.1,1.9,0.5c1.9,1.9,3.7,3.9,5.5,5.8
		c-4.5,0.1-8.4,2.4-12.7,5.4c0.5,0.2,1,0.3,1.3,0.6c4.5,4.3,8.5,9,11.4,14.7c1.1,2.1,1.8,4.5,2.4,6.7c0.5,1.6,0,3.1-1.2,4.2
		c-1.7,1.6-3.3,3.3-5.2,5.2c0.2-4.1-1.4-7.3-3.1-10.4c-3.3-5.9-7.9-10.9-13-15.7c-2.4,2.5-4.7,5-7,7.5c-3.1,3.6-5.9,7.5-7.7,12
		c-0.7,1.9-1.1,4-1.6,6c0,0-0.2-0.1-0.5-0.3c-1.5-1.5-2.9-3-4.4-4.4c-1.2-1.2-1.6-2.6-1.3-4.3c0.5-3.1,1.8-5.9,3.5-8.5
		c2.8-4.7,6.4-9,10.4-12.8c0.3-0.3,0.7-0.5,1.2-0.9c-4.1-2.6-8-4.8-12.4-5c1.7-1.8,3.4-4.1,5.5-5.8c0.8-0.7,2.6-0.6,3.8-0.4
		c3.1,0.5,5.8,2,8.3,3.6C55.5,34.8,56.2,35.3,56.9,35.7z"/>
	<path class="st0" d="M45.5,62.2c2.1-2.8,4-5.3,6.2-8.1c1.8,2,3.5,3.8,5.3,5.8c1.8-2,3.5-3.9,5.3-6c2.2,2.9,4.1,5.4,6.2,8.1
		c-1.2,1.2-2.4,2.2-3.8,3.6c2.2,1.1,4.1,2.1,6,3c0.7,0.3,1.3,0.7,1.3,1.6c0.1,1.2,0.3,2.3,0.2,3.5c-0.2,1.8-1.4,2.9-3.2,2.7
		c-2.1-0.3-4.2-0.7-6.2-1.5c-1.6-0.6-3.2-1.6-4.6-2.5c-0.9-0.5-1.4-0.5-2.2,0.1c-2.6,1.7-5.4,3.2-8.5,3.8c-0.8,0.1-1.6,0.2-2.4,0.2
		c-1.7-0.1-2.8-0.9-3-2.6c-0.1-1.4,0.1-2.8,0.4-4.2c0.1-0.3,0.7-0.6,1-0.8c2-1,3.9-2,6.1-3C48,64.5,46.8,63.4,45.5,62.2z"/>
	<path class="st0" d="M44.6,45.6c-2,2.6-4.1,5.1-6.1,7.7c-2.1-3.4-4.3-6.8-4.7-10.9c-0.3-3.2,1.1-4.5,4.3-4.5c0.3,0,0.7,0.1,1,0.1
		c1.4,0.1,2.2,0.7,2.6,2.1c0.3,0.9,0.9,1.9,1.4,2.8C43.6,43.8,44.1,44.7,44.6,45.6z"/>
	<path class="st0" d="M75.5,53.3c-2.1-2.6-4.1-5.1-6-7.6c1.1-2.2,2.2-4.5,3.3-6.9c0.1-0.1,0.1-0.3,0.2-0.3c1.8-0.6,3.6-1.1,5.4-0.3
		c1.6,0.7,2,2.2,1.7,3.7c-0.5,2.2-1.2,4.5-2,6.6C77.5,50.2,76.4,51.7,75.5,53.3z"/>
</g>
</svg>
