<?xml version="1.0" encoding="utf-8"?>
<!-- Generator: Adobe Illustrator 21.0.0, SVG Export Plug-In . SVG Version: 6.00 Build 0)  -->
<svg version="1.1" id="Capa_1" xmlns="http://www.w3.org/2000/svg" xmlns:xlink="http://www.w3.org/1999/xlink" x="0px" y="0px"
	 viewBox="0 0 115 107" style="enable-background:new 0 0 115 107;" xml:space="preserve">
<style type="text/css">
	.st0{fill:#666666;}
</style>
<title>tech-icon1</title>
<g>
	<g>
		<g>
			<path class="st0" d="M63.5,48.7L62,47.3c-0.5-0.5-1.3-0.5-1.8,0c-0.5,0.5-0.5,1.3,0,1.8l1.4,1.4c-0.9,1.2-1.4,2.5-1.7,4h17.5
				c-0.3-1.4-0.9-2.8-1.7-4l1.4-1.4c0.5-0.5,0.5-1.3,0-1.8c-0.5-0.5-1.3-0.5-1.8,0l-1.4,1.4c-1.4-1.1-3.2-1.8-5.3-1.8
				C66.6,46.9,64.9,47.6,63.5,48.7z"/>
			<path class="st0" d="M70,76.1c0-0.7-0.6-1.3-1.3-1.3s-1.3,0.6-1.3,1.3c0,2.1-1.7,3.8-3.8,3.8s-3.8-1.7-3.8-3.8
				c0-0.7-0.6-1.3-1.3-1.3H37V36.9h32.9v6.6c0,0.7,0.6,1.3,1.3,1.3s1.3-0.6,1.3-1.3V33c0-6.1-7-8.9-13.9-8.9H48.5
				c-6.9,0-13.9,2.7-13.9,8.9v43c0,6.1,7,8.9,13.9,8.9h10.1c4.3,0,10-1.2,12.5-4.6c0.3-0.5,0.3-1.2-0.1-1.6C70.4,77.9,70,77,70,76.1
				z M51,29.2h5c0.7,0,1.3,0.6,1.3,1.3s-0.6,1.3-1.3,1.3h-5c-0.7,0-1.3-0.6-1.3-1.3S50.3,29.2,51,29.2z"/>
			<path class="st0" d="M78.8,57.1c-0.7,0-1.3,0.6-1.3,1.3v-1.3H59.9v1.3c0-0.7-0.6-1.3-1.3-1.3s-1.3,0.6-1.3,1.3v10.1
				c0,0.7,0.6,1.3,1.3,1.3s1.3-0.6,1.3-1.3c0,1.6,1,3.1,2.6,3.6v4c0,0.7,0.6,1.3,1.3,1.3c0.7,0,1.3-0.6,1.3-1.3v-3.8h7.6v3.8
				c0,0.7,0.6,1.3,1.3,1.3c0.7,0,1.3-0.6,1.3-1.3v-4c1.4-0.5,2.6-1.9,2.6-3.6c0,0.7,0.6,1.3,1.3,1.3s1.3-0.6,1.3-1.3V58.3
				C80.1,57.7,79.6,57.1,78.8,57.1z"/>
		</g>
	</g>
</g>
</svg>
