<?xml version="1.0" encoding="utf-8"?>
<!-- Generator: Adobe Illustrator 21.0.0, SVG Export Plug-In . SVG Version: 6.00 Build 0)  -->
<svg version="1.1" id="Capa_1" xmlns="http://www.w3.org/2000/svg" xmlns:xlink="http://www.w3.org/1999/xlink" x="0px" y="0px"
	 viewBox="0 0 115 107" style="enable-background:new 0 0 115 107;" xml:space="preserve">
<style type="text/css">
	.st0{fill:#666666;}
</style>
<title>tech-icon1</title>
<g>
	<path class="st0" d="M33.9,80.2c0.9-0.6,1.8-1.1,2.8-1.7c7.8-4.5,15.5-9,23.3-13.5c0.3-0.1,0.4-0.4,0.4-0.7c0-0.4,0-0.9,0-1.5
		c-9.6,5.6-19,11-28.6,16.5c0-0.7,0-1.2,0-1.7c0-0.7-0.2-1.5,0.1-2s1-0.7,1.6-1.1c8.8-5.2,17.5-10.4,26.3-15.5
		c0.5-0.3,0.7-0.6,0.7-1.2c-0.1-0.4,0-0.8,0-1.2c0-0.7,0-0.7-0.7-0.9c-0.8-0.2-1.6-0.4-2.5-0.7c1-0.6,2-1.2,2.9-1.7
		c0.3-0.1,0.4-0.4,0.4-0.7c0-0.5,0-0.9,0-1.5c-0.9,0.5-1.7,1-2.5,1.5c-0.9,0.5-1.9,1.1-2.8,1.6c-0.2,0.1-0.5,0.1-0.7,0.1
		c-1.5-0.4-2.8-0.7-4.4-1.1c0.2-0.1,0.4-0.3,0.5-0.4c3.2-1.9,6.4-3.8,9.5-5.7c0.3-0.1,0.4-0.4,0.4-0.7c0-0.5,0-0.9,0-1.5
		C60.1,45,60,45,59.9,45.1c-4,2.4-8,4.8-12,7.2c-0.3,0.1-0.6,0.2-0.9,0.1c-1.4-0.4-2.8-0.7-4.4-1.1c1.5-0.9,3-1.8,4.4-2.7
		c4.3-2.6,8.6-5.2,12.8-7.8c0.3-0.2,0.4-0.4,0.4-0.7c0-0.4,0-0.9,0-1.5c-0.2,0.1-0.4,0.2-0.6,0.3c-6.3,3.8-12.7,7.7-19,11.5
		c-0.3,0.2-0.6,0.2-0.9,0.1c-1.6-0.4-3.2-0.8-4.9-1.2c0.4-0.2,0.7-0.4,0.9-0.6c7-4.1,14-8.2,21-12.3c0.2-0.1,0.6-0.2,0.8-0.2
		c0.9,0,1.7,0,2.7,0c0.4-2.9,1.5-5.4,3.8-7.3c1.7-1.5,3.6-2.3,5.9-2.5c0.1,0,0.2-0.1,0.3-0.1c0.6,0,1.1,0,1.7,0
		c0.5,0.1,0.9,0.1,1.5,0.3c5.1,1.2,8.5,5.4,8.5,10.7c0,10.6,0,21.2,0,31.7c0,0.6,0,1.2-0.1,1.7c-0.7,3.9-2.8,6.7-6.5,8.3
		c-0.8,0.4-1.7,0.5-2.5,0.8c-9.4,0-18.7,0-28.1,0c0.1-0.1,0.2-0.2,0.4-0.3c4.7-2.8,9.4-5.5,14.1-8.2c0.9-0.5,1.5-0.9,1.1-2
		c-0.1-0.1,0-0.4,0-0.6c-0.2,0.1-0.4,0.2-0.6,0.3c-4.6,2.6-9.1,5.3-13.6,7.9c-1.6,0.9-3.3,1.9-4.9,2.8
		C38.8,80.2,36.3,80.2,33.9,80.2z M62.2,63.5c2.3-3,5.2-4.6,8.9-4.6c3.7,0,6.6,1.7,8.9,4.6c0-0.3,0-0.5,0-0.7c0-8.4,0-16.8,0-25.2
		c0-0.5-0.1-0.9-0.1-1.5c-0.6-4.9-5.7-8.5-10.5-7.5c-4.4,0.9-7.2,4.5-7.2,8.9c0,8.4,0,16.8,0,25.2C62.2,63,62.2,63.2,62.2,63.5z
		 M71.1,78.5c4.9,0,8.9-4,8.9-8.9c0-4.9-4-8.9-8.9-8.9c-4.9,0-8.9,4-8.9,8.9C62.2,74.5,66.1,78.5,71.1,78.5z"/>
	<path class="st0" d="M59,57.4c-0.3,0.2-0.5,0.3-0.7,0.4c-1.4,0.8-2.8,1.7-4.1,2.5c-0.2,0.1-0.5,0.1-0.7,0.1
		c-7.2-2.1-14.4-4.3-21.7-6.4c0-0.8,0-1.6,0-2.4c0-0.3,0.9-0.8,1.3-0.7c2.2,0.6,4.6,1.1,6.8,1.7C46.2,54.2,52.5,55.8,59,57.4z"/>
	<path class="st0" d="M31.8,55.8c6.7,2,13.3,3.9,20,5.9c-1.5,0.9-2.9,1.7-4.3,2.5c-0.1,0.1-0.2,0.1-0.3,0.1
		c-3.9-1.2-7.8-2.5-11.6-3.7c-1.2-0.4-2.2-0.7-3.4-1.1c-0.3-0.1-0.4-0.2-0.4-0.5C31.8,57.9,31.8,56.9,31.8,55.8z"/>
	<path class="st0" d="M53.7,36.6c-7.3,4.3-14.5,8.5-21.9,12.8c0-0.7,0.1-1.3,0-1.9c-0.1-1.1,0.3-1.7,1.2-2.2
		c4.9-2.8,9.6-5.8,14.5-8.6c0.2-0.1,0.5-0.2,0.8-0.2C50.1,36.5,51.9,36.5,53.7,36.6C53.7,36.5,53.7,36.5,53.7,36.6z"/>
	<path class="st0" d="M31.8,61.2c4.6,1.5,9.1,2.8,13.6,4.3c-1.8,1.1-3.5,2.1-5.2,3.1c-0.1,0.1-0.3,0.1-0.4,0
		c-2.5-0.9-5.2-1.9-7.7-2.9c-0.1-0.1-0.3-0.2-0.3-0.4C31.8,64,31.8,62.7,31.8,61.2z"/>
	<path class="st0" d="M31.8,36.5c4.2,0,8.3,0,12.6,0c-4.3,2.5-8.4,5.1-12.6,7.6C31.8,41.5,31.8,39.1,31.8,36.5z"/>
	<path class="st0" d="M38.1,69.8c-2.2,1.3-4.2,2.5-6.4,3.8c0-2.1,0-4.1,0-6.2C33.9,68.2,36,69,38.1,69.8z"/>
	<path class="st0" d="M71.1,75.9c-3.5,0-6.2-2.8-6.2-6.4c0-3.4,2.9-6.2,6.4-6.2c3.4,0,6.2,2.9,6.2,6.4
		C77.3,73.1,74.5,75.9,71.1,75.9z M75.5,69.6c0-2.5-1.9-4.4-4.4-4.4c-2.5,0-4.5,1.9-4.5,4.4s2,4.5,4.4,4.5
		C73.5,74,75.5,72,75.5,69.6z"/>
</g>
</svg>
