<?xml version="1.0" encoding="utf-8"?>
<!-- Generator: Adobe Illustrator 21.0.0, SVG Export Plug-In . SVG Version: 6.00 Build 0)  -->
<svg version="1.1" id="Capa_1" xmlns="http://www.w3.org/2000/svg" xmlns:xlink="http://www.w3.org/1999/xlink" x="0px" y="0px"
	 viewBox="0 0 115 107" style="enable-background:new 0 0 115 107;" xml:space="preserve">
<style type="text/css">
	.st0{fill:#666666;}
</style>
<title>tech-icon1</title>
<g>
	<path class="st0" d="M59.8,77.2c-0.9-0.1-1.8-0.2-2.6-0.4c-4.7-0.8-9-2.7-13-5.4c-3.1-2.1-6-4.4-8.5-7.2c-0.9-0.9-1.6-1.9-2.3-2.9
		C33,60.8,33,60.3,33.3,60c0.4-0.4,0.7-0.4,1.3-0.1c4.2,2.5,8.6,4.2,13.5,4.9c4,0.6,7.9,0.4,11.7-1.2c0.1-0.1,0.2-0.1,0.4-0.1
		c0,0,0.1-0.1,0.1-0.1c-0.2-0.2-0.5-0.4-0.7-0.6C53,57.3,47,51.3,41.9,44.5c-1.3-1.7-2.5-3.6-3.7-5.4c-0.4-0.6-0.1-1.4,0.5-1.4
		c0.3,0,0.6,0.1,0.9,0.4c2.1,1.8,4.3,3.6,6.4,5.3c1.9,1.6,3.9,3.1,5.9,4.6c0.1,0.1,0.3,0.2,0.4,0.2c-0.1-0.1-0.1-0.2-0.2-0.4
		c-2.7-3.8-5.5-7.6-8.2-11.3c-0.1-0.1-0.1-0.1-0.1-0.3c-0.2-0.4-0.2-0.9,0.1-1.2c0.4-0.3,0.8-0.3,1.1,0c0.7,0.6,1.4,1.1,2,1.7
		C53.1,42,59.3,47.2,65.8,52c0.8,0.6,1.5,1.1,2.3,1.6c0.1,0.1,0.1,0.1,0.3,0.1c0.3-1,0.7-2,0.9-3c0.9-4.1,0.4-8-1.1-11.9
		c-0.9-2.5-2.1-4.9-3.6-7.1c-0.2-0.4-0.3-0.7-0.1-1.1c0.2-0.4,0.6-0.4,0.9-0.4c0.1,0,0.3,0.1,0.4,0.2c6.3,4.6,11.1,10.2,13.8,17.6
		c1.4,3.9,2.1,7.9,1.4,12.1c-0.1,0.9-0.4,1.8-0.6,2.7c-0.1,0.3-0.1,0.5,0.1,0.7c2.4,2.7,3.5,5.9,3.4,9.5c0,0.9-0.1,1.8-0.3,2.6
		c-0.1,0.9-0.9,1.1-1.6,0.5c-1.3-1.2-2.7-2.3-4.4-3.2c-1.1-0.6-2.4-0.9-3.7-0.6c-0.4,0.1-0.7,0.3-1,0.5c-2.3,2-5,3.1-7.9,3.7
		c-0.9,0.1-1.8,0.3-2.7,0.4C61.8,77.2,60.8,77.2,59.8,77.2z"/>
	<path class="st0" d="M53.2,26.8c1,0.6,1,1.3,0.2,2.1c-0.3,0.3-0.6,0.6-1,0.9c0.4,0.4,0.9,0.7,1.2,1.1c0.5,0.5,0.5,1.1,0.1,1.6
		c-0.4,0.5-1.1,0.5-1.6,0c-0.4-0.4-0.7-0.8-1.1-1.2c-0.4,0.4-0.6,0.8-1,1.1c-0.6,0.6-1.2,0.6-1.7,0.1c-0.5-0.5-0.4-1.1,0.1-1.7
		c0.3-0.3,0.6-0.6,0.9-0.9c0,0,0-0.1,0.1-0.2c-0.3-0.3-0.6-0.5-0.9-0.8c-0.9-0.9-0.8-1.4,0.1-2.1c0.2,0,0.5,0,0.7,0
		c0.5,0.5,1.1,0.9,1.6,1.4c0.5-0.5,1-0.9,1.5-1.4C52.7,26.8,53,26.8,53.2,26.8z"/>
	<path class="st0" d="M63.2,44.9c-2.1,0-3.9-1.8-3.8-3.9c0-2.1,1.8-3.8,3.9-3.8c2.1,0,3.8,1.7,3.8,3.9
		C67.1,43.2,65.3,44.9,63.2,44.9z M64.8,41.1c0-0.9-0.7-1.6-1.6-1.6c-0.9,0-1.6,0.7-1.6,1.6s0.7,1.6,1.6,1.6
		C64.1,42.8,64.8,42.1,64.8,41.1z"/>
	<path class="st0" d="M40,75.7c-0.2,0.3-0.3,0.6-0.5,0.9c-0.9,1-1.9,2-2.9,2.9c-0.6,0.6-1.1,0.6-1.7,0c-1-1-2-1.9-2.9-2.9
		c-0.5-0.6-0.5-1.1,0-1.7c1-1,1.9-2,2.9-2.9c0.6-0.6,1.1-0.6,1.7,0c1,1,2,1.9,2.9,2.9C39.7,75.1,39.9,75.4,40,75.7z M35.8,74.3
		c-0.5,0.5-1,1-1.4,1.4c0.4,0.5,0.9,1,1.4,1.4c0.4-0.4,0.9-0.9,1.4-1.4C36.7,75.2,36.2,74.7,35.8,74.3z"/>
</g>
</svg>
