<?xml version="1.0" encoding="utf-8"?>
<!-- Generator: Adobe Illustrator 21.0.0, SVG Export Plug-In . SVG Version: 6.00 Build 0)  -->
<svg version="1.1" id="Capa_1" xmlns="http://www.w3.org/2000/svg" xmlns:xlink="http://www.w3.org/1999/xlink" x="0px" y="0px"
	 viewBox="0 0 115 107" style="enable-background:new 0 0 115 107;" xml:space="preserve">
<style type="text/css">
	.st0{fill:#666666;}
</style>
<title>tech-icon1</title>
<g>
	<path class="st0" d="M31.6,48.1c0-0.1,0-0.2,0-0.2c0.1-0.2,0.2-0.3,0.3-0.5c3.8-6.2,7.7-12.4,11.6-18.5c0.2-0.3,0.4-0.4,0.7-0.4
		c9.4,0,18.8,0,28.2,0c0.4,0,0.5,0.2,0.7,0.4c3.1,4.9,6,9.7,9.1,14.6c0.9,1.5,1.9,3,2.8,4.5c0,0.1,0,0.2,0,0.2
		c-0.1,0.2-0.1,0.2-0.1,0.4c-0.7,4.6-1.4,9.2-2.1,13.9c-0.9,5.6-1.7,11.1-2.6,16.7c-0.1,0.5-0.2,0.5-0.6,0.5c-2.5,0-4.9,0-7.4,0
		c-0.2,0-0.4,0-0.6,0c0.2-2.4,0.4-4.9,0.6-7.3c-1.4,0-2.7,0-4.1,0c-0.1,0-0.3,0.2-0.3,0.4c-0.2,2.1-0.4,4.2-0.5,6.3
		c0,0.5-0.2,0.5-0.6,0.5c-5.6,0-11.2,0-16.7,0c-0.2,0-0.4,0-0.5,0c-0.2-2.3-0.4-4.5-0.5-6.7c0-0.5-0.2-0.6-0.6-0.6
		c-0.9,0-1.9,0-2.9,0c-0.2,0-0.5,0-0.9,0c0.2,2.5,0.4,4.9,0.6,7.2c-0.1,0-0.2,0.1-0.2,0.1c-2.7,0-5.4,0-8.1,0
		c-0.2,0-0.3-0.2-0.4-0.3c-0.2-1.2-0.4-2.3-0.5-3.5c-0.6-4-1.3-7.9-1.8-11.9c-0.5-4.2-1.2-8.5-1.8-12.6C32,50.2,31.8,49.2,31.6,48.1
		z M43.7,67.4c9.8,0,19.5,0,29.3,0c0.4-3.4,0.9-6.8,1.3-10.2c0.4-3,0.7-5.9,1.1-8.8c0-0.2,0-0.5-0.2-0.8c-1.5-3-3-5.9-4.5-9
		c-0.2-0.3-0.3-0.5-0.7-0.5c-2.3,0-4.5,0-6.9,0c-0.2,0-0.3,0-0.5,0c0.2,1.3,0.3,2.4,0.5,3.6c-3.2,0-6.4,0-9.6,0
		c0.2-1.3,0.3-2.3,0.5-3.6c-0.2,0-0.2-0.1-0.2-0.1c-2.4,0-4.9,0-7.3,0c-0.2,0-0.4,0.2-0.5,0.4c-1.6,3-3.1,6-4.5,9.1
		c-0.1,0.2-0.2,0.4-0.2,0.6c0.2,1.2,0.3,2.3,0.5,3.6c0.4,2.9,0.7,5.9,1.1,8.8C43.2,62.8,43.4,65,43.7,67.4z"/>
	<path class="st0" d="M67.6,56.4c-0.2,1.2-0.3,2.3-0.6,3.5c-0.1,0.3-0.4,0.9-0.7,0.9c-0.5,0.1-0.6-0.5-0.7-0.9c-0.6-2.3-0.6-4.7,0-7
		c0.1-0.4,0.2-1,0.7-0.9c0.3,0,0.6,0.5,0.7,0.9C67.3,54.1,67.4,55.3,67.6,56.4z"/>
	<path class="st0" d="M52.2,56.8c-0.2,1.2-0.3,2.3-0.5,3.4c-0.1,0.4-0.4,0.9-0.7,0.9c-0.5,0.1-0.6-0.5-0.7-0.9c-0.6-2.3-0.6-4.7,0-7
		c0.1-0.4,0.2-0.9,0.7-0.9c0.5,0,0.6,0.5,0.7,0.9C51.9,54.5,52,55.7,52.2,56.8z"/>
</g>
</svg>
