<?xml version="1.0" encoding="utf-8"?>
<!-- Generator: Adobe Illustrator 21.0.0, SVG Export Plug-In . SVG Version: 6.00 Build 0)  -->
<svg version="1.1" id="Capa_1" xmlns="http://www.w3.org/2000/svg" xmlns:xlink="http://www.w3.org/1999/xlink" x="0px" y="0px"
	 viewBox="0 0 115 107" style="enable-background:new 0 0 115 107;" xml:space="preserve">
<style type="text/css">
	.st0{fill:#666666;}
</style>
<title>tech-icon1</title>
<path class="st0" d="M61.3,64.9c-1-0.7-2.1-0.8-3.4-0.8c-1.1,0-2.2,0.2-3.2,0.8c-0.1,0-0.1,0.1-0.2,0.1c-0.9,0.7-0.8,1.6,0.2,2.2
	c0.7,0.5,1.6,0.7,2.5,0.7c1.1,0.1,2.3,0.1,3.4-0.3l0,0c0.3-0.1,0.6-0.2,0.8-0.4C62.2,66.5,62.2,65.5,61.3,64.9z M61.3,64.9
	c-1-0.7-2.1-0.8-3.4-0.8c-1.1,0-2.2,0.2-3.2,0.8c-0.1,0-0.1,0.1-0.2,0.1c-0.9,0.7-0.8,1.6,0.2,2.2c0.7,0.5,1.6,0.7,2.5,0.7
	c1.1,0.1,2.3,0.1,3.4-0.3l0,0c0.3-0.1,0.6-0.2,0.8-0.4C62.2,66.5,62.2,65.5,61.3,64.9z M61.3,64.9c-1-0.7-2.1-0.8-3.4-0.8
	c-1.1,0-2.2,0.2-3.2,0.8c-0.1,0-0.1,0.1-0.2,0.1c-0.9,0.7-0.8,1.6,0.2,2.2c0.7,0.5,1.6,0.7,2.5,0.7c1.1,0.1,2.3,0.1,3.4-0.3l0,0
	c0.3-0.1,0.6-0.2,0.8-0.4C62.2,66.5,62.2,65.5,61.3,64.9z M61.3,64.9c-1-0.7-2.1-0.8-3.4-0.8c-1.1,0-2.2,0.2-3.2,0.8
	c-0.1,0-0.1,0.1-0.2,0.1c-0.9,0.7-0.8,1.6,0.2,2.2c0.7,0.5,1.6,0.7,2.5,0.7c1.1,0.1,2.3,0.1,3.4-0.3l0,0c0.3-0.1,0.6-0.2,0.8-0.4
	C62.2,66.5,62.2,65.5,61.3,64.9z M84.3,52.1c0-0.3,0-0.7,0-0.9c0-0.5-0.1-1.1-0.1-1.6l0,0c0-0.2-0.1-0.5-0.1-0.7
	c0-0.1,0-0.2-0.1-0.3c0-0.1,0-0.2,0-0.2c0-0.1,0-0.2-0.1-0.2c0-0.2-0.1-0.4-0.1-0.7c-0.2-1.4-0.7-2.8-1.1-4.1l0,0
	c-0.1-0.2-0.1-0.3-0.2-0.4l0,0c-0.2-0.4-0.3-0.8-0.5-1.2c0-0.1-0.1-0.2-0.1-0.2l0,0c0-0.1-0.1-0.1-0.1-0.2c-0.1-0.1-0.1-0.2-0.2-0.3
	c-0.1-0.1-0.1-0.2-0.2-0.2l0,0c-0.2-0.6-0.6-1.1-0.9-1.7c-0.2-0.5-0.6-1-0.9-1.5l0,0l0,0c-0.1-0.1-0.2-0.2-0.2-0.3l0,0
	c-0.3-0.5-0.7-1-1.1-1.5l0,0l0,0l0,0c-0.2-0.2-0.3-0.4-0.5-0.7l0,0l0,0l0,0c0,0,0-0.1-0.1-0.1c-0.2-0.2-0.2-0.3-0.4-0.4
	c-0.2-0.2-0.2-0.3-0.4-0.4l0,0l0,0c-0.2-0.2-0.6-0.6-0.8-0.8l0,0l0,0c-2.5-2.5-5.6-4.5-8.9-5.9c-0.2-0.1-0.3-0.2-0.5-0.2
	c-3-1.1-6.2-1.8-9.7-1.8h-0.1c0,0,0,0-0.1,0c-3.6,0-7,0.7-10.1,2c-5.3,2.1-9.8,5.9-12.9,10.7c-2.6,4.2-4.2,9.2-4.2,14.4
	c0,8.4,3.8,16,9.9,21l0,0c0.4,0.3,0.8,0.7,1.2,0.9c4.3,3.2,9.7,5.2,15.5,5.2c0.2,0,0.3,0,0.5,0h0.1c0.1,0,0.2,0,0.3,0l0,0
	c0.2,0,0.3,0,0.5,0c1.6-0.1,3.3-0.2,4.8-0.6h0.1C63,79,63.2,79,63.4,79l0,0c0.3-0.1,0.7-0.2,1-0.2c0.1,0,0.2-0.1,0.3-0.1
	s0.2-0.1,0.3-0.1l0,0l0,0c2.5-0.7,4.7-1.9,6.9-3.3c0.1-0.1,0.2-0.2,0.3-0.2l0,0c0.7-0.5,1.5-1.1,2.1-1.6c0.2-0.2,0.3-0.2,0.5-0.4
	l0,0l0,0c0.2-0.2,0.4-0.3,0.6-0.5c0.1-0.1,0.2-0.2,0.2-0.2c0.2-0.2,0.4-0.4,0.6-0.6c0.1-0.1,0.2-0.2,0.2-0.2
	c0.2-0.2,0.3-0.3,0.5-0.5c0.2-0.2,0.3-0.3,0.5-0.6c0.5-0.6,1-1.2,1.5-1.8c0.2-0.2,0.2-0.3,0.3-0.5c0.2-0.2,0.3-0.5,0.6-0.8
	c0.1-0.1,0.1-0.2,0.2-0.2l0,0l0,0c0.2-0.2,0.3-0.5,0.4-0.7c0.2-0.3,0.4-0.7,0.6-1.1c0.2-0.5,0.6-1.1,0.7-1.6l0,0l0,0
	c1.5-3.4,2.5-7,2.5-10.9 M74.4,54.7c0.7,0.6,1.2,1.5,1.1,2.5c0,1.7-1.4,3-3,3c-0.9,0-1.7-0.4-2.3-1.1l0,0c-0.5-0.6-0.7-1.2-0.7-2
	c0-1.6,1.4-3,3.1-3C73.3,54.2,73.9,54.4,74.4,54.7L74.4,54.7z M61.9,41c0.5,0,1,0.5,1,0.9c0,0.6-0.3,0.9-0.9,0.9s-1-0.3-1-0.9
	C61,41.5,61.5,41,61.9,41z M61.9,35.5c0.5,0,1.1,0.5,1,1c0,0.5-0.4,0.8-1,0.8s-1-0.4-1-0.9C61,36,61.5,35.5,61.9,35.5z M52.8,42
	c0,0.6-0.3,0.9-0.9,0.9c-0.7,0-1-0.3-1-0.9c0-0.4,0.5-0.9,0.9-0.9C52.4,41,52.8,41.5,52.8,42z M51.9,35.5c0.4,0,1,0.5,1,0.9
	c0,0.5-0.4,1.1-0.9,1c-0.5,0-1-0.5-1-0.9C51,36,51.5,35.5,51.9,35.5z M44.6,54.8L44.6,54.8c0.7,0.6,1.2,1.5,1.2,2.4c0,1.6-1.4,3-3,3
	c-1,0-1.8-0.4-2.3-1.1l0,0c-0.4-0.5-0.7-1.2-0.7-2c0-1.6,1.4-3,3-3C43.4,54.2,44.1,54.4,44.6,54.8L44.6,54.8z M56.9,69.3
	c-0.2,0-0.3,0-0.4-0.1c-1.8-0.2-3.5-0.7-5-1.7c-0.4-0.3-0.8-0.6-1.1-1l0,0c-0.7-0.7-1.1-1.4-1.2-2.4c-0.1-0.5-0.1-1-0.1-1.4
	c0.1-0.7,0.7-1.1,1.6-1.1c1.9,0,3.8,0,5.7,0c0.2,0,0.4,0,0.7,0c0-7.3,0-14.5,0-21.8c0.2,0,0.3,0,0.5,0c0.2,0,0.3-0.1,0.5-0.1
	c-0.1,7.1,0.1,14.2,0.1,21.5c0,0.2,0,0.3,0,0.4c2,0,4.1,0.1,6.1,0c0.6,0,1.1,0.1,1.4,0.2c0.7,0.4,0.8,1.3,0.6,2.4
	c-0.3,1.6-1.5,2.7-2.8,3.6c-1.6,1-3.4,1.4-5.4,1.5c-0.2,0-0.3,0-0.5,0C57.3,69.3,57.1,69.3,56.9,69.3z M60.4,67.5L60.4,67.5
	c0.3-0.1,0.6-0.2,0.8-0.4c1-0.6,1-1.6,0-2.2c-1-0.7-2.1-0.8-3.4-0.8c-1.1,0-2.2,0.2-3.2,0.8c-0.1,0-0.1,0.1-0.2,0.1
	c-0.9,0.7-0.8,1.6,0.2,2.2c0.7,0.5,1.6,0.7,2.5,0.7C58.2,68,59.3,67.9,60.4,67.5z M61.3,64.9c-1-0.7-2.1-0.8-3.4-0.8
	c-1.1,0-2.2,0.2-3.2,0.8c-0.1,0-0.1,0.1-0.2,0.1c-0.9,0.7-0.8,1.6,0.2,2.2c0.7,0.5,1.6,0.7,2.5,0.7c1.1,0.1,2.3,0.1,3.4-0.3l0,0
	c0.3-0.1,0.6-0.2,0.8-0.4C62.2,66.5,62.2,65.5,61.3,64.9z M61.3,64.9c-1-0.7-2.1-0.8-3.4-0.8c-1.1,0-2.2,0.2-3.2,0.8
	c-0.1,0-0.1,0.1-0.2,0.1c-0.9,0.7-0.8,1.6,0.2,2.2c0.7,0.5,1.6,0.7,2.5,0.7c1.1,0.1,2.3,0.1,3.4-0.3l0,0c0.3-0.1,0.6-0.2,0.8-0.4
	C62.2,66.5,62.2,65.5,61.3,64.9z M61.3,64.9c-1-0.7-2.1-0.8-3.4-0.8c-1.1,0-2.2,0.2-3.2,0.8c-0.1,0-0.1,0.1-0.2,0.1
	c-0.9,0.7-0.8,1.6,0.2,2.2c0.7,0.5,1.6,0.7,2.5,0.7c1.1,0.1,2.3,0.1,3.4-0.3l0,0c0.3-0.1,0.6-0.2,0.8-0.4
	C62.2,66.5,62.2,65.5,61.3,64.9z M61.7,64.4c-1.1-0.7-2.4-0.9-3.8-0.9c-1.1,0-2.5,0.2-3.6,0.9c-0.1,0-0.1,0.1-0.2,0.1
	c-1,0.7-0.9,1.7,0.2,2.5c0.8,0.6,1.8,0.7,2.7,0.9c1.3,0.1,2.5,0.1,3.8-0.4l0,0c0.3-0.2,0.7-0.2,1-0.5C62.7,66.2,62.7,65,61.7,64.4z"
	/>
</svg>
