<?xml version="1.0" encoding="utf-8"?>
<!-- Generator: Adobe Illustrator 21.0.0, SVG Export Plug-In . SVG Version: 6.00 Build 0)  -->
<svg version="1.1" id="Capa_1" xmlns="http://www.w3.org/2000/svg" xmlns:xlink="http://www.w3.org/1999/xlink" x="0px" y="0px"
	 viewBox="0 0 115 107" style="enable-background:new 0 0 115 107;" xml:space="preserve">
<style type="text/css">
	.st0{fill:#666666;}
</style>
<title>tech-icon1</title>
<path class="st0" d="M62.3,54c-2.6,0-5,0-7.8,0c0.3,1.2-1,2.7,1.1,3.3c0.2,0.1,0.3,0.6,0.3,1c0,4.6,0,9.2,0,13.8
	c0,0.9-0.3,1.2-1.2,1.4c-3.6,0.4-7,1.6-10.2,3.4c-0.9,0.5-1.6,0.6-2.5-0.1C34.8,71.3,30.7,64,30.7,55c0.1-14.9,11-25,22.9-27.1
	c13.9-2.4,26.6,5.6,31.1,17.7c4.1,11.2-0.1,24.4-9.9,31.1c-0.8,0.5-1.4,0.5-2.2,0.1c-2.9-1.2-5.7-2.2-8.7-3.2
	c-1.1-0.3-1.4-0.8-1.4-1.9c0.1-5.2,0-10.4,0-15.7C62.4,55.5,62.4,54.7,62.3,54z M63.8,70.9c7-1,13-9.9,12.1-18
	c-1.2-9.7-9.5-15.9-18.3-15.3c-10.1,0.6-17,8.6-16.6,18.7c0.3,7.2,7.6,15.1,13.6,15.1c0.5-1.2,0-1.6-1.2-2
	c-7-2.3-11.1-8.7-10.7-15.3c0.5-9.9,10-16.6,19.6-14.2c6.7,1.7,11.9,8,11.7,15c-0.1,6.5-3.4,11.1-9.2,13.9
	C63.9,69.2,63.3,69.8,63.8,70.9z M63.4,62.5c0.2,0.1,0.3,0.1,0.5,0.2c3.5-1.8,5.4-6.6,4.1-10.8c-1.4-4.4-6.2-7.6-10.6-7
	c-5.1,0.8-8.8,4.8-8.9,9.6c-0.1,4.1,2.9,8.4,6.2,8.9c0.4-1,0-1.6-0.9-2.3c-2.2-1.6-3.4-3.7-3.4-6.5c0.1-3.5,2.4-6.5,5.8-7.6
	c3.5-1,7.3,0.5,9.2,3.5c1.8,3,1.5,6.7-0.9,9.5C63.9,60.7,63.7,61.7,63.4,62.5z"/>
</svg>
