<?xml version="1.0" encoding="utf-8"?>
<!-- Generator: Adobe Illustrator 21.0.0, SVG Export Plug-In . SVG Version: 6.00 Build 0)  -->
<svg version="1.1" id="Capa_1" xmlns="http://www.w3.org/2000/svg" xmlns:xlink="http://www.w3.org/1999/xlink" x="0px" y="0px"
	 viewBox="0 0 115 107" style="enable-background:new 0 0 115 107;" xml:space="preserve">
<style type="text/css">
	.st0{fill:#666666;}
</style>
<title>tech-icon3</title>
<path class="st0" d="M67.4,76.7c0-0.3,0-0.5,0-0.7c0-12.8,0-25.6,0-38.4c-0.1-0.4,0.2-0.8,0.6-0.9c4.4-1.8,8.7-3.7,13.1-5.6l0.8-0.3
	c0,0.2,0,0.4,0,0.6c0,12.8,0,25.6,0,38.5c0.1,0.4-0.2,0.8-0.6,0.9c-4.4,1.9-8.9,3.8-13.3,5.7L67.4,76.7z"/>
<path class="st0" d="M46.6,32.5v0.8c0,12.7,0,25.5,0,38.2c0.1,0.5-0.2,0.9-0.6,1c-4.4,1.9-8.8,3.8-13.2,5.6l-0.7,0.3v-0.7
	c0-12.8,0-25.5,0-38.3c-0.1-0.4,0.2-0.9,0.7-1c4.4-1.9,8.8-3.7,13.2-5.6L46.6,32.5z"/>
<path class="st0" d="M50.7,32.5l9.8,3.7c0.7,0.3,1.4,0.5,2.1,0.8c0.4,0.1,0.6,0.4,0.5,0.8c0,0,0,0,0,0c0,4.3,0,8.5,0,12.8
	c0,8.5,0,17,0,25.4v0.8l-3.7-1.4c-2.7-1-5.5-2.1-8.3-3.1c-0.4-0.1-0.6-0.4-0.5-0.8c0-12.8,0-25.5,0-38.3L50.7,32.5z"/>
</svg>
