<?xml version="1.0" encoding="utf-8"?>
<!-- Generator: Adobe Illustrator 21.0.0, SVG Export Plug-In . SVG Version: 6.00 Build 0)  -->
<svg version="1.1" id="Capa_1" xmlns="http://www.w3.org/2000/svg" xmlns:xlink="http://www.w3.org/1999/xlink" x="0px" y="0px"
	 viewBox="0 0 115 107" style="enable-background:new 0 0 115 107;" xml:space="preserve">
<style type="text/css">
	.st0{fill:none;stroke:#666666;stroke-width:5;}
</style>
<title>tech-icon1</title>
<g id="Page-1">
	<g id="Spiro" transform="translate(4.000000, 5.000000)">
		<polyline id="spiro" class="st0" points="65.9,48.9 65.9,49 65.9,49 65.9,49.1 65.9,49.2 65.9,49.2 65.9,49.2 65.9,49.3 
			65.9,49.4 65.9,49.4 65.9,49.5 65.9,49.6 65.9,49.7 66,49.7 66,49.8 66,49.9 66,49.9 66,50 66.1,50.1 66.1,50.1 66.1,50.1 
			66.1,50.3 66.1,50.3 66.1,50.4 66.2,50.5 66.2,50.5 66.2,50.6 66.3,50.7 66.3,50.7 66.3,50.8 66.3,50.9 66.3,51 66.4,51.1 
			66.4,51.2 66.4,51.2 66.5,51.4 66.5,51.4 66.5,51.5 66.5,51.6 66.6,51.7 66.6,51.8 66.7,51.9 66.7,52 66.7,52.1 66.7,52.2 
			66.7,52.3 66.8,52.4 66.8,52.5 66.8,52.6 66.9,52.7 67,52.8 67,52.9 67,53.1 67,53.1 67,53.3 67,53.4 67.1,53.5 67.1,53.7 
			67.1,53.8 67.2,53.9 67.2,54 67.2,54.2 67.2,54.3 67.2,54.4 67.3,54.6 67.3,54.7 67.3,54.8 67.3,55 67.3,55.2 67.4,55.3 
			67.4,55.4 67.4,55.6 67.4,55.7 67.4,55.9 67.4,56.1 67.4,56.2 67.4,56.3 67.4,56.5 67.4,56.7 67.4,56.8 67.4,57 67.4,57.2 
			67.4,57.4 67.4,57.5 67.4,57.7 67.3,57.8 67.3,58 67.3,58.2 67.3,58.4 67.2,58.6 67.2,58.7 67.2,58.9 67.2,59.1 67.1,59.3 
			67.1,59.5 67,59.7 67,59.8 67,60 66.9,60.2 66.8,60.4 66.8,60.6 66.7,60.8 66.7,61 66.6,61.2 66.5,61.4 66.5,61.6 66.4,61.7 
			66.3,61.9 66.3,62.1 66.2,62.3 66.1,62.5 66,62.7 65.9,63 65.9,63.1 65.7,63.3 65.7,63.5 65.5,63.7 65.4,63.9 65.3,64.1 
			65.2,64.3 65,64.5 65,64.7 64.8,64.9 64.7,65.1 64.6,65.3 64.4,65.5 64.3,65.7 64.2,65.8 64,66 63.9,66.2 63.7,66.4 63.5,66.6 
			63.4,66.8 63.2,67 63.1,67.2 62.9,67.4 62.7,67.5 62.5,67.7 62.4,67.9 62.2,68.1 62,68.2 61.8,68.4 61.6,68.5 61.4,68.8 
			61.2,68.9 61,69.1 60.8,69.2 60.6,69.4 60.3,69.6 60.2,69.7 59.9,69.8 59.7,70 59.5,70.2 59.2,70.3 59,70.5 58.8,70.6 58.6,70.7 
			58.3,70.9 58.1,71 57.8,71.1 57.5,71.3 57.3,71.4 57.1,71.5 56.8,71.6 56.5,71.8 56.2,71.8 56,72 55.8,72 55.5,72.2 55.2,72.2 
			54.9,72.4 54.6,72.4 54.3,72.5 54.1,72.6 53.8,72.6 53.5,72.7 53.2,72.8 52.9,72.8 52.6,72.9 52.4,73 52,73 51.7,73.1 51.5,73.1 
			51.1,73.2 50.9,73.2 50.5,73.3 50.2,73.3 49.9,73.3 49.6,73.3 49.3,73.3 49,73.3 48.7,73.3 48.4,73.3 48.1,73.3 47.8,73.3 
			47.4,73.3 47.1,73.3 46.8,73.3 46.5,73.3 46.1,73.2 45.9,73.2 45.5,73.1 45.3,73 44.9,73 44.6,73 44.3,72.9 44,72.8 43.7,72.8 
			43.3,72.7 43,72.6 42.7,72.5 42.4,72.4 42.1,72.4 41.8,72.2 41.5,72.2 41.2,72 40.9,71.9 40.6,71.8 40.3,71.7 39.9,71.5 
			39.7,71.4 39.3,71.3 39,71.1 38.8,71 38.4,70.8 38.2,70.7 37.9,70.5 37.6,70.3 37.3,70.2 37,70 36.7,69.8 36.5,69.6 36.2,69.4 
			35.9,69.2 35.6,69.1 35.4,68.9 35.1,68.6 34.8,68.5 34.5,68.2 34.3,68 34.1,67.8 33.8,67.6 33.5,67.3 33.3,67.1 33,66.8 
			32.8,66.6 32.6,66.4 32.4,66.2 32.2,65.9 31.9,65.6 31.7,65.3 31.5,65.1 31.3,64.9 31.1,64.6 30.9,64.3 30.7,64 30.5,63.8 
			30.2,63.5 30,63.2 29.9,62.9 29.7,62.6 29.5,62.3 29.4,62.1 29.2,61.7 29,61.5 28.9,61.1 28.7,60.8 28.5,60.6 28.4,60.2 
			28.3,59.9 28.1,59.6 28,59.3 27.9,59 27.8,58.7 27.7,58.3 27.5,58 27.5,57.7 27.3,57.4 27.2,57 27.2,56.7 27,56.4 27,56.1 
			26.9,55.7 26.8,55.4 26.8,55.1 26.7,54.8 26.6,54.4 26.6,54.1 26.6,53.7 26.5,53.4 26.5,53.1 26.4,52.7 26.4,52.4 26.4,52 
			26.4,51.8 26.4,51.4 26.4,51.1 26.4,50.7 26.4,50.4 26.4,50.1 26.4,49.7 26.4,49.4 26.4,49.1 26.4,48.8 26.5,48.4 26.5,48.1 
			26.6,47.8 26.6,47.5 26.6,47.1 26.7,46.8 26.8,46.5 26.8,46.2 26.9,45.8 27,45.5 27,45.2 27.2,44.9 27.2,44.6 27.3,44.3 27.5,44 
			27.5,43.6 27.6,43.4 27.7,43 27.9,42.8 28,42.5 28.1,42.1 28.2,41.9 28.3,41.6 28.5,41.3 28.6,41.1 28.7,40.8 28.9,40.4 
			29.1,40.2 29.2,39.9 29.4,39.7 29.5,39.4 29.7,39.1 29.8,38.9 30,38.6 30.2,38.3 30.4,38.1 30.6,37.8 30.7,37.6 30.9,37.4 
			31.1,37.2 31.3,36.9 31.5,36.7 31.7,36.5 31.9,36.2 32.1,36 32.3,35.8 32.5,35.6 32.7,35.4 32.9,35.2 33.2,35 33.4,34.8 
			33.6,34.6 33.8,34.4 34,34.2 34.3,34 34.5,33.9 34.7,33.7 35,33.6 35.2,33.3 35.4,33.2 35.6,33.1 35.8,32.9 36.1,32.7 36.3,32.6 
			36.6,32.5 36.8,32.3 37.1,32.2 37.3,32.1 37.5,32 37.8,31.8 38,31.7 38.2,31.6 38.5,31.5 38.8,31.4 39,31.3 39.3,31.2 39.5,31.1 
			39.7,31 40,30.9 40.2,30.8 40.5,30.8 40.7,30.7 41,30.6 41.2,30.5 41.4,30.5 41.7,30.4 41.9,30.4 42.2,30.3 42.4,30.3 42.7,30.2 
			42.9,30.2 43.1,30.1 43.3,30.1 43.6,30.1 43.8,30.1 44.1,30.1 44.3,30.1 44.6,30 44.8,30 45,30 45.3,30 45.5,30 45.7,30 45.9,30 
			46.1,30 46.3,30 46.6,30 46.8,30.1 47,30.1 47.2,30.1 47.4,30.1 47.6,30.1 47.9,30.1 48.1,30.2 48.3,30.2 48.5,30.3 48.7,30.3 
			48.9,30.3 49.1,30.4 49.3,30.4 49.5,30.5 49.6,30.5 49.8,30.5 50,30.6 50.2,30.7 50.4,30.8 50.6,30.8 50.8,30.9 50.9,30.9 
			51.1,31 51.3,31 51.5,31.1 51.6,31.2 51.7,31.2 51.9,31.3 52.1,31.4 52.3,31.5 52.4,31.6 52.6,31.6 52.7,31.7 52.8,31.8 53,31.8 
			53.1,31.9 53.2,32 53.4,32.1 53.5,32.2 53.6,32.3 53.8,32.3 53.9,32.4 54.1,32.5 54.2,32.6 54.3,32.7 54.4,32.7 54.5,32.9 
			54.7,32.9 54.7,33 54.9,33.1 55,33.2 55.1,33.3 55.2,33.3 55.3,33.4 55.4,33.5 55.5,33.6 55.6,33.7 55.7,33.8 55.8,33.9 55.9,34 
			56,34 56,34.1 56.1,34.2 56.2,34.3 56.3,34.4 56.4,34.4 56.4,34.5 56.5,34.6 56.6,34.6 56.6,34.8 56.7,34.8 56.8,34.9 56.9,35 
			56.9,35.1 57,35.1 57.1,35.2 57.1,35.3 57.2,35.3 57.3,35.4 57.3,35.5 57.4,35.5 57.5,35.6 57.5,35.7 57.5,35.7 57.6,35.8 
			57.7,35.9 57.7,35.9 57.8,35.9 57.8,36 57.9,36.1 57.9,36.1 58,36.2 58,36.2 58.1,36.3 58.2,36.3 58.2,36.4 58.2,36.4 58.3,36.5 
			58.4,36.6 58.4,36.6 58.4,36.6 58.5,36.7 58.6,36.7 58.6,36.8 58.6,36.8 58.7,36.8 58.7,36.9 58.8,36.9 58.8,37 58.9,37 58.9,37 
			59,37 59,37 59.1,37.1 59.1,37.2 59.2,37.2 59.2,37.2 59.3,37.2 59.4,37.2 59.4,37.2 59.4,37.3 59.5,37.3 59.6,37.3 59.7,37.4 
			59.7,37.4 59.7,37.4 59.8,37.4 59.9,37.4 59.9,37.4 60,37.5 60.1,37.5 60.1,37.5 60.2,37.5 60.3,37.6 60.3,37.6 60.4,37.6 
			60.5,37.6 60.5,37.6 60.7,37.6 60.7,37.6 60.8,37.6 60.9,37.7 60.9,37.7 61.1,37.7 61.2,37.7 61.2,37.8 61.3,37.8 61.4,37.8 
			61.5,37.8 61.6,37.8 61.7,37.8 61.8,37.8 61.8,37.8 62,37.9 62,37.9 62.2,38 62.2,38 62.4,38 62.4,38.1 62.6,38.1 62.7,38.1 
			62.8,38.1 62.9,38.1 63,38.2 63.1,38.2 63.3,38.3 63.3,38.3 63.5,38.3 63.6,38.3 63.7,38.4 63.8,38.4 63.9,38.5 64.1,38.5 
			64.2,38.5 64.3,38.6 64.4,38.7 64.6,38.7 64.7,38.7 64.8,38.8 65,38.9 65.1,38.9 65.2,39 65.4,39.1 65.5,39.1 65.7,39.1 
			65.8,39.2 65.9,39.3 66.1,39.4 66.2,39.5 66.3,39.6 66.5,39.6 66.6,39.7 66.7,39.8 66.9,39.9 67,40 67.2,40 67.3,40.2 67.4,40.2 
			67.6,40.4 67.8,40.4 67.8,40.6 68,40.7 68.2,40.8 68.3,40.9 68.5,41 68.6,41.1 68.7,41.3 68.9,41.4 69,41.5 69.1,41.7 69.3,41.8 
			69.4,41.9 69.5,42.1 69.7,42.2 69.8,42.4 70,42.5 70.1,42.6 70.2,42.8 70.4,43 70.5,43.1 70.6,43.3 70.8,43.4 70.9,43.6 71,43.8 
			71.1,44 71.2,44.1 71.4,44.3 71.5,44.5 71.7,44.7 71.7,44.9 71.9,45.1 72,45.3 72.1,45.5 72.2,45.7 72.3,45.9 72.4,46 72.5,46.3 
			72.6,46.5 72.7,46.7 72.8,46.9 72.9,47.1 73,47.4 73.1,47.6 73.2,47.8 73.2,48.1 73.4,48.3 73.4,48.5 73.5,48.8 73.6,49 
			73.6,49.2 73.7,49.4 73.8,49.7 73.8,50 73.8,50.2 73.9,50.5 74,50.7 74,50.9 74,51.2 74.1,51.5 74.1,51.8 74.2,52 74.2,52.3 
			74.2,52.6 74.2,52.8 74.2,53.1 74.3,53.3 74.3,53.6 74.3,53.9 74.3,54.2 74.3,54.4 74.3,54.8 74.3,55 74.2,55.3 74.2,55.6 
			74.2,55.9 74.2,56.1 74.2,56.4 74.1,56.7 74.1,57 74,57.3 74,57.6 74,57.8 73.9,58.1 73.8,58.5 73.8,58.7 73.7,59 73.6,59.3 
			73.6,59.5 73.5,59.8 73.4,60.2 73.3,60.4 73.2,60.7 73.1,61 73,61.2 72.9,61.5 72.7,61.8 72.7,62.1 72.5,62.4 72.4,62.7 72.3,63 
			72.1,63.2 72,63.5 71.9,63.8 71.7,64 71.6,64.3 71.4,64.6 71.2,64.9 71,65.1 70.9,65.3 70.7,65.6 70.6,65.9 70.4,66.2 70.2,66.4 
			70,66.6 69.8,66.9 69.6,67.2 69.4,67.4 69.2,67.7 68.9,67.9 68.7,68.1 68.5,68.3 68.3,68.6 68,68.8 67.8,69 67.6,69.3 67.4,69.5 
			67.1,69.7 66.9,69.9 66.6,70.1 66.4,70.3 66.1,70.5 65.9,70.7 65.6,70.9 65.3,71.1 65,71.3 64.8,71.5 64.5,71.7 64.2,71.9 
			63.9,72 63.6,72.2 63.3,72.4 63.1,72.6 62.8,72.7 62.4,72.8 62.2,73 61.9,73.1 61.6,73.3 61.3,73.4 60.9,73.5 60.6,73.7 
			60.3,73.8 60,73.9 59.7,74 59.4,74.1 59,74.3 58.7,74.3 58.4,74.4 58.1,74.5 57.7,74.6 57.4,74.7 57.1,74.8 56.8,74.8 56.4,74.9 
			56.1,75 55.8,75 55.4,75.1 55.1,75.1 54.7,75.2 54.4,75.2 54.1,75.2 53.7,75.2 53.4,75.2 53,75.3 52.7,75.3 52.4,75.3 52,75.3 
			51.7,75.3 51.3,75.3 51,75.2 50.6,75.2 50.3,75.2 50,75.2 49.6,75.2 49.4,75.1 49,75 48.7,75 48.3,75 48,74.9 47.6,74.8 
			47.3,74.8 47,74.7 46.6,74.6 46.3,74.5 46,74.4 45.7,74.3 45.3,74.2 45.1,74.1 44.7,74 44.4,73.9 44.1,73.8 43.8,73.7 43.4,73.5 
			43.1,73.4 42.9,73.3 42.5,73.1 42.3,73 41.9,72.8 41.6,72.6 41.4,72.5 41,72.4 40.8,72.2 40.5,72 40.2,71.8 39.9,71.6 39.7,71.5 
			39.4,71.3 39.1,71.1 38.8,70.9 38.6,70.7 38.3,70.5 38,70.3 37.8,70.1 37.5,69.9 37.3,69.6 37.1,69.4 36.8,69.2 36.6,69 
			36.3,68.8 36.1,68.5 35.9,68.3 35.7,68.1 35.4,67.8 35.2,67.6 35,67.4 34.8,67.1 34.6,66.8 34.5,66.6 34.3,66.4 34.1,66.1 
			33.9,65.8 33.7,65.5 33.5,65.3 33.4,65.1 33.2,64.8 33,64.5 32.9,64.2 32.7,64 32.6,63.7 32.4,63.4 32.3,63.2 32.2,62.9 32,62.6 
			31.9,62.3 31.8,62.1 31.7,61.8 31.5,61.5 31.5,61.2 31.3,60.9 31.3,60.6 31.1,60.4 31.1,60.1 31,59.8 30.9,59.5 30.8,59.2 
			30.7,58.9 30.7,58.7 30.6,58.4 30.5,58.1 30.5,57.8 30.5,57.5 30.4,57.2 30.4,56.9 30.3,56.7 30.3,56.3 30.2,56.1 30.2,55.8 
			30.2,55.5 30.2,55.2 30.2,55 30.2,54.7 30.2,54.4 30.2,54.2 30.2,53.9 30.2,53.6 30.2,53.3 30.2,53.1 30.2,52.8 30.2,52.5 
			30.2,52.2 30.3,52 30.3,51.7 30.4,51.4 30.4,51.2 30.5,50.9 30.5,50.7 30.5,50.4 30.6,50.1 30.7,49.9 30.7,49.7 30.8,49.4 
			30.9,49.2 30.9,49 31,48.7 31.1,48.5 31.1,48.2 31.3,48 31.3,47.8 31.4,47.5 31.5,47.3 31.6,47.1 31.7,46.9 31.8,46.6 31.9,46.4 
			32,46.2 32.1,46 32.2,45.8 32.3,45.6 32.4,45.4 32.5,45.2 32.6,45 32.8,44.9 32.8,44.7 33,44.5 33.1,44.3 33.3,44.1 33.3,43.9 
			33.5,43.8 33.6,43.6 33.7,43.4 33.9,43.2 34,43.1 34.1,42.9 34.3,42.8 34.4,42.6 34.5,42.5 34.7,42.4 34.8,42.1 35,42 35.1,41.9 
			35.2,41.7 35.4,41.6 35.5,41.5 35.6,41.3 35.8,41.3 35.9,41.1 36,41 36.2,40.9 36.3,40.8 36.5,40.6 36.6,40.5 36.8,40.4 
			36.9,40.3 37.1,40.2 37.2,40.2 37.3,40 37.5,40 37.6,39.9 37.8,39.8 37.9,39.7 38,39.6 38.2,39.6 38.3,39.4 38.4,39.3 38.6,39.3 
			38.7,39.2 38.8,39.1 39,39.1 39.1,39 39.3,38.9 39.4,38.9 39.5,38.9 39.7,38.8 39.8,38.7 39.9,38.7 40.1,38.7 40.1,38.6 
			40.3,38.5 40.4,38.5 40.6,38.5 40.7,38.4 40.8,38.4 40.9,38.3 41,38.3 41.2,38.3 41.2,38.3 41.4,38.2 41.5,38.2 41.6,38.1 
			41.7,38.1 41.8,38.1 41.9,38.1 42.1,38.1 42.1,38 42.3,38 42.3,38 42.5,37.9 42.5,37.9 42.6,37.8 42.7,37.8 42.8,37.8 42.9,37.8 
			43,37.8 43.1,37.8 43.1,37.8 43.3,37.8 43.3,37.7 43.4,37.7 43.6,37.7 43.6,37.7 43.7,37.6 43.8,37.6 43.8,37.6 43.9,37.6 
			44,37.6 44.1,37.6 44.1,37.6 44.2,37.6 44.2,37.5 44.4,37.5 44.4,37.5 44.4,37.5 44.5,37.4 44.6,37.4 44.6,37.4 44.7,37.4 
			44.8,37.4 44.8,37.4 44.9,37.3 45,37.3 45.1,37.3 45.1,37.2 45.1,37.2 45.2,37.2 45.3,37.2 45.3,37.2 45.3,37.1 45.4,37.1 
			45.5,37 45.5,37 45.5,37 45.6,37 45.7,37 45.7,36.9 45.7,36.9 45.8,36.8 45.9,36.8 45.9,36.8 45.9,36.7 46,36.7 46.1,36.6 
			46.1,36.6 46.1,36.6 46.2,36.5 46.3,36.4 46.3,36.4 46.3,36.3 46.4,36.3 46.4,36.2 46.5,36.2 46.6,36.1 46.6,36.1 46.6,36 
			46.7,35.9 46.8,35.9 46.8,35.9 46.9,35.8 46.9,35.7 47,35.7 47,35.6 47.1,35.5 47.2,35.5 47.2,35.4 47.2,35.3 47.4,35.3 
			47.4,35.2 47.4,35.1 47.5,35.1 47.6,35 47.6,34.8 47.7,34.8 47.8,34.7 47.9,34.6 48,34.6 48.1,34.5 48.1,34.4 48.2,34.3 
			48.3,34.2 48.3,34.2 48.5,34.1 48.5,34 48.6,34 48.7,33.8 48.8,33.8 48.9,33.7 49,33.6 49.1,33.5 49.2,33.4 49.3,33.3 49.4,33.3 
			49.5,33.1 49.6,33.1 49.7,33 49.8,32.9 50,32.8 50.1,32.7 50.2,32.7 50.3,32.6 50.4,32.5 50.6,32.4 50.7,32.3 50.8,32.3 
			50.9,32.1 51.1,32.1 51.2,32 51.3,31.9 51.5,31.8 51.7,31.8 51.8,31.7 51.9,31.6 52.1,31.5 52.3,31.4 52.4,31.4 52.6,31.3 
			52.7,31.2 52.9,31.2 53.1,31.1 53.2,31 53.4,31 53.6,30.9 53.7,30.8 53.9,30.8 54.1,30.8 54.3,30.7 54.5,30.6 54.7,30.5 
			54.9,30.5 55,30.5 55.2,30.4 55.4,30.3 55.6,30.3 55.8,30.3 56,30.2 56.2,30.2 56.4,30.2 56.6,30.1 56.9,30.1 57.1,30.1 
			57.3,30.1 57.5,30.1 57.7,30.1 57.9,30 58.2,30 58.4,30 58.6,30 58.8,30 59,30 59.2,30 59.5,30 59.7,30 60,30 60.2,30.1 
			60.5,30.1 60.7,30.1 60.9,30.1 61.2,30.1 61.4,30.1 61.6,30.2 61.8,30.2 62.1,30.3 62.4,30.3 62.6,30.4 62.8,30.4 63.1,30.5 
			63.3,30.5 63.5,30.6 63.8,30.7 64,30.8 64.3,30.9 64.6,31 64.8,31 65,31.1 65.3,31.2 65.5,31.3 65.8,31.4 66,31.5 66.3,31.6 
			66.5,31.7 66.7,31.8 67,32 67.2,32.1 67.5,32.3 67.7,32.3 67.9,32.5 68.2,32.6 68.4,32.8 68.7,32.9 68.9,33.1 69.1,33.2 
			69.3,33.4 69.5,33.6 69.8,33.8 70,33.9 70.3,34.1 70.5,34.2 70.7,34.4 70.9,34.6 71.1,34.8 71.4,35.1 71.6,35.3 71.8,35.4 
			72,35.7 72.2,35.9 72.4,36.1 72.6,36.3 72.8,36.5 73,36.8 73.2,37 73.4,37.2 73.6,37.4 73.8,37.6 73.9,37.9 74.1,38.1 74.3,38.4 
			74.5,38.7 74.7,38.9 74.8,39.2 75,39.4 75.1,39.7 75.3,40 75.5,40.2 75.6,40.5 75.8,40.8 75.9,41.1 76,41.4 76.2,41.7 76.3,41.9 
			76.4,42.2 76.5,42.6 76.6,42.8 76.8,43.1 76.8,43.4 77,43.7 77,44.1 77.2,44.3 77.3,44.7 77.3,44.9 77.5,45.3 77.5,45.6 
			77.6,45.9 77.7,46.2 77.7,46.5 77.8,46.9 77.9,47.2 77.9,47.5 77.9,47.8 77.9,48.1 78,48.5 78,48.8 78.1,49.2 78.1,49.5 
			78.1,49.8 78.1,50.1 78.1,50.5 78.1,50.8 78.1,51.2 78.1,51.5 78.1,51.8 78.1,52.2 78.1,52.4 78,52.8 78,53.1 77.9,53.5 
			77.9,53.8 77.9,54.2 77.8,54.5 77.7,54.8 77.7,55.2 77.7,55.4 77.6,55.8 77.5,56.1 77.4,56.5 77.3,56.8 77.2,57.1 77.1,57.4 
			77,57.8 76.9,58.1 76.8,58.4 76.6,58.7 76.6,59.1 76.4,59.3 76.3,59.7 76.2,60 76,60.3 75.9,60.6 75.8,60.9 75.5,61.2 75.4,61.5 
			75.3,61.8 75.1,62.1 74.9,62.4 74.7,62.7 74.6,63 74.4,63.3 74.2,63.6 74,63.8 73.8,64.1 73.6,64.4 73.4,64.7 73.2,64.9 73,65.2 
			72.7,65.4 72.5,65.7 72.3,66 72.1,66.2 71.9,66.4 71.6,66.7 71.4,66.9 71.1,67.2 70.8,67.4 70.6,67.6 70.4,67.9 70.1,68.1 
			69.8,68.3 69.6,68.5 69.3,68.7 69.1,68.9 68.8,69.1 68.5,69.3 68.2,69.5 68,69.6 67.7,69.8 67.4,70 67.1,70.2 66.8,70.4 
			66.5,70.5 66.3,70.7 65.9,70.9 65.7,71 65.4,71.1 65,71.3 64.8,71.4 64.4,71.5 64.2,71.7 63.9,71.8 63.5,72 63.3,72 62.9,72.2 
			62.7,72.2 62.3,72.4 62,72.4 61.7,72.6 61.4,72.6 61.1,72.7 60.7,72.8 60.5,72.8 60.1,72.9 59.8,73 59.5,73 59.2,73.1 58.8,73.1 
			58.6,73.2 58.2,73.2 57.9,73.3 57.6,73.3 57.3,73.3 57,73.3 56.6,73.3 56.4,73.3 56,73.3 55.7,73.3 55.4,73.3 55.1,73.3 
			54.8,73.3 54.5,73.3 54.2,73.3 53.9,73.3 53.6,73.2 53.2,73.2 53,73.1 52.7,73.1 52.4,73 52.1,73 51.8,72.9 51.5,72.8 51.2,72.8 
			50.9,72.7 50.6,72.6 50.4,72.6 50,72.5 49.8,72.4 49.5,72.3 49.2,72.2 48.9,72.2 48.7,72 48.4,71.9 48.1,71.8 47.9,71.8 
			47.6,71.6 47.4,71.5 47.1,71.3 46.8,71.2 46.6,71.1 46.3,71 46.1,70.9 45.9,70.7 45.6,70.6 45.4,70.5 45.2,70.3 44.9,70.1 
			44.7,70 44.5,69.8 44.2,69.7 44,69.6 43.8,69.4 43.6,69.2 43.4,69 43.2,68.9 43,68.8 42.8,68.5 42.6,68.3 42.5,68.2 42.3,68 
			42.1,67.9 41.9,67.7 41.7,67.5 41.5,67.3 41.4,67.1 41.2,66.9 41,66.8 40.9,66.6 40.8,66.4 40.6,66.2 40.4,66 40.3,65.8 
			40.1,65.6 40,65.4 39.9,65.3 39.7,65.1 39.6,64.9 39.5,64.7 39.4,64.5 39.3,64.2 39.2,64 39,63.8 38.9,63.7 38.8,63.5 38.7,63.3 
			38.6,63.1 38.5,62.9 38.4,62.7 38.4,62.5 38.3,62.3 38.2,62.1 38.1,61.9 38,61.7 38,61.5 37.9,61.3 37.8,61.1 37.8,61 37.7,60.8 
			37.7,60.6 37.6,60.4 37.5,60.2 37.5,60 37.5,59.8 37.4,59.6 37.4,59.5 37.3,59.3 37.3,59.1 37.3,58.9 37.3,58.7 37.2,58.5 
			37.2,58.4 37.2,58.2 37.1,58 37.1,57.8 37.1,57.6 37.1,57.5 37.1,57.3 37.1,57.2 37.1,56.9 37.1,56.8 37.1,56.6 37.1,56.5 
			37.1,56.3 37.1,56.2 37.1,56 37.1,55.9 37.1,55.7 37.1,55.5 37.1,55.4 37.1,55.2 37.1,55.1 37.1,55 37.2,54.8 37.2,54.7 
			37.2,54.6 37.3,54.4 37.3,54.3 37.3,54.2 37.3,54 37.3,53.9 37.3,53.7 37.3,53.6 37.4,53.5 37.4,53.4 37.5,53.3 37.5,53.1 
			37.5,53.1 37.5,52.9 37.5,52.8 37.6,52.7 37.6,52.6 37.7,52.4 37.7,52.4 37.7,52.2 37.8,52.2 37.8,52 37.8,52 37.8,51.9 
			37.9,51.8 37.9,51.7 37.9,51.6 38,51.5 38,51.4 38,51.4 38,51.2 38.1,51.2 38.1,51.1 38.1,50.9 38.2,50.9 38.2,50.8 38.2,50.7 
			38.2,50.7 38.2,50.6 38.3,50.5 38.3,50.4 38.3,50.3 38.4,50.3 38.4,50.3 38.4,50.1 38.4,50.1 38.4,50 38.4,49.9 38.4,49.9 
			38.5,49.8 38.5,49.8 38.5,49.7 38.5,49.7 38.5,49.6 38.5,49.5 38.6,49.4 38.6,49.4 38.6,49.3 38.6,49.2 38.6,49.2 38.6,49.2 
			38.6,49 38.6,49 38.6,49 38.6,48.9 38.6,48.8 38.6,48.8 38.6,48.7 38.6,48.6 38.6,48.6 38.6,48.5 38.6,48.5 38.6,48.4 38.6,48.4 
			38.5,48.3 38.5,48.2 38.5,48.1 38.5,48.1 38.5,48 38.4,47.9 38.4,47.9 38.4,47.8 38.4,47.7 38.4,47.7 38.4,47.6 38.4,47.5 
			38.4,47.5 38.3,47.4 38.3,47.3 38.2,47.3 38.2,47.2 38.2,47.1 38.2,47.1 38.2,47 38.2,46.9 38.1,46.8 38.1,46.7 38.1,46.6 
			38,46.5 38,46.4 38,46.4 38,46.3 37.9,46.2 37.9,46.1 37.8,46 37.8,45.9 37.8,45.8 37.8,45.7 37.8,45.6 37.7,45.5 37.7,45.4 
			37.6,45.3 37.6,45.1 37.6,45.1 37.5,44.9 37.5,44.9 37.5,44.7 37.5,44.6 37.4,44.5 37.4,44.4 37.4,44.3 37.3,44.1 37.3,44 
			37.3,43.9 37.3,43.7 37.3,43.6 37.3,43.5 37.2,43.3 37.2,43.2 37.2,43 37.1,43 37.1,42.8 37.1,42.6 37.1,42.5 37.1,42.4 
			37.1,42.2 37.1,42.1 37.1,41.9 37.1,41.7 37.1,41.6 37.1,41.4 37.1,41.3 37.1,41.1 37.1,40.9 37.1,40.8 37.1,40.6 37.1,40.4 
			37.1,40.2 37.1,40.1 37.1,39.9 37.1,39.8 37.2,39.6 37.2,39.4 37.3,39.2 37.3,39 37.3,38.9 37.3,38.7 37.3,38.5 37.4,38.3 
			37.4,38.1 37.5,37.9 37.5,37.7 37.6,37.6 37.6,37.4 37.7,37.2 37.8,37 37.8,36.8 37.9,36.6 38,36.4 38,36.2 38.1,36 38.2,35.8 
			38.2,35.6 38.3,35.4 38.4,35.3 38.5,35.1 38.6,34.8 38.6,34.6 38.8,34.4 38.8,34.2 39,34 39,33.9 39.2,33.7 39.3,33.5 39.5,33.3 
			39.5,33.1 39.7,32.9 39.8,32.7 39.9,32.5 40.1,32.3 40.2,32.1 40.3,31.9 40.5,31.7 40.6,31.6 40.8,31.4 41,31.2 41.1,31 
			41.3,30.8 41.4,30.6 41.6,30.4 41.8,30.2 42,30.1 42.1,29.9 42.3,29.7 42.5,29.5 42.7,29.4 42.9,29.2 43.1,29 43.3,28.8 
			43.5,28.7 43.7,28.5 43.9,28.4 44.2,28.2 44.4,28 44.6,27.9 44.8,27.8 45.1,27.6 45.3,27.5 45.5,27.3 45.7,27.2 45.9,27.1 
			46.2,26.9 46.4,26.8 46.7,26.7 47,26.5 47.2,26.4 47.4,26.3 47.7,26.2 48,26 48.3,26 48.5,25.8 48.8,25.8 49.1,25.6 49.4,25.6 
			49.6,25.4 49.9,25.4 50.2,25.3 50.4,25.2 50.7,25.2 51.1,25 51.3,25 51.6,25 51.9,24.9 52.2,24.8 52.5,24.8 52.8,24.7 53.1,24.7 
			53.4,24.6 53.7,24.6 54,24.5 54.3,24.5 54.6,24.5 54.9,24.5 55.2,24.5 55.6,24.5 55.8,24.5 56.2,24.5 56.4,24.5 56.8,24.5 
			57.1,24.5 57.4,24.5 57.7,24.5 58,24.6 58.4,24.6 58.7,24.7 59,24.7 59.3,24.8 59.7,24.8 59.9,24.9 60.3,25 60.5,25 60.9,25 
			61.2,25.2 61.5,25.2 61.8,25.3 62.1,25.4 62.4,25.5 62.7,25.6 63.1,25.7 63.3,25.8 63.7,25.9 63.9,26 64.3,26.2 64.6,26.3 
			64.9,26.5 65.2,26.6 65.4,26.7 65.8,26.9 66.1,27 66.4,27.2 66.7,27.3 67,27.5 67.2,27.7 67.5,27.9 67.8,28 68.1,28.2 68.4,28.4 
			68.7,28.6 68.9,28.8 69.2,29 69.4,29.2 69.7,29.4 70,29.6 70.2,29.9 70.5,30.1 70.7,30.3 71,30.5 71.2,30.8 71.5,31 71.7,31.2 
			71.9,31.5 72.1,31.7 72.4,32 72.6,32.3 72.8,32.5 73,32.7 73.2,33 73.5,33.3 73.6,33.6 73.8,33.8 74,34.1 74.2,34.4 74.5,34.7 
			74.7,35 74.8,35.3 75,35.5 75.1,35.9 75.3,36.1 75.5,36.4 75.6,36.8 75.8,37 76,37.3 76.1,37.6 76.2,38 76.4,38.3 76.5,38.6 
			76.6,38.9 76.7,39.2 76.8,39.6 76.9,39.9 77,40.2 77.2,40.5 77.3,40.9 77.3,41.1 77.5,41.5 77.5,41.8 77.6,42.1 77.7,42.5 
			77.7,42.8 77.8,43.2 77.9,43.4 77.9,43.8 77.9,44.1 78,44.5 78,44.8 78,45.1 78.1,45.5 78.1,45.8 78.1,46.2 78.1,46.4 78.1,46.8 
			78.1,47.1 78.1,47.5 78.1,47.8 78.1,48.1 78.1,48.5 78.1,48.8 78,49.1 78,49.4 77.9,49.8 77.9,50.1 77.9,50.4 77.8,50.7 
			77.7,51.1 77.7,51.4 77.6,51.7 77.6,52 77.5,52.3 77.4,52.7 77.3,53 77.2,53.3 77.1,53.6 77,53.9 76.9,54.2 76.8,54.5 76.7,54.8 
			76.6,55.1 76.5,55.4 76.4,55.7 76.2,56 76.1,56.3 76,56.5 75.8,56.8 75.7,57.1 75.5,57.4 75.4,57.7 75.2,58 75.1,58.2 74.9,58.5 
			74.7,58.7 74.6,59 74.4,59.3 74.2,59.5 74,59.7 73.8,60 73.7,60.2 73.5,60.5 73.3,60.7 73.1,61 73,61.2 72.7,61.4 72.5,61.7 
			72.3,61.9 72.1,62.1 71.9,62.3 71.7,62.5 71.5,62.7 71.2,62.9 71,63.1 70.8,63.3 70.6,63.4 70.4,63.6 70.2,63.8 70,64 69.7,64.2 
			69.5,64.3 69.3,64.5 69,64.7 68.8,64.8 68.6,64.9 68.3,65.1 68.1,65.3 67.8,65.3 67.6,65.5 67.4,65.6 67.1,65.7 66.9,65.9 
			66.7,66 66.4,66.2 66.1,66.2 65.9,66.4 65.7,66.4 65.4,66.6 65.2,66.6 64.9,66.7 64.7,66.8 64.4,66.9 64.2,67 63.9,67 63.7,67.1 
			63.5,67.2 63.2,67.3 63,67.3 62.7,67.4 62.4,67.5 62.2,67.5 62,67.5 61.8,67.6 61.5,67.7 61.3,67.7 61,67.7 60.8,67.7 60.5,67.7 
			60.3,67.7 60.1,67.8 59.9,67.8 59.7,67.8 59.4,67.8 59.2,67.8 59,67.8 58.7,67.8 58.5,67.8 58.3,67.8 58.1,67.8 57.8,67.8 
			57.6,67.8 57.4,67.7 57.2,67.7 57,67.7 56.8,67.7 56.6,67.7 56.4,67.7 56.2,67.6 56,67.5 55.8,67.5 55.6,67.5 55.4,67.5 
			55.1,67.4 54.9,67.3 54.8,67.3 54.6,67.3 54.4,67.2 54.2,67.1 54.1,67 53.9,67 53.6,66.9 53.5,66.9 53.3,66.8 53.2,66.8 53,66.7 
			52.8,66.6 52.7,66.6 52.5,66.5 52.4,66.4 52.2,66.4 52,66.2 51.9,66.2 51.7,66.1 51.6,66 51.5,66 51.3,65.9 51.2,65.8 51.1,65.7 
			50.9,65.6 50.8,65.5 50.6,65.5 50.5,65.3 50.4,65.3 50.2,65.2 50.2,65.1 50,65.1 49.9,64.9 49.8,64.9 49.7,64.8 49.6,64.7 
			49.4,64.6 49.4,64.5 49.3,64.5 49.1,64.4 49.1,64.2 48.9,64.2 48.9,64.1 48.7,64 48.7,63.9 48.6,63.8 48.5,63.8 48.4,63.7 
			48.3,63.6 48.3,63.6 48.2,63.4 48.1,63.4 48,63.3 47.9,63.2 47.9,63.2 47.8,63.1 47.7,63 47.6,62.9 47.6,62.8 47.5,62.7 
			47.4,62.7 47.4,62.6 47.3,62.5 47.2,62.5 47.2,62.4 47.1,62.3 47.1,62.3 47,62.2 47,62.1 46.9,62.1 46.8,62 46.8,61.9 46.8,61.9 
			46.7,61.8 46.6,61.8 46.6,61.7 46.6,61.7 46.5,61.6 46.4,61.5 46.3,61.5 46.3,61.5 46.3,61.4 46.2,61.4 46.1,61.3 46.1,61.2 
			46.1,61.2 46,61.2 46,61.1 45.9,61.1 45.9,61 45.8,61 45.8,61 45.7,60.9 45.7,60.9 45.6,60.8 45.6,60.8 45.5,60.8 45.5,60.8 
			45.5,60.7 45.4,60.7 45.3,60.7 45.3,60.6 45.2,60.6 45.2,60.6 45.1,60.6 45.1,60.6 45,60.5 44.9,60.5 44.9,60.5 44.8,60.4 
			44.8,60.4 44.7,60.4 44.6,60.4 44.6,60.4 44.5,60.4 44.4,60.4 44.4,60.3 44.3,60.3 44.2,60.3 44.2,60.3 44.1,60.2 44,60.2 
			44,60.2 43.9,60.2 43.8,60.2 43.7,60.2 43.6,60.2 43.6,60.2 43.5,60.1 43.4,60.1 43.3,60.1 43.2,60.1 43.1,60 43.1,60 42.9,60 
			42.9,60 42.8,60 42.7,60 42.6,59.9 42.5,59.9 42.4,59.9 42.3,59.9 42.2,59.8 42.1,59.8 42,59.8 41.9,59.7 41.8,59.7 41.6,59.7 
			41.6,59.7 41.4,59.6 41.3,59.6 41.2,59.5 41.1,59.5 41,59.5 40.9,59.5 40.8,59.4 40.6,59.4 40.5,59.3 40.3,59.3 40.3,59.3 
			40.1,59.2 40,59.1 39.9,59.1 39.7,59.1 39.6,59 39.5,58.9 39.3,58.9 39.2,58.8 39,58.7 39,58.7 38.8,58.7 38.7,58.5 38.5,58.5 
			38.4,58.4 38.2,58.3 38.1,58.2 38,58.2 37.8,58.1 37.7,58 37.5,57.9 37.4,57.8 37.3,57.7 37.1,57.6 37,57.6 36.9,57.4 36.7,57.4 
			36.6,57.2 36.5,57.1 36.3,57 36.2,56.9 36,56.7 35.8,56.7 35.7,56.5 35.6,56.4 35.4,56.3 35.3,56.1 35.2,56 35,55.9 34.9,55.7 
			34.8,55.6 34.6,55.4 34.5,55.3 34.3,55.1 34.2,55 34.1,54.8 33.9,54.6 33.8,54.5 33.7,54.4 33.5,54.2 33.5,54 33.3,53.8 
			33.2,53.6 33,53.5 32.9,53.3 32.8,53.1 32.7,52.9 32.6,52.7 32.5,52.5 32.4,52.3 32.2,52.1 32.2,51.9 32,51.7 32,51.5 31.8,51.3 
			31.8,51.1 31.6,50.8 31.5,50.6 31.5,50.4 31.3,50.2 31.3,49.9 31.2,49.7 31.1,49.5 31.1,49.2 31,49 30.9,48.8 30.8,48.5 
			30.8,48.3 30.7,48 30.7,47.8 30.6,47.5 30.5,47.3 30.5,47.1 30.5,46.8 30.4,46.5 30.3,46.2 30.3,46 30.3,45.8 30.2,45.5 
			30.2,45.2 30.2,44.9 30.2,44.7 30.2,44.4 30.2,44.1 30.2,43.9 30.2,43.6 30.2,43.3 30.2,43 30.2,42.8 30.2,42.5 30.2,42.1 
			30.2,41.9 30.2,41.6 30.3,41.3 30.3,41.1 30.4,40.8 30.5,40.5 30.5,40.2 30.5,39.9 30.6,39.6 30.7,39.3 30.7,39.1 30.8,38.8 
			30.9,38.5 30.9,38.2 31,37.9 31.1,37.6 31.2,37.4 31.3,37 31.4,36.8 31.5,36.5 31.6,36.2 31.7,35.9 31.8,35.7 32,35.4 32.1,35.1 
			32.2,34.8 32.4,34.6 32.5,34.3 32.6,34 32.8,33.8 33,33.5 33.1,33.2 33.3,32.9 33.5,32.7 33.6,32.4 33.8,32.1 34,31.8 34.1,31.6 
			34.3,31.4 34.5,31.1 34.8,30.9 35,30.6 35.2,30.3 35.4,30.1 35.6,29.9 35.8,29.7 36,29.4 36.3,29.2 36.5,29 36.7,28.7 36.9,28.5 
			37.1,28.3 37.4,28 37.6,27.9 37.9,27.6 38.2,27.4 38.4,27.2 38.7,27.1 38.9,26.9 39.2,26.7 39.5,26.5 39.7,26.3 40,26.1 
			40.3,25.9 40.6,25.7 40.9,25.6 41.2,25.4 41.4,25.2 41.8,25.1 42.1,25 42.3,24.8 42.7,24.6 43,24.5 43.3,24.3 43.6,24.2 
			43.9,24.1 44.2,24 44.5,23.9 44.8,23.8 45.2,23.7 45.5,23.5 45.8,23.5 46.1,23.4 46.5,23.3 46.8,23.2 47.1,23.1 47.4,23 47.8,23 
			48.1,22.9 48.5,22.8 48.8,22.8 49.1,22.8 49.4,22.7 49.8,22.6 50.1,22.6 50.4,22.6 50.8,22.6 51.1,22.6 51.5,22.6 51.8,22.5 
			52.1,22.5 52.5,22.5 52.8,22.5 53.2,22.6 53.5,22.6 53.9,22.6 54.2,22.6 54.5,22.6 54.9,22.7 55.2,22.7 55.6,22.8 55.9,22.8 
			56.2,22.8 56.6,23 56.9,23 57.2,23 57.5,23.2 57.9,23.3 58.2,23.3 58.6,23.4 58.8,23.5 59.2,23.6 59.5,23.7 59.8,23.9 60.1,23.9 
			60.5,24.1 60.7,24.2 61.1,24.3 61.4,24.5 61.7,24.6 62,24.8 62.3,24.9 62.6,25 62.9,25.2 63.2,25.4 63.5,25.5 63.7,25.7 64,25.8 
			64.4,26 64.6,26.2 64.9,26.4 65.2,26.6 65.4,26.8 65.7,26.9 65.9,27.1 66.2,27.3 66.5,27.5 66.7,27.8 67,28 67.2,28.2 67.5,28.4 
			67.7,28.6 67.9,28.8 68.2,29.1 68.4,29.3 68.6,29.5 68.9,29.8 69.1,30 69.3,30.3 69.5,30.5 69.7,30.8 69.9,31 70.1,31.2 
			70.2,31.5 70.4,31.8 70.6,32.1 70.8,32.3 71,32.5 71.1,32.8 71.3,33.1 71.5,33.3 71.6,33.6 71.8,33.9 71.9,34.2 72.1,34.4 
			72.2,34.7 72.3,35 72.5,35.3 72.6,35.5 72.7,35.8 72.8,36.1 73,36.4 73,36.7 73.2,37 73.2,37.2 73.4,37.5 73.4,37.8 73.5,38.1 
			73.6,38.4 73.6,38.7 73.8,38.9 73.8,39.2 73.8,39.5 73.9,39.8 74,40.1 74,40.4 74.1,40.6 74.1,40.9 74.2,41.3 74.2,41.5 
			74.2,41.8 74.2,42.1 74.2,42.4 74.3,42.6 74.3,42.9 74.3,43.2 74.3,43.4 74.3,43.7 74.3,44 74.3,44.3 74.3,44.5 74.2,44.8 
			74.2,45.1 74.2,45.4 74.2,45.6 74.2,45.9 74.1,46.2 74.1,46.4 74,46.6 74,46.9 74,47.2 73.9,47.4 73.8,47.7 73.8,47.9 73.8,48.2 
			73.6,48.4 73.6,48.7 73.6,48.9 73.5,49.2 73.4,49.4 73.3,49.6 73.2,49.9 73.2,50.1 73,50.3 73,50.5 72.9,50.7 72.7,50.9 
			72.7,51.2 72.5,51.4 72.5,51.6 72.4,51.8 72.3,52 72.1,52.2 72.1,52.4 71.9,52.6 71.8,52.8 71.7,53 71.6,53.2 71.5,53.4 
			71.3,53.5 71.2,53.7 71.1,53.9 71,54.1 70.8,54.3 70.7,54.4 70.6,54.6 70.4,54.8 70.3,54.9 70.2,55.1 70,55.2 70,55.4 69.7,55.5 
			69.7,55.7 69.5,55.8 69.3,55.9 69.2,56.1 69.1,56.2 68.9,56.3 68.8,56.5 68.7,56.6 68.5,56.7 68.4,56.8 68.2,56.9 68.1,57.1 
			68,57.2 67.8,57.3 67.6,57.4 67.6,57.5 67.4,57.6 67.2,57.7 67.1,57.8 67,57.9 66.8,58 66.7,58 66.5,58.1 66.4,58.2 66.3,58.3 
			66.1,58.4 66,58.5 65.9,58.5 65.7,58.6 65.6,58.7 65.4,58.7 65.3,58.8 65.2,58.9 65,58.9 64.9,59 64.8,59 64.6,59.1 64.6,59.1 
			64.4,59.2 64.3,59.2 64.2,59.3 64,59.3 63.9,59.3 63.8,59.4 63.7,59.5 63.5,59.5 63.4,59.5 63.3,59.5 63.2,59.6 63.1,59.6 
			63,59.7 62.9,59.7 62.7,59.7 62.7,59.7 62.5,59.7 62.4,59.8 62.3,59.8 62.2,59.8 62.1,59.9 62,59.9 61.9,59.9 61.8,60 61.7,60 
			61.6,60 61.6,60 61.4,60 61.4,60 61.3,60.1 61.2,60.1 61.1,60.1 61,60.1 60.9,60.1 60.9,60.2 60.7,60.2 60.7,60.2 60.6,60.2 
			60.5,60.2 60.5,60.2 60.4,60.2 60.3,60.3 60.3,60.3 60.2,60.3 60.1,60.3 60.1,60.4 60,60.4 59.9,60.4 59.9,60.4 59.8,60.4 
			59.7,60.4 59.7,60.4 59.6,60.4 59.5,60.5 59.5,60.5 59.4,60.6 59.4,60.6 59.3,60.6 59.2,60.6 59.2,60.6 59.2,60.6 59.1,60.7 
			59,60.7 59,60.8 59,60.8 58.9,60.8 58.8,60.8 58.8,60.9 58.8,60.9 58.7,61 58.6,61 58.6,61 58.6,61.1 58.5,61.1 58.4,61.2 
			58.4,61.2 58.4,61.2 58.3,61.3 58.3,61.3 58.2,61.4 58.2,61.5 58.1,61.5 58.1,61.5 37.2,61.6 57.9,61.7 57.9,61.7 57.9,61.7 
			57.8,61.8 57.7,61.9 57.7,61.9 57.7,62 57.6,62.1 57.5,62.1 57.5,62.2 57.4,62.3 57.3,62.3 57.3,62.3 57.3,62.5 57.2,62.5 
			57.1,62.6 57.1,62.7 57,62.7 56.9,62.8 56.9,62.9 56.8,63 56.7,63 56.6,63.1 56.6,63.2 56.5,63.3 56.4,63.4 56.4,63.4 56.2,63.5 
			56.2,63.6 56.1,63.6 56,63.7 55.9,63.8 55.8,63.9 55.8,64 55.6,64.1 55.6,64.2 55.4,64.2 55.4,64.3 55.3,64.4 55.1,64.5 
			55.1,64.6 54.9,64.7 54.8,64.7 54.7,64.8 54.6,64.9 54.5,65 54.4,65.1 54.3,65.2 54.1,65.3 54,65.3 53.9,65.4 53.8,65.5 
			53.6,65.6 53.5,65.7 53.4,65.7 53.2,65.8 53.1,65.9 52.9,66 52.8,66.1 52.6,66.2 52.5,66.2 52.4,66.3 52.1,66.4 52,66.4 
			51.9,66.5 51.7,66.6 51.5,66.6 51.4,66.7 51.2,66.8 51.1,66.8 50.9,66.9 50.7,67 50.5,67 50.3,67.1 50.2,67.2 50,67.2 49.8,67.3 
			49.6,67.3 49.4,67.4 49.2,67.4 49,67.5 48.8,67.5 48.6,67.5 48.4,67.6 48.2,67.6 48,67.7 47.8,67.7 47.6,67.7 47.4,67.7 
			47.2,67.7 46.9,67.8 46.7,67.8 46.5,67.8 46.3,67.8 46.1,67.8 45.8,67.8 45.6,67.8 45.4,67.8 45.2,67.8 44.9,67.8 44.7,67.8 
			44.4,67.8 44.2,67.8 44,67.7 43.8,67.7 43.6,67.7 43.3,67.7 43.1,67.7 42.8,67.6 42.5,67.5 42.3,67.5 42.1,67.5 41.8,67.4 
			41.6,67.4 41.4,67.3 41.1,67.3 40.9,67.2 40.6,67.1 40.3,67 40.1,66.9 39.9,66.8 39.7,66.8 39.4,66.7 39.2,66.6 38.9,66.5 
			38.6,66.4 38.4,66.3 38.2,66.2 38,66.1 37.7,66 37.4,65.8 37.2,65.7 36.9,65.5 36.7,65.4 36.5,65.3 36.3,65.1 36,65 35.8,64.9 
			35.5,64.7 35.3,64.5 35.1,64.4 34.8,64.2 34.6,64 34.4,63.9 34.1,63.7 33.9,63.5 33.7,63.4 33.5,63.2 33.3,63 33,62.7 32.8,62.5 
			32.6,62.3 32.4,62.1 32.2,61.9 32,61.7 31.8,61.5 31.6,61.2 31.4,61 31.3,60.8 31.1,60.6 30.9,60.4 30.7,60.1 30.5,59.8 
			30.3,59.6 30.1,59.3 30,59.1 29.8,58.9 29.6,58.6 29.4,58.3 29.3,58 29.2,57.8 29,57.5 28.9,57.2 28.7,56.9 28.5,56.7 28.4,56.4 
			28.3,56.1 28.1,55.8 28.1,55.5 27.9,55.2 27.8,54.9 27.7,54.6 27.6,54.4 27.5,54 27.4,53.7 27.3,53.4 27.2,53.1 27.1,52.8 
			27,52.4 27,52.2 26.8,51.8 26.8,51.5 26.8,51.2 26.7,50.9 26.6,50.5 26.6,50.3 26.5,49.9 26.5,49.6 26.4,49.2 26.4,48.9 
			26.4,48.6 26.4,48.3 26.4,47.9 26.4,47.6 26.4,47.3 26.4,46.9 26.4,46.6 26.4,46.2 26.4,46 26.4,45.6 26.4,45.3 26.4,44.9 
			26.5,44.6 26.5,44.3 26.6,43.9 26.6,43.6 26.7,43.2 26.7,43 26.8,42.6 26.8,42.3 26.9,41.9 27,41.6 27.1,41.3 27.2,41 27.2,40.6 
			27.4,40.3 27.5,40 27.6,39.7 27.7,39.3 27.8,39 27.9,38.7 28.1,38.4 28.2,38.1 28.3,37.8 28.5,37.4 28.6,37.2 28.8,36.8 29,36.6 
			29.1,36.2 29.2,35.9 29.4,35.7 29.6,35.4 29.8,35.1 30,34.8 30.2,34.5 30.3,34.2 30.5,34 30.7,33.7 30.9,33.4 31.1,33.1 
			31.3,32.9 31.5,32.6 31.8,32.3 32,32.1 32.2,31.8 32.4,31.6 32.7,31.3 32.9,31.1 33.2,30.8 33.4,30.6 33.7,30.4 33.9,30.1 
			34.1,29.9 34.4,29.7 34.7,29.5 35,29.3 35.2,29 35.4,28.8 35.7,28.7 36,28.5 36.3,28.3 36.6,28.1 36.9,28 37.1,27.8 37.4,27.5 
			37.7,27.4 38,27.2 38.3,27.1 38.6,26.9 38.9,26.8 39.2,26.7 39.5,26.5 39.8,26.3 40.1,26.3 40.3,26.1 40.7,26 41,25.8 41.3,25.8 
			41.6,25.6 41.9,25.5 42.3,25.4 42.5,25.4 42.9,25.2 43.1,25.2 43.5,25.1 43.8,25 44.1,25 44.4,24.9 44.7,24.8 45.1,24.8 
			45.3,24.8 45.7,24.7 46,24.6 46.3,24.6 46.6,24.5 47,24.5 47.2,24.5 47.6,24.5 47.9,24.5 48.2,24.5 48.5,24.5 48.8,24.5 
			49.1,24.5 49.4,24.5 49.8,24.5 50,24.5 50.4,24.5 50.6,24.6 51,24.6 51.3,24.7 51.5,24.7 51.9,24.8 52.1,24.8 52.4,24.8 
			52.8,24.9 53,25 53.3,25 53.6,25.1 53.9,25.2 54.2,25.2 54.5,25.3 54.7,25.4 55,25.5 55.3,25.6 55.6,25.7 55.8,25.8 56.1,25.9 
			56.4,26 56.6,26.1 56.9,26.3 57.2,26.4 57.4,26.5 57.7,26.6 57.9,26.7 58.2,26.9 58.4,27 58.6,27.1 58.9,27.3 59.1,27.4 
			59.4,27.5 59.6,27.7 59.8,27.9 60,28 60.3,28.2 60.5,28.3 60.7,28.5 60.9,28.6 61.1,28.8 61.3,29 61.5,29.1 61.7,29.3 61.9,29.5 
			62.1,29.7 62.2,29.8 62.4,30 62.7,30.2 62.8,30.3 63,30.5 63.1,30.8 63.3,30.9 63.5,31.1 63.6,31.3 63.7,31.5 63.9,31.6 
			64.1,31.8 64.2,32.1 64.4,32.3 64.5,32.4 64.6,32.6 64.8,32.8 64.9,33 65,33.2 65.1,33.4 65.2,33.6 65.4,33.8 65.4,34 65.6,34.2 
			65.7,34.4 65.8,34.6 65.9,34.8 65.9,35 66.1,35.1 66.1,35.3 66.2,35.5 66.3,35.7 66.4,35.9 66.5,36.1 66.5,36.3 66.5,36.5 
			66.7,36.7 66.7,36.9 66.7,37.1 66.8,37.3 66.9,37.5 67,37.6 67,37.8 67,38.1 67,38.3 67.1,38.4 67.2,38.6 67.2,38.8 67.2,38.9 
			67.2,39.1 67.2,39.3 67.3,39.5 67.3,39.7 67.3,39.8 67.4,40 67.4,40.2 67.4,40.4 67.4,40.5 67.4,40.7 67.4,40.9 67.4,41.1 
			67.4,41.2 67.4,41.3 67.4,41.5 67.4,41.7 67.4,41.8 67.4,42 67.4,42.1 67.4,42.3 67.4,42.4 67.4,42.6 67.3,42.8 67.3,42.9 
			67.3,43 67.3,43.2 67.2,43.3 67.2,43.4 67.2,43.6 67.2,43.7 67.2,43.9 67.2,44 67.1,44.1 67.1,44.2 67.1,44.3 67,44.5 67,44.6 
			67,44.7 67,44.8 67,44.9 66.9,45 66.9,45.1 66.8,45.2 66.8,45.4 66.7,45.5 66.7,45.6 66.7,45.7 66.7,45.8 66.7,45.9 66.6,46 
			66.6,46 66.5,46.2 66.5,46.2 66.5,46.3 66.5,46.4 66.5,46.5 66.4,46.6 66.4,46.7 66.4,46.8 66.3,46.9 66.3,46.9 66.3,47 
			66.3,47.1 66.3,47.1 66.2,47.3 66.2,47.3 66.2,47.4 66.1,47.5 66.1,47.5 66.1,47.6 66.1,47.7 66.1,47.7 66.1,47.8 66,47.9 
			66,47.9 66,48 66,48.1 66,48.1 65.9,48.2 65.9,48.3 65.9,48.4 65.9,48.4 65.9,48.4 65.9,48.5 65.9,48.6 65.9,48.6 65.9,48.7 
			65.9,48.8 65.9,48.8 65.9,48.9 		"/>
	</g>
</g>
</svg>
