<?xml version="1.0" encoding="utf-8"?>
<!-- Generator: Adobe Illustrator 21.0.0, SVG Export Plug-In . SVG Version: 6.00 Build 0)  -->
<svg version="1.1" id="Capa_1" xmlns="http://www.w3.org/2000/svg" xmlns:xlink="http://www.w3.org/1999/xlink" x="0px" y="0px"
	 viewBox="0 0 115 107" style="enable-background:new 0 0 115 107;" xml:space="preserve">
<style type="text/css">
	.st0{fill:#666666;}
</style>
<title>tech-icon1</title>
<g>
	<path class="st0" d="M44.4,31.6h-8.8c-1.5,0-2.7,1.2-2.7,2.7V42h11.5V31.6z"/>
	<path class="st0" d="M32.9,69.9h14.6v-5c0-1,0.8-1.7,1.7-1.7c1,0,1.7,0.8,1.7,1.7v6.8c0,1-0.8,1.7-1.7,1.7H32.9v2.5
		c0,1.5,1.2,2.7,2.7,2.7h19.8V55.2H32.9V69.9z"/>
	<path class="st0" d="M77.6,31.6h-3.7c0.5,1.2,0.8,2.5,0.8,3.9c0,1.7-0.5,3.4-1.2,4.8h7v-6C80.3,32.8,79.1,31.6,77.6,31.6z"/>
	<path class="st0" d="M70.8,43.8c-0.5,0.8-1,1.7-1.3,2.7l-1.6,5.1c-0.5,1.7-2,2.8-3.8,2.8c-1.7,0-3.3-1.1-3.8-2.8l-1.7-5.4
		c-0.5-1.5-1.2-2.9-2.3-4.1c-1.6-1.9-2.5-4.2-2.5-6.7c0-1.4,0.3-2.7,0.8-3.9h-6.8v12.2c0,1-0.8,1.7-1.7,1.7H32.9v6.2h24.4
		c1,0,1.7,0.8,1.7,1.7v5.3h9.5c1,0,1.7,0.8,1.7,1.7v6.9h10V43.8H71C70.9,43.8,70.9,43.8,70.8,43.8z"/>
	<path class="st0" d="M66.8,69.2v-6.9H59v16.4h18.6c1.5,0,2.7-1.2,2.7-2.7v-5H68.6C67.5,70.9,66.8,70.1,66.8,69.2z"/>
	<path class="st0" d="M61.3,45.5l1.7,5.4c0.2,0.5,0.7,0.9,1.3,0.9l0,0c0.6,0,1.1-0.4,1.3-0.9l1.6-5.1c0.6-2,1.7-3.7,3-5.2
		c1.2-1.4,2-3.2,2-5.2c0-4.2-3.4-7.7-7.7-7.7c-4.2,0-7.7,3.4-7.7,7.7c0,1.9,0.7,3.7,1.9,5C59.8,41.9,60.7,43.7,61.3,45.5z
		 M64.3,31.6c2,0,3.7,1.7,3.7,3.7S66.4,39,64.3,39c-2,0-3.7-1.7-3.7-3.7C60.6,33.2,62.3,31.6,64.3,31.6z"/>
</g>
</svg>
