<?xml version="1.0" encoding="utf-8"?>
<!-- Generator: Adobe Illustrator 21.0.0, SVG Export Plug-In . SVG Version: 6.00 Build 0)  -->
<svg version="1.1" id="Capa_1" xmlns="http://www.w3.org/2000/svg" xmlns:xlink="http://www.w3.org/1999/xlink" x="0px" y="0px"
	 viewBox="0 0 115 107" style="enable-background:new 0 0 115 107;" xml:space="preserve">
<style type="text/css">
	.st0{fill:#666666;}
</style>
<title>tech-icon1</title>
<g>
	<path class="st0" d="M90.5,31c0.9-0.5,1.1-1.3,1.4-2.1c0.2-0.7,0.4-1.5,0.6-2.3c0.1-0.2,0.2-0.3,0.2-0.5c0.2-0.3,0.6-0.5,0.9-0.4
		c0.4,0.1,0.8,0.3,1.1,0.5c0.1,0,0.1,0.2,0.1,0.2c0.2,0.7,0.1,1.5,0,2.3c-0.1,0.9-0.2,1.7-0.1,2.6c0.1,0.2,0.1,0.5,0.2,0.7
		c0.1,0.2,0.1,0.2-0.1,0.4c-0.6,0.7-0.9,1.7-0.9,2.7c0,0.8,0.1,1.6,0.1,2.5c0,0.8-0.1,1.5-0.3,2.3c-0.1,0.3-0.2,0.6-0.2,1
		c-0.3,2.7-0.9,5.2-1.6,7.8c-0.3,1.4-0.9,2.7-1.4,4c-0.6,1.6-1.2,3.1-1.9,4.8c-1.1,2.7-2.6,5.3-4.4,7.8c-1.5,2.1-3.3,4-5.2,5.7
		c-2.3,1.9-4.7,3.6-7.3,5c-1.3,0.6-2.7,1.1-4,1.7C64,79.1,60,80.1,56,80.8c-3.5,0.5-6.9,0.6-10.5,0.3c-2.1-0.2-4.1-0.2-6.2,0
		c-0.4,0-0.7,0.1-1.1,0.2c-1.6,0.3-2.9-0.2-3.9-1.5c-0.8-1.1-1.1-2.4-1.1-3.8c0-0.6-0.1-1.2-0.2-1.8c0-0.1-0.1-0.2-0.2-0.3
		c-0.1,0.5-0.2,1,0,1.5c0.1,0.3,0.2,0.6,0.2,0.9c0,0.7-0.6,1-1.2,0.6c-0.6-0.3-1-1-0.9-1.8c0.1-0.5,0.1-0.9,0-1.4
		c-0.2-1-1.1-1.8-2.2-1.6c-0.1,0-0.2,0.1-0.2,0.1c-0.3,0.2-0.6,0.2-0.7-0.2c-0.2-0.3-0.3-0.6-0.5-0.9c-0.2-0.6-0.4-1.1-0.7-1.6
		c-0.3-0.6-0.8-0.7-1.4-0.3c-0.3,0.2-0.6,0.5-1.1,0.6c-0.1,0-0.1,0-0.2,0.1c-1.1,0.3-1.9-0.2-1.9-1.4c0-0.7,0.2-1.4,0.7-1.9
		c0.5-0.5,1.1-0.6,1.8-0.2c0.2,0.2,0.5,0.3,0.7,0.5c0.6,0.5,1.3,0.3,1.6-0.3c0.2-0.2,0.2-0.6,0.3-0.8c0.2-0.6,0.3-1.2,0.5-1.8
		c0.2-0.7,0.7-0.9,1.4-0.5c0.1,0,0.1,0.1,0.2,0.1c0.4,0.2,0.4,0.2,0.7-0.1c0.6-0.5,1-1.3,1.4-1.9c0.2-0.6,0.6-1.1,0.9-1.6
		c0.3-0.5,0.8-0.7,1.5-0.6c0.1,0,0.1,0,0.2,0c0.3-1,1-1.6,1.9-2.2c0.6-0.5,1.1-1,1.5-1.9c0.2-0.5,0.6-0.9,1-1.3
		c0.7-1,1.5-1.9,2.3-2.8c0.6-0.5,1.1-0.9,1.9-1c0.6-0.1,0.6-0.2,0.6,0.5c0,0.6-0.2,1-0.5,1.5c-0.5,0.7-1,1.5-1.5,2.2
		c-0.2,0.2-0.3,0.6-0.5,0.9c-0.2,0.6-0.1,1.1,0.5,1.5s1.2,0.5,1.9,0.6c2.8,0.6,5.6,1.2,8.5,1.9c3.4,0.6,6.8,1,10.2,0.8
		c2.9-0.2,5.6-1,8.3-2.1c1.4-0.6,2.7-1.1,4-1.8c1.7-0.8,3.2-1.9,4.7-3.1c3.4-2.7,6-6.1,8.1-10c0.2-0.4,0.4-0.7,0.6-1.1
		c0.1-0.2,0.1-0.3,0-0.5c-0.5-0.8-1-1.6-1.4-2.4c-0.2-0.6-0.5-1.1-0.6-1.7c-0.2-0.6,0-1.2,0.5-1.7c0.2-0.1,0.2-0.2,0.4-0.1
		c0.3,0.2,0.6,0.5,0.9,0.8c0.3,0.4,0.6,0.9,1,1.4c0.2,0.2,0.3,0.4,0.5,0.3c0.2,0,0.3-0.2,0.4-0.5c0.2-0.4,0.2-0.9,0.3-1.3
		c0.1-0.7,0.5-1.3,0.8-1.9c0.2-0.3,0.4-0.6,0.6-1c0.3-0.6,0.3-1.4-0.1-2C90.7,31.3,90.6,31.2,90.5,31z M80.5,58.8
		c0,0.1,0.1,0.2,0.1,0.2c0.2,0.5,0.3,0.5,0.6,0.2c0.2-0.2,0.3-0.3,0.5-0.6c0.1-0.1,0.1-0.2,0.1-0.2c-0.1-0.7,0.2-1,0.8-1.3
		c0.2-0.1,0.5-0.2,0.7-0.2c0.4-0.2,0.5-0.4,0.4-0.8c-0.1-0.3-0.3-0.6-0.4-0.9c-0.1-0.2-0.2-0.6-0.3-0.8h0.1c0.2,0.4,0.5,0.7,0.8,1.1
		c0,0,0.1,0,0.1-0.1c-0.1-0.3-0.2-0.7-0.2-1c-0.2-0.6-0.1-1.2,0.1-1.9c0.3-1,1-1.7,1.5-2.5c0.6-0.8,1.5-1.5,1.9-2.6
		c0.2-0.5,0.6-0.9,0.8-1.3c0.5-0.6,0.5-1.4,0.3-2.2c0-0.1-0.1-0.2-0.1-0.2c-0.3,0.2-0.5,0.6-0.7,0.9c-0.5,0.7-1,1.5-1.5,2.3
		c-0.1,0.2-0.3,0.2-0.5,0.3c-0.1,0-0.2-0.2-0.4-0.2c-0.1,1-0.4,1.9-1,2.6c-0.7,0.7-1.5,1.2-2.5,1.6c-0.2,0.1-0.3,0.2-0.4,0.3
		c-0.3,0.5-0.6,1-1,1.4C79.4,54,78.3,55.1,77,56c-0.6,0.4-1.4,0.7-2.1,0.9c-0.2,0-0.3,0.1-0.3-0.2c0-0.1-0.2-0.1-0.2-0.1
		c-0.2,0-0.2,0.1-0.4,0.2c-0.6,0.3-1.3,0.7-1.9,1c-1.3,0.4-2.6,0.8-3.9,1.2c-0.1,0-0.2,0.1-0.3,0.2c-0.4,0.3-0.9,0.6-1.4,0.7
		c-0.1,0-0.2,0.1-0.3,0.2v0.1c0.2,0.2,0.6,0.2,0.8,0.4c-0.6,0-1.1,0.1-1.6,0.3c-0.4,0.2-0.8,0.5-0.8,1c-0.5-0.2-0.7-0.4-0.9-0.9
		c-0.1-0.4-0.2-0.5-0.6-0.3c-0.2,0.1-0.4,0.1-0.6,0.1c-0.4,0-0.8-0.1-1.2-0.1c-1.8,0-3.5,0-5.3-0.2c-0.2,0-0.3,0.1-0.5,0.1
		c0.1,0.2,0.1,0.4,0.2,0.5c0.2,0.3,0.6,0.6,0.8,0.9c-0.2,0-1-0.4-1.5-0.6c-0.1-0.1-0.2-0.2-0.2-0.3c0.1-0.1,0.2-0.2,0.3-0.2
		c0,0,0,0,0.1-0.1c-0.2-0.2-0.5-0.4-0.7-0.5c-0.3-0.2-0.6,0-0.6,0.3c0,0.1,0,0.1,0,0.2c-0.1-0.1-0.2-0.2-0.3-0.2
		c-0.6-0.4-1.2-0.6-1.9-0.7c-0.1,0-0.2,0-0.3,0c-0.1,0.1-0.1,0.2-0.2,0.2c-0.6-0.2-1.1-0.5-1.7-0.7c-0.7-0.2-1.5-0.6-2.3-0.6
		c-0.3,0-0.6,0.1-0.6,0.4c-0.8-0.6-1.6-0.9-2.4-1.2c-0.6-0.2-1.3-0.4-1.9-0.4c-0.8,0-1.1,0.5-0.9,1.3c0,0.1,0.1,0.2,0.1,0.2
		c0,0.2,0.1,0.3,0,0.5c-0.2,1-0.3,2.1-0.3,3.2c0,0.2,0,0.3,0.1,0.5c0.4-0.3,0.7-0.6,1-0.9l0.1,0.1c-0.2,0.8-0.8,1.5-1.2,2.3
		c0.1,0,0.2,0.1,0.2,0.1c0.4,0.2,0.6,0.5,0.5,1c-0.1,0.2-0.2,0.6-0.3,0.8c-0.1,0.2-0.2,0.4-0.2,0.6c0.4-0.3,0.6-0.3,0.8,0.1
		c0.2,0.2,0.2,0.5,0.2,0.7c0.2,0.8,0.2,1.6-0.3,2.3c0,0.1,0,0.1,0,0.2c0.1,0.3,0.2,0.6,0.6,0.6c0.2,0,0.5,0,0.7,0
		c0.4-0.1,0.9-0.2,1.3-0.2s0.6,0.1,0.7,0.4c0,0,0,0.1,0.1,0.1c0.3,0.1,0.2,0.3,0.2,0.6c-0.1,0.3-0.2,0.7-0.2,1
		c-0.1,0.5,0.2,0.8,0.6,1c0.2,0.1,0.2,0.1,0.4,0.2c0,0.1-0.1,0.1-0.1,0.2c-0.2,0.4-0.1,0.6,0.3,0.6c0.5,0.1,0.9,0,1.3-0.2
		c0.2-0.1,0.2-0.3,0.2-0.5c-0.1-0.2,0-0.4,0.2-0.6c0.7-1,1.5-1.4,2.8-1c0.5,0.2,0.9,0.3,1.4,0.5c0.1,0,0.2,0.2,0.2,0.2
		c0,0.2-0.1,0.3-0.2,0.3c-0.5,0.3-1,0.4-1.6,0.2c-0.3-0.1-0.5-0.3-0.5-0.7c0-0.1,0-0.2,0.1-0.3c-0.5,0.2-0.9,0.3-1.2,0.6
		c-0.3,0.2-0.4,0.5-0.2,0.8c0.3,0.5,0.6,1,1,1.5c0.2-0.2,0.4-0.3,0.6-0.5c0.3-0.2,0.6-0.5,1-0.6c0.4-0.2,0.7,0,0.8,0.4
		c0,0.1,0,0.2,0.1,0.3c0-0.1,0.1-0.1,0.1-0.1c0.5-0.9,1.2-1.2,2.1-1.2c0.3,0,0.7,0,1,0s0.5-0.2,0.6-0.4c0.2-0.2,0-0.4-0.1-0.6
		c-0.1-0.1-0.1-0.2-0.2-0.2c-0.2-0.2-0.1-0.5,0.1-0.6c0.1-0.1,0.1-0.1,0.2-0.1l-0.1-0.1c-0.5,0.3-1,0.6-1.5,0.9
		c-0.4,0.2-0.9,0.5-1.3,0.7c-0.1,0.1-0.2,0-0.3,0c0-0.1,0-0.2,0-0.3c0.1-0.2,0.2-0.5,0.3-0.7c-0.2-0.1-0.4-0.1-0.6-0.2
		c-0.3-0.1-0.6-0.1-1-0.2c-0.2-0.1-0.4-0.2-0.5-0.3c-0.1-0.2-0.1-0.4-0.2-0.6c0.1,0,0.2,0.1,0.2,0.1c0.6,0.2,1.1,0.5,1.7,0.6
		c0.2,0.1,0.4,0,0.6,0c0-0.2,0-0.4-0.1-0.6c-0.2-0.3-0.3-0.7-0.6-1c-0.2-0.2-0.1-0.4,0.2-0.6c0.1-0.1,0.2-0.1,0.2-0.2
		c0.3-0.2,0.7-0.2,1-0.4c0.2-0.1,0.4-0.1,0.6-0.2c0.6-0.1,0.9,0.3,0.6,0.8c-0.2,0.3-0.4,0.6-0.6,0.9c-0.1,0.2-0.2,0.2-0.3,0.3
		c0,0,0,0.1,0.1,0.1c0.3-0.2,0.6-0.3,1-0.5c0.4-0.2,0.8-0.6,1.2-0.8c0.5-0.2,1-0.3,1.5-0.2c0.4,0.2,0.8,0.2,1.2,0
		c0.4-0.1,0.5-0.3,0.6-0.6c0-0.2,0-0.4,0-0.6c0.2,0,0.5,0,0.6-0.1c0.1,0,0.2-0.1,0.2-0.2c-0.1-0.1-0.1-0.2-0.2-0.2
		c-0.2-0.2-0.6-0.3-0.8-0.4c0.4-0.8,1-1.2,1.9-1.3c0.2,0,0.6,0,0.8-0.1c0.2,0,0.5-0.1,0.4-0.3c0-0.2-0.3-0.2-0.5-0.2
		c-0.5,0.1-1,0.1-1.5,0.2c-0.2,0-0.3,0-0.6,0.1c0-0.1,0.1-0.2,0.1-0.2c0.7-0.4,1.5-0.8,2.3-1.1c1.1-0.4,1.8,0.2,1.5,1.4
		c-0.1,0.2-0.1,0.5-0.2,0.7c0.5-0.3,1-0.6,1.5-1c0.4-0.3,0.8-0.6,1-1.1c0.1-0.3,0.3-0.5,0.6-0.6c0.4-0.3,0.9-0.5,1.5-0.6
		c0.2,0,0.5-0.1,0.8,0c0.4,0.1,0.6,0.3,0.5,0.7c-0.1,0.4-0.3,0.8-0.7,1.1c-0.6,0.5-1.1,1.1-1.6,1.8c-0.1,0.2-0.2,0.3-0.2,0.5
		c0,0,0.1,0,0.1,0.1c0.1,0,0.2-0.1,0.2-0.1c0.3-0.3,0.7-0.6,1-0.9c1.1-1.3,2.2-2.6,3.3-3.8c0.7-0.8,1.5-1.7,2.3-2.3
		c1.1-0.8,2.4-1.4,3.6-2.1c0.2,0.8-0.4,2.3-1.1,2.7l0,0c-0.2,0.2-0.4,0.1-0.5-0.2c0-0.2,0-0.3-0.1-0.5c-0.3,0.5-0.6,1-0.8,1.5
		c-0.2,0.3,0,0.5,0.3,0.4c0.5-0.1,1-0.2,1.3-0.6c0.2-0.2,0.3-0.4,0.5-0.6c0.3-0.7,0.6-1.5,1-2.3c0.2-0.2,0.2-0.6,0.4-0.9
		c0.3,0.3,0.6,0.6,0.8,1C80.3,59.2,80.4,59,80.5,58.8z M39.5,79.3c-0.4-0.1-0.8-0.2-1.2-0.2c-0.6-0.2-1-0.3-1.5-0.7
		c-0.6-0.6-0.5-1.5,0.1-2.1c0,0.2,0,0.4,0.1,0.6c0.1,0.5,0.4,0.7,0.9,0.6c0.9-0.2,1.5-0.8,1.8-1.6c0.2-0.4,0-0.6-0.4-0.7
		C39.1,75,39,75,38.9,75c0.1-0.2,0.1-0.5,0.2-0.7c0.1-0.4,0.1-0.8,0.2-1.2c0.1-0.2,0.2-0.3,0.4-0.2c0.1,0.1,0.2,0.2,0.3,0.3
		c0-0.5,0.1-0.8,0.1-1.2c-0.2-1.1-0.3-2.3-0.5-3.4c-0.2-0.9-0.2-1.8,0-2.7c0.2-0.8,0.3-1.6,0.5-2.4c0.2-1.5,0.4-3.1,0.3-4.7
		c0-0.2,0-0.5,0-0.7c0.1-1-0.2-2-1-2.7c-0.3-0.4-0.8-0.6-1.4-0.5c-0.2,0-0.3,0.1-0.3,0.3c-0.1,0.3-0.2,0.6-0.3,0.9
		c-1,3.1-1.4,6.3-1.4,9.6c0,1.8,0,3.5-0.1,5.3c0,0.8-0.2,1.6-0.2,2.4c0,0.2,0.1,0.3,0.2,0.6c0.2-0.1,0.3-0.2,0.5-0.2
		c0.2-0.2,0.4-0.4,0.6-0.6c0,0.2,0,0.2,0.1,0.4c0,0.1,0.1,0.3,0.2,0.3c0.1,0,0.2-0.1,0.3-0.2c0.2-0.2,0.3-0.3,0.5-0.4
		c0.2-0.1,0.3-0.1,0.3,0.1c0.1,0.2,0.1,0.6,0,0.8c-0.2,0.4-0.4,0.7-0.6,1c-0.6,0.7-1,0.8-1.8,0.3c0,0,0,0-0.1,0c-0.2,1-0.2,2,0,3
		c0.2,0.7,0.5,1.4,1.3,1.6c0.8,0.2,1.5,0,2.3-0.2C39.5,79.5,39.5,79.4,39.5,79.3z M79.1,69.7L79.1,69.7c0.3-0.2,0.6-0.4,0.9-0.6
		c1.5-1.3,2.7-2.9,3.9-4.4c0.9-1.1,1.8-2.4,2.4-3.7c1.1-2.3,2.2-4.8,3.2-7.1c1-2.3,1.8-4.7,2.2-7.3c0-0.2,0.1-0.6,0.1-0.8h-0.1
		c-0.2,0.3-0.4,0.6-0.5,0.9c-0.2,0.8-0.5,1.7-0.7,2.6c-0.2,1-0.5,1.9-1.2,2.7c-0.1,0.1-0.1,0.2-0.1,0.2c-0.1,1.1-0.4,2.2-0.8,3.1
		c-0.5,1.2-1,2.3-1.5,3.5c-0.2,0.4-0.3,0.8-0.6,1.1c-0.6,0.9-1.4,1.7-2,2.6c-1.3,1.7-2.7,3.4-4.2,4.9c-0.3,0.3-0.6,0.7-0.8,1
		c-0.1,0.1-0.1,0.2-0.1,0.2c0,0,0,0,0.1,0.1c0.1-0.1,0.2-0.2,0.3-0.2c1-0.9,2-1.9,2.9-3c0.2-0.2,0.4-0.4,0.6-0.6c0,0,0.1,0,0.1,0.1
		c-0.1,0.1-0.1,0.2-0.2,0.3c-0.8,0.9-1.6,1.9-2.3,2.7C79.9,68.8,79.5,69.3,79.1,69.7z M71.8,73.3c-0.1,0.7-0.6,1.1-1.2,1.3
		c-0.4,0.1-0.8,0.2-1.2,0.3C69,75,68.8,75,68.8,75.4c0,0.1-0.1,0.1-0.1,0.2c-0.3,0.4-0.7,0.6-1.3,0.7c-0.5,0.1-1,0.1-1.5,0.1
		c-0.6,0-1.3,0.2-1.9,0.6c-0.4,0.3-0.8,0.6-1.3,0.5h-0.1c-0.6,0.2-1.2,0.4-1.8,0.6c-1.2,0.6-2.5,0.9-3.8,1c-0.8,0.1-1.6,0.4-2.4,0.6
		c-0.1,0-0.2,0.1-0.2,0.2V80c0.2,0,0.3,0,0.4,0c1.6-0.2,3.2-0.3,4.8-0.8c2.8-0.8,5.6-1.8,8.5-2.5c1.5-0.3,2.8-1,4-1.8
		c0.6-0.4,1.2-1,1.9-1.3c0.2-0.1,0.5-0.2,0.6-0.3c0.8-0.4,1.4-1,1.8-1.9c0.1-0.1,0.1-0.3,0-0.4c-0.1-0.1-0.3-0.1-0.4,0
		c-0.9,0.3-1.6,0.8-2.1,1.7c0,0.1-0.1,0.1-0.1,0.2c-0.5,0.2-1,0.5-1.5,0.7C72.1,73.7,72,73.6,71.8,73.3z M64.9,72.8
		C64.9,72.8,65,72.9,64.9,72.8c0.2,0.1,0.3,0.1,0.4,0c0.2-0.2,0.4-0.2,0.6-0.4c0.7-0.7,1.4-1.4,2.1-2.1c0.3-0.3,0.6-0.6,0.9-1
		c0.1-0.1,0.2-0.2,0.2-0.3L69,68.9c-0.3,0.2-0.6,0.4-1,0.6c-0.3-0.3-0.5-0.3-0.9-0.2c-0.2,0.1-0.4,0.2-0.6,0.4
		c-0.2,0.2-0.5,0.2-0.6-0.1c-0.5,0.3-0.7,0.7-1.4,1c0.1-0.4,0.2-0.6,0.2-1c-0.2,0.2-0.4,0.3-0.6,0.5c-0.2,0.2-0.4,0.2-0.5-0.2
		c0-0.2,0-0.4-0.1-0.6c0-0.2-0.1-0.3-0.2-0.5c-0.1,0.1-0.2,0.2-0.2,0.2c-0.3,0.5-0.6,1-0.9,1.5c-0.2,0.2-0.3,0.5-0.4,0.7
		c-0.1,0.1,0,0.2-0.1,0.3c0.1,0,0.2,0,0.3,0c0.2-0.1,0.2-0.2,0.4-0.2c-0.2,0.3-0.4,0.6-0.6,0.8l0.1,0.1c0.2,0,0.4,0,0.6,0
		c-0.1,0.2-0.2,0.5-0.3,0.8c0.6-0.2,0.9-0.6,1.5-0.6c-0.1,0.2-0.2,0.4-0.2,0.6c0.6-0.5,1.3-0.9,1.9-1.3l0.1,0.1
		C65.6,72.1,65.3,72.5,64.9,72.8z M35.4,62.4c0-0.1-0.1-0.1-0.1-0.2c-0.2,0.1-0.5,0.1-0.7,0.2c-0.3,0.2-0.6,0.3-0.9-0.2l0,0
		c-0.2-0.2-0.4-0.2-0.5,0.2c-0.1,0.3-0.2,0.6-0.2,1c-0.1,1.8-0.1,3.5-0.2,5.2c0,1,0,2.2,0,3.2c0,0.2,0.1,0.2,0.1,0.4h0.1
		c0-0.2,0.1-0.2,0.1-0.4c0-0.7,0-1.5,0.1-2.3c0-0.6,0.2-1,0.2-1.6c0.2-0.8,0.6-1.5,1.2-1.9c-0.2,0-0.5,0-0.8-0.1
		c-0.3-0.1-0.3-0.3-0.1-0.5c0.2-0.2,0.4-0.2,0.6-0.3c0.2-0.1,0.6-0.2,0.9-0.3c0.3-0.2,0.6-0.3,0.6-0.7c0-0.3-0.3-0.6-0.6-0.7
		c-0.1,0-0.1-0.1-0.2-0.1c-0.2-0.1-0.6-0.2-0.8-0.2C34.7,62.9,35.1,62.6,35.4,62.4z M58.1,74.3L58.1,74.3c0.3-0.2,0.6-0.6,0.9-1
		c0.6-0.7,1.4-1.5,2-2.2c0.2-0.2,0.3-0.3,0.4-0.6c0.1-0.1,0.1-0.2,0.1-0.3c-0.1,0-0.2-0.1-0.3-0.1c-0.4,0.1-0.8,0.2-1.2,0.4
		c-0.1,0-0.1,0.1-0.2,0.1C59.5,70.9,59.3,71,59,71s-0.6,0-1,0c-0.4,0-0.8-0.1-1.1-0.1c-0.4,0-0.5,0.2-0.5,0.6c0.1,0,0.2-0.1,0.3-0.1
		c0.3,0,0.6-0.1,1-0.1c0.3,0,0.4,0.2,0.3,0.5c0,0.1-0.1,0.2-0.2,0.3c-0.3,0.4-0.6,0.7-0.9,1.1c-0.2,0.2-0.3,0.5-0.5,0.7
		c-0.2,0.2,0,0.5,0.3,0.5s0.6-0.2,1-0.2C57.9,74.3,58,74.3,58.1,74.3z M48.1,80L48.1,80c0.1,0.1,0.2,0.2,0.2,0.2
		c0.4,0,0.9,0,1.3-0.1c1.1-0.2,2.3-0.3,3.4-0.5c0.9-0.2,1.8-0.2,2.6-0.7c0.2-0.1,0.4-0.2,0.6-0.4c-0.1-0.1-0.2-0.1-0.2,0
		c-0.8,0.2-1.6,0.3-2.4,0.3c-0.9,0-1.7,0.1-2.5,0.4c-0.2,0.1-0.4,0-0.6,0.1c0.4-0.1,0.8-0.2,1.1-0.5c-0.7-0.3-3.6,0-4,0.4
		c0.9,0.2,1.8-0.1,2.7,0.1C49.5,79.5,48.7,79.6,48.1,80z M72.4,68.1c-0.1-0.1-0.1-0.4-0.2-0.5c-0.2-0.1-0.3,0.2-0.5,0.3
		c0,0,0,0,0,0.1c-0.2,0.2-0.4,0.6-0.6,0.8c-0.4,0.6-0.7,1-1.1,1.6c-0.2,0.3-0.2,0.6-0.3,1c-0.1,0.3,0.1,0.5,0.4,0.3
		c0.4-0.2,0.9-0.3,1-0.8c0-0.1,0.1-0.2,0.2-0.2C72,70,72.3,69.2,72.4,68.1z M29.5,66.4c0.2,0.1,0.4,0.2,0.6,0.2
		c0.8,0.1,1.5-0.2,2.2-0.8c0.2-0.2,0.4-0.4,0.4-0.7s-0.1-0.5-0.3-0.5c-0.2,0-0.4,0-0.6,0c-0.1,0-0.2,0-0.2-0.1c0-0.1,0-0.2,0.1-0.2
		c0.1-0.1,0.2-0.2,0.3-0.4c-0.3,0-0.6,0.2-0.7,0.3C30.6,65,30,65.7,29.5,66.4z M90.7,36.1c-0.2,0.3-0.2,0.6-0.4,0.9
		c-0.5,1.1-1,2.2-1.4,3.3c-0.2,0.4-0.2,0.9-0.2,1.3c0,0.3,0.1,0.6,0.5,0.6c0.1-0.2,0.2-0.5,0.2-0.7c0.3-0.9,0.6-1.8,0.9-2.7
		c0.2-0.6,0.4-1.2,0.6-1.9C91,36.7,90.9,36.3,90.7,36.1z M24.5,68.9C24.3,69,24.1,69,24,69c-0.3,0.1-0.5-0.1-0.4-0.4
		c0.1-0.2,0.2-0.5,0.2-0.6c0.1-0.2,0.2-0.6,0.2-0.8c0.1-0.2,0-0.4-0.2-0.4c-0.3,0-0.6,0.1-0.9,0.2c-0.8,0.6-0.6,1.8,0.4,2.2
		C23.7,69.3,24.1,69.2,24.5,68.9z M85.5,51.4c-0.5,0-0.6,0.1-0.6,0.4c0,0.2,0.1,0.4,0.2,0.6c0.2,0.4,0.3,0.8,0.6,1.1
		c0.1,0.1,0.3,0.1,0.4,0.2c0-0.2,0-0.2,0-0.4c0-0.1,0-0.2-0.1-0.2c-0.2-0.4-0.2-0.4,0.3-0.5c0.1,0,0.2-0.1,0.3-0.2
		c0.1-0.2-0.2-0.9-0.5-1C86,51.5,85.7,51.5,85.5,51.4z M86.7,57.7c-0.4,0.2-0.6,0.6-0.9,1c-0.5,0.9-0.9,1.7-1.4,2.6
		c-0.2,0.4-0.4,0.7-0.6,1.2C84.8,61.8,86.8,58.5,86.7,57.7z M43.1,72.6C43.1,72.6,43.2,72.6,43.1,72.6c0,0.3-0.2,0.6-0.2,0.9
		c0,0.1,0,0.2,0,0.3c0.1,0,0.2,0,0.3-0.1c0.5-0.4,0.6-1.3,0.2-1.8c-0.2-0.2-0.4-0.2-0.6-0.1c-0.2,0.1-0.2,0.2-0.3,0.4
		c-0.2,0.5-0.4,1-0.6,1.5c0,0.1,0,0.2,0,0.2s0,0,0.1,0C42.3,73.5,42.7,73.1,43.1,72.6z M71.1,67.5c0.1,0,0.2,0,0.2,0
		c0.6-0.5,1.4-0.8,1.8-1.5c0.2-0.3,0.3-0.7,0.4-1c0-0.1,0-0.2-0.1-0.2c0,0-0.2,0-0.2,0.1c-0.2,0.2-0.3,0.5-0.5,0.6
		c-0.1,0.2-0.2,0.2-0.3,0.4c-0.2,0.2-0.4,0.3-0.6,0.6C71.6,66.7,71.3,67,71.1,67.5z M31.7,66.8c-0.5,0-1,0.4-1,0.8
		c0,0.6,0,1.2,0,1.9c0,0.3,0.1,0.6,0.1,0.9c0.1,0,0.1,0,0.2,0c0-0.2,0.1-0.4,0.1-0.6c0-0.3-0.1-0.6,0-0.9c0.1-0.5,0.2-0.9,0.4-1.4
		C31.6,67.3,31.6,67.1,31.7,66.8z M71.8,65.7c0.8-0.9,1.7-1.8,1.8-3.1c-0.1,0.1-0.2,0.1-0.2,0.2c-0.2,0.2-0.2,0.5-0.4,0.7
		c-0.1,0.2-0.2,0.3-0.4,0.5C72,64.5,71.9,65,71.8,65.7z M92.4,30.5c0.5-0.3,1.1-2.7,0.9-3.5C92.8,28.2,92.6,29.3,92.4,30.5z
		 M40.8,51.7c0,0.2,0.1,0.2,0.2,0.2c0.2-0.1,0.2-0.2,0.3-0.2c0.3-0.2,0.5-0.6,1-0.6c0.2,0,0.2-0.2,0-0.2c-0.2-0.1-0.3-0.2-0.5-0.1
		C41.5,50.5,40.9,51.2,40.8,51.7z M75.2,66.5c0.6-0.1,1.6-1.2,1.5-1.9C76.1,65.1,75.5,65.7,75.2,66.5z M86.1,50.3
		C86.1,50.3,86.1,50.4,86.1,50.3c0.1,0.2,0.1,0.3,0.2,0.5c0.1,0.2,0.2,0.3,0.2,0.5c0.1,0.1,0.3,0.1,0.4,0C87,51.2,87,51,87,50.9
		c-0.1-0.2-0.2-0.6-0.3-0.8c-0.1-0.2-0.2-0.2-0.3-0.4C86.1,50,86.1,50.1,86.1,50.3z M42.1,75.9c0.1,0.3,0.2,0.5,0.4,0.4
		c0.5-0.2,0.6-0.6,0.2-1c-0.2-0.2-0.3-0.2-0.4,0C42.3,75.5,42.2,75.7,42.1,75.9z M28.2,66.7c0.2-0.5,0.3-1,0.2-1.5
		c-0.3,0.2-0.6,0.7-0.5,1C27.8,66.4,27.8,66.6,28.2,66.7z M47,76.6c-0.6-0.2-1,0.1-1,0.6c0,0.1,0.1,0.2,0.2,0.3c0.1,0,0.2,0,0.3-0.1
		C46.6,77.1,46.8,76.8,47,76.6z M73.7,65.9c0.6-0.2,1.2-1,1.1-1.5C74.3,64.9,74,65.3,73.7,65.9z M44.9,77.2c0.4-0.2,0.6-0.6,0.9-0.9
		c0.1-0.1-0.1-0.2-0.1-0.4c-0.1,0-0.2,0-0.3,0.1c-0.2,0.2-0.3,0.6-0.5,0.9C44.9,77,44.9,77.1,44.9,77.2z M70.7,66.9
		c-0.5,0.4-1,0.9-1.3,1.5C70,68.3,70.7,67.5,70.7,66.9z M46.4,78.9c-0.3,0-0.6,0-0.9,0.1c-0.1,0-0.2,0.2-0.2,0.2
		c0.1,0.1,0.2,0.2,0.3,0.2C45.9,79.6,46.2,79.3,46.4,78.9z M88.8,46.3L88.8,46.3c-0.2,0.4-0.1,0.8,0.1,1.1c0,0.1,0.1,0.1,0.2,0.2
		c0.1,0,0.2,0,0.2,0v-0.2c-0.1-0.2-0.2-0.4-0.2-0.6C89,46.7,88.9,46.6,88.8,46.3z M87,50.2c-0.1,0.4,0,0.6,0.2,1
		c0.2,0.2,0.2,0.2,0.3,0C87.8,50.8,87.4,50.3,87,50.2z M80.4,59.5c-0.2,0.2-0.3,0.9-0.2,1.1C80.7,60.4,80.7,59.9,80.4,59.5z
		 M79.3,63.5c-0.2-0.2-0.2-0.2-0.4-0.1c-0.2,0.2-0.3,0.6-0.2,0.8C79,64.1,79.1,63.7,79.3,63.5z M87.8,49.7c0.1-0.3-0.2-0.9-0.4-1
		C87.1,49.1,87.4,49.6,87.8,49.7z M63.6,67.3c-0.5-0.1-0.7,0.1-0.8,0.4c0,0.1,0,0.2,0.1,0.2c0.1,0,0.2,0,0.2-0.1
		C63.2,67.8,63.3,67.5,63.6,67.3z M53.2,75.2c-0.2,0.3-0.3,0.6-0.2,1C53.5,76,53.6,75.5,53.2,75.2z M63,73.6c-0.5,0.1-1,0.6-1,1
		C62.4,74.4,62.7,74,63,73.6z M61.3,75c-0.5,0-1,0.2-1,0.7C60.7,75.6,61,75.4,61.3,75z M88.2,48.4C88.2,48.4,88.2,48.4,88.2,48.4
		c-0.2,0.3-0.1,0.6,0.1,0.8c0,0.1,0.2,0.1,0.2,0.1c0.1,0,0.2-0.2,0.1-0.2C88.5,48.8,88.3,48.6,88.2,48.4z M79.9,66.3
		c0.1,0.1,0.2,0.2,0.2,0.2c0.2-0.1,0.2-0.2,0.4-0.3c-0.1-0.1-0.2-0.2-0.3-0.3C80.2,66,80.1,66.2,79.9,66.3z M77,67.9
		c-0.2,0.3-0.2,0.6,0,1C77.4,68.5,77.4,68.3,77,67.9z M68.3,71.7c0.4-0.2,0.6-0.6,0.6-1C68.6,71,68.5,71.3,68.3,71.7z M39.4,77.5
		c-0.2,0.2-0.2,0.4-0.1,0.6c0,0.2,0.2,0.2,0.2,0.1C39.7,77.9,39.7,77.7,39.4,77.5z M82.7,64.1c0.1,0,0.1,0.1,0.2,0.1
		c0.1-0.2,0.2-0.3,0.3-0.4c0.1-0.1,0.1-0.2-0.1-0.2c-0.1,0-0.2,0-0.2,0.1C82.8,63.7,82.8,63.9,82.7,64.1z M77.8,65.6
		C77.8,65.6,77.8,65.6,77.8,65.6c0.5-0.2,0.6-0.5,0.3-0.9C77.9,65,77.8,65.4,77.8,65.6z M75.3,67.8c0.1,0,0.1,0.1,0.2,0.1
		c0.2-0.2,0.2-0.3,0.3-0.5c0-0.1,0-0.2-0.1-0.2c0,0-0.2,0-0.2,0.1C75.4,67.4,75.3,67.6,75.3,67.8z M69.9,69.4
		c-0.3,0.2-0.5,0.6-0.6,0.9C69.6,70,69.9,69.9,69.9,69.4z M46.9,77.9c0.2-0.2,0.4-0.5,0.6-0.7C47.1,77.1,46.9,77.4,46.9,77.9z
		 M43.4,75c0.1,0,0.1,0,0.2,0.1c0.1-0.2,0.2-0.2,0.2-0.4c0-0.1-0.1-0.2-0.1-0.2c0,0-0.2,0-0.2,0.1C43.5,74.6,43.4,74.8,43.4,75z
		 M88.5,48.3L88.5,48.3c0.2-0.4,0-0.7-0.2-1h-0.1C88.3,47.6,88.4,48,88.5,48.3z M76.5,55.7c-0.2-0.1-0.2-0.2-0.3-0.2
		c-0.1,0-0.2,0.1-0.3,0.2c0.1,0.1,0.2,0.2,0.2,0.3C76.3,55.8,76.4,55.8,76.5,55.7z M62.4,76.2C62.4,76.3,62.4,76.3,62.4,76.2
		c0.4-0.2,0.6-0.3,1-0.5C63.1,75.8,62.7,76,62.4,76.2z M86.5,39.3c0.1,0.2,0.2,0.2,0.2,0.3c0.1-0.1,0.2-0.2,0.2-0.3
		c0-0.1-0.2-0.2-0.2-0.3C86.6,39.2,86.5,39.2,86.5,39.3z M44.2,75.4c-0.2,0-0.4,0-0.5,0c0,0,0,0.2,0,0.2c0,0.1,0.2,0.1,0.2,0.2
		C44,75.8,44.1,75.6,44.2,75.4z M80.7,61.6C80.7,61.6,80.8,61.6,80.7,61.6c0.2-0.4,0.4-0.8,0.6-1.3h-0.1
		C81.1,60.7,80.9,61.2,80.7,61.6z M91.9,45c0.1,0,0.1,0,0.2,0c0.1-0.2,0.2-0.3,0.2-0.5c0-0.1-0.1-0.2-0.2-0.2H92
		C91.9,44.6,91.9,44.9,91.9,45z M84.8,53.1c0.1,0.3,0.2,0.6,0.2,0.9C85.2,53.7,85.1,53.4,84.8,53.1z M76.3,64.2L76.3,64.2
		c-0.2,0-0.3,0-0.4,0.1c-0.1,0.2-0.2,0.2,0,0.5C76.1,64.5,76.2,64.3,76.3,64.2z M54.7,72.3c-0.2,0-0.2-0.1-0.3-0.1s-0.2,0.1-0.2,0.2
		c0.1,0.1,0.1,0.2,0.2,0.2C54.5,72.6,54.6,72.5,54.7,72.3z M91.5,34.8c-0.2-0.1-0.2-0.2-0.4-0.2l-0.2,0.1c0.1,0.1,0.2,0.2,0.2,0.3
		C91.2,35,91.3,35,91.5,34.8z M85.1,56.9c0.2,0.2,0.2,0.3,0.4,0.5C85.5,56.9,85.4,56.8,85.1,56.9z M77.7,55.1
		c0.2-0.2,0.2-0.4,0.3-0.6C77.6,54.6,77.5,54.8,77.7,55.1z M91.9,31.8L91.9,31.8c0.2-0.4,0.1-0.5-0.3-0.4
		C91.7,31.6,91.8,31.7,91.9,31.8z M58.7,75.3c0.1-0.2,0.1-0.3,0.2-0.4l-0.2-0.1C58.5,74.9,58.6,75,58.7,75.3z M86.4,36
		c-0.2,0-0.3,0-0.5,0c0.1,0.1,0.1,0.2,0.2,0.2C86.3,36.4,86.3,36.3,86.4,36z M72.4,70.5L72.4,70.5c0.2-0.1,0.4-0.3,0.6-0.5L72.9,70
		C72.7,70.1,72.6,70.4,72.4,70.5z M51.4,76.2c0.3-0.2,0.3-0.3,0.2-0.6C51.5,75.8,51.5,76,51.4,76.2z M41.1,70L41.1,70
		c0.2-0.1,0.2-0.2,0.2-0.2c0-0.1-0.2-0.2-0.2-0.2c0,0-0.1,0-0.1,0.1C41,69.8,41.1,70,41.1,70z M69.9,65.3c0-0.1-0.1-0.1-0.1-0.2
		c-0.1,0.1-0.2,0.2-0.3,0.2c0.1,0,0.1,0.1,0.1,0.1C69.7,65.4,69.8,65.4,69.9,65.3z M68.7,66.3c0-0.1-0.1-0.1-0.1-0.2
		c-0.1,0.1-0.2,0.1-0.2,0.2c0,0,0.1,0.1,0.1,0.2C68.6,66.5,68.6,66.4,68.7,66.3z M79,67.9L79,67.9c0.1,0.2,0.2,0.2,0.2,0.2
		c0-0.1,0.1-0.2,0.1-0.3C79.1,67.8,79,67.8,79,67.9z"/>
	<path class="st0" d="M55.7,67.4c-0.2,0-0.4,0-0.6,0c-0.1,0-0.2-0.2-0.2-0.2c-0.1-0.3-0.2-0.4-0.5-0.2c-0.9,0.3-1.8,0.7-2.7,1.2
		c-0.1,0.1-0.2,0.2-0.2,0.2v0.1c0.8,0,1.5-0.2,2.3-0.2c-0.1,0.1-0.1,0.1-0.2,0.1c-0.9,0.3-1.9,0.5-2.8,0.6c0.2,0.1,0.2,0.1,0.4,0.2
		c0.8,0.2,1.7,0.1,2.5,0c0.4-0.1,0.7-0.2,1.1-0.2c0.4-0.2,0.5-0.2,0.2-0.6c-0.2-0.2-0.2-0.4,0.1-0.6C55.4,67.5,55.5,67.5,55.7,67.4z
		 M53.3,63.3c-0.3,0-0.6-0.1-0.8,0c-0.1,0-0.2,0.1-0.3,0.1c0.1,0.1,0.2,0.2,0.2,0.3c0.6,0.4,1.3,0.6,2,0.7c0.6,0.1,1.2-0.3,1.8-0.4
		c0.2-0.1,0.2-0.2,0.1-0.4c-0.3-0.2-0.6-0.4-1-0.6c-0.2,0.3-0.3,0.3-0.6,0.2c-0.2-0.1-0.5-0.2-0.6-0.2
		C53.6,62.8,53.4,62.9,53.3,63.3z M46.3,60c-0.1,0-0.2,0-0.3-0.1c-0.3-0.2-0.7-0.4-1-0.6c-0.2-0.1-0.5-0.2-0.7-0.2
		c-0.1,0-0.2,0.1-0.2,0.1c0,0.1,0,0.2,0.1,0.2c0.6,0.6,1.5,1.1,2.4,1.3c0.3,0.1,0.6,0,0.7-0.2c0.2-0.3-0.1-0.5-0.3-0.6
		c-0.6-0.5-1.1-0.9-1.9-1.1c-0.1,0-0.2,0-0.2-0.1C45.2,59.4,46,59.4,46.3,60z M47.5,72.2L47.5,72.2c0.1,0,0.2,0,0.3-0.1
		c0.2-0.1,0.4-0.2,0.6-0.2c0.1,0,0.2,0,0.3,0.1c-0.1,0.1-0.1,0.2-0.2,0.2c-0.1,0.1-0.2,0.2-0.3,0.2c-0.2,0.2-0.3,0.3-0.5,0.5
		c0,0,0,0.1,0.1,0.1s0.2,0,0.2-0.1c0.6-0.2,1.1-0.6,1.7-0.8c0.5-0.2,0.4-0.7-0.1-1c-0.5-0.2-1.1-0.2-1.5,0.3
		c-0.2,0.2-0.3,0.3-0.6,0.5C47.7,72.1,47.6,72.1,47.5,72.2z M49.2,68.2L49.2,68.2c-0.2,0-0.4,0.1-0.6,0.2c-0.6,0.5-1.2,1-1.8,1.5
		c-0.2,0.2-0.2,0.3-0.4,0.6c-0.1,0.2,0,0.2,0.2,0.2c0.6-0.2,1-0.2,1.4-0.6c0.2-0.4,0.6-0.8,0.8-1.1C49,68.6,49.1,68.3,49.2,68.2z
		 M46.4,67.7C46.4,67.6,46.4,67.6,46.4,67.7c0-0.2-0.1-0.3-0.1-0.4c-0.1,0.1-0.2,0.1-0.3,0.2l-0.1,0.1c-0.4,0.4-0.9,0.8-1.5,1
		c0,0-0.1,0-0.2,0.1c0.2,0,0.2,0,0.2,0c0.5,0,0.9-0.1,1.3,0.2c0,0,0.2,0,0.2-0.1c0.2-0.2,0.6-0.4,0.8-0.6c0.2-0.2,0.3-0.3,0.5-0.6
		l-0.1-0.1C47,67.5,46.7,67.5,46.4,67.7z M46.9,71.7C47,71.7,47,71.7,46.9,71.7c0.2,0,0.3,0,0.4-0.1c0.3-0.2,0.6-0.4,1-0.6
		c0.4-0.2,0.6-0.5,0.7-0.9c0-0.1,0-0.2,0-0.2c-0.1,0-0.2,0-0.2,0c-0.1,0-0.2,0.1-0.2,0.1c-0.5,0.4-1,0.9-1.5,1.3
		C47,71.5,47,71.7,46.9,71.7z M74,58.6c-0.4-0.3-2.3,0.3-2.4,0.6C72.1,59.6,73.6,59.1,74,58.6z M48.3,67.4L48.3,67.4
		c-0.9,0.6-1.5,1.3-1.9,2.3l0.1,0.1C47.1,69,47.8,68.2,48.3,67.4z M63.6,61.7c0-0.1,0-0.1,0-0.2c-0.4-0.2-0.9-0.4-1.4-0.2
		c-0.1,0-0.2,0.2-0.2,0.2c0.1,0.1,0.2,0.2,0.3,0.2C62.6,61.7,63.1,61.7,63.6,61.7z M52.8,69.4c-0.2,0.1-0.3,0.1-0.4,0.2
		c0,0,0.1,0.2,0.2,0.3c0.1,0.1,0.2,0.1,0.3,0c0.2-0.1,0.2-0.2,0.4-0.2C53.2,69.6,53,69.5,52.8,69.4z M45.3,66.5
		c-0.2,0.1-0.3,0.2-0.4,0.3c0,0.1,0.2,0.3,0.2,0.3c0.2-0.1,0.3-0.2,0.5-0.3C45.6,66.7,45.4,66.6,45.3,66.5z M69.6,59.9
		c-0.4-0.1-0.9,0.2-1,0.4C69.2,60.4,69.5,60.2,69.6,59.9z M53,60.8c0.4,0.4,0.9,0.5,1.5,0.7C54,61.1,53.6,60.8,53,60.8z M49.8,69.8
		L49.8,69.8c0.5,0.2,0.7,0.1,0.9-0.3C50.3,69.6,50.1,69.7,49.8,69.8z M52.6,61.2c0.2,0.3,0.8,0.5,1.1,0.4
		C53.3,61.5,53,61.3,52.6,61.2z M52.2,71c-0.2-0.2-0.6-0.2-0.8-0.1C51.7,71.2,51.9,71.2,52.2,71z M65.7,61.2L65.7,61.2
		c0.2,0.4,0.3,0.4,0.7,0.2C66.1,61.3,65.9,61.2,65.7,61.2z M51.6,64.9L51.6,64.9c0.2,0.2,0.6,0.2,0.8,0.2c0-0.1,0-0.1,0-0.2
		C52.1,65,51.9,65,51.6,64.9z M48.9,62.1L48.9,62.1c0.3,0.1,0.6,0,0.9,0V62C49.5,61.9,49.1,62,48.9,62.1z M58.8,68.8
		c0.2,0,0.3-0.1,0.6-0.1C59.1,68.4,59,68.5,58.8,68.8z M49.9,70.7C49.9,70.7,49.9,70.8,49.9,70.7c0.2-0.1,0.2-0.2,0.2-0.2
		c0-0.1-0.2-0.2-0.2-0.2s-0.1,0-0.1,0.1C49.8,70.5,49.8,70.6,49.9,70.7z"/>
	<path class="st0" d="M55.7,67.4c-0.2,0.1-0.3,0.2-0.5,0.2c-0.2,0.2-0.2,0.2-0.1,0.6c0.2,0.4,0.2,0.5-0.2,0.6
		c-0.3,0.2-0.7,0.2-1.1,0.2c-0.8,0.1-1.7,0.2-2.5,0c-0.2,0-0.2-0.1-0.4-0.2c1-0.1,1.9-0.2,2.8-0.6c0,0,0.1-0.1,0.2-0.1
		c-0.8-0.1-1.6,0.2-2.3,0.2v-0.1c0.1-0.1,0.2-0.2,0.2-0.2c0.8-0.6,1.7-0.9,2.7-1.2c0.4-0.2,0.4-0.1,0.5,0.2c0,0.1,0.2,0.2,0.2,0.2
		C55.3,67.4,55.5,67.4,55.7,67.4z"/>
	<path class="st0" d="M53.3,63.3c0.1-0.5,0.2-0.6,0.6-0.4c0.2,0.1,0.5,0.2,0.6,0.2c0.2,0.1,0.4,0.1,0.6-0.2c0.3,0.2,0.6,0.4,1,0.6
		c0.2,0.1,0.2,0.3-0.1,0.4c-0.6,0.1-1.1,0.5-1.8,0.4c-0.7-0.1-1.5-0.2-2-0.7c-0.1-0.1-0.2-0.2-0.2-0.3c0.1-0.1,0.2-0.1,0.3-0.1
		C52.8,63.3,53,63.3,53.3,63.3z"/>
	<path class="st0" d="M46.3,60c-0.3-0.6-1.1-0.6-1.5-1.3c0.2,0,0.2,0,0.2,0.1c0.6,0.2,1.3,0.6,1.9,1.1c0.2,0.2,0.4,0.4,0.3,0.6
		c-0.2,0.2-0.5,0.3-0.7,0.2c-1-0.2-1.8-0.6-2.4-1.3C44,59.5,44,59.4,44,59.3c0-0.1,0.2-0.1,0.2-0.1c0.2,0.1,0.5,0.1,0.7,0.2
		c0.4,0.2,0.7,0.4,1,0.6C46.1,60,46.2,60,46.3,60z"/>
	<path class="st0" d="M47.5,72.2c0.1-0.1,0.2-0.2,0.2-0.2c0.2-0.2,0.4-0.3,0.6-0.5c0.4-0.5,1-0.6,1.5-0.3c0.5,0.2,0.5,0.7,0.1,1
		c-0.6,0.3-1.1,0.6-1.7,0.8c-0.1,0-0.2,0.1-0.2,0.1c0,0,0-0.1-0.1-0.1c0.2-0.2,0.3-0.3,0.5-0.5c0.1-0.1,0.2-0.2,0.3-0.2
		c0.1-0.1,0.1-0.2,0.2-0.2c-0.1,0-0.2-0.1-0.3-0.1c-0.2,0.1-0.4,0.2-0.6,0.2C47.8,72.1,47.7,72.2,47.5,72.2L47.5,72.2z"/>
	<path class="st0" d="M49.2,68.2c-0.2,0.2-0.2,0.4-0.4,0.6c-0.2,0.4-0.6,0.7-0.8,1.1c-0.3,0.5-0.8,0.5-1.3,0.6
		c-0.2,0-0.2-0.1-0.2-0.2c0.1-0.2,0.2-0.4,0.4-0.6c0.6-0.5,1.1-1,1.8-1.5c0.2-0.1,0.3-0.2,0.5-0.2C49.2,68.1,49.2,68.1,49.2,68.2z"
		/>
	<path class="st0" d="M46.4,67.7c0.3-0.2,0.6-0.2,0.9-0.4l0.1,0.1c-0.2,0.2-0.3,0.4-0.5,0.6c-0.2,0.2-0.6,0.5-0.8,0.6
		c-0.1,0-0.2,0.1-0.2,0.1c-0.4-0.2-0.9-0.2-1.3-0.2c-0.1,0-0.2,0-0.2,0c0.1,0,0.1-0.1,0.2-0.1c0.6-0.1,1-0.5,1.5-1l0.1-0.1
		c0.1-0.1,0.2-0.1,0.3-0.2c0,0.1,0.1,0.2,0.1,0.3C46.4,67.6,46.4,67.7,46.4,67.7z"/>
	<path class="st0" d="M46.9,71.7c0.1-0.1,0.1-0.2,0.2-0.3c0.5-0.4,1-0.9,1.5-1.3c0.1-0.1,0.2-0.1,0.2-0.1c0.1,0,0.2,0,0.2,0
		c0,0.1,0,0.2,0,0.2c-0.2,0.4-0.3,0.7-0.7,0.9c-0.3,0.2-0.6,0.4-1,0.6C47.2,71.7,47.1,71.7,46.9,71.7C47,71.7,47,71.7,46.9,71.7z"/>
	<path class="st0" d="M74,58.6c-0.4,0.5-1.9,1-2.4,0.6C71.8,58.8,73.6,58.2,74,58.6z"/>
	<path class="st0" d="M48.3,67.4c-0.6,0.8-1.2,1.6-1.9,2.3l-0.1-0.1c0.3-1,1-1.7,1.8-2.4C48.2,67.4,48.3,67.4,48.3,67.4z"/>
	<path class="st0" d="M63.6,61.7c-0.5,0-0.9,0.1-1.4,0.1c-0.1,0-0.2-0.1-0.3-0.2c0.1-0.1,0.2-0.2,0.2-0.2
		C62.6,61.2,63.1,61.2,63.6,61.7C63.6,61.6,63.6,61.7,63.6,61.7z"/>
	<path class="st0" d="M52.8,69.4c0.2,0.1,0.3,0.2,0.5,0.2c-0.2,0.1-0.2,0.2-0.4,0.2c-0.1,0.1-0.2,0.1-0.3,0
		c-0.1-0.1-0.2-0.2-0.2-0.3C52.5,69.6,52.7,69.5,52.8,69.4z"/>
	<path class="st0" d="M45.3,66.5c0.2,0.2,0.2,0.2,0.4,0.3c-0.2,0.1-0.3,0.2-0.5,0.3c0,0-0.2-0.2-0.2-0.3
		C44.9,66.7,45.2,66.6,45.3,66.5z"/>
	<path class="st0" d="M69.6,59.9c-0.1,0.4-0.4,0.6-1,0.4C68.7,60,69.2,59.8,69.6,59.9z"/>
	<path class="st0" d="M53,60.8c0.6,0.1,1,0.3,1.5,0.7C53.9,61.2,53.3,61.2,53,60.8z"/>
	<path class="st0" d="M49.8,69.8c0.2-0.1,0.6-0.2,0.9-0.3C50.5,69.9,50.3,70,49.8,69.8C49.8,69.9,49.8,69.9,49.8,69.8z"/>
	<path class="st0" d="M52.6,61.2c0.4,0.2,0.7,0.2,1.1,0.4C53.4,61.7,52.8,61.6,52.6,61.2z"/>
	<path class="st0" d="M52.2,71c-0.3,0.2-0.4,0.2-0.8-0.1C51.6,70.8,51.9,70.8,52.2,71z"/>
	<path class="st0" d="M65.7,61.2c0.2,0.1,0.5,0.2,0.6,0.2c-0.3,0.2-0.5,0.2-0.7-0.1C65.7,61.2,65.7,61.2,65.7,61.2z"/>
	<path class="st0" d="M51.6,64.9c0.2,0.1,0.6,0.1,0.8,0.2c0,0.1,0,0.1,0,0.2c-0.2-0.1-0.6-0.2-0.8-0.2C51.6,65,51.6,65,51.6,64.9z"
		/>
	<path class="st0" d="M48.9,62.1c0.3-0.1,0.6-0.1,0.9-0.2V62C49.5,62,49.2,62.1,48.9,62.1L48.9,62.1z"/>
	<path class="st0" d="M58.8,68.8c0.1-0.3,0.2-0.4,0.6-0.1C59.1,68.7,59,68.7,58.8,68.8z"/>
	<path class="st0" d="M49.9,70.7c0-0.1-0.1-0.2-0.1-0.3c0,0,0.1,0,0.1-0.1c0.1,0.1,0.2,0.1,0.2,0.2C50.1,70.6,49.9,70.7,49.9,70.7
		C49.9,70.8,49.9,70.7,49.9,70.7z"/>
	<path class="st0" d="M37.9,71.3c-0.1-0.1-0.2-0.2-0.4-0.4c-0.2-0.2-0.1-0.5,0.1-0.7c0.3-0.4,0.8-0.6,1.4-0.7c0.1,0,0.2,0.1,0.3,0.1
		c0,0.1,0,0.2-0.1,0.3c-0.2,0.2-0.4,0.4-0.6,0.6C38.4,70.7,38.2,71,37.9,71.3z"/>
	<path class="st0" d="M37.7,59.3c0.5,0.1,0.6,0.3,0.5,0.7c-0.4,0.9-0.3,0.8-1.2,0.4c-0.5-0.2-0.5-0.6,0-0.9
		C37.2,59.5,37.4,59.4,37.7,59.3z"/>
	<path class="st0" d="M37,67.2c-0.5-0.6-0.2-3.1,0.5-3.7c0,0.1,0.1,0.2,0.1,0.2c0,0.3,0,0.6,0,1c0,0.1,0,0.2-0.1,0.2
		C37,65.3,37,65.8,37,66.2c0,0.2,0,0.6,0,0.8C37,67.1,37,67.2,37,67.2z"/>
	<path class="st0" d="M38,68.7c-0.1,0.3-0.1,0.7-0.6,0.9c-0.2,0.1-0.4,0.1-0.5-0.2c-0.1-0.3,0.4-1,0.7-1C37.9,68.3,38,68.4,38,68.7z
		"/>
	<path class="st0" d="M38.5,58.9c-0.1,0-0.2,0.1-0.3,0c-0.3-0.3-0.6-0.6-0.6-1.1c0-0.1,0-0.2,0.1-0.2c0-0.1,0.1-0.1,0.2-0.1
		c0,0,0.1,0.1,0.2,0.2c0,0.2,0.1,0.5,0.1,0.7c0,0.2,0,0.3,0.2,0.4C38.4,58.7,38.5,58.8,38.5,58.9C38.5,58.9,38.5,58.9,38.5,58.9z"/>
	<path class="st0" d="M36.7,70.3c0.3,0.2,0.4,0.3,0.2,0.6C36.8,70.7,36.8,70.5,36.7,70.3z"/>
	<path class="st0" d="M37.3,67.7c-0.2,0.2-0.3,0.2-0.4-0.3C37.1,67.5,37.2,67.5,37.3,67.7z"/>
</g>
</svg>
