<?xml version="1.0" encoding="utf-8"?>
<!-- Generator: Adobe Illustrator 21.0.0, SVG Export Plug-In . SVG Version: 6.00 Build 0)  -->
<svg version="1.1" id="Capa_1" xmlns="http://www.w3.org/2000/svg" xmlns:xlink="http://www.w3.org/1999/xlink" x="0px" y="0px"
	 viewBox="0 0 115 107" style="enable-background:new 0 0 115 107;" xml:space="preserve">
<style type="text/css">
	.st0{fill:#666666;}
</style>
<title>tech-icon1</title>
<g>
	<path class="st0" d="M59.2,80.4c-1.5,0-3,0-4.4,0c-0.3-0.1-0.5-0.2-0.9-0.2c-2.4-0.2-4.7-0.8-6.9-1.8C41.3,76,37,72.2,34,67
		c-1.5-2.6-2.5-5.4-3-8.3c-0.2-0.8-0.3-1.5-0.5-2.4c0-1.5,0-3,0-4.4c0.1-0.3,0.2-0.5,0.2-0.9c0.3-2.8,1.1-5.4,2.4-8.1
		c1.8-4,4.6-7.2,8.2-9.9c3.9-3,8.3-4.6,13.2-5.2c4.5-0.5,8.9,0.3,13,2.1c4.9,2.1,8.9,5.3,11.7,9.9c1.8,3,3.2,6.2,3.8,9.6
		c0.2,0.7,0.3,1.5,0.5,2.4c0,1.5,0,3,0,4.5c-0.1,0.3-0.2,0.5-0.2,0.8c-0.3,2.8-1.1,5.4-2.3,8c-2.4,5.1-6.1,9.1-11,11.8
		c-2.6,1.5-5.4,2.5-8.3,3C60.7,80.1,59.9,80.3,59.2,80.4z M63.5,66.2c-0.2-0.1-0.3-0.1-0.4-0.2c-1.3-0.3-2.4-0.5-3.6-0.8
		c-3.1-1-6.1-2.2-9.2-3.4c-1.8-0.7-3.8-1.2-5.7-1.3c-3.3-0.3-6.3,0.5-9.2,1.5c-0.4,0.2-0.5,0.3-0.3,0.6c1,2.3,2.4,4.4,3.9,6.2
		c0.2,0.2,0.3,0.3,0.5,0.4c0.5,0.2,1.1,0.4,1.5,0.5c2.3,0.5,4.5,0.8,6.9,0.7c2.5-0.1,5-0.5,7.4-1.4c1.5-0.5,3.1-1.3,4.6-1.8
		C61.1,67.1,62.3,66.7,63.5,66.2z M60.4,56c-0.2-0.2-0.4-0.2-0.5-0.3c-3.2-1.3-6.3-2.5-9.4-3.8c-1.6-0.6-3.4-0.9-5.1-1
		c-2.3-0.1-4.4,0.3-6.6,0.8c-1.8,0.5-3.4,1.2-4.9,2.4c-0.2,0.2-0.5,0.5-0.4,0.5c0.2,1.5,0.4,2.8,0.5,4.3c0.1,0.5,0.4,0.5,0.7,0.4
		c2.7-1.2,5.6-1.7,8.5-1.7c3,0,6,0.7,8.8,1.7c0.5,0.2,1,0.5,1.4,0.3C55.8,58.4,58,57.3,60.4,56z M44.7,74c5.3,3.3,11,4.4,17,3.1
		c5.7-1.3,10.5-4.4,14-9.2c-0.2-0.1-0.5-0.2-0.6-0.2c-1.9,0.2-3.8,0.1-5.7,0.5c-1.8,0.3-3.6,0.7-5.3,1.3c-2.6,0.9-5.2,2.1-7.7,3
		c-2.4,0.9-5,1.5-7.7,1.5C47.4,74,46.1,74,44.7,74z M38,40.3C38,40.4,38,40.4,38,40.3c0.3,0,0.5,0,0.5-0.1c1.5-0.4,3-0.8,4.5-1.1
		c4.2-0.7,8.3-0.2,12.4,0.5c1.8,0.3,3.5,0.6,5.3,0.8c3.5,0.5,6.9,0,10.2-1.2c1-0.4,2-0.8,3.1-1.3c-0.4-0.5-0.5-0.7-0.9-1
		C71.8,36,70.4,35,69,33.9c-0.6-0.5-1.3-0.9-2-1c-1.9-0.2-3.9,0-5.7,0.6c-2.4,0.7-4.6,1.7-6.9,2.6c-2.6,1.1-5.4,2-8.3,2.1
		c-1.9,0.1-3.8-0.1-5.6-0.5c-0.2,0-0.4-0.1-0.5,0.1C39.3,38.7,38.6,39.6,38,40.3z M64.9,43.6c0-0.1,0-0.1,0-0.2
		c-0.2,0-0.4-0.1-0.5-0.1c-3.6,0.1-7.2-0.6-10.7-1.2c-3.2-0.5-6.3-0.9-9.6-0.5c-3,0.5-5.7,1.3-8.3,2.6c-0.2,0.2-0.5,0.4-0.5,0.6
		c-0.4,0.8-0.5,1.7-0.8,2.5c-0.2,0.5,0,0.5,0.3,0.7c0.7,0.3,1.5,0.6,2.1,0.9c0.2,0.1,0.4,0.1,0.5,0c1.3-0.3,2.6-0.7,3.9-0.9
		c2.3-0.5,4.6-0.4,6.9,0c0.5,0.1,1.1,0.3,1.5,0.2c0.5-0.1,1.1-0.3,1.5-0.5c2.2-0.9,4.4-1.8,6.5-2.6c2.1-0.8,4.2-1.5,6.4-1.5
		C64.5,43.8,64.7,43.7,64.9,43.6z M57.4,61.2c0.1,0.1,0.1,0.2,0.1,0.2c2.7,1.1,5.5,1.8,8.5,2.1c2.3,0.2,4.5-0.1,6.7-0.6
		c2.4-0.6,4.6-1.5,6.7-2.9c0.2-0.2,0.4-0.4,0.5-0.5c0.2-1,0.4-2.1,0.5-3.2c0.1-0.5-0.2-0.6-0.5-0.7c-0.7-0.2-1.5-0.4-2.3-0.5
		c-3.8-0.5-7.5-0.1-11.1,1.5c-2.4,1.1-4.6,2.4-7,3.5C58.7,60.4,58.1,60.8,57.4,61.2z M80.2,52.5c-0.2-0.8,0-1.5-0.7-2.1
		c-3.8-2.6-8-3.8-12.6-3.8c-2.3,0-4.4,0.2-6.6,1c-1.8,0.6-3.5,1.4-5.3,2.1c-0.5,0.2-0.7,0.4-1.3,0.5c0.2,0.2,0.3,0.2,0.5,0.3
		c0.7,0.3,1.5,0.5,2.2,0.9c2.1,0.9,4.3,1.8,6.3,2.6c0.5,0.2,1,0.5,1.5,0.3c0.8-0.4,1.7-0.7,2.5-1c3.5-1.4,7.2-1.6,10.8-1.2
		C78.3,52.2,79.2,52.3,80.2,52.5z M59.7,31.2c-3.7-0.7-7.2-0.2-10.6,1C47,32.9,45,34,43.2,35.4c0.4,0.2,0.7,0.2,1.1,0.2
		c2.7,0.2,5.3-0.5,7.8-1.5c2.2-0.8,4.4-1.7,6.5-2.5C59,31.4,59.3,31.2,59.7,31.2z M66.3,43.5c4.4,0.1,8.7,0.9,12.7,3.2
		c-0.5-2.4-1.7-4.3-3-6.1C73,42.1,69.9,43.2,66.3,43.5z M76.7,64.5c0,0.1,0,0.2,0,0.2c0.4,0,0.7,0.2,0.9,0.1
		c0.2-0.1,0.4-0.5,0.5-0.7c-0.1,0-0.1-0.1-0.2-0.1C77.6,64.2,77.2,64.3,76.7,64.5z"/>
</g>
</svg>
