<?xml version="1.0" encoding="utf-8"?>
<!-- Generator: Adobe Illustrator 21.0.0, SVG Export Plug-In . SVG Version: 6.00 Build 0)  -->
<svg version="1.1" id="Capa_1" xmlns="http://www.w3.org/2000/svg" xmlns:xlink="http://www.w3.org/1999/xlink" x="0px" y="0px"
	 viewBox="0 0 115 107" style="enable-background:new 0 0 115 107;" xml:space="preserve">
<style type="text/css">
	.st0{fill:#666666;}
</style>
<title>tech-icon1</title>
<g>
	<path class="st0" d="M47.2,42.2L35.9,53.5l11.3,11.3c1.2,1.2,1.2,3.3,0,4.6c-0.6,0.6-1.5,0.9-2.3,0.9c-0.8,0-1.7-0.3-2.3-0.9
		L29,55.8c-0.6-0.6-0.9-1.5-0.9-2.3c0-0.8,0.3-1.7,0.9-2.3l13.7-13.7c1.2-1.2,3.3-1.2,4.6,0C48.5,38.8,48.5,40.8,47.2,42.2z
		 M84,51.2L70.4,37.5c-1.2-1.2-3.3-1.2-4.6,0c-1.2,1.2-1.2,3.3,0,4.6l11.3,11.3L65.8,64.8c-1.2,1.2-1.2,3.3,0,4.6
		c0.6,0.6,1.5,0.9,2.3,0.9c0.8,0,1.7-0.3,2.3-0.9L84,55.8c0.6-0.6,0.9-1.5,0.9-2.3C85,52.6,84.7,51.8,84,51.2z M62.2,31.3
		c-1.8-0.5-3.5,0.6-3.9,2.3l-9.8,38.2c-0.5,1.8,0.6,3.5,2.3,3.9c0.3,0.1,0.5,0.1,0.8,0.1c1.5,0,2.8-1,3.2-2.5l9.7-38.2
		C65,33.4,63.9,31.7,62.2,31.3z"/>
</g>
</svg>
