<?xml version="1.0" encoding="utf-8"?>
<!-- Generator: Adobe Illustrator 21.0.0, SVG Export Plug-In . SVG Version: 6.00 Build 0)  -->
<svg version="1.1" id="Capa_1" xmlns="http://www.w3.org/2000/svg" xmlns:xlink="http://www.w3.org/1999/xlink" x="0px" y="0px"
	 viewBox="0 0 115 107" style="enable-background:new 0 0 115 107;" xml:space="preserve">
<style type="text/css">
	.st0{fill:#666666;}
</style>
<title>tech-icon1</title>
<g>
	<path class="st0" d="M53.6,52.2c-1.6-1.6-3.1-3.2-4.7-4.8c1.7-1.7,3.4-3.4,5.2-5.2c1.7-1.7,3.4-3.4,5.1-5.1c2.9-2.9,6.4-4,10.3-3.1
		c0.2,0,0.3,0,0.5,0.1c0.4-2.1,1.5-3.7,3.4-4.7c1.3-0.7,2.7-0.9,4.1-0.6c3,0.5,5.1,2.9,5.3,5.9c0.2,3.3-1.7,5.6-5.5,6.9
		c0.9,4.1,0,7.7-3.1,10.7c-1.6-1.6-3.1-3.1-4.7-4.7c0.4-0.7,0.9-1.4,1.1-2.1c0.5-1.6-0.2-3.4-1.5-4.4c-1.5-0.9-3.4-0.9-4.7,0.2
		c-1.8,1.7-3.5,3.4-5.3,5.2C57.4,48.4,55.5,50.3,53.6,52.2z"/>
	<path class="st0" d="M59.1,47.8c1.6-1.6,3.1-3.1,4.7-4.7c0.2,0.2,0.3,0.2,0.5,0.4c3.4,3.4,6.7,6.7,10.1,10.1c2.7,2.7,3.7,6,3.1,9.7
		c0,0.1,0,0.2,0,0.3c0,0.1,0,0.1,0.1,0.2c1.9,0.4,3.4,1.3,4.4,3c0.8,1.3,1.1,2.7,0.9,4.1c-0.3,2.8-2.6,5.2-5.5,5.6
		c-2.6,0.4-5.9-0.8-7.2-5.1c-4.2,1-7.9,0.2-10.9-3c1.6-1.6,3.1-3.1,4.7-4.7c0.1,0.1,0.3,0.2,0.5,0.4c1.6,1.4,4,1.4,5.4-0.2
		c1.5-1.5,1.6-3.9,0.1-5.4c-1.9-2.1-4-4-6-6C62.3,51,60.7,49.4,59.1,47.8z"/>
	<path class="st0" d="M57.9,57.7c-1.6,1.6-3.1,3.1-4.8,4.7c-0.8-0.8-1.5-1.6-2.4-2.4c-2.4-2.4-4.8-5-7.3-7.3
		c-3.4-3.1-4.6-6.9-3.5-11.4c-2.2-0.6-3.7-2-4.6-4.1c-0.5-1.3-0.5-2.7-0.2-4c0.8-2.8,3.3-4.6,6.2-4.6c2.4,0,5.5,1.5,6.4,5.4
		c4-0.7,7.4,0.2,10.3,3.1c-1.6,1.5-3.1,3.1-4.7,4.7c-0.1-0.1-0.2-0.2-0.5-0.4c-1.6-1.4-3.9-1.3-5.4,0.2c-1.5,1.5-1.6,3.8-0.2,5.4
		c1.7,1.8,3.4,3.4,5.1,5.2C54.2,54,56.1,55.9,57.9,57.7z"/>
	<path class="st0" d="M47.6,71.6c-1.8,3.8-4.2,5.4-7.3,4.8c-2.9-0.5-5.1-2.8-5.4-5.6c-0.3-3.2,1.3-5.6,4.9-7
		c-0.8-4.1,0.2-7.5,3.1-10.4c1.6,1.6,3.1,3.1,4.7,4.7c-0.2,0.2-0.3,0.4-0.5,0.7c-1.2,1.6-1.1,3.8,0.3,5.2c1.5,1.5,3.7,1.6,5.3,0.2
		c1.5-1.4,3-2.9,4.5-4.4c2-2,4-4,6-6c0.2-0.2,0.3-0.3,0.5-0.5c1.6,1.6,3.1,3.1,4.7,4.7c-0.1,0.1-0.2,0.2-0.4,0.4
		c-3.2,3.2-6.5,6.4-9.6,9.7c-2.8,2.9-6.2,4.1-10.3,3.4C47.8,71.6,47.7,71.6,47.6,71.6z"/>
</g>
</svg>
