<?xml version="1.0" encoding="utf-8"?>
<!-- Generator: Adobe Illustrator 21.0.0, SVG Export Plug-In . SVG Version: 6.00 Build 0)  -->
<svg version="1.1" id="Capa_1" xmlns="http://www.w3.org/2000/svg" xmlns:xlink="http://www.w3.org/1999/xlink" x="0px" y="0px"
	 viewBox="0 0 115 107" style="enable-background:new 0 0 115 107;" xml:space="preserve">
<style type="text/css">
	.st0{fill:#666666;}
</style>
<title>tech-icon1</title>
<g>
	<path class="st0" d="M72.4,45.4c-2.2,1.2-4.2,2.4-6.3,3.6c-2.5,1.4-4.9,2.8-7.4,4.2c-0.9,0.5-1.7,0.5-2.6-0.1
		c-0.8-0.5-1.5-0.5-2.3,0c-1,0.6-1.9,1-2.9,1.6c-0.7,0.4-1.4,0.4-2.1-0.1c-0.6-0.5-0.6-0.9,0-1.3c0.7-0.5,1.4-0.9,2.2-1.3
		c0.9-0.5,1-1,0.2-1.8c-0.6-0.6-0.6-0.9,0.2-1.4c0.7-0.5,1.5-0.9,2.2-1.3c0.6-0.4,0.7-1,0.2-1.5c-0.6-0.7-0.6-1,0.2-1.5
		c2.5-1.4,5-2.9,7.4-4.2c3-1.7,5.9-3.4,8.9-5.1c1.4-0.8,2.7-0.8,4.1,0c1.8,1,3.7,2.2,5.6,3.2c1.7,0.9,2.3,2.3,2.3,4.2
		c0,4.2,0,8.2,0,12.4c0,3.6,0,7.3,0,10.9c0,1.8-0.7,3-2.3,3.9c-1.8,1-3.7,2.1-5.4,3.1c-5.1,3-10.2,5.9-15.3,8.8
		c-1.1,0.6-2.4,0.7-3.5,0c-4.2-2.5-8.5-4.9-12.7-7.4c-2.7-1.5-5.4-3.1-8.1-4.6c-1.4-0.8-2.2-2-2.2-3.6c0-8,0-16,0-24
		c0-1.5,0.7-2.7,2.1-3.5c7-4,14-8.1,20.9-12.1c1.4-0.8,1.8-0.6,1.8,1c0,2.6,0,5.1,0,7.6c0,1.1-0.4,1.8-1.4,2.4
		c-4.2,2.3-8.2,4.7-12.3,7c-0.8,0.5-1.3,1.1-1.2,2.2c0.1,4.9,0,9.8,0,14.6c0,0.9,0.3,1.5,1.1,2c4.2,2.5,8.5,5,12.7,7.4
		c0.8,0.5,1.6,0.5,2.4,0c3.4-2,7-4,10.4-6c0.8-0.5,1.6-0.9,2.3-1.4c0.6-0.4,1-0.9,1-1.6c0-5.3,0-10.5,0-15.7
		C72.5,45.8,72.5,45.7,72.4,45.4z"/>
</g>
</svg>
