<?xml version="1.0" encoding="utf-8"?>
<!-- Generator: Adobe Illustrator 21.0.0, SVG Export Plug-In . SVG Version: 6.00 Build 0)  -->
<svg version="1.1" id="Capa_1" xmlns="http://www.w3.org/2000/svg" xmlns:xlink="http://www.w3.org/1999/xlink" x="0px" y="0px"
	 viewBox="0 0 115 107" style="enable-background:new 0 0 115 107;" xml:space="preserve">
<style type="text/css">
	.st0{fill:#666666;}
</style>
<title>tech-icon1</title>
<g>
	<path class="st0" d="M55.5,23.5c0.2,0.2,0.4,0.4,0.5,0.6c0.8,1,1.7,1.9,2.5,2.8c1.6,1.8,3.5,3.2,5.6,4.2c2.1,1,4.2,1.9,6.1,3.3
		c6.1,4.4,9.9,10.4,11.1,17.9c0.8,4.8,0.3,9.5-1.7,14C76.5,72.9,71.2,77,64,78.9c-10.6,2.8-21.8-1.7-27.5-11.2
		c-2.7-4.5-3.7-9.4-3-14.6c1-8.2,5.2-14.3,11.8-18.9c1-0.7,2.2-1.2,3.3-1.8c1.2-0.7,2.4-1.4,3.5-2.2c2.1-1.3,2.9-3.4,3.3-5.8
		C55.4,24.1,55.4,23.8,55.5,23.5z M43.8,65c0.1,2.1,1.1,3.9,3.4,4.9c1.6,0.7,3.3,0.9,4.9,0.6c2.1-0.4,3.9-1.2,5.7-2.2
		c2.2-1.2,4.4-2.5,6.5-3.7c1.5-0.9,2.9-0.6,4.1,0.6c1,1,2,1.9,2.9,2.9c0.7,0.6,1.3,1.3,2.1,1.9c0.7,0.6,1.5,0.6,2.2,0.2
		c0.6-0.4,1.3-0.9,1.8-1.5c1.3-1.7,2-3.7,2.2-5.8c0.2-1.3,0.2-2.7-0.5-4c-0.7-1.6-2.3-2.2-3.9-1.6c-0.6,0.2-1,0.5-1.5,0.8
		c-1.7,1-3.3,2.1-4.8,3.2c-2,1.4-3.9,1.3-5.9-0.2c-1.3-1-2.8-1.9-4.2-2.9c-2.5-1.5-5-2.4-7.9-1.9C47,56.8,43.8,60.5,43.8,65z
		 M62,77.2c0.6-0.1,1.5-0.1,2.5-0.2c1.7-0.2,3.3-0.7,4.6-1.6c0.4-0.2,0.7-0.6,1-1c0.1-0.2,0-0.5-0.2-0.6c-0.1-0.1-0.4-0.1-0.6,0.1
		c-1.7,1.1-3.7,1.6-5.8,1.7c-2.6,0.2-5.1-0.2-7.4-1.5c-0.5-0.2-0.8,0-1,0.3c-0.3,0.3-0.3,0.8,0.1,1c0.5,0.4,1,0.8,1.7,1
		C58.3,76.9,60,77.1,62,77.2z M65.2,67.7c-2-0.1-3.4,0.8-4.8,2.1c-0.2,0.2-0.3,0.4-0.3,0.6c0,0.2,0,0.6,0.2,0.8c0,0.1,0.5,0,0.7-0.2
		c0.6-0.4,1-0.8,1.5-1.2c1-0.8,2.2-0.8,3.4-0.6c1,0.2,1.4,0.8,1.8,1.7c0.2,0.4,0.5,0.4,0.7,0.2c0.2-0.2,0.3-0.6,0.3-0.9
		c-0.2-1.2-1.2-2.2-2.4-2.4C66.1,67.8,65.6,67.8,65.2,67.7z"/>
</g>
</svg>
