<?xml version="1.0" encoding="utf-8"?>
<!-- Generator: Adobe Illustrator 21.0.0, SVG Export Plug-In . SVG Version: 6.00 Build 0)  -->
<svg version="1.1" id="Capa_1" xmlns="http://www.w3.org/2000/svg" xmlns:xlink="http://www.w3.org/1999/xlink" x="0px" y="0px"
	 viewBox="0 0 115 107" style="enable-background:new 0 0 115 107;" xml:space="preserve">
<style type="text/css">
	.st0{fill:#666666;}
</style>
<title>tech-icon1</title>
<g>
	<path class="st0" d="M75.2,73.9c0-0.4,0-0.6,0-0.9c0-8.4,0-16.9,0-25.4c0-0.6-0.1-0.9-0.7-1.2c-5.5-3.4-11-6.8-16.5-10.3
		c-0.4-0.3-0.7-0.2-1.2,0c-5.5,3.4-11,6.9-16.6,10.3c-0.4,0.3-0.7,0.6-0.7,1.2c0,8.4,0,16.9,0,25.4c0,0.2,0,0.5,0,0.8
		c-0.2-0.1-0.4-0.1-0.5-0.2c-1.8-1-3.6-2.1-5.3-3.2c-0.4-0.2-0.5-0.4-0.5-0.9c0-8.6,0-17.2,0-25.8c0-0.4,0.1-0.6,0.4-0.8
		c7.8-4.7,15.5-9.5,23.2-14.3c0.4-0.2,0.6-0.2,1,0c7.7,4.7,15.4,9.5,23.1,14.3c0.4,0.2,0.5,0.4,0.5,1c0,8.6,0,17.2,0,25.7
		c0,0.3-0.1,0.7-0.4,0.8c-1.8,1.2-3.7,2.3-5.5,3.4C75.5,73.9,75.4,73.9,75.2,73.9z"/>
	<path class="st0" d="M53.8,45.7c0,0.4,0,0.6,0,0.9c0,9.9,0,19.8,0,29.7c0,0.6,0.1,1,0.7,1.3c0.8,0.4,1.6,1,2.4,1.5
		c0.4,0.2,0.6,0.2,1,0c0.8-0.5,1.6-1.1,2.5-1.6c0.4-0.2,0.6-0.6,0.6-1c0-4.2,0-8.5,0-12.7c0-5.7,0-11.4,0-17.1c0-0.3,0-0.5,0-1
		c0.2,0.1,0.4,0.2,0.6,0.3c2.2,1.4,4.5,2.8,6.7,4.1c0.4,0.2,0.5,0.4,0.5,0.9c0,8.8,0,17.6,0,26.4c0,0.3-0.2,0.7-0.4,0.8
		c-3.5,2.2-7,4.4-10.4,6.5c-0.4,0.2-0.6,0.2-1,0c-3.5-2.1-7-4.4-10.4-6.5c-0.2-0.1-0.4-0.5-0.4-0.8c0-8.8,0-17.6,0-26.4
		c0-0.3,0.1-0.7,0.4-0.8c2.3-1.5,4.7-2.9,7-4.4C53.5,45.8,53.7,45.8,53.8,45.7z"/>
</g>
</svg>
