<?xml version="1.0" encoding="utf-8"?>
<!-- Generator: Adobe Illustrator 21.0.0, SVG Export Plug-In . SVG Version: 6.00 Build 0)  -->
<svg version="1.1" id="Capa_1" xmlns="http://www.w3.org/2000/svg" xmlns:xlink="http://www.w3.org/1999/xlink" x="0px" y="0px"
	 viewBox="0 0 115 107" style="enable-background:new 0 0 115 107;" xml:space="preserve">
<style type="text/css">
	.st0{fill:#666666;}
</style>
<title>tech-icon1</title>
<g>
	<path class="st0" d="M83.7,64.6c0-0.1-0.1-0.2-0.1-0.3c-0.1-1.9-0.7-3.8-1.6-5.6c-2.3-4.4-6-7.9-10.9-10.4
		c-3.7-1.8-8.1-2.8-13.2-2.9c-0.4,0-0.4,0-0.5-0.2c-0.7-1.1-1.8-1.6-3.2-1.7c-2-0.1-3.8,1.4-4.2,3.4c-0.4,2,0.7,4,2.5,4.8
		c1.9,0.9,4.1,0.2,5.1-1.6c0.2-0.2,0.2-0.3,0.5-0.3c4.6,0,8.8,1.1,12.8,3.4c3.8,2.2,6.3,4.9,7.8,8.4c0.8,1.9,1.1,3.5,0.9,5.1
		c-0.8,4.5-4.5,7.6-9,7.6c-1.8,0.1-3.7-0.3-5.8-1l-0.1,0c-0.3-0.1-0.8-0.2-1.2,0.1c-0.9,0.6-1.8,1.4-2.7,2.2l-0.9,0.8l1.2,0.4
		c0.5,0.1,0.9,0.3,1.4,0.4c1.1,0.3,2.1,0.7,3.2,0.9c1.4,0.3,2.8,0.5,4.1,0.5c3,0,5.7-0.8,8.2-2.3c3.3-2.1,5.2-4.8,5.7-8.2
		c0-0.2,0.1-0.5,0.1-0.7c0.1-0.3,0.1-0.5,0.2-0.8l0-1.5L83.7,64.6z"/>
	<path class="st0" d="M67.7,63.8c0.2-0.3,0.2-0.3,0.4-0.4c1.1-0.3,2.1-1,2.6-2c0.6-1,0.7-2.1,0.4-3.2c-0.5-1.7-1.7-2.8-3.4-3
		c-1.9-0.3-3.3,0.4-4.3,2c-0.9,1.6-0.8,3.2,0.2,4.6c0.1,0.2,0.1,0.2,0,0.5c-2.9,5.8-11,11.1-17.2,11.5c-2.5,0.2-4.6-0.2-6.3-1
		c-4.1-2-5.9-7.1-3.9-11.5c1-2,2.3-3.7,3.9-5.1c0.8-0.5,0.9-1,0.8-1.4c-0.1-0.8-0.3-1.5-0.5-2.3l-0.4-1.7l-1,0.8
		c-0.6,0.4-1.1,0.8-1.5,1.3c-3.1,2.8-4.9,5.9-5.6,9.5c-0.1,0.4-0.1,0.7-0.2,1.1c-0.1,0.3-0.1,0.7-0.2,1l0,1.1c0,0.2,0.1,0.4,0.1,0.5
		c0,0.1,0,0.1,0.1,0.3c0.3,2.2,0.8,3.9,1.7,5.3c2.1,3.6,5.6,5.6,10.6,6.1c0.6,0.1,1.2,0.1,1.8,0.1c2.5,0,5.1-0.5,8.1-1.6
		C59.8,74.1,64.6,69.8,67.7,63.8z"/>
	<path class="st0" d="M45.5,62.2c0.1,0.2,0.2,0.4,0.1,0.7c-0.3,0.8-0.2,1.6-0.2,2.2c0.3,2,2.2,3.4,4.2,3.4c0.2,0,0.3,0,0.5,0
		c2.1-0.3,3.8-2.3,3.6-4.4c-0.1-2.2-1.9-4-4.2-4c-0.3,0-0.4-0.1-0.5-0.3c-2.4-4.4-3.4-9-2.9-14c0.3-3.4,1.4-6.5,3.4-9
		c2-2.6,4.8-3.8,8.4-3.7c2.5,0,4.3,1.6,5.4,2.9c1.8,2.2,2.9,4.7,3.4,7.9c0,0.5,0.2,0.9,0.6,1l0.1,0c0.9,0.3,1.9,0.6,2.9,0.9l1,0.3
		L71.2,45c0-0.2-0.1-0.4-0.1-0.7l0-0.2c0-0.1,0-0.2-0.1-0.3c0-0.2,0-0.3-0.1-0.4c-0.7-4.2-2.1-7.5-4.5-10.1
		c-4.2-4.6-9.9-5.7-15.3-2.9c-3.6,1.9-6.3,4.9-7.8,9c-1.5,4-2,8.2-1.4,12.5C42.3,55.3,43.5,58.8,45.5,62.2z"/>
</g>
</svg>
