<?xml version="1.0" encoding="utf-8"?>
<!-- Generator: Adobe Illustrator 21.0.0, SVG Export Plug-In . SVG Version: 6.00 Build 0)  -->
<svg version="1.1" id="Capa_1" xmlns="http://www.w3.org/2000/svg" xmlns:xlink="http://www.w3.org/1999/xlink" x="0px" y="0px"
	 viewBox="0 0 115 107" style="enable-background:new 0 0 115 107;" xml:space="preserve">
<style type="text/css">
	.st0{fill:#666666;}
</style>
<title>tech-icon1</title>
<path class="st0" d="M78.2,28c3,4.3,0.8,9.7-4.5,10.8c-2.2,0.4-3.4,1.5-4.5,3.3C63.8,50.9,58.3,59.7,53,68.6
	c-0.9,1.5-1.2,3.7-0.9,5.4c0.9,5.4-2.3,9.5-7.7,9.1c0.8-3.1,5.6-6.4,0.8-9.2c-4.4-2.6-5.4,2.7-7.6,4.9c-3-4-0.7-9.8,4.4-10.6
	c2.3-0.4,3.4-1.6,4.4-3.3C52,55.9,57.5,47,62.8,38c0.8-1.3,1-3.4,0.7-5.1c-1-5.3,2.9-10.2,7.8-8.8c-1,3-5.6,6.2-0.7,9.1
	C75.2,35.6,75.9,30.5,78.2,28z"/>
<path class="st0" d="M66,68.8c2.6-4.2,4.9-8.2,7.6-12c1.7-2.4,2-4.4,0-6.8c-1-1.1-1.6-2.5-2.5-4.2c1.8-1.3,3.6-2.5,5.7-3.8
	c2.2,3.5,4.3,6.7,6.3,10.2c0.4,0.7,0.1,2.2-0.3,3.1c-1.6,2.9-3.7,5.6-5.3,8.6C75,68.5,71.5,70.2,66,68.8z"/>
<path class="st0" d="M44.9,61.1c-2,1.3-3.7,2.5-5.7,3.7c-2.1-3.5-4.1-6.8-5.9-10.2c-0.4-0.7-0.2-2,0.1-2.8c2-3.7,4.3-7.2,6.4-10.8
	c2.2-4,5.9-3.4,10-3.1c-2.6,4.3-4.9,8.4-7.6,12.2c-1.6,2.3-1.9,4.1,0,6.4C43.2,57.8,43.9,59.3,44.9,61.1z"/>
</svg>
