<?xml version="1.0" encoding="utf-8"?>
<!-- Generator: Adobe Illustrator 21.0.0, SVG Export Plug-In . SVG Version: 6.00 Build 0)  -->
<svg version="1.1" id="Capa_1" xmlns="http://www.w3.org/2000/svg" xmlns:xlink="http://www.w3.org/1999/xlink" x="0px" y="0px"
	 viewBox="0 0 115 107" style="enable-background:new 0 0 115 107;" xml:space="preserve">
<style type="text/css">
	.st0{fill:#666666;}
</style>
<title>tech-icon1</title>
<g>
	<path class="st0" d="M87.8,54c0,17.3-14,31.2-31.2,31.2S25.2,71.3,25.2,54s14-31.2,31.2-31.2C73.8,22.8,87.8,36.8,87.8,54z
		 M82.2,54c0-14.2-11.5-25.6-25.6-25.6c-14.2,0-25.7,11.5-25.7,25.6c0,14.2,11.5,25.7,25.7,25.7C70.7,79.7,82.2,68.2,82.2,54z"/>
	<path class="st0" d="M66.8,33.4c-2.5,5.9-5,11.8-7.6,17.8c3.8,0.9,7.5,1.8,11.2,2.8c-8.1,7-16.1,13.8-24.1,20.7c0,0-0.1,0-0.1-0.1
		c2.5-5.9,5.1-11.8,7.6-17.8c-3.7-0.9-7.5-1.8-11.2-2.8c8-7,16.1-13.8,24.1-20.7C66.8,33.4,66.8,33.4,66.8,33.4z"/>
</g>
</svg>
