<?xml version="1.0" encoding="utf-8"?>
<!-- Generator: Adobe Illustrator 21.0.0, SVG Export Plug-In . SVG Version: 6.00 Build 0)  -->
<svg version="1.1" id="Capa_1" xmlns="http://www.w3.org/2000/svg" xmlns:xlink="http://www.w3.org/1999/xlink" x="0px" y="0px"
	 viewBox="0 0 115 107" style="enable-background:new 0 0 115 107;" xml:space="preserve">
<style type="text/css">
	.st0{fill:#666666;}
</style>
<title>tech-icon1</title>
<g>
	<g>
		<path class="st0" d="M57.2,34c-2.8,2-6.1,4.3-7.8,8.1c-3,6.6,6.2,13.7,6.6,14c0.1,0.1,0.2,0.1,0.3,0.1c0.1,0,0.3,0,0.4-0.1
			c0.2-0.2,0.3-0.5,0.1-0.6c0-0.1-3.4-6.5-3.2-11.1c0-1.6,2.3-3.5,4.6-5.4c2.2-1.7,4.6-3.7,6.1-6.1c3.2-5.1-0.4-10.2-0.4-10.2
			c-0.2-0.2-0.4-0.3-0.6-0.2c-0.2,0.1-0.4,0.4-0.3,0.5c0,0,0.7,3.4-1.2,6.8C60.9,31.4,59.2,32.6,57.2,34z"/>
		<path class="st0" d="M69.3,36.3c0.2-0.2,0.3-0.5,0.2-0.6c-0.1-0.2-0.4-0.4-0.6-0.3c-0.5,0.2-11.9,4.6-11.9,9.9
			c0,3.6,1.5,5.6,2.7,7c0.5,0.5,0.8,1,1,1.5c0.4,1.2-0.5,3.3-0.8,4c-0.1,0.2-0.1,0.5,0.1,0.6c0.1,0.1,0.2,0.1,0.4,0.1
			c0.1,0,0.2,0,0.3-0.1c0.2-0.1,4.8-3.4,4-7.3c-0.3-1.5-1-2.5-1.6-3.6c-1-1.5-1.7-2.5-0.6-4.6C63.3,40.7,69.2,36.4,69.3,36.3z"/>
	</g>
	<g>
		<path class="st0" d="M39.6,58.6c-0.2,0.5-0.1,1.2,0.3,1.6c1.3,1.7,5.6,2.6,12.3,2.6l0,0c0.9,0,1.9,0,2.8-0.1
			c10.7-0.4,14.8-3.7,14.9-3.9c0.2-0.2,0.2-0.5,0.1-0.6C69.9,58,69.6,58,69.4,58c-3.8,1-10.8,1.4-15.8,1.4c-5.5,0-8.3-0.4-8.9-0.7
			c0.4-0.5,2.5-1.4,5.2-1.9c0.3-0.1,0.5-0.3,0.4-0.5s-0.3-0.5-0.5-0.5C48.2,56,40.4,56.1,39.6,58.6z"/>
		<path class="st0" d="M75.5,55.1c-2.2,0-4.3,1.1-4.4,1.2c-0.2,0.1-0.3,0.4-0.3,0.5c0.1,0.2,0.3,0.4,0.5,0.4c0.1,0,4.7,0,5.2,2.7
			c0.4,2.3-4.5,6-6.3,7.3c-0.2,0.1-0.3,0.4-0.2,0.6c0.1,0.2,0.3,0.3,0.5,0.3h0.1c0.5-0.1,10.9-2.4,9.8-8.5
			C79.7,56,77.4,55.1,75.5,55.1z"/>
		<path class="st0" d="M68.3,66.5c0-0.2,0-0.4-0.2-0.5l-2.5-1.7c-0.1-0.1-0.3-0.1-0.5-0.1c0,0-2.6,0.7-6.5,1.1
			c-1.5,0.2-3.2,0.3-4.9,0.3c-3.8,0-6.3-0.5-6.6-0.8c-0.1-0.1,0-0.1,0-0.2c0.1-0.2,0.5-0.4,0.6-0.5c0.3-0.1,0.4-0.4,0.3-0.6
			c-0.1-0.3-0.4-0.4-0.6-0.4c-2.5,0.6-3.7,1.5-3.6,2.5c0.2,1.9,4.6,2.9,8.3,3.1c0.5,0,1.1,0.1,1.7,0.1l0,0c6.2,0,14.1-1.9,14.2-1.9
			C68.2,66.9,68.3,66.7,68.3,66.5z"/>
		<path class="st0" d="M49.4,70.6c0.2-0.1,0.3-0.4,0.2-0.5c-0.1-0.2-0.3-0.4-0.5-0.4c-0.4,0-3.3,0.2-3.6,2c-0.1,0.5,0.1,1.1,0.5,1.5
			c1.1,1.3,3.9,2,8.8,2.3c0.5,0,1.2,0.1,1.7,0.1c6.2,0,10.3-1.9,10.5-2c0.2-0.1,0.3-0.3,0.3-0.5s-0.1-0.4-0.3-0.5l-3.2-2
			c-0.1-0.1-0.3-0.1-0.4-0.1c0,0-2,0.5-5.1,0.8c-0.5,0.1-1.3,0.1-2.2,0.1c-3,0-6.5-0.5-7.1-0.8C49.2,70.7,49.3,70.6,49.4,70.6z"/>
		<path class="st0" d="M53.7,81.4c14.1,0,21.7-2.5,23.1-4.1c0.5-0.5,0.5-1.1,0.5-1.5c-0.1-0.8-0.9-1.4-1-1.5
			c-0.2-0.1-0.5-0.1-0.6,0.1c-0.2,0.2-0.2,0.5,0,0.6c0.1,0.1,0.2,0.3-0.1,0.5c-0.5,0.5-6.5,2.2-16.3,2.7c-1.4,0.1-2.7,0.1-4.2,0.1
			c-8.7,0-15.2-1.2-16-1.9c0.4-0.5,2.6-1.2,5-1.6c0.3-0.1,0.5-0.3,0.5-0.5c0-0.3-0.3-0.5-0.5-0.5c-0.1,0-0.3,0-0.5,0
			c-4,0.3-8.6,0.8-8.8,2.8c-0.1,0.6,0.1,1.2,0.5,1.7C36.2,79.8,39.3,81.4,53.7,81.4L53.7,81.4z"/>
		<path class="st0" d="M79.6,77.7c-0.2-0.1-0.5-0.1-0.5,0.1c0,0-2.2,2.3-8.6,3.6c-2.5,0.5-7,0.7-13.7,0.7s-12.9-0.3-12.9-0.3
			c-0.3,0-0.5,0.2-0.5,0.5c0,0.3,0.1,0.5,0.4,0.5c0.1,0,6.6,1.5,15.7,1.5c4.4,0,8.6-0.4,12.5-1c7.4-1.3,7.9-5,7.9-5.1
			C79.9,78.1,79.8,77.8,79.6,77.7z"/>
	</g>
</g>
</svg>
