<?xml version="1.0" encoding="utf-8"?>
<!-- Generator: Adobe Illustrator 21.0.0, SVG Export Plug-In . SVG Version: 6.00 Build 0)  -->
<svg version="1.1" id="Capa_1" xmlns="http://www.w3.org/2000/svg" xmlns:xlink="http://www.w3.org/1999/xlink" x="0px" y="0px"
	 viewBox="0 0 115 107" style="enable-background:new 0 0 115 107;" xml:space="preserve">
<style type="text/css">
	.st0{fill:#666666;}
</style>
<title>tech-icon1</title>
<g>
	<path class="st0" d="M78,81.5c-0.8,0-1.7,0-2.5,0c-4.7-0.7-8.5-3.1-12.1-6c-1.3-1-2.7-2.1-4.1-3c-2.7-1.8-5.4-1.7-8.1,0
		c-0.8,0.5-1.6,1-2.3,1.6c-4.2,3.3-8.3,6.7-13.9,7.4c-0.8,0-1.7,0-2.5,0c-2.8-0.7-4.5-2.6-5.3-5.3c-0.2-0.7-0.4-1.6-0.6-2.3
		c0-1.2,0-2.4,0-3.6c0.1-0.2,0.1-0.4,0.2-0.6c0.4-4.2,1.6-8.1,3.4-11.9c2-4.2,4.4-8.3,8.1-11.2c1.8-1.4,3.8-2.2,6-1.6
		c2,0.5,3.9,1.3,5.8,2.1c1.3,0.4,2.5,0.9,3.9,1.3c1.5-7,3.1-9.5,7.7-12.1c1.6-0.9,3.2-1.6,4.8-2.3c2-1,4.1-1.8,6.1-2.8
		c1.9-1,3.1-2.4,3.4-4.6c0.1-0.4,0.7-1.1,1.1-1.2c0.9-0.1,1,0.7,1,1.4c-0.1,2.5-1.3,4.4-3.4,5.7c-1.8,1.1-3.8,1.9-5.7,2.8
		c-2.7,1.3-5.4,2.4-7.9,4c-3.1,1.9-4.5,5-4.7,8.9c1-0.3,1.9-0.4,2.7-0.8c1.3-0.5,2.5-1.2,3.7-1.7c4.4-1.9,7.4-1.3,10.8,2.1
		c4.5,4.5,7.1,10.1,8.9,16.1c0.6,2.1,0.9,4.2,1.3,6.3c0,1.2,0,2.4,0,3.6c-0.1,0.2-0.1,0.4-0.2,0.6C83.1,77.9,81.5,80.5,78,81.5z
		 M43.7,59.7c0-1.3,0-2.3,0-3.3c-1.2,0-2.3,0-3.5,0c0,1.1,0,2.2,0,3.4c-1.2,0-2.2,0-3.4,0c0,1.2,0,2.2,0,3.4c1.1,0,2.2,0,3.4,0
		c0,1.2,0,2.3,0,3.4c1.2,0,2.3,0,3.5,0c0-1.2,0-2.2,0-3.4c1.2,0,2.2,0,3.3,0c0-1.2,0-2.2,0-3.4c-0.5,0-1,0-1.6,0
		C45,59.7,44.5,59.7,43.7,59.7z M73.5,59.8c-1.2,0-2.2,1-2.3,2.2c-0.1,1.3,1,2.4,2.3,2.4c1.2,0,2.2-1,2.3-2.2
		C75.9,60.9,74.8,59.8,73.5,59.8z M68.9,68.9c1.3,0,2.4-1,2.4-2.3c0-1.2-1-2.2-2.2-2.3c-1.3-0.1-2.4,1-2.4,2.3
		C66.7,67.8,67.7,68.9,68.9,68.9z M71.2,57.4c0-1.2-1-2.2-2.2-2.3c-1.3-0.1-2.4,1-2.4,2.3c0,1.2,1,2.2,2.2,2.3
		C70.1,59.8,71.2,58.7,71.2,57.4z M64.3,59.8c-1.2,0-2.2,1.1-2.2,2.3c0,1.3,1.1,2.3,2.4,2.3c1.2-0.1,2.2-1.1,2.2-2.3
		C66.7,60.8,65.5,59.7,64.3,59.8z"/>
</g>
</svg>
