<?xml version="1.0" encoding="utf-8"?>
<!-- Generator: Adobe Illustrator 21.0.0, SVG Export Plug-In . SVG Version: 6.00 Build 0)  -->
<svg version="1.1" id="Capa_1" xmlns="http://www.w3.org/2000/svg" xmlns:xlink="http://www.w3.org/1999/xlink" x="0px" y="0px"
	 viewBox="0 0 115 107" style="enable-background:new 0 0 115 107;" xml:space="preserve">
<style type="text/css">
	.st0{fill:#666666;}
</style>
<title>tech-icon1</title>
<g>
	<path class="st0" d="M73.9,74.2c-1.3-1.3-2.4-2.5-3.6-3.6c-0.1,0.1-0.2,0.1-0.3,0.2c0.5,4.1,0.2,8.1-1.5,12c-0.6-2.5-1.2-5-1.8-7.7
		c-1.2,2.9-2.1,5.3-3,7.7c-1.3-3.2-2.6-6.3-3.8-9.3c-0.2-0.5-0.5-0.9-0.7-1.3c-1.1-1.6-2.1-3.1-2.2-5c0-0.3-0.2-0.6-0.5-1.2
		c-0.2,0.8-0.2,1.3-0.2,1.7c-2.1-1.4-4.1-3-6.2-4.2c-5-2.8-10.3-3-15.7-1.4c-1.2,0.3-2.1,1.4-3.1,2.1c0,0.2-0.1,0.4-0.1,0.6
		c-0.4-0.5-1-1-1.1-1.6c-0.8-3.5,1.3-6.9,4.9-8c2.5-0.7,5-1.2,7.4-2.1c4.1-1.5,7.9-3.6,9.8-7.9c0.7-1.8,1.8-2.5,3.6-3
		c6.8-1.7,12.9-5.1,18.8-8.8c4.1-2.6,8.1-5.5,12.2-8.3c0.3-0.2,0.6-0.4,0.9-0.6c0.1,0.1,0.2,0.2,0.3,0.3c-3.6,4.3-7.3,8.6-11,12.9
		c0.9-0.6,1.9-1.2,2.9-1.7c1-0.7,2-1.3,3-2.1c1-0.7,1.9-1.4,3-2.1c-3,4.2-6.4,8-10.4,11.4c2.3-1.1,4.6-2.1,7.2-3.4
		c-3.3,3.5-6.6,6.4-10.8,8.5c0.1,0.2,0.1,0.2,0.2,0.4c2.1-0.7,4.1-1.4,6.2-2.1c0.1,0.1,0.1,0.2,0.2,0.3c-2.9,1.7-5.7,3.6-8.6,5.3
		c0,0.1,0,0.2,0.1,0.2c1.2-0.2,2.5-0.6,3.8-0.8c0.1,0.1,0.1,0.2,0.2,0.3c-2.6,1.2-5.1,2.4-7.9,3.7c1.1,0,1.9,0,2.8,0
		c0,0.2,0.1,0.2,0.1,0.4c-1.7,0.6-3.5,1.2-5.4,1.8c0.2,0.2,0.6,0.4,1.1,0.7c-1,0.2-1.7,0.2-3,0.4C67.5,62.6,72.4,67,73.9,74.2z"/>
</g>
</svg>
