<?xml version="1.0" encoding="utf-8"?>
<!-- Generator: Adobe Illustrator 21.0.0, SVG Export Plug-In . SVG Version: 6.00 Build 0)  -->
<svg version="1.1" id="Capa_1" xmlns="http://www.w3.org/2000/svg" xmlns:xlink="http://www.w3.org/1999/xlink" x="0px" y="0px"
	 viewBox="0 0 115 107" style="enable-background:new 0 0 115 107;" xml:space="preserve">
<style type="text/css">
	.st0{fill:#666666;}
</style>
<title>tech-icon1</title>
<g>
	<path class="st0" d="M51.8,35.8c0.5,0.7,0.8,1.5,0.6,2.3c-0.5,1.9-2.7,2.6-4.1,1.3c-1.2-1.2-2.3-2.3-3.6-3.4
		c-0.3-0.2-0.3-0.6-0.7-0.8c-0.2-0.7-0.2-1.4,0.2-2.2c0.8-1.4,2.7-1.9,4-0.9c1.2,1,2.3,2,3.4,3.1C51.4,35.6,51.6,35.8,51.8,35.8z"/>
	<path class="st0" d="M39.5,32.4c-1.6,0.2-2.7-1.5-2.6-2.7c0.1-1.3,1.2-2.6,2.7-2.6c1.3,0,2.6,0.9,2.6,2.7
		C42.2,31.5,40.8,32.5,39.5,32.4z"/>
	<path class="st0" d="M40.9,79.6c-4.7-1.1-7.8-3.9-8.9-8.7c-0.9-3.9,0.3-7.3,2.7-10.5c2.1-2.8,5.1-4.5,8.3-5.7
		c2.8-1.1,5.7-1.7,8.8-2c0.9-0.1,1.8-0.2,2.7-0.2c1.7-0.2,3.4,0,5.2-0.2c0.2,0,0.2,0,0.4,0.1c0.1,0,0.1,0,0.2,0c1.5,0,2.9,0,4.4,0
		c0.4,0,0.5,0.1,0.5,0.5c0,1.3,0,2.4,0,3.7c0,0.5-0.2,0.6-0.7,0.6c-1.6,0-3,0.1-4.6,0.1c-1.7,0-3.4,0.1-5.2,0.2
		c-0.4-0.1-0.8,0.1-1.2,0.1c-1.6,0-3,0.2-4.5,0.5c-2.4,0.5-4.8,1.3-6.9,2.6c-2.1,1.3-3.8,3-4.7,5.4c-1.1,3-0.4,5.5,2,7.4
		c0.6,0.5,1.4,0.8,2.2,1.1c-0.1,0-0.2,0.1-0.2,0.1c-1,0.3-1.6,1.1-1.8,2.1c-0.2,1,0.3,1.9,1.2,2.5C40.7,79.4,40.8,79.4,40.9,79.6z"
		/>
	<path class="st0" d="M54.6,57.5c1.7-0.1,3.4-0.2,5.2-0.2c-0.2,3.5-0.7,7-2,10.2c-1.2,3-2.5,5.9-4.8,8.2c-2.8,2.7-6.1,4.1-10.1,4
		c-0.6,0-1.3-0.1-2-0.2c0-0.2-0.2-0.2-0.3-0.3c-0.9-0.5-1.3-1.4-1.2-2.5c0.2-1.1,0.8-1.8,1.8-2.1c0.1,0,0.2-0.1,0.2-0.1
		c0.3,0,0.6,0.1,0.9,0.1c0.8,0.1,1.6,0.2,2.3,0c2.7-0.5,4.8-2.1,6.3-4.5C53.2,66.2,54.3,61.9,54.6,57.5z"/>
	<path class="st0" d="M59.5,52.4c-1.7,0.2-3.4,0-5.2,0.2C54,49.9,53.2,47.4,52,45c-0.7-1.3-0.3-2.7,0.9-3.4c1.3-0.8,2.9-0.3,3.5,0.9
		c1.5,2.8,2.5,5.8,2.9,8.9C59.3,51.7,59.4,52,59.5,52.4z"/>
	<path class="st0" d="M80,52.6c2.5,0.1,5.1,0.2,7.6,0.2c0.9,0,1.8,0.1,2.7,0.1c0.3,0,0.5,0.1,0.5,0.5c0,1.3,0,2.6,0,3.8
		c0,0.4-0.2,0.5-0.5,0.5c-1.7-0.1-3.4-0.2-5.2-0.2c-0.6,0-1.3,0-1.8,0c-1.1,0-2.2-0.1-3.3-0.2c-0.1-0.1-0.1-0.1-0.2-0.2
		c0-1.6,0-3,0-4.6C80,52.7,80,52.6,80,52.6z"/>
	<path class="st0" d="M74.1,52.5c0.1,0,0.2,0,0.2,0c0.1,0.1,0.1,0.1,0.2,0c0.6,0,1.3,0.1,2,0c0.4,0,0.5,0.2,0.5,0.5
		c0,1.3,0,2.6,0,3.8c0,0.4-0.2,0.5-0.5,0.5c-1.1-0.1-2.3-0.1-3.4-0.2c-0.2-0.2-0.3-0.2-0.5,0c-1.3,0-2.6-0.1-3.9,0
		c-0.5,0-0.5-0.2-0.5-0.5c0-1.3,0-2.5,0-3.8c0-0.4,0.1-0.5,0.5-0.5c0.1,0,0.1,0,0.2,0c1.7,0,3.4,0.1,5.2,0.1
		C74,52.6,74,52.6,74.1,52.5z"/>
	<path class="st0" d="M72.5,57.3c0.2-0.2,0.3-0.2,0.5,0C72.8,57.4,72.6,57.4,72.5,57.3z"/>
	<path class="st0" d="M74.1,52.5c-0.1,0.1-0.2,0.1-0.2,0C74,52.5,74,52.5,74.1,52.5z"/>
	<path class="st0" d="M60,52.4c-0.1,0-0.1,0-0.2,0C59.9,52.4,60,52.4,60,52.4z"/>
	<path class="st0" d="M68.6,52.4c-0.1,0-0.1,0-0.2,0C68.6,52.3,68.6,52.3,68.6,52.4z"/>
	<path class="st0" d="M74.5,52.6c-0.1,0.1-0.1,0.1-0.2,0C74.3,52.6,74.4,52.6,74.5,52.6z"/>
	<path class="st0" d="M80,52.6c-0.1,0-0.1,0-0.2,0.1C80,52.6,80,52.6,80,52.6z"/>
	<path class="st0" d="M79.9,57.3c0.1,0.1,0.1,0.1,0.2,0.2C80,57.5,79.9,57.4,79.9,57.3z"/>
</g>
</svg>
