<?xml version="1.0" encoding="utf-8"?>
<!-- Generator: Adobe Illustrator 21.0.0, SVG Export Plug-In . SVG Version: 6.00 Build 0)  -->
<svg version="1.1" id="Capa_1" xmlns="http://www.w3.org/2000/svg" xmlns:xlink="http://www.w3.org/1999/xlink" x="0px" y="0px"
	 viewBox="0 0 115 107" style="enable-background:new 0 0 115 107;" xml:space="preserve">
<style type="text/css">
	.st0{fill:#666666;}
</style>
<title>tech-icon1</title>
<g>
	<path class="st0" d="M90.5,75.8c-0.3,0-0.5,0.1-0.7,0.1c-2.8,0-5.6,0-8.3,0c-0.5,0-0.7-0.1-0.8-0.5c-2.3-4.7-4.8-9.3-7.2-14
		c-0.2-0.4-0.4-0.5-0.8-0.5c-2.8,0-5.6,0-8.4,0c-0.3,0-0.5,0-0.8,0c0.1-0.3,0.2-0.5,0.3-0.6c1.2-2.5,2.5-5,3.7-7.4
		c0.2-0.4,0.5-0.5,0.9-0.5c2.5,0,5,0,7.6,0c2.7,0,5-2.1,5.3-4.6c0.3-2.8-1.4-5.3-4.2-5.9c-0.5-0.1-0.9-0.1-1.4-0.1
		c-12.1,0-24.1,0-36.2,0c-0.3,0-0.5,0-0.9,0c0.7-1.4,1.4-2.7,2-4c0.7-1.4,1.4-2.7,2.1-4.1c0.2-0.3,0.3-0.5,0.7-0.5
		c11.1,0,22.1-0.1,33.2,0c6.4,0.1,12.3,5.3,13.1,11.7c0.8,6.1-1.8,11.4-7.1,14.4c-0.1,0.1-0.2,0.1-0.4,0.2
		C84.9,64.8,87.7,70.3,90.5,75.8z"/>
	<path class="st0" d="M38.5,33.2c-1,1.9-1.9,3.8-2.8,5.6c-0.5,0.8-0.8,1.7-1.3,2.5c-0.1,0.2-0.1,0.5,0,0.7c3.3,6.5,6.5,13,9.8,19.4
		c0.7,1.4,1.4,2.9,2.2,4.3c0.1,0.2,0.2,0.3,0.3,0.6c0.4-0.8,0.8-1.5,1.1-2.2c3.1-6.1,6.1-12.1,9.2-18.2c0.2-0.4,0.5-0.5,0.9-0.5
		c2.7,0,5.5,0,8.3,0c0.2,0,0.4,0,0.7,0c-0.2,0.5-0.4,0.8-0.6,1.2c-4.6,9-9.1,18-13.7,27c-0.3,0.5-0.5,0.9-0.7,1.4
		c-0.3,0.7-0.7,0.8-1.3,0.8c-2.7,0-5.3,0-8.1,0c-0.4,0-0.7-0.1-0.8-0.5C36,64.2,30.4,53.1,24.8,42.1c-0.2-0.4-0.2-0.7,0-1.1
		c1.3-2.5,2.5-5,3.8-7.4c0.1-0.3,0.3-0.5,0.7-0.5c2.9,0,5.8,0,8.7,0C38.2,33.1,38.3,33.1,38.5,33.2z"/>
</g>
</svg>
