<?xml version="1.0" encoding="utf-8"?>
<!-- Generator: Adobe Illustrator 21.0.0, SVG Export Plug-In . SVG Version: 6.00 Build 0)  -->
<svg version="1.1" id="Capa_1" xmlns="http://www.w3.org/2000/svg" xmlns:xlink="http://www.w3.org/1999/xlink" x="0px" y="0px"
	 viewBox="0 0 115 107" style="enable-background:new 0 0 115 107;" xml:space="preserve">
<style type="text/css">
	.st0{fill:#666666;}
</style>
<title>tech-icon1</title>
<g>
	<path class="st0" d="M68.5,57.6c-1.1,3.9-2.3,7.7-3.1,11.6c-0.6,2.6-1.7,3.4-4.3,3.2c-2.7-0.3-5.4-0.1-8.1,0
		c-1.7,0.1-2.4-0.6-2.9-2.3c-0.8-3.6-1.9-7.1-2.8-10.6c-0.2-0.8-0.5-1.4-1.6-2.2c-0.8,2.9-1.6,5.8-2.4,8.6c-1.7,6.4-1.7,6.4-8.3,6.4
		c-2.1,0-4.1,0-6.7,0c0.6-2.2,1-4.1,1.5-5.9c2.6-9.8,5.4-19.5,7.9-29.3c0.5-1.9,1.4-2.8,3.5-2.6c3.4,0.2,6.8,0.2,10.1,0
		c1.9-0.1,2.6,0.6,3.1,2.4c0.8,3.1,1.8,6.2,2.6,9.3c0.3,0,0.6,0,0.8,0c0.8-2.7,1.9-5.4,2.3-8.1c0.5-2.9,1.9-3.9,4.8-3.6
		c3.1,0.3,6.1,0.1,9.3,0c1.5-0.1,2.3,0.4,2.8,2c3,11.3,6.1,22.6,9.2,33.9c0.1,0.5,0,1.1,0,1.9c-3.8,0-7.4,0.1-11.1-0.1
		c-0.8-0.1-1.9-1.2-2.2-2.1c-1.1-3.5-2-7.1-3-10.6c-0.2-0.7-0.6-1.4-0.9-2C69,57.6,68.7,57.6,68.5,57.6z"/>
</g>
</svg>
