<?xml version="1.0" encoding="utf-8"?>
<!-- Generator: Adobe Illustrator 21.0.0, SVG Export Plug-In . SVG Version: 6.00 Build 0)  -->
<svg version="1.1" id="Capa_1" xmlns="http://www.w3.org/2000/svg" xmlns:xlink="http://www.w3.org/1999/xlink" x="0px" y="0px"
	 viewBox="0 0 115 107" style="enable-background:new 0 0 115 107;" xml:space="preserve">
<style type="text/css">
	.st0{fill:#666666;}
</style>
<title>tech-icon1</title>
<g>
	<path class="st0" d="M39.5,64.8c0-0.2,0-0.4,0-0.5c0-4.5,0-8.8,0-13.3c0-0.4,0.2-0.6,0.5-0.8c7-3.8,14-7.6,21-11.4
		c3.5-1.9,7-3.8,10.5-5.7c1-0.5,2-0.9,3.2-0.9c2.5,0,4.5,1.1,5.7,3.2c1.6,2.9,0.8,6.3-1.8,8.2c-1.1,0.8-2.4,1.4-3.7,2.1
		c-7.2,3.9-14.5,7.8-21.7,11.8c-4.3,2.3-8.6,4.7-12.9,6.9C39.9,64.6,39.8,64.7,39.5,64.8z"/>
	<path class="st0" d="M55.1,59.5c1.4-0.8,2.8-1.5,4.2-2.3c2.4-1.3,4.9-2.6,7.3-3.9c0.3-0.2,0.5-0.2,0.7,0.1
		c3.9,3.5,7.8,6.9,11.8,10.4c1.4,1.2,2,2.8,2,4.5c0,3.3-2.4,5.7-5.2,6.3c-2.1,0.4-3.9-0.2-5.5-1.5C66.3,69.4,62.1,65.7,58,62
		C57,61.3,56.1,60.4,55.1,59.5z"/>
	<path class="st0" d="M39.5,47.3c0-0.2,0-0.4,0-0.5c0-2.6,0-5.1,0-7.6c0-1.7,0.5-3.2,1.6-4.5c1.2-1.4,2.7-2.2,4.5-2.4
		c3.5-0.5,6.9,2,7.5,5.7c0.1,0.5,0.1,1.1,0.1,1.7c0,0.2-0.2,0.4-0.4,0.5c-2.5,1.4-5,2.8-7.5,4.1c-1.7,0.9-3.3,1.8-5,2.7
		C40.1,47,39.9,47.2,39.5,47.3z"/>
	<path class="st0" d="M53.1,60.6c0,0.2,0.1,0.2,0.1,0.3c0,2.6,0.1,5.1,0,7.6c-0.1,2.9-2.3,5.5-5.2,6.1c-3.9,0.9-7.7-1.7-8.3-5.7
		c0-0.2,0-0.5-0.1-0.7c-0.1-0.3,0-0.5,0.3-0.6c2.1-1.1,4.2-2.3,6.3-3.4c2.1-1.1,4.3-2.3,6.4-3.5C52.7,60.8,52.9,60.7,53.1,60.6z"/>
</g>
</svg>
