<?xml version="1.0" encoding="utf-8"?>
<!-- Generator: Adobe Illustrator 21.0.0, SVG Export Plug-In . SVG Version: 6.00 Build 0)  -->
<svg version="1.1" id="Capa_1" xmlns="http://www.w3.org/2000/svg" xmlns:xlink="http://www.w3.org/1999/xlink" x="0px" y="0px"
	 viewBox="0 0 115 107" style="enable-background:new 0 0 115 107;" xml:space="preserve">
<style type="text/css">
	.st0{fill:#666666;}
</style>
<title>tech-icon1</title>
<g>
	<path class="st0" d="M85.7,52.4c-0.1,1.9-1,3.3-2.5,4.1c-3.5,1.9-7.1,3.6-10.7,5.3c-2,1-3.7,2-4.7,4.2c-1.6,3.8-3.5,7.4-5.4,10.9
		c-0.5,0.9-1.2,1.8-2.1,2.4c-2.3,1.4-5,0.7-6.3-1.8c-1.3-2.4-2.5-4.8-3.6-7.2c-1-2-1.9-3.9-2.9-5.9c-0.3-0.6-0.8-1.1-1.4-1.4
		c-4.3-2.1-8.7-4.2-13-6.4c-1.7-0.9-2.6-2.4-2.6-4.2c0-1.9,1-3.3,2.7-4.2c1.6-0.7,3-1.5,4.6-2.2c2.9-1.4,5.6-2.7,8.5-4.2
		c0.5-0.2,0.9-0.7,1.1-1.2c2-4,3.9-8.1,6-12.1c0.2-0.6,0.6-1.1,0.9-1.6c2-2.9,6.3-2.8,8,0.5c1.8,3.4,3.6,6.9,5.1,10.5
		c1.1,2.6,2.9,4.2,5.4,5.2c3.5,1.6,6.9,3.3,10.4,5.1C84.7,49.1,85.6,50.5,85.7,52.4z M61.9,67.8c0.3-0.5,0.7-0.8,0.7-1.1
		c0.3-1.5,0.7-2.9,0.9-4.4c0.5-3.7,1.7-6.9,4.9-9.2c1.4-1,2.6-2.2,3.9-3.4c0.3-0.3,0.5-0.8,0.7-1.1c-0.4-0.2-0.9-0.7-1.3-0.7
		c-2.1-0.5-4.2-0.9-6.3-1.2c-2.5-0.4-4.5-1.6-6-3.6c-1.4-1.7-2.9-3.3-4.4-5c-0.2-0.2-0.7-0.5-1.1-0.5c-0.2,0-0.5,0.6-0.6,0.9
		c-0.3,1.6-0.7,3.3-0.9,4.8c-0.6,3.3-1.6,6.5-4.6,8.5c-1.6,1.1-2.9,2.5-4.3,3.8c-0.3,0.2-0.6,0.8-0.5,1.1c0,0.2,0.7,0.5,1,0.6
		c2.4,0.5,4.7,1,7.1,1.4c2.3,0.4,4,1.6,5.5,3.3c1.3,1.6,2.7,3.2,4.1,4.8C61,67,61.4,67.4,61.9,67.8z"/>
</g>
</svg>
