<?xml version="1.0" encoding="utf-8"?>
<!-- Generator: Adobe Illustrator 21.0.0, SVG Export Plug-In . SVG Version: 6.00 Build 0)  -->
<svg version="1.1" id="Capa_1" xmlns="http://www.w3.org/2000/svg" xmlns:xlink="http://www.w3.org/1999/xlink" x="0px" y="0px"
	 viewBox="0 0 115 107" style="enable-background:new 0 0 115 107;" xml:space="preserve">
<style type="text/css">
	.st0{fill:#666666;}
</style>
<title>tech-icon1</title>
<g>
	<g>
		<path class="st0" d="M60,71.6c0,3.6,1.5,6.6,3.6,8.7c-1.7,1-3.5,1.9-5.2,2.9c-0.4,0.2-1,0.4-1.4,0.6h-1.4c-1.9-1-3.8-2-5.7-3
			c-4.9-2.8-9.8-5.5-14.7-8.3c-0.2-0.1-0.4-0.2-0.6-0.3c0.2-0.2,0.2-0.2,0.3-0.4c11.8-11.8,23.4-23.6,35.2-35.4
			c0.5-0.5,1-0.7,1.6-0.6c0.6,0.2,0.9,0.7,1,1.4c0.9,5.7,1.9,11.4,2.8,17.1c0.3,2.1,0.6,4.3,1.1,6.4c-1.4-0.6-2.9-0.9-4.5-0.9
			C65.4,59.7,59.9,64.9,60,71.6z"/>
		<path class="st0" d="M43.7,23.2c0.3,0.3,0.8,0.6,1,1.1c2,3.7,4,7.5,6,11.2c0.2,0.3,0.2,0.6,0,0.9c-4.8,8.6-9.5,17.1-14.3,25.7
			c-0.1,0.2-0.2,0.2-0.3,0.3c0.2-1.8,0.6-3.6,0.8-5.4c0.8-5.2,1.6-10.4,2.4-15.6c0.9-5.7,1.8-11.3,2.6-16.9c0.1-0.6,0.5-1.1,1.1-1.3
			C43.2,23.2,43.5,23.2,43.7,23.2z"/>
		<path class="st0" d="M35.4,68.1c0.1-0.2,0.2-0.3,0.2-0.5c6.5-11.6,13-23.2,19.5-34.8c0.5-0.9,1.1-1.2,1.8-0.9
			c0.3,0.2,0.6,0.4,0.7,0.6c1.5,2.8,3,5.8,4.5,8.6c0,0,0,0.1,0,0.2C53.4,50.3,44.4,59.2,35.4,68.1L35.4,68.1z"/>
	</g>
	<path class="st0" d="M79.4,71.8c-0.5-3-1-6-1.5-9.1c-0.6-0.4-1.2-0.7-1.9-1c0.2,0.9,0.2,1.8,0.4,2.6c-1.4-0.9-3-1.5-4.7-1.5
		c-4.9,0-8.8,3.8-8.7,8.6c0,3,1.4,5.4,3.4,6.9c-0.6,0.4-1.3,0.7-2,1.1c0.3,0.2,0.6,0.6,1,0.8c1.9-1.1,3.8-2.1,5.7-3.2
		c-1.1,0-2.2,0-3.2,0c-0.8,0-1.1-0.3-1.1-1.1V76c0-2.3-0.4-2.8,2.4-2.6c0.2,0,0.2-0.1,0.5-0.1c0-0.9,0-1.6,0-2.4
		c0-0.6,0.4-1.1,1.1-1.1h0.1c2.1-0.2,2.1-0.2,2.1,1.9c0,1.5,0,2.8,0,4.3c0,0.1,0,0.1,0,0.2c0.2-0.2,0.6-0.3,0.8-0.4c0-0.2,0-0.6,0-1
		c0-1,0-1.9,0-2.9c0-1.4,0-2.8,0-4.1c0-0.9,0.3-1.3,1.3-1.4c2.5-0.1,2.5-0.1,2.5,2.5c0,1.6,0,3.2,0,4.8c0.6-0.3,1.1-0.6,1.6-0.9
		C79.4,72.6,79.5,72.3,79.4,71.8z M77.9,62.7c0.5,3,1,6,1.5,9.1c0.1,0.5,0,0.7-0.4,1c-0.6,0.3-1.1,0.6-1.6,0.9c0,0.7,0,1.4,0,2.1
		c0,1.2-0.2,1.5-1.4,1.5c-2.5,0-2.4,0.2-2.4-1.4c-0.2,0.2-0.6,0.3-0.8,0.4c0,0.6-0.2,1-1,1c-0.2,0-0.5,0-0.7,0
		c-1.9,1.1-3.8,2.1-5.7,3.2c1.8,1.4,4.1,2.1,6.6,2.2c5.8,0.2,10.8-4.9,10.9-10.6C82.8,68.1,80.8,64.7,77.9,62.7z M63,71.6
		c0,3,1.4,5.4,3.4,6.9c-0.6,0.4-1.3,0.7-2,1.1c-2-1.9-3.3-4.6-3.3-7.8C61,65.8,65.9,61,71.9,61c1.5,0,2.8,0.3,4.1,0.8
		c0.2,0.9,0.2,1.8,0.4,2.6c-1.4-0.9-3-1.5-4.7-1.5C66.9,62.9,63,66.7,63,71.6z"/>
</g>
</svg>
