<?xml version="1.0" encoding="utf-8"?>
<!-- Generator: Adobe Illustrator 21.0.0, SVG Export Plug-In . SVG Version: 6.00 Build 0)  -->
<svg version="1.1" id="Capa_1" xmlns="http://www.w3.org/2000/svg" xmlns:xlink="http://www.w3.org/1999/xlink" x="0px" y="0px"
	 viewBox="0 0 115 107" style="enable-background:new 0 0 115 107;" xml:space="preserve">
<style type="text/css">
	.st0{fill:#666666;}
</style>
<title>tech-icon1</title>
<g>
	<path class="st0" d="M78.6,26H35.1c-0.8,0-1.5,0.7-1.5,1.5v52.1c0,0.8,0.7,1.5,1.5,1.5h43.6c0.8,0,1.5-0.7,1.5-1.5V27.4
		C80.1,26.7,79.4,26,78.6,26z M77.2,78.1H36.5V40h40.7V78.1z"/>
	<path class="st0" d="M42.3,51.5h29c0.4,0,0.7-0.3,0.7-0.7v-4.9c0-0.4-0.3-0.7-0.7-0.7h-29c-0.4,0-0.7,0.3-0.7,0.7v4.9
		C41.7,51.1,41.9,51.5,42.3,51.5z"/>
	<path class="st0" d="M42.3,72.9h13.2c0.4,0,0.7-0.3,0.7-0.7V58.3c0-0.4-0.3-0.7-0.7-0.7H42.3c-0.4,0-0.7,0.3-0.7,0.7v13.8
		C41.7,72.5,41.9,72.9,42.3,72.9z"/>
	<path class="st0" d="M71.4,57.6H61.2c-0.4,0-0.7,0.3-0.7,0.7v4.2c0,0.4,0.3,0.7,0.7,0.7h10.2c0.4,0,0.7-0.3,0.7-0.7v-4.2
		C72.1,57.9,71.8,57.6,71.4,57.6z"/>
	<path class="st0" d="M71.4,67H61.2c-0.4,0-0.7,0.3-0.7,0.7V72c0,0.4,0.3,0.7,0.7,0.7h10.2c0.4,0,0.7-0.3,0.7-0.7v-4.2
		C72.1,67.3,71.8,67,71.4,67z"/>
</g>
</svg>
