<?xml version="1.0" encoding="utf-8"?>
<!-- Generator: Adobe Illustrator 21.0.0, SVG Export Plug-In . SVG Version: 6.00 Build 0)  -->
<svg version="1.1" id="Capa_1" xmlns="http://www.w3.org/2000/svg" xmlns:xlink="http://www.w3.org/1999/xlink" x="0px" y="0px"
	 viewBox="0 0 115 107" style="enable-background:new 0 0 115 107;" xml:space="preserve">
<style type="text/css">
	.st0{fill:#666666;}
</style>
<title>tech-icon1</title>
<g>
	<path class="st0" d="M60.2,74c-0.2-0.2-0.3-0.3-0.6-0.4c-0.3-0.3-0.7-0.7-0.8-1.1c-0.3-1.1-0.5-2.3-0.8-3.4
		C58,68.9,58,68.7,58,68.5c-0.1-0.4-0.3-0.6-0.8-0.6c-0.3,0-0.6,0.3-0.7,0.7c-0.2,1.2-0.3,2.4-0.5,3.6c-0.1,0.7-0.3,1.3-0.5,2.1
		c-0.4-0.3-0.8-0.6-1.1-0.9c-2.3-2-4.3-4.3-6-6.9c-1.5-2.5-2.4-5.2-3-8.2c-0.3-1.8-0.7-3.5-0.7-5.3c0-1.2,0.1-2.3,0.2-3.5
		c0.3-2.2,0.6-4.5,1.1-6.7c0.9-3.8,2.4-7.2,4.9-10.3c1.3-1.5,2.7-2.9,4-4.5c0.3-0.3,0.7-0.7,1-1.1c0.8-0.8,0.8-0.9,1.2-1.9
		c0.2,0.4,0.3,0.8,0.5,1.2c0.4,0.8,1,1.6,1.8,2.3c4,4,7.1,8.5,9,13.9c1.3,3.8,1.9,7.7,1.8,11.7c-0.2,3.9-1.3,7.5-3.1,11
		c-1.7,3.2-3.9,6-6.6,8.3C60.4,73.7,60.3,73.9,60.2,74z M54.6,69.4c0-0.3,0.1-0.5,0.1-0.8c0.1-0.6,0.1-1.3,0.4-1.8
		c0.1-0.2,0.1-0.3,0.1-0.4c0-2.6,0-5.1,0-7.8c0-8.8,0-17.7,0-26.5c0-0.1,0-0.2,0-0.3c-0.5,0.5-1,1-1.4,1.5
		c-2.5,3.1-4.1,6.7-5.1,10.5c-0.4,2-0.8,4-0.9,6c-0.1,0.8-0.3,1.8-0.2,2.6c0.1,1.5,0.3,2.9,0.5,4.5c0.7,4.2,2.4,7.9,5.2,11.1
		C53.8,68.5,54.2,69,54.6,69.4z"/>
	<path class="st0" d="M57.3,68.7c0.3,1.2,0.5,2.4,0.8,3.5c0.2,0.8,0.6,1.4,1.3,1.9c-0.8,1.3-0.7,2.7-0.8,4.1
		c-0.1,1.1-0.1,2.2-0.1,3.4c-0.5-0.2-0.9-0.3-1.3-0.4c-0.1,0-0.1-0.2-0.1-0.2c-0.1-1-0.1-2.1-0.2-3.1c-0.1-1-0.3-2-0.6-3
		c0-0.1-0.1-0.3,0-0.3c0.6-1.8,0.8-3.6,1-5.5C57.3,69,57.3,68.9,57.3,68.7L57.3,68.7z"/>
</g>
</svg>
