<?xml version="1.0" encoding="utf-8"?>
<!-- Generator: Adobe Illustrator 21.0.0, SVG Export Plug-In . SVG Version: 6.00 Build 0)  -->
<svg version="1.1" id="Capa_1" xmlns="http://www.w3.org/2000/svg" xmlns:xlink="http://www.w3.org/1999/xlink" x="0px" y="0px"
	 viewBox="0 0 115 107" style="enable-background:new 0 0 115 107;" xml:space="preserve">
<style type="text/css">
	.st0{fill:#666666;}
</style>
<title>tech-icon1</title>
<g>
	<path class="st0" d="M32,79.6c0.3-1.1,0.7-2.2,1-3.2c3.9-11.7,7.7-23.3,11.5-34.8c1.4-4.3,2.8-8.5,4.2-12.7
		c0.1-0.2,0.1-0.3,0.4-0.3c5.6,0,11.2,0,16.7,0c0.1,0,0.2,0,0.3,0c-0.1,0.1-0.1,0.3-0.1,0.4c-3.6,11-7.2,22.2-10.9,33.2
		c-1.4,4.2-2.7,8.4-4.2,12.6c-1,2.9-3.6,4.8-6.7,4.8c-4,0-8,0-11.9,0C32.3,79.6,32.2,79.6,32,79.6z"/>
	<path class="st0" d="M67.5,32.2C72.8,48,78,63.8,83.2,79.6c-0.1,0-0.3,0-0.4,0c-4,0-8,0-12,0c-2.9,0-5.6-1.9-6.6-4.7
		c-1.8-5.4-3.5-10.6-5.3-16c-0.1-0.1-0.1-0.3,0-0.5c2.8-8.6,5.7-17.3,8.5-25.9C67.5,32.4,67.5,32.3,67.5,32.2z"/>
</g>
</svg>
