<?xml version="1.0" encoding="utf-8"?>
<!-- Generator: Adobe Illustrator 21.0.0, SVG Export Plug-In . SVG Version: 6.00 Build 0)  -->
<svg version="1.1" id="Capa_1" xmlns="http://www.w3.org/2000/svg" xmlns:xlink="http://www.w3.org/1999/xlink" x="0px" y="0px"
	 viewBox="0 0 115 107" style="enable-background:new 0 0 115 107;" xml:space="preserve">
<style type="text/css">
	.st0{fill:#666666;}
</style>
<title>tech-icon1</title>
<g>
	<path class="st0" d="M35.2,37.4c-3.1,14,5.7,26.1,14.4,31.1c11.1,6.4,23.3,6.3,32.3-0.9c-3.2,6.9-12.3,12-21.7,11.6
		C47.5,78.7,38.4,72.6,33,61.4C28.9,53.1,29,44.9,35.2,37.4z"/>
	<path class="st0" d="M84,53.3c-6.4,9.1-18.6,11.1-27.7,5.2c-9.2-6.2-12.4-17-6.9-25.8c-0.8,9.9,3,17,10.7,21.6
		C67.8,58.9,75.8,59.4,84,53.3z"/>
	<path class="st0" d="M61.6,29.8c1,10.4,8.7,16.1,18.9,14.1c-2.9,3.6-9.6,3.8-14.5,0.3C60.8,40.6,58.9,34.5,61.6,29.8z"/>
</g>
</svg>
