<?xml version="1.0" encoding="utf-8"?>
<!-- Generator: Adobe Illustrator 21.0.0, SVG Export Plug-In . SVG Version: 6.00 Build 0)  -->
<svg version="1.1" id="Capa_1" xmlns="http://www.w3.org/2000/svg" xmlns:xlink="http://www.w3.org/1999/xlink" x="0px" y="0px"
	 viewBox="0 0 115 107" style="enable-background:new 0 0 115 107;" xml:space="preserve">
<style type="text/css">
	.st0{fill:#666666;}
</style>
<title>tech-icon1</title>
<g>
	<path class="st0" d="M80.9,28.9c0,15.9,0,31.8,0,47.6c-15.9,0-31.7,0-47.6,0c0-15.9,0-31.8,0-47.6C49.2,28.9,65.1,28.9,80.9,28.9z
		 M53.5,70.5c0-12,0-24,0-35.9c-4.5,0-8.9,0-13.4,0c0,12,0,24,0,35.9C44.6,70.5,49,70.5,53.5,70.5z M58.6,52.5c0.2,0,0.2,0,0.3,0
		c1.4,0,2.7,0,4.2,0c0.5,0,0.8,0,1.3-0.1c2.2-0.3,4.1-1.2,5.6-2.9c3.8-4.1,2.9-10.6-1.7-13.6c-1.5-1-3.2-1.5-5-1.4
		c-1.4,0-2.9,0-4.3,0c-0.1,0-0.2,0-0.3,0C58.6,40.6,58.6,46.6,58.6,52.5z M77.2,70.5c-6.2-6-12.4-12-18.6-17.9c0,6,0,12,0,17.9
		C64.8,70.5,71,70.5,77.2,70.5z"/>
</g>
</svg>
