<?xml version="1.0" encoding="utf-8"?>
<!-- Generator: Adobe Illustrator 21.0.0, SVG Export Plug-In . SVG Version: 6.00 Build 0)  -->
<svg version="1.1" id="Capa_1" xmlns="http://www.w3.org/2000/svg" xmlns:xlink="http://www.w3.org/1999/xlink" x="0px" y="0px"
	 viewBox="0 0 115 107" style="enable-background:new 0 0 115 107;" xml:space="preserve">
<style type="text/css">
	.st0{fill:#666666;}
</style>
<title>tech-icon1</title>
<g>
	<path class="st0" d="M69.4,55.6c2.2-2,5.1-6.4,5.1-12.2c0.1,0,0.2-0.1,0.2-0.1c1.6,0,3.3,0,4.9,0c0.3,0,0.5,0.2,0.5,0.5
		c-0.1,3.9-1.1,7.6-3,11c-1.2,2.1-2.7,4-4.6,5.6c-0.2,0.2-0.2,0.3-0.1,0.7c2.9,5,5.7,10,8.5,14.9c0.1,0.2,0.2,0.4,0.2,0.6
		c0.1,2,0.2,3.8,0.3,5.8c0,0.1,0,0.1-0.1,0.2c-0.7-0.5-1.5-0.9-2.1-1.4c-0.8-0.5-1.6-1.1-2.4-1.6c-0.5-0.3-0.8-0.7-1.1-1.1
		c-2.6-4.7-5.3-9.3-7.9-13.9c-0.1-0.2-0.2-0.4-0.4-0.7c-3.2,1.6-6.5,2.4-10.1,2.4c-3.5,0-6.9-0.8-10.1-2.4c-0.5,0.8-1,1.6-1.4,2.4
		c-2.4,4.2-4.7,8.3-7.1,12.5c-0.1,0.2-0.3,0.3-0.5,0.5c-1.5,1-2.9,2-4.5,2.9c-0.2,0.1-0.2,0.2-0.5,0.3c0.1-1.5,0.2-2.8,0.2-4.2
		c0-1.6,0.6-2.9,1.3-4.2c4.4-7.4,8.7-14.9,12.9-22.4c0.7-1.4,1.6-2.7,2.4-4.1c0.2-0.3,0.2-0.6-0.2-0.7C49.1,46.7,49,45.9,49,45
		c0.1-2.9,0-5.6,0-8.5c0-2.7,1.8-4.5,4.4-4.6c1.2,0,1.2,0,1.2-1.3c0-1.2,0-2.4,0-3.8c0-0.6,0.1-0.7,0.7-0.7c1.5,0.1,2.9,0,4.3,0
		c0.5,0,0.7,0.1,0.7,0.7c0,1.5,0,2.9,0,4.3c0,0.6,0.2,0.8,0.7,0.7c1.3-0.1,2.5,0.2,3.6,1.1c0.9,0.8,1.4,1.8,1.4,3c0,3.3,0,6.5,0,9.8
		c0,0.5-0.3,0.7-0.7,1c-0.5,0.4-0.6,0.7-0.2,1.4c1.4,2.4,2.7,4.7,4.1,7.1C69.3,55.6,69.4,55.6,69.4,55.6z M54.4,51.8
		c-1.4,2.4-2.7,4.8-4.1,7.2c4.1,2.3,10.6,2.2,14.5,0c-1.4-2.4-2.7-4.7-4.1-7.2C58.2,53.5,57,53.5,54.4,51.8z M54.7,40.6
		c0,1.6,1.3,2.9,2.9,2.9c1.6,0,2.8-1.3,2.8-2.9c0-1.6-1.3-2.9-2.9-2.9S54.7,39.1,54.7,40.6z"/>
</g>
</svg>
