<?xml version="1.0" encoding="utf-8"?>
<!-- Generator: Adobe Illustrator 21.0.0, SVG Export Plug-In . SVG Version: 6.00 Build 0)  -->
<svg version="1.1" id="Capa_1" xmlns="http://www.w3.org/2000/svg" xmlns:xlink="http://www.w3.org/1999/xlink" x="0px" y="0px"
	 viewBox="0 0 115 107" style="enable-background:new 0 0 115 107;" xml:space="preserve">
<style type="text/css">
	.st0{fill:#666666;}
</style>
<title>tech-icon1</title>
<g>
	<path class="st0" d="M63.3,82.3c1.2-1.1,2.2-2.3,2.7-3.8c1.5-4-0.3-8.6-4.2-10.5c-4.3-2.1-8.8-4.3-13.1-6.5
		c-7.6-3.8-11.9-12.2-10.5-20.6c1.1-6.8,4.9-11.7,11-14.8c0.8-0.5,1.7-0.8,2.6-1.2c-0.1,0.1-0.2,0.2-0.2,0.2
		c-4.8,4-3.9,11.4,1.7,14.2c4.4,2.1,8.8,4.3,13.1,6.6c6.6,3.6,10.4,9.3,10.6,16.9C77.2,70.9,73.4,77,66.1,81
		C65.2,81.4,64.2,81.8,63.3,82.3z"/>
</g>
</svg>
