<?xml version="1.0" encoding="utf-8"?>
<!-- Generator: Adobe Illustrator 21.0.0, SVG Export Plug-In . SVG Version: 6.00 Build 0)  -->
<svg version="1.1" id="Capa_1" xmlns="http://www.w3.org/2000/svg" xmlns:xlink="http://www.w3.org/1999/xlink" x="0px" y="0px"
	 viewBox="0 0 115 107" style="enable-background:new 0 0 115 107;" xml:space="preserve">
<style type="text/css">
	.st0{fill:#666666;}
</style>
<title>tech-icon1</title>
<g>
	<polygon class="st0" points="70.9,45.9 44.4,45.9 37.7,48.8 57.6,57.5 77.6,48.8 	"/>
	<path class="st0" d="M65.5,66.3c-0.8,0-1.5-0.3-2-0.9l-4.8-4.7v19.7l19.9-8.3c0.3-0.2,0.5-0.5,0.5-0.8V60.8L66.6,66
		C66.2,66.2,65.8,66.3,65.5,66.3z"/>
	<path class="st0" d="M79.7,50l-20.4,8.8l5.5,5.2c0.2,0.2,0.6,0.3,0.9,0.2l18.5-7.8c0.3-0.1,0.5-0.4,0.5-0.6c0.1-0.3,0-0.6-0.2-0.9
		L79.7,50z"/>
	<path class="st0" d="M49.8,66.3c-0.4,0-0.8-0.1-1.1-0.2l-12.5-5.2v10.6c0,0.4,0.2,0.7,0.5,0.8l19.9,8.3V60.8l-4.9,4.7
		C51.2,66,50.5,66.3,49.8,66.3z"/>
	<path class="st0" d="M50.4,64.1l5.5-5.2L35.5,50l-4.8,5c-0.2,0.2-0.3,0.5-0.2,0.9c0.1,0.3,0.2,0.5,0.5,0.6l18.5,7.8
		C49.8,64.4,50.2,64.3,50.4,64.1z"/>
	<path class="st0" d="M30.9,41.1c-0.3,0.1-0.5,0.4-0.5,0.6c-0.1,0.3,0,0.6,0.2,0.9l4.8,5.1l4.4-1.9c-1.6-0.5-2.7-2-2.7-3.7v-3.5
		L30.9,41.1z"/>
	<path class="st0" d="M59.5,38.1v-5.8c0-1.1-0.9-1.9-1.9-1.9h-0.9v9.7h0.9C58.7,40.1,59.5,39.2,59.5,38.1z"/>
	<path class="st0" d="M44.2,44h29.9c1.1,0,1.9-0.9,1.9-1.9V28.4c0-1.1-0.9-1.9-1.9-1.9H41.1c-1.1,0-1.9,0.9-1.9,1.9V42
		c0,1.1,0.9,1.9,1.9,1.9L44.2,44L44.2,44z M63.4,29.4c0-0.5,0.5-0.9,0.9-0.9c0.5,0,0.9,0.5,0.9,0.9v3.1l3.1-3.7
		c0.3-0.4,0.9-0.5,1.4-0.2c0.4,0.3,0.5,0.9,0.2,1.4l0,0l-4.4,5.2l4.4,5.2c0.3,0.4,0.3,1-0.2,1.4c-0.4,0.3-1,0.3-1.4-0.2L65.3,38v3.1
		c0,0.5-0.5,0.9-0.9,0.9c-0.5,0-0.9-0.5-0.9-0.9V29.4z M54.7,29.4c0-0.5,0.5-0.9,0.9-0.9h1.9c2.2,0,3.9,1.7,3.9,3.9v5.8
		c0,2.2-1.7,3.9-3.9,3.9h-1.9c-0.5,0-0.9-0.5-0.9-0.9V29.4z M48.9,36.2c-2.2,0-3.9-1.7-3.9-3.9s1.7-3.9,3.9-3.9
		c2.2,0,3.9,1.7,3.9,3.9c0,0.5-0.5,0.9-0.9,0.9c-0.5,0-0.9-0.5-0.9-0.9c0-1.1-0.9-1.9-1.9-1.9c-1.1,0-1.9,0.9-1.9,1.9
		c0,1.1,0.9,1.9,1.9,1.9c2.2,0,3.9,1.7,3.9,3.9S51.1,42,48.9,42c-2.2,0-3.9-1.7-3.9-3.9c0-0.5,0.5-0.9,0.9-0.9
		c0.5,0,0.9,0.5,0.9,0.9c0,1.1,0.9,1.9,1.9,1.9c1.1,0,1.9-0.9,1.9-1.9C50.8,37,50,36.2,48.9,36.2z"/>
	<path class="st0" d="M84.6,42.7c0.2-0.2,0.3-0.5,0.2-0.9c-0.1-0.3-0.2-0.5-0.5-0.6L78,38.5V42c0,1.7-1.1,3.2-2.7,3.7l4.4,1.9
		L84.6,42.7z"/>
</g>
</svg>
