<?xml version="1.0" encoding="utf-8"?>
<!-- Generator: Adobe Illustrator 23.0.3, SVG Export Plug-In . SVG Version: 6.00 Build 0)  -->
<svg version="1.1" id="Layer_1" xmlns="http://www.w3.org/2000/svg" xmlns:xlink="http://www.w3.org/1999/xlink" x="0px" y="0px"
	 viewBox="0 0 100 100" style="enable-background:new 0 0 100 100;" xml:space="preserve">
<style type="text/css">
	.st0{stroke:#000000;stroke-miterlimit:10;}
</style>
<title>3</title>
<g>
	<g>
		<g>
			<path class="st0" d="M62.7,20.4H37.3c-9.3,0-17,7.6-17,17v25.4c0,9.3,7.6,17,17,17h25.4c9.3,0,17-7.6,17-17V37.3
				C79.6,28,72,20.4,62.7,20.4z M78.2,62.7c0,8.5-6.9,15.5-15.5,15.5H37.3c-8.5,0-15.5-6.9-15.5-15.5V37.3c0-8.5,6.9-15.5,15.5-15.5
				h25.4c8.5,0,15.5,6.9,15.5,15.5L78.2,62.7L78.2,62.7z"/>
		</g>
	</g>
	<g>
		<g>
			<path class="st0" d="M50.5,34c-8.9,0-16.1,7.2-16.1,16.1c0,8.9,7.2,16.1,16.1,16.1S66.6,59,66.6,50.1C66.6,41.2,59.3,34,50.5,34z
				 M50.5,64.7c-8.1,0-14.6-6.6-14.6-14.6s6.6-14.6,14.6-14.6S65.1,42,65.1,50.1S58.5,64.7,50.5,64.7z"/>
		</g>
	</g>
	<g>
		<g>
			<path class="st0" d="M66.8,27.3c-2.2,0-4,1.8-4,4s1.8,4,4,4c2.2,0,4-1.8,4-4S69,27.3,66.8,27.3z M66.8,33.8
				c-1.4,0-2.5-1.1-2.5-2.5s1.1-2.5,2.5-2.5s2.5,1.1,2.5,2.5C69.3,32.6,68.2,33.8,66.8,33.8z"/>
		</g>
	</g>
</g>
</svg>
