<svg id="Layer_1" data-name="Layer 1" xmlns="http://www.w3.org/2000/svg" viewBox="0 0 100 100"><title>2</title><path d="M66.59,16.72a80.26,80.26,0,0,0-8.82-.45c-9.48,0-15.36,6-15.36,15.76v7.52H33.46a.82.82,0,0,0-.81.82v11.3a.82.82,0,0,0,.81.82h8.95V80.68a.82.82,0,0,0,.81.82H54.89a.82.82,0,0,0,.82-.82V52.49h8.93a.81.81,0,0,0,.8-.71L66.9,40.47a.79.79,0,0,0-.2-.64.8.8,0,0,0-.61-.28H55.71v-6.4c0-3,.76-4.69,4.79-4.69h6a.82.82,0,0,0,.81-.82V17.53A.82.82,0,0,0,66.59,16.72Zm-.92,10.11H60.5c-5.66,0-6.42,3.19-6.42,6.32v7.22a.81.81,0,0,0,.81.81H65.16l-1.24,9.68h-9a.81.81,0,0,0-.81.81v28.2H44V51.67a.82.82,0,0,0-.82-.81H34.28V41.18h8.94a.82.82,0,0,0,.82-.81V32c0-8.85,5.13-14.13,13.72-14.13,3.38,0,6.39.21,7.91.36v8.57Z"/></svg>