<svg id="Layer_1" data-name="Layer 1" xmlns="http://www.w3.org/2000/svg" viewBox="0 0 100 100"><title>3</title><path d="M30.05,19.52a7.65,7.65,0,0,0-7.74,7.64A7.67,7.67,0,0,0,24.6,32.6,7.29,7.29,0,0,0,30,34.79h.19a7.25,7.25,0,0,0,5.16-2.19,7.7,7.7,0,0,0,2.3-5.44,7.16,7.16,0,0,0-2.2-5.36A7.32,7.32,0,0,0,30.05,19.52ZM34,31.28a5.23,5.23,0,0,1-4,1.62,5.76,5.76,0,0,1-4-1.62,5.57,5.57,0,0,1-1.73-4.11,5.74,5.74,0,0,1,5.84-5.74A5.57,5.57,0,0,1,34,23.06a5.71,5.71,0,0,1,1.72,4.11A5.54,5.54,0,0,1,34,31.28Z"/><path d="M33.76,36.72H26a2.79,2.79,0,0,0-2.77,2.87V73a2.94,2.94,0,0,0,2.87,2.87h7.65a2.92,2.92,0,0,0,2.86-2.77V39.59A3,3,0,0,0,33.76,36.72Zm1,36.41a.94.94,0,0,1-.95.86H26.13a1,1,0,0,1-1-.95V39.59a1,1,0,0,1,.87-1h7.74a1,1,0,0,1,.95,1V73.13Z"/><path d="M66.26,35.77h-2A12.87,12.87,0,0,0,54.7,40V38.63a2.06,2.06,0,0,0-1.92-1.91H43.23a2,2,0,0,0-1.92,1.81V74.18a1.9,1.9,0,0,0,1.92,1.73H53.74a1.89,1.89,0,0,0,1.92-1.73V53.54a5.38,5.38,0,0,1,5.25-5.63,5.59,5.59,0,0,1,4,1.62,5,5,0,0,1,1.33,3.92V74a2.06,2.06,0,0,0,1.92,1.92h9.55A2.07,2.07,0,0,0,79.64,74V49.34A13.28,13.28,0,0,0,66.26,35.77ZM77.73,73.9l-.1.1H68.27l-.1-20.55a7,7,0,0,0-1.82-5.25A7.52,7.52,0,0,0,61,46a7.38,7.38,0,0,0-7.17,7.55V74H43.32V38.63h9.46l.1.11v6l2.58-2.58.1-.1a10.91,10.91,0,0,1,8.79-4.4h2A11.4,11.4,0,0,1,77.72,49.34V73.9Z"/></svg>