<svg id="Layer_1" data-name="Layer 1" xmlns="http://www.w3.org/2000/svg" viewBox="0 0 100 100"><title>4</title><path d="M68.85,24.71A24.1,24.1,0,0,0,52,18.27c-10,0-16.18,4.1-19.58,7.54a22.25,22.25,0,0,0-6.59,15.42c0,7,2.91,12.32,7.77,14.3a2.08,2.08,0,0,0,1.76,0,2.11,2.11,0,0,0,1.08-1.41c.07-.25.17-.67.29-1.12.16-.64.33-1.34.43-1.73a2.45,2.45,0,0,0-.67-2.69,9.52,9.52,0,0,1-2.15-6.45c0-10.53,8.6-16.21,16.68-16.21,8.62,0,14,4.91,14,12.81C65,49,60.49,56.8,54.53,56.8a5,5,0,0,1-4-1.84,4.61,4.61,0,0,1-.81-4c.38-1.6.89-3.27,1.39-4.89.91-2.93,1.77-5.7,1.77-7.89,0-3.71-2.2-6.12-5.59-6.12-4.28,0-7.63,4.39-7.63,10a15,15,0,0,0,1.09,5.7L36.22,66.8c-1.15,4.88-.58,10.64-.14,13.64l0,.15a1.22,1.22,0,0,0,.92,1,1.25,1.25,0,0,0,.32,0,1.28,1.28,0,0,0,1-.5l.08-.1c1.49-1.91,5.11-6.87,6.46-11.79.32-1.15,1.47-5.66,2.09-8.14a11.87,11.87,0,0,0,8.32,3.39C66.86,64.52,75.25,54,75.25,39.4A20.52,20.52,0,0,0,68.85,24.71ZM55.3,62.93c-3.67,0-6.94-2-8-4a.81.81,0,0,0-.8-.42.8.8,0,0,0-.67.6c0,.08-2.07,8.19-2.5,9.74-1.18,4.28-4.22,8.66-5.81,10.75a36.6,36.6,0,0,1,.2-12.43c.68-2.89,4.57-19.35,4.57-19.35a.8.8,0,0,0-.06-.53A13,13,0,0,1,41.22,42c0-4.71,2.66-8.39,6.05-8.39,2.95,0,4,2.34,4,4.53,0,2-.82,4.61-1.69,7.42-.51,1.64-1,3.34-1.43,5a6.19,6.19,0,0,0,1.11,5.36,6.62,6.62,0,0,0,5.27,2.45c6.86,0,12-8.46,12-19.67,0-8.74-6.11-14.4-15.56-14.4-8.85,0-18.27,6.24-18.27,17.8a11,11,0,0,0,2.53,7.47c.53.62.51.67.35,1.26-.1.39-.28,1.1-.44,1.75-.11.44-.22.86-.28,1.11a.65.65,0,0,1-.25.39.56.56,0,0,1-.47,0c-4.3-1.76-6.77-6.44-6.77-12.84,0-14.74,14.37-21.38,24.57-21.38,13.58,0,21.69,9.94,21.69,19.55C73.67,53.26,66.11,62.93,55.3,62.93Z"/></svg>