<svg id="Layer_1" data-name="Layer 1" xmlns="http://www.w3.org/2000/svg" viewBox="0 0 100 100"><title>5</title><path d="M82,31.1a.78.78,0,0,0-.88-.15A11.61,11.61,0,0,1,78.05,32a10.22,10.22,0,0,0,2.32-5.76.79.79,0,0,0-.35-.77.78.78,0,0,0-.83,0,14.53,14.53,0,0,1-5.83,2.45,14.42,14.42,0,0,0-10.27-4.34A14.62,14.62,0,0,0,48.62,38.32a16.49,16.49,0,0,0,.17,2.33c-9.36-.72-16.3-4.9-23.76-14.22a.78.78,0,0,0-.67-.29.79.79,0,0,0-.62.39,15,15,0,0,0-1.95,7.4A14.84,14.84,0,0,0,26.07,44.4a12.44,12.44,0,0,1-3.23-1.28.8.8,0,0,0-.78,0,.76.76,0,0,0-.38.67V44A14.79,14.79,0,0,0,30.1,57.36a12.87,12.87,0,0,1-2.69-.23.8.8,0,0,0-.68.19.82.82,0,0,0-.25.66c.67,6,4.66,9.3,8.69,10.16-4.1,3.07-7.35,4.54-12.7,4.54h-.19a6.35,6.35,0,0,1-1.22-.06l-.4-.05a.78.78,0,0,0-.8.44.8.8,0,0,0,.16.9c4.82,4.68,9.82,6.51,17.85,6.51,24.88,0,39.75-20.58,39.75-40.48,0-.48,0-1,0-1.43,2.48-1.9,3.15-3.38,4.42-6.22l.14-.31A.8.8,0,0,0,82,31.1Zm-5.66,6.4a.77.77,0,0,0-.31.67q0,.87,0,1.77c0,24.36-19.41,38.92-38.19,38.92-6.75,0-11.08-1.28-15.13-4.61,6.25-.06,10-2.09,14.91-6a.77.77,0,0,0,.25-.86.78.78,0,0,0-.72-.53c-5.16-.1-8.16-4-9-8a14.05,14.05,0,0,0,5.45-.42.77.77,0,0,0,.58-.77.79.79,0,0,0-.63-.74A13.15,13.15,0,0,1,23.28,45.09a14.42,14.42,0,0,0,5.35,1.24.79.79,0,0,0,.77-.54.76.76,0,0,0-.3-.88,13.38,13.38,0,0,1-4.53-16.57c7.75,9.37,15.1,13.42,25.14,13.94a.76.76,0,0,0,.63-.28.79.79,0,0,0,.17-.67,13.81,13.81,0,0,1-.33-3A13.05,13.05,0,0,1,63.09,25.15a12.82,12.82,0,0,1,9.42,4.15.81.81,0,0,0,.73.24,14.87,14.87,0,0,0,5.27-1.85,8.16,8.16,0,0,1-3.24,4.81.77.77,0,0,0-.22.91.76.76,0,0,0,.81.47l.49-.06a14.58,14.58,0,0,0,3.56-.69A9.8,9.8,0,0,1,76.33,37.5Z"/></svg>