<?xml version="1.0" encoding="utf-8"?>
<!-- Generator: Adobe Illustrator 21.0.0, SVG Export Plug-In . SVG Version: 6.00 Build 0)  -->
<svg version="1.1" id="Layer_1" xmlns="http://www.w3.org/2000/svg" xmlns:xlink="http://www.w3.org/1999/xlink" x="0px" y="0px"
	 viewBox="0 0 100 100" style="enable-background:new 0 0 100 100;" xml:space="preserve">
<style type="text/css">
	.st0{fill:#8B5C39;}
	.st1{fill:#4498D0;}
	.st2{fill:#3E8CC6;}
	.st3{fill:#FCB632;}
	.st4{fill:#8B5D3A;}
	.st5{fill:#E4E4E4;}
	.st6{fill:#4398D0;}
	.st7{fill:#8C5D3A;}
	.st8{fill:#DE5343;}
	.st9{fill:#744C31;}
	.st10{fill:#734A2D;}
	.st11{fill:#72492E;}
</style>
<g>
	<path class="st0" d="M86.6,63c0.5,2.6,0.9,5.3,1.4,8c0.3,1.8,0.6,3.7,0.9,5.5c0,0.1,0.1,0.1,0.1,0.2c0,0.4,0,0.8,0,1.2
		c-0.1,0-0.1,0.1-0.2,0.1c-0.3,0.5-0.8,0.8-1.4,0.7c-0.7-0.1-1-0.6-1.1-1.2c-0.7-4.2-1.4-8.4-2.1-12.6c-0.1-0.6-0.2-1.2-0.3-1.8
		C84.9,63,85.7,63,86.6,63z"/>
	<path class="st1" d="M41.4,54.5c-2.2-2-4.5-3.9-6.7-5.9c-0.9-0.8-1.9-1.7-2.8-2.5c-1-0.9-2.1-1.7-3-2.7c1.7,0,3.4,0,5.1-0.1
		c0.9,0.2,1.8,0.2,2.7,0c4.3,0,8.7,0,13,0c0.9,0.2,1.8,0.2,2.7,0c4.3,0,8.7,0,13,0c0.5,0.2,1,0,1.5,0.1c-0.3,0.5-0.8,0.8-1.2,1.1
		c-2.7,2.1-5.7,3.9-8.9,5.3c-4.1,1.8-8.4,3.2-12.9,4C43.1,54,42.2,54,41.4,54.5z"/>
	<path class="st2" d="M41.4,54.5c0.8-0.5,1.7-0.4,2.6-0.6c4.4-0.9,8.7-2.2,12.9-4c3.2-1.4,6.1-3.2,8.9-5.3c0.4-0.3,0.9-0.6,1.2-1.1
		c0.4-0.1,0.8,0.1,1.2-0.1c1.7,0,3.4,0,5.1,0.1c-0.2,0.2-0.5,0.5-0.7,0.7c-1.7,1.5-3.4,2.9-5,4.5c-1.4,1.2-2.8,2.4-4.2,3.6
		c-3.9,3.5-7.9,7-11.8,10.5c-0.2,0.2-0.4,0.4-0.7,0.1C47.6,60,44.5,57.3,41.4,54.5C41.4,54.5,41.4,54.5,41.4,54.5z"/>
	<path class="st1" d="M15.7,61.4c-1-0.6-1.4-1.6-1.5-2.7c-0.3-6.9-0.7-13.8-1-20.6c0-0.5-0.1-0.9,0-1.4c0.1-1.3,1.2-2.4,2.5-2.4
		c1.4-0.1,2.6,0.8,2.7,2.2c0.2,2,0.3,4,0.4,6c0.3,4.5,0.5,9,0.8,13.5c0,0.5,0.2,0.6,0.7,0.6c2,0,3.9,0,5.9,0c0,1.7,0,3.5,0,5.2
		c-2.6,0-5.2,0-7.8,0C17.5,61.7,16.5,61.8,15.7,61.4z"/>
	<path class="st1" d="M83.7,61.7c-2.6,0-5.2,0-7.7,0c0-1.7,0-3.5,0-5.2c1.9,0,3.9,0,5.8,0c0.5,0,0.7-0.1,0.8-0.7
		c0.3-6.2,0.7-12.4,1.1-18.6c0-0.5,0.1-1.1,0.3-1.6c0.5-1.1,1.8-1.6,2.9-1.4c1.2,0.3,2.1,1.3,2,2.6c-0.1,2.5-0.2,5-0.3,7.5
		c-0.1,2.5-0.3,4.9-0.4,7.4c-0.1,2.4-0.2,4.8-0.3,7.3c0,1.1-0.5,1.9-1.4,2.4C85.5,61.8,84.6,61.7,83.7,61.7z"/>
	<path class="st3" d="M52.4,43.3c-0.9,0.2-1.8,0.2-2.7,0c0-2,0-4,0-6c0-0.4-0.1-0.5-0.5-0.5c-0.8,0-1.5,0-2.3,0
		c-2-0.1-3.6-1.6-3.7-3.6c-0.1-1.7,0-3.4,0-5c0-0.4,0.1-0.5,0.5-0.5c0,0,0.1,0,0.1,0c2,0,2,0,2,2c0,1,0,2,0,3c0,1.1,0.5,1.5,1.5,1.6
		c0.6,0,1.2,0,1.8,0c0.5,0,0.6-0.1,0.6-0.6c0-1.8,0-3.5,0-5.3c0-0.6,0.2-0.8,0.7-0.8c1.9,0,1.9,0,1.9,1.9c0,1.4,0,2.8,0,4.2
		c0,0.5,0.1,0.6,0.6,0.6c0.6,0,1.2,0,1.8,0c1.1,0,1.5-0.5,1.5-1.6c0-1.5,0-2.9,0-4.4c0-0.5,0.1-0.6,0.6-0.6c2,0,2-0.1,2,2
		c0,1,0,2.1,0,3.1c0,2.5-1.6,4.1-4.1,4.1c-0.6,0-1.3,0-1.9,0c-0.4,0-0.5,0.1-0.5,0.5C52.4,39.3,52.4,41.3,52.4,43.3z"/>
	<path class="st4" d="M75.9,56.5c0,1.7,0,3.5,0,5.2c0,2.7,0,5.4,0,8.1c0,2.3,0,4.7,0,7c0,0.3,0,0.6-0.1,0.9c-0.1,0.7-0.6,1-1.2,1
		c-0.7,0-1.1-0.3-1.3-1c-0.1-0.3-0.1-0.6-0.1-0.9c0-5,0-10.1,0-15.1c0-1.7,0-3.5,0-5.2c0-2.2,0-4.3,0.1-6.5c0.9,0,1.7,0,2.6,0
		C75.9,52.2,75.9,54.3,75.9,56.5z"/>
	<path class="st4" d="M26.1,61.7c0-1.7,0-3.5,0-5.2c0-2.2,0-4.3,0.1-6.5c0.9,0,1.7,0,2.6,0c0,2.2,0,4.3,0.1,6.5c0,1.7,0,3.5,0,5.2
		c0,5,0,10,0,15c0,1.3-0.4,1.9-1.3,2c-0.9,0-1.4-0.7-1.4-2c0-4.7,0-9.5,0-14.2C26.1,62.3,26.1,62,26.1,61.7z"/>
	<path class="st5" d="M36.6,43.3c-0.9,0.2-1.8,0.2-2.7,0c0-1.7,0-3.4,0-5c0-0.2,0-0.5-0.2-0.7c-0.8-0.6-1-1.5-1.1-2.5
		c-0.1-1,0-2,0-3c0-0.5,0.2-0.6,0.6-0.6c1.4,0,2.8,0,4.2,0c0.5,0,0.6,0.2,0.6,0.6c0,1.1,0,2.2,0,3.3c0,0.8-0.3,1.5-0.9,1.9
		c-0.3,0.2-0.4,0.5-0.4,0.9C36.6,40,36.6,41.7,36.6,43.3z"/>
	<path class="st5" d="M68.1,43.3c-0.4,0.2-0.8,0-1.2,0.1c-0.5-0.1-1,0.1-1.5-0.1c0-1.7,0-3.3,0-5c0-0.3-0.1-0.6-0.3-0.8
		c-0.7-0.6-1-1.3-1-2.2c0-1,0-2,0-3c0-0.5,0.1-0.7,0.7-0.7c1.3,0,2.7,0,4,0c0.5,0,0.7,0.1,0.7,0.7c-0.1,1.3,0.1,2.5-0.1,3.8
		c-0.1,0.6-0.3,1.1-0.8,1.5c-0.3,0.3-0.4,0.6-0.4,1C68.1,40,68.1,41.7,68.1,43.3z"/>
	<path class="st6" d="M73.2,56.5c0,1.7,0,3.5,0,5.2c-1.7,0-3.4,0-5.2,0c0,0-0.1,0-0.1,0c-0.8-0.1-1.7,0-2.5-0.3
		c-1-0.8-1.6-1.7-1.2-3c0.3-1.2,1.3-1.9,2.5-1.9C68.9,56.5,71.1,56.5,73.2,56.5z"/>
	<path class="st6" d="M28.8,61.7c0-1.7,0-3.5,0-5.2c2,0,4,0,6.1,0c1.5,0,2.5,0.5,2.9,1.7c0.4,1.2,0.1,2.2-1.1,3.2
		c-0.8,0.4-1.7,0.3-2.5,0.3c0,0-0.1,0-0.1,0C32.2,61.7,30.5,61.7,28.8,61.7z"/>
	<path class="st0" d="M18.1,63c-0.6,3.5-1.1,6.9-1.7,10.4c-0.2,1.4-0.4,2.7-0.7,4.1c-0.1,0.8-0.8,1.4-1.6,1.2
		c-0.7-0.1-1.2-0.8-1.1-1.6c0.8-4.6,1.5-9.2,2.3-13.8c0-0.1,0.1-0.2,0.1-0.3C16.3,63,17.2,63,18.1,63z"/>
	<path class="st7" d="M36.6,63c0,4.7,0,9.5,0,14.2c0,0.9-0.5,1.4-1.3,1.5c-0.7,0-1.3-0.5-1.4-1.4c0-0.4,0-0.9,0-1.3
		c0-4.3,0-8.6,0-13C34.9,63,35.7,63,36.6,63z"/>
	<path class="st7" d="M68,63c0,4.7,0,9.4,0,14.2c0,0.9-0.6,1.6-1.4,1.5c-0.7,0-1.3-0.6-1.3-1.5c0-4.7,0-9.5,0-14.2
		C66.3,63,67.2,63,68,63z"/>
	<path class="st0" d="M28.9,43.4c0.9,1,2,1.8,3,2.7c0.9,0.9,1.9,1.7,2.8,2.5c-2,0-3.9,0-5.9,0c-0.9,0-1.8,0-2.6-0.3
		c-0.6-0.6-1.2-1.2-1.3-2.2c-0.1-1.4,0.8-2.6,2.2-2.8C27.7,43.4,28.3,43.4,28.9,43.4z"/>
	<path class="st0" d="M67.5,48.6c1.6-1.6,3.4-3,5-4.5c0.3-0.2,0.5-0.5,0.7-0.7c0.5,0,1.1,0,1.6,0c1.1,0.1,1.9,0.7,2.2,1.8
		c0.3,1,0.1,2-0.7,2.7c-0.1,0.1-0.3,0.3-0.4,0.4c-0.9,0.3-1.7,0.3-2.6,0.3C71.3,48.6,69.4,48.6,67.5,48.6z"/>
	<path class="st8" d="M44.5,22.4c1.3,0,1.3,0,1.3,1.2c0,1.4,0,1.4-1.4,1.4c-1.2,0-1.2,0-1.2-1.2c0,0,0,0,0-0.1
		C43.2,22.4,43.2,22.4,44.5,22.4z"/>
	<path class="st8" d="M58.9,23.7c0,1.3,0,1.3-1.4,1.3c-1.3,0-1.3,0-1.3-1.3c0-1.4,0-1.4,1.4-1.4C58.9,22.4,58.9,22.4,58.9,23.7z"/>
	<path class="st8" d="M51,25.1c-1.3,0-1.3,0-1.3-1.4c0-1.3,0-1.3,1.3-1.3c1.4,0,1.4,0,1.4,1.3C52.3,25.1,52.3,25.1,51,25.1z"/>
	<path class="st9" d="M18.1,63c-0.9,0-1.8,0-2.6,0c0.1-0.5,0.2-1.1,0.2-1.6c0.9,0.4,1.8,0.2,2.7,0.3C18.2,62.2,18.2,62.6,18.1,63z"
		/>
	<path class="st9" d="M83.7,61.7c0.9-0.1,1.8,0.1,2.7-0.3c0.1,0.5,0.2,1.1,0.3,1.6c-0.9,0-1.8,0-2.6,0
		C83.7,62.6,83.8,62.2,83.7,61.7z"/>
	<path class="st10" d="M73.3,48.7c0.9,0,1.8,0,2.6-0.3c0,0.5,0.1,1.1,0,1.6c-0.9,0-1.7,0-2.6,0C73.3,49.5,73.3,49.1,73.3,48.7z"/>
	<path class="st10" d="M26.1,48.4c0.9,0.3,1.7,0.3,2.6,0.3c0,0.4,0,0.9,0,1.3c-0.9,0-1.7,0-2.6,0C26.1,49.4,26.1,48.9,26.1,48.4z"/>
	<path class="st11" d="M36.6,63c-0.9,0-1.7,0-2.6,0c0-0.4,0-0.8,0-1.2c0,0,0.1-0.1,0.1-0.1c0.8-0.1,1.7,0,2.5-0.3
		C36.6,62,36.6,62.5,36.6,63z"/>
	<path class="st11" d="M68,63c-0.9,0-1.7,0-2.6,0c0-0.5,0-1.1,0-1.6c0.8,0.4,1.7,0.3,2.5,0.3c0,0,0.1,0.1,0.1,0.1
		C68,62.3,68,62.6,68,63z"/>
	<path class="st7" d="M34.1,61.7c0,0-0.1,0.1-0.1,0.1c0,0,0-0.1,0-0.1C34,61.7,34.1,61.7,34.1,61.7z"/>
	<path class="st7" d="M68,61.9c0,0-0.1-0.1-0.1-0.1c0,0,0.1,0,0.1,0C68.1,61.8,68.1,61.8,68,61.9z"/>
</g>
</svg>
