<?xml version="1.0" encoding="utf-8"?>
<!-- Generator: Adobe Illustrator 21.0.0, SVG Export Plug-In . SVG Version: 6.00 Build 0)  -->
<svg version="1.1" id="Layer_1" xmlns="http://www.w3.org/2000/svg" xmlns:xlink="http://www.w3.org/1999/xlink" x="0px" y="0px"
	 viewBox="0 0 100 100" style="enable-background:new 0 0 100 100;" xml:space="preserve">
<style type="text/css">
	.st0{fill:#6FD8D8;}
	.st1{fill:#EA4F96;}
	.st2{fill:#B9416F;}
	.st3{fill:#AEF8F9;}
</style>
<g>
	<path class="st0" d="M87.8,25.2c-0.2,0.1-0.2,0.4-0.3,0.6c-1,2.8-4.3,3.8-6.6,1.9c-0.5-0.4-0.7-0.3-1,0.1c-1,1-1.9,2-2.9,2.9
		c-0.3,0.3-0.4,0.5-0.1,0.9c1.7,2.6,2.7,5.4,3.2,8.4c0.6,4.1,0.2,8-1.4,11.8c-1.8,4.3-4.7,7.8-8.7,10.3c-1.6,1-3.2,1.8-5,2.2
		c0.5-2.1,1-4.3,0.9-6.5c0-1-0.1-2.1-0.1-3.1c1.2-0.7,2.1-1.6,3-2.6c3.9-4.5,4.2-11.8,0.7-16.5c-2.9-4-6.9-5.8-11.7-5.8
		c0-2.8,0-5.6,0-8.4c4.3-0.2,8.3,0.9,12,3.1c1.1,0.7,0.8,0.8,1.7-0.2c0.9-0.9,1.8-1.8,2.7-2.7c0.2-0.2,0.4-0.4,0.1-0.8
		c-2.1-2.6-1.1-5.7,2-6.9c0.1,0,0.2-0.1,0.3-0.2c2.8,0,5.7,0,8.5,0c1.5,0.4,2.5,1.3,2.9,2.9C87.8,19.5,87.8,22.3,87.8,25.2z"/>
	<path class="st1" d="M43.2,79.8c-2.6,0-5.1-0.6-7.5-1.5c-1.3-0.5-2.5-1.1-3.7-1.9c-0.4-0.3-0.6-0.3-1,0.1c-1,1-2,2-3,3
		c-0.3,0.3-0.3,0.5,0,0.9c1.4,1.7,1.3,4.1-0.2,5.7c-1.5,1.6-4,1.7-5.7,0.3c-0.4-0.3-0.6-0.3-1,0c-1.7,1.5-4.2,1.4-5.8-0.2
		c-1.6-1.6-1.7-4.1-0.1-5.8c0.3-0.3,0.4-0.5,0-0.9c-1.1-1.3-1.3-2.9-0.6-4.4c0.7-1.6,2.1-2.5,3.8-2.5c1,0,2,0.3,2.8,1
		c0.4,0.3,0.6,0.3,0.9,0c1-1,1.9-2,3-2.9c0.4-0.4,0.4-0.6,0.1-1c-1.7-2.7-2.8-5.7-3.2-8.8c-0.5-4.2,0-8.3,1.8-12.1
		c2.8-5.8,7.2-9.8,13.4-11.8c-0.2,0.9-0.4,1.7-0.6,2.6c-0.4,2.3-0.4,4.7-0.2,7.1c-1,0.7-1.9,1.5-2.8,2.4c-3.8,4.2-4.5,10.6-1.7,15.5
		c2.5,4.4,6.3,6.6,11.3,7.1C43.2,74.2,43.2,77,43.2,79.8z"/>
	<path class="st2" d="M43.2,79.8c0-2.8,0-5.6,0-8.4c0.9,0,1.8,0,2.7-0.2c3.9-0.7,7.1-2.6,9.2-6c1.7-2.5,2.4-5.3,2.1-8.4
		c-0.1-0.7-0.2-1.5-0.3-2.2c-1.5-5.8-6-9.6-12.1-10.3c-0.3-0.8-0.1-1.6,0-2.4c0.2-2.1,0.9-4.2,2.1-5.9c0.6,0.1,1.3,0.3,1.9,0.4
		c7.5,1.9,12.7,6.6,15.6,13.8c0.6,1.5,0.9,3,1.2,4.5c0,1,0.1,2.1,0.1,3.1c0.1,2.2-0.4,4.4-0.9,6.5c-0.9,2.6-2.1,5-3.8,7.1
		c-3.6,4.5-8.3,7.3-14.1,8.1C45.7,79.8,44.5,79.9,43.2,79.8z"/>
	<path class="st3" d="M57.3,56.8c0.2,3-0.4,5.8-2.1,8.4c-1.2-0.2-2.4-0.4-3.5-0.8c-4.2-1.4-7.7-3.7-10.4-7.1
		c-2.6-3.2-4.1-6.8-4.7-10.8c-0.3-2.4-0.3-4.7,0.2-7.1c0.2-0.9,0.4-1.7,0.6-2.6c0.7-2.1,1.6-4,2.9-5.8c3.4-4.9,8-8,13.9-9.2
		c1.2-0.3,2.5-0.4,3.7-0.3c0,2.8,0,5.6,0,8.4c-0.7,0.1-1.4,0.2-2.1,0.3c-3.6,0.8-6.5,2.7-8.6,5.9c-1.3,1.8-1.9,3.8-2.1,5.9
		c-0.1,0.8-0.3,1.6,0,2.4c0,0.6,0.1,1.2,0.2,1.8c0.6,3,2.2,5.6,4.5,7.5C51.7,55.6,54.3,56.7,57.3,56.8z"/>
</g>
</svg>
