<?xml version="1.0" encoding="utf-8"?>
<!-- Generator: Adobe Illustrator 21.0.0, SVG Export Plug-In . SVG Version: 6.00 Build 0)  -->
<svg version="1.1" id="Layer_1" xmlns="http://www.w3.org/2000/svg" xmlns:xlink="http://www.w3.org/1999/xlink" x="0px" y="0px"
	 viewBox="0 0 100 100" style="enable-background:new 0 0 100 100;" xml:space="preserve">
<style type="text/css">
	.st0{fill:#030202;}
	.st1{fill:#E0324E;}
	.st2{fill:#FCFCFC;}
	.st3{fill:#040303;}
	.st4{fill:#D6AB8A;}
</style>
<g>
	<path class="st0" d="M79.4,42c0,5-1.5,9.6-3.5,14c-3.4,7.5-8.2,14.1-13.5,20.4c-3.5,4.2-7.2,8.2-11.1,11.9c-1.2,1.2-1.9,1.2-3.1,0
		c-8.2-8-15.7-16.6-21.6-26.5c-2.7-4.5-4.9-9.2-5.9-14.4c-1.8-9.1,0.4-17.2,6.2-24.3c6.1-7.4,14.2-11,23.8-10.8
		C65.5,12.7,77.8,24.3,79.3,39C79.4,40,79.4,41,79.4,42z M76.2,42c0-1.4-0.1-2.8-0.4-4.2C73.7,24,60.6,14,46.7,15.8
		c-8.4,1.1-15,5.3-19.5,12.5c-3.3,5.4-4.6,11.2-3.6,17.5c0.8,4.6,2.6,8.8,4.8,12.8C34,68.5,41.4,77,49.3,85c0.5,0.5,0.7,0.1,1-0.2
		c3.9-3.8,7.5-7.9,10.9-12.1c4.7-5.8,9-11.9,12-18.8C75,50.1,76.2,46.2,76.2,42z"/>
	<path class="st1" d="M76.2,42c0,4.2-1.2,8.1-2.9,11.9c-3,6.9-7.3,13-12,18.8C57.9,77,54.2,81,50.3,84.8c-0.3,0.3-0.5,0.7-1,0.2
		C41.4,77,34,68.5,28.5,58.6c-2.2-4-4.1-8.2-4.8-12.8c-1-6.3,0.2-12.2,3.6-17.5c4.5-7.2,11.1-11.4,19.5-12.5
		c13.9-1.8,27,8.2,29.2,22.1C76.1,39.2,76.2,40.6,76.2,42z M49.8,64.2c12.7-0.1,22.7-10.3,22.7-23C72.4,28.8,62,18.6,49.6,18.8
		C37,18.9,27,29.1,27,41.7C27.1,54.1,37.4,64.3,49.8,64.2z"/>
	<path class="st0" d="M49.8,64.2C37.4,64.3,27.1,54.1,27,41.7c-0.1-12.6,10-22.9,22.6-23C62,18.6,72.4,28.8,72.5,41.3
		C72.5,53.9,62.4,64.1,49.8,64.2z M49.7,22C39,22,30.2,30.8,30.2,41.6C30.2,52.3,39,61,49.8,61c10.8,0,19.5-8.8,19.5-19.6
		C69.2,30.7,60.4,21.9,49.7,22z"/>
	<path class="st2" d="M49.7,22c10.7,0,19.5,8.7,19.5,19.5c0,10.8-8.7,19.6-19.5,19.6C39,61,30.2,52.3,30.2,41.6
		C30.2,30.8,39,22,49.7,22z M45.8,28.6c-5.7,0-9.9,4.9-9.2,10.4c0.3,2.2,1.3,4.1,2.6,5.8c2.5,3.5,5.7,6.3,9.2,8.8
		c1.1,0.8,1.6,0.8,2.7,0c1.9-1.3,3.7-2.7,5.3-4.3c2.4-2.3,4.6-4.7,5.8-7.8c2.7-6.4-1.8-13.1-8.8-13c-1.3,0-2.6,0.8-3.8,0.7
		C48.4,29.3,47.1,28.6,45.8,28.6z"/>
	<path class="st3" d="M45.8,28.6c1.3-0.1,2.5,0.6,3.8,0.7c1.2,0.1,2.5-0.7,3.8-0.7c6.9-0.1,11.4,6.6,8.8,13
		c-1.3,3.1-3.5,5.5-5.8,7.8c-1.6,1.6-3.4,3-5.3,4.3c-1.1,0.8-1.6,0.8-2.7,0c-3.5-2.5-6.7-5.3-9.2-8.8c-1.3-1.8-2.3-3.7-2.6-5.8
		C35.9,33.5,40.1,28.7,45.8,28.6z M45.8,31.8c-3,0-5.6,2.2-6.1,5.2c-0.3,2.1,0.5,3.9,1.6,5.5c2.1,3.2,5,5.7,8,8
		c0.3,0.2,0.5,0.2,0.8,0c0.8-0.7,1.7-1.3,2.5-2.1c2.5-2.2,4.8-4.5,6.3-7.5c0.7-1.4,1-2.9,0.6-4.5c-1-3.8-5.1-5.6-8.6-3.9
		c-0.9,0.4-1.6,0.5-2.5,0C47.7,32,46.8,31.9,45.8,31.8z"/>
	<path class="st4" d="M45.8,31.8c1,0,1.9,0.2,2.7,0.7c0.9,0.5,1.6,0.4,2.5,0c3.5-1.7,7.6,0.1,8.6,3.9c0.4,1.6,0.1,3.1-0.6,4.5
		c-1.5,3-3.8,5.3-6.3,7.5c-0.8,0.7-1.7,1.4-2.5,2.1c-0.3,0.2-0.5,0.3-0.8,0c-3-2.3-5.8-4.8-8-8c-1.1-1.7-2-3.4-1.6-5.5
		C40.2,34,42.8,31.8,45.8,31.8z"/>
</g>
</svg>
