<?xml version="1.0" encoding="utf-8"?>
<!-- Generator: Adobe Illustrator 21.0.0, SVG Export Plug-In . SVG Version: 6.00 Build 0)  -->
<svg version="1.1" id="Layer_1" xmlns="http://www.w3.org/2000/svg" xmlns:xlink="http://www.w3.org/1999/xlink" x="0px" y="0px"
	 viewBox="0 0 100 100" style="enable-background:new 0 0 100 100;" xml:space="preserve">
<style type="text/css">
	.st0{fill:#040303;}
	.st1{fill:#060606;}
	.st2{fill:#D9F2FD;}
	.st3{fill:#FCD6D1;}
	.st4{fill:#F928A0;}
	.st5{fill:#FCB2A7;}
	.st6{fill:#CC2F1B;}
	.st7{fill:#5F312C;}
	.st8{fill:#A25D42;}
	.st9{fill:#CFE6F1;}
	.st10{fill:#F1F1F1;}
	.st11{fill:#BFBFBF;}
	.st12{fill:#7F7F7F;}
	.st13{fill:#3F211D;}
	.st14{fill:#FEFEFE;}
</style>
<g>
	<path class="st0" d="M59.7,20c0.7,0.3,1.4,0.5,1.9,1.2c0.1,0.1,0.2,0.1,0.4,0.2c2.3,0.7,3,3.4,1.3,5.1c-0.4,0.4-0.1,0.4,0.1,0.6
		c2.1,1.8,2.8,4.7,1.8,7.3c-1,2.5-3.5,4.2-6.3,4.1c-2.6-0.1-5-1.8-5.8-4.3c-0.9-2.5-0.2-5.3,1.9-7c0.3-0.3,0.4-0.4,0-0.8
		c-1.5-1.5-0.9-4.1,1.1-4.9c0.4-0.2,0.7-0.3,1-0.6c0.3-0.4,0.9-0.5,1.3-0.8C58.9,20,59.3,20,59.7,20z M60.6,28.3
		c0.2-0.1,0.5-0.3,0.4-0.5c0-0.2-0.3-0.2-0.6-0.2c-1.9-0.8-4.8,0.3-5.6,3c-0.1,0.5,0.2,0.3,0.4,0.3C57.3,30.6,59.1,29.8,60.6,28.3z
		 M60.9,30.6c-0.3,0.2-0.7,0.4-1,0.7c-1.5,0.9-3,1.4-4.7,1.6c-0.3,0-0.4,0.1-0.4,0.4c0.5,2.3,3.4,4,5.7,3.1c1.6-0.4,2.6-1.4,3.1-2.8
		c0.6-1.6,0.3-3.1-0.7-4.4c-0.2-0.3-0.3-0.2-0.5,0C61.9,29.7,61.4,30.1,60.9,30.6z M59.2,25.6C59.2,25.6,59.2,25.6,59.2,25.6
		c0.6,0,1.3,0,1.9,0c0.7,0,1.2-0.5,1.3-1.2c0-0.6-0.4-1.1-1.1-1.3c-0.4-0.1-0.7-0.3-1-0.6c-0.6-0.9-1.5-0.9-2.1,0
		c-0.2,0.3-0.5,0.5-0.9,0.6c-0.8,0.1-1.2,0.7-1.2,1.3c0.1,0.7,0.6,1.1,1.4,1.1C58.1,25.6,58.6,25.6,59.2,25.6z"/>
	<path class="st0" d="M26.5,20c1,0.3,1.8,0.7,2.3,1.6c0.7,1.2,0.6,2.5,0.1,3.7c-0.9,2-2.6,3.3-4.4,4.4c-0.3,0.1-0.6,0.2-0.8,0
		c-1.9-1.1-3.6-2.5-4.5-4.5c-1-2.3-0.2-4.1,2.1-5.1c0,0,0.1-0.1,0.1-0.1c0.5,0,1,0,1.5,0c0.8,0.6,1.6,0.6,2.5,0
		C25.7,20,26.1,20,26.5,20z M24.1,22.7c-0.3,0-0.6-0.2-0.8-0.4c-0.6-0.5-1.2-0.6-1.8-0.3c-0.7,0.4-1,1-0.8,1.8
		c0.4,1.9,1.8,3.1,3.4,4c0.4-0.1,0.7-0.4,1-0.7c1.1-0.9,2.1-1.8,2.4-3.3c0.1-0.8-0.1-1.3-0.8-1.7c-0.6-0.4-1.2-0.3-1.8,0.2
		C24.7,22.5,24.4,22.7,24.1,22.7z"/>
	<path class="st0" d="M78.4,20c1,0.3,1.8,0.7,2.3,1.6c0.7,1.2,0.6,2.5,0.1,3.7c-0.9,2-2.6,3.3-4.4,4.4c-0.3,0.1-0.6,0.2-0.8,0
		c-1.9-1.1-3.6-2.5-4.5-4.5c-1-2.3-0.2-4.1,2.1-5.1c0,0,0.1-0.1,0.1-0.1c0.5,0,1,0,1.5,0c0.8,0.6,1.6,0.6,2.5,0
		C77.6,20,78,20,78.4,20z M75.9,22.7c-0.3,0-0.6-0.2-0.8-0.4c-0.6-0.5-1.2-0.6-1.8-0.3c-0.7,0.4-1,1-0.8,1.8c0.4,1.9,1.8,3.1,3.4,4
		c0.4-0.1,0.7-0.4,1-0.7c1.1-0.9,2.1-1.8,2.4-3.3c0.1-0.8-0.1-1.3-0.8-1.7c-0.6-0.4-1.2-0.3-1.8,0.2C76.5,22.5,76.3,22.7,75.9,22.7z
		"/>
	<path class="st1" d="M39.8,62.1c0,0.2,0,0.4,0,0.7c0,5.9,0,11.8,0,17.8c0,1.1-0.1,1.2-1.1,1.6c-1,0.3-2,0.7-3,1
		c-0.6,0.2-1.2,0-1.3-0.5c-0.2-0.5,0.1-1,0.7-1.2c0.8-0.3,1.7-0.6,2.5-0.8c0.3-0.1,0.4-0.2,0.4-0.6c0-6.3,0-12.6,0-18.9
		c0-0.2-0.1-0.4-0.2-0.6c-0.1-0.1-0.2-0.2-0.3-0.4c-0.4-1-1.1-1.5-2.2-1.1c-0.5,0.1-0.9-0.3-0.9-0.8c0-0.2,0-0.5,0-0.7
		c0-4,0-8.1,0-12.1c0-0.5-0.1-0.6-0.6-0.7c-5.2-0.5-9.6-4.9-10.3-10c-0.1-0.6-0.1-1.1-0.1-1.7c0-0.6,0.3-1,0.8-1.1
		c0.5,0,0.9,0.3,1,0.9c0.1,1.2,0.2,2.4,0.7,3.6c1.5,3.8,4.3,5.9,8.3,6.5c0.2,0,0.3,0.1,0.5-0.1c1.1-1.8,1.5-2.1,3.5-2.3
		c-0.9-0.9-1.6-2-1.7-3.2c-0.3-2.2-0.3-4.4,0-6.6c0.2-1.3,0.9-2.4,1.9-3.2c0.2-0.2,0.3-0.4,0.2-0.7c-0.3-0.5-0.1-0.9,0.3-1.2
		c0.5-0.3,0.9-0.1,1.2,0.3c0.2,0.3,0.3,0.3,0.6,0.2c0.2-0.1,0.4-0.2,0.6-0.2c0.3,0,0.5-0.1,0.5-0.5c0-0.6,0.4-0.9,0.9-0.9
		c0.5,0,0.8,0.3,0.9,0.9c0,0.4,0.2,0.5,0.5,0.5c0.4,0,0.8,0.6,1.2,0c0.3-0.5,0.7-0.6,1.2-0.3c0.4,0.2,0.6,0.7,0.3,1.3
		c-0.1,0.3-0.1,0.4,0.1,0.6c1.5,1.4,2.2,3.1,2.2,5.2c0,0.9,0,1.8,0,2.7c0.1,2-0.4,3.7-1.9,5.2c0.1,0.2,0.3,0.1,0.5,0.1
		c1.7,0.1,3,1.4,3.2,3.1c0.1,0.8,0,1.7,0,2.5c0,3.8,0,7.6,0,11.4c0,1.3-0.4,1.7-1.7,1.4c-0.6-0.1-0.9,0-1.1,0.5
		c0,0.1-0.1,0.3-0.2,0.4c-0.9,0.7-0.8,1.6-0.8,2.6c0,5.8,0,11.6,0,17.5c0,0.5,0.2,0.7,0.6,0.9c0.8,0.2,1.5,0.5,2.3,0.7
		c0.7,0.2,0.9,0.7,0.7,1.3c-0.2,0.5-0.7,0.7-1.3,0.5c-1-0.3-2.1-0.7-3.1-1c-0.9-0.3-1.1-0.5-1.1-1.5c0-5.9,0-11.8,0-17.7
		c0-0.9,0-0.9-0.8-0.6c-1.4,0.5-2.8,0.4-4.2-0.1c-0.1,0-0.2-0.1-0.3-0.1C40,62.1,39.9,62.1,39.8,62.1z M42.6,53.3
		c-0.8-0.2-0.9-0.4-0.9-1.3c0-2.9,0-5.7,0-8.6c0-1.3,0-1.2-1.3-1.3c-0.5,0-0.6,0.1-0.6,0.6c0,4,0.1,8-0.1,12c0,0.3,0.1,0.4,0.4,0.4
		c0.8,0,1.6,0,2.5,0c0.5,0,1,0,1.5,0c0.4,0,1,0.2,1.2-0.1c0.2-0.2,0-0.7,0-1.1c0-0.1,0-0.2,0-0.4c0-3.4,0-6.7,0-10.1
		c0-1.3,0-1.3-1.3-1.3c-0.5,0-0.6,0.1-0.6,0.6c0,3.1,0,6.2,0,9.2C43.5,52.9,43.4,53.1,42.6,53.3z M43.8,40.1
		c0.9-0.1,1.6-0.7,2.2-1.3c1.1-1.2,1.2-2.7,1.1-4.2c0-0.4-0.2-0.4-0.5-0.4c-0.7,0-1.5,0-2.2,0c-0.2-0.3-0.5-0.5-0.7-0.8
		c-0.6-0.6-1.7-0.7-2.2,0c-0.7,0.8-1.4,0.9-2.3,0.8c-0.3,0-0.6,0-0.9,0c-0.2,0-0.3,0.1-0.3,0.3c0,0.9-0.1,1.9,0.3,2.8
		C39,39.5,41.7,40.9,43.8,40.1z M46.1,32.3c1.2,0,1.2,0,1-1.1c-0.4-2.6-3.1-4.3-5.7-3.7c-2,0.5-3.4,2.3-3.4,4.3
		c0,0.2-0.1,0.5,0.2,0.4c0.7,0,1.4,0.3,2-0.3c1.3-1.2,3.3-1.2,4.7-0.1C45.3,32.3,45.7,32.4,46.1,32.3z M49.1,50.1c0-1,0-2,0-3
		c0-1.1,0-2.1,0-3.2c0-0.8-0.4-1.4-1.1-1.6c-0.6-0.2-0.8-0.1-0.8,0.5c0,3.7,0,7.3,0,11c0,0.3,0,0.5,0,0.8c0.1,0.8,0.5,1.5,1.2,1.9
		c0.2,0.1,0.4,0.3,0.5,0.2c0.2-0.1,0.1-0.4,0.1-0.6C49.1,54.2,49.1,52.2,49.1,50.1z M36.1,50.1c0,2.1,0,4.1,0,6.2
		c0,0.2-0.1,0.4,0.1,0.5c0.2,0.1,0.3-0.1,0.5-0.2c0.9-0.6,1.3-1.4,1.3-2.5c0-3.8,0-7.6,0-11.5c0-0.4-0.2-0.5-0.5-0.4
		c-0.8,0.1-1.4,0.8-1.4,1.8C36.1,46,36.1,48.1,36.1,50.1z M42.6,57C42.6,57,42.6,57,42.6,57c-1.1,0-2.2,0-3.3,0
		c-0.8,0-1.1,0.6-0.8,1.3c0.9,1.5,2.2,2.4,4,2.4c1.8,0,3.2-0.8,4.1-2.4c0.4-0.7,0.1-1.3-0.8-1.3C44.7,57,43.7,57,42.6,57z"/>
	<path class="st1" d="M62.2,53.4c-2.4,0-4.8,0-7.2,0c-0.5,0-0.4,0.3-0.4,0.5c0,3.4,0,6.7,0,10.1c0,3.5,0,7,0,10.5
		c0,0.9-0.3,1.4-0.9,1.4c-0.6,0-0.9-0.4-0.9-1.4c0-10.1,0-20.2,0-30.2c0-2.4,1.4-3.8,3.8-3.8c1.8,0,3.7,0,5.5,0
		c1.6,0,2.7,0.7,3.4,2.1c0.1,0.3,0.2,0.3,0.5,0.3c4.7-0.4,8.8-4.6,9-9.3c0-0.3,0-0.6,0.1-0.9c0.1-0.5,0.5-0.9,1-0.8
		c0.5,0,0.8,0.4,0.8,1c0,1.1-0.1,2.2-0.5,3.3c-1.6,4.9-5,7.7-10.1,8.5c-0.4,0.1-0.6,0.2-0.5,0.6c0,2.1,0,4.2,0,6.4
		c0,0.2,0,0.4,0.2,0.6c2.1,1.8,3,4.1,3.6,6.8c1.5,7.6,3.1,15.3,4.6,22.9c0.2,1-0.2,1.4-1.1,1.4c-6.3,0-12.7,0-19,0
		c-0.8,0-1.2-0.3-1.2-1.1c0-1.1,0-2.2,0-3.3c0-0.7,0.4-1.1,0.9-1.1c0.6,0,0.9,0.4,0.9,1.2c0,0.7,0,1.4,0,2.2c0,0.3,0.1,0.4,0.4,0.4
		c4.8,0,9.6,0,14.4,0c0.9,0,1.8,0,2.7,0c0-0.1,0-0.2,0-0.3c-1.5-7.5-3-15-4.6-22.5c-0.4-1.9-1.3-3.6-2.7-4.9
		c-0.2-0.2-0.3-0.3-0.6-0.3C63.5,53.4,62.9,53.3,62.2,53.4z M60.6,42.2c-1.5,0-3,0-4.4,0c-0.8,0-1.4,0.6-1.5,1.4
		c0,0.4,0.1,0.5,0.4,0.5c0.9,0,1.7-0.1,2.6,0.2c0.6,0.2,1.1,0.8,1.7,0.7c0.6-0.1,1.1-0.6,1.7-0.8c0,0,0.1,0,0.1,0
		c0.6-0.1,1.3-0.1,2-0.1c0.3,0,0.6,0.1,0.7-0.1c0.1-0.3,0-0.7-0.2-1c-0.3-0.5-0.7-0.8-1.3-0.8C61.7,42.2,61.2,42.2,60.6,42.2z
		 M61.1,51.5c0.8,0,1.6,0,2.4,0c0.2,0,0.4,0,0.4-0.3c0-1.6,0-3.3,0-4.9c0-0.1,0-0.3-0.2-0.3c-0.9,0.1-1.8-0.2-2.6,0.2
		c-0.4,0.1-0.7,0.4-0.9,0.6c-0.7,0.7-1.1,0.7-1.8,0c-0.4-0.4-0.9-0.7-1.4-0.8c-0.7-0.1-1.4,0-2-0.1c-0.3,0-0.3,0.2-0.3,0.4
		c0,1.6,0,3.2,0,4.8c0,0.3,0.1,0.4,0.4,0.4C57,51.5,59.1,51.5,61.1,51.5z"/>
	<path class="st2" d="M62.2,53.4c0.7,0,1.3,0,2,0c0.3,0,0.4,0.1,0.6,0.3c1.5,1.3,2.3,3,2.7,4.9c1.5,7.5,3,15,4.6,22.5
		c0,0.1,0,0.2,0,0.3c-0.9,0-1.8,0-2.7,0c-0.5-2.4-1-4.8-1.5-7.3c-0.8-3.7-1.5-7.5-2.3-11.2c-0.4-1.8-0.7-3.6-1.1-5.3
		C64.1,55.9,63.3,54.6,62.2,53.4z"/>
	<path class="st3" d="M60.5,36.4c-2.2,0.8-5.2-0.8-5.7-3.1c-0.1-0.4,0.1-0.4,0.4-0.4c1.7-0.2,3.3-0.7,4.7-1.6c0.4-0.2,0.7-0.4,1-0.7
		c0.2,0.2,0.2,0.4,0.2,0.6C61.2,33,60.9,34.7,60.5,36.4z"/>
	<path class="st4" d="M59.2,25.6c-0.6,0-1.2,0-1.8,0c-0.8,0-1.3-0.4-1.4-1.1c-0.1-0.7,0.4-1.2,1.2-1.3c0.4-0.1,0.7-0.3,0.9-0.6
		c0.6-0.9,1.5-0.9,2.1,0c0.3,0.4,0.6,0.6,1,0.6c0.7,0.1,1.1,0.6,1.1,1.3c0,0.7-0.5,1.1-1.3,1.2C60.5,25.6,59.9,25.6,59.2,25.6
		C59.2,25.6,59.2,25.6,59.2,25.6z"/>
	<path class="st5" d="M60.5,36.4c0.5-1.7,0.7-3.5,0.6-5.2c0-0.2,0.1-0.5-0.2-0.6c0.5-0.5,1-0.9,1.5-1.4c0.2-0.2,0.3-0.3,0.5,0
		c1,1.4,1.3,2.8,0.7,4.4C63,35.1,62,36.1,60.5,36.4z"/>
	<path class="st4" d="M60.6,28.3c-1.5,1.5-3.3,2.3-5.4,2.7c-0.2,0-0.6,0.2-0.4-0.3c0.8-2.7,3.8-3.8,5.6-3
		C60.5,27.9,60.6,28.1,60.6,28.3z"/>
	<path class="st6" d="M60.6,28.3c-0.1-0.2-0.1-0.4-0.2-0.7c0.2,0,0.5,0,0.6,0.2C61.1,28.1,60.8,28.2,60.6,28.3z"/>
	<path class="st4" d="M24.1,27.8c-1.6-0.9-3-2.1-3.4-4c-0.2-0.8,0.1-1.4,0.8-1.8c0.6-0.3,1.2-0.3,1.8,0.3c0.2,0.2,0.5,0.4,0.8,0.4
		C24.1,24.4,24.1,26.1,24.1,27.8z"/>
	<path class="st4" d="M24.1,27.8c0-1.7,0-3.4,0-5c0.3,0,0.6-0.2,0.9-0.5c0.6-0.5,1.2-0.6,1.8-0.2c0.6,0.4,0.9,1,0.8,1.7
		c-0.3,1.5-1.3,2.4-2.4,3.3C24.8,27.4,24.5,27.7,24.1,27.8z"/>
	<path class="st4" d="M75.9,27.8c-1.6-0.9-3-2.1-3.4-4c-0.2-0.8,0.1-1.4,0.8-1.8c0.6-0.3,1.2-0.3,1.8,0.3c0.2,0.2,0.5,0.4,0.8,0.4
		C75.9,24.4,75.9,26.1,75.9,27.8z"/>
	<path class="st4" d="M75.9,27.8c0-1.7,0-3.4,0-5c0.3,0,0.6-0.2,0.9-0.5c0.6-0.5,1.2-0.6,1.8-0.2c0.6,0.4,0.9,1,0.8,1.7
		c-0.3,1.5-1.3,2.4-2.4,3.3C76.6,27.4,76.3,27.7,75.9,27.8z"/>
	<path class="st7" d="M43.8,40.1c-2.1,0.8-4.8-0.6-5.6-2.8c-0.3-0.9-0.2-1.9-0.3-2.8c0-0.2,0.1-0.3,0.3-0.3c0.3,0,0.6,0,0.9,0
		c0.9,0.1,1.7,0,2.3-0.8c0.5-0.6,1.6-0.6,2.2,0c0.3,0.2,0.5,0.5,0.7,0.8C44.5,36.2,44.4,38.2,43.8,40.1z"/>
	<path class="st8" d="M46.1,32.3c-0.4,0.1-0.8-0.1-1.2-0.4c-1.4-1.1-3.3-1.1-4.7,0.1c-0.6,0.6-1.4,0.3-2,0.3c-0.3,0-0.2-0.3-0.2-0.4
		c0-2,1.5-3.8,3.4-4.3c2.5-0.7,5.2,1.1,5.7,3.7C47.3,32.3,47.3,32.3,46.1,32.3z"/>
	<path class="st9" d="M42.6,53.3c0.8-0.2,0.9-0.4,0.9-1.3c0-3.1,0-6.2,0-9.2c0-0.5,0.1-0.6,0.6-0.6c1.3,0,1.3,0,1.3,1.3
		c0,3.4,0,6.7,0,10.1c0,0.1,0,0.2,0,0.4c0,0.4,0.2,0.9,0,1.1c-0.3,0.3-0.8,0.1-1.2,0.1c-0.5,0-1,0-1.5,0
		C42.6,54.6,42.6,54,42.6,53.3z"/>
	<path class="st10" d="M42.6,53.3c0,0.6,0,1.2,0,1.8c-0.8,0-1.6,0-2.5,0c-0.3,0-0.4,0-0.4-0.4c0.1-4,0-8,0.1-12
		c0-0.5,0.1-0.6,0.6-0.6c1.3,0,1.3,0,1.3,1.3c0,2.9,0,5.7,0,8.6C41.7,52.9,41.8,53.1,42.6,53.3z"/>
	<path class="st11" d="M49.1,50.1c0,2,0,4.1,0,6.1c0,0.2,0.1,0.5-0.1,0.6c-0.2,0.1-0.4-0.1-0.5-0.2c-0.7-0.5-1.1-1.1-1.2-1.9
		c0-0.3,0-0.5,0-0.8c0-3.7,0-7.3,0-11c0-0.7,0.1-0.7,0.8-0.5c0.7,0.2,1.1,0.8,1.1,1.6c0,1.1,0,2.1,0,3.2
		C49.1,48.1,49.1,49.1,49.1,50.1z"/>
	<path class="st11" d="M36.1,50.1c0-2,0-4.1,0-6.1c0-1,0.5-1.7,1.4-1.8c0.3,0,0.5,0,0.5,0.4c0,3.8,0,7.6,0,11.5c0,1-0.4,1.9-1.3,2.5
		c-0.2,0.1-0.3,0.3-0.5,0.2c-0.2-0.1-0.1-0.3-0.1-0.5C36.1,54.2,36.1,52.2,36.1,50.1z"/>
	<path class="st12" d="M42.6,57c1.1,0,2.1,0,3.2,0c0.9,0,1.2,0.6,0.8,1.3c-0.9,1.6-2.3,2.4-4.1,2.4c-1.7,0-3.1-0.8-4-2.4
		c-0.4-0.7,0-1.3,0.8-1.3C40.4,57,41.5,57,42.6,57C42.6,57,42.6,57,42.6,57z"/>
	<path class="st13" d="M43.8,40.1c0.6-1.9,0.7-3.9,0.6-5.9c0.7,0,1.5,0,2.2,0c0.3,0,0.5,0,0.5,0.4c0.1,1.5,0,3-1.1,4.2
		C45.4,39.4,44.7,40,43.8,40.1z"/>
	<path class="st14" d="M61.1,51.5c-2,0-4.1,0-6.1,0c-0.3,0-0.4-0.1-0.4-0.4c0-1.6,0-3.2,0-4.8c0-0.2,0-0.4,0.3-0.4
		c0.7,0,1.4-0.1,2,0.1c0.6,0.1,1,0.4,1.4,0.8c0.7,0.8,1.1,0.8,1.8,0c0.3-0.3,0.5-0.6,0.9-0.6C61.1,47.9,61.1,49.7,61.1,51.5z"/>
	<path class="st2" d="M61.1,51.5c0-1.8,0-3.5,0-5.3c0.8-0.4,1.7-0.2,2.6-0.2c0.2,0,0.2,0.2,0.2,0.3c0,1.6,0,3.3,0,4.9
		c0,0.3-0.2,0.3-0.4,0.3C62.7,51.5,61.9,51.5,61.1,51.5z"/>
	<path class="st3" d="M61.1,44.2c0,0-0.1,0-0.1,0c-0.6,0.1-1.1,0.7-1.7,0.8c-0.5,0.1-1.1-0.6-1.7-0.7c-0.9-0.2-1.7-0.2-2.6-0.2
		c-0.4,0-0.5-0.1-0.4-0.5c0.1-0.8,0.7-1.4,1.5-1.4c1.5,0,3,0,4.4,0C61,42.8,61.1,43.5,61.1,44.2z"/>
	<path class="st5" d="M61.1,44.2c0-0.7-0.1-1.3-0.5-1.9c0.6,0,1.1,0,1.7,0c0.6,0,1,0.3,1.3,0.8c0.2,0.3,0.3,0.7,0.2,1
		c-0.1,0.2-0.5,0.1-0.7,0.1C62.4,44.1,61.8,44.1,61.1,44.2z"/>
</g>
</svg>
