<?xml version="1.0" encoding="utf-8"?>
<!-- Generator: Adobe Illustrator 23.0.3, SVG Export Plug-In . SVG Version: 6.00 Build 0)  -->
<svg version="1.1" id="Layer_1" xmlns="http://www.w3.org/2000/svg" xmlns:xlink="http://www.w3.org/1999/xlink" x="0px" y="0px"
	 viewBox="0 0 238.6 55.4" style="enable-background:new 0 0 238.6 55.4;" xml:space="preserve">
<style type="text/css">
	.st0{fill:#FF17B0;}
</style>
<g>
	<g>
		<path d="M31.9,15.8c-0.7-1.3-1.3-2.4-1.8-3.5c-1-2.1-2.1-4-3.2-6C26.8,6.1,26.7,6,26.4,6c-5,0-10.2,0-15.2,0c-0.5,0-0.5,0-0.2,0.3
			c6.9,13.1,13.9,26.1,20.7,39.1c0,0.1,0.1,0.2,0.2,0.3c0.7-1.3,1.4-2.5,2.1-3.9C41.4,28,48.8,14.1,56.1,0.3C56.2,0.1,56.3,0,56.6,0
			c2.4,0,4.9,0,7.3,0c0.3,0,0.3,0,0.2,0.3c-3.5,6.5-7.2,12.9-10.7,19.4C46.9,31.3,40.5,43,34,54.6c-0.1,0.2-0.3,0.3-0.7,0.3
			c-1.1,0-2.3,0-3.5,0c-0.2,0-0.3-0.1-0.5-0.2C24.1,45,18.9,35.3,13.7,25.5C9.1,17.1,4.7,8.7,0.1,0.3C0,0,0,0,0.4,0
			c10,0,20.1,0,30.1,0c0.3,0,0.5,0.1,0.7,0.5c1.5,3.2,2.9,6.3,4.3,9.5c0.1,0.2,0.1,0.5,0,0.7c-1.1,1.6-2.2,3.2-3.3,4.9
			C32,15.6,32,15.7,31.9,15.8z"/>
		<path class="st0" d="M52.3,0c-6.7,12.5-13.5,25.2-20.2,37.8c-5-9.1-10-18.4-14.9-27.5c0.1-0.1,0.2,0,0.3,0c2.3,0,4.6,0,6.8,0
			c0.2,0,0.3,0.1,0.5,0.2c1.4,2.5,2.7,5,4.1,7.6c1,1.9,2.2,3.9,3.2,5.9c0,0,0.1,0.1,0.1,0.2c0.2-0.5,0.5-0.8,0.6-1.1
			c1.1-2.2,2.3-4.2,3.4-6.4c1.7-3.1,3.3-6.2,5-9.1c1.4-2.4,2.6-4.9,4-7.3c-0.1-0.2,0-0.3,0.2-0.3"/>
	</g>
	<g>
		<path d="M85.3,1H90l-7.3,21.5h-4.2L71.2,1.1H76l4.7,16.3L85.3,1z"/>
		<path d="M96.9,12.9c0.8-0.1,1.4-0.2,1.7-0.3c0.6-0.2,0.9-0.7,0.9-1.1c0-0.7-0.2-1.1-0.7-1.4c-0.5-0.2-1.1-0.3-2.1-0.3
			S95,10,94.5,10.5c-0.3,0.3-0.5,0.8-0.6,1.5h-4c0.1-1.4,0.5-2.5,1.1-3.4c1.1-1.4,3-2.1,5.7-2.1c1.7,0,3.3,0.3,4.7,1
			s2.1,1.9,2.1,3.9v7.3c0,0.5,0,1.1,0,1.8c0,0.6,0.1,0.9,0.2,1.1c0.1,0.2,0.3,0.3,0.6,0.5v0.6h-4.6c-0.1-0.3-0.2-0.6-0.2-0.9
			c0-0.2-0.1-0.6-0.1-0.9c-0.6,0.6-1.3,1.1-1.9,1.6c-0.9,0.5-1.8,0.7-3,0.7c-1.5,0-2.6-0.5-3.5-1.3s-1.4-1.9-1.4-3.5
			c0-1.9,0.8-3.3,2.3-4.2c0.8-0.5,2.1-0.8,3.6-1L96.9,12.9z M99.6,14.8c-0.2,0.1-0.6,0.3-0.8,0.5c-0.2,0.1-0.7,0.2-1.1,0.2l-0.9,0.2
			c-0.9,0.1-1.5,0.3-1.9,0.6c-0.7,0.3-1,0.9-1,1.7c0,0.7,0.2,1.3,0.6,1.5c0.3,0.3,0.9,0.5,1.5,0.5c0.9,0,1.7-0.2,2.5-0.8
			s1.1-1.5,1.1-2.9L99.6,14.8L99.6,14.8z"/>
		<path d="M110.5,17.4c0.1,0.7,0.2,1.3,0.6,1.6c0.6,0.6,1.5,0.8,2.9,0.8c0.8,0,1.5-0.1,1.9-0.3c0.5-0.2,0.7-0.6,0.7-1.1
			s-0.2-0.8-0.6-1c-0.3-0.2-1.8-0.7-4.3-1.3c-1.8-0.5-3.1-1-3.8-1.7c-0.7-0.7-1.1-1.6-1.1-2.9c0-1.5,0.6-2.7,1.7-3.8
			c1.1-1,2.7-1.6,4.9-1.6c1.9,0,3.6,0.3,4.9,1.1c1.3,0.8,1.9,2.2,2.2,4.1h-4.1c-0.1-0.6-0.2-0.9-0.5-1.3c-0.5-0.6-1.3-0.8-2.3-0.8
			c-0.9,0-1.6,0.1-1.9,0.5c-0.3,0.2-0.6,0.6-0.6,1c0,0.5,0.2,0.8,0.6,1c0.5,0.2,1.8,0.6,4.3,1.1c1.6,0.3,2.9,1,3.8,1.7
			c0.8,0.8,1.3,1.8,1.3,3c0,1.6-0.6,2.9-1.7,3.9c-1.1,1-3,1.5-5.5,1.5s-4.3-0.6-5.6-1.6c-1.1-1-1.8-2.4-1.8-4
			C106.4,17.4,110.5,17.4,110.5,17.4z"/>
		<path d="M128,6.6v9.6c0,0.9,0.1,1.6,0.3,2.1c0.3,0.8,1.1,1.3,2.2,1.3c1.4,0,2.4-0.6,2.9-1.7c0.2-0.6,0.5-1.5,0.5-2.5V6.7h4.2v15.9
			h-4v-2.3c0,0-0.1,0.2-0.3,0.5c-0.1,0.2-0.3,0.5-0.6,0.7c-0.7,0.6-1.3,1-1.8,1.1c-0.6,0.2-1.4,0.3-2.2,0.3c-2.4,0-3.9-0.8-4.8-2.5
			c-0.5-0.9-0.7-2.3-0.7-4.1V6.7L128,6.6L128,6.6z"/>
		<path d="M154.9,7.5c1,0.9,1.6,2.3,1.6,4.2v10.7h-4.2v-9.7c0-0.8-0.1-1.5-0.3-1.9c-0.5-0.8-1.1-1.3-2.3-1.3c-1.4,0-2.4,0.6-2.9,1.8
			c-0.2,0.7-0.5,1.5-0.5,2.4v8.6h-4.1V6.7h4V9c0.6-0.8,1-1.4,1.5-1.7c0.8-0.7,1.9-0.9,3.2-0.9C152.5,6.3,153.8,6.7,154.9,7.5z"/>
		<path d="M168.7,6.9c0.8,0.5,1.4,1,1.8,1.7V1.1h4.2v21.4h-4v-2.1c-0.6,0.9-1.3,1.6-2.1,2.1s-1.7,0.7-2.9,0.7
			c-1.8,0-3.4-0.8-4.7-2.3s-1.9-3.4-1.9-5.8c0-2.7,0.6-4.8,1.8-6.4c1.3-1.6,3-2.3,5-2.3C167.1,6.3,168,6.5,168.7,6.9z M169.7,18.2
			c0.6-0.9,0.9-2.1,0.9-3.4c0-1.9-0.5-3.3-1.5-4.2c-0.6-0.5-1.3-0.8-2.1-0.8c-1.3,0-2.1,0.5-2.6,1.4s-0.8,2.1-0.8,3.4
			c0,1.5,0.3,2.6,0.9,3.5c0.6,0.9,1.5,1.4,2.6,1.4C168.2,19.5,169.1,19,169.7,18.2z"/>
		<path d="M189.9,6.7c0.8,0.3,1.5,0.9,1.9,1.6c0.5,0.6,0.7,1.3,0.8,1.8c0.1,0.6,0.1,1.6,0.1,3.1v9.4h-4.2v-9.7
			c0-0.8-0.1-1.6-0.5-2.1c-0.3-0.7-1.1-1.1-2.2-1.1c-1.1,0-1.9,0.3-2.5,1.1c-0.6,0.7-0.8,1.8-0.8,3.2v8.6h-4.1V1.1h4.1v7.5
			c0.6-0.9,1.3-1.6,2.1-1.9s1.6-0.6,2.5-0.6C188.3,6.3,189.1,6.4,189.9,6.7z"/>
		<path d="M203,12.9c0.8-0.1,1.4-0.2,1.7-0.3c0.6-0.2,0.9-0.7,0.9-1.1c0-0.7-0.2-1.1-0.7-1.4c-0.5-0.2-1.1-0.3-2.1-0.3
			s-1.7,0.2-2.2,0.7c-0.3,0.3-0.5,0.8-0.6,1.5h-4c0.1-1.4,0.5-2.5,1.1-3.4c1.1-1.4,3-2.1,5.7-2.1c1.7,0,3.3,0.3,4.7,1
			s2.1,1.9,2.1,3.9v7.3c0,0.5,0,1.1,0,1.8c0,0.6,0.1,0.9,0.2,1.1c0.1,0.2,0.3,0.3,0.6,0.5v0.6h-4.6c-0.1-0.3-0.2-0.6-0.2-0.9
			c0-0.2-0.1-0.6-0.1-0.9c-0.6,0.6-1.3,1.1-1.9,1.6c-0.9,0.6-1.9,0.8-3.1,0.8c-1.5,0-2.6-0.5-3.5-1.3s-1.4-1.9-1.4-3.5
			c0-1.9,0.8-3.3,2.3-4.2c0.8-0.5,2.1-0.8,3.6-1L203,12.9z M205.5,14.8c-0.2,0.1-0.6,0.3-0.8,0.5c-0.2,0.1-0.7,0.2-1.1,0.2l-0.9,0.2
			c-0.9,0.1-1.5,0.3-1.9,0.6c-0.7,0.3-1,0.9-1,1.7c0,0.7,0.2,1.3,0.6,1.5c0.3,0.3,0.9,0.5,1.5,0.5c0.9,0,1.7-0.2,2.5-0.8
			s1.1-1.5,1.1-2.9L205.5,14.8L205.5,14.8z"/>
		<path d="M222.2,6.3c0,0,0.2,0,0.3,0v4.2c-0.2,0-0.5,0-0.7-0.1c-0.2,0-0.3,0-0.5,0c-1.7,0-2.7,0.6-3.3,1.6
			c-0.3,0.6-0.5,1.6-0.5,2.9v7.6h-4.3V6.6h4v2.7c0.7-1,1.3-1.8,1.7-2.2c0.8-0.7,1.8-1,3.1-1C222,6.3,222,6.3,222.2,6.3z"/>
		<path d="M231.2,12.9c0.8-0.1,1.4-0.2,1.7-0.3c0.6-0.2,0.9-0.7,0.9-1.1c0-0.7-0.2-1.1-0.7-1.4c-0.5-0.2-1.1-0.3-2.1-0.3
			s-1.7,0.2-2.2,0.7c-0.3,0.3-0.5,0.8-0.6,1.5h-4c0.1-1.4,0.5-2.5,1.1-3.4c1.1-1.4,3-2.1,5.7-2.1c1.7,0,3.3,0.3,4.7,1
			s2.1,1.9,2.1,3.9v7.3c0,0.5,0,1.1,0,1.8c0,0.6,0.1,0.9,0.2,1.1c0.1,0.2,0.3,0.3,0.6,0.5v0.6H234c-0.1-0.3-0.2-0.6-0.2-0.9
			c0-0.2-0.1-0.6-0.1-0.9c-0.6,0.6-1.3,1.1-1.9,1.6c-0.9,0.6-1.9,0.8-3.1,0.8c-1.5,0-2.6-0.5-3.5-1.3s-1.4-1.9-1.4-3.5
			c0-1.9,0.8-3.3,2.3-4.2c0.8-0.5,2.1-0.8,3.6-1L231.2,12.9z M233.8,14.8c-0.2,0.1-0.6,0.3-0.8,0.5c-0.2,0.1-0.7,0.2-1.1,0.2
			l-0.9,0.2c-0.9,0.1-1.5,0.3-1.9,0.6c-0.7,0.3-1,0.9-1,1.7c0,0.7,0.2,1.3,0.6,1.5c0.3,0.3,0.9,0.5,1.5,0.5c0.9,0,1.7-0.2,2.5-0.8
			s1.1-1.5,1.1-2.9L233.8,14.8L233.8,14.8z"/>
	</g>
	<g>
		<rect x="160.9" y="32.3" width="2.5" height="15.1"/>
		<path d="M172.3,35.9c-0.7,0-1.4,0.1-1.9,0.5c-0.3,0.2-0.8,0.5-1.1,0.8v-1H167v11.2h2.3v-5.8c0-0.7,0-1.1,0.1-1.5s0.2-0.7,0.5-0.9
			c0.3-0.3,0.7-0.7,1.1-0.8c0.2-0.1,0.6-0.1,0.9-0.1c0.7,0,1.1,0.2,1.5,0.8c0.1,0.3,0.2,0.8,0.2,1.5v7h2.4v-7.2
			c0-1.1-0.1-1.9-0.5-2.6C175.1,36.5,173.9,35.9,172.3,35.9z"/>
		<path d="M183,32c-1.5-0.1-2.5,0.2-3,1l0,0c-0.2,0.3-0.5,0.9-0.5,1.8v1.4H178v1.9h1.5v9.1h2.3v-9.1h1.7v-1.9h-1.7
			c0-1.3,0.1-1.6,0.1-1.7c0.1-0.2,0.5-0.2,0.7-0.2c0.1,0,0.1,0,0.2,0s0.2,0,0.3,0h0.3v-2.2h-0.2C183.3,32,183.2,32,183,32z"/>
		<path d="M194,37.3c-1-0.9-2.2-1.5-3.5-1.5c-1.6,0-2.9,0.6-3.8,1.7c-0.9,1.1-1.4,2.6-1.4,4.4c0,1.7,0.5,3.1,1.4,4.1
			s2.1,1.6,3.6,1.6c1.8,0,3.2-0.6,4-1.8c0.8-1.1,1.3-2.6,1.3-4.3C195.4,39.7,194.9,38.3,194,37.3L194,37.3z M190.3,45.6
			c-0.9,0-1.6-0.3-2.1-1s-0.7-1.6-0.7-2.6c0-1.1,0.2-2.1,0.7-2.9c0.5-0.7,1.1-1.1,2.1-1.1s1.8,0.5,2.3,1.3c0.2,0.6,0.5,1.4,0.5,2.3
			c0,1-0.2,1.9-0.6,2.9C192.1,45.1,191.4,45.6,190.3,45.6z"/>
		<path d="M200.8,33.2h-2.4v3H197v2.1h1.4V45c0,0.7,0.1,1.4,0.5,1.8c0.3,0.5,1,0.8,1.9,0.8c0.2,0,0.5,0,0.7,0s0.5-0.1,0.7-0.1
			l0.2-0.1v-2h-0.3c-0.1,0-0.2,0-0.3,0c-0.5,0-0.8,0-0.8-0.1c-0.1,0-0.2-0.1-0.2-0.5v-6.6h1.7v-2.1h-1.8v-3
			C200.7,33.2,200.8,33.2,200.8,33.2z"/>
		<path d="M213.4,38c-0.3-0.6-0.9-1.1-1.7-1.5c-0.7-0.3-1.5-0.6-2.3-0.6c-1.5,0-2.9,0.6-3.8,1.7c-0.9,1.1-1.4,2.5-1.4,4.3
			s0.5,3.2,1.4,4.2s2.2,1.5,3.5,1.5c0.6,0,1,0,1.5-0.1c0.8-0.2,1.5-0.6,2.1-1.1c0.3-0.3,0.7-0.7,0.9-1.3c0.2-0.5,0.5-1,0.5-1.4v-0.3
			h-2.3l-0.1,0.2c-0.1,0.5-0.3,0.8-0.6,1.1c-0.5,0.6-1.1,0.8-1.9,0.8c-0.9,0-1.5-0.2-1.9-0.8c-0.3-0.6-0.6-1.3-0.7-2.2h7.5v-0.3
			c0-1.1,0-1.8-0.1-2.4C214,39.2,213.7,38.5,213.4,38z M206.8,40.6c0.1-0.7,0.3-1.3,0.8-1.7c0.5-0.6,1-0.8,1.8-0.8
			c1,0,1.7,0.3,2.2,1.1c0.2,0.3,0.3,0.8,0.5,1.4H206.8z"/>
		<path d="M223.5,43.2c-0.1,0.7-0.5,1.3-0.8,1.7c-0.3,0.3-0.9,0.6-1.5,0.6c-0.8,0-1.5-0.3-1.8-0.9c-0.5-0.7-0.6-1.5-0.6-2.5
			s0.1-1.8,0.5-2.5c0.5-1,1.1-1.5,2.2-1.5c0.7,0,1.3,0.2,1.6,0.6s0.6,0.9,0.7,1.5v0.2h2.3v-0.3c-0.1-1.5-0.7-2.5-1.5-3.2
			c-0.8-0.6-1.8-0.9-3.1-0.9c-1.5,0-2.6,0.6-3.6,1.6c-0.9,1-1.4,2.6-1.4,4.6c0,1.6,0.5,2.9,1.3,4c0.9,1,2.1,1.6,3.5,1.6
			c1.3,0,2.4-0.3,3.2-1s1.4-1.8,1.6-3.2v-0.3h-2.3L223.5,43.2z"/>
		<path d="M236.8,37.6c-0.6-1.1-1.7-1.7-3.3-1.7c-0.9,0-1.7,0.2-2.3,0.6c-0.2,0.1-0.5,0.3-0.7,0.6v-4.9h-2.3v15.1h2.3v-5.9
			c0-1.3,0.2-2.2,0.8-2.6c0.6-0.5,1.1-0.7,1.8-0.7c0.8,0,1.3,0.2,1.5,0.7c0.1,0.3,0.2,0.8,0.2,1.6v7h2.4v-7.1
			C237.2,39.1,237.1,38.3,236.8,37.6z"/>
	</g>
	<polygon points="157,53.7 153.4,29.2 153.4,29.1 153.2,29 69.3,29 69.3,30.7 151.9,30.7 155.6,55.2 155.6,55.4 238.6,55.4 
		238.6,53.7 	"/>
</g>
</svg>
