<?xml version="1.0" encoding="utf-8"?>
<!-- Generator: Adobe Illustrator 21.0.0, SVG Export Plug-In . SVG Version: 6.00 Build 0)  -->
<svg version="1.1" id="Layer_1" xmlns="http://www.w3.org/2000/svg" xmlns:xlink="http://www.w3.org/1999/xlink" x="0px" y="0px"
	 viewBox="0 0 100 100" style="enable-background:new 0 0 100 100;" xml:space="preserve">
<style type="text/css">
	.st0{fill:#040404;}
	.st1{fill:#396F8D;}
	.st2{fill:#C6367B;}
	.st3{fill:#427E9C;}
	.st4{fill:#E1E1E1;}
	.st5{fill:#F0F0F0;}
	.st6{fill:#020303;}
	.st7{fill:#FCBBD8;}
	.st8{fill:#8AEDFC;}
	.st9{fill:#030403;}
	.st10{fill:#040505;}
	.st11{fill:#FDD44E;}
	.st12{fill:#FBC028;}
</style>
<g>
	<path class="st0" d="M81,88.5c-0.6-0.3-1-0.7-1.5-1.2c-5.5-5.5-11-11-16.5-16.5c-0.4-0.4-0.6-0.4-1.1-0.1c-5.7,3.8-12.1,5.6-19,5.3
		c-14.3-0.7-26.4-11.1-29.3-25.1c-0.2-1.1-0.3-2.1-0.5-3.2c0-0.1,0-0.3-0.1-0.4c0-1.8,0-3.6,0-5.5c0.2-0.1,0.1-0.2,0.1-0.4
		c0.3-3.3,1.1-6.5,2.5-9.5c4.6-10,12.3-16.1,23.1-18.4c0.9-0.2,1.9-0.1,2.8-0.5c1.8,0,3.6,0,5.5,0c0.8,0.3,1.7,0.3,2.5,0.4
		c5.6,0.9,10.5,3.2,14.9,6.7c0.7,0.5,0.7,1.1,0.4,1.8c-0.7,0.5-1.3,0.3-1.9-0.2c-1-0.9-2.1-1.6-3.3-2.3c-2.7-1.6-5.6-2.9-8.7-3.5
		c-3.4-0.8-6.8-0.9-10.2-0.5c-6.1,0.8-11.5,3.2-15.9,7.5C17.1,30.1,14,39,15.7,49.3c1.6,9.5,6.8,16.4,15.2,21
		c3.8,2.1,7.8,3.1,12.1,3.3c2.7,0.1,5.3-0.1,7.9-0.7c0.1,0,0.2,0,0.3,0c6.5-1.6,12-5,16.2-10.3c5-6.3,7.1-13.5,6.2-21.4
		c-0.6-5.9-2.9-11.2-6.8-15.8c-0.5-0.6-0.7-1.2-0.2-1.9c1-0.4,1.2-0.4,1.9,0.4c5.7,6.9,8.2,14.8,7.3,23.8c-0.5,5.1-2.2,9.8-5.1,14
		c-0.3,0.5-0.3,0.7,0.1,1.1c1.7,1.7,3.4,3.4,5.1,5.1c0.6,0.6,0.8,1.1,0.3,1.8c-0.8,0.5-1.2,0.5-1.9-0.2c-1.7-1.7-3.3-3.3-5-5
		c-0.3-0.3-0.5-0.4-0.8,0c-0.6,0.7-1.3,1.4-1.9,2.1c-0.7,0.6-1.4,1.2-2.1,1.9c-0.2,0.2-0.3,0.3,0,0.6c3.1,3.1,6.2,6.2,9.4,9.4
		c0.2,0.2,0.4,0.2,0.7,0c0.6-0.6,1.2-1.3,1.8-1.9c0.6-0.6,1.2-1.2,1.8-1.7c0.7-0.7,0.7-0.7,0-1.4c-0.7-0.7-0.8-1-0.3-1.9
		c0.8-0.5,1.2-0.4,1.8,0.2c2.7,2.7,5.3,5.3,8,8c0.4,0.4,0.6,0.8,0.8,1.3c0,0.3,0,0.6,0,0.9c-0.3,0.6-0.7,1-1.2,1.5
		c-1.3,1.3-2.7,2.7-4,4c-0.4,0.4-0.9,0.8-1.5,1C81.6,88.5,81.3,88.5,81,88.5z M79.5,79.8c0.8-0.7,1.5-1.5,2.3-2.2
		c0.5-0.5-0.1-0.7-0.3-0.8c-0.4-0.2-0.5-1.3-1.3-0.7c-0.8,0.6-1.5,1.5-2.2,2.2c-0.6,0.6-1.3,1.3-1.9,1.9c-0.5,0.4,0.1,0.7,0.2,0.7
		c0.5,0.2,0.5,1.3,1.3,0.8C78.3,81.2,78.9,80.5,79.5,79.8z M81.4,81.2c-0.7,0.7-1.4,1.4-2.2,2.1c-0.2,0.2-0.3,0.4,0,0.6
		c0.7,0.7,1.4,1.3,2,2c0.3,0.3,0.4,0.2,0.6,0c0.7-0.7,1.3-1.4,2-2.1c0.7-0.7,1.4-1.4,2.1-2c0.2-0.2,0.3-0.3,0-0.5
		c-0.7-0.7-1.4-1.4-2.1-2.1c-0.2-0.2-0.4-0.2-0.6,0C82.7,79.9,82,80.5,81.4,81.2z"/>
	<path class="st1" d="M50.9,16c3.1,0.6,6,1.9,8.7,3.5c1.2,0.7,2.3,1.4,3.3,2.3c0.6,0.5,1.2,0.7,1.9,0.2c0.7,0.5,1.2,1,1.7,1.7
		c-0.5,0.7-0.3,1.3,0.2,1.9c3.9,4.6,6.2,9.8,6.8,15.8c0.8,8-1.2,15.1-6.2,21.4C63.2,68,57.7,71.4,51.2,73c-0.1,0-0.2,0-0.3,0
		c0-0.3,0.3-0.3,0.5-0.4c3.2-1.3,6.1-3.1,8.6-5.4c0.3-0.3,0.8-0.5,0.8-1.1c1.7-1.4,3.2-2.8,4.6-4.5c4.5-5.7,6.6-12.2,5.9-19.5
		c-0.3-3.8-1.4-7.4-3.3-10.7c-1.8-3.3-4.3-6-7.2-8.4c0.1-0.4-0.2-0.5-0.4-0.7c-2.4-2.2-5.1-4-8.1-5.4C51.9,16.6,51.2,16.6,50.9,16z"
		/>
	<path class="st2" d="M66.7,66.8c0.6-0.7,1.3-1.4,1.9-2.1c0.3-0.4,0.5-0.3,0.8,0c1.6,1.7,3.3,3.3,5,5c0.7,0.7,1,0.7,1.9,0.2
		c0.6,0.6,1.1,1.2,1.7,1.8c-0.5,0.9-0.4,1.1,0.3,1.9c0.7,0.7,0.7,0.7,0,1.4c-0.6,0.6-1.2,1.2-1.8,1.7c0-0.3-0.3-0.5-0.5-0.7
		c-2.7-2.7-5.3-5.3-8-8C67.5,67.6,67.1,67.2,66.7,66.8z"/>
	<path class="st3" d="M60.9,66c0,0.6-0.5,0.8-0.8,1.1c-2.6,2.3-5.5,4.1-8.6,5.4c-0.2,0.1-0.5,0.1-0.5,0.4c-2.6,0.7-5.2,0.9-7.9,0.7
		c-4.3-0.2-8.3-1.3-12.1-3.3c-8.4-4.6-13.7-11.6-15.2-21C14,39,17.1,30.1,24.7,22.9c4.5-4.2,9.8-6.7,15.9-7.5
		c3.4-0.5,6.9-0.3,10.2,0.5c0.3,0.6,1,0.6,1.5,0.8c3,1.4,5.7,3.2,8.1,5.4c0.2,0.2,0.5,0.4,0.4,0.7c-0.1-0.1-0.2-0.1-0.3-0.2
		c-5.5-4-11.7-5.8-18.5-5.2c-6.1,0.5-11.5,2.9-16,7.1c-6.8,6.4-9.7,14.3-8.4,23.6c1.3,9.4,6.4,16.1,14.8,20.5
		c0.8,0.4,1.4,0.5,2.1-0.2c0.8,0.1,1.5,0.6,2.3,0.7c-0.1,1,0.2,1.3,1.1,1.5c4.1,1,8.3,1.1,12.5,0.1C54.3,70,57.7,68.3,60.9,66z"/>
	<path class="st2" d="M66.7,66.8c0.4,0.4,0.8,0.8,1.2,1.2c2.7,2.7,5.3,5.3,8,8c0.2,0.2,0.5,0.4,0.5,0.7c-0.6,0.6-1.2,1.3-1.8,1.9
		c-0.2,0.3-0.4,0.3-0.7,0c-3.1-3.1-6.2-6.2-9.4-9.4c-0.2-0.2-0.2-0.4,0-0.6C65.3,68.1,66,67.4,66.7,66.8z"/>
	<path class="st2" d="M83.8,83.8c-0.7,0.7-1.3,1.4-2,2.1c-0.2,0.2-0.3,0.3-0.6,0c-0.7-0.7-1.3-1.4-2-2c-0.2-0.2-0.2-0.4,0-0.6
		c0.7-0.7,1.4-1.4,2.2-2.1c0.1,0.3,0.3,0.4,0.5,0.6C82.5,82.5,83.3,83.1,83.8,83.8z"/>
	<path class="st2" d="M83.8,83.8c-0.6-0.7-1.3-1.3-1.9-2c-0.2-0.2-0.4-0.3-0.5-0.6c0.6-0.7,1.3-1.3,1.9-2c0.2-0.2,0.3-0.2,0.6,0
		c0.7,0.7,1.4,1.4,2.1,2.1c0.2,0.2,0.1,0.4,0,0.5C85.2,82.5,84.5,83.1,83.8,83.8z"/>
	<path class="st4" d="M78,78.3c0.7-0.8,1.4-1.6,2.2-2.2c0.7-0.5,0.8,0.5,1.3,0.7c0.2,0.1,0.8,0.3,0.3,0.8c-0.8,0.7-1.5,1.5-2.3,2.2
		C79.2,79.1,78.7,78.6,78,78.3z"/>
	<path class="st5" d="M78,78.3c0.7,0.3,1.2,0.8,1.5,1.5c-0.6,0.6-1.2,1.4-1.9,1.9c-0.8,0.5-0.8-0.6-1.3-0.8
		c-0.2-0.1-0.7-0.3-0.2-0.7C76.7,79.6,77.4,78.9,78,78.3z"/>
	<path class="st6" d="M60.9,66c-3.2,2.3-6.6,4-10.5,4.9c-4.2,0.9-8.3,0.9-12.5-0.1c-0.9-0.2-1.1-0.5-1.1-1.5
		c0.4-0.8,1.1-0.8,1.8-0.6c3.4,0.8,6.9,0.9,10.4,0.2c0.1,0,0.2,0,0.3-0.1l0,0c0.1,0,0.3,0,0.4-0.1c10.7-2.2,19.2-12.3,19.4-23.3
		c0.2-8.4-3.1-15.3-9.6-20.5c-3-2.4-6.4-4-10.3-4.7l0,0c-0.1-0.1-0.2-0.1-0.3-0.1c-0.2-0.1-0.5-0.1-0.7-0.2c-5-0.8-9.8-0.1-14.4,2
		c-9.6,4.4-15.7,15.2-14.1,25.6c1.3,8.8,5.9,15.2,13.8,19.2c1,0.5,1.1,0.7,1,1.8c-0.6,0.7-1.3,0.6-2.1,0.2
		c-8.3-4.4-13.5-11.2-14.8-20.5c-1.3-9.2,1.6-17.2,8.4-23.6c4.5-4.2,9.8-6.6,16-7.1c6.8-0.6,13,1.2,18.5,5.2
		c0.1,0.1,0.2,0.1,0.3,0.2c2.9,2.3,5.4,5.1,7.2,8.4c1.9,3.3,3,6.9,3.3,10.7c0.6,7.3-1.4,13.8-5.9,19.5C64.1,63.2,62.6,64.6,60.9,66z
		"/>
	<path class="st7" d="M49.1,68.9c-3.5,0.7-7,0.6-10.4-0.2c-0.7-0.2-1.4-0.2-1.8,0.6c-0.8,0-1.5-0.6-2.3-0.7c0.1-1.1,0-1.3-1-1.8
		c-7.8-4.1-12.5-10.5-13.8-19.2C18.3,37.2,24.4,26.3,34,22c4.6-2.1,9.4-2.8,14.4-2c0.2,0,0.5,0.1,0.7,0.2c0.1,0.1,0.2,0.1,0.3,0.1
		c0,0,0,0,0,0c0.1,0.3,0.4,0.3,0.7,0.4c5.6,2.4,9.9,6.3,12.8,11.6c2.6,4.8,3.5,9.9,2.9,15.3c-0.3,2.7-1,5.2-2.1,7.6
		c-2.7,5.9-7.1,10.3-13,13c-0.4,0.2-0.9,0.3-1.3,0.6c0,0,0,0,0,0C49.3,68.7,49.2,68.7,49.1,68.9z M33.9,44.3
		c0,5.7,4.6,10.4,10.3,10.4c5.7,0,10.4-4.6,10.4-10.4c0-5.7-4.6-10.4-10.4-10.4C38.6,33.9,33.9,38.5,33.9,44.3z M39.1,33.4
		c0-0.1,0-0.2,0-0.2c-0.5-1.1-1.1-2.1-1.8-3.1c-0.3-0.4-0.9-0.4-1.3-0.1c-0.5,0.3-0.6,0.8-0.4,1.3c0.5,1,1,1.9,1.6,2.8
		c0.3,0.4,0.7,0.5,1.2,0.3C38.9,34.2,39.1,33.9,39.1,33.4z M34.5,38c0-0.3-0.2-0.7-0.5-0.9c-0.9-0.5-1.7-1-2.6-1.5
		c-0.6-0.3-1.2-0.1-1.4,0.5c-0.3,0.6-0.2,1.1,0.3,1.4C31.2,38,32,38.5,33,39C33.7,39.4,34.5,38.8,34.5,38z M36.7,58.8
		c0.3,0,0.6-0.2,0.8-0.5c0.5-0.9,1.1-1.8,1.5-2.7c0.3-0.5,0.1-1.1-0.4-1.4c-0.5-0.3-1.1-0.2-1.4,0.3c-0.6,0.9-1.1,1.8-1.6,2.7
		C35.2,58,35.8,58.9,36.7,58.8z M43.2,58.3c0,0.4,0,0.9,0,1.3c0,0,0,0.1,0,0.1c0.1,0.6,0.5,1.1,1.1,1.1c0.6,0,1.1-0.4,1.1-1
		c0-1,0-2,0-3c0-0.6-0.5-1.1-1.1-1.1c-0.6,0-1.1,0.5-1.1,1.1C43.2,57.4,43.2,57.9,43.2,58.3z M57.7,35.5c-0.1,0-0.1,0-0.2,0
		c-1.1,0.5-2.1,1.1-3.1,1.8c-0.4,0.3-0.4,0.9-0.1,1.3c0.3,0.5,0.8,0.6,1.3,0.4c1-0.5,1.9-1,2.8-1.6c0.4-0.3,0.6-0.7,0.4-1.2
		C58.6,35.7,58.2,35.5,57.7,35.5z M53.1,30.9c0-0.5-0.3-0.9-0.8-1c-0.5-0.2-1,0-1.3,0.5c-0.5,0.8-0.9,1.6-1.4,2.4
		c-0.4,0.6-0.2,1.3,0.4,1.6c0.6,0.3,1.2,0.1,1.5-0.5c0.5-0.8,0.9-1.5,1.3-2.3C53.1,31.4,53.2,31.1,53.1,30.9z M30.9,53.1
		c0,0,0.2,0,0.2,0c1.1-0.5,2.1-1,3-1.8c0.4-0.3,0.4-0.9,0.1-1.3c-0.3-0.5-0.9-0.6-1.4-0.4c-0.9,0.5-1.8,1-2.7,1.6
		c-0.4,0.3-0.6,0.7-0.4,1.2C30.1,52.9,30.4,53.1,30.9,53.1z M58.4,43.2c-0.4,0-0.9,0-1.3,0c0,0-0.1,0-0.1,0c-0.6,0-1.1,0.5-1.1,1.1
		c0,0.6,0.4,1.1,1,1.1c1,0.1,2.1,0.1,3.2,0c0.6,0,1-0.5,1-1.1c0-0.6-0.4-1-1.1-1.1C59.3,43.2,58.9,43.2,58.4,43.2z M53.2,57.7
		c0-0.1,0-0.2-0.1-0.3c-0.6-1-1.1-2-1.7-2.9C51.1,54,50.5,54,50,54.3c-0.5,0.3-0.6,0.9-0.4,1.4c0.5,0.9,1,1.8,1.6,2.7
		c0.3,0.4,0.7,0.6,1.2,0.4C52.9,58.6,53.1,58.2,53.2,57.7z M58.8,52c0-0.3-0.1-0.6-0.4-0.8c-0.9-0.5-1.8-1.1-2.7-1.6
		c-0.5-0.3-1.1-0.1-1.4,0.4c-0.3,0.5-0.2,1.1,0.3,1.4c0.9,0.6,1.7,1.1,2.7,1.5C58,53.4,58.8,52.9,58.8,52z M45.4,30.3
		C45.4,30.3,45.4,30.3,45.4,30.3c0-0.5,0-1,0-1.5c-0.1-0.6-0.6-1-1.2-1c-0.6,0.1-1,0.4-1,1c0,1,0,2,0,2.9c0,0.6,0.5,1.1,1.1,1.1
		c0.6,0,1.1-0.4,1.1-1.1C45.5,31.2,45.4,30.8,45.4,30.3z M30.3,43.2c-0.5,0-1,0-1.5,0c-0.6,0-1,0.4-1.1,1c-0.1,0.6,0.3,1.1,0.9,1.2
		c1,0.1,2.1,0.1,3.2,0c0.6,0,1-0.6,1-1.2c-0.1-0.6-0.4-1-1.1-1C31.3,43.2,30.8,43.2,30.3,43.2z"/>
	<path class="st7" d="M49.4,68.8c0.4-0.4,0.9-0.4,1.3-0.6c5.9-2.8,10.3-7.1,13-13c1.1-2.4,1.8-4.9,2.1-7.6
		c0.6-5.4-0.3-10.5-2.9-15.3C60,26.9,55.7,23,50.1,20.6c-0.2-0.1-0.5-0.1-0.7-0.4c3.8,0.7,7.2,2.3,10.3,4.7
		c6.6,5.3,9.8,12.1,9.6,20.5c-0.2,11-8.7,21.1-19.4,23.3C49.7,68.8,49.6,68.8,49.4,68.8z"/>
	<path class="st8" d="M49.5,20.2c-0.1,0-0.2,0-0.3-0.1C49.2,20.1,49.4,20.1,49.5,20.2z"/>
	<path class="st8" d="M49.1,68.9c0.1-0.1,0.2-0.1,0.3-0.1C49.4,68.9,49.2,68.9,49.1,68.9z"/>
	<path class="st9" d="M33.9,44.3c0-5.7,4.7-10.3,10.4-10.3c5.7,0,10.4,4.7,10.4,10.4c0,5.7-4.7,10.4-10.4,10.4
		C38.6,54.7,33.9,50,33.9,44.3z M44.4,36.2c-4.5-0.2-8.3,3.6-8.3,8.1c0,4.6,3.8,8.3,8.3,8.2c1.6,0,3-0.5,4.4-1.3
		c3.1-2,4.4-5.8,3.3-9.3C51.1,38.5,47.8,36.1,44.4,36.2z"/>
	<path class="st10" d="M39.1,33.4c0,0.5-0.2,0.8-0.7,1c-0.5,0.2-1,0.1-1.2-0.3c-0.6-0.9-1.1-1.8-1.6-2.8c-0.3-0.5-0.1-1,0.4-1.3
		c0.5-0.3,1-0.3,1.3,0.1c0.7,0.9,1.3,2,1.8,3.1C39.1,33.2,39.1,33.3,39.1,33.4z"/>
	<path class="st10" d="M34.5,38c0,0.8-0.8,1.4-1.6,1c-0.9-0.5-1.8-1-2.7-1.5c-0.5-0.3-0.6-0.8-0.3-1.4c0.3-0.5,0.9-0.8,1.4-0.5
		c0.9,0.5,1.7,1,2.6,1.5C34.3,37.3,34.5,37.6,34.5,38z"/>
	<path class="st10" d="M36.7,58.8c-0.9,0-1.5-0.8-1.1-1.5c0.5-0.9,1-1.8,1.6-2.7c0.3-0.5,0.9-0.6,1.4-0.3c0.5,0.3,0.7,0.8,0.4,1.4
		c-0.5,0.9-1,1.8-1.5,2.7C37.3,58.7,37,58.8,36.7,58.8z"/>
	<path class="st10" d="M43.2,58.3c0-0.5,0-0.9,0-1.4c0-0.7,0.5-1.1,1.1-1.1c0.6,0,1.1,0.4,1.1,1.1c0,1,0,2,0,3c0,0.6-0.6,1-1.1,1
		c-0.6,0-1-0.5-1.1-1.1c0,0,0-0.1,0-0.1C43.2,59.2,43.2,58.8,43.2,58.3z"/>
	<path class="st10" d="M57.7,35.5c0.5,0.1,0.8,0.3,1,0.7c0.2,0.5,0.1,1-0.4,1.2c-0.9,0.6-1.8,1.1-2.8,1.6c-0.5,0.2-1,0.1-1.3-0.4
		c-0.3-0.5-0.3-1,0.1-1.3c0.9-0.7,2-1.3,3.1-1.8C57.6,35.5,57.7,35.5,57.7,35.5z"/>
	<path class="st10" d="M53.1,30.9c0,0.3-0.1,0.5-0.2,0.7c-0.4,0.8-0.9,1.5-1.3,2.3c-0.4,0.6-1,0.8-1.5,0.5c-0.6-0.3-0.7-0.9-0.4-1.6
		c0.4-0.8,0.9-1.6,1.4-2.4c0.3-0.5,0.7-0.7,1.3-0.5C52.8,30,53.1,30.3,53.1,30.9z"/>
	<path class="st10" d="M30.9,53.1c-0.6,0-0.9-0.3-1.1-0.7c-0.2-0.5-0.1-1,0.4-1.2c0.9-0.6,1.8-1.1,2.7-1.6c0.5-0.3,1-0.1,1.4,0.4
		c0.3,0.5,0.3,1-0.1,1.3c-0.9,0.7-2,1.3-3,1.8C31.1,53.2,31,53.1,30.9,53.1z"/>
	<path class="st0" d="M58.4,43.2c0.5,0,1,0,1.5,0c0.6,0,1.1,0.5,1.1,1.1c0,0.6-0.4,1.1-1,1.1c-1,0.1-2.1,0.1-3.2,0
		c-0.6,0-0.9-0.5-1-1.1c0-0.6,0.5-1,1.1-1.1c0,0,0.1,0,0.1,0C57.5,43.2,57.9,43.2,58.4,43.2z"/>
	<path class="st10" d="M53.2,57.7c0,0.5-0.3,0.9-0.7,1.1c-0.5,0.2-1,0.1-1.2-0.4c-0.6-0.9-1.1-1.8-1.6-2.7c-0.3-0.5-0.1-1,0.4-1.4
		c0.5-0.3,1.1-0.3,1.4,0.2c0.6,0.9,1.1,1.9,1.7,2.9C53.2,57.5,53.1,57.6,53.2,57.7z"/>
	<path class="st10" d="M58.8,52c0,0.8-0.9,1.4-1.6,1c-0.9-0.5-1.8-1-2.7-1.5c-0.5-0.3-0.6-0.9-0.3-1.4c0.3-0.6,0.9-0.7,1.4-0.4
		c0.9,0.5,1.8,1,2.7,1.6C58.7,51.4,58.8,51.7,58.8,52z"/>
	<path class="st6" d="M45.4,30.3c0,0.5,0,1,0,1.5c0,0.7-0.5,1.1-1.1,1.1c-0.6,0-1-0.4-1.1-1.1c0-1,0-2,0-2.9c0-0.6,0.4-1,1-1
		c0.6-0.1,1.1,0.4,1.2,1C45.5,29.2,45.4,29.7,45.4,30.3C45.4,30.3,45.4,30.3,45.4,30.3z"/>
	<path class="st6" d="M30.3,43.2c0.5,0,1,0,1.5,0c0.6,0,1,0.4,1.1,1c0.1,0.6-0.3,1.1-1,1.2c-1,0.1-2.1,0.1-3.2,0
		c-0.6,0-1-0.6-0.9-1.2c0.1-0.6,0.4-1,1.1-1C29.3,43.2,29.8,43.2,30.3,43.2z"/>
	<path class="st11" d="M44.4,52.5c-4.4,0.2-8.3-3.6-8.3-8.2c0-4.6,3.8-8.3,8.3-8.1c1,0.6,1.9,1.4,2.6,2.3c1.8,2.2,2.5,4.8,2,7.6
		C48.5,48.9,46.8,51,44.4,52.5z"/>
	<path class="st12" d="M44.4,52.5c2.4-1.5,4.1-3.6,4.6-6.4c0.5-2.8-0.1-5.4-2-7.6c-0.7-0.9-1.6-1.7-2.6-2.3c3.4-0.1,6.6,2.3,7.7,5.7
		c1.1,3.5-0.3,7.3-3.3,9.3C47.5,52,46,52.5,44.4,52.5z"/>
</g>
</svg>
