<?xml version="1.0" encoding="utf-8"?>
<!-- Generator: Adobe Illustrator 21.0.0, SVG Export Plug-In . SVG Version: 6.00 Build 0)  -->
<svg version="1.1" id="Layer_1" xmlns="http://www.w3.org/2000/svg" xmlns:xlink="http://www.w3.org/1999/xlink" x="0px" y="0px"
	 viewBox="0 0 78 78" style="enable-background:new 0 0 78 78;" xml:space="preserve">
<style type="text/css">
	.st0{fill:#FF15AC;}
</style>
<g>
	<path class="st0" d="M48.4,34.9c0,1,0,1.9,0,2.9c1.3-0.4,2.4-0.3,3.5,0.6c1-0.8,2-1.1,3.3-0.7c1.2,0.5,1.8,1.4,2,2.7
		c0.3-0.1,0.7-0.1,1-0.2c1.7-0.2,3.2,1,3.4,2.7c0,0.5,0,1.1,0,1.6c0,4.9,0,9.9,0,14.8c0,2.7-1.5,4.7-3.9,5.2
		c-0.3,0.1-0.5,0.1-0.8,0.1c-2.8,0-5.5,0.1-8.3,0c-2.5-0.1-4.5-1.3-5.9-3.3c-2.9-4.2-5.8-8.5-8.6-12.8c-1-1.4-0.6-3.3,0.8-4.3
		c1.4-1,3.3-0.9,4.5,0.4c1,1.1,1.9,2.2,2.9,3.5c0-4.5,0-8.8,0-13.3c-0.3,0-0.6,0-0.8,0c-8,0-16,0-24,0c-1.9,0-3.3-0.5-3.9-2.5
		c0-0.1-0.3-0.2-0.4-0.3c-1.5-0.5-2.3-1.6-2.3-3.1c0-3.6,0-7.3,0-10.9c0-2,1.4-3.3,3.4-3.3c3,0,6,0,9,0c13.3,0,26.6,0,39.9,0
		c1.2,0,2.2,0.3,3,1.3c0.5,0.6,0.7,1.4,0.7,2.2c0,3.6,0,7.1,0,10.7c0,1.6-0.8,2.7-2.3,3.3c-0.2,0.1-0.4,0.3-0.4,0.4
		c-0.6,1.6-1.7,2.3-3.4,2.3c-3.8,0-7.6,0-11.4,0C48.9,34.9,48.7,34.9,48.4,34.9z M45.3,27.9c1.4,0.1,2.4,0.8,2.9,2.1
		c0.2,0.5,0.4,0.6,0.8,0.6c4.7,0,9.4,0,14.1,0c1.4,0,1.9-0.5,1.9-1.9c0-3.4,0-6.8,0-10.1c0-1.4-0.5-1.9-1.9-1.9
		c-16.2,0-32.5,0-48.7,0c-1.3,0-1.9,0.6-1.9,1.9c0,3.4,0,6.7,0,10.1c0,1.5,0.5,2,2,2c9,0,18,0,27.1,0c0.2,0,0.5,0,0.7,0
		c0.3-1.3,1.1-2.2,2.2-2.5c-0.2-0.4-0.5-0.7-0.5-1.1c0-2.3,0-4.5,0-6.8c0-0.6,0.3-1,0.9-1c0.9,0,1.7,0,2.6,0c1,0,1.7,0.7,1.7,1.8
		c0,0.4,0,0.8,0,1.2c0.1,1.1-0.2,1.9-1.4,2.3c0.3,0.6,0.7,1.2,1,1.8c0.5,0.9,0.5,1.4-0.1,1.7c-0.5,0.3-0.9,0-1.4-0.8
		c-0.5-0.8-1-1.7-1.5-2.6C45.5,25.6,46.2,26.9,45.3,27.9z M44,40.7c0,3.1,0,6.2,0,9.4c0,0.2,0.1,0.4,0,0.5c-0.2,0.3-0.3,0.7-0.6,0.8
		c-0.3,0.1-0.7-0.1-1-0.2c-0.2-0.1-0.4-0.4-0.5-0.6C40.6,49,39.3,47.5,38,46c-0.8-1-2.2-0.8-2.7,0.4c-0.2,0.6,0,1.1,0.3,1.6
		c2.7,4,5.3,7.9,8,11.9c1.4,2.1,3.4,3.1,5.9,3.1c2.2,0,4.3,0,6.5,0c2.4,0,3.8-1.3,3.8-3.8c0-5.2,0-10.3,0-15.5c0-0.2,0-0.4,0-0.6
		c-0.1-0.6-0.7-1.1-1.3-1.1c-0.6,0-1.2,0.4-1.3,1c0,0.2,0,0.4,0,0.6c0,1.3,0,2.7,0,4c0,0.6-0.3,1-0.8,1c-0.5,0-0.9-0.4-0.9-1
		c0-0.2,0-0.4,0-0.6c0-2.1,0-4.1,0-6.2c0-0.9-0.4-1.4-1.1-1.5c-0.9-0.1-1.5,0.5-1.5,1.5c0,1.6,0,3.2,0,4.7c0,0.5,0,1,0,1.5
		c0,0.6-0.4,1-0.9,1c-0.5,0-0.8-0.4-0.9-1c0-0.2,0-0.3,0-0.5c0-1.9,0-3.8,0-5.7c0-0.4-0.2-0.9-0.4-1.2c-0.4-0.4-0.9-0.4-1.4-0.2
		c-0.5,0.2-0.7,0.7-0.7,1.2c0,2,0,4,0,6c0,0.9-0.3,1.4-0.9,1.4c-0.6,0-0.9-0.4-0.9-1.4c0-5,0-10,0-15.1c0-0.3,0-0.6,0-0.8
		c-0.1-0.6-0.6-1.1-1.2-1.1c-0.8,0-1.3,0.6-1.3,1.5C44,34.3,44,37.5,44,40.7z M15.3,32.3c0.4,0.8,1,0.9,1.7,0.9c8.2,0,16.3,0,24.5,0
		c0.2,0,0.5,0,0.7,0c0-0.3,0-0.6,0-0.9C33.2,32.3,24.3,32.3,15.3,32.3z M62.2,32.3c-4.6,0-9.2,0-13.8,0c0,0.3,0,0.5,0,0.8
		c4.2,0,8.4,0,12.5,0C61.5,33.1,61.9,32.9,62.2,32.3z M47.5,20.9c-0.6,0-1.1,0-1.6,0c0,0.6,0,1.1,0,1.7c0.6,0,1.1,0,1.6,0
		C47.5,22,47.5,21.5,47.5,20.9z"/>
	<path class="st0" d="M21.7,50.7c-1.7,0-3.1-1.3-3.1-3c0-1.7,1.4-3.1,3.1-3.1c1.7,0,3.1,1.4,3.1,3.1C24.7,49.3,23.4,50.6,21.7,50.7z
		 M20.4,47.6c0,0.7,0.6,1.3,1.3,1.3c0.7,0,1.3-0.6,1.3-1.3c0-0.7-0.6-1.3-1.3-1.3C20.9,46.3,20.4,46.9,20.4,47.6z"/>
	<path class="st0" d="M23,62.9c0,0.3,0,0.6,0,0.9c0,0.5-0.3,0.8-0.8,0.8c-0.5,0-0.9-0.2-0.9-0.7c0-0.7,0-1.4,0-2
		c0-0.5,0.4-0.7,0.8-0.7c0.5,0,0.8,0.3,0.8,0.8C23,62.3,23,62.6,23,62.9C23,62.9,23,62.9,23,62.9z"/>
	<path class="st0" d="M23,57.7c0,0.3,0,0.6,0,0.9c0,0.5-0.3,0.8-0.8,0.9c-0.5,0-0.8-0.3-0.9-0.8c0-0.7,0-1.3,0-2
		c0-0.5,0.4-0.8,0.9-0.7c0.5,0,0.8,0.3,0.8,0.8C23,57.1,23,57.4,23,57.7z"/>
	<path class="st0" d="M24.7,61.1c-0.3,0-0.7,0-1,0c-0.5-0.1-0.7-0.4-0.7-0.8c0-0.4,0.2-0.8,0.7-0.8c0.7,0,1.4,0,2,0
		c0.5,0,0.7,0.4,0.7,0.8c0,0.5-0.3,0.8-0.8,0.9C25.4,61.2,25.1,61.2,24.7,61.1C24.7,61.2,24.7,61.2,24.7,61.1z"/>
	<path class="st0" d="M19.5,59.5c0.3,0,0.7,0,1,0c0.5,0.1,0.7,0.4,0.7,0.8c0,0.5-0.2,0.8-0.7,0.8c-0.7,0-1.4,0-2,0
		c-0.5,0-0.7-0.4-0.7-0.8c0-0.4,0.2-0.8,0.7-0.8C18.8,59.4,19.1,59.5,19.5,59.5z"/>
	<path class="st0" d="M33.1,54.6c0,0.5-0.4,1-0.9,1c-0.5,0-1-0.5-1-1c0-0.5,0.5-1,1-1C32.7,53.6,33.1,54,33.1,54.6z"/>
	<path class="st0" d="M52.7,23.5c0-1.1,0-2.1,0-3.2c0-0.8,0.3-1.1,1.1-1.1c0.8,0,1.6,0,2.4,0c1.1,0,1.8,0.7,1.7,1.8
		c0,0.8-0.2,1.6-0.2,2.5c0,0.8,0.1,1.6,0.2,2.4c0,1.4-0.7,2.1-2.1,2.1c-0.7,0-1.3,0-2,0c-0.9,0-1.2-0.3-1.2-1.2
		C52.7,25.7,52.7,24.6,52.7,23.5z M56.2,22.6c0-0.6,0-1.1,0-1.7c-0.6,0-1.1,0-1.7,0c0,0.6,0,1.1,0,1.7
		C55.1,22.6,55.6,22.6,56.2,22.6z M56.2,24.4c-0.6,0-1.1,0-1.7,0c0,0.6,0,1.1,0,1.7c0.6,0,1.1,0,1.7,0C56.2,25.6,56.2,25,56.2,24.4z
		"/>
	<path class="st0" d="M25.6,23.5c0-1.1,0-2.2,0-3.3c0-0.8,0.3-1.1,1.1-1.1c0.8,0,1.6,0,2.4,0c1.1,0,1.7,0.6,1.8,1.7
		c0,0.8-0.1,1.7-0.1,2.5c0,0.2,0,0.3,0.1,0.5c0,0.9,0.1,1.8,0,2.7c-0.1,0.7-0.8,1.3-1.6,1.3c-0.9,0-1.8,0-2.6,0
		c-0.6,0-0.9-0.3-0.9-1C25.6,25.8,25.6,24.7,25.6,23.5z M27.4,20.9c0,0.6,0,1.1,0,1.7c0.6,0,1.1,0,1.7,0c0-0.6,0-1.1,0-1.7
		C28.5,20.9,28,20.9,27.4,20.9z M29.1,26.1c0-0.6,0-1.1,0-1.7c-0.6,0-1.1,0-1.7,0c0,0.6,0,1.1,0,1.7C28,26.1,28.5,26.1,29.1,26.1z"
		/>
	<path class="st0" d="M60.7,20.9c0,0.6,0,1.2,0,1.8c0.8,0,1.6,0,2.4,0c0.7,0,1.1,0.3,1.1,0.8c0,0.5-0.4,0.9-1.1,0.9
		c-0.8,0-1.5,0-2.4,0c0,0.6,0,1.1,0,1.7c0.8,0,1.5,0,2.3,0c0.7,0,1.1,0.3,1.1,0.9c0,0.6-0.4,0.9-1.1,0.9c-1,0-2,0-3,0
		c-0.8,0-1.1-0.3-1.1-1.1c0-2.2,0-4.4,0-6.6c0-0.7,0.3-1,1.1-1c1,0,2.1,0,3.1,0c0.7,0,1.1,0.3,1.1,0.9c0,0.5-0.4,0.9-1,0.9
		C62.3,20.9,61.5,20.9,60.7,20.9z"/>
	<path class="st0" d="M21.2,26.1c0.6,0,1.2,0,1.7,0c0-0.3,0-0.5,0-0.7c0-1.8,0-3.5,0-5.3c0-0.6,0.3-1,0.9-1c0.5,0,0.9,0.3,0.9,1
		c0,2,0,4,0,6c0,1-0.7,1.7-1.8,1.8c-0.6,0-1.2,0-1.7,0c-1.1-0.1-1.7-0.8-1.7-1.8c0-2,0-3.9,0-5.9c0-0.6,0.3-1,0.8-1
		c0.6,0,0.9,0.3,0.9,1c0,1.7,0,3.4,0,5.1C21.2,25.5,21.2,25.8,21.2,26.1z"/>
	<path class="st0" d="M15.1,22.7c0.6,0,1.1,0,1.6,0c1.1,0,1.8,0.7,1.8,1.8c0,0.5,0,1.1,0,1.6c0,1.1-0.7,1.8-1.7,1.8
		c-0.9,0-1.7,0-2.6,0c-0.5,0-0.9-0.3-0.9-0.9c0-0.5,0.4-0.9,0.9-0.9c0.8,0,1.6,0,2.5,0c0-0.6,0-1.1,0-1.7c-0.5,0-0.9,0-1.4,0
		c-1.4,0-2-0.7-2-2.1c0-0.5,0-0.9,0-1.4c0-1,0.7-1.7,1.7-1.8c0.9,0,1.7,0,2.6,0c0.6,0,1,0.4,1,0.9c0,0.5-0.4,0.8-1,0.8
		c-0.8,0-1.6,0-2.4,0C15.1,21.5,15.1,22,15.1,22.7z"/>
	<path class="st0" d="M33.5,20.9c0,0.6,0,1.1,0,1.8c0.5,0,1,0,1.6,0c1.2,0,1.9,0.7,1.9,1.9c0,0.5,0,1.1,0,1.6c0,1-0.7,1.7-1.7,1.8
		c-0.9,0-1.7,0-2.6,0c-0.6,0-1-0.4-1-0.9c0-0.5,0.4-0.8,1-0.9c0.8,0,1.6,0,2.5,0c0-0.6,0-1.1,0-1.7c-0.5,0-1,0-1.4,0
		c-1.3,0-2-0.7-2-2c0-0.5,0-1.1,0-1.6c0.1-1,0.7-1.6,1.7-1.6c0.9,0,1.7,0,2.6,0c0.5,0,0.9,0.3,0.9,0.8c0,0.5-0.3,0.9-0.9,0.9
		C35.2,20.9,34.4,20.9,33.5,20.9z"/>
	<path class="st0" d="M39.6,20.9c0,1.8,0,3.5,0,5.3c0.8,0,1.5,0,2.3,0c0.8,0,1.2,0.3,1.1,0.9c0,0.5-0.4,0.9-1.1,0.9
		c-0.7,0-1.5,0-2.2,0c-1.2,0-1.9-0.7-1.9-1.9c0-1.7,0-3.3,0-5c0-1.1,0.7-1.8,1.9-1.8c0.8,0,1.6,0,2.4,0c0.7,0,1,0.3,1,0.9
		c0,0.5-0.4,0.8-1,0.8C41.3,20.9,40.5,20.9,39.6,20.9z"/>
	<path class="st0" d="M50.1,23.5c0-1.1,0-2.2,0-3.3c0-0.6,0.3-1,0.8-1c0.5,0,0.9,0.3,0.9,1c0,2.2,0,4.5,0,6.7c0,0.6-0.4,1-0.9,1
		c-0.5,0-0.8-0.4-0.8-1C50.1,25.8,50.1,24.6,50.1,23.5z"/>
</g>
</svg>
