<?xml version="1.0" encoding="utf-8"?>
<!-- Generator: Adobe Illustrator 21.0.0, SVG Export Plug-In . SVG Version: 6.00 Build 0)  -->
<svg version="1.1" id="Layer_1" xmlns="http://www.w3.org/2000/svg" xmlns:xlink="http://www.w3.org/1999/xlink" x="0px" y="0px"
	 viewBox="0 0 100 100" style="enable-background:new 0 0 100 100;" xml:space="preserve">
<style type="text/css">
	.st0{fill:#5F6E9B;}
	.st1{fill:#424C82;}
	.st2{fill:#FEB69E;}
	.st3{fill:#F6AB92;}
	.st4{fill:#FE6473;}
	.st5{fill:#64AEFE;}
	.st6{fill:#FEB59E;}
	.st7{fill:#E54B39;}
	.st8{fill:#45775B;}
	.st9{fill:#FEFEFE;}
	.st10{fill:#F45665;}
	.st11{fill:#4699F1;}
</style>
<g>
	<path class="st0" d="M88.2,75c0.2,1.7-0.5,2.9-1.9,3.8c-1.7,1.1-3.5,2.2-5.2,3.3c-0.3,0.2-0.5,0.3-0.7,0.6c1.6,0,3.2,0,4.7,0
		c1.7,0,3.2,1.1,3.7,2.7c0.6,1.9-0.4,3.8-2.2,4.6c-0.2,0.1-0.5,0-0.6,0.3c-6.5,0-13,0-19.5,0c-0.7-0.2-1.3-0.4-1.8-0.8
		c-0.1-0.1-0.1-0.2-0.2-0.3c-2-1.7-1.5-5,0.8-6.2c0.3-0.2,0.7-0.3,0.8-0.8c0.2,0.2,0.3,0.1,0.5,0c2.8-1.8,5.6-3.6,8.3-5.3
		c0.7,0,1.5,0.2,2.2,0.1C80.9,76.4,84.5,75.7,88.2,75z"/>
	<path class="st1" d="M66.2,82.4c-0.1,0.5-0.4,0.6-0.8,0.8c-2.3,1.2-2.8,4.4-0.8,6.2c0.1,0.1,0.1,0.2,0.2,0.3
		c-0.4,0.4-1,0.4-1.4,0.8c-0.6,0-1.1,0-1.7,0c-0.1-0.2-0.2-0.2-0.4-0.2c-1.6-0.7-2.5-1.9-2.5-3.6c-0.1-4.4-0.2-8.8-0.3-13.1
		c0-2,1.3-3.5,3.2-3.8c2.7-0.4,5.4-0.8,8.2-1.2c0.1,0.4,0.1,0.8,0.2,1.1c0.3,2.2,0.5,4.5,2.3,6.1c-1.9,0.3-3.8,0.6-5.6,0.8
		c-0.4,0.1-0.6,0.2-0.6,0.7C66.1,78.9,66.1,80.7,66.2,82.4z"/>
	<path class="st2" d="M17.7,90.4c-1.6-0.5-2.7-1.5-3-3.2c-0.1-0.7,0-1.3,0.2-1.9c1.1-4.6,2.1-9.1,3.2-13.7c0.3-1.1,0.1-2.3,0.1-3.5
		c2.5,0,5.1,0,7.6,0c-0.1,1.6,0.2,3.2-0.2,4.8c-1.1,4.5-2.2,9.1-3.2,13.6c-0.4,1.9-1.3,3.3-3.3,3.9C18.6,90.4,18.2,90.4,17.7,90.4z"
		/>
	<path class="st2" d="M36.1,68.1c0.5,1.6,0.6,3.3,0.6,4.9c0.1,4,0.3,8,0.5,12c0,0.7,0.2,1.3,0.1,2c-0.3,1.8-1.4,2.8-3,3.3
		c-0.5,0-0.9,0-1.4,0c-1.5-0.5-2.7-1.3-3-3c-0.2-0.7-0.2-1.5-0.2-2.2c-0.2-4-0.4-8-0.5-12c0-1.4-0.2-2.7-0.6-4
		c-0.1-0.3-0.1-0.7-0.2-1.1C30.9,68.1,33.5,68.1,36.1,68.1z"/>
	<path class="st3" d="M33.6,22.7c-3,3.1-7.9,2.7-10.4-0.8c-2.8-4-0.9-9.3,3.9-10.6c0.2,0,0.4,0,0.5-0.2c0.8,0,1.5,0,2.3,0
		c1.4,0.4,2.6,0.9,3.7,2c1.7,1.8,2.3,3.9,1.8,6.3c-0.1,0.3-0.1,0.5-0.1,0.8c0,0,0,0,0,0c-0.1,0.1-0.1,0.1-0.2,0.2
		C34.3,21,34,21.8,33.6,22.7z"/>
	<path class="st4" d="M28.3,68.1c-0.9,0-1.7,0-2.6,0c-2.5,0-5.1,0-7.6,0c-1,0-1.9,0-2.9,0c-1.8,0-2.9-1.4-2.6-3.2
		C14.8,53.6,17,42.3,19.1,31c0.4-2,1.8-3.4,4-3.6c2.1-0.2,4.2-0.1,6.3,0c1.8,0,3,1,3.9,2.4c0,0.2,0,0.4,0,0.6c0,1.3-0.1,1.3-1.2,1
		c0,0-0.1,0-0.2,0c-0.1-0.1-0.2-0.2-0.3-0.3c-1.7-0.8-3.5-1.7-5.2-2.5c-1.7-0.8-3.4,0.3-3.9,1.5c-0.6,1.3,0,3.3,1.6,4
		c1.7,0.7,3.4,1.6,5.1,2.4c0.2,0.1,0.4,0.2,0.7,0.2c1.7,1,3.6,1.9,5.5,2.6c1.6,8.5,3.2,17,4.8,25.6c0.3,1.7-0.8,3.1-2.6,3.2
		c-0.4,0-0.8,0-1.2,0C33.5,68.1,30.9,68.1,28.3,68.1z"/>
	<path class="st5" d="M72.3,75.6c-1.8-1.6-2-3.9-2.3-6.1c0-0.4-0.1-0.8-0.2-1.1c0-0.1,0-0.2,0-0.3c1.2-0.9,2-2.2,3-3.4
		c0.4-0.5,1-1,1.2-1.7c0.3-0.2,0.6-0.5,0.8-0.7c1.4-1.7,2.8-3.5,4.2-5.2c1.2-1.4,1-3.3-0.4-4.4c-1.3-1-3.2-0.7-4.3,0.6
		c-1.2,1.5-2.4,2.9-3.5,4.3c-0.4,0.5-1.1,0.9-1.2,1.7c-0.5,0-0.5,0.6-0.9,0.7c-0.3-1.8-0.2-3.6,0.4-5.4c1.2-2.5,3.1-4.3,5.8-5.1
		c4.1-1.2,7.9,0.3,9.8,3.8c0.7,1.2,0.8,2.5,1,3.8c0.7,4.8,1.3,9.6,2,14.4c0.2,1.2,0.3,2.4,0.5,3.7c-3.7,0.7-7.4,1.4-11,2.1
		c-0.8,0.2-1.5-0.1-2.2-0.1C74,76.7,73.1,76.3,72.3,75.6z"/>
	<path class="st2" d="M67.9,38.2c3.6-0.2,6.8,3,6.8,6.7c0,3.9-3.4,6.9-6.8,6.8c-3.6-0.1-6.8-2.8-6.7-6.8
		C61.1,40.6,64.6,38.1,67.9,38.2z"/>
	<path class="st6" d="M74,63c-0.2,0.7-0.8,1.1-1.2,1.7c-1,1.2-1.8,2.5-3,3.4c-1.5,0.5-3,0.1-4.4,0c-1.9-0.1-3.8-0.4-5.7-0.6
		c-0.6-0.1-1.2-0.1-1.8-0.1c-0.7-0.1-1.4-0.2-2.2-0.2C55.2,67,54.5,67,54,66.7c-1.1-0.7-1.8-1.9-1.6-3c0.3-1.5,1.3-2.5,2.9-2.7
		c0.2,0,0.3,0,0.5,0c0.7,0.2,1.4,0.1,2.1,0.3c1.2,0.1,2.3,0.2,3.5,0.3c1.4,0.1,2.8,0.3,4.3,0.4c0.6,0,1.2,0.3,1.6-0.3
		c0.4-0.6,1-1.1,1.3-1.7c0.4-0.2,0.4-0.7,0.9-0.7C71,60.5,72.5,61.7,74,63z"/>
	<path class="st6" d="M31.8,31.4c0.1,0,0.1,0,0.2,0c1.2,0.3,1.2,0.3,1.2-1c0-0.2,0-0.4,0-0.6c0.2-2.2,0.4-4.4,0.6-6.6
		c0-0.2,0-0.3-0.1-0.4c0.3-0.9,0.7-1.8,1.5-2.3c0.1-0.1,0.1-0.1,0.2-0.2c0,0,0,0,0,0c1-0.2,1.9-0.4,2.8,0.1c1.2,0.7,1.7,2,1.5,3.8
		c-0.2,1.6-0.3,3.2-0.4,4.8c-0.2,2.6-0.4,5.2-0.6,7.8c-0.2,1.6-1.4,2.5-3.5,2.5c-1.9-0.8-3.7-1.6-5.5-2.6
		C30.3,34.9,31,33.2,31.8,31.4z"/>
	<path class="st3" d="M68.6,60c-0.3,0.6-0.9,1.1-1.3,1.7c-0.4,0.6-1.1,0.4-1.6,0.3c-1.4-0.1-2.8-0.3-4.3-0.4
		c-1.2-0.1-2.3-0.2-3.5-0.3c0-1.5,0-3,0-4.5c0.7-0.3,1.3-0.7,1.8-1.2c1.4,0.6,2.8,1.2,4.3,1.8c0.4,0.2,0.7,0.2,1.1-0.1
		c1.3-0.9,2.6-1.8,4-2.7C68.4,56.3,68.3,58.1,68.6,60z"/>
	<path class="st7" d="M59.7,55.6c-0.5,0.5-1.1,1-1.8,1.2c-0.7,0.2-1.4,0.2-2.1,0c-0.5-0.3-0.9-0.5-1.4-0.8c-0.9-1.1-1.2-2.3-1.1-3.7
		c0.1-0.8,0-1.6,0-2.5c0-0.3,0-0.6,0.3-0.8c0.3-0.2,0.5,0.1,0.8,0.2c0.7,0.5,1.3,1,2,1.5c0.4,0.3,0.8,0.3,1.2,0c0.7-0.5,1.4-1,2-1.5
		c0.2-0.1,0.4-0.3,0.6-0.2c0.3,0.1,0.3,0.4,0.3,0.7c0,1.3,0,2.5,0,3.8C60.4,54.3,60,54.9,59.7,55.6z"/>
	<path class="st8" d="M55.8,67.1c0.7-0.1,1.4,0.1,2.2,0.2c0,1.5,0,2.9,0,4.4c0,0.8-0.4,1.3-1,1.3c-0.6,0-1.1-0.5-1.1-1.3
		C55.8,70.2,55.8,68.7,55.8,67.1z"/>
	<path class="st8" d="M55.8,56.8c0.7,0.2,1.4,0.2,2.1,0c0,1.5,0,3,0,4.5c-0.7-0.2-1.4,0-2.1-0.3c0-0.2,0-0.4,0-0.6
		C55.7,59.2,55.8,58,55.8,56.8z"/>
	<path class="st3" d="M55.8,56.8c0,1.2,0,2.4,0,3.6c-1.8-0.8-2.5-2.9-1.4-4.3C54.8,56.3,55.3,56.5,55.8,56.8z"/>
	<path class="st9" d="M35.3,20.3c-0.1,0.1-0.1,0.1-0.2,0.2C35.2,20.4,35.3,20.3,35.3,20.3z"/>
	<path class="st10" d="M31.8,31.4c-0.7,1.8-1.4,3.5-2.2,5.3c-0.2,0-0.5-0.1-0.7-0.2c-1.7-0.8-3.3-1.7-5.1-2.4
		c-1.6-0.7-2.2-2.7-1.6-4c0.6-1.2,2.3-2.3,3.9-1.5c1.7,0.8,3.5,1.6,5.2,2.5C31.6,31.2,31.7,31.3,31.8,31.4z"/>
	<path class="st11" d="M74,63c-1.5-1.3-3-2.5-4.4-3.8c0.1-0.7,0.8-1.1,1.2-1.7c1.1-1.5,2.4-2.9,3.5-4.3c1.1-1.4,3-1.7,4.3-0.6
		c1.4,1.1,1.5,3,0.4,4.4c-1.4,1.7-2.8,3.5-4.2,5.2C74.5,62.5,74.3,62.8,74,63z"/>
</g>
</svg>
