<?xml version="1.0" encoding="utf-8"?>
<!-- Generator: Adobe Illustrator 21.0.0, SVG Export Plug-In . SVG Version: 6.00 Build 0)  -->
<svg version="1.1" id="Layer_1" xmlns="http://www.w3.org/2000/svg" xmlns:xlink="http://www.w3.org/1999/xlink" x="0px" y="0px"
	 viewBox="0 0 78 78" style="enable-background:new 0 0 78 78;" xml:space="preserve">
<style type="text/css">
	.st0{fill:#FF15AC;}
</style>
<g>
	<path class="st0" d="M31.1,54.2c3.1,2.2,4,5.3,3.5,8.9c0.9,0.2,1.1,0.7,1.1,1.5c0,1.8,0,3.5,0,5.3c0,1-0.3,1.3-1.3,1.3
		c-7.2,0-14.4,0-21.6,0c-0.9,0-1.3-0.4-1.3-1.3c0-1.7,0-3.4,0-5.2c0-1.3,0.1-1.4,1.4-1.7c-1-3.6-2.1-7.2-3.1-10.8
		c-0.2-0.7-0.3-1.5-0.3-2.3c0-3.9,0-7.9,0-11.8c0-1,0.2-2,0.8-2.9c4.1-7.2,8.3-14.3,12.4-21.5c1.1-1.9,2.8-2.9,5-2.6
		c2.1,0.2,3.5,1.4,4.2,3.3c0.6,1.5,0.4,2.9-0.4,4.3c-1.1,1.9-2.1,3.7-3.2,5.6c-0.1,0.2-0.3,0.5-0.5,0.8c0.7-0.2,1.3-0.3,1.9-0.5
		c11.5-3,23.1-5.9,34.6-8.9c1.3-0.3,1.7,0,1.7,1.3c0,1.2,0,2.4,0,3.7c0.3,0,0.6-0.1,0.8-0.1c0.7-0.1,1.2,0.3,1.2,1.1
		c0,1.3,0,2.6,0,3.9c0.3,0,0.6,0,0.9,0c0.7,0,1,0.4,1.1,1.1c0,0.1,0,0.3,0,0.4c0,8.4,0,16.8,0,25.2c0,1.2-0.3,1.5-1.5,1.5
		c-12.2,0-24.3,0-36.5,0c-0.2,0-0.5,0-0.7,0C31.2,54.1,31.2,54.2,31.1,54.2z M32.7,63.2c0-0.9,0-1.6,0-2.4c0-1.5-0.5-2.7-1.5-3.7
		c-1-1-1.9-1.9-2.9-2.9c-0.9-0.9-0.9-1.3,0-2.1c2.7-2.7,5.4-5.4,8.1-8.1c1.3-1.3,1.3-3.3,0-4.5c-1.2-1.1-3.1-1-4.3,0.3
		c-2.8,2.9-5.7,5.9-8.5,8.8c-0.4,0.4-0.7,0.7-1.3,0.5c-0.6-0.2-0.7-0.7-0.7-1.2c0-1.8,0-3.5,0-5.3c0-5.1,0-10.2,0-15.3
		c0-1,0.3-1.3,1.3-1.3c0.6,0,1.2,0,1.8,0c0.2,0,0.5-0.2,0.6-0.3c1.5-2.6,3-5.2,4.5-7.8c0.3-0.5,0.4-1.2,0.4-1.7
		c-0.1-1.4-1.1-2.4-2.4-2.7c-1.3-0.3-2.5,0.3-3.3,1.5C20.3,22,16.1,29.2,12,36.5c-0.3,0.5-0.4,1.2-0.5,1.7c0,4,0,8.1,0,12.1
		c0,0.4,0.1,0.9,0.2,1.3c1,3.7,2.1,7.3,3.1,11c0.1,0.5,0.3,0.6,0.8,0.6c5.5,0,11,0,16.5,0C32.2,63.2,32.4,63.2,32.7,63.2z M68,27.9
		c-14.8,0-29.6,0-44.3,0c0,5.9,0,11.7,0,17.7c0.2-0.3,0.4-0.5,0.5-0.6c2.2-2.2,4.3-4.5,6.5-6.7c1.1-1.1,2.4-1.7,4-1.6
		c0.5,0,1,0.1,1.5,0.2c2-5.5,7-7.4,10.6-7c4.6,0.5,8.1,3.8,8.9,8.2c0.8,4.3-1.3,8.6-5.1,10.7c-2,1.1-4.1,1.5-6.4,1.1
		c-2.8-0.5-5-1.9-6.6-4.1C35.5,48,33.4,50,31.4,52c12.1,0,24.3,0,36.5,0C68,44,68,36,68,27.9z M53.9,40c0-4.1-2.9-7.4-6.9-8
		c-3.8-0.6-7.5,1.7-8.8,5.4c-0.2,0.5-0.2,0.8,0.2,1.3c1.1,1.5,1.3,3.1,0.7,4.8c-0.2,0.4-0.1,0.7,0.1,1.1c2,2.9,5.7,4.2,9.1,3.1
		C51.6,46.6,53.9,43.5,53.9,40z M33.7,65.2c-6.7,0-13.4,0-20.1,0c0,1.3,0,2.6,0,4c6.7,0,13.4,0,20.1,0
		C33.7,67.9,33.7,66.6,33.7,65.2z M63.9,18.1c-8,2.1-16,4.1-24,6.2c0,0,0,0.1,0,0.1c8-1.1,16-2.1,24-3.2
		C63.9,20.2,63.9,19.2,63.9,18.1z M44.8,25.8C44.8,25.8,44.8,25.8,44.8,25.8c7.1,0.1,14.1,0.1,21.2,0.1c0-1,0-1.9,0-2.8
		C58.9,23.9,51.8,24.8,44.8,25.8z"/>
	<path class="st0" d="M32.7,28.9c0,0.7,0,1.3,0,2c-0.7,0-1.4,0-2.1,0c-0.5,1.5-1.4,2.5-2.9,2.9c0,0.7,0,1.4,0,2.1c-0.7,0-1.3,0-2,0
		c0-1,0-2.1,0-3.1c0-0.5,0.4-0.8,0.9-0.9c1.4-0.2,1.9-0.7,2.1-2.1c0.1-0.6,0.4-0.9,1-0.9C30.6,28.9,31.6,28.9,32.7,28.9z"/>
	<path class="st0" d="M66,36.9c-0.7,0-1.3,0-2,0c0-0.6,0-1.2,0-1.7c0-0.2-0.1-0.4-0.2-0.5c-1.3-0.5-2.2-1.4-2.6-2.8
		c-0.7,0-1.4,0-2.1,0c0-0.7,0-1.3,0-2c1,0,2,0,3.1,0c0.5,0,0.8,0.4,0.9,0.9c0.2,1.4,0.7,1.9,2.1,2.1c0.5,0.1,0.9,0.4,0.9,0.9
		C66,34.9,66,35.9,66,36.9z"/>
	<path class="st0" d="M58.9,50.1c0-0.7,0-1.3,0-2c0.6,0,1.1,0,1.7,0c0.2,0,0.5-0.2,0.5-0.3c0.5-1.2,1.3-2,2.5-2.4
		c0.2-0.1,0.3-0.3,0.3-0.5c0-0.6,0-1.1,0-1.7c0.7,0,1.3,0,2,0c0,1.1,0,2.2,0,3.2c0,0.5-0.5,0.7-0.9,0.8c-1.3,0.2-1.9,0.7-2,2
		c-0.1,0.6-0.4,1-1,1C60.9,50.1,60,50.1,58.9,50.1z"/>
	<path class="st0" d="M42.8,42c0.7,0,1.3,0,2,0c0.1,0.1,0.1,0.3,0.2,0.4c0.2,0.5,0.6,0.7,1.2,0.5c0.5-0.1,0.8-0.5,0.7-1
		c0-0.5-0.4-0.8-0.9-0.9c-0.3-0.1-0.6,0-0.9-0.1c-1.2-0.3-2-1.2-2.2-2.4c-0.2-1.2,0.2-2.3,1.2-2.9c0.6-0.4,0.9-0.8,0.7-1.6
		c0.7,0,1.3,0,2,0c0,0,0.1,0.1,0.1,0.1c-0.1,0.7,0.2,1.1,0.8,1.5c0.8,0.5,1.2,1.3,1.2,2.3c-0.7,0-1.3,0-2,0c0-0.1-0.1-0.2-0.1-0.3
		c-0.2-0.5-0.7-0.8-1.2-0.7c-0.5,0.2-0.8,0.5-0.7,1c0,0.5,0.4,0.9,1,0.9c1.7,0.2,2.9,1.2,3,2.8c0.1,1.2-0.4,2.2-1.4,2.8
		c-0.5,0.3-0.7,0.6-0.6,1.2c0,0.1,0,0.2,0,0.3c-0.7,0-1.3,0-1.9,0c0,0-0.1-0.1-0.1-0.1c0.1-0.7-0.2-1.1-0.8-1.5
		C43.2,43.9,42.8,43,42.8,42z"/>
</g>
</svg>
