<?xml version="1.0" encoding="utf-8"?>
<!-- Generator: Adobe Illustrator 21.0.0, SVG Export Plug-In . SVG Version: 6.00 Build 0)  -->
<svg version="1.1" id="Layer_1" xmlns="http://www.w3.org/2000/svg" xmlns:xlink="http://www.w3.org/1999/xlink" x="0px" y="0px"
	 viewBox="0 0 100 100" style="enable-background:new 0 0 100 100;" xml:space="preserve">
<style type="text/css">
	.st0{fill:#8CC6EB;}
	.st1{fill:#FC7DAC;}
	.st2{fill:#FE3D43;}
	.st3{fill:#D72F2F;}
	.st4{fill:#FB63A1;}
	.st5{fill:#A58260;}
	.st6{fill:#6E563D;}
	.st7{fill:#FEC79E;}
	.st8{fill:#8C6B51;}
	.st9{fill:#604B36;}
	.st10{fill:#F6AF81;}
	.st11{fill:#67B9E9;}
	.st12{fill:#DF9C77;}
	.st13{fill:#49484A;}
</style>
<g>
	<path class="st0" d="M11.1,85.4c0.4-0.8,0.4-1.7,0.6-2.5c1.9-6.8,6.1-11.5,12.7-14c0.2-0.1,0.4-0.2,0.6-0.3c0.2,0,0.3,0.1,0.4,0.3
		c-0.2,0.3-0.2,0.7-0.1,1c0.6,3.3,4,5.5,7.3,4.7c2.1-0.5,3.4-1.9,4.2-3.8c0.1,0.2,0.2,0.3,0.4,0.4c2.8,2,5,4.5,6.6,7.6
		c1.1,2.2,1.8,4.5,2,6.9c0.1,1,0.5,2.2-0.4,3.2c1.4,0,2.8,0,4.1,0c0.1,0,0.2,0,0.3,0.2c-12.7,0-25.3,0-38,0c-0.5,0-0.7-0.1-0.6-0.6
		C11.1,87.3,11.1,86.4,11.1,85.4z"/>
	<path class="st1" d="M49.7,88.9c0-0.1-0.2-0.2-0.3-0.2c-0.3-0.3-0.5-0.5-0.5-1c0-0.9,0-1.7,0.1-2.6c0.2-1.5,0.7-3,1-4.4
		c0.1-0.2,0.2-0.4,0.3-0.6c0.8-1.9,1.8-3.6,3.1-5.2c0.3-0.4,0.9-0.7,1-1.4c0.6-0.2,0.9-0.7,1.4-1.1c2-1.7,4.3-3.1,6.9-3.9
		c0.2,0,0.4,0,0.6,0.2c-0.3,0.5-0.2,1-0.1,1.5c1.2,4.1,5.9,5.8,9.3,3.3c0.9-0.7,1.5-1.6,2-2.6c0.2,0,0.3,0.1,0.5,0.2
		c1.7,1.2,3.3,2.6,4.5,4.3c2.1,2.8,3.4,5.9,3.9,9.3c0.2,1.3,0.5,2.6-0.2,4c1.4,0,2.8,0,4.1,0c0.3,0,0.6-0.1,0.8,0.1
		C75.3,88.9,62.5,88.9,49.7,88.9z"/>
	<path class="st2" d="M47.4,33.2c-3.6-2.2-7-4.8-9.1-8.6c-1.6-2.8-2.1-5.9-0.8-9c0.9-2.3,2.6-3.7,5-4.4c0.2-0.1,0.5,0,0.7-0.3
		c0.8,0,1.5,0,2.3,0c0,0,0,0.1,0.1,0.1c1.6,0.3,3.1,0.9,4.2,2.1c0.3,0.3,0.4,0,0.6-0.1c0.8-0.7,1.7-1.3,2.7-1.6
		c1.2,0.6,2.4,1.3,3.2,2.4c2,3.1,2.1,6.3,0.7,9.6c-1.4,3.1-3.7,5.4-6.3,7.4C49.6,31.8,48.5,32.5,47.4,33.2z"/>
	<path class="st3" d="M47.4,33.2c1.1-0.8,2.2-1.5,3.2-2.3c2.6-2,4.9-4.3,6.3-7.4c1.5-3.3,1.4-6.5-0.7-9.6c-0.8-1.2-2-1.8-3.2-2.4
		c0.5-0.3,1.1-0.2,1.5-0.5c0.7,0,1.4,0,2.1,0c0.4,0.3,0.9,0.2,1.3,0.4c2.9,1,4.6,3.1,5.1,6c0.7,3.7-0.7,6.8-2.9,9.5
		c-2.6,3.2-5.8,5.4-9.4,7.3c-0.5,0.3-1,0.3-1.5,0C48.6,34,48,33.7,47.4,33.2z"/>
	<path class="st4" d="M88.2,88.9c-0.2-0.3-0.5-0.1-0.8-0.1c-1.4,0-2.7,0-4.1,0c0.7-1.3,0.4-2.7,0.2-4c-0.5-3.4-1.8-6.5-3.9-9.3
		c-1.3-1.7-2.8-3.1-4.5-4.3c-0.1-0.1-0.3-0.2-0.5-0.2c0-0.7,0.6-1.4,0.1-2.1c0.2-0.2,0.4-0.2,0.6-0.2c1.8,0.5,3.4,1.5,5,2.5
		c1,0.8,2,1.7,3.1,2.5c0.5,0.7,1.1,1.3,1.6,2c2.1,2.9,3.5,6.1,3.9,9.7c0,0.1,0.1,0.2,0.1,0.2c0,0.9-0.1,1.7,0,2.6
		C89,88.8,88.8,89.1,88.2,88.9z"/>
	<path class="st5" d="M62.7,68.7c-2.6,0.8-4.8,2.1-6.9,3.9c-0.4,0.4-0.8,0.9-1.4,1.1c-1-0.8-1.7-1.8-2.3-2.9
		c-1.8-3.6-2.3-7.5-2.6-11.4c-0.1-2,0-4.1,0-6.2c0-0.2,0.1-0.4,0.1-0.7c0-1.1,0.2-2.1,0.4-3.2c0.4-1.1,0.6-2.4,1-3.5
		c2.8-6.6,7.8-10.5,14.8-11.9c0.3-0.1,0.7-0.2,1-0.1c0,0.3,0.3,0.2,0.5,0.3c1.6,0.3,3.1,0.8,4.5,1.5c3.6,1.7,6.4,4.3,8.4,7.7
		c1.7,3,2.4,6.3,2.6,9.7c-0.3-0.2-0.5-0.5-0.9-0.6c-1.6-0.3-3-1-4.4-1.7c-1.1-0.7-2.1-1.6-3-2.5c-0.8-0.8-1.5-1.7-2.2-2.5
		c-0.6-0.7-1.4-0.6-1.9,0.2c-0.1,0.2-0.2,0.4-0.3,0.5c-2.3,3.4-5.7,4.9-9.6,5.7c-1.5,0.3-3,0.2-4.5,0.4c-0.7,0.1-1,0.5-1.1,1.2
		c-0.1,1.4-0.1,2.9,0.2,4.3c0.8,4.4,3.1,7.8,7,10.1C62.3,68.2,62.6,68.3,62.7,68.7z"/>
	<path class="st6" d="M13.8,57.2c-0.7-2-1.3-4-1.6-6.1c-0.9-6.9,2.2-12.7,8.5-15.7c3.3-1.6,6.8-2.2,10.4-1.4c1.4,0.3,2.5,1,3.5,2
		c0.3,0.4,0.6,0.5,1.1,0.3c0.5-0.2,1-0.4,1.5-0.4c0,0.3,0.2,0.4,0.4,0.5c2.8,1.1,4.8,3,6,5.7c0.8,1.9,1,3.9,1.1,5.9
		c0,1.5-0.3,2.9-0.4,4.4c-1.6-0.3-3.1-0.9-4.6-1.8c-2-1.3-3.7-3-5.2-4.9c-0.7-0.9-1.6-0.9-2.2,0.1c-0.2,0.4-0.5,0.8-0.7,1.1
		c-2.3,2.9-5.5,4.3-9,4.9c-1.4,0.3-2.8,0.3-4.2,0.4c-1.2,0-1.5,0.4-1.5,1.5c0,0.5,0,1,0,1.5c-0.7,0.1-1.4,0.2-2,0.7
		C14.7,56.5,14.3,56.9,13.8,57.2z"/>
	<path class="st7" d="M17.1,55.5c0-0.5,0-1,0-1.5c0-1.1,0.3-1.5,1.5-1.5c1.4,0,2.8-0.1,4.2-0.4c3.5-0.7,6.7-2,9-4.9
		c0.3-0.4,0.5-0.8,0.7-1.1c0.6-1,1.4-1.1,2.2-0.1c1.4,1.9,3.1,3.6,5.2,4.9c-0.1,2.6,0.2,5.1-0.3,7.7C38.9,62,37,64.8,34.3,67
		c-1.6,1.3-3.4,2-5.3,2.6c-0.8,0.1-1.5-0.1-2.3-0.4c-0.4-0.1-0.8-0.4-1.3-0.4c-0.1-0.2-0.2-0.3-0.4-0.3c-1.3-0.8-2.6-1.6-3.8-2.8
		c-0.6-0.6-1-1.2-1.5-1.8c-0.2-0.2-0.3-0.5-0.6-0.5c0-0.2,0-0.3-0.1-0.5C17.7,60.7,17.1,58.2,17.1,55.5z M36.4,60.1
		c1,0,1.8-0.8,1.9-1.8c0-1-0.8-1.8-1.8-1.9c-1,0-1.9,0.8-1.9,1.9C34.6,59.2,35.4,60.1,36.4,60.1z M27.6,58.2c0-1-0.9-1.8-1.8-1.8
		c-1,0-1.9,0.8-1.8,1.9c0,1,0.8,1.8,1.9,1.8C26.8,60.1,27.6,59.2,27.6,58.2z"/>
	<path class="st8" d="M82.8,53.1c-0.2-3.4-0.9-6.7-2.6-9.7c-2-3.4-4.8-6-8.4-7.7c-1.4-0.7-2.9-1.2-4.5-1.5c-0.2,0-0.4,0-0.5-0.3
		c9.1-1,17.1,4.6,20,12.2c0.8,2.1,1.1,4.3,1.3,6.5c0.3,2.8,0.3,5.5,0,8.3c-0.4,3.7-0.9,7.3-2.9,10.6c-0.5,0.8-1.1,1.6-2,2.2
		c-1-0.8-2-1.7-3.1-2.5c0.2-1,0.8-1.8,1.1-2.7c1-3.2,1.4-6.4,1.6-9.7c0-0.3,0.1-0.6-0.1-0.8C82.9,56.3,83.1,54.7,82.8,53.1z"/>
	<path class="st9" d="M44.4,52.5c0.1-1.5,0.4-3,0.4-4.4c0-2-0.2-4-1.1-5.9c-1.2-2.8-3.3-4.6-6-5.7c-0.2-0.1-0.4-0.2-0.4-0.5
		c3.4-0.7,6.5,0.2,9.1,2.5c2.5,2.2,3.5,5,3.7,8.2c0.1,0.9,0,1.8,0,2.7c-0.2,1-0.4,2.1-0.4,3.2c0,0.2-0.1,0.4-0.1,0.7
		c-0.4,1.4-0.8,2.7-1.3,4.1c-0.9-0.9-1.8-1.6-3.1-1.7c0-0.5,0-1.1,0-1.6C45.2,53.3,44.9,52.9,44.4,52.5z"/>
	<path class="st10" d="M17.1,55.5c0,2.6,0.6,5.1,1.9,7.4c0.1,0.2,0.1,0.3,0.1,0.5c-1.8,0.7-3.6,0.4-4.7-0.9c-1.2-1.3-1.5-3-0.7-4.8
		c0.1-0.2,0.1-0.4,0.2-0.6c0.4-0.3,0.8-0.7,1.2-1C15.7,55.8,16.4,55.6,17.1,55.5z"/>
	<path class="st11" d="M50,80.8c-0.3,1.5-0.8,2.9-1,4.4c-0.1,0.9-0.1,1.7-0.1,2.6c0,0.4,0.3,0.7,0.5,1c-1.3,0-2.7,0-4.1,0
		c0.9-1,0.5-2.2,0.4-3.2c-0.2-2.4-0.9-4.7-2-6.9c-1.6-3.1-3.8-5.6-6.6-7.6C37,71,36.8,71,36.7,70.8c0.1-0.7,0.4-1.3,0.1-2
		c0.1-0.2,0.3-0.2,0.5-0.3c0.1,0,0.2,0.1,0.3,0.1c3.8,1.4,7,3.6,9.5,6.9C48.3,77.2,49.2,79,50,80.8z"/>
	<path class="st12" d="M36.8,68.8c0.4,0.7,0,1.3-0.1,2c-0.8,1.9-2.2,3.3-4.2,3.8c-3.3,0.8-6.7-1.4-7.3-4.7c-0.1-0.4-0.1-0.7,0.1-1
		c0.5,0,0.9,0.3,1.3,0.4c0.7,0.2,1.5,0.4,2.3,0.4c0,0.2,0.1,0.3,0.3,0.3c1.3,0,2.6,0.1,3.9-0.1C34.4,69.7,35.6,69.2,36.8,68.8z"/>
	<path class="st7" d="M62.7,68.7c-0.1-0.3-0.4-0.4-0.7-0.6c-3.9-2.3-6.2-5.7-7-10.1c-0.2-1.4-0.2-2.9-0.2-4.3c0-0.6,0.4-1.1,1.1-1.2
		c1.5-0.2,3-0.1,4.5-0.4c3.9-0.7,7.3-2.3,9.6-5.7c0.1-0.2,0.2-0.4,0.3-0.5c0.5-0.8,1.3-0.9,1.9-0.2c0.7,0.8,1.4,1.7,2.2,2.5
		c0.9,0.9,2,1.8,3,2.5c0,2,0,4,0,5.9c0,0.9-0.2,1.9-0.4,2.8c-1.2,4.2-3.7,7.3-7.6,9.2c-0.8,0.4-1.8,0.6-2.6,1c-0.7,0-1.3,0-1.9-0.3
		c-0.6-0.2-1.1-0.4-1.7-0.5C63.1,68.6,62.9,68.7,62.7,68.7z M63.6,60.1c1,0,1.8-0.9,1.8-1.8c0-1-0.9-1.9-1.9-1.9
		c-1,0-1.8,0.9-1.8,1.9C61.8,59.3,62.6,60.1,63.6,60.1z M74.1,60.1c1,0.1,1.9-0.7,1.9-1.7c0.1-1.1-0.7-1.9-1.7-2
		c-1,0-1.9,0.8-1.9,1.8C72.3,59.2,73.1,60,74.1,60.1z"/>
	<path class="st12" d="M63.2,68.8c0.6,0.2,1.2,0.3,1.7,0.5c0.6,0.2,1.3,0.3,1.9,0.3c0,0.2,0.1,0.3,0.3,0.3c1.2,0,2.5,0.1,3.7-0.1
		c1.3-0.2,2.5-0.6,3.8-1c0.4,0.7-0.1,1.4-0.1,2.1c-0.6,0.9-1.1,1.9-2,2.6c-3.4,2.5-8.1,0.9-9.3-3.3C63,69.8,62.9,69.3,63.2,68.8z"/>
	<path class="st10" d="M74.6,68.8c-1.2,0.4-2.5,0.8-3.8,1c-1.2,0.2-2.5,0-3.7,0.1c-0.2,0-0.3-0.1-0.3-0.3c0.8-0.4,1.8-0.6,2.6-1
		c4-1.9,6.5-5,7.6-9.2c0.3-0.9,0.4-1.8,0.4-2.8c0-2,0-4,0-5.9c1.4,0.7,2.8,1.5,4.4,1.7c0.4,0.1,0.6,0.3,0.9,0.6c0.3,1.6,0,3.2,0,4.8
		c0,0.1-0.1,0.2-0.1,0.3c-0.7,4.4-3,7.6-6.8,9.9c-0.3,0.2-0.6,0.2-0.7,0.6C75,68.7,74.8,68.6,74.6,68.8z"/>
	<path class="st5" d="M75.2,68.7c0.1-0.4,0.5-0.5,0.7-0.6c3.7-2.3,6.1-5.5,6.8-9.9c0-0.1,0.1-0.2,0.1-0.3c0.2,0.2,0.2,0.5,0.1,0.8
		c-0.2,3.3-0.6,6.6-1.6,9.7c-0.3,0.9-0.9,1.7-1.1,2.7C78.7,70.1,77,69.2,75.2,68.7z"/>
	<path class="st10" d="M43,63.4c-1.1,1.4-2.2,2.8-3.7,3.8c-0.7,0.5-1.3,0.9-2,1.3c-0.2,0-0.4,0.1-0.5,0.3c-1.2,0.4-2.4,0.8-3.6,1
		c-1.3,0.2-2.6,0-3.9,0.1c-0.2,0-0.3-0.1-0.3-0.3c1.9-0.6,3.8-1.3,5.3-2.6c2.7-2.2,4.6-5,5.2-8.5c0.5-2.6,0.2-5.1,0.3-7.7
		c1.4,0.8,2.9,1.5,4.6,1.8c0.6,0.3,0.8,0.8,0.8,1.4c0,0.5,0,1.1,0,1.6c0,1-0.1,2-0.3,3C44.5,60.3,43.9,61.9,43,63.4z"/>
	<path class="st13" d="M36.4,60.1c-1,0-1.8-0.9-1.8-1.8c0-1,0.9-1.9,1.9-1.9c1,0,1.8,0.9,1.8,1.9C38.2,59.3,37.4,60.1,36.4,60.1z"/>
	<path class="st13" d="M27.6,58.2c0,1-0.8,1.8-1.8,1.9c-1,0-1.8-0.8-1.9-1.8c0-1.1,0.8-1.9,1.8-1.9C26.8,56.4,27.6,57.2,27.6,58.2z"
		/>
	<path class="st12" d="M43,63.4c0.9-1.5,1.5-3.1,1.9-4.9c0.2-1,0.3-2,0.3-3c1.3,0.1,2.3,0.8,3.1,1.7c0.2,0.6,0.6,1.2,0.7,1.9
		C49.3,62.6,45.9,64.8,43,63.4z"/>
	<path class="st13" d="M63.6,60.1c-1,0-1.8-0.8-1.9-1.8c0-1,0.8-1.9,1.8-1.9c1,0,1.9,0.8,1.9,1.9C65.4,59.2,64.6,60.1,63.6,60.1z"/>
	<path class="st13" d="M74.1,60.1c-1-0.1-1.8-0.9-1.7-1.9c0-1,0.9-1.8,1.9-1.8c1,0.1,1.8,0.9,1.7,2C76,59.4,75.1,60.1,74.1,60.1z"/>
</g>
</svg>
