<?xml version="1.0" encoding="utf-8"?>
<!-- Generator: Adobe Illustrator 21.0.0, SVG Export Plug-In . SVG Version: 6.00 Build 0)  -->
<svg version="1.1" id="Layer_1" xmlns="http://www.w3.org/2000/svg" xmlns:xlink="http://www.w3.org/1999/xlink" x="0px" y="0px"
	 viewBox="0 0 78 78" style="enable-background:new 0 0 78 78;" xml:space="preserve">
<style type="text/css">
	.st0{fill:#FF15AC;}
</style>
<g>
	<path class="st0" d="M40.5,12.5c1.4,0.2,2.5,1,3.5,2c0.8,0.8,1.6,1.5,2.4,2.3c0.5,0.5,1.1,0.7,1.8,0.6c1.3-0.2,2.7-0.4,4-0.6
		c2.9-0.4,5.1,1.2,5.6,4.2c0.2,1.3,0.5,2.6,0.7,3.9c0.1,0.7,0.5,1.2,1.1,1.6c1.2,0.6,2.4,1.3,3.6,1.9c2.5,1.4,3.4,3.9,2.1,6.5
		c-0.6,1.2-1.2,2.4-1.8,3.7c-0.4,0.7-0.3,1.3,0,2c0.6,1.2,1.2,2.3,1.7,3.5c1.3,2.7,0.5,5.3-2.2,6.7c-1.2,0.6-2.3,1.3-3.5,1.9
		c-0.7,0.4-1,0.9-1.2,1.6c-0.2,1.4-0.4,2.7-0.7,4.1c-0.6,2.9-2.8,4.4-5.7,3.9c-1.3-0.2-2.7-0.4-4-0.6c-0.6-0.1-1.1,0.1-1.6,0.5
		c-1,1-2,2-3,2.9c-2.1,2-4.8,2-6.9,0c-1-0.9-2-1.9-2.9-2.8c-0.5-0.6-1.1-0.7-1.9-0.6c-1.3,0.2-2.7,0.4-4,0.6c-3,0.3-5.1-1.3-5.6-4.3
		c-0.2-1.3-0.4-2.6-0.7-3.9c-0.1-0.7-0.5-1.2-1.1-1.5c-1.2-0.6-2.4-1.3-3.6-1.9c-2.6-1.4-3.4-4-2.1-6.6c0.6-1.2,1.1-2.4,1.7-3.5
		c0.4-0.7,0.4-1.4,0-2.1c-0.6-1.2-1.2-2.4-1.8-3.6c-1.2-2.6-0.4-5.2,2.1-6.5c1.2-0.6,2.4-1.3,3.6-1.9c0.7-0.4,1.1-0.9,1.2-1.7
		c0.2-1.3,0.4-2.7,0.7-4c0.6-2.9,2.8-4.4,5.8-3.9c1.3,0.2,2.7,0.4,4,0.6c0.6,0.1,1.1-0.1,1.6-0.5c0.8-0.8,1.7-1.6,2.5-2.4
		c1-1,2.1-1.8,3.5-2C39.8,12.5,40.2,12.5,40.5,12.5z M53,59.3c0.9,0,1.6-0.5,1.7-1.3c0.2-1.2,0.5-2.4,0.6-3.6
		c0.2-2.2,1.3-3.8,3.3-4.7c1.1-0.5,2.1-1.1,3.1-1.6c1-0.6,1.3-1.4,0.8-2.4c-0.6-1.3-1.2-2.5-1.8-3.7c-0.7-1.5-0.7-3,0-4.5
		c0.6-1.2,1.2-2.5,1.8-3.7c0.5-1.1,0.3-1.9-0.8-2.5c-1.2-0.6-2.4-1.3-3.6-1.9c-1.6-0.8-2.4-2.1-2.7-3.8c-0.2-1.4-0.5-2.7-0.7-4.1
		c-0.2-1-0.9-1.5-1.9-1.4c-1.3,0.2-2.7,0.4-4,0.6c-1.8,0.3-3.3-0.2-4.6-1.5c-0.9-1-1.9-1.9-2.9-2.8c-0.9-0.8-1.7-0.8-2.6,0
		c-1,1-2,1.9-3,2.9c-1.1,1.1-2.5,1.6-4,1.4c-1.5-0.2-2.9-0.4-4.4-0.6c-1.1-0.2-1.8,0.3-2,1.4c-0.2,1.2-0.5,2.3-0.6,3.5
		c-0.3,2.2-1.3,3.7-3.3,4.7c-1.1,0.5-2.1,1.1-3.1,1.6c-1.1,0.6-1.3,1.4-0.8,2.5c0.6,1.2,1.2,2.5,1.8,3.7c0.8,1.5,0.8,3,0,4.6
		c-0.6,1.2-1.2,2.4-1.8,3.7c-0.6,1.2-0.3,1.9,0.8,2.5c1.2,0.6,2.4,1.3,3.5,1.9c1.6,0.8,2.5,2.1,2.7,3.8c0.2,1.3,0.5,2.7,0.7,4
		c0.2,1.2,0.9,1.6,2.1,1.5c1.3-0.2,2.7-0.4,4-0.6c1.7-0.3,3.2,0.3,4.5,1.5c1,0.9,1.9,1.9,2.9,2.8c0.8,0.8,1.7,0.8,2.5,0
		c1-0.9,1.9-1.8,2.8-2.8c1.3-1.4,2.9-1.8,4.8-1.5C50.3,58.9,51.7,59.1,53,59.3z"/>
	<path class="st0" d="M51.9,29.3c-0.1,0.3-0.2,0.6-0.4,0.9c-0.1,0.2-0.3,0.3-0.4,0.4C44.5,37.4,37.8,44,31.1,50.7
		c-0.4,0.4-0.7,0.7-1.3,0.7c-0.7,0-1.2-0.3-1.5-0.9C28,50,28.1,49.5,28.5,49c0.1-0.2,0.3-0.3,0.4-0.4c6.7-6.7,13.4-13.4,20.1-20.1
		c0.4-0.4,0.8-0.7,1.4-0.7C51.2,27.7,51.9,28.4,51.9,29.3z"/>
	<path class="st0" d="M33.8,37c-3.2,0-5.7-2.5-5.7-5.7c0-3.1,2.5-5.7,5.7-5.8c3.2,0,5.8,2.6,5.8,5.7C39.5,34.4,36.9,37,33.8,37z
		 M33.7,28.7c-1.4,0-2.6,1.2-2.6,2.6c0,1.4,1.2,2.6,2.6,2.6c1.4,0,2.6-1.2,2.6-2.6C36.3,29.8,35.2,28.7,33.7,28.7z"/>
	<path class="st0" d="M52,48c0,3.1-2.6,5.7-5.7,5.7c-3.1,0-5.7-2.6-5.7-5.7c0-3.2,2.6-5.7,5.8-5.7C49.5,42.2,52,44.8,52,48z
		 M46.3,50.5c1.4,0,2.6-1.2,2.6-2.6c0-1.4-1.2-2.6-2.6-2.6c-1.4,0-2.6,1.2-2.6,2.6C43.7,49.4,44.8,50.5,46.3,50.5z"/>
</g>
</svg>
