<?xml version="1.0" encoding="utf-8"?>
<!-- Generator: Adobe Illustrator 21.0.0, SVG Export Plug-In . SVG Version: 6.00 Build 0)  -->
<svg version="1.1" id="Layer_1" xmlns="http://www.w3.org/2000/svg" xmlns:xlink="http://www.w3.org/1999/xlink" x="0px" y="0px"
	 viewBox="0 0 425 522" style="enable-background:new 0 0 425 522;" xml:space="preserve">
<style type="text/css">
	.st0{fill:url(#SVGID_1_);}
	.st1{fill:url(#SVGID_2_);}
	.st2{fill:#6C91EA;}
	.st3{fill:#E9BFFF;}
	.st4{fill:#55D5C6;}
	.st5{fill:#73EBFF;}
	.st6{fill:url(#SVGID_3_);}
	.st7{fill:url(#SVGID_4_);}
	.st8{fill:url(#SVGID_5_);}
	.st9{fill:url(#SVGID_6_);}
	.st10{fill:url(#SVGID_7_);}
	.st11{fill:url(#SVGID_8_);}
	.st12{fill:url(#SVGID_9_);}
	.st13{fill:#A29AFB;}
	.st14{fill:#6B5BDF;}
	.st15{fill:url(#SVGID_10_);}
	.st16{fill:#4505B3;}
	.st17{fill:url(#SVGID_11_);}
	.st18{fill:url(#SVGID_12_);}
	.st19{fill:url(#SVGID_13_);}
	.st20{fill:url(#SVGID_14_);}
	.st21{fill:url(#SVGID_15_);}
	.st22{fill:url(#SVGID_16_);}
	.st23{fill:url(#SVGID_17_);}
	.st24{fill:url(#SVGID_18_);}
	.st25{fill:url(#SVGID_19_);}
	.st26{fill:url(#SVGID_20_);}
	.st27{fill:url(#SVGID_21_);}
	.st28{fill:url(#SVGID_22_);}
	.st29{fill:url(#SVGID_23_);}
	.st30{fill:url(#SVGID_24_);}
	.st31{fill:url(#SVGID_25_);}
	.st32{fill:url(#SVGID_26_);}
	.st33{fill:url(#SVGID_27_);}
	.st34{fill:url(#SVGID_28_);}
	.st35{fill:url(#SVGID_29_);}
	.st36{fill:url(#SVGID_30_);}
	.st37{fill:url(#SVGID_31_);}
	.st38{fill:url(#SVGID_32_);}
	.st39{fill:#0DB1C2;}
	.st40{fill:#007177;}
	.st41{fill:url(#SVGID_33_);}
	.st42{fill:url(#SVGID_34_);}
	.st43{fill:url(#SVGID_35_);}
	.st44{fill:url(#SVGID_36_);}
	.st45{fill:#2D2D4F;}
	.st46{fill:#46466C;}
	.st47{fill:#010400;}
	.st48{fill:#1C1C38;}
	.st49{fill:url(#SVGID_37_);}
	.st50{fill:#894258;}
	.st51{fill:url(#SVGID_38_);}
	.st52{fill:#331202;}
	.st53{fill:#AC5E74;}
	.st54{fill:url(#SVGID_39_);}
	.st55{fill:#BDCEFA;}
	.st56{fill:url(#SVGID_40_);}
	.st57{fill:url(#SVGID_41_);}
	.st58{fill:url(#SVGID_42_);}
	.st59{fill:url(#SVGID_43_);}
	.st60{fill:url(#SVGID_44_);}
	.st61{fill:url(#SVGID_45_);}
	.st62{fill:url(#SVGID_46_);}
	.st63{fill:#705FDF;}
	.st64{fill:#E5A89C;}
	.st65{fill:url(#SVGID_47_);}
	.st66{fill-rule:evenodd;clip-rule:evenodd;fill:#E58800;}
	.st67{fill:#FCC4B7;}
	.st68{fill:url(#SVGID_48_);}
	.st69{fill:#8737A8;}
	.st70{fill:#E28C66;}
	.st71{fill:url(#SVGID_49_);}
	.st72{fill:url(#SVGID_50_);}
	.st73{fill:#DD936F;}
	.st74{fill:url(#SVGID_51_);}
	.st75{fill:#943BBB;}
	.st76{fill:#F9AB83;}
	.st77{fill:url(#SVGID_52_);}
</style>
<g>
	<g>
		<linearGradient id="SVGID_1_" gradientUnits="userSpaceOnUse" x1="109.4167" y1="42.4909" x2="137.4746" y2="266.0761">
			<stop  offset="1" style="stop-color:#5861D6"/>
			<stop  offset="1" style="stop-color:#747CDD;stop-opacity:0.8685"/>
			<stop  offset="1" style="stop-color:#B0B4EB;stop-opacity:0.57"/>
			<stop  offset="1" style="stop-color:#DBDDF6;stop-opacity:0.3153"/>
			<stop  offset="1" style="stop-color:#F5F6FD;stop-opacity:0.1172"/>
			<stop  offset="1" style="stop-color:#FFFFFF;stop-opacity:0"/>
		</linearGradient>
		<path class="st0" d="M211.4,168.4L32.3,271.8c-5.8,3.3-10.5-0.2-10.5-7.9V134.7c0-7.7,4.7-16.7,10.5-20L211.4,11.2
			c5.8-3.3,10.5,0.2,10.5,7.9v129.2C221.9,156,217.2,165,211.4,168.4z"/>
		<linearGradient id="SVGID_2_" gradientUnits="userSpaceOnUse" x1="87.8917" y1="121.0067" x2="175.9057" y2="274.2929">
			<stop  offset="0" style="stop-color:#55D5C6"/>
			<stop  offset="0.1097" style="stop-color:#4FBFBE;stop-opacity:0.8903"/>
			<stop  offset="0.7272" style="stop-color:#304491;stop-opacity:0.2723"/>
			<stop  offset="0.9993" style="stop-color:#23137F;stop-opacity:0"/>
		</linearGradient>
		<path class="st1" d="M185.1,70.4l-21.5,55.9c-5.3,13.7-18.9,20.2-22.5,10.7l-7.8-21c-4.2-11.2-20.5-2.5-25.7,13.6L90.3,184
			c-4,12.6-16.4,20.4-21.3,13.4c-8.6-12.5-29.8-2.6-41.1,19.3l-6.2,12v35.2c0,7.7,4.7,11.2,10.5,7.9l179.2-103.5
			c5.8-3.3,10.5-12.3,10.5-20V92.7l-22.3-30.8C196.3,57.4,188.3,62.1,185.1,70.4z"/>
		<polygon class="st2" points="221.9,127.6 21.8,243.2 21.8,240.2 221.9,124.7 		"/>
		<polygon class="st2" points="221.9,90.8 21.8,206.3 21.8,203.4 221.9,87.8 		"/>
		<polygon class="st2" points="221.9,53.9 21.8,169.4 21.8,166.5 221.9,51 		"/>
		<g>
			<polygon class="st2" points="18.7,175 9,180.6 9,169.4 18.7,163.8 			"/>
			<polygon class="st2" points="18.7,212.2 9,217.8 9,206.6 18.7,201 			"/>
			<polygon class="st2" points="18.7,249.4 9,255 9,243.8 18.7,238.2 			"/>
		</g>
	</g>
</g>
<g>
	<path class="st3" d="M371.6,282.6l25.1,18.5c-16.1,7.3-39.4,6.5-53.9-1.9c-6.1-3.5-10.1-8.1-11.4-13L371.6,282.6z"/>
	<path class="st4" d="M371.6,282.6l5-23.3c9,0.6,17.4,3,23.8,6.7c15.8,9.1,15.8,24.1,0,33.3c-1.2,0.7-2.4,1.3-3.7,1.9L371.6,282.6z"
		/>
	<path class="st5" d="M371.6,282.6l-40.2,3.6c-2-7.4,2.2-15,11.4-20.3c8.9-5.1,21.3-7.6,33.8-6.7L371.6,282.6z"/>
	<linearGradient id="SVGID_3_" gradientUnits="userSpaceOnUse" x1="402.3144" y1="331.1425" x2="318.4257" y2="317.5953">
		<stop  offset="0.31" style="stop-color:#AC36A8"/>
		<stop  offset="0.4773" style="stop-color:#9B36A8"/>
		<stop  offset="0.8064" style="stop-color:#7037A8"/>
		<stop  offset="0.9996" style="stop-color:#5337A8"/>
	</linearGradient>
	<path class="st6" d="M342.8,299.2c-6.1-3.5-10.1-8.1-11.4-13v52.6c1.3,4.9,5.3,9.5,11.4,13c14.5,8.4,37.8,9.2,53.9,1.9v-52.6
		C380.6,308.4,357.3,307.6,342.8,299.2z"/>
	<linearGradient id="SVGID_4_" gradientUnits="userSpaceOnUse" x1="366.3588" y1="223.6151" x2="309.8038" y2="317.7168">
		<stop  offset="0" style="stop-color:#FFFFFF"/>
		<stop  offset="9.943394e-02" style="stop-color:#EEEEEE;stop-opacity:0.9006"/>
		<stop  offset="0.2962" style="stop-color:#C2C3C2;stop-opacity:0.7038"/>
		<stop  offset="0.5718" style="stop-color:#7B7D7B;stop-opacity:0.4282"/>
		<stop  offset="0.9123" style="stop-color:#1B1E1A;stop-opacity:8.763379e-02"/>
		<stop  offset="1" style="stop-color:#010400;stop-opacity:0"/>
	</linearGradient>
	<path class="st7" d="M330.9,282.3v0.7l0,0.1C330.9,282.8,330.9,282.5,330.9,282.3z"/>
	<linearGradient id="SVGID_5_" gradientUnits="userSpaceOnUse" x1="445.7405" y1="251.5164" x2="353.6538" y2="404.7394">
		<stop  offset="0" style="stop-color:#FFFFFF"/>
		<stop  offset="9.943394e-02" style="stop-color:#EEEEEE;stop-opacity:0.9006"/>
		<stop  offset="0.2962" style="stop-color:#C2C3C2;stop-opacity:0.7038"/>
		<stop  offset="0.5718" style="stop-color:#7B7D7B;stop-opacity:0.4282"/>
		<stop  offset="0.9123" style="stop-color:#1B1E1A;stop-opacity:8.763379e-02"/>
		<stop  offset="1" style="stop-color:#010400;stop-opacity:0"/>
	</linearGradient>
	<path class="st8" d="M400.4,299.2c-1.2,0.7-2.4,1.3-3.7,1.9v52.6c1.3-0.6,2.5-1.2,3.7-1.9c7.9-4.6,11.9-10.7,11.8-16.7v-52.2
		c0-0.1,0-0.1,0-0.2C412.2,288.7,408.3,294.7,400.4,299.2z"/>
	<linearGradient id="SVGID_6_" gradientUnits="userSpaceOnUse" x1="417.1028" y1="306.5334" x2="387.2374" y2="339.462">
		<stop  offset="0" style="stop-color:#0DB1C2"/>
		<stop  offset="0.2803" style="stop-color:#0AA3B1"/>
		<stop  offset="0.8322" style="stop-color:#037D86"/>
		<stop  offset="0.9996" style="stop-color:#007177"/>
	</linearGradient>
	<path class="st9" d="M400.4,299.2c-1.2,0.7-2.4,1.3-3.7,1.9v52.6c1.3-0.6,2.5-1.2,3.7-1.9c7.9-4.6,11.9-10.7,11.8-16.7v-52.2
		c0-0.1,0-0.1,0-0.2C412.2,288.7,408.3,294.7,400.4,299.2z"/>
	<linearGradient id="SVGID_7_" gradientUnits="userSpaceOnUse" x1="340.8939" y1="268.3753" x2="315.248" y2="311.0474">
		<stop  offset="0" style="stop-color:#FFFFFF"/>
		<stop  offset="9.943394e-02" style="stop-color:#EEEEEE;stop-opacity:0.9006"/>
		<stop  offset="0.2962" style="stop-color:#C2C3C2;stop-opacity:0.7038"/>
		<stop  offset="0.5718" style="stop-color:#7B7D7B;stop-opacity:0.4282"/>
		<stop  offset="0.9123" style="stop-color:#1B1E1A;stop-opacity:8.763379e-02"/>
		<stop  offset="1" style="stop-color:#010400;stop-opacity:0"/>
	</linearGradient>
	<path class="st10" d="M330.9,283c0,1.1,0.2,2.2,0.5,3.2L330.9,283z"/>
	<linearGradient id="SVGID_8_" gradientUnits="userSpaceOnUse" x1="423.9088" y1="156.5217" x2="296.0731" y2="369.2272">
		<stop  offset="0" style="stop-color:#FFFFFF"/>
		<stop  offset="9.943394e-02" style="stop-color:#EEEEEE;stop-opacity:0.9006"/>
		<stop  offset="0.2962" style="stop-color:#C2C3C2;stop-opacity:0.7038"/>
		<stop  offset="0.5718" style="stop-color:#7B7D7B;stop-opacity:0.4282"/>
		<stop  offset="0.9123" style="stop-color:#1B1E1A;stop-opacity:8.763379e-02"/>
		<stop  offset="1" style="stop-color:#010400;stop-opacity:0"/>
	</linearGradient>
	<path class="st11" d="M330.9,283L330.9,283l0,51.6c-0.1,1.4,0.1,2.8,0.5,4.2v-52.6C331.1,285.2,330.9,284.1,330.9,283z"/>
	<linearGradient id="SVGID_9_" gradientUnits="userSpaceOnUse" x1="363.9629" y1="256.2656" x2="305.9961" y2="352.7164">
		<stop  offset="0.4337" style="stop-color:#0084E9"/>
		<stop  offset="0.5779" style="stop-color:#0973E4"/>
		<stop  offset="0.8616" style="stop-color:#2048D8"/>
		<stop  offset="0.9996" style="stop-color:#2C30D1"/>
	</linearGradient>
	<path class="st12" d="M330.9,283L330.9,283l0,51.6c-0.1,1.4,0.1,2.8,0.5,4.2v-52.6C331.1,285.2,330.9,284.1,330.9,283z"/>
</g>
<g>
	<g>
		<g>
			<g>
				<path class="st13" d="M304.5,307.3l-146.3,84.5c-10.7,6.2-29.5,5.4-41.8-1.7L49,351.6c-12.3-7.1-13.7-18-3-24.1l146.3-84.5
					c10.7-6.2,29.5-5.4,41.8,1.7l67.4,38.5C313.8,290.3,315.2,301.1,304.5,307.3z"/>
				<g>
					<path class="st14" d="M311.5,325v-26.2c0,0,0,0,0,0c0,0,0,0,0,0c-0.7,3.2-3,6.2-7,8.5l-146.3,84.5c-5.1,3-12.1,4.3-19.4,4.1v30
						c7.3,0.2,14.3-1.1,19.4-4.1l146.3-84.5C310.1,334.1,312.3,329.6,311.5,325z"/>
					<linearGradient id="SVGID_10_" gradientUnits="userSpaceOnUse" x1="88.756" y1="443.6423" x2="88.756" y2="332.2922">
						<stop  offset="7.151770e-02" style="stop-color:#55D1FF"/>
						<stop  offset="0.1638" style="stop-color:#4FC3EE;stop-opacity:0.9006"/>
						<stop  offset="0.3466" style="stop-color:#41A0C2;stop-opacity:0.7038"/>
						<stop  offset="0.6024" style="stop-color:#29677B;stop-opacity:0.4282"/>
						<stop  offset="0.9186" style="stop-color:#0A191A;stop-opacity:8.763379e-02"/>
						<stop  offset="1" style="stop-color:#010400;stop-opacity:0"/>
					</linearGradient>
					<path class="st15" d="M116.4,390L49,351.6c-5.9-3.4-9.2-7.6-10-11.8V366c-1.1,5.3,2.3,11.2,10,15.6l67.4,38.5
						c6.4,3.7,14.5,5.6,22.4,5.8v-30C130.9,395.7,122.8,393.7,116.4,390z"/>
					<path class="st16" d="M116.4,390L49,351.6c-5.9-3.4-9.2-7.6-10-11.8V366c-1.1,5.3,2.3,11.2,10,15.6l67.4,38.5
						c6.4,3.7,14.5,5.6,22.4,5.8v-30C130.9,395.7,122.8,393.7,116.4,390z"/>
				</g>
			</g>
			<g>
				<g>
					<polygon class="st13" points="185.7,375.8 273.4,325.3 388.8,399 304.8,447.5 					"/>
					<linearGradient id="SVGID_11_" gradientUnits="userSpaceOnUse" x1="301.6595" y1="432.8521" x2="164.581" y2="383.186">
						<stop  offset="0" style="stop-color:#6B5BDF"/>
						<stop  offset="6.172969e-02" style="stop-color:#6854DB"/>
						<stop  offset="0.4794" style="stop-color:#5529C6"/>
						<stop  offset="0.806" style="stop-color:#490FB8"/>
						<stop  offset="0.9993" style="stop-color:#4505B3"/>
					</linearGradient>
					<polygon class="st17" points="185.7,375.8 185.7,405.9 304.8,447.5 					"/>
				</g>
				
					<linearGradient id="SVGID_12_" gradientUnits="userSpaceOnUse" x1="542.965" y1="141.737" x2="542.965" y2="291.3523" gradientTransform="matrix(-0.866 0.5 -1 -0.5774 1008.8719 257.654)">
					<stop  offset="0" style="stop-color:#55D5C6"/>
					<stop  offset="0.2244" style="stop-color:#479EB2;stop-opacity:0.7754"/>
					<stop  offset="0.4906" style="stop-color:#37639C;stop-opacity:0.509"/>
					<stop  offset="0.7181" style="stop-color:#2C378C;stop-opacity:0.2814"/>
					<stop  offset="0.8948" style="stop-color:#261D83;stop-opacity:0.1046"/>
					<stop  offset="0.9993" style="stop-color:#23137F;stop-opacity:0"/>
				</linearGradient>
				<polygon class="st18" points="222.2,371.3 257,354 417,434 382.3,451.4 				"/>
				<g>
					<g>
						<path class="st16" d="M257,408.6c1.4-0.8,1.4-2.1,0-2.8c-1.4-0.8-3.6-0.8-4.9,0c-1.4,0.8-1.4,2.1,0,2.8
							C253.4,409.4,255.6,409.4,257,408.6z M245.7,402.1c1.4-0.8,1.4-2.1,0-2.8c-1.4-0.8-3.6-0.8-4.9,0c-1.4,0.8-1.4,2.1,0,2.8
							C242.1,402.9,244.3,402.9,245.7,402.1z M234.4,395.6c1.4-0.8,1.4-2.1,0-2.8c-1.4-0.8-3.6-0.8-4.9,0c-1.4,0.8-1.4,2.1,0,2.8
							C230.8,396.3,233,396.3,234.4,395.6z M223.1,389c1.4-0.8,1.4-2.1,0-2.8c-1.4-0.8-3.6-0.8-4.9,0c-1.4,0.8-1.4,2.1,0,2.8
							C219.5,389.8,221.7,389.8,223.1,389z M302.2,434.7c1.4-0.8,1.4-2.1,0-2.8c-1.4-0.8-3.6-0.8-4.9,0c-1.4,0.8-1.4,2.1,0,2.8
							C298.6,435.5,300.8,435.5,302.2,434.7z M290.9,428.2c1.4-0.8,1.4-2.1,0-2.8c-1.4-0.8-3.6-0.8-4.9,0c-1.4,0.8-1.4,2.1,0,2.8
							C287.3,428.9,289.5,428.9,290.9,428.2z M279.6,421.6c1.4-0.8,1.4-2.1,0-2.8c-1.4-0.8-3.6-0.8-4.9,0c-1.4,0.8-1.4,2.1,0,2.8
							C276,422.4,278.2,422.4,279.6,421.6z M268.3,415.1c1.4-0.8,1.4-2.1,0-2.8c-1.4-0.8-3.6-0.8-4.9,0c-1.4,0.8-1.4,2.1,0,2.8
							C264.7,415.9,266.9,415.9,268.3,415.1z"/>
						<linearGradient id="SVGID_13_" gradientUnits="userSpaceOnUse" x1="266.7275" y1="380.9576" x2="246.9566" y2="419.0661">
							<stop  offset="0" style="stop-color:#705FDF"/>
							<stop  offset="0.187" style="stop-color:#6E5ADC"/>
							<stop  offset="0.4142" style="stop-color:#664BD5"/>
							<stop  offset="0.6622" style="stop-color:#5B32C9"/>
							<stop  offset="0.9234" style="stop-color:#4A10B9"/>
							<stop  offset="0.9993" style="stop-color:#4505B3"/>
						</linearGradient>
						<path class="st19" d="M300.6,396.9l-79.1-45.7c-0.6-0.3-1.3-0.3-1.9,0c-0.6,0.3-0.9,0.9-0.9,1.6v36.1c0,0.1,0,0.3,0,0.4
							c1.1,0.4,2.5,0.4,3.6,0c0-0.1,0-0.3,0-0.4V356l18.9,10.9v34.8c0,0.2,0,0.4,0.1,0.7c1.1,0.4,2.4,0.4,3.5,0
							c0.1-0.2,0.1-0.4,0.1-0.7v-32.7l30.2,17.4v34.6c0,0.3,0.1,0.7,0.3,0.9c1,0.3,2.2,0.3,3.2,0c0.2-0.3,0.3-0.6,0.3-0.9v-32.4
							l18.9,10.9v35.1c0,0.1,0,0.2,0,0.3c1.1,0.4,2.5,0.4,3.7,0c0-0.1,0-0.2,0-0.3v-36.1C301.6,397.8,301.2,397.2,300.6,396.9z"/>
					</g>
					<g>
						<path class="st16" d="M326.9,368.1c1.4-0.8,1.4-2.1,0-2.8c-1.4-0.8-3.6-0.8-4.9,0c-1.4,0.8-1.4,2.1,0,2.8
							C323.4,368.8,325.6,368.8,326.9,368.1z M315.6,361.5c1.4-0.8,1.4-2.1,0-2.8c-1.4-0.8-3.6-0.8-4.9,0s-1.4,2.1,0,2.8
							S314.3,362.3,315.6,361.5z M304.3,355c1.4-0.8,1.4-2.1,0-2.8c-1.4-0.8-3.6-0.8-4.9,0c-1.4,0.8-1.4,2.1,0,2.8
							C300.8,355.8,303,355.8,304.3,355z M293,348.5c1.4-0.8,1.4-2.1,0-2.8c-1.4-0.8-3.6-0.8-4.9,0s-1.4,2.1,0,2.8
							C289.5,349.3,291.7,349.3,293,348.5z M372.1,394.1c1.4-0.8,1.4-2.1,0-2.8c-1.4-0.8-3.6-0.8-4.9,0s-1.4,2.1,0,2.8
							S370.7,394.9,372.1,394.1z M360.8,387.6c1.4-0.8,1.4-2.1,0-2.8c-1.4-0.8-3.6-0.8-4.9,0c-1.4,0.8-1.4,2.1,0,2.8
							C357.2,388.4,359.4,388.4,360.8,387.6z M349.5,381.1c1.4-0.8,1.4-2.1,0-2.8c-1.4-0.8-3.6-0.8-4.9,0c-1.4,0.8-1.4,2.1,0,2.8
							C345.9,381.9,348.1,381.9,349.5,381.1z M338.2,374.6c1.4-0.8,1.4-2.1,0-2.8c-1.4-0.8-3.6-0.8-4.9,0c-1.4,0.8-1.4,2.1,0,2.8
							C334.7,375.4,336.9,375.4,338.2,374.6z"/>
						<linearGradient id="SVGID_14_" gradientUnits="userSpaceOnUse" x1="333.9794" y1="334.2605" x2="325.3329" y2="376.6367">
							<stop  offset="0" style="stop-color:#705FDF"/>
							<stop  offset="0.239" style="stop-color:#6E5CDD"/>
							<stop  offset="0.4419" style="stop-color:#6951D8"/>
							<stop  offset="0.6316" style="stop-color:#6140D0"/>
							<stop  offset="0.8133" style="stop-color:#5527C4"/>
							<stop  offset="0.9878" style="stop-color:#4607B4"/>
							<stop  offset="0.9993" style="stop-color:#4505B3"/>
						</linearGradient>
						<path class="st20" d="M370.6,356.3l-79.1-45.7c-0.6-0.3-1.3-0.3-1.9,0c-0.6,0.3-0.9,0.9-0.9,1.6v36.1c0,0.1,0,0.3,0,0.4
							c1.1,0.4,2.5,0.4,3.6,0c0-0.1,0-0.3,0-0.4v-32.9l18.9,10.9v34.8c0,0.2,0,0.4,0.1,0.7c1.1,0.4,2.4,0.4,3.5,0
							c0.1-0.2,0.1-0.4,0.1-0.7v-32.7l30.2,17.4v34.6c0,0.3,0.1,0.7,0.3,0.9c1,0.3,2.2,0.3,3.2,0c0.2-0.3,0.3-0.6,0.3-0.9v-32.4
							l18.9,10.9v35.1c0,0.1,0,0.2,0,0.3c1.1,0.4,2.5,0.4,3.7,0c0-0.1,0-0.2,0-0.3v-36.1C371.5,357.3,371.2,356.7,370.6,356.3z"/>
					</g>
				</g>
			</g>
		</g>
		<g>
			<g>
				<g>
					<path class="st3" d="M271.7,168.6l-34,19.6c-2.5,1.4-6.8,1.3-9.7-0.4L195.4,169c-2.9-1.7-3.2-4.2-0.7-5.6l34-19.6
						c2.5-1.4,6.8-1.3,9.7,0.4l32.6,18.8C273.9,164.6,274.2,167.1,271.7,168.6z"/>
					<g>
						<linearGradient id="SVGID_15_" gradientUnits="userSpaceOnUse" x1="290.4052" y1="196.0118" x2="212.5038" y2="289.4934">
							<stop  offset="4.877910e-02" style="stop-color:#E185BB"/>
							<stop  offset="0.9989" style="stop-color:#AC36A8"/>
						</linearGradient>
						<path class="st21" d="M273.3,290.7V166.6c0,0,0,0,0,0c0,0,0,0,0,0c-0.2,0.7-0.7,1.4-1.6,2l-34,19.6c-1.2,0.7-2.8,1-4.5,1
							v125.1c1.7,0,3.3-0.3,4.5-1l34-19.6C273,292.9,273.5,291.8,273.3,290.7z"/>
						<linearGradient id="SVGID_16_" gradientUnits="userSpaceOnUse" x1="213.0866" y1="344.7278" x2="213.0866" y2="153.4032">
							<stop  offset="7.151770e-02" style="stop-color:#55D1FF"/>
							<stop  offset="0.1638" style="stop-color:#4FC3EE;stop-opacity:0.9006"/>
							<stop  offset="0.3466" style="stop-color:#41A0C2;stop-opacity:0.7038"/>
							<stop  offset="0.6024" style="stop-color:#29677B;stop-opacity:0.4282"/>
							<stop  offset="0.9186" style="stop-color:#0A191A;stop-opacity:8.763379e-02"/>
							<stop  offset="1" style="stop-color:#010400;stop-opacity:0"/>
						</linearGradient>
						<path class="st22" d="M228,187.8L195.4,169c-1.4-0.8-2.1-1.8-2.3-2.7v124.2c-0.3,1.2,0.5,2.6,2.3,3.6l32.6,18.8
							c1.5,0.9,3.4,1.3,5.2,1.4V189.1C231.4,189.1,229.5,188.6,228,187.8z"/>
						<linearGradient id="SVGID_17_" gradientUnits="userSpaceOnUse" x1="261.9614" y1="188.8758" x2="200.4192" y2="253.5339">
							<stop  offset="0.31" style="stop-color:#AC36A8"/>
							<stop  offset="0.4773" style="stop-color:#9B36A8"/>
							<stop  offset="0.8064" style="stop-color:#7037A8"/>
							<stop  offset="0.9996" style="stop-color:#5337A8"/>
						</linearGradient>
						<path class="st23" d="M228,187.8L195.4,169c-1.4-0.8-2.1-1.8-2.3-2.7v124.2c-0.3,1.2,0.5,2.6,2.3,3.6l32.6,18.8
							c1.5,0.9,3.4,1.3,5.2,1.4V189.1C231.4,189.1,229.5,188.6,228,187.8z"/>
					</g>
				</g>
				<g>
					<path class="st4" d="M218.1,242.6l-34,19.6c-2.5,1.4-6.8,1.3-9.7-0.4L141.7,243c-2.9-1.7-3.2-4.2-0.7-5.6l34-19.6
						c2.5-1.4,6.8-1.3,9.7,0.4l32.6,18.8C220.2,238.6,220.5,241.1,218.1,242.6z"/>
					<g>
						<linearGradient id="SVGID_18_" gradientUnits="userSpaceOnUse" x1="223.6627" y1="267.8119" x2="168.712" y2="325.5806">
							<stop  offset="0" style="stop-color:#0DB1C2"/>
							<stop  offset="0.2803" style="stop-color:#0AA3B1"/>
							<stop  offset="0.8322" style="stop-color:#037D86"/>
							<stop  offset="0.9996" style="stop-color:#007177"/>
						</linearGradient>
						<path class="st24" d="M219.7,321.6v-81.1c0,0,0,0,0,0s0,0,0,0c-0.2,0.7-0.7,1.4-1.6,2l-34,19.6c-1.2,0.7-2.8,1-4.5,1v81.9
							c1.7,0,3.3-0.3,4.5-1l34-19.6C219.4,323.7,219.9,322.7,219.7,321.6z"/>
						<linearGradient id="SVGID_19_" gradientUnits="userSpaceOnUse" x1="159.4627" y1="366.7007" x2="159.4627" y2="231.1361">
							<stop  offset="7.151770e-02" style="stop-color:#55D1FF"/>
							<stop  offset="0.1638" style="stop-color:#4FC3EE;stop-opacity:0.9006"/>
							<stop  offset="0.3466" style="stop-color:#41A0C2;stop-opacity:0.7038"/>
							<stop  offset="0.6024" style="stop-color:#29677B;stop-opacity:0.4282"/>
							<stop  offset="0.9186" style="stop-color:#0A191A;stop-opacity:8.763379e-02"/>
							<stop  offset="1" style="stop-color:#010400;stop-opacity:0"/>
						</linearGradient>
						<path class="st25" d="M174.3,261.8L141.7,243c-1.4-0.8-2.1-1.8-2.3-2.7v81.1c-0.3,1.2,0.5,2.6,2.3,3.6l32.6,18.8
							c1.5,0.9,3.4,1.3,5.2,1.4v-81.9C177.7,263.1,175.8,262.6,174.3,261.8z"/>
						<linearGradient id="SVGID_20_" gradientUnits="userSpaceOnUse" x1="209.7706" y1="256.0666" x2="147.7747" y2="301.1546">
							<stop  offset="0.4223" style="stop-color:#0DB1C2"/>
							<stop  offset="0.5843" style="stop-color:#0AA3B1"/>
							<stop  offset="0.9032" style="stop-color:#037D86"/>
							<stop  offset="1" style="stop-color:#007177"/>
						</linearGradient>
						<path class="st26" d="M174.3,261.8L141.7,243c-1.4-0.8-2.1-1.8-2.3-2.7v81.1c-0.3,1.2,0.5,2.6,2.3,3.6l32.6,18.8
							c1.5,0.9,3.4,1.3,5.2,1.4v-81.9C177.7,263.1,175.8,262.6,174.3,261.8z"/>
					</g>
				</g>
				<g>
					<path class="st5" d="M165.6,304l-34,19.6c-2.5,1.4-6.8,1.3-9.7-0.4l-32.6-18.8c-2.9-1.7-3.2-4.2-0.7-5.6l34-19.6
						c2.5-1.4,6.8-1.3,9.7,0.4l32.6,18.8C167.8,300,168.1,302.5,165.6,304z"/>
					<g>
						<linearGradient id="SVGID_21_" gradientUnits="userSpaceOnUse" x1="174.6863" y1="305.1888" x2="128.75" y2="361.4608">
							<stop  offset="0" style="stop-color:#7DE7E8"/>
							<stop  offset="0.9896" style="stop-color:#0084E9"/>
						</linearGradient>
						<path class="st27" d="M167.3,351.9V302c0,0,0,0,0,0s0,0,0,0c-0.2,0.7-0.7,1.4-1.6,2l-34,19.6c-1.2,0.7-2.8,1-4.5,1v50.8
							c1.7,0,3.3-0.3,4.5-1l34-19.6C166.9,354,167.4,353,167.3,351.9z"/>
						<linearGradient id="SVGID_22_" gradientUnits="userSpaceOnUse" x1="107.0224" y1="390.5579" x2="107.0224" y2="295.2479">
							<stop  offset="0" style="stop-color:#FFE0AD"/>
							<stop  offset="0.4333" style="stop-color:#FFC291"/>
							<stop  offset="0.6309" style="stop-color:#FFB188"/>
							<stop  offset="0.9996" style="stop-color:#FF8871"/>
						</linearGradient>
						<path class="st28" d="M121.9,323.2l-32.6-18.8c-1.4-0.8-2.1-1.8-2.3-2.7v49.9c-0.3,1.2,0.5,2.6,2.3,3.6l32.6,18.8
							c1.5,0.9,3.4,1.3,5.2,1.4v-50.8C125.3,324.5,123.4,324.1,121.9,323.2z"/>
						<linearGradient id="SVGID_23_" gradientUnits="userSpaceOnUse" x1="155.375" y1="305.3998" x2="80.7284" y2="356.5039">
							<stop  offset="0.4337" style="stop-color:#0084E9"/>
							<stop  offset="0.5779" style="stop-color:#0973E4"/>
							<stop  offset="0.8616" style="stop-color:#2048D8"/>
							<stop  offset="0.9996" style="stop-color:#2C30D1"/>
						</linearGradient>
						<path class="st29" d="M121.9,323.2l-32.6-18.8c-1.4-0.8-2.1-1.8-2.3-2.7v49.9c-0.3,1.2,0.5,2.6,2.3,3.6l32.6,18.8
							c1.5,0.9,3.4,1.3,5.2,1.4v-50.8C125.3,324.5,123.4,324.1,121.9,323.2z"/>
					</g>
				</g>
			</g>
			<g>
				<path class="st13" d="M290.5,62.4l-0.4-33.1l-24.8,31.4l7.9,0.5L244.7,137l-18.6-42.8l-44.5,130.7l-24.9-34.4l-4.5,12.5
					c-0.1,0.2-8.6,24-17,47.7c-17.7,49.8-17,50.1-17.5,52.5c0,0,10.5-4.8,10.5-4.7c1.2-4.3,17-48.9,29.1-82.8l25.2,34.8l42.7-125.2
					l18,41.4l39.5-104.7L290.5,62.4z"/>
				<g>
					<linearGradient id="SVGID_24_" gradientUnits="userSpaceOnUse" x1="158.1334" y1="176.5385" x2="112.6098" y2="297.9349">
						<stop  offset="0" style="stop-color:#A29AFB"/>
						<stop  offset="0.9996" style="stop-color:#4505B3"/>
					</linearGradient>
					<path class="st30" d="M152.2,203l4.5-12.4l-8.8-5l-4.5,12.5c-0.1,0.2-8.6,24-17,47.7c-17.7,49.8-17,50.1-17.5,52.5l8.9,5
						c0.6-2.4-0.2-2.6,17.5-52.5C143.6,227,152.1,203.2,152.2,203z"/>
					<linearGradient id="SVGID_25_" gradientUnits="userSpaceOnUse" x1="272.566" y1="21.5228" x2="236.1472" y2="122.6861">
						<stop  offset="0" style="stop-color:#A29AFB"/>
						<stop  offset="0.9996" style="stop-color:#4505B3"/>
					</linearGradient>
					<polygon class="st31" points="273.2,61.3 265.3,60.8 290.1,29.4 281.2,24.4 256.4,55.8 263.1,59.5 238.9,123.8 226.1,94.2 
						244.7,137 					"/>
					<linearGradient id="SVGID_26_" gradientUnits="userSpaceOnUse" x1="213.363" y1="83.3615" x2="165.8161" y2="216.8976">
						<stop  offset="0" style="stop-color:#A29AFB"/>
						<stop  offset="0.9996" style="stop-color:#4505B3"/>
					</linearGradient>
					<polygon class="st32" points="226.1,94.2 217.2,89.2 174.4,215 156.6,190.5 181.5,224.9 					"/>
					<linearGradient id="SVGID_27_" gradientUnits="userSpaceOnUse" x1="181.4622" y1="251.3171" x2="155.7263" y2="218.1095">
						<stop  offset="0" style="stop-color:#A29AFB"/>
						<stop  offset="0.9996" style="stop-color:#4505B3"/>
					</linearGradient>
					<path class="st33" d="M155.5,220.5l18.1,25l0,0l8.8,5l-25.2-34.8C156.2,218.6,155,221.9,155.5,220.5z"/>
					<linearGradient id="SVGID_28_" gradientUnits="userSpaceOnUse" x1="237.2446" y1="166.496" x2="226.7186" y2="129.6548">
						<stop  offset="0" style="stop-color:#A29AFB"/>
						<stop  offset="0.9996" style="stop-color:#4505B3"/>
					</linearGradient>
					<polygon class="st34" points="222.1,133.9 234.2,161.7 243.1,166.6 225.1,125.2 					"/>
				</g>
			</g>
		</g>
	</g>
	<linearGradient id="SVGID_29_" gradientUnits="userSpaceOnUse" x1="205.1868" y1="184.9303" x2="239.483" y2="162.5058">
		<stop  offset="0" style="stop-color:#AC36A8;stop-opacity:0"/>
		<stop  offset="0.2425" style="stop-color:#9B36A8;stop-opacity:0.2425"/>
		<stop  offset="0.7195" style="stop-color:#7037A8;stop-opacity:0.7197"/>
		<stop  offset="0.9996" style="stop-color:#5337A8"/>
	</linearGradient>
	<polygon class="st35" points="234.2,161.7 208.3,176.4 217.3,181.6 243.1,166.6 	"/>
	<linearGradient id="SVGID_30_" gradientUnits="userSpaceOnUse" x1="159.3476" y1="259.9536" x2="179.499" y2="246.7777">
		<stop  offset="0" style="stop-color:#AC36A8;stop-opacity:0"/>
		<stop  offset="0.2425" style="stop-color:#9B36A8;stop-opacity:0.2425"/>
		<stop  offset="0.7195" style="stop-color:#7037A8;stop-opacity:0.7197"/>
		<stop  offset="0.9996" style="stop-color:#5337A8"/>
	</linearGradient>
	<polygon class="st36" points="173.6,245.4 160.4,253.7 168.8,258.6 182.4,250.5 	"/>
	<linearGradient id="SVGID_31_" gradientUnits="userSpaceOnUse" x1="92.7103" y1="313.6936" x2="114.5907" y2="299.3872">
		<stop  offset="0" style="stop-color:#AC36A8;stop-opacity:0"/>
		<stop  offset="0.2425" style="stop-color:#9B36A8;stop-opacity:0.2425"/>
		<stop  offset="0.7195" style="stop-color:#7037A8;stop-opacity:0.7197"/>
		<stop  offset="0.9996" style="stop-color:#5337A8"/>
	</linearGradient>
	<polygon class="st37" points="108.8,298.2 94,307.1 102.9,312.2 117.6,303.2 	"/>
</g>
<g>
	<path class="st14" d="M95.6,408.6c0,17.9-12.6,39.7-28.1,48.7c-15.5,9-28.1,1.7-28.1-16.2c0-17.9,12.6-39.7,28.1-48.7
		C83.1,383.4,95.6,390.7,95.6,408.6z"/>
	<path class="st13" d="M67.5,394.2c15.3-8.8,27.7-1.9,28.1,15.3c0-0.3,0-0.6,0-0.9c0-17.9-12.6-25.2-28.1-16.2
		c-15.5,9-28.1,30.7-28.1,48.7c0,0.3,0,0.6,0,0.9C39.9,424.2,52.3,403,67.5,394.2z"/>
	<g>
		<linearGradient id="SVGID_32_" gradientUnits="userSpaceOnUse" x1="59.6231" y1="384.6002" x2="39.7689" y2="458.4765">
			<stop  offset="0" style="stop-color:#A29AFB"/>
			<stop  offset="0.9996" style="stop-color:#4505B3"/>
		</linearGradient>
		<path class="st38" d="M39.4,441c0-17.9,12.6-39.7,28.1-48.7c7.7-4.5,14.7-4.9,19.8-2l-19.4-11.5c-5.1-3-12.2-2.6-20,1.9
			c-15.5,9-28.1,30.7-28.1,48.7c0,9,3.2,15.3,8.3,18.2l19.4,11.5C42.5,456.2,39.4,449.9,39.4,441z"/>
	</g>
	<path class="st4" d="M47.7,436.3c0-12.7,8.9-28.1,19.9-34.4c0.4-0.2,0.8-0.4,1.2-0.6c0-1.2,0-2.2,0-3.4c-0.4,0.2-0.8,0.4-1.2,0.6
		C55,405.8,44.8,423.4,44.8,438c0,13.5,8.8,19.5,20.2,14.5c0-1.1,0.1-2.3,0.1-3.4C55.2,453.2,47.7,448,47.7,436.3z"/>
	<path class="st39" d="M90.1,407.8c-1,0.6-2,1.2-3,1.8c0.2,1.2,0.3,2.4,0.3,3.7c0,12.7-8.9,28.1-19.9,34.4c-0.9,0.5-1.7,0.9-2.6,1.3
		c0,1.1,0,2.3-0.1,3.4c0.9-0.4,1.7-0.8,2.6-1.3c12.6-7.3,22.8-24.9,22.8-39.5C90.3,410.3,90.2,409,90.1,407.8z"/>
	<path class="st40" d="M87.1,409.7c1-0.6,2-1.2,3-1.8c-1.6-11.3-10.5-15.6-21.3-9.9c0,1.2,0,2.2,0,3.4
		C78,396.5,85.6,400.2,87.1,409.7z"/>
	<g>
		<path class="st4" d="M57.7,433.3v1.8l-5.2,3v-1.8l1.8-1.1v-4.5c-0.1,0.2-0.2,0.4-0.4,0.6c-0.2,0.2-0.4,0.4-0.5,0.7
			c-0.2,0.2-0.4,0.4-0.6,0.6c-0.2,0.2-0.4,0.3-0.6,0.4v-1.9c0.2-0.1,0.3-0.3,0.6-0.5c0.2-0.2,0.4-0.5,0.7-0.8
			c0.2-0.3,0.4-0.5,0.6-0.8c0.2-0.2,0.3-0.4,0.3-0.5l1.8-1v6.7L57.7,433.3z"/>
		<path class="st4" d="M65.3,426.4c0,0.7-0.1,1.3-0.3,2c-0.2,0.6-0.4,1.3-0.7,1.8c-0.3,0.6-0.6,1.1-1.1,1.5
			c-0.4,0.5-0.8,0.8-1.3,1.1c-0.5,0.3-0.9,0.4-1.3,0.4c-0.4,0-0.8-0.1-1.1-0.3c-0.3-0.2-0.5-0.6-0.7-1c-0.2-0.5-0.3-1-0.3-1.7
			c0-0.7,0.1-1.3,0.3-2c0.2-0.6,0.4-1.3,0.7-1.8c0.3-0.6,0.6-1.1,1.1-1.6c0.4-0.5,0.8-0.8,1.3-1.1c0.5-0.3,0.9-0.4,1.3-0.4
			c0.4,0,0.8,0.1,1.1,0.3c0.3,0.2,0.5,0.6,0.7,1C65.2,425.2,65.3,425.7,65.3,426.4z M63.6,427.4c0-0.4,0-0.7-0.1-1
			c-0.1-0.3-0.2-0.5-0.3-0.7c-0.1-0.2-0.3-0.2-0.5-0.3c-0.2,0-0.4,0-0.6,0.2c-0.2,0.1-0.5,0.3-0.7,0.6c-0.2,0.2-0.4,0.5-0.5,0.8
			c-0.1,0.3-0.3,0.7-0.3,1c-0.1,0.4-0.1,0.8-0.1,1.2c0,0.4,0,0.7,0.1,1c0.1,0.3,0.2,0.5,0.3,0.7c0.1,0.2,0.3,0.2,0.5,0.3
			c0.2,0,0.4,0,0.7-0.2c0.2-0.1,0.4-0.3,0.6-0.6c0.2-0.2,0.4-0.5,0.5-0.8c0.1-0.3,0.3-0.7,0.3-1C63.5,428.2,63.6,427.8,63.6,427.4z"
			/>
		<path class="st4" d="M73.2,421.8c0,0.7-0.1,1.3-0.3,2c-0.2,0.6-0.4,1.3-0.7,1.8c-0.3,0.6-0.6,1.1-1.1,1.5
			c-0.4,0.5-0.8,0.8-1.3,1.1c-0.5,0.3-0.9,0.4-1.3,0.4c-0.4,0-0.8-0.1-1.1-0.3c-0.3-0.2-0.5-0.6-0.7-1c-0.2-0.5-0.3-1-0.3-1.7
			c0-0.7,0.1-1.3,0.3-2c0.2-0.6,0.4-1.3,0.7-1.8c0.3-0.6,0.6-1.1,1.1-1.6c0.4-0.5,0.8-0.8,1.3-1.1c0.5-0.3,0.9-0.4,1.3-0.4
			c0.4,0,0.8,0.1,1.1,0.3c0.3,0.2,0.5,0.6,0.7,1C73.1,420.6,73.2,421.1,73.2,421.8z M71.5,422.8c0-0.4,0-0.7-0.1-1
			c-0.1-0.3-0.2-0.5-0.3-0.7c-0.1-0.2-0.3-0.2-0.5-0.3c-0.2,0-0.4,0-0.6,0.2c-0.2,0.1-0.5,0.3-0.7,0.6c-0.2,0.2-0.4,0.5-0.5,0.8
			c-0.1,0.3-0.3,0.7-0.3,1c-0.1,0.4-0.1,0.8-0.1,1.2c0,0.4,0,0.7,0.1,1c0.1,0.3,0.2,0.5,0.3,0.7c0.1,0.2,0.3,0.2,0.5,0.3
			c0.2,0,0.4,0,0.7-0.2c0.2-0.1,0.4-0.3,0.6-0.6c0.2-0.2,0.4-0.5,0.5-0.8c0.1-0.3,0.3-0.7,0.3-1C71.4,423.6,71.5,423.2,71.5,422.8z"
			/>
		<path class="st4" d="M76.4,418.1c-0.3,0.2-0.6,0.3-0.8,0.3c-0.3,0-0.5,0-0.7-0.1c-0.2-0.1-0.3-0.2-0.5-0.5
			c-0.1-0.2-0.2-0.5-0.2-0.8c0-0.3,0.1-0.6,0.2-1c0.1-0.3,0.3-0.7,0.5-1c0.2-0.3,0.4-0.6,0.7-0.9c0.3-0.3,0.5-0.5,0.8-0.7
			c0.3-0.2,0.6-0.3,0.8-0.3c0.3,0,0.5,0,0.7,0.1c0.2,0.1,0.3,0.2,0.5,0.5c0.1,0.2,0.2,0.5,0.2,0.8c0,0.3-0.1,0.6-0.2,1
			c-0.1,0.3-0.3,0.7-0.5,1c-0.2,0.3-0.4,0.6-0.7,0.9C77,417.7,76.7,417.9,76.4,418.1z M75,424.4l3.6-7l3.4-7l0.8,0.4l-3.5,6.8
			l-3.5,7.2L75,424.4z M76.4,417.1c0.1-0.1,0.2-0.2,0.4-0.3c0.1-0.1,0.2-0.3,0.3-0.4c0.1-0.2,0.2-0.3,0.2-0.5c0-0.2,0.1-0.4,0.1-0.5
			c0-0.3-0.1-0.6-0.3-0.7c-0.2-0.1-0.4-0.1-0.6,0c-0.1,0.1-0.2,0.2-0.4,0.3c-0.1,0.1-0.2,0.3-0.3,0.4c-0.1,0.2-0.2,0.3-0.2,0.5
			c0,0.2-0.1,0.3-0.1,0.5c0,0.3,0.1,0.6,0.3,0.7C76,417.2,76.2,417.2,76.4,417.1z M81.4,421.6c-0.3,0.2-0.6,0.3-0.8,0.3
			c-0.3,0-0.5,0-0.7-0.1c-0.2-0.1-0.3-0.2-0.5-0.4c-0.1-0.2-0.2-0.5-0.2-0.8c0-0.3,0.1-0.6,0.2-1c0.1-0.3,0.3-0.7,0.5-1
			c0.2-0.3,0.4-0.6,0.7-0.9c0.3-0.3,0.5-0.5,0.8-0.7c0.3-0.2,0.6-0.3,0.8-0.3c0.3,0,0.5,0,0.7,0.1c0.2,0.1,0.3,0.2,0.5,0.5
			c0.1,0.2,0.2,0.5,0.2,0.8c0,0.3-0.1,0.6-0.2,1c-0.1,0.3-0.3,0.7-0.5,1c-0.2,0.3-0.4,0.6-0.7,0.9C82,421.2,81.7,421.4,81.4,421.6z
			 M81.4,420.6c0.1-0.1,0.2-0.2,0.4-0.3c0.1-0.1,0.2-0.3,0.3-0.4c0.1-0.2,0.2-0.3,0.2-0.5c0-0.2,0.1-0.3,0.1-0.5
			c0-0.2,0-0.3-0.1-0.5c-0.1-0.1-0.1-0.2-0.2-0.3c-0.1-0.1-0.2-0.1-0.3-0.1c-0.1,0-0.2,0-0.3,0.1c-0.1,0.1-0.2,0.2-0.4,0.3
			c-0.1,0.1-0.2,0.3-0.3,0.4c-0.1,0.2-0.2,0.3-0.2,0.5c0,0.2-0.1,0.4-0.1,0.5c0,0.3,0.1,0.6,0.3,0.7
			C80.9,420.7,81.2,420.7,81.4,420.6z"/>
	</g>
</g>
<g>
	<g>
		<linearGradient id="SVGID_33_" gradientUnits="userSpaceOnUse" x1="265.3817" y1="470.9923" x2="87.7517" y2="467.956">
			<stop  offset="0" style="stop-color:#B6B9FE"/>
			<stop  offset="0.9996" style="stop-color:#5861D6"/>
		</linearGradient>
		<path class="st41" d="M261.2,472.5L195,510.7c-2.7,1.5-7.4,1.4-10.5-0.4L119.9,473c-3.1-1.8-3.4-4.5-0.8-6.1l66.2-38.2
			c2.7-1.5,7.4-1.4,10.5,0.4l64.6,37.3C263.5,468.2,263.8,471,261.2,472.5z"/>
		<linearGradient id="SVGID_34_" gradientUnits="userSpaceOnUse" x1="263.0955" y1="455.0051" x2="60.7335" y2="486.6793">
			<stop  offset="0" style="stop-color:#E8E9FF"/>
			<stop  offset="0.9996" style="stop-color:#C0C0F6"/>
		</linearGradient>
		<path class="st42" d="M261.2,469.2L195,507.4c-2.7,1.5-7.4,1.4-10.5-0.4l-64.6-37.3c-3.1-1.8-3.4-4.5-0.8-6.1l66.2-38.2
			c2.7-1.5,7.4-1.4,10.5,0.4l64.6,37.3C263.5,465,263.8,467.7,261.2,469.2z"/>
		<g>
			<path class="st13" d="M183.6,490.3l11.1-6.4c2.1-1.2,1.8-3.3-0.6-4.6l-2.6-1.5c-2.4-1.4-6-1.5-8-0.3l-11.1,6.4
				c-2.1,1.2-1.8,3.3,0.6,4.6l2.6,1.5C177.9,491.3,181.5,491.5,183.6,490.3z"/>
			<path class="st13" d="M219.7,456.5l-25,14.4c-2.1,1.2-1.8,3.3,0.6,4.6l2.6,1.5c2.4,1.4,6,1.5,8,0.3l25-14.4
				c2.1-1.2,1.8-3.3-0.6-4.6l-2.6-1.5C225.3,455.4,221.7,455.3,219.7,456.5z"/>
			<polygon class="st13" points="186.9,496.5 241.7,464.9 239.1,463.4 184.4,495 			"/>
			<polygon class="st13" points="190.6,498.6 229.1,476.4 226.5,474.9 188,497.1 			"/>
		</g>
	</g>
	<path class="st13" d="M216.5,452.9L166.1,482c-1.9,1.1-5.3,1-7.5-0.3l-25.1-14.5c-2.2-1.3-2.4-3.2-0.5-4.3l50.4-29.1
		c1.9-1.1,5.3-1,7.5,0.3l25.1,14.5C218.2,449.8,218.4,451.8,216.5,452.9z"/>
</g>
<g>
	<g>
		<g>
			<g>
				
					<linearGradient id="SVGID_35_" gradientUnits="userSpaceOnUse" x1="37.7799" y1="339.5196" x2="46.5998" y2="314.0774" gradientTransform="matrix(-0.9468 0.3218 0.3218 0.9468 139.4331 -91.5877)">
					<stop  offset="7.079140e-02" style="stop-color:#AC5E74"/>
					<stop  offset="0.5672" style="stop-color:#9B5167"/>
					<stop  offset="0.9993" style="stop-color:#894258"/>
				</linearGradient>
				<path class="st43" d="M212.8,243L212.8,243c-1.4,1-3.3,0.6-4.2-0.7l-13.7-19.4c-1-1.4-0.6-3.3,0.7-4.2l0,0
					c1.4-1,3.3-0.6,4.2,0.7l13.7,19.4C214.5,240.1,214.1,242,212.8,243z"/>
				<linearGradient id="SVGID_36_" gradientUnits="userSpaceOnUse" x1="205.8374" y1="225.0155" x2="191.5281" y2="217.8609">
					<stop  offset="7.079140e-02" style="stop-color:#73EBFF"/>
					<stop  offset="0.2056" style="stop-color:#6EDAF4"/>
					<stop  offset="0.4723" style="stop-color:#60AED7"/>
					<stop  offset="0.8421" style="stop-color:#4968A8"/>
					<stop  offset="0.9993" style="stop-color:#3F4893"/>
				</linearGradient>
				<path class="st44" d="M203.3,221.5l-4.4-6.2c-1.5-2.1-4.4-2.6-6.5-1.1v0c-2.1,1.5-2.6,4.4-1.1,6.5l4.4,6.2
					C195.7,226.9,200.9,228.5,203.3,221.5z"/>
			</g>
			<g>
				<path class="st45" d="M187.9,246.3c0.2,0.3,0.4,0.5,0.7,0.6l16,9.1c1.7,1,4.2,0,5.4-2.2l0,0c1.3-2.2,0.9-4.8-0.9-5.8l-18.4-10.5
					c-0.4-0.3-1-0.2-1.4,0.2C188.1,239,185.4,242.2,187.9,246.3z"/>
			</g>
			<g>
				<path class="st46" d="M177.4,251.7c0.2,0.3,0.4,0.5,0.7,0.6l16,9.1c1.7,1,4.2,0,5.4-2.2l0,0c1.3-2.2,0.9-4.8-0.9-5.8L180.2,243
					c-0.4-0.3-1-0.2-1.4,0.2C177.5,244.4,174.8,247.6,177.4,251.7z"/>
			</g>
			<g>
				<g>
					<path class="st47" d="M202.3,279.2c-0.1,1.3,3,2.1,5.7,3.7c3.7,2.1,7.7,3.3,9.6,2.2c0.5-0.3,0.7-0.6,0.7-1l0-2.2
						c0.1-1.2-1.8-3.1-4.5-5.8c-3.1-3-5-4.8-9.6-2.2c-1.3,0.8-1.8,1.3-1.8,1.8L202.3,279.2z"/>
					<path class="st48" d="M213.8,276c3.7,3.6,5.7,5.7,3.8,6.8c-1.9,1.1-5.7-0.6-9.6-3.5c-3.4-2.6-8.4-2.9-3.8-5.5
						C208.8,271.2,210.7,273,213.8,276z"/>
				</g>
				<path class="st45" d="M210.8,273.4c0.1-0.3,0.2-0.6,0.2-0.9v-21.4c0-2-2.1-3.6-4.6-3.6l0,0c-2.5,0-4.6,1.6-4.6,3.6v24.1
					c0,0.5,0.3,1,0.8,1.1C204.5,276.9,208.6,277.7,210.8,273.4z"/>
			</g>
			
				<linearGradient id="SVGID_37_" gradientUnits="userSpaceOnUse" x1="37.6117" y1="232.406" x2="61.6473" y2="232.406" gradientTransform="matrix(-1 0 0 1 234.5877 0)">
				<stop  offset="7.079140e-02" style="stop-color:#FFFFFF"/>
				<stop  offset="0.3469" style="stop-color:#EEF0F1"/>
				<stop  offset="0.8905" style="stop-color:#C3C9CE"/>
				<stop  offset="0.9993" style="stop-color:#B9C0C6"/>
			</linearGradient>
			<path class="st49" d="M179,253.5c0.1,0.1,0.2,0.1,0.4,0.1c2,0.2,9.3-1.4,16.6-9.7c0.6-0.7,1-1.6,1-2.4v-23.4c0-1.8-0.6-3-1.6-3.6
				l-5.5-3.2c-1-0.6-2.4-0.5-3.9,0.4l-7.5,4.3c-3,1.7-5.5,6-5.5,9.5v23.5c0,0.5,0.2,0.9,0.5,1.1L179,253.5z"/>
			<g>
				<g>
					<path class="st47" d="M191.4,284c-0.1,1.3,3,2.1,5.7,3.7c3.7,2.1,7.7,3.3,9.6,2.2c0.5-0.3,0.7-0.6,0.7-1l0-2.2
						c0.1-1.2-1.8-3.1-4.5-5.8c-3.1-3-5-4.8-9.6-2.2c-1.3,0.8-1.8,1.3-1.8,1.8L191.4,284z"/>
					<path class="st48" d="M202.9,280.9c3.7,3.6,5.7,5.7,3.8,6.8c-1.9,1.1-5.7-0.6-9.6-3.5c-3.4-2.6-8.4-2.9-3.8-5.5
						C197.9,276,199.8,277.9,202.9,280.9z"/>
				</g>
				<path class="st46" d="M199.9,278.3c0.1-0.3,0.2-0.6,0.2-0.9V256c0-2-2.1-3.6-4.6-3.6l0,0c-2.5,0-4.6,1.6-4.6,3.6v24.1
					c0,0.5,0.3,1,0.8,1.1C193.5,281.7,197.7,282.5,199.9,278.3z"/>
			</g>
			<path class="st50" d="M179.8,217.6c0,0.6,0.4,1.2,1.1,1.6c1.5,0.9,4,0.9,5.5,0c0.8-0.4,1.1-1,1.1-1.6v-5.1c0-0.6-0.4-1.2-1.1-1.6
				c-1.5-0.9-4-0.9-5.5,0c-0.8,0.4-1.1,1-1.1,1.6V217.6z"/>
			
				<linearGradient id="SVGID_38_" gradientUnits="userSpaceOnUse" x1="42.8407" y1="207.1817" x2="61.8375" y2="200.7365" gradientTransform="matrix(-1 0 0 1 234.5877 0)">
				<stop  offset="7.079140e-02" style="stop-color:#AC5E74"/>
				<stop  offset="0.5672" style="stop-color:#9B5167"/>
				<stop  offset="0.9993" style="stop-color:#894258"/>
			</linearGradient>
			<circle class="st51" cx="183.7" cy="204.4" r="10.7"/>
			<path class="st52" d="M177.9,212.8c0.7-0.7,1.8-2,2.2-3.6c0-0.1,0-0.2,0-0.3v-5.1c0-1,0.2-2,0.8-2.9c0.5-0.7,1.1-1.4,2.1-1.3
				c0,0,8.6,3.7,11.8-3.2c0.2-0.5,0-1.2-0.6-1.3c-0.6-0.1-1.4-0.7-2.3-2.1c-0.2-0.3-0.6-0.5-1-0.4c-0.8,0.2-2.4,0.3-3.8-1.4
				c-0.2-0.2-0.4-0.3-0.7-0.3c-1.6,0-7.3,0.3-10.3,2.5c0,0,0,0-0.1,0c-0.7,0.5-11.2,9.6,0.8,19.4C177,213.2,177.6,213.1,177.9,212.8
				z"/>
			<path class="st53" d="M180.1,210.4c0,1.3-0.9,1.8-2,1.2c-1.1-0.6-2-2.2-2-3.5c0-1.3,0.9-1.8,2-1.2
				C179.2,207.6,180.1,209.2,180.1,210.4z"/>
		</g>
		<g>
			
				<linearGradient id="SVGID_39_" gradientUnits="userSpaceOnUse" x1="-302.0288" y1="257.2658" x2="-338.1808" y2="244.553" gradientTransform="matrix(-1 0 0 1 -133.7924 0)">
				<stop  offset="0" style="stop-color:#FFFFFF"/>
				<stop  offset="0.5824" style="stop-color:#DAE4FC"/>
				<stop  offset="0.9993" style="stop-color:#BDCEFA"/>
			</linearGradient>
			<polygon class="st54" points="210.4,246.9 191.4,257.8 176.8,249.9 196.2,238.7 			"/>
			<polygon class="st55" points="210.4,246.9 213.4,227.8 192.3,240 191.4,257.8 			"/>
		</g>
	</g>
	<g>
		
			<linearGradient id="SVGID_40_" gradientUnits="userSpaceOnUse" x1="96.7179" y1="424.1247" x2="96.7179" y2="395.5291" gradientTransform="matrix(-0.8144 0.5802 0.5802 0.8144 25.9311 -152.07)">
			<stop  offset="7.079140e-02" style="stop-color:#AC5E74"/>
			<stop  offset="0.5672" style="stop-color:#9B5167"/>
			<stop  offset="0.9993" style="stop-color:#894258"/>
		</linearGradient>
		<path class="st56" d="M193.7,250.1L193.7,250.1c-1.4,1-3.3,0.6-4.2-0.7l-13.7-19.3c-1-1.4-0.6-3.3,0.7-4.2l0,0
			c1.4-1,3.3-0.6,4.2,0.7l13.7,19.3C195.4,247.3,195.1,249.2,193.7,250.1z"/>
		<linearGradient id="SVGID_41_" gradientUnits="userSpaceOnUse" x1="184.532" y1="232.9739" x2="169.9116" y2="223.0195">
			<stop  offset="7.079140e-02" style="stop-color:#73EBFF"/>
			<stop  offset="0.2056" style="stop-color:#6EDAF4"/>
			<stop  offset="0.4723" style="stop-color:#60AED7"/>
			<stop  offset="0.8421" style="stop-color:#4968A8"/>
			<stop  offset="0.9993" style="stop-color:#3F4893"/>
		</linearGradient>
		<path class="st57" d="M183.6,229.5l-3.8-6.6c-1.3-2.2-4.2-3-6.4-1.7l0,0c-2.2,1.3-3,4.2-1.7,6.4l3.8,6.6
			C175.5,234.2,180.5,236.3,183.6,229.5z"/>
	</g>
</g>
<linearGradient id="SVGID_42_" gradientUnits="userSpaceOnUse" x1="284.9027" y1="408.8415" x2="333.4299" y2="378.1491">
	<stop  offset="0" style="stop-color:#AC36A8;stop-opacity:0"/>
	<stop  offset="0.2425" style="stop-color:#9B36A8;stop-opacity:0.2425"/>
	<stop  offset="0.7195" style="stop-color:#7037A8;stop-opacity:0.7197"/>
	<stop  offset="0.9996" style="stop-color:#5337A8"/>
</linearGradient>
<polygon class="st58" points="294.2,388.8 268.3,403.5 293.6,417.9 319.3,402.9 "/>
<g>
	<linearGradient id="SVGID_43_" gradientUnits="userSpaceOnUse" x1="347.8637" y1="295.7599" x2="371.4081" y2="278.1017">
		<stop  offset="0" style="stop-color:#AC36A8;stop-opacity:0"/>
		<stop  offset="0.2425" style="stop-color:#9B36A8;stop-opacity:0.2425"/>
		<stop  offset="0.7195" style="stop-color:#7037A8;stop-opacity:0.7197"/>
		<stop  offset="0.9996" style="stop-color:#5337A8"/>
	</linearGradient>
	<polygon class="st59" points="362,275.3 336.1,290.1 354.8,300.7 380.6,285.7 	"/>
	<g>
		<g>
			
				<linearGradient id="SVGID_44_" gradientUnits="userSpaceOnUse" x1="228.2605" y1="217.7933" x2="225.0924" y2="192.4489" gradientTransform="matrix(0.9568 -0.2908 -0.2908 -0.9568 205.3666 465.1169)">
				<stop  offset="7.079140e-02" style="stop-color:#FCC4B7"/>
				<stop  offset="0.3148" style="stop-color:#F7B8A6"/>
				<stop  offset="0.7948" style="stop-color:#E99A7B"/>
				<stop  offset="0.9993" style="stop-color:#E28C66"/>
			</linearGradient>
			<path class="st60" d="M360.1,189.7L360.1,189.7c-1.5,0.3-2.6,1.8-2.3,3.3l4.1,21.8c0.3,1.5,1.8,2.6,3.3,2.3l0,0
				c1.5-0.3,2.6-1.8,2.3-3.3l-4.1-21.8C363.1,190.5,361.6,189.4,360.1,189.7z"/>
			<path class="st16" d="M368.4,210.1l1.3,7c0.5,2.4-1.1,4.7-3.5,5.1l0,0c-2.4,0.5-4.7-1.1-5.1-3.5l-1.3-7
				C359.8,211.7,362.1,207.1,368.4,210.1z"/>
		</g>
		<g>
			<g>
				<path class="st47" d="M380.4,285.5c0.1,1.2-2.8,2-5.3,3.4c-3.5,2-7.2,3.1-9,2.1c-0.4-0.3-0.7-0.6-0.7-1l0-2
					c-0.1-1.2,1.6-2.9,4.2-5.4c2.9-2.8,4.7-4.5,9-2.1c1.2,0.7,1.7,1.2,1.7,1.7L380.4,285.5z"/>
				<path class="st48" d="M369.7,282.5c-3.5,3.4-5.3,5.4-3.6,6.4c1.8,1,5.3-0.5,9-3.3c3.2-2.4,7.8-2.7,3.6-5.2
					S372.6,279.7,369.7,282.5z"/>
			</g>
			
				<linearGradient id="SVGID_45_" gradientUnits="userSpaceOnUse" x1="163.625" y1="283.3289" x2="163.625" y2="247.8143" gradientTransform="matrix(-1 0 0 1 540.1854 0)">
				<stop  offset="7.110540e-02" style="stop-color:#3A55CA"/>
				<stop  offset="0.2683" style="stop-color:#354CB9"/>
				<stop  offset="0.6562" style="stop-color:#28368E"/>
				<stop  offset="0.9993" style="stop-color:#1B2062"/>
			</linearGradient>
			<path class="st61" d="M372.5,280.1c-0.1-0.3-0.2-0.6-0.2-0.9v-29.7c0-1.9,1.9-3.4,4.3-3.4l0,0c2.4,0,4.3,1.5,4.3,3.4v32.3
				c0,0.5-0.3,0.9-0.8,1C378.4,283.4,374.5,284.1,372.5,280.1z"/>
		</g>
		<g>
			<g>
				<path class="st47" d="M371.1,278.6c0.1,1.2-2.8,2-5.3,3.4c-3.5,2-7.2,3.1-9,2.1c-0.4-0.3-0.7-0.6-0.7-1l0-2
					c-0.1-1.2,1.6-2.9,4.2-5.4c2.9-2.8,4.7-4.5,9-2.1c1.2,0.7,1.7,1.2,1.7,1.7L371.1,278.6z"/>
				<path class="st48" d="M360.4,275.7c-3.5,3.4-5.3,5.4-3.6,6.4c1.8,1,5.3-0.5,9-3.3c3.2-2.4,7.8-2.7,3.6-5.2
					S363.2,272.9,360.4,275.7z"/>
			</g>
			
				<linearGradient id="SVGID_46_" gradientUnits="userSpaceOnUse" x1="172.9352" y1="278.404" x2="172.9352" y2="242.4381" gradientTransform="matrix(-1 0 0 1 540.1854 0)">
				<stop  offset="7.110540e-02" style="stop-color:#3A55CA"/>
				<stop  offset="0.2683" style="stop-color:#354CB9"/>
				<stop  offset="0.6562" style="stop-color:#28368E"/>
				<stop  offset="0.9993" style="stop-color:#1B2062"/>
			</linearGradient>
			<path class="st62" d="M363.1,273.2c-0.1-0.3-0.2-0.6-0.2-0.9v-29.7c0-1.9,1.9-3.4,4.3-3.4l0,0c2.4,0,4.3,1.5,4.3,3.4V275
				c0,0.5-0.3,0.9-0.8,1C369.1,276.5,365.2,277.2,363.1,273.2z"/>
		</g>
		<path class="st63" d="M379.4,254.9c-0.1,0.1-0.2,0.1-0.4,0.1c-1.9,0.1-8.7-1.3-15.6-9.1c-0.6-0.6-0.9-1.5-0.9-2.2v-21.9
			c0-1.6,0.6-2.8,1.5-3.3l5.1-3c0.9-0.6,2.2-0.5,3.7,0.3l7,4c2.8,1.6,5.1,5.6,5.1,8.9v22c0,0.5-0.2,0.9-0.5,1.1L379.4,254.9z"/>
		<path class="st64" d="M377.5,221.3c0,0.5-0.3,1.1-1.1,1.5c-1.4,0.8-3.7,0.8-5.1,0c-0.7-0.4-1.1-1-1.1-1.5v-4.8
			c0-0.5,0.3-1.1,1.1-1.5c1.4-0.8,3.7-0.8,5.1,0c0.7,0.4,1.1,1,1.1,1.5V221.3z"/>
		
			<linearGradient id="SVGID_47_" gradientUnits="userSpaceOnUse" x1="173.1447" y1="217.3761" x2="160.1929" y2="201.1863" gradientTransform="matrix(-1 0 0 1 540.1854 0)">
			<stop  offset="7.079140e-02" style="stop-color:#FCC4B7"/>
			<stop  offset="0.3148" style="stop-color:#F7B8A6"/>
			<stop  offset="0.7948" style="stop-color:#E99A7B"/>
			<stop  offset="0.9993" style="stop-color:#E28C66"/>
		</linearGradient>
		<circle class="st65" cx="373.8" cy="208.9" r="10"/>
		<path class="st66" d="M382.2,197.1c8.5,2.9,4.3,15.4-1.9,19.9c-3-1.7,0.7-4.6-3.5-2.6c-0.8-4,1-2.8-0.1-7.8
			c-4.3,2.3-12.8-0.5-14.1-4.7c1.5-0.7,3.1-5,6.6-6.5C373.7,193.3,379.6,194.2,382.2,197.1z"/>
		<path class="st67" d="M377.2,214.5c0,1.2,0.8,1.7,1.9,1.1c1-0.6,1.9-2,1.9-3.2c0-1.2-0.8-1.7-1.9-1.1
			C378,211.9,377.2,213.3,377.2,214.5z"/>
		<g>
			
				<linearGradient id="SVGID_48_" gradientUnits="userSpaceOnUse" x1="213.4344" y1="228.011" x2="213.4344" y2="202.6578" gradientTransform="matrix(0.9999 -1.350000e-02 -1.350000e-02 -0.9999 170.48 430.6855)">
				<stop  offset="7.079140e-02" style="stop-color:#FCC4B7"/>
				<stop  offset="0.3148" style="stop-color:#F7B8A6"/>
				<stop  offset="0.7948" style="stop-color:#E99A7B"/>
				<stop  offset="0.9993" style="stop-color:#E28C66"/>
			</linearGradient>
			<path class="st68" d="M380.8,197.7L380.8,197.7c-1.6,0-2.8,1.3-2.8,2.9l0.3,22.2c0,1.6,1.3,2.8,2.9,2.8l0,0
				c1.6,0,2.8-1.3,2.8-2.9l-0.3-22.2C383.6,198.9,382.3,197.6,380.8,197.7z"/>
			<path class="st16" d="M385.5,219.1l0.1,7.2c0,2.4-1.9,4.4-4.3,4.5l0,0c-2.4,0-4.4-1.9-4.5-4.3l-0.1-7.2
				C376.7,219.2,379.7,215.1,385.5,219.1z"/>
		</g>
	</g>
</g>
<g>
	<g>
		<g>
			<g>
				<g>
					<path class="st47" d="M292.3,378.6c-0.4,0.2-0.5,0.6-0.5,1.2c0,0.2,1.9-1.1,1.8-0.4c0,0.2-1.4,9.3,1.5,12.3
						c0.3,0.3,0.8,0.3,1.1,0.1l0.8-0.4c0.9-0.5,1.5-2.6,2.4-5.7c0.9-3.5,1.5-5.6-2.3-7.9c-1.1-0.6-1.7-0.8-2.1-0.6L292.3,378.6z"/>
					<path class="st69" d="M299.3,385.7c-1.1,4.2-1.8,6.5-3.4,5.6c-1.6-0.9-1.9-4.4-1.4-8.4c0.5-3.5-1.3-7.3,2.5-5.1
						C300.7,380,300.2,382.2,299.3,385.7z"/>
				</g>
			</g>
			<path class="st70" d="M323.8,358.9l-7.8,2.9l-3.2,3.6c0,0-5.6,2.4-10.1,7c0,0-1.7,2.5-7.2,5.3c0,0,0,3.9,3.5,4.5l22.3-12.8
				c1.6-0.9,2.6-2.5,2.8-4.3C324.2,363.7,324.2,361.7,323.8,358.9z"/>
		</g>
	</g>
	<g>
		<g>
			<g>
				<path class="st47" d="M307.4,398.3c0,0.4,0.3,0.7,0.8,1.1c0.2,0.1,0-2.2,0.5-1.8c0.2,0.1,7.4,5.8,11.5,4.7
					c0.4-0.1,0.6-0.5,0.6-0.9l0-0.9c0.1-1-1.5-2.6-3.8-4.9c-2.6-2.5-4.2-4.1-8-1.8c-1.1,0.6-1.5,1.1-1.5,1.5L307.4,398.3z"/>
				<path class="st69" d="M317,395.7c3.1,3,4.8,4.8,3.2,5.7c-1.6,0.9-4.8-0.5-8-2.9c-2.9-2.2-7-2.4-3.2-4.6
					C312.8,391.6,314.4,393.2,317,395.7z"/>
			</g>
		</g>
		<linearGradient id="SVGID_49_" gradientUnits="userSpaceOnUse" x1="309.8751" y1="393.4412" x2="309.8751" y2="365.2902">
			<stop  offset="7.079140e-02" style="stop-color:#FCC4B7"/>
			<stop  offset="0.3148" style="stop-color:#F7B8A6"/>
			<stop  offset="0.7948" style="stop-color:#E99A7B"/>
			<stop  offset="0.9993" style="stop-color:#E28C66"/>
		</linearGradient>
		<path class="st71" d="M313.9,394.3l-0.2-27.8l-7.6,2.4l-0.1,5.1c0,0-0.7,6.1,1.2,12.2c0,0,1.3,2.7,1.1,8.9
			C308.2,395.1,311.6,397,313.9,394.3z"/>
	</g>
	<g>
		<linearGradient id="SVGID_50_" gradientUnits="userSpaceOnUse" x1="334.7224" y1="353.11" x2="318.6354" y2="323.411">
			<stop  offset="7.079140e-02" style="stop-color:#FCC4B7"/>
			<stop  offset="0.3148" style="stop-color:#F7B8A6"/>
			<stop  offset="0.7948" style="stop-color:#E99A7B"/>
			<stop  offset="0.9993" style="stop-color:#E28C66"/>
		</linearGradient>
		<path class="st72" d="M334.5,355.2L334.5,355.2c-1.5,0.7-3.3,0-4-1.5l-12-26.4c-0.7-1.5,0-3.3,1.5-4l0,0c1.5-0.7,3.3,0,4,1.5
			l12,26.4C336.6,352.8,336,354.6,334.5,355.2z"/>
	</g>
	<path class="st4" d="M301.2,359.9v10.3c0,0,12,4.1,23.4-10.3v-10L301.2,359.9z"/>
	<path class="st14" d="M306.6,363.1c0.1,0.1,0.2,0.1,0.4,0.1c2,0.2,9.3-1.4,16.5-9.6c0.6-0.7,1-1.6,1-2.4V328c0-1.8-0.6-3-1.6-3.5
		l-5.5-3.2c-1-0.6-2.4-0.5-3.9,0.4l-7.4,4.3c-3,1.7-5.5,6-5.5,9.5v23.4c0,0.5,0.2,0.9,0.5,1.1L306.6,363.1z"/>
	<path class="st73" d="M308.8,327.4c0,0.6,0.4,1.2,1.1,1.6c1.5,0.9,3.9,0.9,5.4,0c0.8-0.4,1.1-1,1.1-1.6v-5.1c0-0.6-0.4-1.2-1.1-1.6
		c-1.5-0.9-3.9-0.9-5.4,0c-0.8,0.4-1.1,1-1.1,1.6V327.4z"/>
	<g>
		<linearGradient id="SVGID_51_" gradientUnits="userSpaceOnUse" x1="290.4343" y1="357.867" x2="303.3039" y2="328.663">
			<stop  offset="7.079140e-02" style="stop-color:#FCC4B7"/>
			<stop  offset="0.3148" style="stop-color:#F7B8A6"/>
			<stop  offset="0.7948" style="stop-color:#E99A7B"/>
			<stop  offset="0.9993" style="stop-color:#E28C66"/>
		</linearGradient>
		<path class="st74" d="M288.2,360.6L288.2,360.6c-1.5-0.7-2.1-2.6-1.3-4.1l13.1-26c0.7-1.5,2.6-2.1,4.1-1.3l0,0
			c1.5,0.7,2.1,2.6,1.3,4.1l-13.1,26C291.5,360.8,289.7,361.4,288.2,360.6z"/>
	</g>
	<g>
		<path class="st75" d="M322.4,311.4l3.8,14.8c0.4,1.4-1,2.6-2.3,2l-8.8-3.6c-0.8-0.3-1.2-1.1-1-1.9l2.9-14.5
			c0.3-1.5,2.3-1.9,3.2-0.6l2.1,3.4C322.3,311.1,322.4,311.2,322.4,311.4z"/>
		<path class="st76" d="M309.1,320.2c0,1.3-0.9,1.8-2,1.1c-1.1-0.6-2-2.2-2-3.4c0-1.3,0.9-1.8,2-1.1
			C308.2,317.4,309.1,319,309.1,320.2z"/>
		<linearGradient id="SVGID_52_" gradientUnits="userSpaceOnUse" x1="324.3048" y1="314.956" x2="301.5356" y2="313.471">
			<stop  offset="7.079140e-02" style="stop-color:#FCC4B7"/>
			<stop  offset="0.3148" style="stop-color:#F7B8A6"/>
			<stop  offset="0.7948" style="stop-color:#E99A7B"/>
			<stop  offset="0.9993" style="stop-color:#E28C66"/>
		</linearGradient>
		<circle class="st77" cx="312.6" cy="314.2" r="10.6"/>
		<path class="st75" d="M302.3,315.6c0,0,9,4.9,13.3-7.9c0,0,2.3,5.4,8.2,4.2c0,0,0-8.4-8.7-10C315.1,301.9,299.7,300.4,302.3,315.6
			z"/>
		<path class="st75" d="M307.2,316l3.8,14.8c0.4,1.4-1,2.6-2.3,2l-8.8-3.6c-0.8-0.3-1.2-1.1-1-1.9l2.9-14.5c0.3-1.5,2.3-1.9,3.2-0.6
			l2.1,3.4C307.1,315.7,307.1,315.9,307.2,316z"/>
	</g>
</g>
</svg>
