<?xml version="1.0" encoding="utf-8"?>
<!-- Generator: Adobe Illustrator 21.0.0, SVG Export Plug-In . SVG Version: 6.00 Build 0)  -->
<svg version="1.1" id="Layer_1" xmlns="http://www.w3.org/2000/svg" xmlns:xlink="http://www.w3.org/1999/xlink" x="0px" y="0px"
	 viewBox="0 0 605 185" style="enable-background:new 0 0 605 185;" xml:space="preserve">
<style type="text/css">
	.st0{fill:#FAFCFB;}
	.st1{fill:url(#SVGID_1_);}
</style>
<g>
	<g>
		<rect class="st0" width="605" height="185"/>
		
			<linearGradient id="SVGID_1_" gradientUnits="userSpaceOnUse" x1="0" y1="93.5" x2="113.201" y2="93.5" gradientTransform="matrix(1 0 0 -1 0 186)">
			<stop  offset="0" style="stop-color:#1B49DF"/>
			<stop  offset="1" style="stop-color:#396AFC"/>
		</linearGradient>
		<path class="st1" d="M112.8,97.3c0,0,3.4-29.5-9.6-44.9V0H0v185h103.2v-42.9C116.2,126.8,112.8,97.3,112.8,97.3z"/>
		<g>
			<path class="st0" d="M109.2,111.1L99.1,101l-21,21c-3.7,3.7-8.4,6.2-13.6,7.1l13.4,13.4c1.2,1.2,3.2,1.2,4.4,0l26.9-26.9
				C110.4,114.3,110.4,112.3,109.2,111.1z"/>
			<path class="st0" d="M94.9,96.2c3.5-3.5,3.5-9.3,0-12.8l0,0c-0.9-0.9-1.9-1.5-3-2c1-2.4,1.2-6.6-2-9.8l0,0c-0.9-0.9-1.9-1.5-3-2
				c1-2.4,1.2-6.6-2-9.8l0,0c-0.9-0.9-1.9-1.5-3-2c1-2.4,1.2-6.6-2-9.8l0,0l0,0c-3.5-3.5-9.3-3.5-12.8,0L61,54l3,3
				c5.1,5.1,5.1,13.3,0,18.4c-1.7,1.7-3.8,2.9-6.1,3.4c-0.5,2.2-1.7,4.3-3.4,6.1c-1.7,1.7-3.8,2.9-6.1,3.4c-0.6,2.3-1.7,4.4-3.4,6.1
				s-3.8,2.9-6.1,3.4c-0.6,2.3-1.7,4.4-3.4,6.1c-2.5,2.5-5.7,3.8-9.2,3.8s-6.7-1.4-9.2-3.8l-3-3L4,111.1c-1.2,1.2-1.2,3.2,0,4.4
				l26.9,26.9c1.2,1.2,3.2,1.2,4.4,0l19.2-19.2H60c5.2,0,10-2,13.7-5.7L94.9,96.2z"/>
			<path class="st0" d="M21.6,99.5c2.6,2.6,6.9,2.6,9.5,0s2.6-6.9,0-9.5c2.6,2.6,6.9,2.6,9.5,0s2.6-6.9,0-9.5c2.6,2.6,6.9,2.6,9.5,0
				s2.6-6.9,0-9.5c2.6,2.6,6.9,2.6,9.5,0s2.6-6.9,0-9.5L46.2,48.1c-2.6-2.6-6.9-2.6-9.5,0s-2.6,6.9,0,9.5l1.7,1.7
				c-2.6-2.6-6.9-2.6-9.5,0s-2.6,6.9,0,9.5l3.4,3.4c-2.6-2.6-6.9-2.6-9.5,0s-2.6,6.9,0,9.5l3.4,3.4c-2.6-2.6-6.9-2.6-9.5,0
				s-2.6,6.9,0,9.5L21.6,99.5z"/>
			<path class="st0" d="M62.5,43.7c0.5-0.5,1-0.9,1.5-1.3l-1.8-1.8c-1-1-2.4-1.2-3.6-0.6l-7.7,3.9l5.8,5.8L62.5,43.7z"/>
		</g>
	</g>
</g>
</svg>
