<?xml version="1.0" encoding="utf-8"?>
<!-- Generator: Adobe Illustrator 21.0.0, SVG Export Plug-In . SVG Version: 6.00 Build 0)  -->
<svg version="1.1" id="Layer_1" xmlns="http://www.w3.org/2000/svg" xmlns:xlink="http://www.w3.org/1999/xlink" x="0px" y="0px"
	 viewBox="0 0 605 185" style="enable-background:new 0 0 605 185;" xml:space="preserve">
<style type="text/css">
	.st0{fill:#FAFCFB;}
	.st1{fill:url(#SVGID_1_);}
</style>
<g>
	<g>
		<rect class="st0" width="605" height="185"/>
		
			<linearGradient id="SVGID_1_" gradientUnits="userSpaceOnUse" x1="0" y1="93.5" x2="113.201" y2="93.5" gradientTransform="matrix(1 0 0 -1 0 186)">
			<stop  offset="0" style="stop-color:#1B49DF"/>
			<stop  offset="1" style="stop-color:#396AFC"/>
		</linearGradient>
		<path class="st1" d="M112.8,97.3c0,0,3.4-29.5-9.6-44.9V0H0v185h103.2v-42.9C116.2,126.8,112.8,97.3,112.8,97.3z"/>
		<g>
			<path class="st0" d="M43.5,74l10.7,35.2L70,64.6c-1.2-3.1-3.4-5.6-6.4-7.2c-3.3-1.8-7.2-2.1-10.8-1s-6.6,3.5-8.4,6.9
				C42.8,66.6,42.4,70.4,43.5,74L43.5,74z M54.4,70.7c-0.5-1.5,0.4-3.1,1.9-3.5c1.5-0.5,3.1,0.4,3.5,1.9c0.5,1.5-0.4,3.1-1.9,3.5
				C56.4,73.1,54.8,72.2,54.4,70.7z"/>
			<path class="st0" d="M52.1,121.5L38.3,76.3c-2.8-1.7-6.1-2.5-9.4-2c-3.7,0.6-7,2.5-9.3,5.6c-4.6,6.3-3.3,15.2,3,19.8L52.1,121.5z
				 M29.3,90.6c-1.3-0.9-1.5-2.7-0.6-4s2.7-1.5,4-0.6c1.3,0.9,1.5,2.7,0.6,4C32.3,91.3,30.6,91.5,29.3,90.6z"/>
			<path class="st0" d="M20.9,132.9h36.9l-38.1-28.2c-3.3,0.3-6.4,1.7-8.7,4c-2.7,2.7-4.2,6.2-4.2,10
				C6.8,126.6,13.1,132.9,20.9,132.9z M18.1,118.8c0-1.6,1.3-2.8,2.8-2.8c1.6,0,2.8,1.3,2.8,2.8c0,1.6-1.3,2.8-2.8,2.8
				C19.4,121.6,18.1,120.3,18.1,118.8L18.1,118.8z"/>
			<path class="st0" d="M93.8,57.1c-7.4-2.6-15.5,1.3-18.1,8.6l-17.1,48.2c-2.8,7.8,1.7,15.6,8.6,18.1c7.4,2.6,15.5-1.5,18.1-8.6
				l17.1-48.2C105,67.8,101.1,59.7,93.8,57.1L93.8,57.1z M72.9,116c1.5,0.5,2.2,2.1,1.7,3.6s-2.1,2.2-3.6,1.7s-2.2-2.1-1.7-3.6
				S71.4,115.4,72.9,116z M90,67.8c1.5,0.5,2.2,2.1,1.7,3.6s-2.1,2.2-3.6,1.7s-2.2-2.1-1.7-3.6S88.5,67.2,90,67.8z"/>
		</g>
	</g>
</g>
</svg>
