<?xml version="1.0" encoding="utf-8"?>
<!-- Generator: Adobe Illustrator 21.0.0, SVG Export Plug-In . SVG Version: 6.00 Build 0)  -->
<svg version="1.1" id="Layer_1" xmlns="http://www.w3.org/2000/svg" xmlns:xlink="http://www.w3.org/1999/xlink" x="0px" y="0px"
	 viewBox="0 0 582 582" style="enable-background:new 0 0 582 582;" xml:space="preserve">
<style type="text/css">
	.st0{clip-path:url(#SVGID_2_);}
	.st1{clip-path:url(#SVGID_4_);fill-rule:evenodd;clip-rule:evenodd;fill:#202249;}
	.st2{clip-path:url(#SVGID_6_);fill:url(#SVGID_7_);}
	.st3{opacity:0.3;clip-path:url(#SVGID_9_);}
	.st4{clip-path:url(#SVGID_11_);fill-rule:evenodd;clip-rule:evenodd;fill:#1E2353;}
	.st5{clip-path:url(#SVGID_9_);fill-rule:evenodd;clip-rule:evenodd;fill:#202249;}
	.st6{clip-path:url(#SVGID_13_);fill:url(#SVGID_14_);}
	.st7{opacity:0.3;clip-path:url(#SVGID_16_);}
	.st8{clip-path:url(#SVGID_18_);fill-rule:evenodd;clip-rule:evenodd;fill:#955CF1;}
	.st9{clip-path:url(#SVGID_20_);fill:url(#SVGID_21_);}
	.st10{clip-path:url(#SVGID_23_);fill:url(#SVGID_24_);}
	.st11{clip-path:url(#SVGID_26_);fill-rule:evenodd;clip-rule:evenodd;fill:#4A9FF8;}
	.st12{clip-path:url(#SVGID_26_);fill-rule:evenodd;clip-rule:evenodd;fill:#5858F0;}
	.st13{opacity:0.5;clip-path:url(#SVGID_26_);}
	.st14{clip-path:url(#SVGID_28_);}
	.st15{clip-path:url(#SVGID_30_);fill:url(#SVGID_31_);}
	.st16{clip-path:url(#SVGID_33_);}
	.st17{clip-path:url(#SVGID_35_);fill:url(#SVGID_36_);}
	.st18{clip-path:url(#SVGID_38_);}
	.st19{clip-path:url(#SVGID_40_);fill:url(#SVGID_41_);}
	.st20{clip-path:url(#SVGID_26_);fill-rule:evenodd;clip-rule:evenodd;fill:#D0E7FF;}
	.st21{clip-path:url(#SVGID_43_);fill:url(#SVGID_44_);}
	.st22{opacity:0.5;clip-path:url(#SVGID_46_);}
	.st23{clip-path:url(#SVGID_48_);fill-rule:evenodd;clip-rule:evenodd;fill:#FFFCF1;}
	.st24{clip-path:url(#SVGID_50_);fill-rule:evenodd;clip-rule:evenodd;fill:#FFFCF1;}
	.st25{clip-path:url(#SVGID_52_);}
	.st26{clip-path:url(#SVGID_54_);fill:url(#SVGID_55_);}
	.st27{clip-path:url(#SVGID_46_);fill-rule:evenodd;clip-rule:evenodd;fill:#D0E7FF;}
	.st28{clip-path:url(#SVGID_57_);fill:url(#SVGID_58_);}
	.st29{clip-path:url(#SVGID_60_);fill-rule:evenodd;clip-rule:evenodd;fill:#FFFCF1;}
	.st30{clip-path:url(#SVGID_60_);fill-rule:evenodd;clip-rule:evenodd;fill:#D0E7FF;}
	.st31{clip-path:url(#SVGID_60_);fill-rule:evenodd;clip-rule:evenodd;fill:#FFFFFF;}
	.st32{clip-path:url(#SVGID_62_);fill:url(#SVGID_63_);}
	.st33{clip-path:url(#SVGID_65_);fill-rule:evenodd;clip-rule:evenodd;fill:#FFFFFF;}
	.st34{clip-path:url(#SVGID_67_);fill:url(#SVGID_68_);}
	.st35{clip-path:url(#SVGID_70_);fill-rule:evenodd;clip-rule:evenodd;fill:#FFDB59;}
	.st36{opacity:0.2;clip-path:url(#SVGID_70_);}
	.st37{clip-path:url(#SVGID_72_);}
	.st38{clip-path:url(#SVGID_74_);fill:url(#SVGID_75_);}
	.st39{clip-path:url(#SVGID_70_);fill-rule:evenodd;clip-rule:evenodd;fill:#FFFFFF;}
	.st40{clip-path:url(#SVGID_77_);fill:url(#SVGID_78_);}
	.st41{clip-path:url(#SVGID_80_);fill-rule:evenodd;clip-rule:evenodd;fill:#FFDB59;}
	.st42{opacity:0.2;clip-path:url(#SVGID_80_);}
	.st43{clip-path:url(#SVGID_82_);}
	.st44{clip-path:url(#SVGID_84_);fill:url(#SVGID_85_);}
	.st45{clip-path:url(#SVGID_87_);fill:url(#SVGID_88_);}
	.st46{clip-path:url(#SVGID_90_);fill:url(#SVGID_91_);}
	.st47{clip-path:url(#SVGID_93_);fill:url(#SVGID_94_);}
	.st48{opacity:0.35;clip-path:url(#SVGID_96_);}
	.st49{clip-path:url(#SVGID_98_);fill-rule:evenodd;clip-rule:evenodd;fill:#3469C0;}
	.st50{clip-path:url(#SVGID_100_);fill:url(#SVGID_101_);}
	.st51{clip-path:url(#SVGID_103_);fill:url(#SVGID_104_);}
	.st52{clip-path:url(#SVGID_106_);fill-rule:evenodd;clip-rule:evenodd;fill:#FFA698;}
	.st53{clip-path:url(#SVGID_106_);fill-rule:evenodd;clip-rule:evenodd;fill:#FF9080;}
	.st54{opacity:0.35;clip-path:url(#SVGID_106_);}
	.st55{clip-path:url(#SVGID_108_);fill-rule:evenodd;clip-rule:evenodd;fill:#3469C0;}
	.st56{clip-path:url(#SVGID_106_);fill-rule:evenodd;clip-rule:evenodd;fill:#4A9FF8;}
	.st57{clip-path:url(#SVGID_106_);fill-rule:evenodd;clip-rule:evenodd;fill:#D0E7FF;}
	.st58{opacity:0.5;clip-path:url(#SVGID_106_);}
	.st59{clip-path:url(#SVGID_110_);}
	.st60{clip-path:url(#SVGID_112_);fill:url(#SVGID_113_);}
	.st61{clip-path:url(#SVGID_106_);fill-rule:evenodd;clip-rule:evenodd;fill:#FFFFFF;}
	.st62{clip-path:url(#SVGID_115_);fill:url(#SVGID_116_);}
	.st63{clip-path:url(#SVGID_118_);fill-rule:evenodd;clip-rule:evenodd;fill:#FFFFFF;}
	.st64{opacity:0.2;clip-path:url(#SVGID_118_);}
	.st65{clip-path:url(#SVGID_120_);}
	.st66{clip-path:url(#SVGID_122_);fill:url(#SVGID_123_);}
	.st67{clip-path:url(#SVGID_125_);fill:url(#SVGID_126_);}
	.st68{opacity:0.2;clip-path:url(#SVGID_128_);}
	.st69{clip-path:url(#SVGID_130_);fill-rule:evenodd;clip-rule:evenodd;fill:#955CF1;}
	.st70{clip-path:url(#SVGID_132_);fill-rule:evenodd;clip-rule:evenodd;fill:#955CF1;}
	.st71{clip-path:url(#SVGID_134_);fill-rule:evenodd;clip-rule:evenodd;fill:#955CF1;}
	.st72{clip-path:url(#SVGID_136_);fill-rule:evenodd;clip-rule:evenodd;fill:#955CF1;}
	.st73{clip-path:url(#SVGID_138_);fill-rule:evenodd;clip-rule:evenodd;fill:#955CF1;}
	.st74{clip-path:url(#SVGID_128_);fill-rule:evenodd;clip-rule:evenodd;fill:#D0E7FF;}
	.st75{clip-path:url(#SVGID_140_);fill:url(#SVGID_141_);}
	.st76{clip-path:url(#SVGID_143_);fill-rule:evenodd;clip-rule:evenodd;fill:#6D6AFD;}
	.st77{clip-path:url(#SVGID_143_);fill-rule:evenodd;clip-rule:evenodd;fill:#B269EB;}
	.st78{clip-path:url(#SVGID_145_);fill:url(#SVGID_146_);}
	.st79{clip-path:url(#SVGID_148_);fill:url(#SVGID_149_);}
	.st80{clip-path:url(#SVGID_151_);fill-rule:evenodd;clip-rule:evenodd;fill:#FFFFFF;}
	.st81{clip-path:url(#SVGID_153_);fill:url(#SVGID_154_);}
	.st82{clip-path:url(#SVGID_156_);fill:url(#SVGID_157_);}
	.st83{opacity:0.3;clip-path:url(#SVGID_159_);}
	.st84{clip-path:url(#SVGID_161_);fill-rule:evenodd;clip-rule:evenodd;fill:#955CF1;}
	.st85{clip-path:url(#SVGID_159_);fill-rule:evenodd;clip-rule:evenodd;fill:#FFFFFF;}
	.st86{clip-path:url(#SVGID_159_);fill-rule:evenodd;clip-rule:evenodd;fill:#FFA495;}
	.st87{clip-path:url(#SVGID_159_);fill-rule:evenodd;clip-rule:evenodd;fill:#193161;}
	.st88{clip-path:url(#SVGID_163_);fill:url(#SVGID_164_);}
	.st89{clip-path:url(#SVGID_166_);fill:url(#SVGID_167_);}
	.st90{opacity:0.3;clip-path:url(#SVGID_169_);}
	.st91{clip-path:url(#SVGID_171_);fill-rule:evenodd;clip-rule:evenodd;fill:#1E2353;}
	.st92{clip-path:url(#SVGID_173_);fill:url(#SVGID_174_);}
	.st93{clip-path:url(#SVGID_176_);fill:url(#SVGID_177_);}
	.st94{clip-path:url(#SVGID_179_);fill:url(#SVGID_180_);}
	.st95{clip-path:url(#SVGID_182_);fill-rule:evenodd;clip-rule:evenodd;fill:#FF8978;}
	.st96{clip-path:url(#SVGID_184_);fill:url(#SVGID_185_);}
	.st97{clip-path:url(#SVGID_187_);fill:url(#SVGID_188_);}
	.st98{opacity:0.35;clip-path:url(#SVGID_190_);}
	.st99{clip-path:url(#SVGID_192_);fill-rule:evenodd;clip-rule:evenodd;fill:#6266D7;}
	.st100{clip-path:url(#SVGID_190_);fill-rule:evenodd;clip-rule:evenodd;fill:#FFA698;}
	.st101{clip-path:url(#SVGID_194_);fill:url(#SVGID_195_);}
	.st102{clip-path:url(#SVGID_197_);fill:url(#SVGID_198_);}
	.st103{clip-path:url(#SVGID_200_);fill-rule:evenodd;clip-rule:evenodd;fill:#FFB49C;}
	.st104{clip-path:url(#SVGID_200_);fill-rule:evenodd;clip-rule:evenodd;fill:#FF9D8E;}
	.st105{clip-path:url(#SVGID_200_);fill-rule:evenodd;clip-rule:evenodd;fill:#726CDE;}
	.st106{clip-path:url(#SVGID_200_);fill-rule:evenodd;clip-rule:evenodd;fill:#562E65;}
	.st107{clip-path:url(#SVGID_202_);fill:url(#SVGID_203_);}
	.st108{clip-path:url(#SVGID_205_);fill:url(#SVGID_206_);}
	.st109{clip-path:url(#SVGID_208_);fill:url(#SVGID_209_);}
</style>
<g>
	<defs>
		<rect id="SVGID_1_" x="30.5" y="20.5" width="521.1" height="541.1"/>
	</defs>
	<clipPath id="SVGID_2_">
		<use xlink:href="#SVGID_1_"  style="overflow:visible;"/>
	</clipPath>
	<g class="st0">
		<defs>
			<rect id="SVGID_3_" x="30.5" y="20.5" width="521.1" height="541.1"/>
		</defs>
		<clipPath id="SVGID_4_">
			<use xlink:href="#SVGID_3_"  style="overflow:visible;"/>
		</clipPath>
		<path class="st1" d="M228.7,142.4c-0.3,0.2-0.7,0.3-1.2,0.5c-1.5,3.7-2.1,4.8-1.8,5.2c0.2,0.3,0.2,0.1,0.4,0.9
			c0.2,1-3.4,5.4-3.9,6.8c-0.5,1.3-0.6,2.4-0.1,3.7c0.8,2.3,2.1,4.5,3.8,6.5c1.4,1.6,3,2.6,4.3,2.3c1.7-0.4,1.4-1.9,1.1-3.4
			c-0.1-0.5-1.1-1.7-1-2.2c0.4-3,2.6-5.6,4.2-8.2c1.4-1.3,3.7-2.6,5-4.1c1.8-2.1,2.2-4.4-0.1-5.7c-0.7-0.4-2.6-2.5-3.5-2.4
			C234,142.5,231,141.1,228.7,142.4"/>
	</g>
	<g class="st0">
		<defs>
			<path id="SVGID_5_" d="M264.5,92.7c6.7,10.4,16.7,25.2,23.4,36.2c1.1,1.6,2.2,3.4,2.6,5c1.2,3.4,0.3,6.4-2.4,7.7c0,0,0,0-0.1,0.1
				c-0.1,0-0.2,0.1-0.3,0.1c-0.3,0.1-0.6,0.2-0.9,0.3c-3.3,1-8.1,1.8-11.1,2.4c-11.9,2.3-29.6,3.7-37.9,6.9
				c-3.3-2.4-4.2-6.8-2.1-9.5c9.1-4.3,21.3-9.9,26.5-11.8c1.2-0.4,2.7-0.6,4.3-0.7c-7.7-6.9-15.8-14.4-18.9-20.7
				c-2.2-4.5-2.6-10.8-4.1-14.7c12.5,3.7,14.9-3.9,17.2-6.5C262.6,90.1,262.6,89.6,264.5,92.7"/>
		</defs>
		<clipPath id="SVGID_6_">
			<use xlink:href="#SVGID_5_"  style="overflow:visible;"/>
		</clipPath>
		
			<linearGradient id="SVGID_7_" gradientUnits="userSpaceOnUse" x1="-418.4728" y1="1029.989" x2="-418.1069" y2="1029.989" gradientTransform="matrix(2.120920e-02 129.1827 -129.1827 2.120920e-02 133328.3438 54136.1172)">
			<stop  offset="0" style="stop-color:#324179"/>
			<stop  offset="1" style="stop-color:#0C124D"/>
		</linearGradient>
		<rect x="233.6" y="87.2" class="st2" width="58.2" height="64"/>
	</g>
	<g class="st0">
		<defs>
			<rect id="SVGID_8_" x="30.5" y="20.5" width="521.1" height="541.1"/>
		</defs>
		<clipPath id="SVGID_9_">
			<use xlink:href="#SVGID_8_"  style="overflow:visible;"/>
		</clipPath>
		<g class="st3">
			<g>
				<defs>
					<rect id="SVGID_10_" x="243.5" y="87.2" width="36.8" height="59.9"/>
				</defs>
				<clipPath id="SVGID_11_">
					<use xlink:href="#SVGID_10_"  style="overflow:visible;"/>
				</clipPath>
				<path class="st4" d="M249.8,135.2c2.4,4.2,5.2,7.6,5.9,12c2.6-0.3,18.7-2.4,24.6-3.7c-1.6-14.6-19.2-36.9-28.8-46.5l0.3-2.4
					c-2.1,0.4-4.9,0.2-8.4-0.8c1.6,3.9,1.9,10.2,4.1,14.7c3.1,6.4,11.3,13.8,18.9,20.7c-1.6,0.1-3.1,0.3-4.3,0.7
					C259.5,130.9,254.9,132.9,249.8,135.2 M263,90.4c-0.7-0.9-1.1-1.3-2.4-3.2c-0.6,0.7-1.2,1.8-2,2.8L263,90.4z"/>
			</g>
		</g>
		<path class="st5" d="M251.4,190.8c-1.8,2.4,3,14.6,4.1,17.2c1,2.3,0.7,3.7-1.7,3.7c-1.9,0-4.9-2.7-6.7-4.4
			c-3.4-3.3-3.6-6.6-4.6-8.1l-1.2-0.4c-0.9-0.5-3.4-3.8-3.5-5c0.3-0.8,0.8-2.3,1.3-3.4c1.9-3.5,2.3-1.9,4.7-4.1
			C246.6,188.3,244.6,189.2,251.4,190.8"/>
	</g>
	<g class="st0">
		<defs>
			<path id="SVGID_12_" d="M259.3,104c2.5,10.3,14.6,32.3,15.5,39.6c0.1,1.5-0.1,3-0.7,4.2c-0.1,0.3-0.2,0.7-0.3,1.1
				c-5.1,9.9-17.9,32.3-22.4,42.3c-4,0.8-8-1.5-8.4-4.6c2.9-9.5,7.6-25.3,9.9-30.3c1.5-3.3,4.4-7.7,7-11.1
				c-7.6-10.6-19.6-27.3-23.1-37.1c-4.7-13.3,0.7-20.9,8-25.1c1.3-0.7,2.6-0.5,3.8-0.3c1.2,0.2,2.2,0.4,2.9-0.4
				C254.7,88.4,257.5,96.6,259.3,104"/>
		</defs>
		<clipPath id="SVGID_13_">
			<use xlink:href="#SVGID_12_"  style="overflow:visible;"/>
		</clipPath>
		
			<linearGradient id="SVGID_14_" gradientUnits="userSpaceOnUse" x1="-419.5628" y1="1030.0885" x2="-419.1969" y2="1030.0885" gradientTransform="matrix(8.759319e-02 220.0534 -220.0534 8.759319e-02 226964.7812 92337.5234)">
			<stop  offset="0" style="stop-color:#324179"/>
			<stop  offset="1" style="stop-color:#0C124D"/>
		</linearGradient>
		<rect x="232.2" y="82.3" class="st6" width="42.8" height="109.8"/>
	</g>
	<g class="st0">
		<defs>
			<rect id="SVGID_15_" x="30.5" y="20.5" width="521.1" height="541.1"/>
		</defs>
		<clipPath id="SVGID_16_">
			<use xlink:href="#SVGID_15_"  style="overflow:visible;"/>
		</clipPath>
		<g class="st7">
			<g>
				<defs>
					<rect id="SVGID_17_" x="66.5" y="345" width="385.7" height="216.5"/>
				</defs>
				<clipPath id="SVGID_18_">
					<use xlink:href="#SVGID_17_"  style="overflow:visible;"/>
				</clipPath>
				<path class="st8" d="M70.4,544l349.3-196.5c4.4-2,10.9-3.9,15.2-1.3l11.1,6.8c2.2,1.4,9.5,5.9,4.6,8.5
					C436.2,369.4,113.6,551.8,99,559.7c-2.8,1.5-6.8,2-11.1,1.7c-4.2-0.4-8.6-1.5-12-3.6l-4.4-2.7c-3.1-1.9-4.9-4-5-6.1
					C66.4,547.1,67.7,545.3,70.4,544"/>
			</g>
		</g>
	</g>
	<g class="st0">
		<defs>
			<path id="SVGID_19_" d="M387.5,26.6l5.9,2.3C395.5,40,89,549.6,86.3,552.4l-5.3-2c-3.5-1.4-5.3-5-5.8-8.5l-44.5-304c0,0,0,0,0,0
				c-0.1-0.8-0.2-1.7-0.2-2.5v-0.1c0-4.3,1.5-8.6,3.8-12.1c1.5-2.3,3.5-4.4,5.9-5.7l339.4-190c1.5-0.9,3.3-1.4,5-1.4
				C385.5,26,386.5,26.2,387.5,26.6"/>
		</defs>
		<clipPath id="SVGID_20_">
			<use xlink:href="#SVGID_19_"  style="overflow:visible;"/>
		</clipPath>
		
			<linearGradient id="SVGID_21_" gradientUnits="userSpaceOnUse" x1="-420.8104" y1="1030.2784" x2="-420.4445" y2="1030.2784" gradientTransform="matrix(138.5466 840.8994 -840.8994 138.5466 924858.125 211302.3594)">
			<stop  offset="0" style="stop-color:#D1E8FF"/>
			<stop  offset="1" style="stop-color:#EAEFFF"/>
		</linearGradient>
		<polygon class="st9" points="-54,40 40.1,611 479.9,538.5 385.9,-32.5 		"/>
	</g>
	<g class="st0">
		<defs>
			<path id="SVGID_22_" d="M399.1,37.3l44.5,304c1.1,7.7-3.1,16.9-9.6,20.5l-339.4,190c-6.4,3.6-12.5,0.2-13.7-7.6l-44.5-304
				c-1.1-7.7,3.2-16.9,9.6-20.5l339.4-190c1.7-1,3.4-1.4,5-1.4C394.8,28.3,398.2,31.6,399.1,37.3"/>
		</defs>
		<clipPath id="SVGID_23_">
			<use xlink:href="#SVGID_22_"  style="overflow:visible;"/>
		</clipPath>
		
			<linearGradient id="SVGID_24_" gradientUnits="userSpaceOnUse" x1="-420.7497" y1="1030.2877" x2="-420.3838" y2="1030.2877" gradientTransform="matrix(323.3116 1035.7029 -1035.7029 323.3116 1203292.625 102790.8359)">
			<stop  offset="0" style="stop-color:#6D6AFE"/>
			<stop  offset="1" style="stop-color:#3FB0F7"/>
		</linearGradient>
		<polygon class="st10" points="-114.6,75.1 71.7,671.8 594.7,508.5 408.4,-88.2 		"/>
	</g>
	<g class="st0">
		<defs>
			<rect id="SVGID_25_" x="30.5" y="20.5" width="521.1" height="541.1"/>
		</defs>
		<clipPath id="SVGID_26_">
			<use xlink:href="#SVGID_25_"  style="overflow:visible;"/>
		</clipPath>
		<path class="st11" d="M46,219.7l339.4-190c6.4-3.6,12.5-0.1,13.7,7.6l1.5,10.3L38,250.5l-1.5-10.4C35.3,232.4,39.6,223.2,46,219.7
			"/>
		<path class="st12" d="M387.5,37.3c-2.6,0.6-4.6,3.7-4.4,6.8c0.1,3.2,2.3,5.3,4.9,4.7c2.6-0.6,4.6-3.7,4.4-6.8
			C392.3,38.8,390.1,36.7,387.5,37.3"/>
		<path class="st12" d="M375.8,44c-2.6,0.6-4.6,3.7-4.4,6.8c0.1,3.2,2.3,5.3,4.9,4.7c2.6-0.6,4.6-3.7,4.4-6.8
			C380.6,45.5,378.4,43.4,375.8,44"/>
		<path class="st12" d="M363.1,51.4c-2.6,0.6-4.6,3.7-4.4,6.8c0.1,3.2,2.3,5.3,4.9,4.7c2.6-0.6,4.5-3.7,4.4-6.8
			C367.9,52.9,365.7,50.8,363.1,51.4"/>
		<g class="st13">
			<g>
				<defs>
					<rect id="SVGID_27_" x="75.1" y="289.8" width="97.5" height="121.9"/>
				</defs>
				<clipPath id="SVGID_28_">
					<use xlink:href="#SVGID_27_"  style="overflow:visible;"/>
				</clipPath>
				<g class="st14">
					<defs>
						<path id="SVGID_29_" d="M87.3,325.1l61-33.5c3.5-2,7-2.2,9.9-1.1c3.7,1.4,6.5,5.2,7.3,10.7l6.9,49.6c1.4,9.7-3.9,21.3-12,25.7
							l-61,33.5c-8.1,4.5-15.8,0.2-17.2-9.5l-6.9-49.6C73.9,341.1,79.2,329.5,87.3,325.1"/>
					</defs>
					<clipPath id="SVGID_30_">
						<use xlink:href="#SVGID_29_"  style="overflow:visible;"/>
					</clipPath>
					
						<linearGradient id="SVGID_31_" gradientUnits="userSpaceOnUse" x1="-421.0171" y1="1031.9735" x2="-420.6512" y2="1031.9735" gradientTransform="matrix(-81.5959 -171.6078 171.6078 -81.5959 -211315.0938 12325.7783)">
						<stop  offset="0" style="stop-color:#965CF2"/>
						<stop  offset="1" style="stop-color:#FF8ADC"/>
					</linearGradient>
					<polygon class="st15" points="222.3,391.3 155.4,250.6 25.4,312.4 92.3,453.1 					"/>
				</g>
			</g>
		</g>
		<g class="st13">
			<g>
				<defs>
					<rect id="SVGID_32_" x="42.9" y="150.7" width="168" height="169.2"/>
				</defs>
				<clipPath id="SVGID_33_">
					<use xlink:href="#SVGID_32_"  style="overflow:visible;"/>
				</clipPath>
				<g class="st16">
					<defs>
						<path id="SVGID_34_" d="M176.6,150.7L42.9,215.9l3.5,3.6l12.8,89.7c1.3,9.2,8.3,13.3,15.6,9.1L200,246.7l10.9-24.2
							L176.6,150.7z"/>
					</defs>
					<clipPath id="SVGID_35_">
						<use xlink:href="#SVGID_34_"  style="overflow:visible;"/>
					</clipPath>
					
						<linearGradient id="SVGID_36_" gradientUnits="userSpaceOnUse" x1="-421.786" y1="1031.0891" x2="-421.4201" y2="1031.0891" gradientTransform="matrix(-151.1589 -220.8099 220.8099 -151.1589 -291290.5625 62980.7305)">
						<stop  offset="0" style="stop-color:#965CF2"/>
						<stop  offset="1" style="stop-color:#FF8ADC"/>
					</linearGradient>
					<polygon class="st17" points="290.9,267.6 157.3,72.4 -37.2,205.5 96.5,400.7 					"/>
				</g>
			</g>
		</g>
		<g class="st13">
			<g>
				<defs>
					<rect id="SVGID_37_" x="330.6" y="243.2" width="112.7" height="146.1"/>
				</defs>
				<clipPath id="SVGID_38_">
					<use xlink:href="#SVGID_37_"  style="overflow:visible;"/>
				</clipPath>
				<g class="st18">
					<defs>
						<path id="SVGID_39_" d="M344.4,289l82.6-45.8l2.8,4.2l13.6,92.4l-85.6,47.4c-9.1,5-17.7,0.2-19.3-10.7l-7.6-58.7
							C329.3,307,335.3,294.1,344.4,289"/>
					</defs>
					<clipPath id="SVGID_40_">
						<use xlink:href="#SVGID_39_"  style="overflow:visible;"/>
					</clipPath>
					
						<linearGradient id="SVGID_41_" gradientUnits="userSpaceOnUse" x1="-420.3644" y1="1029.7898" x2="-419.9985" y2="1029.7898" gradientTransform="matrix(-94.773 -206.7028 206.7028 -94.773 -252302.1719 11047.6533)">
						<stop  offset="0" style="stop-color:#965CF2"/>
						<stop  offset="1" style="stop-color:#FF8ADC"/>
					</linearGradient>
					<polygon class="st19" points="499.9,366.4 423.6,200 272.8,269.1 349.1,435.6 					"/>
				</g>
			</g>
		</g>
		<path class="st20" d="M348.1,309.3l9.9,64.9l-1.6,0.2l-4.3-1.7c-4.7-1.8-7.1-6.7-7.8-11.5L337,305c0,0,0,0,0,0
			c-1-6.9,1.1-14.1,4.9-19.9c2-3.1,4.7-6,8-7.8l171.3-94.9c3.3-1.9,7.1-2.5,10.7-1.2l3.8,1.5c1.9,0.7,2.5,1.3,2.5,1.4
			C536.3,200.6,345.6,292.3,348.1,309.3"/>
	</g>
	<g class="st0">
		<defs>
			<path id="SVGID_42_" d="M536.2,182.8c4,1.6,7,5.6,7.8,11.5l7.3,56.2c0.2,1.1,0.2,2.3,0.2,3.4v0.1c0,9.6-5.4,19.9-13.2,24.2
				l-171.3,94.9c-8.7,4.8-17,0.2-18.5-10.3l-7.3-56.2c-1.5-10.5,4.3-22.9,12.9-27.7L525.5,184c2.3-1.3,4.6-1.9,6.8-1.9
				C533.7,182.1,535,182.4,536.2,182.8"/>
		</defs>
		<clipPath id="SVGID_43_">
			<use xlink:href="#SVGID_42_"  style="overflow:visible;"/>
		</clipPath>
		
			<linearGradient id="SVGID_44_" gradientUnits="userSpaceOnUse" x1="-421.3477" y1="1032.666" x2="-420.9818" y2="1032.666" gradientTransform="matrix(37.5423 107.621 -107.621 37.5423 127393.5078 6837.1094)">
			<stop  offset="0" style="stop-color:#1C8EF4"/>
			<stop  offset="1" style="stop-color:#00CFDD"/>
		</linearGradient>
		<polygon class="st21" points="278.9,203.4 362.7,443.9 612.5,356.8 528.6,116.3 		"/>
	</g>
	<g class="st0">
		<defs>
			<rect id="SVGID_45_" x="30.5" y="20.5" width="521.1" height="541.1"/>
		</defs>
		<clipPath id="SVGID_46_">
			<use xlink:href="#SVGID_45_"  style="overflow:visible;"/>
		</clipPath>
		<g class="st22">
			<g>
				<defs>
					<rect id="SVGID_47_" x="353.1" y="231" width="133.6" height="103.1"/>
				</defs>
				<clipPath id="SVGID_48_">
					<use xlink:href="#SVGID_47_"  style="overflow:visible;"/>
				</clipPath>
				<path class="st23" d="M356.3,296.5c-2.1,1.2-3.5,4.1-3.1,6.6l0.7,3.9c0.4,2.5,2.3,3.6,4.4,2.5l118.2-65c2.1-1.2,3.5-4.1,3.1-6.6
					l-0.7-3.9c-0.2-1.4-0.9-2.4-1.9-2.7c-0.7-0.3-1.6-0.2-2.5,0.3L356.3,296.5 M481.6,279.8c0.9-0.5,1.8-0.6,2.5-0.3
					c1,0.4,1.7,1.3,1.9,2.7l0.7,3.9c0.4,2.5-1,5.5-3.1,6.6l-59.5,32c-2.1,1.2-4.1,0-4.4-2.5l-0.7-3.9c-0.4-2.5,1-5.5,3.1-6.6
					L481.6,279.8z M478,255.6c0.9-0.5,1.8-0.6,2.5-0.3c1,0.4,1.7,1.3,1.9,2.7l0.7,3.9c0.4,2.5-1,5.5-3.1,6.6l-118.2,65
					c-2.1,1.1-4.1,0-4.4-2.5l-0.7-3.9c-0.4-2.5,1-5.5,3.1-6.6L478,255.6z"/>
			</g>
		</g>
		<g class="st22">
			<g>
				<defs>
					<rect id="SVGID_49_" x="490.1" y="210" width="48.6" height="62.7"/>
				</defs>
				<clipPath id="SVGID_50_">
					<use xlink:href="#SVGID_49_"  style="overflow:visible;"/>
				</clipPath>
				<path class="st24" d="M512.2,230.3c-0.8,0.4-1.5,1-2.3,1.7c-2.8,2.7-4.6,7-4.6,11.2c0,8.1,5.9,12.2,11.4,9.1
					c0.8-0.4,1.5-1,2.3-1.7c2.8-2.7,4.6-7,4.6-11.2C523.7,231.4,517.8,227.2,512.2,230.3 M517.6,256.2c-7.5,4.2-15.4-1.5-15.4-12.3
					c0-5.6,2.4-11.4,6.2-15.1c1-1,2-1.7,3.1-2.3c7.5-4.2,15.5,1.5,15.4,12.3c-0.1,5.6-2.4,11.4-6.2,15.1
					C519.6,254.9,518.6,255.6,517.6,256.2 M492.6,246.6c1-0.6,1.7-1.8,1.8-3.2c0.1-0.9,0.1-1.8,0.3-2.6c0.2-1.4-0.3-2.6-1.2-3.1
					l-0.6-0.3c-1.2-0.6-1.6-2.5-0.9-4.2l2.7-6.5c0.3-0.8,0.9-1.5,1.5-1.8c0.6-0.3,1.3-0.4,1.9-0.1l0.6,0.3c0.6,0.3,1.2,0.3,1.8-0.1
					c0.4-0.2,0.7-0.5,1-0.9c0.5-0.7,1-1.3,1.6-1.9c0.9-0.9,1.3-2.4,1-3.6l-0.2-0.8c-0.4-1.6,0.4-3.5,1.7-4.3l5.1-2.8
					c1.3-0.7,2.7,0,3,1.6l0.2,0.8c0.3,1.2,1.1,2,2.2,1.9c0.7-0.1,1.3-0.1,2-0.1c0.4,0,0.8-0.1,1.1-0.3c0.6-0.3,1.1-1,1.5-1.8
					l0.4-0.9c0.3-0.8,0.9-1.5,1.5-1.8c0.6-0.3,1.3-0.4,1.9-0.1l4.6,2.5c1.2,0.6,1.6,2.5,0.9,4.2l-0.4,0.9c-0.5,1.3-0.4,2.7,0.3,3.6
					c0.4,0.6,0.8,1.2,1.2,1.8c0.6,1,1.6,1.3,2.6,0.7l0.7-0.4c1.3-0.7,2.7,0,3,1.6l1.4,6.4c0.3,1.6-0.4,3.5-1.7,4.2l-0.7,0.4
					c-1,0.6-1.7,1.8-1.8,3.2c-0.1,0.9-0.1,1.8-0.3,2.6c-0.2,1.4,0.3,2.6,1.2,3.1l0.6,0.3c1.2,0.6,1.6,2.5,0.9,4.1l-2.7,6.5
					c-0.3,0.8-0.9,1.5-1.5,1.8c-0.6,0.3-1.3,0.4-1.9,0.1l-0.6-0.3c-0.6-0.3-1.2-0.3-1.8,0.1c-0.4,0.2-0.7,0.5-1,0.9
					c-0.5,0.6-1,1.3-1.6,1.9c-0.9,1-1.3,2.4-1,3.7l0.2,0.8c0.3,1.6-0.4,3.5-1.7,4.3l-5.1,2.8c-1.3,0.7-2.7,0-3-1.6l-0.2-0.8
					c-0.3-1.2-1.1-2-2.2-1.9c-0.7,0.1-1.3,0.1-2,0.1c-0.4,0-0.8,0.1-1.1,0.3c-0.6,0.3-1.1,1-1.5,1.8l-0.4,0.8
					c-0.3,0.8-0.9,1.5-1.5,1.8c-0.6,0.3-1.3,0.4-1.9,0.1l-4.6-2.5c-1.2-0.6-1.6-2.5-0.9-4.1l0.4-0.9c0.5-1.3,0.4-2.7-0.3-3.6
					c-0.4-0.6-0.8-1.2-1.2-1.8c-0.6-1-1.6-1.3-2.6-0.7l-0.7,0.4c-1.3,0.7-2.7,0-3-1.6l-1.4-6.4c-0.4-1.6,0.4-3.5,1.7-4.3
					L492.6,246.6z"/>
			</g>
		</g>
		<g class="st22">
			<g>
				<defs>
					<rect id="SVGID_51_" x="353.6" y="56.7" width="63.6" height="126.3"/>
				</defs>
				<clipPath id="SVGID_52_">
					<use xlink:href="#SVGID_51_"  style="overflow:visible;"/>
				</clipPath>
				<g class="st25">
					<defs>
						<path id="SVGID_53_" d="M363.7,74.6l37-17.9l14.6,91.3l1.9,12.8l-38.4,20.7c-6.7,3.7-13.1,0.2-14.2-7.9l-10.7-77.8
							C352.6,87.8,357.1,78.3,363.7,74.6"/>
					</defs>
					<clipPath id="SVGID_54_">
						<use xlink:href="#SVGID_53_"  style="overflow:visible;"/>
					</clipPath>
					
						<linearGradient id="SVGID_55_" gradientUnits="userSpaceOnUse" x1="-421.739" y1="1029.4745" x2="-421.373" y2="1029.4745" gradientTransform="matrix(-76.7561 -256.7104 256.7104 -76.7561 -296254.2812 -29096.3652)">
						<stop  offset="0" style="stop-color:#965CF2"/>
						<stop  offset="1" style="stop-color:#FF8ADC"/>
					</linearGradient>
					<polygon class="st26" points="452.5,174.7 411.9,39 317.3,67.2 357.9,203 					"/>
				</g>
			</g>
		</g>
		<path class="st27" d="M368.2,96.3l11.5,74.4l-1.2,0.1l-3.3-1.3c-3.6-1.4-5.5-5.2-6-8.8l-9.5-67.8c0,0,0,0,0,0
			c-0.8-5.3,0.8-10.9,3.8-15.3c1.6-2.4,3.6-4.6,6.2-6l70.7-38.4c2.5-1.4,5.4-2,8.2-0.9l2.9,1.1c1.5,0.5,1.9,1,1.9,1.1
			C452,47.3,366.3,83.2,368.2,96.3"/>
	</g>
	<g class="st0">
		<defs>
			<path id="SVGID_56_" d="M451.9,33.6c3.1,1.2,5.4,4.3,6,8.8l9.5,67.8c1.2,8.1-3.3,17.6-9.9,21.3l-70.7,38.4
				c-6.7,3.7-13.1,0.2-14.2-7.9L363,94.3c-1.2-8.1,3.3-17.6,10-21.3l70.7-38.4c1.8-1,3.6-1.5,5.2-1.5C450,33.1,451,33.3,451.9,33.6"
				/>
		</defs>
		<clipPath id="SVGID_57_">
			<use xlink:href="#SVGID_56_"  style="overflow:visible;"/>
		</clipPath>
		
			<linearGradient id="SVGID_58_" gradientUnits="userSpaceOnUse" x1="-419.9406" y1="1031.3689" x2="-419.5747" y2="1031.3689" gradientTransform="matrix(87.491 287.3733 -287.3733 87.491 333529.625 30499.8867)">
			<stop  offset="0" style="stop-color:#6D6AFE"/>
			<stop  offset="1" style="stop-color:#3FB0F7"/>
		</linearGradient>
		<polygon class="st28" points="322.7,45 370.9,203.4 507.8,161.7 459.5,3.3 		"/>
	</g>
	<g class="st0">
		<defs>
			<rect id="SVGID_59_" x="30.5" y="20.5" width="521.1" height="541.1"/>
		</defs>
		<clipPath id="SVGID_60_">
			<use xlink:href="#SVGID_59_"  style="overflow:visible;"/>
		</clipPath>
		<path class="st29" d="M386.1,151.8c-1.6,0.9-2.7,3.2-2.4,5.2c0.3,2,1.9,2.9,3.6,2l71-38.1c1.6-0.9,2.7-3.2,2.4-5.2
			c-0.3-2-1.9-2.9-3.5-2.1L386.1,151.8 M453.9,93c1.6-0.9,3.2,0,3.5,2.1c0.3,2-0.8,4.3-2.4,5.2l-71,38.1c-1.6,0.9-3.2,0-3.6-2
			c-0.3-2,0.8-4.3,2.4-5.2L453.9,93z M375.6,84.4c-1.6,0.9-2.7,3.2-2.4,5.2l0.8,5c0.3,2,1.9,2.9,3.5,2l71-38.1
			c1.6-0.9,2.7-3.2,2.4-5.2l-0.8-5c-0.3-2-1.9-2.9-3.5-2L375.6,84.4 M450.7,72.6c1.6-0.9,3.2,0,3.5,2.1c0.3,2-0.8,4.2-2.4,5.1
			l-71,38.1c-1.6,0.9-3.2,0-3.5-2c-0.3-2,0.8-4.3,2.4-5.1L450.7,72.6z"/>
		<path class="st30" d="M90.5,348.2l8.4,51.8l-1.3,0.2l-3.6-1.4c-3.9-1.5-6-5.6-6.5-9.6l-6.2-44.6c0,0,0,0,0,0
			c-0.8-5.8,0.9-11.8,4.1-16.6c1.7-2.6,4-5,6.7-6.5l54.9-30.1c2.7-1.5,5.9-2.1,8.9-1l3.2,1.2c1.6,0.6,2.1,1.1,2.1,1.2
			C159.6,306.5,88.4,333.9,90.5,348.2"/>
		<path class="st31" d="M95.7,322.8l54.9-30.1c3.2-1.8,6.3-2,8.9-1c3.3,1.3,5.8,4.7,6.6,9.6l6.2,44.6c1.3,8.8-3.5,19.1-10.8,23.2
			l-54.9,30.1c-7.3,4-14.2,0.2-15.5-8.6L84.9,346C83.6,337.2,88.5,326.8,95.7,322.8"/>
	</g>
	<g class="st0">
		<defs>
			<path id="SVGID_61_" d="M116.5,334.3L92,364.5l0.9,7.7l27.9-2.2l-1.1-9.1l-19.4,2.5l17.3-20L116.5,334.3z M123.7,323.7
				c-0.2-0.2-0.4-0.4-0.8-0.4c-0.4,0-0.8,0.2-1.4,0.5c-0.9,0.6-1.5,1.2-1.9,2c-0.4,0.8-0.6,1.6-0.5,2.6c0.1,0.6,0.4,1.8,1,3.3
				l11.7,32.5c0.4,1.1,0.7,1.9,1,2.5c0.3,0.6,0.6,1,1.1,1.1c0.4,0.2,1,0.1,1.7-0.4c1.8-1.1,2.5-2.6,2.3-4.5c-0.1-0.5-0.4-1.6-1-3.4
				l-11.7-32.5C124.7,325.4,124.1,324.2,123.7,323.7 M164.3,319.7l-27.9,2.2l1.1,9.1l19.3-2.6l-17.2,20.2l1.1,9.1l24.6-30.2
				L164.3,319.7z"/>
		</defs>
		<clipPath id="SVGID_62_">
			<use xlink:href="#SVGID_61_"  style="overflow:visible;"/>
		</clipPath>
		
			<linearGradient id="SVGID_63_" gradientUnits="userSpaceOnUse" x1="-421.6928" y1="1035.6052" x2="-421.3269" y2="1035.6052" gradientTransform="matrix(-25.6682 -49.8537 49.8537 -25.6682 -62322.0039 5909.4351)">
			<stop  offset="0" style="stop-color:#965CF2"/>
			<stop  offset="1" style="stop-color:#FF8ADC"/>
		</linearGradient>
		<polygon class="st32" points="186.6,361.2 149.9,289.8 70.6,330.7 107.3,402 		"/>
	</g>
	<g class="st0">
		<defs>
			<rect id="SVGID_64_" x="30.5" y="20.5" width="521.1" height="541.1"/>
		</defs>
		<clipPath id="SVGID_65_">
			<use xlink:href="#SVGID_64_"  style="overflow:visible;"/>
		</clipPath>
		<path class="st33" d="M306,327.9c-1-6.7-6.1-9.7-11.5-6.6L215,366.1c-5.3,3.1-8.9,11.1-7.9,17.8l10.6,72c1,6.7,6.1,9.7,11.5,6.6
			l79.5-44.9c5.4-3.1,8.9-11.1,7.9-17.8L306,327.9z"/>
	</g>
	<g class="st0">
		<defs>
			<polygon id="SVGID_66_" points="296.3,401.3 241.7,432.5 249.7,389 263.2,403.6 268.6,362.9 			"/>
		</defs>
		<clipPath id="SVGID_67_">
			<use xlink:href="#SVGID_66_"  style="overflow:visible;"/>
		</clipPath>
		
			<linearGradient id="SVGID_68_" gradientUnits="userSpaceOnUse" x1="-421.7756" y1="1028.9603" x2="-421.4097" y2="1028.9603" gradientTransform="matrix(61.7561 96.077 -96.077 61.7561 125159.2422 -22649.5371)">
			<stop  offset="0" style="stop-color:#FF66BC"/>
			<stop  offset="0.56" style="stop-color:#FF8ADC"/>
			<stop  offset="1" style="stop-color:#FFBBA8"/>
		</linearGradient>
		<polygon class="st34" points="210,383.3 257.7,457.4 328,412.2 280.4,338.1 		"/>
	</g>
	<g class="st0">
		<defs>
			<rect id="SVGID_69_" x="30.5" y="20.5" width="521.1" height="541.1"/>
		</defs>
		<clipPath id="SVGID_70_">
			<use xlink:href="#SVGID_69_"  style="overflow:visible;"/>
		</clipPath>
		<path class="st35" d="M250.6,364.6c-3,0.6-5.2,4.1-5,7.8c0.2,3.7,2.8,6.2,5.8,5.6c3-0.6,5.2-4.1,5-7.8
			C256.2,366.5,253.6,364,250.6,364.6"/>
		<g class="st36">
			<g>
				<defs>
					<rect id="SVGID_71_" x="217.2" y="331.7" width="91.3" height="119.4"/>
				</defs>
				<clipPath id="SVGID_72_">
					<use xlink:href="#SVGID_71_"  style="overflow:visible;"/>
				</clipPath>
				<g class="st37">
					<defs>
						<path id="SVGID_73_" d="M299.5,338.2c-0.8-5.6-5.1-8.1-9.5-5.5L223.9,370c-4.4,2.6-7.4,9.2-6.6,14.8l8.8,59.8
							c0.8,5.6,5.1,8.1,9.5,5.5l66.1-37.3c4.4-2.6,7.4-9.2,6.6-14.8L299.5,338.2z"/>
					</defs>
					<clipPath id="SVGID_74_">
						<use xlink:href="#SVGID_73_"  style="overflow:visible;"/>
					</clipPath>
					
						<linearGradient id="SVGID_75_" gradientUnits="userSpaceOnUse" x1="-420.5291" y1="1029.2733" x2="-420.1632" y2="1029.2733" gradientTransform="matrix(161.0263 6.9148 -6.9148 161.0263 75071.2656 -162441.8281)">
						<stop  offset="0" style="stop-color:#FF66BC"/>
						<stop  offset="0.56" style="stop-color:#FF8ADC"/>
						<stop  offset="1" style="stop-color:#FFBBA8"/>
					</linearGradient>
					<polygon class="st38" points="211.3,452.5 309,456.6 314.4,330.4 216.7,326.2 					"/>
				</g>
			</g>
		</g>
		<path class="st39" d="M198.7,390.3c-1-6.7-6.1-9.7-11.5-6.6l-79.5,44.9c-5.3,3.1-8.9,11.1-7.9,17.8l10.6,72
			c1,6.7,6.1,9.7,11.5,6.6l79.5-44.9c5.4-3.1,8.9-11.1,7.9-17.8L198.7,390.3z"/>
	</g>
	<g class="st0">
		<defs>
			<polygon id="SVGID_76_" points="189,463.7 134.4,494.9 142.3,451.3 155.9,466 161.2,425.2 			"/>
		</defs>
		<clipPath id="SVGID_77_">
			<use xlink:href="#SVGID_76_"  style="overflow:visible;"/>
		</clipPath>
		
			<linearGradient id="SVGID_78_" gradientUnits="userSpaceOnUse" x1="-418.6818" y1="1034.1484" x2="-418.3159" y2="1034.1484" gradientTransform="matrix(-29.712 -81.653 81.653 -29.712 -96718 -2995.8704)">
			<stop  offset="0" style="stop-color:#965CF2"/>
			<stop  offset="1" style="stop-color:#FF8ADC"/>
		</linearGradient>
		<polygon class="st40" points="211.4,486.7 182.6,407.7 112,433.4 140.8,512.4 		"/>
	</g>
	<g class="st0">
		<defs>
			<rect id="SVGID_79_" x="30.5" y="20.5" width="521.1" height="541.1"/>
		</defs>
		<clipPath id="SVGID_80_">
			<use xlink:href="#SVGID_79_"  style="overflow:visible;"/>
		</clipPath>
		<path class="st41" d="M143.3,426.9c-3,0.6-5.2,4.1-5,7.8c0.2,3.7,2.8,6.2,5.8,5.6s5.2-4.1,5-7.8
			C148.8,428.8,146.2,426.3,143.3,426.9"/>
		<g class="st42">
			<g>
				<defs>
					<rect id="SVGID_81_" x="109.9" y="394" width="91.3" height="119.4"/>
				</defs>
				<clipPath id="SVGID_82_">
					<use xlink:href="#SVGID_81_"  style="overflow:visible;"/>
				</clipPath>
				<g class="st43">
					<defs>
						<path id="SVGID_83_" d="M192.2,400.6c-0.8-5.6-5.1-8.1-9.5-5.5l-66.1,37.3c-4.4,2.6-7.4,9.2-6.6,14.8l8.8,59.8
							c0.8,5.6,5.1,8.1,9.5,5.5l66.1-37.3c4.4-2.6,7.4-9.2,6.6-14.8L192.2,400.6z"/>
					</defs>
					<clipPath id="SVGID_84_">
						<use xlink:href="#SVGID_83_"  style="overflow:visible;"/>
					</clipPath>
					
						<linearGradient id="SVGID_85_" gradientUnits="userSpaceOnUse" x1="-419.398" y1="1031.4419" x2="-419.0321" y2="1031.4419" gradientTransform="matrix(10.8537 -203.4924 203.4924 10.8537 -205184.4062 -96060.4453)">
						<stop  offset="0" style="stop-color:#965CF2"/>
						<stop  offset="1" style="stop-color:#FF8ADC"/>
					</linearGradient>
					<polygon class="st44" points="201.5,520 208.3,392.8 109.5,387.6 102.7,514.7 					"/>
				</g>
			</g>
		</g>
	</g>
	<g class="st0">
		<defs>
			<path id="SVGID_86_" d="M303.5,20.5c5.6,0,11.3,2.6,15.5,7.9c7.1,4.2,3.7,13.8-2.7,23.9c-9.1,14.4,13,30.6-17.1,38.8
				c3.1-8.8-9.9-12-16.3-24c-7.4-13.8-3.3-27.7,6.2-39.6C292.8,22.9,298.1,20.5,303.5,20.5L303.5,20.5z"/>
		</defs>
		<clipPath id="SVGID_87_">
			<use xlink:href="#SVGID_86_"  style="overflow:visible;"/>
		</clipPath>
		
			<linearGradient id="SVGID_88_" gradientUnits="userSpaceOnUse" x1="-417.9095" y1="1030.4697" x2="-417.5436" y2="1030.4697" gradientTransform="matrix(-0.2065 145.911 -145.911 -0.2065 150572.9219 61216.5859)">
			<stop  offset="0" style="stop-color:#5A2D68"/>
			<stop  offset="1" style="stop-color:#22043D"/>
		</linearGradient>
		<polygon class="st45" points="275.5,20.4 275.4,91.1 329.1,91.2 329.2,20.5 		"/>
	</g>
	<g class="st0">
		<defs>
			<path id="SVGID_89_" d="M304.6,116.5c0.8,1.5,0.7,1.2,0.3,2.9l-1.7,6.5c-0.5,1.4-0.9,1.8-2.9,0.9c-1.1-0.5-0.8-2.8-0.4-4.5
				c0.3-1.8,0.1-3.4-0.1-4.1c-0.2-0.8-0.7-1.3-1.3-1.7c-1.2-1-2.6-1.6-1.7-4.7c0.5-1.6,0.3-2.8,0.4-4.5l4.2-0.3
				C301.2,110.8,302.9,113.3,304.6,116.5"/>
		</defs>
		<clipPath id="SVGID_90_">
			<use xlink:href="#SVGID_89_"  style="overflow:visible;"/>
		</clipPath>
		
			<linearGradient id="SVGID_91_" gradientUnits="userSpaceOnUse" x1="-438.3147" y1="1072.3881" x2="-437.9488" y2="1072.3881" gradientTransform="matrix(6.2572 -2.2232 2.2232 6.2572 658.0858 -7566.8618)">
			<stop  offset="0" style="stop-color:#FF8A78"/>
			<stop  offset="1" style="stop-color:#FFA799"/>
		</linearGradient>
		<polygon class="st46" points="297,130.7 312,125.4 304.4,104.1 289.4,109.4 		"/>
	</g>
	<g class="st0">
		<defs>
			<path id="SVGID_92_" d="M307.2,50.9c-0.1,6.2-5.8,19.5-7.1,25.2c0.5,4.2,2.2,25.2,1.6,28.9c-0.1,0.7-0.4,1.2-0.4,1.9
				c0,0.6,0.2,0.8,0.4,1.5c-1.6,0.2-3.3,0.5-4.9,0.8c-0.1-0.5-0.1-1.2-0.2-1.6c-0.3-0.8-1-1.2-1.3-1.9c-1.6-3.3-4.3-20.6-5-26.2
				c-0.1-0.5-0.2-1-0.2-1.7l0-0.2c0-0.3,0.1-0.6,0.1-0.9c1.1-7.1,3.2-19.1,4.9-25.3c1.3-5,4-6.9,6.5-6.9
				C304.6,44.7,307.3,47.4,307.2,50.9"/>
		</defs>
		<clipPath id="SVGID_93_">
			<use xlink:href="#SVGID_92_"  style="overflow:visible;"/>
		</clipPath>
		
			<linearGradient id="SVGID_94_" gradientUnits="userSpaceOnUse" x1="-423.7088" y1="1030.2822" x2="-423.3429" y2="1030.2822" gradientTransform="matrix(0.8736 -125.2879 125.2879 0.8736 -128413.2969 -53886.4727)">
			<stop  offset="0" style="stop-color:#965CF2"/>
			<stop  offset="1" style="stop-color:#FF8ADC"/>
		</linearGradient>
		<polygon class="st47" points="307.3,109.4 307.7,44.7 290,44.5 289.6,109.3 		"/>
	</g>
	<g class="st0">
		<defs>
			<rect id="SVGID_95_" x="30.5" y="20.5" width="521.1" height="541.1"/>
		</defs>
		<clipPath id="SVGID_96_">
			<use xlink:href="#SVGID_95_"  style="overflow:visible;"/>
		</clipPath>
		<g class="st48">
			<g>
				<defs>
					<rect id="SVGID_97_" x="289.9" y="50.6" width="17.3" height="34"/>
				</defs>
				<clipPath id="SVGID_98_">
					<use xlink:href="#SVGID_97_"  style="overflow:visible;"/>
				</clipPath>
				<path class="st49" d="M291.2,84.6c-0.6-1.5-1.3-6.2-1.3-8.3c0-4.3,1.6-7.9,2.2-10.7l15.1-15c-0.1,2.8-3.4,10.3-4.7,15.9
					C300.3,75.1,295.8,82.6,291.2,84.6"/>
			</g>
		</g>
	</g>
	<g class="st0">
		<defs>
			<path id="SVGID_99_" d="M306.5,53.1c-1.2,3-4.5,11.8-5.2,14.7c-1.6,6-4.9,9.1-8.7,10.5c-3.3,1.3-10.9,2.5-12.8,5.5
				c-3.4,3.5-5.9,6.2-7.9,8.1c-2.2,2.1-2.9,1.3-5.3,4c-10,2.2-20-3.3-22.2-10.4c0.8-9.7,12.5-23.6,21.2-30.5c3.2-2.6,7.7-5.6,11.9-6
				c2.7-0.3,4-0.5,6.1-0.9c3.5-0.7,10.6-2.3,13.8-3.7c1.3-0.8,2.7-1.2,4.1-1.2C305.5,43.4,309,46.8,306.5,53.1"/>
		</defs>
		<clipPath id="SVGID_100_">
			<use xlink:href="#SVGID_99_"  style="overflow:visible;"/>
		</clipPath>
		
			<linearGradient id="SVGID_101_" gradientUnits="userSpaceOnUse" x1="-424.2968" y1="1031.7996" x2="-423.9309" y2="1031.7996" gradientTransform="matrix(29.8983 -95.0892 95.0892 29.8983 -85156.3359 -71105.9219)">
			<stop  offset="0" style="stop-color:#965CF2"/>
			<stop  offset="1" style="stop-color:#FF8ADC"/>
		</linearGradient>
		<polygon class="st50" points="303.2,116.7 324.7,48.3 250.3,24.9 228.8,93.3 		"/>
	</g>
	<g class="st0">
		<defs>
			<path id="SVGID_102_" d="M301.1,50.3c-0.3,0.8-0.7,1.8-1.1,2.9c-0.2,0.4-0.5,1.5-0.7,2c-2.3,2.6-9.5-0.2-10.6-4
				c2.9-2.8,5-6.3,6-10.1L301.1,50.3z"/>
		</defs>
		<clipPath id="SVGID_103_">
			<use xlink:href="#SVGID_102_"  style="overflow:visible;"/>
		</clipPath>
		
			<linearGradient id="SVGID_104_" gradientUnits="userSpaceOnUse" x1="-393.3925" y1="1008.6591" x2="-393.0266" y2="1008.6591" gradientTransform="matrix(-7.5651 9.1968 -9.1968 -7.5651 6595.9595 11297.1396)">
			<stop  offset="0" style="stop-color:#FF8A78"/>
			<stop  offset="1" style="stop-color:#FFA799"/>
		</linearGradient>
		<polygon class="st51" points="293.8,35.1 280.6,51 296.1,63.8 309.3,47.8 		"/>
	</g>
	<g class="st0">
		<defs>
			<rect id="SVGID_105_" x="30.5" y="20.5" width="521.1" height="541.1"/>
		</defs>
		<clipPath id="SVGID_106_">
			<use xlink:href="#SVGID_105_"  style="overflow:visible;"/>
		</clipPath>
		<path class="st52" d="M315.8,36c-0.4,2.9-1.3,5.3-3.8,7.8c-0.6,0.6-0.9,1.1-1,1.7c-0.9,3.4-1.7,4.1-3.9,5.7
			c-2.1,1.5-3,2.6-4.2,2.7c-1.3,0.1-2.4-0.6-3.3-1.2c-1.9-1.4-4-5-5-7.5c-0.7-1.8-0.3-2.3,0.2-4c-0.5-3.2,1.6-3.4,2.4-3
			c2.1,1.1,0.7,3.4,1.4,4.8C305.8,44.8,313.4,38.2,315.8,36"/>
		<path class="st53" d="M315.8,36c-4.1,6.8-13,8.5-17.3,7.1C305.8,44.8,313.4,38.2,315.8,36"/>
		<g class="st54">
			<g>
				<defs>
					<rect id="SVGID_107_" x="268.3" y="52.2" width="17.5" height="42.1"/>
				</defs>
				<clipPath id="SVGID_108_">
					<use xlink:href="#SVGID_107_"  style="overflow:visible;"/>
				</clipPath>
				<path class="st55" d="M268.3,94.3c0.1,0,0.1,0,0.2,0c1.1-0.7,1.9-0.8,3.4-2.3c2-2,4.5-4.6,7.9-8.1c1-1.5,3.4-2.6,6-3.5
					c-0.4-7-0.2-23-2.5-25.1c-3.2-2.9-7.5-4.8-11.2-1C265.2,61.4,272.1,87.5,268.3,94.3"/>
			</g>
		</g>
		<polygon class="st56" points="278,103.7 282.4,87.3 279.4,84.6 251.9,100.1 254.4,102.9 266.4,110.9 		"/>
		<path class="st57" d="M282.4,87.3l2-6.4c-11.4,6.4-22.9,12.7-34.3,19.1l4.4,3L282.4,87.3z"/>
		<g class="st58">
			<g>
				<defs>
					<rect id="SVGID_109_" x="191.6" y="111" width="163.8" height="241.3"/>
				</defs>
				<clipPath id="SVGID_110_">
					<use xlink:href="#SVGID_109_"  style="overflow:visible;"/>
				</clipPath>
				<g class="st59">
					<defs>
						<path id="SVGID_111_" d="M338.6,126.2c-1.8-13.1-11.8-18.8-22.3-12.6L207.7,177c-10.5,6.2-17.6,21.9-15.8,35l16.6,125.3
							c1.8,13.1,11.8,18.8,22.3,12.6l108.6-63.4c10.5-6.2,17.6-21.9,15.8-35L338.6,126.2z"/>
					</defs>
					<clipPath id="SVGID_112_">
						<use xlink:href="#SVGID_111_"  style="overflow:visible;"/>
					</clipPath>
					
						<linearGradient id="SVGID_113_" gradientUnits="userSpaceOnUse" x1="-421.0137" y1="1030.4574" x2="-420.6478" y2="1030.4574" gradientTransform="matrix(145.6716 -573.0593 573.0593 145.6716 -528926.5 -391077.2812)">
						<stop  offset="0" style="stop-color:#965CF2"/>
						<stop  offset="1" style="stop-color:#FF8ADC"/>
					</linearGradient>
					<polygon class="st60" points="346.8,395.9 416.3,122.4 200.3,67.5 130.8,341 					"/>
				</g>
			</g>
		</g>
		<path class="st57" d="M334.8,125.4c-0.2-1.4-0.5-7.8-2.2-9.1c-2.3-1.7-6.5-4.3-7.7-4.6c-3.2-0.9-7-0.3-10.8,1.9l-101.5,58.8
			c-9.8,5.7-16.3,20.3-14.7,32.5l15.4,116.4c0.6,4.3,2.1,7.7,4.2,10.1c1.4,1.6,4.8,3.9,7.6,5.3c2.9,1.5,7-2.6,8.8-3.7l101.5-58.8
			c9.8-5.8,16.4-20.3,14.7-32.5L334.8,125.4z"/>
		<path class="st61" d="M338.3,127.9c-1.7-12.2-10.9-17.5-20.7-11.7l-100.9,58.9c-9.8,5.7-16.3,20.3-14.7,32.5l15.4,116.4
			c1.7,12.2,10.9,17.5,20.7,11.7L339,276.9c9.8-5.8,16.4-20.3,14.7-32.5L338.3,127.9z"/>
	</g>
	<g class="st0">
		<defs>
			<path id="SVGID_114_" d="M338.3,127.9l1.6,11.7l-136.3,79.6l-1.6-11.6c-1.7-12.2,4.9-26.8,14.7-32.5l100.9-58.9
				c2.7-1.6,5.3-2.3,7.8-2.3C331.9,113.9,337.1,119.1,338.3,127.9"/>
		</defs>
		<clipPath id="SVGID_115_">
			<use xlink:href="#SVGID_114_"  style="overflow:visible;"/>
		</clipPath>
		
			<linearGradient id="SVGID_116_" gradientUnits="userSpaceOnUse" x1="-418.3726" y1="1031.3462" x2="-418.0067" y2="1031.3462" gradientTransform="matrix(51.9653 73.8802 -73.8802 51.9653 98192.1641 -22539.5059)">
			<stop  offset="0" style="stop-color:#6D6AFE"/>
			<stop  offset="1" style="stop-color:#3FB0F7"/>
		</linearGradient>
		<polygon class="st62" points="150.8,148.8 246.6,284.9 389.5,184.4 293.7,48.2 		"/>
	</g>
	<g class="st0">
		<defs>
			<rect id="SVGID_117_" x="30.5" y="20.5" width="521.1" height="541.1"/>
		</defs>
		<clipPath id="SVGID_118_">
			<use xlink:href="#SVGID_117_"  style="overflow:visible;"/>
		</clipPath>
		<path class="st63" d="M322.1,128.4c-2.2,0.5-3.9,3.2-3.8,5.9c0.1,2.8,2,4.6,4.3,4c2.2-0.5,3.9-3.2,3.8-5.9
			C326.2,129.7,324.3,127.9,322.1,128.4"/>
		<path class="st63" d="M310.2,135.8c-2.2,0.5-3.9,3.2-3.8,5.9c0.1,2.8,2,4.6,4.3,4c2.2-0.5,3.9-3.2,3.8-5.9
			C314.4,137.1,312.5,135.3,310.2,135.8"/>
		<path class="st63" d="M298.4,143.2c-2.2,0.5-3.9,3.2-3.8,5.9c0.1,2.8,2,4.6,4.3,4c2.2-0.5,3.9-3.2,3.8-5.9
			C302.5,144.5,300.6,142.7,298.4,143.2"/>
		<g class="st64">
			<g>
				<defs>
					<rect id="SVGID_119_" x="299.3" y="162.3" width="37.4" height="47.1"/>
				</defs>
				<clipPath id="SVGID_120_">
					<use xlink:href="#SVGID_119_"  style="overflow:visible;"/>
				</clipPath>
				<g class="st65">
					<defs>
						<path id="SVGID_121_" d="M316.9,162.8c-10.3,2.4-18.2,14.8-17.6,27.6c0.6,12.8,9.4,21.2,19.7,18.7
							c10.3-2.4,18.2-14.8,17.6-27.6C336.1,168.7,327.2,160.3,316.9,162.8"/>
					</defs>
					<clipPath id="SVGID_122_">
						<use xlink:href="#SVGID_121_"  style="overflow:visible;"/>
					</clipPath>
					
						<linearGradient id="SVGID_123_" gradientUnits="userSpaceOnUse" x1="-414.7607" y1="1037.179" x2="-414.3948" y2="1037.179" gradientTransform="matrix(12.1414 17.1782 -17.1782 12.1414 23167.127 -5287.0479)">
						<stop  offset="0" style="stop-color:#6D6AFE"/>
						<stop  offset="1" style="stop-color:#3FB0F7"/>
					</linearGradient>
					<polygon class="st66" points="274.6,177.4 311.6,229.7 361.4,194.5 324.4,142.2 					"/>
				</g>
			</g>
		</g>
	</g>
	<g class="st0">
		<defs>
			<path id="SVGID_124_" d="M328.1,183.5c0.3,6.9-3.9,13.5-9.5,14.9c-5.6,1.3-10.3-3.2-10.6-10.1c-0.3-6.9,3.9-13.5,9.5-14.9
				c0.6-0.2,1.3-0.2,1.9-0.2C324,173.2,327.8,177.4,328.1,183.5"/>
		</defs>
		<clipPath id="SVGID_125_">
			<use xlink:href="#SVGID_124_"  style="overflow:visible;"/>
		</clipPath>
		
			<linearGradient id="SVGID_126_" gradientUnits="userSpaceOnUse" x1="-419.1628" y1="1034.0875" x2="-418.7968" y2="1034.0875" gradientTransform="matrix(37.209 28.2137 -28.2137 37.209 45082.5742 -26470.3965)">
			<stop  offset="0" style="stop-color:#6D6AFE"/>
			<stop  offset="1" style="stop-color:#3FB0F7"/>
		</linearGradient>
		<polygon class="st67" points="294.9,190 320.8,209.7 341.2,182.9 315.2,163.2 		"/>
	</g>
	<g class="st0">
		<defs>
			<rect id="SVGID_127_" x="30.5" y="20.5" width="521.1" height="541.1"/>
		</defs>
		<clipPath id="SVGID_128_">
			<use xlink:href="#SVGID_127_"  style="overflow:visible;"/>
		</clipPath>
		<g class="st68">
			<g>
				<defs>
					<rect id="SVGID_129_" x="219.3" y="184.5" width="74.7" height="54.3"/>
				</defs>
				<clipPath id="SVGID_130_">
					<use xlink:href="#SVGID_129_"  style="overflow:visible;"/>
				</clipPath>
				<path class="st69" d="M293.2,187.6c-0.4-2.7-2.4-3.9-4.6-2.5l-66,38c-2.2,1.3-3.6,4.6-3.3,7.3l0.7,5.4c0.4,2.7,2.4,3.9,4.6,2.5
					l66-38c2.2-1.3,3.6-4.6,3.3-7.3L293.2,187.6z"/>
			</g>
		</g>
		<g class="st68">
			<g>
				<defs>
					<rect id="SVGID_131_" x="252.2" y="205.5" width="44.1" height="32.1"/>
				</defs>
				<clipPath id="SVGID_132_">
					<use xlink:href="#SVGID_131_"  style="overflow:visible;"/>
				</clipPath>
				<path class="st70" d="M295.8,207.3c-0.2-1.6-1.4-2.3-2.7-1.5l-39,22.5c-1.3,0.8-2.1,2.7-1.9,4.3l0.4,3.2
					c0.2,1.6,1.4,2.3,2.7,1.5l39-22.5c1.3-0.8,2.1-2.7,1.9-4.3L295.8,207.3z"/>
			</g>
		</g>
		<g class="st68">
			<g>
				<defs>
					<rect id="SVGID_133_" x="220.1" y="210.1" width="120.1" height="75.9"/>
				</defs>
				<clipPath id="SVGID_134_">
					<use xlink:href="#SVGID_133_"  style="overflow:visible;"/>
				</clipPath>
				<path class="st71" d="M339.8,212.4c-0.3-2-1.8-2.8-3.3-1.8l-113.9,65.4c-1.6,1-2.6,3.3-2.4,5.3l0.4,2.6c0.3,2,1.8,2.8,3.3,1.8
					l113.9-65.4c1.6-1,2.6-3.3,2.4-5.3L339.8,212.4z"/>
			</g>
		</g>
		<g class="st68">
			<g>
				<defs>
					<rect id="SVGID_135_" x="222.5" y="229.3" width="120.1" height="75.9"/>
				</defs>
				<clipPath id="SVGID_136_">
					<use xlink:href="#SVGID_135_"  style="overflow:visible;"/>
				</clipPath>
				<path class="st72" d="M342.2,231.5c-0.3-2-1.8-2.8-3.3-1.8l-113.9,65.4c-1.6,1-2.6,3.3-2.4,5.3l0.4,2.6c0.3,2,1.8,2.8,3.3,1.8
					l113.9-65.4c1.6-1,2.6-3.3,2.4-5.3L342.2,231.5z"/>
			</g>
		</g>
		<g class="st68">
			<g>
				<defs>
					<rect id="SVGID_137_" x="225" y="247.6" width="120.1" height="75.9"/>
				</defs>
				<clipPath id="SVGID_138_">
					<use xlink:href="#SVGID_137_"  style="overflow:visible;"/>
				</clipPath>
				<path class="st73" d="M344.7,249.8c-0.3-2-1.8-2.8-3.3-1.8l-113.9,65.4c-1.6,1-2.6,3.3-2.4,5.3l0.4,2.6c0.3,2,1.8,2.8,3.3,1.8
					l113.9-65.4c1.6-1,2.6-3.3,2.4-5.3L344.7,249.8z"/>
			</g>
		</g>
		<path class="st74" d="M197.5,114.8c-0.4-2.5,1.3-4.5,0.2-6.2c-1.2-1.8-5.2-3.1-7-3.7c-2.5-0.9-5.4-0.6-8.4,1.1L61.2,175.3
			c-7.1,4-11.8,14.6-10.5,23.5l13.6,95.1c0.6,4.4,2.6,7.5,5.2,9.2c1.6,1,6.1,2.9,8.1,2.6c1.4-0.2,0.3-2.2,1.8-3l121.2-69.3
			c7.1-4.1,11.8-14.6,10.5-23.5L197.5,114.8z"/>
	</g>
	<g class="st0">
		<defs>
			<path id="SVGID_139_" d="M201.1,116.3l13.6,95.1c1.3,8.9-3.4,19.4-10.5,23.5L83,304.1c-7.1,4-13.9,0.1-15.1-8.8l-13.6-95.1
				c-1.3-8.9,3.4-19.4,10.5-23.5L186,107.5c1.9-1.1,3.8-1.6,5.5-1.6C196.3,105.9,200.2,109.7,201.1,116.3"/>
		</defs>
		<clipPath id="SVGID_140_">
			<use xlink:href="#SVGID_139_"  style="overflow:visible;"/>
		</clipPath>
		
			<linearGradient id="SVGID_141_" gradientUnits="userSpaceOnUse" x1="-419.6262" y1="1029.2297" x2="-419.2603" y2="1029.2297" gradientTransform="matrix(54.9251 183.0817 -183.0817 54.9251 211606.4062 20471.5469)">
			<stop  offset="0" style="stop-color:#6D6AFE"/>
			<stop  offset="1" style="stop-color:#3FB0F7"/>
		</linearGradient>
		<polygon class="st75" points="-2.7,122.6 66.5,353 271.7,291.5 202.5,61 		"/>
	</g>
	<g class="st0">
		<defs>
			<rect id="SVGID_142_" x="30.5" y="20.5" width="521.1" height="541.1"/>
		</defs>
		<clipPath id="SVGID_143_">
			<use xlink:href="#SVGID_142_"  style="overflow:visible;"/>
		</clipPath>
		<path class="st76" d="M210.5,215.7c-0.1-0.8-0.7-1.1-1.3-0.7L74.8,292c-0.6,0.4-1,1.3-0.9,2.1l0.4,2.3c0.1,0.8,0.7,1.1,1.3,0.7
			L210,220.1c0.6-0.4,1-1.3,0.9-2.1L210.5,215.7z"/>
		<path class="st77" d="M210.5,215.8c-0.1-0.7-0.7-1.1-1.3-0.7L155,246.2c-0.6,0.4-1,1.2-0.9,2l0.3,2.3c0.1,0.7,0.7,1.1,1.3,0.7
			l54.2-31.1c0.6-0.4,1-1.2,0.9-2L210.5,215.8z"/>
	</g>
	<g class="st0">
		<defs>
			<path id="SVGID_144_" d="M157.3,170l5,35.5c0.3,2.1-0.8,4.6-2.5,5.6l-37.3,21.3c-1.7,1-3.3,0-3.6-2.1l-5-35.5
				c-0.3-2.1,0.8-4.6,2.5-5.6l37.3-21.3c0.4-0.3,0.9-0.4,1.3-0.4C156.2,167.6,157.1,168.5,157.3,170"/>
		</defs>
		<clipPath id="SVGID_145_">
			<use xlink:href="#SVGID_144_"  style="overflow:visible;"/>
		</clipPath>
		
			<linearGradient id="SVGID_146_" gradientUnits="userSpaceOnUse" x1="-423.7046" y1="1032.858" x2="-423.3387" y2="1032.858" gradientTransform="matrix(-25.2027 -77.4996 77.4996 -25.2027 -90583.7344 -6597.3345)">
			<stop  offset="0" style="stop-color:#965CF2"/>
			<stop  offset="1" style="stop-color:#FF8ADC"/>
		</linearGradient>
		<polygon class="st78" points="182,227.1 158,153.1 94.2,173.9 118.3,247.9 		"/>
	</g>
	<g class="st0">
		<defs>
			<path id="SVGID_147_" d="M149.8,193.5c1.2,8.1-3.1,17.7-9.6,21.4c-6.5,3.7-12.6,0.1-13.8-8c-1.2-8.1,3.1-17.7,9.6-21.4
				c1.7-1,3.4-1.5,5-1.5C145.4,184,149,187.6,149.8,193.5"/>
		</defs>
		<clipPath id="SVGID_148_">
			<use xlink:href="#SVGID_147_"  style="overflow:visible;"/>
		</clipPath>
		
			<linearGradient id="SVGID_149_" gradientUnits="userSpaceOnUse" x1="-426.6816" y1="1033.6318" x2="-426.3158" y2="1033.6318" gradientTransform="matrix(-22.9706 -39.1229 39.1229 -22.9706 -50097.8789 7257.8672)">
			<stop  offset="0" style="stop-color:#6D6AFE"/>
			<stop  offset="1" style="stop-color:#3FB0F7"/>
		</linearGradient>
		<polygon class="st79" points="166.1,209.8 144.4,172.8 110.2,192.9 131.9,229.8 		"/>
	</g>
	<g class="st0">
		<defs>
			<rect id="SVGID_150_" x="30.5" y="20.5" width="521.1" height="541.1"/>
		</defs>
		<clipPath id="SVGID_151_">
			<use xlink:href="#SVGID_150_"  style="overflow:visible;"/>
		</clipPath>
		<polygon class="st80" points="142,189.4 144.1,204.1 131.6,204.5 		"/>
	</g>
	<g class="st0">
		<defs>
			<path id="SVGID_152_" d="M294.5,116.6c0.5,0.6,0.4,4.5,0.6,5.7c0.2,1.2,1.2,2.5,2.5,4c1.2,1.4,0.6,6.4-0.3,7.1
				c-0.4,0.3-7.4-5.9-7.7-6.4c-0.6-1.2-1.4-3.9-1.6-5.3c-0.3-1.8,0.2-5.7-0.8-7.4l4.5-1.1C292.1,114.8,293.3,115.3,294.5,116.6"/>
		</defs>
		<clipPath id="SVGID_153_">
			<use xlink:href="#SVGID_152_"  style="overflow:visible;"/>
		</clipPath>
		
			<linearGradient id="SVGID_154_" gradientUnits="userSpaceOnUse" x1="-442.0242" y1="1075.7878" x2="-441.6583" y2="1075.7878" gradientTransform="matrix(5.237 -2.4214 2.4214 5.237 0.8063 -6579.9023)">
			<stop  offset="0" style="stop-color:#FF8A78"/>
			<stop  offset="1" style="stop-color:#FFA799"/>
		</linearGradient>
		<polygon class="st81" points="289.2,138.1 306.6,130.1 296.7,108.7 279.3,116.8 		"/>
	</g>
	<g class="st0">
		<defs>
			<path id="SVGID_155_" d="M279.4,52.4c2.1,0.6,4.5,2.1,4.8,4.9c0.4,3.3-0.1,8.7-0.4,14.2c-0.2,4.4-0.2,12.4-0.4,15.6
				c0,0.1,0.1,0.2,0.1,0.3c2.2,4.3,7.2,18.3,8.2,22.8c0.2,0.8,0,1.6,0,2.1c0,0.4,0.2,1,0.5,1.7c-1.5,1.3-2.9,1.9-4.6,2.4
				c-0.2-0.5-0.7-1.3-0.9-1.7c-0.3-0.4-1.6-0.9-2.2-1.5c-2.8-3.3-10.1-18.6-11-22.6c0-0.1,0-0.1,0-0.2c-0.1-0.4-0.2-0.8-0.3-1.2
				c-1.8-7.6-3.7-20.5-3.4-28c0.2-4.9,2.2-9.1,7-9.1C277.5,52,278.4,52.2,279.4,52.4"/>
		</defs>
		<clipPath id="SVGID_156_">
			<use xlink:href="#SVGID_155_"  style="overflow:visible;"/>
		</clipPath>
		
			<linearGradient id="SVGID_157_" gradientUnits="userSpaceOnUse" x1="-423.7041" y1="1030.7771" x2="-423.3383" y2="1030.7771" gradientTransform="matrix(11.1223 -119.6357 119.6357 11.1223 -118326.3281 -62049.3359)">
			<stop  offset="0" style="stop-color:#965CF2"/>
			<stop  offset="1" style="stop-color:#FF8ADC"/>
		</linearGradient>
		<polygon class="st82" points="292,118.5 298.2,52.6 269.7,49.9 263.6,115.8 		"/>
	</g>
	<g class="st0">
		<defs>
			<rect id="SVGID_158_" x="30.5" y="20.5" width="521.1" height="541.1"/>
		</defs>
		<clipPath id="SVGID_159_">
			<use xlink:href="#SVGID_158_"  style="overflow:visible;"/>
		</clipPath>
		<g class="st83">
			<g>
				<defs>
					<rect id="SVGID_160_" x="265.8" y="441.8" width="120.8" height="67"/>
				</defs>
				<clipPath id="SVGID_161_">
					<use xlink:href="#SVGID_160_"  style="overflow:visible;"/>
				</clipPath>
				<path class="st84" d="M380.8,480.2l-61-34.7c-6.7-3-16.2-5.5-22.9-1.9c-6.2,3.2-16.3,9.8-20.8,12.4c-3.4,1.9-15.3,9.1-7.9,13.1
					c21.7,11.8,43.2,25.1,65.3,37.1c4.2,2.3,10.3,3.1,16.7,2.6c6.4-0.5,12.9-2.4,18.1-5.4c3.7-2.1,7.3-4.2,10.8-6.3
					c4.8-2.8,7.3-6.1,7.6-9.1C386.8,484.9,384.9,482.1,380.8,480.2"/>
			</g>
		</g>
		<path class="st85" d="M358.3,478.4c-1.2,0-5.2-3.8-9-1.9c-4.6,2.3-13.3,0.3-17.7,1.3c-0.8,0.2-2.3-0.4-2.6,0.1
			c-0.9,1.7-1.9,4.2,0.5,5.8c1.7,1.2,5.4,2.8,7.8,3.7c2.5,0.9,6.9,2.3,9.8,2.8c3.2,0.5,4.7,0.7,5.9,1.7c1.7,0.9,3.5,1.2,4.5,1.1
			c2.1-0.3,4.6-1.6,5.8-4c0.4-0.8,0.4-4.2,0-6.4c-0.3-1.7-1.3-3.7-2-5.6L358.3,478.4z"/>
		<path class="st86" d="M349,470.2c1.4,3.5,1,8.9,4.4,10.7c2.3,1.2,5.9,1.3,7.5-2.3c0.9-2-0.3-5.4,0-9.8L349,470.2z"/>
		<path class="st87" d="M348,475.6c-2.6,0.8-9.9,0.3-14.5,0.6c-2,0.2-3.7,0.1-4.7,1.9c-0.8,1.6-0.4,3.1,1.5,4.4
			c1.7,1.2,4.6,2.6,7,3.4c2.5,0.9,6.9,2.3,9.8,2.8c3.2,0.5,4.7,0.7,5.9,1.7c1.7,0.9,3.5,1.2,4.5,1.1c2.1-0.3,4.6-1.8,5.8-4.3
			c0.4-0.8,0.4-3.9,0-6.1c-0.1-0.4-0.2-0.9-0.3-1.3c-0.4-3.5-1.5-4.9-2.6-4.3c-1.5,0.8-2,2.3-2.6,3.5c-0.5,1-1.2,1.7-2,1.9
			c-1.8,0.6-3.4-0.4-4.4-1.9c-0.6-1-0.9-2.2-1.2-3.5c0-0.1,0-0.2,0-0.4c-0.3-3-1.8-2.8-1.6-2.1C348.9,473.7,348.8,475,348,475.6"/>
		<path class="st85" d="M329.8,477.7c0,1.2-1.8,1.3-1.2,3.3c-0.9-0.8,0.3-3.3,0.9-3.6C329.6,477.2,329.8,477.2,329.8,477.7"/>
		<path class="st85" d="M328.4,466.4c-1.1-0.4-3.6-5.4-7.8-4.9c-1.7,0.2-4.5-0.3-7.2-1c-4.4-1.3-10.6-5.2-11.7-4.6
			c-2.3,1.4-2.5,4-0.9,6.3c1.2,1.7,3.4,4,5.4,5.6c2.1,1.7,5,4.4,7.6,5.8c2.4,1.4,3.3,1.2,5,3.6c1.3,1.4,2.9,2.3,3.9,2.5
			c2.5,0.5,6.2-1.1,7.6-2.8c0.8-2.7,2.3-5.3,1.4-9.4L328.4,466.4z"/>
		<path class="st86" d="M322.5,454.8c0.1,3.8-2.3,8.6,0.2,11.6c1.7,2,5,3.3,7.8,0.6c1.5-1.5,1.7-5.1,3.6-9.1L322.5,454.8z"/>
		<path class="st87" d="M314.5,459.4c-0.3-0.1-0.5-0.1-0.8-0.2c-4.4-1.3-10.4-4.3-11.5-3.7c-2.3,1.4-2.7,3.1-1.1,5.4
			c1.2,1.7,3.4,4,5.4,5.6c2.1,1.7,5,4.4,7.6,5.8c2.4,1.4,3.3,1.2,5,3.6c1.3,1.4,2.9,2.3,3.9,2.5c2.5,0.5,6.3-1.2,7.7-2.9
			c0.6-2,1.5-4,1.6-6.5c0.4-3.4,0.1-5.1-1.3-5c-2.7,0.1-3.8,1.5-5,2.2c-2.4,1.5-4-0.4-4.4-2.8c-0.1-1,0-2.1,0.2-3.2
			c0-0.1,0.1-0.2,0.1-0.3c0.8-2.9-0.7-3.2-0.7-2.6c-0.1,1.5-1,2.4-2.2,2.6C317.5,460.1,315.7,459.5,314.5,459.4"/>
		<path class="st85" d="M302.5,455.8c-0.5,1.1-2.1,0.4-2.6,2.5c-0.4-1.1,1.7-2.8,2.4-2.9C302.6,455.4,302.8,455.4,302.5,455.8"/>
	</g>
	<g class="st0">
		<defs>
			<path id="SVGID_162_" d="M347,370.8c-3.5,10.9-7.6,26.6-8.5,32.7c2.2,5.6,2.6,15.9,1.3,24.4c-1.2,7.6-4.1,19.5-6.2,33.2
				c-2.6,4.1-11.4,0.7-11.8-5.7c0-15.3,0.7-32.7-1.6-47.1c-1.5-9.6,3.9-44.4,4.9-55.4l22.9-11.5C355.4,354.1,348.3,366.8,347,370.8"
				/>
		</defs>
		<clipPath id="SVGID_163_">
			<use xlink:href="#SVGID_162_"  style="overflow:visible;"/>
		</clipPath>
		
			<linearGradient id="SVGID_164_" gradientUnits="userSpaceOnUse" x1="-421.8192" y1="1030.5599" x2="-421.4533" y2="1030.5599" gradientTransform="matrix(38.7314 185.2983 -185.2983 38.7314 207628.3594 38615.5117)">
			<stop  offset="0" style="stop-color:#40457F"/>
			<stop  offset="1" style="stop-color:#1E2353"/>
		</linearGradient>
		<polygon class="st88" points="293.9,346.7 320.2,472.5 380.1,460 353.8,334.1 		"/>
	</g>
	<g class="st0">
		<defs>
			<path id="SVGID_165_" d="M334.1,458.1c-0.2,1-0.4,2-0.5,3c-2.6,4.1-11.5,0.6-11.9-5.8c0-1.1,0-2.8,0-4
				C323.9,457,330.6,461.8,334.1,458.1"/>
		</defs>
		<clipPath id="SVGID_166_">
			<use xlink:href="#SVGID_165_"  style="overflow:visible;"/>
		</clipPath>
		
			<linearGradient id="SVGID_167_" gradientUnits="userSpaceOnUse" x1="-431.5898" y1="1025.95" x2="-431.2239" y2="1025.95" gradientTransform="matrix(14.5442 20.8669 -20.8669 14.5442 28011.252 -5460.4653)">
			<stop  offset="0" style="stop-color:#3773B9"/>
			<stop  offset="1" style="stop-color:#003C76"/>
		</linearGradient>
		<polygon class="st89" points="315.1,455.9 325.7,471 340.6,460.7 330,445.5 		"/>
	</g>
	<g class="st0">
		<defs>
			<rect id="SVGID_168_" x="30.5" y="20.5" width="521.1" height="541.1"/>
		</defs>
		<clipPath id="SVGID_169_">
			<use xlink:href="#SVGID_168_"  style="overflow:visible;"/>
		</clipPath>
		<g class="st90">
			<g>
				<defs>
					<rect id="SVGID_170_" x="319.9" y="355.9" width="22.5" height="94.2"/>
				</defs>
				<clipPath id="SVGID_171_">
					<use xlink:href="#SVGID_170_"  style="overflow:visible;"/>
				</clipPath>
				<path class="st91" d="M319.9,401.9c2.9,14.4,11,33.7,15.5,48.2c2.3-12.4,8.1-33.6,3.1-46.6c0.5-3.5,2.1-10.1,4-17.1
					c-3.9-7.3-0.2-13.1-2-23.4c-10.2-1.8,5.2-14.2-16.4-1.1C322.2,377.4,320.3,387.1,319.9,401.9"/>
			</g>
		</g>
	</g>
	<g class="st0">
		<defs>
			<path id="SVGID_172_" d="M337.9,378.2c1.5,8.8,3.4,25.1,5,31.1c2,2.6,7.5,11.4,9,15.1c4.9,12,7.7,33.1,10,46.7
				c0,4-10.6,4.5-13.6,0.2c-5.8-16.3-16.6-42.5-22.5-55.8c-11-24.9-18.1-37-17.1-65.8c6.4,3.6,20.5,1.6,25.1-1.7
				C345.1,358.7,339.2,370.9,337.9,378.2"/>
		</defs>
		<clipPath id="SVGID_173_">
			<use xlink:href="#SVGID_172_"  style="overflow:visible;"/>
		</clipPath>
		
			<linearGradient id="SVGID_174_" gradientUnits="userSpaceOnUse" x1="-421.7038" y1="1030.1644" x2="-421.3379" y2="1030.1644" gradientTransform="matrix(132.0807 180.1425 -180.1425 132.0807 241586.6406 -59718.2109)">
			<stop  offset="0" style="stop-color:#40457F"/>
			<stop  offset="1" style="stop-color:#1E2353"/>
		</linearGradient>
		<polygon class="st92" points="246.9,392.7 326.7,501.5 422.8,431.1 343,322.3 		"/>
	</g>
	<g class="st0">
		<defs>
			<path id="SVGID_175_" d="M361.8,469.1c0.1,0.7,0.2,1.4,0.4,2.1c0,4.2-10.9,4.6-14,0.2c-0.2-0.7-0.8-2.1-1-2.8
				C351.3,471.8,359.2,471.8,361.8,469.1"/>
		</defs>
		<clipPath id="SVGID_176_">
			<use xlink:href="#SVGID_175_"  style="overflow:visible;"/>
		</clipPath>
		
			<linearGradient id="SVGID_177_" gradientUnits="userSpaceOnUse" x1="-429.0647" y1="1018.3061" x2="-428.6988" y2="1018.3061" gradientTransform="matrix(21.9823 5.6196 -5.6196 21.9823 15507.2832 -19501.7969)">
			<stop  offset="0" style="stop-color:#3773B9"/>
			<stop  offset="1" style="stop-color:#003C76"/>
		</linearGradient>
		<polygon class="st93" points="345.4,475.3 361.2,479.4 363.9,468.9 348,464.9 		"/>
	</g>
	<g class="st0">
		<defs>
			<path id="SVGID_178_" d="M289.7,193.3c0.4,0.9,0.8,1.8,1.3,2.6l1.8,3.6c0.4-1.8,1.8-2.4,2.9-1.5c0.3,0.3,0.7,0.7,0.9,1.2
				c0.2-0.5,1.5-1.6,3.4,1.1c1.1-0.1,1.8,0.4,2.2,1.3c0.3,0.6,0.5,1.2,0.8,1.9c0.3,0.9,0.5,1.7,0.5,2.6c0,1.7-0.1,3.6,0,5.7
				c0.1,2.2,2.6,5.1,4,6.7l-8.4,2.6c-1.3-1.6-2-2.8-3.3-4.1c-1.3-1.3-3-1.5-4.2-2.5c-0.7-0.6-1.1-1.3-2.3-3c-1-1.4-1.5-2.9-2.5-4.4
				c-0.9-1.6-0.9-1.2-1-3c-0.1-1.4-0.5-2.7-0.6-3.5c1.7-0.9,3.1,1.3,3.1,3.3c1,0.6,1.6,1.9,1.9,2.5c1.4-1.8,0.6-2.5,0-4.8
				c-0.9-1.6-1.5-3-2-4.6c-0.3-0.7-0.5-1.4-0.8-2.2c-0.4-1.3,0.1-2.2,0.5-2.4c0.1-0.1,0.2-0.1,0.3-0.1
				C288.6,192.2,289.2,192.4,289.7,193.3"/>
		</defs>
		<clipPath id="SVGID_179_">
			<use xlink:href="#SVGID_178_"  style="overflow:visible;"/>
		</clipPath>
		
			<linearGradient id="SVGID_180_" gradientUnits="userSpaceOnUse" x1="-422.9803" y1="1028.5045" x2="-422.6144" y2="1028.5045" gradientTransform="matrix(-27.8082 -39.7448 39.7448 -27.8082 -52336.6797 12006.1992)">
			<stop  offset="0" style="stop-color:#FF8A78"/>
			<stop  offset="1" style="stop-color:#FFA799"/>
		</linearGradient>
		<polygon class="st94" points="321,211.6 300.1,181.8 271.7,201.7 292.6,231.5 		"/>
	</g>
	<g class="st0">
		<defs>
			<rect id="SVGID_181_" x="30.5" y="20.5" width="521.1" height="541.1"/>
		</defs>
		<clipPath id="SVGID_182_">
			<use xlink:href="#SVGID_181_"  style="overflow:visible;"/>
		</clipPath>
		<path class="st95" d="M286.3,200.3c1,0.8,1.5,2.1,1.7,3.7c0.4,0.2,1.7,1.5,2.2,2.2c-0.3-0.6-0.9-1.9-1.8-2.4
			C288.3,202.2,287.5,200.5,286.3,200.3 M292.6,199.3c0.3,0.8,0.7,1.4,1.8,1.9c-0.5-0.6-1.1-1.4-1.2-2.6c-0.2,0.3-0.4,0.7-0.5,1.1
			L292.6,199.3 M296.6,199.2c0.2,0.7,0.6,1.3,1.4,1.9c-0.5-0.8-0.7-1.3-0.9-2.4C296.8,198.9,296.6,199,296.6,199.2 M299.9,200.2
			c0.2,1.3,0.7,1.9,1.5,2.7c-0.6-0.8-0.8-1.5-1-2.7C300.3,200.2,300.1,200.2,299.9,200.2L299.9,200.2"/>
	</g>
	<g class="st0">
		<defs>
			<path id="SVGID_183_" d="M305.8,215.9c0.4,0.7,1.6,1.1,2.1,1.7c5.9,7.4,9.2,16.6,13.4,23.9c6.4,6.6,16.8,21.3,21.1,25.7
				c1.8,1.8,4.4,4.3,6.1,7.1c3.1,5,4.8,10.2,3.6,16.4c-13.5,17.5-39.4-30.7-45.2-38.2c-4.3-9.3-7.4-17.9-10.3-28.1
				c-0.3-1.1,0.4-3.6,0-4.7c-0.3-1-0.6-1.9-1-2.9c2.3-2.3,5.7-3.8,8.5-3.8C304.6,214,305.2,215,305.8,215.9"/>
		</defs>
		<clipPath id="SVGID_184_">
			<use xlink:href="#SVGID_183_"  style="overflow:visible;"/>
		</clipPath>
		
			<linearGradient id="SVGID_185_" gradientUnits="userSpaceOnUse" x1="-419.8136" y1="1030.6017" x2="-419.4478" y2="1030.6017" gradientTransform="matrix(-32.1476 60.3207 -60.3207 -32.1476 48998.0625 58709.8242)">
			<stop  offset="0" style="stop-color:#A77EF7"/>
			<stop  offset="1" style="stop-color:#5E65D6"/>
		</linearGradient>
		<polygon class="st96" points="308.3,189.2 256,287.3 340.5,332.3 392.8,234.2 		"/>
	</g>
	<g class="st0">
		<defs>
			<path id="SVGID_186_" d="M350.1,313.9c-0.9,8.5,1.6,16.9-1,24.7c-0.1,0.8-0.2,4-0.3,4.8c-1.7,10.1-23.1,20.3-40.9,10.6
				c-0.1-1.3,0-2.6-0.1-4.9c0.3-2.2-0.6-4.5-0.6-5.8c0-5.5,1.7-8.3,0.9-14.4c-1.7-12.4-8.6-24.4-4.8-34.2c0.8-2.1,2.3-3.1,3.9-4.4
				c4.2-3.4,26-14.5,32.6-15.3c0.7-0.1,1.4-0.1,2-0.1C358.4,274.9,351.1,305,350.1,313.9"/>
		</defs>
		<clipPath id="SVGID_187_">
			<use xlink:href="#SVGID_186_"  style="overflow:visible;"/>
		</clipPath>
		
			<linearGradient id="SVGID_188_" gradientUnits="userSpaceOnUse" x1="-421.0755" y1="1030.7358" x2="-420.7096" y2="1030.7358" gradientTransform="matrix(19.0853 167.2705 -167.2705 19.0853 180773.5781 51050.6797)">
			<stop  offset="0" style="stop-color:#A77EF7"/>
			<stop  offset="1" style="stop-color:#5E65D6"/>
		</linearGradient>
		<polygon class="st97" points="289.5,276.1 300.3,370.4 368.4,362.6 357.6,268.3 		"/>
	</g>
	<g class="st0">
		<defs>
			<rect id="SVGID_189_" x="30.5" y="20.5" width="521.1" height="541.1"/>
		</defs>
		<clipPath id="SVGID_190_">
			<use xlink:href="#SVGID_189_"  style="overflow:visible;"/>
		</clipPath>
		<g class="st98">
			<g>
				<defs>
					<rect id="SVGID_191_" x="302.2" y="289.6" width="15.4" height="30.4"/>
				</defs>
				<clipPath id="SVGID_192_">
					<use xlink:href="#SVGID_191_"  style="overflow:visible;"/>
				</clipPath>
				<path class="st99" d="M306.2,319.9c-2.5-9.1-5.7-17.8-2.8-25.2c0.8-2.1,2.3-3.1,3.9-4.4c4.2-3.4,3.7,5.7,10.3,4.9
					C318.7,307.4,312.7,318.5,306.2,319.9"/>
			</g>
		</g>
		<path class="st100" d="M319.6,271.3c0.2,3,0.1,7.4-0.5,10.5c6.2-0.2,14.9-1.8,15.9-6.5c0-0.6-0.1-1.1-0.1-1.7
			c0.1-0.1,0.2-0.1,0.3-0.2c2.2-1.5,5.9-2.6,8.3-5.3c3.8-4.4,5.8-10.2,2.8-16.1c-5.5-10.7-18.6-10.9-26-2.2
			c-1.4,1.7-0.4,3.5-1.2,5.1c-0.2,0.3-0.7,0.5-1.4,1c-0.9,0.8-3.7,7.5-3.6,11c0,1.4,3.3,3.4,4.7,4.2
			C318.9,271.1,319.2,271.2,319.6,271.3"/>
	</g>
	<g class="st0">
		<defs>
			<path id="SVGID_193_" d="M335.1,273.4c-0.1,0.1-0.2,0.1-0.3,0.2c0,0.6,0.1,1.1,0.1,1.7c-0.9,4.6-9.6,6.3-15.9,6.5
				c0.6-3.1,0.7-7.5,0.5-10.5c2.6,0.1,4.6-0.9,5.9-3c2.2-1.2,4.2-1.7,6-1.7C336.1,266.6,338.6,270.1,335.1,273.4"/>
		</defs>
		<clipPath id="SVGID_194_">
			<use xlink:href="#SVGID_193_"  style="overflow:visible;"/>
		</clipPath>
		
			<linearGradient id="SVGID_195_" gradientUnits="userSpaceOnUse" x1="-420.4638" y1="1034.5846" x2="-420.0979" y2="1034.5846" gradientTransform="matrix(5.9408 14.9359 -14.9359 5.9408 18277.8281 404.3315)">
			<stop  offset="0" style="stop-color:#FF8A78"/>
			<stop  offset="1" style="stop-color:#FFA799"/>
		</linearGradient>
		<polygon class="st101" points="313.9,268.6 321.8,288.4 343.8,279.7 335.9,259.9 		"/>
	</g>
	<g class="st0">
		<defs>
			<path id="SVGID_196_" d="M322.3,254.4c1,6.5-5.4,7.5-4.6,14.1c-1.1-0.1-3.6-1.1-3.7-1.7c-0.2-3.5,2.7-10.2,3.6-11
				c0.7-0.6,1.3-0.7,1.4-1c0.8-1.6-0.2-3.4,1.2-5.1c1.2-1.4,2.5-2.5,3.9-3.5C325.8,249.1,321.8,250.5,322.3,254.4"/>
		</defs>
		<clipPath id="SVGID_197_">
			<use xlink:href="#SVGID_196_"  style="overflow:visible;"/>
		</clipPath>
		
			<linearGradient id="SVGID_198_" gradientUnits="userSpaceOnUse" x1="-419.3764" y1="1034.083" x2="-419.0106" y2="1034.083" gradientTransform="matrix(8.7635 16.8268 -16.8268 8.7635 21394.4473 -1749.6732)">
			<stop  offset="0" style="stop-color:#FFB89E"/>
			<stop  offset="1" style="stop-color:#FFA799"/>
		</linearGradient>
		<polygon class="st102" points="304.8,251 316.4,273.4 334.9,263.8 323.2,241.4 		"/>
	</g>
	<g class="st0">
		<defs>
			<rect id="SVGID_199_" x="30.5" y="20.5" width="521.1" height="541.1"/>
		</defs>
		<clipPath id="SVGID_200_">
			<use xlink:href="#SVGID_199_"  style="overflow:visible;"/>
		</clipPath>
		<path class="st103" d="M322.7,264.2c0.1-1.5,0.7-1.8,1.2-1.4c0.5,0.4,1,1.7,0.9,3.2c-0.2,2.5-2.5,4.7-4.1,2.7
			c1.7,0.9,2.5-1.3,2.6-2.9C323.3,264.8,323,263.9,322.7,264.2"/>
		<path class="st104" d="M323.2,265.1c-0.9,0.7-1.3,1.2-1.3,1.6c0,0.3,0.2,0.7,1,0.4C323.2,266.4,323.3,265.7,323.2,265.1"/>
		<path class="st105" d="M335.1,275.1c1.8,0.6,3.6,2.5,3.2,3.7c-1.8,7.5-15.6,9.2-24.2,7.4c-0.1,0,3.2-4.4,4.8-4.9
			C324.3,281.8,333.4,279.5,335.1,275.1"/>
		<path class="st106" d="M335.7,274.6c2.3-2.4,6.1-3.6,8.6-6.4c2.4-2.8,5.1-7.1,3.5-11.5c2.9-9.1-7-16.2-15.3-17.9
			c-5.9-1.2-9.5,5.2-6.9,9.5c-2.2,2.5-2.1,5.8-2,6.6c0.5,2.6,0.4,2.9-0.4,4.8c-0.7,1.5-2.3,5.2,0.7,2.9c1.9-1.5,3.2,1.8,2.6,4.1
			c-0.3,1.1-0.7,2.4-0.4,4.5C326.7,276.1,334.4,276,335.7,274.6"/>
	</g>
	<g class="st0">
		<defs>
			<path id="SVGID_201_" d="M331,239.3c4.5,0.1,16,4.5,14.1,13.3c-3.6-3.1-7.8-3-11.4-2.9c-2.2,0.1-4.1,0.2-5.5-0.5
				C322.9,246.7,326.4,239.3,331,239.3C330.9,239.3,331,239.3,331,239.3"/>
		</defs>
		<clipPath id="SVGID_202_">
			<use xlink:href="#SVGID_201_"  style="overflow:visible;"/>
		</clipPath>
		
			<linearGradient id="SVGID_203_" gradientUnits="userSpaceOnUse" x1="-421.2511" y1="1032.7159" x2="-420.8852" y2="1032.7159" gradientTransform="matrix(38.7024 22.1663 -22.1663 38.7024 39520.6328 -30390.3965)">
			<stop  offset="0" style="stop-color:#8A4791"/>
			<stop  offset="1" style="stop-color:#562E65"/>
		</linearGradient>
		<polygon class="st107" points="317.1,249.3 341.1,263 352.8,242.6 328.9,228.9 		"/>
	</g>
	<g class="st0">
		<defs>
			<path id="SVGID_204_" d="M244.3,257.6c0.5,0.6,0.1,5.4,0.4,6.1c1.2,1.4,1.8,2,3.4,3.7c1,0.6,1.6,1.1,2.1,1.3
				c0.5,0.1,0.8-0.2,0.9-0.7c0-0.5-0.3-1.5-0.6-2.8c0-2.3,0.6-3.6,1.8-3.5c0.6,0.1,1,0.4,1.2,1.1c0.1,0.5,0.1,1.3,0.2,2.2
				c0.3,0.7,0.3,1.1,0.4,1.8c0.5,1.1,0.7,1.9,0.9,2.7c0.3,1.4,0.2,2.5,0.2,4.4c0,1.1-0.2,1.7-0.4,2.7c1.1,2.2,2.9,3.5,4.5,5.3
				l-5.3,4c-2.2-1.5-4-3-5.9-4.3c-1.6-0.6-2.1-1-2.6-1.4c-1.2-1.3-4.8-5.1-5-6.5c-0.2-1.7,0.2-5.5,0.6-7.6c0.8-4.4,2.3-9.1,3-9.1
				C244.2,257,244.3,257.2,244.3,257.6"/>
		</defs>
		<clipPath id="SVGID_205_">
			<use xlink:href="#SVGID_204_"  style="overflow:visible;"/>
		</clipPath>
		
			<linearGradient id="SVGID_206_" gradientUnits="userSpaceOnUse" x1="-422.3985" y1="1031.2396" x2="-422.0326" y2="1031.2396" gradientTransform="matrix(-25.9351 -34.2617 34.2617 -25.9351 -46032.9062 12550.4541)">
			<stop  offset="0" style="stop-color:#FF8A78"/>
			<stop  offset="1" style="stop-color:#FFA799"/>
		</linearGradient>
		<polygon class="st108" points="273.1,275.4 252.3,247.9 226.3,267.6 247.1,295.1 		"/>
	</g>
	<g class="st0">
		<defs>
			<path id="SVGID_207_" d="M256.8,279.3c0.4,0.5,1.7,1.2,2.2,1.6c4.4,3.1,11.4,12.3,16.8,20c9.7-4.3,23.7-12.3,30.9-13.4
				c4.7-0.7,8.8,2.2,10.1,6.1c2.2,6-2,11.1-7.5,14c-7.7,4.1-24.5,7.1-29.7,8.4c-6.2,1.6-9.4,2.4-11.8,0.9c-1.5-1-2.3-2.8-4.5-6
				c-3.8-5.5-12-18-13.4-23.4c-0.2-0.7-0.1-2-0.4-2.6c-0.5-0.9-0.9-1.7-1.3-2.5c-0.1-1.6,3.9-5,6.6-5.4
				C255.6,277.8,256.2,278.6,256.8,279.3"/>
		</defs>
		<clipPath id="SVGID_208_">
			<use xlink:href="#SVGID_207_"  style="overflow:visible;"/>
		</clipPath>
		
			<linearGradient id="SVGID_209_" gradientUnits="userSpaceOnUse" x1="-420.9622" y1="1030.2695" x2="-420.5963" y2="1030.2695" gradientTransform="matrix(-7.8548 159.3552 -159.3552 -7.8548 161156.6875 75457.2031)">
			<stop  offset="0" style="stop-color:#A77EF7"/>
			<stop  offset="1" style="stop-color:#5E65D6"/>
		</linearGradient>
		<polygon class="st109" points="248.5,273.5 246.3,318.2 318.9,321.8 321.1,277 		"/>
	</g>
</g>
</svg>
