<?xml version="1.0" encoding="utf-8"?>
<!-- Generator: Adobe Illustrator 21.0.0, SVG Export Plug-In . SVG Version: 6.00 Build 0)  -->
<svg version="1.1" id="Layer_1" xmlns="http://www.w3.org/2000/svg" xmlns:xlink="http://www.w3.org/1999/xlink" x="0px" y="0px"
	 viewBox="0 0 110 110" style="enable-background:new 0 0 110 110;" xml:space="preserve">
<style type="text/css">
	.st0{fill:#1B49DF;}
</style>
<path class="st0" d="M67.3,45.7l-15.9,15l-7.6-7.8c-0.8-0.9-2.2-0.9-3.1,0c-0.9,0.8-0.9,2.2,0,3.1l9.1,9.4c0.8,0.9,2.2,0.9,3.1,0.1
	l17.5-16.5c0.4-0.4,0.7-1,0.7-1.5c0-0.6-0.2-1.1-0.6-1.6C69.6,44.9,68.2,44.9,67.3,45.7z"/>
<path class="st0" d="M55.6,22.6c-18.1,0-32.9,14.7-32.9,32.9c0,18.1,14.7,32.9,32.9,32.9c18.1,0,32.9-14.7,32.9-32.9
	C88.4,37.4,73.7,22.6,55.6,22.6z M55.6,84c-15.7,0-28.5-12.8-28.5-28.5S39.9,27,55.6,27C71.3,27,84,39.8,84,55.5S71.3,84,55.6,84z"
	/>
<path class="st0" d="M100.8,43.4l0.7-13.1c0.1-0.9-0.4-1.7-1.2-2.1l-11.6-5.9l-5.9-11.6c-0.4-0.8-1.2-1.3-2.1-1.2l-13.1,0.7
	L56.8,3.1c-0.7-0.5-1.7-0.5-2.4,0l-10.9,7.2L30.4,9.5c-0.9-0.1-1.7,0.4-2.1,1.2l-5.9,11.6l-11.6,5.9c-0.8,0.4-1.3,1.2-1.2,2.1
	l0.7,13.1L3.1,54.3c-0.5,0.7-0.5,1.7,0,2.4l7.2,10.9L9.6,80.7c-0.1,0.9,0.4,1.7,1.2,2.1l11.6,5.9l5.9,11.6c0.4,0.8,1.2,1.3,2.1,1.2
	l13.1-0.7l10.9,7.2c0.7,0.5,1.7,0.5,2.4,0l10.9-7.2l13.1,0.7c0.9,0.1,1.7-0.4,2.1-1.2l5.9-11.6l11.6-5.9c0.8-0.4,1.3-1.2,1.2-2.1
	l-0.7-13.1l7.2-10.9c0.5-0.7,0.5-1.7,0-2.4L100.8,43.4z M96.7,65.8c-0.3,0.4-0.4,0.9-0.4,1.3l0.7,12.3l-11,5.5c-0.4,0.2-0.8,0.6-1,1
	l-5.5,11l-12.3-0.7c-0.5,0-0.9,0.1-1.3,0.4l-10.3,6.8l-10.3-6.8c-0.4-0.2-0.8-0.4-1.2-0.4h-0.1L31.6,97l-5.5-11
	c-0.2-0.4-0.5-0.8-1-1l-11-5.5l0.7-12.3c0-0.5-0.1-0.9-0.4-1.3L7.6,55.5l6.8-10.3c0.3-0.4,0.4-0.9,0.4-1.3l-0.7-12.3l11-5.5
	c0.4-0.2,0.8-0.5,1-1l5.5-11l12.3,0.7c0.5,0,0.9-0.1,1.3-0.4l10.3-6.8l10.3,6.8c0.4,0.3,0.9,0.4,1.3,0.4L79.6,14l5.5,11
	c0.2,0.4,0.5,0.8,1,1l11,5.5l-0.7,12.3c0,0.5,0.1,0.9,0.4,1.3l6.8,10.3L96.7,65.8z"/>
</svg>
