<?xml version="1.0" encoding="utf-8"?>
<!-- Generator: Adobe Illustrator 21.0.0, SVG Export Plug-In . SVG Version: 6.00 Build 0)  -->
<svg version="1.1" id="Layer_1" xmlns="http://www.w3.org/2000/svg" xmlns:xlink="http://www.w3.org/1999/xlink" x="0px" y="0px"
	 viewBox="0 0 110 110" style="enable-background:new 0 0 110 110;" xml:space="preserve">
<style type="text/css">
	.st0{fill:#1B49DF;}
</style>
<g>
	<path class="st0" d="M72,53.5c-0.8-0.9-2.1-1.1-3.1-0.3c-0.9,0.8-1.1,2.1-0.3,3.1l7.6,9.5l-7.6,9.5c-0.8,0.9-0.6,2.3,0.3,3.1
		c0.4,0.3,0.9,0.5,1.4,0.5c0.6,0,1.3-0.3,1.7-0.8l8.7-10.9c0.6-0.8,0.6-1.9,0-2.7L72,53.5z"/>
	<path class="st0" d="M41.1,53.1c-0.9-0.7-2.3-0.6-3.1,0.3l-8.7,10.9c-0.6,0.8-0.6,1.9,0,2.7L38,78c0.4,0.5,1.1,0.8,1.7,0.8
		c0.5,0,1-0.2,1.4-0.5c0.9-0.8,1.1-2.1,0.3-3.1l-7.6-9.5l7.6-9.5C42.2,55.2,42,53.9,41.1,53.1z"/>
	<path class="st0" d="M62.4,48.4c-1.1-0.5-2.4,0-2.9,1.1L46.4,80.1c-0.5,1.1,0,2.4,1.1,2.9c0.3,0.1,0.6,0.2,0.9,0.2
		c0.8,0,1.6-0.5,2-1.3l13.1-30.5C64,50.2,63.5,48.9,62.4,48.4L62.4,48.4z"/>
	<circle class="st0" cx="39.7" cy="28.6" r="2.2"/>
	<circle class="st0" cx="31" cy="28.6" r="2.2"/>
	<circle class="st0" cx="22.3" cy="28.6" r="2.2"/>
	<path class="st0" d="M93.8,17.7H16.2C11.1,17.7,7,21.9,7,27V87c0,5.1,4.1,9.2,9.2,9.2h77.5c5.1,0,9.2-4.1,9.2-9.2V27
		C103,21.9,98.9,17.7,93.8,17.7z M16.2,22.1h77.5c2.7,0,4.9,2.2,4.9,4.9v3.9H57.2c-0.3,0-0.5,0.1-0.8,0.1l-10.5,4.1H11.4V27
		C11.4,24.3,13.5,22.1,16.2,22.1L16.2,22.1z M93.8,91.9H16.2c-2.7,0-4.9-2.2-4.9-4.9V39.4h34.9c0.3,0,0.5-0.1,0.8-0.1l10.5-4.1h41
		V87C98.6,89.7,96.5,91.9,93.8,91.9z"/>
</g>
</svg>
