<?xml version="1.0" encoding="utf-8"?>
<!-- Generator: Adobe Illustrator 21.0.0, SVG Export Plug-In . SVG Version: 6.00 Build 0)  -->
<svg version="1.1" id="Layer_1" xmlns="http://www.w3.org/2000/svg" xmlns:xlink="http://www.w3.org/1999/xlink" x="0px" y="0px"
	 viewBox="0 0 110 110" style="enable-background:new 0 0 110 110;" xml:space="preserve">
<style type="text/css">
	.st0{fill:#1B49DF;}
</style>
<g>
	<path class="st0" d="M28.6,76.4h3.1v3.1h-3.1V76.4z"/>
	<path class="st0" d="M16.1,76.4h3.1v3.1h-3.1V76.4z"/>
	<path class="st0" d="M22.3,76.4h3.1v3.1h-3.1V76.4z"/>
	<path class="st0" d="M96.1,16.8h-4.7V12c0-2.6-2.1-4.7-4.7-4.7H23.9c-2.6,0-4.7,2.1-4.7,4.7v4.7h-4.7c-4.3,0-7.8,3.5-7.8,7.8V78
		c0,4.3,3.5,7.8,7.8,7.8h28.2c-0.3,2.5-1.6,4.8-3.6,6.3h-4.2c-4.3,0-7.8,3.5-7.8,7.8c0,2.6,2.1,4.7,4.7,4.7h47.1
		c2.6,0,4.7-2.1,4.7-4.7c0-4.3-3.5-7.8-7.8-7.8h-4.2c-2-1.5-3.3-3.8-3.6-6.3h28.2c4.3,0,7.8-3.5,7.8-7.8V24.6
		C104,20.3,100.5,16.8,96.1,16.8z M66.3,48.2H82v22H66.3V48.2z M67.6,45l5.5-8.8c0.5-0.7,1.7-0.7,2.1,0l5.5,8.8H67.6z M77.9,34.5
		c-0.8-1.3-2.2-2.1-3.7-2.1s-2.9,0.8-3.7,2.1l-7.3,11.6v24H46.9l-1.3-2.4c0.2-0.5,0.5-1,0.6-1.5l4.4-1.1V53.2l-4.4-1.1
		c-0.2-0.5-0.4-1-0.6-1.5l2.3-3.9l-8.4-8.4l-3.9,2.3c-0.5-0.2-1-0.4-1.5-0.6L33,35.6H22.3v-6.3h65.9v40.8h-3.1v-24L77.9,34.5z
		 M19.2,70.1h-3.1v-44h3.1V70.1z M22.3,65.4c1.3,1,2.9,1.6,4.7,1.6c4.3,0,7.8-3.5,7.8-7.8s-3.5-7.8-7.8-7.8c-1.8,0-3.4,0.6-4.7,1.6
		v-3.7c1.5-0.7,3.1-1.1,4.7-1.1c6.1,0,11,4.9,11,11s-4.9,11-11,11h-4.7V65.4z M22.3,59.1c0-2.6,2.1-4.7,4.7-4.7s4.7,2.1,4.7,4.7
		c0,2.6-2.1,4.7-4.7,4.7S22.3,61.7,22.3,59.1z M41.2,59.1c0-7.8-6.3-14.1-14.1-14.1c-1.6,0-3.2,0.3-4.7,0.8v-7.1h8.2l0.9,3.7
		l0.8,0.3c0.9,0.3,1.8,0.7,2.6,1.1l0.8,0.4l3.3-2l4.9,4.9l-2,3.3l0.4,0.8c0.5,0.9,0.8,1.8,1.1,2.6l0.3,0.8l3.7,0.9v7l-3.7,0.9
		l-0.3,0.8c-0.3,0.9-0.7,1.8-1.1,2.6L42,67.8l1.3,2.3h-7.4C39.1,67.5,41.2,63.6,41.2,59.1z M91.4,26.2h3.1v44h-3.1V26.2z M23.9,10.5
		h62.8c0.9,0,1.6,0.7,1.6,1.6v14.1H22.3V12C22.3,11.2,23,10.5,23.9,10.5z M80.4,100c0,0.9-0.7,1.6-1.6,1.6H31.8
		c-0.9,0-1.6-0.7-1.6-1.6c0-2.6,2.1-4.7,4.7-4.7h40.8C78.3,95.2,80.4,97.4,80.4,100z M67.1,92.1H43.5c1.3-1.8,2.2-4,2.3-6.3h19
		C65,88.1,65.8,90.3,67.1,92.1z M100.8,78c0,2.6-2.1,4.7-4.7,4.7H14.5c-2.6,0-4.7-2.1-4.7-4.7V24.6c0-2.6,2.1-4.7,4.7-4.7h4.7V23
		h-3.1c-1.7,0-3.1,1.4-3.1,3.1v44c0,1.7,1.4,3.1,3.1,3.1h78.5c1.7,0,3.1-1.4,3.1-3.1v-44c0-1.7-1.4-3.1-3.1-3.1h-3.1v-3.1h4.7
		c2.6,0,4.7,2.1,4.7,4.7V78z"/>
	<path class="st0" d="M34.9,13.6h-9.4V23h9.4V13.6z M31.8,19.9h-3.1v-3.1h3.1V19.9z"/>
	<path class="st0" d="M47.5,13.6H38V23h9.4V13.6z M44.3,19.9h-3.1v-3.1h3.1V19.9z"/>
	<path class="st0" d="M60,13.6h-9.4V23H60V13.6z M56.9,19.9h-3.1v-3.1h3.1V19.9z"/>
	<path class="st0" d="M72.6,63.8h3.1V67h-3.1V63.8z"/>
	<path class="st0" d="M72.6,51.3h3.1v3.1h-3.1V51.3z"/>
	<path class="st0" d="M72.6,57.6h3.1v3.1h-3.1V57.6z"/>
</g>
</svg>
