<?xml version="1.0" encoding="utf-8"?>
<!-- Generator: Adobe Illustrator 21.0.0, SVG Export Plug-In . SVG Version: 6.00 Build 0)  -->
<svg version="1.1" id="Layer_1" xmlns="http://www.w3.org/2000/svg" xmlns:xlink="http://www.w3.org/1999/xlink" x="0px" y="0px"
	 viewBox="0 0 110 110" style="enable-background:new 0 0 110 110;" xml:space="preserve">
<style type="text/css">
	.st0{fill:#1B49DF;}
</style>
<g>
	<path class="st0" d="M74.2,50.2L55.9,68.5h-7.2v-3.1h0c3-2.2,5.2-5.5,6-9.4H55c3.4,0,6.2-2.8,6.2-6.2c0-1.6-0.6-3-1.6-4.1v-5.3
		c0-11.2-9.1-20.3-20.3-20.3s-20.3,9.1-20.3,20.3v5.3c-1,1.1-1.6,2.5-1.6,4.1c0,3.4,2.8,6.2,6.2,6.2h0.3c0.8,3.8,3,7.1,6,9.4h0v3.1
		h-7.8c-8.6,0-15.6,7-15.6,15.6v18.7c0,0.9,0.7,1.6,1.6,1.6h62.4c0.9,0,1.6-0.7,1.6-1.6V84.1c0-7.4-5.2-13.7-12.2-15.2l16-16h27.4
		v-3.1H75.3C74.9,49.8,74.5,49.9,74.2,50.2z M30.9,71.6l6.1,7.3l-6,3l-3.4-10.3L30.9,71.6z M39.1,88.7h0.6l2.5,12.5h-5.6L39.1,88.7z
		 M40,85.6h-1.2l-1.7-3.4l2.3-1.1l2.3,1.1L40,85.6z M41.9,78.9l6.1-7.3h3.3l-3.4,10.3L41.9,78.9z M55,52.9v-6.2
		c1.7,0,3.1,1.4,3.1,3.1S56.7,52.9,55,52.9z M20.7,49.8c0-1.7,1.4-3.1,3.1-3.1v6.2C22.1,52.9,20.7,51.5,20.7,49.8z M23.8,43.5
		c-0.5,0-1.1,0.1-1.6,0.2v-3.3c0-9.5,7.7-17.2,17.2-17.2S56.6,31,56.6,40.4v3.3c-0.5-0.1-1-0.2-1.6-0.2c0-0.9-0.7-1.6-1.6-1.6
		c-2.4,0-4.8-1.2-6.2-3.1l-1.9-2.5c-0.6-0.8-1.9-0.8-2.5,0L41,38.8c-1.5,2-3.8,3.1-6.2,3.1h-9.4C24.5,42,23.8,42.7,23.8,43.5
		L23.8,43.5z M26.9,52.9v-7.8h7.8c3.4,0,6.7-1.6,8.7-4.4l0.6-0.8l0.6,0.8c1.7,2.3,4.3,3.8,7.2,4.3v7.9c0,6.9-5.6,12.5-12.5,12.5
		S26.9,59.8,26.9,52.9L26.9,52.9z M39.4,68.5c2.2,0,4.3-0.5,6.2-1.3v2.3L39.4,77l-6.2-7.5v-2.3C35.1,68,37.2,68.5,39.4,68.5z
		 M9.8,84.1c0-6.9,5.6-12.5,12.5-12.5h2l4.3,13c0.1,0.4,0.5,0.8,0.9,0.9c0.2,0.1,0.4,0.1,0.6,0.1c0.2,0,0.5-0.1,0.7-0.2l3.6-1.8
		l1.9,3.7l-2.8,13.8H19.1v-9.4H16v9.4H9.8V84.1z M69,84.1v17.2h-6.2v-9.4h-3.1v9.4H45.4l-2.8-13.8l1.9-3.7l3.6,1.8
		c0.2,0.1,0.5,0.2,0.7,0.2c0.2,0,0.4,0,0.6-0.1c0.4-0.2,0.7-0.5,0.9-0.9l4.3-13h2C63.4,71.6,69,77.2,69,84.1z"/>
	<path class="st0" d="M100.2,43.5V21.7c0-0.9-0.7-1.6-1.6-1.6h-6.2c-0.9,0-1.6,0.7-1.6,1.6v21.8h-3.1V31.1c0-0.9-0.7-1.6-1.6-1.6
		h-6.2c-0.9,0-1.6,0.7-1.6,1.6v12.5h-3.1v-7.8c0-0.9-0.7-1.6-1.6-1.6h-6.2c-0.9,0-1.6,0.7-1.6,1.6v7.8h-3.1v3.1h40.5v-3.1H100.2z
		 M94,23.3h3.1v20.3H94V23.3z M81.5,32.6h3.1v10.9h-3.1V32.6z M69,37.3h3.1v6.2H69V37.3z"/>
	<path class="st0" d="M77.5,17h8.7c0.4,0,0.8-0.2,1.1-0.5l3.6-3.6v4H94V9.2c0-0.9-0.7-1.6-1.6-1.6h-7.8v3.1h4l-3.1,3.1h-8.7
		c-0.4,0-0.8,0.2-1.1,0.5l-9.4,9.4l2.2,2.2L77.5,17z"/>
</g>
</svg>
