<?xml version="1.0" encoding="utf-8"?>
<!-- Generator: Adobe Illustrator 21.0.0, SVG Export Plug-In . SVG Version: 6.00 Build 0)  -->
<svg version="1.1" id="Layer_1" xmlns="http://www.w3.org/2000/svg" xmlns:xlink="http://www.w3.org/1999/xlink" x="0px" y="0px"
	 viewBox="0 0 189 189" style="enable-background:new 0 0 189 189;" xml:space="preserve">
<style type="text/css">
	.st0{fill:#1B49DE;}
	.st1{fill:#FFFFFF;}
</style>
<circle class="st0" cx="94.5" cy="94.5" r="92.5"/>
<circle class="st1" cx="94.5" cy="94.5" r="68.6"/>
<g>
	<g>
		<path class="st0" d="M107,59.1c-0.1-0.7-0.7-1.3-1.5-1.2c-3.6,0.1-7.8,2.3-10.3,5.3c-2.2,2.5-4.3,6.7-3.7,10.9
			c0.1,0.7,0.6,1.2,1.3,1.2c0.2,0,0.5,0,0.7,0c3.5,0,7.3-1.9,9.9-5c0,0,0,0,0,0C106.1,67,107.4,62.8,107,59.1z M101.2,68.4
			c-1.9,2.3-4.5,3.7-7,4c0.1-2.9,1.6-5.8,3.1-7.5c1.7-2,4.4-3.6,6.9-4.1C104.2,63.4,103.1,66.2,101.2,68.4z"/>
	</g>
</g>
<g>
	<g>
		<path class="st0" d="M120.8,107.7C120.8,107.7,120.8,107.7,120.8,107.7c-0.9-0.4-8.1-3.5-8.2-12.3c-0.1-7.1,5.4-10.8,6.5-11.5
			l0.1,0c0.3-0.2,0.5-0.5,0.6-0.9c0.1-0.4,0-0.8-0.2-1.1c-4.2-6.2-10.7-7.1-13.3-7.2c-3.5-0.3-6.8,0.9-9.4,2
			c-1.4,0.6-2.7,1.1-3.5,1.1c-0.9,0-2.2-0.5-3.6-1.1c-2.2-0.9-4.7-1.9-7.4-1.8c-6.1,0.1-11.9,3.6-15,9.1c-3.6,6.2-3.3,13.5-2.4,18.5
			c1.1,6,3.5,12,6.7,16.7c2.5,3.6,6.3,9.1,11.5,9.1c0.1,0,0.2,0,0.3,0c0,0,0,0,0,0c2.2-0.1,3.8-0.8,5.3-1.4c1.6-0.7,3.1-1.3,5.6-1.3
			c2.3,0,3.8,0.6,5.3,1.3c1.6,0.7,3.3,1.4,5.8,1.4c5.4-0.1,8.7-4.9,11.4-8.8c2.9-4.2,4.3-8.3,4.8-9.8l0,0
			C121.8,108.7,121.5,108,120.8,107.7z M114.5,117.7c-3,4.4-5.4,7.5-9.1,7.6c-0.1,0-0.1,0-0.2,0c-1.8,0-3-0.5-4.4-1.1
			c-1.6-0.7-3.5-1.5-6.4-1.5c-3,0-5,0.8-6.7,1.6c-1.4,0.6-2.6,1.1-4.3,1.2c-3.5,0.1-6.4-3.6-9.4-7.9c-6-8.7-9.5-23-4.2-32.2
			c2.7-4.7,7.5-7.6,12.7-7.7c0,0,0.1,0,0.1,0c2.1,0,4.3,0.9,6.2,1.6c1.7,0.7,3.3,1.3,4.7,1.3c1.3,0,2.8-0.6,4.5-1.3
			c2.5-1,5.3-2.1,8.2-1.8c0,0,0.1,0,0.1,0c2,0.1,6.8,0.7,10.3,4.9c-0.9,0.7-2,1.6-3,2.9c-2.4,2.9-3.7,6.5-3.6,10.2
			c0.1,8.7,6,12.8,8.7,14.3C117.9,111.5,116.6,114.5,114.5,117.7z"/>
	</g>
</g>
<g>
	<g>
		<path class="st0" d="M77.6,114.8c-3.6-5.2-6.8-14.2-5.4-21.9c0.1-0.8-0.4-1.5-1.1-1.6c-0.8-0.1-1.5,0.4-1.6,1.1
			c-1.5,8.5,1.9,18.2,5.9,24c0.3,0.4,0.7,0.6,1.2,0.6c0.3,0,0.6-0.1,0.8-0.2C77.9,116.3,78.1,115.4,77.6,114.8z"/>
	</g>
</g>
<g>
	<g>
		<path class="st0" d="M73.6,85.7c-0.7-0.4-1.5-0.2-1.9,0.5c-0.2,0.3-0.4,0.7-0.5,1c-0.3,0.7-0.1,1.5,0.6,1.9
			c0.2,0.1,0.4,0.1,0.6,0.1c0.5,0,1-0.3,1.3-0.8c0.1-0.3,0.3-0.6,0.4-0.8C74.5,87,74.2,86.1,73.6,85.7z"/>
	</g>
</g>
</svg>
