<?xml version="1.0" encoding="utf-8"?>
<!-- Generator: Adobe Illustrator 21.0.0, SVG Export Plug-In . SVG Version: 6.00 Build 0)  -->
<svg version="1.1" id="Layer_1" xmlns="http://www.w3.org/2000/svg" xmlns:xlink="http://www.w3.org/1999/xlink" x="0px" y="0px"
	 viewBox="0 0 189 189" style="enable-background:new 0 0 189 189;" xml:space="preserve">
<style type="text/css">
	.st0{fill:#1B49DE;}
	.st1{fill:#FFFFFF;}
</style>
<circle class="st0" cx="94.5" cy="94.5" r="92.5"/>
<circle class="st1" cx="94.5" cy="94.5" r="68.6"/>
<path class="st0" d="M93.4,126.9H61.8c-2.8,0-5.1-2.3-5.1-5.1V70.2c0-2.8,2.3-5.1,5.1-5.1h61.9c2.8,0,5.1,2.3,5.1,5.1v16.4
	c0,0.9-0.8,1.7-1.7,1.7c-0.9,0-1.7-0.8-1.7-1.7V70.2c0-0.9-0.8-1.7-1.7-1.7H61.8c-0.9,0-1.7,0.8-1.7,1.7v51.7c0,0.9,0.8,1.7,1.7,1.7
	h31.6c0.9,0,1.7,0.8,1.7,1.7C95.1,126.2,94.3,126.9,93.4,126.9z"/>
<path class="st0" d="M100.2,126.9c-0.4,0-0.9-0.2-1.2-0.5c-0.3-0.3-0.5-0.8-0.5-1.2c0-0.4,0.2-0.9,0.5-1.2c0.3-0.3,0.8-0.5,1.2-0.5
	c0.4,0,0.9,0.2,1.2,0.5c0.3,0.3,0.5,0.8,0.5,1.2s-0.2,0.9-0.5,1.2C101.1,126.7,100.6,126.9,100.2,126.9z"/>
<path class="st0" d="M123.6,126.9h-8.8c-0.9,0-1.7-0.8-1.7-1.7c0-0.9,0.8-1.7,1.7-1.7h8.8c0.9,0,1.7-0.8,1.7-1.7V106
	c0-0.9,0.8-1.7,1.7-1.7c0.9,0,1.7,0.8,1.7,1.7v15.8C128.7,124.6,126.4,126.9,123.6,126.9z"/>
<path class="st0" d="M126.3,80.7H59.8c-0.9,0-1.7-0.8-1.7-1.7c0-0.9,0.8-1.7,1.7-1.7h66.6c0.9,0,1.7,0.8,1.7,1.7
	C128,79.9,127.3,80.7,126.3,80.7z"/>
<path class="st0" d="M118.6,74.6H93.5c-0.9,0-1.7-0.8-1.7-1.7c0-0.9,0.8-1.7,1.7-1.7h25.1c0.9,0,1.7,0.8,1.7,1.7
	C120.3,73.8,119.6,74.6,118.6,74.6z"/>
<path class="st0" d="M71.4,74.6c-0.4,0-0.9-0.2-1.2-0.5c-0.3-0.3-0.5-0.8-0.5-1.2c0-0.4,0.2-0.9,0.5-1.2s0.8-0.5,1.2-0.5
	s0.9,0.2,1.2,0.5s0.5,0.8,0.5,1.2c0,0.4-0.2,0.9-0.5,1.2C72.3,74.4,71.9,74.6,71.4,74.6z"/>
<path class="st0" d="M65.2,74.6c-0.4,0-0.9-0.2-1.2-0.5c-0.3-0.3-0.5-0.8-0.5-1.2c0-0.4,0.2-0.9,0.5-1.2c0.3-0.3,0.8-0.5,1.2-0.5
	s0.9,0.2,1.2,0.5c0.3,0.3,0.5,0.8,0.5,1.2c0,0.4-0.2,0.9-0.5,1.2C66,74.4,65.6,74.6,65.2,74.6z"/>
<path class="st0" d="M77.7,74.6c-0.4,0-0.9-0.2-1.2-0.5c-0.3-0.3-0.5-0.8-0.5-1.2c0-0.4,0.2-0.9,0.5-1.2c0.3-0.3,0.8-0.5,1.2-0.5
	c0.4,0,0.9,0.2,1.2,0.5c0.3,0.3,0.5,0.8,0.5,1.2c0,0.4-0.2,0.9-0.5,1.2C78.6,74.4,78.1,74.6,77.7,74.6z"/>
<path class="st0" d="M82.4,109c-0.4,0-0.9-0.2-1.2-0.5l-5.7-5.7c-0.7-0.7-0.7-1.7,0-2.4l5.7-5.7c0.7-0.7,1.7-0.7,2.4,0
	c0.7,0.7,0.7,1.7,0,2.4l-4.5,4.5l4.5,4.5c0.7,0.7,0.7,1.7,0,2.4C83.2,108.8,82.8,109,82.4,109z"/>
<path class="st0" d="M103,109c-0.4,0-0.9-0.2-1.2-0.5c-0.7-0.7-0.7-1.7,0-2.4l4.5-4.5l-4.5-4.5c-0.7-0.7-0.7-1.7,0-2.4
	c0.7-0.7,1.7-0.7,2.4,0l5.7,5.7c0.7,0.7,0.7,1.7,0,2.4l-5.7,5.7C103.9,108.8,103.5,109,103,109z"/>
<path class="st0" d="M88.6,110.1c-0.3,0-0.6-0.1-0.9-0.2c-0.8-0.5-1.1-1.5-0.6-2.3l8.1-13.8c0.5-0.8,1.5-1.1,2.3-0.6
	c0.8,0.5,1.1,1.5,0.6,2.3l-8.1,13.8C89.8,109.8,89.2,110.1,88.6,110.1z"/>
<path class="st0" d="M106.9,132.8c-0.3,0-0.6-0.1-0.8-0.2c-0.6-0.4-0.9-1-0.8-1.7l2.2-13.3c0-0.2,0.1-0.4,0.2-0.6l4.1-7
	c0.5-0.8,1.5-1.1,2.3-0.6c0.8,0.5,1.1,1.5,0.6,2.3l-3.9,6.8l-1.4,8.5l6.7-5.5l23.9-41.4c0.8-1.5,0.3-3.3-1.1-4.2
	c-1.5-0.8-3.3-0.3-4.2,1.1l-13.1,22.7c-0.5,0.8-1.5,1.1-2.3,0.6c-0.8-0.5-1.1-1.5-0.6-2.3l13.1-22.7c1.8-3.1,5.7-4.1,8.8-2.4
	c3.1,1.8,4.1,5.7,2.4,8.8l-24.1,41.7c-0.1,0.2-0.2,0.3-0.4,0.5l-10.4,8.5C107.6,132.7,107.2,132.8,106.9,132.8z"/>
<path class="st0" d="M116.6,106.5c-0.4,0-0.9-0.2-1.2-0.5c-0.3-0.3-0.5-0.8-0.5-1.2c0-0.4,0.2-0.9,0.5-1.2c0.3-0.3,0.8-0.5,1.2-0.5
	c0.4,0,0.9,0.2,1.2,0.5c0.3,0.3,0.5,0.8,0.5,1.2c0,0.4-0.2,0.9-0.5,1.2C117.5,106.3,117,106.5,116.6,106.5z"/>
<path class="st0" d="M117.1,124.2c-0.3,0-0.6-0.1-0.8-0.2l-7.6-4.4c-0.8-0.5-1.1-1.5-0.6-2.3c0.5-0.8,1.5-1.1,2.3-0.6l7.6,4.4
	c0.8,0.5,1.1,1.5,0.6,2.3C118.2,123.9,117.7,124.2,117.1,124.2z"/>
<path class="st0" d="M139.7,85.4c-0.3,0-0.6-0.1-0.8-0.2l-8.2-4.8c-0.8-0.5-1.1-1.5-0.6-2.3s1.5-1.1,2.3-0.6l8.2,4.8
	c0.8,0.5,1.1,1.5,0.6,2.3C140.9,85.1,140.3,85.4,139.7,85.4z"/>
</svg>
