<?xml version="1.0" encoding="utf-8"?>
<!-- Generator: Adobe Illustrator 21.0.0, SVG Export Plug-In . SVG Version: 6.00 Build 0)  -->
<svg version="1.1" id="Layer_1" xmlns="http://www.w3.org/2000/svg" xmlns:xlink="http://www.w3.org/1999/xlink" x="0px" y="0px"
	 viewBox="0 0 189 189" style="enable-background:new 0 0 189 189;" xml:space="preserve">
<style type="text/css">
	.st0{fill:#1B49DE;}
	.st1{fill:#FFFFFF;}
</style>
<circle class="st0" cx="94.5" cy="94.5" r="92.5"/>
<circle class="st1" cx="94.5" cy="94.5" r="68.6"/>
<g>
	<g>
		<path class="st0" d="M111.5,114c-0.8,0-1.5,0.7-1.5,1.5s0.7,1.5,1.5,1.5s1.5-0.7,1.5-1.5S112.4,114,111.5,114z"/>
	</g>
</g>
<g>
	<g>
		<path class="st0" d="M115.2,109.2l-7.1-2.4l-2.6-5.1c2.3-2.4,3.9-5.5,4.5-8.7l0.3-1.9h2.7c2.5,0,4.5-2,4.5-4.5v-9.5
			c0-12.4-10.1-22.5-22.5-22.5c-12.5,0-22.5,10.1-22.5,22.5v9.5c0,2,1.3,3.6,3,4.2v1.8c0,2.5,2,4.5,4.5,4.5h1.3
			c0.7,1.4,1.5,2.7,2.5,3.9c0.2,0.2,0.4,0.5,0.7,0.7l-2.6,5.1l-7.1,2.4c-8.3,2.8-14.3,11.5-14.3,20.8c0,0.8,0.7,1.5,1.5,1.5H128
			c0.8,0,1.5-0.7,1.5-1.5C129.5,120.7,123.5,111.9,115.2,109.2z M114.5,86.5c0,0.8-0.7,1.5-1.5,1.5h-2.3c0.4-3,0.6-6.1,0.7-9.2
			c0-0.1,0-0.2,0-0.3h3V86.5z M77,88c-0.8,0-1.5-0.7-1.5-1.5v-8h3c0,0.2,0,0.3,0,0.5c0,0,0,0,0,0c0,0,0,0,0,0c0.1,3,0.4,6.1,0.7,9
			L77,88L77,88z M80,94.1c-0.8,0-1.5-0.7-1.5-1.5V91h1.2L80,93c0.1,0.4,0.1,0.7,0.2,1.1H80z M78.5,75.6h-2.9
			c0.8-10.1,9.2-18,19.5-18c10.3,0,18.7,8,19.5,18h-2.9c-0.1-8.3-6.9-15-15.2-15h-2.7C85.3,60.6,78.6,67.3,78.5,75.6z M93.7,63.6
			h2.7c6.7,0,12.2,5.5,12.2,12.2c0,0.5,0,0.9,0,1.3c0,0,0,0,0,0l-1.9-0.3c-5.1-0.7-9.9-3.1-13.6-6.8c-0.3-0.3-0.7-0.4-1.1-0.4
			c-4,0-7.9,1.8-10.4,4.9C82.2,68.4,87.3,63.6,93.7,63.6z M83.4,94.1c-0.8-2.5-1.6-9.9-1.8-14.6l2-2.7c1.9-2.5,4.7-4,7.8-4.2
			c4,3.8,9.3,6.4,14.8,7.2l2.2,0.3c-0.1,3.1-0.4,6.3-0.9,9.2c0,0,0,0,0,0c-0.1,0.9-0.2,1.5-0.5,3.2c-0.8,4.8-4.4,9.1-9.1,10.3
			c-1.9,0.5-4,0.5-5.9,0c-2.9-0.7-5.6-2.8-7.4-5.7h3.1c0.6,1.7,2.3,3,4.2,3h3c2.5,0,4.5-2,4.5-4.5c0-2.5-2-4.5-4.5-4.5h-3
			c-2,0-3.6,1.3-4.3,3H83.4z M91.9,105.8c1,0.2,2.1,0.3,3.1,0.3c0.8,0,1.6-0.1,2.5-0.2l-2.7,2.8L91.9,105.8z M92.7,110.9l-4.8,5
			c-1.3-2.5-2.4-5.1-3.4-7.8l1.8-3.6L92.7,110.9z M103.3,104l2,4.1c-0.9,2.7-2.1,5.3-3.4,7.8l-5.1-5.1L103.3,104z M90.5,95.6
			c0-0.8,0.7-1.5,1.5-1.5h3c0.8,0,1.5,0.7,1.5,1.5c0,0.8-0.7,1.5-1.5,1.5h-3C91.2,97.1,90.5,96.4,90.5,95.6z M63.5,128.5
			c0.6-7.4,5.5-14.2,12.2-16.4l6.3-2.1c1.2,3.2,2.6,6.3,4.3,9.3c0,0,0,0,0,0c0,0,0,0,0,0c1.2,2.2,2.6,4.3,4.1,6.3l1.8,3H63.5z
			 M95,127.1l-2-3.3c0,0,0-0.1-0.1-0.1c-1.2-1.6-2.4-3.3-3.4-5.1l5.4-5.7l5.6,5.6c-1,1.7-2.2,3.5-3.4,5.1
			C97,123.8,97.1,123.7,95,127.1z M97.7,128.5l1.8-3c1.5-2,2.9-4.1,4.1-6.3c0,0,0,0,0,0c0,0,0,0,0,0c1.7-2.9,3.1-6,4.2-9.2l6.3,2.1
			c6.7,2.2,11.6,9,12.2,16.4H97.7L97.7,128.5z"/>
	</g>
</g>
<g>
	<g>
		<path class="st0" d="M122,122.4c-1-2-2.5-3.8-4.3-5.2c-0.7-0.5-1.6-0.4-2.1,0.3c-0.5,0.7-0.4,1.6,0.3,2.1c1.4,1.1,2.6,2.5,3.4,4.1
			c0.4,0.7,1.3,1,2,0.7C122,124,122.3,123.1,122,122.4z"/>
	</g>
</g>
</svg>
