<?xml version="1.0" encoding="utf-8"?>
<!-- Generator: Adobe Illustrator 21.0.0, SVG Export Plug-In . SVG Version: 6.00 Build 0)  -->
<svg version="1.1" id="Layer_1" xmlns="http://www.w3.org/2000/svg" xmlns:xlink="http://www.w3.org/1999/xlink" x="0px" y="0px"
	 viewBox="0 0 189 189" style="enable-background:new 0 0 189 189;" xml:space="preserve">
<style type="text/css">
	.st0{fill:#1B49DE;}
	.st1{fill:#FFFFFF;}
</style>
<circle class="st0" cx="94.5" cy="94.5" r="92.5"/>
<circle class="st1" cx="94.5" cy="94.5" r="68.6"/>
<g>
	<g>
		<path class="st0" d="M119.3,72.2c-0.3-0.3-0.7-0.5-1.2-0.5s-0.8,0.2-1.2,0.5c-0.3,0.3-0.5,0.7-0.5,1.2s0.2,0.8,0.5,1.2
			s0.7,0.5,1.2,0.5s0.8-0.2,1.2-0.5c0.3-0.3,0.5-0.7,0.5-1.2S119.6,72.5,119.3,72.2z"/>
	</g>
</g>
<g>
	<g>
		<path class="st0" d="M134.5,71.7h-10.4c-0.9,0-1.6,0.7-1.6,1.6s0.7,1.6,1.6,1.6h10.4c2.7,0,4.9,2.2,4.9,4.9v23.4
			c0,2.7-2.2,4.9-4.9,4.9h-2.3c-0.4,0-0.8,0.2-1.2,0.5l-5.4,5.4l-5.4-5.4c-0.3-0.3-0.7-0.5-1.2-0.5H97.8c-2.7,0-4.9-2.2-4.9-4.9
			v-5.9c0-0.9-0.7-1.6-1.6-1.6s-1.6,0.7-1.6,1.6v5.9c0,4.5,3.6,8.1,8.1,8.1h20.8l6,6c0.3,0.3,0.7,0.5,1.2,0.5s0.8-0.2,1.2-0.5l6-6
			h1.6c4.5,0,8.1-3.6,8.1-8.1V79.9C142.7,75.4,139,71.7,134.5,71.7z"/>
	</g>
</g>
<g>
	<g>
		<path class="st0" d="M104.3,52.8H67.5c-4.5,0-8.1,3.6-8.1,8.1v23.4c0,4.5,3.6,8.1,8.1,8.1h3.4l6,6c0.3,0.3,0.7,0.5,1.2,0.5
			c0.4,0,0.8-0.2,1.2-0.5l6-6h19c4.5,0,8.1-3.6,8.1-8.1V61C112.4,56.5,108.8,52.8,104.3,52.8z M109.2,84.4c0,2.7-2.2,4.9-4.9,4.9
			H84.6c-0.4,0-0.8,0.2-1.2,0.5l-5.4,5.4l-5.4-5.4c-0.3-0.3-0.7-0.5-1.2-0.5h-4.1c-2.7,0-4.9-2.2-4.9-4.9V61c0-2.7,2.2-4.9,4.9-4.9
			h36.8c2.7,0,4.9,2.2,4.9,4.9V84.4z"/>
	</g>
</g>
<g>
	<g>
		<path class="st0" d="M125.4,97.8l-5.8-13.7c-0.3-0.6-0.8-1-1.5-1s-1.2,0.4-1.5,1l-5.8,13.7c-0.3,0.8,0,1.8,0.9,2.1
			c0.8,0.3,1.8,0,2.1-0.9l0.8-1.9h6.9l0.8,1.9c0.3,0.6,0.9,1,1.5,1c0.2,0,0.4,0,0.6-0.1C125.4,99.6,125.8,98.6,125.4,97.8z
			 M116.1,93.9l2.1-4.9l2.1,4.9H116.1z"/>
	</g>
</g>
<g>
	<g>
		<path class="st0" d="M93.4,78.4l-1.5-1.1c0.5-1,0.7-2.1,0.7-3.2v-2.6c0-4.1-3.4-7.5-7.5-7.5c-4.1,0-7.5,3.4-7.5,7.5V74
			c0,4.1,3.4,7.5,7.5,7.5c1.8,0,3.4-0.6,4.7-1.7l1.6,1.2c0.3,0.2,0.6,0.3,1,0.3c0.5,0,1-0.2,1.3-0.7C94.3,79.9,94.2,78.9,93.4,78.4z
			 M89.4,74c0,0.4-0.1,0.9-0.2,1.3L87.5,74c-0.7-0.5-1.7-0.4-2.3,0.3c-0.5,0.7-0.4,1.7,0.3,2.3l1.6,1.1c-0.6,0.3-1.2,0.5-1.9,0.5
			c-2.3,0-4.2-1.9-4.2-4.2v-2.6h0c0-2.3,1.9-4.2,4.2-4.2s4.2,1.9,4.2,4.2V74L89.4,74z"/>
	</g>
</g>
<g>
	<g>
		<path class="st0" d="M122.6,125.5l-14.1-7.6c-0.2-0.1-0.5-0.2-0.8-0.2H65.1c-3.2,0-5.7,2.6-5.7,5.7v6.9c0,3.2,2.6,5.7,5.7,5.7
			h42.6c0.3,0,0.5-0.1,0.8-0.2l14.1-7.6c0.5-0.3,0.9-0.8,0.9-1.4S123.1,125.8,122.6,125.5z M70,132.9h-4.9c-1.4,0-2.5-1.1-2.5-2.5
			v-6.9c0-1.4,1.1-2.5,2.5-2.5H70V132.9z M106.1,132.9H73.2v-4.4h20.7c0.9,0,1.6-0.7,1.6-1.6c0-0.9-0.7-1.6-1.6-1.6H73.2V121h32.9
			V132.9z M109.4,131.8v-9.7l9,4.8L109.4,131.8z"/>
	</g>
</g>
<g>
	<g>
		<path class="st0" d="M101.3,125.7c-0.3-0.3-0.7-0.5-1.2-0.5s-0.8,0.2-1.2,0.5s-0.5,0.7-0.5,1.2c0,0.4,0.2,0.8,0.5,1.2
			c0.3,0.3,0.7,0.5,1.2,0.5s0.8-0.2,1.2-0.5c0.3-0.3,0.5-0.7,0.5-1.2C101.8,126.4,101.7,126,101.3,125.7z"/>
	</g>
</g>
</svg>
