<?xml version="1.0" encoding="utf-8"?>
<!-- Generator: Adobe Illustrator 21.0.0, SVG Export Plug-In . SVG Version: 6.00 Build 0)  -->
<svg version="1.1" id="Layer_1" xmlns="http://www.w3.org/2000/svg" xmlns:xlink="http://www.w3.org/1999/xlink" x="0px" y="0px"
	 viewBox="0 0 189 189" style="enable-background:new 0 0 189 189;" xml:space="preserve">
<style type="text/css">
	.st0{fill:#1B49DE;}
	.st1{fill:#FFFFFF;}
</style>
<circle class="st0" cx="94.5" cy="94.5" r="92.5"/>
<circle class="st1" cx="94.5" cy="94.5" r="68.6"/>
<g>
	<g>
		<path class="st0" d="M88.4,68.8c-2.2,0-4.1,1.8-4.1,4c0,2.2,1.8,4.1,4.1,4.1c2.2,0,4.1-1.8,4.1-4.1C92.5,70.6,90.7,68.8,88.4,68.8
			z M88.4,73.7c-0.5,0-0.9-0.4-0.9-0.9c0-0.5,0.4-0.9,0.9-0.9c0.5,0,0.9,0.4,0.9,0.9C89.3,73.3,88.9,73.7,88.4,73.7z"/>
	</g>
</g>
<g>
	<g>
		<path class="st0" d="M103.6,68.8c-2.2,0-4.1,1.8-4.1,4c0,2.2,1.8,4.1,4.1,4.1c2.2,0,4.1-1.8,4.1-4.1
			C107.6,70.6,105.8,68.8,103.6,68.8z M103.6,73.7c-0.5,0-0.9-0.4-0.9-0.9c0-0.5,0.4-0.9,0.9-0.9c0.5,0,0.9,0.4,0.9,0.9
			C104.5,73.3,104.1,73.7,103.6,73.7z"/>
	</g>
</g>
<g>
	<g>
		<path class="st0" d="M122.2,80.4H122c-1.1,0-2.1,0.3-3,0.8v-1.6c0-6.8-3.9-13.1-10.4-16.8l3.7-3.7c0.6-0.6,0.6-1.6,0-2.2
			c-0.6-0.6-1.6-0.6-2.2,0l-4.5,4.5c-3-1.2-6.2-1.8-9.6-1.8c-3.3,0-6.6,0.6-9.6,1.8l-4.5-4.5c-0.6-0.6-1.6-0.6-2.2,0
			c-0.6,0.6-0.6,1.6,0,2.2l3.7,3.7C77,66.5,73,72.8,73,79.6v1.6c-0.9-0.5-1.9-0.8-3-0.8h-0.2c-3.4,0-6.2,2.8-6.2,6.2v20
			c0,3.4,2.8,6.2,6.2,6.2H70c1.1,0,2.1-0.3,3-0.8v2.3c0,3.2,2.6,5.8,5.9,5.8h2.9v9.3c0,3.4,2.8,6.2,6.2,6.2h0.2
			c3.4,0,6.2-2.8,6.2-6.2v-9.3h3.2v9.3c0,3.4,2.8,6.2,6.2,6.2h0.2c3.4,0,6.2-2.8,6.2-6.2v-9.3h2.9c3.2,0,5.9-2.6,5.9-5.8v-2.3
			c0.9,0.5,1.9,0.8,3,0.8h0.2c3.4,0,6.2-2.8,6.2-6.2v-20C128.3,83.2,125.6,80.4,122.2,80.4z M73,106.7c0,1.7-1.3,3-3,3h-0.2
			c-1.7,0-3-1.4-3-3v-20c0-1.7,1.4-3,3-3H70c1.7,0,3,1.4,3,3L73,106.7L73,106.7z M115.8,114.4L115.8,114.4c0,1.4-1.2,2.6-2.7,2.6
			h-4.5c-0.9,0-1.6,0.7-1.6,1.6v10.8c0,1.7-1.4,3-3,3h-0.2c-1.7,0-3-1.4-3-3v-10.8c0-0.9-0.7-1.6-1.6-1.6h-6.3
			c-0.9,0-1.6,0.7-1.6,1.6v10.8c0,1.7-1.4,3-3,3H88c-1.7,0-3-1.4-3-3v-10.8c0-0.9-0.7-1.6-1.6-1.6h-4.5c-1.5,0-2.7-1.2-2.7-2.6V82.6
			h29.4c0.9,0,1.6-0.7,1.6-1.6c0-0.9-0.7-1.6-1.6-1.6H76.2c0.1-6,3.8-11.5,9.9-14.5l1.4-0.6c2.7-1.1,5.6-1.7,8.6-1.7
			c3,0,5.9,0.6,8.6,1.7l1.4,0.6c6.1,3,9.9,8.6,9.9,14.6V114.4z M125.2,106.7c0,1.7-1.4,3-3,3H122c-1.7,0-3-1.4-3-3v-20
			c0-1.7,1.3-3,3-3h0.2c1.7,0,3,1.4,3,3L125.2,106.7L125.2,106.7z"/>
	</g>
</g>
<g>
	<g>
		<path class="st0" d="M111.8,79.4h-0.5c-0.9,0-1.6,0.7-1.6,1.6c0,0.9,0.7,1.6,1.6,1.6h0.5c0.9,0,1.6-0.7,1.6-1.6
			C113.4,80.2,112.7,79.4,111.8,79.4z"/>
	</g>
</g>
</svg>
