<?xml version="1.0" encoding="utf-8"?>
<!-- Generator: Adobe Illustrator 21.0.0, SVG Export Plug-In . SVG Version: 6.00 Build 0)  -->
<svg version="1.1" id="Layer_1" xmlns="http://www.w3.org/2000/svg" xmlns:xlink="http://www.w3.org/1999/xlink" x="0px" y="0px"
	 viewBox="0 0 189 189" style="enable-background:new 0 0 189 189;" xml:space="preserve">
<style type="text/css">
	.st0{fill:#1B49DE;}
	.st1{fill:#FFFFFF;}
</style>
<circle class="st0" cx="94.5" cy="94.5" r="92.5"/>
<circle class="st1" cx="94.5" cy="94.5" r="68.6"/>
<g>
	<g>
		<path class="st0" d="M118.8,75.1c-0.8,0-1.4,0.6-1.4,1.4s0.6,1.4,1.4,1.4s1.4-0.6,1.4-1.4S119.5,75.1,118.8,75.1z"/>
	</g>
</g>
<g>
	<g>
		<path class="st0" d="M69.2,75.1c-0.8,0-1.4,0.6-1.4,1.4s0.6,1.4,1.4,1.4s1.4-0.6,1.4-1.4S70,75.1,69.2,75.1z"/>
	</g>
</g>
<g>
	<g>
		<path class="st0" d="M128.6,91.9h-1.7c-0.5-4.1-1.8-7.9-3.8-11.5c-0.4-0.7-1.2-0.9-1.9-0.5c-0.7,0.4-0.9,1.2-0.5,1.9
			c1.8,3.2,2.9,6.6,3.4,10.1H123c-0.8,0-1.4,0.6-1.4,1.4V99c0,0.8,0.6,1.4,1.4,1.4h5.6c0.8,0,1.4-0.6,1.4-1.4v-5.6
			C130,92.6,129.4,91.9,128.6,91.9z M127.2,97.6h-2.8v-2.8h1.3c0,0,0,0,0,0c0,0,0,0,0,0h1.5V97.6z"/>
	</g>
</g>
<g>
	<g>
		<path class="st0" d="M109.5,102.1C109.5,102.1,109.5,102.1,109.5,102.1c0-0.1,0-0.1,0-0.2c0,0,0,0,0-0.1c0,0,0-0.1,0-0.1
			c0,0,0,0,0,0c0,0,0-0.1,0-0.1c0,0,0,0,0,0c0,0,0-0.1-0.1-0.1L95.2,75.8c-0.2-0.5-0.7-0.7-1.2-0.7s-1,0.3-1.2,0.7l-14.1,25.7
			c0,0,0,0.1-0.1,0.1c0,0,0,0,0,0c0,0,0,0.1,0,0.1c0,0,0,0,0,0c0,0,0,0.1,0,0.1c0,0,0,0,0,0.1c0,0,0,0.1,0,0.1c0,0,0,0,0,0.1
			c0,0,0,0,0,0.1c0,0,0,0,0,0c0,0,0,0,0,0.1c0,0,0,0.1,0,0.1c0,0,0,0,0,0.1c0,0,0,0.1,0,0.1c0,0,0,0,0,0.1c0,0,0,0.1,0,0.1
			c0,0,0,0,0,0l5.1,13.4c-0.4,0.2-0.8,0.5-1.1,0.8c-0.8,0.8-1.2,1.9-1.2,3c0,1.8,1.2,3.4,2.8,4v7.7c0,0.8,0.6,1.4,1.4,1.4h16.9
			c0.8,0,1.4-0.6,1.4-1.4v-7.7c0.6-0.2,1.1-0.5,1.6-1c0.8-0.8,1.2-1.9,1.2-3c0-1.7-1-3.1-2.4-3.8l5.1-13.4c0,0,0,0,0,0
			c0,0,0-0.1,0-0.1c0,0,0,0,0-0.1c0,0,0-0.1,0-0.1c0,0,0,0,0-0.1c0,0,0-0.1,0-0.1C109.5,102.3,109.5,102.3,109.5,102.1
			C109.5,102.2,109.5,102.2,109.5,102.1C109.5,102.2,109.5,102.2,109.5,102.1z M94,100.8c0.8,0,1.4,0.6,1.4,1.4s-0.6,1.4-1.4,1.4
			s-1.4-0.6-1.4-1.4S93.2,100.8,94,100.8z M101,130.2H87v-6H101V130.2z M103.4,120.9c-0.3,0.3-0.6,0.4-1,0.4H85.6
			c-0.8,0-1.4-0.6-1.4-1.4c0-0.4,0.1-0.7,0.4-1c0.3-0.3,0.6-0.4,1-0.4h16.9c0,0,0,0,0,0c0,0,0,0,0,0c0.8,0,1.4,0.6,1.4,1.4
			C103.8,120.3,103.7,120.7,103.4,120.9z M101.5,115.7H86.5L82,103.6h3.6c0.8,0,1.4-0.6,1.4-1.4s-0.6-1.4-1.4-1.4h-3.3L92.6,82v16.3
			c-1.6,0.6-2.8,2.1-2.8,4c0,2.3,1.9,4.2,4.2,4.2s4.2-1.9,4.2-4.2c0-1.8-1.2-3.4-2.8-4V82l10.3,18.8h-3.3c-0.8,0-1.4,0.6-1.4,1.4
			s0.6,1.4,1.4,1.4h3.6L101.5,115.7z"/>
	</g>
</g>
<g>
	<g>
		<path class="st0" d="M66.8,79.9c-0.7-0.4-1.5-0.1-1.9,0.5c-2,3.6-3.3,7.4-3.8,11.5h-1.7c-0.8,0-1.4,0.6-1.4,1.4V99
			c0,0.8,0.6,1.4,1.4,1.4H65c0.8,0,1.4-0.6,1.4-1.4v-5.6c0-0.8-0.6-1.4-1.4-1.4h-1.1c0.5-3.6,1.7-7,3.4-10.1
			C67.7,81.1,67.5,80.3,66.8,79.9z M63.6,97.6h-2.8v-2.8h1.5c0,0,0,0,0,0c0,0,0,0,0,0h1.3V97.6z"/>
	</g>
</g>
<g>
	<g>
		<path class="st0" d="M125.8,61c-1.8,0-3.4,1.2-4,2.8H98.2v-1.4c0-0.8-0.6-1.4-1.4-1.4h-5.6c-0.8,0-1.4,0.6-1.4,1.4v1.4H66.2
			c-0.6-1.6-2.1-2.8-4-2.8c-2.3,0-4.2,1.9-4.2,4.2s1.9,4.2,4.2,4.2c1.8,0,3.4-1.2,4-2.8h14.1c-3,1.3-5.8,2.9-8,4.8
			c-0.6,0.5-0.7,1.4-0.2,2c0.3,0.3,0.7,0.5,1.1,0.5c0.3,0,0.6-0.1,0.9-0.3c4-3.4,9.8-5.8,15.6-6.6V68c0,0.8,0.6,1.4,1.4,1.4h5.6
			c0.8,0,1.4-0.6,1.4-1.4v-1.1c5.9,0.8,11.6,3.2,15.6,6.6c0.3,0.2,0.6,0.3,0.9,0.3c0.4,0,0.8-0.2,1.1-0.5c0.5-0.6,0.4-1.5-0.2-2
			c-2.3-1.9-5-3.5-8-4.8h14.1c0.6,1.6,2.1,2.8,4,2.8c2.3,0,4.2-1.9,4.2-4.2S128.1,61,125.8,61z M62.2,66.6c-0.8,0-1.4-0.6-1.4-1.4
			s0.6-1.4,1.4-1.4s1.4,0.6,1.4,1.4S63,66.6,62.2,66.6z M95.4,65.2v0.1v1.3h-2.8v-1.3v-0.1v-1.4h2.8V65.2z M125.8,66.6
			c-0.8,0-1.4-0.6-1.4-1.4s0.6-1.4,1.4-1.4s1.4,0.6,1.4,1.4S126.6,66.6,125.8,66.6z"/>
	</g>
</g>
</svg>
