<?xml version="1.0" encoding="utf-8"?>
<!-- Generator: Adobe Illustrator 21.0.0, SVG Export Plug-In . SVG Version: 6.00 Build 0)  -->
<svg version="1.1" id="Layer_1" xmlns="http://www.w3.org/2000/svg" xmlns:xlink="http://www.w3.org/1999/xlink" x="0px" y="0px"
	 viewBox="0 0 110 110" style="enable-background:new 0 0 110 110;" xml:space="preserve">
<style type="text/css">
	.st0{fill:#1B49DF;}
</style>
<g>
	<path class="st0" d="M11.9,90.3h52.3c-1-1.7-1.6-3.5-1.6-5.6v-5.6H9.1c-1.5,0-2.8,1.3-2.8,2.8v2.8C6.3,87.8,8.8,90.3,11.9,90.3z"/>
	<path class="st0" d="M11.9,26v47.5h50.7V40c0-6.2,5-11.2,11.2-11.2h22.4V26c0-4.6-3.8-8.4-8.4-8.4H20.3
		C15.6,17.7,11.9,21.4,11.9,26z"/>
	<path class="st0" d="M96.1,34.4H73.8c-3.1,0-5.6,2.5-5.6,5.6v44.7c0,3.1,2.5,5.6,5.6,5.6h22.4c3.1,0,5.6-2.5,5.6-5.6V40
		C101.7,36.9,99.2,34.4,96.1,34.4z M84.9,42.8c1.5,0,2.8,1.3,2.8,2.8c0,1.5-1.3,2.8-2.8,2.8s-2.8-1.3-2.8-2.8
		C82.1,44.1,83.4,42.8,84.9,42.8z M87.7,82h-5.6c-1.5,0-2.8-1.3-2.8-2.8c0-1.5,1.3-2.8,2.8-2.8h5.6c1.5,0,2.8,1.3,2.8,2.8
		C90.5,80.7,89.3,82,87.7,82z"/>
</g>
</svg>
