<?xml version="1.0" encoding="utf-8"?>
<!-- Generator: Adobe Illustrator 21.0.0, SVG Export Plug-In . SVG Version: 6.00 Build 0)  -->
<svg version="1.1" id="Layer_1" xmlns="http://www.w3.org/2000/svg" xmlns:xlink="http://www.w3.org/1999/xlink" x="0px" y="0px"
	 viewBox="0 0 110 110" style="enable-background:new 0 0 110 110;" xml:space="preserve">
<style type="text/css">
	.st0{fill:#1B49DF;}
</style>
<g>
	<g>
		<path class="st0" d="M73.5,75.9c-5.5,0-10,4.4-10,10c0,5.5,4.4,10,10,10c5.5,0,10-4.4,10-10C83.5,80.4,79,75.9,73.5,75.9z"/>
	</g>
</g>
<g>
	<g>
		<path class="st0" d="M91.2,28c-0.2,0-0.5-0.1-0.8-0.1H29.6l-1-6.5C28.1,17.2,24.4,14,20,14h-7.8c-2.1,0-3.9,1.7-3.9,3.9
			s1.7,3.9,3.9,3.9H20c0.5,0,0.9,0.4,1,0.9l6,40.7c0.8,5.1,5.2,9,10.4,9h40.2c5,0,9.4-3.6,10.4-8.5l6.3-31.4
			C94.7,30.4,93.3,28.4,91.2,28z"/>
	</g>
</g>
<g>
	<g>
		<path class="st0" d="M48.9,85.5c-0.2-5.3-4.6-9.6-9.9-9.6c-5.6,0.3-9.8,4.9-9.7,10.4c0.2,5.3,4.5,9.6,9.8,9.6h0.2
			C44.8,95.6,49.2,91,48.9,85.5z"/>
	</g>
</g>
</svg>
