<?xml version="1.0" encoding="utf-8"?>
<!-- Generator: Adobe Illustrator 21.0.0, SVG Export Plug-In . SVG Version: 6.00 Build 0)  -->
<svg version="1.1" id="Layer_1" xmlns="http://www.w3.org/2000/svg" xmlns:xlink="http://www.w3.org/1999/xlink" x="0px" y="0px"
	 viewBox="0 0 110 110" style="enable-background:new 0 0 110 110;" xml:space="preserve">
<style type="text/css">
	.st0{fill:#1B49DF;}
</style>
<g>
	<g>
		<path class="st0" d="M4,78.7v3c0,4.9,4,9,9,9H51v-12H4z"/>
	</g>
</g>
<g>
	<g>
		<path class="st0" d="M33.9,42.9c-2.7,0-5,2.2-5,5s2.2,5,5,5s5-2.2,5-5S36.6,42.9,33.9,42.9z"/>
	</g>
</g>
<g>
	<g>
		<path class="st0" d="M23.3,50.8h-1.4v8h8V58C26.7,56.8,24.3,54.1,23.3,50.8z"/>
	</g>
</g>
<g>
	<g>
		<path class="st0" d="M13,23.9c-4.9,0-9,4-9,9v39.8h47V23.9H13z M35.9,58.6v6.2H16V44.9h7.4c1.3-4.6,5.5-8,10.5-8c6,0,11,4.9,11,11
			C44.8,53.2,41,57.7,35.9,58.6z"/>
	</g>
</g>
<g>
	<g>
		<path class="st0" d="M76.7,57.6h-1.8v6h6v-1.2C79,61.3,77.5,59.6,76.7,57.6z"/>
	</g>
</g>
<g>
	<g>
		<path class="st0" d="M73.5,14.8v11c0,0.5,0.4,1,1,1h13.9c0.5,0,1-0.4,1-1v-11H73.5z"/>
	</g>
</g>
<g>
	<g>
		<path class="st0" d="M85.1,51.4c-1.6,0-3,1.3-3,3s1.3,3,3,3s3-1.3,3-3S86.7,51.4,85.1,51.4z"/>
	</g>
</g>
<g>
	<g>
		<path class="st0" d="M99,14.8h-3.6v11c0,3.8-3.1,7-7,7H74.5c-3.8,0-7-3.1-7-7v-11H64c-3.8,0-7,3.1-7,7v71.7c0,3.8,3.1,7,7,7H99
			c3.8,0,7-3.1,7-7V21.7C106,17.9,102.9,14.8,99,14.8z M86.9,63.2v6.4H68.9V51.6h7.6c1.2-3.6,4.5-6.2,8.5-6.2c4.9,0,9,4,9,9
			C94,58.7,91,62.4,86.9,63.2z"/>
	</g>
</g>
</svg>
