<?xml version="1.0" encoding="utf-8"?>
<!-- Generator: Adobe Illustrator 23.0.3, SVG Export Plug-In . SVG Version: 6.00 Build 0)  -->
<svg version="1.1" id="Layer_1" xmlns="http://www.w3.org/2000/svg" xmlns:xlink="http://www.w3.org/1999/xlink" x="0px" y="0px"
	 viewBox="0 0 100 100" style="enable-background:new 0 0 100 100;" xml:space="preserve">
<style type="text/css">
	.st0{clip-path:url(#SVGID_2_);fill:#FFA24C;}
	.st1{clip-path:url(#SVGID_4_);fill:#FFA24C;}
	.st2{clip-path:url(#SVGID_6_);fill:#FFA14B;}
	.st3{clip-path:url(#SVGID_8_);fill:#FFA14A;}
	.st4{clip-path:url(#SVGID_10_);fill:#FFA049;}
	.st5{clip-path:url(#SVGID_12_);fill:#FFA048;}
	.st6{clip-path:url(#SVGID_14_);fill:#FF9F47;}
	.st7{clip-path:url(#SVGID_16_);fill:#FF9E46;}
	.st8{clip-path:url(#SVGID_18_);fill:#FF9E45;}
	.st9{clip-path:url(#SVGID_20_);fill:#FF9D44;}
	.st10{clip-path:url(#SVGID_22_);fill:#FF9D43;}
	.st11{clip-path:url(#SVGID_24_);fill:#FF9C41;}
	.st12{clip-path:url(#SVGID_26_);fill:#FF9B40;}
	.st13{clip-path:url(#SVGID_28_);fill:#FF9B3F;}
	.st14{clip-path:url(#SVGID_30_);fill:#FF9A3E;}
	.st15{clip-path:url(#SVGID_32_);fill:#FF993D;}
	.st16{clip-path:url(#SVGID_34_);fill:#FF993C;}
	.st17{clip-path:url(#SVGID_36_);fill:#FF983B;}
	.st18{clip-path:url(#SVGID_38_);fill:#FF983A;}
	.st19{clip-path:url(#SVGID_40_);fill:#FF9739;}
	.st20{fill:#FFFFFF;}
</style>
<g id="Layer_8">
	<g>
		<g>
			<g>
				<g>
					<g>
						<defs>
							<circle id="SVGID_1_" cx="50" cy="50" r="48.3"/>
						</defs>
						<clipPath id="SVGID_2_">
							<use xlink:href="#SVGID_1_"  style="overflow:visible;"/>
						</clipPath>
						<rect x="1.7" y="1.7" class="st0" width="96.6" height="96.6"/>
					</g>
				</g>
				<g>
					<g>
						<defs>
							<circle id="SVGID_3_" cx="50" cy="50" r="48.3"/>
						</defs>
						<clipPath id="SVGID_4_">
							<use xlink:href="#SVGID_3_"  style="overflow:visible;"/>
						</clipPath>
						<circle class="st1" cx="50" cy="50" r="48.3"/>
					</g>
				</g>
				<g>
					<g>
						<defs>
							<circle id="SVGID_5_" cx="50" cy="50" r="48.3"/>
						</defs>
						<clipPath id="SVGID_6_">
							<use xlink:href="#SVGID_5_"  style="overflow:visible;"/>
						</clipPath>
						<circle class="st2" cx="50" cy="50" r="45.7"/>
					</g>
				</g>
				<g>
					<g>
						<defs>
							<circle id="SVGID_7_" cx="50" cy="50" r="48.3"/>
						</defs>
						<clipPath id="SVGID_8_">
							<use xlink:href="#SVGID_7_"  style="overflow:visible;"/>
						</clipPath>
						<circle class="st3" cx="50" cy="50" r="43.2"/>
					</g>
				</g>
				<g>
					<g>
						<defs>
							<circle id="SVGID_9_" cx="50" cy="50" r="48.3"/>
						</defs>
						<clipPath id="SVGID_10_">
							<use xlink:href="#SVGID_9_"  style="overflow:visible;"/>
						</clipPath>
						<circle class="st4" cx="50" cy="50" r="40.7"/>
					</g>
				</g>
				<g>
					<g>
						<defs>
							<circle id="SVGID_11_" cx="50" cy="50" r="48.3"/>
						</defs>
						<clipPath id="SVGID_12_">
							<use xlink:href="#SVGID_11_"  style="overflow:visible;"/>
						</clipPath>
						<circle class="st5" cx="50" cy="50" r="38.1"/>
					</g>
				</g>
				<g>
					<g>
						<defs>
							<circle id="SVGID_13_" cx="50" cy="50" r="48.3"/>
						</defs>
						<clipPath id="SVGID_14_">
							<use xlink:href="#SVGID_13_"  style="overflow:visible;"/>
						</clipPath>
						<circle class="st6" cx="50" cy="50" r="35.6"/>
					</g>
				</g>
				<g>
					<g>
						<defs>
							<circle id="SVGID_15_" cx="50" cy="50" r="48.3"/>
						</defs>
						<clipPath id="SVGID_16_">
							<use xlink:href="#SVGID_15_"  style="overflow:visible;"/>
						</clipPath>
						<circle class="st7" cx="50" cy="50" r="33"/>
					</g>
				</g>
				<g>
					<g>
						<defs>
							<circle id="SVGID_17_" cx="50" cy="50" r="48.3"/>
						</defs>
						<clipPath id="SVGID_18_">
							<use xlink:href="#SVGID_17_"  style="overflow:visible;"/>
						</clipPath>
						<circle class="st8" cx="50" cy="50" r="30.5"/>
					</g>
				</g>
				<g>
					<g>
						<defs>
							<circle id="SVGID_19_" cx="50" cy="50" r="48.3"/>
						</defs>
						<clipPath id="SVGID_20_">
							<use xlink:href="#SVGID_19_"  style="overflow:visible;"/>
						</clipPath>
						<circle class="st9" cx="50" cy="50" r="27.9"/>
					</g>
				</g>
				<g>
					<g>
						<defs>
							<circle id="SVGID_21_" cx="50" cy="50" r="48.3"/>
						</defs>
						<clipPath id="SVGID_22_">
							<use xlink:href="#SVGID_21_"  style="overflow:visible;"/>
						</clipPath>
						<circle class="st10" cx="50" cy="50" r="25.4"/>
					</g>
				</g>
				<g>
					<g>
						<defs>
							<circle id="SVGID_23_" cx="50" cy="50" r="48.3"/>
						</defs>
						<clipPath id="SVGID_24_">
							<use xlink:href="#SVGID_23_"  style="overflow:visible;"/>
						</clipPath>
						<circle class="st11" cx="50" cy="50" r="22.9"/>
					</g>
				</g>
				<g>
					<g>
						<defs>
							<circle id="SVGID_25_" cx="50" cy="50" r="48.3"/>
						</defs>
						<clipPath id="SVGID_26_">
							<use xlink:href="#SVGID_25_"  style="overflow:visible;"/>
						</clipPath>
						<circle class="st12" cx="50" cy="50" r="20.3"/>
					</g>
				</g>
				<g>
					<g>
						<defs>
							<circle id="SVGID_27_" cx="50" cy="50" r="48.3"/>
						</defs>
						<clipPath id="SVGID_28_">
							<use xlink:href="#SVGID_27_"  style="overflow:visible;"/>
						</clipPath>
						<circle class="st13" cx="50" cy="50" r="17.8"/>
					</g>
				</g>
				<g>
					<g>
						<defs>
							<circle id="SVGID_29_" cx="50" cy="50" r="48.3"/>
						</defs>
						<clipPath id="SVGID_30_">
							<use xlink:href="#SVGID_29_"  style="overflow:visible;"/>
						</clipPath>
						<circle class="st14" cx="50" cy="50" r="15.2"/>
					</g>
				</g>
				<g>
					<g>
						<defs>
							<circle id="SVGID_31_" cx="50" cy="50" r="48.3"/>
						</defs>
						<clipPath id="SVGID_32_">
							<use xlink:href="#SVGID_31_"  style="overflow:visible;"/>
						</clipPath>
						<circle class="st15" cx="50" cy="50" r="12.7"/>
					</g>
				</g>
				<g>
					<g>
						<defs>
							<circle id="SVGID_33_" cx="50" cy="50" r="48.3"/>
						</defs>
						<clipPath id="SVGID_34_">
							<use xlink:href="#SVGID_33_"  style="overflow:visible;"/>
						</clipPath>
						<circle class="st16" cx="50" cy="50" r="10.2"/>
					</g>
				</g>
				<g>
					<g>
						<defs>
							<circle id="SVGID_35_" cx="50" cy="50" r="48.3"/>
						</defs>
						<clipPath id="SVGID_36_">
							<use xlink:href="#SVGID_35_"  style="overflow:visible;"/>
						</clipPath>
						<circle class="st17" cx="50" cy="50" r="7.6"/>
					</g>
				</g>
				<g>
					<g>
						<defs>
							<circle id="SVGID_37_" cx="50" cy="50" r="48.3"/>
						</defs>
						<clipPath id="SVGID_38_">
							<use xlink:href="#SVGID_37_"  style="overflow:visible;"/>
						</clipPath>
						<circle class="st18" cx="50" cy="50" r="5.1"/>
					</g>
				</g>
				<g>
					<g>
						<defs>
							<circle id="SVGID_39_" cx="50" cy="50" r="48.3"/>
						</defs>
						<clipPath id="SVGID_40_">
							<use xlink:href="#SVGID_39_"  style="overflow:visible;"/>
						</clipPath>
						<circle class="st19" cx="50" cy="50" r="2.5"/>
					</g>
				</g>
			</g>
		</g>
	</g>
</g>
<g>
	<g>
		<path class="st20" d="M50.7,21.4c-14.6,0-26.5,11.9-26.5,26.5v20.8c0,3.1,2.5,5.7,5.7,5.7h7.6c1,0,1.9-0.8,1.9-1.9V53.6
			c0-1-0.8-1.9-1.9-1.9h-7.6c-0.6,0-1.3,0.1-1.9,0.4V48c0-12.5,10.2-22.7,22.7-22.7S73.4,35.5,73.4,48v4c-0.6-0.2-1.2-0.3-1.9-0.4
			h-7.6c-1,0-1.9,0.8-1.9,1.9v18.9c0,1,0.8,1.9,1.9,1.9h7.6c3.1,0,5.7-2.5,5.7-5.7V47.9C77.2,33.3,65.3,21.4,50.7,21.4z"/>
	</g>
</g>
</svg>
