<?xml version="1.0" encoding="iso-8859-1"?>
<!-- Generator: Adobe Illustrator 24.0.1, SVG Export Plug-In . SVG Version: 6.00 Build 0)  -->
<svg version="1.1" xmlns="http://www.w3.org/2000/svg" xmlns:xlink="http://www.w3.org/1999/xlink" x="0px" y="0px"
	 viewBox="0 0 100 100" style="enable-background:new 0 0 100 100;" xml:space="preserve">
<g id="Layer_6">
	<g>
		<g>
			<g>
				<g>
					<defs>
						<circle id="SVGID_1_" cx="50" cy="50" r="48.278"/>
					</defs>
					<use xlink:href="#SVGID_1_"  style="overflow:visible;fill:#FF00B5;"/>
					<clipPath id="SVGID_2_">
						<use xlink:href="#SVGID_1_"  style="overflow:visible;"/>
					</clipPath>
					<rect x="1.722" y="1.722" style="clip-path:url(#SVGID_2_);fill:#FF00B5;" width="96.555" height="96.555"/>
					<circle style="clip-path:url(#SVGID_2_);fill:#FF00B5;" cx="50" cy="50" r="48.278"/>
					<circle style="clip-path:url(#SVGID_2_);fill:#FF00B5;" cx="50" cy="50" r="45.737"/>
					<circle style="clip-path:url(#SVGID_2_);fill:#FF00B5;" cx="50" cy="50" r="43.196"/>
					<circle style="clip-path:url(#SVGID_2_);fill:#FF00B5;" cx="50" cy="50" r="40.655"/>
					<circle style="clip-path:url(#SVGID_2_);fill:#FF00B5;" cx="50" cy="50" r="38.114"/>
					<circle style="clip-path:url(#SVGID_2_);fill:#FF00B5;" cx="50" cy="50" r="35.573"/>
					<circle style="clip-path:url(#SVGID_2_);fill:#FF00B5;" cx="50" cy="50" r="33.032"/>
					<circle style="clip-path:url(#SVGID_2_);fill:#FF00B5;" cx="50" cy="50" r="30.491"/>
					<circle style="clip-path:url(#SVGID_2_);fill:#FF00B5;" cx="50" cy="50" r="27.95"/>
					<circle style="clip-path:url(#SVGID_2_);fill:#FF00B5;" cx="50" cy="50" r="25.409"/>
					<circle style="clip-path:url(#SVGID_2_);fill:#FF00B5;" cx="50" cy="50" r="22.868"/>
					<circle style="clip-path:url(#SVGID_2_);fill:#FF00B5;" cx="50" cy="50" r="20.327"/>
					<circle style="clip-path:url(#SVGID_2_);fill:#FF00B5;" cx="50" cy="50" r="17.786"/>
					<circle style="clip-path:url(#SVGID_2_);fill:#FF00B5;" cx="50" cy="50" r="15.246"/>
					<circle style="clip-path:url(#SVGID_2_);fill:#FF00B5;" cx="50" cy="50" r="12.705"/>
					<circle style="clip-path:url(#SVGID_2_);fill:#FF00B5;" cx="50" cy="50" r="10.164"/>
					<circle style="clip-path:url(#SVGID_2_);fill:#FF00B5;" cx="50" cy="50" r="7.623"/>
					<circle style="clip-path:url(#SVGID_2_);fill:#FF00B5;" cx="50" cy="50" r="5.082"/>
					<circle style="clip-path:url(#SVGID_2_);fill:#FF00B5;" cx="50" cy="50" r="2.541"/>
				</g>
			</g>
		</g>
		<g>
			<path style="fill:#FFFFFF;" d="M58.94,30.57c-0.252-0.461-0.869-0.609-1.38-0.33s-0.721,0.878-0.469,1.339l0.456,0.835
				l-14.915,8.143c-2.042,1.115-2.882,3.514-1.875,5.358c1.007,1.844,3.479,2.435,5.521,1.32l17.689-9.657
				c0.511-0.279,0.72-0.878,0.469-1.339L61.7,31.23c-0.252-0.461-0.87-0.609-1.38-0.33l-0.924,0.505L58.94,30.57z"/>
			<path style="fill:#FFFFFF;" d="M45.249,65.134c2.196-1.199,3.333-3.649,2.703-5.826l-0.538-1.858l2.497-1.363
				c1.529-0.835,2.16-2.638,1.406-4.018l-0.456-0.835l6.533-3.567c0.511-0.279,0.721-0.878,0.469-1.339l-1.367-2.504l-9.307,5.081
				c-3.059,1.67-6.774,0.782-8.281-1.98l-2.773,1.514c-0.511,0.279-0.721,0.878-0.469,1.339l0.316,0.578
				c0.465,0.851,0.347,1.94-0.303,2.773c-0.2,0.256-0.268,0.577-0.184,0.865l2.494,8.616c0.086,0.299,0.206,0.592,0.36,0.874
				C39.604,65.785,42.7,66.525,45.249,65.134L45.249,65.134z M49.012,52.244l0.456,0.835c0.251,0.461,0.041,1.061-0.469,1.339
				l-2.127,1.161l-0.542-1.871L49.012,52.244z M41.616,56.282c0.511-0.279,1.128-0.131,1.38,0.33
				c0.252,0.461,0.042,1.061-0.469,1.339s-1.129,0.131-1.38-0.33C40.895,57.16,41.105,56.56,41.616,56.282z M42.514,60.125
				c0.511-0.279,1.128-0.131,1.38,0.33c0.252,0.461,0.042,1.061-0.469,1.339c-0.511,0.279-1.129,0.131-1.38-0.33
				C41.794,61.004,42.004,60.404,42.514,60.125z"/>
		</g>
	</g>
</g>
<g id="Layer_1">
</g>
</svg>
