<?xml version="1.0" encoding="iso-8859-1"?>
<!-- Generator: Adobe Illustrator 24.0.1, SVG Export Plug-In . SVG Version: 6.00 Build 0)  -->
<svg version="1.1" xmlns="http://www.w3.org/2000/svg" xmlns:xlink="http://www.w3.org/1999/xlink" x="0px" y="0px"
	 viewBox="0 0 100 100" style="enable-background:new 0 0 100 100;" xml:space="preserve">
<g id="Layer_5">
	<g>
		<g>
			<g>
				<g>
					<defs>
						<circle id="SVGID_1_" cx="50" cy="50" r="48.278"/>
					</defs>
					<use xlink:href="#SVGID_1_"  style="overflow:visible;fill:#007EFF;"/>
					<clipPath id="SVGID_2_">
						<use xlink:href="#SVGID_1_"  style="overflow:visible;"/>
					</clipPath>
					<rect x="1.722" y="1.722" style="clip-path:url(#SVGID_2_);fill:#007EFF;" width="96.555" height="96.555"/>
					<circle style="clip-path:url(#SVGID_2_);fill:#007EFF;" cx="50" cy="50" r="48.278"/>
					<circle style="clip-path:url(#SVGID_2_);fill:#007EFF;" cx="50" cy="50" r="45.737"/>
					<circle style="clip-path:url(#SVGID_2_);fill:#007EFF;" cx="50" cy="50" r="43.196"/>
					<circle style="clip-path:url(#SVGID_2_);fill:#007EFF;" cx="50" cy="50" r="40.655"/>
					<circle style="clip-path:url(#SVGID_2_);fill:#007EFF;" cx="50" cy="50" r="38.114"/>
					<circle style="clip-path:url(#SVGID_2_);fill:#007EFF;" cx="50" cy="50" r="35.573"/>
					<circle style="clip-path:url(#SVGID_2_);fill:#007EFF;" cx="50" cy="50" r="33.032"/>
					<circle style="clip-path:url(#SVGID_2_);fill:#007EFF;" cx="50" cy="50" r="30.491"/>
					<circle style="clip-path:url(#SVGID_2_);fill:#007EFF;" cx="50" cy="50" r="27.95"/>
					<circle style="clip-path:url(#SVGID_2_);fill:#007EFF;" cx="50" cy="50" r="25.409"/>
					<circle style="clip-path:url(#SVGID_2_);fill:#007EFF;" cx="50" cy="50" r="22.868"/>
					<circle style="clip-path:url(#SVGID_2_);fill:#007EFF;" cx="50" cy="50" r="20.327"/>
					<circle style="clip-path:url(#SVGID_2_);fill:#007EFF;" cx="50" cy="50" r="17.786"/>
					<circle style="clip-path:url(#SVGID_2_);fill:#007EFF;" cx="50" cy="50" r="15.246"/>
					<circle style="clip-path:url(#SVGID_2_);fill:#007EFF;" cx="50" cy="50" r="12.705"/>
					<circle style="clip-path:url(#SVGID_2_);fill:#007EFF;" cx="50" cy="50" r="10.164"/>
					<circle style="clip-path:url(#SVGID_2_);fill:#007EFF;" cx="50" cy="50" r="7.623"/>
					<circle style="clip-path:url(#SVGID_2_);fill:#007EFF;" cx="50" cy="50" r="5.082"/>
					<circle style="clip-path:url(#SVGID_2_);fill:#007EFF;" cx="50" cy="50" r="2.541"/>
				</g>
			</g>
		</g>
		<g>
			<path style="fill:#FFFFFF;" d="M47.48,60.86c0.53,0,1.06-0.05,1.57-0.16v6.26l-5.59,3.14c-0.37,0.21-0.82,0.2-1.18-0.01
				c-0.36-0.21-0.59-0.6-0.59-1.03V58.35C43.19,59.95,45.28,60.86,47.48,60.86z"/>
			<path style="fill:#FFFFFF;" d="M58.31,58.35v10.71c0,0.43-0.23,0.82-0.59,1.03c-0.19,0.11-0.39,0.16-0.6,0.16
				c-0.2,0-0.4-0.05-0.58-0.15l-4.84-2.72v-6.57c0.27,0.04,0.55,0.05,0.82,0.05C54.72,60.86,56.81,59.95,58.31,58.35z"/>
			<ellipse style="fill:#FFFFFF;" cx="50" cy="44.157" rx="6.216" ry="6.216"/>
			<path style="fill:#FFFFFF;" d="M63.99,43.28c-0.27-0.58-0.36-1.23-0.27-1.87c0.32-2.17-0.67-4.34-2.52-5.53
				c-0.54-0.34-0.97-0.84-1.24-1.42c-0.91-2-2.91-3.29-5.11-3.29c-0.64,0-1.27-0.18-1.81-0.53c-1.84-1.19-4.23-1.19-6.08,0
				c-0.54,0.35-1.16,0.53-1.81,0.53c-1.09,0-2.15,0.32-3.03,0.89c-0.9,0.58-1.62,1.4-2.08,2.39c-0.27,0.59-0.69,1.08-1.24,1.43
				c-1.84,1.19-2.83,3.36-2.52,5.53c0.09,0.64,0,1.28-0.27,1.87c-0.91,1.99-0.57,4.35,0.86,6.01c0.42,0.49,0.7,1.08,0.79,1.72
				c0.31,2.17,1.87,3.97,3.98,4.59c0.61,0.18,1.16,0.54,1.58,1.02c1.44,1.66,3.73,2.34,5.83,1.72c0.62-0.18,1.27-0.18,1.89,0
				c0.25,0.07,0.5,0.13,0.76,0.16c0.27,0.04,0.55,0.06,0.82,0.06c1.6,0,3.17-0.68,4.25-1.93c0.42-0.49,0.97-0.84,1.59-1.02
				c2.11-0.62,3.67-2.42,3.98-4.6c0.09-0.63,0.36-1.23,0.79-1.71C64.56,47.64,64.9,45.28,63.99,43.28z M50,52.75
				c-4.74,0-8.59-3.86-8.59-8.59c0-4.74,3.85-8.59,8.59-8.59s8.59,3.85,8.59,8.59C58.59,48.89,54.74,52.75,50,52.75z"/>
		</g>
		<path style="fill:#FFFFFF;" d="M51.7,58.34v0.16c-0.26-0.03-0.51-0.09-0.76-0.16H51.7z"/>
	</g>
</g>
<g id="Layer_1">
</g>
</svg>
