<?xml version="1.0" encoding="iso-8859-1"?>
<!-- Generator: Adobe Illustrator 24.0.1, SVG Export Plug-In . SVG Version: 6.00 Build 0)  -->
<svg version="1.1" id="regular" xmlns="http://www.w3.org/2000/svg" xmlns:xlink="http://www.w3.org/1999/xlink" x="0px" y="0px"
	 viewBox="0 0 150 150" style="enable-background:new 0 0 150 150;" xml:space="preserve">
<g>
	<g>
		<path style="fill:#5BE392;" d="M105.785,17.817h24.269c1.08,1.255,2.678,2.052,4.46,2.052c3.244,0,5.884-2.64,5.884-5.884
			s-2.64-5.884-5.884-5.884c-1.782,0-3.38,0.797-4.46,2.052h-49.61c-0.641-1.219-1.918-2.052-3.392-2.052h-4.104
			c-1.473,0-2.751,0.833-3.392,2.052h-49.61c-1.08-1.255-2.678-2.052-4.46-2.052c-3.244,0-5.884,2.64-5.884,5.884
			s2.64,5.884,5.884,5.884c1.782,0,3.38-0.797,4.46-2.052h24.269c-5.619,3.005-10.825,6.858-15.458,11.491
			C16.405,41.66,9.602,58.083,9.602,75.551c0,2.116,1.716,3.832,3.832,3.832s3.832-1.716,3.832-3.832
			c0-30.047,23.074-54.803,52.433-57.488c0.677,1.083,1.877,1.806,3.249,1.806h4.104c1.372,0,2.571-0.723,3.249-1.806
			c29.359,2.685,52.433,27.441,52.433,57.488c0,2.116,1.716,3.832,3.832,3.832s3.832-1.716,3.832-3.832
			c0-17.468-6.803-33.891-19.154-46.243C116.61,24.675,111.404,20.822,105.785,17.817z"/>
	</g>
</g>
<g>
	<g>
		<path style="fill:#5BE392;" d="M115.042,89.391L78.103,38.415c-0.721-0.994-1.875-1.583-3.103-1.583
			c-1.228,0-2.382,0.589-3.103,1.583l-36.94,50.976c-0.719,0.992-0.92,2.268-0.541,3.433l14.11,43.425
			c0.513,1.579,1.984,2.648,3.644,2.648h45.66c1.66,0,3.131-1.069,3.644-2.648l14.11-43.425
			C115.962,91.659,115.761,90.383,115.042,89.391z M95.045,131.233H54.954L42.307,92.309l28.861-39.827v51.444
			c-1.255,1.08-2.052,2.678-2.052,4.46c0,3.245,2.64,5.884,5.884,5.884c3.244,0,5.884-2.639,5.884-5.884
			c0-1.782-0.797-3.38-2.052-4.46V52.482l28.861,39.827L95.045,131.233z"/>
	</g>
</g>
</svg>
