<?xml version="1.0" encoding="iso-8859-1"?>
<!-- Generator: Adobe Illustrator 24.0.1, SVG Export Plug-In . SVG Version: 6.00 Build 0)  -->
<svg version="1.1" id="regular" xmlns="http://www.w3.org/2000/svg" xmlns:xlink="http://www.w3.org/1999/xlink" x="0px" y="0px"
	 viewBox="0 0 150 150" style="enable-background:new 0 0 150 150;" xml:space="preserve">
<g>
	<g>
		<path style="fill:#5BE392;" d="M101.538,27.567C94.363,20.5,84.936,16.604,75,16.604c-20.698,0-37.542,16.844-37.542,37.542
			v58.399c0,2.303,1.869,4.171,4.171,4.171h8.343c2.303,0,4.171-1.869,4.171-4.171c0-2.303-1.869-4.171-4.171-4.171H45.8V54.146
			C45.8,38.045,58.898,24.947,75,24.947c7.734,0,15.084,3.037,20.64,8.518c5.523,5.598,8.56,12.939,8.56,20.681v54.227h-4.171
			c-2.303,0-4.171,1.869-4.171,4.171c0,2.303,1.869,4.171,4.171,4.171h8.343c2.303,0,4.171-1.869,4.171-4.171V54.146
			C112.542,44.202,108.646,34.775,101.538,27.567z"/>
	</g>
</g>
<g>
	<g>
		<path style="fill:#5BE392;" d="M83.342,108.374H66.657c-2.303,0-4.171,1.869-4.171,4.171c0,2.303,1.869,4.171,4.171,4.171h16.685
			c2.303,0,4.171-1.869,4.171-4.171C87.514,110.243,85.645,108.374,83.342,108.374z"/>
	</g>
</g>
<g>
	<g>
		<path style="fill:#5BE392;" d="M66.657,108.374c-2.303,0-4.171,1.869-4.171,4.171v16.685c0,2.294-1.869,4.171-4.171,4.171
			s-4.171-1.877-4.171-4.171v-16.685c0-2.303-1.869-4.171-4.171-4.171s-4.171,1.869-4.171,4.171v16.685
			c0,6.899,5.615,12.514,12.514,12.514s12.514-5.615,12.514-12.514v-16.685C70.828,110.243,68.96,108.374,66.657,108.374z"/>
	</g>
</g>
<g>
	<g>
		<path style="fill:#5BE392;" d="M100.028,108.374c-2.303,0-4.171,1.869-4.171,4.171v16.685c0,2.294-1.877,4.171-4.171,4.171
			c-2.294,0-4.171-1.877-4.171-4.171v-16.685c0-2.303-1.869-4.171-4.171-4.171c-2.303,0-4.171,1.869-4.171,4.171v16.685
			c0,6.899,5.615,12.514,12.514,12.514c6.899,0,12.514-5.615,12.514-12.514v-16.685C104.199,110.243,102.33,108.374,100.028,108.374
			z"/>
	</g>
</g>
<g>
	<g>
		<path style="fill:#5BE392;" d="M24.944,49.975c-2.303,0-4.171,1.869-4.171,4.171V95.86c0,2.303,1.869,4.171,4.171,4.171
			s4.171-1.869,4.171-4.171V54.146C29.115,51.844,27.246,49.975,24.944,49.975z"/>
	</g>
</g>
<g>
	<g>
		<path style="fill:#5BE392;" d="M125.056,49.975c-2.303,0-4.171,1.869-4.171,4.171V95.86c0,2.303,1.869,4.171,4.171,4.171
			c2.303,0,4.171-1.869,4.171-4.171V54.146C129.227,51.844,127.358,49.975,125.056,49.975z"/>
	</g>
</g>
<g>
	<g>
		<path style="fill:#5BE392;" d="M108.37,49.975H41.629c-2.303,0-4.171,1.869-4.171,4.171s1.869,4.171,4.171,4.171h66.741
			c2.303,0,4.171-1.869,4.171-4.171S110.673,49.975,108.37,49.975z"/>
	</g>
</g>
<g>
	<g>
		<path style="fill:#5BE392;" d="M56.145,27.191L45.133,10.172c-1.251-1.944-3.838-2.494-5.765-1.243
			c-1.936,1.251-2.494,3.838-1.243,5.765l11.012,17.019c0.793,1.235,2.136,1.91,3.504,1.91c0.784,0,1.56-0.217,2.261-0.667
			C56.838,31.705,57.397,29.118,56.145,27.191z"/>
	</g>
</g>
<g>
	<g>
		<path style="fill:#5BE392;" d="M110.481,8.829c-1.961-1.16-4.538-0.509-5.706,1.485L94.43,27.917
			c-1.168,1.994-0.501,4.547,1.485,5.715c0.659,0.392,1.385,0.576,2.111,0.576c1.427,0,2.82-0.742,3.596-2.061l10.345-17.603
			C113.134,12.55,112.467,9.997,110.481,8.829z"/>
	</g>
</g>
<g>
	<g>
		<path style="fill:#5BE392;" d="M83.509,33.29h-0.083c-2.311,0-4.13,1.869-4.13,4.171c0,2.303,1.91,4.171,4.213,4.171
			c2.303,0,4.171-1.869,4.171-4.171C87.68,35.158,85.812,33.29,83.509,33.29z"/>
	</g>
</g>
<g>
	<g>
		<path style="fill:#5BE392;" d="M66.824,33.29H66.74c-2.303,0-4.13,1.869-4.13,4.171c0,2.303,1.91,4.171,4.213,4.171
			c2.303,0,4.171-1.869,4.171-4.171C70.995,35.158,69.126,33.29,66.824,33.29z"/>
	</g>
</g>
</svg>
