<?xml version="1.0" encoding="windows-1252"?>
<!-- Generator: Adobe Illustrator 24.0.1, SVG Export Plug-In . SVG Version: 6.00 Build 0)  -->
<svg version="1.1" id="regular" xmlns="http://www.w3.org/2000/svg" xmlns:xlink="http://www.w3.org/1999/xlink" x="0px" y="0px" viewBox="0 0 150 150" style="enable-background:new 0 0 150 150;" xml:space="preserve">
<g>
	<g>
		<g id="group-6svg">
			<g id="path-1_37_">
				<path style="fill:#5BE392;" d="M91.598,140.15c-3.734,0-7.189-1.052-10.237-3.133l-0.193-0.129      c-0.086-0.064-2.597-1.931-6.889-1.931c-2.683,0-5.494,0.751-8.348,2.21c-0.858,0.537-4.872,2.79-10.001,2.79      c-4.206,0-8.026-1.459-11.374-4.314c-5.301-4.55-22.749-21.568-24.487-49.918c-0.794-12.919,3.412-25.281,11.546-33.908      c7.361-7.833,17.126-11.353,26.461-9.486c0.215,0.021,7.146,1.202,13.928,5.065c3.605-1.803,12.533-5.709,22.255-5.709      c11.632,0,20.667,5.644,26.118,16.289l1.245,2.425l-2.21,1.567c-0.107,0.086-12.061,8.67-12.018,19.057      c0.021,5.666,3.691,11.095,10.924,16.139c2.275,1.567,3.82,4.035,4.314,6.76c2.318,8.499-13.714,29.294-23.349,34.702      l-0.236,0.129C98.766,138.841,95.74,140.15,91.598,140.15z M84.967,131.888c1.974,1.331,4.206,1.996,6.653,1.996      c2.447,0,4.357-0.687,4.807-0.858c9.915-5.687,21.203-23.95,20.238-27.47l-0.129-0.515c-0.172-1.137-0.816-2.168-1.738-2.811      c-9.014-6.288-13.585-13.435-13.606-21.268c-0.021-10.494,8.305-18.886,12.426-22.405c-4.399-7.082-10.902-10.688-19.315-10.688      c-10.709,0-20.71,5.687-20.796,5.752l-1.652,0.944l-1.61-1.03c-6.159-3.927-13.177-5.108-13.263-5.129      c-1.374-0.279-2.661-0.408-3.927-0.408c-6.009,0-11.997,2.854-16.868,8.026c-6.846,7.275-10.537,18.22-9.851,29.251      c1.588,25.903,17.469,41.42,22.298,45.562c2.189,1.867,4.636,2.811,7.318,2.811c3.777,0,6.717-1.846,6.739-1.867l0.279-0.172      c3.799-1.953,7.597-2.962,11.331-2.962C80.353,128.69,84.173,131.308,84.967,131.888z"/>
				<path style="fill:#5BE392;" d="M91.598,140.687c-3.859,0-7.405-1.086-10.539-3.227l-0.212-0.142      c-0.1-0.074-2.484-1.824-6.567-1.824c-2.579,0-5.298,0.72-8.084,2.141c-0.561,0.347-4.805,2.859-10.265,2.859      c-4.321,0-8.265-1.495-11.722-4.442c-5.347-4.59-22.926-21.777-24.674-50.294c-0.803-13.071,3.458-25.576,11.691-34.309      c3.672-3.908,8.064-6.853,12.699-8.517c4.647-1.668,9.569-2.059,14.234-1.131c0.923,0.107,7.56,1.461,13.863,4.989      c3.644-1.795,12.577-5.638,22.239-5.638c11.844,0,21.041,5.734,26.596,16.581l1.457,2.838l-2.609,1.85      c-1.209,0.894-11.812,9.016-11.772,18.603c0.021,5.484,3.619,10.767,10.694,15.701c2.351,1.619,4.003,4.2,4.53,7.082      c2.368,8.818-13.847,29.809-23.611,35.289l-0.289,0.158l-0.052,0.016c-0.023,0.008-0.069,0.025-0.133,0.049      C96.057,140.449,93.344,140.687,91.598,140.687z M81.477,136.449l0.182,0.121c2.958,2.021,6.3,3.043,9.939,3.043      c1.657,0,4.232-0.226,7.095-1.301c0.055-0.021,0.1-0.037,0.135-0.05l0.197-0.108c9.279-5.208,25.338-25.843,23.089-34.09      l-0.01-0.046c-0.473-2.612-1.964-4.949-4.09-6.414c-7.381-5.147-11.134-10.724-11.156-16.578      c-0.042-10.115,10.953-18.542,12.207-19.47l0.021-0.016l1.847-1.31l-1.032-2.011c-5.359-10.466-14.226-15.997-25.641-15.997      c-9.668,0-18.616,3.953-22.015,5.652l-0.256,0.128l-0.249-0.142c-6.806-3.877-13.659-4.99-13.723-4.998l-0.045-0.007      c-4.481-0.897-9.213-0.522-13.685,1.084c-4.477,1.607-8.723,4.457-12.281,8.243c-8.031,8.519-12.187,20.732-11.401,33.508      c1.723,28.096,19.036,45.025,24.301,49.544c3.256,2.776,6.966,4.184,11.025,4.184c5.232,0,9.273-2.431,9.716-2.708l0.04-0.023      c2.945-1.506,5.836-2.269,8.593-2.269C78.582,134.42,81.141,136.2,81.477,136.449z M91.62,134.42      c-2.558,0-4.897-0.702-6.953-2.088l-0.016-0.012c-0.995-0.726-4.682-3.097-10.354-3.137c-3.601,0-7.324,0.973-11.064,2.893      l-0.261,0.161l-0.002-0.003c-0.586,0.393-3.456,1.95-7.018,1.95c-2.8,0-5.379-0.989-7.666-2.94      C43.414,127.066,27.4,111.408,25.8,85.308c-0.696-11.176,3.041-22.261,9.995-29.652c4.978-5.285,11.107-8.195,17.259-8.195      c1.329,0,2.648,0.137,4.034,0.418l0.04,0.008c1.239,0.23,7.709,1.563,13.405,5.195l1.337,0.856l1.371-0.783l0.001,0.001      c0.413-0.247,2.929-1.614,6.493-2.938c3.544-1.316,8.948-2.885,14.568-2.885c8.609,0,15.261,3.681,19.771,10.941l0.243,0.392      l-0.35,0.299c-10.668,9.113-12.247,17.693-12.238,21.996c0.021,7.643,4.522,14.651,13.377,20.829      c1.046,0.73,1.759,1.875,1.958,3.145l0.123,0.491c1.119,4.078-10.808,22.511-20.491,28.066l-0.076,0.036      C95.913,133.795,94.014,134.42,91.62,134.42z M85.275,131.448c1.873,1.26,4.008,1.899,6.345,1.899      c2.223,0,4.021-0.6,4.577-0.809c4.309-2.485,9.405-7.718,13.987-14.366c4.361-6.326,6.327-11.149,5.963-12.476l-0.142-0.577      c-0.15-0.99-0.702-1.884-1.515-2.451c-9.159-6.389-13.814-13.692-13.836-21.706c-0.009-4.676,1.589-9.427,4.751-14.119      c2.459-3.649,5.379-6.534,7.51-8.391c-4.296-6.667-10.556-10.047-18.614-10.047c-10.394,0-20.088,5.426-20.495,5.66l-0.034,0.02      l-1.934,1.105l-1.883-1.205c-5.528-3.525-11.819-4.82-13.023-5.044c-0.024-0.005-0.043-0.008-0.057-0.011v0      c-1.315-0.267-2.565-0.397-3.821-0.397c-5.853,0-11.705,2.791-16.478,7.858c-6.755,7.178-10.383,17.964-9.706,28.85      c1.574,25.681,17.323,41.08,22.112,45.188c2.086,1.779,4.431,2.682,6.969,2.682c3.37,0,6.068-1.552,6.4-1.751l0.002-0.003      l0.37-0.226c3.899-2.004,7.794-3.021,11.577-3.021C80.281,128.153,84.203,130.668,85.275,131.448z"/>
			</g>
			<g id="path-2_25_">
				<path style="fill:#5BE392;" d="M71.511,42.288c-0.687,0-1.373-0.236-1.91-0.665c-0.73-0.579-1.18-1.459-1.202-2.382      c-0.021-0.88-0.279-21.504,25.431-30.281c0.901-0.3,1.889-0.193,2.683,0.322c0.794,0.515,1.331,1.352,1.438,2.296      c0.021,0.236,2.404,24.208-25.732,30.625C71.983,42.267,71.747,42.288,71.511,42.288z M91.556,16.6      C80.16,21.858,76.447,29.927,75.224,34.841C87.521,30.528,90.761,21.858,91.556,16.6z"/>
				<path style="fill:#5BE392;" d="M71.511,42.825c-0.817,0-1.614-0.278-2.245-0.783c-0.853-0.677-1.378-1.72-1.403-2.789      c-0.022-0.89-0.233-21.916,25.794-30.802c1.077-0.359,2.223-0.22,3.148,0.379c0.943,0.612,1.555,1.59,1.679,2.686      c0.096,1.024,1.987,24.786-26.135,31.206C72.094,42.792,71.819,42.825,71.511,42.825z M94.85,9.329      c-0.283,0-0.569,0.046-0.85,0.139c-25.287,8.633-25.085,28.901-25.064,29.759c0.018,0.754,0.391,1.492,0.999,1.975      c0.437,0.349,1.011,0.549,1.576,0.549c0.219,0,0.4-0.021,0.567-0.067l0.022-0.005c27.226-6.21,25.408-29.076,25.317-30.047      c-0.087-0.77-0.524-1.465-1.196-1.901C95.81,9.465,95.336,9.329,94.85,9.329z M74.463,35.677l0.24-0.965      c0.823-3.305,2.318-6.396,4.445-9.188c2.955-3.879,7.054-7.045,12.183-9.412l0.904-0.417l-0.149,0.984      c-0.763,5.054-3.946,14.199-16.685,18.668L74.463,35.677z M90.847,17.532c-9.485,4.675-13.317,11.312-14.833,16.447      C86.636,29.886,89.88,22.334,90.847,17.532z"/>
			</g>
		</g>
	</g>
</g>
</svg>