<?xml version="1.0" encoding="iso-8859-1"?>
<!-- Generator: Adobe Illustrator 24.0.1, SVG Export Plug-In . SVG Version: 6.00 Build 0)  -->
<svg version="1.1" id="regular" xmlns="http://www.w3.org/2000/svg" xmlns:xlink="http://www.w3.org/1999/xlink" x="0px" y="0px"
	 viewBox="0 0 150 150" style="enable-background:new 0 0 150 150;" xml:space="preserve">
<g>
	<path style="fill:#5BE392;" d="M64.095,127.239H11.269c-4.699,0-8.52-3.823-8.52-8.52V32.378c0-4.698,3.822-8.52,8.52-8.52h103.38
		c4.699,0,8.522,3.823,8.522,8.52v27.339c0,1.569-1.273,2.84-2.842,2.84c-1.567,0-2.84-1.271-2.84-2.84V32.378
		c0-1.565-1.274-2.84-2.84-2.84H11.269c-1.566,0-2.84,1.275-2.84,2.84v86.341c0,1.566,1.274,2.84,2.84,2.84h52.826
		c1.569,0,2.84,1.272,2.84,2.84C66.935,125.967,65.664,127.239,64.095,127.239z"/>
	<path style="fill:#5BE392;" d="M75.493,127.24c-0.747,0-1.48-0.304-2.008-0.832c-0.532-0.528-0.832-1.261-0.832-2.008
		c0-0.75,0.3-1.48,0.832-2.008c0.528-0.531,1.258-0.832,2.008-0.832c0.746,0,1.479,0.301,2.008,0.832
		c0.528,0.528,0.832,1.262,0.832,2.008c0,0.746-0.304,1.477-0.832,2.008C76.972,126.935,76.239,127.24,75.493,127.24z"/>
	<path style="fill:#5BE392;" d="M114.649,127.239H99.88c-1.568,0-2.84-1.272-2.84-2.84c0-1.568,1.272-2.84,2.84-2.84h14.768
		c1.566,0,2.84-1.274,2.84-2.84V92.306c0-1.569,1.273-2.841,2.84-2.841c1.569,0,2.842,1.272,2.842,2.841v26.413
		C123.171,123.416,119.347,127.239,114.649,127.239z"/>
	<path style="fill:#5BE392;" d="M119.186,49.988H7.9c-1.569,0-2.84-1.272-2.84-2.84c0-1.569,1.271-2.84,2.84-2.84h111.286
		c1.568,0,2.84,1.271,2.84,2.84C122.027,48.716,120.755,49.988,119.186,49.988z"/>
	<path style="fill:#5BE392;" d="M106.318,39.762h-41.94c-1.568,0-2.84-1.271-2.84-2.84c0-1.568,1.272-2.84,2.84-2.84h41.94
		c1.569,0,2.84,1.272,2.84,2.84C109.158,38.491,107.887,39.762,106.318,39.762z"/>
	<path style="fill:#5BE392;" d="M27.404,39.764c-0.746,0-1.48-0.304-2.008-0.832c-0.528-0.528-0.832-1.261-0.832-2.008
		c0-0.75,0.304-1.48,0.832-2.01c0.528-0.53,1.262-0.83,2.008-0.83c0.746,0,1.479,0.3,2.008,0.83c0.528,0.53,0.832,1.26,0.832,2.01
		c0,0.746-0.304,1.479-0.832,2.008C28.883,39.459,28.15,39.764,27.404,39.764z"/>
	<path style="fill:#5BE392;" d="M16.934,39.764c-0.747,0-1.479-0.304-2.008-0.832c-0.529-0.528-0.832-1.261-0.832-2.008
		c0-0.75,0.304-1.48,0.832-2.01c0.528-0.53,1.26-0.83,2.008-0.83s1.479,0.3,2.008,0.83c0.529,0.53,0.833,1.26,0.833,2.01
		c0,0.746-0.304,1.479-0.833,2.008C18.414,39.459,17.682,39.764,16.934,39.764z"/>
	<path style="fill:#5BE392;" d="M37.872,39.764c-0.746,0-1.48-0.304-2.01-0.832c-0.528-0.528-0.83-1.261-0.83-2.008
		c0-0.75,0.302-1.48,0.83-2.01c0.53-0.53,1.26-0.83,2.01-0.83c0.747,0,1.479,0.3,2.008,0.83c0.528,0.53,0.832,1.263,0.832,2.01
		c0,0.746-0.304,1.479-0.832,2.008C39.349,39.459,38.619,39.764,37.872,39.764z"/>
	<path style="fill:#5BE392;" d="M45.692,97.215c-0.727,0-1.455-0.278-2.008-0.832l-9.585-9.583c-1.109-1.109-1.109-2.908,0-4.017
		l9.585-9.584c1.108-1.109,2.907-1.109,4.016,0c1.109,1.109,1.109,2.908,0,4.017l-7.577,7.576l7.577,7.576
		c1.109,1.109,1.109,2.907,0,4.016C47.146,96.937,46.419,97.215,45.692,97.215z"/>
	<path style="fill:#5BE392;" d="M80.226,97.215c-0.726,0-1.454-0.278-2.008-0.832c-1.109-1.109-1.109-2.908,0-4.017l7.576-7.576
		l-7.576-7.576c-1.109-1.109-1.109-2.907,0-4.016c1.109-1.109,2.908-1.109,4.017,0l9.584,9.584c1.109,1.109,1.109,2.908,0,4.017
		l-9.584,9.583C81.68,96.937,80.953,97.215,80.226,97.215z"/>
	<path style="fill:#5BE392;" d="M56.19,99.145c-0.489,0-0.985-0.127-1.437-0.393c-1.353-0.794-1.803-2.535-1.009-3.887
		l13.532-23.028c0.795-1.352,2.537-1.803,3.888-1.009c1.353,0.794,1.804,2.535,1.01,3.887L58.641,97.743
		C58.112,98.644,57.163,99.145,56.19,99.145z"/>
	<path style="fill:#5BE392;" d="M86.636,137.084c-0.487,0-0.978-0.125-1.419-0.38c-1.023-0.59-1.574-1.753-1.384-2.918l3.631-22.194
		c0.056-0.339,0.172-0.665,0.344-0.962l6.799-11.777c0.785-1.359,2.521-1.825,3.879-1.039c1.358,0.785,1.824,2.521,1.04,3.879
		l-6.54,11.327l-2.335,14.268l11.189-9.156l39.955-69.203c1.408-2.441,0.57-5.574-1.872-6.984c-2.441-1.409-5.574-0.57-6.984,1.872
		l-21.938,37.999c-0.785,1.358-2.521,1.824-3.88,1.039c-1.358-0.784-1.824-2.521-1.039-3.879l21.939-37.999
		c2.976-5.154,9.589-6.926,14.743-3.95c5.154,2.975,6.926,9.589,3.951,14.743l-40.215,69.653c-0.171,0.297-0.396,0.561-0.661,0.777
		l-17.405,14.243C87.916,136.866,87.277,137.084,86.636,137.084z"/>
	<path style="fill:#5BE392;" d="M102.862,93.075c-0.746,0-1.479-0.302-2.01-0.832c-0.529-0.528-0.83-1.262-0.83-2.008
		s0.301-1.479,0.83-2.008c0.531-0.528,1.264-0.832,2.01-0.832c0.747,0,1.48,0.304,2.008,0.832c0.528,0.528,0.832,1.261,0.832,2.008
		s-0.304,1.48-0.832,2.008C104.343,92.774,103.61,93.075,102.862,93.075z"/>
	<path style="fill:#5BE392;" d="M103.712,122.653c-0.483,0-0.971-0.122-1.418-0.38l-12.638-7.298
		c-1.359-0.785-1.824-2.521-1.039-3.879c0.785-1.358,2.521-1.824,3.879-1.039l12.638,7.297c1.359,0.785,1.824,2.521,1.039,3.879
		C105.647,122.144,104.693,122.653,103.712,122.653z"/>
	<path style="fill:#5BE392;" d="M141.52,57.924c-0.482,0-0.97-0.122-1.418-0.381l-13.773-7.952
		c-1.359-0.784-1.824-2.521-1.039-3.879c0.785-1.358,2.521-1.824,3.879-1.039l13.773,7.952c1.359,0.785,1.824,2.521,1.039,3.879
		C143.456,57.415,142.502,57.924,141.52,57.924z"/>
</g>
</svg>
