<?xml version="1.0" encoding="iso-8859-1"?>
<!-- Generator: Adobe Illustrator 24.0.1, SVG Export Plug-In . SVG Version: 6.00 Build 0)  -->
<svg version="1.1" id="regular" xmlns="http://www.w3.org/2000/svg" xmlns:xlink="http://www.w3.org/1999/xlink" x="0px" y="0px"
	 viewBox="0 0 150 150" style="enable-background:new 0 0 150 150;" xml:space="preserve">
<g>
	<g>
		<path style="fill:#5BE392;" d="M107.372,112.77c-1.487,0-2.693,1.207-2.693,2.693s1.207,2.693,2.693,2.693
			c1.487,0,2.693-1.207,2.693-2.693S108.858,112.77,107.372,112.77z"/>
	</g>
</g>
<g>
	<g>
		<path style="fill:#5BE392;" d="M114.003,104.061l-12.8-4.266l-4.595-9.191c4.14-4.214,7.014-9.789,7.983-15.604l0.573-3.435h4.901
			c4.455,0,8.079-3.624,8.079-8.079V46.519c0-22.275-18.122-40.397-40.397-40.397c-22.332,0-40.397,18.07-40.397,40.397v16.967
			c0,3.511,2.252,6.504,5.386,7.616v3.156c0,4.455,3.624,8.079,8.079,8.079h2.365c1.167,2.536,2.679,4.885,4.517,6.995
			c0.381,0.438,0.779,0.863,1.187,1.277l-4.593,9.186l-12.801,4.266c-14.884,4.963-25.686,20.631-25.686,37.255
			c0,1.487,1.206,2.693,2.693,2.693h118.497c1.487,0,2.693-1.206,2.693-2.693C139.689,124.693,128.887,109.024,114.003,104.061z
			 M112.758,63.486c0,1.485-1.208,2.693-2.693,2.693h-4.11c0.685-5.303,1.141-10.946,1.324-16.503
			c0.005-0.157,0.01-0.309,0.015-0.463h5.465V63.486z M45.43,66.179c-1.485,0-2.693-1.208-2.693-2.693V49.212h5.466
			c0.009,0.281,0.018,0.563,0.029,0.847c0,0.01,0.001,0.019,0.001,0.029c0,0.001,0,0.002,0,0.002
			c0.189,5.406,0.639,10.902,1.308,16.088L45.43,66.179L45.43,66.179z M50.816,76.951c-1.485,0-2.693-1.208-2.693-2.693v-2.693
			h2.208l0.573,3.436c0.109,0.653,0.244,1.304,0.399,1.95H50.816z M48.128,43.826h-5.288c1.364-18.05,16.427-32.317,34.908-32.317
			c18.399,0,33.528,14.266,34.908,32.317h-5.288c-0.194-14.873-12.306-26.931-27.209-26.931h-4.821
			C60.434,16.895,48.322,28.953,48.128,43.826z M75.337,22.281h4.821c12.068,0,21.835,9.871,21.828,21.925
			c0,0.848-0.007,1.585-0.021,2.257c0,0.009,0,0.018,0,0.026l-3.369-0.481c-9.151-1.307-17.792-5.627-24.33-12.165
			c-0.505-0.505-1.19-0.789-1.904-0.789c-7.233,0-14.156,3.295-18.733,8.863C54.756,30.95,64.027,22.281,75.337,22.281z
			 M56.887,76.951c-1.348-4.485-2.891-17.681-3.232-26.138l3.625-4.833c3.329-4.437,8.508-7.194,14.017-7.511
			c7.249,6.899,16.627,11.454,26.537,12.869l3.965,0.567c-0.265,5.625-0.807,11.269-1.582,16.46c0,0.002-0.001,0.004-0.001,0.005
			c-0.247,1.669-0.441,2.743-0.938,5.743c-1.426,8.555-7.809,16.291-16.236,18.397c-3.468,0.866-7.121,0.866-10.587,0
			c-5.262-1.315-10.086-4.956-13.2-10.174h5.49c1.112,3.135,4.105,5.386,7.616,5.386h5.386c4.464,0,8.079-3.615,8.079-8.079
			c0-4.455-3.624-8.079-8.079-8.079h-5.386c-3.589,0-6.538,2.318-7.621,5.386H56.887z M72.135,97.962
			c1.847,0.389,3.731,0.588,5.613,0.588c1.473,0,2.947-0.123,4.404-0.362l-4.759,5.033L72.135,97.962z M73.69,107.136l-8.542,9.033
			c-2.352-4.501-4.372-9.186-6.03-13.982l3.208-6.416L73.69,107.136z M92.712,94.859l3.664,7.328
			c-1.66,4.804-3.681,9.49-6.03,13.986l-9.143-9.143L92.712,94.859z M69.668,79.645c0-1.487,1.206-2.693,2.693-2.693h5.386
			c1.485,0,2.693,1.208,2.693,2.693c0,1.487-1.206,2.693-2.693,2.693h-5.386C70.876,82.338,69.668,81.13,69.668,79.645z
			 M21.3,138.624c1.067-13.341,9.946-25.468,21.896-29.453l11.336-3.778c2.077,5.743,4.65,11.325,7.665,16.627
			c0.005,0.009,0.01,0.018,0.015,0.027c0,0,0,0,0,0.001c2.203,3.875,4.683,7.662,7.372,11.257l3.313,5.319H21.3z M77.748,136.223
			l-3.652-5.864c-0.041-0.066-0.085-0.13-0.131-0.191c-2.181-2.909-4.215-5.952-6.068-9.066l9.604-10.157l10.12,10.12
			c-1.865,3.137-3.907,6.192-6.089,9.102C81.399,130.343,81.587,130.066,77.748,136.223z M82.598,138.624l3.313-5.318
			c2.7-3.609,5.198-7.426,7.423-11.347c0.013-0.024,0.026-0.048,0.04-0.072c0.002-0.003,0.003-0.006,0.005-0.009
			c2.977-5.252,5.523-10.785,7.585-16.485l11.336,3.778c11.95,3.985,20.829,16.111,21.896,29.453H82.598L82.598,138.624z"/>
	</g>
</g>
<g>
	<g>
		<path style="fill:#5BE392;" d="M126.101,127.725c-1.8-3.603-4.436-6.803-7.624-9.255c-1.179-0.907-2.87-0.687-3.777,0.492
			c-0.907,1.179-0.686,2.87,0.492,3.777c2.546,1.959,4.652,4.515,6.089,7.393c0.666,1.333,2.285,1.869,3.613,1.206
			C126.226,130.673,126.766,129.056,126.101,127.725z"/>
	</g>
</g>
</svg>
