<?xml version="1.0" encoding="utf-8"?>
<!-- Generator: Adobe Illustrator 21.0.0, SVG Export Plug-In . SVG Version: 6.00 Build 0)  -->
<svg version="1.1" id="Layer_1" xmlns="http://www.w3.org/2000/svg" xmlns:xlink="http://www.w3.org/1999/xlink" x="0px" y="0px"
	 viewBox="0 0 158 158" style="enable-background:new 0 0 158 158;" xml:space="preserve">
<style type="text/css">
	.st0{fill:#303030;}
</style>
<g>
	<g>
		<path class="st0" d="M40.5,61l-5.2-2.3c-1.7-0.7-3-2.1-3.8-3.8l-2.3-5.2c-0.3-0.8-1.1-1.3-1.9-1.3s-1.6,0.5-1.9,1.3L23,54.9
			c-0.7,1.7-2.1,3-3.8,3.8L14.1,61c-0.8,0.3-1.3,1.1-1.3,1.9c0,0.8,0.5,1.6,1.3,1.9l5.2,2.3c1.7,0.7,3,2.1,3.8,3.8l2.3,5.2
			c0.3,0.8,1.1,1.3,1.9,1.3s1.6-0.5,1.9-1.3l2.3-5.2c0.7-1.7,2.1-3,3.8-3.8l5.2-2.3c0.8-0.3,1.3-1.1,1.3-1.9
			C41.7,62.1,41.2,61.3,40.5,61z M33.6,63.3c-2.6,1.2-4.7,3.3-5.9,5.9L27.3,70l-0.4-0.8c-1.2-2.6-3.3-4.7-5.9-5.9l-0.8-0.4l0.8-0.4
			c2.6-1.2,4.7-3.3,5.9-5.9l0.4-0.8l0.4,0.8c1.2,2.6,3.3,4.7,5.9,5.9l0.8,0.4L33.6,63.3z"/>
	</g>
</g>
<g>
	<g>
		<path class="st0" d="M145.2,22.3H87.9l-4.8-2.1c-1.7-0.7-3-2.1-3.8-3.8L77,11.3c-0.3-0.8-1.1-1.3-1.9-1.3s-1.6,0.5-1.9,1.3
			l-2.3,5.2c-0.7,1.7-2.1,3-3.8,3.8l-4.8,2.1H12.8c-3.5,0-6.4,2.9-6.4,6.4V39c0,1.2,1,2.1,2.1,2.1c1.2,0,2.1-1,2.1-2.1V28.7
			c0-1.2,1-2.1,2.1-2.1h49.6l4.8,2.1c1.7,0.7,3,2.1,3.8,3.8l2.3,5.2c0.3,0.8,1.1,1.3,1.9,1.3s1.6-0.5,1.9-1.3l2.3-5.2
			c0.7-1.7,2.1-3,3.8-3.8l4.8-2.1h57.4c1.2,0,2.1,1,2.1,2.1v77.1h-4.2l-4.8-2.2c-1.7-0.7-3-2.1-3.8-3.8l-2.3-5.2
			c-0.3-0.8-1.1-1.3-1.9-1.3c-0.8,0-1.6,0.5-1.9,1.3l-2.3,5.2c-0.7,1.7-2.1,3-3.8,3.8l-4.8,2.2h-2.3V40c0-0.6-0.2-1.1-0.6-1.5
			s-0.9-0.6-1.5-0.6H85c-1.2,0-2.1,1-2.1,2.1v14.4c0,1.2,1,2.1,2.1,2.1c1.2,0,2.1-1,2.1-2.1V42.2H111v14h-6.5c-1.2,0-2.1,1-2.1,2.1
			c0,1.2,1,2.1,2.1,2.1h6.5V69h-10c-1.2,0-2.1,1-2.1,2.1c0,1.2,1,2.1,2.1,2.1h10v8.6h-6.5c-1.2,0-2.1,1-2.1,2.1c0,1.2,1,2.1,2.1,2.1
			h6.5v8.6h-10c-1.2,0-2.1,1-2.1,2.1c0,1.2,1,2.1,2.1,2.1h10v6.9H87.1V62.9c0-1.2-1-2.1-2.1-2.1c-1.2,0-2.1,1-2.1,2.1v42.9h-12V62.1
			c0-0.4-0.1-0.8-0.3-1.1l-5.9-11.6l0,0l-5.2-10.3c-0.4-0.7-1.1-1.2-1.9-1.2c-0.8,0-1.5,0.5-1.9,1.2l-11.2,22l0,0
			c0,0.1-0.1,0.1-0.1,0.2c0,0,0,0,0,0.1s0,0.1-0.1,0.2l0,0c0,0.1,0,0.2,0,0.2s0,0,0,0.1V62v20.8c0,1.2,1,2.1,2.1,2.1s2.1-1,2.1-2.1
			V64.2h18.1v41.6H48.5V91.4c0-1.2-1-2.1-2.1-2.1s-2.1,1-2.1,2.1v14.5H10.6V47.5c0-1.2-1-2.1-2.1-2.1c-1.2,0-2.1,1-2.1,2.1V108v15.4
			c0,3.5,2.9,6.4,6.4,6.4h46.6l-1.2,10.6H48.1c-1.2,0-2.1,1-2.1,2.1v7.5c0,1.2,1,2.1,2.1,2.1H110c1.2,0,2.1-1,2.1-2.1v-7.5
			c0-1.2-1-2.1-2.1-2.1H99.8l-1.2-10.6h46.6c3.5,0,6.4-2.9,6.4-6.4V108V28.7C151.6,25.2,148.8,22.3,145.2,22.3z M81.4,24.8
			c-2.6,1.2-4.7,3.3-5.9,5.9l-0.4,0.8l-0.4-0.8c-0.1-0.2-0.2-0.3-0.2-0.5c-1.2-2.4-3.2-4.3-5.7-5.4L68,24.5l0.8-0.4
			c2.6-1.2,4.7-3.3,5.9-5.9l0.4-0.8l0.4,0.8c1.2,2.6,3.3,4.7,5.9,5.9l0.8,0.4L81.4,24.8z M49.9,59.9l3.8-7.5h7.8l3.8,7.5H49.9z
			 M124.1,107.6c2.6-1.2,4.7-3.3,5.9-5.9l0.4-0.8l0.4,0.8c1.2,2.6,3.3,4.7,5.9,5.9l0.8,0.4l-0.8,0.4c-2.6,1.2-4.7,3.3-5.9,5.9
			l-0.4,0.8l-0.4-0.8c-1.2-2.6-3.3-4.7-5.9-5.9l-0.8-0.4L124.1,107.6z M107.8,144.5v3.2H50.2v-3.2H107.8z M62.4,140.3l1.2-10.6h30.7
			l1.2,10.6H62.4z M147.4,123.3c0,1.2-1,2.1-2.1,2.1H12.8c-1.2,0-2.1-1-2.1-2.1v-13.2h107l4.7,2.1c1.7,0.7,3,2.1,3.8,3.8l2.3,5.2
			c0.3,0.8,1.1,1.3,1.9,1.3c0.8,0,1.6-0.5,1.9-1.3l2.3-5.2c0.7-1.7,2.1-3,3.8-3.8l4.7-2.1h4.3V123.3L147.4,123.3z"/>
	</g>
</g>
</svg>
