<?xml version="1.0" encoding="utf-8"?>
<!-- Generator: Adobe Illustrator 21.0.0, SVG Export Plug-In . SVG Version: 6.00 Build 0)  -->
<svg version="1.1" id="Layer_1" xmlns="http://www.w3.org/2000/svg" xmlns:xlink="http://www.w3.org/1999/xlink" x="0px" y="0px"
	 viewBox="0 0 158 158" style="enable-background:new 0 0 158 158;" xml:space="preserve">
<style type="text/css">
	.st0{fill:#303030;}
</style>
<path class="st0" d="M142.3,27.5h-4.9v-9.7c0-5.4-4.4-9.7-9.7-9.7H30.3c-5.4,0-9.7,4.4-9.7,9.7v9.7h-4.9c-5.4,0-9.7,4.4-9.7,9.7
	v82.7c0,5.4,4.4,9.7,9.7,9.7h47.8l-5.8,19.5h-5.5v4.9h53.5v-4.9h-5.5l-5.8-19.5h47.8c5.4,0,9.7-4.4,9.7-9.7V37.2
	C152,31.8,147.6,27.5,142.3,27.5z M10.9,37.2c0-2.7,2.2-4.9,4.9-4.9h4.9v73h4.9V17.7c0-2.7,2.2-4.9,4.9-4.9h97.3
	c2.7,0,4.9,2.2,4.9,4.9v87.6h4.9v-73h4.9c2.7,0,4.9,2.2,4.9,4.9v73H10.9V37.2z M95.2,149.1H62.8l5.8-19.5h20.7L95.2,149.1z
	 M147.1,119.9c0,2.7-2.2,4.9-4.9,4.9H15.7c-2.7,0-4.9-2.2-4.9-4.9V115h136.3V119.9z"/>
<path class="st0" d="M30.3,17.7h4.9v4.9h-4.9C30.3,22.6,30.3,17.7,30.3,17.7z"/>
<path class="st0" d="M40.1,17.7H45v4.9h-4.9V17.7z"/>
<path class="st0" d="M49.8,17.7h4.9v4.9h-4.9V17.7z"/>
<path class="st0" d="M110.6,50.3l12.6-2.8l1.1,4.8L111.7,55L110.6,50.3z"/>
<path class="st0" d="M104,28.2l7.3-7.3l3.4,3.4l-7.3,7.3L104,28.2z"/>
<path class="st0" d="M114.4,75.9l2.2-4.4l9.7,4.9l-2.2,4.4L114.4,75.9z"/>
<path class="st0" d="M99.3,23.6c-0.9-4.1-5-6.7-9.1-5.8c-4.1,0.9-6.7,5-5.8,9.1l0.7,3.4L54.6,49.6l-12.2,2.7
	c-7.3,1.6-12.4,8.3-12,15.8S36.6,81.7,44,82.5l4.2,18.6c0.3,1.3,1.6,2.1,2.9,1.8l10.1-2.2c1.3-0.3,2.1-1.6,1.8-2.9L59,80l2.2-0.5
	L97.1,84l0.7,3.3c0.8,3.5,3.8,5.9,7.4,5.9c2.3,0,4.5-1,5.9-2.8s2-4.2,1.5-6.4L99.3,23.6z M35.5,69.5c-1.3-5.6,2.3-11.2,7.9-12.5
	l10.2-2.3L56,65l2.3,10.2l-2.7,0.6L48,77.5C42.4,78.7,36.8,75.2,35.5,69.5L35.5,69.5z M57.7,96.4l-5.3,1.2L49,82.2h0.1l5.2-1.2
	L57.7,96.4z M63.1,74.8L58.3,53l28-17.7L96,78.9L63.1,74.8z M106,88.2c-0.7,0.2-1.5,0.1-2.1-0.3s-1.1-1-1.2-1.7L89.2,25.8
	c-0.2-0.7,0-1.4,0.4-2.1s1-1,1.7-1.2c1.5-0.3,2.9,0.6,3.3,2.1L108,84.9C108.3,86.4,107.4,87.8,106,88.2L106,88.2z"/>
</svg>
