<?xml version="1.0" encoding="utf-8"?>
<!-- Generator: Adobe Illustrator 21.0.0, SVG Export Plug-In . SVG Version: 6.00 Build 0)  -->
<svg version="1.1" id="Layer_1" xmlns="http://www.w3.org/2000/svg" xmlns:xlink="http://www.w3.org/1999/xlink" x="0px" y="0px"
	 viewBox="0 0 158 158" style="enable-background:new 0 0 158 158;" xml:space="preserve">
<style type="text/css">
	.st0{fill:#303030;}
</style>
<path class="st0" d="M139.8,24.8h-9.3v-6.6c0-4.5-3.7-8.2-8.2-8.2H37.5c-4.5,0-8.2,3.7-8.2,8.2v41.7l-3.6-3.6c-2-2-4.6-3-7.3-3
	c-2.8,0-5.4,1.1-7.3,3C7,60.4,7,67,11,71l18.3,18.3V127c0,4.5,3.7,8.2,8.2,8.2h9.3v6.6c0,4.5,3.7,8.2,8.2,8.2h84.8
	c4.5,0,8.2-3.7,8.2-8.2V33C148,28.4,144.3,24.8,139.8,24.8z M37.5,15.5h84.8c1.5,0,2.7,1.2,2.7,2.7V127c0,1.5-1.2,2.7-2.7,2.7H89
	l-7.1-17c-0.1-0.3-0.3-0.6-0.6-0.9L63.1,93.7L34.8,65.4V18.2C34.8,16.7,36,15.5,37.5,15.5z M20.5,72.8l7-7l48,48l-7,7L20.5,72.8z
	 M78.5,118.7l3.7,8.7l-8.7-3.7L78.5,118.7z M14.9,60.2c0.9-0.9,2.2-1.4,3.5-1.4s2.6,0.5,3.5,1.4l1.8,1.8l-7,7l-1.8-1.8
	C13,65.2,13,62.1,14.9,60.2z M34.8,127V94.8l31.9,31.9c0.3,0.3,0.5,0.5,0.9,0.6l6.1,2.6H37.5C36,129.8,34.8,128.5,34.8,127z
	 M142.5,141.8c0,1.5-1.2,2.7-2.7,2.7H55c-1.5,0-2.7-1.2-2.7-2.7v-6.6h70c4.5,0,8.2-3.7,8.2-8.2V30.2h9.3c1.5,0,2.7,1.2,2.7,2.7
	V141.8z"/>
<path class="st0" d="M52,30.2h55.8c1.5,0,2.7-1.2,2.7-2.7s-1.2-2.7-2.7-2.7H52c-1.5,0-2.7,1.2-2.7,2.7S50.5,30.2,52,30.2z"/>
<path class="st0" d="M107.8,38.2H88.7c-1.5,0-2.7,1.2-2.7,2.7s1.2,2.7,2.7,2.7h19.1c1.5,0,2.7-1.2,2.7-2.7
	C110.5,39.4,109.3,38.2,107.8,38.2z"/>
<path class="st0" d="M107.8,78.4H88.7c-1.5,0-2.7,1.2-2.7,2.7s1.2,2.7,2.7,2.7h19.1c1.5,0,2.7-1.2,2.7-2.7
	C110.5,79.6,109.3,78.4,107.8,78.4z"/>
<path class="st0" d="M71.2,78.4h-8c-1.5,0-2.7,1.2-2.7,2.7s1.2,2.7,2.7,2.7h8c1.5,0,2.7-1.2,2.7-2.7C73.9,79.6,72.7,78.4,71.2,78.4z
	"/>
<path class="st0" d="M107.8,91.9H88.7c-1.5,0-2.7,1.2-2.7,2.7s1.2,2.7,2.7,2.7h19.1c1.5,0,2.7-1.2,2.7-2.7
	C110.5,93.1,109.3,91.9,107.8,91.9z"/>
<path class="st0" d="M52,43.6h19.1c1.5,0,2.7-1.2,2.7-2.7s-1.2-2.7-2.7-2.7H52c-1.5,0-2.7,1.2-2.7,2.7C49.3,42.4,50.5,43.6,52,43.6z
	"/>
<path class="st0" d="M52,57h44.9c1.5,0,2.7-1.2,2.7-2.7s-1.2-2.7-2.7-2.7H52c-1.5,0-2.7,1.2-2.7,2.7S50.5,57,52,57z"/>
<path class="st0" d="M107.8,51.6c-0.7,0-1.4,0.3-1.9,0.8s-0.8,1.2-0.8,1.9s0.3,1.4,0.8,1.9s1.2,0.8,1.9,0.8s1.4-0.3,1.9-0.8
	s0.8-1.2,0.8-1.9s-0.3-1.4-0.8-1.9C109.2,51.9,108.5,51.6,107.8,51.6z"/>
<path class="st0" d="M52,70.4h55.8c1.5,0,2.7-1.2,2.7-2.7s-1.2-2.7-2.7-2.7H52c-1.5,0-2.7,1.2-2.7,2.7C49.3,69.2,50.5,70.4,52,70.4z
	"/>
</svg>
