<?xml version="1.0" encoding="utf-8"?>
<!-- Generator: Adobe Illustrator 21.0.0, SVG Export Plug-In . SVG Version: 6.00 Build 0)  -->
<svg version="1.1" id="Layer_1" xmlns="http://www.w3.org/2000/svg" xmlns:xlink="http://www.w3.org/1999/xlink" x="0px" y="0px"
	 viewBox="0 0 158 158" style="enable-background:new 0 0 158 158;" xml:space="preserve">
<style type="text/css">
	.st0{fill:#303030;}
</style>
<path class="st0" d="M151.1,77.8c-0.8,0-1.5,0.3-2.1,0.9s-0.9,1.3-0.9,2.1s0.3,1.5,0.9,2.1s1.3,0.9,2.1,0.9s1.5-0.3,2.1-0.9
	s0.9-1.3,0.9-2.1s-0.3-1.5-0.9-2.1S151.8,77.8,151.1,77.8z"/>
<path class="st0" d="M139.4,14H18.6C10.6,14,4,20.5,4,28.6v100.8c0,8.1,6.6,14.6,14.6,14.6h120.7c8.1,0,14.6-6.6,14.6-14.6V94.2
	c0-1.6-1.3-2.9-2.9-2.9s-2.9,1.3-2.9,2.9v22.6H9.9V40.6h138.3V67c0,1.6,1.3,2.9,2.9,2.9s2.9-1.3,2.9-2.9V28.6
	C154,20.5,147.4,14,139.4,14z M48.2,19.8h16.6v14.9H48.2V19.8z M42.3,34.8H25.7v-15h16.6C42.3,19.8,42.3,34.8,42.3,34.8z M70.7,19.8
	h16.6v14.9H70.7V19.8z M93.2,19.8h16.6v14.9H93.2V19.8z M115.7,19.8h16.6v14.9h-16.6C115.7,34.7,115.7,19.8,115.7,19.8z
	 M109.8,138.2H93.2v-15.5h16.6C109.8,122.7,109.8,138.2,109.8,138.2z M115.7,122.7h16.6v15.5h-16.6
	C115.7,138.2,115.7,122.7,115.7,122.7z M87.3,138.2H70.7v-15.5h16.6C87.3,122.7,87.3,138.2,87.3,138.2z M64.8,138.2H48.2v-15.5h16.6
	V138.2z M42.3,138.2H25.7v-15.5h16.6C42.3,122.7,42.3,138.2,42.3,138.2z M148.1,129.4c0,4.8-3.9,8.8-8.8,8.8h-1.2v-15.5h10V129.4z
	 M19.8,122.7v15.5h-1.2c-4.8,0-8.8-3.9-8.8-8.8v-6.7H19.8z M9.9,28.6c0-4.8,3.9-8.8,8.8-8.8h1.2v14.9h-10
	C9.9,34.7,9.9,28.6,9.9,28.6z M138.2,34.8v-15h1.2c4.8,0,8.8,3.9,8.8,8.8v6.2H138.2z"/>
<path class="st0" d="M71.6,54.4c-2.8-1.8-6.2-1.9-9.1-0.3s-4.6,4.5-4.6,7.8v34.2c0,3.3,1.7,6.2,4.6,7.8c1.4,0.7,2.8,1.1,4.3,1.1
	c1.7,0,3.3-0.5,4.8-1.4l26.7-17.1c2.6-1.6,4.1-4.4,4.1-7.5c0-3-1.5-5.8-4.1-7.5L71.6,54.4z M95.1,81.6L68.4,98.7
	c-1.4,0.9-2.6,0.4-3.1,0.1s-1.6-1-1.6-2.7V61.9c0-1.6,1.1-2.4,1.6-2.7c0.3-0.1,0.8-0.4,1.5-0.4c0.5,0,1,0.1,1.6,0.5l26.7,17.1
	c0.9,0.6,1.4,1.5,1.4,2.5C96.5,80.1,96,81,95.1,81.6z"/>
</svg>
