<?xml version="1.0" encoding="utf-8"?>
<!-- Generator: Adobe Illustrator 21.0.0, SVG Export Plug-In . SVG Version: 6.00 Build 0)  -->
<svg version="1.1" id="Layer_1" xmlns="http://www.w3.org/2000/svg" xmlns:xlink="http://www.w3.org/1999/xlink" x="0px" y="0px"
	 viewBox="0 0 158 158" style="enable-background:new 0 0 158 158;" xml:space="preserve">
<style type="text/css">
	.st0{fill:#303030;}
</style>
<g>
	<path class="st0" d="M13,60.6c0-2.5,0-5,0-7.5c0.2-0.7,0.6-1.5,0.7-2.2c0.5-11.6,1.5-23.2,6-34.1c1-2.5,2.8-4.7,4.5-6.8
		c0.8-1,2.3-1.3,3.5-2c2.9,0,5.8,0,8.6,0c1.4,0.9,2.9,1.7,4.1,2.8c2.6,2.3,3.5,5.6,4.3,8.8c2.2,8.1,3.2,16.4,3.4,24.8
		c0.2,9.1,0.3,18.2,0,27.2c-0.3,9.3-1.2,18.6-4.4,27.5c-0.8,2.2-1.9,4.5-3.6,6c-1.5,1.4-2,2.7-1.8,4.5c0.4,3.1-0.8,5.4-3.3,7.3
		c-0.4,0.3-0.9,1-0.9,1.5c0,7.6-0.1,15.3,0.1,22.9c0,1.1,0.8,2.6,1.8,3.3c2.7,1.8,5.7,0.1,5.7-3.2c0-7.1,0-14.3,0-21.4
		c0-4,3.4-9,8.5-8.6c1.1,0.1,2.3-0.1,3.4,0c1.8,0.2,2.5-0.5,2.4-2.3c-0.1-3.9,0-7.9,0-11.8c0-1.4,0.5-2.5,1.7-2.8
		c1.8-0.4,1.9-1.6,1.9-3.1c0.2-4.4,0-8.9,0.8-13.2c1.1-5.8,7.6-8.9,12.5-8.1c6.6,1.1,10.5,5.9,10.5,12.6c0,3.1,0,6.3,0,9.4
		c0,1.5,0.5,2.1,2.1,2.1c3.6-0.1,7.3,0,10.9,0c2.6,0,2.8-0.3,2.3-2.8c-0.7-4.1-1.3-8.3-2-12.4c-0.5-3-1-6.1-2.8-8.8
		c-3.9-5.8-7.1-12-8.6-19c-1.1-5-0.8-10,0.9-14.6c3.4-9.6,10-16.2,20.1-18.9c8.7-2.4,16.9-0.8,24.1,4.2c6.6,4.6,10.8,11.1,11.8,19.4
		c0.1,1,0.6,1.9,0.9,2.8c0,0.9,0,1.8,0,2.6c-0.3,0.8-0.6,1.6-0.8,2.5c-0.2,1.3-0.2,2.6-0.6,3.9c-1.8,6-4.4,11.6-8,16.8
		c-1,1.5-2,3.3-2.3,5c-1.1,5.9-1.8,11.8-2.7,17.8c-0.2,1.2,0.1,1.8,1.3,2.3c1.8,0.8,3.2,2.2,3.3,4.4c0.3,3.6-1.6,6.1-5.3,6.6
		c-1.1,0.1-1.5,0.6-1.7,1.6c-0.6,3.9-1.3,7.9-1.9,11.8c-0.3,1.7-1.1,2.8-2.8,2.9c-1.3,0.1-1.6,0.7-1.6,1.8c0,2.3-0.9,4-2.9,5.3
		c-0.7,0.5-1.2,1.7-1.3,2.6c-0.2,2.9,0,5.8-0.1,8.6c-0.2,4.1-3.2,7.5-7.2,8.5c-0.6,0.2-1.2,0.6-1.8,0.9c-0.4,0-0.8,0-1.1,0
		c-0.7-0.3-1.4-0.7-2.2-0.9c-2.4-0.7-4.6-1.7-5.6-4.2c-0.7-2-1.5-4.1-1.6-6.2c-0.2-6.1,0-12.3-0.1-18.4c0-3.3-1.2-4.5-4.4-4.5
		c-5.6,0-4.8-0.5-4.7,4.6c0,1.5-0.5,2.7-1.9,3c-1.5,0.3-1.6,1.2-1.6,2.5c0,6.1-0.1,12.3,0.1,18.4c0,2.4,0,4.6-2.4,5.9
		c-6.3,0-12.5,0-18.8,0c-1.9-1.2-2.8-2.7-2.7-5.1c0.2-6.4,0-12.8,0.1-19.1c0-1.2-0.1-2.1-1.6-2.5c-1.3-0.3-2.1-1.3-2-2.8
		c0-0.9-0.1-1.8,0-2.6c0.1-1.6-0.4-2.4-2.1-2.2c-1.1,0.1-2.3,0-3.4,0c-3,0.1-4.4,1.5-4.4,4.5c0,6.9,0,13.9,0,20.8
		c0,4.2-2.1,6.9-6.1,8.1c-0.5,0.2-0.9,0.5-1.4,0.8c-0.4,0-0.8,0-1.1,0c-0.3-0.3-0.7-0.6-1-0.7c-4.9-1.8-6.4-3.9-6.4-9.2
		c0-6.9,0-13.9,0-20.8c0-0.8-0.2-1.9-0.8-2.3c-2.9-2-3.4-4.8-3.4-8.1c0-0.9-0.7-2-1.3-2.8c-1.1-1.5-2.7-2.7-3.6-4.3
		c-3.3-5.9-4.7-12.5-5.6-19.1c-0.9-6.7-1.1-13.6-1.7-20.4C13.6,61.7,13.2,61.1,13,60.6z M44.7,58c-0.6-8.7-1.2-17.3-1.9-26
		c-0.5-5.8-1.6-11.5-4.3-16.8c-1.5-3-3.2-3.2-5.2-0.6c-0.2,0.3-0.5,0.6-0.6,1c-1.4,4-3.2,7.9-4.2,12c-2.1,8.8-2.7,17.8-2.9,26.8
		c-0.2,12.8,0.5,25.6,4,38.1c0.9,3.1,2.4,6,4.1,8.7c1.5,2.4,3.3,2,4.7-0.5C41,96,42,90.8,42.6,85.6C43.6,76.5,44,67.3,44.7,58z
		 M113.6,51.1c7.3,0,14.5,0,21.8,0c1.7,0,2.3-0.6,2.6-2.2c0.8-3.6,0.3-7.2-0.7-10.6c-3.1-9.9-11.7-17.3-22.9-17.5
		c-7.3-0.2-13.5,2.3-18.4,7.3c-5.4,5.5-7.6,12.3-6.9,20.1c0.2,2.5,0.6,2.8,3.1,2.8C99.3,51.1,106.5,51.1,113.6,51.1z M94.1,98.4
		c-10.6,0-21.2,0-31.7,0c-1.5,0-2.1,0.5-2.1,2c0,5.6,0,11.3,0,16.9c0,1.3,0.4,1.9,1.8,1.9c6.2-0.1,12.4-0.1,18.6,0
		c1.5,0,1.9-0.6,1.9-2.1c-0.1-2.8,0.1-5.5,0-8.3c-0.2-3.6,2.4-7.4,7.3-7.4c12.2,0.2,24.4,0.1,36.6,0.1c1,0,2.4,0.2,2.3-1.4
		c0-1.4-1.2-1.8-2.4-1.8c-0.4,0-0.8,0-1.1,0C114.9,98.4,104.5,98.4,94.1,98.4z M113.7,55.4c-6.9,0-13.8,0-20.6,0
		c-1.9,0-2.3,0.6-1.4,2.3c1.9,3.5,3.9,6.9,5.8,10.4c0.7,1.3,1.6,1.8,3,1.7c8.8,0,17.6,0,26.4-0.1c0.9,0,2.1-0.7,2.6-1.4
		c2.2-3.7,4.1-7.5,6.2-11.3c0.9-1.6,0.1-1.8-1.2-1.8C127.6,55.4,120.6,55.4,113.7,55.4z M113.4,74.1L113.4,74.1c-3.9,0-7.8,0-11.6,0
		c-1.4,0-1.8,0.5-1.5,1.8c0.4,1.8,0.6,3.6,0.9,5.4c0.7,3.8,1.3,7.6,2.1,11.4c0.1,0.6,1,1.3,1.6,1.4c5.9,0.1,11.9,0.1,17.8,0
		c0.5,0,1.4-0.8,1.5-1.4c0.9-5.5,1.6-11,2.6-16.5c0.3-1.7-0.4-2.1-1.9-2.1C121.1,74.2,117.3,74.1,113.4,74.1z M63.8,134.5
		c0,3,0.1,6,0,9c0,1.5,0.5,1.9,2,1.9c3.7-0.1,7.4-0.1,11.1,0c1.6,0,2.3-0.5,2.3-2.1c0-6,0-12,0-18c0-1.2-0.4-1.9-1.7-1.8
		c-3.9,0-7.8,0-11.6,0c-1.5,0-2,0.6-2,2C63.9,128.5,63.8,131.5,63.8,134.5z M100.2,129L100.2,129c0,3.3-0.1,6.6,0.1,9.9
		c0.1,1.5,0.6,3.2,1.5,4.5c1.2,1.6,3.1,2.3,5.2,1.7c2.6-0.7,4.3-2.3,4.4-5.2c0.1-2.5,0-5,0.1-7.5c0.1-1.4-0.3-2.4-1.5-3.2
		c-1.7-1.2-2.6-2.9-2.5-5c0.1-1.3-0.4-1.9-1.8-2s-2.3-1-2.6-2.5c-0.6-4.1-1.3-8.1-2.1-12.2c-0.1-0.6-0.8-1.5-1.2-1.5
		c-3.7-0.1-7.5-0.1-11.3,0c-1.5,0-2,1.5-1.8,3.9c0.1,1.5,1.1,1.4,2.1,1.4c1.1,0,2.1,0.1,3.2,0c4.2-0.3,8.2,3.7,8,8
		C100.1,122.6,100.2,125.8,100.2,129z M29.4,12.6c-2.3,0-3.4,1.1-4.2,2.6c-3.1,5.3-4.4,11.2-5.4,17.2c-0.8,4.6-1.1,9.3-1.5,14
		C16.9,63.2,17.7,79.8,23,96c0.7,2.2,2.2,4.2,3.5,6.2c0.3,0.4,1.3,0.3,2,0.5c0-0.6,0.1-1.2,0-1.7c-1.2-3.5-2.8-7-3.5-10.6
		c-1.3-6.8-2.6-13.7-3-20.5C21.2,56,21.2,42,24.2,28.2c0.9-4.3,2.6-8.4,4-12.6C28.4,14.7,28.8,13.8,29.4,12.6z M71.4,94.2
		c1.8,0,3.6-0.1,5.4,0c1.7,0.1,2.4-0.5,2.3-2.2c-0.1-3.2-0.1-6.4,0-9.6c0.1-4.7-3.6-8.1-7.5-8.2c-4.2-0.1-7.6,3.4-7.7,8
		c-0.1,3.3,0,6.6,0,9.9c0,1.6,0.6,2.1,2.1,2C67.8,94.1,69.6,94.2,71.4,94.2z M113.8,106c-2.2,0-4.4,0-6.6,0c-1.4,0-2,0.5-1.7,1.9
		c0.4,2.7,0.9,5.4,1.2,8.1c0.2,1.5,0.8,2.1,2.2,2.1c3.1-0.1,6.1-0.1,9.2,0c1.4,0,2.1-0.5,2.3-1.8c0.5-2.9,1-5.9,1.5-8.8
		c0.2-1.1-0.5-1.4-1.4-1.4C118.3,106,116,106,113.8,106z M34.1,109.9c0.1,0,0.2-0.1,0.3-0.1c-0.4-0.9-0.5-2.1-1.1-2.5
		c-0.7-0.4-2.6-0.2-2.7,0.2c-0.4,1.1-0.4,2.5-0.2,3.8c0.1,0.6,1,1.5,1.5,1.5c0.7,0,1.5-0.7,2.1-1.3C34.2,111.2,34,110.5,34.1,109.9z
		 M113.3,121.9c-0.6,0.6-1.5,1.2-1.6,1.9c-0.1,1.1,0.4,2.2,2,2.2c1.3,0,1.9-0.7,1.9-2C115.6,122.7,114.9,122.2,113.3,121.9z"/>
	<path class="st0" d="M40.8,54.6c-0.5,0.6-0.7,1.4-1.2,1.5c-0.8,0.2-2.1,0.3-2.6-0.2c-2.7-2.5-5.3-5.1-7.8-7.8
		c-0.4-0.4-0.4-1.8,0-2.2c0.5-0.5,1.5-0.7,2.3-0.7c0.5,0,1.1,0.5,1.5,1c2.2,2.1,4.4,4.3,6.5,6.5C40,53.3,40.3,54,40.8,54.6z"/>
	<path class="st0" d="M38.2,67.5c-0.2-0.1-0.8-0.1-1.1-0.4c-2.6-2.7-5.2-5.3-7.7-8.1c-0.4-0.4-0.3-2,0-2.2c0.8-0.4,2.2-0.7,2.7-0.3
		c2.8,2.5,5.5,5.2,8.1,8C41.3,65.7,40.2,67.4,38.2,67.5z"/>
	<path class="st0" d="M122.7,35.8c-0.5-0.7-1.6-1.6-1.5-2.2c0.2-0.9,1.3-1.6,2-2.3c0.7,0.7,1.9,1.4,2.1,2.2
		C125.6,34.8,124.5,35.4,122.7,35.8z"/>
	<path class="st0" d="M98.1,31.2c0.4,0.5,1.6,1.4,1.5,2.2s-1.3,1.8-2.2,2c-1.2,0.3-1.8-0.8-1.8-2C95.6,32.1,96.2,31.3,98.1,31.2z"/>
	<path class="st0" d="M116.5,26.7c-1.3,0.9-2.2,2-2.8,1.9c-0.9-0.2-1.5-1.3-2.2-2c0.8-0.7,1.5-1.7,2.4-1.9
		C114.4,24.5,115.2,25.7,116.5,26.7z"/>
	<path class="st0" d="M119.2,33.8c-0.7,0.6-1.6,1.7-2.2,1.5c-0.9-0.2-1.5-1.3-2.3-2c0.8-0.7,1.5-1.8,2.3-2c0.6-0.1,1.4,1,2.2,1.6
		C119.2,33.2,119.2,33.5,119.2,33.8z"/>
	<path class="st0" d="M99.4,42.4c-0.5-0.7-1.6-1.6-1.5-2.2c0.2-0.9,1.3-1.5,2-2.2c0.7,0.7,1.9,1.4,2,2.2
		C102.3,41.6,101.1,42.1,99.4,42.4z"/>
	<path class="st0" d="M127.6,42.5c-1.8-0.4-2.3-1.1-2.3-2.4c0-1.2,0.5-2.3,1.8-2c0.9,0.2,2,1.2,2.1,2
		C129.4,40.8,128.2,41.7,127.6,42.5z"/>
	<path class="st0" d="M106.3,42.4c-0.6-0.7-1.7-1.6-1.6-2.1c0.2-0.9,1.3-1.5,1.9-2.3c0.7,0.7,1.9,1.3,2.1,2.2
		C109.1,41.5,108,42.1,106.3,42.4z"/>
	<path class="st0" d="M109.2,26.8c-0.8,0.6-1.6,1.8-2.4,1.8c-0.7,0-1.4-1.2-2.2-1.9c0.7-0.7,1.3-1.8,2.2-2.1
		c0.6-0.2,1.5,0.8,2.3,1.3C109.1,26.3,109.2,26.6,109.2,26.8z"/>
	<path class="st0" d="M103.6,35.7c-0.5-0.8-1.3-1.5-1.4-2.3c-0.2-1.1,0.4-2.3,1.7-2.1c0.9,0.2,2,1.2,2.2,2c0.1,0.7-1,1.6-1.6,2.4
		C104.2,35.7,103.9,35.7,103.6,35.7z"/>
	<path class="st0" d="M123.4,49.6c-1.1-1.2-2-1.8-2.2-2.6c-0.3-1.3,0.8-2.1,2-2.2c1.2-0.1,2.3,0.7,2.1,2
		C125.2,47.7,124.3,48.4,123.4,49.6z"/>
	<path class="st0" d="M97.7,49.7c-1-1.3-1.8-1.9-2-2.7c-0.3-1.2,0.8-2.2,1.8-2c0.8,0.2,1.9,1.2,2.1,2C99.8,47.5,98.7,48.4,97.7,49.7
		z"/>
	<path class="st0" d="M116.8,49.7c-1-1.3-2-1.9-2.1-2.7c-0.2-1.4,1-2,2.1-2s2.2,0.7,1.9,2C118.6,47.7,117.8,48.4,116.8,49.7z"/>
	<path class="st0" d="M113.2,33.4c-1.2,0.9-1.9,1.8-2.7,2c-1.3,0.3-2.3-0.9-2.1-2c0.1-0.8,1.3-1.8,2.1-2
		C111.1,31.2,112,32.4,113.2,33.4z"/>
	<path class="st0" d="M127.3,33c0.8-0.6,1.7-1.7,2.5-1.6c0.7,0,1.9,1.3,1.9,2s-1.2,1.8-2,1.9c-0.7,0.1-1.5-0.9-2.3-1.4
		C127.3,33.6,127.3,33.3,127.3,33z"/>
	<path class="st0" d="M120,42.5c-0.5-0.7-1.5-1.4-1.5-2.2c-0.1-1.1,0.5-2.2,1.9-2.2c1.3,0,1.9,0.9,1.9,2.1
		C122.4,41.2,121.8,42.1,120,42.5z"/>
	<path class="st0" d="M113.1,42.4c-0.6-0.8-1.6-1.6-1.6-2.5c0-0.6,1.4-2,1.8-1.8c0.9,0.3,1.9,1.2,2.1,2.1c0.2,0.6-0.9,1.5-1.4,2.2
		C113.7,42.4,113.4,42.4,113.1,42.4z"/>
	<path class="st0" d="M92.8,42.4c-0.5-0.7-1.3-1.3-1.5-2.1C91,39,92.1,38,93.2,38.1c0.7,0,1.9,1.1,1.9,1.8c0,0.8-1,1.7-1.5,2.5
		C93.3,42.4,93,42.4,92.8,42.4z"/>
	<path class="st0" d="M129.6,49.7c-0.9-1.3-1.8-2-1.9-2.8c-0.2-1.2,0.8-2.1,1.9-1.9c0.8,0.2,1.8,1.2,2.1,2.1
		C131.8,47.5,130.7,48.4,129.6,49.7z"/>
	<path class="st0" d="M123.2,26.5c-1.2,1-1.9,2-2.7,2.1c-1.3,0.3-1.9-0.8-1.9-2c0-1.1,0.5-2.3,1.8-2.1
		C121.2,24.7,121.9,25.6,123.2,26.5z"/>
	<path class="st0" d="M132,39.6c0.5-0.4,1.3-1.4,2.2-1.4c0.6,0,1.9,1.3,1.8,1.8c-0.1,0.8-1.1,1.8-1.9,2
		C132.9,42.4,132.1,41.5,132,39.6z"/>
	<path class="st0" d="M110,49.1c-0.5-0.7-1.5-1.6-1.4-2.1c0.2-0.8,1.2-1.9,1.9-2c1.1-0.2,2.1,0.8,1.8,2c-0.2,0.8-1,1.4-1.5,2.1
		C110.5,49.1,110.3,49.1,110,49.1z"/>
	<path class="st0" d="M103.5,49.1c-0.5-0.7-1.2-1.4-1.4-2.2c-0.2-1.2,0.8-2.1,1.9-1.9c0.8,0.2,1.8,1.2,1.9,1.9c0,0.7-1,1.5-1.6,2.2
		C104.1,49.1,103.8,49.1,103.5,49.1z"/>
</g>
</svg>
