<?xml version="1.0" encoding="utf-8"?>
<!-- Generator: Adobe Illustrator 21.0.0, SVG Export Plug-In . SVG Version: 6.00 Build 0)  -->
<svg version="1.1" id="Layer_1" xmlns="http://www.w3.org/2000/svg" xmlns:xlink="http://www.w3.org/1999/xlink" x="0px" y="0px"
	 viewBox="0 0 158 158" style="enable-background:new 0 0 158 158;" xml:space="preserve">
<style type="text/css">
	.st0{fill:#303030;}
</style>
<path class="st0" d="M145.8,14.5H12.2c-2.3,0-4.2,1.9-4.2,4.2v123.2c0,2.3,1.9,4.2,4.2,4.2h133.6c2.3,0,4.2-1.9,4.2-4.2V18.7
	C150,16.4,148.1,14.5,145.8,14.5z M16.4,22.9h125.1v17.2H16.4V22.9z M141.6,137.7H16.4V48.6h125.1v89.1H141.6z"/>
<path class="st0" d="M54.2,113.6c0.8,0.8,1.9,1.2,3,1.2s2.2-0.4,3-1.2c1.6-1.6,1.6-4.3,0-6L45.6,93.1l14.5-14.5c1.6-1.6,1.6-4.3,0-6
	c-1.6-1.6-4.3-1.6-6,0L36.6,90.2c-1.6,1.6-1.6,4.3,0,6L54.2,113.6z"/>
<path class="st0" d="M100.9,104.7l-3,3c-1.6,1.6-1.6,4.3,0,6c0.8,0.8,1.9,1.2,3,1.2s2.2-0.4,3-1.2l17.5-17.5c1.6-1.6,1.6-4.3,0-6
	l-17.5-17.5c-1.6-1.6-4.3-1.6-6,0c-1.6,1.6-1.6,4.3,0,6l3,3l11.6,11.6L100.9,104.7z"/>
<path class="st0" d="M70,114.5c0.5,0.2,1.1,0.3,1.6,0.3c1.6,0,3.2-1,3.9-2.6l14.7-35c0.9-2.1-0.1-4.6-2.3-5.5
	c-2.1-0.9-4.6,0.1-5.5,2.3l-14.7,35C66.9,111.2,67.9,113.6,70,114.5z"/>
<path class="st0" d="M132.7,27.3c-2.2,0-4.3,1.9-4.2,4.2s1.9,4.2,4.2,4.2c2.2,0,4.3-1.9,4.2-4.2C136.8,29.3,135.1,27.3,132.7,27.3z"
	/>
<path class="st0" d="M119.5,27.3c-2.2,0-4.3,1.9-4.2,4.2c0.1,2.3,1.9,4.2,4.2,4.2c2.2,0,4.3-1.9,4.2-4.2
	C123.6,29.3,121.8,27.3,119.5,27.3z"/>
<path class="st0" d="M106.2,27.3c-2.2,0-4.3,1.9-4.2,4.2c0.1,2.3,1.9,4.2,4.2,4.2c2.2,0,4.3-1.9,4.2-4.2
	C110.3,29.3,108.6,27.3,106.2,27.3z"/>
</svg>
