<?xml version="1.0" encoding="utf-8"?>
<!-- Generator: Adobe Illustrator 21.0.0, SVG Export Plug-In . SVG Version: 6.00 Build 0)  -->
<svg version="1.1" id="Layer_1" xmlns="http://www.w3.org/2000/svg" xmlns:xlink="http://www.w3.org/1999/xlink" x="0px" y="0px"
	 viewBox="0 0 158 158" style="enable-background:new 0 0 158 158;" xml:space="preserve">
<style type="text/css">
	.st0{fill:#303030;}
</style>
<g>
	<path class="st0" d="M79,34.5c1.6,0,2.9-1.3,2.9-2.9V16.9c0-1.6-1.3-2.9-2.9-2.9s-2.9,1.3-2.9,2.9v14.7
		C76.1,33.2,77.4,34.5,79,34.5z"/>
	<path class="st0" d="M57.3,39.2c0.5,0.9,1.5,1.3,2.4,1.3c0.5,0,1.1-0.1,1.5-0.4c1.4-0.9,1.8-2.6,0.9-4l-7.7-12.2
		c-0.9-1.4-2.6-1.8-4-0.9s-1.8,2.6-0.9,4L57.3,39.2z"/>
	<path class="st0" d="M96.8,40.1c0.5,0.3,1,0.4,1.5,0.4c1,0,1.9-0.5,2.4-1.4l7.7-12.2c0.9-1.4,0.4-3.1-0.9-4c-1.4-0.9-3.1-0.4-4,0.9
		L95.8,36C95,37.5,95.4,39.3,96.8,40.1z"/>
	<path class="st0" d="M152.1,82l-5-8.9c-0.8-1.4-2.6-1.9-3.9-1.1c-1.4,0.8-1.9,2.6-1.1,3.9l5,8.9c0.3,0.4,0.2,0.9,0.1,1.1
		c-0.1,0.2-0.2,0.6-0.6,0.8l-7.7,4.3c-0.7,0.4-1.6,0.1-2-0.5l-2-3.5l0,0l-20.3-36c-0.3-0.4-0.2-0.9-0.1-1.1c0.1-0.2,0.2-0.6,0.6-0.8
		l7.7-4.3c0.7-0.4,1.6-0.2,2,0.5l4.5,8c0.8,1.4,2.6,1.9,3.9,1.1c1.4-0.8,1.9-2.6,1.1-3.9l-4.5-8c-1.9-3.4-6.3-4.7-9.8-2.7l-7.7,4.3
		c-1.7,0.9-2.9,2.5-3.4,4.3c-0.5,1.7-0.3,3.6,0.5,5.2l-4.3,1.2c-1.8,0.5-2.9,0.8-3.5,0.8l0,0c-0.4,0-0.9-0.2-2.2-0.7
		c-0.6-0.2-1.3-0.5-2.2-0.8l-7.6-2.6c-4.2-1.5-6.1-1.4-8.8-1.1l-12.9,1.2c-5.9,0.5-9.6,1.8-11.7,4.1l-7.3-2.1c0.8-1.6,1-3.4,0.5-5.1
		c-0.5-1.9-1.7-3.4-3.4-4.3l-8-4.4c-3.5-1.9-7.9-0.7-9.8,2.7L5.9,82c-1,1.7-1.2,3.6-0.7,5.5s1.7,3.4,3.4,4.3l7.7,4.3
		c1.1,0.6,2.3,0.9,3.5,0.9c2.5,0,5-1.3,6.3-3.6l0.8-1.4c2.2,1,4.1,2.4,5.4,4.1c-1.2,1.5-2,3.3-2.3,5.2c-0.3,2.6,0.4,5.1,2.1,7.2
		c1.6,2,3.9,3.3,6.5,3.6c-0.3,2.6,0.5,5.1,2.1,7.1c1.7,2.1,4,3.3,6.5,3.6c-0.3,2.6,0.5,5.1,2.1,7.1s3.9,3.3,6.5,3.6
		c-0.3,2.6,0.5,5.1,2.1,7.1c1.9,2.4,4.7,3.6,7.6,3.6c2.1,0,4.3-0.7,6.1-2.1l6.1-4.8c0.5-0.4,0.9-0.8,1.3-1.3l3.5,2.8
		c1.8,1.4,3.9,2.1,6.1,2.1c2.9,0,5.7-1.2,7.6-3.6c1-1.3,1.7-2.7,1.9-4.2c1,0.3,2.1,0.5,3.2,0.5c0.4,0,0.7,0,1.1-0.1
		c2.6-0.3,4.9-1.6,6.5-3.6s2.3-4.5,2.1-7.1c2.5-0.3,4.8-1.5,6.5-3.6s2.3-4.6,2.1-7.1c2.6-0.3,4.9-1.6,6.5-3.6s2.4-4.6,2.1-7.1
		c-0.2-2-1-3.8-2.3-5.2c1.3-1.7,3.1-3.1,5.4-4.1l0.8,1.5c1.3,2.3,3.8,3.6,6.3,3.6c1.2,0,2.4-0.3,3.5-0.9l7.7-4.3
		c1.7-0.9,2.9-2.5,3.4-4.3C153.3,85.7,153,83.7,152.1,82L152.1,82z M21.2,90.5c-0.4,0.7-1.3,0.9-2,0.5l-7.7-4.3
		c-0.4-0.2-0.6-0.6-0.6-0.8c-0.1-0.2-0.1-0.6,0.1-1.1l22.3-39.5c0.3-0.5,0.7-0.7,1.2-0.7c0.2,0,0.5,0.1,0.7,0.2l7.7,4.3l0,0
		c0.4,0.2,0.6,0.6,0.6,0.8c0.1,0.2,0.1,0.6-0.1,1.1L21.2,90.5z M42.3,105.4c-0.8,0.7-1.8,0.9-2.9,0.8c-1.1-0.1-2-0.6-2.6-1.4
		c-0.7-0.8-0.9-1.8-0.8-2.9c0.1-1,0.6-2,1.4-2.6l10.8-8.7c1.7-1.4,4.2-1.1,5.5,0.6c0.7,0.8,0.9,1.8,0.8,2.9c-0.1,1-0.6,2-1.4,2.6
		c0,0,0,0-0.1,0L42.3,105.4L42.3,105.4z M45.3,115.5c-0.7-0.8-0.9-1.8-0.8-2.9c0.1-1,0.6-2,1.4-2.6l0,0l0,0l0,0l15.6-12.5
		c1.7-1.4,4.2-1.1,5.5,0.6c0.7,0.8,0.9,1.8,0.8,2.9c-0.1,1-0.6,2-1.4,2.6L50.8,116C49.1,117.4,46.6,117.2,45.3,115.5L45.3,115.5z
		 M56.4,127.6c-1.1-0.1-2-0.6-2.6-1.4c-0.7-0.8-0.9-1.8-0.8-2.9c0.1-1,0.6-2,1.4-2.6l0,0l10.8-8.6l0,0c1.7-1.4,4.2-1.1,5.5,0.6
		c0.7,0.8,0.9,1.8,0.8,2.9c-0.1,1-0.6,2-1.4,2.6l-10.8,8.7C58.5,127.4,57.5,127.7,56.4,127.6L56.4,127.6z M75.4,129.9
		c-0.1,1-0.6,2-1.4,2.6l-6.1,4.8c-1.7,1.4-4.2,1.1-5.5-0.6c-0.7-0.8-0.9-1.8-0.8-2.9c0.1-1,0.6-2,1.4-2.6l0,0l6.1-4.8l0,0
		c1.7-1.4,4.2-1.1,5.5,0.6C75.2,127.8,75.5,128.9,75.4,129.9z M121.3,104.8c-0.7,0.8-1.6,1.3-2.6,1.4c-1.1,0.1-2.1-0.2-2.9-0.8l0,0
		l0,0l-7.7-6.2c-1.2-1-3.1-0.8-4.1,0.5c-1,1.2-0.8,3.1,0.5,4.1l7.7,6.2c1.7,1.4,2,3.8,0.6,5.5s-3.8,2-5.5,0.6l-8.4-6.7
		c-1.2-1-3.1-0.8-4.1,0.5c-1,1.2-0.8,3.1,0.5,4.1l8.4,6.7c0.8,0.7,1.3,1.6,1.4,2.6s-0.2,2.1-0.8,2.9c-0.7,0.8-1.6,1.3-2.6,1.4
		c-1.1,0.1-2.1-0.2-2.9-0.8l-4.2-3.3l0,0l-3.5-2.8l-0.7-0.5c-1.2-1-3.1-0.8-4.1,0.5c-0.1,0.2-0.2,0.3-0.3,0.5
		c-0.4,0.8-0.4,1.8,0,2.6c0.2,0.4,0.4,0.7,0.8,1l4.2,3.4c1.7,1.4,2,3.8,0.6,5.5s-3.8,2-5.5,0.6l-4.8-3.8c0.2-2.5-0.5-4.9-2.1-6.8
		c-1-1.2-2.2-2.1-3.5-2.7c1-1.3,1.6-2.9,1.8-4.6c0.3-2.6-0.4-5.1-2.1-7.2c-1-1.2-2.2-2.1-3.5-2.7c1-1.3,1.6-2.9,1.8-4.6
		c0.3-2.6-0.4-5.1-2.1-7.1c-2.8-3.5-7.5-4.5-11.4-2.9c-0.3-1.4-1-2.8-1.9-4c-3.3-4.2-9.5-4.9-13.7-1.5l-7.7,6.2
		c-1.8-2.2-4.1-4.1-6.9-5.4L45.9,59l8.5,2.5c0,0.5,0.1,0.9,0.2,1.4c2.1,8.4,9.8,12.4,20.3,10.3c8.8-1.8,12.4,0.9,19.7,6.1
		c0.7,0.5,1.5,1.1,2.3,1.7c5.2,3.7,10.7,8.1,14.5,11.1l9.4,7.5c0.8,0.7,1.3,1.6,1.4,2.6C122.2,103,121.9,104,121.3,104.8
		L121.3,104.8z M121.2,92.3l-6.3-5c-3.8-3-9.4-7.5-14.7-11.3c-0.8-0.6-1.6-1.1-2.3-1.7c-7.5-5.5-12.9-9.4-24.2-7.1
		c-3.5,0.7-11.7,1.5-13.5-6c-0.3-1.1,0-1.4,0.1-1.6c0.4-0.5,1.9-1.9,8-2.4L81.2,56c2.1-0.2,3.2-0.3,6.4,0.8l7.6,2.6
		c0.8,0.3,1.5,0.5,2.1,0.8c3.6,1.4,4.6,1.4,9.4,0l5.6-1.6l15.9,28.1C125.3,88.2,122.9,90.1,121.2,92.3z"/>
	<path class="st0" d="M138.1,66.2c1.6,0,2.9-1.3,2.9-2.9s-1.3-2.9-2.9-2.9s-2.9,1.3-2.9,2.9l0,0C135.2,64.9,136.5,66.2,138.1,66.2z"
		/>
</g>
</svg>
