<?xml version="1.0" encoding="utf-8"?>
<!-- Generator: Adobe Illustrator 21.0.0, SVG Export Plug-In . SVG Version: 6.00 Build 0)  -->
<svg version="1.1" id="Layer_1" xmlns="http://www.w3.org/2000/svg" xmlns:xlink="http://www.w3.org/1999/xlink" x="0px" y="0px"
	 viewBox="0 0 158 158" style="enable-background:new 0 0 158 158;" xml:space="preserve">
<style type="text/css">
	.st0{fill:#303030;}
</style>
<g>
	<g>
		<g>
			<path class="st0" d="M137.3,56.2h-9.6v-0.1c-0.1-1.8-1.6-3.3-3.4-3.3H8.9c-1.8,0-3.3,1.5-3.4,3.3c0,1.2-0.1,16.4-0.1,17.1
				c0,26.4,9.9,52.4,25.3,68H5.5v6.8h122.4v-6.8h-25.3c12.2-13.3,20.3-29.8,23.3-47.6h11.5c9.8,0,17.7-7.9,17.7-17.7v-2
				C155,64.2,147.1,56.2,137.3,56.2z M92.3,141.2H41c-17.2-13.1-28.7-40.3-28.7-68c0-1.1,0-9,0-13.6H87v15.6L74.4,87.8
				c-0.6,0.6-1,1.5-1,2.4v27.2c0,1.9,1.5,3.4,3.4,3.4H104c1.9,0,3.4-1.5,3.4-3.4V90.2c0-0.9-0.4-1.8-1-2.4L93.8,75.2V59.6H121
				c0,4.6,0,12.5,0,13.6C121,100.9,109.5,128.1,92.3,141.2z M90.4,81.4l10.2,10.2V114H80.2V91.6L90.4,81.4z M148.2,75.9
				c0,6-4.9,10.9-10.9,10.9h-10.4c0.6-4.5,0.9-9,0.9-13.6c0-0.4,0-5.6,0-10.2h9.5c6,0,10.9,4.9,10.9,10.9V75.9z"/>
			<path class="st0" d="M25.9,46h6.8c0-1.9,0.7-2.7,2.4-4.4c5.1-4.1,5.9-11.5,1.8-16.6c-0.5-0.7-1.1-1.2-1.8-1.8
				c-1.7-1.7-2.4-2.5-2.4-4.4s0.7-2.7,2.4-4.4c2.7-2.3,4.4-5.6,4.4-9.2h-6.8c0,1.9-0.7,2.7-2.4,4.4c-2.7,2.3-4.4,5.6-4.4,9.2
				s1.6,6.9,4.4,9.2c1.7,1.7,2.4,2.5,2.4,4.4s-0.7,2.7-2.4,4.4C27.5,39.1,25.9,42.5,25.9,46z"/>
			<path class="st0" d="M93.8,46h6.8c0-1.9,0.7-2.7,2.4-4.4c5.1-4.1,5.9-11.5,1.8-16.6c-0.5-0.7-1.1-1.2-1.8-1.8
				c-1.7-1.7-2.4-2.5-2.4-4.4s0.7-2.7,2.4-4.4c2.7-2.3,4.4-5.6,4.4-9.2h-6.8c0,1.9-0.7,2.7-2.4,4.4c-2.7,2.3-4.4,5.6-4.4,9.2
				s1.6,6.9,4.4,9.2c1.7,1.7,2.4,2.5,2.4,4.4s-0.7,2.7-2.4,4.4C95.5,39.1,93.9,42.5,93.8,46z"/>
			<path class="st0" d="M59.8,46h6.8c0-1.9,0.7-2.7,2.4-4.4c5.1-4.1,5.9-11.5,1.8-16.6c-0.5-0.7-1.1-1.2-1.8-1.8
				c-1.7-1.7-2.4-2.5-2.4-4.4s0.7-2.7,2.4-4.4c2.7-2.3,4.4-5.6,4.4-9.2h-6.8c0,1.9-0.7,2.7-2.4,4.4c-2.7,2.3-4.4,5.6-4.4,9.2
				s1.6,6.9,4.4,9.2c1.7,1.7,2.4,2.5,2.4,4.4s-0.7,2.7-2.4,4.4C61.5,39.1,59.9,42.5,59.8,46z"/>
		</g>
	</g>
</g>
</svg>
