<?xml version="1.0" encoding="utf-8"?>
<!-- Generator: Adobe Illustrator 21.0.0, SVG Export Plug-In . SVG Version: 6.00 Build 0)  -->
<svg version="1.1" id="Layer_1" xmlns="http://www.w3.org/2000/svg" xmlns:xlink="http://www.w3.org/1999/xlink" x="0px" y="0px"
	 viewBox="0 0 195.5 103.5" style="enable-background:new 0 0 195.5 103.5;" xml:space="preserve">
<style type="text/css">
	.st0{fill:#9DD3FF;}
	.st1{fill:#5E9AF2;}
	.st2{fill:#F0F8FF;}
	.st3{fill:#FF7469;}
	.st4{fill:#97C7FA;}
	.st5{fill:#FF7A70;}
	.st6{fill:#2E49D2;}
	.st7{fill:#5F89D3;}
	.st8{fill:#FF5549;}
	.st9{fill:#003261;}
	.st10{fill:#00448C;}
	.st11{fill:#FF9490;}
	.st12{fill:#FFA668;}
	.st13{fill:#FF8585;}
	.st14{fill:#E3F0FD;}
	.st15{fill:#E05344;}
	.st16{fill:#2776CE;}
	.st17{fill:#0F2B4E;}
</style>
<g>
	<g>
		<g>
			<g>
				<rect x="139.9" y="13.7" class="st0" width="41.3" height="69.3"/>
				<rect x="138.6" y="13.6" class="st1" width="41.3" height="69.3"/>
				<rect x="141.4" y="17.5" class="st2" width="35.7" height="24.2"/>
				<rect x="157.4" y="64.3" class="st2" width="19.2" height="12.9"/>
				<path class="st3" d="M142.9,29.8c0,0,6.1-0.8,9.8,2.7c3.7,3.4,10.7,0.3,13.5,0c4.9-0.5,8.7,1.1,9.8,2.8v5.2H143L142.9,29.8
					L142.9,29.8z"/>
				<rect x="147.6" y="21.4" class="st4" width="0.3" height="8.2"/>
				<rect x="157.8" y="24.9" class="st4" width="0.3" height="8.2"/>
				<rect x="168.1" y="23" class="st4" width="0.3" height="8.2"/>
				<path class="st4" d="M150.8,22.6h-2c-0.1,0-0.2-0.1-0.2-0.2l0,0c0-0.1,0.1-0.2,0.2-0.2h2c0.1,0,0.2,0.1,0.2,0.2l0,0
					C150.9,22.5,150.9,22.6,150.8,22.6z"/>
				<path class="st4" d="M150.8,23.4h-2c-0.1,0-0.2-0.1-0.2-0.2l0,0c0-0.1,0.1-0.2,0.2-0.2h2c0.1,0,0.2,0.1,0.2,0.2l0,0
					C150.9,23.3,150.9,23.4,150.8,23.4z"/>
				<path class="st4" d="M160.6,26.8h-2c-0.1,0-0.2-0.1-0.2-0.2l0,0c0-0.1,0.1-0.2,0.2-0.2h2c0.1,0,0.2,0.1,0.2,0.2l0,0
					C160.9,26.7,160.8,26.8,160.6,26.8z"/>
				<path class="st4" d="M160.6,27.6h-2c-0.1,0-0.2-0.1-0.2-0.2l0,0c0-0.1,0.1-0.2,0.2-0.2h2c0.1,0,0.2,0.1,0.2,0.2l0,0
					C160.9,27.5,160.8,27.6,160.6,27.6z"/>
				<path class="st4" d="M171.1,23.7h-2c-0.1,0-0.2-0.1-0.2-0.2l0,0c0-0.1,0.1-0.2,0.2-0.2h2c0.1,0,0.2,0.1,0.2,0.2l0,0
					C171.4,23.6,171.4,23.7,171.1,23.7z"/>
				<path class="st4" d="M171.1,24.5h-2c-0.1,0-0.2-0.1-0.2-0.2l0,0c0-0.1,0.1-0.2,0.2-0.2h2c0.1,0,0.2,0.1,0.2,0.2l0,0
					C171.4,24.4,171.4,24.5,171.1,24.5z"/>
				<g>
					<circle class="st2" cx="173.6" cy="47.8" r="3.5"/>
					<path class="st3" d="M176.9,47.8c0,1.8-1.4,3.2-3.2,3.2c-0.8,0-1.6-0.3-2.2-0.8l2.2-2.4v-3.2C175.4,44.6,176.9,46,176.9,47.8z"
						/>
					<path class="st4" d="M172.4,47.3h-1.2c-0.1,0-0.1,0-0.1-0.1l0,0c0-0.1,0-0.1,0.1-0.1h1.2C172.6,47.1,172.6,47.1,172.4,47.3
						L172.4,47.3C172.6,47.2,172.6,47.3,172.4,47.3z"/>
				</g>
				<g>
					<path class="st2" d="M161.4,47.8c0-1.9,1.6-3.5,3.5-3.5s3.5,1.6,3.5,3.5s-1.6,3.5-3.5,3.5C162.9,51.4,161.4,49.8,161.4,47.8z"
						/>
					<path class="st5" d="M164.9,47.8l2,2.5c-0.5,0.4-1.2,0.7-2,0.7c-1.8,0-3.2-1.4-3.2-3.2s1.4-3.2,3.2-3.2c1.7,0,3.1,1.3,3.2,2.9
						L164.9,47.8z"/>
					<path class="st4" d="M167.4,48.6h-0.8c-0.1,0-0.1,0-0.1-0.1l0,0c0-0.1,0-0.1,0.1-0.1h0.8C167.4,48.4,167.4,48.5,167.4,48.6
						L167.4,48.6L167.4,48.6z"/>
				</g>
				<g>
					<path class="st2" d="M170.1,57.5c0-1.9,1.6-3.5,3.5-3.5s3.5,1.6,3.5,3.5s-1.6,3.5-3.5,3.5S170.1,59.5,170.1,57.5z"/>
					<path class="st3" d="M176.9,57.5c0,1.8-1.4,3.2-3.2,3.2c-0.8,0-1.6-0.3-2.2-0.8l2.2-2.4v-3.2C175.4,54.3,176.9,55.8,176.9,57.5
						z"/>
					<path class="st4" d="M172.4,57h-1.2c-0.1,0-0.1,0-0.1-0.1l0,0c0-0.1,0-0.1,0.1-0.1h1.2C172.6,56.8,172.6,56.8,172.4,57
						L172.4,57C172.6,56.9,172.6,57,172.4,57z"/>
				</g>
				<g>
					<path class="st2" d="M161.4,57.5c0-1.9,1.6-3.5,3.5-3.5s3.5,1.6,3.5,3.5s-1.6,3.5-3.5,3.5C162.9,61.1,161.4,59.5,161.4,57.5z"
						/>
					<path class="st3" d="M168.1,57.3c-0.1-1.6-1.5-2.9-3.2-2.9c-1.8,0-3.2,1.4-3.2,3.2s1.4,3.2,3.2,3.2c0.7,0,1.4-0.3,2-0.7l-2-2.5
						L168.1,57.3z"/>
					<path class="st4" d="M167.4,58.3h-0.8c-0.1,0-0.1,0-0.1-0.1l0,0c0-0.1,0-0.1,0.1-0.1h0.8C167.4,58.2,167.4,58.2,167.4,58.3
						L167.4,58.3L167.4,58.3z"/>
				</g>
				<g>
					<polygon class="st4" points="175.8,76.3 158.1,76.3 158.1,65.9 158.4,65.9 158.4,76.1 175.8,76.1 					"/>
				</g>
				<g>
					<path class="st4" d="M163.6,72.5c-2.2-1.7-4.4,0-4.4,0v2.9h16.1v-7.6C170.9,68,165.9,74.3,163.6,72.5z"/>
					<path class="st4" d="M159.4,66.7h7.5c0.1,0,0.2-0.1,0.2-0.2s-0.1-0.2-0.2-0.2h-7.5c-0.1,0-0.2,0.1-0.2,0.2
						C159.2,66.6,159.2,66.7,159.4,66.7z"/>
					<path class="st4" d="M159.4,67.6h7.5c0.1,0,0.2-0.1,0.2-0.2s-0.1-0.2-0.2-0.2h-7.5c-0.1,0-0.2,0.1-0.2,0.2
						C159.2,67.5,159.2,67.6,159.4,67.6z"/>
					<path class="st4" d="M159.4,68.4h5c0.1,0,0.2-0.1,0.2-0.2v-0.1c0-0.1-0.1-0.2-0.2-0.2h-5c-0.1,0-0.2,0.1-0.2,0.2v0.1
						C159.2,68.4,159.2,68.4,159.4,68.4z"/>
				</g>
			</g>
			<g>
				<rect x="75.3" y="2.8" class="st1" width="56.5" height="85.2"/>
				<rect x="80.8" y="7.6" class="st2" width="45.5" height="50.7"/>
				<path class="st2" d="M81.8,74.5c0-4.5,3.7-8.2,8.2-8.2s8.2,3.7,8.2,8.2s-3.7,8.2-8.2,8.2C85.4,82.6,81.8,79,81.8,74.5z"/>
				<path class="st3" d="M96.8,74.5c0-3.8-3.1-6.9-6.9-6.9S83,70.7,83,74.5s3.1,6.9,6.9,6.9c1.6,0,3-0.5,4.2-1.4l-4.2-5.5l6.5,2.5
					C96.8,76.2,96.8,75.3,96.8,74.5z"/>
				<path class="st2" d="M109.7,74.5c0-4.5,3.7-8.2,8.2-8.2s8.2,3.7,8.2,8.2s-3.7,8.2-8.2,8.2C113.2,82.6,109.7,79,109.7,74.5z"/>
				<path class="st3" d="M117.9,67.6c-3.8,0-6.9,3.1-6.9,6.9c0,1.9,0.8,3.6,2,4.8l4.9-4.8l6.5,2.5c0.3-0.8,0.5-1.6,0.5-2.5
					C124.8,70.7,121.6,67.6,117.9,67.6z"/>
				<g>
					<path class="st4" d="M116.8,71h-2.9c-0.1,0-0.2,0.1-0.2,0.2l0,0c0,0.1,0.1,0.2,0.2,0.2h2.9c0.1,0,0.2-0.1,0.2-0.2l0,0
						C117.1,71.1,116.9,71,116.8,71z"/>
					<path class="st4" d="M116.8,71.6h-2.9c-0.1,0-0.2,0.1-0.2,0.2s0.1,0.2,0.2,0.2h2.9c0.1,0,0.2-0.1,0.2-0.2
						C117.1,71.7,116.9,71.6,116.8,71.6z"/>
					<path class="st4" d="M115.1,72.3h-1.2c-0.1,0-0.2,0.1-0.2,0.2s0.1,0.2,0.2,0.2h1.2c0.1,0,0.2-0.1,0.2-0.2
						S115.1,72.3,115.1,72.3z"/>
				</g>
				<g>
					<path class="st4" d="M88.8,71h-2.9c-0.1,0-0.2,0.1-0.2,0.2l0,0c0,0.1,0.1,0.2,0.2,0.2h2.9c0.1,0,0.2-0.1,0.2-0.2l0,0
						C89.1,71.1,89.1,71,88.8,71z"/>
					<path class="st4" d="M88.8,71.6h-2.9c-0.1,0-0.2,0.1-0.2,0.2s0.1,0.2,0.2,0.2h2.9c0.1,0,0.2-0.1,0.2-0.2
						C89.1,71.7,89.1,71.6,88.8,71.6z"/>
					<path class="st4" d="M87.2,72.3H86c-0.1,0-0.2,0.1-0.2,0.2s0.1,0.2,0.2,0.2h1.2c0.1,0,0.2-0.1,0.2-0.2S87.2,72.3,87.2,72.3z"/>
				</g>
				<g>
					<rect x="84.8" y="25.7" class="st4" width="4.8" height="29.9"/>
					<rect x="92.8" y="17.4" class="st4" width="4.8" height="38.2"/>
					<rect x="101.2" y="32.9" class="st4" width="4.8" height="22.7"/>
					<rect x="109.7" y="22.5" class="st4" width="4.8" height="33.1"/>
					<rect x="118.1" y="37.4" class="st4" width="4.8" height="18.2"/>
				</g>
				<g>
					<path class="st4" d="M114.2,18.2h-4.1c-0.2,0-0.4,0.2-0.4,0.4c0,0.2,0.2,0.4,0.4,0.4h4.1c0.2,0,0.4-0.2,0.4-0.4
						C114.6,18.4,114.4,18.2,114.2,18.2z"/>
					<path class="st4" d="M111.1,19.7h-0.9c-0.2,0-0.4,0.2-0.4,0.4c0,0.2,0.2,0.4,0.4,0.4h0.9c0.2,0,0.4-0.2,0.4-0.4
						C111.4,19.9,111.3,19.7,111.1,19.7z"/>
					<path class="st4" d="M97.4,11.7h-4.1c-0.2,0-0.4,0.2-0.4,0.4s0.2,0.4,0.4,0.4h4.1c0.2,0,0.4-0.2,0.4-0.4S97.7,11.7,97.4,11.7z"
						/>
					<path class="st4" d="M94.3,13.2h-0.9c-0.2,0-0.4,0.2-0.4,0.4l0,0c0,0.2,0.2,0.4,0.4,0.4h0.9c0.2,0,0.4-0.2,0.4-0.4l0,0
						C94.8,13.4,94.6,13.2,94.3,13.2z"/>
					<path class="st4" d="M105.8,28.5h-4.1c-0.2,0-0.4,0.2-0.4,0.4c0,0.2,0.2,0.4,0.4,0.4h4.1c0.2,0,0.4-0.2,0.4-0.4
						S105.9,28.5,105.8,28.5z"/>
					<path class="st4" d="M102.6,30h-0.9c-0.2,0-0.4,0.2-0.4,0.4l0,0c0,0.2,0.2,0.4,0.4,0.4h0.9c0.2,0,0.4-0.2,0.4-0.4l0,0
						C103.1,30.2,102.8,30,102.6,30z"/>
					<path class="st4" d="M122.4,32.9h-4.1c-0.2,0-0.4,0.2-0.4,0.4s0.2,0.4,0.4,0.4h4.1c0.2,0,0.4-0.2,0.4-0.4
						C122.9,33.1,122.6,32.9,122.4,32.9z"/>
					<path class="st4" d="M119.4,34.5h-0.9c-0.2,0-0.4,0.2-0.4,0.4s0.2,0.4,0.4,0.4h0.9c0.2,0,0.4-0.2,0.4-0.4
						S119.6,34.5,119.4,34.5z"/>
				</g>
			</g>
			<g>
				<rect x="26.5" y="35.1" class="st0" width="41.3" height="23.2"/>
				<rect x="27.8" y="35.1" class="st1" width="41.3" height="23.2"/>
				
					<ellipse transform="matrix(0.7071 -0.7071 0.7071 0.7071 -21.2547 41.1545)" class="st2" cx="39.1" cy="46.2" rx="7.5" ry="7.5"/>
				<g>
					<path class="st2" d="M64.4,42H52.1c-0.4,0-0.8,0.4-0.8,0.8l0,0c0,0.4,0.4,0.8,0.8,0.8h12.4c0.4,0,0.8-0.4,0.8-0.8l0,0
						C65.2,42.4,64.8,42,64.4,42z"/>
					<path class="st2" d="M64.4,45.4H52.1c-0.4,0-0.8,0.4-0.8,0.8l0,0c0,0.4,0.4,0.8,0.8,0.8h12.4c0.4,0,0.8-0.4,0.8-0.8l0,0
						C65.2,45.8,64.8,45.4,64.4,45.4z"/>
					<path class="st2" d="M64.4,48.8H52.1c-0.4,0-0.8,0.4-0.8,0.8c0,0.4,0.4,0.8,0.8,0.8h12.4c0.4,0,0.8-0.4,0.8-0.8
						C65.2,49.1,64.8,48.8,64.4,48.8z"/>
				</g>
				<path class="st6" d="M32.2,46.1H39v-6.8C35.3,39.3,32.2,42.3,32.2,46.1z"/>
				<path class="st6" d="M46,46.3h-6.8l0,0h-6.9c0,3.8,3.1,6.8,6.8,6.8l0,0l0,0l0,0l0,0C42.8,53.2,46,50.1,46,46.3z"/>
				<g>
					<path class="st7" d="M38,42.6h-3.7c-0.2,0-0.4,0.2-0.4,0.4s0.2,0.4,0.4,0.4H38c0.2,0,0.4-0.2,0.4-0.4
						C38.2,42.8,38.2,42.6,38,42.6z"/>
					<path class="st7" d="M35,44h-0.8c-0.2,0-0.4,0.2-0.4,0.4s0.2,0.4,0.4,0.4H35c0.2,0,0.4-0.2,0.4-0.4S35.2,44,35,44z"/>
				</g>
				<g>
					<path class="st4" d="M43.5,48h-3.7c-0.2,0-0.4,0.2-0.4,0.4s0.2,0.4,0.4,0.4h3.7c0.2,0,0.4-0.2,0.4-0.4S43.7,48,43.5,48z"/>
					<path class="st4" d="M40.5,49.4h-0.8c-0.2,0-0.4,0.2-0.4,0.4l0,0c0,0.2,0.2,0.4,0.4,0.4h0.8c0.2,0,0.4-0.2,0.4-0.4l0,0
						C41,49.6,40.8,49.4,40.5,49.4z"/>
				</g>
			</g>
			<g>
				<path class="st0" d="M23.5,62.5v23.8h41.3V62.5H23.5z"/>
				<path class="st1" d="M24.8,62.5v23.8h41.3V62.5H24.8z"/>
				
					<ellipse transform="matrix(0.4433 -0.8964 0.8964 0.4433 -45.9149 73.484)" class="st2" cx="36.2" cy="73.7" rx="7.5" ry="7.5"/>
				<g>
					<path class="st2" d="M49.2,71.1h12.4c0.4,0,0.8-0.4,0.8-0.8s-0.4-0.8-0.8-0.8H49.2c-0.4,0-0.8,0.4-0.8,0.8
						C48.3,70.8,48.8,71.1,49.2,71.1z"/>
					<path class="st2" d="M61.6,72.9H49.2c-0.4,0-0.8,0.4-0.8,0.8s0.4,0.8,0.8,0.8h12.4c0.4,0,0.8-0.4,0.8-0.8
						C62.3,73.2,61.9,72.9,61.6,72.9z"/>
					<path class="st2" d="M61.6,76.2H49.2c-0.4,0-0.8,0.4-0.8,0.8l0,0c0,0.4,0.4,0.8,0.8,0.8h12.4c0.4,0,0.8-0.4,0.8-0.8l0,0
						C62.3,76.6,61.9,76.2,61.6,76.2z"/>
				</g>
				<path class="st6" d="M36.2,73.8l-6.8-0.1v0.1c0,3.8,3.1,6.8,6.8,6.8c1.3,0,2.6-0.4,3.7-1.1L36.2,73.8z"/>
				<g>
					<path class="st4" d="M36.5,75.9h-3.7c-0.2,0-0.4,0.2-0.4,0.4l0,0c0,0.2,0.2,0.4,0.4,0.4h3.7c0.2,0,0.4-0.2,0.4-0.4l0,0
						C36.8,76.1,36.7,75.9,36.5,75.9z"/>
					<path class="st4" d="M33.5,77.3h-0.8c-0.2,0-0.4,0.2-0.4,0.4c0,0.2,0.2,0.4,0.4,0.4h0.8c0.2,0,0.4-0.2,0.4-0.4
						S33.8,77.3,33.5,77.3z"/>
				</g>
			</g>
			<g>
				<rect x="23.5" y="9.8" class="st0" width="41.3" height="21.5"/>
				<rect x="24.8" y="9.8" class="st1" width="41.3" height="21.5"/>
				
					<ellipse transform="matrix(0.9523 -0.3052 0.3052 0.9523 -4.6557 12.0342)" class="st2" cx="36.2" cy="20.9" rx="7.5" ry="7.5"/>
				<path class="st6" d="M36.2,14c-3.8,0-6.8,3.1-6.8,6.8c0,2.6,1.4,4.8,3.6,6c1.1-2,3.3-6,3.3-6l3.2,6c2.1-1.2,3.6-3.4,3.6-6
					C43,17.1,40,14,36.2,14z"/>
				<g>
					<path class="st2" d="M61.6,16.7H49.2c-0.4,0-0.8,0.4-0.8,0.8l0,0c0,0.4,0.4,0.8,0.8,0.8h12.4c0.4,0,0.8-0.4,0.8-0.8l0,0
						C62.3,17.1,61.9,16.7,61.6,16.7z"/>
					<path class="st2" d="M61.6,20.1H49.2c-0.4,0-0.8,0.4-0.8,0.8s0.4,0.8,0.8,0.8h12.4c0.4,0,0.8-0.4,0.8-0.8
						C62.3,20.4,61.9,20.1,61.6,20.1z"/>
					<path class="st2" d="M61.6,23.4H49.2c-0.4,0-0.8,0.4-0.8,0.8s0.4,0.8,0.8,0.8h12.4c0.4,0,0.8-0.4,0.8-0.8S61.9,23.4,61.6,23.4z
						"/>
				</g>
				<g>
					<path class="st7" d="M36.5,17.6h-3.7c-0.2,0-0.4,0.2-0.4,0.4c0,0.2,0.2,0.4,0.4,0.4h3.7c0.2,0,0.4-0.2,0.4-0.4
						C36.8,17.8,36.7,17.6,36.5,17.6z"/>
					<path class="st7" d="M33.5,19h-0.8c-0.2,0-0.4,0.2-0.4,0.4l0,0c0,0.2,0.2,0.4,0.4,0.4h0.8c0.2,0,0.4-0.2,0.4-0.4l0,0
						C34,19.2,33.8,19,33.5,19z"/>
				</g>
			</g>
		</g>
		<g>
			<path class="st8" d="M75.8,47c0,0,4.8,5,5,6.8c0.2,1.9-2.3,4.8-2.3,4.8L75.8,47z"/>
			<path class="st9" d="M73.7,98.5c0,0-0.2,2.6-0.7,2.7c-0.1,0-2.6,0-2.6,0h-3.2c0,0,0-0.8,1-0.9c0.9-0.2,2.5-0.8,3.1-2.1
				C71.8,96.9,73.7,98.5,73.7,98.5z"/>
			<path class="st9" d="M80.8,98.5c0,0-0.2,2.6-0.7,2.7c-0.1,0-2.6,0-2.6,0h-3.2c0,0,0-0.8,1-0.9c0.9-0.2,2.5-0.8,3.1-2.1
				S80.8,98.5,80.8,98.5z"/>
			<path class="st9" d="M70.2,70.2c0,0,0.8,5.4,4,15c3.1,9.6,3.6,13.7,3.6,13.7s0.9,0.1,1.7,0.1c0.6,0,1.6-0.2,1.6-0.2
				s0-10.5-1.4-15.3s-0.3-17.3-0.3-17.3L70.2,70.2z"/>
			<path class="st10" d="M68.4,66.4c0,0-0.1,8.1,1.3,18.1s0.9,14.2,0.9,14.2s1.2,0.3,1.6,0.3s1.8-0.1,1.8-0.1s2-10,1.4-15
				s2.8-17.1,2.8-17.1L68.4,66.4z"/>
			<path class="st11" d="M74.9,47.4l-1.6,1.2L71,48.1c0-0.2,0.2-1.1,0.3-1.9v-0.1c0.1-0.7,0.2-1.2,0.2-1.2l2.1-1.1l0.8-0.4
				c0,0-0.1,0.7-0.1,0.8C74.3,46.2,74.9,47.4,74.9,47.4z"/>
			<path class="st8" d="M71.2,46.8c0.1,0,3.1-0.9,3.5-0.8c0.3,0.1,0.5,0.8,0.5,0.8l-5,1.1C70.2,47.9,70.7,47.1,71.2,46.8z"/>
			<path class="st3" d="M79.6,67.5c-0.5,2.4-9.2,2.7-11.4,0.5c-0.3-0.2-0.3-1.4-0.2-2.9c0.2-3,0.8-7.5,0.8-9.9
				c0-1.1,0.2-2.3,0.4-3.3c0.4-2.2,1.1-3.9,1.1-3.9s4.2-1.4,5-1.1C79.1,47.9,80.1,65.1,79.6,67.5z"/>
			<path class="st8" d="M67.9,65c0.2-3,0.8-7.5,0.8-9.9c0-1.1,0.2-2.3,0.4-3.3l2.5-0.4C71.7,51.4,74.2,61.6,67.9,65z"/>
			<path class="st11" d="M69.3,60.8c0,0,0.2,0.4-0.2,0.7c-0.4,0.3-0.6,0.7-0.5,1.1c0.1,0.3,0.9,0.9,1.2,0.8c0.3-0.1,0.8-0.5,0.8-0.7
				c-0.1-0.2,0.4-1.5-0.3-2C69.6,60.1,69.3,60.8,69.3,60.8z"/>
			<path class="st3" d="M72.2,47.3c0,0-2.5,0.5-4.5,3.4s-3.3,5.1-2.9,6.1c0.4,1.1,3.7,4.7,4.3,4.7s1.5-0.4,1.5-1.4
				c0,0-2.3-3.5-1.9-4c0.2-0.2,3-2.5,3.4-1.5C72.8,56.4,72.2,47.3,72.2,47.3z"/>
			<path class="st12" d="M74.3,44.3c-0.5,0.9-2.2,1.7-3,2v-0.1c0.1-0.7,0.2-1.2,0.2-1.2l2.1-1.1C74.2,43.8,74.6,43.9,74.3,44.3z"/>
			<path class="st11" d="M70.9,44.9c0,0,3.2,1,3.8-1c0.6-2,1.4-3.2-0.6-3.9s-2.6-0.1-3,0.5C70.8,41.2,70.2,44.6,70.9,44.9z"/>
			<path class="st9" d="M71.2,40.4c0,0,0.2,2.3,0.7,2.2s0.9-0.2,0.8,0.5s-0.7,1.5,0.7,1.6c1.5,0.1,3.6-3.7,3.2-4.4
				C75.6,38.3,69.6,37.9,71.2,40.4z"/>
		</g>
		<g>
			<polygon class="st11" points="14.1,94.1 15.1,98.1 16.5,98.1 16.6,94.1 			"/>
			<polygon class="st11" points="26.3,94.2 29,98.1 30.2,96.8 28.5,93.7 			"/>
			<path class="st9" d="M19.2,40.6c-0.5-0.3-1.1-0.3-1.5-0.3c0.1-0.1,0.3-0.2,0.3-0.2c-0.3,0-0.8,0.2-0.8,0.2
				c-3.6-1.4-4.2,3.9-4.1,5.2c0.1,1.2-1.2,1.6-3.1,2.6c-3.6,1.9-3.9,4.3-3.9,4.3s0.1,0,0.1,0.1c0.2-0.3,0.5-0.9,0.9-1
				c0,0-0.4,0.8-0.5,1.2c1.1,0.8,3,2.6,4.4,3.9c0-0.2,0-0.6,0.1-0.8l0.2,1c0.7,0.7,1.2,1.2,1.2,1.2c-0.1-1,4.5-6.3,6.9-7.8
				c0.6-0.9,0.8-2.4,0.8-2.5c-0.1,1.2-0.3,1.9-0.5,2.3C21.7,48.1,20.5,41.4,19.2,40.6z"/>
			<path class="st11" d="M19.2,50.3c0,0-1.2,0.6-2,0.4c-0.8-0.2-1.4-1.3-1.4-1.3c0.4-0.1,0.5-0.6,0.4-2.6h0.2l2.7,0.5
				c0,0-0.1,0.8-0.1,1.6C19,49.6,19,50.2,19.2,50.3z"/>
			<path class="st5" d="M16.1,41.5c0,0,1.3-1.4,3-0.1C19.2,41.4,18.2,41.2,16.1,41.5z"/>
			<path class="st13" d="M19,47.3c0,0-0.1,0.8-0.1,1.6c-1.5,0-2.3-1.4-2.6-2.2L19,47.3z"/>
			<path class="st9" d="M16.1,46.5c0,0-0.8-1.2-1-2.3c-0.1-0.8,0.3-3.6,3.1-3.2c0,0,0.8,0.1,1.6,0.6c0.6,0.4,1.5,1.3,0.5,3.7
				L20,46.1L16.1,46.5z"/>
			<path class="st3" d="M29.8,95.7h-1.4h-1.5c0,0-3.5-3.9-5.5-10.3c0-0.1-0.1-0.3-0.1-0.4c-1.1-3.2-3.3-7.1-4.5-10.7
				c-0.2-0.6-0.4-1.1-0.5-1.6c0-0.2-0.1-0.3-0.1-0.5c-0.9-3-1.1-5-1.4-7.2l8.6,0.1C23.2,65.1,24.5,79.7,29.8,95.7z"/>
			<path class="st14" d="M22,60.2c0,4.1,0.6,5.8,0.6,5.8s-3.7,1.9-8,0.5c-0.1,0-3.6-0.8-3.6-0.8c0.1-0.2,0.7-2.9,0.8-3.1
				c0.9-2,1.6-2.8,1.7-3.5c0.2-1.1,0.2-2.3,0.1-3.4c-0.3-2.9-1.1-5.4-1.1-5.4c1.2-0.3,2.3-0.7,3.6-1.2c0.3,0.4,1.1,0.7,1.9,0.7
				c0.9,0,1.1-0.4,1.1-0.8c0.9,0.5,1.7,1,1.7,1c0.8,1.4,2.4,2.7,2.5,4.8C23.2,55.4,22,60.1,22,60.2z"/>
			<path class="st8" d="M14.5,60.7c-0.4,0.5-1.1,3.8-2.9,4.2c0.9-2.3,1.6-3.3,1.7-4c0.2-1.3,0.2-2.7,0.1-4c0.6-1,1-1.8,1-1.8
				c0-0.2,1-3,1.2-0.5C16,57.1,15,60.1,14.5,60.7z"/>
			<path class="st11" d="M19.5,48c0,0-3.5,0.1-3.5-2.1c0-2.2-0.5-3.7,1.8-3.8s2.7,0.7,2.9,1.4C20.8,44.3,20.5,48,19.5,48z"/>
			<path class="st9" d="M20.5,42.3c-0.5-0.7-1-0.5-1.2-0.3c-0.8-1.1-3.2,0.5-3.2,0.5c-0.2,1.6-1.4,2.5-1.4,2.5s0.6,0.4,2.1,0
				c1.2-0.3,2-2,2.3-2.7c0.2,0.2,0.7,0.6,0.8,1c0.2,0.6,0.3,1.7,0.6,1.7C20.7,45.1,21.5,43.3,20.5,42.3z"/>
			<path class="st11" d="M15,97.9c0,0,0.1,0.8-0.2,1.7c0,0-0.2,1.1,0.8,1.1c1.1,0,1.3-0.1,1.2-0.7c-0.1-0.7-0.3-1.8-0.3-1.8L15,97.9
				z"/>
			<path class="st15" d="M17,101.2L17,101.2h-2.2l0,0c-0.1-0.6,0.1-1.6,0.1-1.6c1.2,1.2,2,0,2,0C17,100,17,101.2,17,101.2z"/>
			<path class="st11" d="M32.8,100.1c0,0-2-2.2-2.6-3.3l-1.5,0.7l3.3,3.1l0.8-0.1V100.1z"/>
			<path class="st15" d="M34,101.2h-2.7c-0.2-0.2-0.5-0.7-0.7-1.2c-0.2-0.3-0.5-0.5-0.9-0.6v1.8H29l-0.5-1.9
				c-0.3-0.7-0.1-1.2,0.2-1.8c0.3,0,1.1,0.2,2.6,1.9c0.5,0.5,1,0.7,1.5,0.7l0,0C33.5,100.5,33.8,100.9,34,101.2z"/>
			<path class="st5" d="M33.8,51.7c0,0-2.3,1.3-3.1,1.7c-0.3,0.1-0.8,0.4-1.4,0.6c-0.3,0.2-0.7,0.3-1,0.4c-0.5,0.2-1.1,0.1-1.4-0.3
				c-1.3-1.5-4.5-4.6-7.9-5l0,0l0,0l0,0l0,0c0.2,0.5,2,5.1,2.1,6c0.1,1,0.2,16.7,0.2,16.7s-0.1,0.7,1.3,0.4c1.4-0.3,1.7-0.6,1.7-0.6
				s-1.3-9.7-1-13.1c0.1-0.7,0-1.4-0.1-2.2c2,1.2,4.5,1.8,4.5,1.8s0.9-0.4,2.3-1.3c0.6-0.4,1.3-0.9,1.9-1.6c0.8-0.7,2.2-2.5,2.2-2.5
				L33.8,51.7z"/>
			<path class="st8" d="M28.2,95.7h-1.5c0,0-3.5-3.9-5.5-10.3c0-0.1-0.1-0.3-0.1-0.4c-1.1-3.2-3.3-7.1-4.5-10.7
				c-0.2-0.6-0.4-1.1-0.5-1.6c0-0.2-0.1-0.3-0.1-0.5l1.3-1c0,0,3.8,6.1,5,11.9C23.2,88.2,27.2,94.2,28.2,95.7z"/>
			<path class="st3" d="M17.3,83.7c0,2.8-0.1,9.3-0.5,11.9h-1.4c-0.7,0-1.1,0-1.1,0c-0.9-4.6-1.6-8.5-2-11.8c-0.4-2.7-0.7-5-1-7.1
				c-0.3-2-0.5-3.7-0.5-5.1c0-0.2,0-0.4,0-0.7c0-0.2,0-0.4,0-0.6l7.4-0.7C18,74.6,17.2,82.1,17.3,83.7z"/>
			<path class="st8" d="M15.5,95.7c-0.7,0-1.1,0-1.1,0c-0.9-4.6-1.6-8.5-2-11.8c-0.4-2.7-0.7-5-1-7.1c-0.3-2-0.5-3.7-0.5-5.1
				l2.7,1.6c0,0-1.7,0.6-1.1,5.2C13,83.1,14.5,95,15.5,95.7z"/>
			<path class="st5" d="M15.9,71.6c0,0-0.5,1.9-2.3,1.6c-1.8-0.2-4.4-1.3-4.4-1.3s0.8-2.4,1.7-5.6c1.2-3.9,2.6-8.9,3.3-12
				c0.2-0.9,0.3-1.6,0.4-2.1l1.5-2.9c0,0,2.2,5,2.3,6.3C18.5,56.7,15.9,71.6,15.9,71.6z"/>
			<path class="st11" d="M22.2,56.9C21.3,57,21,57.5,21,58.1c-0.1,0.3-0.2,0.7-0.4,0.9c-0.9,0-2.9,0.2-4.7,0.3l-0.1,2.3
				c1.4-0.2,3.2-0.5,5.2-1.2c0.2,0,0.3-0.1,0.6-0.3c1.2-1,2-2.7,2-3C23.5,56.8,23.2,56.8,22.2,56.9z"/>
			<path class="st15" d="M15.8,58.1c-0.1,2-0.6,6-4.9,8.1l0,0c1.2-3.9,2.6-8.9,3.3-12C15,55.4,15.8,57,15.8,58.1z"/>
			<path class="st5" d="M16,49.2c0,0-3.7,0.3-4.6,2.2c-0.9,2-1.2,8.5,0,10.4c0,0,1.5,0.4,4.3-0.1h0.1c0,0,0.9-2.1,0.1-2.6
				c0,0-2.3,0.1-2.1-0.6C14,57.8,16,49.2,16,49.2z"/>
			<g>
				<path class="st11" d="M36.2,50.2c-2-0.3-2.5,1.5-2.5,1.5l0.4,1.2c0.6,0.1,1.1-0.1,1.6-0.8s0.6-0.4,0.9-1
					C37.2,50.5,36.5,50.2,36.2,50.2z"/>
				<path class="st11" d="M30.7,53.4c-0.3,0.1-0.8,0.4-1.4,0.6c0.3,0.5,0.7,1.5,0.8,3c0.6-0.4,1.3-1,2-1.6c1-1,2.1-2.5,2.1-2.5
					l-0.4-1.2C33.8,51.7,31.5,53,30.7,53.4z"/>
			</g>
		</g>
		<g>
			<g>
				<path class="st11" d="M135.4,67.7c0,0-1.4,0.4-2.3,0.1c-0.9-0.3-2.4,0.2-2.7,0.5s-0.2,0.5,0.3,0.6c0.4,0.1,2,0.8,3,0.4
					s2.4-0.4,2.4-0.4L135.4,67.7z"/>
				<path class="st10" d="M147.4,55.5c0,0-1.6,11.2-4.2,12.2c-1.3,0.5-7,1.6-8.7,1.7c0,0-0.4-0.3-0.3-1.7c0,0,6-2.2,6.8-3.4
					c1.3-1.8-0.8-7.2,0.8-8.9C143.6,53.8,146.1,53.1,147.4,55.5z"/>
			</g>
			<path class="st6" d="M147.2,98.7v-2.4h3.8c0.1,0,0.2-0.1,0.2-0.2v-0.4c0-0.1-0.1-0.2-0.2-0.2h-3.8v-14c0-0.4-0.3-0.7-0.7-0.7
				h-0.8c-0.4,0-0.7,0.3-0.7,0.7v13.9h-3.8c-0.1,0-0.2,0.1-0.2,0.2V96c0,0.1,0.1,0.2,0.2,0.2h3.8v2.4c-2.8,0.2-5,1.2-5.6,2.5h13.5
				C152.4,99.9,150.1,98.9,147.2,98.7z"/>
			<path class="st9" d="M146.9,79.1c-0.5,0.8-1,1.5-1.5,2.2c-1.7,2.1-3.5,3.9-3.9,5.6c-0.1,0.3-0.2,0.7-0.3,1.1s-0.3,0.8-0.5,1.2
				c-0.7,1.6-1.8,3.3-2.9,4.9c-1.9,2.8-3.6,5-3.6,5l-3.2-0.1c0.1-0.3,1.5-4.1,3.4-8.8c0.8-1.9,1.6-3.9,2.3-5.8
				c0.1-0.3,0.2-0.5,0.3-0.8c0.2-0.6,0.5-1.2,0.7-1.7c1.8-4.4,3.2-7.8,3.2-7.8s7-2.7,7.7-0.9C149.4,74.5,148.9,75.9,146.9,79.1z"/>
			<path class="st9" d="M134.2,98.5c0,0-0.2,2.6-0.7,2.7c-0.1,0-2.6,0-2.6,0h-3.2c0,0,0-0.8,1-0.9c0.9-0.2,2.5-0.8,3.1-2.1
				C132.4,96.9,134.2,98.5,134.2,98.5z"/>
			<path class="st9" d="M141.6,91c0,0,2.2,1.4,2,1.9c0,0.1-1.3,2.3-1.3,2.3l-1.6,2.8c0,0-0.7-0.4-0.4-1.3s0.5-2.6-0.3-3.7
				C139.2,91.8,141.6,91,141.6,91z"/>
			<path class="st10" d="M138.6,72.8c0,0-8.8,5.5-9.8,9.2s11.7,11.5,11.7,11.5s1.4-1.2,1.6-2.1c0,0-5.7-6.9-7-8.4
				c-0.8-0.9,11.3-3.3,12.8-5.6c1.5-2.3,0.9-4.2,0.9-4.2L138.6,72.8z"/>
			<path class="st3" d="M155.2,79.8h-18c-0.4,0-0.7,0.3-0.7,0.7v3.6c0,0.4,0.3,0.7,0.7,0.7h18c0.4,0,0.7-0.3,0.7-0.7v-3.6
				C155.9,80.1,155.6,79.8,155.2,79.8z"/>
			<path class="st11" d="M142.6,53.6c-0.9,0.5-1.3,1.2-1.3,1.2c2.1,0.5,5.6-1.4,5.6-1.4s-1.4-0.9-1.9-2.9c0-0.1,0-0.2-0.1-0.3
				c-0.1-0.3-0.1-0.7-0.1-1.1l-1,0.9l-1.6,1.4c0,0,0,0.6,0.2,1.6C142.6,53.2,142.6,53.4,142.6,53.6z"/>
			<path class="st6" d="M149.1,63.5c-0.3,4.1,0.2,10.2-0.1,11.3c-0.3,0.9-3.8,0.4-5.1,0.1c-0.5-0.1-1.1-0.3-1.7-0.5
				c-1.7-0.5-3.6-1.3-3.8-1.9c0,0,0,0,0-0.1s0-0.2,0-0.2c0.1-0.3,0.3-0.6,0.4-1.3c0-0.8,0-1.7,0.1-2.8c0-0.1,0-0.2,0-0.4l0,0
				c0,0,0,0,0-0.1c0-1.1,0.1-2.3,0.2-3.5c0-0.7,0.1-1.5,0.2-2.2c0.2-1.8,0.4-3.4,0.6-4.5c0.4-1.7,1.4-2.8,2.3-3.6l0.6-0.5
				c0.7,0.2,1.6,0.1,2.3-0.3c0.8-0.4,1.1-0.7,1.3-0.6C148.1,54,149.6,58.5,149.1,63.5z"/>
			<path class="st10" d="M142.1,74.4c-1.7-0.5-3.6-1.3-3.8-1.9c0,0,0,0,0-0.1s0-0.2,0-0.2c0.1-0.3,0.3-0.6,0.4-1.3
				c0-0.8,0-1.7,0.1-2.8c0-0.1,0-0.2,0-0.4l0,0c0,0,0,0,0-0.1l6.6-3C145.4,64.7,145.8,70,142.1,74.4z"/>
			<path class="st13" d="M142.4,51.4c0,0,0,0.6,0.2,1.6c1.6-0.5,2.3-1.9,2.5-2.5c0.1-0.2,0.1-0.3,0.1-0.3s-0.1,0-0.2,0
				c-0.2,0-0.6-0.1-1.1-0.2L142.4,51.4z"/>
			<path class="st11" d="M141.6,51.3c0,0,3.5,0.4,3.7-1.8s0.8-3.6-1.4-3.9c-2.2-0.3-2.7,0.4-3,1.1C140.8,47.5,140.8,51.2,141.6,51.3
				z"/>
			<path class="st6" d="M145.4,49.7c0,0-0.2-2.9-3.4-3.2c-2.2-0.2-1-2.1-0.7-2.4c0,0,1.7,0.2,3.3,0.5
				C148.1,45.3,145.6,49.3,145.4,49.7z"/>
			<g>
				
					<rect x="127" y="62.4" transform="matrix(0.9511 -0.3089 0.3089 0.9511 -14.3362 42.543)" class="st16" width="0.3" height="8.3"/>
				
					<rect x="128.3" y="70" transform="matrix(0.9998 -2.135448e-02 2.135448e-02 0.9998 -1.47 2.8477)" class="st16" width="8.7" height="0.5"/>
			</g>
			<g>
				<path class="st11" d="M136.1,69.4c0,0-1.4,0.5-2.3,0.3c-0.9-0.2-2.4,0.4-2.6,0.8c-0.2,0.4-0.1,0.5,0.3,0.5
					c0.5,0.1,2.1,0.6,3.1,0.1s2.3-0.7,2.3-0.7L136.1,69.4z"/>
				<path class="st6" d="M146.8,55.9c0,0-0.3,11.3-2.8,12.6c-1.2,0.6-6.8,2.4-8.4,2.7c0,0-0.4-0.3-0.5-1.7c0,0,5.7-2.8,6.4-4.1
					c1.1-1.9-1.6-7.1-0.2-8.9C142.6,54.7,145.2,53.7,146.8,55.9z"/>
			</g>
		</g>
		<path class="st17" d="M191.9,101.5H2.5c-0.1,0-0.2-0.1-0.2-0.2l0,0c0-0.1,0.1-0.2,0.2-0.2h189.4c0.1,0,0.2,0.1,0.2,0.2l0,0
			C192.1,101.5,191.9,101.5,191.9,101.5z"/>
	</g>
</g>
</svg>
