<?xml version="1.0" encoding="utf-8"?>
<!-- Generator: Adobe Illustrator 21.0.0, SVG Export Plug-In . SVG Version: 6.00 Build 0)  -->
<svg version="1.1" id="Layer_1" xmlns="http://www.w3.org/2000/svg" xmlns:xlink="http://www.w3.org/1999/xlink" x="0px" y="0px"
	 viewBox="0 0 225 232.7" style="enable-background:new 0 0 225 232.7;" xml:space="preserve">
<style type="text/css">
	.st0{fill:#154284;}
	.st1{fill:#F7F4EE;}
	.st2{fill:#FFFFFF;}
	.st3{fill:#A6B6DE;}
	.st4{fill:none;stroke:#C2C2C2;stroke-width:0.246;stroke-miterlimit:10;}
	.st5{fill:none;stroke:#6B81C0;stroke-miterlimit:10;}
	.st6{fill:url(#SVGID_1_);}
	.st7{fill:#F9A825;}
	.st8{fill:#FDDCA8;}
	.st9{fill:#F9D293;}
	.st10{fill:#323441;}
	.st11{fill:#0A8CC8;}
	.st12{fill:#F8B4A6;}
	.st13{fill:#23478E;}
	.st14{fill:#F9BFAD;}
	.st15{fill:#057BA6;}
	.st16{fill:url(#SVGID_2_);}
	.st17{fill:url(#SVGID_3_);}
	.st18{fill:url(#SVGID_4_);}
	.st19{fill:url(#SVGID_5_);}
	.st20{fill:url(#SVGID_6_);}
	.st21{fill:#FDC0AE;}
	.st22{fill:#FD5C95;}
	.st23{fill:#F9B253;}
	.st24{fill:#25468F;}
	.st25{opacity:0.1;enable-background:new    ;}
	.st26{fill:none;stroke:#603813;stroke-width:8;stroke-miterlimit:10;}
	.st27{fill:#1180AD;}
	.st28{fill:#BF3B2B;}
	.st29{fill:#E64D3C;}
	.st30{fill:#C3996B;}
	.st31{fill:#754C28;}
	.st32{fill:#A87C4F;}
	.st33{fill:#8A5D3B;}
</style>
<g>
	<g>
		<g>
			<g>
				<g>
					<path class="st0" d="M166.1,175.9H98.4c-1.7,0-3-1.4-3-3c0-1.7,1.4-3,3-3h67.7c1.7,0,3,1.4,3,3S167.7,175.9,166.1,175.9z"/>
				</g>
			</g>
			<g>
				<g>
					<rect x="116.8" y="138.2" class="st0" width="30.9" height="31.5"/>
				</g>
			</g>
			<path class="st0" d="M194.8,155.3H68.6c-4.3,0-7.7-3.4-7.7-7.7V73.5c0-4.9,4.1-9,9-9h124.6c4.9,0,9,4.1,9,9v73.1
				C203.5,151.4,199.6,155.3,194.8,155.3z"/>
			<g>
				<g>
					<path class="st1" d="M191.9,151.7H72.6c-4.8,0-8.7-3.9-8.7-8.7V74.1c0-3.3,2.8-6.1,6.1-6.1h124.5c3.3,0,6.1,2.8,6.1,6.1v69
						C200.6,147.8,196.6,151.7,191.9,151.7z"/>
				</g>
			</g>
		</g>
		<path class="st2" d="M184,80.9H80.3H63.9l-0.2,65.2c0,3.1,2.2,5.6,4.8,5.6h17.8h91.6h17.8c2.7,0,4.8-2.5,4.8-5.6V80.9H184z"/>
	</g>
	<g>
		<path class="st3" d="M91.6,147.2h-4.5c-0.5,0-0.9-0.4-0.9-0.9l0,0c0-0.5,0.4-0.9,0.9-0.9h4.5c0.5,0,0.9,0.4,0.9,0.9l0,0
			C92.6,146.8,92.1,147.2,91.6,147.2z"/>
		<path class="st3" d="M106.9,147.2h-4.5c-0.5,0-0.9-0.4-0.9-0.9l0,0c0-0.5,0.4-0.9,0.9-0.9h4.5c0.5,0,0.9,0.4,0.9,0.9l0,0
			C107.7,146.8,107.4,147.2,106.9,147.2z"/>
		<path class="st3" d="M122.2,147.2h-4.5c-0.5,0-0.9-0.4-0.9-0.9l0,0c0-0.5,0.4-0.9,0.9-0.9h4.5c0.5,0,0.9,0.4,0.9,0.9l0,0
			C123,146.8,122.6,147.2,122.2,147.2z"/>
		<path class="st3" d="M137.3,147.2h-4.5c-0.5,0-0.9-0.4-0.9-0.9l0,0c0-0.5,0.4-0.9,0.9-0.9h4.5c0.5,0,0.9,0.4,0.9,0.9l0,0
			C138.3,146.8,137.9,147.2,137.3,147.2z"/>
		<path class="st3" d="M152.6,147.2h-4.5c-0.5,0-0.9-0.4-0.9-0.9l0,0c0-0.5,0.4-0.9,0.9-0.9h4.5c0.5,0,0.9,0.4,0.9,0.9l0,0
			C153.5,146.8,153.1,147.2,152.6,147.2z"/>
		<path class="st3" d="M167.9,147.2h-4.5c-0.5,0-0.9-0.4-0.9-0.9l0,0c0-0.5,0.4-0.9,0.9-0.9h4.5c0.5,0,0.9,0.4,0.9,0.9l0,0
			C168.7,146.8,168.3,147.2,167.9,147.2z"/>
		<g>
			<line class="st4" x1="83" y1="137.8" x2="175.5" y2="137.8"/>
			<line class="st4" x1="83" y1="132" x2="175.5" y2="132"/>
			<line class="st4" x1="83" y1="126.2" x2="175.5" y2="126.2"/>
			<line class="st4" x1="83" y1="120.4" x2="175.5" y2="120.4"/>
			<line class="st4" x1="83" y1="114.6" x2="175.5" y2="114.6"/>
			<line class="st4" x1="83" y1="108.8" x2="175.5" y2="108.8"/>
			<line class="st4" x1="83" y1="103" x2="175.5" y2="103"/>
			<line class="st4" x1="83" y1="97.1" x2="175.5" y2="97.1"/>
			<line class="st4" x1="83" y1="91.3" x2="175.5" y2="91.3"/>
			<path class="st5" d="M83,84.7v56.8c0,1.2,1,2.2,2.2,2.2h96.3"/>
		</g>
		
			<linearGradient id="SVGID_1_" gradientUnits="userSpaceOnUse" x1="28" y1="347.2998" x2="28" y2="383.5604" gradientTransform="matrix(1 0 0 1 104 -242.5)">
			<stop  offset="0" style="stop-color:#F26549"/>
			<stop  offset="1" style="stop-color:#F26549;stop-opacity:2.860000e-02"/>
			<stop  offset="1" style="stop-color:#F26549;stop-opacity:0"/>
		</linearGradient>
		<path class="st6" d="M85.4,140.6c2.8,0,11.7-37,19.4-37s8.5,25,18.2,25c9.8,0,14.4-36.7,28.4-36.7s16.4,48.7,27.2,48.7"/>
	</g>
	<g>
		<g>
			<g>
				<g>
					
						<ellipse transform="matrix(0.8048 -0.5935 0.5935 0.8048 -25.9502 142.2492)" class="st7" cx="203.3" cy="110.6" rx="7.1" ry="7.1"/>
				</g>
			</g>
			<g>
				<g>
					<path class="st8" d="M200.3,106.6c2.7-1.9,6.3-1.6,8.6,0.9c-0.1-0.2-0.2-0.4-0.4-0.5c-2.2-2.9-6.1-3.4-9-1.4
						c-2.9,2.2-3.4,6.1-1.4,9c0.1,0.2,0.3,0.3,0.4,0.5C196.9,112.2,197.6,108.5,200.3,106.6z"/>
				</g>
			</g>
			<g>
				<g>
					<g>
						<path class="st9" d="M204.6,112.7c0,0.2-0.1,0.4-0.2,0.5c-0.1,0.2-0.2,0.3-0.5,0.5c-0.4,0.3-1,0.4-1.6,0.3
							c-0.5-0.1-1.1-0.4-1.5-1l-1.3,1l-0.3-0.3l1.3-1c-0.4-0.6-0.6-1.2-0.6-1.7s0.2-1,0.6-1.3c0.2-0.1,0.3-0.2,0.5-0.2
							c0.1,0,0.3,0.1,0.4,0.2c0.1,0.1,0.2,0.3,0.1,0.4c0,0.1-0.1,0.2-0.2,0.3c-0.1,0.1-0.2,0.1-0.4,0.2s-0.3,0.1-0.4,0.1
							c-0.1,0.2-0.1,0.4,0,0.8c0.1,0.3,0.2,0.5,0.4,0.9l2.3-1.7c0-0.2-0.1-0.3-0.1-0.4s-0.1-0.3-0.1-0.5c-0.1-0.4-0.1-0.9,0-1.2
							c0.1-0.3,0.3-0.6,0.6-1c0.4-0.3,1-0.4,1.5-0.2c0.5,0.1,1.1,0.4,1.4,1l1.1-0.8l0.3,0.3l-1.1,0.8c0.2,0.3,0.3,0.6,0.4,0.9
							c0.1,0.3,0.1,0.5,0.1,0.8c0,0.2-0.1,0.4-0.1,0.6c-0.1,0.2-0.2,0.3-0.3,0.4s-0.3,0.1-0.4,0.1s-0.2-0.1-0.3-0.2
							s-0.1-0.3-0.1-0.4s0-0.2,0.1-0.3c0.1-0.1,0.2-0.1,0.3-0.2s0.2-0.1,0.3-0.1c0,0,0-0.1,0-0.2s0-0.2,0-0.3s0-0.2-0.1-0.4
							c-0.1-0.1-0.1-0.3-0.2-0.4l-2,1.5c0,0.1,0.1,0.3,0.1,0.4s0.1,0.2,0.1,0.4c0.1,0.2,0.1,0.4,0.1,0.6
							C204.7,112.3,204.7,112.5,204.6,112.7z M204.1,110.2l1.9-1.5c-0.2-0.3-0.4-0.4-0.8-0.5c-0.3-0.1-0.5,0-0.9,0.1
							c-0.2,0.2-0.4,0.4-0.5,0.6s-0.1,0.5,0,0.9c0,0,0,0.1,0,0.2C204,110.1,204,110.2,204.1,110.2z M203,113.3
							c0.2-0.2,0.4-0.4,0.5-0.6s0.1-0.5,0-1v-0.1v-0.1l-2.2,1.6c0.3,0.3,0.5,0.5,0.9,0.5C202.3,113.5,202.6,113.5,203,113.3z"/>
					</g>
				</g>
			</g>
		</g>
		<g>
			<g>
				<g>
					
						<ellipse transform="matrix(1.937488e-02 -0.9998 0.9998 1.937488e-02 73.0765 236.1485)" class="st7" cx="156.9" cy="80.8" rx="7.1" ry="7.1"/>
				</g>
			</g>
			<g>
				<g>
					<path class="st8" d="M152.1,80.8c0.1-3.3,2.7-6,5.9-6.3c-0.2,0-0.4,0-0.6,0c-3.6-0.1-6.5,2.8-6.6,6.3c-0.1,3.6,2.8,6.6,6.3,6.6
						c0.2,0,0.4,0,0.6,0C154.4,86.9,152,84.1,152.1,80.8z"/>
				</g>
			</g>
			<g>
				<g>
					<g>
						<path class="st9" d="M159.5,81.1c0.1,0.1,0.2,0.3,0.3,0.5s0.1,0.4,0.1,0.6c0,0.5-0.2,1.1-0.8,1.5c-0.4,0.4-1.1,0.6-1.7,0.6
							v1.6H157v-1.6c-0.8,0-1.3-0.2-1.8-0.5c-0.4-0.3-0.6-0.8-0.6-1.3c0-0.2,0.1-0.4,0.1-0.5c0.1-0.1,0.2-0.2,0.4-0.2
							s0.3,0.1,0.4,0.1c0.1,0.1,0.2,0.2,0.1,0.3c0,0.1,0,0.2-0.1,0.4c-0.1,0.2-0.1,0.3-0.1,0.4c0.1,0.2,0.3,0.3,0.5,0.4
							s0.5,0.2,1,0.2l0.2-2.7c-0.2-0.1-0.3-0.1-0.4-0.2c-0.1,0-0.3-0.1-0.4-0.2c-0.4-0.2-0.8-0.4-1-0.8c-0.2-0.3-0.3-0.6-0.3-1.1
							s0.2-1,0.6-1.4c0.4-0.3,1-0.5,1.6-0.5v-1.3h0.4v1.3c0.3,0,0.6,0.1,1,0.2c0.3,0.1,0.5,0.2,0.6,0.4c0.2,0.1,0.3,0.3,0.4,0.5
							c0.1,0.2,0.1,0.3,0.1,0.5s0,0.3-0.1,0.4s-0.2,0.2-0.4,0.2s-0.3,0-0.4-0.1c-0.1-0.1-0.2-0.2-0.2-0.3s0-0.3,0-0.4
							s0.1-0.2,0.1-0.3c0,0,0-0.1-0.1-0.1c-0.1-0.1-0.1-0.1-0.2-0.2c-0.1-0.1-0.2-0.1-0.3-0.1s-0.3-0.1-0.5-0.1v2.6
							c0.1,0.1,0.2,0.1,0.3,0.1s0.2,0.1,0.3,0.1c0.2,0.1,0.4,0.2,0.6,0.3C159.2,80.8,159.4,81,159.5,81.1z M157.2,80v-2.5
							c-0.3,0-0.6,0.1-1,0.3c-0.2,0.2-0.4,0.4-0.4,0.8c0,0.3,0.1,0.5,0.2,0.8c0.1,0.2,0.4,0.3,0.6,0.5c0,0,0.1,0,0.2,0.1
							C157,79.9,157.1,79.9,157.2,80z M158.9,82.7c0-0.3-0.1-0.5-0.2-0.8c-0.1-0.2-0.4-0.4-0.8-0.5h-0.1h-0.1v2.7
							c0.4,0,0.8-0.1,1-0.3C158.7,83.5,158.8,83.2,158.9,82.7z"/>
					</g>
				</g>
			</g>
		</g>
		<g>
			<g>
				<g>
					
						<ellipse transform="matrix(0.8933 -0.4494 0.4494 0.8933 -31.6832 60.1657)" class="st7" cx="110.9" cy="96.8" rx="7.1" ry="7.1"/>
				</g>
			</g>
			<g>
				<g>
					<path class="st8" d="M106.6,99.1c-1.5-3-0.4-6.6,2.3-8.3c-0.2,0.1-0.4,0.2-0.6,0.3c-3.2,1.6-4.4,5.5-2.9,8.7
						c1.6,3.2,5.5,4.5,8.7,2.9c0.2-0.1,0.4-0.2,0.6-0.3C111.5,103.4,108.1,102.1,106.6,99.1z"/>
				</g>
			</g>
			<g>
				<g>
					<g>
						<path class="st9" d="M113.3,95.8c0.2,0.1,0.4,0.2,0.5,0.3c0.2,0.1,0.3,0.3,0.4,0.5c0.2,0.5,0.3,1.1,0.1,1.6
							c-0.2,0.5-0.6,1-1.2,1.4l0.8,1.4l-0.4,0.2l-0.8-1.4c-0.6,0.3-1.3,0.4-1.8,0.3s-1-0.3-1.2-0.9c-0.1-0.2-0.1-0.3-0.1-0.5
							c0-0.1,0.1-0.2,0.3-0.3c0.2-0.1,0.3-0.1,0.4-0.1s0.2,0.1,0.3,0.2c0,0.1,0.1,0.2,0.1,0.4s0,0.3,0.1,0.4
							c0.2,0.1,0.4,0.2,0.8,0.2c0.3,0,0.6-0.1,1-0.3l-1.3-2.6c-0.2,0-0.3,0-0.4,0s-0.3,0-0.5,0c-0.4,0-0.9,0-1.2-0.2
							c-0.3-0.1-0.6-0.4-0.9-0.9c-0.2-0.4-0.2-1,0-1.5s0.6-1,1.2-1.2l-0.5-1.2l0.4-0.2l0.5,1.2c0.3-0.1,0.6-0.2,1-0.3
							c0.3,0,0.5,0,0.8,0c0.2,0,0.4,0.1,0.5,0.2c0.2,0.1,0.3,0.2,0.3,0.4c0.1,0.1,0.1,0.3,0.1,0.4s-0.1,0.2-0.2,0.3
							c-0.2,0.1-0.3,0.1-0.4,0.1s-0.2-0.1-0.3-0.2c-0.1-0.1-0.1-0.2-0.1-0.4c0-0.1-0.1-0.2-0.1-0.3c0,0-0.1,0-0.1-0.1
							c-0.1,0-0.2,0-0.3,0s-0.2,0-0.4,0c-0.1,0-0.3,0.1-0.4,0.2l1.2,2.4c0.1,0,0.3,0,0.4,0s0.2,0,0.4,0c0.2,0,0.4,0,0.8,0
							C112.9,95.7,113.1,95.8,113.3,95.8z M110.7,96l-1.1-2.2c-0.3,0.2-0.5,0.4-0.6,0.6c-0.1,0.3-0.1,0.5,0,0.9
							c0.1,0.3,0.3,0.5,0.5,0.6s0.5,0.1,0.9,0.1C110.4,96,110.5,96,110.7,96C110.6,96,110.6,96,110.7,96z M113.5,97.6
							c-0.1-0.3-0.3-0.4-0.5-0.6c-0.2-0.1-0.5-0.2-1-0.1h-0.1h-0.1l1.2,2.4c0.4-0.2,0.6-0.4,0.8-0.8
							C113.8,98.2,113.8,97.9,113.5,97.6z"/>
					</g>
				</g>
			</g>
		</g>
		<g>
			<g>
				<g>
					
						<ellipse transform="matrix(0.879 -0.4769 0.4769 0.879 -23.4869 74.0437)" class="st7" cx="134.1" cy="83.3" rx="7.1" ry="7.1"/>
				</g>
			</g>
			<g>
				<g>
					<path class="st8" d="M129.7,85.6c-1.6-2.9-0.6-6.6,2-8.4c-0.2,0.1-0.4,0.2-0.6,0.3c-3.1,1.7-4.3,5.6-2.6,8.7s5.6,4.3,8.7,2.6
						c0.2-0.1,0.4-0.2,0.5-0.3C134.8,89.7,131.3,88.5,129.7,85.6z"/>
				</g>
			</g>
			<g>
				<g>
					<g>
						<path class="st9" d="M136.4,82.2c0.2,0.1,0.4,0.1,0.5,0.3c0.2,0.1,0.3,0.3,0.4,0.5c0.3,0.5,0.3,1.1,0.1,1.6s-0.6,1.1-1.2,1.4
							l0.8,1.4l-0.4,0.2l-0.8-1.4c-0.6,0.3-1.3,0.4-1.8,0.4c-0.5-0.1-1-0.3-1.2-0.8c-0.1-0.2-0.1-0.3-0.1-0.5c0-0.1,0.1-0.2,0.3-0.3
							c0.2-0.1,0.3-0.1,0.4-0.1s0.2,0.1,0.3,0.2c0,0.1,0.1,0.2,0.1,0.4s0.1,0.3,0.1,0.4c0.2,0.1,0.4,0.2,0.8,0.1
							c0.3,0,0.6-0.1,1-0.3l-1.4-2.5c-0.2,0-0.3,0-0.4,0.1c-0.1,0-0.3,0-0.5,0.1c-0.4,0-0.9,0-1.2-0.1s-0.6-0.4-0.9-0.8
							c-0.2-0.4-0.3-1-0.1-1.5s0.6-1,1.2-1.3l-0.6-1.1l0.4-0.2l0.6,1.1c0.3-0.2,0.6-0.3,1-0.3s0.5,0,0.8,0s0.4,0.1,0.6,0.2
							c0.2,0.1,0.3,0.2,0.3,0.4c0.1,0.1,0.1,0.3,0.1,0.4s-0.1,0.2-0.2,0.3c-0.1,0.1-0.3,0.1-0.4,0.1c-0.1,0-0.2-0.1-0.3-0.2
							s-0.1-0.2-0.1-0.4c0-0.1-0.1-0.2-0.1-0.3h-0.1c-0.1,0-0.2,0-0.3,0s-0.2,0-0.4,0c-0.1,0-0.3,0.1-0.4,0.2l1.3,2.3
							c0.1,0,0.3,0,0.4-0.1c0.1,0,0.2,0,0.4,0s0.4,0,0.8,0C136,82.1,136.2,82.2,136.4,82.2z M133.8,82.4l-1.2-2.2
							c-0.3,0.2-0.5,0.4-0.6,0.8c-0.1,0.3-0.1,0.5,0,0.9s0.3,0.4,0.5,0.5s0.5,0.1,0.9,0.1c0,0,0.1,0,0.2,0
							C133.7,82.4,133.8,82.4,133.8,82.4z M136.7,83.9c-0.1-0.3-0.3-0.4-0.5-0.5s-0.5-0.1-1-0.1h-0.1H135l1.3,2.4
							c0.3-0.2,0.6-0.5,0.6-0.8C136.9,84.6,136.9,84.2,136.7,83.9z"/>
					</g>
				</g>
			</g>
		</g>
		<g>
			<g>
				<g>
					
						<ellipse transform="matrix(0.6157 -0.788 0.788 0.6157 -9.010959e-02 175.3404)" class="st7" cx="179.7" cy="87.8" rx="7.1" ry="7.1"/>
				</g>
			</g>
			<g>
				<g>
					<path class="st8" d="M175.7,84.8c2-2.6,5.7-3.2,8.5-1.5c-0.2-0.1-0.3-0.3-0.5-0.4c-2.8-2.2-6.9-1.7-9,1.1s-1.7,6.9,1.1,9
						c0.2,0.1,0.3,0.3,0.5,0.4C174,91.1,173.7,87.5,175.7,84.8z"/>
				</g>
			</g>
			<g>
				<g>
					<g>
						<path class="st9" d="M181.5,89.5c0,0.2,0,0.4,0,0.6s-0.2,0.4-0.3,0.6c-0.3,0.4-0.9,0.8-1.4,0.8c-0.6,0-1.2-0.1-1.7-0.5l-1,1.3
							l-0.3-0.3l1-1.2c-0.5-0.4-1-1-1.1-1.5s-0.1-1,0.2-1.4c0.1-0.2,0.3-0.3,0.4-0.3s0.3,0,0.4,0.1c0.1,0.1,0.2,0.2,0.3,0.4
							c0,0.1,0,0.3-0.1,0.4s-0.2,0.2-0.3,0.3c-0.2,0.1-0.3,0.2-0.3,0.2c0,0.2,0,0.4,0.1,0.8c0.1,0.2,0.3,0.5,0.6,0.8l1.7-2.3
							c-0.1-0.1-0.2-0.3-0.2-0.4c-0.1-0.1-0.1-0.2-0.2-0.4c-0.2-0.4-0.3-0.8-0.3-1.2c0-0.3,0.1-0.8,0.4-1.1c0.3-0.4,0.8-0.6,1.4-0.6
							c0.5,0,1.1,0.2,1.6,0.5l0.8-1l0.3,0.3l-0.8,1c0.3,0.2,0.5,0.4,0.6,0.8c0.1,0.2,0.2,0.5,0.3,0.8c0,0.2,0.1,0.4,0,0.6
							c0,0.2-0.1,0.3-0.2,0.5c-0.1,0.2-0.2,0.2-0.3,0.2s-0.3,0-0.4-0.1c-0.1-0.1-0.2-0.2-0.3-0.4c0-0.1,0-0.2,0-0.3
							c0.1-0.1,0.2-0.2,0.3-0.3s0.2-0.2,0.3-0.2c0,0,0-0.1,0-0.2s0-0.2-0.1-0.2c0-0.1-0.1-0.2-0.2-0.3c-0.1-0.1-0.2-0.2-0.3-0.3
							l-1.6,2c0.1,0.1,0.1,0.2,0.2,0.3c0,0.1,0.1,0.2,0.2,0.3c0.1,0.2,0.2,0.4,0.3,0.6C181.4,89.1,181.5,89.3,181.5,89.5z
							 M180.4,87.2l1.5-1.9c-0.3-0.2-0.5-0.3-0.9-0.3s-0.5,0.1-0.8,0.3s-0.3,0.5-0.3,0.8c0,0.2,0.1,0.5,0.2,0.9l0.1,0.1
							C180.4,87.1,180.4,87.1,180.4,87.2z M180.1,90.5c0.2-0.2,0.3-0.5,0.3-0.8s-0.1-0.5-0.3-1c0,0,0-0.1-0.1-0.1c0,0,0-0.1-0.1-0.1
							l-1.6,2.2c0.3,0.2,0.6,0.3,1,0.3C179.6,90.9,179.8,90.8,180.1,90.5z"/>
					</g>
				</g>
			</g>
		</g>
	</g>
	<g>
		<path class="st10" d="M87.7,58.6c0,0-10.7,7.9-9.5,11.5c1.1,3.7,7,14.7,7,14.7l3-0.8c0,0-4.9-9.7-1.2-12.9
			c3.9-3.3,7.3-5.2,7.3-5.2s7.7,4.2,7.7,6.2c0.1,2-3.8,10.4-3.8,10.4l2.6,1.6c0,0,8.1-12.1,6.6-15c-1.5-3-7.4-8.8-7.4-8.8
			S92.8,61.5,87.7,58.6z"/>
		<path class="st11" d="M95.4,37.6c0,0-12.7,0.4-11.2,13.6l4.5,0.4l-0.5,7.5c0,0,5.7,2.8,12.1,1.2l1-12.8l1.4,4.5l4.2-2
			c0,0-2.6-8.2-4.1-9.5C101.1,39.1,95.4,37.6,95.4,37.6z"/>
		<polygon class="st12" points="93,35 92.3,40.7 97.3,41.2 97.8,35.6 		"/>
		<path class="st13" d="M92.2,34.4c0,0-1.1-1.3-0.4-4.1c0,0,0.9-5.2,6-2.4c0,0,1.2,1,2.6,1s0.1,4.5-2,5.1L92.2,34.4z"/>
		<path class="st14" d="M99.1,32.3C98.7,37,97,38.7,95,38.5s-3.2-2.2-2.8-6.9c0.2-2.5,1.8-3.1,3.8-3C97.9,28.8,99.3,29.8,99.1,32.3z
			"/>
		<path class="st13" d="M92.2,29.9c0,0,0.8,1.8,7.4,1.6l0.2-1.5l-2.2-1.5L95,28l-1.9,0.6L92.2,29.9z"/>
		<path class="st15" d="M92.7,38.1c0,0,0.8,2.4,2.3,2.9l-2,2.2c0,0-1-2.4-0.5-5.1L92.7,38.1z"/>
		<path class="st15" d="M97.6,38.3c0,0-1.2,2.4-2.8,2.7l1.4,2.6c0,0,1.6-2.3,1.5-5.1L97.6,38.3z"/>
		<path class="st14" d="M84.2,51.2c0,0,0.6,10.7,5.3,14.5c0,0,3.1,1.1,2.2-2.3l-1.4-1.6c0,0-2.7-3.1-1.5-10.2L84.2,51.2z"/>
		<path class="st14" d="M102.6,52.1c0,0,5.7,10.8,8.2,11.5c2.5,0.8,5.2,0.6,5.1-0.1c-0.2-0.8-4.6-2.2-4.6-2.2L106.9,50L102.6,52.1z"
			/>
		<path class="st11" d="M88.2,84c0,0,0.9,1.4,0.6,1.7c-0.1,0.3-5.9,5.2-6.1,4.5c-0.2-0.8,2.5-5.4,2.5-5.4L88.2,84z"/>
		<path class="st11" d="M98.4,82.5c0,0-1.8,1.5-1,2.7c0.9,1.2,4.9,4.7,5.6,4.6c0.5-0.1-1.9-5.7-1.9-5.7L98.4,82.5z"/>
	</g>
	<g>
		<g>
			
				<linearGradient id="SVGID_2_" gradientUnits="userSpaceOnUse" x1="176.436" y1="9.1809" x2="236.4574" y2="60.5323" gradientTransform="matrix(1 0 0 1 0 132)">
				<stop  offset="0" style="stop-color:#FFD571"/>
				<stop  offset="0.2509" style="stop-color:#FFBD60"/>
				<stop  offset="0.7782" style="stop-color:#FF8035"/>
				<stop  offset="1" style="stop-color:#FF6421"/>
			</linearGradient>
			<path class="st16" d="M223,168.3c0,8.6-8.5,8.2-19,8.2s-19,0.4-19-8.2c0-8.6,8.5-22.9,19-22.9S223,159.7,223,168.3z"/>
			
				<linearGradient id="SVGID_3_" gradientUnits="userSpaceOnUse" x1="189.5942" y1="-6.1988" x2="249.6155" y2="45.1527" gradientTransform="matrix(1 0 0 1 0 132)">
				<stop  offset="0" style="stop-color:#FFD571"/>
				<stop  offset="0.2509" style="stop-color:#FFBD60"/>
				<stop  offset="0.7782" style="stop-color:#FF8035"/>
				<stop  offset="1" style="stop-color:#FF6421"/>
			</linearGradient>
			<path class="st17" d="M194.7,136.4c0-4.2,4.2-4,9.3-4s9.3-0.2,9.3,4s-4.2,11.2-9.3,11.2C198.9,147.6,194.7,140.6,194.7,136.4z"/>
			
				<linearGradient id="SVGID_4_" gradientUnits="userSpaceOnUse" x1="216.3565" y1="16.8949" x2="176.1448" y2="7.3112" gradientTransform="matrix(1 0 0 1 0 132)">
				<stop  offset="2.702703e-03" style="stop-color:#C662C2"/>
				<stop  offset="0.1241" style="stop-color:#B95DBC"/>
				<stop  offset="0.3491" style="stop-color:#9751AB"/>
				<stop  offset="0.6531" style="stop-color:#5F3D90"/>
				<stop  offset="1" style="stop-color:#17236D"/>
			</linearGradient>
			<path class="st18" d="M212.1,146.1c0,0.8-0.5,1.3-1.3,1.3h-13.7c-0.8,0-1.3-0.5-1.3-1.3v-0.3c0-0.8,0.5-1.3,1.3-1.3h13.8
				c0.8,0,1.3,0.5,1.3,1.3L212.1,146.1L212.1,146.1z"/>
			
				<linearGradient id="SVGID_5_" gradientUnits="userSpaceOnUse" x1="212.6188" y1="32.578" x2="172.4071" y2="22.9943" gradientTransform="matrix(1 0 0 1 0 132)">
				<stop  offset="2.702703e-03" style="stop-color:#C662C2"/>
				<stop  offset="0.1241" style="stop-color:#B95DBC"/>
				<stop  offset="0.3491" style="stop-color:#9751AB"/>
				<stop  offset="0.6531" style="stop-color:#5F3D90"/>
				<stop  offset="1" style="stop-color:#17236D"/>
			</linearGradient>
			<circle class="st19" cx="203.9" cy="162.5" r="8.5"/>
			
				<linearGradient id="SVGID_6_" gradientUnits="userSpaceOnUse" x1="219.4471" y1="36.5536" x2="182.8909" y2="22.2275" gradientTransform="matrix(1 0 0 1 0 132)">
				<stop  offset="2.702703e-03" style="stop-color:#FFFFFF"/>
				<stop  offset="0.367" style="stop-color:#F2F2FF"/>
				<stop  offset="1" style="stop-color:#D2D2FF"/>
			</linearGradient>
			<path class="st20" d="M203.3,169.2v-1.7c-1.4-0.1-2.2-0.3-2.8-0.8l0.4-1.9c0.8,0.3,1.6,0.8,2.7,0.8c1,0,1.5-0.3,1.5-1
				c0-0.6-0.5-1-1.7-1.4c-1.7-0.5-2.9-1.4-2.9-3c0-1.4,0.6-2.6,2.8-2.9v-1.5h1.4v1.4c1.4,0.1,1.9,0.3,2.4,0.5l-0.4,1.9
				c-0.4-0.2-1.2-0.5-2.4-0.5c-1.1,0-1.4,0.4-1.4,1c0,0.5,0.5,0.9,1.9,1.4c1.9,0.8,2.7,1.5,2.7,3s-0.8,2.7-2.9,3v1.7H203.3
				L203.3,169.2z"/>
		</g>
	</g>
	<g>
		<path class="st21" d="M50.5,123.2l-0.3,6.3c0,0.6,0.1,1.2,0.3,1.8l2.5,6.1l1.6-1.6l-1.6-6.1l0.3-6.1L50.5,123.2z"/>
		<g>
			<path class="st21" d="M60.2,139.5l-7.3-5.9c0,0-1.7,4.2-0.3,8.5c0.6,2.2,0,3.7,0.3,4.6c0.3,1,2.8,14.4,2.7,15.4s-1.2,3.8-1.6,6.7
				c-0.4,3.2-0.1,13-0.3,17l0,0c0,0-0.2,2.9-0.5,3.7c-0.3,0.6-0.8,1.4-0.9,2.3c0,0.5,0.2,1.1,0.9,1.3c0.5,0.3,1,0,1.2,0
				c1.2,0.1,1.5,1.1,3.6,1.3c0.6,0.1,1.6-0.1,2.2-0.6c0.2-0.2,0.2-0.4,0.1-0.6c-0.1-0.2-1.7-0.6-2.4-1.1c-0.6-0.4-1.4-1.6-1.5-1.9
				c0-0.1,0-0.4,0-0.8l0,0c0.1-0.6,0.2-1.3,0.2-1.9c0.1-0.5,0.1-0.9,0.1-0.9l0,0c1.3-8.6,3.9-20,4.2-24
				C61,158,60.7,150.1,60.2,139.5z"/>
			<path class="st22" d="M60.1,193.9c0.1-0.2,0.2-0.6,0-0.8c-0.2-0.1-0.9-0.5-1.3-0.8c-0.4-0.2-1.1-0.3-0.9-0.2s-0.2,0.5-0.5,0.5
				c-1.3,0-2.3-0.9-3-1.1c-1.1-0.2-1.6-1.5-1.6-1.7c-0.2,0.1-0.6,1.2-0.8,1.5s-0.2,0.9-0.1,1.1s0.2,0.6,0.1,1.1c0,0,0.2,0.1,0.8,0.2
				c0.3,0.1,0.9,0,0.9,0l0.1-0.6c0,0,0.3,0,0.6,0c0.3,0.1,1,0.4,1.1,0.4c0.1,0.2,0.3,0.5,0.4,0.6c0.5,0.2,1.1,0.3,1.7,0.4
				C59,194.7,59.9,194.3,60.1,193.9z"/>
		</g>
		<g>
			<path class="st21" d="M70.7,193.2c-0.1-0.2-1.8-0.4-2.6-0.8c-0.8-0.3-1.6-1.3-1.8-1.7c-0.2-0.4-0.1-2.6-0.1-3.4
				c0.1-6.2,1.1-21.4,1.2-25.1c0.2-6.3-0.6-12.8-3.2-22.9l-9.1-6.9c0,0-2.5,4.7-1.6,9.3c0.5,2.6,2.7,3,3.1,4s6,17.3,6,17.3
				s-1.1,3.6-1.1,7.4c0,3.3,1.6,13.3,1.9,17.1c0,0.8,0.2,2.5,0,3.1s-1,1.5-0.9,2.4c0,0.5,0.4,1,1.1,1.2c0.6,0.2,1-0.2,1.2-0.2
				c1.3-0.1,1.6,0.9,3.9,0.8c0.6,0,1.6-0.4,2.2-1C70.9,193.7,70.8,193.3,70.7,193.2z"/>
			<path class="st22" d="M70.9,194c0.1-0.3,0.1-0.6-0.1-0.8c-0.2-0.1-1-0.4-1.5-0.5c-0.4-0.1-1.2-0.2-0.9-0.1
				c0.2,0.1-0.1,0.6-0.5,0.6c-1.4,0.1-2.5-0.5-3.3-0.6c-1.2-0.1-1.6-1.3-1.6-1.4c-0.2,0.2-0.8,1.3-0.8,1.6s-0.1,0.9,0,1.2
				c0.1,0.2,0.3,0.5,0.3,1.1c0,0,0.2,0.1,0.9,0.1c0.4,0,0.9-0.1,0.9-0.1v-0.6c0,0,0.3-0.1,0.6,0c0.4,0,0.9,0.2,1.1,0.4
				c0.2,0.1,0.4,0.3,0.6,0.4c0.6,0.1,1.1,0.2,1.8,0.1C70,194.9,70.7,194.4,70.9,194z"/>
		</g>
		<g>
			<g>
				<path class="st21" d="M85.2,113.2c0.4,0.1,1.9-0.4,2.4-1c0.1-0.2,0.2-0.4,0.2-0.6c0.2-0.2,0.6-1.2-0.1-1
					c0.6-0.4,0.9-1.2,1.1-1.9c0.1-0.2-0.2-0.3-0.5,0.2c-0.4,0.8-1.1,1.2-2,1.3c-0.1-0.1,0.1-0.2,0.3-0.5c0.1-0.3,0.1-0.5-0.1-0.6
					c-0.1,0-0.3,0.3-0.4,0.4c-0.3,0.3-0.6,0.5-1,0.9c-0.3,0.3-0.5,0.5-0.8,1c0,0.1-0.2,0.9,0.1,0.8"/>
			</g>
			<path class="st21" d="M63.3,120.3c3.4,0,9.5-0.6,10.3-0.8c3.3-0.6,11.7-6.5,11.7-6.5s0.1-1.4-1.1-1.7c-2.2,1.7-9.8,4-10.8,4.5
				c-0.6,0.4-11.4,0-11.4,0"/>
		</g>
		<path class="st23" d="M52,116.1c0,0-1.4,3.9-1.9,7l3.4,0.5v-4.9"/>
		<g>
			<path class="st10" d="M63.8,132c0.1,0.5,3,6.8,3.4,13.4c0.2,4.4,0.3,7,0,10.1c-3.1,1.8-10,2-13.3-0.4c0-2.7-0.6-6-1.1-8.4
				c-0.1-1-1.2-3.8-1.3-4.8c-0.5-3.9,0.4-7.4,3-9.6L63.8,132z"/>
		</g>
		<g>
			<path class="st22" d="M63.7,126c-0.1,1.2,0,3,0.2,5.1c0,0.3,0.2,1,0.2,1.3c0,0.2-0.1,0.4-0.2,0.5c-0.3,0.3-1.1,0.5-1.8,0.8
				c-2.5,0.4-6.5,0.1-7.5,0.3c-1.1,0.2-2.2-0.1-2.2-0.8c0-0.4,0.4-0.6,0.4-1.6c0.1-1.9,0-6.2-0.3-8.2c-0.3-1.8-0.5-3.3-0.6-4.8
				c-0.2-3.4,2.4-6.2,5.8-6.3c1.5,0,2.8,0,3,0c0.4,0.1,2.8,2.4,3.6,5.1c0.4,0.8,0.8,1.3,0.9,1.7c0.3,0.9,0.3,1.6,0,2.4
				C64.3,123.1,63.9,124.1,63.7,126z"/>
		</g>
		<path class="st22" d="M63.7,126c-0.1,1.2,0,3,0.2,5.1c0,0.3,0.2,1,0.2,1.3c0,0.2-0.1,0.4-0.2,0.5l0,0c0.2-0.5-0.3-3-0.5-4.4
			c-0.2-1.4-0.2-4.2,0.3-5.9c0.5-1.7,0.6-2.6,0.6-2.6s0.4-0.5,0.6-1.1c0.3,0.9,0.3,1.6,0,2.4C64.3,123.1,63.9,124.1,63.7,126z"/>
		<path class="st22" d="M61.8,113.8c0,0,2.3-0.1,3.3,0.5c1.5,0.9,4.5,1.4,4.5,1.4s0.2,3.6-0.1,4.8c0,0-1-0.1-4.1,0.2
			c-3.1,0.3-7.3,2.4-7.3,2.4L61.8,113.8z"/>
		<path class="st21" d="M63,102.1c-0.8-1.4-1.9-3.4-4.7-3.2c-2.8,0.3-5.3,2-5.3,4.2s1.5,4.7,2,6.1c0.5,1.5,0.3,3.7,0.3,3.7l6-0.2
			c0,0,0.1-1.9,0.4-2.7c0.2-0.4,1.1-1.2,2-1.9c0.4-0.3,0.8-1.1,0.5-2.2c-0.4-1.7-0.5-2.4-0.8-2.9C63.4,102.6,63.1,102.4,63,102.1z"
			/>
		<path class="st24" d="M61.3,101.2c1-0.5,1.5-3-1.4-3.6C57,97,50.1,97.2,51,106c1,8.7-5.7,13.4-6.5,14c-1.3,1.1-0.2,3.4,2.4,2.2
			s1.9,1.8,3,2.2c1.1,0.3,1.9,0.2,3.4-1s1.7,0.6,2.8,0.8c2.3,0.3,2.6-2.2,2-3.6s-3.1-12.9-0.2-15.1c0.8-0.6,1.6-0.5,2.2-0.4
			c0.2,0,0.4-0.2,0.3-0.3C60.4,103.6,60,102,61.3,101.2z"/>
	</g>
	<g>
		<ellipse class="st25" cx="29" cy="215.2" rx="26.1" ry="1.8"/>
		<g>
			<g>
				<path class="st10" d="M22.6,171.2c0,0.1-1.6,3-2.7,18.7c0,0-6.6,6.1-10.9,13.6c0,0,1.1,2.9,3.9,2.8c0,0,11.7-12.2,12.2-13.7
					c0.4-1.5,6.7-20,6.7-20L22.6,171.2z"/>
				<path class="st11" d="M9.2,203.4L6,206.7c0,0,2.4,2.8,2.5,2.8s0.8-0.4,0.8-0.4s2.5,5.7,6.5,5.7c0.1,0,1.7,0,1.7-0.4
					c0.1-0.6-4.3-5.4-4.3-8.1L9.2,203.4z"/>
			</g>
			<g>
				<path class="st11" d="M38.7,210.5c0.2,0.8,0.8,2.9,1.1,3.8c0.1,0.2,0.3,0.4,0.5,0.4c0.6,0,1.7,0,2.5-0.2
					c0.2-0.1,0.4-0.3,0.4-0.5l0,0c0-0.3,0.2-0.5,0.5-0.5c1.2,0.1,3.9,0,6.9-2l0.1-0.1c0.2-0.2,0.9-1.1,0.1-1.2
					c-0.9-0.2-7.9-0.8-7.9-0.8l-3.1-0.2c-0.2,0-0.3,0.1-0.4,0.2l-0.5,0.8C38.7,210.1,38.7,210.3,38.7,210.5z"/>
				<path class="st10" d="M33.3,170.4c0.1,0.2,5.6,22.1,5.9,22.3c0.3,0.2,3.8,16.5,3.8,16.5s-1.9,1.9-4.3,1c0,0-4.4-11.4-4.6-15.5
					c0,0-10-17.3-10.9-23.7L33.3,170.4z"/>
			</g>
			<path class="st14" d="M41.9,165.1c0,0,4,0.4,4.1,1.5s-0.6,0.8-0.6,0.8s2.6,2.2,2.5,2.4s-2.2,2.2-3.2,1.7
				c-1.1-0.4-4.8-3.8-4.8-3.8L41.9,165.1z"/>
			<path class="st26" d="M20.5,178.9c0,0,0.2-2.9,4.1-2.9c4.1,0,4.5,2.9,4.5,2.9"/>
			<path class="st2" d="M41.2,164.7l0.5,0.4c0,0-0.9,1.8-2.2,2.6l-0.5-0.4L41.2,164.7z"/>
			<path class="st27" d="M31.8,154.3c0.1,0.1,4.7,7.1,9.8,10.4c0,0-0.5,1.3-2.3,2.9c0,0-7.7-5.6-8.8-6.9
				C29.3,159.3,31.8,154.3,31.8,154.3z"/>
			<path class="st14" d="M27.5,132.5c0,0,0.3,4.7,4.2,5.7c0,0,2.6-2.4,1.9-8.1c0,0-0.5-1.3-0.6-1.3s-2.9,0-3.1,0s-2.9-0.1-3,0.3
				c-0.1,0.4-0.5,2.3-0.5,2.3L27.5,132.5z"/>
			<path class="st14" d="M31.8,130.1v8.2l0,0c0,0-0.3-0.1-0.8,0.1c-0.6,0.2-1.6,1-2.2,3.2l-3.8-1.9c0,0,1.2-2.6,0.9-4.4
				c-0.3-1.9-1.3-4.9,0.4-5.7C28,128.7,31.8,130.1,31.8,130.1z"/>
			<path class="st13" d="M25.9,137.2c-0.1,0.1-3.6-6.1-0.5-8c0,0,0.1-3.3,5.7-1.8c4.2,1.1,4.3,0.3,4.3,0.3s-0.3,2.2-2.4,2.2
				c-2,0.1-3.9,0.1-3.9,0.1S28,135.4,25.9,137.2z"/>
			<path class="st14" d="M28.4,132.6c0,0-0.3-1.5-1.3-0.9c-1.1,0.5,0.8,3.2,0.8,3.2L28.4,132.6z"/>
			<path class="st28" d="M29.8,141.9c0,0,0.6,2,0.5,2s-1.1,1-1.1,0.9l-1-1.6L29.8,141.9z"/>
			<path class="st29" d="M30.4,143.9l3,13c0,0-0.9-1.1-1-1.1s-1-1-1-1l-2.2-10L30.4,143.9z"/>
			<path class="st11" d="M24.6,140.3c0,0,4.6,2.7,5.2,4.2c0.5,1.5,3.7,12.4,3.7,12.5s2.3,16.8,2,16.8c-0.2,0-10.9,0.9-13.8,0.2
				c0,0-2.5-26.5-1.3-28.7C21.6,142.9,24.6,140.3,24.6,140.3z"/>
			<path class="st2" d="M25.1,139.6c0,0,4.7,2.3,4.8,2.4c0,0.1-1,1.8-1,1.8l-4.3-3.4L25.1,139.6z"/>
			<path class="st30" d="M26.9,192.6H24c-4.9,0-9-4.1-9-9v-1.4c0-1.8,1.5-3.3,3.3-3.3h14.3c1.8,0,3.3,1.5,3.3,3.3v1.4
				C36,188.5,31.9,192.6,26.9,192.6z"/>
			<path class="st31" d="M32.2,184.7H18.6c-2,0-3.8-1.7-3.8-3.8v-0.5c0-0.8,0.6-1.4,1.4-1.4h18.3c0.8,0,1.4,0.6,1.4,1.4v0.5
				C36,183,34.2,184.7,32.2,184.7z"/>
			<path class="st32" d="M32.2,184.5H18.6c-2,0-3.8-1.7-3.8-3.8v-0.6c0-0.8,0.6-1.4,1.4-1.4h18.3c0.8,0,1.4,0.6,1.4,1.4v0.5
				C36,182.8,34.2,184.5,32.2,184.5z"/>
			<path class="st33" d="M19.6,185.6L19.6,185.6c-0.3,0-0.6-0.3-0.6-0.6v-1.4c0-0.3,0.3-0.6,0.6-0.6l0,0c0.3,0,0.6,0.3,0.6,0.6v1.4
				C20.3,185.4,20,185.6,19.6,185.6z"/>
			<path class="st33" d="M30.9,185.6L30.9,185.6c-0.3,0-0.6-0.3-0.6-0.6v-1.4c0-0.3,0.3-0.6,0.6-0.6l0,0c0.3,0,0.6,0.3,0.6,0.6v1.4
				C31.6,185.4,31.2,185.6,30.9,185.6z"/>
			<path class="st14" d="M25.9,172.9c0,0,1.6,1.8,1.5,2.8s-0.2,2.6-1.4,2.7c-1.2,0.1-3.7,0.1-4-0.6c-0.2-0.8-0.4-3.6,0.2-4.7
				L25.9,172.9z"/>
			<path class="st2" d="M22,171.9l0.1,1.1c0,0,2,0.4,3.7-0.1l0.1-1.2C25.9,171.7,23.9,172.3,22,171.9z"/>
			<path class="st27" d="M23.3,143.5c1.9-0.1,4.4,1.1,4,4.8c-0.4,3.8-1.6,11.1-1.6,11.1l0.5,12.6c0,0-2.4,0.6-4.4,0.2l-0.8-13
				c0,0,0.1-10.4,0.3-12.2C21.6,145.3,21.8,143.6,23.3,143.5z"/>
			<path class="st25" d="M31.8,138.2c0,0-0.3-0.1-0.8,0.1c-2.5-0.9-2.9-2.8-2.9-2.9C28.5,136.8,31.7,138.1,31.8,138.2z"/>
		</g>
	</g>
</g>
</svg>
