<?xml version="1.0" encoding="utf-8"?>
<!-- Generator: Adobe Illustrator 21.0.0, SVG Export Plug-In . SVG Version: 6.00 Build 0)  -->
<svg version="1.1" id="Capa_1" xmlns="http://www.w3.org/2000/svg" xmlns:xlink="http://www.w3.org/1999/xlink" x="0px" y="0px"
	 viewBox="0 0 108 108" style="enable-background:new 0 0 108 108;" xml:space="preserve">
<style type="text/css">
	.st0{fill:#004E7A;}
</style>
<g>
	<g>
		<path class="st0" d="M80.5,61.5l-4.6-11.5l4.6-11.5c0.2-0.6,0.1-1.2-0.2-1.7c-0.3-0.5-0.9-0.8-1.5-0.8H57.4v-4.3
			c0-1-0.8-1.8-1.8-1.8H33v-3.2c0-1-0.8-1.8-1.8-1.8c-1,0-1.8,0.8-1.8,1.8c0,7.6,0,52.4,0,58.9c0,1,0.8,1.8,1.8,1.8
			c1,0,1.8-0.8,1.8-1.8V57.9h14.6v4.3c0,1,0.8,1.8,1.8,1.8h29.3c0.6,0,1.2-0.3,1.5-0.8C80.7,62.6,80.7,62,80.5,61.5z M53.8,54.2
			c-2.1,0-18.5,0-20.8,0V33.4h20.8C53.8,35.5,53.8,51.9,53.8,54.2z M53.9,60.3l3-3c0.3-0.3,0.5-0.8,0.5-1.3V39.5h18.6l-3.9,9.7
			c-0.2,0.4-0.2,0.9,0,1.4l3.9,9.7L53.9,60.3L53.9,60.3z"/>
	</g>
</g>
</svg>
