<?xml version="1.0" encoding="utf-8"?>
<!-- Generator: Adobe Illustrator 21.0.0, SVG Export Plug-In . SVG Version: 6.00 Build 0)  -->
<svg version="1.1" id="Capa_1" xmlns="http://www.w3.org/2000/svg" xmlns:xlink="http://www.w3.org/1999/xlink" x="0px" y="0px"
	 viewBox="0 0 108 108" style="enable-background:new 0 0 108 108;" xml:space="preserve">
<style type="text/css">
	.st0{fill:#004E7A;}
</style>
<g>
	<g>
		<path class="st0" d="M47.2,45.3c-1.1,0-1.9-0.9-1.9-1.9c0-1.1,0.9-1.9,1.9-1.9h3.9c1.1,0,1.9-0.9,1.9-1.9s-0.9-1.9-1.9-1.9h-1.9
			v-1.9c0-1.1-0.9-1.9-1.9-1.9c-1.1,0-1.9,0.9-1.9,1.9v2.3c-2.2,0.8-3.9,2.9-3.9,5.5c0,3.2,2.6,5.8,5.8,5.8c1.1,0,1.9,0.9,1.9,1.9
			c0,1.1-0.9,1.9-1.9,1.9h-3.9c-1.1,0-1.9,0.9-1.9,1.9c0,1.1,0.9,1.9,1.9,1.9h1.9v1.9c0,1.1,0.9,1.9,1.9,1.9c1.1,0,1.9-0.9,1.9-1.9
			v-2.3c2.2-0.8,3.9-2.9,3.9-5.5C53,47.9,50.4,45.3,47.2,45.3z"/>
	</g>
</g>
<g>
	<g>
		<path class="st0" d="M47.2,25.9c-11.8,0-21.3,9.6-21.3,21.3c0,8.2,4.6,15.5,11.9,19.1c0.3,0.1,0.6,0.2,0.8,0.2
			c0.7,0,1.4-0.4,1.8-1.1c0.5-1,0.1-2.1-0.9-2.6c-6-2.9-9.7-9-9.7-15.6c0-9.6,7.8-17.5,17.5-17.5s17.5,7.8,17.5,17.5
			c0,5.8-2.9,11.2-7.7,14.5c-0.9,0.6-1.1,1.8-0.5,2.7c0.6,0.9,1.8,1.1,2.7,0.5c5.9-4,9.4-10.6,9.4-17.7
			C68.5,35.5,58.9,25.9,47.2,25.9z"/>
	</g>
</g>
<g>
	<g>
		<path class="st0" d="M82.1,56.9H70.5c-1.1,0-1.9,0.9-1.9,1.9s0.9,1.9,1.9,1.9h6.8L64.3,72.1L50,64.9c-0.6-0.3-1.2-0.3-1.8,0
			L26.8,76.6c-0.9,0.5-1.3,1.7-0.8,2.6c0.4,0.6,1,1,1.7,1c0.3,0,0.6-0.1,0.9-0.2l20.5-11.1l14.6,7.3c0.7,0.4,1.5,0.2,2.1-0.3
			l14.2-12.5v7.1c0,1.1,0.9,1.9,1.9,1.9c1.1,0,1.9-0.9,1.9-1.9V58.9C84,57.8,83.2,56.9,82.1,56.9z"/>
	</g>
</g>
</svg>
