<?xml version="1.0" encoding="utf-8"?>
<!-- Generator: Adobe Illustrator 21.0.0, SVG Export Plug-In . SVG Version: 6.00 Build 0)  -->
<svg version="1.1" id="Capa_1" xmlns="http://www.w3.org/2000/svg" xmlns:xlink="http://www.w3.org/1999/xlink" x="0px" y="0px"
	 viewBox="0 0 108 108" style="enable-background:new 0 0 108 108;" xml:space="preserve">
<style type="text/css">
	.st0{fill:#004E7A;}
</style>
<g>
	<path class="st0" d="M57.1,31.9c0-1-0.8-1.8-1.8-1.8h-4.9c-1,0-1.8,0.8-1.8,1.8s0.8,1.8,1.8,1.8h4.9C56.2,33.7,57.1,32.9,57.1,31.9
		z"/>
	<circle class="st0" cx="43.6" cy="31.9" r="1.8"/>
	<path class="st0" d="M73,42.5V29.4c0-3.7-3-6.7-6.7-6.7H39.3c-3.7,0-6.7,3-6.7,6.7v49.3c0,3.7,3,6.7,6.7,6.7h26.9
		c3.7,0,6.7-3,6.7-6.7V68.2 M66.3,81.7H39.3c-1.7,0-3-1.3-3-3v-0.6h33.1v0.6C69.3,80.3,67.9,81.7,66.3,81.7z M69.3,68.2v6.2H36.2
		V29.5c0-1.7,1.3-3,3-3h26.9c1.7,0,3,1.3,3,3v12.2"/>
</g>
</svg>
