<?xml version="1.0" encoding="utf-8"?>
<!-- Generator: Adobe Illustrator 21.0.0, SVG Export Plug-In . SVG Version: 6.00 Build 0)  -->
<svg version="1.1" id="Capa_1" xmlns="http://www.w3.org/2000/svg" xmlns:xlink="http://www.w3.org/1999/xlink" x="0px" y="0px"
	 viewBox="0 0 108 108" style="enable-background:new 0 0 108 108;" xml:space="preserve">
<style type="text/css">
	.st0{fill:#004E7A;}
</style>
<g>
	<path class="st0" d="M106.2,77.5c0-7.9-5.6-14.6-13.5-17.2c1.3-1.5,2.2-3.3,2.8-5c1.1-0.6,1.9-1.8,2.3-3.1c0.3-1.2,1-3.9-0.4-5.3
		v-1.2c0.1-2.1,0.2-7.5-4.3-9.7C93,35.5,93,35.2,93,35.1l-0.6-5.8l-4.1,3.9c-0.5,0.4-3.2,1.1-5.8,1.3l-1.1,0.1
		c-7.9,1.2-7.7,5.8-7.6,9.5c0,0.5,0,0.9,0,1.5v1.1c-0.8,0.9-1.4,2.5-0.6,5.5c0.4,1.4,1.2,2.5,2.3,3.1c0.5,1.3,1.4,3.3,2.9,5.1
		c-3.3,1.1-6.3,2.9-8.5,5.3c-2.1-1.4-4.5-2.4-7-3.2c1.8-2.1,3.3-4.7,4.1-7.1c1.4-0.8,2.5-2.3,2.9-4.1c0.4-1.6,1.3-5.1-0.6-6.9v-1.8
		c0.1-4.3-0.4-10.1-5.6-12.7c-0.2-0.7-0.3-1.3-0.3-1.4l-0.6-6.8l-4.8,4.5c-0.6,0.5-4.3,1.5-8,1.8l-1.4,0.2
		c-10.2,1.6-10,7.3-9.9,12.4c0,0.6,0,1.1,0,1.8l0.1,1.6c-1.1,1.1-1.8,3.1-0.9,7c0.4,1.7,1.6,3.2,2.9,3.9c0.6,1.7,2.1,4.8,4.3,7.4
		c-2.5,0.8-4.8,1.8-7,3.2c-2.3-2.3-5.2-4.2-8.5-5.3c1.2-1.5,2.2-3.3,2.8-5c1.1-0.6,1.9-1.8,2.3-3.1c0.3-1.2,1-3.9-0.4-5.3v-1.2
		c0.1-2.1,0.2-7.5-4.3-9.7c-0.1-0.4-0.1-0.8-0.1-0.9l-0.6-5.8l-4.1,3.9c-0.5,0.4-3.2,1.1-5.8,1.3l-1.1,0.1c-7.9,1.3-7.7,5.8-7.7,9.5
		c0,0.5,0,0.9,0,1.5v1.1c-0.8,0.9-1.4,2.5-0.6,5.5c0.4,1.4,1.2,2.5,2.3,3.1c0.5,1.2,1.4,3.3,2.9,5.1C7.4,62.9,1.8,69.7,1.8,77.5v1.2
		h26c-0.6,2.1-1,4.2-1,6.5v1.2h54.5v-1.2c0-2.3-0.4-4.4-1-6.5h25.9V77.5L106.2,77.5L106.2,77.5z M96.4,76.3v-3.4
		c0-0.7-0.6-1.2-1.2-1.2S94,72.2,94,72.9v3.5H79.4c-0.6-1.4-1.4-2.6-2.2-3.8c-0.1-0.2-0.3-0.4-0.4-0.6c-1.4-1.8-3-3.4-4.8-4.8
		c1.1-1.1,2.5-2.1,4-3l8.8,10c0.2,0.3,0.6,0.4,0.9,0.4c0.4,0,0.7-0.1,0.9-0.4l8.6-10c4.8,2.6,8.2,7.1,8.6,12.3L96.4,76.3L96.4,76.3z
		 M78.7,84H68.1v-5c0-0.1,0-0.1-0.1-0.2c-0.1-0.6-0.6-1.1-1.2-1.1c-0.6,0-1.1,0.5-1.2,1.1c0,0.1-0.1,0.1-0.1,0.2v5H42.3v-5
		c0-0.1,0-0.1-0.1-0.2c-0.1-0.6-0.6-1.1-1.2-1.1s-1.1,0.5-1.2,1.1c0,0.1,0,0.1,0,0.2v5H29.3c0.1-1.8,0.5-3.6,1.1-5.3
		c0.1-0.4,0.3-0.9,0.5-1.2l0,0c0,0,0,0,0-0.1c0.1-0.4,0.4-0.8,0.6-1.2c0.6-1,1.1-2,1.8-2.9c1.2-1.6,2.7-3.1,4.4-4.4
		c0.4-0.3,0.6-0.5,1-0.8c0.4-0.2,0.7-0.4,1.1-0.6c0.4-0.3,0.9-0.6,1.4-0.8l11.9,13.6c0.2,0.3,0.6,0.4,0.9,0.4l0,0
		c0.4,0,0.7-0.1,0.9-0.4l11.7-13.7c0.6,0.3,1.1,0.6,1.6,0.9c0.4,0.2,0.7,0.4,1.1,0.6c0.4,0.2,0.6,0.5,1,0.8c1.7,1.3,3.2,2.8,4.4,4.4
		c0.7,0.9,1.4,1.9,1.8,2.9c0.2,0.4,0.4,0.8,0.6,1.2v0.1h0.1c0.1,0.4,0.4,0.9,0.5,1.2C78.2,80.5,78.6,82.2,78.7,84z M12.8,71.6
		c-0.7,0-1.2,0.6-1.2,1.2v3.5H4.3C4.7,71.1,8,66.7,12.8,64l8.8,10c0.2,0.3,0.6,0.4,0.9,0.4c0.3,0,0.7-0.1,0.9-0.4L32,64
		c1.6,0.9,2.9,1.8,4.1,3.1c-1.8,1.4-3.5,3.1-4.8,4.8c-0.1,0.2-0.3,0.4-0.4,0.6c-0.9,1.2-1.6,2.5-2.2,3.8H14v-3.5
		C14,72.1,13.5,71.6,12.8,71.6z M14.3,53.2L13.7,53c-0.4-0.1-1-0.7-1.1-1.6c-0.5-2-0.2-3.1,0.1-3.3l0.6-0.4l-0.1-2.3
		c0-0.6,0-1.1,0-1.6c-0.1-3.6-0.1-6,5.5-6.9l1-0.1c0.1,0,5.7-0.6,7.2-1.9l0.5-0.4l0.1,0.7c0,0.2,0.1,1.1,0.4,2l0.2,0.5l0.5,0.2
		c2.4,1.1,3.4,3.3,3.3,7.7v2.6l0.6,0.4c0.1,0.1,0.6,0.5-0.1,3.1c-0.2,0.8-0.7,1.5-1.3,1.7l-0.5,0.2l-0.2,0.6
		c-0.6,1.9-1.8,4.1-3.3,5.5c-0.4,0.4-0.9,0.7-1.3,1.1c-0.9,0.6-1.9,0.9-3,1h-0.1h-0.1h-0.1c-0.1,0-0.1-0.1-0.3-0.1
		c-1.1-0.1-2.1-0.4-2.8-0.9c-0.5-0.3-0.9-0.6-1.3-1.1c-1.9-1.9-3.1-4.6-3.5-5.8L14.3,53.2z M24.3,69.2l-1.1-4.3l1.3-1.1
		c1.1-0.3,2.1-0.9,3.1-1.6c0.7,0.2,1.4,0.4,2.1,0.6L24.3,69.2z M20.1,63.8l1.4,1.1L20.4,69L15,63c0.7-0.3,1.4-0.5,2.2-0.7
		C18.1,62.9,19,63.5,20.1,63.8z M42.7,53.1l-0.6-0.1c-0.6-0.2-1.6-1.1-1.8-2.3c-0.6-2.5-0.5-4.3,0.4-4.8l0.6-0.4l-0.1-2.8
		c0-0.6,0-1.3-0.1-2.1c-0.1-4.9-0.2-8.4,7.7-9.7l1.4-0.2c0.1,0,7.5-0.8,9.3-2.5l1.3-1.1l0.1,1.8c0,0.2,0.1,1.3,0.6,2.5l0.2,0.5
		l0.5,0.2c4.3,1.8,4.8,6.4,4.6,10.7v3.2l0.6,0.4c0.7,0.4,0.7,1.9,0.1,4.6c-0.3,1.2-1.1,2.2-2,2.6H65L64.8,54
		c-0.9,2.7-2.6,5.6-4.8,7.7c-0.4,0.4-0.8,0.7-1.2,1c-0.6,0.4-1.2,0.7-1.8,1c-0.8,0.3-1.6,0.5-2.3,0.6c-0.2,0-0.4,0.1-0.6,0.1
		c-0.4,0-0.6-0.1-1-0.1c-0.8-0.1-1.5-0.3-2.2-0.6c-0.6-0.3-1.2-0.6-1.8-1c-0.4-0.3-0.9-0.6-1.2-1c-2.8-2.6-4.3-6.5-4.9-8L42.7,53.1z
		 M56.6,74.6l-1.6-6.2l2.2-1.8l-0.1-0.1c1.4-0.4,2.6-1.1,3.7-2c1.2,0.3,2.4,0.7,3.6,1.1L56.6,74.6z M50.7,66.3l-0.2,0.2l2.2,1.8
		l-1.5,6l-7.7-8.8c1.2-0.5,2.4-0.9,3.8-1.3C48.2,65.2,49.4,65.9,50.7,66.3z M77.4,53.2L76.8,53c-0.4-0.1-1-0.7-1.1-1.6
		c-0.5-2-0.2-3.1,0.1-3.3l0.6-0.4l-0.1-2.3c0-0.6,0-1.1,0-1.6c-0.1-3.6-0.1-6,5.5-6.9l1-0.1c0.1,0,5.7-0.6,7.2-1.9l0.5-0.4l0.1,0.7
		c0,0.2,0.1,1.1,0.4,2l0.2,0.5l0.5,0.2c2.4,1.1,3.4,3.3,3.3,7.7v2.6l0.6,0.4c0.1,0.1,0.6,0.5-0.1,3.1c-0.2,0.8-0.7,1.5-1.3,1.7
		l-0.5,0.2l-0.2,0.6c-0.6,1.9-1.8,4.1-3.3,5.5c-0.4,0.4-0.9,0.7-1.3,1.1c-0.9,0.6-1.9,0.9-3,1l0,0h-0.1c-0.1,0-0.1,0-0.1,0h-0.1
		c-0.1,0-0.1-0.1-0.3-0.1c-1.1-0.1-2.1-0.4-2.8-0.9c-0.4-0.3-0.9-0.6-1.3-1.1c-1.9-1.9-3.1-4.6-3.5-5.8L77.4,53.2z M87.4,69.2
		l-1.1-4.3l1.3-1.1c1.1-0.3,2.1-0.9,3.1-1.6c0.7,0.2,1.4,0.4,2.1,0.6L87.4,69.2z M83.2,63.8l1.4,1.1L83.5,69l-5.3-6
		c0.7-0.3,1.4-0.5,2.2-0.7C81.2,62.9,82.2,63.5,83.2,63.8z"/>
</g>
</svg>
