<?xml version="1.0" encoding="utf-8"?>
<!-- Generator: Adobe Illustrator 21.0.0, SVG Export Plug-In . SVG Version: 6.00 Build 0)  -->
<svg version="1.1" id="Capa_1" xmlns="http://www.w3.org/2000/svg" xmlns:xlink="http://www.w3.org/1999/xlink" x="0px" y="0px"
	 viewBox="0 0 108 108" style="enable-background:new 0 0 108 108;" xml:space="preserve">
<style type="text/css">
	.st0{fill:#004E7A;}
</style>
<g>
	<path class="st0" d="M88.8,86.7h-9.5V65.4c0-2.4-1.9-4.3-4.3-4.3h-3.2c-0.8-3.7-2.5-6.9-5-9.3c-1.5-1.5-3.3-2.7-5.2-3.4
		c4.2-3.6,6.9-9.9,6.9-15.5c0-5.1-1.4-9.2-4.2-12C61.7,18.3,58.1,17,54,17c-4.1,0-7.7,1.3-10.2,3.9c-2.8,2.8-4.2,6.8-4.2,12
		c0,5.7,2.7,11.9,6.9,15.5c-2,0.8-3.7,1.9-5.2,3.4c-2.4,2.4-4.1,5.6-5,9.3H33c-2.4,0-4.3,1.9-4.3,4.3v21.2h-9.5
		c-1.2,0-2.2,1-2.2,2.2s1,2.2,2.2,2.2h69.7c1.2,0,2.2-1,2.2-2.2S90,86.7,88.8,86.7z M54,21.3c3.2,0,8.2,1.1,9.7,7.4
		c-2.2-0.3-3.5-0.9-4.5-1.4c-1-0.5-2.1-1-3.4-0.7c-1.1,0.2-1.9,0.9-2.6,1.5c-1.4,1.1-3.4,2.7-9.3,3C44.7,22.6,50.5,21.3,54,21.3
		L54,21.3z M44.1,35.3c7.4-0.4,10.1-2.6,11.8-3.9c0.2-0.2,0.6-0.4,0.8-0.6c0.2,0.1,0.4,0.2,0.6,0.3c1.3,0.6,3.3,1.6,6.8,1.9
		c-0.1,3.2-1.2,6.7-3.2,9.5c-2,2.8-4.5,4.5-6.9,4.5s-4.9-1.6-6.9-4.5C45.6,40.5,44.5,37.9,44.1,35.3z M52.8,51.5h2.3
		c6,0,10.4,3.5,12.1,9.5H40.7C42.4,55.1,46.8,51.5,52.8,51.5z M33,86.7V65.4H75v21.2H33z"/>
	<circle class="st0" cx="54" cy="74.8" r="2.2"/>
</g>
</svg>
