<?xml version="1.0" encoding="iso-8859-1"?>
<!-- Generator: Adobe Illustrator 24.0.1, SVG Export Plug-In . SVG Version: 6.00 Build 0)  -->
<svg version="1.1" xmlns="http://www.w3.org/2000/svg" xmlns:xlink="http://www.w3.org/1999/xlink" x="0px" y="0px"
	 viewBox="0 0 100 100" style="enable-background:new 0 0 100 100;" xml:space="preserve">
<g id="Layer_1_1_">
	<g>
		<g>
			<g>
				<path style="fill:#9DC129;" d="M61.128,12.896l4.037-6.728c0.459-0.766,0.212-1.759-0.554-2.218
					c-0.768-0.461-1.759-0.213-2.218,0.555l-4.26,7.1c-2.536-0.902-5.252-1.419-8.094-1.419s-5.558,0.517-8.094,1.419l-4.26-7.1
					c-0.459-0.768-1.452-1.014-2.218-0.555c-0.766,0.459-1.014,1.452-0.555,2.218l4.037,6.728
					c-7.803,4.033-13.159,12.165-13.159,21.54c0,0.894,0.724,1.617,1.617,1.617h45.265c0.892,0,1.617-0.723,1.617-1.617
					C74.286,25.063,68.932,16.931,61.128,12.896z M29.083,32.819c0.828-10.836,9.91-19.399,20.955-19.399
					s20.127,8.563,20.955,19.399H29.083z"/>
				<path style="fill:#9DC129;" d="M61.317,22.09h-2.131c-0.588,0-1.065,0.477-1.065,1.065v2.131c0,0.588,0.477,1.065,1.065,1.065
					h2.132c0.588,0,1.065-0.477,1.065-1.065v-2.131C62.384,22.567,61.906,22.09,61.317,22.09z"/>
				<path style="fill:#9DC129;" d="M40.888,22.09h-2.132c-0.588,0-1.065,0.477-1.065,1.065v2.131c0,0.588,0.477,1.065,1.065,1.065
					h2.132c0.588,0,1.065-0.477,1.065-1.065v-2.131C41.953,22.567,41.476,22.09,40.888,22.09z"/>
				<path style="fill:#9DC129;" d="M72.669,37.669H27.404c-0.892,0-1.617,0.723-1.617,1.617v32.609c0,4.305,3.506,7.807,7.815,7.807
					h1.885v9.709c0,3.56,2.9,6.457,6.466,6.457s6.466-2.897,6.466-6.457v-9.709h3.233v9.709c0,3.56,2.9,6.457,6.466,6.457
					s6.466-2.897,6.466-6.457v-9.709h1.885c4.31,0,7.815-3.502,7.815-7.807V39.286C74.286,38.392,73.563,37.669,72.669,37.669z
					 M71.053,71.895c0,2.522-2.055,4.573-4.581,4.573h-3.502c-0.892,0-1.617,0.723-1.617,1.617v11.326
					c0,1.778-1.45,3.224-3.233,3.224s-3.233-1.447-3.233-3.224V78.085c0-0.894-0.724-1.617-1.617-1.617h-6.466
					c-0.892,0-1.617,0.723-1.617,1.617v11.326c0,1.778-1.45,3.224-3.233,3.224s-3.233-1.447-3.233-3.224V78.085
					c0-0.894-0.724-1.617-1.617-1.617h-3.5c-2.527,0-4.583-2.053-4.583-4.573V40.903h42.032V71.895z"/>
				<path style="fill:#9DC129;" d="M81.561,37.669c-3.12,0-5.658,2.541-5.658,5.665v22.62c0,3.123,2.538,5.665,5.658,5.665
					c3.12,0,5.658-2.541,5.658-5.665v-22.62C87.219,40.211,84.681,37.669,81.561,37.669z M83.985,65.954
					c0,1.34-1.088,2.431-2.425,2.431c-1.337,0-2.425-1.091-2.425-2.431v-22.62c0-1.34,1.088-2.431,2.425-2.431
					c1.337,0,2.425,1.091,2.425,2.431V65.954z"/>
				<path style="fill:#9DC129;" d="M18.512,37.669c-3.12,0-5.658,2.541-5.658,5.665v22.62c0,3.123,2.538,5.665,5.658,5.665
					s5.658-2.541,5.658-5.665v-22.62C24.171,40.211,21.632,37.669,18.512,37.669z M20.937,65.954c0,1.34-1.088,2.431-2.425,2.431
					s-2.425-1.091-2.425-2.431v-22.62c0-1.34,1.088-2.431,2.425-2.431s2.425,1.091,2.425,2.431V65.954z"/>
			</g>
		</g>
		<g>
		</g>
		<g>
		</g>
		<g>
		</g>
		<g>
		</g>
		<g>
		</g>
		<g>
		</g>
		<g>
		</g>
		<g>
		</g>
		<g>
		</g>
		<g>
		</g>
		<g>
		</g>
		<g>
		</g>
		<g>
		</g>
		<g>
		</g>
		<g>
		</g>
	</g>
</g>
<g id="Layer_1">
</g>
</svg>
