<?xml version="1.0" encoding="iso-8859-1"?>
<!-- Generator: Adobe Illustrator 24.0.1, SVG Export Plug-In . SVG Version: 6.00 Build 0)  -->
<svg version="1.1" xmlns="http://www.w3.org/2000/svg" xmlns:xlink="http://www.w3.org/1999/xlink" x="0px" y="0px"
	 viewBox="0 0 100 100" style="enable-background:new 0 0 100 100;" xml:space="preserve">
<g id="Layer_14">
	<g>
		<path style="fill:#CD6799;" d="M85.658,54.587c-3.457,0.018-6.462,0.851-8.978,2.082c-0.923-1.828-1.846-3.457-2.009-4.652
			c-0.181-1.394-0.398-2.244-0.181-3.91c0.217-1.665,1.195-4.036,1.176-4.217c-0.018-0.181-0.217-1.032-2.208-1.05
			c-1.991-0.018-3.711,0.38-3.91,0.905c-0.199,0.525-0.579,1.72-0.833,2.95c-0.344,1.81-3.982,8.272-6.064,11.656
			c-0.67-1.321-1.249-2.48-1.376-3.403c-0.181-1.394-0.398-2.244-0.181-3.91c0.217-1.665,1.195-4.036,1.177-4.217
			c-0.018-0.181-0.217-1.032-2.208-1.05c-1.991-0.018-3.711,0.38-3.91,0.905c-0.199,0.525-0.416,1.756-0.833,2.95
			c-0.416,1.195-5.249,11.982-6.516,14.77c-0.652,1.43-1.213,2.57-1.611,3.349l0,0c0,0-0.018,0.054-0.072,0.145
			c-0.344,0.67-0.543,1.032-0.543,1.032s0,0,0,0.018c-0.272,0.489-0.561,0.941-0.706,0.941c-0.109,0-0.308-1.303,0.036-3.077
			c0.724-3.747,2.444-9.575,2.425-9.774c0-0.109,0.326-1.122-1.122-1.647c-1.412-0.525-1.919,0.344-2.045,0.344
			s-0.217,0.308-0.217,0.308s1.575-6.552-3.005-6.552c-2.86,0-6.806,3.131-8.76,5.955c-1.231,0.67-3.855,2.1-6.661,3.638
			c-1.068,0.597-2.172,1.195-3.204,1.756c-0.072-0.072-0.145-0.163-0.217-0.235c-5.539-5.919-15.783-10.1-15.349-18.046
			c0.163-2.896,1.158-10.498,19.675-19.729c15.24-7.512,27.367-5.43,29.467-0.815c3.005,6.588-6.498,18.824-22.245,20.598
			c-6.009,0.67-9.159-1.647-9.955-2.516c-0.833-0.905-0.959-0.959-1.267-0.778c-0.507,0.271-0.181,1.086,0,1.557
			c0.471,1.231,2.407,3.403,5.683,4.471c2.896,0.941,9.937,1.466,18.462-1.828c9.539-3.692,16.996-13.955,14.806-22.553
			c-2.19-8.724-16.67-11.602-30.372-6.733c-8.145,2.896-16.978,7.457-23.331,13.394c-7.548,7.059-8.742,13.195-8.254,15.765
			c1.756,9.122,14.335,15.059,19.367,19.458c-0.253,0.145-0.489,0.271-0.688,0.38C16.589,64.47,6.995,69.483,4.606,74.787
			c-2.715,6.009,0.434,10.317,2.516,10.896c6.462,1.792,13.104-1.43,16.67-6.751c3.566-5.321,3.131-12.236,1.484-15.403
			c-0.018-0.036-0.036-0.072-0.072-0.109c0.652-0.38,1.321-0.778,1.973-1.158c1.285-0.76,2.552-1.466,3.638-2.045
			c-0.615,1.683-1.068,3.692-1.285,6.588c-0.271,3.403,1.122,7.819,2.95,9.557c0.815,0.76,1.774,0.778,2.389,0.778
			c2.136,0,3.095-1.774,4.163-3.873c1.303-2.57,2.48-5.557,2.48-5.557s-1.466,8.073,2.516,8.073c1.448,0,2.914-1.882,3.566-2.842
			c0,0.018,0,0.018,0,0.018s0.036-0.054,0.109-0.181c0.145-0.235,0.235-0.38,0.235-0.38s0-0.018,0-0.036
			c0.579-1.014,1.882-3.312,3.819-7.131c2.498-4.923,4.905-11.077,4.905-11.077s0.217,1.502,0.959,4
			c0.434,1.466,1.339,3.077,2.063,4.634c-0.579,0.815-0.941,1.267-0.941,1.267s0,0,0.018,0.018
			c-0.471,0.615-0.977,1.285-1.539,1.937c-1.973,2.353-4.326,5.05-4.652,5.828c-0.38,0.923-0.29,1.593,0.434,2.136
			c0.525,0.398,1.466,0.453,2.425,0.398c1.774-0.127,3.023-0.561,3.638-0.833c0.959-0.344,2.082-0.869,3.131-1.647
			c1.937-1.43,3.113-3.475,3.005-6.172c-0.054-1.484-0.543-2.968-1.14-4.362c0.181-0.253,0.344-0.507,0.525-0.76
			c3.059-4.471,5.43-9.376,5.43-9.376s0.217,1.502,0.959,4c0.362,1.267,1.104,2.643,1.756,3.982
			c-2.878,2.335-4.652,5.05-5.285,6.824c-1.14,3.294-0.253,4.778,1.43,5.122c0.76,0.163,1.846-0.199,2.643-0.543
			c1.014-0.326,2.208-0.887,3.349-1.72c1.937-1.43,3.801-3.421,3.692-6.118c-0.054-1.231-0.38-2.444-0.833-3.62
			c2.444-1.014,5.593-1.575,9.611-1.104c8.616,1.014,10.317,6.389,9.991,8.652c-0.326,2.263-2.136,3.493-2.733,3.873
			c-0.597,0.38-0.796,0.507-0.742,0.778c0.072,0.398,0.362,0.38,0.869,0.308c0.706-0.127,4.525-1.828,4.688-5.991
			C99.686,60.343,94.618,54.533,85.658,54.587z M19.195,76.995c-2.86,3.113-6.842,4.29-8.561,3.294
			c-1.846-1.068-1.122-5.665,2.389-8.96c2.136-2.009,4.887-3.873,6.715-5.014c0.416-0.253,1.032-0.615,1.774-1.068
			c0.127-0.072,0.199-0.109,0.199-0.109l0,0c0.145-0.09,0.29-0.181,0.434-0.271C23.43,69.574,22.2,73.719,19.195,76.995z
			 M40.01,62.841c-0.996,2.425-3.077,8.634-4.344,8.29c-1.086-0.29-1.756-4.996-0.217-9.647c0.778-2.335,2.425-5.122,3.385-6.208
			c1.557-1.738,3.276-2.317,3.692-1.611C43.051,54.587,40.625,61.32,40.01,62.841z M57.187,71.058
			c-0.416,0.217-0.815,0.362-0.996,0.253c-0.127-0.072,0.181-0.362,0.181-0.362s2.154-2.317,3.005-3.367
			c0.489-0.615,1.068-1.339,1.683-2.154c0,0.072,0,0.163,0,0.235C61.06,68.433,58.382,70.298,57.187,71.058z M70.436,68.035
			c-0.308-0.217-0.253-0.941,0.778-3.204c0.398-0.887,1.339-2.371,2.95-3.801c0.181,0.579,0.308,1.14,0.29,1.665
			C74.436,66.189,71.939,67.492,70.436,68.035z"/>
		<g>
		</g>
		<g>
		</g>
		<g>
		</g>
		<g>
		</g>
		<g>
		</g>
		<g>
		</g>
	</g>
</g>
<g id="Layer_1">
</g>
</svg>
