<?xml version="1.0" encoding="iso-8859-1"?>
<!-- Generator: Adobe Illustrator 24.0.1, SVG Export Plug-In . SVG Version: 6.00 Build 0)  -->
<svg version="1.1" xmlns="http://www.w3.org/2000/svg" xmlns:xlink="http://www.w3.org/1999/xlink" x="0px" y="0px"
	 viewBox="0 0 100 100" style="enable-background:new 0 0 100 100;" xml:space="preserve">
<g id="Layer_16">
	<g>
		<path style="fill:#2B83C5;" d="M50.754,6.513c3.127,0.109,6.228,0.432,9.276,1.161c7.971,1.908,14.881,5.728,20.719,11.479
			c0.859,0.847,1.677,1.73,2.467,2.641c0.207,0.239,0.389,0.501,0.62,0.801c-0.409,0.132-0.735,0.084-1.053,0.084
			c-16.697,0.003-33.394,0.002-50.092,0.003c-1.36,0-1.157-0.089-1.157,1.121c-0.004,16.371-0.004,32.742-0.001,49.113
			c0,1.089-0.182,1.045,1.07,1.045c17.602,0,35.204,0,52.806,0.002c0.315,0,0.64-0.048,1.022,0.082
			c-0.641,1.09-1.37,2.042-2.115,2.976c-5.397,6.773-12.197,11.572-20.4,14.372c-3.043,1.039-6.185,1.651-9.374,2.034
			c-0.213,0.113-0.442,0.042-0.664,0.062c-0.225,0-0.45,0-0.676,0c-0.486,0.047-0.984-0.097-1.462,0.085c-1.152,0-2.303,0-3.455,0
			c-0.471-0.175-0.96-0.044-1.439-0.085c-0.176,0-0.352,0-0.528,0c-0.26,0-0.52,0-0.78,0c-4.63-0.239-8.982-1.557-13.206-3.379
			c-3.696-1.594-7.061-3.728-10.17-6.267c-4.289-3.502-7.727-7.712-10.433-12.534c-2.379-4.239-3.971-8.753-4.825-13.529
			c-0.207-1.154-0.419-2.313-0.402-3.495c0.042-0.471-0.065-0.933-0.081-1.401c-0.039-0.288,0.088-0.592-0.085-0.867
			c0-10.348,0-20.697,0-31.045c0.16-0.282,0.08-0.589,0.081-0.883c0.006-4.233,0.003-8.466,0.007-12.699
			c0-0.297-0.061-0.601,0.063-0.89c0.291-0.118,0.595-0.059,0.892-0.059c5.847-0.004,11.693-0.003,17.54-0.003
			c8.316,0,16.631-0.001,24.947,0.003C50.162,6.442,50.468,6.372,50.754,6.513z"/>
		<path style="fill:#2B83C5;" d="M93.297,45.452c0.181,0.215,0.181,0.44,0.199,0.653c0.578,6.868-0.327,13.524-2.865,19.946
			c-0.285,0.721-0.289,0.724-1.048,0.724c-16.662,0.001-33.324,0.001-49.986,0c-0.137,0-0.274-0.008-0.411,0
			c-0.308,0.019-0.461-0.111-0.442-0.429c0.008-0.136,0-0.274,0-0.41c0-7.607,0-15.214,0-22.821c0-0.217,0-0.433,0-0.639
			c0.314-0.09,0.525,0.062,0.747,0.151c9.781,3.917,19.565,7.83,29.337,11.769c0.705,0.284,1.291,0.304,2.007,0.014
			c7.205-2.916,14.425-5.794,21.642-8.683C92.75,45.621,93.014,45.478,93.297,45.452z"/>
		<path style="fill:#2B83C5;" d="M63.796,29.868c8.003,0,16.005,0.01,24.008-0.017c0.676-0.002,1.022,0.208,1.307,0.804
			c1.05,2.201,1.976,4.447,2.677,6.782c0.205,0.683,0.202,0.695-0.45,0.956c-6.961,2.791-13.925,5.572-20.878,8.381
			c-0.526,0.213-0.939,0.106-1.405-0.081c-6.451-2.592-12.904-5.179-19.357-7.766c-3.404-1.365-6.807-2.732-10.213-4.092
			c-0.896-0.358-0.727-0.253-0.737-1.117c-0.012-1.094,0.011-2.189-0.009-3.284c-0.008-0.415,0.117-0.618,0.557-0.57
			c0.19,0.021,0.383,0.003,0.575,0.003C47.846,29.868,55.821,29.868,63.796,29.868z"/>
	</g>
</g>
<g id="Layer_1">
</g>
</svg>
