<?xml version="1.0" encoding="utf-8"?>
<!-- Generator: Adobe Illustrator 24.0.1, SVG Export Plug-In . SVG Version: 6.00 Build 0)  -->
<svg version="1.1" id="Layer_1" xmlns="http://www.w3.org/2000/svg" xmlns:xlink="http://www.w3.org/1999/xlink" x="0px" y="0px"
	 viewBox="0 0 100 100" style="enable-background:new 0 0 100 100;" xml:space="preserve">
<style type="text/css">
	.st0{fill-rule:evenodd;clip-rule:evenodd;fill:#7A89E9;}
</style>
<g>
	<g id="layer1" transform="translate(24.946428,-325.0345)">
		<g id="Stripe" transform="matrix(0.26458333,0,0,0.26458333,-38.969344,315.77409)">
			<path id="path5516" class="st0" d="M426.3,226.6c0-26.3-12.8-47.1-37.1-47.1c-24.5,0-39.3,20.8-39.3,46.9
				c0,31,17.5,46.6,42.6,46.6c12.2,0,21.5-2.8,28.5-6.7v-20.6c-7,3.5-15,5.7-25.2,5.7c-10,0-18.8-3.5-20-15.6h50.3
				C426.1,234.4,426.3,229,426.3,226.6z M375.5,216.8c0-11.6,7.1-16.5,13.6-16.5c6.3,0,13,4.8,13,16.5H375.5z"/>
			<path id="path5518" class="st0" d="M310.1,179.4c-10.1,0-16.6,4.7-20.2,8l-1.3-6.4H266V301l25.7-5.5l0.1-29.1
				c3.7,2.7,9.2,6.5,18.2,6.5c18.4,0,35.2-14.8,35.2-47.4C345.1,195.7,328.1,179.4,310.1,179.4L310.1,179.4z M304,250.3
				c-6.1,0-9.7-2.2-12.1-4.8l-0.1-38.2c2.7-3,6.4-5,12.2-5c9.4,0,15.8,10.5,15.8,24C319.8,240,313.4,250.3,304,250.3z"/>
			<polygon id="polygon5520" class="st0" points="256.5,167.8 256.5,146.9 230.6,152.4 230.6,173.4 			"/>
			<rect id="rect5522" x="230.6" y="181.2" class="st0" width="25.8" height="90"/>
			<path id="path5524" class="st0" d="M203,188.8l-1.6-7.6h-22.2v90h25.7v-61c6.1-7.9,16.4-6.5,19.5-5.3v-23.7
				C221.1,180,209,177.7,203,188.8L203,188.8z"/>
			<path id="path5526" class="st0" d="M151.5,158.9l-25.1,5.3l-0.1,82.4c0,15.2,11.4,26.4,26.6,26.4c8.4,0,14.6-1.5,18-3.4v-20.9
				c-3.3,1.3-19.5,6.1-19.5-9.2v-36.5H171v-21.9h-19.5L151.5,158.9z"/>
			<path id="path5528" class="st0" d="M82,207.3c0-4,3.3-5.6,8.7-5.6c7.8,0,17.7,2.4,25.5,6.6v-24.2c-8.5-3.4-17-4.7-25.5-4.7
				c-20.9,0-34.8,10.9-34.8,29.1c0,28.4,39.1,23.9,39.1,36.1c0,4.7-4.1,6.3-9.9,6.3c-8.5,0-19.4-3.5-28.1-8.2v24.5
				c9.6,4.1,19.2,5.9,28.1,5.9c21.4,0,36.1-10.6,36.1-29C121.2,213.4,82,218.8,82,207.3L82,207.3z"/>
		</g>
	</g>
</g>
</svg>
