<?xml version="1.0" encoding="iso-8859-1"?>
<!-- Generator: Adobe Illustrator 24.0.1, SVG Export Plug-In . SVG Version: 6.00 Build 0)  -->
<svg version="1.1" xmlns="http://www.w3.org/2000/svg" xmlns:xlink="http://www.w3.org/1999/xlink" x="0px" y="0px"
	 viewBox="0 0 100 100" style="enable-background:new 0 0 100 100;" xml:space="preserve">
<g id="Layer_9">
	<g>
		<circle style="fill:none;stroke:#88BC4C;stroke-width:7;stroke-miterlimit:10;" cx="52.105" cy="46.656" r="39.672"/>
		<g>
			<g>
				<g>
					<g>
						<g>
							<g>
								<g>
									<g>
										<path style="fill:#646464;" d="M81.704,89.443c-0.035-0.346-0.139-0.658-0.312-0.97l0,0L70.306,69.247
											c5.127-4.989,8.349-11.986,8.349-19.712h-7.102c0,5.058-1.871,9.7-4.954,13.303L59.74,50.99l1.386-1.386
											c0.45-0.45,0.624-0.866,0.624-1.178h0.035v-9.042c0-2.182-1.801-3.984-3.984-3.984h-2.217v-7.102v-0.035h-4.434h-4.4
											v0.035v7.102h-2.252c-2.182,0-3.984,1.801-3.984,3.984v9.042h0.035c-0.035,0.346,0.173,0.727,0.624,1.178l1.386,1.386
											L20.906,88.439c-0.173,0.312-0.277,0.624-0.312,0.97l-0.485,6.444c-0.035,0.243,0.104,0.45,0.312,0.589l0,0l0,0
											c0.208,0.139,0.45,0.104,0.658-0.035l5.335-3.603c0.277-0.208,0.52-0.45,0.693-0.728l0,0l10.705-18.534
											c3.949,2.217,8.522,3.499,13.372,3.499s9.423-1.282,13.372-3.499L75.26,92.042c0.173,0.312,0.416,0.554,0.693,0.727
											l5.335,3.637c0.208,0.139,0.45,0.139,0.658,0.035l0,0l0,0c0.208-0.139,0.312-0.346,0.312-0.589L81.704,89.443z
											 M51.149,38.9v-0.069l0.035,0.069c2.91,0.035,5.3,2.39,5.3,5.335s-2.39,5.3-5.3,5.335h-0.035l0,0
											c-2.91,0-5.3-2.39-5.3-5.335C45.848,41.256,48.204,38.9,51.149,38.9z M51.149,69.905c-3.568,0-6.929-0.935-9.804-2.529
											l6.444-11.155l1.351,1.351c0.554,0.554,1.282,0.831,1.975,0.831v-0.035l0.035,0.035c0.727,0,1.455-0.277,1.975-0.831
											l1.351-1.351l6.444,11.19C58.077,69.004,54.717,69.905,51.149,69.905z"/>
									</g>
								</g>
							</g>
						</g>
						<g>
							<g>
								<g>
									<path style="fill:#E1E1E1;" d="M81.704,89.443c-0.035-0.346-0.139-0.658-0.312-0.97l0,0L70.306,69.247l-3.672-6.409
										L59.775,50.99l-5.231,5.231l6.444,11.19l3.534,6.132l10.705,18.499c0.173,0.312,0.416,0.554,0.693,0.728l5.335,3.637
										c0.208,0.139,0.45,0.139,0.658,0.035l0,0l0,0c0.208-0.139,0.312-0.346,0.312-0.589L81.704,89.443z"/>
									<path style="fill:#FFFFFF;fill-opacity:0.4;" d="M66.599,63.254l3.672,6.409l11.12,19.227l0,0
										c0.173,0.312,0.277,0.624,0.312,0.97l0.45,6.097c0-0.035,0.035-0.069,0.035-0.139l-0.485-6.409
										c-0.035-0.346-0.139-0.658-0.312-0.97l0,0L70.306,69.212l-3.672-6.409l-6.859-11.848l-0.208,0.242L66.599,63.254z"/>
									<path style="fill:#F1F1F1;" d="M71.553,49.535c0,5.058-1.871,9.7-4.954,13.303c-1.594,1.836-3.464,3.395-5.612,4.573
										c-2.91,1.628-6.27,2.529-9.838,2.529c-3.568,0-6.929-0.935-9.804-2.529l6.444-11.19l-5.231-5.231L20.906,88.473
										c-0.173,0.312-0.277,0.624-0.312,0.97l-0.485,6.444c-0.035,0.243,0.104,0.45,0.312,0.589l0,0l0,0
										c0.208,0.139,0.45,0.104,0.658-0.035l5.335-3.603c0.277-0.208,0.52-0.45,0.693-0.727l0,0l10.705-18.534
										c3.949,2.217,8.522,3.499,13.372,3.499s9.423-1.282,13.372-3.499c2.113-1.178,4.053-2.633,5.751-4.296
										c5.127-4.989,8.349-11.986,8.349-19.712L71.553,49.535L71.553,49.535z"/>
									<path style="fill:none;" d="M53.158,57.572c-0.554,0.554-1.282,0.831-1.975,0.831l-0.035-0.035v0.035
										c-0.727,0-1.455-0.277-1.975-0.831l-1.351-1.351L41.38,67.376c2.91,1.628,6.27,2.529,9.804,2.529s6.929-0.935,9.838-2.529
										l-6.444-11.19L53.158,57.572z"/>
									<g>
										<path style="fill:#FFFFFF;fill-opacity:0.4;" d="M20.906,88.889L42.8,51.163l-0.243-0.208L20.906,88.439
											c-0.173,0.312-0.277,0.624-0.312,0.97l-0.485,6.444c0,0.035,0.035,0.069,0.035,0.139l0.45-6.097
											C20.663,89.547,20.733,89.201,20.906,88.889z"/>
										<path style="fill:#FFFFFF;fill-opacity:0.4;" d="M51.149,70.355c3.568,0,6.929-0.935,9.838-2.529
											c2.113-1.178,4.019-2.737,5.612-4.573c3.083-3.568,4.954-8.21,4.954-13.303h7.067c0-0.139,0.035-0.312,0.035-0.45h-7.102
											c0,5.058-1.871,9.7-4.954,13.303c-1.594,1.836-3.464,3.395-5.612,4.573c-2.91,1.628-6.27,2.529-9.838,2.529
											c-3.499,0-6.755-0.901-9.631-2.46l-0.208,0.346C44.255,69.42,47.615,70.355,51.149,70.355z"/>
									</g>
									<path style="fill:#90C158;" d="M57.8,35.366h-2.217v-7.102V28.23h-4.434h-4.4v0.035v7.102h-2.252
										c-2.182,0-3.984,1.801-3.984,3.984v9.042h0.035c-0.035,0.346,0.173,0.727,0.624,1.178l8.002,8.002
										c0.554,0.554,1.282,0.831,1.975,0.831v-0.035l0.035,0.035c0.727,0,1.455-0.277,1.975-0.831l8.002-8.002
										c0.45-0.45,0.624-0.866,0.624-1.178h0.035v-9.007C61.784,37.168,60.017,35.366,57.8,35.366z M51.183,49.535h-0.035l0,0
										c-2.91,0-5.3-2.39-5.3-5.335c0-2.945,2.39-5.335,5.3-5.335v-0.069l0.035,0.069c2.91,0.035,5.3,2.39,5.3,5.335
										C56.484,47.145,54.093,49.501,51.183,49.535z"/>
									<path style="opacity:0.2;fill:#FFFFFF;enable-background:new    ;" d="M55.583,28.68v-0.416V28.23h-4.434h-4.4v0.035v0.416
										h4.4H55.583z"/>
									<path style="opacity:0.2;fill:#FFFFFF;enable-background:new    ;" d="M44.532,35.817h2.252v-0.45h-2.252
										c-2.182,0-3.984,1.801-3.984,3.984v0.45C40.514,37.618,42.315,35.817,44.532,35.817z"/>
									<path style="opacity:0.2;fill:#FFFFFF;enable-background:new    ;" d="M57.8,35.366h-2.217v0.45H57.8
										c2.182,0,3.984,1.801,3.984,3.984v-0.416C61.784,37.168,60.017,35.366,57.8,35.366z"/>
									<path style="fill:none;" d="M51.149,49.535L51.149,49.535h0.035c2.91-0.035,5.3-2.39,5.3-5.335s-2.39-5.3-5.3-5.335
										l-0.035-0.069v0.069c-2.91,0-5.3,2.39-5.3,5.335C45.848,47.145,48.204,49.535,51.149,49.535z"/>
								</g>
							</g>
						</g>
					</g>
				</g>
			</g>
		</g>
	</g>
</g>
<g id="Layer_1">
</g>
</svg>
