<?xml version="1.0" encoding="iso-8859-1"?>
<!-- Generator: Adobe Illustrator 24.0.1, SVG Export Plug-In . SVG Version: 6.00 Build 0)  -->
<svg version="1.1" xmlns="http://www.w3.org/2000/svg" xmlns:xlink="http://www.w3.org/1999/xlink" x="0px" y="0px"
	 viewBox="0 0 100 100" style="enable-background:new 0 0 100 100;" xml:space="preserve">
<g id="Layer_10">
	<g>
		<path style="fill:#2E78D7;" d="M61.724,60.376l-9.459,6.514c-1.358,0.936-3.174,0.936-4.532,0l-9.486-6.523l-3.238-2.229
			L22.533,49.55l-3.229,2.229l12.477,8.578l3.238,2.229l10.633,7.321c1.303,0.899,2.826,1.349,4.348,1.349s3.046-0.45,4.348-1.349
			l10.614-7.303L61.724,60.376z M61.724,60.376l-9.459,6.514c-1.358,0.936-3.174,0.936-4.532,0l-9.486-6.523l-3.238-2.229
			L22.533,49.55l-3.229,2.229l12.477,8.578l3.238,2.229l10.633,7.321c1.303,0.899,2.826,1.349,4.348,1.349s3.046-0.45,4.348-1.349
			l10.614-7.303L61.724,60.376z M91.109,31.973L54.348,6.68c-2.596-1.789-6.101-1.789-8.697,0L8.891,31.973
			c-2.083,1.431-3.321,3.798-3.321,6.321c0,2.532,1.238,4.89,3.321,6.321l7.165,4.936l3.248,2.229l12.477,8.578l3.238,2.229
			l10.633,7.321c1.303,0.899,2.826,1.349,4.348,1.349s3.046-0.45,4.348-1.349l10.614-7.303l3.238-2.229l12.477-8.587l3.238-2.229
			l7.192-4.945c2.083-1.431,3.321-3.789,3.321-6.321C94.43,35.771,93.192,33.404,91.109,31.973z M89.026,41.596l-8.348,5.743
			l-3.238,2.229l-12.477,8.587l-3.238,2.22l-9.459,6.514c-1.358,0.936-3.174,0.936-4.532,0l-9.486-6.523l-3.238-2.229L22.533,49.55
			l-3.238-2.229l-8.321-5.725c-1.101-0.761-1.734-1.963-1.734-3.303c0-1.339,0.633-2.541,1.734-3.294l36.76-25.293
			C48.413,9.24,49.202,9.001,50,9.001s1.587,0.239,2.266,0.706L89.026,35c1.101,0.752,1.734,1.954,1.734,3.294
			C90.76,39.633,90.127,40.835,89.026,41.596z M61.724,60.376l-9.459,6.514c-1.358,0.936-3.174,0.936-4.532,0l-9.486-6.523
			l-3.238-2.229L22.533,49.55l-3.229,2.229l12.477,8.578l3.238,2.229l10.633,7.321c1.303,0.899,2.826,1.349,4.348,1.349
			s3.046-0.45,4.348-1.349l10.614-7.303L61.724,60.376z"/>
	</g>
	<g>
		<path style="fill:#2E78D7;" d="M85.192,50.58l-1.275-0.881l-3.238-2.22l-3.238,2.229l3.238,2.22l2.431,1.679
			c0.871,0.587,1.367,1.532,1.367,2.587c0,1.055-0.495,2-1.367,2.587l-8.715,6l-3.238,2.229L51.761,80.359
			c-1.064,0.734-2.505,0.734-3.569,0L28.799,67.011l-3.238-2.229l-8.715-6c-0.872-0.587-1.367-1.532-1.367-2.587
			c0-1.055,0.495-2,1.367-2.587l2.459-1.688l3.229-2.229l-3.238-2.229l-3.238,2.229l-1.294,0.89
			c-1.844,1.275-2.954,3.367-2.954,5.615c0,2.248,1.101,4.339,2.954,5.615l7.559,5.202l3.238,2.229l20.55,14.137
			c1.156,0.798,2.514,1.193,3.871,1.193c1.349,0,2.706-0.394,3.862-1.193l20.55-14.137l3.238-2.229l7.559-5.202
			c1.853-1.275,2.954-3.367,2.954-5.615C88.146,53.947,87.045,51.855,85.192,50.58z"/>
	</g>
	<g>
		<path style="fill:#2E78D7;" d="M77.999,67.119l-0.367-0.248l-3.238-2.229l-3.238,2.229l3.238,2.229l1.523,1.046
			c0.578,0.395,0.908,1.027,0.908,1.725c0,0.697-0.33,1.33-0.908,1.725L51.165,90.632c-0.716,0.486-1.67,0.486-2.376,0
			L24.037,73.596c-0.578-0.394-0.908-1.027-0.908-1.725c0-0.697,0.33-1.33,0.908-1.725L25.56,69.1l3.238-2.229l-3.238-2.229
			l-3.238,2.229l-0.367,0.248c-1.56,1.073-2.495,2.853-2.495,4.752s0.936,3.67,2.495,4.752L46.706,93.65
			c0.982,0.67,2.128,1.009,3.275,1.009c1.138,0,2.284-0.339,3.266-1.009l24.752-17.027c1.56-1.083,2.495-2.853,2.495-4.752
			S79.559,68.192,77.999,67.119z"/>
	</g>
	<g>
		<path style="fill:#2E79D7;" d="M76.953,41.532l-2.358,1.624l-3.238,2.229L58.88,53.972l-3.229,2.22l-3.449,2.376
			c-1.339,0.917-3.11,0.917-4.449,0l-3.449-2.376l-3.229-2.22l-12.477-8.587l-3.238-2.229l-2.358-1.624
			c-2.275-1.56-2.275-4.908,0-6.477l24.752-17.027c1.339-0.927,3.11-0.927,4.449,0l24.752,17.027
			C79.229,36.624,79.229,39.973,76.953,41.532z"/>
	</g>
</g>
<g id="Layer_1">
</g>
</svg>
