<?xml version="1.0" encoding="iso-8859-1"?>
<!-- Generator: Adobe Illustrator 24.0.1, SVG Export Plug-In . SVG Version: 6.00 Build 0)  -->
<svg version="1.1" xmlns="http://www.w3.org/2000/svg" xmlns:xlink="http://www.w3.org/1999/xlink" x="0px" y="0px"
	 viewBox="0 0 100 100" style="enable-background:new 0 0 100 100;" xml:space="preserve">
<g id="Layer_11">
	<g>
		<g>
			<path style="fill:#252F3E;" d="M28.482,43.099c0,1.196,0.129,2.166,0.356,2.877c0.259,0.711,0.582,1.487,1.034,2.327
				c0.162,0.259,0.226,0.517,0.226,0.743c0,0.323-0.194,0.646-0.614,0.97l-2.036,1.358c-0.291,0.194-0.582,0.291-0.84,0.291
				c-0.323,0-0.646-0.162-0.97-0.453c-0.453-0.485-0.84-1.002-1.164-1.519c-0.323-0.549-0.646-1.164-1.002-1.907
				c-2.521,2.974-5.689,4.46-9.503,4.46c-2.715,0-4.881-0.776-6.464-2.327c-1.584-1.551-2.392-3.62-2.392-6.206
				c0-2.747,0.97-4.978,2.941-6.658s4.59-2.521,7.919-2.521c1.099,0,2.23,0.097,3.426,0.259s2.424,0.42,3.717,0.711v-2.359
				c0-2.456-0.517-4.17-1.519-5.171c-1.034-1.002-2.78-1.487-5.268-1.487c-1.131,0-2.295,0.129-3.491,0.42
				c-1.196,0.291-2.359,0.646-3.491,1.099c-0.517,0.226-0.905,0.356-1.131,0.42c-0.226,0.065-0.388,0.097-0.517,0.097
				c-0.453,0-0.679-0.323-0.679-1.002v-1.584c0-0.517,0.065-0.905,0.226-1.131s0.453-0.453,0.905-0.679
				c1.131-0.582,2.489-1.067,4.073-1.454c1.584-0.42,3.265-0.614,5.042-0.614c3.846,0,6.658,0.873,8.468,2.618
				c1.778,1.745,2.683,4.396,2.683,7.951v10.472H28.482z M15.359,48.012c1.067,0,2.166-0.194,3.329-0.582
				c1.164-0.388,2.198-1.099,3.071-2.069c0.517-0.614,0.905-1.293,1.099-2.069c0.194-0.776,0.323-1.713,0.323-2.812v-1.358
				c-0.937-0.226-1.939-0.42-2.974-0.549s-2.036-0.194-3.038-0.194c-2.166,0-3.749,0.42-4.816,1.293
				c-1.067,0.873-1.584,2.101-1.584,3.717c0,1.519,0.388,2.65,1.196,3.426C12.741,47.624,13.873,48.012,15.359,48.012z
				 M41.314,51.502c-0.582,0-0.97-0.097-1.228-0.323c-0.259-0.194-0.485-0.646-0.679-1.261l-7.596-24.985
				c-0.194-0.646-0.291-1.067-0.291-1.293c0-0.517,0.259-0.808,0.776-0.808h3.168c0.614,0,1.034,0.097,1.261,0.323
				c0.259,0.194,0.453,0.646,0.646,1.261l5.43,21.397l5.042-21.397c0.162-0.646,0.356-1.067,0.614-1.261
				c0.259-0.194,0.711-0.323,1.293-0.323h2.586c0.614,0,1.034,0.097,1.293,0.323c0.259,0.194,0.485,0.646,0.614,1.261l5.107,21.656
				l5.592-21.656c0.194-0.646,0.42-1.067,0.646-1.261c0.259-0.194,0.679-0.323,1.261-0.323h3.006c0.517,0,0.808,0.259,0.808,0.808
				c0,0.162-0.032,0.323-0.065,0.517c-0.032,0.194-0.097,0.453-0.226,0.808l-7.79,24.985c-0.194,0.646-0.42,1.067-0.679,1.261
				c-0.259,0.194-0.679,0.323-1.228,0.323h-2.78c-0.614,0-1.034-0.097-1.293-0.323c-0.259-0.226-0.485-0.646-0.614-1.293
				l-5.01-20.848L46,49.886c-0.162,0.646-0.356,1.067-0.614,1.293c-0.259,0.226-0.711,0.323-1.293,0.323H41.314z M82.847,52.375
				c-1.681,0-3.361-0.194-4.978-0.582c-1.616-0.388-2.877-0.808-3.717-1.293c-0.517-0.291-0.873-0.614-1.002-0.905
				c-0.129-0.291-0.194-0.614-0.194-0.905v-1.648c0-0.679,0.259-1.002,0.743-1.002c0.194,0,0.388,0.032,0.582,0.097
				c0.194,0.065,0.485,0.194,0.808,0.323c1.099,0.485,2.295,0.873,3.555,1.131c1.293,0.259,2.553,0.388,3.846,0.388
				c2.036,0,3.62-0.356,4.719-1.067c1.099-0.711,1.681-1.745,1.681-3.071c0-0.905-0.291-1.648-0.873-2.263
				c-0.582-0.614-1.681-1.164-3.265-1.681l-4.687-1.454c-2.359-0.743-4.105-1.842-5.172-3.297c-1.067-1.422-1.616-3.006-1.616-4.687
				c0-1.358,0.291-2.553,0.873-3.588s1.358-1.939,2.327-2.65c0.97-0.743,2.069-1.293,3.361-1.681
				c1.293-0.388,2.65-0.549,4.073-0.549c0.711,0,1.454,0.032,2.166,0.129c0.743,0.097,1.422,0.226,2.101,0.356
				c0.646,0.162,1.261,0.323,1.842,0.517c0.582,0.194,1.034,0.388,1.358,0.582c0.453,0.259,0.776,0.517,0.97,0.808
				c0.194,0.259,0.291,0.614,0.291,1.067v1.519c0,0.679-0.259,1.034-0.743,1.034c-0.259,0-0.679-0.129-1.228-0.388
				c-1.842-0.84-3.911-1.261-6.206-1.261c-1.842,0-3.297,0.291-4.299,0.905c-1.002,0.614-1.519,1.551-1.519,2.877
				c0,0.905,0.323,1.681,0.97,2.295c0.646,0.614,1.842,1.228,3.555,1.778l4.59,1.454c2.327,0.743,4.008,1.778,5.01,3.103
				c1.002,1.325,1.487,2.844,1.487,4.525c0,1.39-0.291,2.65-0.84,3.749c-0.582,1.099-1.358,2.069-2.359,2.844
				c-1.002,0.808-2.198,1.39-3.588,1.81C86.015,52.149,84.496,52.375,82.847,52.375z"/>
			<g>
				<path style="fill-rule:evenodd;clip-rule:evenodd;fill:#FF9900;" d="M88.956,68.083c-10.634,7.854-26.084,12.024-39.368,12.024
					c-18.617,0-35.392-6.885-48.063-18.326c-1.002-0.905-0.097-2.133,1.099-1.422c13.704,7.951,30.609,12.767,48.095,12.767
					c11.797,0,24.759-2.456,36.685-7.499C89.182,64.819,90.702,66.791,88.956,68.083z"/>
				<path style="fill-rule:evenodd;clip-rule:evenodd;fill:#FF9900;" d="M93.384,63.041c-1.358-1.745-8.985-0.84-12.444-0.42
					c-1.034,0.129-1.196-0.776-0.259-1.454c6.077-4.266,16.064-3.038,17.228-1.616c1.164,1.454-0.323,11.442-6.012,16.226
					c-0.873,0.743-1.713,0.356-1.325-0.614C91.865,71.962,94.742,64.754,93.384,63.041z"/>
			</g>
		</g>
	</g>
</g>
<g id="Layer_1">
</g>
</svg>
