<?xml version="1.0" encoding="iso-8859-1"?>
<!-- Generator: Adobe Illustrator 24.0.1, SVG Export Plug-In . SVG Version: 6.00 Build 0)  -->
<svg version="1.1" xmlns="http://www.w3.org/2000/svg" xmlns:xlink="http://www.w3.org/1999/xlink" x="0px" y="0px"
	 viewBox="0 0 100 100" style="enable-background:new 0 0 100 100;" xml:space="preserve">
<g id="Layer_18">
	<g>
		<path style="fill:#40D4A5;" d="M23.784,60.535c-1.636,0.266-3.277,0.497-4.914,0.766c-0.546,0.091-0.766-0.038-0.846-0.642
			c-0.22-1.679-0.533-3.344-0.802-5.016c-0.056-0.351-0.195-0.702,0.413-0.788c3.162-0.457,6.319-0.955,9.676-1.47
			c-0.986,2.354-1.912,4.541-2.815,6.737C24.35,60.478,24.054,60.493,23.784,60.535z"/>
		<path style="fill:#40D4A5;" d="M29.321,71.113c-1.092,1.294-2.205,2.573-3.308,3.857c-1.055,1.226-2.107,2.454-3.162,3.679
			c-0.075-0.018-0.153-0.036-0.231-0.053c0.32-3.47,0.637-6.941,0.968-10.547c1.972,0.788,3.83,1.548,5.704,2.276
			C29.985,70.594,29.523,70.876,29.321,71.113z"/>
		<path style="fill:#40D4A5;" d="M39.078,48.483c-2.678,6.368-5.373,12.73-8.02,19.111c-0.318,0.764-0.613,0.895-1.361,0.562
			c-1.474-0.659-2.991-1.228-4.501-1.805c-0.508-0.193-0.757-0.357-0.488-0.995c2.753-6.495,5.475-13.005,8.2-19.513
			c0.184-0.44,0.322-0.744,0.928-0.484c1.654,0.713,3.339,1.35,5.007,2.029c0.211,0.084,0.522,0.12,0.5,0.437
			C39.242,48.074,39.164,48.281,39.078,48.483z"/>
		<path style="fill:#40D4A5;" d="M34.253,42.641c0.38-0.87,0.702-1.772,1.13-2.62c0.393-0.782,1.095-1.159,2.227-1.143
			c1.026,0.235,2.245,0.639,3.306,1.372c0.606,0.417,0.921,1.146,0.722,1.847c-0.311,1.086-0.804,2.118-1.208,3.177
			c-0.14,0.366-0.349,0.26-0.608,0.155c-1.765-0.711-3.535-1.41-5.309-2.107C34.159,43.185,34.108,42.972,34.253,42.641z"/>
		<path style="fill:#40D4A5;" d="M49.873,50.268c1.561,1.807,3.14,3.599,4.829,5.531c-5.855,0.897-11.555,1.77-17.406,2.664
			c0.986-2.325,1.927-4.503,2.831-6.699c0.164-0.4,0.442-0.411,0.775-0.462c2.693-0.411,5.382-0.835,8.073-1.255
			C49.307,49.997,49.604,49.957,49.873,50.268z"/>
		<path style="fill:#40D4A5;" d="M41.267,37.008c-1.057-1.221-0.953-2.385,0.273-3.448c2.906-2.52,3.404-2.462,5.957,0.453
			c3.666,4.188,7.354,8.353,11.062,12.501c0.433,0.486,0.528,0.842,0.242,1.441c-0.921,1.914-1.772,3.859-2.691,5.882
			c-3.641-4.121-7.201-8.149-10.758-12.179C43.987,40.11,42.617,38.569,41.267,37.008z"/>
		<path style="fill:#40D4A5;" d="M77.892,63.52c-0.309-2.391-1.576-4.145-3.57-5.436c-0.513-0.331-0.753-0.402-0.948,0.335
			c-0.597,2.236-1.25,4.459-1.956,6.661c-0.229,0.713-0.042,0.915,0.619,1.141c2.034,0.695,3.77,1.816,4.916,3.983
			C77.892,67.9,78.179,65.751,77.892,63.52z M78.037,50.299c-0.242-1.485-0.511-2.969-0.768-4.452
			c-0.071,0.009-0.14,0.016-0.211,0.022c-0.633,2.174-1.266,4.35-1.938,6.659c0.584-0.062,0.984-0.087,1.377-0.147
			C78.321,52.098,78.33,52.091,78.037,50.299z M78.037,50.299c-0.242-1.485-0.511-2.969-0.768-4.452
			c-0.071,0.009-0.14,0.016-0.211,0.022c-0.633,2.174-1.266,4.35-1.938,6.659c0.584-0.062,0.984-0.087,1.377-0.147
			C78.321,52.098,78.33,52.091,78.037,50.299z M74.322,58.084c-0.513-0.331-0.753-0.402-0.948,0.335
			c-0.597,2.236-1.25,4.459-1.956,6.661c-0.229,0.713-0.042,0.915,0.619,1.141c2.034,0.695,3.77,1.816,4.916,3.983
			c0.939-2.305,1.226-4.454,0.939-6.686C77.584,61.128,76.316,59.374,74.322,58.084z M95.389,14.154
			c-1.321-0.453-2.664-0.846-4.001-1.257c-0.866-0.266-1.692-0.087-2.165,0.662c-0.488,0.777-0.89,0.52-1.401,0.138
			c-0.573-0.426-1.006-0.975-1.368-1.579c-0.331-0.553-0.779-0.959-1.334-1.286c-1.779-1.048-3.615-1.974-5.551-2.696
			c-9.774-3.641-19.42-2.365-29.007,0.786c-1.312,0.433-1.885,1.323-1.705,2.363c0.191,1.097,1.039,1.699,2.489,1.696
			c2.18-0.004,4.35,0.122,6.504,0.48c3.442,0.571,6.399,2.072,9.001,4.634c-0.535,0.098-0.921,0.178-1.312,0.238
			c-7.865,1.212-15.731,2.42-23.598,3.635c-8.888,1.37-17.772,2.744-26.66,4.114c-3.97,0.611-7.94,1.215-11.91,1.825
			c-0.466,0.073-0.904,0.084-0.786,0.837c1.15,7.394,2.265,14.79,3.386,22.186c1.299,8.564,2.596,17.126,3.892,25.688
			c0.85,5.611,1.714,11.222,2.54,16.835c0.1,0.688,0.289,0.897,1.024,0.777c10.256-1.668,20.519-3.297,30.777-4.963
			c0.639-0.104,0.77,0.078,0.935,0.657c0.659,2.331,2.078,4.041,4.396,4.896c1.001,0.366,2.016,0.711,3.044,0.981
			c4.159,1.099,7.472-0.784,8.735-4.929c0.333-1.09,0.75-2.165,0.973-3.277c0.195-0.986,0.691-1.337,1.654-1.485
			c9.43-1.461,18.853-2.978,28.281-4.452c0.728-0.113,0.973-0.298,0.826-1.108c-0.542-3.049-0.99-6.111-1.477-9.168
			c-1.361-8.588-2.724-17.177-4.086-25.768c-1.075-6.768-2.152-13.538-3.2-20.31c-0.047-0.304-0.466-0.855,0.213-0.977
			c0.508-0.093,1.017-0.062,1.121,0.699c0.109,0.79,0.642,1.29,1.414,1.537c1.299,0.411,2.58,0.873,3.886,1.252
			c1.357,0.393,2.285-0.109,2.742-1.49c1.037-3.144,2.052-6.295,3.049-9.452C97.123,15.57,96.641,14.582,95.389,14.154z
			 M46.485,84.078c-0.291,0.706-0.673,1.01-1.414,1.126c-9.175,1.441-18.347,2.9-27.513,4.392c-0.873,0.142-1.181-0.009-1.317-0.937
			c-1.183-8.06-2.422-16.109-3.641-24.162c-1.361-9.001-2.716-18.005-4.077-27.007c-0.253-1.676-0.484-3.357-0.795-5.023
			c-0.151-0.815,0.056-1.126,0.904-1.248c4.014-0.573,8.018-1.206,12.023-1.825c11.291-1.745,22.581-3.497,33.872-5.242
			c4.554-0.702,9.119-1.328,13.658-2.118c1.199-0.209,1.292,0.262,1.246,1.312c-0.335,3.146-1.259,6.328-2.263,9.488
			c-3.171,9.972-7.483,19.495-11.466,29.149C52.66,69.359,49.538,76.704,46.485,84.078z M87.276,69.854
			c0.391,2.474,0.775,4.947,1.188,7.418c0.1,0.602,0.038,0.933-0.684,1.044c-7.86,1.221-15.716,2.474-23.574,3.717
			c-0.027,0.002-0.062-0.033-0.202-0.113c0.619-2.069,1.257-4.165,1.876-6.266c3.764-12.767,7.514-25.541,11.295-38.304
			c0.888-2.993,1.93-5.935,3.51-9.013c0.782,4.923,1.519,9.579,2.256,14.233C84.387,51.665,85.83,60.76,87.276,69.854z
			 M92.118,18.113c-0.491,1.541-0.973,3.086-1.497,4.618c-0.078,0.224-0.011,0.713-0.437,0.624c-0.329-0.067-0.742-0.071-0.95-0.464
			c-1.71-3.228-6.079-3.348-8.766-0.933c-2.349,2.112-3.664,4.867-4.818,7.707c-2.64,6.492-4.232,13.313-6.222,20.008
			c-3.981,13.4-7.978,26.793-11.981,40.187c-0.571,1.912-1.803,2.582-3.73,2.081c-0.819-0.213-1.623-0.48-2.425-0.746
			c-2.147-0.713-2.955-2.434-2.087-4.525c2.922-7.028,5.882-14.04,8.791-21.074c3.921-9.479,8.136-18.84,11.504-28.539
			c1.414-4.07,2.678-8.182,3.286-12.472c0.54-3.817-0.795-6.934-3.408-9.619c-1.756-1.803-3.908-2.984-6.215-3.917
			c-0.233-0.093-0.462-0.189-0.877-0.36c7.241-1.687,13.78-0.204,20.01,3.173c0.56,0.304,0.997,0.688,1.37,1.228
			c1.705,2.458,4.054,3.495,6.304,2.829c0.417-0.124,0.835-0.311,1.192-0.553c0.333-0.224,0.631-0.215,0.921-0.04
			C92.438,17.542,92.203,17.846,92.118,18.113z M77.268,45.847c-0.071,0.009-0.14,0.016-0.211,0.022
			c-0.633,2.174-1.266,4.35-1.938,6.659c0.584-0.062,0.984-0.087,1.377-0.147c1.825-0.284,1.834-0.291,1.541-2.083
			C77.795,48.814,77.526,47.331,77.268,45.847z M74.322,58.084c-0.513-0.331-0.753-0.402-0.948,0.335
			c-0.597,2.236-1.25,4.459-1.956,6.661c-0.229,0.713-0.042,0.915,0.619,1.141c2.034,0.695,3.77,1.816,4.916,3.983
			c0.939-2.305,1.226-4.454,0.939-6.686C77.584,61.128,76.316,59.374,74.322,58.084z"/>
		<path style="fill:#40D4A5;" d="M23.784,60.535c-1.636,0.266-3.277,0.497-4.914,0.766c-0.546,0.091-0.766-0.038-0.846-0.642
			c-0.22-1.679-0.533-3.344-0.802-5.016c-0.056-0.351-0.195-0.702,0.413-0.788c3.162-0.457,6.319-0.955,9.676-1.47
			c-0.986,2.354-1.912,4.541-2.815,6.737C24.35,60.478,24.054,60.493,23.784,60.535z"/>
		<path style="fill:#40D4A5;" d="M29.321,71.113c-1.092,1.294-2.205,2.573-3.308,3.857c-1.055,1.226-2.107,2.454-3.162,3.679
			c-0.075-0.018-0.153-0.036-0.231-0.053c0.32-3.47,0.637-6.941,0.968-10.547c1.972,0.788,3.83,1.548,5.704,2.276
			C29.985,70.594,29.523,70.876,29.321,71.113z"/>
		<path style="fill:#40D4A5;" d="M39.078,48.483c-2.678,6.368-5.373,12.73-8.02,19.111c-0.318,0.764-0.613,0.895-1.361,0.562
			c-1.474-0.659-2.991-1.228-4.501-1.805c-0.508-0.193-0.757-0.357-0.488-0.995c2.753-6.495,5.475-13.005,8.2-19.513
			c0.184-0.44,0.322-0.744,0.928-0.484c1.654,0.713,3.339,1.35,5.007,2.029c0.211,0.084,0.522,0.12,0.5,0.437
			C39.242,48.074,39.164,48.281,39.078,48.483z"/>
		<path style="fill:#40D4A5;" d="M34.253,42.641c0.38-0.87,0.702-1.772,1.13-2.62c0.393-0.782,1.095-1.159,2.227-1.143
			c1.026,0.235,2.245,0.639,3.306,1.372c0.606,0.417,0.921,1.146,0.722,1.847c-0.311,1.086-0.804,2.118-1.208,3.177
			c-0.14,0.366-0.349,0.26-0.608,0.155c-1.765-0.711-3.535-1.41-5.309-2.107C34.159,43.185,34.108,42.972,34.253,42.641z"/>
		<path style="fill:#40D4A5;" d="M49.873,50.268c1.561,1.807,3.14,3.599,4.829,5.531c-5.855,0.897-11.555,1.77-17.406,2.664
			c0.986-2.325,1.927-4.503,2.831-6.699c0.164-0.4,0.442-0.411,0.775-0.462c2.693-0.411,5.382-0.835,8.073-1.255
			C49.307,49.997,49.604,49.957,49.873,50.268z"/>
		<path style="fill:#40D4A5;" d="M58.801,47.955c-0.921,1.914-1.772,3.859-2.691,5.882c-3.641-4.121-7.201-8.149-10.758-12.179
			c-1.366-1.548-2.736-3.089-4.086-4.65c-1.057-1.221-0.953-2.385,0.273-3.448c2.906-2.52,3.404-2.462,5.957,0.453
			c3.666,4.188,7.354,8.353,11.062,12.501C58.992,47,59.088,47.355,58.801,47.955z"/>
		<path style="fill:#40D4A5;" d="M77.892,63.52c0.286,2.231,0,4.381-0.939,6.686c-1.146-2.167-2.882-3.288-4.916-3.983
			c-0.662-0.226-0.848-0.429-0.619-1.141c0.706-2.203,1.359-4.425,1.956-6.661c0.195-0.737,0.435-0.666,0.948-0.335
			C76.316,59.374,77.584,61.128,77.892,63.52z"/>
		<path style="fill:#40D4A5;" d="M76.496,52.382c-0.393,0.06-0.793,0.084-1.377,0.147c0.673-2.309,1.306-4.485,1.938-6.659
			c0.071-0.007,0.14-0.013,0.211-0.022c0.258,1.483,0.526,2.966,0.768,4.452C78.33,52.091,78.321,52.098,76.496,52.382z"/>
		<path style="fill:#40D4A5;" d="M58.801,47.955c-0.921,1.914-1.772,3.859-2.691,5.882c-3.641-4.121-7.201-8.149-10.758-12.179
			c-1.366-1.548-2.736-3.089-4.086-4.65c-1.057-1.221-0.953-2.385,0.273-3.448c2.906-2.52,3.404-2.462,5.957,0.453
			c3.666,4.188,7.354,8.353,11.062,12.501C58.992,47,59.088,47.355,58.801,47.955z"/>
		<path style="fill:#40D4A5;" d="M39.342,47.826c-0.1,0.249-0.178,0.455-0.264,0.657c-2.678,6.368-5.373,12.73-8.02,19.111
			c-0.318,0.764-0.613,0.895-1.361,0.562c-1.474-0.659-2.991-1.228-4.501-1.805c-0.508-0.193-0.757-0.357-0.488-0.995
			c2.753-6.495,5.475-13.005,8.2-19.513c0.184-0.44,0.322-0.744,0.928-0.484c1.654,0.713,3.339,1.35,5.007,2.029
			C39.053,47.473,39.364,47.508,39.342,47.826z"/>
		<path style="fill:#40D4A5;" d="M54.702,55.799c-5.855,0.897-11.555,1.77-17.406,2.664c0.986-2.325,1.927-4.503,2.831-6.699
			c0.164-0.4,0.442-0.411,0.775-0.462c2.693-0.411,5.382-0.835,8.073-1.255c0.331-0.051,0.628-0.091,0.897,0.22
			C51.434,52.076,53.013,53.867,54.702,55.799z"/>
		<path style="fill:#40D4A5;" d="M27.312,53.386c-0.986,2.354-1.912,4.541-2.815,6.737c-0.147,0.355-0.442,0.371-0.713,0.413
			c-1.636,0.266-3.277,0.497-4.914,0.766c-0.546,0.091-0.766-0.038-0.846-0.642c-0.22-1.679-0.533-3.344-0.802-5.016
			c-0.056-0.351-0.195-0.702,0.413-0.788C20.797,54.398,23.954,53.901,27.312,53.386z"/>
		<path style="fill:#40D4A5;" d="M29.321,71.113c-1.092,1.294-2.205,2.573-3.308,3.857c-1.055,1.226-2.107,2.454-3.162,3.679
			c-0.075-0.018-0.153-0.036-0.231-0.053c0.32-3.47,0.637-6.941,0.968-10.547c1.972,0.788,3.83,1.548,5.704,2.276
			C29.985,70.594,29.523,70.876,29.321,71.113z"/>
		<path style="fill:#40D4A5;" d="M41.638,42.097c-0.311,1.086-0.804,2.118-1.208,3.177c-0.14,0.366-0.349,0.26-0.608,0.155
			c-1.765-0.711-3.535-1.41-5.309-2.107c-0.353-0.138-0.404-0.351-0.26-0.682c0.38-0.87,0.702-1.772,1.13-2.62
			c0.393-0.782,1.095-1.159,2.227-1.143c1.026,0.235,2.245,0.639,3.306,1.372C41.522,40.667,41.838,41.396,41.638,42.097z"/>
		<path style="fill:#40D4A5;" d="M76.953,70.205c-1.146-2.167-2.882-3.288-4.916-3.983c-0.662-0.226-0.848-0.429-0.619-1.141
			c0.706-2.203,1.359-4.425,1.956-6.661c0.195-0.737,0.435-0.666,0.948-0.335c1.994,1.29,3.262,3.044,3.57,5.436
			C78.179,65.751,77.892,67.9,76.953,70.205z"/>
		<path style="fill:#40D4A5;" d="M76.496,52.382c-0.393,0.06-0.793,0.084-1.377,0.147c0.673-2.309,1.306-4.485,1.938-6.659
			c0.071-0.007,0.14-0.013,0.211-0.022c0.258,1.483,0.526,2.966,0.768,4.452C78.33,52.091,78.321,52.098,76.496,52.382z"/>
	</g>
</g>
<g id="Layer_1">
</g>
</svg>
