<?xml version="1.0" encoding="iso-8859-1"?>
<!-- Generator: Adobe Illustrator 24.0.1, SVG Export Plug-In . SVG Version: 6.00 Build 0)  -->
<svg version="1.1" xmlns="http://www.w3.org/2000/svg" xmlns:xlink="http://www.w3.org/1999/xlink" x="0px" y="0px"
	 viewBox="0 0 100 100" style="enable-background:new 0 0 100 100;" xml:space="preserve">
<g id="Layer_12">
	<g id="XMLID_1_">
		
			<linearGradient id="XMLID_4_" gradientUnits="userSpaceOnUse" x1="-198.6502" y1="-202.4891" x2="-196.2796" y2="-202.4891" gradientTransform="matrix(0 35.7617 -35.7617 0 -7191.4302 7111.4336)">
			<stop  offset="0" style="stop-color:#F88A36"/>
			<stop  offset="1" style="stop-color:#FD2020"/>
		</linearGradient>
		<path id="XMLID_3_" style="fill:url(#XMLID_4_);" d="M89.836,65.758c5.277-20.906-7.436-45.416-29.028-58.392
			c9.596,12.976,13.434,28.354,10.075,42.052c-0.239,1.202-0.718,2.404-1.2,3.606c-4.134-2.861-23.27-14.657-46.3-37.967
			C22.664,14.335,35.858,33.8,50.491,49.178c-6.955-4.084-26.387-18.024-38.621-29.317c1.439,2.403,3.358,4.806,5.277,7.45
			c10.314,13.217,23.509,29.075,39.582,41.331c-11.274,6.97-27.108,7.448-43.18,0c-4.078-1.683-7.436-4.085-11.035-6.728
			C9.23,72.487,19.546,81.858,32.02,87.144c14.873,6.488,30.106,6.559,42.462-0.96c5.277-2.643,15.833-5.528,21.591,5.526
			c1.2,3.124,4.077-11.293-6.718-24.509C89.594,66.719,89.594,66.238,89.836,65.758L89.836,65.758z"/>
	</g>
</g>
<g id="Layer_1">
</g>
</svg>
