<?xml version="1.0" encoding="iso-8859-1"?>
<!-- Generator: Adobe Illustrator 24.0.1, SVG Export Plug-In . SVG Version: 6.00 Build 0)  -->
<svg version="1.1" xmlns="http://www.w3.org/2000/svg" xmlns:xlink="http://www.w3.org/1999/xlink" x="0px" y="0px"
	 viewBox="0 0 100 100" style="enable-background:new 0 0 100 100;" xml:space="preserve">
<g id="Layer_13">
	<g transform="matrix(1.3333 0 0 -1.3333 0 100.08)">
		<g transform="matrix(.29378 0 0 .29378 0 .042373)">
			<g transform="translate(740.38 200.84)">
				<path style="fill:#E79224;" d="M-489.47-41.095v-59.208l-8.175-7.977v57.9L-489.47-41.095"/>
			</g>
			
				<linearGradient id="SVGID_1_" gradientUnits="userSpaceOnUse" x1="2.8437" y1="4.0798" x2="3.1809" y2="4.0798" gradientTransform="matrix(-2.741878e-06 -64.3558 -64.3558 2.741878e-06 478.355 332.667)">
				<stop  offset="0" style="stop-color:#FFE500"/>
				<stop  offset="1" style="stop-color:#FCB822"/>
			</linearGradient>
			<path style="fill:url(#SVGID_1_);" d="M242.865,150.46h-54.137v-57.97h54.137V150.46z"/>
			<g transform="translate(581.1 200.72)">
				<path style="fill:#FEF26F;" d="M-383.892-41.015l-8.48-9.246h54.137l8.043,9.285l-53.702-0.039"/>
			</g>
			<g transform="translate(382.23 193.19)">
				<path style="fill:#91C9ED;" d="M-252.072-36.024l53.252,7.403l-4.455-12.769l-50.449-8.001l0.215,9.127L-252.072-36.024"/>
			</g>
			
				<linearGradient id="SVGID_2_" gradientUnits="userSpaceOnUse" x1="0.1692" y1="-0.4647" x2="0.5063" y2="-0.4647" gradientTransform="matrix(63.0945 -50.6699 -50.6699 -63.0945 95.2037 123.0534)">
				<stop  offset="0" style="stop-color:#168CCC"/>
				<stop  offset="1" style="stop-color:#00649E"/>
			</linearGradient>
			<path style="fill:url(#SVGID_2_);" d="M178.954,151.802l7.377-51.935l-52.508-7.378l-7.09,50.209l3.066,2.396l49.157,6.707"/>
			<g transform="translate(540.18 215.15)">
				<path style="fill:#0B9AD6;" d="M-356.769-50.58l0.041-0.314l6.906-53.179l-4.026-11.21l-7.377,51.935"/>
			</g>
			<g>
				<defs>
					<polyline id="SVGID_3_" points="85.181,161.596 132.325,140.324 111.053,92.033 63.909,113.304 85.181,161.598 					"/>
				</defs>
				<clipPath id="SVGID_4_">
					<use xlink:href="#SVGID_3_"  style="overflow:visible;"/>
				</clipPath>
				<g style="clip-path:url(#SVGID_4_);">
					
						<linearGradient id="SVGID_5_" gradientUnits="userSpaceOnUse" x1="2.6274" y1="0.4095" x2="2.9645" y2="0.4095" gradientTransform="matrix(-2.350181e-06 -56.3808 -56.3808 2.350181e-06 149.1865 290.407)">
						<stop  offset="0" style="stop-color:#25A149"/>
						<stop  offset="1" style="stop-color:#008A52"/>
					</linearGradient>
					<path style="fill:url(#SVGID_5_);" d="M1.287,178.127H250.91V92.051H1.287V178.127z"/>
				</g>
			</g>
			<g transform="translate(234.31 255.36)">
				<path style="fill:#98D0A0;" d="M-154.024-77.233l4.894-16.53l47.144-21.272l-3.963,15.795L-154.024-77.233"/>
			</g>
			<g transform="translate(234.31 255.36)">
				<path style="fill:#68BF6B;" d="M-154.024-77.233l-18.975-45.033l2.596-19.79l21.272,48.293L-154.024-77.233"/>
			</g>
			
				<linearGradient id="SVGID_6_" gradientUnits="userSpaceOnUse" x1="2.6314" y1="-1.5707" x2="2.9686" y2="-1.5707" gradientTransform="matrix(9.6961 -58.5352 -58.5352 -9.6961 -89.7423 285.8249)">
				<stop  offset="0" style="stop-color:#D92231"/>
				<stop  offset="1" style="stop-color:#BA2234"/>
			</linearGradient>
			<path style="fill:url(#SVGID_6_);" d="M53.984,151.876l7.77-51.106L9.654,92.601l-8.368,51.204l52.697,8.069"/>
			<g transform="translate(0 153.57)">
				<path style="fill:#EF463D;" d="M1.287-9.762L4.946,8.484l52.605,8.432l-3.565-18.61L1.287-9.762"/>
			</g>
			<g transform="translate(166.88 232.7)">
				<path style="fill:#761116;" d="M-109.329-62.213l7.713-51.599l-3.508-18.116l-7.77,51.105L-109.329-62.213"/>
			</g>
			<g transform="translate(500.47 147.76)">
				<path style="fill:#FFFFFF;" d="M-330.447-5.911c-0.237,1.613-0.788,2.844-1.681,3.65c-0.71,0.644-1.602,0.969-2.62,0.968
					c-0.26,0-0.527-0.021-0.804-0.061c-1.363-0.196-2.407-0.827-3.047-1.87c-0.465-0.753-0.691-1.662-0.691-2.707
					c0-0.4,0.033-0.822,0.099-1.264l1.915-13.514l-15.098-2.222l-1.915,13.516c-0.232,1.571-0.775,2.789-1.655,3.617
					c-0.711,0.671-1.598,1.014-2.598,1.012c-0.236,0-0.478-0.019-0.726-0.055c-1.421-0.205-2.503-0.824-3.16-1.851
					c-0.477-0.74-0.707-1.653-0.707-2.714c0-0.408,0.035-0.839,0.1-1.293l5.166-35.145c0.237-1.616,0.802-2.844,1.731-3.638
					c0.725-0.62,1.633-0.932,2.673-0.93c0.284,0,0.58,0.022,0.885,0.067c1.3,0.188,2.304,0.817,2.909,1.858
					c0.434,0.74,0.645,1.629,0.645,2.647c0,0.407-0.033,0.834-0.099,1.281l-2.111,13.885l15.097,2.219l2.112-13.885
					c0.232-1.595,0.792-2.816,1.708-3.62c0.728-0.64,1.627-0.962,2.647-0.96c0.262,0,0.53,0.02,0.807,0.061
					c1.358,0.198,2.398,0.82,3.019,1.854c0.447,0.738,0.663,1.632,0.663,2.663c0,0.408-0.033,0.837-0.099,1.288L-330.447-5.911z
					 M-391.85-25.35c-1.776-4.184-4.121-7.055-7.023-8.645c-1.555-0.852-3.148-1.273-4.797-1.274c-1.432,0-2.909,0.32-4.433,0.965
					c-3.299,1.407-5.355,3.667-6.244,6.856c-0.297,1.07-0.447,2.194-0.447,3.376c0,2.34,0.587,4.908,1.772,7.701
					c1.817,4.283,4.188,7.205,7.092,8.805c1.551,0.855,3.145,1.279,4.799,1.279c1.448,0,2.944-0.324,4.494-0.982
					c3.278-1.395,5.313-3.66,6.187-6.863c0.284-1.047,0.427-2.149,0.427-3.31C-390.023-19.832-390.627-22.469-391.85-25.35z
					 M-386.685-4.314c-1.852,1.953-4.102,3.49-6.741,4.609c-2.619,1.113-5.267,1.668-7.936,1.668l-0.123-0.001
					c-2.71-0.018-5.388-0.621-8.027-1.805v0.001c-2.763-1.203-5.171-2.885-7.214-5.047c-2.043-2.16-3.707-4.758-4.992-7.784
					c-1.267-2.991-1.97-5.983-2.101-8.976c-0.015-0.339-0.022-0.677-0.022-1.015c0-2.641,0.453-5.229,1.358-7.757
					c0.96-2.669,2.376-4.979,4.243-6.927c1.866-1.947,4.162-3.497,6.878-4.647v0.001c2.598-1.104,5.236-1.656,7.909-1.655h0.068
					c2.695,0.012,5.368,0.59,8.011,1.725l0.002,0.001l0.002,0.001c2.78,1.24,5.204,2.946,7.272,5.104
					c2.066,2.16,3.737,4.751,5.014,7.76c1.277,3.009,1.972,6.004,2.087,8.984c0.011,0.287,0.016,0.574,0.016,0.86
					c0,2.679-0.473,5.305-1.421,7.873C-383.404-8.611-384.834-6.267-386.685-4.314z M-452.083-38.852
					c-0.411,0.491-0.964,0.853-1.637,1.089c-0.693,0.242-1.53,0.358-2.516,0.358c-0.929,0-1.991-0.104-3.189-0.309l-13.752-2.35
					c0.145,1.06,0.672,2.452,1.599,4.15c1.036,1.902,2.564,4.185,4.582,6.844l0.001,0.001c0.693,0.925,1.222,1.633,1.588,2.121
					c0.263,0.325,0.628,0.804,1.103,1.436c3.146,4.127,5.093,7.487,5.839,10.124c0.427,1.495,0.687,3.002,0.781,4.52
					c0.026,0.415,0.037,0.828,0.037,1.237c0,1.087-0.089,2.158-0.269,3.212c-0.164,0.96-0.4,1.759-0.717,2.4
					c-0.317,0.64-0.719,1.126-1.216,1.433c-0.56,0.341-1.348,0.486-2.379,0.487c-0.851,0-1.872-0.103-3.066-0.307l-15.892-2.719
					c-1.924-0.33-3.346-0.896-4.252-1.75c-0.721-0.676-1.093-1.552-1.089-2.557c0-0.262,0.024-0.534,0.072-0.815
					c0.224-1.35,0.927-2.341,2.062-2.844c0.67-0.302,1.479-0.446,2.423-0.446c0.643,0,1.35,0.067,2.122,0.199l13.301,2.243
					c0.023-0.235,0.038-0.47,0.038-0.702c0-0.831-0.144-1.643-0.432-2.442c-0.395-1.101-1.381-2.675-2.953-4.675
					c-0.445-0.546-1.128-1.397-2.047-2.55c-3.587-4.345-6.156-8.05-7.711-11.132c0-0.001,0-0.001-0.001-0.003c0,0,0-0.001,0-0.001
					c-1.104-2.121-1.87-4.21-2.29-6.267c-0.245-1.2-0.368-2.351-0.368-3.457c0-0.791,0.063-1.557,0.19-2.299
					c0.182-1.064,0.445-1.941,0.798-2.637c0.354-0.692,0.805-1.21,1.362-1.516c0.519-0.281,1.281-0.393,2.329-0.396
					c1.331,0,3.124,0.196,5.392,0.583l14.419,2.466c2.554,0.439,4.329,1.048,5.361,1.896c0.825,0.677,1.252,1.607,1.247,2.703
					c0,0.277-0.026,0.563-0.077,0.861C-451.409-39.952-451.673-39.342-452.083-38.852L-452.083-38.852z M-464.304-25.511
					l0.001,0.001c-0.001-0.001-0.001-0.001-0.001-0.002h-0.001L-464.304-25.511z M-276.995-37.258
					c-2.074-2.507-4.867-3.751-8.473-3.755c-3.63,0.004-6.435,1.244-8.521,3.738c-2.08,2.496-3.132,5.928-3.134,10.332
					c0.001,4.489,1.05,7.971,3.118,10.487c2.074,2.514,4.886,3.763,8.536,3.768c3.606-0.005,6.398-1.252,8.473-3.768
					c2.07-2.516,3.12-5.998,3.12-10.487C-273.875-31.327-274.923-34.755-276.995-37.258z M-265.868-18.155
					c-1.071,2.692-2.657,5.105-4.755,7.235c-2.007,2.047-4.264,3.592-6.755,4.628c-2.494,1.037-5.19,1.555-8.086,1.555
					c-2.916,0.001-5.638-0.517-8.151-1.554c-2.512-1.037-4.767-2.583-6.756-4.63c-2.094-2.108-3.674-4.513-4.723-7.204
					c-1.048-2.694-1.574-5.631-1.574-8.809c0-3.137,0.527-6.064,1.59-8.775c1.059-2.711,2.63-5.146,4.706-7.295
					c1.946-2.01,4.177-3.531,6.678-4.557c2.503-1.025,5.249-1.538,8.228-1.538c2.873,0,5.566,0.513,8.067,1.538
					c2.503,1.025,4.764,2.545,6.772,4.554c2.098,2.151,3.684,4.578,4.756,7.281c1.072,2.7,1.608,5.634,1.608,8.792
					S-264.796-20.848-265.868-18.155"/>
			</g>
		</g>
	</g>
</g>
<g id="Layer_1">
</g>
</svg>
