<?xml version="1.0" encoding="iso-8859-1"?>
<!-- Generator: Adobe Illustrator 24.0.1, SVG Export Plug-In . SVG Version: 6.00 Build 0)  -->
<svg version="1.1" id="Layer_1" xmlns="http://www.w3.org/2000/svg" xmlns:xlink="http://www.w3.org/1999/xlink" x="0px" y="0px"
	 viewBox="0 0 100 100" style="enable-background:new 0 0 100 100;" xml:space="preserve">
<g>
	<linearGradient id="SVGID_1_" gradientUnits="userSpaceOnUse" x1="50" y1="84.8138" x2="50" y2="16.83">
		<stop  offset="0" style="stop-color:#FBE718"/>
		<stop  offset="1" style="stop-color:#91CA28"/>
	</linearGradient>
	<path style="fill:url(#SVGID_1_);" d="M96.551,19.173C67.878,9.101,52.265,34.323,48.475,41.532
		c-1.43-0.287-3.135-0.424-5.249-0.377c-0.749,0-2.413,0.281-4.305,1.029c-4.199-3.357-15.747-11.747-18.402-13.516
		c-3.097-2.065-13.417-7.705-16.584-1.652C0.813,32.99,9.615,41.78,9.849,42.011C1.941,30.042,4.693,26.536,8.89,25.916
		c7.869,0.646,22.803,13.168,27.895,17.297c-1.915,1.085-3.799,2.684-5.015,4.96c-0.927,2.269-1.857,5.056,2.684,8.67
		c3.819,2.477,6.501,4.299,6.501,4.299l1.24,7.293c0,0-20.368-13.899-21.467-13.899c-1.102,0-2.202,1.927-2.202,3.717
		c0,1.79,1.79,8.533,7.98,14.999v0.003c0,0,4.816,5.641,21.052,11.557c-0.126-0.126-4.141-4.196-5.088-8.53
		c-3.854-2.752-10.735-8.808-10.735-8.808l-1.921,2.126c-2.667-3.439-9.293-12.18-9.293-12.18c1.88,5.278,6.349,11.22,8.127,13.466
		l-1.029,1.138c0,0-10.744-11.019-7.164-16.522c3.164,2.752,24.219,17.75,24.219,17.75s1.24,0.965,1.377,0
		c0.137-0.962-1.102-9.907-1.102-9.907s1.24,0.62,2.614-0.205c0.284-0.213,0.833-0.667,1.532-1.26l3.284,10.653
		c0,0,1.79,0.205,3.337-2.065c1.547-2.269,13.829-25.508,14.759-26.482c1.135,0.678,4.749,7.284,0.31,18.019
		c-3.819,6.708-3.819,6.708-3.819,6.708l-0.93-1.679c2.787-3.673,4.784-15.385,4.576-17.861c-0.652,5.153-4.565,13.674-5.641,15.943
		l-1.722-3.111l-5.849,12.18c0,0,1.722,2.992-1.684,10.63c4.749-4.851,15.893-13.832,18.68-29.725
		c0.518-5.366,0-14.037-4.436-12.902c-2.065,0.722-15.779,23.637-15.779,23.637l-1.784-6.831c2.249-2.003,4.445-4.044,4.661-4.457
		c0.412-0.79,3.149-4.866-0.722-8.48c-1.892-1.679-3.468-3.144-6.015-4.027C70.7,9.286,96.551,20.067,96.551,20.067
		S96.963,19.86,96.551,19.173z M37.24,56.121c-3.819-0.518-5.767-2.857-5.264-6.264c0.447-3.027,4.129-4.986,6.811-4.161
		c2.684,0.825,4.541,9.083,4.541,9.083S41.06,56.635,37.24,56.121z M57.365,49.954c0.31,2.451-1.547,5.831-6.039,6.258
		c-4.489,0.424-6.036-1.743-6.036-1.743c0-0.518,1.857-7.431,5.158-9.03C53.754,43.839,57.055,47.503,57.365,49.954z M50.555,42.426
		c1.307,0.412,1.719,1.412,1.822,2.1c-3.576,0.483-5.916,4.609-6.743,6.673c-1.401,1.708-2.717-0.339-2.717-0.339
		s-1.825-4.889-3.749-5.813c-1.927-0.924-3.304,0.237-3.304,0.237s0.07-0.93,0.965-1.617c0.105-0.058,0.208-0.114,0.313-0.167
		c0.678,0.547,1.132,0.901,1.31,0.994c1.418,0.754,2.366-0.208,1.883-1.102c-0.17-0.178-0.515-0.477-1-0.874
		c3.74-1.386,6.931-1.14,8.998-0.708c-0.518,0.997-0.772,1.582-0.772,1.582c0.962,1.102,1.1,0.412,1.927,0
		c0.219-0.371,0.442-0.734,0.664-1.094C50.312,42.347,50.449,42.394,50.555,42.426z"/>
	<linearGradient id="SVGID_2_" gradientUnits="userSpaceOnUse" x1="52.2363" y1="54.1072" x2="52.2363" y2="48.5869">
		<stop  offset="0" style="stop-color:#FBE718"/>
		<stop  offset="1" style="stop-color:#91CA28"/>
	</linearGradient>
	<path style="fill:url(#SVGID_2_);" d="M50.295,53.644c0,0,0.413-4.283,2.219-4.954c1.806-0.671,2.013,2.099,1.239,3.397
		C52.978,53.386,51.327,54.883,50.295,53.644z"/>
	<linearGradient id="SVGID_3_" gradientUnits="userSpaceOnUse" x1="36.5795" y1="54.4815" x2="36.5795" y2="48.7714">
		<stop  offset="0" style="stop-color:#FBE718"/>
		<stop  offset="1" style="stop-color:#91CA28"/>
	</linearGradient>
	<path style="fill:url(#SVGID_3_);" d="M38.219,54.107c0,0,0.258-3.766-0.929-4.798c-1.187-1.032-2.374-0.413-2.374,0.464
		S35.897,55.912,38.219,54.107z"/>
</g>
</svg>
