<?xml version="1.0" encoding="utf-8"?>
<!-- Generator: Adobe Illustrator 23.0.3, SVG Export Plug-In . SVG Version: 6.00 Build 0)  -->
<svg version="1.1" id="Layer_1" xmlns="http://www.w3.org/2000/svg" xmlns:xlink="http://www.w3.org/1999/xlink" x="0px" y="0px"
	 viewBox="0 0 100 100" style="enable-background:new 0 0 100 100;" xml:space="preserve">
<style type="text/css">
	.st0{fill:#198FCC;}
	.st1{fill:#FFFFFF;}
</style>
<title>1</title>
<circle class="st0" cx="50" cy="50" r="48"/>
<g id="_x33_nuUgg.tif">
	<g>
		<path class="st1" d="M46.2,73.1c0,1.1,0,2.1,0,3.3c-0.3,0-0.6,0-0.9,0c-6.2,0-12.5,0-18.7,0c-1.5,0-2.1-0.7-2.1-2.2
			c0-4.8,0-9.5,0-14.3c0-0.7,0.1-1.5,0.3-2.2c0.3-1.2,1-2.1,2.1-2.6c5.4-2.4,10.8-2.6,16.2-0.1c1.5,0.7,2.5,1.8,3.2,3.3
			c1.6,3.8,3.4,7.5,5,11.2c0.2,0.5,0.5,0.6,1,0.6c2.9,0.2,5.8,0.4,8.7,0.7c1.1,0.1,2.1,0.9,2.3,1.9c0.3,1.1,0.1,2.1-0.9,2.8
			c-0.5,0.4-1.2,0.7-1.9,0.7c-3.5,0.1-7,0-10.5,0c-1.1,0-2.1-0.6-2.6-1.5c-0.4-0.6-0.7-1.2-1.1-1.8C46.3,73.1,46.2,73.1,46.2,73.1z"
			/>
		<path class="st1" d="M41.3,37.1c0.4,1.1,0.4,2.3,0.2,3.5c-0.5,3.2-1.3,6.1-3.3,8.7c0,0,0,0,0,0c-2,2.5-5.8,2.4-7.9,0
			c-1-1.2-1.7-2.6-2.2-4.1c-0.4-1.2-0.7-2.5-1-3.8c-0.9-4.4,2.2-8.8,6.7-9.1c3.1-0.2,6.1,1.5,7.3,4.3C41.2,36.8,41.3,37,41.3,37.1z"
			/>
		<path class="st1" d="M53.9,41.8c0,0-0.1-0.1-0.1,0c-2.9,1-5.5,0.7-7.8-1.3c-2.4-2-3.3-4.7-2.5-7.7c0.8-3.1,2.9-5,6.1-5.6
			c0.7-0.1,1.2-0.4,1.6-1c1.4-2.1,4-3,6.5-2.3c0.4,0.1,0.8,0,1.1-0.3c1.7-1.7,3.8-2.5,6.3-1.5c2,0.7,3.3,2.5,3.8,4.5
			c0.1,0.4,0.3,0.6,0.7,0.7c3.8,0.9,6.3,4.3,6,8c-0.4,4-3.5,6.9-7.4,7c-1,0-2.1-0.3-3.2-0.4c-1.1,2.2-2.8,3.6-5.5,3.6
			C56.8,45.5,55,44.1,53.9,41.8z M44.9,34.4c-0.2,4.6,4.5,7.7,8.6,5.7c0.8-0.4,1.6,0.1,1.9,0.9c0.6,1.8,2.2,2.9,4,2.9
			c2,0,3.6-1.2,4.2-3.1c0.3-1.2,0.6-1.3,1.6-0.8c0.6,0.3,1.3,0.5,1.9,0.5c5.2,0.5,7.8-4,6.6-7.8c-0.7-2.3-2.7-3.9-5.2-4.1
			c-0.8-0.1-1.2-0.4-1.2-1.2c-0.1-1.9-1.3-3.5-3.1-4c-1.8-0.5-3.7,0.1-4.8,1.7c-0.4,0.6-1.1,0.8-1.7,0.5c-2.2-1-4.7-0.1-5.6,2
			c-0.3,0.7-0.8,1-1.5,1.1C47.6,29,45,31.3,44.9,34.4z"/>
		<path class="st1" d="M73.9,67V50c0,0,0-0.1-0.1-0.1H49.7c0,0-0.1,0-0.1,0.1v11c-0.1,0-0.2,0-0.2,0c-0.5-1.5-1.4-2.7-1.4-4.5
			c0-1,0-4.7,0-7.1c0-0.7,0.6-1.3,1.3-1.3c8.3,0,16.7,0,25,0c1.1,0,1.3,0.2,1.3,1.3c0,5.9,0,11.9,0,17.8c0,1.1-0.3,1.3-1.4,1.3
			c-6.5,0-13,0-19.6,0c-0.2,0-0.4,0-0.7,0c-1.1,0.1-1.6-0.4-1.8-1.5c0-0.1,0-0.1,0.1-0.1L73.9,67C73.9,67,73.9,67,73.9,67z"/>
		<path class="st1" d="M72,61.8H55.8c0,0-0.1,0-0.1-0.1v-4.8c0,0,0-0.1,0.1-0.1H72c0,0,0.1,0,0.1,0.1L72,61.8
			C72.1,61.7,72.1,61.8,72,61.8z"/>
		<path class="st1" d="M72.2,51.7v3.1c0,0,0,0.1-0.1,0.1H51.5c0,0-0.1,0-0.1-0.1v-3.1c0,0,0-0.1,0.1-0.1L72.2,51.7
			C72.1,51.7,72.2,51.7,72.2,51.7z"/>
		<path class="st1" d="M66.4,73.2C66.4,73.2,66.5,73.2,66.4,73.2c1.3,0.1,2.4,0.1,3.5,0.1c0.6,0,1.2,0.1,1.2,0.8
			c0,0.7-0.5,0.8-1.1,0.8c-1.5,0-3.1,0-4.7,0c-0.1,0-0.1,0-0.1-0.1c0.3-2.1-0.2-3.7-2-5c-0.1,0,0-0.1,0-0.1h3.2c0,0,0.1,0,0.1,0.1
			V73.2z"/>
		<path class="st1" d="M54.6,56.9v4.8c0,0,0,0.1-0.1,0.1h-3.1c0,0-0.1,0-0.1-0.1v-4.8c0,0,0-0.1,0.1-0.1L54.6,56.9
			C54.6,56.8,54.6,56.9,54.6,56.9z"/>
		<path class="st1" d="M67.9,33.4c1,0,1.8,0,2.5,0c0.3,0,0.6,0.3,0.8,0.5c0.2,0.2,0.3,0.5,0.4,0.7c0.1,0.2,0.2,0.4,0.2,0.6
			c-0.3,1-0.6,2.1-1,3.1c-0.1,0.2-0.4,0.3-0.7,0.3c-1.4,0-2.9,0-4.3,0c-0.6,0-1.1-0.5-1.1-1.1c0-1.2-0.1-2.3,0-3.5
			c0-0.4,0.4-0.8,0.7-1.2c0.5-0.5,1.1-1,1.6-1.5c0.2-0.2,0.2-0.7,0.4-1c0.1-0.2,0.4-0.7,0.4-0.6c0.3,0.1,0.8,0.3,0.9,0.5
			c0,0.7-0.1,1.4-0.2,2C68.3,32.7,68.1,33,67.9,33.4z"/>
		<path class="st1" d="M50.9,38.6c0,0-0.1,0-0.1,0c-1.6-1.2-3-2.5-3.6-4.3c-0.1-0.2-0.1-0.5-0.2-0.7c-0.1-0.8,0-1.6,0.7-2.1
			c1-0.8,2.2-0.4,3.1,0.5c0.9-0.9,2.1-1.3,3.1-0.6c0.7,0.6,0.8,1.4,0.7,2.2C54.2,35.9,52.7,37.3,50.9,38.6z"/>
		<path class="st1" d="M59.6,38.7c-1.4,0-1.6-0.2-1.7-1.6c-0.1-0.6-0.4-1.2-0.6-1.8c-0.2-0.4-0.5-0.8-0.7-1.3
			c-0.5-1.3,0-2.8,1.1-3.6c1.1-0.8,2.6-0.8,3.7-0.1c1.1,0.8,1.6,2.2,1.2,3.5c-0.1,0.4-0.4,0.9-0.6,1.2c-0.5,0.7-0.8,1.5-0.7,2.4
			C61.3,38.4,60.9,38.7,59.6,38.7z M59.5,36c0,0.1,0.1,0.1,0.1,0c0.5-0.8,0.9-1.6,1.3-2.4c0.3-0.7,0.2-1.4-0.4-1.9
			c-0.6-0.5-1.3-0.4-1.9,0c-0.6,0.4-0.8,1.2-0.4,2C58.7,34.5,59.1,35.2,59.5,36z"/>
	</g>
</g>
</svg>
