<?xml version="1.0" encoding="utf-8"?>
<!-- Generator: Adobe Illustrator 23.0.3, SVG Export Plug-In . SVG Version: 6.00 Build 0)  -->
<svg version="1.1" id="Layer_1" xmlns="http://www.w3.org/2000/svg" xmlns:xlink="http://www.w3.org/1999/xlink" x="0px" y="0px"
	 viewBox="0 0 100 100" style="enable-background:new 0 0 100 100;" xml:space="preserve">
<style type="text/css">
	.st0{fill:#198FCC;}
	.st1{fill:#FFFFFF;}
</style>
<title>2</title>
<circle class="st0" cx="50" cy="50" r="48"/>
<g>
	<g>
		<g>
			<path class="st1" d="M58.6,23.1h-2c-0.7-2-2.6-3.5-4.9-3.5c-2.3,0-4.2,1.4-4.9,3.5h-2c-2.9,0-5.2,2.3-5.2,5.2
				c0,1,0.8,1.7,1.7,1.7h20.8c1,0,1.7-0.8,1.7-1.7C63.8,25.5,61.5,23.1,58.6,23.1z"/>
		</g>
	</g>
	<g>
		<g>
			<path class="st1" d="M69,26.6h-1.9c0.1,0.6,0.2,1.1,0.2,1.7c0,2.9-2.3,5.2-5.2,5.2H41.3c-2.9,0-5.2-2.3-5.2-5.2
				c0-0.6,0.1-1.2,0.2-1.7h-1.9c-2.9,0-5.2,2.3-5.2,5.2v41.8c0,2.9,2.3,5.2,5.2,5.2H69c2.9,0,5.2-2.3,5.2-5.2V31.8
				C74.2,28.9,71.9,26.6,69,26.6z M46.5,68.1h-6.9c-1,0-1.7-0.8-1.7-1.7s0.8-1.7,1.7-1.7h6.9c1,0,1.7,0.8,1.7,1.7
				S47.5,68.1,46.5,68.1z M46.5,56h-6.9c-1,0-1.7-0.8-1.7-1.7s0.8-1.7,1.7-1.7h6.9c1,0,1.7,0.8,1.7,1.7C48.2,55.2,47.5,56,46.5,56z
				 M46.5,43.9h-6.9c-1,0-1.7-0.8-1.7-1.7s0.8-1.7,1.7-1.7h6.9c1,0,1.7,0.8,1.7,1.7S47.5,43.9,46.5,43.9z M63.3,68.6
				c0.7,0.7,0.7,1.8,0,2.4c-0.3,0.3-0.8,0.5-1.2,0.5c-0.4,0-0.9-0.2-1.2-0.5l-2.2-2.2l-2.2,2.2c-0.3,0.3-0.8,0.5-1.2,0.5
				c-0.4,0-0.9-0.2-1.2-0.5c-0.7-0.7-0.7-1.8,0-2.4l2.2-2.2l-2.2-2.2c-0.7-0.7-0.7-1.8,0-2.4c0.7-0.7,1.8-0.7,2.4,0l2.2,2.2l2.2-2.2
				c0.7-0.7,1.8-0.7,2.4,0c0.7,0.7,0.7,1.8,0,2.4l-2.2,2.2L63.3,68.6z M65,52l-5.2,5.2c-0.3,0.3-0.8,0.5-1.2,0.5
				c-0.4,0-0.9-0.2-1.2-0.5l-3.5-3.5c-0.7-0.7-0.7-1.8,0-2.4c0.7-0.7,1.8-0.7,2.4,0l2.2,2.2l4-4c0.7-0.7,1.8-0.7,2.4,0
				C65.7,50.3,65.7,51.4,65,52z M65,41.7l-5.2,5.2c-0.3,0.3-0.8,0.5-1.2,0.5c-0.4,0-0.9-0.2-1.2-0.5l-3.5-3.5
				c-0.7-0.7-0.7-1.8,0-2.4c0.7-0.7,1.8-0.7,2.4,0l2.2,2.2l4-4c0.7-0.7,1.8-0.7,2.4,0S65.7,41,65,41.7z"/>
		</g>
	</g>
</g>
</svg>
