<?xml version="1.0" encoding="utf-8"?>
<!-- Generator: Adobe Illustrator 23.0.3, SVG Export Plug-In . SVG Version: 6.00 Build 0)  -->
<svg version="1.1" id="Layer_1" xmlns="http://www.w3.org/2000/svg" xmlns:xlink="http://www.w3.org/1999/xlink" x="0px" y="0px"
	 viewBox="0 0 100 100" style="enable-background:new 0 0 100 100;" xml:space="preserve">
<style type="text/css">
	.st0{fill:#198FCC;}
	.st1{fill:#FFFFFF;}
</style>
<title>3</title>
<circle class="st0" cx="50" cy="50" r="48"/>
<g id="h2222p.tif">
	<g>
		<path class="st1" d="M27.7,75.8c0.5-1.1,1.1-2.1,1.5-3.2c1.8-4,3.6-7.9,5.4-11.9c2,1.5,4.1,2.9,6.4,3.6c2.3,0.7,4.7,1.3,7.1,1.9
			c-2.3,5.2-4.6,10.5-7,16c-1.1-3.7-2.2-7.3-3.3-10.9c-3.4,1.6-6.8,3.2-10.2,4.8C27.7,76,27.7,75.9,27.7,75.8z"/>
		<path class="st1" d="M42.2,21.7c0.4,0.1,1.2,0.3,2,0.5c2.5,0.7,4.8,0.3,7-1c1.4-0.9,2.8-1.2,4.4-0.9c1.6,0.3,2.8,1.1,3.5,2.6
			c0.8,1.7,1.9,3.1,3.7,3.9c0.9,0.4,1.9,0.7,2.9,1c1.9,0.5,3,1.8,3.5,3.6c0.3,1.1,0.1,2.2-0.2,3.2c-0.4,1.9-0.5,3.8,0.2,5.6
			c0.3,0.7,0.7,1.3,1.1,1.9c1.6,2.4,0.8,6-1.7,7.5c-1.1,0.7-2.3,1.2-3.2,2.3c-1,1.2-1.3,2.6-1.7,4.1c-0.5,2.1-2.9,4.1-5,4.2
			c-0.6,0-1.2-0.1-1.8-0.3c-2.7-1-5.2-0.7-7.4,1.2c-0.9,0.8-1.9,1.1-3.1,0.8c-0.8-0.2-1.5-0.4-2.3-0.6c-1.6-0.5-2.7-1.4-3.3-3
			c-0.7-1.8-2-3-3.7-3.7c-0.7-0.3-1.4-0.4-2.1-0.5c-1.1-0.2-1.9-0.7-2.6-1.6c-1.3-1.7-1.8-3.5-1-5.6c0.9-2.5,0.6-4.9-1-7
			c-1.4-1.9-1.1-3.8-0.1-5.7c0.3-0.6,0.9-1.1,1.5-1.4c3.1-1.5,4.9-4,5.7-7.3C37.8,23.4,39.9,21.7,42.2,21.7z M50.2,25.6
			c-8.5,0-15.3,6.8-15.3,15.3c0,8.5,6.8,15.3,15.3,15.3c8.4,0,15.3-6.8,15.3-15.3C65.5,32.5,58.6,25.6,50.2,25.6z"/>
		<path class="st1" d="M74.2,75.9c-3.3-1.6-6.6-3.1-10-4.7c-1.1,3.6-2.1,7.2-3.3,10.9c-2.4-5.6-4.8-11.1-7.2-16.6
			c5.1-0.6,9.7-2.4,13.7-5.7c2.3,5.4,4.6,10.7,6.9,16C74.2,75.9,74.2,75.9,74.2,75.9z"/>
		<path class="st1" d="M50.2,54.2c-7.2,0-13.2-5.9-13.3-13c-0.1-7.2,5.7-13.6,13.3-13.6c7.3,0,13.3,6,13.3,13.3
			C63.5,48.1,57.5,54.2,50.2,54.2z M48.3,42.8c-0.8-0.8-1.6-1.6-2.3-2.3c-0.7-0.7-1.8-0.7-2.4,0c0,0,0,0,0,0c-0.7,0.7-0.7,1.8,0,2.4
			c1.6,1.6,3.2,3.2,4.8,4.8c3.3-3.3,6.7-6.7,10.1-10.1c0.7-0.7,0.7-1.8,0-2.4l-0.1-0.1c-0.7-0.7-1.8-0.7-2.4,0L48.3,42.8z"/>
	</g>
</g>
</svg>
