<?xml version="1.0" encoding="utf-8"?>
<!-- Generator: Adobe Illustrator 21.0.0, SVG Export Plug-In . SVG Version: 6.00 Build 0)  -->
<svg version="1.1" id="Layer_1" xmlns="http://www.w3.org/2000/svg" xmlns:xlink="http://www.w3.org/1999/xlink" x="0px" y="0px"
	 viewBox="0 0 260 80" style="enable-background:new 0 0 260 80;" xml:space="preserve">
<style type="text/css">
	.st0{fill:#028FCC;}
	.st1{fill:#FFFFFF;}
</style>
<rect class="st0" width="260" height="80"/>
<g>
	<g>
		<path class="st1" d="M41.2,28.4c-0.7-1.3-1.3-2.4-1.8-3.5c-1-2.1-2.1-4-3.2-6c-0.1-0.2-0.2-0.3-0.5-0.3c-5,0-10.2,0-15.2,0
			c-0.5,0-0.5,0-0.2,0.3C27.2,32,34.2,45,41,58c0,0.1,0.1,0.2,0.2,0.3c0.7-1.3,1.4-2.5,2.1-3.9c7.4-13.8,14.8-27.7,22.1-41.5
			c0.1-0.2,0.2-0.3,0.5-0.3c2.4,0,4.9,0,7.3,0c0.3,0,0.3,0,0.2,0.3c-3.5,6.5-7.2,12.9-10.7,19.4c-6.5,11.6-12.9,23.3-19.4,34.9
			c-0.1,0.2-0.3,0.3-0.7,0.3c-1.1,0-2.3,0-3.5,0c-0.2,0-0.3-0.1-0.5-0.2C33.4,57.6,28.2,47.9,23,38.1c-4.6-8.4-9-16.8-13.6-25.2
			c-0.1-0.3-0.1-0.3,0.3-0.3c10,0,20.1,0,30.1,0c0.3,0,0.5,0.1,0.7,0.5c1.5,3.2,2.9,6.3,4.3,9.5c0.1,0.2,0.1,0.5,0,0.7
			c-1.1,1.6-2.2,3.2-3.3,4.9C41.3,28.2,41.3,28.3,41.2,28.4z"/>
		<path class="st1" d="M61.6,12.6c-6.7,12.5-13.5,25.2-20.2,37.8c-5-9.1-10-18.4-14.9-27.5c0.1-0.1,0.2,0,0.3,0c2.3,0,4.6,0,6.8,0
			c0.2,0,0.3,0.1,0.5,0.2c1.4,2.5,2.7,5,4.1,7.6c1,1.9,2.2,3.9,3.2,5.9c0,0,0.1,0.1,0.1,0.2c0.2-0.5,0.5-0.8,0.6-1.1
			c1.1-2.2,2.3-4.2,3.4-6.4c1.7-3.1,3.3-6.2,5-9.1c1.4-2.4,2.6-4.9,4-7.3c-0.1-0.2,0-0.3,0.2-0.3"/>
	</g>
	<g>
		<path class="st1" d="M94.6,13.6h4.7L92,35.1h-4.2l-7.3-21.4h4.8L90,30L94.6,13.6z"/>
		<path class="st1" d="M106.2,25.5c0.8-0.1,1.4-0.2,1.7-0.3c0.6-0.2,0.9-0.7,0.9-1.1c0-0.7-0.2-1.1-0.7-1.4
			c-0.5-0.2-1.1-0.3-2.1-0.3s-1.7,0.2-2.2,0.7c-0.3,0.3-0.5,0.8-0.6,1.5h-4c0.1-1.4,0.5-2.5,1.1-3.4c1.1-1.4,3-2.1,5.7-2.1
			c1.7,0,3.3,0.3,4.7,1s2.1,1.9,2.1,3.9v7.3c0,0.5,0,1.1,0,1.8c0,0.6,0.1,0.9,0.2,1.1c0.1,0.2,0.3,0.3,0.6,0.5v0.6H109
			c-0.1-0.3-0.2-0.6-0.2-0.9c0-0.2-0.1-0.6-0.1-0.9c-0.6,0.6-1.3,1.1-1.9,1.6c-0.9,0.5-1.8,0.7-3,0.7c-1.5,0-2.6-0.5-3.5-1.3
			s-1.4-1.9-1.4-3.5c0-1.9,0.8-3.3,2.3-4.2c0.8-0.5,2.1-0.8,3.6-1L106.2,25.5z M108.9,27.4c-0.2,0.1-0.6,0.3-0.8,0.5
			c-0.2,0.1-0.7,0.2-1.1,0.2l-0.9,0.2c-0.9,0.1-1.5,0.3-1.9,0.6c-0.7,0.3-1,0.9-1,1.7c0,0.7,0.2,1.3,0.6,1.5
			c0.3,0.3,0.9,0.5,1.5,0.5c0.9,0,1.7-0.2,2.5-0.8c0.8-0.6,1.1-1.5,1.1-2.9L108.9,27.4L108.9,27.4z"/>
		<path class="st1" d="M119.8,30c0.1,0.7,0.2,1.3,0.6,1.6c0.6,0.6,1.5,0.8,2.9,0.8c0.8,0,1.5-0.1,1.9-0.3c0.5-0.2,0.7-0.6,0.7-1.1
			s-0.2-0.8-0.6-1c-0.3-0.2-1.8-0.7-4.3-1.3c-1.8-0.5-3.1-1-3.8-1.7c-0.7-0.7-1.1-1.6-1.1-2.9c0-1.5,0.6-2.7,1.7-3.8
			c1.1-1,2.7-1.6,4.9-1.6c1.9,0,3.6,0.3,4.9,1.1c1.3,0.8,1.9,2.2,2.2,4.1h-4.1c-0.1-0.6-0.2-0.9-0.5-1.3c-0.5-0.6-1.3-0.8-2.3-0.8
			c-0.9,0-1.6,0.1-1.9,0.5c-0.3,0.2-0.6,0.6-0.6,1c0,0.5,0.2,0.8,0.6,1c0.5,0.2,1.8,0.6,4.3,1.1c1.6,0.3,2.9,1,3.8,1.7
			c0.8,0.8,1.3,1.8,1.3,3c0,1.6-0.6,2.9-1.7,3.9c-1.1,1-3,1.5-5.5,1.5s-4.3-0.6-5.6-1.6c-1.1-1-1.8-2.4-1.8-4
			C115.7,30,119.8,30,119.8,30z"/>
		<path class="st1" d="M137.3,19.2v9.6c0,0.9,0.1,1.6,0.3,2.1c0.3,0.8,1.1,1.3,2.2,1.3c1.4,0,2.4-0.6,2.9-1.7
			c0.2-0.6,0.5-1.5,0.5-2.5v-8.7h4.2v15.9h-4v-2.3c0,0-0.1,0.2-0.3,0.5c-0.1,0.2-0.3,0.5-0.6,0.7c-0.7,0.6-1.3,1-1.8,1.1
			c-0.6,0.2-1.4,0.3-2.2,0.3c-2.4,0-3.9-0.8-4.8-2.5c-0.5-0.9-0.7-2.3-0.7-4.1v-9.6L137.3,19.2L137.3,19.2z"/>
		<path class="st1" d="M164.2,20.1c1,0.9,1.6,2.3,1.6,4.2V35h-4.2v-9.7c0-0.8-0.1-1.5-0.3-1.9c-0.5-0.8-1.1-1.3-2.3-1.3
			c-1.4,0-2.4,0.6-2.9,1.8c-0.2,0.7-0.5,1.5-0.5,2.4v8.6h-4.1V19.3h4v2.3c0.6-0.8,1-1.4,1.5-1.7c0.8-0.7,1.9-0.9,3.2-0.9
			C161.8,18.9,163.1,19.3,164.2,20.1z"/>
		<path class="st1" d="M178,19.5c0.8,0.5,1.4,1,1.8,1.7v-7.5h4.2v21.4h-4V33c-0.6,0.9-1.3,1.6-2.1,2.1s-1.7,0.7-2.9,0.7
			c-1.8,0-3.4-0.8-4.7-2.3s-1.9-3.4-1.9-5.8c0-2.7,0.6-4.8,1.8-6.4c1.3-1.6,3-2.3,5-2.3C176.4,18.9,177.3,19.1,178,19.5z M179,30.8
			c0.6-0.9,0.9-2.1,0.9-3.4c0-1.9-0.5-3.3-1.5-4.2c-0.6-0.5-1.3-0.8-2.1-0.8c-1.3,0-2.1,0.5-2.6,1.4s-0.8,2.1-0.8,3.4
			c0,1.5,0.3,2.6,0.9,3.5c0.6,0.9,1.5,1.4,2.6,1.4C177.5,32.1,178.4,31.6,179,30.8z"/>
		<path class="st1" d="M199.2,19.3c0.8,0.3,1.5,0.9,1.9,1.6c0.5,0.6,0.7,1.3,0.8,1.8c0.1,0.6,0.1,1.6,0.1,3.1v9.4h-4.2v-9.7
			c0-0.8-0.1-1.6-0.5-2.1c-0.3-0.7-1.1-1.1-2.2-1.1c-1.1,0-1.9,0.3-2.5,1.1c-0.6,0.7-0.8,1.8-0.8,3.2v8.6h-4.1V13.7h4.1v7.5
			c0.6-0.9,1.3-1.6,2.1-1.9s1.6-0.6,2.5-0.6C197.6,18.9,198.4,19,199.2,19.3z"/>
		<path class="st1" d="M212.3,25.5c0.8-0.1,1.4-0.2,1.7-0.3c0.6-0.2,0.9-0.7,0.9-1.1c0-0.7-0.2-1.1-0.7-1.4
			c-0.5-0.2-1.1-0.3-2.1-0.3s-1.7,0.2-2.2,0.7c-0.3,0.3-0.5,0.8-0.6,1.5h-4c0.1-1.4,0.5-2.5,1.1-3.4c1.1-1.4,3-2.1,5.7-2.1
			c1.7,0,3.3,0.3,4.7,1s2.1,1.9,2.1,3.9v7.3c0,0.5,0,1.1,0,1.8c0,0.6,0.1,0.9,0.2,1.1c0.1,0.2,0.3,0.3,0.6,0.5v0.6h-4.6
			c-0.1-0.3-0.2-0.6-0.2-0.9c0-0.2-0.1-0.6-0.1-0.9c-0.6,0.6-1.3,1.1-1.9,1.6c-0.9,0.6-1.9,0.8-3.1,0.8c-1.5,0-2.6-0.5-3.5-1.3
			s-1.4-1.9-1.4-3.5c0-1.9,0.8-3.3,2.3-4.2c0.8-0.5,2.1-0.8,3.6-1L212.3,25.5z M214.8,27.4c-0.2,0.1-0.6,0.3-0.8,0.5
			c-0.2,0.1-0.7,0.2-1.1,0.2l-0.9,0.2c-0.9,0.1-1.5,0.3-1.9,0.6c-0.7,0.3-1,0.9-1,1.7c0,0.7,0.2,1.3,0.6,1.5
			c0.3,0.3,0.9,0.5,1.5,0.5c0.9,0,1.7-0.2,2.5-0.8c0.8-0.6,1.1-1.5,1.1-2.9L214.8,27.4L214.8,27.4z"/>
		<path class="st1" d="M231.5,18.9c0,0,0.2,0,0.3,0v4.2c-0.2,0-0.5,0-0.7-0.1c-0.2,0-0.3,0-0.5,0c-1.7,0-2.7,0.6-3.3,1.6
			c-0.3,0.6-0.5,1.6-0.5,2.9v7.6h-4.3V19.2h4v2.7c0.7-1,1.3-1.8,1.7-2.2c0.8-0.7,1.8-1,3.1-1C231.3,18.9,231.3,18.9,231.5,18.9z"/>
		<path class="st1" d="M240.5,25.5c0.8-0.1,1.4-0.2,1.7-0.3c0.6-0.2,0.9-0.7,0.9-1.1c0-0.7-0.2-1.1-0.7-1.4
			c-0.5-0.2-1.1-0.3-2.1-0.3s-1.7,0.2-2.2,0.7c-0.3,0.3-0.5,0.8-0.6,1.5h-4c0.1-1.4,0.5-2.5,1.1-3.4c1.1-1.4,3-2.1,5.7-2.1
			c1.7,0,3.3,0.3,4.7,1s2.1,1.9,2.1,3.9v7.3c0,0.5,0,1.1,0,1.8c0,0.6,0.1,0.9,0.2,1.1c0.1,0.2,0.3,0.3,0.6,0.5v0.6h-4.6
			c-0.1-0.3-0.2-0.6-0.2-0.9c0-0.2-0.1-0.6-0.1-0.9c-0.6,0.6-1.3,1.1-1.9,1.6c-0.9,0.6-1.9,0.8-3.1,0.8c-1.5,0-2.6-0.5-3.5-1.3
			s-1.4-1.9-1.4-3.5c0-1.9,0.8-3.3,2.3-4.2c0.8-0.5,2.1-0.8,3.6-1L240.5,25.5z M243.1,27.4c-0.2,0.1-0.6,0.3-0.8,0.5
			c-0.2,0.1-0.7,0.2-1.1,0.2l-0.9,0.2c-0.9,0.1-1.5,0.3-1.9,0.6c-0.7,0.3-1,0.9-1,1.7c0,0.7,0.2,1.3,0.6,1.5
			c0.3,0.3,0.9,0.5,1.5,0.5c0.9,0,1.7-0.2,2.5-0.8c0.8-0.6,1.1-1.5,1.1-2.9L243.1,27.4L243.1,27.4z"/>
	</g>
	<g>
		<rect x="170.2" y="44.9" class="st1" width="2.5" height="15.1"/>
		<path class="st1" d="M181.6,48.5c-0.7,0-1.4,0.1-1.9,0.5c-0.3,0.2-0.8,0.5-1.1,0.8v-1h-2.3V60h2.3v-5.8c0-0.7,0-1.1,0.1-1.5
			s0.2-0.7,0.5-0.9c0.3-0.3,0.7-0.7,1.1-0.8c0.2-0.1,0.6-0.1,0.9-0.1c0.7,0,1.1,0.2,1.5,0.8c0.1,0.3,0.2,0.8,0.2,1.5v7h2.4V53
			c0-1.1-0.1-1.9-0.5-2.6C184.4,49.1,183.2,48.5,181.6,48.5z"/>
		<path class="st1" d="M192.3,44.6c-1.5-0.1-2.5,0.2-3,1l0,0c-0.2,0.3-0.5,0.9-0.5,1.8v1.4h-1.5v1.9h1.5v9.1h2.3v-9.1h1.7v-1.9h-1.7
			c0-1.3,0.1-1.6,0.1-1.7c0.1-0.2,0.5-0.2,0.7-0.2c0.1,0,0.1,0,0.2,0s0.2,0,0.3,0h0.3v-2.2h-0.2C192.6,44.6,192.5,44.6,192.3,44.6z"
			/>
		<path class="st1" d="M203.3,49.9c-1-0.9-2.2-1.5-3.5-1.5c-1.6,0-2.9,0.6-3.8,1.7c-0.9,1.1-1.4,2.6-1.4,4.4c0,1.7,0.5,3.1,1.4,4.1
			s2.1,1.6,3.6,1.6c1.8,0,3.2-0.6,4-1.8c0.8-1.1,1.3-2.6,1.3-4.3C204.7,52.3,204.2,50.9,203.3,49.9L203.3,49.9z M199.6,58.2
			c-0.9,0-1.6-0.3-2.1-1s-0.7-1.6-0.7-2.6c0-1.1,0.2-2.1,0.7-2.9c0.5-0.7,1.1-1.1,2.1-1.1s1.8,0.5,2.3,1.3c0.2,0.6,0.5,1.4,0.5,2.3
			c0,1-0.2,1.9-0.6,2.9C201.4,57.7,200.7,58.2,199.6,58.2z"/>
		<path class="st1" d="M210.1,45.8h-2.4v3h-1.4v2.1h1.4v6.7c0,0.7,0.1,1.4,0.5,1.8c0.3,0.5,1,0.8,1.9,0.8c0.2,0,0.5,0,0.7,0
			s0.5-0.1,0.7-0.1l0.2-0.1v-2h-0.3c-0.1,0-0.2,0-0.3,0c-0.5,0-0.8,0-0.8-0.1c-0.1,0-0.2-0.1-0.2-0.5v-6.6h1.7v-2.1H210v-3
			C210,45.8,210.1,45.8,210.1,45.8z"/>
		<path class="st1" d="M222.7,50.6c-0.3-0.6-0.9-1.1-1.7-1.5c-0.7-0.3-1.5-0.6-2.3-0.6c-1.5,0-2.9,0.6-3.8,1.7
			c-0.9,1.1-1.4,2.5-1.4,4.3s0.5,3.2,1.4,4.2s2.2,1.5,3.5,1.5c0.6,0,1,0,1.5-0.1c0.8-0.2,1.5-0.6,2.1-1.1c0.3-0.3,0.7-0.7,0.9-1.3
			c0.2-0.5,0.5-1,0.5-1.4V56h-2.3l-0.1,0.2c-0.1,0.5-0.3,0.8-0.6,1.1c-0.5,0.6-1.1,0.8-1.9,0.8c-0.9,0-1.5-0.2-1.9-0.8
			c-0.3-0.6-0.6-1.3-0.7-2.2h7.5v-0.3c0-1.1,0-1.8-0.1-2.4C223.3,51.8,223,51.1,222.7,50.6z M216.1,53.2c0.1-0.7,0.3-1.3,0.8-1.7
			c0.5-0.6,1-0.8,1.8-0.8c1,0,1.7,0.3,2.2,1.1c0.2,0.3,0.3,0.8,0.5,1.4H216.1z"/>
		<path class="st1" d="M232.8,55.8c-0.1,0.7-0.5,1.3-0.8,1.7c-0.3,0.3-0.9,0.6-1.5,0.6c-0.8,0-1.5-0.3-1.8-0.9
			c-0.5-0.7-0.6-1.5-0.6-2.5s0.1-1.8,0.5-2.5c0.5-1,1.1-1.5,2.2-1.5c0.7,0,1.3,0.2,1.6,0.6s0.6,0.9,0.7,1.5V53h2.3v-0.3
			c-0.1-1.5-0.7-2.5-1.5-3.2c-0.8-0.6-1.8-0.9-3.1-0.9c-1.5,0-2.6,0.6-3.6,1.6c-0.9,1-1.4,2.6-1.4,4.6c0,1.6,0.5,2.9,1.3,4
			c0.9,1,2.1,1.6,3.5,1.6c1.3,0,2.4-0.3,3.2-1s1.4-1.8,1.6-3.2v-0.3h-2.3L232.8,55.8z"/>
		<path class="st1" d="M246.1,50.2c-0.6-1.1-1.7-1.7-3.3-1.7c-0.9,0-1.7,0.2-2.3,0.6c-0.2,0.1-0.5,0.3-0.7,0.6v-4.9h-2.3v15.1h2.3
			V54c0-1.3,0.2-2.2,0.8-2.6c0.6-0.5,1.1-0.7,1.8-0.7c0.8,0,1.3,0.2,1.5,0.7c0.1,0.3,0.2,0.8,0.2,1.6v7h2.4v-7.1
			C246.5,51.7,246.4,50.9,246.1,50.2z"/>
	</g>
	<polygon class="st1" points="166.3,66.3 162.7,41.8 162.7,41.7 162.5,41.6 78.6,41.6 78.6,43.3 161.2,43.3 164.9,67.8 164.9,68 
		247.9,68 247.9,66.3 	"/>
</g>
</svg>
