<svg id="Layer_1" data-name="Layer 1" xmlns="http://www.w3.org/2000/svg" viewBox="0 0 80 40"><defs><style>.cls-1{fill:#747475;}.cls-2{fill:#1496cf;}</style></defs><title>Artboard 1</title><path class="cls-1" d="M33.6,29.6c-.3-1.1-.6-2.2-1-3.3a2.94,2.94,0,0,0-1-1.2c-1.3-.6-2.8-1.2-4.2-1.7a.9.9,0,0,0-.5-.1L25,28.8H23.6a2.85,2.85,0,0,1-1.3,0H22l-1.9-5.6c-1.7.7-3.3,1.3-4.8,2.1a1.42,1.42,0,0,0-.8.9,19.06,19.06,0,0,0-1,3.4,1.61,1.61,0,0,0,1,2,1.27,1.27,0,0,0,.6.1H31.9a1.56,1.56,0,0,0,1.7-1.4A.82.82,0,0,0,33.6,29.6Z"/><path class="cls-1" d="M37.5,21c-.5-.1-.9-.2-1.3-.3a5.64,5.64,0,0,1-1.2-.4c-.9-.4-.8-.4-.6-1.3a3.52,3.52,0,0,0-.3-2,5.64,5.64,0,0,1,.3-4.4,5,5,0,0,1,6.4-2.5,5.28,5.28,0,0,1,3.1,6.4c-.1.2-.1.4-.2.6a2.66,2.66,0,0,0,.3,2.6c-.9.9-2.3.9-3.5,1.2,0,.2.1.4.1.6a3.39,3.39,0,0,1-1.2,3.6.48.48,0,0,1-.7,0h0a3.33,3.33,0,0,1-1.2-3.6Z"/><path class="cls-1" d="M27.8,14.5v.7a.68.68,0,0,0,.4.6.55.55,0,0,1,.5.3,2.66,2.66,0,0,1-.9,2.5,2.09,2.09,0,0,0-.4.6,5.73,5.73,0,0,1-3,3.3,2.12,2.12,0,0,1-1.9,0,5.88,5.88,0,0,1-3-3.2c-.1-.3-.4-.4-.6-.7s-.4-.3-.5-.6-.2-.9-.3-1.3a.6.6,0,0,1,.6-.8c.5,0,.4-.3.4-.6a5.71,5.71,0,0,1,.4-2.9A4.45,4.45,0,0,1,24.6,10,4.18,4.18,0,0,1,27.8,14.5Z"/><path class="cls-1" d="M6.3,21.7,8,26.6l.3-.1C8.2,25,8.9,23.4,8,22h2.5c-.7,1.4-.1,2.9-.3,4.4l.3.1,1.7-4.9,4.2,1.7-1.3.6A3.68,3.68,0,0,0,13,26.2c-.2.8-.5,1.5-.7,2.2a.68.68,0,0,1-.6.4H1.8A1.24,1.24,0,0,1,.5,27.6v-.4a31.9,31.9,0,0,1,1.1-3.3.9.9,0,0,1,.6-.6,11.11,11.11,0,0,1,1.6-.7A15.25,15.25,0,0,0,6.3,21.7Z"/><path class="cls-1" d="M5.4,14.7a14.92,14.92,0,0,1,.2-2.1,3.75,3.75,0,0,1,7.4.7v1c0,.4,0,.6.4.6.2,0,.3.2.4.3a2.13,2.13,0,0,1-.8,2.1,2.09,2.09,0,0,0-.4.6,5.05,5.05,0,0,1-2.3,2.7,2.33,2.33,0,0,1-2,0A5.05,5.05,0,0,1,6,17.9a2.7,2.7,0,0,0-.7-.8,2.11,2.11,0,0,1-.6-1.8c.2,0,.5-.3.7-.6Z"/><path class="cls-1" d="M42.3,22.3a19.85,19.85,0,0,1,2.6.9,2.65,2.65,0,0,1,1.6,2.2,12.1,12.1,0,0,1,.1,1.9A1.58,1.58,0,0,1,45,28.9H35.3a1,1,0,0,1-.5-.4,7.49,7.49,0,0,1-.5-1.6,4.14,4.14,0,0,0-2.1-3,7,7,0,0,1,3.4-1.5,2.51,2.51,0,0,0-.8,2.9l1.3-.9,2.1,2.7c.7.9.8.8,1.5,0s1.1-1.4,1.6-2.1c.3-.5.6-.5,1-.2l.9.7A3.15,3.15,0,0,0,42.3,22.3Z"/><path class="cls-2" d="M22.1,24.2a5.87,5.87,0,0,1,.4,2.3s-.1,2.3-.1,2.8h2.3s0-1-.1-2.1c0,0-.3-2.2.4-3Z"/><polygon class="cls-2" points="22.4 29.2 23.5 30.2 24.7 29.2 22.4 29.2"/><path class="cls-2" d="M55.42,24.4H49.81V23.28l1-.93c.47-.42.86-.77,1.14-1.05a10.21,10.21,0,0,0,.79-.85,3.39,3.39,0,0,0,.5-.76,1.58,1.58,0,0,0,.16-.69,1.1,1.1,0,0,0-.32-.84,1.32,1.32,0,0,0-1-.32,2.83,2.83,0,0,0-1.69.66l-.52-1.33a3.66,3.66,0,0,1,1.15-.59,4.53,4.53,0,0,1,1.44-.23,2.87,2.87,0,0,1,2,.69,2.32,2.32,0,0,1,.73,1.8,2.76,2.76,0,0,1-.16.93,3.88,3.88,0,0,1-.47.9,7.46,7.46,0,0,1-.66.79c-.23.24-.5.5-.82.79l-.73.6v0h3Z"/><path class="cls-2" d="M62.35,16.49V18H59.29l-.18,1.22a3.3,3.3,0,0,1,.51,0,3.45,3.45,0,0,1,2.09.58,2.22,2.22,0,0,1,1,2,2.45,2.45,0,0,1-.24,1.06,2.55,2.55,0,0,1-.66.88,3,3,0,0,1-1.07.61,4.33,4.33,0,0,1-1.43.23A6.25,6.25,0,0,1,58,24.41a3.92,3.92,0,0,1-.94-.33l.33-1.39a3.9,3.9,0,0,0,.8.27,3.72,3.72,0,0,0,1,.13,2.09,2.09,0,0,0,.76-.13,1.32,1.32,0,0,0,.59-.4,1,1,0,0,0,.24-.68c0-.88-.74-1.31-2.23-1.31a7.12,7.12,0,0,0-1.07.07L58,16.49Z"/><path class="cls-2" d="M66.81,16.35a2.65,2.65,0,0,1,1.11.22,2.3,2.3,0,0,1,.84.58,3.46,3.46,0,0,1,.56.89,4.59,4.59,0,0,1,.33,1.11,7.15,7.15,0,0,1,.1,1.26,6.46,6.46,0,0,1-.32,2.16,3,3,0,0,1-1,1.44,2.89,2.89,0,0,1-3,.21,2.64,2.64,0,0,1-.93-.89A4.36,4.36,0,0,1,64,22a7.07,7.07,0,0,1-.19-1.59A6.29,6.29,0,0,1,64,18.84a4.19,4.19,0,0,1,.55-1.29,2.56,2.56,0,0,1,.94-.88A2.79,2.79,0,0,1,66.81,16.35Zm0,1.4c-.35,0-.63.23-.83.68a5.26,5.26,0,0,0-.3,2,5.4,5.4,0,0,0,.29,2,.93.93,0,0,0,.85.67c.36,0,.64-.22.83-.68a5.46,5.46,0,0,0,.29-2C67.91,18.65,67.53,17.75,66.78,17.75Z"/><path class="cls-2" d="M73.63,17.92h1.2v2.66h2.54v1.14H74.83V24.4h-1.2V21.72H71.09V20.58h2.54Z"/></svg>