<svg id="Layer_1" data-name="Layer 1" xmlns="http://www.w3.org/2000/svg" viewBox="0 0 80 40"><defs><style>.cls-1{fill:#1496cf;}.cls-2{fill:#747475;}</style></defs><title>Artboard 2</title><path class="cls-1" d="M25.5,18.4a7.3,7.3,0,1,0-7.3-7.3h0a7.34,7.34,0,0,0,7.3,7.3ZM23,10.2l1.5,1.5,3.3-3.4a1.07,1.07,0,0,1,1.4.1.91.91,0,0,1,0,1.2l-4.1,4.1a1,1,0,0,1-1.4,0h0l-2.2-2.2a1,1,0,0,1,0-1.4.93.93,0,0,1,1.3-.1C22.9,10.1,23,10.1,23,10.2Z"/><path class="cls-2" d="M7.4,25.9a.75.75,0,0,0-.9,0l-.6.6,8.4,8.4.6-.6a.75.75,0,0,0,0-.9Z"/><path class="cls-2" d="M35,22.5a1.69,1.69,0,0,0-2.3,0h0l-2.3,2.3a1.28,1.28,0,0,1-1,.4H21.7a1.4,1.4,0,0,1,0-2.8h3.4a1.4,1.4,0,0,0,0-2.8H18a5.83,5.83,0,0,0-4.6,2.2l-3.1,4.1,5,5,.6-.9a2.26,2.26,0,0,1,1.9-1.1H30a1.66,1.66,0,0,0,1.3-.5L35,24.7a1.41,1.41,0,0,0,0-2.2Z"/><path class="cls-2" d="M3.1,29.2v6.9h9.7L4.5,27.8Z"/><path class="cls-1" d="M49.18,22.39a4,4,0,0,1-1.3-.19,2.51,2.51,0,0,1-.92-.51,2.32,2.32,0,0,1-.53-.7,1.87,1.87,0,0,1-.18-.8,2,2,0,0,1,.37-1.2,2.57,2.57,0,0,1,1-.79v0a2.07,2.07,0,0,1-.85-.74,1.78,1.78,0,0,1-.29-1,1.94,1.94,0,0,1,.79-1.61,3.15,3.15,0,0,1,2-.62,3.84,3.84,0,0,1,1,.12,2.4,2.4,0,0,1,.74.32,2,2,0,0,1,.5.46,1.76,1.76,0,0,1,.3.55,1.9,1.9,0,0,1,.09.58,1.88,1.88,0,0,1-.29,1,2.17,2.17,0,0,1-.86.74v0a2.39,2.39,0,0,1,1,.75A1.82,1.82,0,0,1,52.22,20a2.08,2.08,0,0,1-.83,1.74A3.4,3.4,0,0,1,49.18,22.39Zm.07-1.28a1.09,1.09,0,0,0,.79-.28.91.91,0,0,0,.3-.7A1.13,1.13,0,0,0,50,19.3a2.25,2.25,0,0,0-.91-.48,1.41,1.41,0,0,0-.71.45,1.11,1.11,0,0,0-.26.73,1.12,1.12,0,0,0,.3.78A1.09,1.09,0,0,0,49.25,21.11Zm0-5.65a1,1,0,0,0-.71.26.93.93,0,0,0-.26.66c0,.48.38.84,1.13,1.07a1.11,1.11,0,0,0,.56-.37,1,1,0,0,0,.24-.64,1,1,0,0,0-.24-.69A.89.89,0,0,0,49.22,15.46Z"/><path class="cls-1" d="M53.71,14.35H59.3v1.16L56,22.26h-2l3.26-6.37v0H53.71Z"/><path class="cls-1" d="M63.36,14.21a2.83,2.83,0,0,1,1.12.21,2.55,2.55,0,0,1,.84.59,3.29,3.29,0,0,1,.56.89A5.09,5.09,0,0,1,66.21,17a7.11,7.11,0,0,1,.1,1.25A6.64,6.64,0,0,1,66,20.42a3.09,3.09,0,0,1-1,1.45,2.69,2.69,0,0,1-1.68.52A2.57,2.57,0,0,1,62,22.07a2.53,2.53,0,0,1-.93-.88,4.66,4.66,0,0,1-.53-1.29,7.16,7.16,0,0,1-.18-1.59,6.29,6.29,0,0,1,.19-1.61,4.11,4.11,0,0,1,.55-1.3,2.53,2.53,0,0,1,.94-.87A2.75,2.75,0,0,1,63.36,14.21Zm0,1.4c-.35,0-.63.23-.83.68a5.08,5.08,0,0,0-.3,2,5.2,5.2,0,0,0,.29,2,.93.93,0,0,0,.85.67c.36,0,.64-.23.83-.68a5.5,5.5,0,0,0,.28-2C64.46,16.5,64.09,15.61,63.34,15.61Z"/><path class="cls-1" d="M70.19,15.78h1.19v2.66h2.55v1.14H71.38v2.68H70.19V19.58H67.65V18.44h2.54Z"/></svg>