<svg id="Layer_1" data-name="Layer 1" xmlns="http://www.w3.org/2000/svg" viewBox="0 0 80 40"><defs><style>.cls-1{fill:#747475;}.cls-2{fill:#1496cf;}</style></defs><title>Artboard 1</title><path class="cls-1" d="M36.4,22.7a.47.47,0,0,1-.5-.5h0V3A.55.55,0,1,1,37,2.9V3h0V22.1a.65.65,0,0,1-.6.6Z"/><path class="cls-2" d="M36.4,8.2c-.3,0-.5,0-.5-.1V2.6c0-.1.2-.2.5-.2s.6.1.6.2V7.1C36.8,7.2,36.6,8.2,36.4,8.2Z"/><path class="cls-1" d="M21,37.9H14V35.4a1.3,1.3,0,0,1,1.2-1.3h4.4a1.24,1.24,0,0,1,1.3,1.2v.1Z"/><path class="cls-1" d="M27.8,37.9h-7V32.2A1.16,1.16,0,0,1,22,31h4.5a1.16,1.16,0,0,1,1.2,1.2h0Z"/><path class="cls-1" d="M34.6,37.9h-7V28.7a1.3,1.3,0,0,1,1.2-1.3h4.5a1.16,1.16,0,0,1,1.2,1.2h0l.1,9.3Z"/><path class="cls-1" d="M41.6,37.9H34.5V23.3A1.3,1.3,0,0,1,35.7,22h4.5a1.3,1.3,0,0,1,1.3,1.2h0Z"/><path class="cls-1" d="M43.4,38.4H11.5a.47.47,0,0,1-.5-.5h0a.47.47,0,0,1,.5-.5H43.4a.63.63,0,0,1,.6.5h0c0,.3-.2.5-.6.5Z"/><path class="cls-2" d="M36.4,8.2h7a.22.22,0,0,0,.2-.2c0-.1,0-.2-.1-.2L41.7,6.2a.37.37,0,0,1-.1-.3l.1-.1,1.8-1.6a.19.19,0,0,0,0-.3H36.2Z"/><path class="cls-1" d="M37,9.3l-7.7,4.1a2.47,2.47,0,0,0-1.1,1.9l-1.5,5.4,2,.7,1.7-2.3,1.3-4.4,3.8-2.3A2.59,2.59,0,0,0,37,9.3Z"/><path class="cls-1" d="M37,9.3l-.9.5a2.89,2.89,0,0,1-1.3,1.9l-3.5,2.1a1.47,1.47,0,0,0-.5.6l-.4,1.5a6,6,0,0,1-3.3,3.5l-.5,1.3,3.7-1.6,1.3-4.4,3.8-2.3A2.56,2.56,0,0,0,37,9.3Z"/><path class="cls-1" d="M30.4,19.2l2.2,2.6c.4.5.7.9.6,1.2l-.6,5.5H31.4l-.3-4.9a.66.66,0,0,0-.4-.5l-4-2.6Z"/><path class="cls-1" d="M26.7,20.7l-.2,3.9a2.2,2.2,0,0,1-.1.8l-2.9,5.9,1.2.1,4.4-5.7a1.61,1.61,0,0,0,.3-.9l1-5.6Z"/><path class="cls-1" d="M30.2,10.2l.6,1.2a1.17,1.17,0,0,1-.5,1.6h0l-.5.2a1.17,1.17,0,0,1-1.6-.5l-.7-1.3A1.08,1.08,0,0,1,28,9.9h.1l.5-.2a1.19,1.19,0,0,1,1.6.5h0C30.1,10.1,30.2,10.1,30.2,10.2Z"/><path class="cls-2" d="M50.84,15.78A2.7,2.7,0,0,1,52,16a2.52,2.52,0,0,1,.84.58,3.35,3.35,0,0,1,.56.9,4.19,4.19,0,0,1,.33,1.11,7.12,7.12,0,0,1,.11,1.26A6.37,6.37,0,0,1,53.47,22a3,3,0,0,1-1,1.45,2.91,2.91,0,0,1-3,.21,2.61,2.61,0,0,1-.92-.89,4.34,4.34,0,0,1-.54-1.3,7.09,7.09,0,0,1-.18-1.59A6.29,6.29,0,0,1,48,18.28a4.25,4.25,0,0,1,.55-1.3,2.59,2.59,0,0,1,.95-.88A2.75,2.75,0,0,1,50.84,15.78Zm0,1.41c-.36,0-.63.23-.84.68a5.26,5.26,0,0,0-.3,2,5.17,5.17,0,0,0,.3,2c.2.46.48.68.85.68s.64-.23.83-.68a5.56,5.56,0,0,0,.28-2C51.94,18.08,51.57,17.19,50.82,17.19Z"/><path class="cls-2" d="M57.92,24a4.1,4.1,0,0,1-1.31-.19,2.6,2.6,0,0,1-.92-.51,2.32,2.32,0,0,1-.53-.7,1.91,1.91,0,0,1-.18-.81,2,2,0,0,1,.37-1.19,2.57,2.57,0,0,1,1-.8v0a2.14,2.14,0,0,1-.85-.74,1.88,1.88,0,0,1-.29-1A1.94,1.94,0,0,1,56,16.42a3.2,3.2,0,0,1,2-.62,3.84,3.84,0,0,1,1,.12,2.4,2.4,0,0,1,.74.32,2.26,2.26,0,0,1,.51.46,2,2,0,0,1,.29.55,2,2,0,0,1,.1.59,1.8,1.8,0,0,1-.3,1,2.14,2.14,0,0,1-.85.74v0a2.45,2.45,0,0,1,1,.75A1.92,1.92,0,0,1,61,21.6a2.11,2.11,0,0,1-.84,1.74A3.46,3.46,0,0,1,57.92,24ZM58,22.72a1.09,1.09,0,0,0,.79-.28.91.91,0,0,0,.3-.71,1.09,1.09,0,0,0-.33-.82,2.13,2.13,0,0,0-.92-.49,1.38,1.38,0,0,0-.7.45,1.13,1.13,0,0,0-.26.74,1,1,0,0,0,.3.78A1.08,1.08,0,0,0,58,22.72Zm0-5.66a.91.91,0,0,0-.7.26A.85.85,0,0,0,57,18c0,.49.37.84,1.13,1.08a1.18,1.18,0,0,0,.56-.37,1,1,0,0,0,.24-.65,1,1,0,0,0-.24-.69A.89.89,0,0,0,58,17.06Z"/><path class="cls-2" d="M64.61,16.82H65.8v2.67h2.55v1.14H65.8v2.69H64.61V20.63H62.05V19.49h2.56Z"/></svg>