<?xml version="1.0" encoding="utf-8"?>
<!-- Generator: Adobe Illustrator 21.0.0, SVG Export Plug-In . SVG Version: 6.00 Build 0)  -->
<svg version="1.1" id="Layer_1" xmlns="http://www.w3.org/2000/svg" xmlns:xlink="http://www.w3.org/1999/xlink" x="0px" y="0px"
	 viewBox="0 0 100 100" style="enable-background:new 0 0 100 100;" xml:space="preserve">
<title>4</title>
<path d="M46.2,68v2h-3c0.1,2.1,0.1,4.2-1.5,6h4.5v2H35.3v-2c0.3,0,0.6,0,0.9,0c3.4,0.3,5.5-1.7,5.1-5.2c0-0.2,0-0.5,0-0.9H25.5
	c-2.8,0.2-5.1-2-5.3-4.7c0-0.2,0-0.4,0-0.5V28c-0.1-2.8,2-5.1,4.8-5.2c0.1,0,0.3,0,0.4,0h49.7c2.8-0.1,5.1,2,5.2,4.8
	c0,0.1,0,0.3,0,0.4v16.9h-2v-12H22.2v29h24v2H22.3c-0.5,1.6,0.4,3.4,2.1,3.9c0.3,0.1,0.7,0.1,1,0.1H46.2z M22.2,30.8h56.1v-2.5
	c0-2.3-1.2-3.4-3.4-3.4H25.3c-1.6-0.1-3,1.1-3.1,2.7C22.2,28.7,22.2,29.7,22.2,30.8z"/>
<path d="M72.3,44.9h-2c0-0.3,0-0.6,0-0.9c0-0.6-0.4-1.1-0.9-1.1c-0.1,0-0.1,0-0.2,0c-1.1,0-2.2,0-3.3,0H51.6c-1.1,0-1.4,0.3-1.4,1.4
	v3.6h8.9v2h-8.9v20.1h8.9v2h-8.9c0,1.1-0.1,2.2,0,3.3c0.1,0.6,0.6,0.8,1.2,0.8h9.8V50.3c-0.2-1.7,1-3.2,2.7-3.3c0.2,0,0.4,0,0.7,0
	h12.5c1.7-0.1,3.1,1.1,3.2,2.8c0,0.1,0,0.2,0,0.4v24.7c0.1,1.6-1.2,3.1-2.8,3.2c-0.1,0-0.2,0-0.3,0H51.4c-1.7,0.1-3.1-1.2-3.1-2.9
	c0-0.1,0-0.2,0-0.2c0-10.3,0-20.6,0-30.9c-0.1-1.6,1.2-3,2.9-3.1c0.1,0,0.2,0,0.3,0h17.5c2.2,0,3.4,1.2,3.4,3.4V44.9z M63.4,52.9v19
	h14.9v-3.2c0-6.1,0-12.3,0-18.4c0-1.1-0.3-1.4-1.4-1.4H64.6c-0.9,0-1.3,0.3-1.3,1.3v0.7h13v2L63.4,52.9z M63.3,74v0.6
	c0,1.1,0.3,1.4,1.4,1.4h12.4c0.8,0,1.2-0.3,1.2-1.1c0-0.3,0-0.6,0-0.9L63.3,74z"/>
<path d="M52.3,44.9h1.9v1.9h-1.9V44.9z"/>
<path d="M58.2,46.9h-1.9V45h1.9V46.9z"/>
<path d="M25.3,26.9h1.9v1.9h-1.9V26.9z"/>
<path d="M29.3,26.9h1.9v1.9h-1.9V26.9z"/>
<path d="M35.2,28.9h-1.9v-1.9h1.9V28.9z"/>
</svg>
