<?xml version="1.0" encoding="utf-8"?>
<!-- Generator: Adobe Illustrator 21.0.0, SVG Export Plug-In . SVG Version: 6.00 Build 0)  -->
<svg version="1.1" id="Layer_1" xmlns="http://www.w3.org/2000/svg" xmlns:xlink="http://www.w3.org/1999/xlink" x="0px" y="0px"
	 viewBox="0 0 100 100" style="enable-background:new 0 0 100 100;" xml:space="preserve">
<title>5</title>
<path d="M49,71.3H21.3c-2,0-3.7-1.6-3.8-3.6c0-0.2,0-0.4,0-0.6c0-11.2,0-22.4,0-33.6c-0.1-1.2,0.5-2.4,1.4-3.2
	c0.6-0.5,1.5-0.8,2.3-0.8c3.5,0,7,0,10.5,0c0.6,0,1.1,0.4,1.2,1c0.1,0.5-0.3,1-0.8,1.2c-0.2,0-0.4,0.1-0.5,0.1H21.4
	c-0.8-0.1-1.6,0.5-1.6,1.4c0,0.1,0,0.2,0,0.3v34.1c-0.1,0.8,0.5,1.6,1.4,1.6c0.1,0,0.2,0,0.3,0h55.2c0.8,0.1,1.6-0.5,1.7-1.4
	c0-0.1,0-0.2,0-0.3c0-11.3,0-22.7,0-34c0.1-0.9-0.6-1.7-1.5-1.7c-0.1,0-0.1,0-0.2,0c-0.8,0-1.6,0-2.4,0c-0.6,0-1.2-0.4-1.2-1.1
	c0,0,0,0,0,0c0-0.6,0.5-1.1,1.1-1.1c0,0,0,0,0,0c1,0,2.1,0,3.1,0c1.8,0.2,3.2,1.7,3.3,3.5c0,0.1,0,0.3,0,0.4v34
	c0.1,1.7-1,3.3-2.7,3.8c-0.3,0.1-0.7,0.1-1,0.1L49,71.3z"/>
<path d="M43.1,39.1l8.1,8l1.1-1c2.4-2.2,4.9-4.4,7.3-6.6c2.6-2.4,4.8-5.3,6.4-8.5c1.3-2.3,2.2-4.9,2.7-7.5c0.1-0.8,0.2-1.5,0.4-2.3
	c-0.5,0.1-1,0.1-1.5,0.2c-6.9,1.3-13.1,4.8-17.6,10.1c-0.3,0.3-1.7,2-2.1,2c-0.8,0-1.3-0.6-2.1-0.6l0,0c1.2-1.3,3.1-3.6,4.3-4.7
	c4.1-4.1,9.3-7.1,14.9-8.5c1.7-0.4,3.4-0.7,5.1-0.7c0.6-0.1,1.1,0.4,1.2,1c0,0.1,0,0.2,0,0.3c-0.2,3.5-1,7-2.5,10.2
	c-1.7,3.7-4,7.1-7,10c-1.5,1.5-3.2,2.9-4.8,4.3l-5.1,4.6c-0.4,0.5-1.1,0.6-1.6,0.2c-0.1-0.1-0.2-0.1-0.2-0.2l-9.2-9.3
	c-0.5-0.4-0.6-1.1-0.2-1.6c0.1-0.1,0.1-0.1,0.2-0.2c0.5-0.6,1.1-1.2,1.7-1.9c0.1-0.2,0.3-0.2,0.5-0.2c0.3,0,0.6,0.2,0.9,0.4
	c0.4,0.4,0.4,1,0.1,1.5c-0.1,0.2-0.3,0.3-0.4,0.5L43.1,39.1z"/>
<path d="M45.5,50c0,1.8-1,3.6-2.6,4.5c-1.5,0.8-3.1,1.5-4.7,2.1c-1.6,0.6-3.2,1.1-4.8,1.6c-0.6,0.2-1.2-0.1-1.4-0.6
	c0-0.1-0.1-0.2-0.1-0.3c0-0.2,0-0.3,0.1-0.5c0.8-2.9,1.9-5.7,3.2-8.5c0.3-0.8,0.7-1.4,1.3-2c2.1-2,5.4-2,7.5,0.1
	c0.8,0.8,1.3,1.8,1.4,2.8C45.5,49.4,45.5,49.7,45.5,50z M34.8,55.3l0.2-0.1c1.3-0.5,2.6-0.9,3.9-1.4c1-0.4,2-0.9,3-1.4
	c1.1-0.7,1.6-2,1.3-3.2c-0.3-1.2-1.3-2.1-2.6-2.3c-1.3-0.2-2.6,0.5-3.1,1.7c-0.7,1.4-1.3,2.8-1.8,4.2C35.4,53.6,35.2,54.5,34.8,55.3
	z"/>
<path d="M49,81.9H37.2c-0.6,0-1.1-0.4-1.2-1c-0.1-0.6,0.4-1.1,1-1.2c0,0,0,0,0.1,0h23.7c0.5,0,1,0.2,1.1,0.7
	c0.2,0.6-0.1,1.2-0.6,1.4c-0.1,0-0.2,0.1-0.3,0.1H49z"/>
<path d="M47.9,29.8c-0.5,0.5-0.9,1-1.3,1.4c-0.2,0.2-0.4,0.4-0.6,0.7c-0.2,0.2-0.4,0.4-0.7,0.4c-2.1,0.3-4.1,0.9-6,1.8
	c-0.5,0.3-1,0.6-1.6,0.9v0.1l4.5,1.1l-1.1,1.2c-0.1,0.2-0.3,0.3-0.4,0.5C40.6,38,40.4,38,40.3,38l-5.2-1.2c-0.6-0.1-1-0.7-0.9-1.3
	c0-0.3,0.2-0.5,0.4-0.7c1.6-1.5,3.5-2.7,5.6-3.5c2.4-0.9,4.9-1.4,7.4-1.5L47.9,29.8z"/>
<path d="M60.4,42.4c-0.1,0.8-0.1,1.6-0.2,2.3c-0.3,2.2-0.8,4.3-1.7,6.3c-0.7,1.7-1.8,3.3-3.1,4.7c-0.3,0.3-0.7,0.5-1.1,0.3
	c-0.4-0.1-0.7-0.5-0.8-0.9c-0.4-1.8-0.8-3.5-1.2-5.2c0-0.1,0-0.2,0-0.3L54,48l1.1,4.5l0.2-0.2c1.2-1.8,2-3.9,2.4-6
	c0.1-0.5,0.2-1,0.3-1.6c0-0.2,0.1-0.3,0.2-0.4c0.7-0.6,1.4-1.2,2.1-1.9l0.1-0.1L60.4,42.4z"/>
<path d="M44,69.6h2.2v11.7H44V69.6z"/>
<path d="M51.9,69.6h2.2v11.7h-2.2V69.6z"/>
<path d="M43.4,38.8c-0.2-0.9-0.5-1.5-1.5-1.7c0.1-0.1,1.2-1.4,1.3-1.5c0.9-0.9,1.7-1.9,2.6-2.9c0.1-0.1,0.2-0.2,0.4-0.2
	c0.9-0.1,1.7-0.1,2.6-0.2c0.1,0,0.2,0,0.4,0C47.6,34.1,44.9,37.1,43.4,38.8z"/>
</svg>
