<?xml version="1.0" encoding="iso-8859-1"?>
<!-- Generator: Adobe Illustrator 24.0.1, SVG Export Plug-In . SVG Version: 6.00 Build 0)  -->
<svg version="1.1" id="regular" xmlns="http://www.w3.org/2000/svg" xmlns:xlink="http://www.w3.org/1999/xlink" x="0px" y="0px"
	 viewBox="0 0 150 150" style="enable-background:new 0 0 150 150;" xml:space="preserve">
<g>
	<g>
		<g>
			<path style="fill:#5BE392;" d="M110.721,39.714H90.493c-2.383,0-4.333-1.95-4.333-4.333c0-2.383,1.95-4.333,4.333-4.333h15.895
				V15.154c0-2.383,1.95-4.333,4.333-4.333c2.383,0,4.333,1.95,4.333,4.333v20.228C115.053,37.765,113.131,39.714,110.721,39.714z"
				/>
			<path style="fill:#5BE392;" d="M110.721,40.527H90.493c-2.837,0-5.145-2.308-5.145-5.145c0-2.837,2.308-5.145,5.145-5.145h15.083
				V15.154c0-2.837,2.308-5.145,5.145-5.145s5.145,2.308,5.145,5.145v20.228C115.866,38.219,113.558,40.527,110.721,40.527z
				 M90.493,31.862c-1.941,0-3.52,1.579-3.52,3.52c0,1.941,1.579,3.52,3.52,3.52h20.228c1.941,0,3.52-1.579,3.52-3.52V15.154
				c0-1.941-1.579-3.52-3.52-3.52s-3.52,1.579-3.52,3.52v16.708H90.493z"/>
		</g>
	</g>
	<g>
		<g>
			<path style="fill:#5BE392;" d="M38.529,80.143c-2.383,0-4.333-1.95-4.333-4.333V55.583c0-2.383,1.95-4.333,4.333-4.333h20.228
				c2.383,0,4.333,1.95,4.333,4.333c0,2.383-1.95,4.333-4.333,4.333H42.861V75.81C42.861,78.22,40.912,80.143,38.529,80.143z"/>
			<path style="fill:#5BE392;" d="M38.529,80.955c-2.837,0-5.145-2.308-5.145-5.145V55.583c0-2.837,2.308-5.145,5.145-5.145h20.228
				c2.837,0,5.145,2.308,5.145,5.145s-2.308,5.145-5.145,5.145H43.674V75.81C43.674,78.647,41.366,80.955,38.529,80.955z
				 M38.529,52.062c-1.941,0-3.52,1.579-3.52,3.52V75.81c0,1.941,1.579,3.52,3.52,3.52c1.941,0,3.52-1.579,3.52-3.52V59.103h16.708
				c1.941,0,3.52-1.579,3.52-3.52c0-1.941-1.579-3.52-3.52-3.52H38.529z"/>
		</g>
	</g>
	<g>
		<g>
			<path style="fill:#5BE392;" d="M39.504,41.502c-0.325,0-0.677-0.027-1.002-0.108c-2.329-0.542-3.764-2.87-3.222-5.199
				C39.612,17.862,55.778,5.054,74.625,5.054c17.872,0,33.821,11.969,38.777,29.137c0.65,2.302-0.677,4.712-2.952,5.362
				c-2.329,0.65-4.712-0.677-5.362-2.952c-3.899-13.485-16.41-22.882-30.464-22.882c-14.812,0-27.512,10.046-30.897,24.452
				C43.24,40.148,41.48,41.502,39.504,41.502L39.504,41.502z"/>
			<path style="fill:#5BE392;" d="M39.504,42.314c-0.444,0-0.847-0.045-1.199-0.132c-1.324-0.308-2.459-1.122-3.181-2.29
				c-0.721-1.165-0.946-2.543-0.635-3.881C38.909,17.304,55.414,4.241,74.625,4.241c18.239,0,34.506,12.223,39.557,29.724
				c0.773,2.74-0.802,5.594-3.509,6.368c-2.742,0.764-5.595-0.81-6.366-3.51c-3.795-13.124-16.001-22.292-29.682-22.292
				c-14.43,0-26.81,9.797-30.106,23.825C43.943,40.69,41.882,42.314,39.504,42.314z M74.625,5.866
				c-18.454,0-34.309,12.548-38.555,30.515c-0.212,0.914-0.058,1.858,0.435,2.656c0.493,0.797,1.268,1.353,2.181,1.566
				c0.236,0.059,0.507,0.087,0.818,0.087c1.629,0,3.042-1.116,3.436-2.713c3.467-14.757,16.498-25.07,31.686-25.07
				c14.4,0,27.248,9.651,31.244,23.468c0.528,1.846,2.484,2.919,4.363,2.395c1.844-0.527,2.918-2.483,2.388-4.358
				C107.769,17.606,92.144,5.866,74.625,5.866z"/>
		</g>
	</g>
	<g>
		<g>
			<path style="fill:#5BE392;" d="M74.625,85.938c-17.872,0-33.821-11.969-38.777-29.137c-0.65-2.302,0.677-4.712,2.952-5.362
				c2.302-0.677,4.685,0.677,5.362,2.952c3.872,13.458,16.41,22.854,30.437,22.854c14.812,0,27.512-10.046,30.897-24.452
				c0.569-2.329,2.925-3.764,5.199-3.222c2.329,0.542,3.764,2.87,3.222,5.199C109.638,73.13,93.472,85.938,74.625,85.938
				L74.625,85.938z"/>
			<path style="fill:#5BE392;" d="M74.625,86.75c-18.239,0-34.506-12.223-39.557-29.724c-0.773-2.74,0.801-5.594,3.509-6.368
				c2.695-0.793,5.553,0.777,6.363,3.501c3.774,13.117,15.969,22.274,29.658,22.274c14.43,0,26.81-9.797,30.106-23.825
				c0.675-2.764,3.446-4.477,6.178-3.827c2.75,0.64,4.468,3.409,3.825,6.174C110.344,73.675,93.862,86.75,74.625,86.75z
				 M40.001,52.078c-0.322,0-0.649,0.045-0.972,0.14c-1.855,0.53-2.929,2.486-2.399,4.362c4.851,16.805,20.475,28.545,37.995,28.545
				c18.478,0,34.31-12.558,38.5-30.54c0.44-1.891-0.733-3.786-2.615-4.224c-1.867-0.445-3.764,0.732-4.226,2.624
				c-3.468,14.759-16.498,25.072-31.686,25.072c-14.409,0-27.246-9.64-31.217-23.442C42.924,53.081,41.515,52.078,40.001,52.078z"/>
		</g>
	</g>
	<g>
		<g>
			<path style="fill:#5BE392;" d="M31.299,114.804c-7.961,0-14.433-6.472-14.433-14.433s6.472-14.433,14.433-14.433
				s14.433,6.472,14.433,14.433S39.26,114.804,31.299,114.804z M31.299,94.603c-3.195,0-5.768,2.6-5.768,5.768
				c0,3.168,2.6,5.768,5.768,5.768s5.768-2.6,5.768-5.768C37.066,97.176,34.494,94.603,31.299,94.603z"/>
			<path style="fill:#5BE392;" d="M31.299,115.616c-8.406,0-15.245-6.839-15.245-15.245s6.839-15.245,15.245-15.245
				s15.245,6.839,15.245,15.245S39.705,115.616,31.299,115.616z M31.299,86.75c-7.51,0-13.621,6.11-13.621,13.621
				s6.11,13.621,13.621,13.621s13.621-6.11,13.621-13.621S38.809,86.75,31.299,86.75z M31.299,106.951
				c-3.628,0-6.58-2.952-6.58-6.58c0-3.628,2.952-6.58,6.58-6.58s6.58,2.952,6.58,6.58
				C37.879,103.999,34.927,106.951,31.299,106.951z M31.299,95.416c-2.732,0-4.955,2.223-4.955,4.955
				c0,2.732,2.223,4.955,4.955,4.955s4.955-2.223,4.955-4.955C36.254,97.638,34.031,95.416,31.299,95.416z"/>
		</g>
	</g>
	<g>
		<g>
			<path style="fill:#5BE392;" d="M52.962,143.697c-2.383,0-4.333-1.95-4.333-4.333v-2.897c0-3.981-3.249-7.23-7.23-7.23H21.198
				c-3.981,0-7.23,3.249-7.23,7.23v2.897c0,2.383-1.95,4.333-4.333,4.333s-4.333-1.95-4.333-4.333v-2.897
				c0-8.774,7.122-15.895,15.895-15.895h20.228c8.774,0,15.895,7.122,15.895,15.895v2.897
				C57.294,141.747,55.345,143.697,52.962,143.697z"/>
			<path style="fill:#5BE392;" d="M52.962,144.509c-2.837,0-5.145-2.308-5.145-5.145v-2.897c0-3.539-2.879-6.418-6.418-6.418H21.198
				c-3.539,0-6.418,2.879-6.418,6.418v2.897c0,2.837-2.308,5.145-5.145,5.145s-5.145-2.308-5.145-5.145v-2.897
				c0-9.213,7.495-16.708,16.708-16.708h20.228c9.213,0,16.708,7.495,16.708,16.708v2.897
				C58.102,142.205,55.781,144.509,52.962,144.509z M21.198,128.424h20.201c4.435,0,8.042,3.608,8.042,8.042v2.897
				c0,1.941,1.579,3.52,3.52,3.52c1.934,0,3.525-1.583,3.547-3.529v-2.888c0-8.317-6.766-15.083-15.083-15.083H21.198
				c-8.317,0-15.083,6.766-15.083,15.083v2.897c0,1.941,1.579,3.52,3.52,3.52c1.941,0,3.52-1.579,3.52-3.52v-2.897
				C13.156,132.032,16.764,128.424,21.198,128.424z"/>
		</g>
	</g>
	<g>
		<g>
			<path style="fill:#5BE392;" d="M117.951,114.804c-7.961,0-14.433-6.472-14.433-14.433s6.472-14.433,14.433-14.433
				s14.433,6.472,14.433,14.433S125.912,114.804,117.951,114.804z M117.951,94.603c-3.195,0-5.768,2.6-5.768,5.768
				c0,3.168,2.6,5.768,5.768,5.768c3.168,0,5.768-2.6,5.768-5.768C123.719,97.176,121.146,94.603,117.951,94.603z"/>
			<path style="fill:#5BE392;" d="M117.951,115.616c-8.406,0-15.245-6.839-15.245-15.245s6.839-15.245,15.245-15.245
				s15.245,6.839,15.245,15.245S126.357,115.616,117.951,115.616z M117.951,86.75c-7.51,0-13.621,6.11-13.621,13.621
				s6.11,13.621,13.621,13.621s13.621-6.11,13.621-13.621S125.461,86.75,117.951,86.75z M117.951,106.951
				c-3.628,0-6.58-2.952-6.58-6.58c0-3.628,2.952-6.58,6.58-6.58c3.628,0,6.58,2.952,6.58,6.58
				C124.531,103.999,121.579,106.951,117.951,106.951z M117.951,95.416c-2.732,0-4.955,2.223-4.955,4.955
				c0,2.732,2.223,4.955,4.955,4.955c2.732,0,4.955-2.223,4.955-4.955C122.906,97.638,120.683,95.416,117.951,95.416z"/>
		</g>
	</g>
	<g>
		<g>
			<path style="fill:#5BE392;" d="M139.614,143.697c-2.383,0-4.333-1.95-4.333-4.333v-2.897c0-3.981-3.249-7.23-7.23-7.23h-20.228
				c-3.981,0-7.23,3.249-7.23,7.23v2.897c0,2.383-1.95,4.333-4.333,4.333c-2.383,0-4.333-1.95-4.333-4.333v-2.897
				c0-8.774,7.122-15.895,15.895-15.895h20.228c8.774,0,15.895,7.122,15.895,15.895v2.897
				C143.946,141.747,141.997,143.697,139.614,143.697z"/>
			<path style="fill:#5BE392;" d="M139.614,144.509c-2.837,0-5.145-2.308-5.145-5.145v-2.897c0-3.539-2.879-6.418-6.418-6.418
				h-20.228c-3.538,0-6.417,2.879-6.417,6.418v2.897c0,2.837-2.308,5.145-5.145,5.145c-2.837,0-5.145-2.308-5.145-5.145v-2.897
				c0-9.213,7.495-16.708,16.707-16.708h20.228c9.213,0,16.708,7.495,16.708,16.708v2.897
				C144.759,142.201,142.451,144.509,139.614,144.509z M107.823,128.424h20.228c4.435,0,8.042,3.608,8.042,8.042v2.897
				c0,1.941,1.579,3.52,3.52,3.52s3.52-1.579,3.52-3.52v-2.897c0-8.317-6.766-15.083-15.083-15.083h-20.228
				c-8.317,0-15.083,6.766-15.083,15.083v2.897c0,1.941,1.579,3.52,3.52,3.52c1.941,0,3.52-1.579,3.52-3.52v-2.897
				C99.781,132.032,103.389,128.424,107.823,128.424z"/>
		</g>
	</g>
</g>
</svg>
