<?xml version="1.0" encoding="iso-8859-1"?>
<!-- Generator: Adobe Illustrator 24.0.1, SVG Export Plug-In . SVG Version: 6.00 Build 0)  -->
<svg version="1.1" id="regular" xmlns="http://www.w3.org/2000/svg" xmlns:xlink="http://www.w3.org/1999/xlink" x="0px" y="0px"
	 viewBox="0 0 150 150" style="enable-background:new 0 0 150 150;" xml:space="preserve">
<g>
	<g>
		<g>
			<path style="fill:#5BE392;" d="M103.653,117.253l-13.131-13.131c-3.788-3.788-9.953-3.788-13.741,0l-5.769,5.769
				c-13.176-6.9-24.003-17.727-30.903-30.903l5.769-5.769c3.788-3.788,3.788-9.953,0-13.741L32.748,46.347
				c-3.788-3.788-9.953-3.788-13.741,0L8.502,56.852c-5.489,5.488-5.66,15.164-0.483,27.243
				c4.667,10.889,13.232,22.882,24.118,33.768s22.878,19.451,33.768,24.118c5.855,2.509,11.144,3.762,15.666,3.762
				c4.808,0,8.749-1.417,11.577-4.245l10.504-10.504c1.835-1.835,2.846-4.275,2.846-6.871
				C106.499,121.528,105.488,119.088,103.653,117.253z M97.79,125.131l-10.504,10.504c-2.844,2.844-9.615,2.368-18.115-1.275
				c-9.943-4.261-21.013-12.202-31.171-22.36C27.842,101.842,19.9,90.772,15.639,80.829c-3.642-8.499-4.119-15.271-1.275-18.115
				L24.869,52.21c0.556-0.556,1.46-0.556,2.016,0l13.131,13.131c0.556,0.556,0.556,1.46,0,2.016l-9.944,9.944l1.251,2.64
				c8.029,16.951,21.787,30.708,38.737,38.737l2.64,1.25l9.944-9.944c0.363-0.363,0.788-0.418,1.008-0.418
				c0.22,0,0.644,0.054,1.008,0.417l13.131,13.131c0.363,0.363,0.418,0.787,0.418,1.008
				C98.207,124.343,98.153,124.768,97.79,125.131z"/>
		</g>
	</g>
	<g>
		<g>
			<path style="fill:#5BE392;" d="M132.962,14.969c-8.059-6.907-18.733-10.711-30.057-10.711c-11.324,0-21.998,3.804-30.057,10.711
				c-8.241,7.064-12.78,16.51-12.78,26.598s4.539,19.534,12.78,26.598c1.477,1.266,3.042,2.427,4.683,3.479
				c-3.029,4.564-6.571,8.759-10.554,12.491c8.688-0.718,16.926-3.021,24.429-6.612c3.699,0.891,7.559,1.353,11.498,1.353
				c11.324,0,21.998-3.804,30.057-10.711c8.242-7.064,12.78-16.51,12.78-26.598S141.204,22.033,132.962,14.969z M102.905,70.586
				c-19.049,0-34.546-13.018-34.546-29.019s15.497-29.019,34.546-29.019s34.546,13.018,34.546,29.019
				C137.452,57.568,121.954,70.586,102.905,70.586z"/>
		</g>
	</g>
	<g>
		<g>
			<circle style="fill:#5BE392;" cx="102.907" cy="41.567" r="5.527"/>
		</g>
	</g>
	<g>
		<g>
			<circle style="fill:#5BE392;" cx="83.561" cy="41.567" r="5.527"/>
		</g>
	</g>
	<g>
		<g>
			<circle style="fill:#5BE392;" cx="122.253" cy="41.567" r="5.527"/>
		</g>
	</g>
</g>
</svg>
