<?xml version="1.0" encoding="iso-8859-1"?>
<!-- Generator: Adobe Illustrator 24.0.1, SVG Export Plug-In . SVG Version: 6.00 Build 0)  -->
<svg version="1.1" id="regular" xmlns="http://www.w3.org/2000/svg" xmlns:xlink="http://www.w3.org/1999/xlink" x="0px" y="0px"
	 viewBox="0 0 150 150" style="enable-background:new 0 0 150 150;" xml:space="preserve">
<g>
	<g>
		<path style="fill:#5BE392;" d="M142.759,63.228l-7.826-0.735c-0.919-3.16-2.168-6.173-3.821-9.039l4.96-5.989
			c1.213-1.47,1.102-3.564-0.22-4.924l-9.774-9.884c-1.323-1.36-3.491-1.47-4.96-0.257l-5.989,4.96
			c-2.829-1.617-5.879-2.903-9.002-3.821l-0.735-7.79c-0.184-1.874-1.764-3.307-3.674-3.307H89.517V11.419
			c0-2.021-1.653-3.674-3.674-3.674c-2.021,0-3.674,1.653-3.674,3.674v18.372H68.279c-5.916,0-11.538,2.793-15.138,7.496
			L38.002,57.239l-25.464,6.945c-6.614,1.8-11.17,7.79-11.207,14.661v9.737c0.037,8.378,6.871,15.139,15.249,15.139h1.984
			c2.756,10.252,13.301,16.278,23.553,13.522c6.577-1.8,11.758-6.945,13.522-13.522h26.529v30.497c0,2.021,1.653,3.674,3.674,3.674
			c2.021,0,3.674-1.653,3.674-3.674v-8.819h12.199c1.911,0,3.491-1.433,3.674-3.344l0.735-7.826c3.16-0.919,6.173-2.168,9.039-3.785
			l5.989,4.96c1.47,1.213,3.601,1.102,4.924-0.22l9.884-9.884c1.323-1.323,1.433-3.491,0.22-4.96l-4.96-5.989
			c1.617-2.866,2.903-5.879,3.821-9.002l7.716-0.735c1.874-0.184,3.344-1.764,3.344-3.674V66.866
			C146.102,64.992,144.633,63.412,142.759,63.228z M37.083,110.591c-6.54,0-11.868-5.328-11.868-11.868s5.328-11.868,11.868-11.868
			s11.868,5.328,11.868,11.868C48.952,105.263,43.66,110.591,37.083,110.591z M82.168,96.334H56.153
			C54.867,85.789,45.277,78.33,34.768,79.579c-8.745,1.066-15.653,7.973-16.755,16.755h-1.47c-4.336,0.037-7.863-3.454-7.9-7.79
			v-9.7c0.037-3.527,2.388-6.614,5.806-7.569L41.125,64c0.772-0.22,1.47-0.661,1.947-1.323l15.947-20.907
			c2.205-2.903,5.659-4.593,9.296-4.593h13.852V96.334z M89.517,58.304c8.598-2.866,17.894,1.8,20.76,10.435
			c2.866,8.635-1.8,17.894-10.435,20.76c-3.344,1.102-6.981,1.102-10.325,0V58.304z M138.754,77.558L138.754,77.558l-6.981,0.661
			c-1.58,0.147-2.903,1.323-3.233,2.866c-0.919,4.115-2.572,8.01-4.887,11.538c-0.882,1.36-0.772,3.086,0.257,4.336l4.483,5.438
			l-5.144,5.144l-5.438-4.446c-1.249-1.029-3.013-1.139-4.373-0.22c-3.491,2.315-7.386,3.968-11.501,4.85
			c-1.58,0.331-2.719,1.653-2.866,3.233l-0.661,7.055h-8.892V97.106c12.824,2.866,25.537-5.218,28.366-18.041
			c2.866-12.824-5.218-25.537-18.041-28.403c-3.417-0.772-6.945-0.772-10.325,0V29.828h8.855l0.698,7.018
			c0.147,1.58,1.323,2.903,2.866,3.233c4.115,0.919,8.01,2.572,11.538,4.85c1.36,0.882,3.086,0.772,4.336-0.257l5.401-4.483
			l5.071,5.107l-4.519,5.475c-1.029,1.249-1.139,3.013-0.22,4.373c2.315,3.491,3.968,7.386,4.85,11.501
			c0.367,1.58,1.653,2.719,3.27,2.866l7.092,0.698V77.558z"/>
	</g>
</g>
</svg>
