<?xml version="1.0" encoding="iso-8859-1"?>
<!-- Generator: Adobe Illustrator 24.0.1, SVG Export Plug-In . SVG Version: 6.00 Build 0)  -->
<svg version="1.1" id="regular" xmlns="http://www.w3.org/2000/svg" xmlns:xlink="http://www.w3.org/1999/xlink" x="0px" y="0px"
	 viewBox="0 0 150 150" style="enable-background:new 0 0 150 150;" xml:space="preserve">
<g>
	<g>
		<path style="fill:#5BE392;" d="M99.927,87.355L80.419,72.724V42.92c0-2.997-2.422-5.419-5.419-5.419s-5.419,2.422-5.419,5.419
			v32.513c0,1.707,0.802,3.316,2.168,4.335l21.675,16.257c0.975,0.732,2.113,1.084,3.246,1.084c1.653,0,3.278-0.742,4.341-2.173
			C102.81,92.546,102.322,89.149,99.927,87.355z"/>
	</g>
</g>
<g>
	<g>
		<path style="fill:#5BE392;" d="M75,5.042C36.423,5.042,5.042,36.423,5.042,75S36.423,144.958,75,144.958
			S144.958,113.577,144.958,75S113.577,5.042,75,5.042z M75,134.12c-32.595,0-59.12-26.525-59.12-59.12S42.405,15.88,75,15.88
			c32.6,0,59.12,26.525,59.12,59.12S107.595,134.12,75,134.12z"/>
	</g>
</g>
</svg>
