<?xml version="1.0" encoding="iso-8859-1"?>
<!-- Generator: Adobe Illustrator 24.0.1, SVG Export Plug-In . SVG Version: 6.00 Build 0)  -->
<svg version="1.1" id="&#x56FE;&#x5C42;_1" xmlns="http://www.w3.org/2000/svg" xmlns:xlink="http://www.w3.org/1999/xlink" x="0px"
	 y="0px" viewBox="0 0 150 150" style="enable-background:new 0 0 150 150;" xml:space="preserve">
<g>
	<path style="fill:#BC1C22;" d="M53.492,71.483c0,0,30.806-10.012,56.028,0.963L97.583,84.961l-45.438,0.193"/>
	<path style="fill:#56B432;" d="M52.626,81.303c0,0,26.377-7.894,46.497,1.444l-6.835,13.67l-39.662,0.482"/>
	<path style="fill:#E61F65;" d="M53.588,93.914c0,0,15.788-4.236,28.399,0.193l-5.198,14.44l-23.104-0.096"/>
	<path style="fill:#773E94;" d="M53.877,106.814c0,0,15.21-2.022,24.067-0.289l-6.354,15.788l-20.024,0.193"/>
	<polyline style="fill:#CC4C96;" points="54.262,108.194 53.877,122.056 46.817,124.238 47.203,105.883 	"/>
	<path style="fill:#56B432;" d="M54.391,93.946v15.274c0,0-3.338-1.796-6.804,1.027L46.69,91.764"/>
	<path style="fill:#EC682E;" d="M54.648,76.233l-0.128,18.483c0,0-4.236-1.284-7.06,0l-2.567-21.051"/>
	<path style="fill:#3874BA;" d="M46.176,75.848c0,0,6.546-0.77,8.472,0.385l-0.097-11.007c0,0-11.584-4.396-22.045,1.637
		l0.963,4.107"/>
	<path style="fill:#56B432;" d="M119.433,78.167c0,0,7.295,0.545,9.192,2.065l1.866-10.848c0,0-11.876-6.631-24.394-2.778
		l-0.428,7.187"/>
	<path style="fill:#FABF13;" d="M30.003,56.466l2.503,10.397c0,0,12.419-4.717,22.045-1.637l-0.674-13.863
		C53.877,51.363,37.415,49.149,30.003,56.466z"/>
	<path style="fill:#59BDEC;" d="M95.979,83.806c-1.757,0.856-3.754,1.595-5.776,1.183c-2.252-0.458-2.97-1.843-4.595-3.143
		c-4.364-3.493-4.946,6.843-5.26,9.019c-0.634,4.385-1.504,8.786-2.625,13.064c-0.713,2.724-1.553,9.091-5.109,9.916
		c-1.768,0.41-4.553-0.983-4.49,2.178c0.035,1.761,1.834,4.242,3.203,5.291c2.64,2.023,0.687-3.049,1.572-4.103
		c0.747-0.89,2.701-0.603,3.724-0.771c1.858-0.305,2.554-0.962,3.282-2.624c1.131-2.582,1.892-5.445,2.627-8.191
		c0.744-2.776,1.726-5.401,1.894-8.25c0.14-2.382,0.154-4.803,0.413-7.153c0.309-2.804,1.746-2.617,4.078-1.831
		c1.66,0.558,4.023,1.133,5.648,0.291"/>
	<path style="fill:#0B3692;" d="M93.725,127.917c0,0-2.054-30.934,1.284-39.919c0,0-5.648,1.412-9.37-1.413
		c0,0-1.797-0.513-1.925,3.338c0,0-1.283,19.896-6.289,24.003c0,0-1.412,2.695-5.263,2.054c0,0-4.108,0-0.77,5.263"/>
	<path style="fill:#FABF29;" d="M24.868,118.334l9.37,17.456c0,0,5.648,1.027,9.113-1.925l-2.439-22.976
		C40.913,110.889,26.922,114.226,24.868,118.334z"/>
	<path style="fill:#EC682E;" d="M14.343,93.304l10.525,25.03c0,0,10.654,3.851,15.147-5.52L34.88,85.218"/>
	<path style="fill:#FABF13;" d="M35.907,68.146c0,0,9.883-0.899,11.295,7.701l2.054,46.594l-2.439,1.027"/>
	<path style="fill:#22479C;" d="M36.1,23.093c1.57-0.446,1.82,1.198,2.645,2.118c1.012,1.128,2.915,1.824,4.223,0.784
		c0.444-0.353,0.837-0.858,1.074-1.376c0.27-0.593,0.162-1.319,0.513-1.861c0.902-1.393,1.93,0.012,2.774,0.528
		c1.774,1.084,3.236-0.201,4.061-1.719c0.636-1.17,1.883-3.627,3.629-2.523c-0.079-1.41-2.569-1.051-3.342-0.651
		c-1.236,0.639-1.878,2.21-3.322,2.44c-1.593,0.253-1.726-1.363-2.629-2.228c-1.196-1.146-2.573-0.268-3.258,0.961
		c-0.423,0.757-0.45,2.044-1.487,2.184c-1.249,0.169-1.278-1.145-1.494-1.993c-0.183-0.72-0.619-1.666-1.337-1.99
		c-0.924-0.416-1.419,0.17-2.242,0.385"/>
	<path style="fill:#E73177;" d="M36.42,27.714l-3.208-9.434c0,0,1.861,0.064,2.759-0.77l0.899,10.012"/>
	<g>
		<path style="fill:#E8342B;" d="M36.421,26.815c0,0-15.274,16.558-12.322,29.907c0,0,10.14-6.418,28.238-7.188
			c0,0,4.107-2.952,1.925-6.674C54.262,42.86,43.224,27.585,36.421,26.815z"/>
		<path style="fill:#C5181F;" d="M31.03,60.83c-2.152-0.307-4.427-0.835-6.027-2.436c-1.692-1.693-1.125-4.131,0.896-5.426
			c2.339-1.498,14.673-3.565,17.838-3.948c3.508-0.424,12.263-0.505,8.986-6.164c-1.225-2.113-8.986-12.704-16.302-16.042
			c0,0,8.087-0.514,21.307,16.43c0,0,6.033,10.525-3.594,13.35l-0.385-4.878c0,0-16.045-1.283-23.746,4.749L31.03,60.83z"/>
	</g>
	<path style="fill:#44B035;" d="M37.726,16.696c0,1.69-1.369,3.059-3.059,3.059c-1.69,0-3.059-1.37-3.059-3.059
		c0-1.69,1.369-3.059,3.059-3.059C36.356,13.637,37.726,15.007,37.726,16.696z"/>
	<path style="fill:#E61F65;" d="M16.782,74.307c0,0,9.113-6.161,13.606,2.311c0,0,1.668,2.695,4.621,14.761l7.702,34.528
		l4.107-2.953l-7.958-43.641c0,0-4.364-11.167-11.296-10.911c0,0-7.188,0-11.167,5.905"/>
	<path style="fill:#BC1C22;" d="M27.564,68.403c0,0,5.519-1.925,9.627-0.128c0,0,6.675,1.54,7.316,18.098l2.953,36.582l-2.31,1.412
		C45.149,124.367,41.299,66.349,27.564,68.403z"/>
	<path style="fill:#CC4C96;" d="M14.343,93.304c0,0,12.322,5.904,21.05-3.466c0,0-2.824-21.821-14.889-18.099
		C20.504,71.74,9.081,73.666,14.343,93.304z"/>
	<path style="fill:#450508;" d="M41.651,63.012l4.813-0.385l-0.577-5.68c0,0-0.481-3.466-3.658-2.118
		C42.229,54.829,39.63,55.021,41.651,63.012z"/>
	<path style="fill:#EC682E;" d="M106.547,55.574l-0.633,11.891c0,0,14.752-1.087,24.047,5.259l3.686-15.008
		C133.647,57.717,116.783,50.122,106.547,55.574z"/>
	<path style="fill:#BD529A;" d="M123.859,20.578c1.352,0.017,1.162,1.381,1.6,2.306c0.536,1.134,1.883,2.136,3.167,1.621
		c0.436-0.175,0.867-0.483,1.177-0.839c0.355-0.407,0.441-1.008,0.847-1.356c1.045-0.893,1.529,0.466,2.077,1.075
		c1.153,1.28,2.616,0.606,3.629-0.404c0.781-0.779,2.352-2.434,3.478-1.145c0.27-1.138-1.791-1.441-2.499-1.307
		c-1.132,0.215-2.013,1.31-3.215,1.151c-1.323-0.175-1.047-1.49-1.559-2.39c-0.679-1.193-1.979-0.82-2.814-0.008
		c-0.515,0.501-0.84,1.516-1.696,1.382c-1.032-0.162-0.744-1.211-0.715-1.935c0.024-0.614-0.098-1.469-0.591-1.895
		c-0.635-0.549-1.166-0.2-1.871-0.225"/>
	<path style="fill:#EB5C21;" d="M122.34,27.123l-0.426-11.088c0,0,1.966,0.66,3.19,0.055l-2.223,10.97"/>
	<g>
		<path style="fill:#2550A2;" d="M122.819,25.972c0,0-21.562,12.816-22.654,28.001c0,0,12.861-3.626,32.42,1.303
			c0,0,5.322-1.846,4.176-6.511C136.76,48.764,129.834,28.955,122.819,25.972z"/>
		<path style="fill:#1F4EA0;" d="M106.256,60.558c-2.199-1.011-4.459-2.298-5.658-4.515c-1.267-2.344,0.112-4.766,2.681-5.505
			c2.972-0.856,16.792,0.859,20.291,1.456c3.879,0.662,13.247,3.358,11.548-3.723c-0.635-2.644-5.552-16.413-12.3-22.3
			c0,0,8.793,2.021,17.518,24.304c0,0,3.094,13.15-8.077,13.104l1.139-5.328c0,0-16.715-6.468-26.851-2.478L106.256,60.558z"/>
	</g>
	<g>
		<path style="fill:#3BBEF0;" d="M126.602,15.042c-0.485,1.627-2.196,2.552-3.822,2.068c-1.627-0.484-2.552-2.196-2.068-3.822
			c0.484-1.627,2.196-2.553,3.822-2.068C126.161,11.705,127.087,13.416,126.602,15.042z"/>
		<path style="fill:#B0DEE9;" d="M124.118,13.743c-0.214,0.719-0.97,1.128-1.689,0.914c-0.719-0.214-1.128-0.97-0.914-1.689
			c0.214-0.719,0.97-1.128,1.689-0.914C123.923,12.268,124.333,13.025,124.118,13.743z"/>
	</g>
	<path style="fill:#450508;" d="M116.898,66.262l5.259,1.119l1.189-6.245c0,0,0.588-3.851-3.23-3.423
		C120.115,57.713,117.279,57.093,116.898,66.262z"/>
	<g>
		<path style="display:none;fill:#FFFFFF;" d="M136.718,35.932c0,0,8.385-0.898,7.187,16.171"/>
		<path style="fill:#010100;" d="M136.718,35.932c0,0,0.076-0.013,0.222-0.024c0.145-0.009,0.36-0.018,0.632,0.009
			c0.541,0.048,1.33,0.212,2.166,0.68c0.414,0.236,0.835,0.542,1.233,0.918c0.401,0.375,0.766,0.825,1.101,1.317
			c0.154,0.254,0.326,0.505,0.462,0.779c0.071,0.135,0.146,0.27,0.214,0.408c0.062,0.141,0.125,0.283,0.187,0.425
			c0.248,0.571,0.443,1.17,0.618,1.774c0.08,0.304,0.145,0.611,0.217,0.914c0.064,0.305,0.112,0.612,0.169,0.915
			c0.058,0.302,0.084,0.607,0.122,0.905c0.041,0.299,0.062,0.595,0.082,0.886c0.056,0.582,0.06,1.146,0.072,1.68
			c0.012,0.534-0.014,1.038-0.023,1.503c-0.019,0.465-0.057,0.89-0.085,1.266c-0.023,0.377-0.072,0.703-0.097,0.972
			c-0.061,0.538-0.105,0.844-0.105,0.844s-0.01-0.31-0.012-0.85c-0.004-0.27,0.009-0.597-0.009-0.973
			c-0.011-0.375-0.023-0.798-0.036-1.26c-0.029-0.46-0.042-0.959-0.08-1.485c-0.042-0.525-0.081-1.079-0.15-1.648
			c-0.052-0.571-0.157-1.153-0.25-1.745c-0.058-0.294-0.108-0.592-0.174-0.887c-0.073-0.293-0.14-0.59-0.219-0.882
			c-0.162-0.583-0.343-1.161-0.573-1.707c-0.22-0.551-0.486-1.07-0.773-1.552c-0.305-0.47-0.618-0.915-0.974-1.286
			c-0.356-0.37-0.726-0.687-1.098-0.941c-0.751-0.496-1.478-0.759-2.003-0.857C137.031,35.923,136.718,35.932,136.718,35.932z"/>
	</g>
	<g>
		<path style="display:none;fill:#FFFFFF;" d="M143.007,35.034c0,0,4.791,0.898,3.893,9.284"/>
		<path style="fill:#010100;" d="M143.007,35.034c0,0,0.173,0.01,0.469,0.088c0.144,0.047,0.325,0.098,0.518,0.192
			c0.2,0.08,0.407,0.207,0.632,0.349c0.108,0.079,0.22,0.161,0.335,0.245c0.117,0.085,0.215,0.197,0.329,0.3
			c0.056,0.053,0.112,0.107,0.169,0.161c0.053,0.058,0.102,0.12,0.154,0.181c0.103,0.123,0.208,0.251,0.309,0.385
			c0.089,0.142,0.179,0.285,0.27,0.431c0.045,0.074,0.095,0.146,0.135,0.222l0.109,0.237c0.072,0.16,0.145,0.32,0.218,0.482
			c0.063,0.165,0.112,0.335,0.168,0.502c0.049,0.17,0.109,0.337,0.147,0.509c0.033,0.172,0.065,0.343,0.098,0.514
			c0.032,0.17,0.067,0.338,0.087,0.506c0.012,0.168,0.023,0.334,0.035,0.498c0.02,0.327,0.053,0.642,0.029,0.94
			c-0.01,0.299-0.027,0.58-0.043,0.839c-0.005,0.259-0.059,0.494-0.089,0.702c-0.036,0.207-0.067,0.388-0.093,0.537
			c-0.055,0.296-0.093,0.464-0.093,0.464s-0.013-0.173-0.026-0.474c-0.005-0.15-0.011-0.331-0.017-0.539
			c-0.009-0.208,0.002-0.441-0.026-0.695c-0.022-0.254-0.044-0.528-0.06-0.817c-0.006-0.29-0.073-0.589-0.107-0.901
			c-0.02-0.155-0.041-0.313-0.062-0.473c-0.034-0.157-0.068-0.315-0.103-0.475c-0.034-0.16-0.068-0.321-0.102-0.483
			c-0.039-0.16-0.099-0.314-0.146-0.472c-0.049-0.157-0.091-0.318-0.146-0.472c-0.064-0.15-0.128-0.299-0.192-0.448
			c-0.113-0.305-0.289-0.568-0.429-0.843c-0.087-0.126-0.172-0.25-0.256-0.371c-0.042-0.061-0.083-0.122-0.124-0.181
			c-0.047-0.055-0.093-0.109-0.139-0.162c-0.093-0.105-0.177-0.216-0.272-0.309c-0.095-0.093-0.188-0.183-0.276-0.27
			c-0.089-0.087-0.189-0.152-0.275-0.227c-0.086-0.076-0.174-0.138-0.259-0.194c-0.166-0.119-0.322-0.206-0.451-0.281
			c-0.132-0.064-0.236-0.123-0.31-0.152C143.048,35.047,143.007,35.034,143.007,35.034z"/>
	</g>
	<g>
		<g>
			<path style="display:none;fill:#FFFFFF;" d="M55.226,28.397c0,0,5.801-2.686,9.095,9.86"/>
			<path style="fill:#010100;" d="M55.226,28.397c0,0,0.052-0.028,0.154-0.071c0.102-0.042,0.254-0.101,0.456-0.148
				c0.4-0.097,1.006-0.171,1.72-0.039c0.355,0.069,0.731,0.186,1.109,0.359c0.379,0.171,0.75,0.406,1.111,0.677
				c0.173,0.145,0.357,0.283,0.521,0.447c0.084,0.08,0.17,0.158,0.253,0.241c0.079,0.086,0.158,0.173,0.238,0.26
				c0.317,0.349,0.603,0.732,0.876,1.123c0.131,0.198,0.252,0.403,0.378,0.604c0.12,0.204,0.229,0.412,0.344,0.616
				c0.115,0.203,0.208,0.415,0.308,0.62c0.102,0.205,0.189,0.412,0.275,0.616c0.182,0.404,0.322,0.808,0.461,1.188
				c0.138,0.38,0.243,0.749,0.35,1.084c0.099,0.338,0.175,0.653,0.247,0.929c0.075,0.276,0.119,0.522,0.167,0.722
				c0.087,0.401,0.13,0.631,0.13,0.631s-0.082-0.22-0.215-0.607c-0.069-0.193-0.139-0.431-0.243-0.696
				c-0.099-0.267-0.21-0.567-0.332-0.895c-0.133-0.323-0.264-0.678-0.419-1.046c-0.158-0.367-0.321-0.755-0.509-1.146
				c-0.176-0.397-0.394-0.79-0.604-1.192c-0.113-0.197-0.222-0.398-0.341-0.594c-0.124-0.192-0.244-0.389-0.372-0.58
				c-0.259-0.379-0.529-0.75-0.827-1.086c-0.292-0.342-0.609-0.65-0.932-0.926c-0.333-0.264-0.667-0.507-1.012-0.686
				c-0.345-0.179-0.688-0.317-1.017-0.408c-0.66-0.173-1.246-0.185-1.646-0.128C55.449,28.314,55.226,28.397,55.226,28.397z"/>
		</g>
		<g>
			<path style="display:none;fill:#FFFFFF;" d="M59.522,26.221c0,0,3.658-0.521,5.054,5.717"/>
			<path style="fill:#010100;" d="M59.522,26.221c0,0,0.126-0.035,0.358-0.051c0.115-0.001,0.257-0.009,0.419,0.012
				c0.163,0.009,0.343,0.05,0.538,0.097c0.097,0.03,0.197,0.062,0.301,0.095c0.104,0.033,0.202,0.089,0.309,0.135
				c0.053,0.025,0.107,0.049,0.161,0.075c0.052,0.029,0.102,0.062,0.155,0.093c0.104,0.063,0.211,0.13,0.315,0.201
				c0.098,0.08,0.198,0.161,0.299,0.243c0.05,0.042,0.103,0.082,0.151,0.126l0.136,0.144c0.091,0.097,0.182,0.195,0.274,0.293
				c0.085,0.103,0.162,0.213,0.243,0.32c0.076,0.11,0.16,0.216,0.229,0.329c0.065,0.116,0.131,0.231,0.195,0.345
				c0.064,0.114,0.13,0.227,0.186,0.342c0.05,0.118,0.098,0.234,0.146,0.349c0.094,0.229,0.194,0.448,0.249,0.668
				c0.065,0.217,0.122,0.423,0.173,0.613c0.06,0.187,0.077,0.369,0.107,0.525c0.024,0.158,0.046,0.295,0.064,0.408
				c0.032,0.226,0.046,0.355,0.046,0.355s-0.052-0.121-0.134-0.333c-0.04-0.106-0.088-0.235-0.144-0.383
				c-0.058-0.147-0.106-0.317-0.188-0.492c-0.077-0.177-0.16-0.368-0.242-0.572c-0.075-0.207-0.196-0.405-0.296-0.621
				c-0.052-0.107-0.105-0.215-0.159-0.324c-0.063-0.104-0.126-0.21-0.19-0.316c-0.063-0.107-0.126-0.214-0.19-0.322
				c-0.067-0.106-0.147-0.201-0.22-0.303c-0.074-0.101-0.143-0.206-0.22-0.303c-0.083-0.092-0.165-0.184-0.247-0.275
				c-0.155-0.192-0.346-0.337-0.513-0.501c-0.093-0.07-0.185-0.138-0.274-0.204c-0.045-0.034-0.089-0.067-0.133-0.1
				c-0.047-0.028-0.094-0.055-0.139-0.082c-0.093-0.052-0.179-0.112-0.27-0.155c-0.092-0.044-0.18-0.086-0.264-0.127
				c-0.085-0.041-0.173-0.063-0.253-0.096c-0.08-0.033-0.158-0.057-0.233-0.076c-0.148-0.045-0.281-0.07-0.392-0.092
				c-0.11-0.014-0.199-0.031-0.259-0.033C59.555,26.22,59.522,26.221,59.522,26.221z"/>
		</g>
	</g>
	<g>
		<g>
			<path style="display:none;fill:#FFFFFF;" d="M139.276,76.496c0,0,6.197,0.954,2.079,12.992"/>
			<path style="fill:#010100;" d="M139.276,76.496c0,0,0.057,0.005,0.164,0.025c0.106,0.021,0.262,0.056,0.453,0.127
				c0.379,0.138,0.915,0.406,1.427,0.901c0.252,0.249,0.496,0.549,0.711,0.895c0.216,0.346,0.393,0.739,0.54,1.157
				c0.063,0.212,0.138,0.425,0.183,0.648c0.025,0.11,0.054,0.221,0.076,0.335c0.018,0.113,0.035,0.227,0.053,0.341
				c0.069,0.458,0.095,0.926,0.106,1.393c0,0.234-0.013,0.466-0.018,0.699c-0.013,0.231-0.036,0.461-0.054,0.69
				c-0.016,0.228-0.056,0.452-0.085,0.674c-0.027,0.222-0.069,0.439-0.11,0.653c-0.071,0.428-0.175,0.835-0.269,1.221
				c-0.093,0.386-0.208,0.743-0.303,1.076c-0.103,0.33-0.21,0.628-0.303,0.893c-0.089,0.266-0.186,0.491-0.256,0.68
				c-0.147,0.375-0.236,0.587-0.236,0.587s0.052-0.225,0.154-0.613c0.048-0.195,0.12-0.427,0.179-0.701
				c0.064-0.271,0.137-0.578,0.215-0.912c0.067-0.336,0.153-0.698,0.226-1.082c0.07-0.386,0.147-0.791,0.206-1.212
				c0.072-0.42,0.107-0.859,0.154-1.302c0.014-0.222,0.035-0.446,0.044-0.671c0.003-0.224,0.012-0.45,0.011-0.675
				c-0.006-0.45-0.025-0.9-0.086-1.336c-0.053-0.438-0.145-0.861-0.259-1.263c-0.129-0.396-0.27-0.776-0.454-1.11
				c-0.185-0.334-0.39-0.632-0.609-0.886c-0.445-0.499-0.917-0.827-1.276-0.998C139.503,76.549,139.276,76.496,139.276,76.496z"/>
		</g>
		<g>
			<path style="display:none;fill:#FFFFFF;" d="M143.967,77.05c0,0,3.272,1.56,1.026,7.414"/>
			<path style="fill:#010100;" d="M143.967,77.05c0,0,0.122,0.04,0.32,0.153c0.095,0.061,0.215,0.132,0.336,0.237
				c0.128,0.095,0.253,0.227,0.388,0.371c0.062,0.077,0.127,0.158,0.194,0.241c0.068,0.083,0.117,0.183,0.179,0.278
				c0.03,0.049,0.06,0.098,0.091,0.148c0.027,0.052,0.05,0.105,0.076,0.16c0.051,0.108,0.102,0.22,0.149,0.336
				c0.037,0.119,0.074,0.239,0.112,0.361c0.018,0.062,0.041,0.123,0.055,0.186l0.032,0.191c0.022,0.128,0.043,0.257,0.065,0.388
				c0.014,0.13,0.016,0.262,0.025,0.393c0.003,0.132,0.013,0.263,0.008,0.393c-0.009,0.13-0.018,0.259-0.028,0.388
				c-0.009,0.128-0.017,0.255-0.034,0.38c-0.023,0.123-0.047,0.245-0.07,0.364c-0.048,0.239-0.085,0.471-0.159,0.681
				c-0.064,0.213-0.13,0.412-0.191,0.595c-0.053,0.185-0.137,0.343-0.198,0.487c-0.065,0.142-0.122,0.266-0.169,0.368
				c-0.097,0.203-0.155,0.316-0.155,0.316s0.023-0.127,0.072-0.345c0.025-0.108,0.055-0.24,0.09-0.391
				c0.033-0.151,0.086-0.316,0.114-0.504c0.033-0.186,0.069-0.388,0.113-0.598c0.051-0.21,0.06-0.437,0.095-0.668
				c0.015-0.115,0.03-0.233,0.045-0.352c0.006-0.119,0.011-0.24,0.017-0.361c0.007-0.122,0.013-0.244,0.019-0.366
				c0.003-0.123-0.011-0.245-0.015-0.367c-0.006-0.122-0.005-0.245-0.015-0.366c-0.018-0.12-0.035-0.24-0.053-0.358
				c-0.023-0.241-0.1-0.463-0.148-0.688c-0.038-0.107-0.076-0.212-0.113-0.315c-0.018-0.052-0.037-0.103-0.054-0.154
				c-0.023-0.048-0.047-0.096-0.069-0.143c-0.047-0.093-0.086-0.189-0.136-0.274c-0.051-0.085-0.1-0.167-0.147-0.246
				c-0.048-0.079-0.106-0.145-0.154-0.216c-0.047-0.071-0.098-0.133-0.149-0.189c-0.097-0.117-0.192-0.209-0.27-0.288
				c-0.083-0.072-0.146-0.134-0.194-0.168C143.994,77.068,143.967,77.05,143.967,77.05z"/>
		</g>
	</g>
	<g>
		<g>
			<path style="display:none;fill:#FFFFFF;" d="M11.627,74.817c0,0-8.672,2.579-0.426,18.98"/>
			<path style="fill:#010100;" d="M11.627,74.817c0,0-0.081,0.018-0.23,0.068c-0.147,0.051-0.364,0.132-0.622,0.271
				c-0.515,0.271-1.229,0.76-1.863,1.568c-0.312,0.405-0.602,0.882-0.841,1.419c-0.242,0.537-0.416,1.133-0.545,1.76
				c-0.048,0.315-0.114,0.634-0.135,0.961c-0.014,0.163-0.034,0.327-0.044,0.493c-0.003,0.165-0.006,0.332-0.009,0.498
				c-0.009,0.668,0.045,1.342,0.122,2.012c0.046,0.333,0.11,0.664,0.163,0.995c0.063,0.328,0.142,0.652,0.212,0.975
				c0.067,0.324,0.168,0.635,0.254,0.947c0.083,0.312,0.185,0.615,0.285,0.912c0.185,0.599,0.415,1.159,0.623,1.693
				c0.209,0.533,0.443,1.022,0.645,1.478c0.211,0.451,0.424,0.857,0.608,1.217c0.179,0.363,0.362,0.666,0.499,0.922
				c0.283,0.507,0.453,0.793,0.453,0.793s-0.119-0.311-0.34-0.847c-0.108-0.269-0.256-0.588-0.393-0.967
				c-0.145-0.375-0.308-0.799-0.486-1.261c-0.162-0.467-0.355-0.967-0.535-1.503c-0.175-0.537-0.365-1.101-0.532-1.693
				c-0.185-0.586-0.321-1.206-0.475-1.83c-0.064-0.315-0.137-0.631-0.194-0.95c-0.049-0.32-0.106-0.641-0.148-0.963
				c-0.08-0.645-0.141-1.292-0.138-1.928c-0.01-0.636,0.038-1.26,0.123-1.856c0.107-0.592,0.233-1.162,0.432-1.676
				c0.199-0.513,0.434-0.98,0.697-1.386c0.538-0.801,1.149-1.363,1.628-1.677C11.313,74.937,11.627,74.817,11.627,74.817z"/>
		</g>
		<g>
			<path style="display:none;fill:#FFFFFF;" d="M5.031,76.528c0,0-4.371,2.872-0.014,10.8"/>
			<path style="fill:#010100;" d="M5.031,76.528c0,0-0.167,0.082-0.428,0.282c-0.124,0.106-0.282,0.232-0.433,0.404
				c-0.165,0.162-0.317,0.373-0.481,0.607c-0.073,0.123-0.151,0.25-0.23,0.382c-0.08,0.133-0.132,0.284-0.202,0.433
				c-0.033,0.075-0.067,0.151-0.101,0.23c-0.028,0.079-0.052,0.16-0.077,0.243c-0.052,0.165-0.103,0.335-0.146,0.509
				c-0.03,0.177-0.06,0.356-0.09,0.537c-0.014,0.092-0.034,0.184-0.043,0.276l-0.009,0.28c-0.006,0.188-0.011,0.376-0.017,0.567
				c0.006,0.19,0.028,0.378,0.041,0.567c0.022,0.189,0.032,0.378,0.065,0.564c0.039,0.183,0.077,0.367,0.116,0.549
				c0.039,0.181,0.074,0.362,0.123,0.537c0.057,0.171,0.115,0.34,0.171,0.507c0.115,0.332,0.214,0.658,0.36,0.943
				c0.134,0.291,0.267,0.563,0.39,0.812c0.111,0.254,0.263,0.464,0.378,0.658c0.121,0.19,0.227,0.357,0.313,0.493
				c0.178,0.27,0.283,0.421,0.283,0.421s-0.058-0.177-0.17-0.48c-0.057-0.15-0.126-0.332-0.206-0.542
				c-0.077-0.21-0.184-0.436-0.261-0.699c-0.084-0.261-0.175-0.541-0.279-0.833c-0.114-0.29-0.172-0.614-0.267-0.936
				c-0.044-0.162-0.089-0.327-0.134-0.494c-0.031-0.17-0.062-0.341-0.095-0.513c-0.033-0.172-0.066-0.346-0.1-0.52
				c-0.028-0.175-0.032-0.352-0.05-0.529c-0.016-0.175-0.041-0.351-0.05-0.527c0.001-0.175,0.003-0.35,0.005-0.523
				c-0.015-0.348,0.052-0.682,0.077-1.012c0.034-0.161,0.067-0.319,0.099-0.473c0.016-0.079,0.032-0.155,0.048-0.232
				c0.024-0.073,0.048-0.145,0.071-0.217c0.049-0.143,0.086-0.287,0.142-0.418c0.056-0.131,0.11-0.259,0.162-0.381
				c0.053-0.122,0.124-0.228,0.178-0.338c0.054-0.111,0.114-0.21,0.176-0.3c0.115-0.187,0.233-0.337,0.33-0.464
				c0.104-0.118,0.183-0.22,0.244-0.279C4.995,76.559,5.031,76.528,5.031,76.528z"/>
		</g>
	</g>
	<g>
		<g>
			<path style="display:none;fill:#FFFFFF;" d="M98.005,41.537c0,0-7.786,9.882,0,18.867"/>
			<path style="fill:#010100;" d="M98.005,41.537c0,0-0.043,0.067-0.124,0.194c-0.081,0.126-0.19,0.318-0.333,0.558
				c-0.282,0.482-0.653,1.19-1.04,2.06c-0.198,0.433-0.383,0.915-0.577,1.422c-0.18,0.513-0.361,1.056-0.512,1.628
				c-0.16,0.569-0.277,1.168-0.382,1.777c-0.044,0.306-0.096,0.613-0.119,0.925c-0.036,0.31-0.051,0.623-0.061,0.936
				c-0.024,0.313-0.004,0.626-0.009,0.938c0.015,0.311,0.033,0.621,0.061,0.928c0.074,0.611,0.158,1.213,0.302,1.783
				c0.074,0.284,0.137,0.567,0.23,0.835c0.09,0.269,0.159,0.539,0.267,0.787c0.103,0.25,0.19,0.499,0.297,0.73
				c0.108,0.232,0.213,0.455,0.313,0.67c0.104,0.213,0.224,0.407,0.325,0.599c0.102,0.191,0.198,0.375,0.305,0.535
				c0.211,0.324,0.376,0.623,0.547,0.844c0.326,0.453,0.508,0.719,0.508,0.719s-0.221-0.231-0.6-0.648
				c-0.196-0.204-0.391-0.484-0.639-0.79c-0.246-0.307-0.485-0.684-0.747-1.093c-0.119-0.212-0.244-0.433-0.373-0.662
				c-0.128-0.23-0.229-0.483-0.35-0.735c-0.226-0.511-0.436-1.067-0.594-1.659c-0.166-0.59-0.29-1.213-0.367-1.853
				c-0.033-0.32-0.055-0.644-0.075-0.969c0.001-0.325-0.023-0.653-0.001-0.979c0.014-0.327,0.033-0.653,0.074-0.976
				c0.027-0.324,0.084-0.643,0.134-0.96c0.111-0.632,0.266-1.245,0.446-1.827c0.17-0.585,0.392-1.132,0.603-1.646
				c0.223-0.51,0.449-0.985,0.684-1.409c0.226-0.428,0.46-0.806,0.674-1.135c0.213-0.33,0.411-0.609,0.576-0.837
				C97.786,41.772,98.005,41.537,98.005,41.537z"/>
		</g>
		<g>
			<path style="display:none;fill:#FFFFFF;" d="M89.919,45.13c0,0-5.091,7.187,1.198,14.374"/>
			<path style="fill:#010100;" d="M89.919,45.13c0,0-0.121,0.213-0.298,0.598c-0.179,0.384-0.413,0.942-0.641,1.625
				c-0.112,0.342-0.222,0.716-0.32,1.114c-0.103,0.397-0.178,0.823-0.251,1.263c-0.065,0.441-0.108,0.899-0.128,1.364
				c-0.016,0.233-0.007,0.468-0.012,0.703c0.014,0.235,0.014,0.472,0.04,0.707c0.021,0.235,0.036,0.471,0.075,0.704l0.05,0.349
				l0.069,0.343c0.094,0.456,0.208,0.901,0.349,1.323c0.06,0.215,0.151,0.414,0.222,0.617c0.069,0.204,0.157,0.395,0.24,0.582
				c0.08,0.189,0.164,0.37,0.255,0.541c0.088,0.172,0.166,0.343,0.254,0.5c0.184,0.309,0.334,0.606,0.499,0.849
				c0.161,0.245,0.289,0.471,0.417,0.641c0.241,0.351,0.379,0.552,0.379,0.552s-0.172-0.174-0.472-0.478
				c-0.154-0.15-0.317-0.352-0.509-0.581c-0.2-0.224-0.389-0.504-0.606-0.803c-0.199-0.31-0.428-0.643-0.617-1.024
				c-0.205-0.373-0.394-0.783-0.557-1.219c-0.078-0.22-0.168-0.44-0.231-0.672c-0.069-0.23-0.141-0.463-0.186-0.705l-0.079-0.361
				l-0.059-0.367c-0.044-0.245-0.065-0.494-0.089-0.742c-0.024-0.249-0.02-0.499-0.031-0.747c0.008-0.248,0.003-0.496,0.023-0.74
				c0.024-0.49,0.103-0.967,0.187-1.425c0.183-0.913,0.466-1.737,0.771-2.41c0.301-0.676,0.618-1.204,0.857-1.56
				C89.757,45.314,89.919,45.13,89.919,45.13z"/>
		</g>
	</g>
	<g>
		<g>
			<path style="display:none;fill:#FFFFFF;" d="M19.51,43.811c0,0-4.624,5.869,0,11.205"/>
			<path style="fill:#010100;" d="M19.51,43.811c0,0-0.026,0.04-0.074,0.115c-0.048,0.075-0.113,0.189-0.197,0.332
				c-0.168,0.286-0.388,0.706-0.618,1.223c-0.118,0.257-0.227,0.543-0.343,0.845c-0.107,0.305-0.215,0.627-0.304,0.967
				c-0.095,0.338-0.165,0.694-0.227,1.055c-0.026,0.182-0.057,0.364-0.071,0.549c-0.022,0.184-0.03,0.37-0.036,0.556
				c-0.014,0.186-0.002,0.372-0.005,0.557c0.009,0.185,0.02,0.369,0.036,0.551c0.044,0.363,0.094,0.72,0.18,1.059
				c0.044,0.169,0.082,0.337,0.137,0.495c0.053,0.159,0.094,0.32,0.159,0.467c0.061,0.148,0.113,0.297,0.177,0.434
				c0.064,0.137,0.126,0.27,0.186,0.398c0.062,0.126,0.133,0.242,0.193,0.356c0.06,0.114,0.117,0.223,0.181,0.318
				c0.125,0.193,0.223,0.37,0.325,0.501c0.194,0.269,0.302,0.427,0.302,0.427s-0.131-0.137-0.357-0.385
				c-0.116-0.121-0.232-0.288-0.38-0.469c-0.146-0.183-0.288-0.406-0.443-0.649c-0.071-0.126-0.145-0.257-0.221-0.393
				c-0.076-0.136-0.136-0.287-0.208-0.437c-0.134-0.304-0.259-0.633-0.353-0.985c-0.098-0.35-0.172-0.721-0.218-1.1
				c-0.02-0.19-0.033-0.383-0.044-0.576c0.001-0.193-0.014-0.388-0.001-0.582c0.008-0.194,0.02-0.388,0.044-0.579
				c0.016-0.193,0.05-0.382,0.08-0.57c0.066-0.375,0.158-0.739,0.265-1.085c0.101-0.348,0.233-0.672,0.358-0.978
				c0.132-0.303,0.267-0.585,0.406-0.837c0.135-0.254,0.273-0.479,0.4-0.674c0.127-0.196,0.244-0.362,0.342-0.497
				C19.38,43.951,19.51,43.811,19.51,43.811z"/>
		</g>
		<g>
			<path style="display:none;fill:#FFFFFF;" d="M14.708,45.945c0,0-3.024,4.268,0.711,8.537"/>
			<path style="fill:#010100;" d="M14.708,45.945c0,0-0.072,0.126-0.177,0.355c-0.107,0.228-0.246,0.559-0.381,0.965
				c-0.066,0.203-0.132,0.425-0.19,0.662c-0.061,0.236-0.105,0.489-0.149,0.75c-0.039,0.262-0.064,0.534-0.076,0.81
				c-0.009,0.138-0.004,0.278-0.007,0.418c0.009,0.14,0.008,0.28,0.024,0.42c0.013,0.14,0.021,0.28,0.045,0.418l0.03,0.207
				l0.041,0.204c0.056,0.271,0.123,0.535,0.207,0.786c0.035,0.128,0.09,0.246,0.132,0.366c0.041,0.121,0.093,0.235,0.142,0.346
				c0.047,0.112,0.097,0.22,0.151,0.321c0.052,0.102,0.098,0.204,0.151,0.297c0.109,0.183,0.198,0.36,0.296,0.504
				c0.096,0.146,0.172,0.28,0.247,0.38c0.143,0.209,0.225,0.328,0.225,0.328s-0.102-0.103-0.28-0.284
				c-0.091-0.089-0.188-0.209-0.303-0.345c-0.119-0.133-0.231-0.299-0.36-0.477c-0.118-0.184-0.254-0.381-0.366-0.608
				c-0.122-0.222-0.234-0.465-0.331-0.724c-0.046-0.13-0.1-0.261-0.137-0.399c-0.041-0.137-0.084-0.275-0.111-0.419l-0.047-0.214
				l-0.035-0.218c-0.026-0.145-0.039-0.293-0.053-0.441c-0.014-0.148-0.012-0.296-0.019-0.444c0.005-0.147,0.002-0.294,0.014-0.44
				c0.014-0.291,0.061-0.574,0.111-0.846c0.109-0.542,0.277-1.032,0.458-1.431c0.179-0.401,0.367-0.715,0.509-0.926
				C14.612,46.054,14.708,45.945,14.708,45.945z"/>
		</g>
	</g>
	<g>
		<path style="fill:#56B432;" d="M128.196,75.206c0,0,9.242,3.466,7.958,10.653c0,0-0.513,10.525-6.675,22.591l-11.809,26.827
			l-3.594,1.155"/>
		<path style="fill:#BC1C22;" d="M119.853,72.254c0,0,14.889-0.514,12.451,16.43c0,0,0.77,7.06-18.227,47.749l-3.209,0.257"/>
		<path style="fill:#E61F65;" d="M99.444,76.361c0,0,9.755-11.039,25.415-1.797c0,0,6.803,3.594,2.054,19.895l-16.045,42.23
			l-4.749,1.027"/>
		<path style="fill:#56B432;" d="M92.384,114.098l22.334,3.851l-7.701,19.639c0,0-9.756,1.797-15.531-2.567L92.384,114.098z"/>
		<path style="fill:#CC4C96;" d="M92.513,114.868c0,0,6.289,6.803,22.206,3.081l6.803-24.26l-27.853-4.107
			C93.668,89.582,92.769,106.525,92.513,114.868z"/>
		<path style="fill:#3874BA;" d="M93.668,89.582c0,0,9.241,8.728,27.853,4.107c0,0,6.418-16.943-6.674-19.639
			C114.847,74.05,95.337,68.531,93.668,89.582z"/>
	</g>
	<g>
		<path style="fill:#0B3692;" d="M59.557,121.03c0,0-4.236-6.964-2.086-10.975c0,0,4.043-2.343,8.568-1.156
			c0,0,2.631,4.685-0.835,11.713"/>
		<path style="fill:#B8D334;" d="M93.732,124.431c0,0,5.295,2.311,3.369,12.611c0,0-1.251,3.658-5.198,3.466
			C91.903,140.507,87.09,127.03,93.732,124.431z"/>
		<path style="fill:#EC682E;" d="M81.121,120.58c0,0,10.782,1.733,12.611,3.851c0,0-4.621,9.723-1.155,16.077l-14.055,0.385
			C78.522,140.892,73.227,126.26,81.121,120.58z"/>
		<path style="fill:#FABF29;" d="M65.911,120.098c0,0,11.745-1.155,15.692,0.481c0,0-7.316,10.878-2.214,20.409l-16.365-0.096
			C63.023,140.892,56.862,122.409,65.911,120.098z"/>
		<path style="fill:#56B432;" d="M52.593,121.543c0,0,9.114-2.31,14.505-1.412c0,0-8.985,8.6-3.081,20.794l-12.707-0.642
			C51.31,140.283,39.245,126.163,52.593,121.543z"/>
		<path style="fill:#59BDEC;" d="M54.002,121.155c0,0-20.665,1.548-12.06,15.664c0,0,1.798,2.566,10.013,3.462
			C51.955,140.281,43.608,128.475,54.002,121.155z"/>
		<path style="fill:#FABF29;" d="M57.471,110.055c0,0,0.898-2.439,3.497-2.953c0,0,3.081-0.835,5.071,1.797
			C66.039,108.899,63.44,111.499,57.471,110.055z"/>
	</g>
</g>
</svg>
