<?xml version="1.0" encoding="iso-8859-1"?>
<!-- Generator: Adobe Illustrator 24.0.1, SVG Export Plug-In . SVG Version: 6.00 Build 0)  -->
<svg version="1.1" id="&#x56FE;&#x5C42;_1" xmlns="http://www.w3.org/2000/svg" xmlns:xlink="http://www.w3.org/1999/xlink" x="0px"
	 y="0px" viewBox="0 0 150 150" style="enable-background:new 0 0 150 150;" xml:space="preserve">
<g>
	<radialGradient id="SVGID_1_" cx="70.0005" cy="70.6715" r="44.0949" gradientUnits="userSpaceOnUse">
		<stop  offset="0" style="stop-color:#9B1F24"/>
		<stop  offset="0.7853" style="stop-color:#E94B4D"/>
		<stop  offset="0.8175" style="stop-color:#E94747"/>
		<stop  offset="0.8701" style="stop-color:#E73C38"/>
		<stop  offset="0.936" style="stop-color:#E52722"/>
		<stop  offset="0.9755" style="stop-color:#E30E14"/>
	</radialGradient>
	<path style="fill:url(#SVGID_1_);" d="M70,26.468c-24.293,0-43.986,19.79-43.986,44.203S45.708,114.875,70,114.875
		c24.293,0,43.987-19.79,43.987-44.203S94.293,26.468,70,26.468z M70,97.781c-14.899,0-26.977-12.137-26.977-27.109
		C43.024,55.7,55.102,43.562,70,43.562c14.899,0,26.977,12.137,26.977,27.109C96.977,85.644,84.899,97.781,70,97.781z"/>
</g>
<g style="opacity:0.52;">
	<radialGradient id="SVGID_2_" cx="70.0003" cy="70.6717" r="35.7018" gradientUnits="userSpaceOnUse">
		<stop  offset="0.8175" style="stop-color:#9B1F24"/>
		<stop  offset="0.8531" style="stop-color:#9E2025"/>
		<stop  offset="0.8884" style="stop-color:#A72427"/>
		<stop  offset="0.9237" style="stop-color:#B62C2D"/>
		<stop  offset="0.959" style="stop-color:#CB3837"/>
		<stop  offset="0.9939" style="stop-color:#E54849"/>
		<stop  offset="1" style="stop-color:#E94B4D"/>
	</radialGradient>
	<path style="fill:url(#SVGID_2_);" d="M70,34.882c-19.669,0-35.614,16.023-35.614,35.789c0,19.766,15.945,35.789,35.614,35.789
		c19.669,0,35.614-16.024,35.614-35.789C105.614,50.906,89.669,34.882,70,34.882z M70,97.781c-14.899,0-26.977-12.137-26.977-27.109
		C43.024,55.7,55.102,43.562,70,43.562c14.899,0,26.977,12.137,26.977,27.109C96.977,85.644,84.899,97.781,70,97.781z"/>
</g>
<g>
	<path style="opacity:0.2;fill:#646360;" d="M58.413,112.147c-5.849-0.98-7.257-2.114-7.861-3.092
		c-1.598-2.583,0.094-11.524,5.988-37.075c2.004-8.684,3.895-16.887,4.756-22.024c0.085-0.508,0.192-0.997,0.318-1.459
		c-0.345-0.157-1.06-0.397-2.506-0.639c-0.856-0.143-1.762-0.257-2.623-0.365c-0.826-0.104-1.614-0.204-2.287-0.317
		c-1.225-0.205-2.168-0.457-2.796-1.023c-1.188-1.073-2.618-3.516-2.074-5.588c1.098-4.178,14.076-17.948,17.145-18.19
		c1.361-0.406,7.027,0.032,10.783,0.662c7.468,1.251,8.832,3.173,9.281,3.804c0.553,0.779,0.764,1.667,0.61,2.568
		c-0.524,3.057-2.137,11.29-4.004,20.823c-2.841,14.502-6.377,32.55-7.1,37.694l0.765,16.171c-1.226,6.828-6.013,8.657-8.956,8.87
		C66.319,113.078,62.161,112.775,58.413,112.147z"/>
	<g>
		<g>
			<path style="fill:#ED7100;" d="M61.53,108.494c-5.849-0.98-7.257-2.114-7.861-3.092c-1.598-2.583,0.094-11.524,5.988-37.075
				c2.004-8.684,3.895-16.887,4.756-22.024c0.085-0.508,0.192-0.997,0.318-1.459c-0.345-0.157-1.06-0.397-2.506-0.639
				c-0.856-0.143-1.762-0.257-2.623-0.365c-0.826-0.104-1.614-0.204-2.287-0.317c-1.225-0.205-2.168-0.457-2.796-1.023
				c-1.188-1.073-2.618-3.516-2.074-5.588c1.098-4.178,14.076-17.948,17.145-18.19c1.361-0.406,7.027,0.032,10.783,0.662
				c7.468,1.251,8.832,3.173,9.281,3.804c0.553,0.779,0.764,1.667,0.61,2.568c-0.524,3.057-2.137,11.29-4.004,20.823
				c-2.841,14.502-6.377,32.55-7.1,37.694l0.765,16.171c-1.226,6.828-6.013,8.657-8.956,8.87
				C69.436,109.426,65.278,109.123,61.53,108.494z"/>
			<path style="opacity:0.3;fill:#ED7100;" d="M79.16,84.273c0.723-5.144,4.259-23.191,7.1-37.694
				c1.867-9.533,3.48-17.766,4.004-20.823c0.154-0.9-0.057-1.788-0.61-2.568c-0.449-0.631-1.814-2.552-9.281-3.804
				c-3.756-0.629-9.422-1.068-10.783-0.661c-3.069,0.242-16.047,14.012-17.145,18.19c-0.544,2.072,0.886,4.515,2.074,5.588
				c0.627,0.566,1.571,0.818,2.795,1.023c0.673,0.113,1.46,0.213,2.287,0.317c0.33,0.041,0.67,0.085,1.008,0.13
				c4.335-2.51,8.92-4.573,13.585-6.401c8.939-3.502,14.178,10.414,5.279,13.901c-4.939,1.935-9.718,4.059-14.127,7.031
				c-1.252,0.844-2.522,1.252-3.742,1.322c-0.614,2.715-1.275,5.58-1.949,8.503c-0.471,2.04-0.911,3.962-1.329,5.796
				c2.415-1.164,4.897-2.18,7.218-3.21c3.685-1.636,8.222,0.711,9.59,4.311c1.482,3.899-0.646,7.963-4.311,9.59
				c-2.205,0.979-5.308,2.266-6.908,3.102c-0.412,0.215-2.152,1.272-3.01,1.914c-0.142,0.106-1.086,1.047-0.994,0.894
				c-0.332,0.395-0.644,0.792-0.941,1.229c-1.123,1.653-3.004,2.482-4.962,2.611c-1.111,6.36-1.181,9.48-0.341,10.838
				c0.604,0.978,2.012,2.112,7.861,3.092c3.748,0.628,7.906,0.931,9.439,0.819c2.943-0.213,7.73-2.042,8.956-8.87L79.16,84.273z"/>
			<path style="fill:#F5A000;" d="M66.408,104.302c-5.849-0.98-7.257-2.114-7.861-3.092c-1.598-2.583,0.094-11.524,5.988-37.075
				c2.004-8.684,3.895-16.887,4.756-22.024c0.085-0.508,0.192-0.997,0.318-1.459c-0.345-0.157-1.06-0.397-2.506-0.639
				c-0.856-0.143-1.762-0.257-2.623-0.365c-0.826-0.104-1.614-0.204-2.287-0.317c-1.225-0.205-2.168-0.457-2.796-1.023
				c-1.188-1.073-2.618-3.516-2.074-5.588c1.098-4.178,14.076-17.948,17.145-18.19c1.361-0.406,7.027,0.032,10.783,0.662
				c7.468,1.251,8.832,3.173,9.281,3.804c0.553,0.779,0.764,1.667,0.61,2.568c-0.524,3.057-2.137,11.29-4.004,20.823
				c-2.841,14.502-6.377,32.55-7.1,37.694l-0.088,0.636c-2.778,20.034-5.16,24.192-8.104,24.405
				C74.314,105.233,70.156,104.93,66.408,104.302z"/>
			<path style="fill:#F5A000;" d="M95.142,21.564c0.154-0.9-0.057-1.788-0.61-2.568c-0.449-0.631-1.814-2.552-9.281-3.804
				c-3.756-0.629-9.422-1.068-10.783-0.661c-1.112,0.088-3.525,1.954-6.201,4.493c1.678-1.404,3.077-2.321,3.849-2.382
				c1.361-0.406,7.027,0.032,10.783,0.662c7.468,1.251,8.832,3.173,9.281,3.804c0.553,0.779,0.764,1.667,0.61,2.568
				c-0.524,3.057-2.137,11.29-4.004,20.823c-2.841,14.502-6.377,32.55-7.1,37.694l-0.088,0.636
				c-1.801,12.987-3.436,19.298-5.164,22.192c2.679-0.744,4.926-5.617,7.517-24.303l0.088-0.636
				c0.723-5.144,4.259-23.191,7.1-37.694C93.005,32.853,94.618,24.62,95.142,21.564z"/>
			<path style="opacity:0.5;fill:#F5A000;" d="M67.398,101.963c-5.266-0.882-6.062-1.783-6.168-1.954
				c-1.286-2.36,2.916-20.581,6.294-35.221c2.011-8.717,3.911-16.951,4.786-22.171c0.071-0.424,0.16-0.833,0.265-1.217
				c0.318-1.168-0.256-2.394-1.357-2.897c-0.709-0.324-1.731-0.595-3.123-0.828c-0.913-0.153-1.875-0.274-2.724-0.38
				c-0.789-0.099-1.543-0.194-2.186-0.302c-1.181-0.198-1.477-0.361-1.55-0.422c-0.789-0.713-1.563-2.266-1.338-3.124
				c0.886-3.373,12.436-15.44,15.085-16.369c0.127-0.017,0.253-0.044,0.376-0.081c0.889-0.192,5.608,0.05,9.668,0.73
				c4.101,0.687,6.899,1.707,7.676,2.799c0.225,0.317,0.215,0.562,0.188,0.719c-0.516,3.008-2.111,11.154-3.958,20.586l-0.035,0.179
				c-2.851,14.555-6.391,32.62-7.122,37.825l-0.088,0.642c-2.84,20.486-5.184,22.231-5.835,22.279
				C75.049,102.842,71.102,102.583,67.398,101.963z"/>
			<g style="opacity:0.4;">
				<path style="fill:#FFFFFF;" d="M59.398,38.308c0.358,0.323,0.831,0.538,1.389,0.706c10.683-5.836,21.773-12.34,33.741-14.092
					c0.268-1.421,0.478-2.567,0.614-3.359c0.154-0.9-0.057-1.788-0.61-2.568c-0.449-0.631-1.814-2.552-9.281-3.804
					c-3.756-0.629-9.422-1.068-10.783-0.661c-3.069,0.242-16.047,14.012-17.145,18.19C56.78,34.793,58.21,37.235,59.398,38.308z"/>
				<path style="fill:#FFFFFF;" d="M84.038,80.08c0.024-0.169,0.051-0.353,0.08-0.549c-8.579,2.912-16.771,6.889-25.149,10.376
					c-1.188,6.674-1.283,9.912-0.423,11.303c0.604,0.978,2.012,2.112,7.861,3.092c3.748,0.628,7.906,0.931,9.439,0.819
					c2.943-0.213,5.326-4.371,8.104-24.405L84.038,80.08z"/>
				<path style="fill:#FFFFFF;" d="M86.718,63.327c0.12-0.029,0.24-0.049,0.36-0.074c1.269-6.621,2.739-14.126,4.06-20.867
					c0.105-0.536,0.209-1.067,0.312-1.594c-8.409,2.356-16.476,7.061-24.199,11.407c-0.811,3.675-1.75,7.747-2.717,11.935
					c-0.662,2.869-1.268,5.517-1.825,7.982C70.534,68.69,78.375,65.323,86.718,63.327z"/>
			</g>
		</g>
		<g>
			<g>
				<path style="fill:#FFFFFF;" d="M76.275,92.921c-0.021-0.004-0.042-0.008-0.063-0.013c-0.442-0.109-0.711-0.556-0.601-0.997
					c1.615-6.52,6.044-29.738,9.474-48.068c0.084-0.447,0.509-0.716,0.961-0.658c0.447,0.084,0.742,0.514,0.658,0.961
					c-3.435,18.351-7.87,41.603-9.494,48.161C77.105,92.727,76.695,92.991,76.275,92.921z"/>
			</g>
			<g>
				<path style="fill:#FFFFFF;" d="M87.552,35.182c-0.005-0.001-0.01-0.002-0.015-0.002c-0.447-0.083-0.742-0.513-0.66-0.96
					c1.12-6.033,1.847-9.997,1.847-9.997c0.083-0.447,0.518-0.716,0.959-0.661c0.447,0.082,0.743,0.511,0.661,0.959
					c0,0-0.728,3.965-1.848,10.001C88.416,34.963,87.994,35.256,87.552,35.182z"/>
			</g>
		</g>
	</g>
</g>
<g>
	<g>
		<g>
			<g>
				<polygon style="opacity:0.3;fill:#363636;" points="139.486,62.108 112.066,68.875 111.332,65.902 30.214,85.922 30.948,88.895 
					3.551,95.656 11.122,107.491 9.927,121.488 37.323,114.727 36.589,111.754 117.708,91.734 118.441,94.708 145.861,87.941 
					138.292,76.106 				"/>
				<polygon style="fill:#196FB8;" points="138.093,60.991 136.899,74.99 144.468,86.823 119.165,93.068 112.789,67.235 				"/>
				<polygon style="opacity:0.5;fill:#97974C;" points="138.093,60.991 136.073,61.489 135.048,73.506 142.617,85.341 
					118.714,91.24 119.165,93.068 144.468,86.823 136.899,74.99 				"/>
				<polygon style="opacity:0.5;fill:#196FB8;" points="133.831,66.365 133.011,75.949 138.196,84.051 118.16,88.996 
					113.795,71.309 				"/>
				<polygon style="fill:#41A3DC;" points="139.403,84.734 118.598,89.869 118.435,89.207 138.463,84.264 133.287,76.173 
					134.103,66.601 114.076,71.543 113.913,70.883 134.718,65.749 133.84,76.036 				"/>
				<polygon style="fill:#10345C;" points="139.124,84.511 118.32,89.645 118.157,88.985 138.184,84.042 133.008,75.95 
					133.825,66.378 113.797,71.32 113.634,70.66 134.438,65.526 133.561,75.814 				"/>
			</g>
			<g>
				<g>
					<polygon style="fill:#196FB8;" points="4.265,94.019 11.834,105.855 10.64,119.851 35.944,113.607 29.568,87.774 					"/>
					<polygon style="opacity:0.5;fill:#97974C;" points="4.265,94.019 6.285,93.52 12.783,103.681 11.589,117.678 35.493,111.779 
						35.944,113.607 10.64,119.851 11.834,105.855 					"/>
					<polygon style="opacity:0.5;fill:#196FB8;" points="10.538,96.793 15.723,104.895 14.903,114.479 34.939,109.535 
						30.574,91.848 					"/>
					<polygon style="fill:#41A3DC;" points="14.559,115.53 35.364,110.396 35.202,109.735 15.173,114.678 15.989,105.106 
						10.813,97.014 30.842,92.071 30.679,91.41 9.874,96.545 15.436,105.243 					"/>
					<polygon style="fill:#10345C;" points="14.295,115.318 35.099,110.184 34.936,109.523 14.909,114.466 15.725,104.895 
						10.549,96.801 30.577,91.859 30.414,91.199 9.609,96.333 15.172,105.031 					"/>
				</g>
				
					<linearGradient id="SVGID_3_" gradientUnits="userSpaceOnUse" x1="30.1401" y1="88.6702" x2="15.0363" y2="88.6702" gradientTransform="matrix(0.9709 -0.2396 0.2396 0.9709 -17.8066 21.8446)">
					<stop  offset="0" style="stop-color:#653C1C"/>
					<stop  offset="0.222" style="stop-color:#886540"/>
					<stop  offset="0.5045" style="stop-color:#B79F85"/>
					<stop  offset="0.7376" style="stop-color:#DDD2C5"/>
					<stop  offset="0.9088" style="stop-color:#F7F4F0"/>
					<stop  offset="1" style="stop-color:#FFFFFF"/>
				</linearGradient>
				<polygon style="fill:url(#SVGID_3_);" points="14.684,91.46 29.571,87.786 35.944,113.607 21.056,117.281 				"/>
			</g>
			<g>
				
					<linearGradient id="SVGID_4_" gradientUnits="userSpaceOnUse" x1="4453.0044" y1="88.6702" x2="4437.9014" y2="88.6702" gradientTransform="matrix(-0.9709 0.2396 0.2396 0.9709 4418.0791 -1072.9075)">
					<stop  offset="0" style="stop-color:#653C1C"/>
					<stop  offset="0.222" style="stop-color:#886540"/>
					<stop  offset="0.5045" style="stop-color:#B79F85"/>
					<stop  offset="0.7376" style="stop-color:#DDD2C5"/>
					<stop  offset="0.9088" style="stop-color:#F7F4F0"/>
					<stop  offset="1" style="stop-color:#FFFFFF"/>
				</linearGradient>
				<polygon style="fill:url(#SVGID_4_);" points="127.679,63.574 112.792,67.248 119.165,93.068 134.052,89.394 				"/>
			</g>
			<g>
				
					<rect x="23.327" y="73.045" transform="matrix(0.9709 -0.2396 0.2396 0.9709 -18.5527 20.0931)" style="fill:#196FB8;" width="100.068" height="26.608"/>
				
					<rect x="26.279" y="97.328" transform="matrix(0.9709 -0.2396 0.2396 0.9709 -21.3329 21.1489)" style="opacity:0.5;fill:#97974C;" width="100.068" height="1.966"/>
				
					<rect x="23.327" y="77.239" transform="matrix(0.9709 -0.2396 0.2396 0.9709 -18.5526 20.0931)" style="opacity:0.5;fill:#196FB8;" width="100.068" height="18.219"/>
				
					<rect x="21.111" y="77.03" transform="matrix(0.9709 -0.2396 0.2396 0.9709 -16.4658 19.3006)" style="fill:#41A3DC;" width="100.068" height="0.681"/>
				
					<rect x="21.066" y="76.846" transform="matrix(0.9709 -0.2396 0.2396 0.9709 -16.4232 19.2844)" style="fill:#10345C;" width="100.068" height="0.68"/>
				
					<rect x="25.637" y="95.369" transform="matrix(0.9709 -0.2396 0.2396 0.9709 -20.7281 20.9192)" style="fill:#41A3DC;" width="100.068" height="0.679"/>
				
					<rect x="25.588" y="95.171" transform="matrix(0.9709 -0.2396 0.2396 0.9709 -20.6821 20.9017)" style="fill:#10345C;" width="100.068" height="0.679"/>
			</g>
			<polygon style="fill:#F8FCFD;" points="27.972,111.254 35.944,113.607 34.939,109.535 			"/>
			<polygon style="fill:#F8FCFD;" points="125.126,87.277 119.165,93.068 118.16,88.996 			"/>
		</g>
	</g>
</g>
<g>
	<g>
		<path style="fill:#FFFFFF;" d="M52.151,101.623c-0.513,0-1.037-0.062-1.558-0.187c-1.045-0.246-2.036-0.719-2.942-1.403
			c-0.892-0.671-1.701-1.571-2.405-2.674c-0.697-1.09-1.228-2.323-1.579-3.666c-0.246-0.951-0.401-1.955-0.462-2.985
			c-0.062-1.035-0.011-2.102,0.152-3.168c0.164-1.079,0.449-2.083,0.848-2.982c0.421-0.949,1.037-1.787,1.83-2.489
			c0.818-0.726,1.804-1.207,2.93-1.431c0.395-0.078,0.795-0.117,1.192-0.117c0.598,0,1.208,0.089,1.812,0.263
			c0.977,0.28,1.927,0.782,2.824,1.492c0.899,0.712,1.714,1.731,2.423,3.031c0.69,1.268,1.214,2.754,1.558,4.417
			c0.179,0.906,0.281,1.825,0.307,2.738c0.027,0.925-0.044,1.862-0.214,2.785c-0.172,0.94-0.452,1.815-0.833,2.6
			c-0.399,0.824-0.969,1.562-1.691,2.19c-0.729,0.636-1.593,1.099-2.568,1.375C53.228,101.553,52.689,101.623,52.151,101.623z
			 M50.21,87.059c-0.023,0.07-0.105,0.261-0.167,0.646c-0.111,0.685-0.104,1.49,0.02,2.397c0.132,0.962,0.331,1.914,0.59,2.83
			c0.238,0.841,0.558,1.522,0.951,2.026c0.254,0.326,0.418,0.393,0.449,0.393c0.096-0.021,0.41-0.433,0.331-2.006
			c-0.087-1.701-0.487-3.328-1.19-4.834C50.696,87.447,50.337,87.14,50.21,87.059z"/>
		<path style="fill:#306EA0;" d="M50.158,81.52c0.507,0,1.019,0.074,1.536,0.223c0.857,0.246,1.684,0.686,2.48,1.315
			c0.797,0.631,1.518,1.54,2.165,2.726c0.647,1.187,1.132,2.567,1.456,4.141c0.167,0.848,0.263,1.704,0.287,2.565
			c0.025,0.861-0.041,1.72-0.198,2.576c-0.157,0.857-0.407,1.638-0.749,2.344c-0.343,0.707-0.826,1.331-1.448,1.873
			c-0.623,0.542-1.351,0.931-2.184,1.167c-0.445,0.115-0.896,0.173-1.353,0.173c-0.437,0-0.879-0.053-1.327-0.159
			c-0.914-0.216-1.771-0.625-2.57-1.229c-0.8-0.602-1.521-1.407-2.165-2.414c-0.644-1.007-1.128-2.134-1.453-3.382
			c-0.23-0.889-0.374-1.82-0.432-2.792c-0.059-0.972-0.011-1.957,0.142-2.957c0.152-1,0.411-1.909,0.774-2.729
			c0.364-0.82,0.889-1.535,1.579-2.145c0.689-0.61,1.509-1.01,2.462-1.2C49.491,81.553,49.823,81.52,50.158,81.52 M52.053,96.352
			c0.075,0,0.151-0.008,0.227-0.025c0.828-0.18,1.195-1.19,1.102-3.03c-0.094-1.84-0.521-3.575-1.282-5.207
			c-0.64-1.371-1.28-2.056-1.921-2.056c-0.122,0-0.244,0.025-0.366,0.074c-0.378,0.173-0.63,0.652-0.757,1.438
			c-0.127,0.786-0.121,1.684,0.016,2.692c0.139,1.009,0.344,1.998,0.619,2.968c0.274,0.97,0.649,1.759,1.125,2.369
			C51.22,96.093,51.632,96.352,52.053,96.352 M50.158,79.52c-0.462,0-0.927,0.045-1.382,0.135c-1.305,0.26-2.448,0.819-3.403,1.665
			c-0.901,0.797-1.601,1.75-2.081,2.831c-0.435,0.981-0.745,2.07-0.923,3.239c-0.174,1.134-0.228,2.271-0.161,3.378
			c0.065,1.095,0.231,2.164,0.492,3.173c0.378,1.448,0.951,2.778,1.704,3.957c0.769,1.204,1.66,2.191,2.647,2.934
			c1.015,0.767,2.13,1.298,3.313,1.577c0.594,0.141,1.195,0.213,1.786,0.213c0.623,0,1.246-0.08,1.853-0.237
			c1.16-0.328,2.154-0.861,2.997-1.595c0.824-0.718,1.475-1.562,1.934-2.509c0.421-0.866,0.729-1.828,0.917-2.857
			c0.181-0.99,0.259-1.997,0.23-2.994c-0.028-0.966-0.137-1.94-0.324-2.892c-0.367-1.778-0.925-3.357-1.662-4.711
			c-0.774-1.418-1.675-2.541-2.679-3.337c-1.002-0.792-2.068-1.353-3.17-1.67C51.553,79.622,50.85,79.52,50.158,79.52L50.158,79.52z
			"/>
	</g>
	<g>
		<polygon style="fill:#FFFFFF;" points="55.982,79.515 63.099,77.968 64.164,79.849 63.606,78.041 69.728,76.587 74.125,96.376 
			68.566,97.817 65.06,92.365 66.68,98.118 60.074,99.555 		"/>
		<path style="fill:#306EA0;" d="M68.972,77.793l3.968,17.857l-3.924,1.017l-6.143-9.554l-0.31,0.068l2.867,10.186l-4.578,0.996
			l-3.691-18.08l5.432-1.182l4.887,8.635l0.155-0.034l-2.757-8.936L68.972,77.793 M70.484,75.378l-1.975,0.469l-4.095,0.973
			l-0.718,0.171l-0.089-0.158l-1.44,0.313l-5.432,1.182l-1.929,0.42l0.395,1.935l3.691,18.08l0.405,1.985l1.98-0.431l4.578-0.996
			l2.075-0.452l-0.097-0.344l0.283,0.441l1.401-0.363l3.924-1.017l1.87-0.484l-0.419-1.885l-3.968-17.857L70.484,75.378
			L70.484,75.378z"/>
	</g>
</g>
<path style="fill:#FFFFFF;stroke:#306EA0;stroke-width:0.75;stroke-miterlimit:10;" d="M99.228,89.665l-21.508,4.714
	c-0.67,0.147-1.332-0.277-1.479-0.947l-0.027-0.124c-0.147-0.67,0.277-1.332,0.947-1.479l21.508-4.714
	c0.67-0.147,1.332,0.277,1.479,0.947l0.027,0.124C100.322,88.856,99.898,89.518,99.228,89.665z"/>
</svg>
