<?xml version="1.0" encoding="iso-8859-1"?>
<!-- Generator: Adobe Illustrator 24.0.1, SVG Export Plug-In . SVG Version: 6.00 Build 0)  -->
<svg version="1.1" id="&#x56FE;&#x5C42;_1" xmlns="http://www.w3.org/2000/svg" xmlns:xlink="http://www.w3.org/1999/xlink" x="0px"
	 y="0px" viewBox="0 0 150 150" style="enable-background:new 0 0 150 150;" xml:space="preserve">
<g>
	<g>
		<g style="enable-background:new    ;">
			<g style="enable-background:new    ;">
				<defs>
					<path id="SVGID_1_" style="enable-background:new    ;" d="M27.575,47.427l9.957,7.04c-1.263,0.613-2.636,1.09-4.096,1.442
						c-1.471,0.352-2.986,0.601-4.532,0.772c-1.547,0.17-3.114,0.272-4.703,0.318c-1.577,0.045-3.121,0.068-4.618,0.068l-9.957-7.04
						c1.498,0,3.041-0.023,4.618-0.068c1.589-0.045,3.156-0.147,4.703-0.318c1.546-0.17,3.061-0.42,4.532-0.772
						C24.939,48.517,26.312,48.04,27.575,47.427z"/>
				</defs>
				<clipPath id="SVGID_2_">
					<use xlink:href="#SVGID_1_"  style="overflow:visible;"/>
				</clipPath>
				<g style="clip-path:url(#SVGID_2_);">
					<linearGradient id="SVGID_3_" gradientUnits="userSpaceOnUse" x1="9.6257" y1="52.2469" x2="37.5318" y2="52.2469">
						<stop  offset="0" style="stop-color:#0DA0DC"/>
						<stop  offset="0.3781" style="stop-color:#19648B"/>
						<stop  offset="0.9995" style="stop-color:#0A112D"/>
					</linearGradient>
					<path style="fill:url(#SVGID_3_);" d="M27.575,47.427l9.957,7.04c-1.263,0.613-2.636,1.09-4.096,1.442
						c-1.471,0.352-2.986,0.601-4.532,0.772c-1.547,0.17-3.114,0.272-4.703,0.318c-1.577,0.045-3.121,0.068-4.618,0.068l-9.957-7.04
						c1.498,0,3.041-0.023,4.618-0.068c1.589-0.045,3.156-0.147,4.703-0.318c1.546-0.17,3.061-0.42,4.532-0.772
						C24.939,48.517,26.312,48.04,27.575,47.427L27.575,47.427z"/>
				</g>
			</g>
			<g>
				<linearGradient id="SVGID_4_" gradientUnits="userSpaceOnUse" x1="22.5409" y1="24.3809" x2="50.5671" y2="98.3918">
					<stop  offset="0" style="stop-color:#1A74B2"/>
					<stop  offset="0.3793" style="stop-color:#97D6F5"/>
					<stop  offset="0.7544" style="stop-color:#4988BA"/>
					<stop  offset="0.9944" style="stop-color:#00619B"/>
				</linearGradient>
				<path style="fill:url(#SVGID_4_);" d="M36.422,17.51h16.554l-13.27,84.724h-20.72l8.589-54.807
					c-1.263,0.613-2.636,1.09-4.096,1.442c-1.471,0.352-2.986,0.601-4.532,0.772c-1.547,0.17-3.114,0.272-4.703,0.318
					c-1.577,0.045-3.121,0.068-4.618,0.068l2.815-17.944h3.018c2.635,0,4.96-0.25,6.964-0.738c2.015-0.477,3.751-1.124,5.244-1.941
					c1.481-0.806,2.739-1.714,3.752-2.735c1.013-1.021,1.857-2.066,2.533-3.155c0.676-1.078,1.194-2.134,1.577-3.167
					C35.911,19.314,36.201,18.361,36.422,17.51z"/>
				<path style="fill:#01415E;" d="M22.09,100.084l8.883-56.673L26.6,45.532c-1.071,0.519-2.276,0.942-3.582,1.257
					c-1.298,0.31-2.717,0.551-4.215,0.717c-1.42,0.156-2.933,0.259-4.496,0.303c-0.528,0.015-1.052,0.028-1.571,0.038l2.012-12.832
					h0.845c2.814,0,5.359-0.272,7.565-0.81c2.19-0.518,4.169-1.253,5.863-2.181c1.707-0.928,3.168-1.998,4.335-3.174
					c1.17-1.181,2.114-2.359,2.889-3.604c0.744-1.188,1.351-2.411,1.802-3.627c0.144-0.39,0.282-0.784,0.411-1.178H50.14
					l-12.473,79.642H22.09z"/>
			</g>
			<g>
				<linearGradient id="SVGID_5_" gradientUnits="userSpaceOnUse" x1="39.7054" y1="63.392" x2="62.9326" y2="63.392">
					<stop  offset="0" style="stop-color:#0DA0DC"/>
					<stop  offset="0.3781" style="stop-color:#19648B"/>
					<stop  offset="0.9995" style="stop-color:#0A112D"/>
				</linearGradient>
				<polygon style="fill:url(#SVGID_5_);" points="52.976,17.51 62.933,24.551 49.662,109.274 39.705,102.234 				"/>
			</g>
			<g>
				<linearGradient id="SVGID_6_" gradientUnits="userSpaceOnUse" x1="18.9854" y1="105.754" x2="49.6625" y2="105.754">
					<stop  offset="0" style="stop-color:#0DA0DC"/>
					<stop  offset="0.3781" style="stop-color:#19648B"/>
					<stop  offset="0.9995" style="stop-color:#0A112D"/>
				</linearGradient>
				<polygon style="fill:url(#SVGID_6_);" points="39.705,102.234 49.662,109.274 28.942,109.274 18.985,102.234 				"/>
			</g>
		</g>
		<linearGradient id="SVGID_7_" gradientUnits="userSpaceOnUse" x1="11.4501" y1="59.7953" x2="48.8538" y2="59.7953">
			<stop  offset="0" style="stop-color:#FFFFFF"/>
			<stop  offset="0.3715" style="stop-color:#FCFDFD"/>
			<stop  offset="0.7456" style="stop-color:#F2F2F2"/>
			<stop  offset="1" style="stop-color:#E7E7E6"/>
		</linearGradient>
		<path style="fill:url(#SVGID_7_);" d="M20.804,99.616l8.883-56.673l-4.372,2.122c-1.071,0.519-2.276,0.942-3.582,1.257
			c-1.298,0.31-2.717,0.551-4.215,0.717c-1.421,0.156-2.933,0.259-4.497,0.303c-0.528,0.015-1.052,0.028-1.571,0.038l2.012-12.832
			h0.845c2.814,0,5.359-0.272,7.565-0.81c2.19-0.518,4.169-1.253,5.863-2.181c1.707-0.928,3.168-1.998,4.335-3.174
			c1.17-1.181,2.114-2.359,2.888-3.604c0.744-1.188,1.351-2.411,1.802-3.627c0.144-0.39,0.282-0.784,0.411-1.178h11.683
			L36.38,99.616H20.804z"/>
	</g>
	<g>
		<g style="enable-background:new    ;">
			<linearGradient id="SVGID_8_" gradientUnits="userSpaceOnUse" x1="69.9016" y1="63.3776" x2="105.1973" y2="63.3776">
				<stop  offset="0" style="stop-color:#0DA0DC"/>
				<stop  offset="0.3781" style="stop-color:#19648B"/>
				<stop  offset="0.9995" style="stop-color:#0A112D"/>
			</linearGradient>
			<path style="fill:url(#SVGID_8_);" d="M95.24,37.067c-0.172-0.122-0.349-0.239-0.531-0.353c-1.456-0.919-3.315-1.373-5.579-1.373
				c-2.229,0-4.21,0.454-5.941,1.373c-0.582,0.305-1.131,0.654-1.666,1.023c-0.131,0.091-0.262,0.183-0.391,0.278
				c-0.521,0.383-1.026,0.787-1.498,1.232c-0.004,0.003-0.007,0.006-0.011,0.009c-0.344,0.324-0.674,0.665-0.992,1.022
				c-0.315,0.351-0.618,0.713-0.91,1.088c-0.004,0.005-0.007,0.01-0.01,0.015c-0.524,0.673-1.004,1.39-1.455,2.135
				c-0.03,0.05-0.067,0.093-0.098,0.143c-0.02,0.034-0.037,0.071-0.057,0.105c-0.279,0.475-0.547,0.96-0.797,1.462
				c-0.286,0.577-0.558,1.154-0.816,1.731c-0.103,0.232-0.192,0.464-0.291,0.696c-0.093,0.219-0.186,0.438-0.275,0.657
				c-0.336,0.827-0.654,1.655-0.933,2.489c-0.135,0.396-0.263,0.788-0.385,1.176c-0.112,0.355-0.202,0.696-0.304,1.045
				c-0.074,0.254-0.153,0.511-0.222,0.762c-0.222,0.811-0.424,1.61-0.589,2.385c-0.093,0.437-0.18,0.857-0.262,1.262
				c-0.028,0.14-0.053,0.269-0.079,0.405c-0.051,0.259-0.103,0.519-0.149,0.764c-0.004,0.02-0.008,0.043-0.012,0.064
				c-0.04,0.212-0.074,0.409-0.109,0.61c-0.02,0.114-0.043,0.234-0.062,0.345c-0.056,0.324-0.107,0.636-0.151,0.931
				c-0.195,1.226-0.373,2.701-0.556,4.438c-0.069,0.691-0.121,1.393-0.157,2.106c-0.004,0.078,0.001,0.162-0.003,0.24
				c-0.044,1.005-0.063,2.027-0.035,3.079c0.017,0.842,0.074,1.677,0.15,2.51c0.02,0.218,0.043,0.436,0.067,0.653
				c0.025,0.229,0.041,0.46,0.071,0.689l0.012,0.008l-0.012-0.008c0.077,0.589,0.17,1.176,0.279,1.761c0,0.002,0,0.003,0.001,0.005
				c0.083,0.465,0.182,0.919,0.296,1.362c0.344,1.327,0.831,2.551,1.466,3.666c0,0,0.001,0.002,0.002,0.003
				c0.225,0.399,0.479,0.772,0.748,1.13c0.03,0.04,0.053,0.087,0.083,0.126c0.039,0.05,0.09,0.089,0.13,0.139
				c0.339,0.421,0.701,0.821,1.105,1.182c0.007,0.007,0.013,0.015,0.021,0.022l0.006,0.004c0.283,0.251,0.581,0.489,0.895,0.711
				l9.957,7.04c-0.325-0.229-0.63-0.476-0.922-0.737c-0.404-0.361-0.765-0.761-1.105-1.182c-0.071-0.088-0.145-0.174-0.213-0.265
				c-0.27-0.359-0.525-0.732-0.75-1.133c-0.212-0.372-0.407-0.756-0.586-1.151c-0.268-0.593-0.488-1.222-0.684-1.869
				s-0.368-1.31-0.492-2.008c-0.001-0.003-0.001-0.007-0.001-0.01c-0.15-0.81-0.258-1.626-0.349-2.444
				c-0.024-0.218-0.047-0.436-0.067-0.655c-0.076-0.833-0.133-1.668-0.15-2.509c-0.028-1.052-0.009-2.073,0.035-3.078
				c0.035-0.794,0.083-1.58,0.16-2.347c0.183-1.736,0.361-3.212,0.556-4.438c0.045-0.296,0.096-0.609,0.152-0.935
				c0.017-0.1,0.038-0.21,0.056-0.313c0.041-0.23,0.081-0.459,0.127-0.703c0.046-0.246,0.098-0.508,0.15-0.768
				c0.027-0.135,0.051-0.261,0.078-0.4c0.082-0.406,0.169-0.826,0.262-1.263c0.165-0.775,0.367-1.573,0.588-2.384
				c0.069-0.252,0.148-0.51,0.222-0.766c0.213-0.73,0.431-1.463,0.689-2.219c0.279-0.834,0.597-1.662,0.933-2.488
				c0.089-0.22,0.182-0.439,0.275-0.659c0.345-0.81,0.706-1.618,1.106-2.426c0.251-0.502,0.518-0.988,0.797-1.462
				c0.05-0.085,0.104-0.164,0.154-0.248c0.451-0.746,0.931-1.463,1.455-2.136c0.295-0.379,0.601-0.747,0.92-1.102
				c0.321-0.36,0.656-0.704,1.003-1.031c0.473-0.445,0.978-0.849,1.499-1.232c0.128-0.094,0.258-0.187,0.39-0.277
				c0.534-0.369,1.084-0.718,1.666-1.023c1.731-0.919,3.711-1.373,5.941-1.373c2.264,0,4.123,0.454,5.579,1.373
				c0.182,0.113,0.359,0.231,0.531,0.353L95.24,37.067z"/>
			<path style="fill:#A4A4A4;" d="M74.332,83.659l9.957,7.04c0.285,0.253,0.585,0.491,0.901,0.715l-9.957-7.04
				C74.917,84.15,74.617,83.912,74.332,83.659L74.332,83.659z"/>
		</g>
		<path style="fill:#A4A4A4;" d="M110.951,21.907l9.957,7.04c0.415,0.293,0.816,0.599,1.204,0.916
			c0.267,0.217,0.527,0.439,0.782,0.665l-9.957-7.04c-0.255-0.226-0.515-0.448-0.782-0.665
			C111.768,22.505,111.366,22.2,110.951,21.907L110.951,21.907z"/>
		<linearGradient id="SVGID_9_" gradientUnits="userSpaceOnUse" x1="48.743" y1="60.571" x2="121.9492" y2="60.571">
			<stop  offset="0" style="stop-color:#1A74B2"/>
			<stop  offset="0.3793" style="stop-color:#97D6F5"/>
			<stop  offset="0.7544" style="stop-color:#4988BA"/>
			<stop  offset="0.9944" style="stop-color:#00619B"/>
		</linearGradient>
		<path style="fill:url(#SVGID_9_);" d="M121.947,48.995c-0.045,3.711-0.375,7.57-1.001,11.554
			c-0.627,4.052-1.509,7.945-2.648,11.69c-1.127,3.745-2.53,7.241-4.21,10.487c-1.68,3.246-3.657,6.197-5.932,8.864
			c-2.286,2.656-4.891,4.937-7.848,6.821c-2.946,1.895-6.243,3.348-9.879,4.381c-3.648,1.044-7.679,1.555-12.116,1.555
			c-4.403,0-8.243-0.511-11.543-1.555c-3.289-1.033-6.096-2.485-8.42-4.381c-2.336-1.884-4.202-4.165-5.621-6.821
			c-1.418-2.667-2.448-5.618-3.099-8.864s-0.937-6.742-0.88-10.487c0.046-3.745,0.399-7.638,1.026-11.69
			c0.625-3.984,1.496-7.843,2.611-11.554c1.115-3.711,2.496-7.196,4.164-10.43c1.668-3.246,3.623-6.197,5.876-8.864
			c2.253-2.667,4.835-4.96,7.77-6.878c2.924-1.918,6.187-3.393,9.813-4.449c3.614-1.044,7.623-1.578,12.027-1.578
			c4.437,0,8.31,0.534,11.621,1.578c3.322,1.056,6.151,2.531,8.497,4.449c2.358,1.918,4.246,4.211,5.698,6.878
			c1.441,2.667,2.493,5.618,3.155,8.864C121.672,41.799,121.981,45.283,121.947,48.995z M100.409,56.167
			c0.171-1.702,0.232-3.496,0.193-5.368c-0.05-1.873-0.247-3.722-0.602-5.573c-0.343-1.839-0.95-3.496-1.809-4.948
			c-0.858-1.464-2.026-2.656-3.482-3.564c-1.456-0.919-3.315-1.373-5.579-1.373c-2.23,0-4.21,0.454-5.941,1.373
			c-1.731,0.908-3.255,2.1-4.558,3.564c-1.304,1.453-2.409,3.11-3.326,4.948c-0.918,1.85-1.689,3.7-2.315,5.573
			c-0.637,1.873-1.137,3.666-1.499,5.368c-0.363,1.702-0.642,3.167-0.825,4.381c-0.195,1.226-0.373,2.701-0.557,4.438
			c-0.172,1.736-0.244,3.541-0.194,5.425c0.038,1.895,0.224,3.768,0.567,5.618c0.332,1.861,0.915,3.541,1.762,5.028
			c0.835,1.487,1.981,2.69,3.425,3.609c1.456,0.908,3.293,1.373,5.522,1.373c2.252,0,4.255-0.465,5.998-1.373
			c1.754-0.919,3.289-2.122,4.604-3.609c1.327-1.487,2.455-3.166,3.384-5.028c0.929-1.85,1.712-3.723,2.349-5.618
			c0.626-1.884,1.126-3.689,1.501-5.425c0.364-1.736,0.643-3.212,0.838-4.438C100.06,59.334,100.238,57.87,100.409,56.167
			L100.409,56.167z"/>
		<path style="fill:#01415E;" d="M78.8,101.924c-4.137,0-7.763-0.483-10.776-1.437c-2.984-0.936-5.534-2.257-7.582-3.927
			c-2.047-1.651-3.721-3.684-4.984-6.049c-1.288-2.422-2.248-5.171-2.849-8.168c-0.607-3.021-0.886-6.369-0.831-9.948
			c0.045-3.542,0.38-7.354,0.997-11.338c0.607-3.866,1.459-7.639,2.532-11.211c1.082-3.598,2.423-6.962,3.989-9.999
			c1.573-3.062,3.443-5.884,5.56-8.387c2.091-2.477,4.519-4.627,7.219-6.391c2.688-1.763,5.76-3.154,9.133-4.137
			c3.39-0.978,7.199-1.475,11.316-1.475c4.132,0,7.785,0.491,10.859,1.459c3.003,0.955,5.58,2.299,7.652,3.994
			c2.1,1.709,3.759,3.711,5.076,6.126c1.313,2.431,2.288,5.178,2.896,8.157c0.622,3.03,0.919,6.36,0.886,9.899
			c-0.043,3.596-0.37,7.361-0.969,11.183c-0.604,3.909-1.469,7.724-2.57,11.345c-1.078,3.583-2.435,6.966-4.035,10.058
			c-1.577,3.047-3.464,5.867-5.608,8.384c-2.137,2.48-4.588,4.612-7.281,6.326c-2.707,1.743-5.802,3.114-9.208,4.081
			C86.838,101.434,82.996,101.924,78.8,101.924z M89.618,32.919c-2.645,0-5.046,0.562-7.133,1.67
			c-1.986,1.042-3.761,2.431-5.264,4.121c-1.423,1.583-2.671,3.438-3.701,5.502c-0.973,1.959-1.797,3.942-2.452,5.901
			c-0.66,1.942-1.191,3.845-1.575,5.647c-0.386,1.804-0.665,3.287-0.852,4.53c-0.184,1.145-0.361,2.555-0.572,4.55
			c-0.189,1.916-0.258,3.848-0.207,5.759c0.041,2.029,0.246,4.058,0.609,6.015c0.381,2.136,1.072,4.102,2.053,5.821
			c1.029,1.833,2.467,3.349,4.267,4.495c1.893,1.179,4.204,1.769,6.887,1.769c2.644,0,5.056-0.558,7.171-1.659
			c2.026-1.062,3.819-2.468,5.334-4.18c1.458-1.634,2.724-3.512,3.753-5.576c0.974-1.938,1.81-3.939,2.485-5.943
			c0.658-1.98,1.186-3.895,1.576-5.7c0.38-1.811,0.661-3.302,0.864-4.572c0.194-1.205,0.377-2.686,0.563-4.527
			c0.177-1.766,0.247-3.675,0.206-5.675c-0.056-2.036-0.273-4.049-0.648-5.999c-0.394-2.113-1.108-4.056-2.117-5.763
			c-1.06-1.805-2.516-3.298-4.325-4.426C94.698,33.513,92.365,32.919,89.618,32.919z"/>
		<linearGradient id="SVGID_10_" gradientUnits="userSpaceOnUse" x1="50.4854" y1="60.2226" x2="118.6091" y2="60.2226">
			<stop  offset="0" style="stop-color:#FFFFFF"/>
			<stop  offset="0.3715" style="stop-color:#FCFDFD"/>
			<stop  offset="0.7456" style="stop-color:#F2F2F2"/>
			<stop  offset="1" style="stop-color:#E7E7E6"/>
		</linearGradient>
		<path style="fill:url(#SVGID_10_);" d="M77.514,101.456c-4.137,0-7.763-0.483-10.776-1.437c-2.984-0.936-5.534-2.257-7.582-3.927
			c-2.047-1.651-3.721-3.684-4.984-6.049c-1.288-2.422-2.248-5.171-2.849-8.168c-0.607-3.021-0.886-6.369-0.831-9.948
			c0.045-3.542,0.38-7.354,0.997-11.338c0.607-3.866,1.459-7.639,2.532-11.211c1.082-3.598,2.423-6.962,3.989-9.999
			c1.573-3.062,3.443-5.884,5.56-8.387c2.091-2.477,4.519-4.627,7.219-6.391c2.687-1.763,5.759-3.154,9.133-4.137
			c3.39-0.978,7.199-1.475,11.316-1.475c4.132,0,7.784,0.491,10.859,1.459c3.003,0.955,5.58,2.299,7.652,3.994
			c2.101,1.709,3.759,3.711,5.076,6.126c1.313,2.431,2.288,5.178,2.896,8.157c0.622,3.03,0.919,6.36,0.886,9.899
			c-0.043,3.596-0.37,7.361-0.969,11.183c-0.604,3.908-1.469,7.724-2.569,11.345c-1.078,3.583-2.436,6.966-4.035,10.058
			c-1.577,3.047-3.464,5.867-5.608,8.384c-2.137,2.48-4.588,4.612-7.281,6.325c-2.707,1.743-5.802,3.114-9.208,4.081
			C85.552,100.966,81.711,101.456,77.514,101.456z M88.332,32.451c-2.645,0-5.046,0.562-7.133,1.67
			c-1.986,1.042-3.761,2.431-5.264,4.12c-1.423,1.583-2.671,3.438-3.701,5.502c-0.973,1.959-1.796,3.942-2.452,5.901
			c-0.66,1.942-1.191,3.845-1.575,5.647c-0.386,1.804-0.665,3.287-0.852,4.53c-0.184,1.145-0.361,2.555-0.572,4.55
			c-0.189,1.916-0.258,3.848-0.207,5.759c0.041,2.029,0.246,4.058,0.609,6.015c0.381,2.136,1.072,4.102,2.053,5.821
			c1.029,1.833,2.467,3.349,4.267,4.495c1.893,1.179,4.204,1.769,6.887,1.769c2.644,0,5.056-0.558,7.172-1.659
			c2.026-1.062,3.819-2.468,5.334-4.18c1.458-1.634,2.723-3.512,3.753-5.576c0.974-1.938,1.81-3.939,2.485-5.943
			c0.658-1.98,1.186-3.895,1.576-5.7c0.38-1.811,0.661-3.302,0.864-4.572c0.193-1.205,0.377-2.686,0.563-4.527
			c0.177-1.766,0.247-3.675,0.206-5.675c-0.056-2.036-0.273-4.049-0.648-5.999c-0.395-2.113-1.108-4.056-2.117-5.763
			c-1.06-1.805-2.516-3.298-4.325-4.426C93.412,33.045,91.079,32.451,88.332,32.451z"/>
		<linearGradient id="SVGID_11_" gradientUnits="userSpaceOnUse" x1="59.5106" y1="66.6466" x2="131.9057" y2="66.6466">
			<stop  offset="0" style="stop-color:#0DA0DC"/>
			<stop  offset="0.3781" style="stop-color:#19648B"/>
			<stop  offset="0.9995" style="stop-color:#0A112D"/>
		</linearGradient>
		<path style="fill:url(#SVGID_11_);" d="M131.826,52.677c-0.015-0.315-0.038-0.625-0.059-0.936
			c-0.057-0.846-0.135-1.677-0.233-2.496c-0.021-0.182-0.028-0.374-0.051-0.554c-0.012-0.088-0.031-0.17-0.043-0.258
			c-0.132-0.961-0.284-1.907-0.472-2.828c-0.663-3.246-1.715-6.197-3.156-8.864c-0.336-0.618-0.702-1.212-1.086-1.79
			c-0.123-0.184-0.257-0.359-0.384-0.54c-0.194-0.275-0.379-0.557-0.584-0.822c-0.078-0.1-0.168-0.191-0.247-0.29
			c-0.202-0.252-0.415-0.494-0.627-0.737c-0.263-0.301-0.53-0.599-0.81-0.887c-0.228-0.234-0.465-0.461-0.704-0.686
			c-0.161-0.152-0.308-0.315-0.474-0.462l-0.193-0.137c-0.199-0.174-0.382-0.36-0.589-0.528c-0.388-0.317-0.79-0.623-1.205-0.916
			l-9.957-7.04c0.415,0.293,0.816,0.599,1.205,0.916c0.44,0.358,0.848,0.743,1.257,1.128c0.238,0.225,0.475,0.451,0.702,0.685
			c0.28,0.288,0.548,0.586,0.811,0.887c0.212,0.243,0.425,0.485,0.627,0.737c0.289,0.361,0.564,0.733,0.831,1.112
			c0.127,0.18,0.261,0.355,0.384,0.54c0.384,0.578,0.75,1.171,1.086,1.79c1.441,2.667,2.493,5.618,3.155,8.864
			c0.189,0.921,0.341,1.867,0.472,2.827c0.037,0.268,0.063,0.544,0.095,0.815c0.097,0.819,0.175,1.65,0.233,2.496
			c0.021,0.31,0.044,0.619,0.059,0.932c0.055,1.101,0.089,2.216,0.078,3.36c-0.012,0.928-0.04,1.865-0.088,2.81
			c-0.063,1.26-0.169,2.54-0.296,3.83c-0.032,0.325-0.066,0.65-0.102,0.977c-0.143,1.299-0.307,2.608-0.515,3.936
			c-0.15,0.967-0.316,1.923-0.494,2.871c-0.254,1.346-0.544,2.669-0.856,3.979c-0.075,0.314-0.153,0.627-0.231,0.94
			c-0.329,1.315-0.677,2.62-1.067,3.9c-0.152,0.505-0.322,0.994-0.484,1.49c-0.24,0.734-0.49,1.46-0.752,2.174
			c-0.13,0.354-0.261,0.706-0.395,1.055c-0.285,0.735-0.584,1.458-0.893,2.171c-0.122,0.282-0.238,0.568-0.363,0.846
			c-0.42,0.93-0.856,1.845-1.317,2.737c-0.002,0.004-0.004,0.009-0.006,0.014c-0.007,0.013-0.015,0.025-0.021,0.038
			c-0.426,0.821-0.871,1.622-1.335,2.405c-0.13,0.22-0.272,0.429-0.406,0.646c-0.359,0.585-0.721,1.167-1.103,1.731
			c-0.197,0.291-0.406,0.569-0.608,0.854c-0.336,0.474-0.673,0.947-1.025,1.405c-0.464,0.604-0.937,1.201-1.429,1.778
			c-0.002,0.002-0.003,0.004-0.005,0.006c-0.002,0.002-0.003,0.003-0.004,0.004c-0.51,0.592-1.041,1.159-1.583,1.714
			c-0.156,0.16-0.315,0.315-0.474,0.472c-0.316,0.311-0.643,0.61-0.97,0.909c-0.525,0.48-1.066,0.943-1.618,1.39
			c-0.241,0.195-0.478,0.396-0.725,0.585c-0.798,0.612-1.617,1.201-2.473,1.746c-0.736,0.474-1.495,0.92-2.275,1.339
			c-0.78,0.419-1.582,0.81-2.406,1.175c-1.647,0.729-3.38,1.351-5.199,1.867c-1.824,0.522-3.744,0.911-5.762,1.169
			c-2.018,0.258-4.135,0.386-6.354,0.386c-1.101,0-2.167-0.032-3.197-0.096c-2.061-0.128-3.984-0.386-5.769-0.775
			c-0.893-0.195-1.751-0.422-2.577-0.683c-2.759-0.866-5.179-2.028-7.259-3.499l0.002,0.001l-0.002-0.001l9.957,7.04
			c1.04,0.736,2.165,1.394,3.375,1.976c0.605,0.291,1.231,0.564,1.879,0.817c0.647,0.254,1.316,0.489,2.006,0.706
			c2.475,0.783,5.254,1.266,8.346,1.459c1.031,0.064,2.097,0.096,3.197,0.096l0,0l0,0c2.218,0,4.335-0.128,6.354-0.386
			c2.018-0.258,3.938-0.647,5.762-1.169c1.819-0.516,3.552-1.138,5.199-1.867c1.647-0.729,3.208-1.566,4.681-2.514
			c0.857-0.546,1.675-1.135,2.474-1.747c0.247-0.189,0.483-0.389,0.724-0.584c0.553-0.448,1.094-0.91,1.618-1.39
			c0.133-0.122,0.279-0.229,0.411-0.353c0.192-0.181,0.373-0.373,0.561-0.558c0.158-0.156,0.317-0.311,0.472-0.47
			c0.542-0.555,1.074-1.122,1.584-1.715c0.001-0.001,0.003-0.003,0.004-0.004c0.002-0.002,0.003-0.004,0.005-0.006
			c0.427-0.501,0.843-1.011,1.25-1.532l0,0c0.062-0.08,0.118-0.166,0.18-0.247c0.353-0.459,0.69-0.932,1.026-1.407
			c0.202-0.284,0.411-0.562,0.607-0.852c0.381-0.563,0.743-1.145,1.102-1.73c0.121-0.197,0.253-0.383,0.371-0.582
			c0.013-0.021,0.024-0.044,0.036-0.065c0.464-0.783,0.909-1.584,1.334-2.404c0.007-0.013,0.015-0.026,0.021-0.039
			c0.002-0.004,0.004-0.009,0.006-0.014c0.462-0.892,0.898-1.808,1.317-2.738c0.033-0.073,0.07-0.141,0.103-0.213
			c0.091-0.205,0.169-0.423,0.259-0.63c0.309-0.715,0.609-1.438,0.894-2.174c0.135-0.348,0.266-0.701,0.395-1.054
			c0.262-0.714,0.512-1.44,0.752-2.174c0.074-0.225,0.159-0.44,0.231-0.668c0.086-0.273,0.17-0.547,0.253-0.822
			c0.876-2.88,1.6-5.847,2.172-8.907v0c0.173-0.919,0.331-1.847,0.476-2.783c0.209-1.329,0.373-2.639,0.516-3.939
			c0.036-0.325,0.069-0.648,0.101-0.971c0.127-1.291,0.234-2.573,0.296-3.833v-0.002c0.047-0.945,0.076-1.881,0.088-2.809
			C131.914,54.891,131.881,53.777,131.826,52.677z M119.356,97.083L119.356,97.083l0.006,0.004L119.356,97.083z"/>
	</g>
	<g>
		<g>
			<g style="enable-background:new    ;">
				<g style="enable-background:new    ;">
					<defs>
						<path id="SVGID_12_" style="enable-background:new    ;" d="M28.379,113.336l-4.067-2.876
							c-6.449-4.56-9.878-10.232-11.523-13.621c-1.755-3.618-3.243-11.008-3.321-11.397l4.067,2.876
							c0.078,0.389,1.566,7.779,3.321,11.397C18.501,103.104,21.93,108.775,28.379,113.336z"/>
					</defs>
					<clipPath id="SVGID_13_">
						<use xlink:href="#SVGID_12_"  style="overflow:visible;"/>
					</clipPath>
					<g style="clip-path:url(#SVGID_13_);enable-background:new    ;">
						<path style="fill:#9F1F24;" d="M9.468,85.442l4.067,2.876c0.078,0.389,1.566,7.779,3.321,11.397
							c0.818,1.686,2.078,3.937,3.932,6.336l-4.067-2.876c-1.854-2.398-3.114-4.649-3.932-6.336
							C11.034,93.221,9.546,85.831,9.468,85.442L9.468,85.442z"/>
						<path style="fill:#9C1F24;" d="M16.721,103.174l4.067,2.876c1.225,1.585,2.71,3.234,4.498,4.827l-4.067-2.876
							C19.431,106.409,17.946,104.759,16.721,103.174L16.721,103.174z"/>
						<path style="fill:#981F24;" d="M21.219,108.001l4.067,2.876c0.944,0.841,1.973,1.666,3.092,2.458l-4.067-2.876
							C23.192,109.668,22.164,108.843,21.219,108.001L21.219,108.001z"/>
					</g>
				</g>
				<g>
					<polygon style="fill:#821B1F;" points="142.895,91.8 146.963,94.676 132.258,110.39 128.19,107.514 					"/>
				</g>
				<g>
					<linearGradient id="SVGID_14_" gradientUnits="userSpaceOnUse" x1="6.9701" y1="110.513" x2="142.8955" y2="110.513">
						<stop  offset="0" style="stop-color:#E72728"/>
						<stop  offset="1" style="stop-color:#C0272D"/>
					</linearGradient>
					<path style="fill:url(#SVGID_14_);" d="M9.468,85.442c0.078,0.389,1.566,7.779,3.321,11.397
						c2.901,5.979,11.353,19.058,32.141,20.613c1.203,0.09,2.409,0.133,3.611,0.133c22.334,0,44.377-14.865,58.178-20.354
						c12.394-4.928,22.637-5.955,29.022-5.955c4.563,0,7.025,0.498,7.155,0.524l-14.705,15.714l11.503,15.17
						c-0.115-0.019-2.287-0.384-6.717-0.384c-6.833,0-18.764,0.912-35.261,5.553c-16.915,4.76-33.615,7.731-47.445,7.731
						c-8.402,0-15.742-1.096-21.432-3.553c-17.348-7.497-20.611-18.471-21.642-27.199C6.105,95.594,9.3,85.949,9.468,85.442z"/>
				</g>
				<g>
					<polygon style="fill:#9E1F24;" points="128.19,107.514 132.258,110.39 143.761,125.56 139.693,122.684 					"/>
				</g>
				<g style="enable-background:new    ;">
					<defs>
						<path id="SVGID_15_" style="enable-background:new    ;" d="M24.164,130.088l-4.067-2.876c2.423,1.713,5.307,3.335,8.743,4.82
							c5.69,2.457,13.031,3.553,21.432,3.553c13.829,0,30.529-2.971,47.445-7.731c16.497-4.64,28.428-5.553,35.261-5.553
							c4.43,0,6.603,0.364,6.717,0.384l4.068,2.876c-0.115-0.019-2.287-0.383-6.717-0.383c-6.833,0-18.764,0.912-35.261,5.552
							c-16.915,4.76-33.615,7.731-47.445,7.731c-8.402,0-15.742-1.096-21.432-3.553C29.47,133.423,26.587,131.801,24.164,130.088z"
							/>
					</defs>
					<clipPath id="SVGID_16_">
						<use xlink:href="#SVGID_15_"  style="overflow:visible;"/>
					</clipPath>
					<g style="clip-path:url(#SVGID_16_);enable-background:new    ;">
						<path style="fill:#7B191D;" d="M139.693,122.684l4.068,2.876c-0.115-0.019-2.287-0.383-6.717-0.383
							c-6.833,0-18.764,0.912-35.261,5.552c-16.915,4.76-33.615,7.731-47.445,7.731c-8.402,0-15.742-1.096-21.432-3.553
							c-3.436-1.485-6.32-3.106-8.743-4.82l-4.067-2.876c2.423,1.713,5.307,3.335,8.743,4.82c5.69,2.457,13.031,3.553,21.432,3.553
							c13.829,0,30.529-2.971,47.445-7.731c16.497-4.64,28.428-5.553,35.261-5.553C137.406,122.3,139.579,122.665,139.693,122.684
							L139.693,122.684z"/>
					</g>
				</g>
			</g>
		</g>
	</g>
</g>
<g>
	<g>
		<polygon style="fill:#FFFFFF;" points="44.178,126.173 39.53,127.126 38.108,119.495 54.153,116.199 56.202,123.576 
			51.332,124.576 55.606,143.139 47.769,144.893 		"/>
		<path style="fill:#0180B7;" d="M53.796,116.784l1.781,6.411l-4.847,0.995l4.276,18.571l-6.842,1.532l-3.59-18.712l-4.645,0.954
			l-1.238-6.649L53.796,116.784 M54.51,115.616l-0.915,0.188l-15.107,3.102l-0.962,0.197l0.18,0.965l1.238,6.649l0.187,1.001
			l0.998-0.205l3.653-0.75l3.4,17.717l0.194,1.013l1.006-0.225l6.842-1.532l0.982-0.22l-0.226-0.98l-4.046-17.573l3.844-0.789
			l1.049-0.215l-0.287-1.032l-1.781-6.411L54.51,115.616L54.51,115.616z"/>
	</g>
	<g>
		<polygon style="fill:#FFFFFF;" points="55.249,116.08 69.838,112.366 71.572,119.368 64.119,120.9 64.527,124.322 69.305,123.549 
			70.405,129.639 65.738,130.474 66.362,133.826 74.668,132.332 76.192,139.273 60.442,142.013 		"/>
		<path style="fill:#0180B7;" d="M69.474,112.975l1.487,6.008l-7.393,1.518l0.524,4.397l4.808-0.778l0.923,5.114l-4.669,0.835
			l0.806,4.336l8.323-1.497l1.308,5.96l-14.754,2.567l-5.004-24.989L69.474,112.975 M70.203,111.758l-0.976,0.248l-13.641,3.473
			l-0.92,0.234l0.186,0.931l5.004,24.989l0.191,0.956l0.961-0.167l14.754-2.567l1.029-0.179l-0.224-1.02l-1.308-5.96l-0.206-0.94
			l-0.947,0.17l-7.344,1.321l-0.441-2.369L70,130.219l0.986-0.176l-0.178-0.986l-0.923-5.114l-0.174-0.966l-0.969,0.157
			l-3.778,0.612l-0.292-2.449l6.492-1.333l1.02-0.209l-0.25-1.01l-1.487-6.008L70.203,111.758L70.203,111.758z"/>
	</g>
	<g>
		<polygon style="fill:#FFFFFF;" points="71.727,112.252 80.326,110.486 85.526,119.919 82.669,110.23 89.518,108.674 
			95.018,135.036 88.625,136.593 80.813,124.151 84.371,137.368 76.85,138.912 		"/>
		<path style="fill:#0180B7;" d="M89.132,109.274l5.298,25.391l-5.573,1.357l-8.57-13.65l-0.445,0.091l3.909,14.521l-6.504,1.336
			l-4.935-25.678l7.755-1.592l6.777,12.291l0.202-0.042l-3.746-12.702L89.132,109.274 M89.903,108.074l-0.992,0.225l-5.833,1.324
			l-1.039,0.236l0.301,1.022l1.409,4.779l-2.808-5.093l-0.356-0.645l-0.721,0.148l-7.755,1.592l-0.967,0.199l0.186,0.97
			l4.935,25.678l0.191,0.995l0.992-0.204l6.504-1.336l1.041-0.214l-0.276-1.026l-2.553-9.485l5.848,9.313l0.383,0.61l0.7-0.17
			l5.573-1.357l0.94-0.229l-0.198-0.947l-5.298-25.391L89.903,108.074L89.903,108.074z"/>
	</g>
</g>
</svg>
