<?xml version="1.0" encoding="utf-8"?>
<!-- Generator: Adobe Illustrator 21.0.0, SVG Export Plug-In . SVG Version: 6.00 Build 0)  -->
<svg version="1.1" id="Layer_1" xmlns="http://www.w3.org/2000/svg" xmlns:xlink="http://www.w3.org/1999/xlink" x="0px" y="0px"
	 viewBox="0 0 109 109" style="enable-background:new 0 0 109 109;" xml:space="preserve">
<g id="_x32_">
	<path d="M91.6,43.2V2.1H18.4v39.3l-8.9,8.9c-1,1-1.6,2.3-1.6,3.7v47.3c0,3,2.3,5.2,5.2,5.2h83.6c3,0,5.2-2.3,5.2-5.2V55.7
		c0-1.4-0.5-2.8-1.6-3.7L91.6,43.2z M97.3,54l-5.7,3.1v-8.9L97.3,54z M88.1,5.6v53.3L55.9,76.3c-0.5,0.3-1.2,0.3-1.7,0L21.9,57.6
		v-52H88.1z M18.4,55.6l-5.9-3.3l5.9-5.9V55.6z M96.8,103.1H13.2c-1,0-1.7-0.7-1.7-1.7V55.6l40.9,23.7c1.6,0.9,3.5,0.9,5,0
		l41.1-21.9v44C98.5,102.4,97.8,103.1,96.8,103.1z"/>
	<path d="M55,36.9c7.7,0,13.9-6.3,13.9-13.9h-3.5c0,5.7-4.7,10.4-10.4,10.4S44.6,28.7,44.6,23S49.3,12.6,55,12.6
		c1.6,0,3.1,0.3,4.5,1l1.6-3.1c-1.9-0.9-4-1.4-6.1-1.4c-7.7,0-13.9,6.3-13.9,13.9S47.3,36.9,55,36.9z"/>
	<path d="M51,20l-2.4,2.4l6.4,6.4l13.4-13.4L66,13.1L55,24L51,20z"/>
	<path d="M67.2,40.4h15.7v3.5H67.2V40.4z"/>
	<path d="M27.1,47.4h15.7v3.5H27.1V47.4z"/>
	<path d="M27.1,54.3h55.7v3.5H27.1V54.3z"/>
	<path d="M39.3,61.3h31.3v3.5H39.3V61.3z"/>
	<path d="M16.7,92.6h13.9v3.5H16.7V92.6z"/>
	<path d="M46.3,47.4h36.6v3.5H46.3V47.4z"/>
	<path d="M27.1,40.4h36.6v3.5H27.1V40.4z"/>
</g>
</svg>
