<?xml version="1.0" encoding="utf-8"?>
<!-- Generator: Adobe Illustrator 21.0.0, SVG Export Plug-In . SVG Version: 6.00 Build 0)  -->
<svg version="1.1" id="Layer_1" xmlns="http://www.w3.org/2000/svg" xmlns:xlink="http://www.w3.org/1999/xlink" x="0px" y="0px"
	 viewBox="0 0 109 109" style="enable-background:new 0 0 109 109;" xml:space="preserve">
<g id="_x33_">
	<path d="M33.7,37.9c0.3,0.3,0.8,0.5,1.3,0.5c0.5,0,0.9-0.2,1.3-0.5c0.7-0.7,0.7-1.8,0-2.5c-1.8-1.8-1.8-4.8,0-6.6
		c1.6-1.6,2.4-3.6,2.4-5.8s-0.9-4.3-2.4-5.8c-0.7-0.7-1.8-0.7-2.5,0c-0.7,0.7-0.7,1.8,0,2.5c0.9,0.9,1.4,2,1.4,3.3
		c0,1.2-0.5,2.4-1.4,3.3C30.5,29.4,30.5,34.7,33.7,37.9z"/>
	<path d="M73,37.9c0.3,0.3,0.8,0.5,1.3,0.5c0.5,0,0.9-0.2,1.3-0.5c0.7-0.7,0.7-1.8,0-2.5c-1.8-1.8-1.8-4.8,0-6.6
		c1.6-1.6,2.4-3.6,2.4-5.8s-0.9-4.3-2.4-5.8c-0.7-0.7-1.8-0.7-2.5,0c-0.7,0.7-0.7,1.8,0,2.5c0.9,0.9,1.4,2,1.4,3.3
		c0,1.2-0.5,2.4-1.4,3.3C69.8,29.4,69.8,34.7,73,37.9z"/>
	<path d="M53.3,27.2c0.3,0.3,0.8,0.5,1.3,0.5s0.9-0.2,1.3-0.5c0.7-0.7,0.7-1.8,0-2.5c-1.8-1.8-1.8-4.8,0-6.6
		c1.6-1.6,2.4-3.6,2.4-5.8c0-2.2-0.9-4.3-2.4-5.8c-0.7-0.7-1.8-0.7-2.5,0c-0.7,0.7-0.7,1.8,0,2.5c0.9,0.9,1.4,2,1.4,3.3
		s-0.5,2.4-1.4,3.3C50.1,18.7,50.1,24,53.3,27.2z"/>
	<path d="M46.2,51.8c0.1,0,0.3,0,0.4,0c2.6-0.6,5.2-0.9,7.9-0.9h0c1,0,1.8-0.8,1.8-1.8c0-1-0.8-1.8-1.8-1.8c0,0,0,0,0,0
		c-2.9,0-5.8,0.3-8.7,1c-1,0.2-1.6,1.2-1.3,2.1C44.6,51.2,45.4,51.8,46.2,51.8z"/>
	<path d="M18.5,81.1c0.1,0,0.2,0,0.3,0c0.8,0,1.6-0.6,1.8-1.5c1.9-10.2,8-19.2,16.4-24.2c0.8-0.5,1.1-1.6,0.6-2.4
		c-0.5-0.8-1.6-1.1-2.4-0.6c-9.3,5.5-16,15.4-18.1,26.6C16.9,80,17.5,81,18.5,81.1z"/>
	<path d="M100.2,78.7c-3.2-19-18-34.1-36.9-37.7c0-0.3,0.1-0.6,0.1-0.9c0-4.9-4-8.9-8.9-8.9s-8.9,4-8.9,8.9c0,0.3,0,0.6,0.1,0.9
		C26.8,44.7,12,59.7,8.8,78.7C5.1,80.8,1,83.9,1,87.4c0,9.1,27.7,15.2,53.5,15.2c25.8,0,53.5-6.1,53.5-15.2
		C108,83.9,103.9,80.8,100.2,78.7z M49.2,40.5c0-0.1,0-0.2,0-0.3c0-2.9,2.4-5.4,5.4-5.4s5.4,2.4,5.4,5.4c0,0.1,0,0.2,0,0.3
		c-0.1,0-0.2,0-0.2,0c-0.6-0.1-1.2-0.1-1.9-0.2c-0.2,0-0.5,0-0.7-0.1c-0.8,0-1.7-0.1-2.6-0.1c-0.9,0-1.7,0-2.6,0.1
		c-0.2,0-0.5,0-0.7,0.1c-0.6,0-1.2,0.1-1.9,0.2C49.3,40.5,49.2,40.5,49.2,40.5z M48.1,44.2c1-0.1,1.9-0.2,2.9-0.3c0.2,0,0.4,0,0.6,0
		c2-0.1,3.9-0.1,5.9,0c0.2,0,0.4,0,0.6,0c1,0.1,1.9,0.2,2.9,0.3C79.5,47,94.2,61.8,96.9,80.4c0.1,0.6,0.1,1.1,0.2,1.7
		c0,0.2,0,0.4,0.1,0.6c0.1,0.8,0.1,1.6,0.1,2.4c-28,6.5-57.5,6.5-85.6,0c0-0.8,0.1-1.6,0.1-2.4c0-0.2,0-0.4,0.1-0.6
		c0.1-0.6,0.1-1.2,0.2-1.7C14.8,61.8,29.5,47,48.1,44.2z M54.5,99C24,99,4.6,91.4,4.6,87.4c0-0.7,0.8-2.2,3.7-4.2c0,0.1,0,0.2,0,0.3
		c-0.1,1-0.1,2-0.1,3v1.4l1.4,0.3c14.7,3.5,29.9,5.3,45,5.3c15.1,0,30.3-1.8,45-5.3l1.4-0.3v-1.4c0-1,0-2-0.1-3c0-0.1,0-0.2,0-0.3
		c2.8,2,3.7,3.5,3.7,4.2C104.4,91.4,85,99,54.5,99z"/>
</g>
</svg>
