<?xml version="1.0" encoding="utf-8"?>
<!-- Generator: Adobe Illustrator 21.0.0, SVG Export Plug-In . SVG Version: 6.00 Build 0)  -->
<svg version="1.1" id="Layer_1" xmlns="http://www.w3.org/2000/svg" xmlns:xlink="http://www.w3.org/1999/xlink" x="0px" y="0px"
	 viewBox="0 0 109 109" style="enable-background:new 0 0 109 109;" xml:space="preserve">
<path id="_x34_" d="M101.5,25.2h-7.9c0.2-0.3,0.4-0.7,0.6-1c1-2,1.2-4.4,0.4-6.6l-2.4-6.4c-0.8-2.1-2.5-3.9-4.6-4.7
	c-2.1-0.9-4.5-0.8-6.6,0.2l-18.9,9c-0.9-0.7-2.1-1.1-3.3-1.1h-8.5c-1.2,0-2.4,0.4-3.3,1.1L28,6.6c-2.1-1-4.5-1.1-6.6-0.2
	c-2.1,0.9-3.8,2.6-4.6,4.7l-2.4,6.4c-0.8,2.1-0.7,4.6,0.4,6.6c0.2,0.4,0.4,0.7,0.6,1H7.5c-0.8,0-1.5,0.7-1.5,1.5v10.8
	C6,38.3,6.7,39,7.5,39S9,38.3,9,37.5v-9.3h10.4c0.2,0.1,0.3,0.1,0.5,0.2l12.6,3.5c-2.8,4.3-5.3,8.8-7.4,13.4H9v-1.8
	C9,42.7,8.3,42,7.5,42S6,42.7,6,43.5v3.3c0,0.8,0.7,1.5,1.5,1.5h5.3v53c0,0.8,0.7,1.5,1.5,1.5h80.3c0.8,0,1.5-0.7,1.5-1.5v-8.7
	c0-0.8-0.7-1.5-1.5-1.5c-0.8,0-1.5,0.7-1.5,1.5v7.2H63.5V49.2c4.2,8,7.1,16.8,8.4,25.8c0.1,0.6,0.5,1.1,1.1,1.2c0.1,0,0.2,0,0.4,0
	c0.5,0,0.9-0.2,1.2-0.6c2.2-2.9,4.2-5.9,6-9.1c3,2.1,6,4.4,8.7,6.8c0.5,0.4,1.2,0.5,1.7,0.2c0.6-0.3,0.9-0.9,0.8-1.5
	c-1.2-8.2-3.4-16.2-6.6-23.8h8v38.3c0,0.8,0.7,1.5,1.5,1.5c0.8,0,1.5-0.7,1.5-1.5V48.3h5.3c0.8,0,1.5-0.7,1.5-1.5V26.7
	C103,25.9,102.3,25.2,101.5,25.2z M82.3,9.3c1.3-0.6,2.8-0.7,4.2-0.1c1.4,0.6,2.4,1.6,2.9,3l2.4,6.4c0.5,1.4,0.4,2.9-0.2,4.2
	c-0.7,1.3-1.8,2.3-3.3,2.6l-23.8,6.6v-7.2c5.4-3.3,18.7-10,22-5.4c0.5,0.7,1.4,0.8,2.1,0.4c0.7-0.5,0.8-1.4,0.4-2.1
	c-2.6-3.6-8-3.8-16.1-0.5c-3.3,1.3-6.4,3-8.4,4.1v-1.1c0-0.8-0.2-1.6-0.5-2.3L82.3,9.3z M50.2,17.6h8.5c1.5,0,2.7,1.2,2.7,2.7v12.4
	c0,1.5-1.2,2.7-2.7,2.7h-8.5c-1.5,0-2.7-1.2-2.7-2.7V20.3C47.5,18.8,48.7,17.6,50.2,17.6z M47.7,45.3c1.4-2.4,3-4.7,4.7-6.9h4.2
	c1.7,2.2,3.2,4.5,4.7,6.9H47.7z M17.4,22.8c-0.7-1.3-0.8-2.8-0.2-4.2l2.4-6.4c0.5-1.4,1.5-2.5,2.9-3c1.4-0.6,2.9-0.5,4.2,0.1L45,18
	c-0.3,0.7-0.5,1.5-0.5,2.3v1.2c-2-1.1-5.1-2.8-8.6-4.2c-8.1-3.3-13.5-3.1-16.1,0.5c-0.5,0.7-0.3,1.6,0.4,2.1
	c0.7,0.5,1.6,0.3,2.1-0.4c3.4-4.7,16.9,2.2,22.2,5.4v7.1l-23.8-6.6C19.3,25.1,18.1,24.2,17.4,22.8z M45.2,35.3
	c0.7,1.4,2.1,2.4,3.6,2.9C41.8,48,37,59.2,34.7,71c-1.6-2.3-3.1-4.8-4.4-7.3c-0.2-0.4-0.5-0.6-0.9-0.7c-0.4-0.1-0.8,0-1.2,0.2
	c-2.5,1.6-4.9,3.4-7.3,5.3c2.4-12.7,7.4-25,14.6-35.8L45.2,35.3z M15.8,48.3h8c-3.2,7.6-5.4,15.6-6.6,23.8c-0.1,0.6,0.2,1.2,0.8,1.5
	c0.6,0.3,1.2,0.2,1.7-0.2c2.8-2.5,5.7-4.8,8.8-6.8c1.8,3.2,3.8,6.2,6,9.1c0.3,0.4,0.7,0.6,1.2,0.6c0.1,0,0.2,0,0.4,0
	c0.6-0.1,1-0.6,1.1-1.2c1.3-9,4.2-17.8,8.4-25.8v50.6H15.8V48.3z M48.5,99.8V48.3h12v51.5H48.5z M80.8,63.2
	c-0.4-0.2-0.8-0.3-1.2-0.2c-0.4,0.1-0.7,0.4-0.9,0.7c-1.4,2.5-2.8,5-4.4,7.3C72,59.2,67.2,48,60.2,38.2c1.6-0.4,2.9-1.5,3.6-2.9
	l9.7-2.7c7.2,10.8,12.2,23.1,14.6,35.8C85.8,66.6,83.3,64.8,80.8,63.2z M100,45.3H83.9c-2.1-4.7-4.6-9.2-7.4-13.4l12.6-3.5
	c0.2,0,0.3-0.1,0.5-0.2H100V45.3z"/>
</svg>
