<?xml version="1.0" encoding="utf-8"?>
<!-- Generator: Adobe Illustrator 23.0.3, SVG Export Plug-In . SVG Version: 6.00 Build 0)  -->
<svg version="1.1" id="Layer_1" xmlns="http://www.w3.org/2000/svg" xmlns:xlink="http://www.w3.org/1999/xlink" x="0px" y="0px"
	 viewBox="0 0 104.2 100" style="enable-background:new 0 0 104.2 100;" xml:space="preserve">
<style type="text/css">
	.st0{fill:#198FCC;}
	.st1{fill:#FFFFFF;}
</style>
<title>app_development</title>
<g>
	<g id="Layer_1-2">
		<circle class="st0" cx="52.1" cy="50" r="48"/>
		<path class="st1" d="M58,17H30.9c-3.2,0-5.8,2.6-5.8,5.8v1.9h38.7v-1.9C63.8,19.6,61.2,17,58,17z"/>
		<path class="st1" d="M25.1,28.9v38.8h13.6c1-2,2.8-3.4,5-3.7L31.8,52.1c-2.6-2.7-2.4-7,0.3-9.6c2.6-2.5,6.7-2.5,9.3,0
			c0,0,2,2,3.9,3.9c1-2.7,3.5-4.5,6.4-4.5h0.1c0-3.7,3-6.8,6.7-6.8c1.1,0,2.2,0.2,3.2,0.7c0.3-1.1,0.9-2.1,1.7-2.9
			c0.1-0.1,0.3-0.2,0.4-0.4v-3.7H25.1z"/>
		<path class="st1" d="M62.9,77.5H44.8c-3.4,0-6.3-2.6-6.7-5.9h-13v5.7c0,3.2,2.6,5.8,5.8,5.8h0H58c2.8,0,5.2-2,5.7-4.8L62.9,77.5z"
			/>
		<path class="st1" d="M89.4,59.7c-0.1-0.1-2.5-2.5-2.4-2.4c-1-2.3-2.1-4.5-3.5-6.6c-1.3-2.2-2.8-4.2-4.5-6.2
			c-0.6-0.7-9.5-9.5-8.8-8.8c-1.2-1.1-3-1.1-4.1,0.1c-1.1,1.1-1.1,2.9,0,4l2,2c0.8,0.8,0.8,2,0,2.7c-0.8,0.8-2,0.8-2.7,0l0,0
			l-4.7-4.7c-1.2-1.1-3-1.1-4.1,0.1c-1.1,1.1-1.1,2.9,0,4l4.8,4.8c0.8,0.8,0.8,2,0,2.7s-2,0.8-2.7,0l0,0l-4.8-4.8
			c-1.1-1.1-3-1.1-4.1,0s-1.1,3,0,4.1l4.8,4.8c0.8,0.7,0.9,1.9,0.1,2.7s-1.9,0.9-2.7,0.1c0,0-0.1-0.1-0.1-0.1l-13-13
			c-1.1-1.2-2.9-1.2-4.1-0.1s-1.2,2.9-0.1,4.1c0,0,0.1,0.1,0.1,0.1l9.2,9.2l9.3,9.3h-8.3c-1.6,0-2.9,1.2-2.9,2.8c0,0,0,0,0,0
			c0,1.6,1.3,2.9,2.9,2.9h19.8c0.2,0.2,5.7,5.3,5.7,5.3c2.3,2.3,5.9,2.3,8.2,0l10.9-10.9C91.6,65.6,91.7,62,89.4,59.7
			C89.4,59.7,89.4,59.7,89.4,59.7z"/>
	</g>
</g>
</svg>
