<?xml version="1.0" encoding="utf-8"?>
<!-- Generator: Adobe Illustrator 23.0.3, SVG Export Plug-In . SVG Version: 6.00 Build 0)  -->
<svg version="1.1" id="Layer_1" xmlns="http://www.w3.org/2000/svg" xmlns:xlink="http://www.w3.org/1999/xlink" x="0px" y="0px"
	 viewBox="0 0 100 100" style="enable-background:new 0 0 100 100;" xml:space="preserve">
<style type="text/css">
	.st0{fill:#198FCC;}
	.st1{fill:#FFFFFF;}
</style>
<title>web_development</title>
<g>
	<g id="Layer_1-2">
		<circle class="st0" cx="50" cy="50" r="48"/>
		<path class="st1" d="M82,35.8c-0.8-1-2.1-1.6-3.4-1.6H31.4l-0.4-3c-0.3-2.2-2.1-3.8-4.3-3.8h-3.7c-1.1-0.1-2,0.7-2.1,1.8
			c-0.1,1.1,0.7,2,1.8,2.1c0.1,0,0.2,0,0.3,0h3.7c0.2,0,0.4,0.2,0.5,0.4l0.6,4.7l0,0l3.8,27.1l0,0l0.8,5.7c0.3,2.2,2.1,3.8,4.3,3.8
			h2.1c-0.2,0.6-0.3,1.3-0.3,1.9c0,3.2,2.6,5.8,5.8,5.8c3.2,0,5.8-2.6,5.8-5.8c0-0.7-0.1-1.3-0.3-1.9h10.4c-0.2,0.6-0.3,1.3-0.3,1.9
			c0,3.2,2.6,5.8,5.8,5.8c3.2,0,5.8-2.6,5.8-5.8c0-0.7-0.1-1.3-0.4-1.9h4.2c1.1,0.1,2-0.7,2.1-1.8c0.1-1.1-0.7-2-1.8-2.1
			c-0.1,0-0.2,0-0.3,0H36.7c-0.2,0-0.4-0.2-0.5-0.4l-0.5-3.5h38.2c2.1,0,3.8-1.4,4.3-3.5l4.8-22.3C83.2,38.1,82.8,36.8,82,35.8z
			 M79.1,40.3l-3.8,19.4c-0.2,0.9-1,1.6-1.9,1.6c-0.1,0-0.3,0-0.4,0c-1-0.2-1.7-1.2-1.5-2.3l3.9-19.4c0.2-1.1,1.1-1.8,2.2-1.6
			c1.1,0.2,1.8,1.1,1.6,2.2C79.1,40.3,79.1,40.3,79.1,40.3L79.1,40.3z"/>
	</g>
</g>
</svg>
