<?xml version="1.0" encoding="utf-8"?>
<!-- Generator: Adobe Illustrator 23.0.3, SVG Export Plug-In . SVG Version: 6.00 Build 0)  -->
<svg version="1.1" id="Layer_1" xmlns="http://www.w3.org/2000/svg" xmlns:xlink="http://www.w3.org/1999/xlink" x="0px" y="0px"
	 viewBox="0 0 100 100" style="enable-background:new 0 0 100 100;" xml:space="preserve">
<style type="text/css">
	.st0{fill:#198FCC;}
	.st1{fill:#FFFFFF;}
</style>
<title>hire_dececated</title>
<g>
	<g id="Layer_1-2">
		<circle class="st0" cx="50" cy="50" r="48"/>
	</g>
</g>
<g>
	<g>
		<path class="st1" d="M75.9,68.4l-8.5-8.5c-1.5-1.5-3.8-1.8-5.7-0.9l-3.2-3.2c3.3-3.8,5.2-8.7,5.2-14.1c0-12-9.7-21.7-21.7-21.7
			s-21.7,9.7-21.7,21.7s9.7,21.7,21.7,21.7c5.4,0,10.3-2,14.1-5.2l3.2,3.2c-0.9,1.9-0.6,4.1,0.9,5.7l8.5,8.5c2,2,5.1,2,7.1,0
			C77.9,73.5,77.9,70.3,75.9,68.4z M52.1,51.7c0,0.9-0.7,1.7-1.7,1.7H33.7c-0.9,0-1.7-0.7-1.7-1.7v-3.3c0-3.8,2.1-7,5.2-8.7
			c-1.2-1.2-1.9-2.8-1.9-4.6c0-3.7,3-6.7,6.7-6.7c3.7,0,6.7,3,6.7,6.7c0,1.8-0.7,3.4-1.9,4.6c3.1,1.7,5.2,5,5.2,8.7V51.7z
			 M63.9,65.8l-1.2-1.2c-0.7-0.7-0.7-1.7,0-2.4c0.7-0.6,1.7-0.7,2.4,0l1.2,1.2L63.9,65.8z"/>
	</g>
</g>
<g>
	<g>
		<path class="st1" d="M42.1,41.6c-3.7,0-6.7,3-6.7,6.7V50h13.4v-1.7C48.8,44.6,45.8,41.6,42.1,41.6z"/>
	</g>
</g>
<g>
	<g>
		<path class="st1" d="M42.1,31.6c-1.8,0-3.3,1.5-3.3,3.3c0,1.8,1.5,3.3,3.3,3.3c1.8,0,3.3-1.5,3.3-3.3
			C45.4,33.1,43.9,31.6,42.1,31.6z"/>
	</g>
</g>
</svg>
