<?xml version="1.0" encoding="UTF-8"?>
<svg xmlns="http://www.w3.org/2000/svg" xmlns:xlink="http://www.w3.org/1999/xlink" viewBox="0 0 512 512" width="512px" height="512px">
<defs>
<linearGradient id="linear0" gradientUnits="userSpaceOnUse" x1="23.80084" y1="156.135025" x2="156.135025" y2="23.80084" gradientTransform="matrix(2.976744,0,0,2.976744,0,0)">
<stop offset="0" style="stop-color:rgb(99.607843%,45.490196%,8.627451%);stop-opacity:1;"/>
<stop offset="1" style="stop-color:rgb(61.960787%,27.058825%,100%);stop-opacity:1;"/>
</linearGradient>
</defs>
<g id="surface374907">
<path style=" stroke:none;fill-rule:nonzero;fill:url(#linear0);" d="M 296 456 C 296 460.417969 292.417969 464 288 464 L 232 464 C 227.582031 464 224 460.417969 224 456 C 224 451.582031 227.582031 448 232 448 L 288 448 C 292.417969 448 296 451.582031 296 456 Z M 120 189.109375 L 120 98.890625 C 120.011719 88.460938 128.460938 80.011719 138.890625 80 L 229.109375 80 C 239.539062 80.011719 247.988281 88.460938 248 98.890625 L 248 189.109375 C 247.988281 199.539062 239.539062 207.988281 229.109375 208 L 138.890625 208 C 128.460938 207.988281 120.011719 199.539062 120 189.109375 Z M 136 189.109375 C 136 190.707031 137.292969 192 138.890625 192 L 229.109375 192 C 230.707031 192 232 190.707031 232 189.109375 L 232 98.890625 C 232 97.292969 230.707031 96 229.109375 96 L 138.890625 96 C 137.292969 96 136 97.292969 136 98.890625 Z M 272.570312 322.972656 L 287.429688 317.027344 L 273.101562 281.199219 L 294.398438 252.800781 L 281.601562 243.199219 L 257.601562 275.199219 C 255.925781 277.433594 255.535156 280.378906 256.570312 282.972656 Z M 344.570312 317.027344 L 359.429688 322.972656 L 375.429688 282.972656 C 376.464844 280.378906 376.074219 277.433594 374.398438 275.199219 L 350.398438 243.199219 L 337.601562 252.800781 L 358.898438 281.199219 Z M 335.351562 259.152344 L 320.648438 252.851562 L 296.648438 308.851562 L 311.351562 315.152344 Z M 160 168 L 160 120 C 160 117.117188 161.550781 114.457031 164.058594 113.039062 C 166.566406 111.617188 169.644531 111.65625 172.117188 113.140625 L 212.117188 137.140625 C 214.527344 138.585938 216 141.191406 216 144 C 216 146.808594 214.527344 149.414062 212.117188 150.859375 L 172.117188 174.859375 C 169.644531 176.34375 166.566406 176.382812 164.058594 174.960938 C 161.550781 173.542969 160 170.882812 160 168 Z M 176 153.871094 L 192.449219 144 L 176 134.128906 Z M 360 144 C 360 161.671875 345.671875 176 328 176 C 310.328125 176 296 161.671875 296 144 C 296 126.328125 310.328125 112 328 112 C 345.664062 112.019531 359.980469 126.335938 360 144 Z M 344 144 C 344 135.164062 336.835938 128 328 128 C 319.164062 128 312 135.164062 312 144 C 312 152.835938 319.164062 160 328 160 C 336.832031 159.988281 343.988281 152.832031 344 144 Z M 200 256 C 196.367188 255.996094 192.757812 256.613281 189.335938 257.824219 L 194.664062 272.910156 C 201.292969 270.574219 208.671875 272.839844 212.847656 278.488281 C 217.027344 284.140625 217.027344 291.859375 212.847656 297.511719 C 208.671875 303.160156 201.292969 305.425781 194.664062 303.089844 L 189.335938 318.175781 C 201.339844 322.414062 214.71875 319.128906 223.394531 309.808594 C 232.074219 300.492188 234.402344 286.917969 229.328125 275.242188 C 224.25 263.5625 212.734375 256.007812 200 256 Z M 112 264 L 112 312 C 112 316.417969 108.417969 320 104 320 L 56 320 C 51.582031 320 48 316.417969 48 312 L 48 264 C 48 259.582031 51.582031 256 56 256 L 104 256 C 108.417969 256 112 259.582031 112 264 Z M 96 272 L 64 272 L 64 304 L 96 304 Z M 502.675781 386.265625 L 488.324219 408 L 502.675781 429.734375 C 504.34375 432.265625 504.441406 435.519531 502.929688 438.144531 L 486.929688 465.855469 C 485.414062 468.480469 482.546875 470.023438 479.519531 469.84375 L 453.519531 468.28125 L 441.871094 491.582031 C 440.515625 494.289062 437.746094 496 434.71875 496 L 112 496 C 98.75 495.984375 88.015625 485.25 88 472 L 88 352 L 34.890625 352 C 24.460938 351.988281 16.011719 343.539062 16 333.109375 L 16 242.890625 C 16.011719 232.460938 24.460938 224.011719 34.890625 224 L 88 224 L 88 40 C 88.015625 26.75 98.75 16.015625 112 16 L 400 16 C 413.25 16.015625 423.984375 26.75 424 40 L 424 89.375 C 430 87.25 436.597656 87.597656 442.34375 90.339844 C 448.085938 93.085938 452.503906 97.996094 454.625 104 L 496 104 L 496 120 L 454.625 120 C 452.503906 126.003906 448.085938 130.914062 442.34375 133.660156 C 436.597656 136.402344 430 136.75 424 134.625 L 424 160 L 433.375 160 C 436.769531 150.414062 445.832031 144.007812 456 144.007812 C 466.167969 144.007812 475.230469 150.414062 478.625 160 L 496 160 L 496 176 L 478.625 176 C 475.230469 185.585938 466.167969 191.992188 456 191.992188 C 445.832031 191.992188 436.769531 185.585938 433.375 176 L 424 176 L 424 320 L 434.71875 320 C 437.746094 320 440.519531 321.710938 441.871094 324.421875 L 453.519531 347.722656 L 479.519531 346.160156 C 482.546875 345.980469 485.414062 347.523438 486.929688 350.148438 L 502.929688 377.859375 C 504.441406 380.484375 504.34375 383.734375 502.675781 386.265625 Z M 448 168 C 448 172.417969 451.582031 176 456 176 C 460.417969 176 464 172.417969 464 168 C 464 163.582031 460.417969 160 456 160 C 451.582031 160.003906 448.003906 163.582031 448 168 Z M 424 112 C 424 116.417969 427.582031 120 432 120 C 436.417969 120 440 116.417969 440 112 C 440 107.582031 436.417969 104 432 104 C 427.582031 104.003906 424.003906 107.582031 424 112 Z M 104 48 L 408 48 L 408 40 C 407.996094 35.582031 404.417969 32.003906 400 32 L 112 32 C 107.582031 32.003906 104.003906 35.582031 104 40 Z M 104 224 L 125.109375 224 C 135.539062 224.011719 143.988281 232.460938 144 242.890625 L 144 280 L 172.6875 280 L 162.34375 269.65625 L 173.65625 258.34375 L 197.65625 282.34375 C 199.15625 283.84375 200 285.878906 200 288 C 200 290.121094 199.15625 292.15625 197.65625 293.65625 L 173.65625 317.65625 L 162.34375 306.34375 L 172.6875 296 L 144 296 L 144 333.109375 C 143.988281 343.539062 135.539062 351.988281 125.109375 352 L 104 352 L 104 416 L 343.828125 416 L 349.109375 408 L 338.546875 392 L 304 392 L 304 376 L 335.578125 376 L 350.507812 350.144531 C 352.027344 347.523438 354.890625 345.980469 357.914062 346.15625 L 383.917969 347.71875 L 395.5625 324.417969 C 396.921875 321.710938 399.6875 320 402.71875 320 L 408 320 L 408 176 L 392 176 L 392 189.109375 C 391.988281 199.539062 383.539062 207.988281 373.109375 208 L 282.890625 208 C 272.460938 207.988281 264.011719 199.539062 264 189.109375 L 264 98.890625 C 264.011719 88.460938 272.460938 80.011719 282.890625 80 L 373.109375 80 C 383.539062 80.011719 391.988281 88.460938 392 98.890625 L 392 104 L 408 104 L 408 64 L 104 64 Z M 392 120 L 392 160 L 408 160 L 408 120 Z M 373.109375 96 L 282.890625 96 C 281.292969 96 280 97.292969 280 98.890625 L 280 189.109375 C 280 190.707031 281.292969 192 282.890625 192 L 373.109375 192 C 374.707031 192 376 190.707031 376 189.109375 L 376 98.890625 C 376 97.292969 374.707031 96 373.109375 96 Z M 125.109375 336 C 126.707031 336 128 334.707031 128 333.109375 L 128 242.890625 C 128 241.292969 126.707031 240 125.109375 240 L 34.890625 240 C 33.292969 240 32 241.292969 32 242.890625 L 32 333.109375 C 32 334.707031 33.292969 336 34.890625 336 Z M 389.773438 480 L 383.914062 468.28125 L 357.914062 469.84375 C 354.890625 470.023438 352.023438 468.480469 350.507812 465.855469 L 334.507812 438.144531 C 333.433594 436.28125 333.160156 434.066406 333.738281 432 L 104 432 L 104 472 C 104.003906 476.417969 107.582031 479.996094 112 480 Z M 472.0625 403.59375 L 486.601562 381.574219 L 475.542969 362.425781 L 449.207031 364.007812 C 446.011719 364.195312 443.007812 362.460938 441.574219 359.597656 L 429.773438 335.996094 L 407.660156 335.996094 L 395.863281 359.597656 C 394.425781 362.460938 391.425781 364.191406 388.226562 364.007812 L 361.890625 362.425781 L 350.835938 381.574219 L 365.375 403.59375 C 367.136719 406.265625 367.136719 409.734375 365.375 412.40625 L 350.835938 434.425781 L 361.890625 453.574219 L 388.226562 451.992188 C 391.425781 451.808594 394.425781 453.539062 395.863281 456.402344 L 407.660156 480.003906 L 429.773438 480.003906 L 441.574219 456.402344 C 443.003906 453.535156 446.011719 451.800781 449.207031 451.992188 L 475.542969 453.574219 L 486.601562 434.425781 L 472.0625 412.40625 C 470.296875 409.734375 470.296875 406.265625 472.0625 403.59375 Z M 451.71875 408 C 451.71875 426.226562 436.945312 441 418.71875 441 C 400.492188 441 385.71875 426.226562 385.71875 408 C 385.71875 389.773438 400.492188 375 418.71875 375 C 436.933594 375.019531 451.695312 389.785156 451.71875 408 Z M 408 394.820312 C 401.679688 399.941406 399.886719 408.828125 403.726562 416 L 408 416 Z M 435.71875 408 C 435.707031 400.652344 430.980469 394.140625 424 391.851562 L 424 424.152344 C 430.984375 421.859375 435.707031 415.347656 435.71875 408 Z M 240 360 L 256 360 L 256 344 L 240 344 Z M 272 360 L 304 360 L 304 344 L 272 344 Z M 240 392 L 288 392 L 288 376 L 240 376 Z M 320 360 L 344 360 L 344 344 L 320 344 Z M 320 360 "/>
</g>
</svg>
