<?xml version="1.0" encoding="utf-8"?>
<!-- Generator: Adobe Illustrator 23.0.3, SVG Export Plug-In . SVG Version: 6.00 Build 0)  -->
<svg version="1.1" id="Layer_1" xmlns="http://www.w3.org/2000/svg" xmlns:xlink="http://www.w3.org/1999/xlink" x="0px" y="0px"
	 viewBox="0 0 100 100" style="enable-background:new 0 0 100 100;" xml:space="preserve">
<style type="text/css">
	.st0{fill:#198FCC;}
	.st1{fill:#FFFFFF;}
</style>
<title>other_services</title>
<g>
	<g id="Layer_1-2">
		<circle class="st0" cx="50" cy="50" r="48"/>
		<path class="st1" d="M53.7,70.2c-3.5,0.2-6.9-0.2-10.3-1.1c-0.6-0.3-1.4,0.1-1.6,0.7c0,0.1,0,0.1-0.1,0.2
			c-0.2,0.7,0.3,1.3,1.1,1.5c4.2,1,8.5,1.4,12.8,1.2c1.3,0,2.7-0.1,4-0.3c1.8-0.3,3.4-1.6,4-3.4c0.1-0.2,0.2-0.4,0.4-0.5
			c3.7-2.4,7.3-4.8,11-7.2c0.5-0.3,1.1-0.6,1.8-0.8c1.2-0.5,2.6,0.1,3.1,1.3c0.2,0.6,0.2,1.2,0,1.8c-0.3,1.1-1,2-1.9,2.7
			c-1.2,0.9-2.4,1.7-3.6,2.5c-5.5,3.6-11,7.1-16.5,10.6c-1.3,1-2.8,1.6-4.5,1.8c-1.9,0.1-3.8-0.3-5.5-1.2c-3.3-1.7-6.7-3.4-10-5
			l-1-0.5c-0.8-0.4-1.7-0.3-2.4,0.2c-1.1,0.7-2.1,1.4-3.2,2s-1.7,0.4-2.1-0.6c-1.9-4.2-3.9-8.5-5.8-12.8c-0.4-0.5-0.2-1.3,0.3-1.6
			c0.1-0.1,0.2-0.1,0.2-0.1c3.5-1.5,6.9-3.1,10.4-4.5c2.4-0.8,5.1-0.9,7.6-0.3c1.4,0.4,2.7,1.3,3.7,2.4c0.7,0.7,1.3,1.5,2,2.3
			c0.6,0.7,1.4,1.1,2.2,1.3c2.5,0.6,5,0.9,7.5,1c0.8,0,1.7,0.2,2.5,0.5c1.4,0.6,2.1,2.2,1.5,3.7c-0.3,0.7-0.9,1.3-1.7,1.6
			c-0.6,0.2-1.2,0.3-1.8,0.4c-0.7,0.1-1.4,0-2.1,0L53.7,70.2z"/>
		<path class="st1" d="M64.7,31.4c-0.1,0.3-0.3,0.6-0.4,0.9c-0.6,0.8-1.2,1.7-1.8,2.5c-0.1,0.2-0.1,0.5-0.1,0.7c0.1,1,1,1.8,2.1,1.7
			c0,0,0,0,0,0c0.7,0,1.3,0.2,2,0.3c0.7,0,1.2,0.6,1.1,1.3c0,0,0,0,0,0.1c0,1.1,0,2.2,0,3.4c0.1,0.7-0.4,1.4-1.1,1.5
			c0,0-0.1,0-0.1,0c-1,0.2-2,0.3-3,0.5c-0.2,0.1-0.5,0.2-0.6,0.5c-0.7,0.8-0.5,2,0.3,2.7c0,0,0,0,0,0c0.4,0.5,0.8,1,1.1,1.6
			c0.4,0.5,0.4,1.3-0.1,1.7c0,0,0,0,0,0c-0.8,0.8-1.7,1.7-2.5,2.5c-0.4,0.5-1.2,0.6-1.7,0.2c0,0,0,0,0,0c-0.8-0.6-1.7-1.2-2.5-1.8
			c-0.3-0.2-0.5-0.3-0.9-0.1c0,0-0.1,0.1-0.2,0.1c-1,0.2-1.3,0.9-1.4,1.8c-0.1,0.7-0.2,1.5-0.4,2.2c-0.1,0.7-0.6,1.2-1.3,1.1
			c-1.2,0-2.4,0-3.6,0c-0.7,0-1.3-0.5-1.3-1.1c0,0,0,0,0-0.1c-0.2-1-0.3-1.9-0.5-2.9c-0.1-0.3-0.3-0.6-0.6-0.7
			c-0.8-0.6-2-0.4-2.7,0.4c-0.5,0.4-1,0.8-1.6,1.1c-0.5,0.5-1.3,0.4-1.7-0.1c0,0,0,0-0.1-0.1c-0.8-0.8-1.6-1.6-2.4-2.4
			c-0.5-0.4-0.6-1.2-0.2-1.8c0,0,0,0,0,0c0.6-0.8,1.2-1.7,1.8-2.5c0.1-0.2,0.1-0.5,0.1-0.7c-0.2-1.2-1-1.7-2.2-1.7
			c-0.6-0.1-1.2-0.2-1.8-0.3c-0.7-0.1-1.1-0.6-1.1-1.3c0,0,0,0,0,0c0-1.2,0-2.4,0-3.5c0-0.7,0.5-1.3,1.2-1.3c1-0.2,2-0.3,3-0.5
			c0.3,0,0.5-0.2,0.7-0.5c0.6-0.8,0.5-2-0.3-2.7c-0.4-0.5-0.8-1-1.1-1.6c-0.4-0.5-0.4-1.3,0.2-1.7c0.8-0.8,1.7-1.6,2.5-2.5
			c0.4-0.5,1.2-0.6,1.7-0.2c0,0,0.1,0,0.1,0.1c0.8,0.6,1.6,1.2,2.4,1.8c0.2,0.2,0.5,0.2,0.8,0.1c1-0.1,1.8-1.1,1.7-2.1
			c0.1-0.6,0.2-1.3,0.3-1.9c0-0.7,0.7-1.2,1.4-1.2c0,0,0,0,0,0h3.4c0.7-0.1,1.4,0.4,1.5,1.1c0,0.1,0,0.1,0,0.2c0.2,1,0.3,2,0.5,2.9
			c0.1,0.2,0.2,0.4,0.4,0.5c0.8,0.7,2,0.5,2.6-0.2c0,0,0,0,0,0c0.5-0.4,1-0.8,1.6-1.1c0.5-0.4,1.3-0.3,1.7,0.2
			c0.8,0.8,1.7,1.7,2.5,2.5C64.4,30.8,64.6,31.1,64.7,31.4z M51.5,45.6c2.8,0,5-2.2,5-4.9c0-2.8-2.2-5-4.9-5s-5,2.2-5,4.9
			c0,0,0,0,0,0C46.6,43.3,48.8,45.6,51.5,45.6z"/>
		<path class="st1" d="M73.4,59.4l-9.6,6.3c-0.3-0.5-0.5-1-0.8-1.4c-0.3-0.4-0.7-0.8-1-1.2c2.2-1.4,4.5-2.8,6.7-4.1
			c1.1-0.6,2.3-0.7,3.5-0.2C72.6,58.8,73.1,59.1,73.4,59.4z"/>
		<path class="st1" d="M66.3,57.4l-6.8,4.2c-0.1,0.1-0.3,0.2-0.5,0.2c-1.7-0.1-3.4-0.2-5.3-0.4c0.1-0.1,0.3-0.2,0.4-0.3
			c1.7-1,3.3-2.1,5.1-3.1c1.8-1.3,4.2-1.6,6.3-0.9C65.7,57.1,66,57.2,66.3,57.4z"/>
	</g>
</g>
</svg>
