<?xml version="1.0" encoding="utf-8"?>
<!-- Generator: Adobe Illustrator 23.0.3, SVG Export Plug-In . SVG Version: 6.00 Build 0)  -->
<svg version="1.1" id="Layer_1" xmlns="http://www.w3.org/2000/svg" xmlns:xlink="http://www.w3.org/1999/xlink" x="0px" y="0px"
	 viewBox="0 0 100 100" style="enable-background:new 0 0 100 100;" xml:space="preserve">
<style type="text/css">
	.st0{fill:#198FCC;}
	.st1{fill:#FFFFFF;}
</style>
<title>1</title>
<circle class="st0" cx="50" cy="50" r="48"/>
<g>
	<path class="st1" d="M61.4,40.2c1.3-0.2,2.9-0.4,5.1-0.4v-2.9c-3.4,0-5.5,0.4-7.2,0.8L61.4,40.2z"/>
	<path class="st1" d="M42.3,37.7c-1.8-0.4-3.8-0.8-7.2-0.8v2.9c2.3,0,3.8,0.2,5.1,0.4L42.3,37.7z"/>
	<path class="st1" d="M50.8,38.8c3.7,0,5.6-0.5,7.5-0.9c0.3-0.1,0.6-0.2,1-0.2l3.7-9.1l-1.1-0.6c-0.2-0.1-4.5-2.7-11.1-2.7
		s-10.9,2.6-11.1,2.7l-1.1,0.6l3.7,9.1c0.3,0.1,0.7,0.2,1,0.2C45.2,38.4,47.1,38.8,50.8,38.8L50.8,38.8z"/>
	<path class="st1" d="M67.7,50.7c-1.7-4.1-3.9-7.8-6.4-10.5c-0.8,0.2-1.6,0.3-2.3,0.5c-2,0.5-4.1,1-8.2,1s-6.2-0.5-8.2-1
		c-0.8-0.2-1.5-0.4-2.3-0.5c-2.4,2.8-4.7,6.4-6.4,10.6c-2,4.8-3.2,9.9-3.2,13.8c0,3.3,0.8,5.8,2.5,7.4c3,2.9,8,2.8,13.7,2.7
		c1.2,0,2.5-0.1,3.8-0.1s2.6,0,3.8,0.1c1.2,0,2.3,0,3.4,0c4.3,0,8-0.4,10.4-2.7c1.7-1.7,2.5-4.1,2.5-7.4
		C70.9,60.7,69.7,55.6,67.7,50.7L67.7,50.7z M49.2,53.8c0.8,0.6,2.2,1.2,3.5,1.6c4.8,1.7,4.1,8.3-0.5,9.6v2.2h-2.9v-2.1
		c-1.5-0.1-2.8-1-4.2-2l1.6-2.5l1.2,0.8c1,0.7,1.5,0.7,2.8,0.7c2.2,0.1,3.5-3.2,1-4.1c-2.2-0.8-3.4-1.4-4.3-2.1
		c-2.6-2.1-1.2-6.5,1.8-7.5v-2.1h2.9v1.9c1.9,0.3,2.6,0.9,4,1.6l-1.4,2.6c0,0-1.3-0.7-1.3-0.7c-1-0.6-4-1.4-4.5,0.9
		C49,53.1,48.9,53.6,49.2,53.8L49.2,53.8z"/>
</g>
</svg>
