<?xml version="1.0" encoding="utf-8"?>
<!-- Generator: Adobe Illustrator 23.0.3, SVG Export Plug-In . SVG Version: 6.00 Build 0)  -->
<svg version="1.1" id="Layer_1" xmlns="http://www.w3.org/2000/svg" xmlns:xlink="http://www.w3.org/1999/xlink" x="0px" y="0px"
	 viewBox="0 0 100 100" style="enable-background:new 0 0 100 100;" xml:space="preserve">
<style type="text/css">
	.st0{fill:#198FCC;}
	.st1{fill:#FFFFFF;}
</style>
<title>2</title>
<circle class="st0" cx="50" cy="50" r="48"/>
<g id="XMLID_1_">
	<path id="XMLID_4_" class="st1" d="M62.8,46.5c0-8.4-6.9-15.3-15.3-15.3c-8.4,0-15.3,6.9-15.3,15.3c0,8.4,6.9,15.3,15.3,15.3
		c3.2,0,6.1-1,8.6-2.6l-1.5-5.6l5.6,1.5C61.9,52.7,62.8,49.7,62.8,46.5L62.8,46.5z M52.6,41.4h-5.1c-0.9,0-1.7,0.8-1.7,1.7
		s0.8,1.7,1.7,1.7c2.8,0,5.1,2.3,5.1,5.1c0,2.2-1.4,4.1-3.4,4.8v3.7h-3.4V55h-3.4v-3.4h5.1c0.9,0,1.7-0.8,1.7-1.7s-0.8-1.7-1.7-1.7
		c-2.8,0-5.1-2.3-5.1-5.1c0-2.2,1.4-4.1,3.4-4.8v-3.7h3.4v3.4h3.4V41.4z"/>
	<path id="XMLID_3_" class="st1" d="M47.5,65.2c-10.3,0-18.7-8.4-18.7-18.7c0-10.3,8.4-18.7,18.7-18.7c10.3,0,18.7,8.4,18.7,18.7
		c0,3.5-1,6.7-2.6,9.5l6.7,1.8c4.7-9.4,3.2-21.3-4.8-29.4c-10-10-26.1-10-36,0c-4.8,4.8-7.5,11.2-7.5,18C22.1,60.6,33.5,72,47.5,72
		c4,0,7.9-0.9,11.4-2.7L57,62.6C54.3,64.3,51,65.2,47.5,65.2z"/>
	<path id="XMLID_2_" class="st1" d="M70.2,64.4l2.4-2.4l-13.2-3.6L63,71.6l2.4-2.4l7.7,7.7l4.8-4.8L70.2,64.4z"/>
</g>
</svg>
