<?xml version="1.0" encoding="utf-8"?>
<!-- Generator: Adobe Illustrator 23.0.3, SVG Export Plug-In . SVG Version: 6.00 Build 0)  -->
<svg version="1.1" id="Layer_1" xmlns="http://www.w3.org/2000/svg" xmlns:xlink="http://www.w3.org/1999/xlink" x="0px" y="0px"
	 viewBox="0 0 100 100" style="enable-background:new 0 0 100 100;" xml:space="preserve">
<style type="text/css">
	.st0{fill:#198FCC;}
	.st1{fill:#FFFFFF;}
</style>
<title>3</title>
<circle class="st0" cx="50" cy="50" r="48"/>
<g>
	<g>
		<g>
			<path class="st1" d="M53.3,51.7C53.3,51.7,53.3,51.7,53.3,51.7L42.9,41.3v-6.6c0-0.5-0.2-0.9-0.5-1.3l-11-11.1
				c-0.5-0.5-1.3-0.7-2-0.4c-0.7,0.3-1.1,0.9-1.1,1.7v5.5h-5.6c-0.7,0-1.4,0.4-1.7,1.1c-0.3,0.7-0.1,1.5,0.4,2l11.1,11.1
				c0.3,0.3,0.8,0.5,1.3,0.5h6.6l10.4,10.4c0,0,0,0,0,0c0.7,0.7,1.8,0.7,2.5,0C54,53.6,54,52.5,53.3,51.7z"/>
		</g>
	</g>
	<g>
		<g>
			<path class="st1" d="M52,21.8c-4.7,0-9.1,1.2-13.1,3l5.6,5.6c2.4-0.8,4.9-1.2,7.5-1.2c13.1,0,23.8,10.7,23.8,23.8
				S65.1,76.8,52,76.8S28.2,66.1,28.2,53c0-2.6,0.4-5.1,1.2-7.5l-5.6-5.6c-1.9,4-3,8.4-3,13.1c0,17.1,14.1,31.2,31.2,31.2
				S83.2,70.1,83.2,53S69.1,21.8,52,21.8z"/>
		</g>
	</g>
	<g>
		<g>
			<path class="st1" d="M52,36.5c-1.9,0-3.8,0.4-5.5,1v2.2l4.2,4.2c0.4-0.1,0.8-0.1,1.3-0.1c5,0,9.1,4.1,9.1,9.1S57,62.1,52,62.1
				S42.9,58,42.9,53c0-0.4,0.1-0.8,0.1-1.3l-4.2-4.2h-2.2c-0.6,1.7-1,3.6-1,5.5c0,9.1,7.4,16.5,16.5,16.5S68.5,62.1,68.5,53
				S61.1,36.5,52,36.5z"/>
		</g>
	</g>
</g>
</svg>
