<?xml version="1.0" encoding="utf-8"?>
<!-- Generator: Adobe Illustrator 23.0.3, SVG Export Plug-In . SVG Version: 6.00 Build 0)  -->
<svg version="1.1" id="Layer_1" xmlns="http://www.w3.org/2000/svg" xmlns:xlink="http://www.w3.org/1999/xlink" x="0px" y="0px"
	 viewBox="0 0 225 157.8" style="enable-background:new 0 0 225 157.8;" xml:space="preserve">
<style type="text/css">
	.st0{fill:#D7D7FF;}
	.st1{fill:#EAE6FF;}
	.st2{fill:#BDC6F9;}
	.st3{fill:#8784EF;}
	.st4{fill:#9AA3F4;}
	.st5{fill:none;stroke:#9AA3F4;stroke-width:1.5;stroke-miterlimit:10;}
	.st6{fill:#154284;}
	.st7{fill:#FFFFFF;}
	.st8{opacity:0.35;}
	.st9{opacity:0.25;}
	.st10{fill:#FCA70C;}
	.st11{fill:#B1AFFD;}
	.st12{opacity:0.15;}
	.st13{opacity:0.26;enable-background:new    ;}
	.st14{opacity:0.62;}
	.st15{fill:#D5DBDA;}
	.st16{fill:#EFEFEF;}
	.st17{fill:#CFCFFF;}
	.st18{opacity:0.55;fill:#154284;enable-background:new    ;}
	.st19{fill:#5851BC;}
	.st20{fill:#25468F;}
	.st21{fill:#FFBE9D;}
	.st22{fill:#FD5C95;}
	.st23{fill:#7762EF;}
	.st24{fill:#323441;}
	.st25{fill:#F2F2F2;}
	.st26{fill:#8484EF;}
	.st27{fill:#C4C4F7;}
	.st28{fill:#BBBBF2;}
	.st29{fill:#A4A4F7;}
	.st30{fill:#FFB9B0;}
	.st31{fill:none;stroke:#C4C4F7;stroke-width:0.75;stroke-linecap:round;stroke-linejoin:round;stroke-miterlimit:10;}
	.st32{fill:#F9BFAD;}
	.st33{fill:#0A8CC8;}
	.st34{fill:#38287C;}
	.st35{opacity:0.25;fill:#CE4A30;enable-background:new    ;}
	.st36{fill:#7A74D1;}
	.st37{opacity:0.45;fill:none;stroke:#A4A4F7;stroke-miterlimit:10;enable-background:new    ;}
	.st38{fill:#23478E;}
	.st39{fill:#F2A181;}
	.st40{fill:#5E5DBB;}
	.st41{fill:#B4B4DB;}
	.st42{fill:#077BA3;}
	.st43{fill:#170D54;}
	.st44{fill:#3B2E7A;}
	.st45{fill:#E9E6FF;}
	.st46{fill:#E0D9FF;}
	.st47{opacity:0.3;}
	.st48{fill:#3939D3;}
	.st49{fill:#FEFEFE;}
</style>
<g>
	<g>
		<polygon class="st0" points="25.6,110.6 24.4,128.1 41.2,128.1 40,110.5 		"/>
		<g>
			<g>
				<path class="st1" d="M29,112.1L29,112.1c0-0.3,0.3-0.5,0.6-0.5l0,0c0.3,0,0.6,0.2,0.6,0.5s-0.3,0.5-0.6,0.5l0,0
					C29.2,112.6,29,112.4,29,112.1z M29.5,111.8c-0.2,0-0.4,0.1-0.4,0.3c0,0.2,0.2,0.3,0.4,0.3l0,0c0.2,0,0.4-0.1,0.4-0.3
					S29.8,111.8,29.5,111.8L29.5,111.8z M29.1,112.1L29.1,112.1L29.1,112.1z"/>
			</g>
			<g>
				<path class="st1" d="M34.7,112.1L34.7,112.1L34.7,112.1c0-0.1,0-0.2,0.1-0.3c0.1-0.1,0.3-0.2,0.4-0.2l0,0c0.3,0,0.6,0.2,0.6,0.5
					c0,0.1-0.1,0.3-0.2,0.4c-0.1,0.1-0.2,0.1-0.4,0.1l0,0C34.9,112.6,34.7,112.4,34.7,112.1z M35.3,111.8c-0.1,0-0.2,0-0.3,0.1
					c0,0-0.1,0.1-0.1,0.2l0,0c0,0.2,0.2,0.3,0.4,0.3l0,0c0.1,0,0.2,0,0.3-0.1s0.1-0.1,0.1-0.2C35.7,111.9,35.5,111.8,35.3,111.8
					L35.3,111.8z"/>
			</g>
			<path class="st1" d="M32.2,115.6c0.1,0,0.1,0,0.2,0c1.1,0,1.9-0.4,2.4-1c0.9-1,0.7-2.5,0.7-2.6s-0.1-0.2-0.2-0.2
				c-0.1,0-0.2,0.1-0.2,0.2c0,0,0.2,1.4-0.6,2.3c-0.5,0.5-1.2,0.8-2.1,0.9c-0.9,0-1.6-0.2-2-0.7c-0.8-0.9-0.6-2.4-0.6-2.4
				c0-0.1-0.1-0.2-0.2-0.2s-0.2,0.1-0.2,0.2s-0.2,1.7,0.7,2.7C30.6,115.4,31.3,115.6,32.2,115.6z"/>
		</g>
		<polygon class="st2" points="33.5,115.5 31.5,128.6 49.7,128.5 47.9,115.5 		"/>
		<g>
			<path class="st3" d="M26.8,137.6c-2,0-3.7,1.7-3.7,3.7s1.7,3.7,3.7,3.7s3.7-1.7,3.7-3.7C30.5,139.2,28.8,137.6,26.8,137.6z
				 M26.8,143c-0.9,0-1.7-0.8-1.7-1.7s0.8-1.7,1.7-1.7c1,0,1.7,0.8,1.7,1.7S27.7,143,26.8,143z"/>
			<path class="st4" d="M26.2,137.6c-2,0-3.7,1.7-3.7,3.7s1.7,3.7,3.7,3.7s3.7-1.7,3.7-3.7C29.9,139.2,28.2,137.6,26.2,137.6z
				 M26.2,143c-0.9,0-1.7-0.8-1.7-1.7s0.8-1.7,1.7-1.7c1,0,1.7,0.8,1.7,1.7C27.9,142.2,27.1,143,26.2,143z"/>
			<path class="st3" d="M47.6,137.6c-2,0-3.7,1.7-3.7,3.7s1.7,3.7,3.7,3.7s3.7-1.7,3.7-3.7C51.3,139.2,49.7,137.6,47.6,137.6z
				 M47.6,143c-0.9,0-1.7-0.8-1.7-1.7s0.8-1.7,1.7-1.7c1,0,1.7,0.8,1.7,1.7C49.4,142.2,48.6,143,47.6,143z"/>
			<path class="st4" d="M47,137.6c-2,0-3.7,1.7-3.7,3.7S45,145,47,145s3.7-1.7,3.7-3.7C50.7,139.2,49.1,137.6,47,137.6z M47,143
				c-0.9,0-1.7-0.8-1.7-1.7s0.8-1.7,1.7-1.7c1,0,1.7,0.8,1.7,1.7C48.8,142.2,48,143,47,143z"/>
			<g>
				<path class="st5" d="M75.5,96.1H64.4c-1.2,0-2.3,0.6-2.9,1.6l-6.7,10.8"/>
				<path class="st5" d="M25,128.3h24.8c1.3,0,2.4-1,2.7-2.3l2.6-16c0.3-1.6-1-3.1-2.7-3.1H22.5c-1.7,0-2.9,1.5-2.7,3.1l2.6,16
					C22.6,127.3,23.7,128.3,25,128.3z"/>
				<line class="st5" x1="37.4" y1="106.9" x2="37.4" y2="128.3"/>
				<line class="st5" x1="53.8" y1="117.6" x2="21" y2="117.6"/>
				<line class="st5" x1="47.2" y1="106.9" x2="45.1" y2="128.3"/>
				<line class="st5" x1="28.1" y1="106.9" x2="30.1" y2="128.3"/>
				<path class="st5" d="M51.9,127.3l4,6c1.1,1.6-0.1,3.8-2,3.8H21"/>
			</g>
		</g>
	</g>
	<g>
		<rect x="104.2" y="130.1" class="st6" width="34" height="9.1"/>
		<path class="st6" d="M170.9,133.1H71.8c-5.2,0-9.4-4.2-9.4-9.4v-66c0-5.2,4.2-9.4,9.4-9.4h99.1c5.2,0,9.4,4.2,9.4,9.4v66
			C180.3,128.9,176.1,133.1,170.9,133.1z"/>
		<path class="st7" d="M170.9,125H71.5c-3.2,0-5.8-2.6-5.8-5.8v-62c0-3.2,2.6-5.8,5.8-5.8h99.4c3.2,0,5.8,2.6,5.8,5.8v62
			C176.7,122.4,174.1,125,170.9,125z"/>
		<path class="st6" d="M152.8,144.2H89.6v-0.7c0-2.8,2.3-5,5-5h53.2c2.8,0,5,2.3,5,5V144.2z"/>
		<g class="st8">
			<g>
				<g>
					<path class="st7" d="M166.5,108.7H95.6c-1.9,0-3.4-1.5-3.4-3.4V59.9c0-1.9,1.5-3.4,3.4-3.4h70.8c1.9,0,3.4,1.5,3.4,3.4v45.4
						C169.9,107.1,168.3,108.7,166.5,108.7z"/>
				</g>
			</g>
		</g>
		<g class="st9">
			<g>
				<g>
					<g>
						<g>
							<rect x="99.6" y="94.6" class="st10" width="3.4" height="8.5"/>
						</g>
					</g>
				</g>
				<g>
					<g>
						<g>
							<rect x="107.2" y="87.1" class="st11" width="3.4" height="15.9"/>
						</g>
					</g>
				</g>
				<g>
					<g>
						<g>
							<rect x="114.9" y="88.8" class="st10" width="3.4" height="14.3"/>
						</g>
					</g>
				</g>
				<g>
					<g>
						<g>
							<rect x="122.5" y="80.7" class="st11" width="3.4" height="22.4"/>
						</g>
					</g>
				</g>
				<g class="st12">
					<g>
						<g>
							<rect x="107.2" y="87.1" class="st13" width="1.6" height="15.9"/>
						</g>
					</g>
				</g>
				<g class="st12">
					<g>
						<g>
							<rect x="99.6" y="94.6" class="st13" width="1.6" height="8.5"/>
						</g>
					</g>
				</g>
				<g class="st14">
					<g>
						<g>
							<rect x="122.5" y="80.7" class="st13" width="1.6" height="22.4"/>
						</g>
					</g>
				</g>
				<g class="st12">
					<g>
						<g>
							<rect x="114.9" y="88.8" class="st13" width="1.6" height="14.3"/>
						</g>
					</g>
				</g>
				<g>
					<g>
						<g>
							<polygon class="st15" points="127.6,105.4 97.4,105.4 97.4,73.2 97.8,73.2 97.8,105 127.6,105 							"/>
						</g>
					</g>
				</g>
				<g>
					<g>
						<g>
							<polygon class="st15" points="100.5,90.6 100.2,90.3 108.1,83.2 115.4,84.8 123.4,75.9 123.7,76.2 115.6,85.3 108.2,83.7 
															"/>
						</g>
					</g>
				</g>
				<g>
					<g>
						<g>
							<polygon class="st15" points="124.3,77.5 122.1,75.4 125,74.6 							"/>
						</g>
					</g>
				</g>
				<g>
					<g>
						<g>
							<g>
								<rect x="130.5" y="94" class="st11" width="2.3" height="2.3"/>
							</g>
						</g>
					</g>
					<g>
						<g>
							<g>
								<rect x="130.5" y="98.1" class="st10" width="2.3" height="2.3"/>
							</g>
						</g>
					</g>
					<g>
						<g>
							<g>
								<rect x="133.5" y="99.1" class="st16" width="7.4" height="1.3"/>
							</g>
						</g>
					</g>
					<g>
						<g>
							<g>
								<rect x="133.5" y="95" class="st16" width="7.4" height="1.3"/>
							</g>
						</g>
					</g>
				</g>
				<g>
					<g>
						<g>
							<g>
								<rect x="144.2" y="94" class="st11" width="2.3" height="2.3"/>
							</g>
						</g>
					</g>
					<g>
						<g>
							<g>
								<rect x="144.2" y="98.1" class="st10" width="2.3" height="2.3"/>
							</g>
						</g>
					</g>
					<g>
						<g>
							<g>
								<rect x="147.1" y="99.1" class="st16" width="7.4" height="1.3"/>
							</g>
						</g>
					</g>
					<g>
						<g>
							<g>
								<rect x="147.1" y="95" class="st16" width="7.4" height="1.3"/>
							</g>
						</g>
					</g>
				</g>
				<g>
					<g>
						<g>
							<g>
								<rect x="156.5" y="94" class="st11" width="2.3" height="2.3"/>
							</g>
						</g>
					</g>
					<g>
						<g>
							<g>
								<rect x="156.5" y="98.1" class="st10" width="2.3" height="2.3"/>
							</g>
						</g>
					</g>
					<g>
						<g>
							<g>
								<rect x="159.4" y="99.1" class="st16" width="4.8" height="1.3"/>
							</g>
						</g>
					</g>
					<g>
						<g>
							<g>
								<rect x="159.4" y="95" class="st16" width="4.8" height="1.3"/>
							</g>
						</g>
					</g>
				</g>
				<g>
					<g>
						<g>
							<g>
								<rect x="130.9" y="71.8" class="st16" width="33.3" height="0.6"/>
							</g>
						</g>
					</g>
					<g>
						<g>
							<g>
								<rect x="97.4" y="64.4" class="st16" width="66.9" height="1.4"/>
							</g>
						</g>
					</g>
					<g>
						<g>
							<g>
								<rect x="130.8" y="73.7" class="st16" width="33.4" height="0.6"/>
							</g>
						</g>
					</g>
					<g>
						<g>
							<g>
								<rect x="130.8" y="69.9" class="st16" width="33.4" height="0.6"/>
							</g>
						</g>
					</g>
					<g>
						<g>
							<g>
								<rect x="130.8" y="75.6" class="st16" width="33.4" height="0.6"/>
							</g>
						</g>
					</g>
					<g>
						<g>
							<g>
								<rect x="130.8" y="77.5" class="st16" width="33.4" height="0.6"/>
							</g>
						</g>
					</g>
					<g>
						<g>
							<g>
								<rect x="130.8" y="79.3" class="st16" width="33.4" height="0.6"/>
							</g>
						</g>
					</g>
					<g>
						<g>
							<g>
								<rect x="130.8" y="81.2" class="st16" width="33.4" height="0.6"/>
							</g>
						</g>
					</g>
					<g>
						<g>
							<g>
								<rect x="130.8" y="83.1" class="st16" width="33.4" height="0.6"/>
							</g>
						</g>
					</g>
					<g>
						<g>
							<g>
								<rect x="130.8" y="85" class="st16" width="33.4" height="0.6"/>
							</g>
						</g>
					</g>
					<g>
						<g>
							<g>
								<rect x="134.9" y="86.9" class="st16" width="29.3" height="0.6"/>
							</g>
						</g>
					</g>
				</g>
			</g>
			<path class="st6" d="M166.5,56.5H95.6c-1.9,0-3.4,1.5-3.4,3.4v3h77.6v-3C169.9,58,168.3,56.5,166.5,56.5z"/>
			<path class="st17" d="M159.9,59.8c0,0.5-0.4,1-1,1c-0.5,0-1-0.4-1-1s0.4-1,1-1C159.4,58.8,159.9,59.2,159.9,59.8z"/>
			<circle class="st17" cx="162.9" cy="59.8" r="1"/>
			<circle class="st17" cx="166.9" cy="59.8" r="1"/>
		</g>
		<g>
			<g>
				<g>
					<g>
						<path class="st18" d="M145.8,120.2H75c-1.9,0-3.4-1.5-3.4-3.4V71.4c0-1.9,1.5-3.4,3.4-3.4h70.8c1.9,0,3.4,1.5,3.4,3.4v45.4
							C149.2,118.7,147.7,120.2,145.8,120.2z"/>
					</g>
				</g>
			</g>
			<g>
				<g>
					<g>
						<path class="st7" d="M147.4,118.2H76.6c-1.9,0-3.4-1.5-3.4-3.4V69.4c0-1.9,1.5-3.4,3.4-3.4h70.8c1.9,0,3.4,1.5,3.4,3.4v45.4
							C150.8,116.6,149.3,118.2,147.4,118.2z"/>
					</g>
				</g>
			</g>
			<g>
				<g>
					<g>
						<g>
							<rect x="80.6" y="104.1" class="st10" width="3.4" height="8.5"/>
						</g>
					</g>
				</g>
				<g>
					<g>
						<g>
							<rect x="88.2" y="96.7" class="st11" width="3.4" height="15.9"/>
						</g>
					</g>
				</g>
				<g>
					<g>
						<g>
							<rect x="95.8" y="98.3" class="st10" width="3.4" height="14.3"/>
						</g>
					</g>
				</g>
				<g>
					<g>
						<g>
							<rect x="103.4" y="90.2" class="st11" width="3.4" height="22.4"/>
						</g>
					</g>
				</g>
				<g class="st12">
					<g>
						<g>
							<rect x="88.2" y="96.7" class="st13" width="1.6" height="15.9"/>
						</g>
					</g>
				</g>
				<g class="st12">
					<g>
						<g>
							<rect x="80.6" y="104.1" class="st13" width="1.6" height="8.5"/>
						</g>
					</g>
				</g>
				<g class="st14">
					<g>
						<g>
							<rect x="103.4" y="90.2" class="st13" width="1.6" height="22.4"/>
						</g>
					</g>
				</g>
				<g class="st12">
					<g>
						<g>
							<rect x="95.8" y="98.3" class="st13" width="1.6" height="14.3"/>
						</g>
					</g>
				</g>
				<g>
					<g>
						<g>
							<polygon class="st15" points="108.6,114.9 78.3,114.9 78.3,85.6 78.8,85.6 78.8,114.5 108.6,114.5 							"/>
						</g>
					</g>
				</g>
				<g>
					<g>
						<g>
							<polygon class="st15" points="81.4,100.1 81.1,99.8 89.1,92.7 96.4,94.3 104.3,85.4 104.7,85.7 96.6,94.8 89.2,93.2 							
								"/>
						</g>
					</g>
				</g>
				<g>
					<g>
						<g>
							<polygon class="st15" points="105.3,87 103.1,84.9 105.9,84.1 							"/>
						</g>
					</g>
				</g>
				<g>
					<g>
						<g>
							<g>
								<rect x="111.5" y="103.5" class="st11" width="2.3" height="2.3"/>
							</g>
						</g>
					</g>
					<g>
						<g>
							<g>
								<rect x="111.5" y="107.6" class="st10" width="2.3" height="2.3"/>
							</g>
						</g>
					</g>
					<g>
						<g>
							<g>
								<rect x="114.4" y="108.6" class="st16" width="7.4" height="1.3"/>
							</g>
						</g>
					</g>
					<g>
						<g>
							<g>
								<rect x="114.4" y="104.5" class="st16" width="7.4" height="1.3"/>
							</g>
						</g>
					</g>
				</g>
				<g>
					<g>
						<g>
							<g>
								<rect x="125.1" y="103.5" class="st11" width="2.3" height="2.3"/>
							</g>
						</g>
					</g>
					<g>
						<g>
							<g>
								<rect x="125.1" y="107.6" class="st10" width="2.3" height="2.3"/>
							</g>
						</g>
					</g>
					<g>
						<g>
							<g>
								<rect x="128.1" y="108.6" class="st16" width="7.4" height="1.3"/>
							</g>
						</g>
					</g>
					<g>
						<g>
							<g>
								<rect x="128.1" y="104.5" class="st16" width="7.4" height="1.3"/>
							</g>
						</g>
					</g>
				</g>
				<g>
					<g>
						<g>
							<g>
								<rect x="137.4" y="103.5" class="st11" width="2.3" height="2.3"/>
							</g>
						</g>
					</g>
					<g>
						<g>
							<g>
								<rect x="137.4" y="107.6" class="st10" width="2.3" height="2.3"/>
							</g>
						</g>
					</g>
					<g>
						<g>
							<g>
								<rect x="140.4" y="108.6" class="st16" width="4.8" height="1.3"/>
							</g>
						</g>
					</g>
					<g>
						<g>
							<g>
								<rect x="140.4" y="104.5" class="st16" width="4.8" height="1.3"/>
							</g>
						</g>
					</g>
				</g>
				<g>
					<g>
						<g>
							<g>
								<rect x="111.9" y="81.3" class="st16" width="33.3" height="0.6"/>
							</g>
						</g>
					</g>
					<g>
						<g>
							<g>
								<rect x="78.3" y="73.9" class="st16" width="66.9" height="1.4"/>
							</g>
						</g>
					</g>
					<g>
						<g>
							<g>
								<rect x="111.8" y="83.2" class="st16" width="33.4" height="0.6"/>
							</g>
						</g>
					</g>
					<g>
						<g>
							<g>
								<rect x="111.8" y="79.4" class="st16" width="33.4" height="0.6"/>
							</g>
						</g>
					</g>
					<g>
						<g>
							<g>
								<rect x="111.8" y="85.1" class="st16" width="33.4" height="0.6"/>
							</g>
						</g>
					</g>
					<g>
						<g>
							<g>
								<rect x="111.8" y="87" class="st16" width="33.4" height="0.6"/>
							</g>
						</g>
					</g>
					<g>
						<g>
							<g>
								<rect x="111.8" y="88.9" class="st16" width="33.4" height="0.6"/>
							</g>
						</g>
					</g>
					<g>
						<g>
							<g>
								<rect x="111.8" y="90.7" class="st16" width="33.4" height="0.6"/>
							</g>
						</g>
					</g>
					<g>
						<g>
							<g>
								<rect x="111.8" y="92.6" class="st16" width="33.4" height="0.6"/>
							</g>
						</g>
					</g>
					<g>
						<g>
							<g>
								<rect x="111.8" y="94.5" class="st16" width="33.4" height="0.6"/>
							</g>
						</g>
					</g>
					<g>
						<g>
							<g>
								<rect x="115.9" y="96.4" class="st16" width="29.3" height="0.6"/>
							</g>
						</g>
					</g>
				</g>
			</g>
			<path class="st6" d="M147.4,66H76.6c-1.9,0-3.4,1.5-3.4,3.4v3h77.6v-3C150.8,67.5,149.3,66,147.4,66z"/>
			<path class="st17" d="M140.8,69.3c0,0.5-0.4,1-1,1c-0.5,0-1-0.4-1-1s0.4-1,1-1C140.4,68.3,140.8,68.8,140.8,69.3z"/>
			<path class="st17" d="M144.8,69.3c0,0.5-0.4,1-1,1c-0.5,0-1-0.4-1-1s0.4-1,1-1C144.4,68.3,144.8,68.8,144.8,69.3z"/>
			<path class="st17" d="M148.8,69.3c0,0.5-0.4,1-1,1c-0.5,0-1-0.4-1-1s0.4-1,1-1C148.4,68.3,148.8,68.8,148.8,69.3z"/>
		</g>
	</g>
	<g>
		<path class="st6" d="M213.9,145.5H182c-3.8,0-6.9-3.1-6.9-6.9V99.4c0-3.8,3.1-6.9,6.9-6.9h31.9c3.8,0,6.9,3.1,6.9,6.9v39.1
			C220.9,142.4,217.7,145.5,213.9,145.5z"/>
		<g>
			<g>
				<path class="st7" d="M216.2,108.9H181c-1,0-1.8-0.8-1.8-1.8v-7.3c0-1,0.8-1.8,1.8-1.8h35.2c1,0,1.8,0.8,1.8,1.8v7.3
					C218,108.1,217.2,108.9,216.2,108.9z"/>
				<path class="st7" d="M187.5,119.7H181c-1,0-1.8-0.8-1.8-1.8v-3.4c0-1,0.8-1.8,1.8-1.8h6.4c1,0,1.8,0.8,1.8,1.8v3.4
					C189.2,118.9,188.4,119.7,187.5,119.7z"/>
				<path class="st7" d="M201.9,119.7h-6.4c-1,0-1.8-0.8-1.8-1.8v-3.4c0-1,0.8-1.8,1.8-1.8h6.4c1,0,1.8,0.8,1.8,1.8v3.4
					C203.6,118.9,202.8,119.7,201.9,119.7z"/>
				<path class="st7" d="M216.2,119.7h-6.4c-1,0-1.8-0.8-1.8-1.8v-3.4c0-1,0.8-1.8,1.8-1.8h6.4c1,0,1.8,0.8,1.8,1.8v3.4
					C218,118.9,217.2,119.7,216.2,119.7z"/>
				<path class="st7" d="M187.5,130.8H181c-1,0-1.8-0.8-1.8-1.8v-3.4c0-1,0.8-1.8,1.8-1.8h6.4c1,0,1.8,0.8,1.8,1.8v3.4
					C189.2,130,188.4,130.8,187.5,130.8z"/>
				<path class="st7" d="M201.9,130.8h-6.4c-1,0-1.8-0.8-1.8-1.8v-3.4c0-1,0.8-1.8,1.8-1.8h6.4c1,0,1.8,0.8,1.8,1.8v3.4
					C203.6,130,202.8,130.8,201.9,130.8z"/>
				<path class="st7" d="M187.5,141.9H181c-1,0-1.8-0.8-1.8-1.8v-3.4c0-1,0.8-1.8,1.8-1.8h6.4c1,0,1.8,0.8,1.8,1.8v3.4
					C189.2,141.1,188.4,141.9,187.5,141.9z"/>
				<path class="st7" d="M201.9,141.9h-6.4c-1,0-1.8-0.8-1.8-1.8v-3.4c0-1,0.8-1.8,1.8-1.8h6.4c1,0,1.8,0.8,1.8,1.8v3.4
					C203.6,141.1,202.8,141.9,201.9,141.9z"/>
			</g>
			<path class="st7" d="M216.2,141.9h-6.4c-1,0-1.8-0.8-1.8-1.8v-14.5c0-1,0.8-1.8,1.8-1.8h6.4c1,0,1.8,0.8,1.8,1.8v14.5
				C218,141.1,217.2,141.9,216.2,141.9z"/>
		</g>
	</g>
	<g>
		<polygon class="st10" points="72.4,122.7 70,147.5 93.5,147.5 91.3,122.6 		"/>
		<g>
			<g>
				<path class="st19" d="M76.5,125L76.5,125c0-0.4,0.4-0.7,0.9-0.7l0,0c0.5,0,0.9,0.3,0.9,0.7c0,0.4-0.4,0.7-0.9,0.7l0,0
					C76.9,125.7,76.5,125.4,76.5,125z M77.4,124.5c-0.3,0-0.6,0.2-0.6,0.5s0.3,0.5,0.6,0.5l0,0c0.3,0,0.6-0.2,0.6-0.5
					S77.7,124.5,77.4,124.5L77.4,124.5z M76.7,125L76.7,125L76.7,125z"/>
			</g>
			<g>
				<path class="st19" d="M85.3,124.9L85.3,124.9L85.3,124.9c0-0.2,0.1-0.3,0.2-0.5c0.2-0.2,0.4-0.3,0.7-0.3l0,0
					c0.5,0,0.9,0.3,0.9,0.7c0,0.2-0.1,0.4-0.3,0.5c-0.2,0.1-0.4,0.2-0.6,0.2l0,0C85.7,125.7,85.3,125.3,85.3,124.9z M86.2,124.5
					c-0.2,0-0.4,0.1-0.5,0.2s-0.1,0.2-0.1,0.3l0,0c0,0.3,0.3,0.5,0.6,0.5l0,0c0.2,0,0.3-0.1,0.4-0.1c0.1-0.1,0.2-0.2,0.2-0.3
					C86.8,124.7,86.5,124.5,86.2,124.5L86.2,124.5z"/>
			</g>
		</g>
		<g>
			<path class="st19" d="M81.5,130.4c0.1,0,0.2,0,0.3,0c1.6-0.1,2.8-0.6,3.7-1.5c1.3-1.6,1-3.8,1-3.9c0-0.2-0.2-0.3-0.3-0.2
				c-0.2,0-0.3,0.2-0.2,0.3c0,0,0.3,2.1-0.9,3.5c-0.7,0.8-1.8,1.3-3.2,1.3c-1.4,0-2.4-0.3-3.1-1.1c-1.3-1.4-0.9-3.7-0.9-3.7
				c0-0.2-0.1-0.3-0.2-0.3c-0.2,0-0.3,0.1-0.3,0.2s-0.4,2.6,1.1,4.2C79,129.9,80.1,130.4,81.5,130.4z"/>
		</g>
	</g>
	<g>
		<g>
			<path class="st20" d="M49.3,66.8c0.9,1.6,0.1,3.7,1,5.3c0.4,0.6,1,1.1,1.2,1.8c0.1,0.6-0.1,1.3-0.6,1.6c-0.5,0.4-1.2,0.4-1.7,0.2
				c-0.1-0.1-0.2-0.1-0.4-0.2c-0.5-0.1-0.9,0.3-1.3,0.5c-0.5,0.3-1.1,0.5-1.7,0.3c-0.7-0.2-1.1-0.9-1.4-1.7c-0.7-2-0.2-4.1,0.4-6.1
				c0.3-1,0.8-2.1,1.7-2.5"/>
		</g>
		<path class="st21" d="M70.4,83.5c0,0.2,0.3,0.4,0.1,0.9c-0.5,1-2,2.4-3.9,1.8c-0.1,0-10.2,5.9-11,5.9s-6.1-5-7.8-11.2
			c-0.4-1.5-0.3-3.2,1.1-4c0,0,1.2,0.3,1.9,1.7c1.1,2.2,4.6,9.3,5.3,9.6c0.9-0.6,5.6-2,9.3-3.6c0.8-0.4,1.2-0.7,1.5-1.2
			s1-1.8,1.6-2.4c0.2-0.2,2.4-1.4,2.4-1c0,0.2-0.7,0.8-1.5,1.4c-0.4,0.3-0.6,0.8-0.7,1c-0.1,0.3,1.6-0.2,1.7,0.4
			C70.6,82.7,70.4,83.4,70.4,83.5z"/>
		<g>
			<path class="st22" d="M48.6,76.7c1.3,0.3,2.4,1.1,3,2.3c0.2,0.3,0.3,0.6,0.4,0.9c0.5,1.4,1.3,2.6,1.8,4c-0.7,0.6-1.6,0.9-2.4,1.1
				c-0.7,0.3-1.5,0.4-2.2,0.3c-0.1,0-0.3,0-0.4-0.1c-0.2-0.1-0.3-0.2-0.4-0.3c-0.2-0.3-0.5-0.5-0.7-0.8c-0.2-0.2-0.4-0.5-0.5-0.8
				c-0.1-0.4,0-0.8,0.1-1.2"/>
		</g>
		<g class="st8">
			<path class="st23" d="M50,80.4c0-0.1-0.1-0.1-0.2-0.1c-0.1-0.1-0.3,0-0.4,0.2c-0.1,0.1-0.1,0.3-0.1,0.4c0,0.6,0.1,1.1,0.3,1.6
				l-0.2,2.9l0,0c0.7,0,1.4-0.1,2.1-0.3c0.3-0.1,0.6-0.2,1-0.4C52.2,83.1,51,81.7,50,80.4z"/>
		</g>
		<path class="st21" d="M45.5,73.8c0,0,0,1.8,0.2,1.9c0.6,0.2,1.2,0.4,1.2,0.4v3.7l-5-0.8l-3.4-1.9c0,0,3.6-1.2,3.6-1.5
			c0-0.4-0.2-2.4-0.2-2.4"/>
		<g>
			<path class="st21" d="M37.8,127.9L37.8,127.9c-1.4,6.5-0.7,15.4-1,20.2c0.1,0,1.9,0.2,1.9,0.2s4.2-20.5,5-24.4
				c0.1-0.3,0.1-0.5,0.1-0.8c0.2-3-2.5-3.1-4-0.7c-0.2,0.4-0.5,0.8-0.7,1.3c-0.1,0.2-0.2,0.4-0.2,0.6l0,0c-0.2,0.6-0.5,1.3-0.7,2.1
				v0.1c-0.1,0.2-0.1,0.4-0.2,0.6l0,0C37.9,127.5,37.9,127.7,37.8,127.9z"/>
			<path class="st21" d="M45.8,104.7c0,0.5-0.3,3.1-0.7,6.1c-0.3,2.5-0.6,5.4-0.9,7.6c-0.2,1.7-0.3,3-0.4,3.7c0,0.4-0.1,0.7-0.1,1.1
				l0,0c-0.6,3-2.7,3.1-3.9,2.4c-0.2-0.1-0.3-0.2-0.5-0.3c-0.3-0.3-0.5-0.6-0.5-0.9l0,0c-0.1-0.6-0.2-1.4-0.2-2.4l0,0l0,0l0,0
				c-0.1-1.9-0.3-4.4-0.4-6.8c-0.1-3-0.2-5.8-0.2-7.4c0-0.1,0-0.2,0-0.3c0-4.9,4.5-8.1,7.3-6.5h0.1c0,0,0.1,0,0.1,0.1
				c0.3,0.2,0.4,0.9,0.4,1.8C45.9,103.5,45.9,104.1,45.8,104.7z"/>
			<path class="st21" d="M38.9,123.3l-0.3-1.3l0,0c0,0.3,0,2.4-0.4,4.5v0.1c0,0.2-0.1,0.4-0.2,0.6l0,0c-0.1,0.3-0.1,0.6-0.1,0.7l0,0
				c0,0.6,1.2-2,1.5-2.6c0-0.1,0.1-0.1,0.1-0.1l-0.3-1.4L38.9,123.3z"/>
		</g>
		<g>
			<path class="st21" d="M48.7,129.1L48.7,129.1c-0.1,6.8,2,14.7,2.5,19.7c0.1,0,1.7-0.2,1.7-0.2s0.3-20.7,0.3-24.8
				c0-0.3,0-0.6,0-0.8c-0.3-3-2.8-2.5-3.7,0.3c-0.2,0.5-0.3,1-0.4,1.5c0,0.2-0.1,0.4-0.1,0.7l0,0c-0.1,0.7-0.2,1.4-0.2,2.2v0.1
				c0,0.2,0,0.4,0,0.7l0,0C48.7,128.7,48.7,128.9,48.7,129.1z"/>
			<path class="st21" d="M50.1,126.4c-0.2,0-0.3-0.1-0.5-0.2c-0.3-0.2-0.5-0.4-0.6-0.7l0,0c-0.2-0.6-0.4-1.4-0.6-2.4l0,0l0,0
				c-0.5-1.9-1-4.3-1.5-6.6c-0.6-2.9-1.2-5.7-1.5-7.3c0-0.1-0.3-1.2-0.3-1.3c-0.9-4.9,3-8.2,5.8-7.2H51c0.6,0.2,0.7,2.2,0.8,3.5
				s1.1,15.2,1.3,17.7c0,0.4,0.1,0.8,0,1.1C53.1,126.1,51.3,126.7,50.1,126.4z"/>
			<path class="st21" d="M48.9,124.2l-0.5-1.2l0,0c0.1,0.3,0.4,2.3,0.4,4.6v0.1c0,0.2,0,0.4,0,0.7l0,0c0,0.4,0,0.6,0,0.7l0,0
				c0.1,0.6,0.8-2.3,0.9-3c0-0.1,0-0.1,0-0.1l-0.5-1.3L48.9,124.2z"/>
		</g>
		<path class="st24" d="M40.3,95.2c0,0-3.6,4.6-3.3,9.2c0.2,1.9,0.4,3.6,0.6,5.6c0,0.3,0.5,4.4,0.3,4.4c0,0,7.5,2.3,14.7-0.7
			c0-0.5,0.6-10-3.3-19C44.7,95.3,40.3,95.2,40.3,95.2z"/>
		<path class="st22" d="M51.7,84.5c0,1.3-0.7,2.1-1.7,3.2c-0.1,0.2-0.4,3.1-0.5,5.1c-0.1,1,0.4,1.7,0,1.7c-1.5,1.3-6.7,2.3-9.1,0.6
			c0.3-2.1-0.7-6.8-1.3-9.2c-0.1-0.4-0.2-0.7-0.3-0.9c-0.6-1.8-1.7-7.6-0.9-7.9c0.2-0.1,0.4-0.1,0.7-0.2c1.3-0.4,3.1-1,3.1-1
			s1.1,3.2,3.9,3.6c1.5-0.6,1.4-2.6,1.4-3.5c0.5,0.1,0.7,0.3,2.3,0.7c0.4,0.6,0.1,2,0.8,3.9C50.1,81.2,51.7,82.9,51.7,84.5z"/>
		<path class="st21" d="M49.1,66.4c0,0,0.3,3.5-0.3,5.3c-0.4,1.4-2.3,2.6-3.8,2.6c-4.2,0-4.9-5.7-4.9-5.9c0-0.3,6.2-2.7,6.2-2.7
			L49.1,66.4z"/>
		<path class="st25" d="M49.5,100.9"/>
		<g>
			<path class="st22" d="M57,150.8c-1.5,0.3-3.1-0.2-3.7,0c-0.5,0.1-1.9,0.4-2.4,0s-0.4-2.1,0.2-2.3c0,0,0.1,0.1,0.4,0.1
				c0.4,0.1,1,0.1,1.8-0.1c1.1,0.5,1.2,0.7,2.5,0.9c0.6,0.1,1.2,0.3,1.6,0.5C57.8,150,57.9,150.6,57,150.8z"/>
		</g>
		<g>
			<path class="st22" d="M41,151.4c-1.5-0.3-2.4-1.1-3.1-1.2c-0.5-0.1-1.9-0.4-2-0.9c-0.1-0.4,0.3-2.1,0.9-2.1c0,0,0.1,0.1,0.3,0.2
				c0.3,0.2,0.9,0.4,1.7,0.5c0.9,0.8,0.9,1,2,1.7c0.5,0.3,1,0.7,1.4,1C42.7,151,41.9,151.6,41,151.4z"/>
		</g>
		<g>
			<path class="st21" d="M19.3,82l1.4-1.6l8.3,7.5c0,0,4.1-5.4,5.2-7.1c1.2-1.9,2.3-3.4,4.1-3.8c0.4,0.3-0.1,6.9-0.4,7.1
				c-2.5,1.9-7.4,7.9-9,8.3C27.2,92.7,19.3,82,19.3,82z"/>
			<path class="st22" d="M39,76.7c0,0-1.7,0-2.4,0.6s-4.2,6.1-4.2,6.1s-0.1,1,0.9,1.9c1.1,0.9,2.5,1.1,2.5,1.1s1.8-1.7,2.7-2.5
				c0.6-0.5,0.7,0.7,0.7,0.7l3.1-3L39,76.7z"/>
		</g>
		<g>
			<path class="st20" d="M38,76.8c-0.1,0-0.2-0.1-0.3-0.2c-0.5-0.3-0.9-0.6-1.1-1.1c-0.3-0.8-0.4-2,0-2.7c0.3-0.5,0.8-0.9,1.1-1.3
				c0.5-0.6,0.6-1.5,0.7-2.3c0-0.8,0-1.6,0.2-2.4c0.3-1.3,0.7-2.6,1.7-3.5c1.7-1.4,5-2.2,6.8-0.7c0.3,0.3,0.4,0.5,0.8,0.6
				c0.6,0.1,1,0.1,1.5,0.4c0.6,0.3,1.3,0.8,1.2,1.6c-0.1,0.5-0.7,1.4-1.1,1.6C49.3,67,49.1,67,48.8,67c-0.7,0-1.3-0.4-2-0.4
				c-0.3,0-0.7,0.2-0.9,0.5s-0.2,0.7-0.5,1c-0.5,0.5-1.2,0.4-1.7,0.7c-0.1,0-0.2,0.1-0.2,0.2c-0.1,0.1-0.1,0.2-0.1,0.3
				c0,0.3,0,0.6,0,0.9c-0.3-0.1-0.3-0.5-0.5-0.7s-0.6-0.1-0.8,0.1s-0.3,0.5-0.4,0.8c-0.1,0.3,0,0.7,0.2,1c0.2,0.6,0.7,1.1,1.1,0.7
				c0.3,0.4,0,1.2,0,1.7c0,0.4,0,1.2,0.4,1.4c0.3,0.2,0.9,0.1,0.9,0.7s-0.5,1-1.1,1.1s-1.1-0.1-1.6-0.3c-0.5-0.2-1.1-0.3-1.7-0.1
				C39.6,76.7,39.3,77,39,77C38.5,77,38.2,76.9,38,76.8z"/>
		</g>
		<g>
			<path class="st21" d="M22.8,82.3c0,0-2-1.6-2.1-2s-0.2-0.9-0.3-1.3c-0.2-0.6-0.8-1.1-1.4-1.4c-0.5-0.2-0.3-0.4-0.8-0.3
				c-0.8,0.2-1.2,0.9-1.5,1.5c-1.4,2.6,2.4,3.1,2.5,3.1c0.3,0,1.6,1.6,1.6,1.6"/>
		</g>
		<g>
			<path class="st26" d="M16.6,81.1L18,82c0.2,0.1,0.4,0.1,0.5-0.1l2.9-4.9l-1.7-1l-3.2,4.6C16.4,80.7,16.5,81,16.6,81.1z"/>
			<g>
				<path class="st27" d="M11.8,70.6l0.5,0.3l1.9-2.7l-0.5-0.3c-0.7-0.4-1.6-0.2-2.1,0.5l0,0C11.1,69.2,11.2,70.1,11.8,70.6z"/>
				<polygon class="st27" points="10.1,73.9 18.7,75.2 20.7,72.3 16.3,64.8 				"/>
				<polygon class="st28" points="10.7,74 18.7,75.2 19.5,74.1 12.7,71 				"/>
				<path class="st27" d="M22.2,77.3L22.2,77.3c0.5,0.3,1.1,0.1,1.5-0.4l0.3-0.5c0.4-0.5,0.3-1.2-0.2-1.5l0,0
					c-0.5-0.3-1.1-0.1-1.5,0.4L22,75.8C21.7,76.3,21.8,77,22.2,77.3z"/>
				<path class="st28" d="M22.4,75.3l-0.3,0.5c-0.4,0.5-0.3,1.2,0.2,1.5s1.1,0.1,1.5-0.4l0.3-0.5l0.1-0.1c-0.4,0.4-1,0.6-1.4,0.3
					c-0.4-0.3-0.5-0.9-0.3-1.4C22.5,75.2,22.4,75.2,22.4,75.3z"/>
				<path class="st29" d="M9.8,74.2L9.8,74.2c0.3,0.2,0.7,0.1,0.9-0.2l5.9-8.6c0.2-0.3,0.2-0.7-0.1-0.9l0,0
					c-0.3-0.2-0.7-0.1-0.9,0.2l-5.9,8.6C9.5,73.6,9.6,74,9.8,74.2z"/>
				<path class="st26" d="M16.7,64.6l-4.9,7.1c-0.2,0.3-0.6,0.4-0.9,0.2c-0.1,0-0.1-0.1-0.2-0.2l-1,1.4c-0.2,0.3-0.2,0.7,0.1,0.9
					c0.3,0.2,0.7,0.1,0.9-0.2l5.9-8.6C16.8,65.1,16.8,64.9,16.7,64.6z"/>
				<path class="st29" d="M19.5,76.7l0.6,0.4c0.8,0.6,2,0.3,2.7-0.7l0.6-0.8c0.6-0.9,0.5-2.2-0.3-2.7l-0.6-0.4
					c-0.8-0.6-2-0.3-2.7,0.7L19.1,74C18.5,74.9,18.6,76.2,19.5,76.7z"/>
				<path class="st26" d="M19.2,74l-0.8,1.2c-0.2,0.3-0.2,0.7,0.1,0.9l2.6,1.8c0.3,0.2,0.6,0.1,0.8-0.2l0.8-1.2
					c-0.2,0.3-0.6,0.4-0.8,0.2l-2.6-1.8C19,74.6,19,74.3,19.2,74z"/>
			</g>
		</g>
		<g>
			<path class="st21" d="M16.9,79.8c-0.1-0.8,0.1-1.5,0.5-2c0.1-0.2,0.3-0.4,0.5-0.5c0.1-0.1,0.2-0.2,0.3-0.2c0.2,0,0.4,0,0.6,0.1
				s0.4,0.3,0.5,0.5c0.1,0.4-0.1,0.6-0.4,0.8c0,0-0.1,0-0.1,0.1c0,0,0,0.1,0,0.2c0.1,0.2,0.2,0.5,0.2,0.7s-0.2,0.4-0.5,0.3
				c-0.1,0-0.2-0.1-0.3,0v0.1c0,0.2,0,0.4-0.2,0.6l-0.1,0.1h-0.1c-0.2,0-0.3-0.1-0.5-0.2"/>
		</g>
		<g>
			<path class="st30" d="M20.7,80.4c0-0.3-0.1-0.8-0.2-1.1c0-0.8-0.4-1.6-1.1-2c-0.1,0-0.1-0.1-0.2-0.1s-0.1,0.1-0.2,0.2
				c0,0.1,0,0.2,0,0.2c0.1,0.2,0.4,0.7,0.3,1C19.1,79,19,79.4,19,79.8s0.2,1,0.6,1"/>
		</g>
		<line class="st31" x1="10.7" y1="60.7" x2="12.5" y2="64.8"/>
		<line class="st31" x1="7.1" y1="64.3" x2="10.7" y2="67"/>
		<line class="st31" x1="4.9" y1="69.2" x2="9.3" y2="69.7"/>
	</g>
	<g>
		<g>
			<path class="st32" d="M145.9,26.4c0,0-1.6-1.1-1.6-1.6c-0.1-0.5-1.2-2.4-1.5-2.7c-0.4-0.4-2.2-1-2.6-1.1s-2.7,0.1-2.4,0.4
				s1.8,0.2,2,0.4c0.3,0.2,0.3,0.2,0.3,0.2s-0.3,0.4-0.2,0.6s-0.5,0.6-0.3,1s-0.1,0.4,0.1,0.8c0.3,0.7,1.2,1.1,1.4,0.9
				c0.2,0.4,0.8,1.2,1.4,1.2c0.6-0.1,2.1,1.3,2.1,1.3"/>
			<g>
				<path class="st30" d="M170.1,18.4c0.1,1.1,0,2.9,0.3,3.2c0.3,0.3,1.3,0.2,1.3,0.2s-3.5,4.4-3.8,4.2s-4.5-3.6-3.5-3.8
					c0.9-0.2,1.8-0.1,1.8-0.6s-0.1-1-0.1-1.4"/>
			</g>
			<path class="st33" d="M174.1,42.1c0,0-6.8,0.8-8.4,0.8c-1.6,0-1.5-0.8-1.5-0.8c-0.1-1.7-0.4-5.8-0.7-7.2c-0.3-1.3-0.4-1.8-0.7-3
				c-0.6-2.7-0.6-3.3-1.2-6.6l4.1-3.3c0,0,0.4,1.3,2.1,1.3c2.3,0,3-1.6,3-1.6l5.6,3.7l0.5,9l-0.7,7.4"/>
			<g>
				<path class="st32" d="M170.1,17.5c-0.1,0.5-0.3,1.1-0.5,1.6c-0.4,0.9-0.9,1.3-1.9,1.3c-0.7,0-1.4,0-2.1,0.1
					c-0.5,0-1.2,0-1.6-0.3c-0.4-0.4-0.4-1-0.5-1.5c-0.1-0.7-0.2-1.3-0.3-2c-0.1-1.3-0.2-2.6-0.2-3.9c0-0.2,0-0.4,0-0.5
					s0-0.1,0.1-0.2c0.1-0.1,0.2-0.1,0.3-0.1c1.3-0.2,2.6-0.3,4-0.3c0.9,0,1.9,0.1,2.7,0.7c0.7,0.6,1.1,1.5,1.4,2.4
					c0.1,0.1,0.1,0.3,0,0.4"/>
			</g>
			<g>
				<g>
					<path class="st32" d="M154.8,66.6c0,0,0.2,1.4,0.4,1.8c0.2,0.5,1.7,0,1.8-0.3s-0.5-2.5-0.5-2.5"/>
					<path class="st34" d="M157.5,68.5c0.1,0.5,0.3,1.5,0.3,1.5l-1.5,0.7l-0.3-0.2c0,0-0.4,0.5-0.8,0.7c-0.3,0.2-1.1,0.4-1.5,0.4
						c-1.3,0.1-2.3-0.1-2.4-0.3c-0.3-0.8,1.4-1,1.8-1.1c1-0.3,1.6-1.1,1.7-1.7c0.1-0.4,0-0.5,0.2-0.5c0,0,0.2,0,0.4,0.2
						c0.3,0.3,0.7,0.4,1.1,0.3c0.2-0.1,0.4-0.2,0.5-0.5C157,68,157.4,68,157.5,68.5z"/>
				</g>
				<g>
					<g>
						<path class="st24" d="M161.5,48.8c-2.4,0.5-5.4,0.5-7.8,0.2c0.3,1,1.2,2.2,1.5,3.6c1,4.5,1.4,10.5,1.7,14.3c0,0-0.5,1-2.1,0.2
							c-2.4-5.9-6.6-17.9-6.5-20.5c0-3.3,8.3-4.1,14.3-4.9"/>
					</g>
					<g>
						<path class="st24" d="M172.1,42.1c1.9,1.4-10.5,6.6-10.5,6.6c-1.4,0.3-2.7,0.4-4.1,0.4c-0.1-0.2-0.2-0.5-0.3-0.8
							c-0.1-0.4,0-0.7-0.1-1.1c-0.1-0.7-0.6-1.3-1.2-1.7c-0.6-0.4-1.3-0.5-2-0.7c-1.7-0.3-4.6-0.1-4.6-0.1c3.7-2.8,11.4-3.1,15-3.3
							C164.8,42.6,171.8,41.9,172.1,42.1z"/>
					</g>
				</g>
				<g>
					<path class="st32" d="M158.7,69.7c0,0,0,1.4,0.1,1.9s1.7,0.3,1.8,0.1c0.2-0.3,0-2.6,0-2.6"/>
					<path class="st34" d="M161.1,72.1c0,0.5,0,1.5,0,1.5l-1.6,0.4l-0.2-0.3c0,0-0.5,0.4-1,0.5c-0.4,0.1-1.1,0.2-1.5,0.1
						c-1.3-0.1-2.3-0.5-2.3-0.7c-0.2-0.8,1.6-0.7,1.9-0.7c1-0.1,1.7-0.8,1.9-1.4c0.1-0.4,0.1-0.5,0.3-0.4c0,0,0.2,0,0.3,0.2
						c0.2,0.3,0.6,0.5,1,0.4c0.2-0.1,0.5-0.2,0.6-0.3C160.7,71.5,161,71.6,161.1,72.1z"/>
				</g>
				<g>
					<path class="st24" d="M176.2,41.9c0,0-3.8,0.4-8.4,0.3c-1.1,0-9.2,1.5-10,2.9c-1.3,2.3,0.8,15.5,0.6,25c0,0,1,0.8,2.7,0
						c0.4-4.7,3.2-15.7,1.3-20.8c4.5,0.6,8.1,1.2,12.2-0.2c1-0.3,1.7-1,2.1-2.2C177.1,45.7,176.9,43,176.2,41.9z"/>
				</g>
			</g>
			<g>
				<path class="st33" d="M165.6,22c0,0-1,0.1-1.2,0.1c-0.8,0.1-1.6,0.2-2.4,0.5c-1.1,0.4-1.9,1.4-2.8,2.2c-0.9,0.8-5.4,5.1-6.2,5.2
					c-0.8,0.2-8.2-4.9-8.2-4.9l-1.8,1.8c0,0,8,7.4,10.4,7.4c1.2,0,7.5-3.4,9.6-4.7L165.6,22z"/>
				<path class="st35" d="M153.4,32.9c-1.6,0.1-9.2-5.7-10.1-6.3l-0.3,0.3c0,0,8,7.4,10.4,7.4c1,0,5.6-2.3,8.3-3.9l0.7-0.4l-0.4-2.5
					C161.9,27.6,155.2,32.8,153.4,32.9z"/>
			</g>
			<g>
				<path class="st29" d="M145.7,43.4H164l-3.3-10.7c-0.2-0.6-0.7-1-1.3-1h-16c-0.6,0-1.1,0.6-0.9,1.2L145.7,43.4z"/>
				<path class="st36" d="M145.5,43.4h18.1l-3.3-10.7c-0.2-0.6-0.7-1-1.3-1h-16c-0.6,0-1.1,0.6-0.9,1.2l3.1,10.3
					C145.2,43.2,145.3,43.4,145.5,43.4z"/>
			</g>
			<g>
				<path class="st32" d="M165.2,42.6c-0.3-0.4-1-0.5-1.5-0.5c-0.4,0-0.8,0-1.2,0.1c-0.2,0-0.4,0.1-0.4,0.3s0.9,0,1.4,0.1
					c-0.9,0.1-1.9,0.1-2.8,0.1c-0.1,0-0.2,0-0.3,0s-0.2,0.1-0.2,0.2c0,0.1,0.1,0.2,0.1,0.2c0.3,0.2,0.6,0.3,1,0.4
					c1.4,0.3,3,0.2,4.3-0.4"/>
			</g>
			<g>
				<path class="st33" d="M173.5,27.1c-0.1,4.4-0.4,6.4-0.3,10.8c-2.2,0.5-5.3,3-8.4,4.4c0,0-0.2,0.6,0.1,1.1
					c0.2,0.1,10.6-2.4,11.4-3.2c0.7-0.7,1.7-8.9,1.8-14.2c0-0.8,0-1.6-0.5-2.2c-0.2-0.3-0.6-0.5-0.9-0.7c-2-1-3.6-1.3-5.8-1.5"/>
			</g>
			<g>
				<path class="st37" d="M154.8,37.7c0.1,0.9-1,1.7-2.5,1.7c-1.4,0-2.7-0.8-2.7-1.7c-0.1-0.9,1-1.7,2.5-1.7S154.8,36.7,154.8,37.7z
					"/>
				
					<ellipse transform="matrix(3.896333e-02 -0.9992 0.9992 3.896333e-02 108.5497 188.4573)" class="st29" cx="152.2" cy="37.8" rx="0.9" ry="1.7"/>
			</g>
		</g>
		<path class="st38" d="M166.9,14.7c0-0.2-0.4-0.2-0.8-0.2c-0.4,0-1.3,0.2-1.5,0.3c-0.2,0.2-0.2,0.3-0.3,0.3s-0.1-0.1-0.3-0.2
			c-0.2-0.1-0.8,0-1.2,0s-0.7,0.1-0.7,0.3s0.1,0.5,0.1,0.5c0.1,0,0.1,0,0.4,0.7c0.2,0.4,0.4,0.6,0.9,0.5c0.6-0.1,0.6-0.8,0.7-1.1
			c0-0.3,0.1-0.3,0.2-0.3c0.1,0,0.2,0,0.3,0.3c0.1,0.3,0.2,0.9,0.8,0.9c0.8,0,1.2-0.2,1.3-0.8c0.2-0.7,0.1-0.7,0.2-0.8l0.6,0.1V15
			C167.5,15,166.9,14.7,166.9,14.7z M164,16.1c0,0.4-0.2,0.7-0.6,0.7c-0.4,0-0.5-0.2-0.7-0.6s-0.2-0.7-0.1-0.9
			c0.1-0.1,0.3-0.1,0.7-0.1s0.6,0,0.7,0.2C163.9,15.4,164,15.7,164,16.1z M166.6,15.7c-0.1,0.5-0.3,0.8-0.8,0.8
			c-0.7,0.1-0.9-0.2-1-0.5c-0.1-0.3-0.1-0.6-0.1-0.7c0-0.2,0.2-0.2,0.6-0.3c0.5-0.1,1.1-0.2,1.2-0.1
			C166.6,14.9,166.7,15.2,166.6,15.7z"/>
		<g>
			<path class="st38" d="M171.8,13.5c0-0.4-0.1-0.7-0.2-1.1c-0.2-0.9-0.8-1.8-1.7-2.2c-1.1-0.6-2.6-0.7-3.8-0.4
				c-0.7,0.2-1,0.6-1.3,0.6s-0.6-0.2-1-0.3c-2.7-1-2.3,1.7-2,2.4c0.1,0.3,0.8,0.6,0.8,0.7c0.1,0.1,0.1,0.8,0.1,1.1
				c0.1,0.3,0.3,0.4,0.3,0.4s0-0.9,0-1c0-0.3,0.1-0.6,0.4-0.8c0.3-0.2,0.7-0.2,1-0.3s1.9,0.2,2,0.3c0.5,0.4,0.6,1.4,0.8,2
				c0.1,0.3,0.1,0.5,0.2,0.5c0.1-0.8,0.4-0.8,0.9-0.6c0.3,0.1,0.4,0.7,0.4,1.1c0,0.5-0.3,1.1-0.8,1.2c-0.2,0,0.4,1.1,0.7,1.4
				c0.1,0.1,0.2,0.2,0.3,0.3c0.1,0.1,0.2,0.1,0.3,0.1s0.3,0.1,0.4,0.1c0.2,0,0.4,0.1,0.5,0c0.3-0.1,0.4-0.4,0.6-0.7
				c0.2-0.4,0.5-0.9,0.6-1.3C171.8,16.1,171.9,14.8,171.8,13.5z"/>
		</g>
	</g>
	<g>
		<path class="st33" d="M184.1,149.4c-0.2,0.3-0.9,1.1-2,1.5c-1.1,0.5-3.4,0.7-2.1,1.1c1.3,0.4,2.8,0.2,3.5,0
			c0.8-0.1,1.5-0.1,2.4-0.1c1.2,0,1.2-0.1,1-1.4C186.6,148.8,184.6,148.4,184.1,149.4z"/>
		<path class="st33" d="M205.3,148.7c-0.1,0.4,0.5,1.5-0.5,2.3c-0.9,0.8-3.1,1.7-1.6,1.7c1.4,0,2.8-0.3,3.5-0.6
			c0.7-0.4,0.1-0.9,1-1.2c1.2-0.4,0.9-1.2,0.3-1.8C207.3,147.4,205.6,147.6,205.3,148.7z"/>
		<path class="st24" d="M200.9,111.7c0,0,2.8-8.2-5.1-15c0,0-4.3,1.7-7.7,1.9c-2.7,0.2-4-0.1-4-0.1s-0.2,7.3-0.2,11.2L200.9,111.7z"
			/>
		<path class="st24" d="M183.2,125.3c-0.2-3.7,3.8-3.2,5.3-0.4c3,5.7-1.1,18.8-1.7,25c-0.6,0.2-1.5,0.4-2.1,0.1
			c-0.4-0.2-0.6-0.7-0.6-0.7C184.2,141.7,183.3,129.3,183.2,125.3z"/>
		<path class="st24" d="M188.3,125.9c-0.5,1.5-5.5,3.1-5.1-2.4c0.2-2.4,0.7-15.8,0.8-17.1c0.1-1.3,0.3-3.2,0.9-3.4
			c3.1-1.2,8.6,2.9,7.8,7.7C192.1,114,189.3,122.8,188.3,125.9z"/>
		<path class="st24" d="M196.3,128c-1.2-3.5,2.8-4.1,5-1.9c5.3,5,5.5,16.8,6.8,22.9c-0.7,0.5-1.9,0.7-2.3,0.7
			c-0.4,0-0.6-0.3-0.6-0.3C203.1,142,197.6,131.7,196.3,128z"/>
		<path class="st24" d="M201.6,126.8c0.1,1.6-4.1,4.8-5.8-0.4c-0.7-2.3-3.9-16-4.3-17.2c-0.4-1.2-0.3-3.8,0.2-4.2
			c2.4-2.3,8-0.3,9,4.5C201.4,112.7,201.3,123.6,201.6,126.8z"/>
		<g>
			<g>
				<path class="st39" d="M179.7,66.9c0.1-0.2,0.3-0.3,0.4-0.5c1-1.3,1.2-2.4,2.1-3.9c0.1-0.2,0.3-0.8,0.7-1.3s1.3-1.1,1.5-1.2
					c0.4-0.2,0.1,0.7,0.1,0.7s0.4-0.5,0.7-0.5c0.1,0,0.2,0.8,0.2,1c0,1.1-0.2,2.3-0.8,3.2c-0.1,0.2-0.3,0.5-0.3,0.7
					c0.3,0,0.6-0.2,0.9-0.4c0.3-0.2,0.6-0.4,0.9-0.3c0,0.1-0.1,0.3-0.2,0.4c-0.4,0.7-0.8,1.5-1.6,1.9c-0.5,0.2-1,0.3-1.4,0.5
					c-0.8,0.4-1.2,1.4-2,1.8"/>
			</g>
			<path class="st40" d="M184.3,67.2l-2-0.8c-0.3-0.1-0.5-0.5-0.3-0.8l2-4.7c0.1-0.3,0.5-0.5,0.8-0.3l2,0.8c0.3,0.1,0.5,0.5,0.3,0.8
				l-2,4.7C185,67.1,184.6,67.3,184.3,67.2z"/>
			
				<rect x="181.8" y="62.4" transform="matrix(0.3859 -0.9225 0.9225 0.3859 54.4716 209.5323)" class="st41" width="5.7" height="2.9"/>
			<path class="st33" d="M187.1,72.1c0,0-2.1,0.1-3.9,0.7c-2.8,0.8-3.7,2.1-4.7,2.6c1.9-2.4,3.9-7.4,3.9-7.4s-2.5-2-2.8-1.6
				c-0.3,0.5-10.7,12.7-10.4,14.7c0.1,0.8,1.3,1.6,2.4,1.6c3-0.1,6.4-1.2,10-2.4c1.6-0.5,2.1,0.6,2.1,0.6"/>
			<path class="st42" d="M178.5,75.4c0,0-1.3,2.7-1.7,2.8c-0.4,0.2,1-0.6,1.7-1.3c0.7-0.8,1.8-2.8,1.8-2.8
				C179.9,74.3,178.5,75.4,178.5,75.4z"/>
			<g>
				<path class="st39" d="M182.7,62.6c0.1,0.1,0.2,0.3,0.2,0.4c0.1,0.6,0.2,1.2-0.1,1.8c-0.1,0.4-0.4,0.6-0.7,0.9s-0.7,0.5-1.1,0.7"
					/>
			</g>
			<g>
				<path class="st43" d="M187.1,58.2c-0.7,0.2-1.1,1.1-1.3,1.7c-0.3,0.7-0.4,1.5-0.5,2.3c-0.1,0.5-0.1,1.1,0.1,1.6
					c0.1,0.3,0.3,0.5,0.5,0.7c0.1,0.1,0.2,0.3,0.3,0.3c0.1,0.1,0.3,0.1,0.5,0.1c0.2-0.1,0.3-0.3,0.4-0.6c0.4-1.5,0.8-3,1.7-4.2"/>
			</g>
			<g>
				<path class="st39" d="M186.4,62.8c0-0.5-0.5-0.8-0.9-0.3c-0.4,0.4-0.4,1.2-0.5,1.7c0,0.7,0.5,0.8,0.9,0.9"/>
			</g>
			<path class="st33" d="M181.7,74.6c0.9-1,3.6-2.6,7.3-2.5c2.5,0.1,9.4,0.5,10.2,2.2c0.4,0.9,0.8,9.7,0.2,12.7
				c-0.4,2.3-1.5,8-1.5,9.3c0,1.4,0.7,2,0.4,2.4c-0.8,0.9-6,1.3-8.5,1.3c-2.2,0-5.9-0.6-6.1-1.3c-0.3-1,0.4-1,0.5-2.1s0.4-8.2,0-9.4
				c-0.7-2.1-1.1-5.5-1.7-7.1C182,78.9,180.8,75.5,181.7,74.6z"/>
			<path class="st42" d="M197.8,96.2c0,1.4,0.7,1.9,0.4,2.4c-0.6,0.8-10.5,2.7-10,0.4c0-0.2,8.3-6.5,8.4-6.7
				c0.4-1.8,0.7-3.1,0.9-4.4c0.3-3.2-0.3-6.7-0.1-6.2c0.3,0.5,2,3.4,2,3.4l0.1,0.3c0,0.6-0.1,1.1-0.2,1.5"/>
			<path class="st21" d="M187,68.9c0,0,0,2.9-0.1,3s-0.7,0.4-0.7,0.4s0.4,2.5,1,2.3s4.8-2.3,4.8-2.3s-0.6-0.2-0.6-0.5
				c0-0.2,0.6-4.7,0.6-4.7"/>
			<path class="st21" d="M189.8,58.5c-0.6,0.2-2.2-0.2-2.6,0.5c-0.4,0.7-0.8,2.2-1,2.7c-0.3,0.9-0.5,1.8-0.8,2.7
				c-0.3,1.2-0.8,3.3,0.3,4.3c0.3,0.3,0.5,0.4,0.9,0.4c0.5,0.1,1.1,0.2,1.6,0.3c0.8,0.2,1.8,0.3,2.6,0.1c1.1-0.4,1.7-1.9,2-2.9
				l1.6-6L189.8,58.5z"/>
			<path class="st44" d="M186.9,75.7c0,0-0.2,11.2-0.7,18l1.6,2.3l1.1-2.8c0,0,0.5-8.2-1.1-17.4L186.9,75.7z"/>
			<path class="st44" d="M186.5,74.7v0.2c0.1,0.3,0.2,0.6,0.3,0.8l0,0l1,0.1c0,0,0.7-0.4,0.8-0.7c0.1-0.4-1.1-1-1.1-1l-0.1,0.1
				C187,74.2,186.7,74.4,186.5,74.7L186.5,74.7z"/>
			<path class="st7" d="M191.4,71.1c0,0,0.6,0.4,1.2,1.2c-0.5,1.2-1.7,3.3-3,4.3c-0.6-1.6-2.1-2.6-2.1-2.6S191.1,73.4,191.4,71.1z"
				/>
			<path class="st7" d="M187.5,74c0,0-1.3,0.5-2,1.9c0,0-0.2-1.9,0.3-3.5c0,0,0.8-1.1,1.1-1.1C186.8,72.6,187.5,74,187.5,74z"/>
			<g>
				<g>
					<path class="st39" d="M187.7,99c-1.3,0.2-1.7,0.7-2.4,1.4c-0.1,0.1-0.1,0.1-0.1,0.2s0.1,0.1,0.2,0.2c0.6,0.1,0.7-0.3,1.2-0.5
						c0.4-0.2,0.7-0.3,1.1-0.5"/>
				</g>
				<g>
					<g>
						<path class="st45" d="M183.4,89.9l4.4,14.2c0.1,0.4-0.1,0.7-0.5,0.7l-9.3,0.8c-0.3,0-0.7-0.3-0.8-0.6l-4.8-14
							c-0.1-0.4,0.4-0.9,0.8-0.9l9.3-0.8C183,89.3,183.3,89.6,183.4,89.9z"/>
					</g>
					<g>
						<path class="st46" d="M183.1,90.3l4.4,14c0.1,0.4-0.1,0.7-0.5,0.7l-9.3,0.8c-0.3,0-0.7-0.3-0.8-0.6l-4.4-14
							c-0.1-0.4,0.1-0.7,0.5-0.7l9.3-0.8C182.7,89.7,183,89.9,183.1,90.3z"/>
					</g>
					<g>
						<polygon class="st7" points="175.7,89.8 176.1,91 180.4,90.7 180,89.4 						"/>
						<g>
							<g>
								<path class="st7" d="M176.5,88.7c0.1,0.3,0.4,1.4,0.4,1.4l2.1-0.2l-0.4-1.4c-0.2-0.6-0.8-1-1.4-1
									C176.7,87.5,176.4,88.1,176.5,88.7z M177,88.6c-0.1-0.3,0.1-0.6,0.4-0.7c0.3,0,0.7,0.2,0.8,0.6c0.1,0.3-0.1,0.6-0.4,0.7
									C177.5,89.2,177.1,89,177,88.6z"/>
							</g>
						</g>
					</g>
				</g>
				<g>
					<path class="st21" d="M191.2,98c-1,0.2-3.6,1-3.8,1.1c-0.3,0.2-1.4,1-1.7,1.2c-1,1-0.5,1.4-0.9,2.8c0,0.1,0,0.1,0,0.2
						s0.2,0.3,0.4,0.1c0.1,0.2,0.4,0.1,0.5-0.1c0,0.1,0.2,0.2,0.5,0.1c0.2-0.1,0.1-0.1,0.5-0.4c0.3-0.2,0.6-0.4,1.1-0.6
						c0.3-0.1,0.7-0.3,1-0.5c0.4-0.3,1.1-0.3,1.4-1.4c0.1-0.2,0.3-0.4,0.5-0.5c0.5-0.3,1.1-0.7,1.6-1"/>
				</g>
				<path class="st33" d="M197.2,79.8c0.4,1.5,2.1,11.6,2.1,11.6l-9.7,7l0.8,2.1c0,0,11.5-3.9,12.5-6.5c0.9-2.7,0.9-14.6-2.3-18.8
					c-1-1.3-3.1-2-3.1-2"/>
				<g>
					<path class="st39" d="M187.3,101.7c-0.2,0.3-0.5,0.5-0.7,0.7c-0.2,0.3-0.4,0.5-0.7,0.7c0.1-0.3,0.3-0.6,0.6-0.9
						c0.1-0.1,0.3-0.3,0.4-0.3C187,101.8,187.1,101.8,187.3,101.7z"/>
				</g>
				<g>
					<path class="st39" d="M186.7,101.1c-0.2,0.1-0.3,0.3-0.4,0.5c-0.1,0.2-0.2,0.4-0.3,0.5c-0.2,0.4-0.4,0.8-0.7,1.1
						c0.1-0.4,0.3-0.8,0.5-1.2c0.1-0.2,0.2-0.4,0.4-0.6C186.4,101.3,186.5,101.1,186.7,101.1z"/>
				</g>
				<g>
					<path class="st39" d="M186.1,100.5c-0.1,0.2-0.2,0.4-0.4,0.5c-0.1,0.2-0.2,0.4-0.3,0.5c-0.2,0.4-0.3,0.8-0.5,1.2
						c0-0.4,0.1-0.9,0.3-1.3c0.1-0.2,0.2-0.4,0.4-0.6C185.8,100.8,186,100.7,186.1,100.5z"/>
				</g>
			</g>
			<g>
				<path class="st44" d="M193.5,65.5c-0.4-0.2-0.7-0.5-0.9-0.1c-0.1,0.2-0.2,0.5-0.4,0.5c-0.2,0.1-0.5-0.1-0.5-0.4
					c-0.1-0.2,0-0.5,0.1-0.7c0.2-0.5,0.3-1,0.5-1.5c0.1-0.5,0.3-1,0.1-1.5c-0.1-0.2-0.3-0.4-0.5-0.6c-0.6-0.5-1.4-0.8-2.3-1
					c-0.8-0.2-1.6-0.2-2.4-0.5c-0.3-0.1-0.7-0.2-0.9-0.5c-0.4-0.4-0.6-0.9-0.7-1.5c0-0.6,0.2-1.1,0.5-1.6c0.1,0.2,0.1,0.4,0.2,0.6
					c0.1-0.3,0.2-0.5,0.4-0.7c0.2,1.3,5.8,0.9,7.1,1.5c0.9,0.4,1.6,0.7,1.6,2.1c0,0.1,0.1,0.2,0.2,0.2c0.8,0.7,1.1,1.6,1.2,2.9
					c0.1,1.6-0.8,3.4-1.7,4.7c-0.2,0.3-0.4,0.6-0.7,0.8c-0.3,0.2-0.9,0.4-1.3,0.3c-0.4-0.1-1.2,0-1.2-0.4c0-0.3,0.6-0.8,0.8-1"/>
			</g>
			<g>
				<path class="st21" d="M192.1,67c0,0-0.1,0.3,0.1,0.5c0.1,0.2,0.4,0.2,0.7,0.1c0.6-0.2,1-0.8,1.1-1.4c0.1-0.7-0.2-1.4-0.9-1.2
					c-0.4,0.1-0.6,0.5-0.6,0.9"/>
			</g>
			<g>
				<path class="st39" d="M187,69.1l1.8,0.3c0,0-0.6,0.7-1.8,0.7"/>
			</g>
		</g>
	</g>
	<g class="st47">
		<g>
			<g>
				<polyline class="st48" points="47.7,44.8 50.1,46 48.9,43.1 				"/>
			</g>
			<path class="st48" d="M40.3,41.1c0,2.6,2.2,4.7,5,4.7s5-2.1,5-4.7c0-2.6-2.2-4.7-5-4.7S40.3,38.5,40.3,41.1z"/>
		</g>
		<path class="st49" d="M44.1,39.5v3.4c0,0.3,0.3,0.4,0.5,0.3l2.9-1.7c0.2-0.1,0.2-0.5,0-0.6l-2.9-1.7
			C44.4,39.1,44.1,39.3,44.1,39.5z"/>
	</g>
	<g class="st47">
		<g>
			<g>
				<polyline class="st48" points="212.1,80.9 209.7,82.1 210.9,79.2 				"/>
			</g>
			<path class="st48" d="M219.5,77.2c0,2.6-2.2,4.7-5,4.7s-5-2.1-5-4.7s2.2-4.7,5-4.7C217.2,72.4,219.5,74.5,219.5,77.2z"/>
		</g>
		<g>
			<g>
				<g>
					<path class="st49" d="M213.5,79.4c1.1,0,2.2,0,3.2,0c0.3,0,0.6-0.5,0.2-0.6c0.2-0.1,0.3-0.2,0.4-0.3c0.1-0.2,0-0.4-0.2-0.4
						c0.4,0.1,0.5-0.5,0.2-0.7c0.2-0.1,0.3-0.3,0.3-0.5s-0.1-0.4-0.2-0.5c-0.1-0.1-0.3-0.1-0.4-0.1c-0.5,0-0.9,0-1.4,0
						c0.1-0.7,0.2-1.4-0.2-2c-0.1-0.2-0.4-0.4-0.6-0.3c-0.2,0.1-0.2,0.4-0.1,0.6c0,0.8-0.5,1.7-1.2,2.1
						C213.5,76.7,213.6,78.5,213.5,79.4z"/>
				</g>
			</g>
			<rect x="211.5" y="76.7" class="st49" width="1.7" height="2.7"/>
		</g>
	</g>
	<g class="st47">
		<g>
			<g>
				<polyline class="st48" points="136.1,39.7 137.8,37.9 135.4,38.3 				"/>
			</g>
			<path class="st48" d="M129.6,40.2c0,1.9,1.6,3.4,3.6,3.4s3.6-1.5,3.6-3.4s-1.6-3.4-3.6-3.4S129.6,38.3,129.6,40.2z"/>
		</g>
		<g>
			<g>
				<g>
					<path class="st49" d="M132.6,41.8c0.7,0,1.4,0,2.1,0c0.2,0,0.4-0.4,0.1-0.5c0.1-0.1,0.2-0.1,0.3-0.2c0-0.1,0-0.3-0.1-0.3
						c0.2,0.1,0.3-0.3,0.2-0.5c0.1-0.1,0.2-0.2,0.2-0.4c0-0.1,0-0.3-0.2-0.4c-0.1,0-0.2,0-0.3,0c-0.3,0-0.6,0-0.9,0
						c0.1-0.5,0.1-1-0.1-1.4c-0.1-0.1-0.3-0.3-0.4-0.2c-0.1,0.1-0.1,0.3-0.1,0.5c0,0.6-0.3,1.2-0.8,1.5
						C132.6,39.9,132.6,41.2,132.6,41.8z"/>
				</g>
			</g>
			<rect x="131.2" y="39.9" class="st49" width="1.1" height="1.9"/>
		</g>
	</g>
	<g class="st47">
		<path class="st48" d="M153,14.6c0.7-0.9,1.2-2.1,1.2-3.3c0-3-2.4-5.4-5.4-5.4s-5.4,2.4-5.4,5.4s2.4,5.4,5.4,5.4
			c1.1,0,2.1-0.3,3-0.9l2.1,1.1L153,14.6z"/>
		<path class="st7" d="M146.6,9.8c0.5-0.5,1.3-0.5,1.9,0l0.3,0.3l0.3-0.3c0.5-0.5,1.3-0.5,1.9,0c0.5,0.5,0.5,1.3,0,1.9l-1.3,1.3l0,0
			c-0.2,0.2-0.5,0.3-0.7,0.4c-0.4,0.1-0.8-0.1-1.1-0.4l-1.3-1.3C146,11.1,146,10.3,146.6,9.8z"/>
	</g>
</g>
</svg>
