<svg id="Layer_1" data-name="Layer 1" xmlns="http://www.w3.org/2000/svg" viewBox="0 0 150 150"><defs><style>.cls-1{fill:#454545;}</style></defs><title>1</title><path class="cls-1" d="M47.57,50.7H60.23a1.52,1.52,0,1,0,0-3H47.57a1.52,1.52,0,1,0,0,3Z"/><path class="cls-1" d="M98,68.54a1.52,1.52,0,0,0,0-3H79.09a1.52,1.52,0,0,0,0,3Z"/><path class="cls-1" d="M66.78,65.51a1.52,1.52,0,0,0,0,3h5.91a1.52,1.52,0,0,0,0-3Z"/><path class="cls-1" d="M47.57,68.54h12.7a1.52,1.52,0,0,0,0-3H47.57a1.52,1.52,0,1,0,0,3Z"/><path class="cls-1" d="M74.16,83.35H47.57a1.52,1.52,0,1,0,0,3H74.16a1.52,1.52,0,0,0,0-3Z"/><path class="cls-1" d="M34.69,130.55l.33,0h60.1a.86.86,0,0,0,.23,0l.72,0a16.9,16.9,0,0,0,16.52-14.43,23.07,23.07,0,0,0,.21-46V55h17.44a1.52,1.52,0,0,0,1.52-1.52V33.33a11,11,0,0,0-11-11H47.18A12.39,12.39,0,0,0,34.83,34.56l-.55,67.37H20.52A1.52,1.52,0,0,0,19,103.45v10.07A17,17,0,0,0,34.69,130.55Zm90.4-23.23a20,20,0,0,1-13.89,5.86h-.31a20,20,0,1,1,14.2-5.87Zm3.64-74V51.92H112.8V33.33a8,8,0,0,1,15.93,0ZM37.86,34.59a9.35,9.35,0,0,1,9.32-9.23h66a11,11,0,0,0-3.42,8V70.1A23,23,0,0,0,89.51,84.51,1.53,1.53,0,0,0,88,83.35H80.57a1.52,1.52,0,1,0,0,3H88a1.52,1.52,0,0,0,.92-.31,23.06,23.06,0,0,0,20.57,30.11,13.68,13.68,0,0,1-27.16-2.66V103.45a1.52,1.52,0,0,0-1.51-1.52H37.31ZM22,105h57.3v8.56a17.15,17.15,0,0,0,7.23,14H35.73a13.89,13.89,0,0,1-13.7-14Z"/><path class="cls-1" d="M94.31,50.7H98a1.52,1.52,0,0,0,0-3H94.31a1.52,1.52,0,1,0,0,3Z"/><path class="cls-1" d="M66.53,50.7H87.92a1.52,1.52,0,1,0,0-3H66.53a1.52,1.52,0,0,0,0,3Z"/><path class="cls-1" d="M109.39,80.15v1.44a6.56,6.56,0,0,0,1.52,13,3.54,3.54,0,0,1,0,7.07h-.06a3.55,3.55,0,0,1-3.51-3.53,1.52,1.52,0,1,0-3,0,6.6,6.6,0,0,0,5,6.39v1.66a1.52,1.52,0,0,0,3,0v-1.66a6.57,6.57,0,0,0-1.52-13A3.54,3.54,0,1,1,114.45,88a1.52,1.52,0,0,0,3,0,6.58,6.58,0,0,0-5-6.39V80.15a1.52,1.52,0,1,0-3,0Z"/></svg>