<svg id="Layer_1" data-name="Layer 1" xmlns="http://www.w3.org/2000/svg" viewBox="0 0 150 150"><defs><style>.cls-1{fill:#454545;stroke:#f9f9f9;stroke-miterlimit:10;stroke-width:0.25px;}</style></defs><title>2</title><path class="cls-1" d="M133.28,86.77a1.7,1.7,0,0,0-1.7,1.69v33.41a5.55,5.55,0,0,1-5.54,5.54h-98a5.55,5.55,0,0,1-5.54-5.54V67.94h60.4a1.7,1.7,0,1,0,0-3.4H22.49V57.21A5.56,5.56,0,0,1,28,51.66H78.85a1.7,1.7,0,1,0,0-3.39H28.06a8.92,8.92,0,0,0-9,8.94v64.68a9,9,0,0,0,9,9h98a9,9,0,0,0,9-9V88.46a1.72,1.72,0,0,0-1.72-1.69Z"/><path class="cls-1" d="M127.87,21.25a7.13,7.13,0,0,0-7.06,6.27L108.23,38H96.82A12.88,12.88,0,0,0,83.94,50.83v4.23A12.88,12.88,0,0,0,96.82,67.94h0v2.33a1.7,1.7,0,0,0,3.4,0V67.94h8l2.33,1.92-3.76,3.55a1.7,1.7,0,0,0-.52,1.25V84.89a.65.65,0,0,1-.66.65h-4.68a.66.66,0,0,1-.66-.65V77.53a1.7,1.7,0,1,0-3.39,0v7.36a4.06,4.06,0,0,0,4,4h4.68a4.06,4.06,0,0,0,4-4V75.38l3.51-3.32,7.63,6.31A7.11,7.11,0,0,0,135,77.53V28.35a7.12,7.12,0,0,0-7.11-7.1ZM87.34,55.06V50.83a9.5,9.5,0,0,1,9.48-9.49h1.76v23.2H96.82A9.49,9.49,0,0,1,87.34,55.06Zm44.24,22.45a3.71,3.71,0,1,1-7.42,0V48.36a1.7,1.7,0,1,0-3.4,0V73.91l-10.84-9a1.66,1.66,0,0,0-1.08-.39H102V41.34h6.86a1.69,1.69,0,0,0,1.08-.38l10.84-9v9.12a1.7,1.7,0,0,0,3.4,0V28.35a3.71,3.71,0,0,1,7.42,0Z"/><path class="cls-1" d="M66.4,113.83a1.68,1.68,0,0,0,.57,2.34,19.26,19.26,0,1,0-9.19-16.41,19,19,0,0,0,3.42,10.93,1.71,1.71,0,1,0,2.8-2,15.84,15.84,0,1,1,4.78,4.53,1.73,1.73,0,0,0-2.38.56Z"/><path class="cls-1" d="M74.89,109a3.71,3.71,0,0,0,2.08-.66L85,102.77a3.66,3.66,0,0,0,0-6L77,91.18a3.67,3.67,0,0,0-5.75,3v11.13a3.64,3.64,0,0,0,2,3.24,3.39,3.39,0,0,0,1.7.43Zm-.27-14.8a.23.23,0,0,1,.13-.23.3.3,0,0,1,.12,0c.06,0,.11,0,.13,0l8.06,5.56a.25.25,0,0,1,.11.21.22.22,0,0,1-.11.2L75,105.53a.25.25,0,0,1-.27,0,.23.23,0,0,1-.14-.23Z"/><path class="cls-1" d="M29.06,56.51a1.7,1.7,0,1,0,0,3.39h1a1.7,1.7,0,1,0,0-3.39Z"/><path class="cls-1" d="M39.56,56.51a1.7,1.7,0,1,0,0,3.39h1a1.7,1.7,0,1,0,0-3.39Z"/><path class="cls-1" d="M50.06,56.51a1.7,1.7,0,1,0,0,3.39h1a1.7,1.7,0,1,0,0-3.39Z"/></svg>