<svg id="Layer_1" data-name="Layer 1" xmlns="http://www.w3.org/2000/svg" viewBox="0 0 150 150"><defs><style>.cls-1{fill:#454545;stroke:#f9f9f9;stroke-miterlimit:10;stroke-width:0.2px;}</style></defs><title>3</title><path class="cls-1" d="M91.64,77.89h25.92a7.32,7.32,0,1,0,0-3.66H91.64V55.89h9.17a5.48,5.48,0,0,0,5.5-5.5V33.89a1.84,1.84,0,0,1,1.83-1.83h9.42a7.32,7.32,0,1,0,0-3.67h-9.42a5.5,5.5,0,0,0-5.5,5.5v16.5a1.84,1.84,0,0,1-1.83,1.84H91.64V35.73c0-8.37-15-14.67-34.83-14.67S22,27.36,22,35.73v80.64C22,124.74,37,131,56.83,131s34.84-6.3,34.84-14.67v-9.16h9.16a1.84,1.84,0,0,1,1.84,1.83v11a5.48,5.48,0,0,0,5.5,5.5h9.39a7.32,7.32,0,1,0,0-3.67h-9.42a1.84,1.84,0,0,1-1.83-1.83V109a5.48,5.48,0,0,0-5.5-5.5H91.64Zm33-5.5A3.67,3.67,0,1,1,121,76.06,3.68,3.68,0,0,1,124.64,72.39Zm0-45.83A3.67,3.67,0,1,1,121,30.23,3.68,3.68,0,0,1,124.64,26.56Zm0,93.48a3.67,3.67,0,1,1-3.66,3.67A3.68,3.68,0,0,1,124.64,120ZM56.83,24.73c18.36,0,31.17,5.8,31.17,11s-12.79,11-31.17,11-31.16-5.8-31.16-11S38.45,24.73,56.83,24.73ZM25.67,42.47c5.61,4.79,17.14,7.92,31.16,7.92S82.39,47.26,88,42.47V63.23c0,5.2-12.79,11-31.17,11s-31.16-5.8-31.16-11Zm31.16,84.9c-18.35,0-31.16-5.8-31.16-11V95.61c5.59,4.79,17.14,7.93,31.16,7.93S82.39,100.4,88,95.61v20.76C88,121.57,75.19,127.37,56.83,127.37Zm0-27.5c-18.35,0-31.16-5.8-31.16-11V69.94c5.61,4.79,17.14,7.93,31.16,7.93S82.39,74.73,88,69.94V88.87C88,94.07,75.19,99.87,56.83,99.87Z"/></svg>