<svg id="Layer_1" data-name="Layer 1" xmlns="http://www.w3.org/2000/svg" viewBox="0 0 150 150"><defs><style>.cls-1{fill:#454545;stroke:#f9f9f9;stroke-miterlimit:10;}</style></defs><title>4</title><path class="cls-1" d="M112.27,101.62H54.33a2.59,2.59,0,0,1-2.54-2.06L37.07,30h-25V24.74H39.16a2.58,2.58,0,0,1,2.54,2.07L56.42,96.39h55.85a8.71,8.71,0,0,0,8.44-6.6l10-40.58A2.4,2.4,0,0,0,129,46.29a3.7,3.7,0,0,0-.57-.07H63.82V41h64.57A7.59,7.59,0,0,1,136,48.63a7,7,0,0,1-.22,1.84l-10,40.59a13.85,13.85,0,0,1-13.48,10.56Z"/><path class="cls-1" d="M69.21,129.26A10.82,10.82,0,1,1,80,118.44h0A10.85,10.85,0,0,1,69.21,129.26Zm0-16.47a5.62,5.62,0,1,0,5.62,5.62,5.6,5.6,0,0,0-5.62-5.62Z"/><path class="cls-1" d="M106.4,129.26a10.82,10.82,0,1,1,10.82-10.82h0A10.86,10.86,0,0,1,106.4,129.26Zm0-16.47a5.63,5.63,0,1,0,5.61,5.65h0a5.61,5.61,0,0,0-5.61-5.65Z"/></svg>