<svg id="Layer_1" data-name="Layer 1" xmlns="http://www.w3.org/2000/svg" viewBox="0 0 150 150"><defs><style>.cls-1{fill:#454545;stroke:#f9f9f9;stroke-miterlimit:10;stroke-width:0.5px;}</style></defs><title>5</title><path class="cls-1" d="M68.94,80.67a1.72,1.72,0,1,0-1.49-3.1,17.32,17.32,0,0,0-9.61,13.21,17.15,17.15,0,0,0-9.23,8,1.74,1.74,0,0,0,.69,2.34,1.76,1.76,0,0,0,2.34-.69,13.76,13.76,0,0,1,6.11-5.85,16.91,16.91,0,0,0,5.07,10.76,1.7,1.7,0,0,0,2.43,0,1.72,1.72,0,0,0,0-2.43,13.66,13.66,0,0,1-4.11-9.8,13.81,13.81,0,0,1,7.82-12.41Z"/><path class="cls-1" d="M22.22,85.85a1.73,1.73,0,0,0,1,2.23,1.93,1.93,0,0,0,.62.11,1.71,1.71,0,0,0,1.61-1.1,9.13,9.13,0,0,1,6-5.48,8.69,8.69,0,0,1,2.45-.35,9.36,9.36,0,0,1,3.15.55,1.71,1.71,0,1,0,1.19-3.21,12.81,12.81,0,0,0-4.34-.78,11.7,11.7,0,0,0-2.57.28A13.6,13.6,0,0,1,25.62,67,13.79,13.79,0,0,1,36.08,53.63,17.17,17.17,0,0,0,44.14,62a1.74,1.74,0,0,0,.76.19,1.68,1.68,0,0,0,1.53-1,1.71,1.71,0,0,0-.78-2.29A13.75,13.75,0,1,1,59.86,35.46a1.72,1.72,0,1,0,2-2.78A17.63,17.63,0,0,0,58,30.55c-.37-5,3-9.89,8.47-9.89a8.52,8.52,0,0,1,8.49,8c0,.16,0,12.8,0,12.8a13.72,13.72,0,0,1-17.6-.23,1.73,1.73,0,0,0-2.25,2.62A17.21,17.21,0,0,0,75,45.65v65.67a1.72,1.72,0,0,0,3.44,0V94.82h4.87v9.94A1.73,1.73,0,0,0,85,106.48h7.75a6.31,6.31,0,1,0,0-3.44h-6V94.82H90.4a5.17,5.17,0,0,0,5.16-5.16V87.94h3.28a1.72,1.72,0,0,0,0-3.44H95.56v-7h4a6.31,6.31,0,1,0,0-3.44h-4V67.52h3.28a1.72,1.72,0,0,0,0-3.44H95.56V62.35a5.17,5.17,0,0,0-5.16-5.16H86.73V49h6a6.31,6.31,0,1,0,0-3.45H85a1.73,1.73,0,0,0-1.72,1.73v9.93H78.44s0-28.36,0-28.54a8.5,8.5,0,0,1,8.49-8c5.39,0,8.83,4.93,8.51,10a17,17,0,0,0-3.87,2.13,1.72,1.72,0,1,0,2,2.78,13.74,13.74,0,0,1,21.84,11.11A14,14,0,0,1,107.77,59a1.71,1.71,0,0,0-.78,2.29,1.73,1.73,0,0,0,2.29.78,17.22,17.22,0,0,0,8.08-8.42,13.66,13.66,0,0,1,10,9.89c.53,1,1.22,1.45,2.09,1.24a1.72,1.72,0,0,0,1.24-2.09,17.06,17.06,0,0,0-12.25-12.3,17,17,0,0,0,.41-3.71,17.18,17.18,0,0,0-17.16-17.17,16.36,16.36,0,0,0-2.8.23c-.09-6.56-5.12-12.48-12-12.48A12,12,0,0,0,76.7,23a11.93,11.93,0,0,0-10.21-5.76c-6.93,0-11.7,5.87-12,12.39a16.28,16.28,0,0,0-2.8-.23A17.19,17.19,0,0,0,34.57,46.54,16.32,16.32,0,0,0,35,50.35a17.19,17.19,0,0,0-7.37,29.19,12.57,12.57,0,0,0-5.42,6.31Zm76.62,16A2.87,2.87,0,1,1,96,104.76,2.87,2.87,0,0,1,98.84,101.89Zm6.82-29a2.87,2.87,0,1,1-2.87,2.89v0a2.87,2.87,0,0,1,2.87-2.84Zm-6.82-28.5A2.87,2.87,0,1,1,96,47.28,2.87,2.87,0,0,1,98.84,44.41Zm-20.4,25.4h4.5V82.18h-4.5Zm12-9.15a1.73,1.73,0,0,1,1.72,1.72V89.66a1.73,1.73,0,0,1-1.72,1.72h-12V85.64h6.22a1.73,1.73,0,0,0,1.72-1.72V68.11a1.73,1.73,0,0,0-1.72-1.72H78.44V60.66Z"/><path class="cls-1" d="M71.38,66A17.07,17.07,0,0,0,61.12,57.7a1.74,1.74,0,0,0-1.79.43,1.7,1.7,0,0,0,.07,2.43,1.81,1.81,0,0,0,.71.42h0a13.71,13.71,0,0,1,8.26,6.67,1.71,1.71,0,1,0,3-1.62Z"/><path class="cls-1" d="M132,90.33a12.54,12.54,0,0,0-6.24-10.81,17.06,17.06,0,0,0,5-8.54,1.71,1.71,0,0,0-3.33-.8,13.58,13.58,0,0,1-5.32,7.92,12.37,12.37,0,0,0-6.91.5,1.71,1.71,0,1,0,1.19,3.21,9.25,9.25,0,0,1,5.6-.23,9.06,9.06,0,0,1,.58,17.26,17.7,17.7,0,0,0-3.22-3.31,1.72,1.72,0,0,0-2.11,2.71,13.74,13.74,0,1,1-20.6,17.3,1.72,1.72,0,1,0-3,1.61A17.34,17.34,0,0,0,98,122.43,9.79,9.79,0,0,1,78.44,122c0-1.08,0-2.16,0-3.21a1.73,1.73,0,0,0-1.72-1.72h0A1.73,1.73,0,0,0,75,118.78c0,1.08,0,2.16,0,3.21a9.78,9.78,0,0,1-19.5.44,17.34,17.34,0,0,0,4.36-5.28,1.72,1.72,0,0,0-.71-2.32,1.68,1.68,0,0,0-2.32.71,13.8,13.8,0,0,1-4.11,4.68,13.58,13.58,0,0,1-8,2.6A13.76,13.76,0,0,1,33,101.8s0,0,.05-.07a13.47,13.47,0,0,1,3.16-3.49,1.72,1.72,0,0,0-2.11-2.71,17.65,17.65,0,0,0-3.21,3.31,9.13,9.13,0,0,1-5.51-5.49,1.72,1.72,0,1,0-3.23,1.18,12.67,12.67,0,0,0,7,7.31,17.16,17.16,0,0,0,15.56,24.42,17.24,17.24,0,0,0,7.66-1.79A13.23,13.23,0,0,0,76.7,128a13.23,13.23,0,0,0,24.37-3.53,17,17,0,0,0,7.66,1.79,17.16,17.16,0,0,0,15.56-24.42A12.47,12.47,0,0,0,132,90.33Z"/></svg>