<?xml version="1.0" encoding="utf-8"?>
<!-- Generator: Adobe Illustrator 24.0.1, SVG Export Plug-In . SVG Version: 6.00 Build 0)  -->
<svg version="1.1" id="Layer_1" xmlns="http://www.w3.org/2000/svg" xmlns:xlink="http://www.w3.org/1999/xlink" x="0px" y="0px"
	 viewBox="0 0 400 400" style="enable-background:new 0 0 400 400;" xml:space="preserve">
<style type="text/css">
	.st0{fill:url(#SVGID_2_);}
	.st1{fill:#FFF1EF;}
	.st2{fill:#EF41AB;}
	.st3{fill:#7F8FEF;}
	.st4{fill:#F95386;}
	.st5{fill:url(#SVGID_3_);}
	.st6{fill:#6E6FDD;}
	.st7{fill:url(#SVGID_4_);}
	.st8{fill:#E7CBF3;}
	.st9{fill:url(#SVGID_5_);}
	.st10{fill:url(#SVGID_6_);}
	.st11{fill:#2E1B7E;}
	.st12{fill:#1E0491;}
	.st13{fill:#99A3F3;}
	.st14{fill:#E2EFFF;}
	.st15{fill:#565EFF;}
	.st16{fill:#312BBD;}
	.st17{fill:#2927FA;}
	.st18{fill:url(#SVGID_7_);}
	.st19{fill:url(#SVGID_8_);}
	.st20{fill:#EF50A5;}
	.st21{fill:#3341C0;}
	.st22{fill:url(#SVGID_9_);}
	.st23{fill:url(#SVGID_10_);}
	.st24{fill:url(#SVGID_11_);}
	.st25{fill:#313B9F;}
	.st26{fill:url(#SVGID_12_);}
	.st27{fill:url(#SVGID_13_);}
	.st28{fill:url(#SVGID_14_);}
	.st29{fill:#F205D3;}
	.st30{fill:#BD86F2;}
	.st31{fill:#772FB3;}
	.st32{fill:url(#SVGID_15_);}
	.st33{fill:url(#SVGID_16_);}
	.st34{fill:#1C2589;}
	.st35{fill:url(#SVGID_17_);}
	.st36{filter:url(#Adobe_OpacityMaskFilter);}
	.st37{filter:url(#Adobe_OpacityMaskFilter_1_);}
	.st38{mask:url(#SVGID_18_);fill:url(#SVGID_19_);}
	.st39{opacity:0.46;fill:url(#SVGID_21_);}
	.st40{fill:#FDF9FF;}
	.st41{fill:url(#SVGID_22_);}
	.st42{fill:url(#SVGID_23_);}
	.st43{fill:url(#SVGID_24_);}
	.st44{fill:#E6D1FF;}
	.st45{display:none;}
	.st46{display:inline;fill:url(#SVGID_25_);}
	.st47{display:none;opacity:0.38;fill:url(#SVGID_26_);enable-background:new    ;}
	.st48{clip-path:url(#SVGID_29_);}
	.st49{clip-path:url(#SVGID_30_);fill:url(#SVGID_31_);}
	.st50{fill:url(#SVGID_32_);}
	.st51{fill:#FEFF7A;}
	.st52{fill:url(#SVGID_33_);}
	.st53{fill:url(#SVGID_34_);}
	.st54{opacity:0.38;fill:#CB451E;enable-background:new    ;}
	.st55{fill:url(#SVGID_35_);}
	.st56{fill:url(#SVGID_36_);}
	.st57{fill:url(#SVGID_37_);}
	.st58{fill:url(#SVGID_38_);}
	.st59{fill:url(#SVGID_39_);}
	.st60{fill:url(#SVGID_40_);}
	.st61{fill:url(#SVGID_41_);}
	.st62{fill:url(#SVGID_42_);}
	.st63{fill:url(#SVGID_43_);}
	.st64{fill:url(#SVGID_44_);}
	.st65{fill:url(#SVGID_45_);}
</style>
<g>
	
		<linearGradient id="SVGID_2_" gradientUnits="userSpaceOnUse" x1="-1453.1663" y1="-1356.5734" x2="-1393.9396" y2="-1298.0217" gradientTransform="matrix(-0.1755 -0.9845 -0.9845 0.1755 -1399.7355 -1064.0814)">
		<stop  offset="0" style="stop-color:#FF591B"/>
		<stop  offset="0.998" style="stop-color:#F49916"/>
	</linearGradient>
	<path class="st0" d="M197.72,122.69l-90.64-54.48c0,0,8.63,17.91,12.54,20.64c3.92,2.73,82.05,56.01,82.05,56.01L197.72,122.69z"/>
	<path class="st1" d="M148.44,149.22l-4.25-3.52c0,0-0.27-3.15,1.23-4.66c1.51-1.51,24.96-31.27,28.67-34.43
		c3.7-3.15,9.33-10.29,9.33-10.29h3.29l-6.86,11.38l-4.8,19.2l1.21,2.41l-16.93,14.5l-3.57,6.03l-3.29-2.65L148.44,149.22z"/>
	<g>
		<g>
			<path class="st2" d="M363.31,254.99c0,0,4.78,0.09,6.36-0.24s3.02-1.39,2.98-2.78c-0.03-1.39-0.12-5.08-0.12-5.08l2.22,2.29
				c0,0,0.66,1.49,0.65,3.46c-0.02,1.97-1.59,4.85-4.03,5.59s-7.45,0.22-7.45,0.22L363.31,254.99z"/>
			<path class="st3" d="M363.91,257.95c0,0,6.63-0.23,8.28-1.05c1.65-0.82,2.65-2.15,2.74-3.75s-0.18-3.98-0.18-3.98
				s2.24-3.34,7.41-0.91c0.55,1.05-0.41,3.15-1.65,5.53c-1.23,2.38-3.25,5.53-3.11,10.42c0.23,2.01,4.39,5.76,6.08,7
				c1.69,1.23,3.79,2.47,2.83,5.53c-1.33-1.05-6.58-3.61-8.96-4.48c-2.38-0.87-8-4.57-7.68-7.27c-1.6,0.09-2.47,0.27-3.47,1.14
				C364.87,263.39,364.64,262.75,363.91,257.95z"/>
			<path class="st4" d="M374.75,249.18l-2.22-2.29c0,0,0.14-0.44,0.75-0.67s4.43-0.9,5.99-0.64c0.94,0.41,2.89,2.69,2.89,2.69
				L374.75,249.18z"/>
		</g>
		
			<linearGradient id="SVGID_3_" gradientUnits="userSpaceOnUse" x1="317.6642" y1="37.4544" x2="387.1094" y2="103.2358" gradientTransform="matrix(1 0 0 -1 0 400)">
			<stop  offset="0" style="stop-color:#320FCB"/>
			<stop  offset="0.0688" style="stop-color:#3523D0"/>
			<stop  offset="0.6545" style="stop-color:#4FCDFD"/>
			<stop  offset="1" style="stop-color:#5658F6"/>
		</linearGradient>
		<path class="st5" d="M295.69,346.76c0,0-0.43,1.39,0.53,4.23c3.11,1.92,36.9,23.91,41.01,24.78c4.34,0.05,8.09-0.05,10.33-1.33
			s4.11-2.19,7.04-7.36c2.93-4.25,13.4-20.25,14.77-22.54s2.97-5.12,3.06-7.09s-2.24-33.74-2.24-33.74s-0.32-6.58,0.73-9.19
			c0.96-2.38,4.43-6.87,6.31-8.51c1.87-1.64,3.38-2.32,2.61-5.84c-0.78-3.52-11.34-6.86-11.34-6.86l-53.26,69.63L295.69,346.76z"/>
		<path class="st6" d="M366.84,226.04c0,0,1.34,0.71,1.75,2.08s3.02,7.54,3.02,7.54s-6.09,6.24-7.6,18.26
			c-0.18,2.51-0.18,11.16,8.53,20.96c-0.27,0.75-0.27,0.75-0.27,0.75s-2.54,2.4-9.05,4.39c-6.51,1.99-14.68,9.33-18.86,11.04
			c-4.18,1.71-13.86,3.59-17.28,2.93c0.76-2.45,1.29-4.02,3.39-6.15S366.84,226.04,366.84,226.04z"/>
		
			<radialGradient id="SVGID_4_" cx="332.1957" cy="99.3841" r="61.5839" gradientTransform="matrix(1 0 0 -1 0 400)" gradientUnits="userSpaceOnUse">
			<stop  offset="0" style="stop-color:#B692F1"/>
			<stop  offset="0.0501" style="stop-color:#AB87EF"/>
			<stop  offset="0.2406" style="stop-color:#8764E7"/>
			<stop  offset="0.4322" style="stop-color:#6A49E1"/>
			<stop  offset="0.623" style="stop-color:#5635DD"/>
			<stop  offset="0.8127" style="stop-color:#4A29DB"/>
			<stop  offset="1" style="stop-color:#4625DA"/>
		</radialGradient>
		<path class="st7" d="M310.13,357.03l25.01,15.18c0,0,10.56,2.74,16.73-4.94c4.66-7.41,17.01-28.25,17.01-28.25
			s1.03-4.73,0.82-9.53s-2.13-24.07-2.19-27.16c-0.07-3.09-0.69-9.33,5.49-15.77c1.71-1.44,4.39-4.05,4.11-6.38
			c-5.07-1.23-12.14-1.44-12.14-1.44l-23.66,15.06L310.13,357.03z"/>
		<path class="st8" d="M310.15,357.16l4.85-8.82c0,0,0.5-1.42,3.52-1.83c3.02-0.41,9.19,0.23,11.52-5.03
			c2.01-5.35,7.36-24.69,7.36-24.69l4.71-17.05c0,0,8.23-2.47,7.09-7.22c-2.06,1.01-6.31,2.29-7.09,2.29s-1.33,1.37-1.83,3.02
			s-9.97,30.95-9.97,30.95s-2.24,9.46-4.21,11.38s-2.38,2.79-5.94,2.97c-3.57,0.18-5.71,0.37-6.63,1.55
			c-0.91,1.19-4.25,5.99-5.94,10.65C309.05,356.2,310.15,357.16,310.15,357.16z"/>
		
			<linearGradient id="SVGID_5_" gradientUnits="userSpaceOnUse" x1="309.0834" y1="49.0827" x2="330.3008" y2="101.9853" gradientTransform="matrix(1 0 0 -1 0 400)">
			<stop  offset="0" style="stop-color:#FF42A2"/>
			<stop  offset="0.1366" style="stop-color:#FF70B7"/>
			<stop  offset="0.2334" style="stop-color:#FF4493"/>
			<stop  offset="0.294" style="stop-color:#FF60CC"/>
			<stop  offset="0.3451" style="stop-color:#FD46B5"/>
			<stop  offset="0.7374" style="stop-color:#FF4E89"/>
			<stop  offset="0.888" style="stop-color:#FF119E"/>
			<stop  offset="1" style="stop-color:#C900A0"/>
		</linearGradient>
		<path class="st9" d="M296.45,345.62l-0.73,1.1c0,0-0.41,0.8,0.5,1.51c0.91,0.71,11.45,7.16,11.45,7.16l4.55-7.68
			c0,0,1.17-2.58,5.94-3.2s6.77-0.23,9.33-2.7s15.21-47.02,15.21-47.02l-16.05-0.84c0,0-9.74,32.64-10.88,35.2s-2.83,5.12-5.76,5.62
			c-2.06,0-6.08-0.05-8.46,3.2C299.17,341.21,296.45,345.62,296.45,345.62z"/>
		
			<linearGradient id="SVGID_6_" gradientUnits="userSpaceOnUse" x1="395" y1="81.7" x2="395" y2="81.7" gradientTransform="matrix(1 0 0 -1 0 400)">
			<stop  offset="0" style="stop-color:#FFFFFF"/>
			<stop  offset="1" style="stop-color:#000000"/>
		</linearGradient>
		<path class="st10" d="M395,318.3"/>
		<path class="st11" d="M326.65,293.93c0,0,13.3-1.14,18.31-4.37c5.01-3.22,14.2-10.08,16.73-12.34c0.55-0.89,1.3-1.3,2.88-0.69
			c1.58,0.62,5.07,0.55,7.68-0.89c1.78,0.96,4.73,1.92,4.87,4.66c-1.99,0.14-8.78,0.55-10.97-0.41c-1.99,1.92-11.29,9.71-17.3,12.78
			C344.9,294.12,342.29,296.59,326.65,293.93z"/>
		
			<ellipse transform="matrix(0.8522 -0.5233 0.5233 0.8522 -134.5606 230.5085)" class="st12" cx="340.67" cy="353.4" rx="12.2" ry="11.2"/>
		<g>
			
				<ellipse transform="matrix(0.7826 -0.6226 0.6226 0.7826 -145.7461 290.4186)" class="st13" cx="342.89" cy="353.86" rx="11.1" ry="9.8"/>
			
				<ellipse transform="matrix(0.803 -0.5959 0.5959 0.803 -143.8014 274.8519)" class="st14" cx="343.89" cy="354.97" rx="10.64" ry="9.79"/>
			
				<ellipse transform="matrix(0.803 -0.5959 0.5959 0.803 -143.9994 275.2509)" class="st15" cx="344.4" cy="355.47" rx="10.64" ry="9.79"/>
			<path class="st16" d="M347.9,359.28c-2.29,2.05-5.7,2.03-7.62-0.05c-0.19-0.21-0.36-0.43-0.51-0.66
				c-1.34-2.07-0.89-4.97,1.16-6.81c2.12-1.9,5.19-2.02,7.17-0.39c0.16,0.13,0.31,0.28,0.46,0.43
				C350.48,353.89,350.19,357.24,347.9,359.28z"/>
			<path class="st17" d="M346.95,358.21c-2.12,1.9-5.2,2.02-7.17,0.37c-1.34-2.07-0.89-4.97,1.16-6.81c2.12-1.9,5.19-2.02,7.17-0.39
				C349.45,353.45,349.01,356.36,346.95,358.21z"/>
		</g>
		
			<linearGradient id="SVGID_7_" gradientUnits="userSpaceOnUse" x1="263.5733" y1="175.745" x2="313.66" y2="175.745" gradientTransform="matrix(1 0 0 -1 0 400)">
			<stop  offset="0" style="stop-color:#F34EA2"/>
			<stop  offset="0.1366" style="stop-color:#FF70B7"/>
			<stop  offset="0.52" style="stop-color:#FF3A8B"/>
			<stop  offset="0.7374" style="stop-color:#FC5288"/>
			<stop  offset="0.888" style="stop-color:#DF269C"/>
			<stop  offset="1" style="stop-color:#B01992"/>
		</linearGradient>
		<path class="st18" d="M275.96,263.26l-11.44-7.64c0,0-2.13-1.51,0-4.8s12.14-18.38,12.14-18.38v-8.92l27.64-38.27l9.36,5.59
			l-7.03,20.28L275.96,263.26z"/>
		
			<linearGradient id="SVGID_8_" gradientUnits="userSpaceOnUse" x1="277.13" y1="119.66" x2="289.2" y2="119.66" gradientTransform="matrix(1 0 0 -1 0 400)">
			<stop  offset="0" style="stop-color:#F34EA2"/>
			<stop  offset="0.1366" style="stop-color:#FF70B7"/>
			<stop  offset="0.52" style="stop-color:#FF3A8B"/>
			<stop  offset="0.7374" style="stop-color:#FC5288"/>
			<stop  offset="0.888" style="stop-color:#DF269C"/>
			<stop  offset="1" style="stop-color:#B01992"/>
		</linearGradient>
		<path class="st19" d="M280.85,266.27c0,0-3.44,8.62-3.72,12.46c0.07,3.09,0.14,7.57,8.09,15.68c1.51-10.26,1.51-17.94,3.98-23.71
			C284.54,266.94,280.85,266.27,280.85,266.27z"/>
		<path class="st20" d="M303.95,272.49c0,0,3.53,6.76,1.51,13.06c-1.23,2.67-3.43,5.42-3.43,5.42s0.55,0.86,2.37,1.95
			c1.92-1.1,6.1-5.01,7.27-11.69c0.69-4.87,0.69-5.59,0.69-5.59S306.52,273.35,303.95,272.49z"/>
		<path class="st21" d="M316.4,277.64c0,0-3.84,15.4-12,15.29c1.61-2.67,7.96-17.28,7.96-17.28L316.4,277.64z"/>
		
			<linearGradient id="SVGID_9_" gradientUnits="userSpaceOnUse" x1="287.5411" y1="106.1103" x2="324.7417" y2="106.1103" gradientTransform="matrix(1 0 0 -1 0 400)">
			<stop  offset="0" style="stop-color:#F34EA2"/>
			<stop  offset="0.1366" style="stop-color:#FF70B7"/>
			<stop  offset="0.2334" style="stop-color:#FF3A8B"/>
			<stop  offset="0.294" style="stop-color:#FF60CC"/>
			<stop  offset="0.3451" style="stop-color:#FD46B5"/>
			<stop  offset="0.7374" style="stop-color:#FC5288"/>
			<stop  offset="0.888" style="stop-color:#DF269C"/>
			<stop  offset="1" style="stop-color:#B01992"/>
		</linearGradient>
		<path class="st22" d="M317.59,278.21c0,0,0.35,7.51-1.99,11.35c-2.33,3.84-6.59,9.88-10.56,10.49c-3.22,0.21-10.4,0.27-17.41-9.88
			c-0.7,4.39,2.9,9.18,5,11.8s11.32,7.06,14.33,7.54c3.02,0.48,8.98-2.06,9.94-3.7c0.96-1.65,6.79-10.91,7.68-15.95
			c0.89-5.04-2.13-9.3-3.29-10.42C320.13,278.32,317.59,278.21,317.59,278.21z"/>
		
			<linearGradient id="SVGID_10_" gradientUnits="userSpaceOnUse" x1="297.0322" y1="92.8297" x2="353.0796" y2="189.9067" gradientTransform="matrix(1 0 0 -1 0 400)">
			<stop  offset="0" style="stop-color:#F0F2FF"/>
			<stop  offset="0.0252" style="stop-color:#EDEFFF"/>
			<stop  offset="0.0459" style="stop-color:#E3E8FD"/>
			<stop  offset="0.0649" style="stop-color:#D2DAFB"/>
			<stop  offset="0.0829" style="stop-color:#B9C7F7"/>
			<stop  offset="0.1" style="stop-color:#9BAFF3"/>
			<stop  offset="0.1009" style="stop-color:#99AEF3"/>
			<stop  offset="0.2518" style="stop-color:#9BAFF3"/>
			<stop  offset="0.3061" style="stop-color:#A2B5F4"/>
			<stop  offset="0.3448" style="stop-color:#ADBEF6"/>
			<stop  offset="0.3762" style="stop-color:#BECBF8"/>
			<stop  offset="0.4027" style="stop-color:#D4DCFB"/>
			<stop  offset="0.426" style="stop-color:#EFF0FF"/>
			<stop  offset="0.4286" style="stop-color:#F2F3FF"/>
			<stop  offset="0.7183" style="stop-color:#EFF1FF"/>
			<stop  offset="0.9221" style="stop-color:#D2D8FB"/>
			<stop  offset="1" style="stop-color:#C5CEF9"/>
		</linearGradient>
		<path class="st23" d="M362.45,257.22c-0.37-3.11,1.1-12.62,7.59-22.13c-1.37-3.66-3.2-9.05-3.2-9.05L338.4,208.3l-6.31-9.33
			l-15.32-9.84l-3.12,1.71L307,210.59l-0.06,0.17c0,0-9.28,10.87-15.5,13.75c-0.63,0.29-1.23,0.5-1.78,0.61
			c0.73,2.2,2.1,3.66,0,6.86c-0.66,1.01-2.35,3.55-4.38,6.62c-4.41,6.66-10.42,15.81-10.99,17.06c-0.82,1.83-1.83,4.94,0.73,7.04
			c2.84,1.65,12.66,7.87,12.66,7.87s-3.02,9.26-3.5,17.28c-0.14,3.36-0.41,5.07,2.06,8.23c2.6,2.67,9.39,10.15,14.4,13.17
			c5.01,3.02,10.69,2.68,13.64,0.82c2.95-1.85,8.25-7.27,14.14-18.65c2.8,0.28,11.79-0.07,22.49-7.95
			c4.87-3.63,11.32-9.53,11.32-9.53s1.54,1.37,8.16,0.99C368.55,272.63,364.28,267.19,362.45,257.22z M322.81,291.42
			c-0.82,4.19-6.11,11.04-9.19,14.2c-3.09,3.16-7.61,3.09-10.01,1.99c-2.4-1.1-13.64-10.7-14.88-13.67s-1.24-4.5-0.89-8.56
			c1.92-8.03,5.55-10.9,7.79-12.88c3-2.33,8.32,0,8.32,0s7.24,2.7,12.75,5.28C323.57,280.88,323.57,287.72,322.81,291.42z"/>
		
			<linearGradient id="SVGID_11_" gradientUnits="userSpaceOnUse" x1="310.0341" y1="120.3391" x2="351.0035" y2="180.2225" gradientTransform="matrix(1 0 0 -1 0 400)">
			<stop  offset="0.1864" style="stop-color:#0014DE"/>
			<stop  offset="0.2541" style="stop-color:#0011DE"/>
			<stop  offset="0.2823" style="stop-color:#061AE6"/>
			<stop  offset="0.3581" style="stop-color:#132FF8"/>
			<stop  offset="0.409" style="stop-color:#1836FF"/>
			<stop  offset="0.4356" style="stop-color:#2945FF"/>
			<stop  offset="0.4888" style="stop-color:#576DFF"/>
			<stop  offset="0.5636" style="stop-color:#A0ADFF"/>
			<stop  offset="0.6389" style="stop-color:#F1F3FF"/>
			<stop  offset="0.6847" style="stop-color:#EAEEFF"/>
			<stop  offset="0.7546" style="stop-color:#E6EBFF"/>
			<stop  offset="0.77" style="stop-color:#E1E6FD"/>
			<stop  offset="0.7889" style="stop-color:#D2D8F8"/>
			<stop  offset="0.8095" style="stop-color:#B9C0EF"/>
			<stop  offset="0.8314" style="stop-color:#969FE3"/>
			<stop  offset="0.8544" style="stop-color:#6A74D4"/>
			<stop  offset="0.8779" style="stop-color:#3441C1"/>
			<stop  offset="0.8893" style="stop-color:#1725B7"/>
		</linearGradient>
		<path class="st24" d="M295.63,255.67l36.21,22.4c0,0,9.78-0.27,16.45-9.42s16.19-23.36,7.77-35
			c-8.87-5.88-31.39-19.45-31.39-19.45L295.63,255.67z"/>
		<path class="st25" d="M325.42,209.54l-1.03,4.66l33.67,21.12l1.44-2.74c0,0,0.34-1.58-1.78-2.95
			C355.59,228.26,325.42,209.54,325.42,209.54z"/>
		
			<linearGradient id="SVGID_12_" gradientUnits="userSpaceOnUse" x1="325.4755" y1="142.0068" x2="335.7498" y2="157.0243" gradientTransform="matrix(1 0 0 -1 0 400)">
			<stop  offset="0.4236" style="stop-color:#FFFFFF"/>
			<stop  offset="0.4363" style="stop-color:#F8FAFE"/>
			<stop  offset="0.5117" style="stop-color:#D4E1FB"/>
			<stop  offset="0.5875" style="stop-color:#B7CDF8"/>
			<stop  offset="0.663" style="stop-color:#A3BEF6"/>
			<stop  offset="0.7381" style="stop-color:#97B6F4"/>
			<stop  offset="0.8123" style="stop-color:#93B3F4"/>
		</linearGradient>
		<path class="st26" d="M320.96,236.17l23.25,15.22c0,0,3.5,3.77-0.27,7.89c-1.71,2.33-4.66,2.54-6.86,1.65
			c-2.54-1.58-23.11-14.33-23.11-14.33S319.31,241.04,320.96,236.17z"/>
		
			<linearGradient id="SVGID_13_" gradientUnits="userSpaceOnUse" x1="301.4101" y1="168.4236" x2="311.8925" y2="186.5796" gradientTransform="matrix(1 0 0 -1 0 400)">
			<stop  offset="2.004795e-03" style="stop-color:#6F86E5"/>
			<stop  offset="0.135" style="stop-color:#6A80E4"/>
			<stop  offset="0.4803" style="stop-color:#6074E2"/>
			<stop  offset="0.6208" style="stop-color:#677BE4"/>
			<stop  offset="0.8202" style="stop-color:#798DEA"/>
			<stop  offset="1" style="stop-color:#90A3F2"/>
		</linearGradient>
		<path class="st27" d="M321.94,220.37c0,0-3.66,5.03-9.33,8.6c-4.57,4.02-6.22,5.48-6.22,5.48l-0.02-0.01l-14.94-9.93
			c6.22-2.88,15.5-13.75,15.5-13.75l0.06-0.17L321.94,220.37z"/>
		
			<linearGradient id="SVGID_14_" gradientUnits="userSpaceOnUse" x1="290.3911" y1="157.9596" x2="298.9212" y2="170.5953" gradientTransform="matrix(1 0 0 -1 0 400)">
			<stop  offset="0" style="stop-color:#8197EE"/>
			<stop  offset="0.4783" style="stop-color:#839AEF"/>
			<stop  offset="0.818" style="stop-color:#839CEF"/>
			<stop  offset="1" style="stop-color:#BACCFF"/>
		</linearGradient>
		<path class="st28" d="M306.38,234.44c0,0-1.42,2.33-1.97,3.11s-5.49,9.87-5.49,9.87l-13.64-8.83c2.02-3.07,3.71-5.61,4.38-6.62
			c2.1-3.2,0.73-4.66,0-6.86c0.55-0.11,1.15-0.32,1.78-0.61L306.38,234.44z"/>
		<path class="st29" d="M313.96,246.59c-9.72,11.59-18.63,9.08-18.63,9.08c0.07-1.95,0.38-3.86,0.88-5.72
			c0.97-3.63,2.62-7.05,4.35-10.13c1.07-1.9,2.18-3.66,3.18-5.28c3.47-5.58,19.11-15.73,20.64-19.2
			C327.93,228.6,317.56,242.25,313.96,246.59z"/>
		<g>
			<path class="st30" d="M318.26,235.86c-1.54,2.65-3.74,4.31-5.18,3.97c-0.14-0.03-0.27-0.09-0.39-0.16
				c-1.4-0.8-1.16-3.82,0.52-6.73c1.68-2.91,4.18-4.62,5.57-3.82c0.21,0.12,0.38,0.29,0.51,0.5
				C320.07,230.83,319.69,233.38,318.26,235.86z"/>
			<path class="st31" d="M318.26,235.86c-1.54,2.65-3.74,4.31-5.18,3.97c-0.78-1.2-0.39-3.75,1.04-6.23
				c1.54-2.66,3.75-4.31,5.18-3.98C320.07,230.83,319.69,233.38,318.26,235.86z"/>
			<path class="st30" d="M308.72,247.24c-1.54,2.65-3.74,4.31-5.18,3.97c-0.14-0.03-0.27-0.09-0.39-0.16
				c-1.4-0.8-1.16-3.82,0.52-6.73c1.68-2.91,4.18-4.62,5.57-3.82c0.21,0.12,0.38,0.29,0.51,0.5
				C310.54,242.21,310.15,244.76,308.72,247.24z"/>
			<path class="st31" d="M308.72,247.24c-1.54,2.65-3.74,4.31-5.18,3.97c-0.78-1.2-0.39-3.75,1.04-6.23
				c1.54-2.66,3.75-4.31,5.18-3.98C310.54,242.21,310.15,244.76,308.72,247.24z"/>
			<path class="st30" d="M321.21,222.38c-1.54,2.65-3.74,4.31-5.18,3.97c-0.14-0.03-0.27-0.09-0.39-0.16
				c-1.4-0.8-1.16-3.82,0.52-6.73c1.68-2.91,4.18-4.62,5.57-3.82c0.21,0.12,0.38,0.29,0.51,0.5
				C323.02,217.34,322.64,219.9,321.21,222.38z"/>
			<path class="st31" d="M321.21,222.38c-1.54,2.65-3.74,4.31-5.18,3.97c-0.78-1.2-0.39-3.75,1.04-6.23
				c1.54-2.66,3.75-4.31,5.18-3.98C323.02,217.34,322.64,219.9,321.21,222.38z"/>
			<path class="st31" d="M300.22,246.08c-1.16,2.01-2.71,3.44-4.01,3.87c0.97-3.63,2.62-7.05,4.35-10.13
				c0.24-0.04,0.48-0.03,0.7,0.02C302.04,241.05,301.65,243.6,300.22,246.08z"/>
		</g>
		
			<linearGradient id="SVGID_15_" gradientUnits="userSpaceOnUse" x1="333.2068" y1="166.6277" x2="341.0231" y2="178.0525" gradientTransform="matrix(1 0 0 -1 0 400)">
			<stop  offset="0.4236" style="stop-color:#FFFFFF"/>
			<stop  offset="0.4363" style="stop-color:#F8FAFE"/>
			<stop  offset="0.5117" style="stop-color:#D4E1FB"/>
			<stop  offset="0.5875" style="stop-color:#B7CDF8"/>
			<stop  offset="0.663" style="stop-color:#A3BEF6"/>
			<stop  offset="0.7381" style="stop-color:#97B6F4"/>
			<stop  offset="0.8123" style="stop-color:#93B3F4"/>
		</linearGradient>
		<path class="st32" d="M324.39,214.2c0,0,2.13,4.18,0.75,10.97c4.94,3.22,22.01,13.99,22.01,13.99s3.98,0.75,5.49-2.19
			c1.03-2.19,0.98-3.42,0.45-4.76C349.01,229.77,324.39,214.2,324.39,214.2z"/>
		
			<linearGradient id="SVGID_16_" gradientUnits="userSpaceOnUse" x1="327.4469" y1="111.1736" x2="366.9767" y2="168.953" gradientTransform="matrix(1 0 0 -1 0 400)">
			<stop  offset="0.1761" style="stop-color:#1E5BF1"/>
			<stop  offset="0.4236" style="stop-color:#88F1FE"/>
			<stop  offset="0.424" style="stop-color:#88F1FE"/>
			<stop  offset="0.4948" style="stop-color:#BAF6FE"/>
			<stop  offset="0.5567" style="stop-color:#DFFAFD"/>
			<stop  offset="0.6069" style="stop-color:#F5FCFD"/>
			<stop  offset="0.6389" style="stop-color:#FDFDFD"/>
			<stop  offset="0.6583" style="stop-color:#E2F3FD"/>
			<stop  offset="0.6892" style="stop-color:#BEE5FC"/>
			<stop  offset="0.7203" style="stop-color:#A1DBFC"/>
			<stop  offset="0.7512" style="stop-color:#8DD3FB"/>
			<stop  offset="0.7819" style="stop-color:#81CFFB"/>
			<stop  offset="0.8123" style="stop-color:#7DCDFB"/>
			<stop  offset="0.8873" style="stop-color:#3350E4"/>
		</linearGradient>
		<path class="st33" d="M355.77,233.65c0,0,4.64,5.86,1.69,15.09c-2.88,7.79-8.16,16.71-12.89,21.03s-7.96,6.31-14.13,7.2
			c0.62,0.62,1.1,1.1,1.1,1.1s7.27,1.51,14.74-5.21c4.53-4.25,9.19-10.22,11.8-16.6s4.66-17.14,0.27-20.99
			C356.41,234.05,355.77,233.65,355.77,233.65z"/>
		<path class="st34" d="M295.97,255.3l-2.06,2.93l34.02,21.63c0,0,1.83,0.5,2.42-0.23c0.46-0.69,1.33-2.1,1.33-2.1L295.97,255.3z"/>
		
			<linearGradient id="SVGID_17_" gradientUnits="userSpaceOnUse" x1="295.2333" y1="139.5155" x2="325.5796" y2="120.6583" gradientTransform="matrix(1 0 0 -1 0 400)">
			<stop  offset="0" style="stop-color:#F0F2FF"/>
			<stop  offset="0.9153" style="stop-color:#F3F5FF;stop-opacity:0.0847"/>
			<stop  offset="1" style="stop-color:#F4F6FF;stop-opacity:0"/>
		</linearGradient>
		<polygon class="st35" points="292.68,260.29 293.91,258.27 327.93,279.9 326.51,281.22 		"/>
	</g>
	<defs>
		<filter id="Adobe_OpacityMaskFilter" filterUnits="userSpaceOnUse" x="15.19" y="14.24" width="159.84" height="111.17">
			<feFlood  style="flood-color:white;flood-opacity:1" result="back"/>
			<feBlend  in="SourceGraphic" in2="back" mode="normal"/>
		</filter>
	</defs>
	<mask maskUnits="userSpaceOnUse" x="15.19" y="14.24" width="159.84" height="111.17" id="SVGID_18_">
		<g class="st36">
			<defs>
				<filter id="Adobe_OpacityMaskFilter_1_" filterUnits="userSpaceOnUse" x="15.19" y="14.24" width="159.84" height="111.17">
					<feFlood  style="flood-color:white;flood-opacity:1" result="back"/>
					<feBlend  in="SourceGraphic" in2="back" mode="normal"/>
				</filter>
			</defs>
			<mask maskUnits="userSpaceOnUse" x="15.19" y="14.24" width="159.84" height="111.17" id="SVGID_18_">
				<g class="st37">
				</g>
			</mask>
			
				<linearGradient id="SVGID_19_" gradientUnits="userSpaceOnUse" x1="-1418.5525" y1="1708.0812" x2="-1315.5366" y2="1607.7661" gradientTransform="matrix(-0.1755 -0.9845 0.9845 -0.1755 -1793.7264 -996.0414)">
				<stop  offset="0" style="stop-color:#000000"/>
				<stop  offset="0.5481" style="stop-color:#FFFFFF"/>
				<stop  offset="0.998" style="stop-color:#FFFFFF"/>
			</linearGradient>
			<path class="st38" d="M120.49,125.42L96.62,97.35c0,0-12.49-13.08-17.07-19.52c-3.11-3.4-36.66-16.95-36.66-16.95L35.88,50.4
				l-6.42-1.23L15.19,14.24c0,0,31.6,3.34,48.03,10.43s21.79,8.25,28.7,21.14c1.94,3.48,7.12,10.34,7.12,10.34s19.24,3.56,24.56,3.8
				c5.32,0.24,9.29,4.02,18.22,9.68s29.17,19.34,29.17,19.34l4.05,29.36L120.49,125.42z"/>
		</g>
	</mask>
	
		<linearGradient id="SVGID_21_" gradientUnits="userSpaceOnUse" x1="-1418.5525" y1="1708.0812" x2="-1315.5366" y2="1607.7661" gradientTransform="matrix(-0.1755 -0.9845 0.9845 -0.1755 -1793.7264 -996.0414)">
		<stop  offset="0" style="stop-color:#C6431E"/>
		<stop  offset="0.5481" style="stop-color:#FFAA1C"/>
		<stop  offset="0.998" style="stop-color:#F8D05B"/>
	</linearGradient>
	<path class="st39" d="M120.49,125.42L96.62,97.35c0,0-12.49-13.08-17.07-19.52c-3.11-3.4-36.66-16.95-36.66-16.95L35.88,50.4
		l-6.42-1.23L15.19,14.24c0,0,31.6,3.34,48.03,10.43s21.79,8.25,28.7,21.14c1.94,3.48,7.12,10.34,7.12,10.34s19.24,3.56,24.56,3.8
		c5.32,0.24,9.29,4.02,18.22,9.68s29.17,19.34,29.17,19.34l4.05,29.36L120.49,125.42z"/>
	<path class="st40" d="M179.83,107.71l-4.8,19.2l1.37,2.74l126.18,79.96c0,0,0.82-0.69,1.85-3.77s4.94-16.46,4.94-16.46
		L179.83,107.71z"/>
	
		<linearGradient id="SVGID_22_" gradientUnits="userSpaceOnUse" x1="173.6051" y1="256.0279" x2="298.3915" y2="185.6104" gradientTransform="matrix(1 0 0 -1 0 400)">
		<stop  offset="0" style="stop-color:#DE91F8"/>
		<stop  offset="0.1219" style="stop-color:#D48DF8"/>
		<stop  offset="0.3291" style="stop-color:#B982FA"/>
		<stop  offset="0.5964" style="stop-color:#8E70FC"/>
		<stop  offset="0.9104" style="stop-color:#5258FE"/>
		<stop  offset="0.996" style="stop-color:#4051FF"/>
	</linearGradient>
	<path class="st41" d="M159.31,143.82c0,0,2.1-3.02,4.66-4.57s12.11-10.26,12.27-9.93s126.35,80.29,126.35,80.29l-16.73,13.85
		L159.31,143.82z"/>
	
		<linearGradient id="SVGID_23_" gradientUnits="userSpaceOnUse" x1="216.3234" y1="209.7457" x2="220.571" y2="216.4521" gradientTransform="matrix(1 0 0 -1 0 400)">
		<stop  offset="0" style="stop-color:#DEAFF6"/>
		<stop  offset="0.0655" style="stop-color:#E3BCF7"/>
		<stop  offset="0.222" style="stop-color:#EDD6FA"/>
		<stop  offset="0.3828" style="stop-color:#F4E9FC"/>
		<stop  offset="0.549" style="stop-color:#F8F4FD"/>
		<stop  offset="0.7291" style="stop-color:#F9F8FD"/>
	</linearGradient>
	<path class="st42" d="M148.42,149.22l4.02-2.01l3.29,2.65l3.57-6.03l126.55,79.64c0,0,2.65,1.83-0.37,5.76
		c-2.47,2.29-3.11,2.56-5.03,2.38C277.17,229.5,148.42,149.22,148.42,149.22z"/>
	
		<linearGradient id="SVGID_24_" gradientUnits="userSpaceOnUse" x1="186.0055" y1="295.0193" x2="226.2107" y2="272.3315" gradientTransform="matrix(1 0 0 -1 0 400)">
		<stop  offset="0" style="stop-color:#E18AFF"/>
		<stop  offset="0.1275" style="stop-color:#D786FF"/>
		<stop  offset="0.3442" style="stop-color:#BC7CFF"/>
		<stop  offset="0.6237" style="stop-color:#916CFF"/>
		<stop  offset="0.952" style="stop-color:#5555FF"/>
		<stop  offset="0.996" style="stop-color:#4C52FF"/>
	</linearGradient>
	<polygon class="st43" points="222.71,134.74 215.08,115.39 186.69,96.32 179.83,107.71 	"/>
	<path class="st44" d="M197.22,131.91c0,0,1.2-3.63,4.25-3.12c2.06,1.1,23.49,14.74,23.49,14.74s1.1,1.41,0.48,3.12
		c-0.62,1.71-1.13,2.26-1.13,2.26L197.22,131.91z"/>
	<path class="st30" d="M216.49,143.67l-11.43-7.32c-1.03-0.66-1.33-2.03-0.67-3.06l0.06-0.09c0.66-1.03,2.03-1.33,3.06-0.67
		l11.43,7.32c1.03,0.66,1.33,2.03,0.67,3.06l-0.06,0.09C218.88,144.03,217.51,144.33,216.49,143.67z"/>
	<path class="st44" d="M235.07,155.78c0,0,1.2-3.63,4.25-3.12c2.06,1.1,23.49,14.74,23.49,14.74s1.1,1.41,0.48,3.12
		c-0.62,1.71-1.13,2.26-1.13,2.26L235.07,155.78z"/>
	<path class="st30" d="M254.34,167.53l-11.43-7.32c-1.03-0.66-1.33-2.03-0.67-3.06l0.06-0.09c0.66-1.03,2.03-1.33,3.06-0.67
		l11.43,7.32c1.03,0.66,1.33,2.03,0.67,3.06l-0.06,0.09C256.74,167.89,255.37,168.19,254.34,167.53z"/>
	<path class="st44" d="M273.48,179.99c0,0,1.2-3.63,4.25-3.12c2.06,1.1,23.49,14.74,23.49,14.74s1.1,1.41,0.48,3.12
		c-0.62,1.71-1.13,2.26-1.13,2.26L273.48,179.99z"/>
	<path class="st30" d="M292.74,191.74l-11.43-7.32c-1.03-0.66-1.33-2.03-0.67-3.06l0.06-0.09c0.66-1.03,2.03-1.33,3.06-0.67
		l11.43,7.32c1.03,0.66,1.33,2.03,0.67,3.06l-0.06,0.09C295.14,192.1,293.77,192.4,292.74,191.74z"/>
	<g>
		<g>
			<g class="st45">
				
					<linearGradient id="SVGID_25_" gradientUnits="userSpaceOnUse" x1="-1313.7256" y1="-1356.7048" x2="-1450.2158" y2="-1215.0305" gradientTransform="matrix(-0.1755 -0.9845 -0.9845 0.1755 -1399.7355 -1064.0814)">
					<stop  offset="0" style="stop-color:#4D0F10"/>
					<stop  offset="0.1673" style="stop-color:#B13815"/>
					<stop  offset="0.2779" style="stop-color:#AD3416"/>
					<stop  offset="0.3554" style="stop-color:#A52D18"/>
					<stop  offset="0.3734" style="stop-color:#AA3019"/>
					<stop  offset="0.4525" style="stop-color:#B93A1D"/>
					<stop  offset="0.5165" style="stop-color:#BE3E1E"/>
					<stop  offset="0.5512" style="stop-color:#AF321D"/>
					<stop  offset="0.6008" style="stop-color:#A0251C"/>
					<stop  offset="0.6415" style="stop-color:#9B211C"/>
					<stop  offset="0.6516" style="stop-color:#921F1A"/>
					<stop  offset="0.6917" style="stop-color:#741615"/>
					<stop  offset="0.726" style="stop-color:#621111"/>
					<stop  offset="0.7502" style="stop-color:#5B0F10"/>
					<stop  offset="0.778" style="stop-color:#621210"/>
					<stop  offset="0.8182" style="stop-color:#751B11"/>
					<stop  offset="0.8657" style="stop-color:#942912"/>
					<stop  offset="0.8957" style="stop-color:#AC3313"/>
					<stop  offset="1" style="stop-color:#4D0D0F"/>
				</linearGradient>
				<polygon id="SVGID_20_" class="st46" points="171.39,-19 198.27,131.78 47.49,158.66 20.61,7.88 				"/>
			</g>
			<g>
				
					<linearGradient id="SVGID_26_" gradientUnits="userSpaceOnUse" x1="-1314.1978" y1="-1363.8234" x2="-1453.7213" y2="-1226.2307" gradientTransform="matrix(-0.1755 -0.9845 -0.9845 0.1755 -1399.7355 -1064.0814)">
					<stop  offset="0" style="stop-color:#BC2427"/>
					<stop  offset="0.3391" style="stop-color:#791416"/>
					<stop  offset="0.547" style="stop-color:#E22C31"/>
					<stop  offset="0.69" style="stop-color:#781316"/>
					<stop  offset="1" style="stop-color:#791416"/>
				</linearGradient>
				<polygon class="st47" points="209.74,45.3 107.71,-29.74 91.18,-26.22 198.85,48.39 201.71,64.46 76.15,-20.68 50.09,-16.04 
					204.32,82.3 208.3,98.18 25.56,-15.67 1.51,-6.24 9.47,35.24 191.65,149.19 174.66,153.37 22.01,63.89 23.73,76.74 
					154.55,159.24 117.6,166.97 23.13,105.45 24.49,119.5 123.54,184.21 225.86,161.4 				"/>
			</g>
			<g>
				<g>
					<defs>
						<polygon id="SVGID_27_" points="1,1 2,1 1,2 						"/>
					</defs>
					<defs>
						<polygon id="SVGID_28_" points="-1,-1 -2,-1 -1,-2 						"/>
					</defs>
					<clipPath id="SVGID_29_">
						<use xlink:href="#SVGID_27_"  style="overflow:visible;"/>
					</clipPath>
					<clipPath id="SVGID_30_" class="st48">
						<use xlink:href="#SVGID_28_"  style="overflow:visible;"/>
					</clipPath>
					
						<linearGradient id="SVGID_31_" gradientUnits="userSpaceOnUse" x1="-1414.0403" y1="-1304.7216" x2="-1302.3783" y2="-1195.9872" gradientTransform="matrix(-0.1755 -0.9845 -0.9845 0.1755 -1399.7355 -1064.0814)">
						<stop  offset="0" style="stop-color:#000000"/>
						<stop  offset="0.5481" style="stop-color:#FFFFFF"/>
						<stop  offset="0.998" style="stop-color:#FFFFFF"/>
					</linearGradient>
					<path class="st49" d="M115.24,125.76L89.37,95.33c0,0-13.54-14.17-18.5-21.15c-3.37-3.69-39.74-18.37-39.74-18.37l-7.6-11.37
						l-6.96-1.33L1.1,5.25c0,0,34.25,3.62,52.06,11.31s23.62,8.95,31.11,22.91c2.1,3.77,7.72,11.21,7.72,11.21
						s20.85,3.86,26.62,4.12c5.77,0.26,10.07,4.35,19.74,10.49s31.62,20.96,31.62,20.96l4.38,31.82L115.24,125.76z"/>
				</g>
			</g>
			<g>
				
					<linearGradient id="SVGID_32_" gradientUnits="userSpaceOnUse" x1="-1372.9728" y1="-1231.7151" x2="-1441.5978" y2="-1296.0316" gradientTransform="matrix(-0.1755 -0.9845 -0.9845 0.1755 -1399.7355 -1064.0814)">
					<stop  offset="0.3246" style="stop-color:#F33A00"/>
					<stop  offset="0.5165" style="stop-color:#B61F00"/>
					<stop  offset="0.998" style="stop-color:#AF1D00"/>
				</linearGradient>
				<path class="st50" d="M43.64,60.16l17.75,38.59c0,0,22.33,1.43,25.42,4.31s22.12,28.11,22.12,28.11l43.84-7.53L43.64,60.16z"/>
			</g>
			<g>
				<path class="st51" d="M84.49,38.29c0,0,8.34,6.66,13.59,10.45c5.25,3.78,24.61,15.35,28.34,17.83c0,0,0.17-1.46-7.08-8.46
					s-14.04-13.8-24.1-17.3S84.49,38.29,84.49,38.29z"/>
			</g>
			<g>
				
					<linearGradient id="SVGID_33_" gradientUnits="userSpaceOnUse" x1="-1289.2628" y1="-1185.4473" x2="-1377.9558" y2="-1268.5717" gradientTransform="matrix(-0.1755 -0.9845 -0.9845 0.1755 -1399.7355 -1064.0814)">
					<stop  offset="0.3206" style="stop-color:#FFFFE2"/>
					<stop  offset="0.5165" style="stop-color:#FFFD9C"/>
					<stop  offset="0.998" style="stop-color:#FEFB62"/>
				</linearGradient>
				<path class="st52" d="M140.17,111.59c0,0-28.6-5.63-31.55-6.96c-2.95-1.33-8.07-5.14-8.53-6.92s-1.27-14.36-1.71-14.42
					s-10.58-2.4-14.75-4.95c-4.16-3.26-41.68-28.46-47.83-32.51c-1.35-0.33-3.81,1.11-3.81,1.11s2.07,2.78,2.91,3.49
					c0.84,0.71,6.15,5.62,13.64,9.15c7.49,3.53,18.15,8.78,18.15,8.78s-11.35-2.7-20.28-6.25c-8.93-3.56-17.03-5.69-18.02-7.23
					C27.4,53.33,15.87,25.5,15.87,25.5s8.67,9.32,10.05,9.08c1.39-0.25-3.34-7.13-4.66-8.89c-1.32-1.77-8.09-14.93-8.09-14.93
					s9.79,2.4,19.19,6.59c6.71,2.74,11.92,5.88,13.47,4.96c1.55-0.92-8.17-6.55-8.17-6.55s8.58,0.83,19.78,3.05
					c11.19,2.22,11.5,2.74,11.5,2.74s8.99,15.13,9.62,20.66c-4.76-3.44-25.39-18.5-27.16-19.18c-1.77-0.69-2.88,0.3-1.96,1.42
					c1.87,1.67,20.18,16.14,22.12,19.44c1.95,3.3,5.32,12.99,5.32,12.99s-4.79-6.8-6.58-6.41s-0.1,2.66,1.45,4.1
					c1.54,1.44,12.56,15.92,20.75,19.75c0.81,0.14-0.43-5.64-1.31-11.78c5.06,1.89,11.52,3.24,18.02,13.23s7.57,11.59,7.02,13.33
					c-0.55,1.74-5.74,9.53-4.86,11.23C113.03,100.91,135.45,109.57,140.17,111.59z"/>
			</g>
			<g>
				
					<linearGradient id="SVGID_34_" gradientUnits="userSpaceOnUse" x1="-1328.7024" y1="-1218.5978" x2="-1353.3247" y2="-1241.6742" gradientTransform="matrix(-0.1755 -0.9845 -0.9845 0.1755 -1399.7355 -1064.0814)">
					<stop  offset="0" style="stop-color:#F6A600"/>
					<stop  offset="0.998" style="stop-color:#F6A600"/>
				</linearGradient>
				<path class="st53" d="M38.09,37.29c0,0-0.75-4.21,2.51-4.58c4.02,2.12,13.68,5.75,23.29,19.55c4.39,6.15,8.74,11.74,8.5,11.57
					c-0.24-0.17-15.64-11.15-20.63-15.05C46.77,44.87,38.09,37.29,38.09,37.29z"/>
			</g>
			<g>
				<path class="st51" d="M51.99,70.11c0,0,9.77,2.69,17.83,9.4s20.96,15.71,20.96,15.71s-13.42-5.47-19.21-8.3
					C65.78,84.1,50.32,71.98,51.99,70.11z"/>
			</g>
			<g>
				<ellipse class="st54" cx="87.09" cy="22.44" rx="8.29" ry="8.29"/>
			</g>
			<g>
				
					<radialGradient id="SVGID_35_" cx="-1330.6168" cy="-1272.938" r="3.6968" gradientTransform="matrix(-0.1755 -0.9845 -0.9845 0.1755 -1399.7355 -1064.0814)" gradientUnits="userSpaceOnUse">
					<stop  offset="0" style="stop-color:#FEFF7A"/>
					<stop  offset="0.998" style="stop-color:#FFAF31"/>
				</radialGradient>
				<circle class="st55" cx="86.94" cy="22.52" r="3.7"/>
			</g>
			<g>
				<circle class="st54" cx="39.46" cy="59.67" r="12.09"/>
			</g>
			<g>
				
					<radialGradient id="SVGID_36_" cx="-1358.9325" cy="-1219.4423" r="5.3896" gradientTransform="matrix(-0.1755 -0.9845 -0.9845 0.1755 -1399.7355 -1064.0814)" gradientUnits="userSpaceOnUse">
					<stop  offset="0" style="stop-color:#FEFF7A"/>
					<stop  offset="0.998" style="stop-color:#FFAF31"/>
				</radialGradient>
				<path class="st56" d="M38.3,54.48c2.93-0.52,5.73,1.43,6.25,4.36s-1.43,5.73-4.36,6.25s-5.73-1.43-6.25-4.36
					C33.41,57.8,35.37,55,38.3,54.48z"/>
			</g>
			<g>
				<ellipse class="st54" cx="123.69" cy="36.51" rx="8.29" ry="8.29"/>
			</g>
			<g>
				
					<radialGradient id="SVGID_37_" cx="-1350.8849" cy="-1306.5122" r="3.6953" gradientTransform="matrix(-0.1755 -0.9845 -0.9845 0.1755 -1399.7355 -1064.0814)" gradientUnits="userSpaceOnUse">
					<stop  offset="0" style="stop-color:#FEFF7A"/>
					<stop  offset="0.998" style="stop-color:#FFAF31"/>
				</radialGradient>
				<circle class="st57" cx="123.55" cy="36.59" r="3.7"/>
			</g>
			<g>
				<path class="st54" d="M150.67,66.28c4.1-0.73,8.02,2,8.76,6.11c0.73,4.1-2,8.02-6.11,8.76c-4.1,0.73-8.02-2-8.76-6.11
					C143.83,70.94,146.56,67.02,150.67,66.28z"/>
			</g>
			<g>
				
					<radialGradient id="SVGID_38_" cx="-1392.4733" cy="-1327.8534" r="3.3632" gradientTransform="matrix(-0.1755 -0.9845 -0.9845 0.1755 -1399.7355 -1064.0814)" gradientUnits="userSpaceOnUse">
					<stop  offset="0" style="stop-color:#FEFF7A"/>
					<stop  offset="0.998" style="stop-color:#FFAF31"/>
				</radialGradient>
				<path class="st58" d="M151.27,70.47c1.83-0.33,3.58,0.89,3.9,2.72c0.33,1.83-0.89,3.58-2.72,3.9c-1.83,0.33-3.58-0.89-3.9-2.72
					C148.22,72.55,149.44,70.8,151.27,70.47z"/>
			</g>
			<g>
				<ellipse class="st54" cx="119.25" cy="119.87" rx="8.71" ry="8.71"/>
			</g>
			<g>
				
					<radialGradient id="SVGID_39_" cx="-1432.1864" cy="-1287.4999" r="3.885" gradientTransform="matrix(-0.1755 -0.9845 -0.9845 0.1755 -1399.7355 -1064.0814)" gradientUnits="userSpaceOnUse">
					<stop  offset="0" style="stop-color:#FEFF7A"/>
					<stop  offset="0.998" style="stop-color:#FFAF31"/>
				</radialGradient>
				<path class="st59" d="M118.42,116.14c2.11-0.38,4.13,1.03,4.5,3.14c0.38,2.11-1.03,4.13-3.14,4.5c-2.11,0.38-4.13-1.03-4.5-3.14
					C114.9,118.53,116.3,116.51,118.42,116.14z"/>
			</g>
			<g>
				<path class="st54" d="M155.01,58.75c2.32-0.41,4.55,1.13,4.96,3.46c0.41,2.32-1.13,4.55-3.46,4.96
					c-2.32,0.41-4.55-1.13-4.96-3.46C151.13,61.39,152.68,59.17,155.01,58.75z"/>
			</g>
			<g>
				
					<radialGradient id="SVGID_40_" cx="-1382.5331" cy="-1333.5117" r="1.9065" gradientTransform="matrix(-0.1755 -0.9845 -0.9845 0.1755 -1399.7355 -1064.0814)" gradientUnits="userSpaceOnUse">
					<stop  offset="0" style="stop-color:#FEFF7A"/>
					<stop  offset="0.998" style="stop-color:#FFAF31"/>
				</radialGradient>
				<path class="st60" d="M155.35,61.13c1.04-0.18,2.03,0.51,2.21,1.54c0.18,1.04-0.51,2.03-1.54,2.21
					c-1.04,0.18-2.03-0.51-2.21-1.54C153.62,62.3,154.31,61.31,155.35,61.13z"/>
			</g>
			<g>
				<path class="st54" d="M95.7,117.1c2.47-0.44,4.83,1.2,5.27,3.67c0.44,2.47-1.2,4.83-3.67,5.27s-4.83-1.2-5.27-3.67
					C91.59,119.9,93.23,117.54,95.7,117.1z"/>
			</g>
			<g>
				
					<radialGradient id="SVGID_41_" cx="-1429.8344" cy="-1264.88" r="2.0241" gradientTransform="matrix(-0.1755 -0.9845 -0.9845 0.1755 -1399.7355 -1064.0814)" gradientUnits="userSpaceOnUse">
					<stop  offset="0" style="stop-color:#FEFF7A"/>
					<stop  offset="0.998" style="stop-color:#FFAF31"/>
				</radialGradient>
				<circle class="st61" cx="96.42" cy="121.62" r="2.02"/>
			</g>
			<g>
				<circle class="st54" cx="90.63" cy="107.92" r="5.6"/>
			</g>
			<g>
				
					<radialGradient id="SVGID_42_" cx="-1415.3788" cy="-1261.4813" r="1.557" gradientTransform="matrix(-0.1755 -0.9845 -0.9845 0.1755 -1399.7355 -1064.0814)" gradientUnits="userSpaceOnUse">
					<stop  offset="0" style="stop-color:#FEFF7A"/>
					<stop  offset="0.998" style="stop-color:#FFAF31"/>
				</radialGradient>
				<path class="st62" d="M90.26,106.45c0.85-0.15,1.65,0.41,1.8,1.26s-0.41,1.65-1.26,1.8s-1.65-0.41-1.8-1.26
					C88.85,107.41,89.41,106.6,90.26,106.45z"/>
			</g>
			<g>
				<ellipse class="st54" cx="86.61" cy="120.22" rx="5.6" ry="5.6"/>
			</g>
			<g>
				
					<radialGradient id="SVGID_43_" cx="-1426.7821" cy="-1255.3578" r="2.4004" gradientTransform="matrix(-0.1755 -0.9845 -0.9845 0.1755 -1399.7355 -1064.0814)" gradientUnits="userSpaceOnUse">
					<stop  offset="0" style="stop-color:#FEFF7A"/>
					<stop  offset="0.998" style="stop-color:#FFAF31"/>
				</radialGradient>
				<path class="st63" d="M86.09,117.92c1.3-0.23,2.55,0.64,2.78,1.94c0.23,1.3-0.64,2.55-1.94,2.78c-1.3,0.23-2.55-0.64-2.78-1.94
					C83.91,119.4,84.78,118.15,86.09,117.92z"/>
			</g>
			<g>
				<circle class="st54" cx="66.83" cy="110.08" r="5.6"/>
			</g>
			<g>
				
					<radialGradient id="SVGID_44_" cx="-1413.3186" cy="-1237.6732" r="2.3994" gradientTransform="matrix(-0.1755 -0.9845 -0.9845 0.1755 -1399.7355 -1064.0814)" gradientUnits="userSpaceOnUse">
					<stop  offset="0" style="stop-color:#FEFF7A"/>
					<stop  offset="0.998" style="stop-color:#FFAF31"/>
				</radialGradient>
				<path class="st64" d="M66.31,107.77c1.3-0.23,2.55,0.64,2.78,1.94c0.23,1.3-0.64,2.55-1.94,2.78c-1.3,0.23-2.55-0.64-2.78-1.94
					C64.14,109.25,65.01,108,66.31,107.77z"/>
			</g>
			<g>
				
					<ellipse transform="matrix(0.9845 -0.1755 0.1755 0.9845 -9.3795 25.4132)" class="st54" cx="138.99" cy="65.74" rx="6.18" ry="6.07"/>
			</g>
			<g>
				
					<radialGradient id="SVGID_45_" cx="-848.6887" cy="-664.2511" r="0.9359" gradientTransform="matrix(-0.3105 -1.7417 -1.7721 0.3159 -1301.6912 -1202.608)" gradientUnits="userSpaceOnUse">
					<stop  offset="0" style="stop-color:#FEFF7A"/>
					<stop  offset="0.998" style="stop-color:#FFAF31"/>
				</radialGradient>
				<path class="st65" d="M138.59,64.17c0.92-0.16,1.79,0.43,1.95,1.33s-0.45,1.76-1.37,1.93c-0.92,0.16-1.79-0.43-1.95-1.33
					S137.67,64.33,138.59,64.17z"/>
			</g>
		</g>
	</g>
</g>
</svg>
