<?xml version="1.0" encoding="iso-8859-1"?>
<!-- Generator: Adobe Illustrator 24.0.1, SVG Export Plug-In . SVG Version: 6.00 Build 0)  -->
<svg version="1.1" xmlns="http://www.w3.org/2000/svg" xmlns:xlink="http://www.w3.org/1999/xlink" x="0px" y="0px"
	 viewBox="0 0 100 100" style="enable-background:new 0 0 100 100;" xml:space="preserve">
<g id="Layer_4">
	<g>
		<g>
			<path style="fill:#995CF1;" d="M14.49,52.081c0,0,3.611-15.839,16.687-17.251c14.605,0.235,45.97,0.824,45.97,0.824
				s11.382,3.566,11.95,19.43c1.862-5.195,1.392-8.573,1.392-8.573s-3.294-12.298-14.235-14.504
				c-10.941-0.941-45.882-0.706-45.882-0.706S13.349,34.268,14.49,52.081z"/>
		</g>
		<path d="M71.536,29.801h-18.11v-1.39c0-2.3,1.88-4.18,4.18-4.18h16.72c1.54,0,2.93-0.63,3.94-1.63c1-1.01,1.63-2.4,1.63-3.94
			c0-3.07-2.5-5.57-5.57-5.57h-44.56c0,0-0.01,0-0.02,0c-1.53,0-2.78-1.25-2.78-2.79c0-1.53,1.24-2.78,2.77-2.78
			c0.01,0,0.01,0,0.01,0h23.69c0.77,0,1.39-0.62,1.39-1.39s-0.62-1.39-1.39-1.39h-23.67c-0.01,0-0.01-0.01-0.02-0.01
			c-3.07,0-5.57,2.5-5.57,5.57c0,3.06,2.48,5.55,5.53,5.57c0.02,0,0.03,0.01,0.04,0.01h44.58c0.77,0,1.47,0.31,1.97,0.82
			c0.51,0.5,0.82,1.2,0.82,1.96c0,1.54-1.25,2.79-2.79,2.79h-16.72c-3.84,0-6.96,3.12-6.96,6.96v1.39h-18.1
			c-11.52,0-20.89,9.37-20.89,20.89v6.96c0,11.52,9.37,20.89,20.89,20.89c6.56,0,12.75-3.11,16.69-8.36h5.6
			c3.94,5.25,10.13,8.36,16.7,8.36c11.52,0,20.89-9.37,20.89-20.89v-6.96C92.426,39.171,83.056,29.801,71.536,29.801z
			 M47.136,68.311c-3.41,4.66-8.82,7.45-14.59,7.45c-8.5,0-15.63-5.9-17.57-13.81c3.72,5.78,10.2,9.63,17.57,9.63
			c5.5,0,10.72-2.21,14.59-6V68.311z M54.156,67.401h-4.23v-4.18h4.23V67.401z M71.536,75.761c-5.77,0-11.19-2.79-14.6-7.45v-2.73
			c3.88,3.79,9.09,6,14.6,6c7.37,0,13.85-3.85,17.56-9.63C87.166,69.861,80.036,75.761,71.536,75.761z M71.536,68.791
			c-5.91,0-11.46-2.9-14.85-7.76c-0.03-0.05-0.08-0.09-0.12-0.14c-0.02-0.02-0.04-0.04-0.06-0.06c-0.12-0.11-0.24-0.2-0.38-0.26
			c-0.03-0.02-0.06-0.03-0.09-0.04c-0.16-0.05-0.32-0.09-0.49-0.09h-7.02c-0.17,0-0.33,0.04-0.48,0.09
			c-0.03,0.02-0.06,0.03-0.09,0.04c-0.14,0.06-0.27,0.15-0.38,0.26c-0.03,0.02-0.04,0.04-0.07,0.06c-0.04,0.05-0.08,0.09-0.12,0.14
			c-3.39,4.86-8.94,7.76-14.84,7.76c-9.99,0-18.11-8.12-18.11-18.1c0-9.98,8.12-18.1,18.11-18.1h38.99c9.98,0,18.1,8.12,18.1,18.1
			C89.636,60.671,81.516,68.791,71.536,68.791z"/>
		<g>
			<path style="fill:#995CF1;" d="M89.096,61.951c-1.93,7.91-9.06,13.81-17.56,13.81c-5.77,0-11.19-2.79-14.6-7.45v-2.73
				c3.88,3.79,9.09,6,14.6,6C78.906,71.581,85.386,67.731,89.096,61.951z"/>
		</g>
		<g>
			<path style="fill:#995CF1;" d="M47.136,65.581v2.73c-3.41,4.66-8.82,7.45-14.59,7.45c-8.5,0-15.63-5.9-17.57-13.81
				c3.72,5.78,10.2,9.63,17.57,9.63C38.046,71.581,43.266,69.371,47.136,65.581z"/>
		</g>
		<path d="M39.506,46.511h-2.79v-2.79c0-2.3-1.87-4.17-4.17-4.17c-2.31,0-4.18,1.87-4.18,4.17v2.79h-2.79
			c-2.3,0-4.18,1.88-4.18,4.18s1.88,4.18,4.18,4.18h2.79v2.78c0,2.31,1.87,4.18,4.18,4.18c2.3,0,4.17-1.87,4.17-4.18v-2.78h2.79
			c2.3,0,4.18-1.88,4.18-4.18S41.806,46.511,39.506,46.511z M39.506,52.081h-4.18c-0.77,0-1.39,0.62-1.39,1.39v4.18
			c0,0.77-0.63,1.4-1.39,1.4c-0.77,0-1.4-0.63-1.4-1.4v-4.18c0-0.77-0.62-1.39-1.39-1.39h-4.18c-0.77,0-1.39-0.62-1.39-1.39
			c0-0.77,0.62-1.39,1.39-1.39h4.18c0.77,0,1.39-0.63,1.39-1.4v-4.18c0-0.77,0.63-1.39,1.4-1.39c0.76,0,1.39,0.62,1.39,1.39v4.18
			c0,0.77,0.62,1.4,1.39,1.4h4.18c0.77,0,1.39,0.62,1.39,1.39C40.896,51.461,40.276,52.081,39.506,52.081z"/>
		<path style="fill:#995CF1;" d="M40.896,50.691c0,0.77-0.62,1.39-1.39,1.39h-4.18c-0.77,0-1.39,0.62-1.39,1.39v4.18
			c0,0.77-0.63,1.4-1.39,1.4c-0.77,0-1.4-0.63-1.4-1.4v-4.18c0-0.77-0.62-1.39-1.39-1.39h-4.18c-0.77,0-1.39-0.62-1.39-1.39
			c0-0.77,0.62-1.39,1.39-1.39h4.18c0.77,0,1.39-0.63,1.39-1.4v-4.18c0-0.77,0.63-1.39,1.4-1.39c0.76,0,1.39,0.62,1.39,1.39v4.18
			c0,0.77,0.62,1.4,1.39,1.4h4.18C40.276,49.301,40.896,49.921,40.896,50.691z"/>
		<path d="M64.606,46.511c-2.3,0-4.18,1.88-4.18,4.18s1.88,4.18,4.18,4.18s4.18-1.88,4.18-4.18S66.906,46.511,64.606,46.511z
			 M64.606,52.081c-0.77,0-1.39-0.62-1.39-1.39c0-0.77,0.62-1.39,1.39-1.39c0.77,0,1.39,0.62,1.39,1.39
			C65.996,51.461,65.376,52.081,64.606,52.081z"/>
		<path style="fill:#995CF1;" d="M65.996,50.691c0,0.77-0.62,1.39-1.39,1.39c-0.77,0-1.39-0.62-1.39-1.39
			c0-0.77,0.62-1.39,1.39-1.39C65.376,49.301,65.996,49.921,65.996,50.691z"/>
		<path d="M78.536,46.511c-2.3,0-4.18,1.88-4.18,4.18s1.88,4.18,4.18,4.18s4.18-1.88,4.18-4.18S80.836,46.511,78.536,46.511z
			 M78.536,52.081c-0.77,0-1.39-0.62-1.39-1.39c0-0.77,0.62-1.39,1.39-1.39s1.39,0.62,1.39,1.39
			C79.926,51.461,79.306,52.081,78.536,52.081z"/>
		<circle style="fill:#995CF1;" cx="78.536" cy="50.691" r="1.39"/>
		<path d="M71.576,39.551c-2.31,0-4.18,1.87-4.18,4.18c0,2.3,1.87,4.17,4.18,4.17c2.3,0,4.17-1.87,4.17-4.17
			C75.746,41.421,73.876,39.551,71.576,39.551z M71.576,45.121c-0.77,0-1.4-0.63-1.4-1.39c0-0.77,0.63-1.4,1.4-1.4
			c0.76,0,1.39,0.63,1.39,1.4C72.966,44.491,72.336,45.121,71.576,45.121z"/>
		<path style="fill:#995CF1;" d="M72.966,43.731c0,0.76-0.63,1.39-1.39,1.39c-0.77,0-1.4-0.63-1.4-1.39c0-0.77,0.63-1.4,1.4-1.4
			C72.336,42.331,72.966,42.961,72.966,43.731z"/>
		<path d="M71.576,53.481c-2.31,0-4.18,1.87-4.18,4.17c0,2.31,1.87,4.18,4.18,4.18c2.3,0,4.17-1.87,4.17-4.18
			C75.746,55.351,73.876,53.481,71.576,53.481z M71.576,59.051c-0.77,0-1.4-0.63-1.4-1.4s0.63-1.39,1.4-1.39
			c0.76,0,1.39,0.62,1.39,1.39S72.336,59.051,71.576,59.051z"/>
		<path style="fill:#995CF1;" d="M72.966,57.651c0,0.77-0.63,1.4-1.39,1.4c-0.77,0-1.4-0.63-1.4-1.4s0.63-1.39,1.4-1.39
			C72.336,56.261,72.966,56.881,72.966,57.651z"/>
		<path d="M32.531,93.858c0.77,0,1.393-0.622,1.393-1.393v-4.994l0.408,0.408c0.272,0.272,0.628,0.408,0.985,0.408
			c0.356,0,0.713-0.136,0.985-0.408c0.544-0.544,0.544-1.425,0-1.969l-2.784-2.784c-0.128-0.13-0.283-0.231-0.454-0.302
			c-0.34-0.142-0.724-0.142-1.064,0c-0.171,0.071-0.326,0.173-0.454,0.302l-2.784,2.784c-0.544,0.544-0.544,1.425,0,1.969
			c0.272,0.272,0.628,0.408,0.985,0.408c0.356,0,0.713-0.136,0.985-0.408l0.408-0.408v4.994
			C31.138,93.235,31.761,93.858,32.531,93.858z"/>
		<path d="M39.494,88.287c0,0.77,0.622,1.393,1.393,1.393h4.994l-0.408,0.408c-0.544,0.544-0.544,1.425,0,1.969
			c0.272,0.272,0.628,0.408,0.985,0.408c0.356,0,0.713-0.136,0.985-0.408l2.784-2.784c0.13-0.128,0.231-0.283,0.302-0.454
			c0.142-0.34,0.142-0.724,0-1.064c-0.071-0.171-0.173-0.326-0.302-0.454l-2.784-2.784c-0.544-0.544-1.425-0.544-1.969,0
			c-0.544,0.544-0.544,1.425,0,1.969l0.408,0.408h-4.994C40.116,86.895,39.494,87.517,39.494,88.287L39.494,88.287z"/>
		<path d="M57.622,82.717c-0.77,0-1.393,0.622-1.393,1.393v4.994l-0.408-0.408c-0.544-0.544-1.425-0.544-1.969,0
			c-0.544,0.544-0.544,1.425,0,1.969l2.784,2.784c0.128,0.13,0.283,0.231,0.454,0.302c0.17,0.071,0.351,0.107,0.532,0.107
			s0.362-0.036,0.532-0.107c0.171-0.071,0.326-0.173,0.454-0.302l2.784-2.784c0.544-0.544,0.544-1.425,0-1.969
			c-0.544-0.544-1.425-0.544-1.969,0l-0.408,0.408V84.11C59.014,83.34,58.392,82.717,57.622,82.717z"/>
		<path d="M69.744,84.518c-0.544-0.544-1.425-0.544-1.969,0l-2.784,2.784c-0.13,0.128-0.231,0.283-0.302,0.454
			c-0.142,0.34-0.142,0.724,0,1.064c0.071,0.171,0.173,0.326,0.302,0.454l2.784,2.784c0.272,0.272,0.628,0.408,0.985,0.408
			c0.356,0,0.713-0.136,0.985-0.408c0.544-0.544,0.544-1.425,0-1.969l-0.408-0.408h4.994c0.77,0,1.393-0.622,1.393-1.393
			s-0.622-1.393-1.393-1.393h-4.994l0.408-0.408C70.287,85.942,70.287,85.062,69.744,84.518z"/>
	</g>
</g>
<g id="Layer_1">
</g>
</svg>
