<?xml version="1.0" encoding="iso-8859-1"?>
<!-- Generator: Adobe Illustrator 24.0.1, SVG Export Plug-In . SVG Version: 6.00 Build 0)  -->
<svg version="1.1" xmlns="http://www.w3.org/2000/svg" xmlns:xlink="http://www.w3.org/1999/xlink" x="0px" y="0px"
	 viewBox="0 0 100 100" style="enable-background:new 0 0 100 100;" xml:space="preserve">
<g id="Layer_3">
	<g>
		<g>
			<path d="M91.187,46.965l-4.134-4.124V28.487c0-4.124-3.355-7.48-7.489-7.48H62.268c-1.038-1.788-2.942-2.999-5.153-2.999h-2.99
				v-7.124l1.923-3.865l-6.412-4.278l-6.422,4.278l1.932,3.865v7.124h-3c-2.202,0-4.115,1.211-5.153,2.999H19.698
				c-4.124,0-7.48,3.355-7.48,7.48V42.84l-4.134,4.124c-3.134,3.134-4.855,7.287-4.855,11.71c0,0.904,0.077,1.817,0.231,2.721
				l2.327,13.969c0.327,1.942,0.856,3.846,1.586,5.672l1.846,4.615v10.191h23.948V85.775l2.538-4.23
				c1.231-2.048,2.144-4.259,2.73-6.576c0.25-1.009,0.433-2.038,0.548-3.076h21.295c0.115,1.038,0.298,2.057,0.548,3.067
				c0.586,2.327,1.5,4.538,2.73,6.585l2.538,4.23v10.066h23.948V85.651l1.846-4.615c0.731-1.827,1.269-3.73,1.586-5.672
				l2.336-13.969c0.144-0.904,0.221-1.817,0.221-2.721C96.032,54.252,94.311,50.099,91.187,46.965z M75.074,23.997h4.49
				c2.48,0,4.49,2.019,4.49,4.49v38.148c0,1.25-1.009,2.269-2.269,2.269c-0.288,0-0.567-0.058-0.836-0.163
				c-2.221-0.884-4.201-2.211-5.874-3.865V23.997z M49.636,6.337l2.557,1.711l-0.49,0.981h-4.134l-0.5-0.981L49.636,6.337z
				 M51.126,12.028v5.98h-2.99v-5.98H51.126z M42.147,21.007h14.969c1.654,0,2.99,1.336,2.99,2.99H39.157
				C39.157,22.344,40.503,21.007,42.147,21.007z M47.261,26.987h4.749l-2.375,2.375L47.261,26.987z M48.136,32.102v3.874h-2.99
				v-6.864L48.136,32.102z M51.126,32.102l3-2.99v6.864h-3V32.102z M15.209,28.487c0-2.471,2.009-4.49,4.49-4.49h4.49v40.878
				c-1.673,1.654-3.653,2.98-5.864,3.865c-0.279,0.106-0.558,0.163-0.846,0.163c-1.25,0-2.269-1.019-2.269-2.269V28.487z
				 M30.177,92.851H12.219v-5.989h17.959V92.851z M36.167,69.096c0,1.74-0.221,3.461-0.635,5.143
				c-0.51,2.038-1.317,3.971-2.394,5.768l-2.317,3.865H11.729l-1.577-3.951c-0.644-1.615-1.125-3.317-1.413-5.047L6.412,60.905
				c-0.125-0.74-0.183-1.49-0.183-2.23c0-3.624,1.404-7.028,3.971-9.585l2.019-2.019v19.564c0,2.903,2.355,5.259,5.259,5.259
				c0.673,0,1.327-0.125,1.952-0.375c4.74-1.894,8.595-5.451,10.873-10.008l1.682-3.365c0.375-0.75,1.134-1.221,1.971-1.221
				c1.221,0,2.211,0.99,2.211,2.202V69.096z M33.985,53.935c1.038-1.798,2.951-3,5.172-3c3.298,0,5.989,2.692,5.989,5.989
				c0,3.307-2.692,5.989-5.989,5.989v-3.788C39.157,56.271,36.84,53.954,33.985,53.935z M60.105,68.903H39.157v-2.999
				c4.951,0,8.979-4.028,8.979-8.979s-4.028-8.979-8.979-8.979c-4.432,0-8.085,3.173-8.816,7.46
				c-0.404,0.404-0.76,0.865-1.029,1.404l-1.682,3.365c-0.144,0.269-0.298,0.529-0.452,0.798V23.997h8.989v2.99h5.98v8.989h-5.98
				v2.99h26.938v-2.99h-5.989v-8.989h5.989v-2.99h8.979v36.975c-0.154-0.269-0.308-0.529-0.442-0.798l-1.682-3.374
				c-0.269-0.529-0.625-0.99-1.038-1.394c-0.731-4.288-4.384-7.46-8.816-7.46c-4.951,0-8.979,4.028-8.979,8.979
				s4.028,8.979,8.979,8.979V68.903z M60.105,59.126v3.788c-3.298,0-5.98-2.682-5.98-5.989c0-3.298,2.682-5.989,5.98-5.989
				c2.221,0,4.144,1.202,5.182,3C62.432,53.954,60.105,56.271,60.105,59.126z M87.053,92.851H69.094v-5.989h17.959V92.851z
				 M92.85,60.905l-2.327,13.969c-0.288,1.731-0.759,3.432-1.413,5.057l-1.577,3.942H68.44l-2.317-3.865
				c-1.077-1.798-1.884-3.73-2.384-5.768c-0.423-1.682-0.635-3.403-0.635-5.143v-9.97c0-1.211,0.99-2.202,2.202-2.202
				c0.836,0,1.596,0.471,1.971,1.221l1.682,3.365c2.278,4.557,6.143,8.114,10.873,10.008c0.634,0.25,1.288,0.375,1.952,0.375
				c2.903,0,5.268-2.355,5.268-5.259V47.07l2.009,2.009c2.567,2.567,3.98,5.97,3.98,9.595C93.042,59.414,92.975,60.164,92.85,60.905
				z"/>
			<path style="fill:#995CF1;" d="M65.287,53.935c-2.855,0.019-5.182,2.336-5.182,5.191v3.788c-3.298,0-5.98-2.682-5.98-5.989
				c0-3.298,2.682-5.989,5.98-5.989C62.326,50.935,64.249,52.137,65.287,53.935z"/>
			<path style="fill:#995CF1;" d="M45.146,56.924c0,3.307-2.692,5.989-5.989,5.989v-3.788c0-2.855-2.317-5.172-5.172-5.191
				c1.038-1.798,2.951-3,5.172-3C42.454,50.935,45.146,53.627,45.146,56.924z"/>
			<path d="M60.105,23.997H39.157c0-1.654,1.346-2.99,2.99-2.99h14.969C58.769,21.007,60.105,22.344,60.105,23.997z"/>
			<path style="fill:#995CF1;" d="M19.698,23.997c-2.48,0-4.49,2.019-4.49,4.49v38.148c0,1.25,1.019,2.269,2.269,2.269
				c0.288,0,0.567-0.058,0.846-0.163c2.211-0.884,4.192-2.211,5.864-3.865V23.997H19.698z M21.198,53.935h-3V38.966h3V53.935z"/>
			<path style="fill:#995CF1;" d="M79.563,23.997h-4.49v40.878c1.673,1.654,3.653,2.98,5.874,3.865
				c0.269,0.106,0.548,0.163,0.836,0.163c1.259,0,2.269-1.019,2.269-2.269V28.487C84.053,26.016,82.044,23.997,79.563,23.997z
				 M79.563,65.904c-0.827,0-1.49-0.663-1.49-1.49c0-0.827,0.663-1.5,1.49-1.5c0.827,0,1.5,0.673,1.5,1.5
				C81.063,65.24,80.39,65.904,79.563,65.904z M79.563,59.924c-0.827,0-1.49-0.673-1.49-1.5s0.663-1.5,1.49-1.5
				c0.827,0,1.5,0.673,1.5,1.5S80.39,59.924,79.563,59.924z M81.063,50.935h-2.99v-8.979h2.99V50.935z"/>
			<rect x="69.094" y="86.862" style="fill:#995CF1;" width="17.959" height="5.989"/>
			<rect x="12.219" y="86.862" style="fill:#995CF1;" width="17.959" height="5.989"/>
			<rect x="18.199" y="38.966" width="2.999" height="14.969"/>
			<path d="M81.063,64.414c0,0.827-0.673,1.49-1.5,1.49c-0.827,0-1.49-0.663-1.49-1.49c0-0.827,0.663-1.5,1.49-1.5
				C80.39,62.914,81.063,63.587,81.063,64.414z"/>
			<path d="M81.063,58.424c0,0.827-0.673,1.5-1.5,1.5c-0.827,0-1.49-0.673-1.49-1.5s0.663-1.5,1.49-1.5
				C80.39,56.924,81.063,57.597,81.063,58.424z"/>
			<rect x="78.073" y="41.956" width="2.99" height="8.979"/>
			<circle cx="31.672" cy="43.456" r="1.497"/>
			<circle cx="37.659" cy="43.456" r="1.497"/>
			<circle cx="61.607" cy="43.456" r="1.497"/>
			<circle cx="67.594" cy="43.456" r="1.497"/>
		</g>
	</g>
</g>
<g id="Layer_1">
</g>
</svg>
