<?xml version="1.0" encoding="iso-8859-1"?>
<!-- Generator: Adobe Illustrator 24.0.1, SVG Export Plug-In . SVG Version: 6.00 Build 0)  -->
<svg version="1.1" xmlns="http://www.w3.org/2000/svg" xmlns:xlink="http://www.w3.org/1999/xlink" x="0px" y="0px"
	 viewBox="0 0 100 100" style="enable-background:new 0 0 100 100;" xml:space="preserve">
<g id="Layer_2">
	<g>
		<g>
			<path d="M89.032,65.656H63.275L57.88,38.673h1.173c2.481,0,4.493-2.021,4.493-4.502s-2.012-4.493-4.493-4.493h-4.502v-5.296
				c0-0.983,0.523-1.931,1.398-2.526c3.5-2.382,5.223-6.622,4.384-10.817c-0.794-4.015-4.024-7.28-8.029-8.119
				c-3.176-0.659-6.396,0.108-8.859,2.111c-2.472,2.012-3.888,4.98-3.888,8.156c0,3.509,1.75,6.775,4.682,8.724
				c0.83,0.55,1.317,1.471,1.317,2.472v5.296h-4.493c-2.481,0-4.502,2.012-4.502,4.493s2.021,4.502,4.502,4.502h1.164l-5.395,26.984
				H11.076c-4.132,0-7.497,3.356-7.497,7.497v14.985c0,4.132,3.365,7.497,7.497,7.497h77.956c4.132,0,7.497-3.365,7.497-7.497
				V73.153C96.528,69.012,93.163,65.656,89.032,65.656z M60.217,65.656h-8.661V46.621l3.735-5.602L60.217,65.656z M50.058,43.463
				l-3.203-4.79h6.396L50.058,43.463z M42.561,13.187c0-2.273,1.01-4.394,2.77-5.828c1.759-1.425,4.078-1.976,6.36-1.498
				c2.842,0.595,5.133,2.914,5.702,5.765c0.613,3.058-0.586,6.026-3.121,7.75c-1.705,1.155-2.715,3.031-2.715,5.007v5.296h-3.004
				v-5.296c0-2.003-0.983-3.861-2.643-4.962C43.806,18.022,42.561,15.695,42.561,13.187z M41.064,35.669
				c-0.83,0-1.507-0.668-1.507-1.498c0-0.821,0.677-1.498,1.507-1.498h17.989c0.821,0,1.498,0.677,1.498,1.498
				c0,0.83-0.677,1.498-1.498,1.498H41.064z M44.817,41.009l3.735,5.611v19.036h-8.661L44.817,41.009z M93.533,88.138
				c0,2.481-2.021,4.502-4.502,4.502H11.076c-2.481,0-4.493-2.021-4.493-4.502V73.153c0-2.481,2.012-4.502,4.493-4.502h77.956
				c2.481,0,4.502,2.021,4.502,4.502V88.138z"/>
			<path style="fill:#995CF1;" d="M89.032,68.652H11.076c-2.481,0-4.493,2.021-4.493,4.502v14.985c0,2.481,2.012,4.502,4.493,4.502
				h77.956c2.481,0,4.502-2.021,4.502-4.502V73.153C93.533,70.672,91.512,68.652,89.032,68.652z M32.069,85.143
				c0,2.481-2.021,4.502-4.502,4.502h-5.999c-2.472,0-4.493-2.021-4.493-4.502v-8.995c0-2.481,2.021-4.502,4.493-4.502h5.999
				c2.481,0,4.502,2.021,4.502,4.502V85.143z M50.058,74.894l-4.105,12.296c-0.487,1.471-1.849,2.454-3.392,2.454
				c-1.543,0-2.905-0.983-3.401-2.445l-4.096-12.305v-3.248h2.995v2.761l3.951,11.836c0.153,0.478,0.938,0.478,1.101,0l3.942-11.836
				v-2.761h3.004V74.894z M66.55,74.651h-7.497c-0.83,0-1.498,0.668-1.498,1.498v2.995h8.995v3.004h-8.995v2.995
				c0,0.83,0.668,1.498,1.498,1.498h7.497v3.004h-7.497c-2.481,0-4.502-2.021-4.502-4.502v-8.995c0-2.481,2.021-4.502,4.502-4.502
				h7.497V74.651z M83.032,86.641v3.004h-2.995v-3.004c0-1.651-1.344-2.995-2.995-2.995H72.54v5.999h-2.995V71.647h7.497
				c3.302,0,5.99,2.697,5.99,5.999c0,1.804-0.812,3.401-2.066,4.502C82.22,83.248,83.032,84.845,83.032,86.641z"/>
			<path style="fill:#995CF1;" d="M57.393,11.626c-0.568-2.851-2.86-5.169-5.702-5.765c-2.282-0.478-4.601,0.072-6.36,1.498
				c-1.759,1.434-2.77,3.555-2.77,5.828c0,2.508,1.245,4.836,3.347,6.234c1.66,1.101,2.643,2.959,2.643,4.962v5.296h3.004v-5.296
				c0-1.976,1.01-3.852,2.715-5.007C56.806,17.652,58.006,14.684,57.393,11.626z M50.058,17.679c-2.481,0-4.502-2.012-4.502-4.493
				s2.021-4.502,4.502-4.502s4.493,2.021,4.493,4.502S52.539,17.679,50.058,17.679z"/>
			<path d="M27.567,71.647h-5.999c-2.472,0-4.493,2.021-4.493,4.502v8.995c0,2.481,2.021,4.502,4.493,4.502h5.999
				c2.481,0,4.502-2.021,4.502-4.502v-8.995C32.069,73.668,30.048,71.647,27.567,71.647z M29.065,85.143
				c0,0.83-0.668,1.498-1.498,1.498h-5.999c-0.821,0-1.498-0.668-1.498-1.498v-8.995c0-0.83,0.677-1.498,1.498-1.498h5.999
				c0.83,0,1.498,0.668,1.498,1.498V85.143z"/>
			<path style="fill:#995CF1;" d="M29.065,76.148v8.995c0,0.83-0.668,1.498-1.498,1.498h-5.999c-0.821,0-1.498-0.668-1.498-1.498
				v-8.995c0-0.83,0.677-1.498,1.498-1.498h5.999C28.397,74.651,29.065,75.319,29.065,76.148z"/>
			<path d="M50.058,71.647v3.248l-4.105,12.296c-0.487,1.471-1.849,2.454-3.392,2.454c-1.543,0-2.905-0.983-3.401-2.445
				l-4.096-12.305v-3.248h2.995v2.761l3.951,11.836c0.153,0.478,0.938,0.478,1.101,0l3.942-11.836v-2.761H50.058z"/>
			<path d="M57.555,76.148v2.995h8.995v3.004h-8.995v2.995c0,0.83,0.668,1.498,1.498,1.498h7.497v3.004h-7.497
				c-2.481,0-4.502-2.021-4.502-4.502v-8.995c0-2.481,2.021-4.502,4.502-4.502h7.497v3.004h-7.497
				C58.223,74.651,57.555,75.319,57.555,76.148z"/>
			<path d="M80.966,82.148c1.254-1.101,2.066-2.697,2.066-4.502c0-3.302-2.688-5.999-5.99-5.999h-7.497v17.998h2.995v-5.999h4.502
				c1.651,0,2.995,1.344,2.995,2.995v3.004h2.995v-3.004C83.032,84.845,82.22,83.248,80.966,82.148z M77.042,80.641H72.54v-5.99
				h4.502c1.651,0,2.995,1.344,2.995,2.995C80.037,79.297,78.693,80.641,77.042,80.641z"/>
			<path style="fill:#995CF1;" d="M80.037,77.646c0,1.651-1.344,2.995-2.995,2.995H72.54v-5.99h4.502
				C78.693,74.651,80.037,75.995,80.037,77.646z"/>
			<path d="M50.058,8.685c-2.481,0-4.502,2.021-4.502,4.502s2.021,4.493,4.502,4.493s4.493-2.012,4.493-4.493
				S52.539,8.685,50.058,8.685z M50.058,14.684c-0.83,0-1.507-0.677-1.507-1.498c0-0.83,0.677-1.498,1.507-1.498
				c0.821,0,1.498,0.668,1.498,1.498C51.556,14.008,50.879,14.684,50.058,14.684z"/>
			<path d="M69.544,56.659h14.991c0.828,0,1.499,0.673,1.499,1.499s-0.672,1.499-1.499,1.499H69.544v2.998h14.991
				c2.48,0,4.497-2.018,4.497-4.497s-2.018-4.497-4.497-4.497H69.544c-0.828,0-1.499-0.673-1.499-1.499s0.672-1.499,1.499-1.499
				h16.491c2.48,0,4.497-2.018,4.497-4.497c0-2.48-2.018-4.497-4.497-4.497H75.541c-0.828,0-1.499-0.673-1.499-1.499
				s0.672-1.499,1.499-1.499h16.491c2.48,0,4.497-2.018,4.497-4.497s-2.018-4.497-4.497-4.497H66.546v2.998h25.485
				c0.828,0,1.499,0.673,1.499,1.499c0,0.826-0.672,1.499-1.499,1.499H75.541c-2.48,0-4.497,2.018-4.497,4.497
				s2.018,4.497,4.497,4.497h10.494c0.828,0,1.499,0.673,1.499,1.499c0,0.826-0.672,1.499-1.499,1.499H69.544
				c-2.48,0-4.497,2.018-4.497,4.497S67.064,56.659,69.544,56.659z"/>
			<path d="M8.079,38.67H24.57c0.828,0,1.499,0.673,1.499,1.499s-0.672,1.499-1.499,1.499H14.076c-2.48,0-4.497,2.018-4.497,4.497
				c0,2.48,2.018,4.497,4.497,4.497h16.491c0.828,0,1.499,0.673,1.499,1.499s-0.672,1.499-1.499,1.499H15.575
				c-2.48,0-4.497,2.018-4.497,4.497s2.018,4.497,4.497,4.497h14.991v-2.998H15.575c-0.828,0-1.499-0.673-1.499-1.499
				s0.672-1.499,1.499-1.499h14.991c2.48,0,4.497-2.018,4.497-4.497s-2.018-4.497-4.497-4.497H14.076
				c-0.828,0-1.499-0.673-1.499-1.499c0-0.826,0.672-1.499,1.499-1.499H24.57c2.48,0,4.497-2.018,4.497-4.497
				s-2.018-4.497-4.497-4.497H8.079c-0.828,0-1.499-0.673-1.499-1.499c0-0.826,0.672-1.499,1.499-1.499h25.485v-2.998H8.079
				c-2.48,0-4.497,2.018-4.497,4.497S5.6,38.67,8.079,38.67z"/>
		</g>
	</g>
</g>
<g id="Layer_1">
</g>
</svg>
