<?xml version="1.0" encoding="utf-8"?>
<!-- Generator: Adobe Illustrator 21.0.0, SVG Export Plug-In . SVG Version: 6.00 Build 0)  -->
<svg version="1.1" id="Layer_1" xmlns="http://www.w3.org/2000/svg" xmlns:xlink="http://www.w3.org/1999/xlink" x="0px" y="0px"
	 viewBox="0 0 125 125" style="enable-background:new 0 0 125 125;" xml:space="preserve">
<style type="text/css">
	.st0{fill:#36484E;}
	.st1{fill:#4C5B60;}
	.st2{fill:#172C32;}
	.st3{fill:#1B333A;}
	.st4{fill:#D3CFCF;}
	.st5{fill:#A2BDCA;}
	.st6{fill:#7691AC;}
</style>
<path id="logo_1_" class="st0" d="M93.2,17.1l10,37.3l0,0L97.6,64l5.7,9.6l-10,37.3l-37.3-10l-5.6-9.7l-11.3,0.1l0,0L11.8,64
	l27.4-27.2l11.3,0.1l5.6-9.7L93.2,17.1z M30.6,59.4h32.8l16.4-28.3l-28.6,7.3L30.6,59.4z M79.8,96.9L63.4,68.6H30.6l20.7,21
	L79.8,96.9z M95.7,64l-7.9-28.3L71.4,64l16.4,28.3L95.7,64z"/>
<g>
	<path class="st1" d="M14.4,64.3c0-0.7,0-1.4,0-2.1c0.9-0.5,1.6-1.2,2.3-1.9c7-7.1,13.9-14,21-21c0.4-0.4,1-0.7,1.7-0.7
		c3.6,0,7.1,0,10.7,0c0.5,0,0.9-0.2,1.3-0.6c1.7-3.1,3.4-6,5.1-9c0.5-0.9,1.1-1.5,2.2-1.8c4.7-1.2,9.3-2.4,13.9-3.7
		c1.6-0.4,3.2-1.1,4.9-1.2c4.4-0.2,8.8,0,13.1,0c-0.4,1.2-1.2,2.2-1.7,3.2c-2,3.6-4,7.1-6,10.6c-2,3.5-4,6.9-6,10.4
		c-2.4,4.5-5.1,8.9-7.6,13.4c-0.7,1.4-1.7,2.7-2.2,4.2c-17.4,0-34.6,0-52,0C14.7,64.3,14.6,64.3,14.4,64.3z M78.2,32.8
		c-0.5,0.1-0.8,0.2-1.1,0.2c-7.8,2.1-15.7,4.2-23.6,6.3c-0.9,0.3-1.6,0.6-2.2,1.3c-5.8,5.8-11.6,11.7-17.5,17.5
		c-0.2,0.2-0.4,0.4-0.4,0.7c0.1,0,0.3,0,0.4,0c9.6,0,19.2,0,28.8,0c0.6,0,0.8-0.4,1.1-0.7c4-6.8,7.8-13.6,11.8-20.4
		C76.3,36.1,77.2,34.6,78.2,32.8z"/>
	<path class="st0" d="M66.8,64.3c0.5-1.5,1.4-2.8,2.2-4.2c2.4-4.5,5.2-8.9,7.6-13.4c1.9-3.5,4-7,6-10.4c2.1-3.5,4-7.1,6-10.6
		c0.6-1.1,1.3-2.1,1.7-3.2c0.1,0,0.1,0,0.2,0c1.4,0,2.9,0,4.3,0.1c0,0.1,0,0.3,0.1,0.4c-0.2,0.4-0.1,0.7,0.3,1c0,0.1,0,0.3,0.1,0.4
		c-0.3,0.3-0.1,0.4,0.1,0.4c0,0.1,0.1,0.3,0.1,0.4c-0.1,0.6,0,1.3,0.4,1.8c0,0.1,0.1,0.3,0.1,0.4c-0.3,0.2-0.1,0.4,0.1,0.4
		c0,0.1,0.1,0.3,0.1,0.4c-0.2,0.4,0,0.7,0.3,1c0,0.1,0.1,0.3,0.1,0.4c-0.3,0.2-0.1,0.3,0.1,0.4c0.2,0.5,0.3,1.1,0.4,1.6
		c-0.1,0.2-0.1,0.4,0.2,0.5c0,0.1,0.1,0.3,0.1,0.4c-0.3,0.2-0.1,0.3,0.1,0.4c0,0.1,0.1,0.3,0.1,0.4c-0.3,0.2-0.1,0.4,0.1,0.4
		c0,0.1,0.1,0.3,0.1,0.4c-0.3,0.2-0.1,0.4,0.1,0.4c0,0.1,0.1,0.3,0.1,0.4c-0.3,0.2-0.2,0.4,0.1,0.4c0.1,0.3,0.2,0.5,0.2,0.8
		c-0.2,0.3-0.2,0.4,0.2,0.5c0,0.1,0.1,0.3,0.1,0.4c-0.3,0.2-0.1,0.4,0.1,0.4c0,0.1,0.1,0.3,0.1,0.4c-0.3,0.3-0.1,0.4,0.1,0.4
		c0.1,0.4,0.2,0.6,0.3,1c-0.3,0.2-0.1,0.4,0.1,0.4c0,0.1,0.1,0.3,0.1,0.4c-0.3,0.3-0.1,0.4,0.2,0.4c0,0.1,0,0.3,0.1,0.4
		c-0.2,0.4-0.1,0.7,0.3,1c0,0.1,0,0.3,0.1,0.4c-0.3,0.3-0.1,0.4,0.2,0.4c0,0.1,0,0.3,0.1,0.4c-0.3,0.3-0.1,0.4,0.2,0.4
		c0,0.2,0.1,0.4,0.1,0.5c-0.6,0.2-0.5,0.5-0.3,1c0,4,0,8.1,0,12.1c-0.6,0.4-0.5,1.1-0.9,1.6c-0.9,1.3-1.7,2.8-2.5,4.2
		c-0.4,0.7-0.5,1.5,0.1,2.2c0.2,0.1,0.3,0.4,0.3,0.5c-0.4,0.3-0.3,0.6-0.1,0.9c0.5,0.9,1,1.8,1.6,2.6c0.9,1.3,1.4,2.8,1.3,4.5
		c-0.2,2-0.1,4,0,6c0.1,2.8-0.2,5.5-1,8.3c-1.7,5.9-3.2,12-4.9,17.9c-0.2,0.7-0.6,1-1.3,1c-0.8,0-1.7,0-2.5,0
		c-0.6-1.2-1.3-2.3-2-3.5c-2.2-3.8-4.3-7.6-6.5-11.3c-2.1-3.7-4.2-7.4-6.4-11.1c-2.2-3.9-4.5-7.7-6.7-11.7
		C68.2,67.1,67.3,65.7,66.8,64.3z M87.5,90c0.4-0.4,0.4-0.7,0.4-1c2.2-8.1,4.3-16.2,6.5-24.2c0.1-0.4,0.1-0.8,0-1.3
		c-2.1-7.6-4-15.3-6.1-22.9c-0.2-0.7-0.3-1.5-0.7-2.3c-0.2,0.3-0.3,0.4-0.4,0.5C82.4,47,77.7,55.3,73,63.5c-0.3,0.5-0.3,0.9,0,1.3
		c3.6,6.2,7.1,12.4,10.7,18.6C84.9,85.6,86.1,87.8,87.5,90z"/>
	<path class="st2" d="M14.4,64.3c0.1,0,0.3,0,0.4,0c-0.1,0.6,0.1,1.3,0.2,2c-0.2-0.1-0.4-0.1-0.5-0.2C14.4,65.4,14.4,64.8,14.4,64.3
		z"/>
	<path class="st3" d="M15,66.2c-0.2-0.6-0.3-1.3-0.3-1.9c17.4,0,34.6,0,52,0c0.5,1.5,1.4,2.8,2.2,4.2c2.2,3.9,4.4,7.7,6.7,11.7
		c2.2,3.7,4.2,7.4,6.4,11.1c2.2,3.8,4.3,7.6,6.5,11.3c0.6,1.2,1.3,2.3,2,3.5c0,0.1,0,0.1,0,0.2c-3.4,0-6.8,0-10.3,0
		c-0.4,0-0.8,0-1.3-0.2c-4.2-1.2-8.5-2.2-12.8-3.4c-3.1-0.9-6.3-1.3-9.2-2.8l0,0c-0.2-0.9-0.5-1.7-1.3-2.3c0-0.1,0-0.1,0-0.2
		c-0.3-1.1-1-2-1.5-3c-0.4-0.6-0.5-1.4-1.3-1.9c0-0.1,0-0.1,0-0.2c-0.8-2.4-1.4-2.9-4-2.9c-3,0-5.9,0-8.9,0c-0.9,0-1.5-0.3-2.2-0.9
		c-7.2-7.3-14.5-14.5-21.7-21.7C15.7,66.6,15.5,66.2,15,66.2L15,66.2z M33.1,69.7c0.4,0.4,0.6,0.6,0.8,0.9c1.4,1.3,2.9,2.8,4.2,4.1
		c4.5,4.4,9,8.9,13.4,13.4c0.4,0.4,0.7,0.6,1.2,0.8c8.1,2.2,16.2,4.3,24.2,6.5c0.3,0.1,0.6,0.3,0.8,0c0.2-0.3-0.1-0.5-0.3-0.7
		c-4.6-8-9.3-16-13.9-24.1c-0.4-0.6-0.8-0.8-1.5-0.8c-9.3,0-18.6,0-27.9,0C34,69.7,33.7,69.7,33.1,69.7z"/>
	<path class="st4" d="M78.2,32.8c-1,1.8-1.9,3.3-2.8,4.9c-4,6.8-7.8,13.6-11.8,20.4c-0.3,0.4-0.4,0.7-1.1,0.7c-9.6,0-19.2,0-28.8,0
		c-0.1,0-0.3,0-0.4,0c0-0.4,0.3-0.5,0.4-0.7c5.8-5.8,11.6-11.6,17.5-17.5c0.6-0.6,1.3-1.1,2.2-1.3c7.8-2.1,15.7-4.2,23.6-6.3
		C77.4,33,77.7,32.9,78.2,32.8z"/>
	<path class="st5" d="M87.5,90c-1.3-2.2-2.5-4.4-3.8-6.6C80.1,77.2,76.6,71,73,64.8c-0.3-0.5-0.4-0.9,0-1.3
		c4.8-8.2,9.5-16.5,14.2-24.7c0.1-0.2,0.2-0.3,0.4-0.5c0.4,0.8,0.5,1.5,0.7,2.3c2.1,7.6,4,15.3,6.1,22.9c0.1,0.4,0.1,0.8,0,1.3
		C92.2,72.9,90.1,81,87.9,89C87.8,89.3,87.8,89.6,87.5,90z"/>
	<path class="st2" d="M52.7,92.5c0.7,0.4,1,1.2,1.3,1.9c0.5,1,1.3,1.8,1.5,3c-0.7-0.4-1-1.2-1.3-1.9C53.7,94.5,53,93.6,52.7,92.5z"
		/>
	<path class="st2" d="M55.6,97.6c0.8,0.5,1.2,1.3,1.3,2.3C56.3,99.2,55.9,98.5,55.6,97.6z"/>
	<path class="st6" d="M33.1,69.7c0.6,0,0.9,0,1.3,0c9.3,0,18.6,0,27.9,0c0.7,0,1.2,0.2,1.5,0.8c4.6,8,9.3,16.1,13.9,24.1
		c0.2,0.3,0.4,0.5,0.3,0.7c-0.2,0.3-0.5,0-0.8,0C69,93.2,60.9,91,52.9,88.8c-0.5-0.1-0.8-0.4-1.2-0.8c-4.5-4.5-8.9-8.9-13.4-13.4
		c-1.4-1.4-2.9-2.8-4.2-4.1C33.7,70.3,33.6,70.1,33.1,69.7z"/>
</g>
</svg>
