<?xml version="1.0" encoding="utf-8"?>
<!-- Generator: Adobe Illustrator 21.0.0, SVG Export Plug-In . SVG Version: 6.00 Build 0)  -->
<svg version="1.1" id="Layer_1" xmlns="http://www.w3.org/2000/svg" xmlns:xlink="http://www.w3.org/1999/xlink" x="0px" y="0px"
	 viewBox="0 0 125 125" style="enable-background:new 0 0 125 125;" xml:space="preserve">
<style type="text/css">
	.st0{clip-path:url(#SVGID_2_);fill:#7CB342;}
	.st1{clip-path:url(#SVGID_4_);fill:#8BC34A;}
	.st2{opacity:0.2;clip-path:url(#SVGID_6_);fill:#FFFFFF;enable-background:new    ;}
	.st3{opacity:0.2;clip-path:url(#SVGID_8_);fill:#263238;enable-background:new    ;}
	.st4{clip-path:url(#SVGID_10_);}
	.st5{fill:#263238;fill-opacity:5.000000e-02;}
	.st6{fill:#FFFFFF;fill-opacity:5.000000e-02;}
	.st7{clip-path:url(#SVGID_12_);}
	.st8{fill:url(#SVGID_13_);}
	.st9{fill:url(#SVGID_14_);}
	.st10{clip-path:url(#SVGID_16_);}
	.st11{fill:#646464;}
	.st12{clip-path:url(#SVGID_18_);}
	.st13{fill:#E1E1E1;}
	.st14{fill:#FFFFFF;fill-opacity:0.4;}
	.st15{fill:#262626;fill-opacity:0.2;}
	.st16{fill:#F1F1F1;}
	.st17{fill:none;}
	.st18{opacity:0.2;fill:#FFFFFF;enable-background:new    ;}
	.st19{fill:#FFFFFF;fill-opacity:0.2;}
	.st20{opacity:0.2;fill:#262626;enable-background:new    ;}
	.st21{fill:url(#SVGID_19_);fill-opacity:0.1;}
</style>
<g>
	<g>
		<g>
			<g>
				<g>
					<defs>
						<path id="SVGID_1_" d="M95.9,100.5L95.9,100.5l-6.2-10.7c9-7.6,14.7-19,14.7-31.7c0-22.9-18.6-41.5-41.5-41.5
							S21.5,35.3,21.5,58.2c0,12.7,5.7,24.1,14.7,31.7l-6.2,10.7c-0.2,0.3-0.3,0.7-0.3,1.1l-0.5,7c0,0.3,0.1,0.5,0.3,0.6l0,0l0,0
							c0.2,0.2,0.5,0.1,0.7,0l5.8-3.9c0.3-0.2,0.6-0.5,0.8-0.8l0,0l5.8-10.1c6,3.4,12.9,5.3,20.3,5.3s14.3-2,20.4-5.4l5.8,10.1
							c0.2,0.3,0.5,0.6,0.8,0.8l5.8,4c0.2,0.2,0.5,0.2,0.7,0l0,0l0,0c0.2-0.2,0.3-0.4,0.3-0.6l-0.5-7
							C96.2,101.2,96.1,100.9,95.9,100.5z"/>
					</defs>
					<clipPath id="SVGID_2_">
						<use xlink:href="#SVGID_1_"  style="overflow:visible;"/>
					</clipPath>
					<path class="st0" d="M63,16.7c-22.9,0-41.5,18.6-41.5,41.5H63h41.5C104.5,35.3,85.9,16.7,63,16.7z"/>
				</g>
			</g>
			<g>
				<g>
					<defs>
						<path id="SVGID_3_" d="M95.9,100.5L95.9,100.5l-6.2-10.7c9-7.6,14.7-19,14.7-31.7c0-22.9-18.6-41.5-41.5-41.5
							S21.5,35.3,21.5,58.2c0,12.7,5.7,24.1,14.7,31.7l-6.2,10.7c-0.2,0.3-0.3,0.7-0.3,1.1l-0.5,7c0,0.3,0.1,0.5,0.3,0.6l0,0l0,0
							c0.2,0.2,0.5,0.1,0.7,0l5.8-3.9c0.3-0.2,0.6-0.5,0.8-0.8l0,0l5.8-10.1c6,3.4,12.9,5.3,20.3,5.3s14.3-2,20.4-5.4l5.8,10.1
							c0.2,0.3,0.5,0.6,0.8,0.8l5.8,4c0.2,0.2,0.5,0.2,0.7,0l0,0l0,0c0.2-0.2,0.3-0.4,0.3-0.6l-0.5-7
							C96.2,101.2,96.1,100.9,95.9,100.5z"/>
					</defs>
					<clipPath id="SVGID_4_">
						<use xlink:href="#SVGID_3_"  style="overflow:visible;"/>
					</clipPath>
					<path class="st1" d="M63,58.2H21.5c0,22.9,18.6,41.5,41.5,41.5s41.5-18.6,41.5-41.5C104.5,58.2,63,58.2,63,58.2z"/>
				</g>
			</g>
			<g>
				<g>
					<defs>
						<path id="SVGID_5_" d="M95.9,100.5L95.9,100.5l-6.2-10.7c9-7.6,14.7-19,14.7-31.7c0-22.9-18.6-41.5-41.5-41.5
							S21.5,35.3,21.5,58.2c0,12.7,5.7,24.1,14.7,31.7l-6.2,10.7c-0.2,0.3-0.3,0.7-0.3,1.1l-0.5,7c0,0.3,0.1,0.5,0.3,0.6l0,0l0,0
							c0.2,0.2,0.5,0.1,0.7,0l5.8-3.9c0.3-0.2,0.6-0.5,0.8-0.8l0,0l5.8-10.1c6,3.4,12.9,5.3,20.3,5.3s14.3-2,20.4-5.4l5.8,10.1
							c0.2,0.3,0.5,0.6,0.8,0.8l5.8,4c0.2,0.2,0.5,0.2,0.7,0l0,0l0,0c0.2-0.2,0.3-0.4,0.3-0.6l-0.5-7
							C96.2,101.2,96.1,100.9,95.9,100.5z"/>
					</defs>
					<clipPath id="SVGID_6_">
						<use xlink:href="#SVGID_5_"  style="overflow:visible;"/>
					</clipPath>
					<path class="st2" d="M63,17.2c22.8,0,41.4,18.4,41.5,41.2c0-0.1,0-0.2,0-0.2c0-22.9-18.6-41.5-41.5-41.5
						c-22.9,0-41.5,18.5-41.5,41.5c0,0.1,0,0.2,0,0.2C21.7,35.6,40.2,17.2,63,17.2z"/>
				</g>
			</g>
			<g>
				<g>
					<defs>
						<path id="SVGID_7_" d="M95.9,100.5L95.9,100.5l-6.2-10.7c9-7.6,14.7-19,14.7-31.7c0-22.9-18.6-41.5-41.5-41.5
							S21.5,35.3,21.5,58.2c0,12.7,5.7,24.1,14.7,31.7l-6.2,10.7c-0.2,0.3-0.3,0.7-0.3,1.1l-0.5,7c0,0.3,0.1,0.5,0.3,0.6l0,0l0,0
							c0.2,0.2,0.5,0.1,0.7,0l5.8-3.9c0.3-0.2,0.6-0.5,0.8-0.8l0,0l5.8-10.1c6,3.4,12.9,5.3,20.3,5.3s14.3-2,20.4-5.4l5.8,10.1
							c0.2,0.3,0.5,0.6,0.8,0.8l5.8,4c0.2,0.2,0.5,0.2,0.7,0l0,0l0,0c0.2-0.2,0.3-0.4,0.3-0.6l-0.5-7
							C96.2,101.2,96.1,100.9,95.9,100.5z"/>
					</defs>
					<clipPath id="SVGID_8_">
						<use xlink:href="#SVGID_7_"  style="overflow:visible;"/>
					</clipPath>
					<path class="st3" d="M63,99.2c-22.8,0-41.4-18.4-41.5-41.2c0,0.1,0,0.2,0,0.2C21.5,81,40.1,99.6,63,99.6s41.5-18.6,41.5-41.5
						c0-0.1,0-0.2,0-0.2C104.4,80.7,85.8,99.2,63,99.2z"/>
				</g>
			</g>
			<g>
				<g>
					<defs>
						<path id="SVGID_9_" d="M95.9,100.5L95.9,100.5l-6.2-10.7c9-7.6,14.7-19,14.7-31.7c0-22.9-18.6-41.5-41.5-41.5
							S21.5,35.3,21.5,58.2c0,12.7,5.7,24.1,14.7,31.7l-6.2,10.7c-0.2,0.3-0.3,0.7-0.3,1.1l-0.5,7c0,0.3,0.1,0.5,0.3,0.6l0,0l0,0
							c0.2,0.2,0.5,0.1,0.7,0l5.8-3.9c0.3-0.2,0.6-0.5,0.8-0.8l0,0l5.8-10.1c6,3.4,12.9,5.3,20.3,5.3s14.3-2,20.4-5.4l5.8,10.1
							c0.2,0.3,0.5,0.6,0.8,0.8l5.8,4c0.2,0.2,0.5,0.2,0.7,0l0,0l0,0c0.2-0.2,0.3-0.4,0.3-0.6l-0.5-7
							C96.2,101.2,96.1,100.9,95.9,100.5z"/>
					</defs>
					<clipPath id="SVGID_10_">
						<use xlink:href="#SVGID_9_"  style="overflow:visible;"/>
					</clipPath>
					<g class="st4">
						<rect x="16.7" y="57.7" class="st5" width="92.6" height="0.5"/>
						<rect x="16.7" y="58.2" class="st6" width="92.6" height="0.5"/>
					</g>
				</g>
			</g>
			<g>
				<g>
					<defs>
						<path id="SVGID_11_" d="M95.9,100.5L95.9,100.5l-6.2-10.7c9-7.6,14.7-19,14.7-31.7c0-22.9-18.6-41.5-41.5-41.5
							S21.5,35.3,21.5,58.2c0,12.7,5.7,24.1,14.7,31.7l-6.2,10.7c-0.2,0.3-0.3,0.7-0.3,1.1l-0.5,7c0,0.3,0.1,0.5,0.3,0.6l0,0l0,0
							c0.2,0.2,0.5,0.1,0.7,0l5.8-3.9c0.3-0.2,0.6-0.5,0.8-0.8l0,0l5.8-10.1c6,3.4,12.9,5.3,20.3,5.3s14.3-2,20.4-5.4l5.8,10.1
							c0.2,0.3,0.5,0.6,0.8,0.8l5.8,4c0.2,0.2,0.5,0.2,0.7,0l0,0l0,0c0.2-0.2,0.3-0.4,0.3-0.6l-0.5-7
							C96.2,101.2,96.1,100.9,95.9,100.5z"/>
					</defs>
					<clipPath id="SVGID_12_">
						<use xlink:href="#SVGID_11_"  style="overflow:visible;"/>
					</clipPath>
					<g class="st7">
						
							<linearGradient id="SVGID_13_" gradientUnits="userSpaceOnUse" x1="-969.0538" y1="154.8653" x2="-788.7088" y2="335.2105" gradientTransform="matrix(0.2559 0 0 0.2559 289.4528 11.3214)">
							<stop  offset="0.33" style="stop-color:#263238;stop-opacity:0.16"/>
							<stop  offset="1" style="stop-color:#263238;stop-opacity:0"/>
						</linearGradient>
						<path class="st8" d="M92.9,58.3C92.9,58.2,92.9,58.2,92.9,58.3L91,58.2L67.8,35l0,0l0,0H63h-4.8v0v7.7h-2.5
							c-2.4,0-4.3,2-4.3,4.3V57h0c0,0.3,0.2,0.8,0.6,1.2c0,0,0,0,0,0.1l1.5,1.5L36.3,89.9c2,1.7,4.1,3.2,6.4,4.4
							c6,3.4,12.9,5.4,20.4,5.4c7.4,0,14.3-2,20.4-5.4c2.3-1.3,4.4-2.8,6.4-4.4c6.1-5.2,10.7-12,13-19.9c0.2-0.5,0.3-1,0.4-1.4
							L92.9,58.3z"/>
						
							<linearGradient id="SVGID_14_" gradientUnits="userSpaceOnUse" x1="-1010.7488" y1="265.3721" x2="-863.7218" y2="213.2215" gradientTransform="matrix(0.2559 0 0 0.2559 289.4528 11.3214)">
							<stop  offset="0.33" style="stop-color:#263238;stop-opacity:0.16"/>
							<stop  offset="1" style="stop-color:#263238;stop-opacity:0"/>
						</linearGradient>
						<path class="st9" d="M92.9,58.3C92.9,58.2,92.9,58.2,92.9,58.3L91,58.2L67.8,35l0,0l0,0H63h-4.8v0v7.7h-2.5
							c-2.4,0-4.3,2-4.3,4.3V57h0c0,0.3,0.2,0.8,0.6,1.2c0,0,0,0,0,0.1l1.5,1.5L36.3,89.9c2,1.7,4.1,3.2,6.4,4.4
							c6,3.4,12.9,5.4,20.4,5.4c7.4,0,14.3-2,20.4-5.4c2.3-1.3,4.4-2.8,6.4-4.4c6.1-5.2,10.7-12,13-19.9c0.2-0.5,0.3-1,0.4-1.4
							L92.9,58.3z"/>
					</g>
				</g>
			</g>
			<g>
				<g>
					<defs>
						<path id="SVGID_15_" d="M95.9,100.5L95.9,100.5l-6.2-10.7c9-7.6,14.7-19,14.7-31.7c0-22.9-18.6-41.5-41.5-41.5
							S21.5,35.3,21.5,58.2c0,12.7,5.7,24.1,14.7,31.7l-6.2,10.7c-0.2,0.3-0.3,0.7-0.3,1.1l-0.5,7c0,0.3,0.1,0.5,0.3,0.6l0,0l0,0
							c0.2,0.2,0.5,0.1,0.7,0l5.8-3.9c0.3-0.2,0.6-0.5,0.8-0.8l0,0l5.8-10.1c6,3.4,12.9,5.3,20.3,5.3s14.3-2,20.4-5.4l5.8,10.1
							c0.2,0.3,0.5,0.6,0.8,0.8l5.8,4c0.2,0.2,0.5,0.2,0.7,0l0,0l0,0c0.2-0.2,0.3-0.4,0.3-0.6l-0.5-7
							C96.2,101.2,96.1,100.9,95.9,100.5z"/>
					</defs>
					<clipPath id="SVGID_16_">
						<use xlink:href="#SVGID_15_"  style="overflow:visible;"/>
					</clipPath>
					<g class="st10">
						
							<image style="overflow:visible;opacity:0.2;enable-background:new    ;" width="364" height="400" xlink:href="../../../../../index.html"  transform="matrix(0.1918 0 0 0.1919 28.485 34.0684)">
						</image>
						<g>
							<path class="st11" d="M96.3,101.6c0-0.4-0.2-0.7-0.3-1.1l0,0L83.8,79.6c5.6-5.4,9.1-13,9.1-21.5h-7.7c0,5.5-2,10.6-5.4,14.5
								l-7.5-12.9l1.5-1.5c0.5-0.5,0.7-0.9,0.7-1.3h0v-9.8c0-2.4-2-4.3-4.3-4.3h-2.4v-7.7v0H63h-4.8v0v7.7h-2.5
								c-2.4,0-4.3,2-4.3,4.3V57h0c0,0.4,0.2,0.8,0.7,1.3l1.5,1.5l-23.6,40.8c-0.2,0.3-0.3,0.7-0.3,1.1l-0.5,7
								c0,0.3,0.1,0.5,0.3,0.6l0,0l0,0c0.2,0.2,0.5,0.1,0.7,0l5.8-3.9c0.3-0.2,0.6-0.5,0.8-0.8l0,0l11.6-20.2
								c4.3,2.4,9.3,3.8,14.6,3.8s10.3-1.4,14.6-3.8l11.6,20.1c0.2,0.3,0.5,0.6,0.8,0.8l5.8,4c0.2,0.2,0.5,0.2,0.7,0l0,0l0,0
								c0.2-0.2,0.3-0.4,0.3-0.6L96.3,101.6z M63,46.6L63,46.6L63,46.6c3.2,0,5.8,2.6,5.8,5.8s-2.6,5.8-5.8,5.8h0l0,0
								c-3.2,0-5.8-2.6-5.8-5.8C57.2,49.2,59.8,46.6,63,46.6z M63,80.4c-3.9,0-7.5-1-10.7-2.8l7-12.1l1.5,1.5
								c0.6,0.6,1.4,0.9,2.1,0.9v0l0,0c0.8,0,1.6-0.3,2.1-0.9l1.5-1.5l7,12.2C70.5,79.4,66.9,80.4,63,80.4z"/>
						</g>
					</g>
				</g>
			</g>
			<g>
				<g>
					<defs>
						<path id="SVGID_17_" d="M95.9,100.5L95.9,100.5l-6.2-10.7c9-7.6,14.7-19,14.7-31.7c0-22.9-18.6-41.5-41.5-41.5
							S21.5,35.3,21.5,58.2c0,12.7,5.7,24.1,14.7,31.7l-6.2,10.7c-0.2,0.3-0.3,0.7-0.3,1.1l-0.5,7c0,0.3,0.1,0.5,0.3,0.6l0,0l0,0
							c0.2,0.2,0.5,0.1,0.7,0l5.8-3.9c0.3-0.2,0.6-0.5,0.8-0.8l0,0l5.8-10.1c6,3.4,12.9,5.3,20.3,5.3s14.3-2,20.4-5.4l5.8,10.1
							c0.2,0.3,0.5,0.6,0.8,0.8l5.8,4c0.2,0.2,0.5,0.2,0.7,0l0,0l0,0c0.2-0.2,0.3-0.4,0.3-0.6l-0.5-7
							C96.2,101.2,96.1,100.9,95.9,100.5z"/>
					</defs>
					<clipPath id="SVGID_18_">
						<use xlink:href="#SVGID_17_"  style="overflow:visible;"/>
					</clipPath>
					<g class="st12">
						<path class="st13" d="M96.3,101.6c0-0.4-0.2-0.7-0.3-1.1l0,0L83.8,79.6l-4-7l-7.5-12.9l-5.7,5.7l7,12.2l3.8,6.7l11.6,20.1
							c0.2,0.3,0.5,0.6,0.8,0.8l5.8,4c0.2,0.2,0.5,0.2,0.7,0l0,0l0,0c0.2-0.2,0.3-0.4,0.3-0.6L96.3,101.6z"/>
						<path class="st14" d="M79.8,73.1l4,7L95.9,101l0,0c0.2,0.3,0.3,0.7,0.3,1.1l0.5,6.6c0,0,0-0.1,0-0.2l-0.5-7
							c0-0.4-0.2-0.7-0.3-1.1l0,0L83.8,79.6l-4-7l-7.5-12.9L72.2,60L79.8,73.1z"/>
						<path class="st15" d="M96.4,108.7L96.4,108.7L96.4,108.7c-0.2,0.2-0.5,0.1-0.7,0l-5.8-4c-0.3-0.2-0.6-0.5-0.8-0.8L77.5,83.8
							l-3.8-6.7l-6.8-11.8l-0.2,0.2l7,12.2l3.8,6.7l11.6,20.1c0.2,0.3,0.5,0.6,0.8,0.8l5.8,4c0.2,0.2,0.5,0.2,0.7,0l0,0l0,0
							c0.2-0.2,0.3-0.4,0.3-0.6l0-0.3C96.7,108.4,96.6,108.6,96.4,108.7z"/>
						<path class="st16" d="M85.2,58.2c0,5.5-2,10.6-5.4,14.5c-1.7,2-3.8,3.7-6.1,5c-3.2,1.8-6.8,2.8-10.7,2.8s-7.5-1-10.7-2.8
							l7-12.2l-5.7-5.7l-23.6,40.8c-0.2,0.3-0.3,0.7-0.3,1.1l-0.5,7c0,0.3,0.1,0.5,0.3,0.6l0,0l0,0c0.2,0.2,0.5,0.1,0.7,0l5.8-3.9
							c0.3-0.2,0.6-0.5,0.8-0.8l0,0l11.6-20.2c4.3,2.4,9.3,3.8,14.6,3.8s10.3-1.4,14.6-3.8c2.3-1.3,4.4-2.9,6.3-4.7
							c5.6-5.4,9.1-13,9.1-21.5L85.2,58.2L85.2,58.2z"/>
						<path class="st17" d="M65.2,66.9c-0.6,0.6-1.4,0.9-2.1,0.9l0,0v0c-0.8,0-1.6-0.3-2.1-0.9l-1.5-1.5l-7,12.1
							c3.2,1.8,6.8,2.8,10.7,2.8s7.5-1,10.7-2.8l-7-12.2L65.2,66.9z"/>
						<g>
							<path class="st14" d="M30.1,101L53.9,60l-0.3-0.2l-23.6,40.8c-0.2,0.3-0.3,0.7-0.3,1.1l-0.5,7c0,0,0,0.1,0,0.2l0.5-6.6
								C29.8,101.7,29.9,101.4,30.1,101z"/>
							<path class="st14" d="M63,80.8c3.9,0,7.5-1,10.7-2.8c2.3-1.3,4.4-3,6.1-5c3.4-3.9,5.4-8.9,5.4-14.5h7.7c0-0.2,0-0.3,0-0.5
								h-7.7c0,5.5-2,10.6-5.4,14.5c-1.7,2-3.8,3.7-6.1,5c-3.2,1.8-6.8,2.8-10.7,2.8c-3.8,0-7.4-1-10.5-2.7l-0.2,0.4
								C55.5,79.8,59.2,80.8,63,80.8z"/>
							<path class="st15" d="M52.3,77.6l7-12.1l-0.2-0.2l-7,12.2C52.2,77.5,52.3,77.5,52.3,77.6z"/>
							<path class="st15" d="M83.8,79.1c-1.9,1.8-4,3.4-6.3,4.7c-4.3,2.4-9.3,3.8-14.6,3.8s-10.3-1.4-14.6-3.8L36.8,104l0,0
								c-0.2,0.3-0.5,0.6-0.8,0.8l-5.8,3.9c-0.2,0.2-0.5,0.2-0.7,0l0,0l0,0c-0.2-0.1-0.3-0.3-0.3-0.5l0,0.3c0,0.3,0.1,0.5,0.3,0.6
								l0,0l0,0c0.2,0.1,0.5,0.1,0.7,0l5.8-3.9c0.3-0.2,0.6-0.5,0.8-0.8l0,0l11.6-20.2c4.3,2.4,9.3,3.8,14.6,3.8s10.3-1.4,14.6-3.8
								c2.3-1.3,4.4-2.9,6.3-4.7c5.6-5.4,9.1-13,9.1-21.5h0C92.8,66.4,89.3,73.8,83.8,79.1z"/>
						</g>
						<path class="st11" d="M70.2,42.8h-2.4V35v0H63h-4.8v0v7.7h-2.5c-2.4,0-4.3,2-4.3,4.3v9.8h0c0,0.4,0.2,0.8,0.7,1.3l8.7,8.7
							c0.6,0.6,1.4,0.9,2.1,0.9v0l0,0c0.8,0,1.6-0.3,2.1-0.9l8.7-8.7c0.5-0.5,0.7-0.9,0.7-1.3h0v-9.8C74.6,44.7,72.7,42.8,70.2,42.8
							z M63,58.2L63,58.2L63,58.2c-3.2,0-5.8-2.6-5.8-5.8c0-3.2,2.6-5.8,5.8-5.8v-0.1l0,0.1c3.2,0,5.8,2.6,5.8,5.8
							C68.8,55.6,66.2,58.2,63,58.2z"/>
						<path class="st18" d="M67.8,35.5V35v0H63h-4.8v0v0.5H63H67.8z"/>
						<path class="st19" d="M63,57.7L63,57.7L63,57.7c-3.1,0-5.7-2.5-5.8-5.5c0,0.1,0,0.2,0,0.2c0,3.2,2.6,5.8,5.8,5.8l0,0h0
							c3.2,0,5.8-2.6,5.8-5.8c0-0.1,0-0.2,0-0.2C68.7,55.2,66.1,57.7,63,57.7z"/>
						<path class="st18" d="M55.8,43.3h2.5v-0.5h-2.5c-2.4,0-4.3,2-4.3,4.3v0.5C51.4,45.2,53.4,43.3,55.8,43.3z"/>
						<path class="st18" d="M70.2,42.8h-2.4v0.5h2.4c2.4,0,4.3,2,4.3,4.3v-0.5C74.6,44.7,72.7,42.8,70.2,42.8z"/>
						<path class="st20" d="M63,46.6L63,46.6L63,46.6c-3.2,0-5.8,2.6-5.8,5.8c0,0.1,0,0.2,0,0.2c0.2-3.1,2.7-5.5,5.8-5.5V47l0,0.1
							c3.1,0,5.6,2.5,5.7,5.5c0-0.1,0-0.2,0-0.2C68.8,49.2,66.2,46.6,63,46.6z"/>
						<path class="st15" d="M73.9,57.8l-8.7,8.7c-0.6,0.6-1.4,0.9-2.1,0.9l0,0v0c-0.8,0-1.6-0.3-2.1-0.9l-8.7-8.7
							c-0.5-0.5-0.7-0.9-0.7-1.3h0V57h0c0,0.4,0.2,0.8,0.7,1.3l8.7,8.7c0.6,0.6,1.4,0.9,2.1,0.9v0l0,0c0.8,0,1.6-0.3,2.1-0.9
							l8.7-8.7c0.5-0.5,0.7-0.9,0.7-1.3h0v-0.5h0C74.6,56.8,74.4,57.3,73.9,57.8z"/>
						<path class="st17" d="M63,58.2L63,58.2L63,58.2c3.2,0,5.8-2.6,5.8-5.8c0-3.2-2.6-5.8-5.8-5.8l0-0.1v0.1
							c-3.2,0-5.8,2.6-5.8,5.8C57.2,55.6,59.8,58.2,63,58.2z"/>
					</g>
				</g>
			</g>
		</g>
		
			<radialGradient id="SVGID_19_" cx="-999.1091" cy="79.4546" r="400.2717" gradientTransform="matrix(0.2559 0 0 0.2559 289.4528 11.3214)" gradientUnits="userSpaceOnUse">
			<stop  offset="0" style="stop-color:#FFFFFF"/>
			<stop  offset="1" style="stop-color:#FFFFFF;stop-opacity:0"/>
		</radialGradient>
		<path class="st21" d="M95.9,100.5L95.9,100.5l-6.2-10.7c9-7.6,14.7-19,14.7-31.7c0-22.9-18.6-41.5-41.5-41.5S21.5,35.3,21.5,58.2
			c0,12.7,5.7,24.1,14.7,31.7l-6.2,10.7c-0.2,0.3-0.3,0.7-0.3,1.1l-0.5,7c0,0.3,0.1,0.5,0.3,0.6l0,0l0,0c0.2,0.2,0.5,0.1,0.7,0
			l5.8-3.9c0.3-0.2,0.6-0.5,0.8-0.8l0,0l5.8-10.1c6,3.4,12.9,5.3,20.3,5.3s14.3-2,20.4-5.4l5.8,10.1c0.2,0.3,0.5,0.6,0.8,0.8l5.8,4
			c0.2,0.2,0.5,0.2,0.7,0l0,0l0,0c0.2-0.2,0.3-0.4,0.3-0.6l-0.5-7C96.2,101.2,96.1,100.9,95.9,100.5z"/>
	</g>
	<rect x="16.7" y="16.7" class="st17" width="92.6" height="92.6"/>
</g>
</svg>
