<?xml version="1.0" encoding="utf-8"?>
<!-- Generator: Adobe Illustrator 21.0.0, SVG Export Plug-In . SVG Version: 6.00 Build 0)  -->
<svg version="1.1" id="Layer_1" xmlns="http://www.w3.org/2000/svg" xmlns:xlink="http://www.w3.org/1999/xlink" x="0px" y="0px"
	 viewBox="0 0 125 125" style="enable-background:new 0 0 125 125;" xml:space="preserve">
<style type="text/css">
	.st0{fill:#045CB7;}
	.st1{fill:#0371D5;}
</style>
<g>
	<g id="x8Q2DF_1_">
		<g>
			<path class="st0" d="M105.5,50.9c-0.7,1.8-2,3.1-3.6,4.2C91,62.2,80.2,69.5,69.4,76.7c-5.2,3.4-10.4,3.4-15.5,0
				c-11.2-7.4-22.3-14.9-33.4-22.4c-1.2-0.8-2-2.5-2.9-3.7c0-0.5,0-1,0-1.6c0.7-2.1,2.1-3.4,3.9-4.6c7.3-4.8,14.4-9.8,21.7-14.5
				c5.3-3.4,9.9-7.8,16.2-9.4c1.3,0,2.6,0,3.9,0c2,0.8,4.1,1.4,5.8,2.6c11,7.3,21.9,14.8,32.9,22.2c1.6,1.1,2.9,2.3,3.5,4.2
				C105.5,49.9,105.5,50.4,105.5,50.9z M61.5,29.2c-2,0.8-4,1.3-5.7,2.4c-7.4,4.8-14.7,9.8-22.1,14.7c-3.1,2.1-3.1,4.7,0,6.8
				c7.3,4.9,14.6,9.8,21.9,14.7c4.5,3,7.7,3,12.2,0C74.9,63,82,58.2,89.1,53.4c3.3-2.2,3.4-4.8,0.1-7c-7.4-5-14.9-10.1-22.4-15
				C65.3,30.4,63.5,30,61.5,29.2z"/>
			<path class="st0" d="M60.1,108c-6.4-4.1-12.8-8.1-19.2-12.2c-1.4-0.9-2.9-1.6-4-2.8c-0.7-0.8-1.2-2.3-1.1-3.4
				c0.3-1.7,1.7-2,3.2-1c6.3,4.3,12.7,8.7,19,13c2.8,1.9,4.3,1.9,7.2,0c6.1-4.1,12.3-8.3,18.4-12.5c1.3-0.9,2.3-1.3,3.4,0.2
				c1,1.4,0.8,3.1-0.6,4.1c-2,1.4-4.1,2.8-6.2,4.1c-4.6,3-9.1,6-13.7,9c-1,0.7-2.2,1.1-3.3,1.6C62.2,108,61.2,108,60.1,108z"/>
			<path class="st0" d="M28.1,66.1c5.7,3.9,11.6,7.8,17.4,11.7c3.7,2.5,7.3,5,11,7.4c3.6,2.4,6.8,2.4,10.5-0.1
				c8.8-5.9,17.7-11.7,26.5-17.6c1.7-1.1,2.9-0.8,4,0.9c1.3,2,0.7,4.5-1.5,5.9c-9.2,6.1-18.3,12.2-27.5,18.2c-1.7,1.1-3.9,2-6,2
				c-2.2,0-4.8-0.5-6.6-1.7c-9.6-6.2-19-12.8-28.6-19.1C24.4,72,24.5,67.5,28.1,66.1z"/>
			<path class="st1" d="M61.5,34.7c1.4,0.6,2.8,0.9,3.9,1.7c5.5,3.6,10.9,7.3,16.4,11c2.4,1.6,2.4,3.5,0,5.1
				c-5.2,3.5-10.4,7-15.6,10.5c-3.3,2.2-5.6,2.2-9,0c-5.3-3.6-10.7-7.2-16-10.8c-2.2-1.5-2.2-3.4,0-5c5.4-3.6,10.7-7.2,16.1-10.8
				C58.5,35.6,60.1,35.2,61.5,34.7z"/>
		</g>
	</g>
</g>
</svg>
