<?xml version="1.0" encoding="utf-8"?>
<!-- Generator: Adobe Illustrator 21.0.0, SVG Export Plug-In . SVG Version: 6.00 Build 0)  -->
<svg version="1.1" id="Layer_1" xmlns="http://www.w3.org/2000/svg" xmlns:xlink="http://www.w3.org/1999/xlink" x="0px" y="0px"
	 viewBox="0 0 125 125" style="enable-background:new 0 0 125 125;" xml:space="preserve">
<style type="text/css">
	.st0{fill:#45D0FC;}
	.st1{fill:#03539A;}
	.st2{fill:#77DDFD;}
	.st3{fill:#3ABDEE;}
	.st4{fill:#64D8FD;}
</style>
<g>
	<path class="st0" d="M93.7,22.1c-0.2,0.2-0.4,0.4-0.6,0.7c-15.7,15.7-31.3,31.3-47,47c-2.1,2.1-4.3,4.3-6.4,6.4
		c-0.4,0.4-0.6,0.4-1,0c-3.9-3.9-7.8-7.8-11.7-11.7c-0.5-0.5-0.4-0.7,0-1.1c9.8-9.7,19.5-19.5,29.3-29.2c3.8-3.8,7.7-7.7,11.6-11.5
		c0.2-0.2,0.3-0.4,0.5-0.5C76.7,22.1,85.2,22.1,93.7,22.1z"/>
	<path class="st1" d="M68.8,105.9c-3-3-6.1-6.1-9.1-9.1c-0.3-0.3-0.6-0.6-0.9-0.9c0.1-0.1,0.2-0.2,0.3-0.3
		c3.9-3.9,7.9-7.9,11.8-11.8c0.2-0.2,0.3-0.4,0.6-0.4c7.1,7.1,14.3,14.2,21.4,21.3c0.4,0.4,0.8,0.8,1.2,1.2
		C85.6,105.9,77.2,105.9,68.8,105.9z"/>
	<path class="st2" d="M93.4,61.2c-0.1,0.1-0.2,0.3-0.4,0.4c-7,7-14.1,14.1-21.1,21.1c-0.2,0.2-0.3,0.3-0.5,0.4
		c-0.4,0-0.6-0.3-0.8-0.6c-3.8-3.8-7.5-7.5-11.3-11.3c-0.2-0.2-0.4-0.4-0.5-0.6c2.8-2.9,5.7-5.7,8.5-8.6c0.4-0.4,0.7-0.8,1.1-1
		c0.2,0.3,0.6,0.1,0.9,0.1c7.6,0,15.1,0,22.7,0c0.3,0,0.6,0.1,0.8-0.2c0.1,0,0.2,0,0.3,0C93.2,61.1,93.3,61.2,93.4,61.2z"/>
	<path class="st3" d="M58.8,70.7c0.2,0.2,0.3,0.4,0.5,0.6c3.8,3.8,7.5,7.5,11.3,11.3c0.2,0.2,0.4,0.5,0.8,0.6c0,0.1,0,0.2,0,0.3
		c-0.3,0-0.4,0.2-0.6,0.4C66.9,87.8,63,91.7,59,95.6c-0.1,0.1-0.2,0.2-0.3,0.3c-1.3-1.3-2.7-2.5-4-3.8c-2.8-2.7-5.5-5.4-8.3-8.1
		c-0.3-0.3-0.6-0.4-0.1-0.9c4.1-4.1,8.2-8.2,12.3-12.3C58.7,70.7,58.7,70.7,58.8,70.7z"/>
	<path class="st4" d="M92.9,61c-0.2,0.3-0.6,0.2-0.8,0.2c-7.6,0-15.1,0-22.7,0c-0.3,0-0.6,0.1-0.9-0.1c3.7,0,7.3,0,11,0
		C83.9,61,88.4,61,92.9,61z"/>
	<path class="st4" d="M93.4,61.2c-0.1-0.1-0.1-0.1-0.2-0.2C93.3,61.1,93.5,60.9,93.4,61.2z"/>
</g>
</svg>
