<?xml version="1.0" encoding="utf-8"?>
<!-- Generator: Adobe Illustrator 21.0.0, SVG Export Plug-In . SVG Version: 6.00 Build 0)  -->
<svg version="1.1" id="Layer_1" xmlns="http://www.w3.org/2000/svg" xmlns:xlink="http://www.w3.org/1999/xlink" x="0px" y="0px"
	 viewBox="0 0 125 125" style="enable-background:new 0 0 125 125;" xml:space="preserve">
<style type="text/css">
	.st0{fill:#80D3DE;}
	.st1{fill:#34BBCB;}
	.st2{fill:#0195A5;}
	.st3{fill:#01838E;}
	.st4{fill:#01838F;}
	.st5{fill:#9CD9E0;}
</style>
<g>
	<path class="st0" d="M71.5,88.6c-0.1,0.1-0.2,0.1-0.3,0.1c-5.8,0-11.6,0-17.3,0c-0.2,0-0.3-0.1-0.4-0.3c-1.3-2.5-2.7-5-4.1-7.4
		c-1.1-2-2.1-3.9-3.2-5.9c-1.3-2.5-2.7-4.9-4-7.4c-0.6-1.2-1.3-2.4-2-3.5c0-0.1,0-0.2-0.1-0.3c-0.7-1.2-1.3-2.5-2-3.7
		c-1.2-2.3-2.4-4.6-3.6-6.9c-1-1.9-2-3.8-3-5.7c-1.2-2.3-2.4-4.6-3.6-6.9c-1-1.9-2-3.8-3-5.6c-1.3-2.5-2.7-5.1-4-7.6
		c-0.3-0.5-0.4-1-0.8-1.4C19.9,26,20,26,20.1,26c0.4,0,0.9-0.1,1.3-0.1c1.3-0.1,2.5-0.2,3.8-0.3c0.9-0.1,1.8-0.1,2.7-0.2
		c0.9-0.1,1.7-0.2,2.6-0.3c0.7-0.1,1.3-0.1,2-0.1c0.9-0.1,1.7-0.2,2.6-0.3c0.6-0.1,1.2-0.1,1.8-0.1c0.9-0.1,1.9-0.2,2.8-0.3
		c0.6-0.1,1.2-0.1,1.8-0.1c1-0.1,1.9-0.2,2.9-0.3c0.4,0,0.7,0,1.1-0.1c0.2,0,0.3,0.1,0.4,0.2c1,2.5,2,5,2.9,7.4
		c1.4,3.5,2.8,7,4.2,10.5c1.2,3,2.4,6,3.6,9c1.4,3.6,2.9,7.2,4.3,10.8c0.6,1.4,1.1,2.9,1.7,4.3c0,0.1,0.1,0.2,0.2,0.3
		c0,0.2,0.1,0.3,0.1,0.5c0.8,1.9,1.5,3.8,2.3,5.7c1.1,2.7,2.2,5.5,3.2,8.2c0.8,2.1,1.7,4.3,2.6,6.4C71.1,87.7,71.2,88.2,71.5,88.6z"
		/>
	<path class="st1" d="M71.5,88.6c-0.3-0.4-0.4-0.9-0.6-1.4c-0.9-2.1-1.7-4.3-2.6-6.4c-1.1-2.7-2.2-5.5-3.2-8.2
		c-0.8-1.9-1.5-3.8-2.3-5.7c-0.1-0.2-0.1-0.3-0.1-0.5c1-2.5,2-5,3.1-7.5c1.9-4.6,3.8-9.2,5.7-13.9c1.3-3.2,2.6-6.4,4-9.6
		c1.2-3,2.5-6.1,3.7-9.1c0.1-0.3,0.2-0.4,0.5-0.4c8.4,0,16.8,0,25.2,0c0,0,0,0.1,0,0.1c0,0.1,0,0.2,0.1,0.2c0,0,0,0,0,0.1
		c-0.2,0-0.2,0.1-0.3,0.2c-0.9,1.7-1.8,3.3-2.7,5c-0.9,1.7-1.8,3.5-2.8,5.2c-1.6,3-3.2,5.9-4.8,8.9c-0.9,1.7-1.8,3.4-2.7,5.1
		c-1.6,3-3.3,6.1-4.9,9.1c-0.6,1.1-1.2,2.2-1.8,3.4c-0.4,0.8-0.9,1.5-1.2,2.3c-0.1,0.2-0.3,0.4-0.3,0.6c-0.1,0.2-0.2,0.3-0.3,0.5
		c-0.1,0.1-0.2,0.2-0.2,0.3c-0.2,0.2-0.3,0.5-0.4,0.8c-1.1,2-2.1,3.9-3.2,5.9c-1.3,2.4-2.6,4.8-3.8,7.2
		C74.3,83.5,72.9,86.1,71.5,88.6z"/>
	<path class="st2" d="M20,26.1c0.3,0.4,0.5,0.9,0.8,1.4c1.4,2.5,2.7,5.1,4,7.6c1,1.9,2,3.8,3,5.6c1.2,2.3,2.4,4.6,3.6,6.9
		c1,1.9,2,3.8,3,5.7c1.2,2.3,2.4,4.6,3.6,6.9c0.7,1.2,1.3,2.5,2,3.7c0,0.1,0.1,0.2,0.1,0.3c0,0,0,0,0,0.1c-0.2,0-0.2,0.2-0.2,0.3
		c-6.5,13.1-13.1,26.1-19.6,39.2c-0.1,0.1-0.1,0.3-0.3,0.4c0-0.1,0-0.3,0-0.4c0-25.8,0-51.5,0-77.3C20,26.4,20,26.3,20,26.1z"/>
	<path class="st2" d="M83.3,66.8c0.1-0.2,0.1-0.4,0.3-0.5c0.2,0.1,0.2-0.2,0.4-0.2c0.1,0.8,0.3,1.5,0.4,2.3c0.2,1.7,0.5,3.3,0.7,5
		c0.2,1.6,0.4,3.3,0.6,4.9c0.2,1.4,0.3,2.8,0.4,4.2c0.1,1.1,0.2,2.2,0.3,3.3c0.1,1.3,0.2,2.6,0.3,3.9c0.1,1.1,0.1,2.3,0.2,3.4
		c0,0.9,0.1,1.8,0.1,2.7c0,1.1,0.1,2.1,0.1,3.2c0,1.3,0.1,2.6,0.1,3.9c0,0.4,0.1,0.9,0.1,1.3c0.2-0.4,0.3-0.8,0.5-1.2
		c0.8-2.5,1.7-5,2.4-7.6c0.9-2.7,1.7-5.5,2.5-8.3c0.9-3.1,1.7-6.1,2.6-9.2c0.8-3.2,1.6-6.4,2.4-9.6c0.7-2.8,1.3-5.6,1.9-8.5
		c0.3-1.6,0.7-3.1,1-4.7c0.4-1.9,0.8-3.9,1.1-5.8c0.2-1,0.4-2,0.6-3c0.2-1.4,0.5-2.8,0.7-4.2c0.2-1.1,0.3-2.1,0.5-3.2
		c0.2-1,0.3-2,0.4-3c0.1-0.9,0.3-1.8,0.4-2.7c0.1-0.8,0.2-1.6,0.3-2.4c0.1-0.9,0.2-1.9,0.3-2.8c0.1-0.4,0-0.8,0.2-1.2
		c0,0.1,0,0.3,0,0.4c0,25.6,0,51.2,0,76.9c0,0.3-0.1,0.4-0.4,0.4c-5.7,0-11.4,0-17.1,0c-0.1,0-0.2,0-0.3,0c0,0,0,0-0.1-0.1
		c-1.4-1.4-2.9-2.9-4.3-4.3c-0.1-0.1-0.1-0.3-0.1-0.4c0-5.5,0-11,0-16.5c0-4.9,0-9.9,0-14.8c0-0.1,0-0.3,0-0.4
		c0.2-0.2,0.2-0.5,0.4-0.8C83.3,67.1,83.4,67,83.3,66.8z"/>
	<path class="st3" d="M105,26.7c-0.1,0.4-0.1,0.8-0.2,1.2c-0.1,0.9-0.2,1.9-0.3,2.8c-0.1,0.8-0.2,1.6-0.3,2.4
		c-0.1,0.9-0.2,1.8-0.4,2.7c-0.1,1-0.3,2-0.4,3c-0.2,1.1-0.3,2.1-0.5,3.2c-0.2,1.4-0.5,2.8-0.7,4.2c-0.2,1-0.4,2-0.6,3
		c-0.4,1.9-0.7,3.9-1.1,5.8c-0.3,1.6-0.7,3.2-1,4.7c-0.6,2.8-1.3,5.7-1.9,8.5c-0.8,3.2-1.6,6.4-2.4,9.6c-0.8,3.1-1.7,6.1-2.6,9.2
		c-0.8,2.8-1.6,5.5-2.5,8.3c-0.8,2.5-1.6,5.1-2.4,7.6c-0.1,0.4-0.3,0.8-0.5,1.2c0-0.5-0.1-0.9-0.1-1.3c0-1.3-0.1-2.6-0.1-3.9
		c0-1.1-0.1-2.1-0.1-3.2c0-0.9-0.1-1.8-0.1-2.7c-0.1-1.1-0.1-2.3-0.2-3.4c-0.1-1.3-0.2-2.6-0.3-3.9c-0.1-1.1-0.2-2.2-0.3-3.3
		c-0.1-1.4-0.2-2.8-0.4-4.2c-0.2-1.6-0.4-3.3-0.6-4.9c-0.2-1.7-0.5-3.3-0.7-5c-0.1-0.8-0.3-1.5-0.4-2.3c0-0.1,0-0.3-0.1-0.4
		c0.4-0.8,0.8-1.6,1.2-2.3c0.6-1.1,1.2-2.2,1.8-3.4c1.6-3,3.3-6.1,4.9-9.1c0.9-1.7,1.8-3.4,2.7-5.1c1.6-3,3.2-5.9,4.8-8.9
		c0.9-1.7,1.8-3.4,2.8-5.2c0.9-1.7,1.8-3.3,2.7-5c0.1-0.1,0.1-0.2,0.3-0.2C105,26.5,105,26.6,105,26.7z"/>
	<path class="st4" d="M20,104.2c0.2-0.1,0.2-0.3,0.3-0.4c6.5-13.1,13.1-26.1,19.6-39.2c0.1-0.1,0.1-0.3,0.2-0.3
		c0.1,0.9,0.1,1.8,0.2,2.7c0.1,1.2,0.2,2.4,0.3,3.6c0.1,0.9,0.1,1.8,0.2,2.6c0.1,1.3,0.2,2.5,0.3,3.8c0,0.4,0,0.8,0.1,1.2
		c0.1,0.9,0.1,1.9,0.2,2.8c0.1,1.4,0.2,2.9,0.3,4.3c0.1,1.1,0.1,2.1,0.2,3.2c0.1,1.4,0.2,2.9,0.3,4.3c0.1,1.1,0.1,2.1,0.2,3.2
		c0.1,1.2,0.2,2.4,0.3,3.6c0,0.2,0,0.3-0.2,0.5c-1.2,1-2.6,1.6-4.1,2.2c-1.6,0.6-3.2,1-4.8,1.3c-1.7,0.3-3.3,0.5-5,0.6
		c-2.6,0.2-5.3,0.1-7.9,0.1C20.2,104.4,20,104.5,20,104.2z"/>
	<path class="st5" d="M105,26.1c0,0,0-0.1,0-0.1C105.1,26,105.1,26,105,26.1C105,26.1,105,26.1,105,26.1z"/>
	<path class="st3" d="M105,26.1C105,26.1,105,26.1,105,26.1c0.1,0.1,0.1,0.1,0.1,0.2C104.9,26.3,105,26.2,105,26.1z"/>
	<path class="st2" d="M87.1,104.3C87.1,104.3,87.2,104.3,87.1,104.3C87.1,104.4,87.1,104.3,87.1,104.3z"/>
	<path class="st2" d="M83.9,65.6c0,0.1,0,0.3,0.1,0.4c-0.2,0-0.2,0.3-0.4,0.2C83.6,66,83.8,65.8,83.9,65.6z"/>
	<path class="st2" d="M83.3,66.8c0.1,0.2,0,0.3-0.2,0.3C83.1,67,83.2,66.9,83.3,66.8z"/>
</g>
</svg>
