<?xml version="1.0" encoding="utf-8"?>
<!-- Generator: Adobe Illustrator 21.0.0, SVG Export Plug-In . SVG Version: 6.00 Build 0)  -->
<svg version="1.1" id="Layer_1" xmlns="http://www.w3.org/2000/svg" xmlns:xlink="http://www.w3.org/1999/xlink" x="0px" y="0px"
	 viewBox="0 0 125 125" style="enable-background:new 0 0 125 125;" xml:space="preserve">
<style type="text/css">
	.st0{fill:#FDB300;}
	.st1{fill:#EA6C00;}
	.st2{fill:#FDAD00;}
	.st3{fill:#FDD231;}
	.st4{fill:#FEEEB7;}
</style>
<g id="Page-1">
	<g id="sketch-symbol">
		<polygon id="Path" class="st0" points="41.4,34.6 63.6,32.3 85.8,34.6 103,57.7 63.6,103.6 24.2,57.7 		"/>
		<g id="Group" transform="translate(0.000000, 126.881084)">
			<polygon id="Path_1_" class="st1" points="40.2,-69.2 63.6,-23.3 24.2,-69.2 			"/>
			<polygon id="Path_2_" class="st1" points="87,-69.2 63.6,-23.3 103,-69.2 			"/>
			<polygon id="Path_3_" class="st2" points="40.2,-69.2 87,-69.2 63.6,-23.3 			"/>
		</g>
		<g id="Group_1_">
			<polygon id="Path_4_" class="st3" points="63.6,32.3 41.4,34.6 40.2,57.7 			"/>
			<polygon id="Path_5_" class="st3" points="63.6,32.3 85.8,34.6 87,57.7 			"/>
			<polygon id="Path_6_" class="st2" points="103,57.7 85.8,34.6 87,57.7 			"/>
			<polygon id="Path_7_" class="st2" points="24.2,57.7 41.4,34.6 40.2,57.7 			"/>
			<polygon id="Path_8_" class="st4" points="63.6,32.3 40.2,57.7 87,57.7 			"/>
		</g>
	</g>
</g>
</svg>
