<?xml version="1.0" encoding="utf-8"?>
<!-- Generator: Adobe Illustrator 21.0.0, SVG Export Plug-In . SVG Version: 6.00 Build 0)  -->
<svg version="1.1" id="Layer_1" xmlns="http://www.w3.org/2000/svg" xmlns:xlink="http://www.w3.org/1999/xlink" x="0px" y="0px"
	 viewBox="0 0 125 125" style="enable-background:new 0 0 125 125;" xml:space="preserve">
<style type="text/css">
	.st0{fill:#FD7E19;}
	.st1{fill:#271300;}
	.st2{fill:#FC7E18;}
	.st3{fill:#FC7D18;}
	.st4{fill:#2A1500;}
</style>
<g>
	<path class="st0" d="M60.4,27.2c1.8,0,3.6,0,5.3,0c0.1,0.2,0.3,0.2,0.5,0.2c1.5,0.1,2.9,0.3,4.3,0.6c8.2,1.8,15,5.9,20.5,12.2
		c4.2,4.9,6.8,10.5,8.1,16.8c0.3,1.4,0.3,2.8,0.7,4.2c0,1.9,0,3.8,0,5.7c-0.2,0.1-0.2,0.3-0.2,0.5c-0.2,1.4-0.3,2.7-0.6,4.1
		c-1.8,8.3-5.9,15.2-12.4,20.7c-4.9,4.1-10.4,6.7-16.7,8c-1.4,0.3-2.8,0.3-4.2,0.7c-1.9,0-3.8,0-5.7,0c-0.1-0.2-0.3-0.2-0.5-0.2
		c-1.4-0.2-2.8-0.4-4.2-0.6c-6.3-1.3-11.9-4.1-16.8-8.4C32.4,86,28.5,79.2,26.9,70.9c-0.3-1.3-0.2-2.7-0.7-4c0-1.9,0-3.8,0-5.7
		c0.2-0.1,0.2-0.2,0.2-0.4c0.1-1.6,0.4-3.3,0.7-4.9c3.1-14.5,15.4-26.1,30-28.3C58.2,27.5,59.3,27.5,60.4,27.2z M63,31.4
		c-18,0-32.6,14.6-32.7,32.6c0,18,14.6,32.6,32.6,32.7c18,0,32.6-14.6,32.7-32.6C95.6,46.1,81,31.4,63,31.4z"/>
	<path class="st1" d="M63,31.4c18,0,32.6,14.7,32.6,32.7c0,18-14.7,32.6-32.7,32.6c-18,0-32.6-14.7-32.6-32.7
		C30.4,45.9,45.1,31.4,63,31.4z M57.6,49.2c-1,0-1.9,0-2.7,0c-0.4,0-0.6,0.1-0.6,0.6c0,0.8-0.2,1.5-0.4,2.3
		c-1.5,5.2-3,10.4-4.5,15.6c-1,3.4-1.9,6.8-2.9,10.2c-0.2,0.7-0.1,1,0.7,1c0.9-0.1,1.8-0.1,2.8,0c0.7,0,1-0.2,1.2-0.9
		c0.5-2.2,1.1-4.3,1.7-6.5c0.2-0.6,0.4-0.8,1.1-0.8c2.3,0,4.7,0,7,0c0.6,0,0.9,0.1,1.1,0.8c0.6,2.2,1.2,4.4,1.8,6.7
		c0.2,0.7,0.5,0.9,1.2,0.9c1.1-0.1,2.2-0.1,3.2,0c0.9,0.1,0.9-0.2,0.7-1c-2.6-8.6-5.1-17.3-7.6-25.9c-0.3-0.9-0.2-2.2-1-2.7
		C59.6,48.8,58.4,49.3,57.6,49.2z M77.8,67.9c0-3.4,0-6.7,0-10.1c0-0.6-0.1-1-0.8-0.9c-1.1,0.1-2.1,0-3.2,0c-0.6,0-0.7,0.2-0.8,0.7
		c0,6.8,0,13.6-0.1,20.4c0,0.6,0.2,0.8,0.7,0.7c1.1,0,2.1-0.1,3.2,0c0.8,0,0.9-0.3,0.9-0.9C77.8,74.5,77.8,71.2,77.8,67.9z M72.7,51
		c0,1.7,1,2.7,2.7,2.7c1.7,0,2.8-1,2.8-2.7c0-1.6-1.1-2.7-2.7-2.7C73.8,48.3,72.7,49.4,72.7,51z"/>
	<path class="st2" d="M57.6,49.2c0.8,0.1,2-0.4,2.7,0.2c0.7,0.5,0.7,1.8,1,2.7c2.6,8.6,5.1,17.3,7.6,25.9c0.2,0.8,0.1,1-0.7,1
		c-1.1-0.1-2.1-0.1-3.2,0c-0.7,0-1-0.2-1.2-0.9c-0.6-2.2-1.2-4.4-1.8-6.7c-0.2-0.7-0.4-0.8-1.1-0.8c-2.3,0-4.7,0-7,0
		c-0.6,0-0.9,0.2-1.1,0.8c-0.5,2.2-1.1,4.3-1.7,6.5c-0.2,0.7-0.5,1-1.2,0.9c-0.9-0.1-1.8-0.1-2.8,0c-0.8,0-0.9-0.3-0.7-1
		c1-3.4,1.9-6.8,2.9-10.2c1.5-5.2,3-10.4,4.5-15.6c0.2-0.7,0.3-1.5,0.4-2.3c0-0.4,0.2-0.6,0.6-0.6C55.7,49.2,56.6,49.2,57.6,49.2z
		 M57.3,53.7c-0.1,0-0.1,0-0.1,0c-1,3.9-1.9,7.8-2.9,11.7c-0.1,0.5,0,0.6,0.5,0.6c1.6,0,3.2-0.1,4.8,0c0.8,0,1-0.2,0.8-1
		c-0.9-3.3-1.8-6.7-2.6-10C57.6,54.6,57.6,54.1,57.3,53.7z"/>
	<path class="st2" d="M77.8,67.9c0,3.3,0,6.6,0,9.9c0,0.7-0.1,1-0.9,0.9c-1.1-0.1-2.1,0-3.2,0c-0.6,0-0.7-0.2-0.7-0.7
		c0-6.8,0-13.6,0.1-20.4c0-0.6,0.2-0.8,0.8-0.7c1.1,0,2.1,0.1,3.2,0c0.8,0,0.8,0.3,0.8,0.9C77.8,61.1,77.8,64.5,77.8,67.9z"/>
	<path class="st3" d="M72.7,51c0-1.6,1.1-2.7,2.7-2.7c1.6,0,2.7,1.1,2.7,2.7c0,1.7-1,2.7-2.8,2.7C73.7,53.7,72.7,52.7,72.7,51z"/>
	<path class="st4" d="M57.3,53.7c0.2,0.4,0.3,0.8,0.4,1.2c0.9,3.3,1.7,6.7,2.6,10c0.2,0.9,0,1-0.8,1c-1.6-0.1-3.2,0-4.8,0
		c-0.4,0-0.6-0.1-0.5-0.6c1-3.9,1.9-7.8,2.9-11.7C57.2,53.8,57.3,53.8,57.3,53.7z"/>
</g>
</svg>
