<?xml version="1.0" encoding="utf-8"?>
<!-- Generator: Adobe Illustrator 21.0.0, SVG Export Plug-In . SVG Version: 6.00 Build 0)  -->
<svg version="1.1" id="Layer_1" xmlns="http://www.w3.org/2000/svg" xmlns:xlink="http://www.w3.org/1999/xlink" x="0px" y="0px"
	 viewBox="0 0 125 125" style="enable-background:new 0 0 125 125;" xml:space="preserve">
<style type="text/css">
	.st0{fill:#182567;}
	.st1{fill:#525B8D;}
	.st2{fill:#83D3EB;}
	.st3{fill:#172466;}
	.st4{fill:#83D2EA;}
	.st5{fill:#172566;}
</style>
<g>
	<path class="st0" d="M23.1,67.1c0-2.4,0-4.7,0-7.1c0.2-0.1,0.2-0.2,0.2-0.4c0-1.7,0.3-3.4,0.7-5c2.5-10.3,8-18.5,16.8-24.4
		c5.1-3.5,10.8-5.6,16.9-6.4c0.6-0.1,1.4,0.1,2-0.3c2.1,0,4.3,0,6.4,0c0.7,0.4,1.4,0.2,2.2,0.3c3.5,0.5,6.9,1.4,10.2,2.8
		c9.1,4,16,10.4,20.4,19.3c4,8,5,16.5,3.3,25.3c-1.9,9.5-6.7,17.4-14.3,23.4c-6.7,5.3-14.3,8.4-23,8.7c-1.3,0-2.6,0-3.8,0
		c-2.7,0.1-5.4-0.4-7.9-1.1c-10.9-2.9-19.3-9.3-24.9-19.1c-2.4-4.1-3.9-8.4-4.6-13.1C23.4,69,23.4,68,23.1,67.1z M27.1,63.3
		C26.9,83,42.8,99,62.2,99.3c20.5,0.4,36.5-16.2,36.6-35.6c0.1-20.6-16.5-35.6-34.5-36.2C43,26.8,26.8,44.2,27.1,63.3z"/>
	<path class="st1" d="M61.1,103.5c0-0.1,0-0.1,0-0.2c1.3,0,2.6,0,3.8,0c0,0.1,0,0.1,0,0.2C63.6,103.5,62.4,103.5,61.1,103.5z"/>
	<path class="st2" d="M27.1,63.3C26.8,44.2,43,26.8,64.3,27.5c18,0.6,34.6,15.6,34.5,36.2c-0.1,19.4-16.1,36-36.6,35.6
		C42.8,99,26.9,83,27.1,63.3z M94.1,63.4C94.3,46,79.7,32.8,64.4,32.2c-19-0.8-32,14.6-32.7,29.6c-0.8,18.8,14.4,32.8,30.9,32.9
		C80,94.8,94.3,80.3,94.1,63.4z"/>
	<path class="st3" d="M94.1,63.4C94.3,80.3,80,94.8,62.6,94.7c-16.5-0.1-31.8-14.1-30.9-32.9c0.7-15,13.7-30.3,32.7-29.6
		C79.7,32.8,94.3,46,94.1,63.4z M47.7,61.9c0,4.4,0,8.7,0,13.1c0,0.6,0.1,0.8,0.8,0.8c0.7-0.1,1.3-0.1,2,0c0.7,0.1,0.9-0.1,0.9-0.9
		c0-2.6,0-5.1,0-7.7c0-0.5,0.2-0.7,0.7-0.7c1.5,0,3.1,0.1,4.6-0.1c2.7-0.4,5.3-1.3,7-3.5c2.3-2.9,2.5-6.2,1.3-9.5
		c-1.2-3.3-3.9-4.7-7.1-5.2c-3.2-0.5-6.4-0.1-9.5-0.2c-0.6,0-0.6,0.4-0.6,0.8C47.7,53.2,47.7,57.5,47.7,61.9z M76.1,55.1
		c-1.8,0-3.5,0.3-5,1.3c-3,2-3.1,6.3-0.4,8.6c1,0.8,2.1,1.3,3.2,1.8c1.1,0.5,2.2,0.9,3.2,1.5c1.2,0.8,1.7,1.7,1.5,2.8
		c-0.3,1.2-1.2,1.9-2.5,2.1c-1.4,0.2-2.7,0-4-0.5c-1-0.4-2-0.8-2.9-1.4c-0.4-0.3-0.6-0.2-0.6,0.3c0,0.3,0,0.5,0,0.8
		c0,2.3,0,2.3,2.2,3c2.8,0.9,5.6,1.1,8.3-0.2c1.9-0.9,3-2.5,3.2-4.6c0.2-2.2-0.7-3.8-2.5-5c-1-0.6-2-1.1-3-1.5
		c-1-0.4-2.1-0.8-3.1-1.4C72.5,62,72,61.1,72.2,60c0.2-1.2,1.1-1.9,2.5-2c2-0.2,4,0.2,5.8,1.1c0.8,0.4,0.9,0.1,0.8-0.5
		c0-0.5,0-0.9,0-1.4c0.1-0.7-0.2-1-0.8-1.3C79.2,55.3,77.7,55.1,76.1,55.1z"/>
	<path class="st4" d="M47.7,61.9c0-4.3,0-8.7,0-13c0-0.4-0.1-0.8,0.6-0.8c3.2,0,6.4-0.3,9.5,0.2c3.2,0.5,5.9,1.9,7.1,5.2
		c1.2,3.3,1,6.6-1.3,9.5c-1.8,2.2-4.3,3.1-7,3.5c-1.5,0.2-3.1,0.2-4.6,0.1c-0.5,0-0.7,0.1-0.7,0.7c0,2.6,0,5.1,0,7.7
		c0,0.7-0.2,0.9-0.9,0.9c-0.7-0.1-1.3-0.1-2,0c-0.6,0-0.8-0.2-0.8-0.8C47.7,70.6,47.7,66.2,47.7,61.9z M51.4,57.2c0,1.9,0,3.8,0,5.6
		c0,0.4,0,0.7,0.5,0.7c2.2,0.1,4.4,0.2,6.5-0.6c2.6-1,3.8-3.2,3.6-6.5c-0.1-2.6-1.7-4.4-4.3-5.1c-1.9-0.5-3.9-0.3-5.9-0.3
		c-0.5,0-0.5,0.3-0.5,0.7C51.4,53.5,51.4,55.3,51.4,57.2z"/>
	<path class="st4" d="M76.1,55.1c1.5,0,3,0.3,4.5,0.9c0.6,0.2,0.9,0.6,0.8,1.3c-0.1,0.5,0,0.9,0,1.4c0,0.7-0.1,1-0.8,0.5
		c-1.8-0.9-3.7-1.4-5.8-1.1c-1.4,0.2-2.3,0.9-2.5,2c-0.2,1.1,0.3,2,1.5,2.7c1,0.6,2,1,3.1,1.4c1,0.4,2.1,0.9,3,1.5
		c1.8,1.2,2.7,2.8,2.5,5c-0.2,2.2-1.2,3.7-3.2,4.6c-2.7,1.3-5.5,1.1-8.3,0.2c-2.2-0.7-2.2-0.8-2.2-3c0-0.3,0-0.5,0-0.8
		c0-0.5,0.2-0.6,0.6-0.3c0.9,0.6,1.9,1.1,2.9,1.4c1.3,0.4,2.6,0.7,4,0.5c1.4-0.2,2.3-1,2.5-2.1c0.2-1.1-0.2-2-1.5-2.8
		c-1-0.6-2.1-1-3.2-1.5c-1.1-0.5-2.3-1-3.2-1.8c-2.8-2.2-2.6-6.6,0.4-8.6C72.7,55.3,74.3,55,76.1,55.1z"/>
	<path class="st5" d="M51.4,57.2c0-1.8,0-3.7,0-5.5c0-0.4,0-0.7,0.5-0.7c2,0,3.9-0.2,5.9,0.3c2.6,0.7,4.1,2.5,4.3,5.1
		c0.2,3.3-1,5.5-3.6,6.5c-2.1,0.8-4.3,0.7-6.5,0.6c-0.5,0-0.5-0.4-0.5-0.7C51.4,60.9,51.4,59.1,51.4,57.2z"/>
</g>
</svg>
