<?xml version="1.0" encoding="utf-8"?>
<!-- Generator: Adobe Illustrator 21.0.0, SVG Export Plug-In . SVG Version: 6.00 Build 0)  -->
<svg version="1.1" id="Layer_1" xmlns="http://www.w3.org/2000/svg" xmlns:xlink="http://www.w3.org/1999/xlink" x="0px" y="0px"
	 viewBox="0 0 121 121" style="enable-background:new 0 0 121 121;" xml:space="preserve">
<style type="text/css">
	.st0{fill:#FFFFFF;}
</style>
<g>
	<path class="st0" d="M61,21.1c-1.9,0-3.5-1.6-3.5-3.5V8.5C57.5,6.6,59.1,5,61,5s3.5,1.6,3.5,3.5v9.1C64.5,19.6,62.9,21.1,61,21.1z"
		/>
	<path class="st0" d="M91.7,33.8c-0.9,0-1.8-0.3-2.5-1c-1.4-1.4-1.4-3.6,0-5l6.5-6.5c1.4-1.4,3.6-1.4,5,0s1.4,3.6,0,5l-6.5,6.5
		C93.5,33.5,92.6,33.8,91.7,33.8z"/>
	<path class="st0" d="M113.5,64.5h-9.1c-1.9,0-3.5-1.6-3.5-3.5s1.6-3.5,3.5-3.5h9.1c1.9,0,3.5,1.6,3.5,3.5S115.4,64.5,113.5,64.5z"
		/>
	<path class="st0" d="M98.1,101.6c-0.9,0-1.8-0.3-2.5-1l-6.5-6.5c-1.4-1.4-1.4-3.6,0-5s3.6-1.4,5,0l6.5,6.5c1.4,1.4,1.4,3.6,0,5
		C99.9,101.3,99,101.6,98.1,101.6z"/>
	<path class="st0" d="M23.9,101.6c-0.9,0-1.8-0.3-2.5-1c-1.4-1.4-1.4-3.6,0-5l6.5-6.5c1.4-1.4,3.6-1.4,5,0s1.4,3.6,0,5l-6.5,6.5
		C25.7,101.3,24.8,101.6,23.9,101.6z"/>
	<path class="st0" d="M17.6,64.5H8.5C6.6,64.5,5,62.9,5,61s1.6-3.5,3.5-3.5h9.1c1.9,0,3.5,1.6,3.5,3.5S19.6,64.5,17.6,64.5z"/>
	<path class="st0" d="M30.3,33.8c-0.9,0-1.8-0.3-2.5-1l-6.5-6.5c-1.4-1.4-1.4-3.6,0-5s3.6-1.4,5,0l6.5,6.5c1.4,1.4,1.4,3.6,0,5
		C32.1,33.5,31.2,33.8,30.3,33.8z"/>
	<path class="st0" d="M75,103v5.8c0,4.5-3.7,8.2-8.2,8.2H55.2c-3.9,0-8.2-3-8.2-9.5V103H75z"/>
	<path class="st0" d="M81.6,35.6C73.9,29.4,63.8,27,54,29.1c-12.4,2.6-22.4,12.6-25,25c-2.6,12.7,2.1,25.3,12.3,33
		c2.8,2.1,4.7,5.2,5.3,8.9l0,0c0.1,0,0.2,0,0.3,0h28c0.1,0,0.1,0,0.2,0l0,0c0.7-3.5,2.8-6.8,6-9.3C89,80.4,93.6,71.1,93.6,61
		C93.7,51.1,89.3,41.9,81.6,35.6z M78.5,63.3c-1.9,0-3.5-1.6-3.5-3.5C75,52.7,69.3,47,62.2,47c-1.9,0-3.5-1.6-3.5-3.5
		s1.6-3.5,3.5-3.5C73.1,40,82,48.9,82,59.8C82,61.7,80.4,63.3,78.5,63.3z"/>
	<path class="st0" d="M46.7,96H47C46.9,96,46.8,96,46.7,96L46.7,96z"/>
	<path class="st0" d="M75.2,96L75.2,96c-0.1,0-0.1,0-0.2,0H75.2z"/>
</g>
</svg>
