<?xml version="1.0" encoding="utf-8"?>
<!-- Generator: Adobe Illustrator 21.0.0, SVG Export Plug-In . SVG Version: 6.00 Build 0)  -->
<svg version="1.1" id="Layer_1" xmlns="http://www.w3.org/2000/svg" xmlns:xlink="http://www.w3.org/1999/xlink" x="0px" y="0px"
	 viewBox="0 0 121 121" style="enable-background:new 0 0 121 121;" xml:space="preserve">
<style type="text/css">
	.st0{fill:#FFFFFF;}
</style>
<g>
	<path class="st0" d="M87.8,99.2V99H63.4v0.3c0,3.7-3,6.8-6.8,6.8h-4.3v6.9H99v-7h-4.3C90.9,106,87.8,103,87.8,99.2z"/>
	<path class="st0" d="M81.5,27.6c0.7,2.7,1,5.4,1,8.2c0,8.9-3.5,17.3-9.8,23.7C66.4,65.8,58,69.3,49,69.3c-6,0-11.7-1.5-16.7-4.4
		v10.7H119v-48L81.5,27.6z"/>
	<path class="st0" d="M32.3,82.5H119v9.6H32.3V82.5z"/>
	<path class="st0" d="M49,62.6c7.2,0,13.9-2.8,18.9-7.8c5.1-5.1,7.8-11.8,7.8-18.9c0-7.2-2.8-13.9-7.8-18.9
		c-5-5.2-11.7-7.9-18.9-7.9s-13.9,2.8-18.9,7.8c-9.6,9.6-10.4,24.8-2.3,35.3l-3.4,3.4l-9.5,0.8l13.5,13.5l0.8-9.5l3.4-3.4
		C37.3,60.7,43,62.6,49,62.6L49,62.6z M29.1,35.8c0-5.3,2.1-10.3,5.8-14.1C38.7,18,43.7,16,49,16s10.3,2.1,14.1,5.8
		c3.8,3.7,5.8,8.7,5.8,14.1c0,5.3-2.1,10.3-5.8,14.1c-3.8,3.8-8.7,5.8-14.1,5.8c-5.3,0-10.3-2.1-14.1-5.8
		C31.2,46.1,29.1,41.1,29.1,35.8L29.1,35.8z"/>
	<path class="st0" d="M3.8,67.3c-3.8,3.8-3.8,10,0,13.8c1.8,1.8,4.3,2.8,6.9,2.8s5-1,6.9-2.8l6.1-6.1L9.9,61.2L3.8,67.3z"/>
</g>
</svg>
