<?xml version="1.0" encoding="utf-8"?>
<!-- Generator: Adobe Illustrator 21.0.0, SVG Export Plug-In . SVG Version: 6.00 Build 0)  -->
<svg version="1.1" id="Layer_1" xmlns="http://www.w3.org/2000/svg" xmlns:xlink="http://www.w3.org/1999/xlink" x="0px" y="0px"
	 viewBox="0 0 121 121" style="enable-background:new 0 0 121 121;" xml:space="preserve">
<style type="text/css">
	.st0{fill:#FFFFFF;}
</style>
<path class="st0" d="M111.5,63.8c-0.8-1.8-0.8-3.8,0-5.6l4.3-9.3c1.6-3.5,1.7-7.5,0.2-11s-4.4-6.3-7.9-7.7l-9.6-3.6
	c-1.8-0.7-3.3-2.1-3.9-3.9L90.9,13c-1.3-3.6-4.1-6.5-7.7-7.9s-7.6-1.4-11,0.2l-9.4,4.3c-1.8,0.8-3.8,0.8-5.6,0l-9.4-4.2
	c-3.5-1.6-7.5-1.6-11-0.2c-3.5,1.5-6.3,4.4-7.7,7.9l-3.6,9.6c-0.7,1.8-2.1,3.3-3.9,3.9L12,30.2c-3.6,1.3-6.5,4.1-7.9,7.7
	s-1.4,7.6,0.2,11l4.2,9.4c0.8,1.8,0.8,3.8,0,5.6l-4.3,9.3c-1.6,3.5-1.7,7.5-0.2,11s4.4,6.3,7.9,7.7l9.6,3.6c1.8,0.7,3.3,2.1,3.9,3.9
	L29,109c1.3,3.6,4.1,6.5,7.7,7.9c1.7,0.7,3.5,1,5.3,1c2,0,3.9-0.4,5.7-1.2l9.4-4.2c1.8-0.8,3.8-0.8,5.6,0l9.3,4.3
	c3.5,1.6,7.5,1.6,11,0.2c3.5-1.5,6.3-4.4,7.7-7.9l3.6-9.6c0.7-1.8,2.1-3.3,3.9-3.9l9.6-3.6c3.6-1.3,6.5-4.1,7.9-7.7
	c1.5-3.5,1.4-7.6-0.2-11L111.5,63.8z M69.7,84.2c0,2.9-2.4,5.3-5.3,5.3h-8.7c-2.6,0-5.3-1.9-5.3-6.1v-2.6h19.4L69.7,84.2L69.7,84.2z
	 M73.5,70.2c-2,1.6-3.3,3.7-3.7,5.9H50.2c-0.3-2.1-1.5-4.1-3.5-5.7c-5.3-4.1-8.3-10.4-8.1-17.1c0.2-11.3,9.7-20.7,21-20.8
	c5.7-0.1,11.3,2.1,15.4,6.2c4.1,4,6.3,9.4,6.3,15.1C81.4,60.2,78.5,66.1,73.5,70.2z"/>
</svg>
