<?xml version="1.0" encoding="utf-8"?>
<!-- Generator: Adobe Illustrator 21.0.0, SVG Export Plug-In . SVG Version: 6.00 Build 0)  -->
<svg version="1.1" id="Layer_1" xmlns="http://www.w3.org/2000/svg" xmlns:xlink="http://www.w3.org/1999/xlink" x="0px" y="0px"
	 viewBox="0 0 121 121" style="enable-background:new 0 0 121 121;" xml:space="preserve">
<style type="text/css">
	.st0{fill:#FFFFFF;}
</style>
<g>
	<path class="st0" d="M37.4,6c1.4,0,2.8,0,4.3,0c0.1,0,0.2,0.1,0.3,0.1c1.6,0.1,3.1,0.3,4.6,0.6c6.5,1.5,12.1,4.6,16.7,9.5
		c0.3,0.3,0.6,0.7,0.7,1.2c0.1,0.2,0.2,0.3,0.3,0.5c1.7,2,3,4.1,4.2,6.5c0.1,0.2,0.2,0.3,0.3,0.5c0.2,0.3,0.3,0.7,0.5,1
		c0.1,0.2,0.1,0.5,0.2,0.7c1.2,3.2,2,6.5,2.2,9.9c0.1,2.2,0.1,4.4-0.2,6.5c-0.3,2.9-1,5.6-2.1,8.3c-1.1,2.8-2.7,5.4-4.4,7.9
		c-1.4,2-2.9,4-4.3,6c-1.5,2.1-2.8,4.3-3.7,6.6c-0.1,0.4-0.1,0.6,0.2,0.9c2.2,2.5,2.3,6.2,0.2,8.9c-0.1,0.1-0.2,0.3-0.3,0.4
		c1.8,2.1,2.4,4.5,1.4,7.1c-0.9,2.6-2.9,4-5.6,4.5c0,0.9,0,1.8,0,2.6c0,0.7-0.1,1.4-0.2,2c-0.8,3.6-3.8,6.4-7.4,6.9
		c-0.9,0.1-1.9,0.1-2.8,0.1c-0.2,0-0.4,0-0.6,0c0,0.2,0,0.2,0,0.3c0,1.1,0,2.2,0,3.3c0,0.4,0.1,0.8,0.2,1.1c0.5,1.4,1.8,2.3,3.4,2.3
		c6.3,0,12.7,0,19,0c8,0,16,0,24,0c2.1,0,3.6-1.5,3.6-3.5c0-6.2,0-12.5,0-18.7c0-0.1,0-0.3,0-0.4c-1.2-0.2-2.3-0.4-3.4-0.7
		C76.4,86,69,74.1,71.6,61.9c2.6-12.3,14.8-20.3,27.1-17.8c7.1,1.5,12.4,5.5,15.9,11.9c1.5,2.8,2.4,5.8,2.5,9.1
		c0,0.1,0.1,0.2,0.1,0.3c0,0.8,0,1.7,0,2.5c0,0.2-0.1,0.4-0.1,0.6c-0.1,0.8-0.1,1.5-0.3,2.3c-0.9,4.8-3.1,9-6.6,12.4
		c-3.4,3.3-7.5,5.4-12.2,6.2c-0.5,0.1-1.1,0.2-1.7,0.3c0,0.2,0,0.4,0,0.6c0,6.2,0,12.3,0,18.5c0,3.7-2.6,6.9-6.3,7.7
		c-0.2,0-0.4,0.1-0.6,0.2c-15,0-30,0-45,0c-0.2-0.1-0.5-0.1-0.7-0.2c-3.5-0.7-6.2-3.8-6.3-7.3c0-1.1,0-2.2,0-3.3c0-0.2,0-0.4,0-0.6
		c-0.6,0-1.1,0-1.7,0c-0.6,0-1.2,0-1.8-0.1c-4.3-0.6-7.6-4.4-7.6-8.7c0-0.8,0-1.6,0-2.4c0-0.2,0-0.3,0-0.4c-2.7-0.5-4.6-2-5.6-4.5
		c-0.9-2.6-0.3-5,1.4-7.1c-0.1-0.2-0.2-0.3-0.3-0.4c-1.2-1.6-1.7-3.4-1.4-5.4c0.2-1.4,0.8-2.5,1.7-3.6c0.2-0.2,0.3-0.4,0.1-0.7
		c-0.1-0.3-0.3-0.6-0.4-0.9c-1-2.4-2.4-4.6-4-6.7c-1.4-2-2.9-4-4.3-6c-1.8-2.6-3.3-5.4-4.4-8.4c-0.9-2.7-1.5-5.4-1.7-8.2
		c0-0.4-0.1-0.8-0.2-1.2c0-1.1,0-2.2,0-3.3c0.1-0.3,0.2-0.7,0.2-1c0.1-1.8,0.4-3.5,0.7-5.2c2.2-10.4,9.3-18.8,19.1-22.8
		C30.3,7,33.6,6.2,37,6.1C37.1,6.1,37.2,6,37.4,6z M41.7,68c0-6.8,0-13.6,0-20.3c0.2,0,0.3,0,0.4,0c1.8,0.3,3.6,0.4,5.4,0.2
		c3.7-0.4,6.9-2,9.4-4.7c2.5-2.6,3.9-5.7,4.5-9.2c0.3-1.4-0.3-2.3-1.6-2.8c-1.7-0.6-3.5-1-5.3-1.1c-2.5-0.2-5,0.2-7.3,1.1
		c-3.2,1.3-5.7,3.6-7.5,6.5c-0.1,0.2-0.2,0.3-0.3,0.5c-0.1-0.2-0.3-0.4-0.4-0.6c-1.7-2.9-4.1-5-7.2-6.3c-4.4-1.8-8.8-1.6-13.2,0
		c-1,0.3-1.5,1.4-1.3,2.4c0.3,1.5,0.7,3,1.3,4.4c1.4,3.3,3.6,6,6.7,7.8c3.5,2,7.3,2.5,11.3,1.8c0.2,0,0.3,0,0.6-0.1
		c0,6.8,0,13.6,0,20.3C38.8,68,40.2,68,41.7,68z M95.3,68.9c-0.1,0.2-0.2,0.4-0.2,0.5c-1,2.1-2.1,4.2-3.1,6.3
		c-0.3,0.6-0.6,1.2-0.9,1.8c-0.4,0.8-0.3,1.6,0.4,2.3c0.6,0.7,1.4,0.9,2.3,0.6c0.7-0.2,1.1-0.6,1.4-1.2c1.3-2.7,2.7-5.4,4-8.1
		c0.6-1.1,1.1-2.2,1.7-3.3c0.3-0.5,0.3-1,0.2-1.6c-0.2-1-1.1-1.7-2.2-1.7c-1.7,0-3.4,0-5.1,0c-0.2,0-0.4,0-0.6,0
		c0.1-0.2,0.2-0.4,0.2-0.5c1-2,2-4.1,3-6.1c0.3-0.7,0.7-1.3,1-2c0.4-0.8,0.3-1.6-0.3-2.3c-0.6-0.7-1.3-0.9-2.1-0.7
		c-0.7,0.1-1.2,0.6-1.5,1.2c-1.1,2.3-2.3,4.6-3.4,6.9c-0.8,1.6-1.6,3.1-2.3,4.7c-0.5,1-0.3,2.1,0.5,2.7c0.4,0.4,0.9,0.5,1.5,0.5
		c1.7,0,3.4,0,5.1,0C94.8,68.9,95,68.9,95.3,68.9z M39.5,74.8L39.5,74.8c-2,0-4,0-6.1,0s-4.2,0-6.3,0c-1.1,0-2,0.7-2.4,1.7
		c-0.3,1,0,2.1,0.8,2.8c0.5,0.4,1.2,0.6,1.9,0.6c7.9,0,15.8,0,23.6,0c0.3,0,0.7,0,1,0c1.6-0.1,2.7-1.7,2.2-3.3
		c-0.3-1.1-1.3-1.8-2.5-1.8C47.7,74.8,43.6,74.8,39.5,74.8z M39.5,89.4c2,0,3.9,0,5.9,0c2.2,0,4.4,0,6.5,0c1.3,0,2.3-0.9,2.5-2.1
		c0.2-1.3-0.5-2.4-1.7-2.8c-0.4-0.1-0.7-0.2-1.1-0.2c-6.5,0-13,0-19.5,0c-1.7,0-3.4,0-5,0c-1.2,0-2.3,1-2.4,2.1
		c-0.2,1.3,0.5,2.5,1.8,2.8c0.3,0.1,0.7,0.1,1,0.1C31.4,89.4,35.5,89.4,39.5,89.4z M48.3,93.7c-5.9,0-11.8,0-17.8,0
		c0,0.9,0,1.9,0,2.8c0,2.5,2.1,4.5,4.5,4.5c2.9,0,5.8,0,8.7,0c2.4,0,4.4-1.9,4.5-4.4c0-0.9,0-1.7,0-2.6C48.4,94,48.4,93.9,48.3,93.7
		z"/>
	<path class="st0" d="M56.8,34.7c-2.4,7.8-9.1,10-14.7,8.5c1-3.1,2.7-5.7,5.6-7.4C50.5,34.2,53.6,34,56.8,34.7z"/>
	<path class="st0" d="M36.8,43.2c-6.2,1.5-12.4-1.1-14.6-8.4c1.3-0.8,5.7-0.6,8.1,0.5C33.4,36.7,36.4,40.2,36.8,43.2z"/>
</g>
</svg>
