<?xml version="1.0" encoding="utf-8"?>
<!-- Generator: Adobe Illustrator 23.0.3, SVG Export Plug-In . SVG Version: 6.00 Build 0)  -->
<svg version="1.1" id="Layer_1" xmlns="http://www.w3.org/2000/svg" xmlns:xlink="http://www.w3.org/1999/xlink" x="0px" y="0px"
	 viewBox="0 0 225 232.7" style="enable-background:new 0 0 225 232.7;" xml:space="preserve">
<style type="text/css">
	.st0{fill:#154284;}
	.st1{fill:#FFFFFF;}
	.st2{fill:#1D58A0;}
	.st3{fill:#EE4E6F;}
	.st4{fill:#D5E0EC;}
	.st5{fill:#5A70FD;}
	.st6{fill:#028FCC;}
	.st7{fill:#FFC8C4;}
	.st8{fill:#323441;}
	.st9{fill:#FFC2B0;}
	.st10{opacity:0.1;enable-background:new    ;}
	.st11{opacity:0.5;fill:#FFFFFF;enable-background:new    ;}
	.st12{fill:#B6C3E0;}
	.st13{fill:#EBF2F8;}
	.st14{fill:#1D3570;}
	.st15{fill:#EFF5FA;}
	.st16{fill:#EC6895;}
	.st17{fill:#EF4587;}
</style>
<g>
	<g id="Search_Engine_Optimization_1_">
		<g>
			<g>
				<g>
					<path class="st0" d="M208.7,91.6v86.2c0,3.5-2.9,6.4-6.4,6.4h-138c-3.5,0-6.4-2.9-6.4-6.4V91.6c0-3.5,2.9-6.4,6.4-6.4h138
						C205.8,85.2,208.7,88.1,208.7,91.6z"/>
					<path class="st1" d="M203.5,177H63.1c-0.8,0-1.4-0.6-1.4-1.4V91c0-0.8,0.6-1.4,1.4-1.4h140.4c0.8,0,1.4,0.6,1.4,1.4v84.6
						C204.9,176.4,204.3,177,203.5,177z"/>
					<path class="st2" d="M218.2,184.2h-170l0,0c0,9.7,7.9,17.6,17.6,17.6h134.8C210.4,201.7,218.2,193.9,218.2,184.2L218.2,184.2z"
						/>
					<path class="st1" d="M145.8,192.9h-25.1c-4.8,0-8.8-3.9-8.8-8.8l0,0h42.7l0,0C154.6,189,150.7,192.9,145.8,192.9z"/>
				</g>
				<g>
					<g>
						<path class="st3" d="M81.1,139.5v26.2c0,1.9-1.5,3.4-3.4,3.4h-4.6c-1.9,0-3.4-1.5-3.4-3.4v-26.2c0-1.8,1.5-3.4,3.4-3.4h4.6
							C79.7,136.1,81.1,137.6,81.1,139.5z"/>
						<path class="st3" d="M97.7,148.7v17c0,1.9-1.5,3.4-3.4,3.4h-4.6c-1.9,0-3.4-1.5-3.4-3.4v-17c0-1.9,1.5-3.4,3.4-3.4h4.6
							C96.1,145.3,97.7,146.8,97.7,148.7z"/>
						<path class="st3" d="M114.1,133.5v32.2c0,1.9-1.5,3.4-3.4,3.4h-4.6c-1.9,0-3.4-1.5-3.4-3.4v-32.2c0-1.8,1.5-3.4,3.4-3.4h4.6
							C112.6,130.1,114.1,131.6,114.1,133.5z"/>
						<path class="st3" d="M130.6,155.9v9.7c0,1.9-1.5,3.4-3.4,3.4h-4.6c-1.8,0-3.4-1.5-3.4-3.4v-9.7c0-1.9,1.5-3.4,3.4-3.4h4.6
							C129.1,152.6,130.6,154.1,130.6,155.9z"/>
						<path class="st3" d="M147.1,119.7v46c0,1.9-1.5,3.4-3.4,3.4h-4.6c-1.9,0-3.4-1.5-3.4-3.4v-46c0-1.9,1.5-3.4,3.4-3.4h4.6
							C145.6,116.3,147.1,117.8,147.1,119.7z"/>
					</g>
					<path class="st0" d="M196.3,106.1h-40.1c-2.9,0-5.3-2.4-5.3-5.3l0,0c0-2.9,2.4-5.3,5.3-5.3h40.1c2.9,0,5.3,2.4,5.3,5.3l0,0
						C201.6,103.7,199.2,106.1,196.3,106.1z"/>
					<path class="st1" d="M195.4,101.3c0.7-1,0.6-2.4-0.3-3.3c-1-1-2.7-1-3.7,0s-1,2.7,0,3.7c0.9,0.9,2.3,1,3.3,0.3l2.4,2.4l0.7-0.7
						L195.4,101.3z M194.4,101c-0.6,0.6-1.7,0.6-2.4,0s-0.7-1.7,0-2.4c0.6-0.6,1.7-0.6,2.4,0C195.1,99.2,195.1,100.3,194.4,101z"/>
					<g>
						<path class="st0" d="M199.4,149.4v17.3c0,1.3-1,2.3-2.3,2.3h-34.3c-1.3,0-2.3-1-2.3-2.3v-17.3c0-1.3,1-2.3,2.3-2.3h34.3
							C198.3,147.1,199.4,148.2,199.4,149.4z"/>
						<path class="st0" d="M183.9,121.9v1.8c0,1.3-1,2.3-2.3,2.3h-18.8c-1.3,0-2.3-1-2.3-2.3v-1.8c0-1.3,1-2.3,2.3-2.3h18.8
							C182.9,119.6,183.9,120.6,183.9,121.9z"/>
						<path class="st0" d="M183.9,132.4v1.8c0,1.3-1,2.3-2.3,2.3h-18.8c-1.3,0-2.3-1-2.3-2.3v-1.8c0-1.3,1-2.3,2.3-2.3h18.8
							C182.9,130.1,183.9,131.1,183.9,132.4z"/>
						<g>
							<path class="st1" d="M164.5,164c-0.2,0-0.5-0.1-0.7-0.3c-0.4-0.4-0.4-1,0-1.3l6.7-6.7c0.4-0.4,1-0.4,1.3,0l4.1,4.1l4.7-3.7
								c0.3-0.2,0.7-0.3,1-0.1l7.2,3.5l5.8-9.5c0.3-0.4,0.8-0.6,1.3-0.3c0.4,0.3,0.6,0.8,0.3,1.3l-6.2,10.2
								c-0.2,0.4-0.8,0.6-1.2,0.4l-7.5-3.7l-4.9,3.9c-0.4,0.3-0.9,0.3-1.2-0.1l-4-4l-6.1,6.1C165,163.9,164.8,164,164.5,164z"/>
						</g>
					</g>
					<g>
						<path class="st4" d="M89.2,116c-2.2,2.2-5.2,3.5-8.5,3.5c-4.1,0-7.8-2.1-10-5.2c-1.4-1.9-2.1-4.3-2.1-6.9c0-0.2,0-0.3,0-0.5
							c0.2-6.4,5.6-11.6,12.1-11.6c1.6,0,3.1,0.3,4.5,0.8c0.6,0.2,1.1,0.5,1.6,0.8c1.7,1,3.2,2.4,4.2,4.1l-3.5,2.1l-6.9,4.2
							L89.2,116z"/>
						<path class="st5" d="M92.8,107.5c0,3.4-1.3,6.4-3.5,8.5l-8.5-8.5l6.9-4.2l3.5-2.1C92.1,103,92.8,105.2,92.8,107.5z"/>
						<path class="st3" d="M86.8,97.1l-0.6,1l-5.5,9.4l-3.1,2.2l-6.8,4.7c-1.4-1.9-2.1-4.3-2.1-6.9c0-0.2,0-0.3,0-0.5
							c0.2-6.4,5.6-11.6,12.1-11.6c1.6,0,3.1,0.3,4.5,0.8C85.7,96.5,86.3,96.7,86.8,97.1z"/>
					</g>
				</g>
				<g>
					<path class="st6" d="M97.8,70.6l-14.1-8.7c-0.6-0.3-0.7-1.1-0.4-1.6L93,44.6c0.3-0.6,1.1-0.7,1.6-0.4l14.1,8.7
						c0.6,0.3,0.7,1.1,0.4,1.6l-9.7,15.7C99,70.8,98.3,70.9,97.8,70.6z"/>
					<path class="st1" d="M99.2,54.8l-6.5-4c-0.2-0.1-0.2-0.3-0.1-0.5l1-1.6c0.1-0.2,0.3-0.2,0.5-0.1l6.5,4c0.2,0.1,0.2,0.3,0.1,0.5
						l-1,1.6C99.6,54.9,99.4,55,99.2,54.8z"/>
					<path class="st1" d="M101.4,61.1l-10.9-6.7c-0.2-0.1-0.3-0.4-0.1-0.6l0.7-1.2c0.1-0.2,0.4-0.3,0.6-0.1l10.9,6.7
						c0.2,0.1,0.3,0.4,0.1,0.6L102,61C101.9,61.2,101.6,61.3,101.4,61.1z"/>
					<path class="st1" d="M99.3,64.5l-10.9-6.7c-0.2-0.1-0.3-0.4-0.1-0.6L89,56c0.1-0.2,0.4-0.3,0.6-0.1l10.9,6.7
						c0.2,0.1,0.3,0.4,0.1,0.6l-0.7,1.2C99.8,64.6,99.5,64.6,99.3,64.5z"/>
					<path class="st1" d="M97.2,67.9l-10.9-6.7c-0.2-0.1-0.3-0.4-0.1-0.6l0.7-1.2c0.1-0.2,0.4-0.3,0.6-0.1L98.4,66
						c0.2,0.1,0.3,0.4,0.1,0.6l-0.7,1.2C97.7,67.9,97.5,68,97.2,67.9z"/>
				</g>
				<path class="st6" d="M30.2,88.1c-0.5,0.5-0.7,1.2-0.5,1.9l-5.3,5.3c-1.7-1.1-4-0.9-5.5,0.6c-1.7,1.7-1.7,4.5,0,6.3
					c1.5,1.5,3.8,1.7,5.5,0.6l4.6,4.6c-0.5,1.1-0.3,2.4,0.6,3.2c1.1,1.1,2.9,1.1,4,0s1.1-2.9,0-4c-0.9-0.9-2.2-1.1-3.2-0.6l-4.6-4.6
					c0.9-1.4,0.9-3.3,0-4.7l5.3-5.3c0.7,0.2,1.4,0,1.9-0.5c0.8-0.8,0.8-2,0-2.8C32.2,87.4,30.9,87.4,30.2,88.1z"/>
			</g>
			<g>
				<g>
					<g>
						<g>
							<path class="st7" d="M176.2,120.3l-4.3,2c0,0,0,0-0.1,0l-1.5,0.7l-0.8,0.4c0-0.1,0.1-0.1,0.1-0.2c1-1.1,1.5-2,1.8-3.1
								c0.1-0.4,0.2-0.9,0.1-1.5c0-0.2,0-0.3,0-0.5l2.6-0.3l0.7-0.1c0.1,0.1,0.1,0.3,0.2,0.4c0.1,0.2,0.2,0.3,0.3,0.5
								C175.9,119.3,176.4,119.8,176.2,120.3z"/>
							<path class="st6" d="M177,120.2c-0.3,1.9-9,4.2-9.4,3.5l0,0c0.4-1.1,2.7-2.6,3.6-3.5c0.1-0.1,0.1-0.1,0.3-0.1
								c0.6-0.2,1.6,0.1,2.4,0c0.2,0,0.4-0.1,0.5-0.2c0.4-0.3,0.7-1.1,1.1-1.3c0.1-0.1,0.2-0.1,0.3-0.1
								C176.3,118.6,176.7,119.2,177,120.2z"/>
						</g>
						<path class="st8" d="M188.6,83.5c-2,7.1-11.4,7.7-12.6,12l0.1,22.3c-0.2,0.1-0.6,0.2-1,0.3c-0.3,0.1-0.6,0.2-0.9,0.2
							c-0.9,0.2-1.9,0.4-2.6,0.3c-0.4,0-0.6-0.2-0.7-0.4c-1.5-10.9-2.7-24.5-1.1-28.4c2.2-5.5,7.5-8,12.8-12.6l2.9,3L188.6,83.5z"/>
					</g>
					<g>
						<g>
							<path class="st7" d="M160,117.7l-4.7,0.8c0,0,0,0-0.1,0l-1.7,0.3l-0.9,0.1c0.1,0,0.1-0.1,0.2-0.1c1.2-0.8,2-1.6,2.5-2.5
								c0.2-0.4,0.4-0.8,0.5-1.4c0.1-0.2,0.1-0.3,0.1-0.5l2.6,0.4l0.7,0.1c0,0.2,0,0.3,0.1,0.4c0.1,0.2,0.1,0.4,0.2,0.6
								C159.9,116.7,160.3,117.3,160,117.7z"/>
							<path class="st6" d="M160.7,117.9c-0.8,1.7-9.8,1.7-10,0.9l0,0c0.7-0.9,3.3-1.8,4.4-2.4c0.1,0,0.2-0.1,0.3-0.1
								c0.6,0,1.5,0.5,2.3,0.6c0.2,0,0.4,0,0.6,0c0.4-0.2,0.9-0.9,1.4-1c0.1,0,0.2,0,0.4,0C160.6,116.1,160.8,116.8,160.7,117.9z"/>
						</g>
						<path class="st8" d="M181.6,85.5c-3.8,6.3-13,4.5-15.3,8.3l-5.8,21.5c-0.3,0-0.6,0-1,0c-0.3,0-0.6,0-1,0c-0.9,0-2-0.1-2.6-0.4
							c-0.3-0.1-0.6-0.3-0.6-0.6c1.4-10.9,3.9-24.3,6.4-27.7c3.5-4.7,9.3-5.8,15.6-8.8l2,3.7L181.6,85.5z"/>
					</g>
					<g>
						<path class="st9" d="M177.3,72.3c-0.4,3-8.8,7.8-15.5,11.8c-0.5,0.3-1,0.6-1.4,0.9l-1.3-2.3l13.4-11.1l0.2-8.4l2.2-6.5
							c0.5,2.5,1.1,5.2,1.6,7.6C177.1,68.2,177.6,71.4,177.3,72.3z"/>
						<path class="st6" d="M171.6,69.4c0,0,4.5,1.5,5.8,0.2s-0.4-13-1.2-13.2c-0.8-0.1-4.6,1-4.6,1
							C170.6,60.7,171.2,67.7,171.6,69.4z"/>
						<path class="st9" d="M177.3,72.3c-0.4,3-8.8,7.8-15.5,11.8c-0.1-0.1-0.1-0.3-0.1-0.4c-0.1-0.6,0.2-1.1,0.5-1.6
							c1.9-2.9,5.5-4,8.2-6.2c2-1.6,3.5-3.8,4.5-6.2c0.7-1.7,1.2-3.5,1.5-5.3C177.1,68.2,177.6,71.4,177.3,72.3z"/>
					</g>
					<path class="st6" d="M189.2,84.8c-5.4-0.6-10.5-1-13.9-2.6c-1.5-0.6-2.6-1.5-3.5-2.7c1.6-4.5,1.5-7.3,1-10.4
						c-0.2-1.2-0.4-2.4-0.6-3.8c-0.3-2.1-0.6-4.6-0.6-7.9c2.7-2.1,13.3-1.4,16.1,0c0.1,0.9,0.2,1.9,0.3,2.8c0.2,1.8,0.4,3.5,0.6,5.2
						c0.1,1.3,0.3,2.5,0.4,3.7C189.7,75.6,190.1,81.2,189.2,84.8z"/>
					<path class="st10" d="M189.2,84.8c-5.4-0.6-10.5-1-13.9-2.6c0.4-0.1,0.8-0.2,1.2-0.2c1.7,0,3.5,0.1,5.1-0.4
						c2.1-0.6,3.8-2.2,4.7-4.2s-0.1-4.3-0.8-6.3c-0.6-1.5-1.4-3.2-1.4-4.8c0-1.1,1.4-1.7,1.9-2.7s1.1-2.5,2.1-3.3
						c0.2,1.8,0.4,3.5,0.6,5.2c0.1,1.3,0.3,2.5,0.4,3.7C189.7,75.6,190.1,81.2,189.2,84.8z"/>
					<path class="st11" d="M189,69.2c-5.4,0.8-10.8,0.8-16.2-0.1c-0.2-1.2-0.4-2.4-0.6-3.8c5.5,0.7,11,0.8,16.4,0.2
						C188.7,66.8,188.9,68,189,69.2z"/>
					<g>
						<path class="st12" d="M175.2,91.4h-15.1c-0.9,0-1.4-1.2-0.7-1.8l5-4.5c0.2-0.2,0.4-0.3,0.7-0.3h15.1c0.9,0,1.4,1.2,0.7,1.8
							l-5,4.5C175.7,91.3,175.5,91.4,175.2,91.4z"/>
						<path class="st13" d="M174.5,91.4h-16.1c-0.5,0-1-0.3-1.3-0.8l-4.6-10.5c-0.2-0.5,0.1-1,0.7-1h16.1c0.6,0,1,0.3,1.3,0.8
							l4.6,10.5C175.4,90.9,175,91.4,174.5,91.4z"/>
						<path class="st12" d="M164.9,85.4c0.3,0.9-0.3,1.7-1.3,1.7s-2-0.8-2.3-1.7c-0.3-0.9,0.3-1.7,1.3-1.7
							C163.5,83.7,164.6,84.4,164.9,85.4z"/>
					</g>
					<g>
						<path class="st9" d="M192.5,72.5c0,3.2-8.7,9.9-14.9,15l-0.1-0.1l-1.5-2l11.6-13l-0.5-1.3l-2.5-6.4l3.2-7.4
							c1.5,4,3.3,8.7,4.2,11.8c0.1,0.5,0.3,0.9,0.3,1.3C192.5,71.5,192.6,72.1,192.5,72.5z"/>
						<path class="st6" d="M186.7,71.3c0,0,4.3-0.7,5.4-2.2c1.1-1.5-3.6-11.6-4.4-11.6c-0.8,0-5,4.8-4.2,7.4
							C184.3,67.5,186.7,71.3,186.7,71.3z"/>
						<polygon class="st7" points="177.6,87.5 175.4,87.5 174.5,88.9 173.6,86.9 174.1,85.8 176,85.5 177.5,87.5 						"/>
						<path class="st9" d="M192.5,72.5c0,3.2-8.7,9.9-14.9,15h-0.1c0,0,0-0.1,0.1-0.1c0,0,0,0,0-0.1c2.4-3.1,5.1-6,8.1-8.5
							c2.4-2,5.1-4,6.2-7c0.2-0.4,0.3-0.9,0.4-1.3C192.5,71.5,192.6,72.1,192.5,72.5z"/>
					</g>
					<path class="st9" d="M181.6,56.2c0,0.6-0.3,1-0.7,1.4c-1.6,1.2-5.2,0.7-3.5-1.5c0-0.1,0-0.2,0-0.3c0.2-1.1-0.3-2.7-0.8-4.4
						l4-0.3C180.4,53.1,181,54.6,181.6,56.2z"/>
					<path class="st9" d="M181.6,56.2c0,0.6-0.3,1-0.7,1.4c0-0.4,0.1-0.8,0-1.1c-0.2-0.5-0.7-0.8-1.2-1c-0.7-0.2-1.5,0.1-2.3,0.2
						c0.2-1.1-0.3-2.7-0.8-4.4l4-0.3C180.4,53.1,181,54.6,181.6,56.2z"/>
					<path class="st9" d="M182.2,53.1c-0.1,0.1-0.2,0.3-0.4,0.4c-1.3,1.2-3.6,2.3-5,1.5c-0.8-0.6-1.4-1.9-1.9-3.5
						c-0.5-1.7-1-3.8-1.5-5.9l7.1-0.6L182.2,53.1z"/>
					<path class="st9" d="M182.2,53.1c-0.1,0.1-0.2,0.3-0.4,0.4c-0.3,0-0.6,0-0.8-0.1c-0.9-0.4-1.1-1.8-2-2.3
						c-0.5-0.3-1.2-0.2-1.8-0.2c-0.5,0.1-1.1,0.1-1.6,0.3c-0.2,0.1-0.4,0.2-0.6,0.3c-0.5-1.7-1-3.8-1.5-5.9l7.1-0.6L182.2,53.1z"/>
					<path class="st14" d="M178.7,50.1l0.3,1.8l0.6-0.5c0,0-0.6-1.8,0.1-2c0.7-0.2,1.2,0.3,1.2,1.1c0,0.7-0.9,3.1,0.1,3.7
						c1,0.6,2.7-0.8,2.6-2.2c-0.1-1.4,0.6-6-2.3-7.2c-2.9-1.1-3.9,0.4-5.9,0.2s-4-0.5-3.9,1.2c0.2,1.7,1.7,4.8,3,3.9
						C175.9,49.1,178.7,50.1,178.7,50.1z"/>
				</g>
			</g>
			<g>
				<g>
					<path class="st9" d="M10.5,213.3c-0.3,0.6,0.1,1.6,0.3,2.6l-3.6-1.2c0.5-0.6,0.9-1.2,0.8-2.1L10.5,213.3z"/>
					<path class="st8" d="M18.6,187.4c-0.8,5.8-4.5,16.3-7.8,26.1l-1.6-0.4l-1.6-0.4l3.6-26.8c-2.5-7.4-5-12.9-5.2-21.7h7h3.8
						C19.3,172.5,19.4,182.3,18.6,187.4z"/>
					<path class="st6" d="M7.4,214.3c-0.4,0.5-1,1.5-1,2.2c0.3,0.5,7.3,1.2,7.4,0.7c0-0.7-1.9-1.6-2.8-2
						C9.2,215.2,8.6,214.9,7.4,214.3z"/>
					<path class="st8" d="M18.6,187.4c-0.8,5.8-4.5,16.3-7.8,26.1l-1.6-0.4c1.9-8.1,4.9-16,6.4-24.3c0.9-4.8,1.2-9.8,0.6-14.6
						c-0.3-2.5-0.9-4.9-1.8-7.3c-0.2-0.5-0.9-1.6-1.4-2.7h3.8C19.3,172.5,19.4,182.3,18.6,187.4z"/>
				</g>
				<g>
					<g>
						<path class="st9" d="M33.3,131.9c-2.5,6.1-5.3,13.9-7.9,14.7c-2,0.7-6.6,1-9.2-0.1l-1.7-6.8L23,142l8.5-11.3L33.3,131.9z"/>
					</g>
					<path class="st15" d="M12.7,138.9l7.5,2c0,0,1.2,6.9,0.1,7c-1.1,0-5.5-1.2-5.5-1.2L12.7,138.9z"/>
					<path class="st7" d="M31.5,130.8l-0.4-1.7l0.3-1.4c0,0,1.1-0.3,1.8,1.4c0.8,1.6,0.1,2.9,0.1,2.9L31.5,130.8z"/>
				</g>
				<path class="st7" d="M17.4,140.7l-1.5-0.4l-3.7-1.1c0.6-0.5,1-1.1,1.3-1.9c0.3-0.6,0.5-1.3,0.6-2l3.3,0.9
					C16.9,137.8,16.8,139.3,17.4,140.7z"/>
				<path class="st10" d="M17.4,140.7l-1.5-0.4c0-0.3,0.1-0.7,0.1-1.1c0-0.3,0-0.6-0.1-0.8c-0.1-0.1-0.3-0.2-0.5-0.3
					c-0.5-0.2-1-0.4-1.4-0.6c-0.1-0.1-0.3-0.1-0.4-0.2c0.3-0.6,0.5-1.3,0.6-2l3.3,0.9C16.9,137.8,16.8,139.3,17.4,140.7z"/>
				<path class="st9" d="M19.2,132.1c0,2.5-0.4,5.1-0.7,5.5c-0.6,0.6-5.7-0.1-5.7-0.7l0,0l-1.2-3.7c-0.9-2.8,1.4-5.6,4.3-5.3
					l2.2,0.2C18.9,128.7,19.2,130.4,19.2,132.1z"/>
				<path class="st9" d="M19.2,132.1c-0.3,0-0.7,0.1-1,0.2c-0.2,0-0.4,0.1-0.6,0.2c-0.2,0.1-0.4,0.3-0.6,0.4
					c-1.2,0.9-2.4,1.9-3.3,3.1c-0.2,0.3-0.5,0.7-0.9,0.8l0,0l-1.2-3.7c-0.9-2.8,1.4-5.6,4.3-5.3l2.2,0.2
					C18.9,128.7,19.2,130.4,19.2,132.1z"/>
				<g>
					<path class="st9" d="M23.2,214.3c-0.2,0.6,0.3,1.6,0.7,2.6l-3.7-0.8c0.4-0.7,0.7-1.3,0.6-2.2L23.2,214.3z"/>
					<path class="st8" d="M27.9,187.6c-0.1,5.8-2.4,16.8-4.4,26.9l-1.6-0.1l-1.6-0.1l0.1-27c-3.4-7.1-6.6-12.2-7.9-20.9l7-0.8
						l3.8-0.4C26.7,172.8,28.1,182.5,27.9,187.6z"/>
					<path class="st6" d="M20.2,215.7c-0.3,0.6-0.8,1.6-0.7,2.3c0.4,0.5,7.4,0.2,7.4-0.3c-0.1-0.7-2.1-1.3-3-1.6
						C22.1,216.4,21.5,216.2,20.2,215.7z"/>
					<path class="st8" d="M27.9,187.6c-0.1,5.8-2.4,16.8-4.4,26.9l-1.6-0.1c0.9-8.3,2.8-16.5,3.3-24.9c0.3-4.9,0-9.8-1.2-14.5
						c-0.6-2.4-1.5-4.8-2.7-7c-0.2-0.5-1.1-1.5-1.7-2.5l3.8-0.4C26.7,172.8,28.1,182.5,27.9,187.6z"/>
				</g>
				<path class="st6" d="M24.8,168.5c-2.9,2.2-14.4,2.9-18,1.3c-0.4-0.2-0.7-0.4-0.9-0.7C5.6,161.6,3.3,144,9.6,140
					c2.5-1.8,9-0.7,12.5,1.3l0.3,0.2c0.5,0.3,1,0.7,1.3,1c0.1,1.8,0.2,3.6,0.2,5.3c0,0.6,0,1.3,0,1.9v0.5
					C24,157.3,23.5,163.4,24.8,168.5z"/>
				<path class="st14" d="M16.2,131.9c3.7-0.2,4.2-0.8,3.7-3.1c-1-5.1-2.4-1.6-7.7-0.5c-3.5,0.8-2.2,7.5,0.2,8.8
					c2.7,1.5,3.6,0.4,3.2-0.9c-0.4-1.3-2.5-1.8-1.3-2.7s2,1.1,2,1.1l0.5-0.4C16.7,134.2,15.2,132,16.2,131.9z"/>
				<g>
					<path class="st16" d="M35.3,132.8l3.2,10.6c0.5,1.7,2.5,2.5,4.4,1.9l0.7-0.2c2.4-0.8,3.6-3.3,2.5-5.1l-5.8-9.9L35.3,132.8z"/>
					<path class="st16" d="M47.8,128.9l-17.2,7.8c-1.3,0.6-2.9,0-3.5-1.3l-3.5-7.7c-0.6-1.3,0-2.9,1.3-3.5l17.2-7.8
						c1.3-0.6,2.9,0,3.5,1.3l3.5,7.7C49.7,126.7,49.1,128.3,47.8,128.9z"/>
					<path class="st16" d="M47.6,131.2l21.7-3.8l-12-26.3l-17,13.9c-2.3,1.8-3,5-1.8,7.6l2.3,5C41.9,130.2,44.8,131.7,47.6,131.2z"
						/>
					<path class="st17" d="M69.4,127.4c-2.7,1.2-7.5-3.7-10.8-10.9c-3.3-7.3-3.8-14.1-1.1-15.4c1.7-0.8,5.7,4.5,9,11.8
						C69.7,120.2,71,126.7,69.4,127.4z"/>
					<path class="st16" d="M69.4,127.4c-1.7,0.7-5.7-4.5-9-11.8s-4.6-13.8-3-14.5c1.7-0.8,5.7,4.5,9,11.8
						C69.7,120.2,71,126.7,69.4,127.4z"/>
					<path class="st1" d="M65.5,113.3c2.4,5.3,3.4,10,2.2,10.5c-1.2,0.5-4.1-3.3-6.5-8.5c-2.4-5.3-3.4-10-2.2-10.5
						C60.2,104.2,63.2,108,65.5,113.3z"/>
				</g>
				<g>
					<g>
						<path class="st9" d="M43.8,139.2c-0.3,0.4-0.6,0.8-0.9,1.2c-3.7,5.1-7.7,11.1-10.2,11.3c-1.1,0.1-2.9,0-4.7-0.4
							c-1.5-0.3-3-0.9-4-1.6c-0.1,0-0.1-0.1-0.2-0.1v-1.8v-5.2l5.2,2.8l2.5,1.4l10.8-9L43.8,139.2z"/>
					</g>
					<path class="st6" d="M29,145c0,0,0,0.2,0,0.4c0,0.8-0.2,2.4-0.4,3.9c-0.1,0.8-0.3,1.6-0.5,2c-0.1,0.3-0.3,0.5-0.5,0.5
						c-0.6-0.1-2.3-0.9-3.5-1.6c-0.9-0.4-1.6-0.8-1.6-0.8l-0.1-2.2l-0.2-5.9l0.3,0.2L29,145z"/>
					<path class="st9" d="M42.3,137.7V136l0.7-1.3c0,0,1.1,0,1.5,1.8s-0.6,2.8-0.6,2.8L42.3,137.7z"/>
				</g>
			</g>
		</g>
	</g>
</g>
</svg>
