<?xml version="1.0" encoding="iso-8859-1"?>
<!-- Generator: Adobe Illustrator 24.0.1, SVG Export Plug-In . SVG Version: 6.00 Build 0)  -->
<svg version="1.1" id="Layer_1" xmlns="http://www.w3.org/2000/svg" xmlns:xlink="http://www.w3.org/1999/xlink" x="0px" y="0px"
	 viewBox="0 0 2795.249 1668.662" style="enable-background:new 0 0 2795.249 1668.662;" xml:space="preserve">
<g style="opacity:0.2;">
	<g>
		<g>
			<g>
				<defs>
					<path id="SVGID_1_" d="M2412.25,274.65h63.954c7.614,0,14.087,2.664,19.417,7.994c5.327,5.33,7.994,11.801,7.994,19.417v9.132
						c0,20.177-7.139,37.401-21.416,51.678c-14.276,14.272-31.503,21.411-51.678,21.411h-18.271c-4.948,0-9.229,1.809-12.847,5.424
						c-3.616,3.617-5.424,7.898-5.424,12.847v36.548c0,4.948,1.809,9.233,5.424,12.85c3.617,3.612,7.898,5.424,12.847,5.424h18.271
						c19.797,0,38.684-3.858,56.673-11.563c17.987-7.71,33.545-18.132,46.68-31.267c13.134-13.129,23.553-28.688,31.262-46.677
						c7.709-17.987,11.564-36.879,11.564-56.674V110.203c0-15.235-5.327-28.171-15.986-38.834
						c-10.66-10.657-23.606-15.985-38.832-15.985h-109.639c-15.225,0-28.167,5.328-38.828,15.985
						c-10.657,10.663-15.987,23.599-15.987,38.834v109.629c0,15.232,5.33,28.168,15.994,38.832
						C2384.078,269.32,2397.025,274.65,2412.25,274.65z"/>
				</defs>
				<clipPath id="SVGID_2_">
					<use xlink:href="#SVGID_1_"  style="overflow:visible;"/>
				</clipPath>
				<rect x="2357.428" y="55.384" style="clip-path:url(#SVGID_2_);fill:#D4349C;" width="219.272" height="2.246"/>
				<rect x="2357.428" y="57.63" style="clip-path:url(#SVGID_2_);fill:#D3349C;" width="219.272" height="2.246"/>
				<rect x="2357.428" y="59.875" style="clip-path:url(#SVGID_2_);fill:#D2339B;" width="219.272" height="2.246"/>
				<rect x="2357.428" y="62.121" style="clip-path:url(#SVGID_2_);fill:#D1339B;" width="219.272" height="2.246"/>
				<rect x="2357.428" y="64.367" style="clip-path:url(#SVGID_2_);fill:#D0339B;" width="219.272" height="2.246"/>
				<rect x="2357.428" y="66.613" style="clip-path:url(#SVGID_2_);fill:#CF339B;" width="219.272" height="2.246"/>
				<rect x="2357.428" y="68.858" style="clip-path:url(#SVGID_2_);fill:#CE329A;" width="219.272" height="2.246"/>
				<rect x="2357.428" y="71.104" style="clip-path:url(#SVGID_2_);fill:#CD329A;" width="219.272" height="2.246"/>
				<rect x="2357.428" y="73.35" style="clip-path:url(#SVGID_2_);fill:#CC329A;" width="219.272" height="2.246"/>
				<rect x="2357.428" y="75.596" style="clip-path:url(#SVGID_2_);fill:#CB3299;" width="219.272" height="2.246"/>
				<rect x="2357.428" y="77.841" style="clip-path:url(#SVGID_2_);fill:#CA3199;" width="219.272" height="2.246"/>
				<rect x="2357.428" y="80.087" style="clip-path:url(#SVGID_2_);fill:#C93199;" width="219.272" height="2.246"/>
				<rect x="2357.428" y="82.333" style="clip-path:url(#SVGID_2_);fill:#C83199;" width="219.272" height="2.246"/>
				<rect x="2357.428" y="84.579" style="clip-path:url(#SVGID_2_);fill:#C73098;" width="219.272" height="2.246"/>
				<rect x="2357.428" y="86.824" style="clip-path:url(#SVGID_2_);fill:#C63098;" width="219.272" height="2.246"/>
				<rect x="2357.428" y="89.07" style="clip-path:url(#SVGID_2_);fill:#C53098;" width="219.272" height="2.246"/>
				<rect x="2357.428" y="91.316" style="clip-path:url(#SVGID_2_);fill:#C43098;" width="219.272" height="2.246"/>
				<rect x="2357.428" y="93.562" style="clip-path:url(#SVGID_2_);fill:#C32F97;" width="219.272" height="2.246"/>
				<rect x="2357.428" y="95.807" style="clip-path:url(#SVGID_2_);fill:#C22F97;" width="219.272" height="2.246"/>
				<rect x="2357.428" y="98.053" style="clip-path:url(#SVGID_2_);fill:#C12F97;" width="219.272" height="2.246"/>
				<rect x="2357.428" y="100.299" style="clip-path:url(#SVGID_2_);fill:#C02F96;" width="219.272" height="2.246"/>
				<rect x="2357.428" y="102.545" style="clip-path:url(#SVGID_2_);fill:#BF2E96;" width="219.272" height="2.246"/>
				<rect x="2357.428" y="104.79" style="clip-path:url(#SVGID_2_);fill:#BE2E96;" width="219.272" height="2.246"/>
				<rect x="2357.428" y="107.036" style="clip-path:url(#SVGID_2_);fill:#BD2E96;" width="219.272" height="2.246"/>
				<rect x="2357.428" y="109.282" style="clip-path:url(#SVGID_2_);fill:#BC2E95;" width="219.272" height="2.246"/>
				<rect x="2357.428" y="111.528" style="clip-path:url(#SVGID_2_);fill:#BB2D95;" width="219.272" height="2.246"/>
				<rect x="2357.428" y="113.774" style="clip-path:url(#SVGID_2_);fill:#BA2D95;" width="219.272" height="2.246"/>
				<rect x="2357.428" y="116.019" style="clip-path:url(#SVGID_2_);fill:#B92D94;" width="219.272" height="2.246"/>
				<rect x="2357.428" y="118.265" style="clip-path:url(#SVGID_2_);fill:#B82C94;" width="219.272" height="2.246"/>
				<rect x="2357.428" y="120.511" style="clip-path:url(#SVGID_2_);fill:#B72C94;" width="219.272" height="2.246"/>
				<rect x="2357.428" y="122.757" style="clip-path:url(#SVGID_2_);fill:#B62C94;" width="219.272" height="2.246"/>
				<rect x="2357.428" y="125.002" style="clip-path:url(#SVGID_2_);fill:#B52C93;" width="219.272" height="2.246"/>
				<rect x="2357.428" y="127.248" style="clip-path:url(#SVGID_2_);fill:#B42B93;" width="219.272" height="2.246"/>
				<rect x="2357.428" y="129.494" style="clip-path:url(#SVGID_2_);fill:#B32B93;" width="219.272" height="2.246"/>
				<rect x="2357.428" y="131.74" style="clip-path:url(#SVGID_2_);fill:#B22B92;" width="219.272" height="2.246"/>
				<rect x="2357.428" y="133.985" style="clip-path:url(#SVGID_2_);fill:#B12B92;" width="219.272" height="2.246"/>
				<rect x="2357.428" y="136.231" style="clip-path:url(#SVGID_2_);fill:#B02A92;" width="219.272" height="2.246"/>
				<rect x="2357.428" y="138.477" style="clip-path:url(#SVGID_2_);fill:#AF2A92;" width="219.272" height="2.246"/>
				<rect x="2357.428" y="140.723" style="clip-path:url(#SVGID_2_);fill:#AE2A91;" width="219.272" height="2.246"/>
				<rect x="2357.428" y="142.968" style="clip-path:url(#SVGID_2_);fill:#AD2991;" width="219.272" height="2.246"/>
				<rect x="2357.428" y="145.214" style="clip-path:url(#SVGID_2_);fill:#AC2991;" width="219.272" height="2.246"/>
				<rect x="2357.428" y="147.46" style="clip-path:url(#SVGID_2_);fill:#AB2990;" width="219.272" height="2.246"/>
				<rect x="2357.428" y="149.706" style="clip-path:url(#SVGID_2_);fill:#AA2990;" width="219.272" height="2.246"/>
				<rect x="2357.428" y="151.951" style="clip-path:url(#SVGID_2_);fill:#A92890;" width="219.272" height="2.246"/>
				<rect x="2357.428" y="154.197" style="clip-path:url(#SVGID_2_);fill:#A82890;" width="219.272" height="2.246"/>
				<rect x="2357.428" y="156.443" style="clip-path:url(#SVGID_2_);fill:#A7288F;" width="219.272" height="2.246"/>
				<rect x="2357.428" y="158.689" style="clip-path:url(#SVGID_2_);fill:#A6288F;" width="219.272" height="2.246"/>
				<rect x="2357.428" y="160.934" style="clip-path:url(#SVGID_2_);fill:#A5278F;" width="219.272" height="2.246"/>
				<rect x="2357.428" y="163.18" style="clip-path:url(#SVGID_2_);fill:#A4278F;" width="219.272" height="2.246"/>
				<rect x="2357.428" y="165.426" style="clip-path:url(#SVGID_2_);fill:#A3278E;" width="219.272" height="2.246"/>
				<rect x="2357.428" y="167.672" style="clip-path:url(#SVGID_2_);fill:#A2278E;" width="219.272" height="2.246"/>
				<rect x="2357.428" y="169.918" style="clip-path:url(#SVGID_2_);fill:#A1268E;" width="219.272" height="2.246"/>
				<rect x="2357.428" y="172.163" style="clip-path:url(#SVGID_2_);fill:#A0268D;" width="219.272" height="2.246"/>
				<rect x="2357.428" y="174.409" style="clip-path:url(#SVGID_2_);fill:#9F268D;" width="219.272" height="2.246"/>
				<rect x="2357.428" y="176.655" style="clip-path:url(#SVGID_2_);fill:#9E258D;" width="219.272" height="2.246"/>
				<rect x="2357.428" y="178.901" style="clip-path:url(#SVGID_2_);fill:#9D258D;" width="219.272" height="2.246"/>
				<rect x="2357.428" y="181.146" style="clip-path:url(#SVGID_2_);fill:#9C258C;" width="219.272" height="2.246"/>
				<rect x="2357.428" y="183.392" style="clip-path:url(#SVGID_2_);fill:#9B258C;" width="219.272" height="2.246"/>
				<rect x="2357.428" y="185.638" style="clip-path:url(#SVGID_2_);fill:#9A248C;" width="219.272" height="2.246"/>
				<rect x="2357.428" y="187.884" style="clip-path:url(#SVGID_2_);fill:#99248B;" width="219.272" height="2.246"/>
				<rect x="2357.428" y="190.129" style="clip-path:url(#SVGID_2_);fill:#98248B;" width="219.272" height="2.246"/>
				<rect x="2357.428" y="192.375" style="clip-path:url(#SVGID_2_);fill:#97248B;" width="219.272" height="2.246"/>
				<rect x="2357.428" y="194.621" style="clip-path:url(#SVGID_2_);fill:#96238B;" width="219.272" height="2.246"/>
				<rect x="2357.428" y="196.867" style="clip-path:url(#SVGID_2_);fill:#95238A;" width="219.272" height="2.246"/>
				<rect x="2357.428" y="199.112" style="clip-path:url(#SVGID_2_);fill:#94238A;" width="219.272" height="2.246"/>
				<rect x="2357.428" y="201.358" style="clip-path:url(#SVGID_2_);fill:#93228A;" width="219.272" height="2.246"/>
				<rect x="2357.428" y="203.604" style="clip-path:url(#SVGID_2_);fill:#922289;" width="219.272" height="2.246"/>
				<rect x="2357.428" y="205.85" style="clip-path:url(#SVGID_2_);fill:#912289;" width="219.272" height="2.246"/>
				<rect x="2357.428" y="208.095" style="clip-path:url(#SVGID_2_);fill:#902289;" width="219.272" height="2.246"/>
				<rect x="2357.428" y="210.341" style="clip-path:url(#SVGID_2_);fill:#8F2189;" width="219.272" height="2.246"/>
				<rect x="2357.428" y="212.587" style="clip-path:url(#SVGID_2_);fill:#8E2188;" width="219.272" height="2.246"/>
				<rect x="2357.428" y="214.833" style="clip-path:url(#SVGID_2_);fill:#8D2188;" width="219.272" height="2.246"/>
				<rect x="2357.428" y="217.078" style="clip-path:url(#SVGID_2_);fill:#8C2188;" width="219.272" height="2.246"/>
				<rect x="2357.428" y="219.324" style="clip-path:url(#SVGID_2_);fill:#8B2087;" width="219.272" height="2.246"/>
				<rect x="2357.428" y="221.57" style="clip-path:url(#SVGID_2_);fill:#8A2087;" width="219.272" height="2.246"/>
				<rect x="2357.428" y="223.816" style="clip-path:url(#SVGID_2_);fill:#892087;" width="219.272" height="2.246"/>
				<rect x="2357.428" y="226.061" style="clip-path:url(#SVGID_2_);fill:#882087;" width="219.272" height="2.246"/>
				<rect x="2357.428" y="228.307" style="clip-path:url(#SVGID_2_);fill:#871F86;" width="219.272" height="2.246"/>
				<rect x="2357.428" y="230.553" style="clip-path:url(#SVGID_2_);fill:#861F86;" width="219.272" height="2.246"/>
				<rect x="2357.428" y="232.799" style="clip-path:url(#SVGID_2_);fill:#851F86;" width="219.272" height="2.246"/>
				<rect x="2357.428" y="235.045" style="clip-path:url(#SVGID_2_);fill:#841E86;" width="219.272" height="2.246"/>
				<rect x="2357.428" y="237.29" style="clip-path:url(#SVGID_2_);fill:#831E85;" width="219.272" height="2.246"/>
				<rect x="2357.428" y="239.536" style="clip-path:url(#SVGID_2_);fill:#821E85;" width="219.272" height="2.246"/>
				<rect x="2357.428" y="241.782" style="clip-path:url(#SVGID_2_);fill:#811E85;" width="219.272" height="2.246"/>
				<rect x="2357.428" y="244.028" style="clip-path:url(#SVGID_2_);fill:#801D84;" width="219.272" height="2.246"/>
				<rect x="2357.428" y="246.273" style="clip-path:url(#SVGID_2_);fill:#7F1D84;" width="219.272" height="2.246"/>
				<rect x="2357.428" y="248.519" style="clip-path:url(#SVGID_2_);fill:#7E1D84;" width="219.272" height="2.246"/>
				<rect x="2357.428" y="250.765" style="clip-path:url(#SVGID_2_);fill:#7D1D84;" width="219.272" height="2.246"/>
				<rect x="2357.428" y="253.011" style="clip-path:url(#SVGID_2_);fill:#7C1C83;" width="219.272" height="2.246"/>
				<rect x="2357.428" y="255.256" style="clip-path:url(#SVGID_2_);fill:#7B1C83;" width="219.272" height="2.246"/>
				<rect x="2357.428" y="257.502" style="clip-path:url(#SVGID_2_);fill:#791C83;" width="219.272" height="2.246"/>
				<rect x="2357.428" y="259.748" style="clip-path:url(#SVGID_2_);fill:#781B82;" width="219.272" height="2.246"/>
				<rect x="2357.428" y="261.994" style="clip-path:url(#SVGID_2_);fill:#771B82;" width="219.272" height="2.246"/>
				<rect x="2357.428" y="264.239" style="clip-path:url(#SVGID_2_);fill:#761B82;" width="219.272" height="2.246"/>
				<rect x="2357.428" y="266.485" style="clip-path:url(#SVGID_2_);fill:#751B82;" width="219.272" height="2.246"/>
				<rect x="2357.428" y="268.731" style="clip-path:url(#SVGID_2_);fill:#741A81;" width="219.272" height="2.246"/>
				<rect x="2357.428" y="270.977" style="clip-path:url(#SVGID_2_);fill:#731A81;" width="219.272" height="2.246"/>
				<rect x="2357.428" y="273.222" style="clip-path:url(#SVGID_2_);fill:#721A81;" width="219.272" height="2.246"/>
				<rect x="2357.428" y="275.468" style="clip-path:url(#SVGID_2_);fill:#711A80;" width="219.272" height="2.246"/>
				<rect x="2357.428" y="277.714" style="clip-path:url(#SVGID_2_);fill:#701980;" width="219.272" height="2.246"/>
				<rect x="2357.428" y="279.96" style="clip-path:url(#SVGID_2_);fill:#6F1980;" width="219.272" height="2.246"/>
				<rect x="2357.428" y="282.205" style="clip-path:url(#SVGID_2_);fill:#6E1980;" width="219.272" height="2.246"/>
				<rect x="2357.428" y="284.451" style="clip-path:url(#SVGID_2_);fill:#6D187F;" width="219.272" height="2.246"/>
				<rect x="2357.428" y="286.697" style="clip-path:url(#SVGID_2_);fill:#6C187F;" width="219.272" height="2.246"/>
				<rect x="2357.428" y="288.943" style="clip-path:url(#SVGID_2_);fill:#6B187F;" width="219.272" height="2.246"/>
				<rect x="2357.428" y="291.189" style="clip-path:url(#SVGID_2_);fill:#6A187F;" width="219.272" height="2.246"/>
				<rect x="2357.428" y="293.434" style="clip-path:url(#SVGID_2_);fill:#69177E;" width="219.272" height="2.246"/>
				<rect x="2357.428" y="295.68" style="clip-path:url(#SVGID_2_);fill:#68177E;" width="219.272" height="2.246"/>
				<rect x="2357.428" y="297.926" style="clip-path:url(#SVGID_2_);fill:#67177E;" width="219.272" height="2.246"/>
				<rect x="2357.428" y="300.172" style="clip-path:url(#SVGID_2_);fill:#66177D;" width="219.272" height="2.246"/>
				<rect x="2357.428" y="302.417" style="clip-path:url(#SVGID_2_);fill:#65167D;" width="219.272" height="2.246"/>
				<rect x="2357.428" y="304.663" style="clip-path:url(#SVGID_2_);fill:#64167D;" width="219.272" height="2.246"/>
				<rect x="2357.428" y="306.909" style="clip-path:url(#SVGID_2_);fill:#63167D;" width="219.272" height="2.246"/>
				<rect x="2357.428" y="309.155" style="clip-path:url(#SVGID_2_);fill:#62167C;" width="219.272" height="2.246"/>
				<rect x="2357.428" y="311.4" style="clip-path:url(#SVGID_2_);fill:#61157C;" width="219.272" height="2.246"/>
				<rect x="2357.428" y="313.646" style="clip-path:url(#SVGID_2_);fill:#60157C;" width="219.272" height="2.246"/>
				<rect x="2357.428" y="315.892" style="clip-path:url(#SVGID_2_);fill:#5F157B;" width="219.272" height="2.246"/>
				<rect x="2357.428" y="318.138" style="clip-path:url(#SVGID_2_);fill:#5E147B;" width="219.272" height="2.246"/>
				<rect x="2357.428" y="320.383" style="clip-path:url(#SVGID_2_);fill:#5D147B;" width="219.272" height="2.246"/>
				<rect x="2357.428" y="322.629" style="clip-path:url(#SVGID_2_);fill:#5C147B;" width="219.272" height="2.246"/>
				<rect x="2357.428" y="324.875" style="clip-path:url(#SVGID_2_);fill:#5B147A;" width="219.272" height="2.246"/>
				<rect x="2357.428" y="327.121" style="clip-path:url(#SVGID_2_);fill:#5A137A;" width="219.272" height="2.246"/>
				<rect x="2357.428" y="329.366" style="clip-path:url(#SVGID_2_);fill:#59137A;" width="219.272" height="2.246"/>
				<rect x="2357.428" y="331.612" style="clip-path:url(#SVGID_2_);fill:#581379;" width="219.272" height="2.246"/>
				<rect x="2357.428" y="333.858" style="clip-path:url(#SVGID_2_);fill:#571379;" width="219.272" height="2.246"/>
				<rect x="2357.428" y="336.104" style="clip-path:url(#SVGID_2_);fill:#561279;" width="219.272" height="2.246"/>
				<rect x="2357.428" y="338.349" style="clip-path:url(#SVGID_2_);fill:#551279;" width="219.272" height="2.246"/>
				<rect x="2357.428" y="340.595" style="clip-path:url(#SVGID_2_);fill:#541278;" width="219.272" height="2.246"/>
				<rect x="2357.428" y="342.841" style="clip-path:url(#SVGID_2_);fill:#531178;" width="219.272" height="2.246"/>
				<rect x="2357.428" y="345.087" style="clip-path:url(#SVGID_2_);fill:#521178;" width="219.272" height="2.246"/>
				<rect x="2357.428" y="347.333" style="clip-path:url(#SVGID_2_);fill:#511177;" width="219.272" height="2.246"/>
				<rect x="2357.428" y="349.578" style="clip-path:url(#SVGID_2_);fill:#501177;" width="219.272" height="2.246"/>
				<rect x="2357.428" y="351.824" style="clip-path:url(#SVGID_2_);fill:#4F1077;" width="219.272" height="2.246"/>
				<rect x="2357.428" y="354.07" style="clip-path:url(#SVGID_2_);fill:#4E1077;" width="219.272" height="2.246"/>
				<rect x="2357.428" y="356.316" style="clip-path:url(#SVGID_2_);fill:#4D1076;" width="219.272" height="2.246"/>
				<rect x="2357.428" y="358.561" style="clip-path:url(#SVGID_2_);fill:#4C1076;" width="219.272" height="2.246"/>
				<rect x="2357.428" y="360.807" style="clip-path:url(#SVGID_2_);fill:#4B0F76;" width="219.272" height="2.246"/>
				<rect x="2357.428" y="363.053" style="clip-path:url(#SVGID_2_);fill:#4A0F76;" width="219.272" height="2.246"/>
				<rect x="2357.428" y="365.299" style="clip-path:url(#SVGID_2_);fill:#490F75;" width="219.272" height="2.246"/>
				<rect x="2357.428" y="367.544" style="clip-path:url(#SVGID_2_);fill:#480F75;" width="219.272" height="2.246"/>
				<rect x="2357.428" y="369.79" style="clip-path:url(#SVGID_2_);fill:#470E75;" width="219.272" height="2.246"/>
				<rect x="2357.428" y="372.036" style="clip-path:url(#SVGID_2_);fill:#460E74;" width="219.272" height="2.246"/>
				<rect x="2357.428" y="374.282" style="clip-path:url(#SVGID_2_);fill:#450E74;" width="219.272" height="2.246"/>
				<rect x="2357.428" y="376.527" style="clip-path:url(#SVGID_2_);fill:#440D74;" width="219.272" height="2.246"/>
				<rect x="2357.428" y="378.773" style="clip-path:url(#SVGID_2_);fill:#430D74;" width="219.272" height="2.246"/>
				<rect x="2357.428" y="381.019" style="clip-path:url(#SVGID_2_);fill:#420D73;" width="219.272" height="2.246"/>
				<rect x="2357.428" y="383.265" style="clip-path:url(#SVGID_2_);fill:#410D73;" width="219.272" height="2.246"/>
				<rect x="2357.428" y="385.51" style="clip-path:url(#SVGID_2_);fill:#400C73;" width="219.272" height="2.246"/>
				<rect x="2357.428" y="387.756" style="clip-path:url(#SVGID_2_);fill:#3F0C72;" width="219.272" height="2.246"/>
				<rect x="2357.428" y="390.002" style="clip-path:url(#SVGID_2_);fill:#3E0C72;" width="219.272" height="2.246"/>
				<rect x="2357.428" y="392.248" style="clip-path:url(#SVGID_2_);fill:#3D0C72;" width="219.272" height="2.246"/>
				<rect x="2357.428" y="394.493" style="clip-path:url(#SVGID_2_);fill:#3C0B72;" width="219.272" height="2.246"/>
				<rect x="2357.428" y="396.739" style="clip-path:url(#SVGID_2_);fill:#3B0B71;" width="219.272" height="2.246"/>
				<rect x="2357.428" y="398.985" style="clip-path:url(#SVGID_2_);fill:#3A0B71;" width="219.272" height="2.246"/>
				<rect x="2357.428" y="401.231" style="clip-path:url(#SVGID_2_);fill:#390A71;" width="219.272" height="2.246"/>
				<rect x="2357.428" y="403.477" style="clip-path:url(#SVGID_2_);fill:#380A70;" width="219.272" height="2.246"/>
				<rect x="2357.428" y="405.722" style="clip-path:url(#SVGID_2_);fill:#370A70;" width="219.272" height="2.246"/>
				<rect x="2357.428" y="407.968" style="clip-path:url(#SVGID_2_);fill:#360A70;" width="219.272" height="2.246"/>
				<rect x="2357.428" y="410.214" style="clip-path:url(#SVGID_2_);fill:#350970;" width="219.272" height="2.246"/>
				<rect x="2357.428" y="412.46" style="clip-path:url(#SVGID_2_);fill:#34096F;" width="219.272" height="2.246"/>
				<rect x="2357.428" y="414.705" style="clip-path:url(#SVGID_2_);fill:#33096F;" width="219.272" height="2.246"/>
				<rect x="2357.428" y="416.951" style="clip-path:url(#SVGID_2_);fill:#32096F;" width="219.272" height="2.246"/>
				<rect x="2357.428" y="419.197" style="clip-path:url(#SVGID_2_);fill:#31086E;" width="219.272" height="2.246"/>
				<rect x="2357.428" y="421.443" style="clip-path:url(#SVGID_2_);fill:#30086E;" width="219.272" height="2.246"/>
				<rect x="2357.428" y="423.688" style="clip-path:url(#SVGID_2_);fill:#2F086E;" width="219.272" height="2.246"/>
				<rect x="2357.428" y="425.934" style="clip-path:url(#SVGID_2_);fill:#2E086E;" width="219.272" height="2.246"/>
				<rect x="2357.428" y="428.18" style="clip-path:url(#SVGID_2_);fill:#2D076D;" width="219.272" height="2.246"/>
				<rect x="2357.428" y="430.426" style="clip-path:url(#SVGID_2_);fill:#2C076D;" width="219.272" height="2.246"/>
				<rect x="2357.428" y="432.671" style="clip-path:url(#SVGID_2_);fill:#2B076D;" width="219.272" height="2.246"/>
				<rect x="2357.428" y="434.917" style="clip-path:url(#SVGID_2_);fill:#2A066D;" width="219.272" height="2.246"/>
				<rect x="2357.428" y="437.163" style="clip-path:url(#SVGID_2_);fill:#29066C;" width="219.272" height="2.246"/>
				<rect x="2357.428" y="439.409" style="clip-path:url(#SVGID_2_);fill:#28066C;" width="219.272" height="2.246"/>
				<rect x="2357.428" y="441.654" style="clip-path:url(#SVGID_2_);fill:#27066C;" width="219.272" height="2.246"/>
				<rect x="2357.428" y="443.9" style="clip-path:url(#SVGID_2_);fill:#26056B;" width="219.272" height="2.246"/>
				<rect x="2357.428" y="446.146" style="clip-path:url(#SVGID_2_);fill:#25056B;" width="219.272" height="2.246"/>
				<rect x="2357.428" y="448.392" style="clip-path:url(#SVGID_2_);fill:#24056B;" width="219.272" height="2.246"/>
				<rect x="2357.428" y="450.637" style="clip-path:url(#SVGID_2_);fill:#23056B;" width="219.272" height="2.246"/>
				<rect x="2357.428" y="452.883" style="clip-path:url(#SVGID_2_);fill:#22046A;" width="219.272" height="2.246"/>
				<rect x="2357.428" y="455.129" style="clip-path:url(#SVGID_2_);fill:#21046A;" width="219.272" height="2.246"/>
			</g>
		</g>
		<g>
			<g>
				<defs>
					<path id="SVGID_3_" d="M2117.597,258.664c10.656,10.656,23.599,15.986,38.828,15.986h63.953c7.61,0,14.089,2.664,19.41,7.994
						c5.332,5.33,7.994,11.801,7.994,19.417v9.132c0,20.177-7.139,37.401-21.409,51.678c-14.271,14.272-31.497,21.411-51.682,21.411
						h-18.267c-4.949,0-9.233,1.809-12.848,5.424c-3.613,3.617-5.428,7.898-5.428,12.847v36.548c0,4.948,1.814,9.233,5.428,12.85
						c3.614,3.612,7.898,5.424,12.848,5.424h18.267c19.808,0,38.691-3.858,56.685-11.563c17.984-7.71,33.537-18.132,46.672-31.267
						c13.135-13.129,23.559-28.688,31.265-46.677c7.707-17.987,11.567-36.879,11.567-56.674V110.203
						c0-15.235-5.332-28.171-15.988-38.834c-10.657-10.657-23.6-15.985-38.828-15.985h-109.633
						c-15.229,0-28.171,5.328-38.827,15.985c-10.664,10.663-15.985,23.599-15.985,38.834v109.629
						C2101.618,235.065,2106.94,248,2117.597,258.664z"/>
				</defs>
				<clipPath id="SVGID_4_">
					<use xlink:href="#SVGID_3_"  style="overflow:visible;"/>
				</clipPath>
				<rect x="2101.618" y="55.384" style="clip-path:url(#SVGID_4_);fill:#D4349C;" width="219.262" height="2.246"/>
				<rect x="2101.618" y="57.63" style="clip-path:url(#SVGID_4_);fill:#D3349C;" width="219.262" height="2.246"/>
				<rect x="2101.618" y="59.875" style="clip-path:url(#SVGID_4_);fill:#D2339B;" width="219.262" height="2.246"/>
				<rect x="2101.618" y="62.121" style="clip-path:url(#SVGID_4_);fill:#D1339B;" width="219.262" height="2.246"/>
				<rect x="2101.618" y="64.367" style="clip-path:url(#SVGID_4_);fill:#D0339B;" width="219.262" height="2.246"/>
				<rect x="2101.618" y="66.613" style="clip-path:url(#SVGID_4_);fill:#CF339B;" width="219.262" height="2.246"/>
				<rect x="2101.618" y="68.858" style="clip-path:url(#SVGID_4_);fill:#CE329A;" width="219.262" height="2.246"/>
				<rect x="2101.618" y="71.104" style="clip-path:url(#SVGID_4_);fill:#CD329A;" width="219.262" height="2.246"/>
				<rect x="2101.618" y="73.35" style="clip-path:url(#SVGID_4_);fill:#CC329A;" width="219.262" height="2.246"/>
				<rect x="2101.618" y="75.596" style="clip-path:url(#SVGID_4_);fill:#CB3299;" width="219.262" height="2.246"/>
				<rect x="2101.618" y="77.841" style="clip-path:url(#SVGID_4_);fill:#CA3199;" width="219.262" height="2.246"/>
				<rect x="2101.618" y="80.087" style="clip-path:url(#SVGID_4_);fill:#C93199;" width="219.262" height="2.246"/>
				<rect x="2101.618" y="82.333" style="clip-path:url(#SVGID_4_);fill:#C83199;" width="219.262" height="2.246"/>
				<rect x="2101.618" y="84.579" style="clip-path:url(#SVGID_4_);fill:#C73098;" width="219.262" height="2.246"/>
				<rect x="2101.618" y="86.824" style="clip-path:url(#SVGID_4_);fill:#C63098;" width="219.262" height="2.246"/>
				<rect x="2101.618" y="89.07" style="clip-path:url(#SVGID_4_);fill:#C53098;" width="219.262" height="2.246"/>
				<rect x="2101.618" y="91.316" style="clip-path:url(#SVGID_4_);fill:#C43098;" width="219.262" height="2.246"/>
				<rect x="2101.618" y="93.562" style="clip-path:url(#SVGID_4_);fill:#C32F97;" width="219.262" height="2.246"/>
				<rect x="2101.618" y="95.807" style="clip-path:url(#SVGID_4_);fill:#C22F97;" width="219.262" height="2.246"/>
				<rect x="2101.618" y="98.053" style="clip-path:url(#SVGID_4_);fill:#C12F97;" width="219.262" height="2.246"/>
				<rect x="2101.618" y="100.299" style="clip-path:url(#SVGID_4_);fill:#C02F96;" width="219.262" height="2.246"/>
				<rect x="2101.618" y="102.545" style="clip-path:url(#SVGID_4_);fill:#BF2E96;" width="219.262" height="2.246"/>
				<rect x="2101.618" y="104.79" style="clip-path:url(#SVGID_4_);fill:#BE2E96;" width="219.262" height="2.246"/>
				<rect x="2101.618" y="107.036" style="clip-path:url(#SVGID_4_);fill:#BD2E96;" width="219.262" height="2.246"/>
				<rect x="2101.618" y="109.282" style="clip-path:url(#SVGID_4_);fill:#BC2E95;" width="219.262" height="2.246"/>
				<rect x="2101.618" y="111.528" style="clip-path:url(#SVGID_4_);fill:#BB2D95;" width="219.262" height="2.246"/>
				<rect x="2101.618" y="113.774" style="clip-path:url(#SVGID_4_);fill:#BA2D95;" width="219.262" height="2.246"/>
				<rect x="2101.618" y="116.019" style="clip-path:url(#SVGID_4_);fill:#B92D94;" width="219.262" height="2.246"/>
				<rect x="2101.618" y="118.265" style="clip-path:url(#SVGID_4_);fill:#B82C94;" width="219.262" height="2.246"/>
				<rect x="2101.618" y="120.511" style="clip-path:url(#SVGID_4_);fill:#B72C94;" width="219.262" height="2.246"/>
				<rect x="2101.618" y="122.757" style="clip-path:url(#SVGID_4_);fill:#B62C94;" width="219.262" height="2.246"/>
				<rect x="2101.618" y="125.002" style="clip-path:url(#SVGID_4_);fill:#B52C93;" width="219.262" height="2.246"/>
				<rect x="2101.618" y="127.248" style="clip-path:url(#SVGID_4_);fill:#B42B93;" width="219.262" height="2.246"/>
				<rect x="2101.618" y="129.494" style="clip-path:url(#SVGID_4_);fill:#B32B93;" width="219.262" height="2.246"/>
				<rect x="2101.618" y="131.74" style="clip-path:url(#SVGID_4_);fill:#B22B92;" width="219.262" height="2.246"/>
				<rect x="2101.618" y="133.985" style="clip-path:url(#SVGID_4_);fill:#B12B92;" width="219.262" height="2.246"/>
				<rect x="2101.618" y="136.231" style="clip-path:url(#SVGID_4_);fill:#B02A92;" width="219.262" height="2.246"/>
				<rect x="2101.618" y="138.477" style="clip-path:url(#SVGID_4_);fill:#AF2A92;" width="219.262" height="2.246"/>
				<rect x="2101.618" y="140.723" style="clip-path:url(#SVGID_4_);fill:#AE2A91;" width="219.262" height="2.246"/>
				<rect x="2101.618" y="142.968" style="clip-path:url(#SVGID_4_);fill:#AD2991;" width="219.262" height="2.246"/>
				<rect x="2101.618" y="145.214" style="clip-path:url(#SVGID_4_);fill:#AC2991;" width="219.262" height="2.246"/>
				<rect x="2101.618" y="147.46" style="clip-path:url(#SVGID_4_);fill:#AB2990;" width="219.262" height="2.246"/>
				<rect x="2101.618" y="149.706" style="clip-path:url(#SVGID_4_);fill:#AA2990;" width="219.262" height="2.246"/>
				<rect x="2101.618" y="151.951" style="clip-path:url(#SVGID_4_);fill:#A92890;" width="219.262" height="2.246"/>
				<rect x="2101.618" y="154.197" style="clip-path:url(#SVGID_4_);fill:#A82890;" width="219.262" height="2.246"/>
				<rect x="2101.618" y="156.443" style="clip-path:url(#SVGID_4_);fill:#A7288F;" width="219.262" height="2.246"/>
				<rect x="2101.618" y="158.689" style="clip-path:url(#SVGID_4_);fill:#A6288F;" width="219.262" height="2.246"/>
				<rect x="2101.618" y="160.934" style="clip-path:url(#SVGID_4_);fill:#A5278F;" width="219.262" height="2.246"/>
				<rect x="2101.618" y="163.18" style="clip-path:url(#SVGID_4_);fill:#A4278F;" width="219.262" height="2.246"/>
				<rect x="2101.618" y="165.426" style="clip-path:url(#SVGID_4_);fill:#A3278E;" width="219.262" height="2.246"/>
				<rect x="2101.618" y="167.672" style="clip-path:url(#SVGID_4_);fill:#A2278E;" width="219.262" height="2.246"/>
				<rect x="2101.618" y="169.918" style="clip-path:url(#SVGID_4_);fill:#A1268E;" width="219.262" height="2.246"/>
				<rect x="2101.618" y="172.163" style="clip-path:url(#SVGID_4_);fill:#A0268D;" width="219.262" height="2.246"/>
				<rect x="2101.618" y="174.409" style="clip-path:url(#SVGID_4_);fill:#9F268D;" width="219.262" height="2.246"/>
				<rect x="2101.618" y="176.655" style="clip-path:url(#SVGID_4_);fill:#9E258D;" width="219.262" height="2.246"/>
				<rect x="2101.618" y="178.901" style="clip-path:url(#SVGID_4_);fill:#9D258D;" width="219.262" height="2.246"/>
				<rect x="2101.618" y="181.146" style="clip-path:url(#SVGID_4_);fill:#9C258C;" width="219.262" height="2.246"/>
				<rect x="2101.618" y="183.392" style="clip-path:url(#SVGID_4_);fill:#9B258C;" width="219.262" height="2.246"/>
				<rect x="2101.618" y="185.638" style="clip-path:url(#SVGID_4_);fill:#9A248C;" width="219.262" height="2.246"/>
				<rect x="2101.618" y="187.884" style="clip-path:url(#SVGID_4_);fill:#99248B;" width="219.262" height="2.246"/>
				<rect x="2101.618" y="190.129" style="clip-path:url(#SVGID_4_);fill:#98248B;" width="219.262" height="2.246"/>
				<rect x="2101.618" y="192.375" style="clip-path:url(#SVGID_4_);fill:#97248B;" width="219.262" height="2.246"/>
				<rect x="2101.618" y="194.621" style="clip-path:url(#SVGID_4_);fill:#96238B;" width="219.262" height="2.246"/>
				<rect x="2101.618" y="196.867" style="clip-path:url(#SVGID_4_);fill:#95238A;" width="219.262" height="2.246"/>
				<rect x="2101.618" y="199.112" style="clip-path:url(#SVGID_4_);fill:#94238A;" width="219.262" height="2.246"/>
				<rect x="2101.618" y="201.358" style="clip-path:url(#SVGID_4_);fill:#93228A;" width="219.262" height="2.246"/>
				<rect x="2101.618" y="203.604" style="clip-path:url(#SVGID_4_);fill:#922289;" width="219.262" height="2.246"/>
				<rect x="2101.618" y="205.85" style="clip-path:url(#SVGID_4_);fill:#912289;" width="219.262" height="2.246"/>
				<rect x="2101.618" y="208.095" style="clip-path:url(#SVGID_4_);fill:#902289;" width="219.262" height="2.246"/>
				<rect x="2101.618" y="210.341" style="clip-path:url(#SVGID_4_);fill:#8F2189;" width="219.262" height="2.246"/>
				<rect x="2101.618" y="212.587" style="clip-path:url(#SVGID_4_);fill:#8E2188;" width="219.262" height="2.246"/>
				<rect x="2101.618" y="214.833" style="clip-path:url(#SVGID_4_);fill:#8D2188;" width="219.262" height="2.246"/>
				<rect x="2101.618" y="217.078" style="clip-path:url(#SVGID_4_);fill:#8C2188;" width="219.262" height="2.246"/>
				<rect x="2101.618" y="219.324" style="clip-path:url(#SVGID_4_);fill:#8B2087;" width="219.262" height="2.246"/>
				<rect x="2101.618" y="221.57" style="clip-path:url(#SVGID_4_);fill:#8A2087;" width="219.262" height="2.246"/>
				<rect x="2101.618" y="223.816" style="clip-path:url(#SVGID_4_);fill:#892087;" width="219.262" height="2.246"/>
				<rect x="2101.618" y="226.061" style="clip-path:url(#SVGID_4_);fill:#882087;" width="219.262" height="2.246"/>
				<rect x="2101.618" y="228.307" style="clip-path:url(#SVGID_4_);fill:#871F86;" width="219.262" height="2.246"/>
				<rect x="2101.618" y="230.553" style="clip-path:url(#SVGID_4_);fill:#861F86;" width="219.262" height="2.246"/>
				<rect x="2101.618" y="232.799" style="clip-path:url(#SVGID_4_);fill:#851F86;" width="219.262" height="2.246"/>
				<rect x="2101.618" y="235.045" style="clip-path:url(#SVGID_4_);fill:#841E86;" width="219.262" height="2.246"/>
				<rect x="2101.618" y="237.29" style="clip-path:url(#SVGID_4_);fill:#831E85;" width="219.262" height="2.246"/>
				<rect x="2101.618" y="239.536" style="clip-path:url(#SVGID_4_);fill:#821E85;" width="219.262" height="2.246"/>
				<rect x="2101.618" y="241.782" style="clip-path:url(#SVGID_4_);fill:#811E85;" width="219.262" height="2.246"/>
				<rect x="2101.618" y="244.028" style="clip-path:url(#SVGID_4_);fill:#801D84;" width="219.262" height="2.246"/>
				<rect x="2101.618" y="246.273" style="clip-path:url(#SVGID_4_);fill:#7F1D84;" width="219.262" height="2.246"/>
				<rect x="2101.618" y="248.519" style="clip-path:url(#SVGID_4_);fill:#7E1D84;" width="219.262" height="2.246"/>
				<rect x="2101.618" y="250.765" style="clip-path:url(#SVGID_4_);fill:#7D1D84;" width="219.262" height="2.246"/>
				<rect x="2101.618" y="253.011" style="clip-path:url(#SVGID_4_);fill:#7C1C83;" width="219.262" height="2.246"/>
				<rect x="2101.618" y="255.256" style="clip-path:url(#SVGID_4_);fill:#7B1C83;" width="219.262" height="2.246"/>
				<rect x="2101.618" y="257.502" style="clip-path:url(#SVGID_4_);fill:#791C83;" width="219.262" height="2.246"/>
				<rect x="2101.618" y="259.748" style="clip-path:url(#SVGID_4_);fill:#781B82;" width="219.262" height="2.246"/>
				<rect x="2101.618" y="261.994" style="clip-path:url(#SVGID_4_);fill:#771B82;" width="219.262" height="2.246"/>
				<rect x="2101.618" y="264.239" style="clip-path:url(#SVGID_4_);fill:#761B82;" width="219.262" height="2.246"/>
				<rect x="2101.618" y="266.485" style="clip-path:url(#SVGID_4_);fill:#751B82;" width="219.262" height="2.246"/>
				<rect x="2101.618" y="268.731" style="clip-path:url(#SVGID_4_);fill:#741A81;" width="219.262" height="2.246"/>
				<rect x="2101.618" y="270.977" style="clip-path:url(#SVGID_4_);fill:#731A81;" width="219.262" height="2.246"/>
				<rect x="2101.618" y="273.222" style="clip-path:url(#SVGID_4_);fill:#721A81;" width="219.262" height="2.246"/>
				<rect x="2101.618" y="275.468" style="clip-path:url(#SVGID_4_);fill:#711A80;" width="219.262" height="2.246"/>
				<rect x="2101.618" y="277.714" style="clip-path:url(#SVGID_4_);fill:#701980;" width="219.262" height="2.246"/>
				<rect x="2101.618" y="279.96" style="clip-path:url(#SVGID_4_);fill:#6F1980;" width="219.262" height="2.246"/>
				<rect x="2101.618" y="282.205" style="clip-path:url(#SVGID_4_);fill:#6E1980;" width="219.262" height="2.246"/>
				<rect x="2101.618" y="284.451" style="clip-path:url(#SVGID_4_);fill:#6D187F;" width="219.262" height="2.246"/>
				<rect x="2101.618" y="286.697" style="clip-path:url(#SVGID_4_);fill:#6C187F;" width="219.262" height="2.246"/>
				<rect x="2101.618" y="288.943" style="clip-path:url(#SVGID_4_);fill:#6B187F;" width="219.262" height="2.246"/>
				<rect x="2101.618" y="291.189" style="clip-path:url(#SVGID_4_);fill:#6A187F;" width="219.262" height="2.246"/>
				<rect x="2101.618" y="293.434" style="clip-path:url(#SVGID_4_);fill:#69177E;" width="219.262" height="2.246"/>
				<rect x="2101.618" y="295.68" style="clip-path:url(#SVGID_4_);fill:#68177E;" width="219.262" height="2.246"/>
				<rect x="2101.618" y="297.926" style="clip-path:url(#SVGID_4_);fill:#67177E;" width="219.262" height="2.246"/>
				<rect x="2101.618" y="300.172" style="clip-path:url(#SVGID_4_);fill:#66177D;" width="219.262" height="2.246"/>
				<rect x="2101.618" y="302.417" style="clip-path:url(#SVGID_4_);fill:#65167D;" width="219.262" height="2.246"/>
				<rect x="2101.618" y="304.663" style="clip-path:url(#SVGID_4_);fill:#64167D;" width="219.262" height="2.246"/>
				<rect x="2101.618" y="306.909" style="clip-path:url(#SVGID_4_);fill:#63167D;" width="219.262" height="2.246"/>
				<rect x="2101.618" y="309.155" style="clip-path:url(#SVGID_4_);fill:#62167C;" width="219.262" height="2.246"/>
				<rect x="2101.618" y="311.4" style="clip-path:url(#SVGID_4_);fill:#61157C;" width="219.262" height="2.246"/>
				<rect x="2101.618" y="313.646" style="clip-path:url(#SVGID_4_);fill:#60157C;" width="219.262" height="2.246"/>
				<rect x="2101.618" y="315.892" style="clip-path:url(#SVGID_4_);fill:#5F157B;" width="219.262" height="2.246"/>
				<rect x="2101.618" y="318.138" style="clip-path:url(#SVGID_4_);fill:#5E147B;" width="219.262" height="2.246"/>
				<rect x="2101.618" y="320.383" style="clip-path:url(#SVGID_4_);fill:#5D147B;" width="219.262" height="2.246"/>
				<rect x="2101.618" y="322.629" style="clip-path:url(#SVGID_4_);fill:#5C147B;" width="219.262" height="2.246"/>
				<rect x="2101.618" y="324.875" style="clip-path:url(#SVGID_4_);fill:#5B147A;" width="219.262" height="2.246"/>
				<rect x="2101.618" y="327.121" style="clip-path:url(#SVGID_4_);fill:#5A137A;" width="219.262" height="2.246"/>
				<rect x="2101.618" y="329.366" style="clip-path:url(#SVGID_4_);fill:#59137A;" width="219.262" height="2.246"/>
				<rect x="2101.618" y="331.612" style="clip-path:url(#SVGID_4_);fill:#581379;" width="219.262" height="2.246"/>
				<rect x="2101.618" y="333.858" style="clip-path:url(#SVGID_4_);fill:#571379;" width="219.262" height="2.246"/>
				<rect x="2101.618" y="336.104" style="clip-path:url(#SVGID_4_);fill:#561279;" width="219.262" height="2.246"/>
				<rect x="2101.618" y="338.349" style="clip-path:url(#SVGID_4_);fill:#551279;" width="219.262" height="2.246"/>
				<rect x="2101.618" y="340.595" style="clip-path:url(#SVGID_4_);fill:#541278;" width="219.262" height="2.246"/>
				<rect x="2101.618" y="342.841" style="clip-path:url(#SVGID_4_);fill:#531178;" width="219.262" height="2.246"/>
				<rect x="2101.618" y="345.087" style="clip-path:url(#SVGID_4_);fill:#521178;" width="219.262" height="2.246"/>
				<rect x="2101.618" y="347.333" style="clip-path:url(#SVGID_4_);fill:#511177;" width="219.262" height="2.246"/>
				<rect x="2101.618" y="349.578" style="clip-path:url(#SVGID_4_);fill:#501177;" width="219.262" height="2.246"/>
				<rect x="2101.618" y="351.824" style="clip-path:url(#SVGID_4_);fill:#4F1077;" width="219.262" height="2.246"/>
				<rect x="2101.618" y="354.07" style="clip-path:url(#SVGID_4_);fill:#4E1077;" width="219.262" height="2.246"/>
				<rect x="2101.618" y="356.316" style="clip-path:url(#SVGID_4_);fill:#4D1076;" width="219.262" height="2.246"/>
				<rect x="2101.618" y="358.561" style="clip-path:url(#SVGID_4_);fill:#4C1076;" width="219.262" height="2.246"/>
				<rect x="2101.618" y="360.807" style="clip-path:url(#SVGID_4_);fill:#4B0F76;" width="219.262" height="2.246"/>
				<rect x="2101.618" y="363.053" style="clip-path:url(#SVGID_4_);fill:#4A0F76;" width="219.262" height="2.246"/>
				<rect x="2101.618" y="365.299" style="clip-path:url(#SVGID_4_);fill:#490F75;" width="219.262" height="2.246"/>
				<rect x="2101.618" y="367.544" style="clip-path:url(#SVGID_4_);fill:#480F75;" width="219.262" height="2.246"/>
				<rect x="2101.618" y="369.79" style="clip-path:url(#SVGID_4_);fill:#470E75;" width="219.262" height="2.246"/>
				<rect x="2101.618" y="372.036" style="clip-path:url(#SVGID_4_);fill:#460E74;" width="219.262" height="2.246"/>
				<rect x="2101.618" y="374.282" style="clip-path:url(#SVGID_4_);fill:#450E74;" width="219.262" height="2.246"/>
				<rect x="2101.618" y="376.527" style="clip-path:url(#SVGID_4_);fill:#440D74;" width="219.262" height="2.246"/>
				<rect x="2101.618" y="378.773" style="clip-path:url(#SVGID_4_);fill:#430D74;" width="219.262" height="2.246"/>
				<rect x="2101.618" y="381.019" style="clip-path:url(#SVGID_4_);fill:#420D73;" width="219.262" height="2.246"/>
				<rect x="2101.618" y="383.265" style="clip-path:url(#SVGID_4_);fill:#410D73;" width="219.262" height="2.246"/>
				<rect x="2101.618" y="385.51" style="clip-path:url(#SVGID_4_);fill:#400C73;" width="219.262" height="2.246"/>
				<rect x="2101.618" y="387.756" style="clip-path:url(#SVGID_4_);fill:#3F0C72;" width="219.262" height="2.246"/>
				<rect x="2101.618" y="390.002" style="clip-path:url(#SVGID_4_);fill:#3E0C72;" width="219.262" height="2.246"/>
				<rect x="2101.618" y="392.248" style="clip-path:url(#SVGID_4_);fill:#3D0C72;" width="219.262" height="2.246"/>
				<rect x="2101.618" y="394.493" style="clip-path:url(#SVGID_4_);fill:#3C0B72;" width="219.262" height="2.246"/>
				<rect x="2101.618" y="396.739" style="clip-path:url(#SVGID_4_);fill:#3B0B71;" width="219.262" height="2.246"/>
				<rect x="2101.618" y="398.985" style="clip-path:url(#SVGID_4_);fill:#3A0B71;" width="219.262" height="2.246"/>
				<rect x="2101.618" y="401.231" style="clip-path:url(#SVGID_4_);fill:#390A71;" width="219.262" height="2.246"/>
				<rect x="2101.618" y="403.477" style="clip-path:url(#SVGID_4_);fill:#380A70;" width="219.262" height="2.246"/>
				<rect x="2101.618" y="405.722" style="clip-path:url(#SVGID_4_);fill:#370A70;" width="219.262" height="2.246"/>
				<rect x="2101.618" y="407.968" style="clip-path:url(#SVGID_4_);fill:#360A70;" width="219.262" height="2.246"/>
				<rect x="2101.618" y="410.214" style="clip-path:url(#SVGID_4_);fill:#350970;" width="219.262" height="2.246"/>
				<rect x="2101.618" y="412.46" style="clip-path:url(#SVGID_4_);fill:#34096F;" width="219.262" height="2.246"/>
				<rect x="2101.618" y="414.705" style="clip-path:url(#SVGID_4_);fill:#33096F;" width="219.262" height="2.246"/>
				<rect x="2101.618" y="416.951" style="clip-path:url(#SVGID_4_);fill:#32096F;" width="219.262" height="2.246"/>
				<rect x="2101.618" y="419.197" style="clip-path:url(#SVGID_4_);fill:#31086E;" width="219.262" height="2.246"/>
				<rect x="2101.618" y="421.443" style="clip-path:url(#SVGID_4_);fill:#30086E;" width="219.262" height="2.246"/>
				<rect x="2101.618" y="423.688" style="clip-path:url(#SVGID_4_);fill:#2F086E;" width="219.262" height="2.246"/>
				<rect x="2101.618" y="425.934" style="clip-path:url(#SVGID_4_);fill:#2E086E;" width="219.262" height="2.246"/>
				<rect x="2101.618" y="428.18" style="clip-path:url(#SVGID_4_);fill:#2D076D;" width="219.262" height="2.246"/>
				<rect x="2101.618" y="430.426" style="clip-path:url(#SVGID_4_);fill:#2C076D;" width="219.262" height="2.246"/>
				<rect x="2101.618" y="432.671" style="clip-path:url(#SVGID_4_);fill:#2B076D;" width="219.262" height="2.246"/>
				<rect x="2101.618" y="434.917" style="clip-path:url(#SVGID_4_);fill:#2A066D;" width="219.262" height="2.246"/>
				<rect x="2101.618" y="437.163" style="clip-path:url(#SVGID_4_);fill:#29066C;" width="219.262" height="2.246"/>
				<rect x="2101.618" y="439.409" style="clip-path:url(#SVGID_4_);fill:#28066C;" width="219.262" height="2.246"/>
				<rect x="2101.618" y="441.654" style="clip-path:url(#SVGID_4_);fill:#27066C;" width="219.262" height="2.246"/>
				<rect x="2101.618" y="443.9" style="clip-path:url(#SVGID_4_);fill:#26056B;" width="219.262" height="2.246"/>
				<rect x="2101.618" y="446.146" style="clip-path:url(#SVGID_4_);fill:#25056B;" width="219.262" height="2.246"/>
				<rect x="2101.618" y="448.392" style="clip-path:url(#SVGID_4_);fill:#24056B;" width="219.262" height="2.246"/>
				<rect x="2101.618" y="450.637" style="clip-path:url(#SVGID_4_);fill:#23056B;" width="219.262" height="2.246"/>
				<rect x="2101.618" y="452.883" style="clip-path:url(#SVGID_4_);fill:#22046A;" width="219.262" height="2.246"/>
				<rect x="2101.618" y="455.129" style="clip-path:url(#SVGID_4_);fill:#21046A;" width="219.262" height="2.246"/>
			</g>
		</g>
	</g>
</g>
<path style="fill-rule:evenodd;clip-rule:evenodd;fill:#EBEBFF;" d="M339.388,1596.828c2.086-50.222,40.999-90.288,88.785-90.518
	c3.738-31.458,18.668-59.214,40.422-78.641c-8.042-19.569-12.512-41.17-12.512-63.883c0-72.84,45.878-134.3,108.637-153.628
	c-29.864-40.377-47.674-91.274-47.674-146.587c0-115.169,77.213-211.188,179.692-232.958c2.394-50.068,34.255-91.876,77.54-106.297
	c-8.335-18.873-13.002-39.935-13.002-62.156c0-80.983,61.857-146.632,138.16-146.632c76.303,0,138.16,65.65,138.16,146.632
	c0,6.042-0.352,11.996-1.021,17.846c69.518,16.56,121.463,82.457,121.463,161.236c0,26.248-5.775,51.06-16.036,73.1
	c96.465,46.425,163.563,149.517,163.563,269.25c0,2.807-0.05,5.602-0.123,8.391c61.811,28.843,104.979,94.391,104.979,170.65
	c0,18.116-2.446,35.623-6.989,52.184c83.482,18.946,148.253,91.46,160.827,182.009h-331.893h-76.489H339.388z"/>
<path style="fill-rule:evenodd;clip-rule:evenodd;fill:#EBEBFF;" d="M1375.125,1596.828c2.215-50.222,43.514-90.288,94.229-90.518
	c3.967-31.458,19.813-59.214,42.9-78.641c-8.535-19.569-13.28-41.17-13.28-63.883c0-72.84,48.691-134.3,115.299-153.628
	c-31.695-40.377-50.598-91.274-50.598-146.587c0-115.169,81.947-211.188,190.711-232.958c2.541-50.068,36.356-91.876,82.295-106.297
	c-8.846-18.873-13.799-39.935-13.799-62.156c0-80.983,65.65-146.632,146.633-146.632c80.982,0,146.632,65.65,146.632,146.632
	c0,6.042-0.374,11.996-1.083,17.846c73.781,16.56,128.911,82.457,128.911,161.236c0,26.248-6.129,51.06-17.019,73.1
	c106.344,30.532,189.501,100.111,173.462,277.641c65.601,28.843,111.417,94.391,111.417,170.65c0,18.116-2.595,35.623-7.417,52.184
	c88.601,18.946,157.343,91.46,170.689,182.009h-352.245h-81.179H1375.125z"/>
<g>
	<defs>
		<path id="SVGID_19_" d="M1222.492,1231.531h-235.71l-27.199-966.085l71.964-57.55h290.107l-27.198,966.085L1222.492,1231.531z
			 M1184.143,1567.617c-0.093,0.071-0.187,0.14-0.28,0.211c-0.773,0.589-1.549,1.167-2.328,1.737
			c-0.163,0.119-0.328,0.236-0.492,0.355c-0.732,0.53-1.467,1.052-2.205,1.565c-0.147,0.103-0.294,0.204-0.44,0.305
			c-0.808,0.557-1.619,1.105-2.434,1.642c-0.06,0.039-0.12,0.08-0.181,0.12c-21.375,14.043-45.09,21.069-71.147,21.069
			c-36.263,0-67.993-13.599-95.191-40.796c-27.197-27.197-40.797-58.928-40.797-95.191c0-36.264,13.6-67.994,40.797-95.192
			c4.262-4.261,8.635-8.19,13.119-11.783l0.124-0.1l71.964-57.55c24.103-19.275,51.418-28.913,81.947-28.913
			c36.263,0,67.994,13.599,95.191,40.796c27.198,27.197,40.796,58.927,40.796,95.192c0,36.263-13.598,67.994-40.796,95.191
			c-4.301,4.302-8.716,8.263-13.244,11.884l-71.964,57.55C1185.774,1566.358,1184.96,1566.992,1184.143,1567.617z"/>
	</defs>
	<clipPath id="SVGID_5_">
		<use xlink:href="#SVGID_19_"  style="overflow:visible;"/>
	</clipPath>
	<linearGradient id="SVGID_6_" gradientUnits="userSpaceOnUse" x1="1135.5881" y1="1430.8823" x2="1147.5585" y2="170.6325">
		<stop  offset="0" style="stop-color:#715BEB"/>
		<stop  offset="0.81" style="stop-color:#826DFD"/>
		<stop  offset="1" style="stop-color:#927FFF"/>
	</linearGradient>
	<rect x="959.583" y="207.895" style="clip-path:url(#SVGID_5_);fill:url(#SVGID_6_);" width="362.071" height="1386.727"/>
</g>
<path style="fill:#826DFD;" d="M1222.492,1231.531h-235.71l-27.199-966.085h290.107L1222.492,1231.531z M1240.623,1458.636
	c0,36.263-13.599,67.994-40.796,95.191c-27.197,27.197-58.927,40.796-95.19,40.796c-36.263,0-67.993-13.599-95.191-40.796
	c-27.197-27.197-40.797-58.928-40.797-95.191c0-36.264,13.6-67.994,40.797-95.192c27.198-27.197,58.928-40.796,95.191-40.796
	c36.263,0,67.994,13.599,95.19,40.796C1227.025,1390.641,1240.623,1422.371,1240.623,1458.636z"/>
<g>
	<defs>
		<path id="SVGID_22_" d="M1860.021,1231.531h-242.73c-7.144-125.644,13.68-289.325,85.689-394.939
			c18.131-26.592,37.774-49.561,58.929-68.901c21.153-19.34,40.796-37.774,58.927-55.301c18.132-17.528,33.241-34.753,45.329-51.675
			c12.088-16.923,18.131-36.868,18.131-59.835c0-31.428-10.576-57.417-31.73-77.966c-21.153-20.549-49.862-30.824-86.125-30.824
			c-8.977,0-17.632,1.065-25.968,3.185c-13.283,24.147-19.924,55.275-19.924,93.385l-71.964,57.55l-262.909-18.132
			c9.671-113.625,48.048-203.981,115.136-271.068c8.89-8.889,18.155-17.19,27.799-24.901l71.964-57.55
			c63.13-50.485,142.407-75.728,237.831-75.728c61.647,0,116.344,8.461,164.091,25.384c47.747,16.923,88.542,39.89,122.388,68.9
			c33.846,29.01,59.532,62.554,77.059,100.629c17.528,38.077,26.291,78.873,26.291,122.389c0,41.099-6.346,75.85-19.037,104.256
			c-12.692,28.407-28.407,54.094-47.142,77.06c-18.737,22.966-39.286,44.119-61.648,63.46
			c-22.362,19.34-43.214,40.494-62.554,63.461c-82.782,98.306-103.732,222.998-105.868,349.61L1860.021,1231.531z
			 M1821.671,1567.618c-0.091,0.07-0.183,0.137-0.274,0.206c-0.775,0.59-1.552,1.171-2.334,1.742
			c-0.163,0.119-0.325,0.235-0.488,0.352c-0.734,0.531-1.47,1.055-2.21,1.57c-0.145,0.1-0.29,0.201-0.436,0.301
			c-0.81,0.559-1.623,1.108-2.439,1.646c-0.059,0.038-0.117,0.078-0.176,0.116c-21.375,14.044-45.091,21.071-71.149,21.071
			c-36.264,0-67.995-13.599-95.192-40.796c-27.198-27.197-40.796-58.928-40.796-95.191c0-36.264,13.598-67.994,40.796-95.192
			c4.301-4.301,8.716-8.262,13.244-11.884l71.964-57.55c24.103-19.275,51.419-28.912,81.948-28.912
			c36.263,0,67.993,13.599,95.191,40.796c27.198,27.197,40.796,58.927,40.796,95.192c0,36.263-13.598,67.994-40.796,95.191
			c-4.301,4.301-8.716,8.262-13.244,11.883l-71.964,57.55C1823.302,1566.357,1822.488,1566.992,1821.671,1567.618z"/>
	</defs>
	<clipPath id="SVGID_7_">
		<use xlink:href="#SVGID_22_"  style="overflow:visible;"/>
	</clipPath>
	<linearGradient id="SVGID_8_" gradientUnits="userSpaceOnUse" x1="1804.7618" y1="1429.8518" x2="1809.9827" y2="161.2717">
		<stop  offset="0" style="stop-color:#D4A42A"/>
		<stop  offset="0.81" style="stop-color:#FCC53A"/>
		<stop  offset="1" style="stop-color:#FFD569"/>
	</linearGradient>
	<rect x="1385.677" y="198.829" style="clip-path:url(#SVGID_7_);fill:url(#SVGID_8_);" width="842.558" height="1395.793"/>
</g>
<path style="fill:#FCC53A;" d="M2156.271,573.682c0,41.099-6.346,75.851-19.038,104.256c-12.692,28.407-28.407,54.094-47.142,77.06
	c-18.736,22.966-39.287,44.119-61.648,63.46c-22.362,19.34-43.214,40.494-62.554,63.461
	c-82.782,98.306-103.732,222.998-105.868,349.61h-242.73c-7.144-125.644,13.68-289.325,85.689-394.939
	c18.131-26.592,37.774-49.561,58.929-68.901c21.153-19.34,40.796-37.774,58.927-55.301c18.132-17.528,33.241-34.753,45.329-51.675
	c12.088-16.923,18.131-36.868,18.131-59.835c0-31.428-10.576-57.417-31.73-77.966c-21.153-20.549-49.862-30.824-86.125-30.824
	c-31.429,0-58.929,12.995-82.5,38.984c-23.572,25.989-35.357,64.367-35.357,115.136l-262.909-18.132
	c9.671-113.625,48.048-203.981,115.136-271.068c67.087-67.086,155.631-100.63,265.63-100.63c61.647,0,116.344,8.461,164.091,25.384
	c47.746,16.923,88.542,39.89,122.388,68.9c33.846,29.01,59.532,62.554,77.059,100.629
	C2147.508,489.37,2156.271,530.166,2156.271,573.682 M1606.178,1458.636c0-36.264,13.598-67.994,40.796-95.192
	c27.197-27.197,58.927-40.796,95.192-40.796c36.263,0,67.993,13.599,95.19,40.796c27.198,27.198,40.796,58.927,40.796,95.192
	c0,36.263-13.599,67.994-40.796,95.191c-27.198,27.197-58.927,40.796-95.19,40.796c-36.264,0-67.995-13.599-95.192-40.796
	C1619.776,1526.629,1606.178,1494.899,1606.178,1458.636z"/>
<path style="fill-rule:evenodd;clip-rule:evenodd;fill:#D4A42A;" d="M1683.943,531.073c-23.572,25.988-35.357,64.367-35.357,115.135
	l71.964-57.55c0-38.111,6.641-69.238,19.922-93.39C1719.624,500.573,1700.781,512.507,1683.943,531.073"/>
<rect x="766.363" y="720.083" style="fill-rule:evenodd;clip-rule:evenodd;fill:#E6A586;" width="42.033" height="65.123"/>
<path style="fill-rule:evenodd;clip-rule:evenodd;fill:#FCC53A;" d="M811.683,726.508c0.748-4.863-1.186-11.895,1.424-18.961
	c-0.897-7.501,1.511-14.911,4.506-15.956c7.429-1.383,8.139,9.398,7.494,15.484c1.864-3.925,2.566-9.81,2.795-15.405
	c0.299-7.304-0.209-14.115,0.01-15.428c0.449-2.692,7.633-7.817,10.936-15.74c3.916-9.395,3.891-21.672,2.108-23.587
	c-5.492-5.345-12.801,5.639-18.931,4.609c-6.13-1.03-7.699-16.133-15.398-16.28c-7.699-0.147-17.214,14.541-23.32,14.983
	c-3.768,0.273-4.703-5.998-10.69-5.443c-9.1,0.843-26.807,30.476-27.298,57.495c-0.357,19.662,11.138,31.483,14.865,37.294
	c3.727,5.811,1.962,13.241,4.904,14.491c2.942,1.25,7.601-5.516,10.002-5.394c5.32,0.368,7.307,6.081,10.862,6.179
	c3.555,0.098,5.378-5.589,8.075-6.913C796.725,736.61,810.702,735.531,811.683,726.508"/>
<path style="fill-rule:evenodd;clip-rule:evenodd;fill:#E6A586;" d="M779.236,1527.477c-6.353-2.651-20.542-1.465-33.393-0.073
	c0.46,14.121,3.523,34.291,5.575,48.164c3.956,6.017,25.338,1.435,26.345-3.657C777.987,1557.096,778.532,1542.277,779.236,1527.477
	"/>
<path style="fill-rule:evenodd;clip-rule:evenodd;fill:#432587;" d="M777.763,1571.912c-1.585,4.268-22.854,6.529-26.811,0.512
	c-0.078-0.529-0.159-1.174-0.242-1.924c-1.385,1.033-5.447,3.411-5.564,6.709c-0.116,3.298-2.962,18.224,3.219,21.232
	c6.182,3.009,43.505,1.514,40.949-22.965c-3.106-9.779-8.25-8.082-11.496-6.925C777.799,1569.678,777.78,1570.799,777.763,1571.912"
	/>
<path style="fill-rule:evenodd;clip-rule:evenodd;fill:#432587;" d="M846.632,1597.577c5.959,5.955,68.712,1.57,70.006,0.327
	c-1.149-9.345-34.651-25.241-44.257-27.05c-0.343,3.949-0.528,6.405-0.528,6.405c-4.465,3.035-16.273,4.992-22.289-0.53
	c-0.258-1.707-0.526-4.062-0.794-6.856C844.822,1571.278,838.556,1589.506,846.632,1597.577"/>
<path style="fill-rule:evenodd;clip-rule:evenodd;fill:#E6A586;" d="M849.564,1576.73c6.017,5.522,17.824,3.565,22.289,0.53
	c0,0,0.185-2.455,0.528-6.405c0.68-7.833,1.979-21.542,3.682-33.632c0.107-0.762,0.217-1.537,0.327-2.323
	c-7.573-10.444-20.134-11.173-30.679-10.231c0.622,11.443,1.856,32.714,3.058,45.206
	C849.038,1572.668,849.305,1575.022,849.564,1576.73"/>
<path style="fill-rule:evenodd;clip-rule:evenodd;fill:#353B75;" d="M750.338,1058.583c-19.227,5.34-29.075-0.098-36.852,6.936
	c-10.998,77.854,9.645,189.203,11.173,252.437c1.528,63.233-19.865,92.149-17.969,98.083c1.896,5.935,11.704,6.841,12.93,11.135
	c3.709,14.63-14.919,59.014-13.806,68.658c1.113,9.644,10.303,19.122,13.023,22.008c2.72,2.885-2.887,8.16,1.975,11.045
	c2.193,1.301,13.029-0.179,25.031-1.48c12.851-1.392,27.04-2.578,33.393,0.073c5.324-111.918,43.026-399.593,46.634-482.542
	C821.466,1032.544,760.866,1055.659,750.338,1058.583"/>
<path style="fill-rule:evenodd;clip-rule:evenodd;fill:#E6A586;" d="M817.475,718.327c5.191-3.81,6.947-9.625,7.63-11.24
	c0.001-0.004,0.001-0.007,0.001-0.011c0.646-6.086-0.064-16.868-7.493-15.485c-2.995,1.045-5.403,8.455-4.506,15.956
	C813.568,711.4,814.901,715.276,817.475,718.327"/>
<path style="fill-rule:evenodd;clip-rule:evenodd;fill:#40488C;" d="M706.579,1415.416c0.014,0.227,0.05,0.435,0.111,0.624
	C706.631,1415.854,706.594,1415.646,706.579,1415.416 M831.73,1294.025c7.368,71.109-19.521,126.485-19.108,132.748
	c0.412,6.263,8.104,2.388,8.407,16.581c0.179,8.39-6.913,20.101-8.012,27.808c-0.665,4.663,7.26,2.161,6.42,7.014
	c-2.967,17.156-7.446,39.561-5.975,41.385c1.203,1.492,5.571-0.119,8.756,1.507c3.339,1.704,2.491,4.163,6.22,5.173
	c6.45,1.745,34.764-9.529,47.951,8.659c9.523-67.717,30.56-221.709,28.513-246.529c-2.637-31.98-21.76-195.01-24.467-211.552
	c-62.02-41.128-76.152-7.933-107.281-18.65C755.473,1139.268,824.362,1222.916,831.73,1294.025z"/>
<path style="fill-rule:evenodd;clip-rule:evenodd;fill:#E09B7B;" d="M825.105,707.087c-0.683,1.615-2.44,7.43-7.63,11.24
	c-2.595-3.076-3.917-6.945-4.368-10.78c-2.61,7.067-0.676,14.098-1.424,18.961c-0.271,2.498-1.539,4.387-3.287,5.841v9.327
	c8.137-1.126,30.616-14.146,19.506-50.006c-0.226,5.531-0.915,11.345-2.731,15.269c-0.021,0.045-0.042,0.091-0.061,0.137
	C825.108,707.081,825.107,707.083,825.105,707.087"/>
<path style="fill-rule:evenodd;clip-rule:evenodd;fill:#EF7357;" d="M698.414,1087.227c62.275-37.94,88.305-14.293,127.294-15.518
	c20.946-0.658,39.069-5.275,54.729,5.11c-6.073-15.045-13.302-120.019-13.557-191.512c2.659-39.18-2.464-109.982-9.916-123.206
	c-21.087-4.638-49.167-6.063-71.455-5.403c-55.816,1.654-71.759,11.918-80.834,74.138
	C691.46,921.431,698.716,1068.588,698.414,1087.227"/>
<path style="fill-rule:evenodd;clip-rule:evenodd;fill:#D65F45;" d="M869.413,968.374c-1.18-24.947-2.455-60.88-2.534-83.067
	c-6.883-22.83-20.655-57.174-23.907-66.186C835.969,861.958,851.149,937.056,869.413,968.374"/>
<path style="fill-rule:evenodd;clip-rule:evenodd;fill:#F7B290;" d="M966.357,790.649c0.916-2.941,3.94-7.44,3.525-9.709
	c-0.97-5.311,0.007-31.253,6.301-31.528c2.734-0.12,3.976,4.645,3.976,4.645c1.692-6.784,10.62-18.184,18.736-12.831
	c8.115,5.353,4.154,33.114-17.314,54.69L966.357,790.649z"/>
<path style="fill-rule:evenodd;clip-rule:evenodd;fill:#EF7357;" d="M984.699,794.637l-20.645-11.186
	c-28.958,38.701-63.725,77.451-96.296,112.578c-13.811,22.734-1.228,49.716,25.656,32.226
	C917.606,901.802,953.327,857.765,984.699,794.637"/>
<path style="fill-rule:evenodd;clip-rule:evenodd;fill:#EF7357;" d="M852.646,892.161c9.473,58.884,54.83,65.745,40.252-33.883
	c-5.504-37.614-14.828-78.545-35.934-96.176C830.072,764.847,849.224,871.538,852.646,892.161"/>
<path style="fill-rule:evenodd;clip-rule:evenodd;fill:#C9B5FF;" d="M877.05,601.556H718.526l0.003,0.001v19.611
	c0,0.798-0.456,1.481-1.194,1.787c-0.738,0.306-1.543,0.146-2.107-0.419l-20.979-20.979h-25c-4.129,0-7.507-3.379-7.507-7.508
	v-81.03c0-4.13,3.378-7.508,7.507-7.508H877.05c4.129,0,7.508,3.379,7.508,7.508v81.03
	C884.558,598.177,881.178,601.556,877.05,601.556"/>
<path style="fill-rule:evenodd;clip-rule:evenodd;fill:#B39CF0;" d="M681.056,541.613h181.886c1.951,0,3.547,1.597,3.547,3.548v0
	c0,1.951-1.596,3.547-3.547,3.547H681.056c-1.951,0-3.548-1.596-3.548-3.547v0C677.508,543.21,679.104,541.613,681.056,541.613
	 M681.056,558.358h181.886c1.951,0,3.547,1.596,3.547,3.547v0.001c0,1.951-1.596,3.547-3.547,3.547H681.056
	c-1.951,0-3.548-1.596-3.548-3.547v-0.001C677.508,559.954,679.104,558.358,681.056,558.358z M681.056,575.103h99.837
	c1.951,0,3.547,1.596,3.547,3.548v0c0,1.951-1.596,3.547-3.547,3.547h-99.837c-1.951,0-3.548-1.596-3.548-3.547v0
	C677.508,576.699,679.105,575.103,681.056,575.103z M681.056,524.868h181.886c1.951,0,3.547,1.597,3.547,3.548v0
	c0,1.951-1.596,3.548-3.547,3.548H681.056c-1.951,0-3.548-1.596-3.548-3.548v0C677.508,526.465,679.104,524.868,681.056,524.868z"/>
<g>
	<defs>
		<path id="SVGID_25_" d="M2039.737,1178.196c-7.377-7.266-22.502-43.379,7.831-66.44c23.918-18.185,53.73-16.151,69.448-10.317
			c28.273,10.496,34.056,48.442,55.375,57.436c21.318,8.994,45.572-10.913,86.376,3.269c34.462,11.978,39.97,63.01,52.539,69.883
			c20.271,11.085,36.592,13.34,45.455,32.235c9.341,19.915,9.004,54.472-12.695,77.332c-33.001,34.767-81.487,30.478-110.504,14.068
			c-33.978-19.214-37.776-49.398-46.491-54.558s-33.584-1.092-50.794-16.14c-17.21-15.048-12.385-41.464-38.774-46.79
			l-19.556-48.942L2039.737,1178.196z"/>
	</defs>
	<clipPath id="SVGID_9_">
		<use xlink:href="#SVGID_25_"  style="overflow:visible;"/>
	</clipPath>
	<linearGradient id="SVGID_10_" gradientUnits="userSpaceOnUse" x1="2282.5503" y1="1344.2728" x2="2096.6299" y2="1120.6628">
		<stop  offset="0" style="stop-color:#D18965"/>
		<stop  offset="1" style="stop-color:#DE936D"/>
	</linearGradient>
	<rect x="2017.235" y="1093.571" style="clip-path:url(#SVGID_9_);fill:url(#SVGID_10_);" width="348.865" height="282.791"/>
</g>
<path style="fill-rule:evenodd;clip-rule:evenodd;fill:#3B87FF;" d="M2069.22,1217.362c0.167,5.149,5.897,21.348,12.542,22.178
	c6.645,0.83,29.903-18.441,30.899-21.763c-0.007-0.393-0.015-0.82-0.023-1.281c9.67,2.259,44.666,12.77,63.608,20.255
	c-10.352,107.235-36.268,161.478,8.177,274.498c-29.879,7.273-158.223,34.148-180.51,17.434
	c55.439-160.095-2.315-219.461,13.033-299.061c11.532-10.427,41.19-12.868,52.476-14.536L2069.22,1217.362z"/>
<path style="fill-rule:evenodd;clip-rule:evenodd;fill:#F7B290;" d="M1910.741,1350.51c7.272,7.272,36.426,42.316,79.786,3.609
	c43.36-38.707-8.252-66.077-8.252-66.077l-30.456,36.547l-18.38-10.341L1910.741,1350.51z"/>
<path style="fill-rule:evenodd;clip-rule:evenodd;fill:#3B87FF;" d="M2016.946,1229.622c-10.798,9.968-48.104,55.867-56.908,71.981
	c9.469,11.463,40.99,38.511,46.471,42.332c12.792-12.46,28.427-35.322,34.573-46.951L2016.946,1229.622z"/>
<path style="fill-rule:evenodd;clip-rule:evenodd;fill:#F7B290;" d="M1789.041,1224.788c16.391,34.932,81.837,87.288,114.54,119.26
	c43.523,42.552,54.234-3.669,47.321-12.229c-6.297-7.551-14.19-15.544-19.571-20.04c-51.802-43.282-129.665-88.343-132.46-95.573
	c6.875-25.18-7.474-30.859-6.683-12.436c-3.646-13.333-20.346-20.837-26.68-18.379
	C1760.599,1187.298,1760.043,1197.637,1789.041,1224.788"/>
<path style="fill-rule:evenodd;clip-rule:evenodd;fill:#F7B290;" d="M1982.806,1445.935c10.281-3.216,137.397-40.879,155.145-47.599
	c3.828-5.152,5.695-39.618,7.625-52.691c14.404,1.564,40.202,3.6,52.186,2.942c-3.222,23.522-15.478,78.2-24.652,86.592
	c-33.321,30.479-144.047,24.743-189.465,29.171c-6.075,4.47-36.234,22.183-57.006-4.403c-8.148-12.73,33.504-19.318,43.118-12.503
	c-9.342-8.677-9.698-16.155-6.485-19.329C1966.166,1426.279,1972.874,1431.166,1982.806,1445.935"/>
<path style="fill-rule:evenodd;clip-rule:evenodd;fill:#F7BCAA;" d="M2169.591,1587.491c6.057,0.461,19.317,9.147,25.63,16.121
	c6.313,6.974,27.167-31.233,27.167-31.233l-1.946-3.444c-5.76-5.462-32.279-14.563-40.119-17.538L2169.591,1587.491z"/>
<path style="fill-rule:evenodd;clip-rule:evenodd;fill:#3A438C;" d="M2235.599,1559.534c0.409,1.794-2.715,16.736-7.667,27.295
	c-4.952,10.559-16.121,26.12-19.684,27.874c-3.562,1.755-17.962-12.151-18.839-13.933c-0.877-1.781,9.505-36.803,15.714-41.425
	C2211.333,1554.725,2235.155,1556.332,2235.599,1559.534"/>
<path style="fill-rule:evenodd;clip-rule:evenodd;fill:#252E73;" d="M1868.336,1509.518
	c97.996,74.236,120.742,79.756,182.295,81.444c61.554,1.688,137.906-35.501,197.97-75.934l-17.511-25.53l-89.947-8.434
	l-105.688,31.483l-96.691-7.31L1868.336,1509.518z"/>
<path style="fill-rule:evenodd;clip-rule:evenodd;fill:#3A438C;" d="M2189.432,1549.583l-21.714,47.686
	c-37.376-6.743-119.887-19.173-208.977-45.158c-30.547-8.91-139.185-47.319-107.836-97.482
	C1872.675,1419.791,1980.286,1448.786,2189.432,1549.583"/>
<path style="fill-rule:evenodd;clip-rule:evenodd;fill:#E5AC8E;" d="M1964.361,1549.582l-32.175-0.561
	c-6.083,1.372-32.328,13.362-53,19.611c-5.24,11.424,1.102,25.407,8.078,25.417c6.976,0.01,71.485-16.832,71.485-16.832
	L1964.361,1549.582z"/>
<path style="fill-rule:evenodd;clip-rule:evenodd;fill:#343C7D;" d="M1847.348,1552.669c6.05,21.054,16.148,56.198,16.148,56.198
	c3.926-0.256,16.703-4.627,20.937-7.557c5.28-3.653,9.646-7.337,8.974-9.96c-1.36-5.309-10.189,0.571-11.917-7.168
	c-1.727-7.739,5.238-6.822,2.643-17.043c-0.463-1.821-12.478-9.439-23.137-14.236
	C1857.051,1551.128,1853.2,1550.777,1847.348,1552.669"/>
<path style="fill-rule:evenodd;clip-rule:evenodd;fill:#343C7D;" d="M1847.348,1552.669c6.05,21.054,16.148,56.198,16.148,56.198
	c1.47-0.096,4.179-0.769,7.217-1.726l-17.831-55.672C1851.224,1551.615,1849.411,1552.002,1847.348,1552.669"/>
<path style="fill-rule:evenodd;clip-rule:evenodd;fill:#3F4A99;" d="M1899.023,1558.175l21.198,42.676
	c36.878-6.012,169.159-25.637,253.285-49.007c32.819-9.118,137.773-58.191,105.347-105.074
	C2255.483,1412.983,2109.837,1460.919,1899.023,1558.175"/>
<path style="fill-rule:evenodd;clip-rule:evenodd;fill:#BAD4FF;" d="M2141.206,1461.299h-62.834v10.899h68.283v-5.45
	C2146.655,1463.751,2144.203,1461.299,2141.206,1461.299"/>
<polygon style="fill-rule:evenodd;clip-rule:evenodd;fill:#BAD4FF;" points="2086.725,1472.198 2043.497,1348.53 1846.82,1348.53 
	1889.143,1472.198 "/>
<path style="fill-rule:evenodd;clip-rule:evenodd;fill:#F7B290;" d="M2068.759,1211.832c-3.271-0.258-6.188-0.919-8.509-1.866
	c-12.458-5.081-18.392-17.168-20.866-32.133c-0.665-4.024-1.081-8.256-1.306-12.616c5.884-11.214,27.657-27.521,40.965-33.461
	c1.578,12.244,7.354,33.333,27.923,43.244c0.371-5.01,8.143-9.555,13.802-6.617c5.659,2.937,10.913,16.813-15.388,31.506
	l3.714,33.171c0,0-6.126,9.795-18.597,11.191c-12.471,1.396-19.081-8.68-19.081-8.68L2068.759,1211.832z"/>
<g>
	<defs>
		<path id="SVGID_28_" d="M2071.588,1237.103l-2.829-25.272c-3.27-0.257-6.187-0.918-8.508-1.865
			c16.615,5.651,38.828-7.228,50.518-14.287l3.982,35.569c0,0-11.61,13.14-24.081,14.536
			C2078.199,1247.181,2071.588,1237.103,2071.588,1237.103"/>
	</defs>
	<clipPath id="SVGID_11_">
		<use xlink:href="#SVGID_28_"  style="overflow:visible;"/>
	</clipPath>
	<linearGradient id="SVGID_12_" gradientUnits="userSpaceOnUse" x1="2090.0598" y1="1244.3108" x2="2085.1399" y2="1200.3209">
		<stop  offset="0" style="stop-color:#E09A77"/>
		<stop  offset="0.7199" style="stop-color:#F0AA88"/>
		<stop  offset="1" style="stop-color:#F7B290"/>
	</linearGradient>
	<rect x="2060.251" y="1195.679" style="clip-path:url(#SVGID_11_);fill:url(#SVGID_12_);" width="54.5" height="51.501"/>
</g>
<path style="fill-rule:evenodd;clip-rule:evenodd;fill:#3B87FF;" d="M2203.121,1269.93c6.216,23.714-1.306,77.449-6.802,94.97
	c-0.372,0.029-0.76,0.054-1.166,0.076c-15.812,0.869-45.585-1.011-61.563-4.17c0.073-13.31-0.754-36.714,3.105-57.439
	c1.284-6.051,7.496-66.675,27.887-68.613C2179.247,1233.361,2196.904,1246.217,2203.121,1269.93"/>
<path style="fill-rule:evenodd;clip-rule:evenodd;fill:#FFE8A1;" d="M1956.643,1392.253c9.028,0,16.346,7.318,16.346,16.346
	c0,9.028-7.318,16.346-16.346,16.346c-9.028,0-16.346-7.318-16.346-16.346C1940.297,1399.571,1947.615,1392.253,1956.643,1392.253"
	/>
<path style="fill-rule:evenodd;clip-rule:evenodd;fill:#FFFFFF;" d="M2045.632,451.016l-8.949-28.452
	c-1.875-5.96-6.161-10.247-12.121-12.121l-28.452-8.949c-2.714-0.854-4.487-3.269-4.487-6.114c0-2.846,1.772-5.26,4.487-6.114
	l28.452-8.95c5.961-1.875,10.247-6.161,12.121-12.121l8.949-28.452c0.854-2.714,3.269-4.486,6.114-4.486s5.26,1.772,6.114,4.486
	l8.949,28.452c1.875,5.96,6.161,10.246,12.121,12.121l28.452,8.95c2.714,0.854,4.487,3.268,4.487,6.114
	c0,2.845-1.772,5.26-4.487,6.114l-28.452,8.949c-5.96,1.875-10.247,6.161-12.121,12.121l-8.949,28.452
	c-0.854,2.714-3.269,4.486-6.114,4.486S2046.486,453.73,2045.632,451.016"/>
<path style="fill-rule:evenodd;clip-rule:evenodd;fill:#FFFFFF;" d="M2129.22,374.53l-5.596-17.79
	c-1.172-3.727-3.852-6.407-7.579-7.579l-17.79-5.596c-1.697-0.534-2.805-2.044-2.805-3.823c0-1.779,1.108-3.289,2.805-3.823
	l17.79-5.596c3.727-1.172,6.407-3.852,7.579-7.579l5.596-17.79c0.534-1.697,2.044-2.806,3.823-2.806s3.289,1.108,3.823,2.806
	l5.596,17.79c1.172,3.727,3.852,6.407,7.579,7.579l17.791,5.596c1.697,0.534,2.805,2.044,2.805,3.823
	c0,1.779-1.108,3.289-2.805,3.823l-17.791,5.596c-3.727,1.173-6.407,3.852-7.579,7.579l-5.596,17.79
	c-0.534,1.697-2.044,2.805-3.823,2.805S2129.754,376.227,2129.22,374.53"/>
<path style="fill-rule:evenodd;clip-rule:evenodd;fill:#FAA098;" d="M2356.552,1486.193l-5.634,44.851
	c-0.384,6.62-0.226,24.832,0.091,47.796c10.136,8.71,26.29,6.335,28.348-0.792c2.059-7.127,8.236-79.977,8.236-79.977
	L2356.552,1486.193z"/>
<path style="fill-rule:evenodd;clip-rule:evenodd;fill:#272D66;" d="M2389.326,1596.493c-6.146,0.645-29.196,1.849-31.472,2.039
	c-2.276,0.189-6.834,3.329-8.248,3.423c-7.229,0.482-17.052-2.771-19.538-3.339c-2.485-0.568-40.744-1.1-41.01-1.859
	c-0.265-0.758,0.152-5.463,3.68-7.018c1.776-0.783,9.512-3.385,18.64-6.91c8.995-3.474,18.608-7.675,23.014-9.897
	c2.752-1.387,4.338-3.283,6.692-4.631l0.005-0.004c1.796-1.203,10.24-8.965,11.453-8.776c1.215,0.19,9.56,5.578,9.56,6.905
	c0,0.787-1.387,3.242-2.517,5.11h-0.001c2.075,0.771,4.214,1.144,6.463,0.542c7.094-1.897,7.7-10.091,11.684-10.394
	C2381.716,1561.381,2389.303,1570.752,2389.326,1596.493"/>
<path style="fill-rule:evenodd;clip-rule:evenodd;fill:#61B2C6;" d="M2389.151,1596.51l0.175,0.174
	c0.395,1.041,1.723,5.403,1.344,6.352c-0.379,0.948-16.046,4.666-44.651,3.908c-28.605-0.759-52.554-1.724-56.93-10.156l0.002-0.001
	c1.185,0.744,38.524,1.271,40.978,1.831c2.485,0.568,12.309,3.821,19.538,3.338c1.413-0.094,5.972-3.234,8.248-3.423
	C2360.109,1598.344,2382.76,1597.159,2389.151,1596.51"/>
<path style="fill-rule:evenodd;clip-rule:evenodd;fill:#3B87FF;" d="M2425.137,1279.387l-0.232,0.832l0,0.002
	c-0.323,1.166-0.635,2.332-0.934,3.498c-17.58,68.68,7.254,146.517,5.783,153.317c-1.47,6.799-9.272,1.3-11.914,16.808
	c-1.561,9.169,4.308,23.16,4.26,31.787c-0.03,5.221-8.31,1.189-8.179,6.645c0.461,19.29,1.727,44.579-0.183,46.34
	c-1.561,1.439-6.088-1.037-9.843,0.227c-3.937,1.325-3.408,4.159-7.66,4.658c-7.355,0.864-22.749-5.13-46.23,1.693
	c0.523-68.787-4.62-217.018-0.445-263.9l-0.084,0.001c1.004-63.097,29.169-173.259,39.717-237.716
	c15.105-10.017,102.414-9.69,103.296,1.088c-14.187,39.922-59.58,187.826-67.441,234.713L2425.137,1279.387z"/>
<path style="fill-rule:evenodd;clip-rule:evenodd;fill:#FAA098;" d="M2381.808,897.756c0,10.183,3.199,94.259,24.146,94.259
	s28.077-77.037,24.803-112.995c-3.274-35.958-19.523-46.727-28.418-46.725C2393.445,832.298,2382.099,851.208,2381.808,897.756"/>
<g>
	<defs>
		<path id="SVGID_31_" d="M2428.434,900.026c-13.784,3.005-38.9,3.439-53.109,2.623c-1.249-35.756,2.16-111.077,38.424-125.493
			C2441.955,765.944,2431.263,883.131,2428.434,900.026"/>
	</defs>
	<clipPath id="SVGID_13_">
		<use xlink:href="#SVGID_31_"  style="overflow:visible;"/>
	</clipPath>
	<linearGradient id="SVGID_14_" gradientUnits="userSpaceOnUse" x1="2363.5962" y1="891.2307" x2="2431.3962" y2="804.9507">
		<stop  offset="0" style="stop-color:#D9E8FF"/>
		<stop  offset="1" style="stop-color:#FFFFFF"/>
	</linearGradient>
	<rect x="2374.076" y="765.944" style="clip-path:url(#SVGID_13_);fill:url(#SVGID_14_);" width="67.879" height="137.521"/>
</g>
<path style="fill-rule:evenodd;clip-rule:evenodd;fill:#FAA098;" d="M2260.389,925.547c29.668,27.862,148.236,82.216,166.974,52.612
	c15.433-50.604-131.309-40.959-159.729-66.699c-3.525-31.49-13.478-22.476-13.113-11.036c-16.367-12.392-23.492-10.052-27.719-4.38
	C2222.982,901.168,2218.672,916.064,2260.389,925.547"/>
<path style="fill-rule:evenodd;clip-rule:evenodd;fill:#FAA098;" d="M2514.684,1486.445l-10.022,32.719
	c-0.385,6.62,4.162,36.964,4.479,59.928c10.136,8.71,26.291,6.335,28.349-0.791c2.059-7.126,3.791-78.003,3.791-78.003
	L2514.684,1486.445z"/>
<path style="fill-rule:evenodd;clip-rule:evenodd;fill:#272D66;" d="M2483.475,1606.943c23.295,0,62.178,0,62.178,0
	c0.891-4.088,0.176-18.43-1.575-23.618c-2.183-6.469-4.666-12.014-7.544-12.097c-5.825-0.169-2.409,10.581-10.825,10.074
	c-8.417-0.507-5.434-7.357-16.643-7.706c-1.998-0.062-13.312,9.98-21.344,19.466
	C2484.749,1596.574,2483.26,1600.407,2483.475,1606.943"/>
<path style="fill-rule:evenodd;clip-rule:evenodd;fill:#61B2C6;" d="M2483.475,1606.943c23.295,0,62.178,0,62.178,0
	c0.334-1.53,0.441-4.497,0.355-7.883l-62.135,1.875C2483.535,1602.672,2483.399,1604.64,2483.475,1606.943"/>
<path style="fill-rule:evenodd;clip-rule:evenodd;fill:#3B87FF;" d="M2503.407,1541.61c-7.861-165.259-42.248-345.938-37.116-508.5
	c16.396-6.842,34.626-17.7,63.284-9.74c21.307,5.918,36.348,15.273,44.965,23.069c7.266,83.511-12.643,248.483-13.69,304.105
	s14.342,77.546,13.014,84.509c-1.326,6.965-8.84,7.711-10.2,12.469c-4.11,16.214,9.357,45.097,8.123,55.784
	c-1.233,10.688-9.611,21.192-12.625,24.389c-3.014,3.197,3.2,9.044-2.189,12.241
	C2551.578,1543.135,2521.859,1546.582,2503.407,1541.61"/>
<path style="fill-rule:evenodd;clip-rule:evenodd;fill:#FCC53A;" d="M2405.668,782.074c-6.54,4.142,1.945,114.112-16.969,264.478
	c10.843,1.703,177.573,6.021,187.331,1.375c1.239-42.59-9.543-256.781-14.189-268.243c-17.401-11.004-45.755-22.358-59.986-23.072
	C2469.16,754.97,2444.047,757.763,2405.668,782.074"/>
<path style="fill-rule:evenodd;clip-rule:evenodd;fill:#FAA098;" d="M2459.479,752.945c-28.494-5.115-19.084-50.839-16.858-64.199
	c1.094,0.404,2.08,0.615,2.874,0.639c4.579,0.142,7.199-5.358,11.674-4.957c4.584,0.411,6.14,6.018,10.675,6.212
	c4.098,0.175,7.704-6.769,11.461-4.086c3.713,2.651,0.149,13.083,3.651,18.404c1.217,1.292,6.756,5.917,6.87,11.067
	c0.115,5.151-3.01,16.749-0.564,17.748c2.446,1,6.108-21.546,11.985-18.119c5.686,3.316,5.995,21.944-5.431,22.892l-0.191,7.49
	l-0.288,11.366l-0.126,4.956c-1.22,5.037-6.544,13.679-16.728,13.444c-10.183-0.235-17.122-6.047-17.917-7.854l-0.838-11.576
	L2459.479,752.945z"/>
<path style="fill-rule:evenodd;clip-rule:evenodd;fill:#3B87FF;" d="M2482.956,704.959c-3.501-5.321,0.063-15.753-3.651-18.404
	c-3.758-2.683-7.364,4.261-11.461,4.086c-4.534-0.193-6.091-5.801-10.675-6.212c-4.474-0.401-7.095,5.099-11.674,4.957
	c-0.794-0.024-1.781-0.235-2.874-0.639c-5.635-2.083-14.086-9.307-13.407-22.697c0.81-15.987,8.433-20.24,14.292-20.137
	c12.3,0.217,17.728,11.855,24.51,12.552c5.608,0.083,16.108-10.035,27.006-6.438c10.16,3.354,8.889,14.56,13.304,17.506
	c4.415,2.947,9.26,2.727,11.016,6.713c1.756,3.986-2.739,8.466,0.325,12.88c3.064,4.414,12.692,4.051,13.331,11.577
	c0.647,7.623-7.08,10.201-8.594,15.067c-1.469,4.722,2.528,8.686,0.688,12.405c-1.839,3.719-8.208,2.536-9.925,6.443
	c-0.968,2.235,0.528,21.199-19.543,11.42l0.191-7.49c11.425-0.948,11.117-19.576,5.431-22.892
	c-5.877-3.427-9.539,19.118-11.985,18.119c-2.446-0.999,0.678-12.597,0.564-17.748
	C2489.711,710.876,2484.172,706.252,2482.956,704.959"/>
<path style="fill-rule:evenodd;clip-rule:evenodd;fill:#E8A490;" d="M2460.017,760.372l-0.289-3.998l-0.248-3.429
	c0.674,0.12,1.368,0.219,2.085,0.294c3.881,0.41,17.389,0.137,20.049-11.579C2482.449,747.294,2476.876,760.393,2460.017,760.372"/>
<path style="fill-rule:evenodd;clip-rule:evenodd;fill:#FAA098;" d="M2584.472,1111.344c0.869-116.678-8.939-168.662-25.608-226.635
	c12.411-6.766,34.813-4.328,45.88-5.38c10.274,75.502,8.165,115.757-6.492,235.208c7.942,20.655-7.046,47.07-17.976,41.207
	c-7.063-3.789-3.704-29.329,2.61-34.446c-6.79,3.081-11.465,3.525-13.144,0.493
	C2568.985,1119.274,2571.505,1115.626,2584.472,1111.344"/>
<g>
	<defs>
		<path id="SVGID_34_" d="M2555.369,899.198c14.05,1.268,39.025-1.424,53.022-3.999c0.237-30.194-17.527-104.142-54.239-119.083
			C2523.804,776.671,2550.461,882.785,2555.369,899.198"/>
	</defs>
	<clipPath id="SVGID_15_">
		<use xlink:href="#SVGID_34_"  style="overflow:visible;"/>
	</clipPath>
	<linearGradient id="SVGID_16_" gradientUnits="userSpaceOnUse" x1="2614.7542" y1="886.3307" x2="2537.634" y2="810.0007">
		<stop  offset="0" style="stop-color:#D9E8FF"/>
		<stop  offset="1" style="stop-color:#FFFFFF"/>
	</linearGradient>
	<rect x="2523.804" y="776.115" style="clip-path:url(#SVGID_15_);fill:url(#SVGID_16_);" width="84.824" height="124.35"/>
</g>
<path style="fill-rule:evenodd;clip-rule:evenodd;fill:#353B75;" d="M326.841,1164.403c-1.092-5.555-8.077-8.378-10.395,0.191
	c-2.318,8.569,4.277,14.802,3.348,16.884c-0.929,2.082-6.893,7.474-23.763,5.708c-6.837-0.716-12.419-1.969-16.674-3.643
	c-6.244-2.456-9.629-5.816-9.926-9.707c-0.499-6.543,4.585-6.229,5.184-9.246c0.599-3.017-7.761-11.394-6.261-18.486
	c0.672-3.176,4.695-4.503,6.079-7.219c1.384-2.716-0.832-15.95,1.129-26.521c1.922-10.362,8.693-14.64,13.896-15.771
	c8.713-1.894,17.489,4.902,24.358,5.757c9.54,1.188,10.317-7.006,21.339-5.947c11.022,1.059,19.5,11.359,22.409,12.99
	c2.909,1.631,6.781-1.422,8.558-0.289c1.776,1.134,5.727,15.477-8.454,24.225c-1.713,0.933-4.743,1.063-7.946,0.982
	c-5.251-0.133-10.967-0.832-12.109,0.52c-1.839,2.176-9.821,39.525,0.715,50.623c1.904-0.085,9.226-13.91,13.812-9.67
	c4.99,3.097-9.445,30.453-21.325,26.272c-2.773-0.976-4.443-3.171-5.389-6.043C322.317,1186.584,327.933,1169.958,326.841,1164.403"
	/>
<path style="fill-rule:evenodd;clip-rule:evenodd;fill:#E5AC8E;" d="M338.328,1185.456c-10.536-11.098-2.553-48.446-0.715-50.623
	c1.142-1.352,6.858-0.653,12.109-0.52c3.032,7.737,4.601,17.267,4.298,27.96c-0.139,4.906-0.751,9.447-1.88,13.512
	C347.554,1171.546,340.232,1185.371,338.328,1185.456"/>
<path style="fill-rule:evenodd;clip-rule:evenodd;fill:#E5AC8E;" d="M326.841,1164.403c1.092,5.554-4.524,22.181-1.415,31.612
	l-1.487,14.21c-10.659-4.44-20.192-6.419-28.84-7.264c-5.948-0.581-11.831-0.933-17.671-0.987l1.929-18.429
	c4.255,1.673,9.837,2.927,16.674,3.643c16.87,1.766,22.835-3.626,23.763-5.708c0.929-2.082-5.666-8.315-3.348-16.884
	C318.764,1156.025,325.749,1158.849,326.841,1164.403"/>
<path style="fill-rule:evenodd;clip-rule:evenodd;fill:#1A4F61;" d="M715.15,1577.344c0.592,1.724,4.539,7.738-27.749,17.92
	c-5.004-0.544-11.639-0.464-12.398-0.011c-0.759,0.454-0.413,4.149-0.413,4.149c-3.8,1.907-15.002,6.747-17.052,3.501
	c-4.33-6.858-4.628-18.646-1.452-23.868l1.041-0.457c0.489,1.421,4.256,5.377,8.187,3.641c3.931-1.737,7.322-7.285,7.695-10.544
	c2.593-0.024,18.289,8.502,27.406,6.862C709.534,1576.895,712.336,1572.994,715.15,1577.344"/>
<path style="fill-rule:evenodd;clip-rule:evenodd;fill:#E6A887;" d="M673.367,1572.155l-5.071-24.087l-22.602,6.724l10.29,24.341
	c2.335,3.813,5.019,4.739,9.463,3.35C670.24,1580.984,672.836,1576.475,673.367,1572.155"/>
<path style="fill-rule:evenodd;clip-rule:evenodd;fill:#1A4F61;" d="M822.891,1558.583c1.19,1.38,7.088,5.5-19.111,26.943
	c-4.848,1.352-10.979,3.891-11.516,4.594c-0.537,0.703,1.157,4.005,1.157,4.005c-2.82,3.182-11.424,11.835-14.532,9.582
	c-6.567-4.759-11.22-15.594-10.21-21.623l0.797-0.811c0.982,1.139,5.948,3.412,8.953,0.34c3.005-3.072,4.094-9.483,3.23-12.648
	c2.398-0.985,20.138,1.104,27.995-3.805C817.51,1560.251,818.663,1555.589,822.891,1558.583"/>
<path style="fill-rule:evenodd;clip-rule:evenodd;fill:#E6A887;" d="M782.168,1569.28l-13.652-20.482l-18.489,14.636l18.593,18.78
	c3.583,2.674,6.42,2.537,10.03-0.404C782.543,1578.639,783.28,1573.488,782.168,1569.28"/>
<path style="fill-rule:evenodd;clip-rule:evenodd;fill:#E6A887;" d="M125.164,1585.7c4.036,4.036,10.482,16.146,3.615,17.471
	s-21.568-2.289-25.544-2.892c-3.976-0.602-49.04,6.507-48.799,3.254c0.241-3.254,26.688-18.375,44.16-19.821L125.164,1585.7z"/>
<path style="fill-rule:evenodd;clip-rule:evenodd;fill:#5AA6AD;" d="M670.199,1551.785l-38.195,12.652
	c-12.893-36.75-26.147-31.93-28.316-36.147c-2.169-4.217,2.954-14.037,1.749-17.291c-1.205-3.253-16.146-9.88-18.917-15.302
	c-2.771-5.422,4.459-19.641,2.049-23.738c-2.41-4.097-17.365-59.781-31.824-60.745c-14.459-0.964-112.588,174.354-216.627,155.932
	c-104.039-18.422-44.823-114.225-44.823-114.225c38.557-38.557,136.864-117.065,249.168-111.697
	C621.584,1346.593,649.538,1383.518,670.199,1551.785"/>
<path style="fill-rule:evenodd;clip-rule:evenodd;fill:#E6A887;" d="M457.099,1233.112c4.374-21.065,30.622-46.331,0.606-57.118
	c-10.613,0.573-14.52,38.983-18.871,57.65L457.099,1233.112z"/>
<path style="fill-rule:evenodd;clip-rule:evenodd;fill:#B1CEF5;" d="M245.114,1258.83c0,0-10.367-24.082-29.22-7.924
	c-18.852,16.159-104.326,255.249-117.821,333.327l27.231,2.41c12.05-33.015,72.577-140.089,88.481-205.154L245.114,1258.83z"/>
<path style="fill-rule:evenodd;clip-rule:evenodd;fill:#B1CEF5;" d="M420.965,1370.058c18.521-17.034,36.71-111.046,39.217-142.778
	l-21.745-5.027c-4.84,11.044-44.014,102.89-49.587,123.742L420.965,1370.058z"/>
<path style="fill-rule:evenodd;clip-rule:evenodd;fill:#71C0C7;" d="M240.778,1539.086l-22.894,22.652
	c14.941,22.893,47.552,51.082,135.19,43.445c89.523-7.802,203.63-166.345,232.549-180.805
	c12.773,23.974,72.123,68.302,99.399,90.378c9.981,8.079,12.434,11.613,12.325,14.808c-0.158,4.595-4.756,9.153-2.022,14.154
	c2.734,5.003,26.682,3.371,36.683,35.06c5.181-3.012,35.425-26.388,37.112-29.159c-12.651-21.447-111.696-205.677-171.94-203.027
	c-60.246,2.65-181.879,86.017-227.665,129.395L240.778,1539.086z"/>
<path style="fill-rule:evenodd;clip-rule:evenodd;fill:#D1E5FF;" d="M283.658,1197.327c-8.527-0.12-15.745,0.414-20.523,1.624
	c-13.897,3.523-38.195,35.691-47.24,51.954c-0.214,0.384-0.419,0.759-0.615,1.127c-6.621,12.337-8.293,107.675-11.549,161.731
	c-3.409,56.615,1.967,108.535-0.469,156.096c33.052-18.315,97.56-57.351,98.171-57.807c11.327-8.433,66.992-25.303,69.884-32.533
	c-6.183-27.599-14.116-158.895-16.124-192.69C353.353,1210.449,346.526,1200.32,283.658,1197.327"/>
<path style="fill-rule:evenodd;clip-rule:evenodd;fill:#B1CEF5;" d="M339.347,1495.409c15.765-6.201,30.517-12.26,31.969-15.89
	c-6.182-27.599-14.115-158.895-16.124-192.69l-14.941-16.239C341.553,1301.448,346.144,1434.97,339.347,1495.409"/>
<path style="fill-rule:evenodd;clip-rule:evenodd;fill:#353B75;" d="M457.778,1163.158h21.91c2.463,0,3.921,2.015,3.24,4.479
	l-12.475,45.101c-0.681,2.463-3.254,4.478-5.717,4.478h-21.91c-2.463,0-3.921-2.015-3.239-4.478l12.475-45.101
	C452.742,1165.173,455.314,1163.158,457.778,1163.158"/>
<path style="fill-rule:evenodd;clip-rule:evenodd;fill:#E6A887;" d="M441.215,1198.912c1.479-1.48,4.998-4.158,5.798-2.879
	c0.8,1.28,0.361,13.634-3.319,15.114c-3.679,1.48-7.717,3.399-6.717-1C437.976,1205.749,441.215,1198.912,441.215,1198.912"/>
<path style="fill-rule:evenodd;clip-rule:evenodd;fill:#E6A887;" d="M468.943,1197.121c-1.383-3.374-7.66-10.89-5.141-12.369
	c2.519-1.479,12.475,6.117,13.194,9.636c0.72,3.519-5.757,7.477-5.757,7.477L468.943,1197.121z"/>
<path style="fill-rule:evenodd;clip-rule:evenodd;fill:#E6A887;" d="M469.438,1196.625c-3.013,1.04-8.605,5.637-11.626,11.127
	c-1.938,3.52-5.456,11.912,3.096,12.582c8.156,0.64,19.163-21.507,16.045-26.127L469.438,1196.625z"/>
<path style="fill-rule:evenodd;clip-rule:evenodd;fill:#D1E5FF;" d="M332.974,1282.903c19.636,25.893,42.247,58.501,58.166,76.785
	c10.062,11.557,21.855,17.037,31.006,9.478c11.035-9.116,8.676-27.67,2.088-39.342c-11.126-16.607-31.507-59.124-51.108-89.041
	c-0.954-0.1-36.518-55.089-55.812-24.102C306.758,1233.632,329.457,1279.385,332.974,1282.903"/>
<path style="fill:#353B75;" d="M448.794,1014.706c-1.143,3.275-2.615,5.867-4.417,7.778c-1.802,1.911-3.768,3.52-5.9,4.829
	c-2.132,1.309-4.357,2.423-6.677,3.342c-2.32,0.919-4.569,2.025-6.749,3.317c-9.33,5.531-14.468,14.884-18.16,24.913l-19.341-6.751
	c2.925-10.21,9.137-22.674,17.812-29.087c2.184-1.615,4.388-2.899,6.612-3.851c2.223-0.953,4.301-1.875,6.234-2.768
	c1.932-0.892,3.615-1.845,5.049-2.857c1.434-1.013,2.47-2.434,3.109-4.264c0.874-2.504,0.754-4.869-0.36-7.095
	c-1.114-2.226-3.116-3.843-6.005-4.851c-2.504-0.874-5.057-0.604-7.658,0.812c-2.601,1.415-4.608,4.146-6.02,8.191l-20.445-8.757
	c3.931-8.785,9.502-14.917,16.713-18.397c7.212-3.48,15.2-3.69,23.965-0.631c4.912,1.715,9.035,3.91,12.369,6.587
	c3.334,2.676,5.946,5.641,7.836,8.894c1.89,3.253,3.004,6.64,3.342,10.162C450.441,1007.744,450.005,1011.239,448.794,1014.706
	 M380.348,1069.922c1.009-2.89,2.975-5.04,5.898-6.451c2.924-1.41,5.83-1.612,8.72-0.603c2.889,1.008,5.039,2.975,6.45,5.898
	c1.411,2.924,1.612,5.83,0.603,8.72c-1.008,2.889-2.975,5.04-5.898,6.45c-2.924,1.411-5.83,1.612-8.72,0.603
	c-2.89-1.009-5.04-2.975-6.45-5.898C379.541,1075.718,379.34,1072.812,380.348,1069.922z"/>
<path style="fill-rule:evenodd;clip-rule:evenodd;fill:#FFFFFF;" d="M2446.205,734.089c1.53-2.542,23.32-2.522,24.708-0.589
	c1.814,2.524-3.29,11.703-11.812,11.221C2450.579,744.238,2444.553,736.832,2446.205,734.089"/>
<path style="fill-rule:evenodd;clip-rule:evenodd;fill:#FFFFFF;" d="M2076.729,1194.135c-1.53-2.542-23.319-2.522-24.708-0.589
	c-1.815,2.524,3.29,11.703,11.812,11.22C2072.355,1204.284,2078.381,1196.878,2076.729,1194.135"/>
</svg>
