<?xml version="1.0" encoding="utf-8"?>
<!-- Generator: Adobe Illustrator 21.0.0, SVG Export Plug-In . SVG Version: 6.00 Build 0)  -->
<svg version="1.1" id="Layer_1" xmlns="http://www.w3.org/2000/svg" xmlns:xlink="http://www.w3.org/1999/xlink" x="0px" y="0px"
	 viewBox="0 0 80 80" style="enable-background:new 0 0 80 80;" xml:space="preserve">
<style type="text/css">
	.st0{fill:#00C2B3;}
</style>
<g>
	<path class="st0" d="M78,60.9c-0.4,0.7-1,0.9-1.8,0.9c-1.9,0-3.9,0-5.8,0c-1.1,3.9-3.6,6.4-7.8,6.3c-4-0.1-6.4-2.5-7.4-6.3
		c-9.4,0-18.7,0-28.1,0c-1.6,4.4-4,6.3-7.6,6.3c-3.6,0-5.9-1.9-7.6-6.3c-2.7,0-5.4,0-8.1,0c-0.3,0-0.5,0-0.8,0
		c-0.8-0.1-1.2-0.5-1.3-1.4c0-0.2,0-0.4,0-0.6c0-13.1,0-26.3,0-39.4c0-1.6,0.3-1.9,1.9-1.9c15.7,0,31.4,0,47.1,0
		c1.6,0,1.9,0.3,1.9,1.9c0,2.3,0,4.6,0,6.9c0.3,0,0.6,0,0.9,0c3.8,0,7.6,0,11.3,0c0.8,0,1.4,0.3,1.8,1c3.6,5.7,7.3,11.3,10.9,17
		c0.2,0.2,0.3,0.5,0.5,0.8C78,51,78,56,78,60.9z M49.9,21.1c-15.3,0-30.5,0-45.7,0c0,11,0,22,0,33.1c2.1,0,4.2,0,6.3,0
		c0,0.9,0,1.7,0,2.5c-2.1,0-4.2,0-6.3,0c0,0.9,0,1.7,0,2.5c2.3,0,4.6,0,6.9,0c0.6,0,0.8-0.1,0.9-0.7c0.8-3.3,4-5.7,7.4-5.7
		c3.4,0,6.5,2.4,7.4,5.7c0.1,0.6,0.4,0.7,0.9,0.7c7.1,0,14.3,0,21.4,0c0.2,0,0.5,0,0.8,0c0-0.8,0-1.7,0-2.5c-7.2,0-14.3,0-21.5,0
		c0-0.9,0-1.7,0-2.6c7.2,0,14.4,0,21.5,0c0-9.4,0-18.6,0-28c-14.4,0-28.8,0-43.2,0c0-0.9,0-1.7,0-2.5c14.4,0,28.8,0,43.2,0
		C49.9,22.7,49.9,21.9,49.9,21.1z M66.2,32.5c-0.5-0.8-0.9-1.4-1.3-2c-0.2-0.4-0.6-0.5-1-0.5c-3.5,0-7,0-10.5,0c-0.2,0-0.5,0-0.7,0
		c0,9.8,0,19.5,0,29.3c0.9,0,1.7,0,2.5,0c0.4-1.8,1.2-3.3,2.7-4.5c1.4-1.2,3.1-1.9,4.9-1.8c4.1,0.2,6.5,2.5,7.5,6.3
		c1.7,0,3.4,0,5.1,0c0-0.9,0-1.6,0-2.5c-1.3,0-2.5,0-3.7,0c0-0.9,0-1.7,0-2.5c1.3,0,2.5,0,3.8,0c0-2.3,0-4.4,0-6.6c0-1,0-1.1-1-1.1
		c-5.8,0-11.7,0-17.5,0c-1.4,0-1.8-0.4-1.8-1.8c0-3.5,0-6.9,0-10.4c0-1.4,0.4-1.8,1.8-1.8c2.8,0,5.6,0,8.4,0
		C65.5,32.5,65.8,32.5,66.2,32.5z M73.5,43.9c-1.9-2.9-3.7-5.8-5.5-8.6c-0.1-0.2-0.5-0.3-0.7-0.3c-3,0-6,0-9,0c-0.2,0-0.4,0-0.6,0.1
		c0,3,0,5.9,0,8.8C62.9,43.9,68.2,43.9,73.5,43.9z M19.4,65.5c2.8,0,5.1-2.3,5.1-5c0-2.8-2.3-5.2-5.1-5.1c-2.8,0-5.1,2.4-5.1,5.1
		C14.3,63.3,16.6,65.5,19.4,65.5z M62.7,65.5c2.8,0,5.1-2.2,5.1-5c0.1-2.8-2.3-5.2-5.1-5.1c-2.8,0-5.1,2.3-5.1,5.1
		C57.6,63.2,59.9,65.5,62.7,65.5z"/>
	<path class="st0" d="M6.7,13.4c6,0,11.8,0,17.8,0c0,0.7,0,1.4,0,2.1c0,0.1-0.4,0.4-0.6,0.4c-2.5,0-5,0-7.5,0c-3,0-5.9,0-8.9,0
		c-0.3,0-0.5,0-0.8,0C6.7,15,6.7,14.2,6.7,13.4z"/>
	<path class="st0" d="M4.1,15.9c-0.8,0-1.6,0-2.4,0c0-0.8,0-1.6,0-2.5c0.8,0,1.6,0,2.4,0C4.1,14.2,4.1,15,4.1,15.9z"/>
	<path class="st0" d="M18.2,59.2c0.8,0,1.6,0,2.4,0c0,0.8,0,1.6,0,2.5c-0.8,0-1.6,0-2.4,0C18.2,60.9,18.2,60.1,18.2,59.2z"/>
	<path class="st0" d="M63.9,59.3c0,0.8,0,1.6,0,2.4c-0.8,0-1.6,0-2.4,0c0-0.8,0-1.6,0-2.4C62.3,59.3,63.1,59.3,63.9,59.3z"/>
</g>
</svg>
