<?xml version="1.0" encoding="utf-8"?>
<!-- Generator: Adobe Illustrator 21.0.0, SVG Export Plug-In . SVG Version: 6.00 Build 0)  -->
<svg version="1.1" id="Layer_1" xmlns="http://www.w3.org/2000/svg" xmlns:xlink="http://www.w3.org/1999/xlink" x="0px" y="0px"
	 viewBox="0 0 80 80" style="enable-background:new 0 0 80 80;" xml:space="preserve">
<style type="text/css">
	.st0{fill:#00C2B3;}
</style>
<g>
	<path class="st0" d="M5.1,69c0.2-1.6,0.4-3.1,0.7-4.7c0.6-3.7,2-7.2,3.8-10.5c3.3-5.9,8-10.6,14-13.8c6.3-3.5,13.1-4.9,20.3-4.2
		c10.9,1.1,19.5,6.3,25.8,15.2c3.4,4.8,5.4,10.2,6,16.1c0.2,2,0.1,4,0.2,6c0,0.7-0.3,1.2-0.9,1.5c-23,0-46,0-69,0
		c-0.8-0.3-0.9-1-1-1.7C5.1,71.5,5.1,70.2,5.1,69z M51.4,49.7c0.1,0.2,0.1,0.2,0.1,0.3c1.6,3.2,3,6.4,4,9.9c0.1,0.5,0.5,0.5,0.8,0.5
		c5,0,9.9,0,14.9,0c0.2,0,0.4,0,0.7,0c-1.3-3.8-3.2-7.3-5.8-10.3c-0.2-0.2-0.5-0.3-0.8-0.3c-3.6,0-7.2,0-10.8,0
		C53.5,49.7,52.4,49.7,51.4,49.7z M9.1,60.1c0.1,0.1,0.1,0.1,0.2,0.2c0.2,0,0.4,0,0.6,0c4.9,0,9.9,0,14.8,0c0.6,0,0.8-0.2,0.9-0.7
		c0.8-2.3,1.7-4.7,2.6-7c0.4-1,0.9-1.9,1.4-2.9c-0.2,0-0.3,0-0.4,0c-4.6,0-9.1,0-13.7,0c-0.3,0-0.6,0.2-0.8,0.4
		c-1,1.4-2.1,2.7-2.9,4.2C10.9,56.2,10,58.2,9.1,60.1z M56.4,62.7c0.3,3.2,0.6,6.3,0.9,9.4c5.4,0,10.8,0,16.4,0c0-0.3,0-0.5,0-0.7
		c0-2.7-0.3-5.4-0.9-8c-0.1-0.5-0.3-0.7-0.9-0.7c-5,0-10,0-14.9,0C56.7,62.7,56.5,62.7,56.4,62.7z M7.3,72.1c5.7,0,11.2,0,16.5,0
		c0.3-3.2,0.6-6.2,0.9-9.4c-0.2,0-0.4,0-0.7,0c-4.9,0-9.8,0-14.7,0c-0.6,0-0.9,0.2-1,0.8c-0.1,0.7-0.3,1.4-0.4,2
		C7.7,67.7,7.5,69.9,7.3,72.1z M41.7,72.1c4.4,0,8.6,0,12.9,0c0.1-3-0.2-5.9-0.8-8.7c-0.1-0.5-0.3-0.7-0.8-0.7c-3.5,0-7.1,0-10.6,0
		c-0.2,0-0.4,0-0.7,0C41.7,65.9,41.7,69,41.7,72.1z M26.4,72.1c4.4,0,8.6,0,12.9,0c0-3.2,0-6.3,0-9.4c-3.9,0-7.8,0-11.6,0
		c-0.1,0-0.4,0.2-0.4,0.3C26.6,66,26.3,69,26.4,72.1z M53.1,60.3c-0.9-3-2-5.8-3.4-8.5c-0.3-0.7-0.6-1.6-1.1-1.9
		c-0.6-0.3-1.5-0.1-2.2-0.1c-1.5,0-3,0-4.5,0c0,3.6,0,7.1,0,10.6C45.5,60.3,49.2,60.3,53.1,60.3z M28,60.3c0.4,0,0.6,0,0.8,0
		c3.3,0,6.6,0,9.9,0c0.6,0,0.7-0.2,0.7-0.7c0-3.1,0-6.1,0-9.2c0-0.2,0-0.4,0-0.7c-2.2,0-4.3,0-6.5,0c-0.2,0-0.5,0.3-0.6,0.5
		c-1.1,2.4-2.2,4.7-3.3,7.1C28.6,58.2,28.3,59.2,28,60.3z M37.6,38.1c-5-0.6-18.1,5.5-20,9.2c0.2,0,0.4,0,0.6,0c4.1,0,8.2,0,12.2,0
		c0.5,0,0.7-0.2,1-0.5c1.5-2.3,3.1-4.5,4.7-6.8C36.5,39.4,37.1,38.8,37.6,38.1z M43.4,38c0.1,0.2,0.1,0.3,0.2,0.3
		c2.3,2.7,4.3,5.6,6.1,8.6c0.2,0.4,0.5,0.4,0.9,0.4c4.1,0,8.2,0,12.3,0c0.2,0,0.4,0,0.7-0.1C57.9,41.8,51.2,38.8,43.4,38z
		 M47.1,47.3c-1.6-2.6-3.4-5.1-5.4-7.4c0,2.6,0,5,0,7.4C43.5,47.3,45.3,47.3,47.1,47.3z M39.3,39.9c-2,2.4-3.8,4.8-5.3,7.4
		c1.8,0,3.6,0,5.3,0C39.3,44.8,39.3,42.4,39.3,39.9z"/>
	<path class="st0" d="M5.1,31.1c0.3-1.5,0.8-2.9,1.9-4c0.9-0.8,1.9-1.5,2.9-2.2c-1.1-1.3-1.5-3-1.2-4.8c0.3-1.5,1.1-2.7,2.3-3.6
		c2.2-1.7,5.4-1.5,7.6,0.5c1.8,1.7,2.8,5,0.4,8.1c2.5,0.9,4.1,2.7,4.8,5.3c5.1-1,10.2-2,15.3-3.1c0-0.9,0-1.7,0-2.5
		c-0.2,0-0.5,0-0.7,0c-1.9,0-3.8,0-5.7,0c-1.2,0-1.6-0.4-1.6-1.6c0-1.6-0.1-3.2,0.2-4.7c0.4-2.4,2-4.1,4.2-5
		c0.1-0.1,0.3-0.1,0.5-0.2c-1.2-1.6-1.7-3.3-1.3-5.2c0.3-1.5,1.1-2.6,2.3-3.5c2.2-1.6,5.3-1.4,7.4,0.5c2.3,2,2.4,4.7,0.5,8.2
		c1.3,0.5,2.4,1.2,3.3,2.2c1,1.2,1.6,2.5,1.6,4c0.1,1.2,0,2.5,0,3.7c0,1.1-0.4,1.5-1.5,1.5c-2.1,0-4.1,0-6.2,0c-0.2,0-0.5,0-0.8,0
		c0,0.9,0,1.7,0,2.6c5.2,1,10.4,2.1,15.6,3.1c1.4-3.4,1.4-3.4,4.9-5.4c-2-3.5-1.7-6.3,0.9-8.4c2.3-1.8,5.4-1.7,7.7,0.3
		c1.8,1.6,2.9,5,0.6,8.1c0.7,0.4,1.5,0.8,2.2,1.4c1.8,1.4,2.6,3.2,2.7,5.5c0,1.1,0,2.3,0,3.4c0,0.9-0.5,1.4-1.4,1.4
		c-5.4,0-10.7,0-16.1,0c-1,0-1.4-0.4-1.4-1.4c0-0.6,0-1.2,0-1.8c0-0.4-0.2-0.6-0.5-0.6c-5.3-1.1-10.6-2.1-15.9-3.2
		c-0.2,0-0.5,0-0.7,0c-5,1-10,2-15,3c-0.7,0.1-1,0.4-0.9,1.1c0.1,0.5,0,1.1,0,1.7c-0.1,0.8-0.5,1.2-1.3,1.2c-0.7,0-1.5,0-2.2,0
		c-4.6,0-9.1,0-13.7,0c-0.7,0-1.3-0.2-1.7-0.8C5.1,34.3,5.1,32.7,5.1,31.1z M47.6,22.5c0-0.9,0-1.8,0-2.7c-0.1-2.2-1.9-4.1-4.1-4.3
		c-1.8-0.1-3.5-0.1-5.3-0.1c-1.1,0-2,0.4-2.9,1c-2,1.6-1.9,3.8-1.7,6C38.2,22.5,42.8,22.5,47.6,22.5z M59.5,34.3c4.7,0,9.4,0,14.1,0
		c0-0.9,0.1-1.8,0-2.6c-0.2-2.5-2-4.3-4.6-4.4c-1.7-0.1-3.5,0-5.2,0c-1,0-1.9,0.4-2.7,1C59.2,29.9,59.4,32.1,59.5,34.3z M7.5,34.3
		c4.7,0,9.3,0,14.1,0c0-0.9,0.1-1.8,0-2.7c-0.2-2.4-2-4.2-4.4-4.3c-1.8-0.1-3.6-0.1-5.4,0c-2.2,0.1-4,1.8-4.3,3.9
		C7.4,32.2,7.5,33.2,7.5,34.3z M70.1,21.3c0-1.9-1.5-3.5-3.5-3.6c-1.9,0-3.6,1.6-3.6,3.6c0,1.9,1.6,3.5,3.5,3.5
		C68.5,24.8,70,23.3,70.1,21.3z M11,21.3c0,1.9,1.6,3.5,3.5,3.5c1.9,0,3.5-1.6,3.5-3.5c0-1.9-1.7-3.6-3.6-3.5
		C12.5,17.8,11,19.4,11,21.3z M40.5,13c1.9,0,3.5-1.6,3.5-3.5c0-1.9-1.6-3.5-3.5-3.5c-1.9,0-3.6,1.6-3.6,3.6
		C37,11.5,38.6,13,40.5,13z"/>
</g>
</svg>
