<?xml version="1.0" encoding="utf-8"?>
<!-- Generator: Adobe Illustrator 21.0.0, SVG Export Plug-In . SVG Version: 6.00 Build 0)  -->
<svg version="1.1" id="Layer_1" xmlns="http://www.w3.org/2000/svg" xmlns:xlink="http://www.w3.org/1999/xlink" x="0px" y="0px"
	 viewBox="0 0 80 80" style="enable-background:new 0 0 80 80;" xml:space="preserve">
<style type="text/css">
	.st0{fill:#00C2B3;}
</style>
<g>
	<path class="st0" d="M5,7.9C5.4,7,5.8,6,6.6,5.3c1.4-1.1,3-1.1,4.6-0.8C19,5.7,26.8,6.9,34.6,8.1c2.6,0.4,5.3,0.8,7.9,1.2
		c2.5,0.4,3.9,2.1,3.9,4.7c0,5.3,0,10.5,0,15.8c0,0.3,0,0.6,0,0.9c1.4,0.3,2.8,0.6,4.2,0.9c7.2,1.4,14.5,2.9,21.7,4.3
		c2.3,0.4,3.6,2.2,3.6,4.5c0,9.9,0,19.8,0,29.7c0,2.4-1.2,4-3.6,4.6c-0.1,0-0.1,0.1-0.2,0.1c-21.2,0-42.3,0-63.5,0
		c-1.1-0.3-2.2-0.8-2.9-1.8c-0.4-0.5-0.6-1.2-0.9-1.8C5,50.1,5,29,5,7.9z M16.8,71.8c0-0.4,0-0.6,0-0.9c0-4,0-8,0-12.1
		c0-2.9,1.8-4.8,4.7-4.8c2.7,0,5.5,0,8.2,0c3,0,4.8,1.8,4.8,4.8c0,4,0,8,0,12.1c0,0.3,0,0.5,0,0.8c3,0,5.9,0,8.9,0
		c0-0.3,0-0.6,0-0.9c0-18.9,0-37.8,0-56.6c0-1.6-0.3-2-1.9-2.2c-4.1-0.6-8.2-1.2-12.3-1.8c-6.5-1-13-2-19.5-3C8.9,7.2,8.1,7.7,8,8.5
		C8,8.8,8,9,8,9.3c0,20.2,0,40.3,0,60.5c0,0.2,0,0.4,0,0.6c0.1,0.8,0.6,1.4,1.4,1.4C11.8,71.8,14.3,71.8,16.8,71.8z M46.5,71.8
		c0.3,0,0.6,0,0.8,0c7.9,0,15.8,0,23.6,0c1.6,0,2.1-0.5,2.1-2.1c0-9.7,0-19.3,0-29c0-1.5-0.3-1.9-1.8-2.2c-6.7-1.3-13.4-2.7-20.2-4
		c-1.5-0.3-3.1-0.6-4.7-0.9C46.5,46.4,46.5,59.1,46.5,71.8z M31.6,71.8c0-0.3,0-0.4,0-0.6c0-4.1,0-8.2,0-12.3c0-1.3-0.5-1.8-1.8-1.8
		c-2.7,0-5.4,0-8.1,0c-1.4,0-1.9,0.5-1.9,1.9c0,4,0,8.1,0,12.1c0,0.2,0,0.5,0,0.7C23.8,71.8,27.7,71.8,31.6,71.8z"/>
	<path class="st0" d="M18.3,18.6c1,0,1.9,0,2.9,0c0.9,0,1.5,0.6,1.5,1.4c0,0.9-0.6,1.5-1.6,1.5c-1.9,0-3.8,0-5.7,0
		c-0.9,0-1.6-0.6-1.6-1.5c0-0.8,0.6-1.4,1.5-1.4C16.4,18.6,17.3,18.6,18.3,18.6z"/>
	<path class="st0" d="M18.2,30.4c-0.9,0-1.8,0-2.8,0c-0.9,0-1.6-0.6-1.6-1.5c0-0.9,0.6-1.5,1.6-1.5c1.9,0,3.8,0,5.7,0
		c0.9,0,1.6,0.6,1.6,1.5c0,0.8-0.7,1.4-1.6,1.5C20.2,30.4,19.2,30.4,18.2,30.4z"/>
	<path class="st0" d="M18.3,39.3c-0.9,0-1.8,0-2.8,0c-1,0-1.6-0.6-1.6-1.5c0-0.9,0.6-1.4,1.6-1.4c1.9,0,3.8,0,5.7,0
		c1,0,1.6,0.6,1.6,1.4c0,0.9-0.6,1.5-1.6,1.5C20.2,39.3,19.2,39.3,18.3,39.3z"/>
	<path class="st0" d="M18.3,45.2c0.9,0,1.9,0,2.8,0c1,0,1.6,0.6,1.6,1.5c0,0.8-0.6,1.5-1.6,1.5c-1.9,0-3.8,0-5.7,0
		c-0.9,0-1.6-0.7-1.5-1.5c0-0.8,0.6-1.4,1.5-1.4C16.4,45.2,17.4,45.2,18.3,45.2z"/>
	<path class="st0" d="M33.1,48.1c-0.9,0-1.9,0-2.8,0c-0.9,0-1.6-0.6-1.6-1.5c0-0.9,0.6-1.4,1.6-1.5c1.9,0,3.8,0,5.7,0
		c0.9,0,1.5,0.6,1.5,1.4c0,0.9-0.6,1.5-1.6,1.5C35,48.2,34.1,48.1,33.1,48.1z"/>
	<path class="st0" d="M33.1,36.3c1,0,1.9,0,2.9,0c0.9,0,1.5,0.6,1.5,1.4c0,0.8-0.6,1.5-1.6,1.5c-1.9,0-3.8,0-5.7,0
		c-0.9,0-1.6-0.6-1.6-1.5c0-0.9,0.6-1.4,1.5-1.4C31.2,36.3,32.1,36.3,33.1,36.3z"/>
	<path class="st0" d="M33.1,30.4c-0.9,0-1.8,0-2.8,0c-1,0-1.6-0.6-1.6-1.5c0-0.9,0.6-1.4,1.6-1.5c1.9,0,3.8,0,5.7,0
		c1,0,1.6,0.6,1.6,1.4c0,0.9-0.6,1.5-1.6,1.5C35,30.4,34,30.4,33.1,30.4z"/>
	<path class="st0" d="M33.1,21.5c-0.9,0-1.9,0-2.8,0c-1,0-1.6-0.6-1.6-1.5c0-0.9,0.6-1.5,1.5-1.5c1.9,0,3.8,0,5.7,0
		c0.9,0,1.6,0.6,1.6,1.5c0,0.8-0.7,1.4-1.6,1.5C35,21.5,34.1,21.5,33.1,21.5z"/>
	<path class="st0" d="M59.8,62.9c0.9,0,1.9,0,2.8,0c0.9,0,1.6,0.7,1.6,1.5c0,0.8-0.6,1.4-1.5,1.4c-1.9,0-3.9,0-5.8,0
		c-0.9,0-1.5-0.6-1.5-1.5c0-0.9,0.6-1.4,1.5-1.5C57.8,62.9,58.8,62.9,59.8,62.9z"/>
	<path class="st0" d="M59.8,54.1c0.9,0,1.9,0,2.8,0c0.9,0,1.6,0.6,1.6,1.5c0,0.8-0.6,1.5-1.6,1.5c-1.9,0-3.8,0-5.7,0
		c-1,0-1.6-0.6-1.6-1.5c0-0.9,0.6-1.5,1.6-1.5c0,0,0.1,0,0.1,0C58,54.1,58.9,54.1,59.8,54.1z"/>
	<path class="st0" d="M59.7,45.2c1,0,1.9,0,2.9,0c0.9,0,1.5,0.6,1.5,1.4c0,0.8-0.6,1.5-1.6,1.5c-1.9,0-3.8,0-5.7,0
		c-0.9,0-1.6-0.6-1.5-1.5c0-0.9,0.6-1.4,1.5-1.4C57.8,45.2,58.8,45.2,59.7,45.2z"/>
</g>
</svg>
