<?xml version="1.0" encoding="utf-8"?>
<!-- Generator: Adobe Illustrator 21.0.0, SVG Export Plug-In . SVG Version: 6.00 Build 0)  -->
<svg version="1.1" id="Layer_1" xmlns="http://www.w3.org/2000/svg" xmlns:xlink="http://www.w3.org/1999/xlink" x="0px" y="0px"
	 viewBox="0 0 80 80" style="enable-background:new 0 0 80 80;" xml:space="preserve">
<style type="text/css">
	.st0{fill:#00C2B3;}
</style>
<g>
	<path class="st0" d="M4,19.6c0.4-0.6,0.9-0.9,1.6-1.2c6.2-2,12.4-4.1,18.6-6.2c0.4-0.1,0.8-0.2,1.2-0.2c0.7,0,1.2,0.6,1.3,1.2
		c0.1,0.7-0.2,1.4-0.9,1.6c-1.1,0.4-2.3,0.8-3.4,1.2c-4.6,1.5-9.2,3.1-13.8,4.6c-0.2,0.1-0.4,0.2-0.6,0.3c1.4,2.1,2.7,4.1,4.1,6.1
		c0.1,0.2,0.5,0.2,0.8,0.1c4-1.3,8-2.5,12.1-3.8c0.2-0.1,0.5-0.2,0.7-0.2c0.9-0.2,1.6,0.2,1.8,1c0.2,0.8-0.1,1.6-1,1.9
		c-1.7,0.6-3.5,1.1-5.2,1.7c-1.5,0.5-2.9,0.9-4.6,1.5c1.5,0.5,2.9,0.9,4.2,1.4c6.3,2,12.5,4,18.8,5.9c0.4,0.1,0.8,0.1,1.1,0
		c7.5-2.4,15.1-4.7,22.6-7.1c0.1,0,0.2-0.1,0.4-0.2c-0.2-0.1-0.4-0.2-0.5-0.2c-3-0.9-5.9-1.9-8.9-2.8c-1-0.3-1.5-1-1.3-1.7
		c0.2-1,1.1-1.5,2.2-1.2c1.8,0.6,3.7,1.2,5.5,1.7c2.3,0.7,4.6,1.4,6.9,2.2c0.5,0.2,0.7,0.1,1-0.3c1.3-2,2.6-3.9,3.9-5.9
		c-0.3-0.1-0.6-0.2-0.8-0.3c-5.5-1.8-11.1-3.7-16.6-5.5c-0.6-0.2-1.1-0.5-1.3-1.2c-0.1-0.6,0-1.1,0.4-1.5c0.5-0.5,1.1-0.5,1.7-0.3
		c1.6,0.5,3.1,1,4.7,1.6c4.8,1.6,9.6,3.2,14.3,4.8c1.6,0.5,2,1.4,1,2.9c-1.6,2.4-3.2,4.9-4.9,7.3c-0.3,0.4-0.3,0.6,0,1
		c1.7,2.4,3.3,4.9,4.9,7.4c0.9,1.3,0.6,2.2-0.9,2.8c-1.3,0.5-2.5,1-3.8,1.5c-0.6,0.2-0.8,0.5-0.8,1.2c0,5.9-0.1,11.9,0,17.8
		c0.1,4.4-2.6,7.1-5.8,8.1c-7.5,2.3-14.9,4.8-22.3,7.2c-0.4,0.1-0.8,0.2-1.2,0.4c-0.6,0-1.1,0-1.7,0c-0.5-0.1-1-0.3-1.5-0.4
		c-7.3-2.4-14.7-4.8-22-7.1c-3.6-1.1-5.9-4.1-5.9-8c0.1-6,0-12,0-18c0-0.6-0.1-0.9-0.7-1.1c-1.3-0.5-2.6-1-4-1.5
		c-0.6-0.2-1.1-0.6-1.4-1.2c0-0.3,0-0.6,0-0.8c1.8-2.7,3.5-5.3,5.3-8c0.3-0.5,0.3-0.8,0-1.2c-1.8-2.7-3.6-5.4-5.3-8.1
		C4,20.2,4,19.9,4,19.6z M38.7,43.1c-0.3,0.3-0.4,0.5-0.6,0.7c-1.3,1.8-2.6,3.6-3.9,5.5c-0.8,1.1-1.3,1.3-2.5,0.8
		c-4.9-1.9-9.7-3.8-14.6-5.7c-1.3-0.5-2.6-1-4-1.6c0,0.4,0,0.6,0,0.9c0,5.6,0,11.3,0,16.9c0,2.6,1.1,4.1,3.6,4.9
		c5.5,1.8,11,3.5,16.5,5.3c1.8,0.6,3.7,1.2,5.6,1.8C38.7,62.8,38.7,53,38.7,43.1z M41.8,72.6c0.2-0.1,0.4-0.1,0.5-0.1
		c7.2-2.3,14.4-4.7,21.6-7c2.4-0.8,3.5-2.3,3.5-4.8c0-5.7,0-11.3,0-17c0-0.2,0-0.5,0-0.8c-0.3,0.1-0.5,0.2-0.7,0.3
		c-6,2.3-11.9,4.6-17.9,7c-1.2,0.5-1.7,0.3-2.5-0.7c-1.3-1.9-2.7-3.7-4-5.6c-0.1-0.2-0.3-0.4-0.5-0.6C41.8,53,41.8,62.8,41.8,72.6z
		 M42.7,39.1c1.9,2.7,3.8,5.3,5.7,7.9c8.1-3.2,16.2-6.3,24.3-9.5c-1.5-2.2-2.9-4.4-4.4-6.6C59.8,33.7,51.3,36.4,42.7,39.1z
		 M7.8,37.5C16,40.7,24,43.8,32.1,47c1.9-2.6,3.7-5.2,5.7-7.9c-8.6-2.7-17.1-5.4-25.6-8.1C10.7,33.1,9.3,35.3,7.8,37.5z"/>
	<path class="st0" d="M41.8,22.4c0.3-0.3,0.5-0.5,0.7-0.6c1.4-1.4,2.7-2.7,4.1-4.1c0.8-0.8,1.7-0.8,2.3-0.2c0.6,0.7,0.6,1.5-0.2,2.3
		c-2.4,2.4-4.8,4.8-7.2,7.2c-0.8,0.8-1.6,0.8-2.5,0c-2.4-2.4-4.8-4.8-7.2-7.2c-0.8-0.8-0.8-1.7-0.2-2.3c0.7-0.6,1.5-0.6,2.3,0.2
		c1.4,1.4,2.7,2.7,4.1,4.1c0.2,0.2,0.4,0.3,0.7,0.6c0-0.4,0-0.7,0-0.9c0-5.3,0-10.6,0-15.9c0-0.3,0-0.5,0-0.8
		c0.1-0.8,0.7-1.3,1.5-1.3c0.8,0,1.4,0.5,1.5,1.3c0,0.3,0,0.5,0,0.8c0,5.3,0,10.6,0,15.8C41.8,21.8,41.8,22,41.8,22.4z"/>
</g>
</svg>
