<svg id="Layer_1" data-name="Layer 1" xmlns="http://www.w3.org/2000/svg" viewBox="0 0 150 150"><defs><style>.cls-1{fill:#454545;}</style></defs><title>1</title><path class="cls-1" d="M75,97.08a2.21,2.21,0,0,1-2.21-2.21V24.21a2.21,2.21,0,1,1,4.42,0V94.87A2.21,2.21,0,0,1,75,97.08Z"/><path class="cls-1" d="M75,97.08a2.19,2.19,0,0,1-1.56-.64L55.77,78.77a2.21,2.21,0,0,1,3.12-3.12L75,91.75l16.1-16.1a2.21,2.21,0,0,1,3.13,3.12L76.56,96.44a2.19,2.19,0,0,1-1.56.64Z"/><path class="cls-1" d="M117,128H33a11.06,11.06,0,0,1-11-11V94.87a2.21,2.21,0,0,1,4.42,0V117A6.63,6.63,0,0,0,33,123.58H117a6.63,6.63,0,0,0,6.62-6.62V94.87a2.21,2.21,0,0,1,4.42,0V117A11.06,11.06,0,0,1,117,128Z"/></svg>