<svg id="Layer_1" data-name="Layer 1" xmlns="http://www.w3.org/2000/svg" viewBox="0 0 150 150"><defs><style>.cls-1{fill:#454545;}</style></defs><title>2</title><path class="cls-1" d="M108.81,72.78A45.17,45.17,0,0,0,91.26,61.94a23.39,23.39,0,1,0-32.82-4.28,23,23,0,0,0,4.3,4.3A44.73,44.73,0,0,0,32,104.59V119a9,9,0,0,0,9,9h72a9,9,0,0,0,9-9v-14.4A44.84,44.84,0,0,0,108.81,72.78ZM57.2,43.42A19.8,19.8,0,1,1,86.11,61a17.14,17.14,0,0,1-2.09.95l-.32.11c-.6.2-1.21.41-1.82.56l-.47.12c-.59.13-1.19.24-1.78.31l-.43.07a20.5,20.5,0,0,1-4.43,0l-.4-.07c-.61-.09-1.2-.18-1.8-.31-.16,0-.32-.07-.47-.12a14.84,14.84,0,0,1-1.83-.56L70,61.94A17.14,17.14,0,0,1,67.87,61,19.73,19.73,0,0,1,57.2,43.42ZM118.4,119a5.38,5.38,0,0,1-5.4,5.4H41a5.38,5.38,0,0,1-5.4-5.4v-14.4A41.12,41.12,0,0,1,64.83,65a5.56,5.56,0,0,1,1.57-.22,5.84,5.84,0,0,1,2.07.38l.16,0c.25.09.5.15.74.24.54.18,1.08.36,1.62.5.36.09.7.18,1.06.25s.94.18,1.42.24.72.12,1.1.16c.63.07,1.26.09,1.91.11.18,0,.36,0,.54,0s.36,0,.54,0c.63,0,1.26,0,1.89-.11.38,0,.74-.09,1.1-.16s1-.15,1.42-.24.72-.16,1.06-.25c.56-.16,1.1-.32,1.64-.52l.7-.25.16-.06A5.36,5.36,0,0,1,89.15,65a41.48,41.48,0,0,1,29.25,39.59V119Z"/></svg>