<?xml version="1.0" encoding="utf-8"?>
<!-- Generator: Adobe Illustrator 21.0.0, SVG Export Plug-In . SVG Version: 6.00 Build 0)  -->
<svg version="1.1" id="Layer_1" xmlns="http://www.w3.org/2000/svg" xmlns:xlink="http://www.w3.org/1999/xlink" x="0px" y="0px"
	 viewBox="0 0 150 150" style="enable-background:new 0 0 150 150;" xml:space="preserve">
<style type="text/css">
	.st0{fill:#454545;}
</style>
<title>3</title>
<path id="Business_Up" class="st0" d="M130.2,92.8l-26-27.4c-3-2.9-7.8-2.9-10.8,0L78.8,80.9c-4.7-8.1-15-11.7-23.3-14.7
	c-5.5-2-11.1-4-11.1-6.3c0-3.6,4.5-4.2,7.2-4.2c6.3,0,10.4,1.9,15,4.9c1.7,1.1,3.9,0.8,5.2-0.7l6.3-7.3c1.4-1.6,1.3-4.2-0.4-5.6
	c0,0,0,0,0,0c-4.8-4.5-10.8-7.5-17.3-8.7c-0.4-0.1-0.7-0.4-0.7-0.8V25.7c0-2.2-1.8-4-4-4c0,0,0,0,0,0h-7.5c-2.2,0-4,1.8-4,4v12.1
	c0,0.4-0.3,0.7-0.7,0.8c-12.6,2.7-20.1,10.7-20.1,21.6c0,14.9,14.4,20.3,24.9,24.2c6.2,2.3,12.1,4.5,12.1,7.6c0,3.6-4.9,4.1-7.8,4.1
	c-6.4,0-12.4-1.9-20-6.4c-1.9-1.1-4.3-0.5-5.4,1.3l-5.7,8.8c-1.1,1.8-0.7,4.2,1,5.4c6.3,4.4,13.5,7.3,21,8.5c0.4,0,0.7,0.4,0.7,0.8
	v13.8c0,2.2,1.8,4,4,4c0,0,0,0,0,0h7.5c2.2,0,4-1.8,4-4v-14.4c0-0.4,0.3-0.7,0.7-0.8c9.2-2,15.9-6.8,19-13.5
	c0.9,0.1,1.5,0.8,1.5,1.7v23.5c0,4.2,3.4,7.6,7.6,7.6c0,0,0,0,0,0h20.6c4.2,0,7.6-3.3,7.6-7.5v-23.5c0-0.9,0.8-1.7,1.8-1.7
	c0,0,0,0,0,0h8.7c1.7,0,3.1-1,3.8-2.5C131.6,95.6,131.3,93.9,130.2,92.8L130.2,92.8z M59.7,110c-1.9,0.4-3.2,2-3.2,3.9v14.4
	c0,0.4-0.4,0.8-0.8,0.8c0,0,0,0,0,0h-7.5c-0.4,0-0.8-0.3-0.8-0.8c0,0,0,0,0,0v-13.8c0-2-1.5-3.7-3.5-3.9c-7-1.1-13.8-3.8-19.6-7.9
	c-0.4-0.2-0.5-0.7-0.3-1.1c0,0,0,0,0,0l5.7-8.8c0.3-0.4,0.8-0.5,1.2-0.2c8.2,4.8,14.7,6.8,21.6,6.8c9.9,0,11-5.1,11-7.3
	c0-5.3-6.6-7.8-14.2-10.6c-10.7-3.9-22.8-8.4-22.8-21.1c0-9.4,6.4-16.1,17.6-18.4c1.9-0.3,3.3-2,3.3-4V25.7c0-0.5,0.4-0.8,0.8-0.8
	c0,0,0,0,0,0h7.5c0.5,0,0.8,0.4,0.8,0.8c0,0,0,0,0,0v11.9c0,2,1.4,3.6,3.4,3.9c5.9,1.1,11.4,3.9,15.8,7.9c0.4,0.3,0.4,0.8,0.1,1.2
	c0,0,0,0,0,0l-6.4,7.3c-0.3,0.3-0.7,0.4-1.1,0.1c-5-3.3-9.8-5.4-16.8-5.4c-6.5,0-10.4,2.8-10.4,7.4s5.8,6.7,13.2,9.3
	c8.1,2.9,18.1,6.5,22,14.1l-8.9,9.4c-1.2,1.1-1.5,2.9-0.9,4.3c0.6,1.5,2.1,2.5,3.8,2.5h5.4C72.9,104.7,67.2,108.4,59.7,110L59.7,110
	z M128.1,95.9c-0.1,0.3-0.5,0.5-0.8,0.5h-8.7c-2.7,0-4.9,2.2-4.9,4.9c0,0,0,0,0,0v23.5c0,2.4-2,4.3-4.4,4.3H88.5
	c-2.4,0.1-4.4-1.9-4.5-4.3c0,0,0,0,0,0v-23.5c0-2.7-2.2-4.9-4.9-4.9c0,0,0,0,0,0h-8.7c-0.3,0-0.7-0.2-0.8-0.5
	c-0.1-0.3,0-0.7,0.2-0.9l25.9-27.4c1.7-1.7,4.5-1.7,6.2,0L127.9,95C128.1,95.2,128.2,95.6,128.1,95.9L128.1,95.9z M106.1,105.6v19.8
	c0.1,0.9-0.6,1.7-1.5,1.7c-0.9,0.1-1.7-0.6-1.7-1.5c0-0.1,0-0.2,0-0.3v-19.8c0.1-0.9,0.9-1.5,1.7-1.5
	C105.4,104.2,106,104.8,106.1,105.6z"/>
</svg>
