<?xml version="1.0" encoding="utf-8"?>
<!-- Generator: Adobe Illustrator 21.0.0, SVG Export Plug-In . SVG Version: 6.00 Build 0)  -->
<svg version="1.1" id="Layer_1" xmlns="http://www.w3.org/2000/svg" xmlns:xlink="http://www.w3.org/1999/xlink" x="0px" y="0px"
	 viewBox="0 0 150 150" style="enable-background:new 0 0 150 150;" xml:space="preserve">
<style type="text/css">
	.st0{fill:#464646;}
</style>
<title>4</title>
<path class="st0" d="M124.6,84.8c5.4,0,10.9,0,16.3,0c0.8,0,1.5,0.3,2.1,0.8c0.7,0.8,0.6,1.9-0.2,2.6c-0.3,0.2-0.6,0.4-1,0.4
	c-0.5,0-1,0-1.5,0H10.7c-0.4,0-0.9,0-1.3,0c-1.1-0.1-1.8-1.1-1.7-2.1c0.1-0.9,0.8-1.6,1.7-1.7c1.1-0.1,2.3,0,3.4,0
	c4.5,0,9,0,13.5-0.1c-6.2-1.3-11.6-5-15.1-10.4c-3.5-5.3-4.5-11.9-2.9-18C11.5,43.9,24,36.5,36.3,39.7c8.6,2.2,15.1,9.1,16.8,17.8
	c1.3,6,0,12.3-3.5,17.4c-3.4,5-8.6,8.6-14.6,9.9h80.7c-6.3-1.4-11.8-5.4-15.2-10.9c-3.5-5.5-4.3-12.3-2.3-18.5
	c3.7-12.1,16.5-19,28.6-15.3c8.9,2.7,15.4,10.6,16.2,19.9C144.2,71,137,81.9,124.6,84.8z M120.4,42.9c-10.5-0.1-19.1,8.4-19.2,18.9
	s8.4,19.1,18.9,19.2c10.4,0.1,18.9-8.2,19.2-18.5c0.2-10.6-8.1-19.4-18.7-19.6C120.6,42.9,120.5,42.9,120.4,42.9z M30.6,42.9
	C20,42.9,11.5,51.4,11.5,62S20,81,30.6,81c10.5,0,19.1-8.6,19.1-19.1c0-0.1,0-0.1,0-0.2C49.5,51.3,41,42.9,30.6,42.9L30.6,42.9z"/>
<path class="st0" d="M49.6,125.2C58.2,113,66.7,101,75.4,88.7c8.6,12.1,17.1,24.3,25.8,36.5H49.6z M93.7,121.3L75.4,95.5l-18.3,25.8
	H93.7z"/>
</svg>
