<?xml version="1.0" encoding="utf-8"?>
<!-- Generator: Adobe Illustrator 21.0.0, SVG Export Plug-In . SVG Version: 6.00 Build 0)  -->
<svg version="1.1" id="Layer_1" xmlns="http://www.w3.org/2000/svg" xmlns:xlink="http://www.w3.org/1999/xlink" x="0px" y="0px"
	 viewBox="0 0 150 150" style="enable-background:new 0 0 150 150;" xml:space="preserve">
<style type="text/css">
	.st0{fill:#454545;}
</style>
<title>5</title>
<path class="st0" d="M120.2,87h-12.6V25.8c0-1-0.8-1.8-1.8-1.8H48.2c-1,0-1.8,0.8-1.8,1.8l0,0V87H33.8c-0.5,0-1,0.2-1.3,0.6
	c-0.7,0.7-0.7,1.8,0,2.5c0,0,0,0,0,0l43.2,41.4c0.7,0.7,1.8,0.7,2.5,0l43.2-41.4c0.4-0.3,0.6-0.8,0.6-1.3
	C121.9,87.8,121.2,87,120.2,87z M77,127.7L38.3,90.6h9.9c1,0,1.8-0.8,1.8-1.8V27.6h54v61.2c0,1,0.8,1.8,1.8,1.8h9.9L77,127.7z"/>
<path class="st0" d="M77,51c4,0,7.2,3.2,7.2,7.2h3.6c0-5.3-3.8-9.8-9-10.7v-3.7h-3.6v3.8c-5.9,1-9.8,6.6-8.8,12.5
	C67.4,65.2,71.8,69,77,69c4,0,7.2,3.2,7.2,7.2c0,4-3.2,7.2-7.2,7.2c-4,0-7.2-3.2-7.2-7.2h-3.6c0,5.3,3.8,9.8,9,10.7v3.8h3.6v-3.8
	c5.9-1,9.8-6.6,8.8-12.5c-0.9-5.1-5.3-8.9-10.6-8.9c-4,0-7.2-3.2-7.2-7.2C69.8,54.2,73,51,77,51z"/>
<rect x="53.6" y="31.2" class="st0" width="3.6" height="3.6"/>
<rect x="60.8" y="31.2" class="st0" width="3.6" height="3.6"/>
<rect x="68" y="31.2" class="st0" width="3.6" height="3.6"/>
<rect x="75.2" y="31.2" class="st0" width="3.6" height="3.6"/>
<rect x="82.4" y="31.2" class="st0" width="3.6" height="3.6"/>
<rect x="89.6" y="31.2" class="st0" width="3.6" height="3.6"/>
<rect x="96.8" y="31.2" class="st0" width="3.6" height="3.6"/>
</svg>
