<?xml version="1.0" encoding="utf-8"?>
<!-- Generator: Adobe Illustrator 23.0.3, SVG Export Plug-In . SVG Version: 6.00 Build 0)  -->
<svg version="1.1" id="Layer_1" xmlns="http://www.w3.org/2000/svg" xmlns:xlink="http://www.w3.org/1999/xlink" x="0px" y="0px"
	 viewBox="0 0 100 100" style="enable-background:new 0 0 100 100;" xml:space="preserve">
<style type="text/css">
	.st0{fill:#198FCC;}
	.st1{fill:#FFFFFF;}
</style>
<title>1</title>
<circle class="st0" cx="50" cy="50" r="48"/>
<g>
	<g>
		<path class="st1" d="M51.6,51c-1,0-1.8-0.8-1.8-1.8v-1.8H33.1v1.8c0,1-0.8,1.8-1.8,1.8c-1,0-1.8-0.8-1.8-1.8v-3.6
			c0-1,0.8-1.8,1.8-1.8h20.3c1,0,1.8,0.8,1.8,1.8v3.6C53.4,50.2,52.6,51,51.6,51z"/>
	</g>
	<g>
		<path class="st1" d="M41.5,67.1c-1,0-1.8-0.8-1.8-1.8V46.2c0-1,0.8-1.8,1.8-1.8s1.8,0.8,1.8,1.8v19.1
			C43.3,66.3,42.5,67.1,41.5,67.1z"/>
	</g>
	<g>
		<path class="st1" d="M44.4,67.7h-6c-1,0-1.8-0.8-1.8-1.8s0.8-1.8,1.8-1.8h6c1,0,1.8,0.8,1.8,1.8S45.4,67.7,44.4,67.7z"/>
	</g>
	<g>
		<path class="st1" d="M70.7,47.4H59.9c-1,0-1.8-0.8-1.8-1.8s0.8-1.8,1.8-1.8h10.7c1,0,1.8,0.8,1.8,1.8S71.6,47.4,70.7,47.4z"/>
	</g>
	<g>
		<path class="st1" d="M70.7,57H59.9c-1,0-1.8-0.8-1.8-1.8s0.8-1.8,1.8-1.8h10.7c1,0,1.8,0.8,1.8,1.8S71.6,57,70.7,57z"/>
	</g>
	<g>
		<path class="st1" d="M70.7,66.5H59.9c-1,0-1.8-0.8-1.8-1.8c0-1,0.8-1.8,1.8-1.8h10.7c1,0,1.8,0.8,1.8,1.8
			C72.4,65.7,71.6,66.5,70.7,66.5z"/>
	</g>
	<g>
		<path class="st1" d="M73,77.2H29c-3.6,0-6.6-2.9-6.6-6.6V31.3c0-3.6,2.9-6.6,6.6-6.6H73c3.6,0,6.6,2.9,6.6,6.6v39.3
			C79.6,74.3,76.7,77.2,73,77.2z M29,28.4c-1.6,0-3,1.3-3,3v39.3c0,1.6,1.3,3,3,3H73c1.6,0,3-1.3,3-3V31.3c0-1.6-1.3-3-3-3H29z"/>
	</g>
	<g>
		<path class="st1" d="M77.8,36.7H24.2c-1,0-1.8-0.8-1.8-1.8c0-1,0.8-1.8,1.8-1.8h53.6c1,0,1.8,0.8,1.8,1.8
			C79.6,35.9,78.8,36.7,77.8,36.7z"/>
	</g>
</g>
</svg>
