<?xml version="1.0" encoding="utf-8"?>
<!-- Generator: Adobe Illustrator 23.0.3, SVG Export Plug-In . SVG Version: 6.00 Build 0)  -->
<svg version="1.1" id="Layer_1" xmlns="http://www.w3.org/2000/svg" xmlns:xlink="http://www.w3.org/1999/xlink" x="0px" y="0px"
	 viewBox="0 0 100 100" style="enable-background:new 0 0 100 100;" xml:space="preserve">
<style type="text/css">
	.st0{fill:#198FCC;}
	.st1{fill:#FFFFFF;}
</style>
<title>2</title>
<circle class="st0" cx="50" cy="50" r="48"/>
<g>
	<g>
		<g>
			<path class="st1" d="M64.4,24.5h-7.6v4.3h7.6c1.2,0,2.2,1,2.2,2.2v7.6h4.3V31C70.9,27.4,68,24.5,64.4,24.5z"/>
		</g>
	</g>
	<g>
		<g>
			<rect x="66.6" y="42.9" class="st1" width="4.3" height="9.8"/>
		</g>
	</g>
	<g>
		<g>
			<path class="st1" d="M30.9,24.5c-3.6,0-6.5,2.9-6.5,6.5v7.6h4.3V31c0-1.2,1-2.2,2.2-2.2h7.6v-4.3H30.9z"/>
		</g>
	</g>
	<g>
		<g>
			<rect x="42.8" y="24.5" class="st1" width="9.8" height="4.3"/>
		</g>
	</g>
	<g>
		<g>
			<rect x="42.8" y="66.7" class="st1" width="9.8" height="4.3"/>
		</g>
	</g>
	<g>
		<g>
			<path class="st1" d="M30.9,66.7c-1.2,0-2.2-1-2.2-2.2v-7.6h-4.3v7.6c0,3.6,2.9,6.5,6.5,6.5h7.6v-4.3L30.9,66.7L30.9,66.7z"/>
		</g>
	</g>
	<g>
		<g>
			<rect x="24.4" y="42.9" class="st1" width="4.3" height="9.8"/>
		</g>
	</g>
	<g>
		<g>
			<polygon class="st1" points="70.9,66.7 70.9,56.9 66.6,56.9 66.6,66.7 56.8,66.7 56.8,71 66.6,71 66.6,79.1 70.9,79.1 70.9,71 
				79.1,71 79.1,66.7 			"/>
		</g>
	</g>
</g>
</svg>
