<?xml version="1.0" encoding="utf-8"?>
<!-- Generator: Adobe Illustrator 23.0.3, SVG Export Plug-In . SVG Version: 6.00 Build 0)  -->
<svg version="1.1" id="Layer_1" xmlns="http://www.w3.org/2000/svg" xmlns:xlink="http://www.w3.org/1999/xlink" x="0px" y="0px"
	 viewBox="0 0 100 100" style="enable-background:new 0 0 100 100;" xml:space="preserve">
<style type="text/css">
	.st0{fill:#198FCC;}
	.st1{fill:#FFFFFF;}
</style>
<title>3</title>
<circle class="st0" cx="50" cy="50" r="48"/>
<g>
	<g>
		<path class="st1" d="M33.4,52.1l-8.8-8.8c-2.4-2.4-3.7-5.5-3.7-8.8C21,27.6,26.6,22,33.4,22c6.9,0,12.5,5.6,12.5,12.5
			c0,3.3-1.3,6.5-3.7,8.8L33.4,52.1z M33.4,25.4c-5,0-9.1,4.1-9.1,9.1c0,2.4,0.9,4.7,2.7,6.4l6.4,6.4l6.4-6.4c1.7-1.7,2.7-4,2.7-6.4
			C42.5,29.4,38.4,25.4,33.4,25.4z"/>
	</g>
	<g>
		<path class="st1" d="M33.4,40.1c-3.1,0-5.7-2.5-5.7-5.7s2.5-5.7,5.7-5.7s5.7,2.5,5.7,5.7S36.6,40.1,33.4,40.1z M33.4,32.2
			c-1.3,0-2.3,1-2.3,2.3c0,1.3,1,2.3,2.3,2.3c1.3,0,2.3-1,2.3-2.3C35.7,33.2,34.7,32.2,33.4,32.2z"/>
	</g>
	<g>
		<path class="st1" d="M70,80l-6.4-6.4c-1.7-1.7-2.7-4-2.7-6.4c0-5,4.1-9.1,9.1-9.1c5,0,9.1,4.1,9.1,9.1c0,2.4-0.9,4.7-2.7,6.4
			L70,80z M65.9,71.2l4,4l4-4c1.1-1.1,1.7-2.5,1.7-4c0-3.1-2.5-5.7-5.7-5.7s-5.7,2.5-5.7,5.7C64.3,68.7,64.9,70.1,65.9,71.2z"/>
	</g>
	<g>
		<path class="st1" d="M61.7,80h-19c-6,0-10.9-4.9-10.9-10.9s4.9-10.9,10.9-10.9H49c1.9,0,3.4-1.5,3.4-3.4s-1.5-3.4-3.4-3.4h-6.6V48
			H49c3.7,0,6.8,3,6.8,6.8s-3,6.8-6.8,6.8h-6.3c-4.2,0-7.5,3.4-7.5,7.5c0,4.2,3.4,7.5,7.5,7.5h19L61.7,80L61.7,80z"/>
	</g>
</g>
</svg>
