<?xml version="1.0" encoding="utf-8"?>
<!-- Generator: Adobe Illustrator 23.0.3, SVG Export Plug-In . SVG Version: 6.00 Build 0)  -->
<svg version="1.1" id="Layer_1" xmlns="http://www.w3.org/2000/svg" xmlns:xlink="http://www.w3.org/1999/xlink" x="0px" y="0px"
	 viewBox="0 0 100 100" style="enable-background:new 0 0 100 100;" xml:space="preserve">
<style type="text/css">
	.st0{fill:#198FCC;}
	.st1{fill:#FFFFFF;}
</style>
<title>3</title>
<circle class="st0" cx="50" cy="50" r="48"/>
<g>
	<g>
		<g>
			<g>
				<path class="st1" d="M40.7,24.1h-9.4c-4.3,0-7.7,3.5-7.7,7.7v9.4c0,4.3,3.5,7.7,7.7,7.7h9.4c4.3,0,7.7-3.5,7.7-7.7v-9.4
					C48.5,27.5,45,24.1,40.7,24.1z M45.4,41.2c0,2.6-2.1,4.6-4.6,4.6h-9.4c-2.6,0-4.6-2.1-4.6-4.6v-9.4c0-2.6,2.1-4.6,4.6-4.6h9.4
					c2.6,0,4.6,2.1,4.6,4.6V41.2z"/>
			</g>
		</g>
	</g>
	<g>
		<g>
			<g>
				<path class="st1" d="M68.6,52h-9.4c-4.3,0-7.7,3.5-7.7,7.7v9.4c0,4.3,3.5,7.7,7.7,7.7h9.4c4.3,0,7.7-3.5,7.7-7.7v-9.4
					C76.4,55.5,72.9,52,68.6,52z M73.3,69.1c0,2.6-2.1,4.6-4.6,4.6h-9.4c-2.6,0-4.6-2.1-4.6-4.6v-9.4c0-2.6,2.1-4.6,4.6-4.6h9.4
					c2.6,0,4.6,2.1,4.6,4.6V69.1z"/>
			</g>
		</g>
	</g>
	<g>
		<g>
			<g>
				<path class="st1" d="M68.6,24.1h-9.4c-4.3,0-7.7,3.5-7.7,7.7v9.4c0,6-4.9,10.8-10.8,10.8h-9.4c-4.3,0-7.7,3.5-7.7,7.7v9.4
					c0,4.3,3.5,7.7,7.7,7.7h9.4c4.3,0,7.7-3.5,7.7-7.7v-9.4c0-6,4.9-10.8,10.8-10.8h9.4c4.3,0,7.7-3.5,7.7-7.7v-9.4
					C76.4,27.5,72.9,24.1,68.6,24.1z M45.4,59.7v9.4c0,2.6-2.1,4.6-4.6,4.6h-9.4c-2.6,0-4.6-2.1-4.6-4.6v-9.4c0-2.6,2.1-4.6,4.6-4.6
					h9.4c2.1,0,4.2-0.5,6-1.4C45.8,55.5,45.4,57.6,45.4,59.7z M73.3,41.2c0,2.6-2.1,4.6-4.6,4.6h-9.4c-2.1,0-4.2,0.5-6,1.4
					c0.9-1.8,1.4-3.9,1.4-6v-9.4c0-2.6,2.1-4.6,4.6-4.6h9.4c2.6,0,4.6,2.1,4.6,4.6V41.2z"/>
			</g>
		</g>
	</g>
</g>
</svg>
