<?xml version="1.0" encoding="utf-8"?>
<!-- Generator: Adobe Illustrator 23.0.3, SVG Export Plug-In . SVG Version: 6.00 Build 0)  -->
<svg version="1.1" id="Layer_1" xmlns="http://www.w3.org/2000/svg" xmlns:xlink="http://www.w3.org/1999/xlink" x="0px" y="0px"
	 viewBox="0 0 100 100" style="enable-background:new 0 0 100 100;" xml:space="preserve">
<style type="text/css">
	.st0{fill:#198FCC;}
	.st1{fill:#FFFFFF;}
</style>
<title>3</title>
<circle class="st0" cx="50" cy="50" r="48"/>
<g>
	<path class="st1" d="M53.2,61c0.9,0,1.6-0.7,1.6-1.6v-4.8h14.5c0.9,0,1.6-0.7,1.6-1.6V27.1c0-0.9-0.7-1.6-1.6-1.6H30.6
		c-0.9,0-1.6,0.7-1.6,1.6v25.8c0,0.9,0.7,1.6,1.6,1.6h14.5v4.8c0,0.9,0.7,1.6,1.6,1.6h1.6v9.9h-1.6c-2.7,0-4.8,2.2-4.8,4.8v1.6h-4.8
		c-0.9,0-1.6,0.7-1.6,1.6s0.7,1.6,1.6,1.6h25.8c0.9,0,1.6-0.7,1.6-1.6s-0.7-1.6-1.6-1.6h-4.8v-1.6c0-2.7-2.2-4.8-4.8-4.8h-1.6V61
		H53.2z M54.8,75.7v1.6h-9.7v-1.6c0-0.9,0.7-1.6,1.6-1.6h6.5C54.1,74.1,54.8,74.8,54.8,75.7z M32.2,28.7h35.5v22.6H32.2V28.7z
		 M51.6,54.5v3.2h-3.2v-3.2H51.6z"/>
	<path class="st1" d="M43.5,35.1h19.4c0.9,0,1.6-0.7,1.6-1.6c0-0.9-0.7-1.6-1.6-1.6H43.5c-0.9,0-1.6,0.7-1.6,1.6
		C41.9,34.4,42.7,35.1,43.5,35.1z"/>
	<path class="st1" d="M37.1,41.6h25.8c0.9,0,1.6-0.7,1.6-1.6c0-0.9-0.7-1.6-1.6-1.6H37.1c-0.9,0-1.6,0.7-1.6,1.6
		C35.5,40.9,36.2,41.6,37.1,41.6z"/>
	<path class="st1" d="M54.8,46.4c0-0.9-0.7-1.6-1.6-1.6H37.1c-0.9,0-1.6,0.7-1.6,1.6c0,0.9,0.7,1.6,1.6,1.6h16.1
		C54.1,48.1,54.8,47.3,54.8,46.4z"/>
</g>
</svg>
