<?xml version="1.0" encoding="utf-8"?>
<!-- Generator: Adobe Illustrator 23.0.3, SVG Export Plug-In . SVG Version: 6.00 Build 0)  -->
<svg version="1.1" id="Layer_1" xmlns="http://www.w3.org/2000/svg" xmlns:xlink="http://www.w3.org/1999/xlink" x="0px" y="0px"
	 viewBox="0 0 100 100" style="enable-background:new 0 0 100 100;" xml:space="preserve">
<style type="text/css">
	.st0{fill:#198FCC;}
	.st1{fill:#FFFFFF;}
</style>
<title>3</title>
<circle class="st0" cx="50" cy="50" r="48"/>
<g>
	<g>
		<g>
			<path class="st1" d="M62.2,78.7H29.6c-2.1,0-3.8-1.7-3.8-3.8V27.2c0-2.1,1.7-3.8,3.8-3.8h32.6c2.1,0,3.8,1.7,3.8,3.8v9.3
				c0,0.7-0.6,1.3-1.3,1.3s-1.3-0.6-1.3-1.3v-9.3c0-0.7-0.6-1.3-1.3-1.3H29.6c-0.7,0-1.3,0.6-1.3,1.3v47.7c0,0.7,0.6,1.3,1.3,1.3
				h32.6c0.7,0,1.3,0.6,1.3,1.3C63.5,78.1,62.9,78.7,62.2,78.7L62.2,78.7z"/>
		</g>
	</g>
	<g>
		<g>
			<path class="st1" d="M72.9,78.7H54.1c-1.7,0-3.2-1.4-3.2-3.2V39.2c0-0.8,0.3-1.6,0.9-2.2c0.6-0.6,1.4-0.9,2.2-0.9h18.8
				c1.7,0,3.2,1.4,3.2,3.2v36.4C76.1,77.3,74.7,78.7,72.9,78.7L72.9,78.7z M54.1,38.5c-0.2,0-0.3,0.1-0.5,0.2
				c-0.1,0.1-0.2,0.3-0.2,0.5v36.4c0,0.4,0.3,0.6,0.6,0.6h18.8c0.4,0,0.6-0.3,0.6-0.6V39.2c0-0.4-0.3-0.6-0.6-0.6L54.1,38.5
				L54.1,38.5z"/>
		</g>
	</g>
	<g>
		<g>
			<path class="st1" d="M44.7,33.5H27.1c-0.7,0-1.3-0.6-1.3-1.3c0-0.7,0.6-1.3,1.3-1.3h17.3l4.8-2.4c0.2-0.1,0.4-0.1,0.6-0.1h15.1
				c0.7,0,1.3,0.6,1.3,1.3c0,0.7-0.6,1.3-1.3,1.3H50l-4.8,2.4C45.1,33.4,44.9,33.5,44.7,33.5L44.7,33.5z"/>
		</g>
	</g>
	<g>
		<g>
			<path class="st1" d="M67.3,43.5h-7.5c-0.5,0-0.9-0.3-1.1-0.7l-2.5-5c-0.3-0.6-0.1-1.4,0.6-1.7c0.6-0.3,1.4-0.1,1.7,0.6l2.2,4.3h6
				l2.2-4.3c0.3-0.6,1.1-0.9,1.7-0.6c0.6,0.3,0.9,1.1,0.6,1.7l-2.5,5C68.2,43.3,67.8,43.5,67.3,43.5z"/>
		</g>
	</g>
	<g>
		<g>
			<path class="st1" d="M74.8,73.7H52.2c-0.7,0-1.3-0.6-1.3-1.3s0.6-1.3,1.3-1.3h22.6c0.7,0,1.3,0.6,1.3,1.3
				C76.1,73.1,75.5,73.7,74.8,73.7L74.8,73.7z"/>
		</g>
	</g>
	<g>
		<g>
			<path class="st1" d="M47.2,43.5H32.1c-0.7,0-1.3-0.6-1.3-1.3v-5c0-0.7,0.6-1.3,1.3-1.3h15.1c0.7,0,1.3,0.6,1.3,1.3v5
				C48.4,43,47.9,43.5,47.2,43.5L47.2,43.5z M33.4,41h12.6v-2.5H33.4V41z"/>
		</g>
	</g>
	<g>
		<g>
			<path class="st1" d="M34.6,48.6h-2.5c-0.7,0-1.3-0.6-1.3-1.3s0.6-1.3,1.3-1.3h2.5c0.7,0,1.3,0.6,1.3,1.3S35.3,48.6,34.6,48.6z"/>
		</g>
	</g>
	<g>
		<g>
			<path class="st1" d="M47.2,48.6h-7.5c-0.7,0-1.3-0.6-1.3-1.3S39,46,39.7,46h7.5c0.7,0,1.3,0.6,1.3,1.3S47.9,48.6,47.2,48.6
				L47.2,48.6z"/>
		</g>
	</g>
	<g>
		<g>
			<path class="st1" d="M47.2,53.6H32.1c-0.7,0-1.3-0.6-1.3-1.3c0-0.7,0.6-1.3,1.3-1.3h15.1c0.7,0,1.3,0.6,1.3,1.3
				C48.4,53,47.9,53.6,47.2,53.6L47.2,53.6z"/>
		</g>
	</g>
	<g>
		<g>
			<path class="st1" d="M47.2,58.6H32.1c-0.7,0-1.3-0.6-1.3-1.3c0-0.7,0.6-1.3,1.3-1.3h15.1c0.7,0,1.3,0.6,1.3,1.3
				C48.4,58,47.9,58.6,47.2,58.6L47.2,58.6z"/>
		</g>
	</g>
	<g>
		<g>
			<path class="st1" d="M47.2,63.6H32.1c-0.7,0-1.3-0.6-1.3-1.3c0-0.7,0.6-1.3,1.3-1.3h15.1c0.7,0,1.3,0.6,1.3,1.3
				C48.4,63.1,47.9,63.6,47.2,63.6L47.2,63.6z"/>
		</g>
	</g>
	<g>
		<g>
			<path class="st1" d="M47.2,68.6H32.1c-0.7,0-1.3-0.6-1.3-1.3c0-0.7,0.6-1.3,1.3-1.3h15.1c0.7,0,1.3,0.6,1.3,1.3
				C48.4,68.1,47.9,68.6,47.2,68.6L47.2,68.6z"/>
		</g>
	</g>
	<g>
		<g>
			<path class="st1" d="M47.2,73.7H32.1c-0.7,0-1.3-0.6-1.3-1.3s0.6-1.3,1.3-1.3h15.1c0.7,0,1.3,0.6,1.3,1.3
				C48.4,73.1,47.9,73.7,47.2,73.7L47.2,73.7z"/>
		</g>
	</g>
</g>
</svg>
