<?xml version="1.0" encoding="utf-8"?>
<!-- Generator: Adobe Illustrator 23.0.3, SVG Export Plug-In . SVG Version: 6.00 Build 0)  -->
<svg version="1.1" id="Layer_1" xmlns="http://www.w3.org/2000/svg" xmlns:xlink="http://www.w3.org/1999/xlink" x="0px" y="0px"
	 viewBox="0 0 100 100" style="enable-background:new 0 0 100 100;" xml:space="preserve">
<style type="text/css">
	.st0{fill:#198FCC;}
	.st1{fill:#FFFFFF;}
</style>
<title>3</title>
<circle class="st0" cx="50" cy="50" r="48"/>
<g>
	<path class="st1" d="M77.1,32.8c-6.8-6.8-18-6.5-24.5,0.6c-6.5-7.1-17.7-7.4-24.5-0.6c-6.8,6.7-6.5,17.8,0.4,24.3
		c-3.6,3.4-1.5,9.5,3.3,10.1c-0.3,3.3,2.5,6.4,5.9,6.3c0.2,3.7,3.9,6.3,7.4,5.3c1.2,4.4,6.7,5.8,9.9,2.6c1.8-1.8,3.2-2.9,3.3-5.6
		c3-0.1,5.6-2.7,5.6-5.7c3,0,5.6-2.7,5.7-5.7c3.1,0,5.8-2.9,5.7-6.1l1.7-1.7C83.7,50.1,83.7,39.4,77.1,32.8z M31.2,59.8l1.6-1.6
		c0.4-0.4,1-0.6,1.5-0.6c1.9,0,2.9,2.3,1.5,3.6l-1.6,1.6C32.1,64.8,29.3,61.9,31.2,59.8L31.2,59.8z M35.7,67.6
		c0-0.6,0.2-1.1,0.6-1.5l1.6-1.6c0.4-0.4,0.9-0.6,1.5-0.6c1.9,0,2.8,2.3,1.5,3.6l-1.4,1.4c-0.4,0.5-1,0.8-1.7,0.8
		C36.7,69.7,35.6,68.7,35.7,67.6z M42.2,74.6c-0.8-0.8-0.8-2.2,0-3l1.4-1.4c0.8-1,2.3-1.1,3.2-0.2c0.8,0.8,0.8,2.2,0,3l-1.6,1.6
		C44.4,75.4,43,75.4,42.2,74.6L42.2,74.6z M54,77.1l-1.6,1.6c-0.4,0.4-0.9,0.6-1.5,0.6c-0.6,0-1.1-0.2-1.5-0.6c-0.8-0.8-0.8-2.2,0-3
		l1.6-1.6c0.8-0.8,2.2-0.8,3,0C54.8,74.9,54.8,76.4,54,77.1L54,77.1z M71,60c-0.8,0.8-2.2,0.8-3,0l-8.4-8.4l-2.7,2.7l8.4,8.4
		c0.8,0.8,0.8,2.2,0,3c-0.8,0.8-2.2,0.8-3,0L54,57.5l-0.1-0.1L51.2,60l0.1,0.1l8.2,8.2c0.8,0.8,0.8,2.2,0,3c-0.8,0.8-2.2,0.8-3,0
		l0,0c-1.5-1.5-3.7-2-5.6-1.5c-0.6-2.5-3.1-4.4-5.7-4.4c-0.1-2.7-2.4-5.2-5.1-5.4c0.4-4.6-4.7-7.8-8.8-5.6c-5.6-5-6-13.8-0.6-19.1
		c5.3-5.4,14.1-5,19.1,0.6l-4.7,4.7l3.7,3.7c2.9,2.9,7.3,3.3,10.6,1.2L71,57C71.8,57.8,71.8,59.2,71,60L71,60z M74.4,54l-0.6,0.6
		c-0.1-0.1-0.1-0.1-0.2-0.2L59.8,40.5l-1.3,1.3c-1.9,1.9-4.9,1.9-6.7,0l-1.1-1.1l5.3-5.3C68.7,23.7,86.2,41.2,74.4,54L74.4,54z"/>
</g>
</svg>
