<?xml version="1.0" encoding="utf-8"?>
<!-- Generator: Adobe Illustrator 23.0.3, SVG Export Plug-In . SVG Version: 6.00 Build 0)  -->
<svg version="1.1" id="Layer_1" xmlns="http://www.w3.org/2000/svg" xmlns:xlink="http://www.w3.org/1999/xlink" x="0px" y="0px"
	 viewBox="0 0 100 100" style="enable-background:new 0 0 100 100;" xml:space="preserve">
<style type="text/css">
	.st0{fill:#198FCC;}
	.st1{fill:#FFFFFF;}
</style>
<title>3</title>
<circle class="st0" cx="50" cy="50" r="48"/>
<g>
	<g>
		<g>
			<path class="st1" d="M74.3,57.2c-1,0-1.9,0.8-1.9,1.9v11.3c0,1-0.8,1.9-1.9,1.9H33c-1,0-1.9-0.8-1.9-1.9V59.1
				c0-1-0.8-1.9-1.9-1.9s-1.9,0.8-1.9,1.9v11.3c0,3.1,2.5,5.6,5.6,5.6h37.6c3.1,0,5.6-2.5,5.6-5.6V59.1
				C76.2,58.1,75.4,57.2,74.3,57.2z"/>
		</g>
	</g>
	<g>
		<g>
			<path class="st1" d="M62.5,55.9c-0.7-0.7-1.9-0.7-2.6,0l-6.2,6.2V25.3c0-1-0.8-1.9-1.9-1.9s-1.9,0.8-1.9,1.9v36.8l-6.2-6.2
				c-0.7-0.7-1.9-0.7-2.7,0c-0.7,0.7-0.7,1.9,0,2.6l9.4,9.4c0.7,0.7,1.9,0.7,2.7,0c0,0,0,0,0,0l9.4-9.4
				C63.2,57.8,63.2,56.6,62.5,55.9z"/>
		</g>
	</g>
</g>
</svg>
