<?xml version="1.0" encoding="utf-8"?>
<!-- Generator: Adobe Illustrator 23.0.3, SVG Export Plug-In . SVG Version: 6.00 Build 0)  -->
<svg version="1.1" id="Layer_1" xmlns="http://www.w3.org/2000/svg" xmlns:xlink="http://www.w3.org/1999/xlink" x="0px" y="0px"
	 viewBox="0 0 100 100" style="enable-background:new 0 0 100 100;" xml:space="preserve">
<title>celebration</title>
<g>
	<g id="Layer_1-2">
		<path id="celebration" d="M93,51.3c-1-3.7-4.8-5.9-8.6-4.9l-14.8,4c-2.5-3.6-5.3-7-8.2-10.2l17.5-17.6c2.9-2.5,3.2-7,0.7-9.9
			s-7-3.2-9.9-0.7c-0.2,0.2-0.5,0.4-0.7,0.7c-0.4,0.5-0.4,1.2,0,1.7c0.5,0.5,1.2,0.5,1.7,0c0,0,0,0,0,0c0.9-0.9,2-1.4,3.3-1.4l0,0
			c2.6,0,4.6,2.1,4.6,4.7c0,1.2-0.5,2.4-1.3,3.3L59.8,38.5c-3.2-2.9-6.6-5.7-10.2-8.2l4-14.8c1-3.7-1.2-7.6-5-8.6s-7.6,1.2-8.6,5
			c-0.2,0.6,0.2,1.3,0.8,1.5c0.6,0.2,1.3-0.2,1.5-0.8c0,0,0-0.1,0-0.1c0.7-2.5,3.2-4,5.7-3.3c2.5,0.7,4,3.2,3.3,5.7l-3.8,14
			c-4.6-3-9.4-5.2-12.5-4.4c-1.6,0.4-2.8,1.7-3.2,3.3l0,0l-25,63.9c-0.2,0.4-0.1,0.9,0.3,1.3c0.2,0.2,0.5,0.3,0.8,0.3
			c0.1,0,0.3,0,0.4-0.1l63.8-25l0,0c1.6-0.4,2.9-1.6,3.3-3.2c0.8-3.1-1.4-7.9-4.4-12.5l14.1-3.8c2.5-0.7,5,0.8,5.7,3.3
			s-0.8,5-3.3,5.7l0,0c-0.6,0.2-1,0.8-0.8,1.4c0.1,0.5,0.6,0.9,1.1,0.9c0.1,0,0.2,0,0.3,0C91.8,59,94,55.2,93,51.3L93,51.3z
			 M66.7,67.8l-9.3,3.7v-8.4C60.2,65.1,63.4,66.7,66.7,67.8z M55,72.4l-9.7,3.8V52.8c0.3,0.3,0.6,0.7,1,1c2.7,2.8,5.7,5.3,8.8,7.6
			L55,72.4z M42.9,77.1L33.2,81V36.1c2.5,5.2,5.8,10,9.7,14.2V77.1z M30.9,81.9l-9.7,3.8V61.5l0,0l9.7-24.8V81.9z M18.8,67.5v19.1
			L9.9,90L18.8,67.5z M73.2,64.4c-0.2,0.8-0.9,1.5-1.8,1.6c-2.5,0.7-7.9-1.3-14.4-6c-0.1-0.1-0.2-0.1-0.2-0.2
			c-3.1-2.3-6.1-4.9-8.9-7.7C37.5,41.7,33,32.2,34,28.6c0.3-1.1,1.4-1.9,2.6-1.9c2.5,0,6.4,2,10.4,4.6c0,0-1.3,4.9-1.3,4.9
			c-0.2,0.6,0.2,1.3,0.8,1.4c0.6,0.2,1.3-0.2,1.4-0.8l1.1-4.2c3.2,2.3,6.3,4.8,9.2,7.4l-2.1,2.1c-1,1,0.6,2.7,1.7,1.7l2.1-2.1
			c2.7,2.9,5.1,6,7.4,9.2l-4.1,1.1c-0.6,0.2-1,0.8-0.8,1.4c0.2,0.6,0.8,1,1.4,0.8l4.9-1.3C71.6,57.4,73.9,61.9,73.2,64.4L73.2,64.4z
			 M60.4,15.3l1.7-5.2c0.2-0.6,0.9-0.9,1.5-0.6c0.5,0.2,0.8,0.8,0.7,1.4L62.6,16c-0.2,0.5-0.6,0.8-1.1,0.8c-0.1,0-0.3,0-0.4-0.1
			C60.6,16.6,60.2,15.9,60.4,15.3z M78.2,37.1c0.3,0.5,0.2,1.2-0.3,1.6l-4.6,3c-0.6,0.4-1.3,0.2-1.6-0.4c-0.4-0.6-0.2-1.3,0.4-1.6
			l0,0l4.6-3C77.1,36.4,77.8,36.5,78.2,37.1C78.2,37.1,78.2,37.1,78.2,37.1L78.2,37.1z M58.6,30.9c2.4,0,4.3-1.9,4.3-4.3
			c0-2.4-1.9-4.3-4.3-4.3c-2.4,0-4.3,1.9-4.3,4.3c0,1.2,0.5,2.3,1.3,3.1C56.4,30.4,57.5,30.9,58.6,30.9z M57.2,25.1
			c0.4-0.4,0.9-0.6,1.4-0.6c1.1,0,2,0.9,2,2c0,0.5-0.2,1-0.6,1.4c-0.8,0.8-2,0.8-2.8,0C56.4,27.2,56.4,25.9,57.2,25.1z M85.7,63.8
			c-0.2,0.4-0.6,0.6-1,0.6c-0.2,0-0.4-0.1-0.6-0.2l-4.8-2.8c-0.6-0.3-0.8-1-0.4-1.6c0,0,0,0,0,0c0.3-0.6,1-0.7,1.6-0.4c0,0,0,0,0,0
			l4.8,2.8C85.9,62.5,86,63.2,85.7,63.8C85.7,63.8,85.7,63.8,85.7,63.8L85.7,63.8z M35.8,15.9c-0.2-0.6,0-1.3,0.6-1.5
			c0.5-0.2,1-0.1,1.4,0.4l2.8,4.8c0.3,0.6,0.1,1.3-0.4,1.6c0,0,0,0,0,0c-0.2,0.1-0.4,0.2-0.6,0.1c-0.4,0-0.8-0.2-1-0.6L35.8,15.9z
			 M82.7,35.4l4.5,1.2c0.1,0,0.2,0,0.3,0c0.5,0,1-0.3,1.2-0.8l1.2-4.5c0.2-0.6-0.2-1.3-0.8-1.4l-4.5-1.2c-0.6-0.2-1.3,0.2-1.4,0.8
			L81.9,34C81.7,34.6,82.1,35.2,82.7,35.4z M85.1,31.2l2.3,0.6L86.7,34l-2.3-0.6L85.1,31.2z"/>
	</g>
</g>
</svg>
