<?xml version="1.0" encoding="utf-8"?>
<!-- Generator: Adobe Illustrator 23.0.3, SVG Export Plug-In . SVG Version: 6.00 Build 0)  -->
<svg version="1.1" id="Layer_1" xmlns="http://www.w3.org/2000/svg" xmlns:xlink="http://www.w3.org/1999/xlink" x="0px" y="0px"
	 viewBox="0 0 100 100" style="enable-background:new 0 0 100 100;" xml:space="preserve">
<title>ovetime</title>
<g>
	<g id="Layer_1-2">
		<path id="ovetime" d="M60.8,46.6c7.3-5.5,12.2-15.4,12.5-24.7h1c2.7,0,4.8-2.2,4.8-4.8v-3.6c0-0.6-0.5-1.2-1.2-1.2H22
			c-0.6,0-1.2,0.5-1.2,1.2v3.6c0,2.7,2.2,4.8,4.8,4.8h1c0.3,9.4,5.2,19.2,12.5,24.7c1.9,1.5,2.2,4.2,0.7,6c-0.2,0.3-0.5,0.5-0.7,0.7
			c-7.3,5.5-12.2,15.4-12.5,24.7h-1c-2.7,0-4.8,2.1-4.8,4.8c0,0,0,0,0,0v3.6c0,0.7,0.5,1.2,1.2,1.2c0,0,0,0,0,0h56
			c0.7,0,1.2-0.5,1.2-1.2l0,0v-3.6c0-2.7-2.2-4.8-4.8-4.8h-1c-0.3-9.4-5.2-19.2-12.5-24.7c-1.9-1.4-2.2-4.1-0.8-6
			C60.3,47.1,60.5,46.8,60.8,46.6z M23.2,17.1v-2.5h53.6v2.5c0,1.4-1.1,2.5-2.5,2.5l0,0H25.6C24.3,19.5,23.2,18.4,23.2,17.1z
			 M76.8,82.9v2.4H23.2v-2.4c0-1.4,1.1-2.5,2.4-2.5h48.7C75.7,80.5,76.8,81.6,76.8,82.9C76.8,82.9,76.8,82.9,76.8,82.9z M50,70.7
			c0.5,0.3,1.1,0.6,1.7,0.9c3.1,1.4,5.7,3.7,7.5,6.5H40.8c1.8-2.9,4.4-5.1,7.4-6.5C48.9,71.3,49.4,71,50,70.7L50,70.7z M56.8,50
			c0,2.1,1,4,2.6,5.2c6.7,5.1,11.3,14.2,11.5,22.8h-9.1c-2.1-3.8-5.4-6.9-9.3-8.7c-0.5-0.2-1-0.5-1.4-0.8v-5.5
			c0-0.7-0.5-1.2-1.2-1.2s-1.2,0.5-1.2,1.2v5.5c-0.4,0.3-0.9,0.6-1.4,0.8c-4,1.8-7.2,4.9-9.3,8.7H29c0.2-8.7,4.8-17.8,11.5-22.9
			c2.9-2.2,3.4-6.4,1.2-9.3c-0.3-0.5-0.8-0.9-1.2-1.2C33.8,39.7,29.3,30.5,29,21.9h42c-0.3,8.7-4.8,17.8-11.5,22.8
			C57.8,46,56.8,47.9,56.8,50z M51.2,52.1v1.6c0,0.7-0.5,1.2-1.2,1.2s-1.2-0.5-1.2-1.2v-1.6c0-0.7,0.5-1.2,1.2-1.2
			S51.2,51.5,51.2,52.1z M62.8,29.8c-5.6-4.1-9.7-2.1-13.7-0.2c-3,1.4-6,2.9-10,2.1c-0.5-0.1-0.9,0.1-1.2,0.5
			c-0.3,0.4-0.3,0.9-0.1,1.3c2.1,4,5.4,7.1,9.5,9c0.5,0.2,1,0.5,1.5,0.8v3c0,0.7,0.5,1.2,1.2,1.2s1.2-0.5,1.2-1.2v-3
			c0.4-0.3,0.9-0.6,1.4-0.8c4.3-1.8,8.2-5.9,10.6-11.2C63.5,30.7,63.3,30.1,62.8,29.8z M51.7,40.3c-0.6,0.2-1.1,0.5-1.7,0.9
			c-0.5-0.4-1.1-0.6-1.7-0.9c-2.9-1.3-5.3-3.4-7.1-6c3.5,0,6.4-1.3,8.9-2.5c3.6-1.7,6.5-3.1,10.5-0.6C58.5,35.5,55.2,38.8,51.7,40.3
			z"/>
	</g>
</g>
</svg>
