<?xml version="1.0" encoding="utf-8"?>
<!-- Generator: Adobe Illustrator 23.0.3, SVG Export Plug-In . SVG Version: 6.00 Build 0)  -->
<svg version="1.1" id="Layer_1" xmlns="http://www.w3.org/2000/svg" xmlns:xlink="http://www.w3.org/1999/xlink" x="0px" y="0px"
	 viewBox="0 0 209.3 48.6" style="enable-background:new 0 0 209.3 48.6;" xml:space="preserve">
<style type="text/css">
	.st0{fill:#FFFFFF;}
	.st1{fill:#F5D534;}
</style>
<g>
	<g>
		<path class="st0" d="M28,13.9c-0.6-1.1-1.1-2.1-1.6-3.1c-0.9-1.8-1.8-3.5-2.8-5.3c-0.1-0.2-0.2-0.3-0.4-0.3c-4.4,0-8.9,0-13.3,0
			c-0.4,0-0.4,0-0.2,0.3c6,11.5,12.1,22.9,18.1,34.3c0,0.1,0.1,0.2,0.2,0.3c0.6-1.1,1.2-2.2,1.8-3.4c6.5-12.1,13-24.3,19.4-36.4
			C49.3,0.1,49.4,0,49.6,0c2.1,0,4.3,0,6.4,0c0.3,0,0.3,0,0.2,0.3c-3.1,5.7-6.3,11.3-9.4,17c-5.7,10.2-11.3,20.4-17,30.6
			c-0.1,0.2-0.3,0.3-0.6,0.3c-1,0-2,0-3.1,0c-0.2,0-0.3-0.1-0.4-0.2c-4.6-8.5-9.1-17-13.7-25.6C8,15,4.1,7.7,0.1,0.3C0,0,0,0,0.4,0
			C9.2,0,18,0,26.8,0c0.3,0,0.4,0.1,0.6,0.4c1.3,2.8,2.5,5.5,3.8,8.3c0.1,0.2,0.1,0.4,0,0.6c-1,1.4-1.9,2.8-2.9,4.3
			C28.1,13.7,28.1,13.8,28,13.9z"/>
		<path class="st1" d="M45.9,0C40,11,34.1,22.1,28.2,33.1C23.8,25.1,19.4,17,15.1,9c0.1-0.1,0.2,0,0.3,0c2,0,4,0,6,0
			c0.2,0,0.3,0.1,0.4,0.2c1.2,2.2,2.4,4.4,3.6,6.7c0.9,1.7,1.9,3.4,2.8,5.2c0,0,0.1,0.1,0.1,0.2c0.2-0.4,0.4-0.7,0.5-1
			c1-1.9,2-3.7,3-5.6c1.5-2.7,2.9-5.4,4.4-8c1.2-2.1,2.3-4.3,3.5-6.4c-0.1-0.2,0-0.3,0.2-0.3"/>
	</g>
	<g>
		<path class="st0" d="M74.8,0.9h4.1l-6.4,18.8h-3.7L62.4,0.9h4.2l4.1,14.3L74.8,0.9z"/>
		<path class="st0" d="M85,11.3c0.7-0.1,1.2-0.2,1.5-0.3c0.5-0.2,0.8-0.6,0.8-1c0-0.6-0.2-1-0.6-1.2s-1-0.3-1.8-0.3
			c-0.9,0-1.5,0.2-1.9,0.6c-0.3,0.3-0.4,0.7-0.5,1.3H79c0.1-1.2,0.4-2.2,1-3c1-1.2,2.6-1.8,5-1.8c1.5,0,2.9,0.3,4.1,0.9
			c1.2,0.6,1.8,1.7,1.8,3.4v6.4c0,0.4,0,1,0,1.6c0,0.5,0.1,0.8,0.2,1s0.3,0.3,0.5,0.4v0.5h-4c-0.1-0.3-0.2-0.5-0.2-0.8
			c0-0.2-0.1-0.5-0.1-0.8c-0.5,0.5-1.1,1-1.7,1.4C84.8,20,84,20.2,83,20.2c-1.3,0-2.3-0.4-3.1-1.1c-0.8-0.7-1.2-1.7-1.2-3.1
			c0-1.7,0.7-2.9,2-3.7c0.7-0.4,1.8-0.7,3.2-0.9L85,11.3z M87.3,13c-0.2,0.1-0.5,0.3-0.7,0.4s-0.6,0.2-1,0.2l-0.8,0.2
			c-0.8,0.1-1.3,0.3-1.7,0.5c-0.6,0.3-0.9,0.8-0.9,1.5c0,0.6,0.2,1.1,0.5,1.3c0.3,0.3,0.8,0.4,1.3,0.4c0.8,0,1.5-0.2,2.2-0.7
			s1-1.3,1-2.5L87.3,13L87.3,13z"/>
		<path class="st0" d="M96.9,15.3c0.1,0.6,0.2,1.1,0.5,1.4c0.5,0.5,1.3,0.7,2.5,0.7c0.7,0,1.3-0.1,1.7-0.3c0.4-0.2,0.6-0.5,0.6-1
			c0-0.4-0.2-0.7-0.5-0.9c-0.3-0.2-1.6-0.6-3.8-1.1c-1.6-0.4-2.7-0.9-3.3-1.5c-0.6-0.6-1-1.4-1-2.5c0-1.3,0.5-2.4,1.5-3.3
			c1-0.9,2.4-1.4,4.3-1.4c1.7,0,3.2,0.3,4.3,1c1.1,0.7,1.7,1.9,1.9,3.6H102c-0.1-0.5-0.2-0.8-0.4-1.1c-0.4-0.5-1.1-0.7-2-0.7
			c-0.8,0-1.4,0.1-1.7,0.4c-0.3,0.2-0.5,0.5-0.5,0.9s0.2,0.7,0.5,0.9c0.4,0.2,1.6,0.5,3.8,1c1.4,0.3,2.5,0.9,3.3,1.5
			c0.7,0.7,1.1,1.6,1.1,2.6c0,1.4-0.5,2.5-1.5,3.4s-2.6,1.3-4.8,1.3c-2.2,0-3.8-0.5-4.9-1.4c-1-0.9-1.6-2.1-1.6-3.5
			C93.3,15.3,96.9,15.3,96.9,15.3z"/>
		<path class="st0" d="M112.2,5.8v8.4c0,0.8,0.1,1.4,0.3,1.8c0.3,0.7,1,1.1,1.9,1.1c1.2,0,2.1-0.5,2.5-1.5c0.2-0.5,0.4-1.3,0.4-2.2
			V5.8h3.7v13.9h-3.5v-2c0,0-0.1,0.2-0.3,0.4c-0.1,0.2-0.3,0.4-0.5,0.6c-0.6,0.5-1.1,0.9-1.6,1c-0.5,0.2-1.2,0.3-1.9,0.3
			c-2.1,0-3.4-0.7-4.2-2.2c-0.4-0.8-0.6-2-0.6-3.6V5.8H112.2z"/>
		<path class="st0" d="M135.8,6.6c0.9,0.8,1.4,2,1.4,3.7v9.4h-3.7v-8.5c0-0.7-0.1-1.3-0.3-1.7c-0.4-0.7-1-1.1-2-1.1
			c-1.2,0-2.1,0.5-2.5,1.6c-0.2,0.6-0.4,1.3-0.4,2.1v7.5h-3.6V5.9h3.5v2c0.5-0.7,0.9-1.2,1.3-1.5c0.7-0.6,1.7-0.8,2.8-0.8
			C133.7,5.5,134.9,5.9,135.8,6.6z"/>
		<path class="st0" d="M147.9,6.1c0.7,0.4,1.2,0.9,1.6,1.5V1h3.7v18.8h-3.5v-1.9c-0.5,0.8-1.1,1.4-1.8,1.8s-1.5,0.6-2.5,0.6
			c-1.6,0-3-0.7-4.1-2s-1.7-3-1.7-5.1c0-2.4,0.5-4.2,1.6-5.6s2.6-2,4.4-2C146.5,5.5,147.3,5.7,147.9,6.1z M148.8,16
			c0.5-0.8,0.8-1.8,0.8-3c0-1.7-0.4-2.9-1.3-3.7c-0.5-0.4-1.1-0.7-1.8-0.7c-1.1,0-1.8,0.4-2.3,1.2s-0.7,1.8-0.7,3
			c0,1.3,0.3,2.3,0.8,3.1c0.5,0.8,1.3,1.2,2.3,1.2C147.5,17.1,148.3,16.7,148.8,16z"/>
		<path class="st0" d="M166.5,5.9c0.7,0.3,1.3,0.8,1.7,1.4c0.4,0.5,0.6,1.1,0.7,1.6c0.1,0.5,0.1,1.4,0.1,2.7v8.2h-3.7v-8.5
			c0-0.7-0.1-1.4-0.4-1.8c-0.3-0.6-1-1-1.9-1c-1,0-1.7,0.3-2.2,1c-0.5,0.6-0.7,1.6-0.7,2.8v7.5h-3.6V1h3.6v6.6
			c0.5-0.8,1.1-1.4,1.8-1.7s1.4-0.5,2.2-0.5C165.1,5.5,165.8,5.6,166.5,5.9z"/>
		<path class="st0" d="M178,11.3c0.7-0.1,1.2-0.2,1.5-0.3c0.5-0.2,0.8-0.6,0.8-1c0-0.6-0.2-1-0.6-1.2c-0.4-0.2-1-0.3-1.8-0.3
			c-0.9,0-1.5,0.2-1.9,0.6c-0.3,0.3-0.4,0.7-0.5,1.3H172c0.1-1.2,0.4-2.2,1-3c1-1.2,2.6-1.8,5-1.8c1.5,0,2.9,0.3,4.1,0.9
			c1.2,0.6,1.8,1.7,1.8,3.4v6.4c0,0.4,0,1,0,1.6c0,0.5,0.1,0.8,0.2,1c0.1,0.2,0.3,0.3,0.5,0.4v0.5h-4c-0.1-0.3-0.2-0.5-0.2-0.8
			c0-0.2-0.1-0.5-0.1-0.8c-0.5,0.5-1.1,1-1.7,1.4c-0.8,0.5-1.7,0.7-2.7,0.7c-1.3,0-2.3-0.4-3.1-1.1s-1.2-1.7-1.2-3.1
			c0-1.7,0.7-2.9,2-3.7c0.7-0.4,1.8-0.7,3.2-0.9L178,11.3z M180.2,13c-0.2,0.1-0.5,0.3-0.7,0.4s-0.6,0.2-1,0.2l-0.8,0.2
			c-0.8,0.1-1.3,0.3-1.7,0.5c-0.6,0.3-0.9,0.8-0.9,1.5c0,0.6,0.2,1.1,0.5,1.3c0.3,0.3,0.8,0.4,1.3,0.4c0.8,0,1.5-0.2,2.2-0.7
			s1-1.3,1-2.5L180.2,13L180.2,13z"/>
		<path class="st0" d="M194.8,5.5c0,0,0.2,0,0.3,0v3.7c-0.2,0-0.4,0-0.6-0.1c-0.2,0-0.3,0-0.4,0c-1.5,0-2.4,0.5-2.9,1.4
			c-0.3,0.5-0.4,1.4-0.4,2.5v6.7H187V5.8h3.5v2.4c0.6-0.9,1.1-1.6,1.5-1.9c0.7-0.6,1.6-0.9,2.7-0.9C194.7,5.5,194.7,5.5,194.8,5.5z"
			/>
		<path class="st0" d="M202.7,11.3c0.7-0.1,1.2-0.2,1.5-0.3c0.5-0.2,0.8-0.6,0.8-1c0-0.6-0.2-1-0.6-1.2c-0.4-0.2-1-0.3-1.8-0.3
			c-0.9,0-1.5,0.2-1.9,0.6c-0.3,0.3-0.4,0.7-0.5,1.3h-3.5c0.1-1.2,0.4-2.2,1-3c1-1.2,2.6-1.8,5-1.8c1.5,0,2.9,0.3,4.1,0.9
			c1.2,0.6,1.8,1.7,1.8,3.4v6.4c0,0.4,0,1,0,1.6c0,0.5,0.1,0.8,0.2,1c0.1,0.2,0.3,0.3,0.5,0.4v0.5h-4c-0.1-0.3-0.2-0.5-0.2-0.8
			c0-0.2-0.1-0.5-0.1-0.8c-0.5,0.5-1.1,1-1.7,1.4c-0.8,0.5-1.7,0.7-2.7,0.7c-1.3,0-2.3-0.4-3.1-1.1s-1.2-1.7-1.2-3.1
			c0-1.7,0.7-2.9,2-3.7c0.7-0.4,1.8-0.7,3.2-0.9L202.7,11.3z M205,13c-0.2,0.1-0.5,0.3-0.7,0.4s-0.6,0.2-1,0.2l-0.8,0.2
			c-0.8,0.1-1.3,0.3-1.7,0.5c-0.6,0.3-0.9,0.8-0.9,1.5c0,0.6,0.2,1.1,0.5,1.3c0.3,0.3,0.8,0.4,1.3,0.4c0.8,0,1.5-0.2,2.2-0.7
			s1-1.3,1-2.5L205,13L205,13z"/>
	</g>
	<g>
		<rect x="141.1" y="28.3" class="st0" width="2.2" height="13.2"/>
		<path class="st0" d="M151.1,31.5c-0.6,0-1.2,0.1-1.7,0.4c-0.3,0.2-0.7,0.4-1,0.7v-0.9h-2v9.8h2v-5.1c0-0.6,0-1,0.1-1.3
			s0.2-0.6,0.4-0.8c0.3-0.3,0.6-0.6,1-0.7c0.2-0.1,0.5-0.1,0.8-0.1c0.6,0,1,0.2,1.3,0.7c0.1,0.3,0.2,0.7,0.2,1.3v6.1h2.1v-6.2
			c0-1-0.1-1.7-0.4-2.3C153.5,32,152.5,31.5,151.1,31.5z"/>
		<path class="st0" d="M160.5,28.1c-1.3-0.1-2.2,0.2-2.6,0.9l0,0c-0.2,0.3-0.4,0.8-0.4,1.6v1.2h-1.3v1.7h1.3v8h2v-8h1.5v-1.7h-1.5
			c0-1.1,0.1-1.4,0.1-1.5c0.1-0.2,0.4-0.2,0.6-0.2c0.1,0,0.1,0,0.2,0c0.1,0,0.2,0,0.3,0h0.3v-1.9h-0.2
			C160.7,28.1,160.6,28.1,160.5,28.1z"/>
		<path class="st0" d="M170.1,32.7c-0.9-0.8-1.9-1.3-3.1-1.3c-1.4,0-2.5,0.5-3.3,1.5c-0.8,1-1.2,2.3-1.2,3.9c0,1.5,0.4,2.7,1.2,3.6
			c0.8,0.9,1.8,1.4,3.2,1.4c1.6,0,2.8-0.5,3.5-1.6c0.7-1,1.1-2.3,1.1-3.8C171.3,34.8,170.9,33.6,170.1,32.7L170.1,32.7z M166.9,40
			c-0.8,0-1.4-0.3-1.8-0.9c-0.4-0.6-0.6-1.4-0.6-2.3c0-1,0.2-1.8,0.6-2.5c0.4-0.6,1-1,1.8-1c0.9,0,1.6,0.4,2,1.1
			c0.2,0.5,0.4,1.2,0.4,2c0,0.9-0.2,1.7-0.5,2.5C168.4,39.6,167.8,40,166.9,40z"/>
		<path class="st0" d="M176.1,29.1H174v2.6h-1.2v1.8h1.2v5.9c0,0.6,0.1,1.2,0.4,1.6c0.3,0.4,0.9,0.7,1.7,0.7c0.2,0,0.4,0,0.6,0
			c0.2,0,0.4-0.1,0.6-0.1l0.2-0.1v-1.7h-0.3c-0.1,0-0.2,0-0.3,0c-0.4,0-0.7,0-0.7-0.1c-0.1,0-0.2-0.1-0.2-0.4v-5.8h1.5v-1.8H176
			v-2.6C176,29.1,176.1,29.1,176.1,29.1z"/>
		<path class="st0" d="M187.1,33.3c-0.3-0.5-0.8-1-1.5-1.3c-0.6-0.3-1.3-0.5-2-0.5c-1.3,0-2.5,0.5-3.3,1.5s-1.2,2.2-1.2,3.8
			s0.4,2.8,1.2,3.7s1.9,1.3,3.1,1.3c0.5,0,0.9,0,1.3-0.1c0.7-0.2,1.3-0.5,1.8-1c0.3-0.3,0.6-0.6,0.8-1.1c0.2-0.4,0.4-0.9,0.4-1.2
			v-0.3h-2l-0.1,0.2c-0.1,0.4-0.3,0.7-0.5,1c-0.4,0.5-1,0.7-1.7,0.7c-0.8,0-1.3-0.2-1.7-0.7c-0.3-0.5-0.5-1.1-0.6-1.9h6.6v-0.3
			c0-1,0-1.6-0.1-2.1C187.6,34.4,187.4,33.8,187.1,33.3z M181.3,35.6c0.1-0.6,0.3-1.1,0.7-1.5c0.4-0.5,0.9-0.7,1.6-0.7
			c0.9,0,1.5,0.3,1.9,1c0.2,0.3,0.3,0.7,0.4,1.2H181.3z"/>
		<path class="st0" d="M196,37.9c-0.1,0.6-0.4,1.1-0.7,1.5c-0.3,0.3-0.8,0.5-1.3,0.5c-0.7,0-1.3-0.3-1.6-0.8
			c-0.4-0.6-0.5-1.3-0.5-2.2s0.1-1.6,0.4-2.2c0.4-0.9,1-1.3,1.9-1.3c0.6,0,1.1,0.2,1.4,0.5c0.3,0.3,0.5,0.8,0.6,1.3v0.2h2v-0.3
			c-0.1-1.3-0.6-2.2-1.3-2.8c-0.7-0.5-1.6-0.8-2.7-0.8c-1.3,0-2.3,0.5-3.2,1.4c-0.8,0.9-1.2,2.3-1.2,4c0,1.4,0.4,2.5,1.1,3.5
			c0.8,0.9,1.8,1.4,3.1,1.4c1.1,0,2.1-0.3,2.8-0.9c0.7-0.6,1.2-1.6,1.4-2.8v-0.3h-2L196,37.9z"/>
		<path class="st0" d="M207.6,33c-0.5-1-1.5-1.5-2.9-1.5c-0.8,0-1.5,0.2-2,0.5c-0.2,0.1-0.4,0.3-0.6,0.5v-4.3h-2v13.2h2v-5.2
			c0-1.1,0.2-1.9,0.7-2.3c0.5-0.4,1-0.6,1.6-0.6c0.7,0,1.1,0.2,1.3,0.6c0.1,0.3,0.2,0.7,0.2,1.4v6.1h2.1v-6.2
			C208,34.3,207.9,33.6,207.6,33z"/>
	</g>
	<polygon class="st0" points="137.7,47.1 134.5,25.6 134.5,25.5 134.3,25.4 60.8,25.4 60.8,26.9 133.2,26.9 136.4,48.4 136.4,48.6 
		209.2,48.6 209.2,47.1 	"/>
</g>
</svg>
