<svg xmlns="http://www.w3.org/2000/svg" viewBox="0 0 218.51 154.9"><defs><style>.cls-1{fill:#fafafa;}.cls-2{fill:#ebebeb;}.cls-3{fill:#0dafc4;}.cls-4{fill:#455a64;}.cls-5{fill:#e0e0e0;}.cls-6{fill:#37474f;}.cls-7{fill:#263238;}.cls-13,.cls-8{fill:#fff;}.cls-9{opacity:0.2;}.cls-10,.cls-11,.cls-12,.cls-13,.cls-16,.cls-18,.cls-9{isolation:isolate;}.cls-10,.cls-13{opacity:0.3;}.cls-11{opacity:0.5;}.cls-12{opacity:0.6;}.cls-14,.cls-18{opacity:0.1;}.cls-15{fill:#f28f8f;}.cls-16{opacity:0.4;}.cls-17{fill:#ffa8a7;}</style></defs><title>Asset 2</title><g id="Layer_2" data-name="Layer 2"><g id="Layer_1-2" data-name="Layer 1"><g id="freepik--Floor--inject-64"><path class="cls-1" d="M30.91,138.75c41.21,21.53,108,21.53,149.24,0s41.22-56.44,0-78-108-21.53-149.24,0S-10.31,117.22,30.91,138.75Z"/></g><g id="freepik--Shadow--inject-64"><path class="cls-2" d="M129.83,109.6c-9.69,5.6-9.69,14.67,0,20.27s25.41,5.6,35.1,0,9.69-14.67,0-20.27S139.52,104,129.83,109.6Z"/></g><g id="freepik--paper-planes--inject-64"><polygon class="cls-3" points="27.76 29.38 53.73 21.3 33.75 35.14 27.76 29.38"/><polygon class="cls-3" points="53.73 21.3 25.75 25.91 19.76 20.14 53.73 21.3"/><polygon class="cls-4" points="25.75 25.91 25.75 32.84 27.76 29.38 53.73 21.3 25.75 25.91"/><polygon class="cls-3" points="25.75 32.84 29.75 31.3 27.76 29.38 25.75 32.84"/><polygon class="cls-4" points="27.76 29.38 29.75 31.3 29.11 31.54 27.76 29.38"/><path class="cls-5" d="M21.45,31.79a.38.38,0,0,1-.38-.36.37.37,0,0,1,.2-.33,13.93,13.93,0,0,1,1.33-.68.37.37,0,0,1,.5.14.36.36,0,0,1-.15.5l0,0c-.43.21-.86.43-1.29.67A.39.39,0,0,1,21.45,31.79Z"/><path class="cls-5" d="M16.91,71.52a.31.31,0,0,1-.21-.07,19.18,19.18,0,0,1-2.27-1.86.37.37,0,0,1-.11-.51.36.36,0,0,1,.51-.1.24.24,0,0,1,.09.08,19.66,19.66,0,0,0,2.19,1.79.36.36,0,0,1,.09.51.37.37,0,0,1-.3.16Zm-3.86-3.58a.35.35,0,0,1-.28-.14,20.17,20.17,0,0,1-1.69-2.39.37.37,0,0,1,.64-.39h0a18.54,18.54,0,0,0,1.62,2.32.37.37,0,0,1-.29.6Zm-2.77-4.48a.36.36,0,0,1-.33-.22,22.06,22.06,0,0,1-1-2.74.37.37,0,0,1,.71-.21,22.76,22.76,0,0,0,1,2.65.36.36,0,0,1-.18.49h0a.32.32,0,0,1-.14,0Zm-1.59-5a.37.37,0,0,1-.36-.3,25.74,25.74,0,0,1-.4-2.89.36.36,0,0,1,.34-.4.37.37,0,0,1,.4.34A24.31,24.31,0,0,0,9.05,58a.36.36,0,0,1-.28.43H8.69Zm-.47-5.26h0a.36.36,0,0,1-.37-.36h0a28.45,28.45,0,0,1,.2-2.91.37.37,0,1,1,.74,0,.25.25,0,0,1,0,.08,26.72,26.72,0,0,0-.19,2.83.36.36,0,0,1-.37.36ZM8.82,48H8.74a.38.38,0,0,1-.29-.44,25.13,25.13,0,0,1,.83-2.81.37.37,0,0,1,.47-.23h0A.37.37,0,0,1,10,45h0a22.92,22.92,0,0,0-.79,2.72A.38.38,0,0,1,8.82,48Zm1.75-5a.29.29,0,0,1-.16,0,.37.37,0,0,1-.18-.48h0a22.84,22.84,0,0,1,1.44-2.55.37.37,0,0,1,.49-.1.36.36,0,0,1,.11.49,21.34,21.34,0,0,0-1.4,2.46A.36.36,0,0,1,10.57,43Zm2.83-4.43a.4.4,0,0,1-.23-.08.37.37,0,0,1-.06-.52h0a27,27,0,0,1,2-2.17.37.37,0,0,1,.52,0,.36.36,0,0,1,0,.52c-.67.67-1.3,1.38-1.9,2.11a.34.34,0,0,1-.3.12Zm3.7-3.78a.37.37,0,0,1-.24-.65,28.48,28.48,0,0,1,2.34-1.75.36.36,0,0,1,.39.61,27.09,27.09,0,0,0-2.28,1.71A.32.32,0,0,1,17.1,34.77Z"/><path class="cls-5" d="M20.29,73.44a.4.4,0,0,1-.15,0c-.46-.21-.91-.43-1.34-.67a.35.35,0,0,1-.15-.49h0a.36.36,0,0,1,.49-.15c.42.22.86.44,1.3.64a.36.36,0,0,1,.18.49.39.39,0,0,1-.33.22Z"/><polygon class="cls-3" points="188.54 55.59 209.35 42.27 218.51 45.21 188.54 55.59"/><polygon class="cls-3" points="188.54 55.59 206.53 40.6 202.53 35.98 188.54 55.59"/><polygon class="cls-4" points="206.53 40.6 206.53 44.08 188.54 55.59 206.53 40.6"/><path class="cls-5" d="M210.58,39.15a.39.39,0,0,1-.24-.1.37.37,0,0,1,0-.52,14.4,14.4,0,0,0,1.7-2.32.37.37,0,0,1,.5-.13.38.38,0,0,1,.14.51h0A17,17,0,0,1,210.87,39,.41.41,0,0,1,210.58,39.15Zm2.82-4.59h-.13a.37.37,0,0,1-.22-.47v0a14.81,14.81,0,0,0,.78-2.77.37.37,0,0,1,.43-.3.36.36,0,0,1,.29.43h0a15.34,15.34,0,0,1-.82,2.91A.34.34,0,0,1,213.4,34.56Zm1-5.28h0a.36.36,0,0,1-.36-.36h0v-.38a17.42,17.42,0,0,0-.19-2.5.36.36,0,0,1,.3-.42.38.38,0,0,1,.43.31,17.44,17.44,0,0,1,.2,2.61v.4a.37.37,0,0,1-.38.35ZM213.71,24a.37.37,0,0,1-.35-.26A17.9,17.9,0,0,0,212.3,21a.37.37,0,0,1,.17-.49h0a.38.38,0,0,1,.5.18,18.25,18.25,0,0,1,1.09,2.8.36.36,0,0,1-.24.45h0A.22.22,0,0,1,213.71,24Zm-2.28-4.88a.37.37,0,0,1-.31-.17,21.93,21.93,0,0,0-1.74-2.32.37.37,0,0,1,0-.52h0a.36.36,0,0,1,.51,0h0a23.46,23.46,0,0,1,1.8,2.4.39.39,0,0,1-.11.49.37.37,0,0,1-.2.07ZM208,14.93a.39.39,0,0,1-.25-.1A24.8,24.8,0,0,0,205.5,13a.38.38,0,0,1-.07-.52.37.37,0,0,1,.51-.07h0a28,28,0,0,1,2.29,1.92.37.37,0,0,1-.26.64Zm-4.31-3.27a.66.66,0,0,1-.2-.06c-.33-.21-.68-.42-1-.62s-1-.55-1.5-.81a.37.37,0,0,1,.27-.69l.06,0c.52.26,1,.54,1.54.82s.72.42,1.06.63a.36.36,0,0,1,.12.49A.37.37,0,0,1,203.67,11.66Zm-44.1-.26a.38.38,0,0,1-.32-.18.36.36,0,0,1,.13-.49c.86-.5,1.74-1,2.63-1.4a.36.36,0,0,1,.49.17.37.37,0,0,1-.17.49c-.87.43-1.74.88-2.58,1.37a.29.29,0,0,1-.18,0Zm39.3-2.24a.33.33,0,0,1-.14,0c-.89-.39-1.8-.75-2.72-1.08a.36.36,0,0,1-.22-.47.37.37,0,0,1,.47-.22c.93.33,1.86.7,2.77,1.1a.37.37,0,0,1,.19.48.38.38,0,0,1-.35.23ZM164.42,9a.35.35,0,0,1-.34-.22.37.37,0,0,1,.18-.49h0c.91-.39,1.85-.74,2.78-1.06a.36.36,0,0,1,.48.2v0a.37.37,0,0,1-.22.49h0c-.92.31-1.84.66-2.73,1a.29.29,0,0,1-.16,0ZM193.8,7.3h-.11c-.93-.27-1.88-.49-2.83-.72a.37.37,0,0,1,.16-.72c1,.21,1.94.46,2.88.73a.37.37,0,0,1-.1.73Zm-24.28-.07a.36.36,0,0,1-.35-.27.35.35,0,0,1,.25-.45h0c1-.27,1.92-.5,2.89-.71a.35.35,0,0,1,.46.24.36.36,0,0,1-.23.46l-.08,0c-1,.2-1.9.43-2.84.69Zm19-1.11h-.07c-1-.16-1.94-.28-2.9-.37a.37.37,0,0,1-.37-.37.38.38,0,0,1,.38-.37h.05c1,.09,2,.21,2.95.37a.36.36,0,0,1,0,.71Zm-13.71,0a.37.37,0,0,1-.06-.73c1-.15,2-.27,2.95-.35a.37.37,0,1,1,.07.73c-1,.09-2,.2-2.91.35Zm8.33-.49h0c-1,0-2,0-2.92,0a.36.36,0,0,1-.38-.34h0a.37.37,0,0,1,.35-.38h0c1,0,2,0,3,0a.37.37,0,0,1,.36.38h0a.38.38,0,0,1-.37.34Z"/></g><g id="freepik--Mailbox--inject-64"><path class="cls-6" d="M181.29,62.78V62h-.19a3.12,3.12,0,0,0-1.28-1.24,7.78,7.78,0,0,0-7.09,0A3,3,0,0,0,171.46,62h-.2v.77a2.54,2.54,0,0,0,1.48,2.08,7.84,7.84,0,0,0,7.09,0A2.46,2.46,0,0,0,181.29,62.78Z"/><ellipse class="cls-4" cx="176.28" cy="61.99" rx="5.01" ry="2.9"/><path class="cls-6" d="M175,37.87V61.66a.63.63,0,0,0,.37.52,2,2,0,0,0,1.83,0,.62.62,0,0,0,.37-.52V37.87Z"/><path class="cls-4" d="M182.06,20.07a3.27,3.27,0,0,0-3.26-.3h0L162.87,29l8,16,16-9.24v-7A11,11,0,0,0,182.06,20.07Z"/><path class="cls-6" d="M170.87,38v7l-9.59-5.53v-7c0-3.26,2.14-4.66,4.79-3.13a10.33,10.33,0,0,1,4,5A10.15,10.15,0,0,1,170.87,38Z"/><path class="cls-7" d="M170.87,38v7l-9.59-5.53,8.83-5.1A10.15,10.15,0,0,1,170.87,38Z"/><path class="cls-4" d="M169.27,40.39a16.22,16.22,0,0,0-6.4-7.38c-2.65-1.52-4.08-.7-3.2,1.85l1.6,4.61,9.6,5.54Z"/><path class="cls-7" d="M175.86,38.25l-.53-.31h0a.72.72,0,0,0-.72.07,2.26,2.26,0,0,0-1,1.77.72.72,0,0,0,.3.66h0l.49.28.1-.15a1,1,0,0,0,.29-.11,2.27,2.27,0,0,0,1-1.77,1.22,1.22,0,0,0,0-.26Z"/><path class="cls-6" d="M175.12,38.31a2.26,2.26,0,0,0-1,1.76c0,.65.46.91,1,.59a2.26,2.26,0,0,0,1-1.76A.62.62,0,0,0,175.12,38.31Z"/><path class="cls-7" d="M175.12,39.76a.3.3,0,0,1-.3-.29h0V29.32a.3.3,0,1,1,.6,0h0V39.47A.3.3,0,0,1,175.12,39.76Z"/><polygon class="cls-6" points="175.38 29.58 175.38 32.23 178.22 29.32 175.38 29.58"/></g><g id="freepik--Plants--inject-64"><path class="cls-3" d="M26.17,117.37c-.25.13-4.76,1.41-6.44-.8s1.11-5.65-.46-6.92-6,0-7-2.67,2.07-3.81.31-6.51c-1.11-1.69-4.22-2.63-4.08-4.21.21-2.3,4.46-3,8.17-.45s5.44.44,6.62.28,3.71.2,3.63,4.33S26.17,117.37,26.17,117.37Z"/><path class="cls-8" d="M26.47,111.51a.26.26,0,0,1-.25-.21c-1.29-7.87-10.41-14.23-15.15-15.6a.24.24,0,0,1-.17-.29h0a.25.25,0,0,1,.31-.17c4.84,1.4,14.17,7.94,15.5,16a.24.24,0,0,1-.2.28Z"/><path class="cls-8" d="M15.72,104.92a.25.25,0,0,1-.25-.24.25.25,0,0,1,.12-.22c.14-.08,3.66-2.14,7.11-1.18a.25.25,0,0,1,.18.31.26.26,0,0,1-.31.19c-3.25-.91-6.7,1.1-6.73,1.12A.17.17,0,0,1,15.72,104.92Z"/><path class="cls-3" d="M154.76,75.81c1.93.26,5.23-.86,5.47-4.09s1.57-4.1,4-4.62,3.17-1.38,3.45-2.92-1.58-3.37-1.06-5.68,2.26-2.3,4-4.92c1.1-1.68-1.15-4.25-4.89-3.14s-3.44,3.51-7.19,3.82-6.09,2.58-6.16,5.41S154.76,75.81,154.76,75.81Z"/><path class="cls-9" d="M154.76,75.81c1.93.26,5.23-.86,5.47-4.09s1.57-4.1,4-4.62,3.17-1.38,3.45-2.92-1.58-3.37-1.06-5.68,2.26-2.3,4-4.92c1.1-1.68-1.15-4.25-4.89-3.14s-3.44,3.51-7.19,3.82-6.09,2.58-6.16,5.41S154.76,75.81,154.76,75.81Z"/><path class="cls-8" d="M154.05,69.62h0a.24.24,0,0,1-.19-.29h0c1.81-8.95,11.68-17.14,14.08-18a.25.25,0,0,1,.33.16.26.26,0,0,1-.16.33c-2.36.81-12,8.85-13.78,17.6A.24.24,0,0,1,154.05,69.62Z"/></g><g id="freepik--Envelopes--inject-64"><path class="cls-3" d="M24.1,66.45a2.85,2.85,0,0,1,1.28-2.22L90.76,26.49a2.8,2.8,0,0,1,2.55,0l1.44.83A2.81,2.81,0,0,1,96,29.54V79.65a2.83,2.83,0,0,1-1.28,2.21L29.37,119.6a2.8,2.8,0,0,1-2.55,0l-1.44-.83a2.83,2.83,0,0,1-1.28-2.21Z"/><path class="cls-10" d="M24.1,66.45a2.85,2.85,0,0,1,1.28-2.22L90.76,26.49a2.8,2.8,0,0,1,2.55,0l1.44.83A2.81,2.81,0,0,1,96,29.54V79.65a2.83,2.83,0,0,1-1.28,2.21L29.37,119.6a2.8,2.8,0,0,1-2.55,0l-1.44-.83a2.83,2.83,0,0,1-1.28-2.21Z"/><path class="cls-3" d="M30.09,68.43l-5.61-3.24a2.65,2.65,0,0,0-.38,1.26v50.11a2.83,2.83,0,0,0,1.28,2.21l1.44.83a2.8,2.8,0,0,0,2.55,0l.72-.41Z"/><path class="cls-11" d="M30.09,68.43l-5.61-3.24a2.65,2.65,0,0,0-.38,1.26v50.11a2.83,2.83,0,0,0,1.28,2.21l1.44.83a2.8,2.8,0,0,0,2.55,0l.72-.41Z"/><path class="cls-3" d="M96,29.54V79.65a2.57,2.57,0,0,1-.4,1.29,2.74,2.74,0,0,1-.75.84l0,0-.08,0L29.37,119.6h0a.9.9,0,0,1-.87.1.87.87,0,0,1-.4-.81V68.75a1.11,1.11,0,0,1,1-1.18,1.31,1.31,0,0,1,.39.05L57,74.16l3.6.85a2.34,2.34,0,0,0,2.3-.86l4.17-5.81L95.17,29.25C95.64,28.6,96,28.72,96,29.54Z"/><path class="cls-9" d="M96,29.54V79.65a2.57,2.57,0,0,1-.4,1.29,2.74,2.74,0,0,1-.75.84l0,0-.08,0L29.37,119.6h0a.9.9,0,0,1-.87.1.87.87,0,0,1-.4-.81V68.75a1.11,1.11,0,0,1,1-1.18,1.31,1.31,0,0,1,.39.05L57,74.16l3.6.85a2.34,2.34,0,0,0,2.3-.86l4.17-5.81L95.17,29.25C95.64,28.6,96,28.72,96,29.54Z"/><path class="cls-3" d="M94.75,81.86l.08,0,0,0a2.74,2.74,0,0,0,.75-.84,2.6,2.6,0,0,0,.4-1.27L67.09,68.35l19.38,18.3Z"/><path class="cls-12" d="M94.75,81.86l.08,0,0,0a2.74,2.74,0,0,0,.75-.84,2.6,2.6,0,0,0,.4-1.27L67.09,68.35l19.38,18.3Z"/><path class="cls-3" d="M28.1,118.89a.88.88,0,0,0,.39.84.9.9,0,0,0,.87-.1h0l22.52-13L57,74.12,28.1,118Z"/><path class="cls-12" d="M28.1,118.89a.88.88,0,0,0,.39.84.9.9,0,0,0,.87-.1h0l22.52-13L57,74.12,28.1,118Z"/><path class="cls-3" d="M95.63,80.94a2.74,2.74,0,0,1-.75.84l0,0L29.37,119.6h0a.9.9,0,0,1-.87.1l31.31-50A4.92,4.92,0,0,1,66,67.84Z"/><path class="cls-9" d="M95.63,80.94a2.74,2.74,0,0,1-.75.84l0,0L29.37,119.6h0a.9.9,0,0,1-.87.1l31.31-50A4.92,4.92,0,0,1,66,67.84Z"/><path class="cls-3" d="M28.1,67.28,58.16,80.56a4.91,4.91,0,0,0,6.16-1.9L95.9,28.13Z"/><path class="cls-12" d="M28.1,67.28,58.16,80.56a4.91,4.91,0,0,0,6.16-1.9L95.9,28.13Z"/><path class="cls-3" d="M28.1,67.28,58.38,78.59a4.9,4.9,0,0,0,5.83-1.92L95.9,28.13Z"/><path class="cls-9" d="M28.1,67.28,58.38,78.59a4.9,4.9,0,0,0,5.83-1.92L95.9,28.13Z"/><path class="cls-4" d="M35.27,72.62a2.78,2.78,0,0,1,1.28-2.21l65.37-37.75a2.82,2.82,0,0,1,2.56,0l1.44.83a2.83,2.83,0,0,1,1.28,2.21V85.82A2.85,2.85,0,0,1,105.92,88L40.54,125.77a2.8,2.8,0,0,1-2.55,0l-1.44-.83a2.81,2.81,0,0,1-1.28-2.21Z"/><path class="cls-4" d="M35.27,72.62a2.78,2.78,0,0,1,1.28-2.21l65.37-37.75a2.82,2.82,0,0,1,2.56,0l1.44.83a2.83,2.83,0,0,1,1.28,2.21V85.82A2.85,2.85,0,0,1,105.92,88L40.54,125.77a2.8,2.8,0,0,1-2.55,0l-1.44-.83a2.81,2.81,0,0,1-1.28-2.21Z"/><path class="cls-7" d="M41.26,74.62l-5.62-3.25a2.59,2.59,0,0,0-.37,1.26v50.1A2.84,2.84,0,0,0,36.55,125l1.44.83a2.86,2.86,0,0,0,2.55,0l.72-.42Z"/><path class="cls-6" d="M107.2,35.7V85.82a2.57,2.57,0,0,1-.4,1.29,2.74,2.74,0,0,1-.75.84l0,0-.09,0L40.55,125.77h0a.92.92,0,0,1-.88.1.88.88,0,0,1-.39-.84V74.92a1.11,1.11,0,0,1,1-1.18,1,1,0,0,1,.39.05L68.2,80.33l3.6.85a2.35,2.35,0,0,0,2.3-.86l4.17-5.81,28.07-39.09C106.8,34.77,107.2,34.89,107.2,35.7Z"/><path class="cls-7" d="M105.92,88l.09,0,0,0a2.74,2.74,0,0,0,.75-.84,2.6,2.6,0,0,0,.4-1.27L78.26,74.53,97.64,92.82Z"/><path class="cls-7" d="M39.27,125a.89.89,0,0,0,.39.85,1,1,0,0,0,.88-.1h0l22.5-13,5.14-32.46L39.26,124.19Z"/><path class="cls-6" d="M106.8,87.11a2.87,2.87,0,0,1-.75.84l0,0L40.55,125.77h0a.92.92,0,0,1-.88.1L71,75.9A4.91,4.91,0,0,1,77.14,74Z"/><path class="cls-7" d="M39.27,73.45,69.34,86.73a4.91,4.91,0,0,0,6.15-1.89l31.57-50.56Z"/><path class="cls-6" d="M39.27,73.45,69.54,84.76a4.93,4.93,0,0,0,5.85-1.91l31.67-48.57Z"/><path class="cls-3" d="M83.22,112.4V62.28a5.41,5.41,0,0,1,.86-2.67L115.26,16.2a4.91,4.91,0,0,1,5.14-1.92l29.32,7a12,12,0,0,1,2.71,1.08l1.45.83a2.84,2.84,0,0,1,1.27,2.21V75.49a2.84,2.84,0,0,1-1.27,2.21L88.49,115.44a2.8,2.8,0,0,1-2.55,0l-1.44-.83A2.83,2.83,0,0,1,83.22,112.4Z"/><path class="cls-13" d="M83.22,112.4V62.28a5.41,5.41,0,0,1,.86-2.67L115.26,16.2a4.91,4.91,0,0,1,5.14-1.92l29.32,7a12,12,0,0,1,2.71,1.08l1.45.83a2.84,2.84,0,0,1,1.27,2.21V75.49a2.84,2.84,0,0,1-1.27,2.21L88.49,115.44a2.8,2.8,0,0,1-2.55,0l-1.44-.83A2.83,2.83,0,0,1,83.22,112.4Z"/><path class="cls-1" d="M89.21,38.06v64c0,.81.58,1.15,1.28.74l61.38-35.42a2.81,2.81,0,0,0,1.28-2.21V1.17c0-.81-.57-1.14-1.28-.73L90.49,35.85A2.83,2.83,0,0,0,89.21,38.06Z"/><path class="cls-5" d="M89.92,103.18a.89.89,0,0,1-.45-.12,1.13,1.13,0,0,1-.49-1V38.07a3.07,3.07,0,0,1,1.4-2.43L151.76.23a1,1,0,0,1,1.43.15,1,1,0,0,1,.22.8v64a3,3,0,0,1-1.4,2.42L90.62,103A1.43,1.43,0,0,1,89.92,103.18ZM152.44.48a1,1,0,0,0-.44.14L90.61,36.06a2.61,2.61,0,0,0-1.15,2v64a.54.54,0,0,0,.39.66.55.55,0,0,0,.52-.13l61.38-35.42a2.59,2.59,0,0,0,1.16-2V1.17a.71.71,0,0,0-.25-.61A.45.45,0,0,0,152.44.48Z"/><path class="cls-3" d="M87.89,63.5,83.46,61a4.64,4.64,0,0,0-.23,1.33V112.4a2.81,2.81,0,0,0,1.28,2.21l1.43.83a2.8,2.8,0,0,0,2.55,0l.62-.35Z"/><g class="cls-14"><path d="M87.89,63.5,83.46,61a4.64,4.64,0,0,0-.23,1.33V112.4a2.81,2.81,0,0,0,1.28,2.21l1.43.83a2.8,2.8,0,0,0,2.55,0l.62-.35Z"/></g><path class="cls-3" d="M155.15,25.37V75.49a2.56,2.56,0,0,1-.39,1.29,2.87,2.87,0,0,1-.75.84l0,0-.08,0L88.5,115.44h0a.9.9,0,0,1-.87.1.88.88,0,0,1-.4-.84V64.59a1.12,1.12,0,0,1,1-1.18,1.37,1.37,0,0,1,.4.05L116.14,70l3.6.85a2.36,2.36,0,0,0,2.31-.86l4.17-5.81,28.07-39.09C154.77,24.44,155.15,24.56,155.15,25.37Z"/><path class="cls-13" d="M155.15,25.37V75.49a2.56,2.56,0,0,1-.39,1.29,2.87,2.87,0,0,1-.75.84l0,0-.08,0L88.5,115.44h0a.9.9,0,0,1-.87.1.88.88,0,0,1-.4-.84V64.59a1.12,1.12,0,0,1,1-1.18,1.37,1.37,0,0,1,.4.05L116.14,70l3.6.85a2.36,2.36,0,0,0,2.31-.86l4.17-5.81,28.07-39.09C154.77,24.44,155.15,24.56,155.15,25.37Z"/><path class="cls-3" d="M153.88,77.7l.08,0,0,0a2.87,2.87,0,0,0,.75-.84,2.7,2.7,0,0,0,.39-1.27L126.22,64.19l19.37,18.3Z"/><path class="cls-3" d="M87.22,114.7a.9.9,0,0,0,.4.85.93.93,0,0,0,.87-.1h0l22.51-13L116.14,70,87.21,113.86Z"/><path class="cls-3" d="M154.76,76.78a2.87,2.87,0,0,1-.75.84l0,0L88.5,115.44h0a.9.9,0,0,1-.87.1l31.3-50a4.92,4.92,0,0,1,6.16-1.89Z"/><path class="cls-13" d="M154.76,76.78a2.87,2.87,0,0,1-.75.84l0,0L88.5,115.44h0a.9.9,0,0,1-.87.1l31.3-50a4.92,4.92,0,0,1,6.16-1.89Z"/><path class="cls-5" d="M116.24,52.79a3.57,3.57,0,0,1-3.15-1.08A5.61,5.61,0,0,1,112,47.87a13.74,13.74,0,0,1,1.22-5.65,17.12,17.12,0,0,1,3.38-4.92,23.58,23.58,0,0,1,5.11-4,12.25,12.25,0,0,1,4.73-1.77,3.29,3.29,0,0,1,3,1,5.42,5.42,0,0,1,1,3.61,9.4,9.4,0,0,1-1.1,4.59,7.64,7.64,0,0,1-2.91,3.08,2.15,2.15,0,0,1-1.48.38,1,1,0,0,1-.76-.74,8.71,8.71,0,0,1-1.55,2.11,9.82,9.82,0,0,1-2.1,1.64,4.15,4.15,0,0,1-3.2.72c-.78-.26-1.16-1.06-1.16-2.38a8.29,8.29,0,0,1,1.48-4.67,11.88,11.88,0,0,1,4-3.68,7.65,7.65,0,0,1,2.16-.87,3.38,3.38,0,0,1,1.73,0v5.18c0,.42.07.68.21.77s.38,0,.72-.14a3.16,3.16,0,0,0,1.3-1.72,8.67,8.67,0,0,0,.47-3,4,4,0,0,0-.85-2.82,2.63,2.63,0,0,0-2.31-.71,9,9,0,0,0-3.38,1.26,16.61,16.61,0,0,0-5.49,4.92,11.27,11.27,0,0,0-2,6.5,4.56,4.56,0,0,0,.87,3.09,2.7,2.7,0,0,0,2.4.83,8.72,8.72,0,0,0,3.44-1.26,14.44,14.44,0,0,0,2-1.44,11.35,11.35,0,0,0,1.61-1.64.91.91,0,0,1,.17-.17c.05,0,.09,0,.13.06l.54,1a.28.28,0,0,1,0,.12.48.48,0,0,1-.15.29,15.28,15.28,0,0,1-2,2,17.56,17.56,0,0,1-2.4,1.69A11.59,11.59,0,0,1,116.24,52.79Zm6.4-9.25a3.28,3.28,0,0,0,.77-2v-3a4.25,4.25,0,0,0-2,.67,7,7,0,0,0-2.34,2.17,5.15,5.15,0,0,0-.86,2.79c0,.83.21,1.33.63,1.48a2.5,2.5,0,0,0,1.94-.53,6.2,6.2,0,0,0,1.84-1.62Z"/></g><g id="freepik--Notifications--inject-64"><path class="cls-15" d="M53.6,57.72l-4.8-2.78h0c-1.63-.92-3.89-.79-6.39.66-5,2.89-9.09,9.94-9.09,15.74,0,2.89,1,4.91,2.65,5.9h0l4.46,2.55.81-1.34a9.57,9.57,0,0,0,2.61-1c5-2.9,9.09-10,9.09-15.74a10.1,10.1,0,0,0-.29-2.32Z"/><path class="cls-3" d="M53.6,57.72l-4.8-2.78h0c-1.63-.92-3.89-.79-6.39.66-5,2.89-9.09,9.94-9.09,15.74,0,2.89,1,4.91,2.65,5.9h0l4.46,2.55.81-1.34a9.57,9.57,0,0,0,2.61-1c5-2.9,9.09-10,9.09-15.74a10.1,10.1,0,0,0-.29-2.32Z"/><path class="cls-16" d="M53.6,57.72l-4.8-2.78h0c-1.63-.92-3.89-.79-6.39.66-5,2.89-9.09,9.94-9.09,15.74,0,2.89,1,4.91,2.65,5.9h0l4.46,2.55.81-1.34a9.57,9.57,0,0,0,2.61-1c5-2.9,9.09-10,9.09-15.74a10.1,10.1,0,0,0-.29-2.32Z"/><path class="cls-3" d="M47,58.24c-5,2.9-9.09,9.95-9.09,15.74S42,82.12,47,79.23s9.09-10,9.09-15.74S52,55.34,47,58.24Z"/><path class="cls-8" d="M43.43,75.36c-.1,0-.14,0-.14-.13a.6.6,0,0,1,.07-.27l.46-1a.49.49,0,0,1,.17-.25.59.59,0,0,1,.22-.05,4.91,4.91,0,0,0,1.2-.24,8.24,8.24,0,0,0,1.48-.68,5.92,5.92,0,0,0,1.86-1.59,2.81,2.81,0,0,0,.61-1.71c0-1.09-.66-1.25-2-.49l-1.3.78c-.21.12-.35.16-.44.12s-.14-.16-.14-.35v-.41a.83.83,0,0,1,.14-.49,1.38,1.38,0,0,1,.44-.39l1.29-.74a3.5,3.5,0,0,0,1.27-1.18,2.69,2.69,0,0,0,.42-1.38c0-1-.74-1.15-2.22-.29a9.61,9.61,0,0,0-2.43,2,1.45,1.45,0,0,1-.22.21.15.15,0,0,1-.17,0l-.44-.5a.21.21,0,0,1-.08-.17.47.47,0,0,1,.14-.3,9.42,9.42,0,0,1,1.48-1.48,14.77,14.77,0,0,1,2-1.39,6.53,6.53,0,0,1,2.09-.83,1.43,1.43,0,0,1,1.85,1.59,4.08,4.08,0,0,1-.35,1.57,5.39,5.39,0,0,1-1,1.55A1.33,1.33,0,0,1,51,67a1.74,1.74,0,0,1,.42,1.29,5.19,5.19,0,0,1-1.09,3A9.73,9.73,0,0,1,47.23,74C45.5,75,44.23,75.45,43.43,75.36Z"/></g><g id="freepik--Character--inject-64"><path class="cls-17" d="M146.58,128.77h0l.09-.09a1.68,1.68,0,0,0,.21-.18l.22-.21.22-.22c.13-.12.25-.25.37-.38l1.75,1.31,1.16.87h0a5.76,5.76,0,0,0-1,1.56s-.35.56-1.53.28C146.58,131.37,146.35,129.22,146.58,128.77Z"/><path class="cls-3" d="M129.42,128.17c-1.33-1.56-.14-4.14,1.15-7.49,1.43-3.68,3.63-9.94,3.63-9.94l15.65-3.24s16.67-.32,18.2,2.87c1.24,2.55-9.74,6.4-11.31,6.53l-9.64.51-1,.49-6.77,8.57Z"/><path class="cls-3" d="M158.25,113a41.14,41.14,0,0,0-3.39,3.94c-2.81,3.93-7.28,11.08-7.28,11.08s.7,2.26,2.83,2.16c0,0,14.66-13.68,15.86-15,1.81-1.92,3.27-5.08.13-5.34A12.07,12.07,0,0,0,158.25,113Z"/><path class="cls-3" d="M154.79,117s2.61-3.83,5.32-5.41c0,0-2.69.53-6.78,5.5Z"/><path class="cls-18" d="M154.79,117s2.61-3.83,5.32-5.41c0,0-2.69.53-6.78,5.5Z"/><path class="cls-17" d="M156.57,121.84l-1,.19,1,3.53s.93-.09,1.25-.07a5.38,5.38,0,0,0,1.33-.51l-.25-2.16-1.13-1.18Z"/><path class="cls-7" d="M164.68,122.67a3.88,3.88,0,0,1,2.16,2.19,11.11,11.11,0,0,1,.53,1.6c.17.57.09,1.54-.64,1.69a1.15,1.15,0,0,1-.68-.12c-1.45-.56-2.87-1.21-4.35-1.68a14.61,14.61,0,0,0-4-.86,2.75,2.75,0,0,0-.12-3.16,1.9,1.9,0,0,0-1.05-.49c.37-.17.72-.38,1.08-.58a3.3,3.3,0,0,1,2.3-.57,5,5,0,0,1,1.61,1C162.57,122.33,163.54,122.28,164.68,122.67Z"/><path class="cls-3" d="M131.53,124.79c1.3-.4,3.36-.75,9.49-1.07S155.54,122,155.54,122a4.1,4.1,0,0,1,1,3.53s-10.88,3.44-14.43,3.9c-5.65.72-7.59.67-10.14.12C129.05,129,127.25,126.1,131.53,124.79Z"/><polygon class="cls-15" points="153.93 95.59 158.54 106.6 155.24 108.63 148.91 97.9 153.93 95.59"/><path class="cls-5" d="M144.41,85.23c2.52,0,5.29.94,6.24,2.91l3.94,8.12s-2.22,3.26-5.76,3Z"/><path class="cls-17" d="M127.67,102.33c0-.43.64-2.52,1.3-4.77l4.78,1.65-1.28,4.05-4,3.82A6.33,6.33,0,0,1,127.67,102.33Z"/><path class="cls-1" d="M139.26,85.38c-3,.72-7.09,1.66-8.27,4.92s-2.88,9-2.88,9c.65,1.15,4.27,2.09,5.52,1.43l.59-2v12c2.35,2.55,13.92,1.89,15.65-3.24V91.2c0-2.61-1.44-5.74-5.44-6Z"/><polygon class="cls-5" points="134.21 98.77 135.72 94.04 134.21 100.89 134.21 98.77"/><path class="cls-7" d="M138.12,72a1.78,1.78,0,0,0-1.48.5c-.63.64-.49,1.85,0,4.6l2,.22Z"/><path class="cls-7" d="M149.54,71.25a3.17,3.17,0,0,0,1.22-.25c.6-.35.76.34.43.93a2.8,2.8,0,0,1-2.27,1.51c0-.08-.56-1.53-.56-1.53Z"/><path class="cls-17" d="M139,77.39c-.29.17-.71-.38-1.07-.76a1.24,1.24,0,0,0-1.77-.12,1.28,1.28,0,0,0-.34.46c-.59,1.26.76,2.92,1.55,3.48a1.4,1.4,0,0,0,1.63.13l.21,4.8a5.12,5.12,0,0,0,3.85,2.93c2.82.37,2.24-2,1.31-3.08V83.47a6.75,6.75,0,0,0,2.15.11,5.56,5.56,0,0,0,1.8-2.34,10.61,10.61,0,0,0,.75-7.69c-1-4.29-5.62-4.43-8.36-2.69S139,77.39,139,77.39Z"/><path class="cls-7" d="M139,77.88c-.15,0-.7-.92-1.07-1.25s.15-4.59.15-4.59a2.86,2.86,0,0,1,.49-2.6c1-1,2.91-.87,4.32-.92a12.58,12.58,0,0,0,5-1c2-.86,2.14-1,2.39-.09a4.91,4.91,0,0,1-.85,4.23l-.65,1a5.35,5.35,0,0,1-2.46.74c-1.85.25-5-.77-5.41-.83-.54-.07-.65.45-.94,1.88C139.75,75.74,139.53,77.87,139,77.88Z"/><path class="cls-7" d="M138.13,72.36l-1.77-.94a1,1,0,0,1,1.32-.45h0A1.07,1.07,0,0,1,138.13,72.36Z"/><path class="cls-15" d="M144.41,83.47a22.55,22.55,0,0,1-3.52-1,3,3,0,0,1-1.26-1.25,4.12,4.12,0,0,0,.72,1.47c.66.85,4.06,1.48,4.06,1.48Z"/><path class="cls-7" d="M144.49,77.29a.52.52,0,1,1-.52-.54.53.53,0,0,1,.52.54Z"/><path class="cls-7" d="M143.94,75.32l-1.12.62a.68.68,0,0,1,.26-.89.63.63,0,0,1,.85.25Z"/><path class="cls-15" d="M144.18,80.78l1.2.46a.63.63,0,0,1-.8.4h0A.68.68,0,0,1,144.18,80.78Z"/><path class="cls-7" d="M149.15,75.76l-1-.79a.61.61,0,0,1,.86-.15l0,0A.67.67,0,0,1,149.15,75.76Z"/><path class="cls-7" d="M148.83,77.14a.52.52,0,1,1-.52-.54.53.53,0,0,1,.52.54Z"/><polygon class="cls-15" points="146.37 77.08 145.88 80.19 147.6 79.99 146.37 77.08"/><path class="cls-6" d="M164.32,112.38l-10.6-6.12a.66.66,0,0,0-.61,0L134.52,117l10.9,6.31Z"/><polygon class="cls-7" points="145.32 122.39 139.61 119.1 156.32 109.45 162.06 112.73 145.32 122.39"/><polygon class="cls-7" points="142.51 113.22 142.62 113.28 145.42 114.9 150.4 112.02 150.51 111.97 147.6 110.29 142.51 113.22"/><polygon class="cls-7" points="142.62 113.28 145.42 114.9 150.4 112.02 147.6 110.41 142.62 113.28"/><path class="cls-7" d="M134.52,117v.25a1,1,0,0,0,.49.88l9.88,5.7a1,1,0,0,0,1,0l17.88-10.33a1,1,0,0,0,.49-.88v-.25l-18.86,10.94Z"/><path class="cls-7" d="M145.42,123.31V124a1,1,0,0,0,.49-.14l17.88-10.33a1,1,0,0,0,.49-.88v-.25Z"/><path class="cls-7" d="M145.71,123.45a1.19,1.19,0,0,0,1-.09l17.8-10.27a1.18,1.18,0,0,0,.58-.85l2-11.61a.67.67,0,0,0,0-.2,1.23,1.23,0,0,0-.36-.87l-18.49,10.68a.91.91,0,0,0-.43.63Z"/><path class="cls-4" d="M145.42,123.31l.12.07.17.09,2.11-12.58a.91.91,0,0,1,.43-.63l18.49-10.68a1.08,1.08,0,0,0-.24-.18L148,110.08a.91.91,0,0,0-.44.62Z"/><path class="cls-6" d="M155.73,112.72a3.92,3.92,0,0,1,1.8-2.31c.86-.49,1.45-.27,1.32.49a3.92,3.92,0,0,1-1.8,2.31C156.19,113.73,155.6,113.48,155.73,112.72Z"/><path class="cls-17" d="M132.47,103.25s3.19,12.3,4.54,13.18a27.58,27.58,0,0,0,5.06,2c1.2.45,1.74,1,1.53,1.22s-1.93.35-2.53.56.17,1.18,1.5,2.21,2.46.93,2.31,1.62-3.1,1.36-5.6-.1-3.26-3.44-4.75-5.12-4.89-8.65-6.09-11.7c0,0,.11-5.67,2-5.31S132.47,103.25,132.47,103.25Z"/><path class="cls-3" d="M147.66,128.17a2.92,2.92,0,0,0,2.75,2l4.28-4Z"/><path class="cls-18" d="M147.66,128.17a2.92,2.92,0,0,0,2.75,2l4.28-4Z"/><path class="cls-7" d="M150.24,130.61v0Z"/><path class="cls-7" d="M149,135.21a9.76,9.76,0,0,1,.63-3.78h0a1.54,1.54,0,0,1-1.44.19,2.63,2.63,0,0,1-1.56-2.86h0l-.63.53a3.31,3.31,0,0,0-1.36,2,5.31,5.31,0,0,0,.34,1.86,13.73,13.73,0,0,1-.05,3.62,3.87,3.87,0,0,0,1.28,2.79,11.28,11.28,0,0,0,1.3,1.08,1.22,1.22,0,0,0,1.72.1,1.27,1.27,0,0,0,.41-1C149.4,138.18,149,136.81,149,135.21Z"/><path class="cls-6" d="M150.57,129.88c-.13.25-.25.49-.35.73C150.34,130.38,150.46,130.13,150.57,129.88Z"/><path class="cls-6" d="M146.57,128.76h0l.09-.08Z"/></g></g></g></svg>