<svg id="Layer_1" data-name="Layer 1" xmlns="http://www.w3.org/2000/svg" viewBox="0 0 304 184"><defs><style>.cls-1{fill:#f8c9b9;}.cls-2{fill:#dc9591;}.cls-3{fill:#3a4656;}.cls-4{fill:#6a79ab;}.cls-5{fill:#475566;}.cls-6{fill:#f0f0f0;}.cls-7{fill:#fff;}.cls-8{fill:#293545;}.cls-9{fill:#12cbe0;}.cls-10{fill:#374457;}.cls-11{fill:#372d39;}.cls-12{fill:#f0606e;}</style></defs><title>Artboard 2</title><path class="cls-1" d="M159.32,127.22s2.61-.57,2.61-5.37c0-3.6,10.74-1.57,10.74-1.57s-.1,5.17,2.92,7.62-2.34,9.54-2.34,9.54l-5.79,5.85s-6.63-7.2-6.84-7.52-1.19-4.69-1.3-5.11S159.32,127.22,159.32,127.22Z"/><path class="cls-2" d="M172.67,120.28s-10.74-2-10.74,1.57c0,4.8-2.61,5.37-2.61,5.37s-.1,3,0,3.44.63,2.74,1,4.14l.43,1.12.13.16c.21-.53,1.23-3.09,2.55-6.18,1-2.45,7-3.8,10.35-4.39A13.29,13.29,0,0,1,172.67,120.28Z"/><polygon class="cls-3" points="153.9 140.42 153.84 182.95 180.91 182.95 180.91 140.42 167.46 141.3 153.9 140.42"/><polygon class="cls-4" points="161.69 182.95 173.12 182.95 172.88 175.47 169.18 147.88 172.04 140.42 167.4 140.88 162.76 140.42 165.63 147.88 161.93 175.47 161.69 182.95"/><polygon class="cls-5" points="161.15 125.45 160.78 132.85 167.35 141.3 162.24 141.88 157.65 149.44 153.9 128.58 161.15 125.45"/><polygon class="cls-5" points="173.66 125.45 174.03 132.85 167.46 141.3 172.57 141.88 177.16 149.44 180.91 128.58 173.66 125.45"/><path class="cls-6" d="M132.77,134s-4.61,24.19-8,49h13.93l2.16-15.44s-.26,6.21-.72,15.44h22.58l0-5-6.31-50.76Z"/><path class="cls-6" d="M210,183c-3.38-24.81-8-49-8-49l-23.71-6.76L172,178l0,5h22.58c-.46-9.23-.72-15.44-.72-15.44L196.09,183Z"/><polygon class="cls-7" points="172.02 177.94 172.07 182.71 188.48 152.94 183.16 149.54 190.09 147.67 179.45 127.51 178.33 127.19 172.02 177.94"/><polygon class="cls-7" points="162.82 177.94 162.77 182.71 146.36 152.94 151.68 149.54 144.74 147.67 155.38 127.51 156.5 127.19 162.82 177.94"/><path class="cls-1" d="M205.31,72.31a5.26,5.26,0,0,1-.68,1.35V28.85H130.3v44.3c-3.17-4.32-6.17-1.77-6.45,3.31-.31,5.53,6.6,6,6.6,6l4.3,16.12c6.07,16.82,31.25,26.65,34.63,26.11s10-3.61,23-14.44,12.74-28.41,12.74-28.41c1.08,1.23,5.45-2.3,6.45-9.21S206.31,69.55,205.31,72.31Z"/><path class="cls-2" d="M211.61,72.62c1-6.91-5.3-3.07-6.3-.31a5.26,5.26,0,0,1-.68,1.35V28.85H130.3v44.3c-2.66-3.63-5.21-2.41-6.12,1.1L131,76.73a49.32,49.32,0,0,1,2.43-12c2-5.55,1.73-8.27,4.51-8.27S139.82,55.31,145,51s23.44,5,35.77-1.67,21.53,9.72,21.53,16.49,4.47,8.31,3.1,16.18C206.83,82.56,210.68,79.05,211.61,72.62Z"/><path class="cls-2" d="M130.3,81.6s-4.92-2.91-3.69-4.37,2.77.69,2.31,1.15a.86.86,0,0,1-1.23.08c-.16-.24-.08,1.07,1.23,1.61A2,2,0,0,1,130.3,81.6Z"/><path class="cls-2" d="M205.27,79.76s4.92-2.92,3.69-4.38-2.77.69-2.31,1.16a.86.86,0,0,0,1.23.07c.16-.23.08,1.08-1.23,1.61A2,2,0,0,0,205.27,79.76Z"/><path class="cls-3" d="M127.77,77.2s-4.2,2.57-3.65-10.27a6.3,6.3,0,0,0-1,2.94s-3.73-19.5-2.08-24.82c0,0-3.55,3.79-5.63,3.55,0,0,4-2.88,5.08-6.79a18.15,18.15,0,0,1,3.54-6.6,22,22,0,0,0-5.13,0s3.79-4.95,6-5.32c0,0-10.76-19.87,10.15-21.33,0,0,4.76-1.65,5.56-5.87a11.27,11.27,0,0,1-.43,6.36s18.4-12,37.72-6.73c0,0,14.18.8,20.41-2.32a19.47,19.47,0,0,1-7.33,5.62s27.14,4.47,29.89,41.69c0,0-.37,4.77,1.34,7.7a15.71,15.71,0,0,1-3.42-4.76s-5,21.45-9.19,26.34c0,0-3.07-2.29-6.43,3.58,0,0,1-9.29.74-12a10.57,10.57,0,0,0,.85,1.1,17,17,0,0,1-1-3.73c-.55-2.75.8-14.43-4.46-18s-8.5-9.11-17.91-5.14-11.43,6.11-19.13,5.32-13.63-6.48-15.59-7.58-9,.49-9.17,4.77-.18,8.68,1.65,9.78c0,0-2.93-.8-4.58-6.66,0,0-4.1,14.67-3.61,17a8.61,8.61,0,0,1,1.28-3.79s-1.59,6.6-.91,9.9a30.31,30.31,0,0,1,.93,5.9S127.37,75.22,127.77,77.2Z"/><path class="cls-8" d="M206,59.84c.73.25,1.65-.61,1.65-.61-4.95-1.4-1.41-7.09-4.77-13.45s-10.64-7-17.6-7.64-4.89,2.63-16.08,6.67-17.24-3.61-19-4.1-5.87-6.05-5.87-6.05a10.08,10.08,0,0,1-2.44,3.48c-2,2.08-8.19,1.23-8.19,1.23,1.46,1.1,1.1,3.72,1.1,4.82s-1.71,4.41-2.33,6.36-1.65,8.13-1.65,8.13c-.36-.55-.67-1.16-.67-1.16-.24,1.41-1.1,7.76-.49,11.12s-.91,7.16-3.85,5.57a8.29,8.29,0,0,1-1.49-1c.84,5.61,3.45,4,3.45,4-.4-2,4.4-.06,4.4-.06a30.31,30.31,0,0,0-.93-5.9c-.68-3.3.91-9.9.91-9.9a8.61,8.61,0,0,0-1.28,3.79c-.49-2.38,3.61-17,3.61-17,1.65,5.86,4.58,6.66,4.58,6.66-1.83-1.1-1.83-5.5-1.65-9.78s7.21-5.87,9.17-4.77,7.89,6.79,15.59,7.58,9.72-1.34,19.13-5.32S194,44,199.21,47.59s3.91,15.22,4.46,18a17,17,0,0,0,1,3.73,10.57,10.57,0,0,1-.85-1.1c.3,2.69-.74,12-.74,12,1.24-2.16,2.4-3.3,3.32-3.38-2.32-3.62,2.32-6.74,2.32-6.74a4.54,4.54,0,0,1-1.83-2.44,6,6,0,0,0,2.62-1.29,5.14,5.14,0,0,1-2.81-2.5,10.38,10.38,0,0,0,2.81-.92A4.72,4.72,0,0,1,206,59.84Z"/><path class="cls-5" d="M163.28,41.87s-6.72,2.08-7.94-6.17,4.52-13.94,14.3-15.41,21.52.8,25.92,3.67a17.6,17.6,0,0,1,6.17,7s-5.81-4.71-12.71-4.52c0,0,16,3.54,17.42,16.75a14.78,14.78,0,0,0-13.15-8.07c-9.53-.06-12-2.14-17.72,1.22S168.11,41.08,163.28,41.87Z"/><path class="cls-8" d="M126.79,40.1a9.27,9.27,0,0,0,6.6,4.16s-2.63,7.33-2.69,11.24a8.34,8.34,0,0,1-.61-2.38S128,63,128.5,67.3a15.58,15.58,0,0,1-1.71-8.92s-2.45,5.44-2.57,7.15c0,0-2-11.8-1.28-15.9C122.94,49.63,123,42.48,126.79,40.1Z"/><path class="cls-8" d="M211.14,25.55s6.48,4.46,6.79,12.53,1.83,11.13,1.83,11.13-3.12-1-4.34-7.28a92.52,92.52,0,0,0,.8,9.9c.55,2.57-1.16,9.72-2.88,12.9,0,0,1-6.54-.42-10.39S209.19,46,209.25,41a28.82,28.82,0,0,0-1.65-9.48,8.43,8.43,0,0,1,3.18,4.65A10.25,10.25,0,0,0,211.14,25.55Z"/><path class="cls-5" d="M127.77,18.4s-1.65,10.21.3,13.94,7.09,5.19,7.09,5.19-3.36-3.3-4-7.33c0,0,4.71,5.62,7.33,6.35,0,0-5.31-6.84-4.21-11.18,0,0,5.05,6.6,6.13,7.76,0,0-3.32-8,0-12.53S146,9.78,153,9.05s17.48.3,21.4-2.88c0,0-6.42.55-11.31-1.1S145.68,7.15,144,10c0,0-.49-1.4.12-1.95,0,0-4.34,3.73-7.15,4.28S128.26,14.49,127.77,18.4Z"/><path class="cls-5" d="M185.65,12.65S202.34,17.3,206.74,26c0,0-1.89-6.72-3.18-8.62a5,5,0,0,1,2.2,1.53s-1.71-7.46-8.49-9.54-16.93.49-16.93.49,10.08-.3,13.2,2.88A33.6,33.6,0,0,0,185.65,12.65Z"/><path d="M204.12,64h0Z"/><polygon class="cls-6" points="131.9 90.86 168.77 83.45 204.13 92.42 198.15 106.5 173.41 124.6 164 124.6 138.32 109.05 131.9 90.86"/><rect class="cls-9" x="84.86" y="101.53" width="59.8" height="82.3" rx="3.7"/><rect class="cls-7" x="89.89" y="105.66" width="49.74" height="68.45" transform="translate(229.59 279.71) rotate(179.97)"/><rect class="cls-10" x="104.19" y="99.75" width="21.1" height="7.92" transform="translate(229.54 207.37) rotate(179.97)"/><rect class="cls-8" x="104.2" y="103.71" width="21.1" height="3.96" transform="translate(229.54 211.33) rotate(179.97)"/><path class="cls-11" d="M112.47,118.92h22.8a.93.93,0,0,0,0-1.83h-22.8a.93.93,0,0,0,0,1.83Z"/><path class="cls-11" d="M94.24,118.92h14.84a.93.93,0,0,0,0-1.83H94.24a.93.93,0,0,0,0,1.83Z"/><path class="cls-11" d="M122.13,123.2h13.14a.93.93,0,0,0,0-1.83H122.13a.93.93,0,0,0,0,1.83Z"/><path class="cls-11" d="M94.24,123.2h23.69a.93.93,0,0,0,0-1.83H94.24a.93.93,0,0,0,0,1.83Z"/><path class="cls-11" d="M123.3,127.48h12a.93.93,0,0,0,0-1.83h-12a.93.93,0,0,0,0,1.83Z"/><path class="cls-11" d="M105.39,127.48h14.75a.93.93,0,0,0,0-1.83H105.39a.93.93,0,0,0,0,1.83Z"/><path class="cls-11" d="M94.24,127.48h8a.93.93,0,0,0,0-1.83h-8a.93.93,0,0,0,0,1.83Z"/><path class="cls-11" d="M112.47,131.76h22.8a.93.93,0,0,0,0-1.83h-22.8a.93.93,0,0,0,0,1.83Z"/><path class="cls-11" d="M94.24,131.76h14.84a.93.93,0,0,0,0-1.83H94.24a.93.93,0,0,0,0,1.83Z"/><circle class="cls-12" cx="115.79" cy="153.52" r="12.78" transform="translate(-72.06 194.61) rotate(-65.31)"/><polygon class="cls-7" points="122.45 151.71 117.61 151.71 117.61 146.87 113.99 146.87 113.99 151.71 109.15 151.71 109.15 155.32 113.99 155.32 113.99 160.16 117.61 160.16 117.61 155.32 122.45 155.32 122.45 151.71"/></svg>