<svg xmlns="http://www.w3.org/2000/svg" viewBox="0 0 98 98"><defs><style>.cls-1{fill:#fcfcfc;}.cls-2{fill:#ff5a5a;}.cls-3{fill:#ffc431;}.cls-4{fill:#a6cfff;}.cls-5{fill:#fa8669;}.cls-6{fill:#91c0ff;}.cls-7{fill:#ffe28f;}.cls-8{fill:#ffd873;}.cls-9{fill:#ffa100;}</style></defs><title>Asset 57</title><g id="Layer_2" data-name="Layer 2"><g id="Layer_1-2" data-name="Layer 1"><path class="cls-1" d="M1.63,11.43H96.37V93.1a3.28,3.28,0,0,1-3.27,3.27H4.9A3.28,3.28,0,0,1,1.63,93.1Z"/><path class="cls-2" d="M1.63,11.43V4.9A3.28,3.28,0,0,1,4.9,1.63H93.1A3.28,3.28,0,0,1,96.37,4.9v6.53Z"/><circle class="cls-3" cx="14.7" cy="22.87" r="4.9"/><path class="cls-4" d="M9.8,34.3H88.2V76.77H9.8Z"/><path class="cls-5" d="M11.43,85.61a2.32,2.32,0,0,1,2.31-2.31h1.92A2.32,2.32,0,0,1,18,85.61h0a2.32,2.32,0,0,1-.68,1.63L14.7,89.83l-2.59-2.59A2.32,2.32,0,0,1,11.43,85.61Z"/><circle class="cls-6" cx="26.13" cy="86.57" r="3.27"/><path class="cls-3" d="M44.49,45.73H56.78a15.22,15.22,0,0,1,6.92,1.64v3.26l-1.63,1.64V67h-18Z"/><path class="cls-7" d="M53.9,67l7.29-6.09a9.06,9.06,0,0,1,11.55,0L80,67Z"/><path class="cls-8" d="M37.57,67V52.27l-1.64-1.64V47.37a15.29,15.29,0,0,1,6.92-1.64h2.5a15.29,15.29,0,0,1,6.92,1.64v3.26l-1.64,1.64V67Z"/><path class="cls-9" d="M42.47,62.07V67H19.6v-4.9a4.94,4.94,0,0,1,3.29-4.64,4.85,4.85,0,0,1,1.61-.26H37.57A4.89,4.89,0,0,1,42.47,62.07Z"/><path d="M93.1,0H4.9A4.91,4.91,0,0,0,0,4.9V93.1A4.91,4.91,0,0,0,4.9,98H93.1A4.91,4.91,0,0,0,98,93.1V4.9A4.91,4.91,0,0,0,93.1,0ZM4.9,3.27H93.1A1.63,1.63,0,0,1,94.73,4.9V9.8H3.27V4.9A1.63,1.63,0,0,1,4.9,3.27ZM93.1,94.73H4.9A1.63,1.63,0,0,1,3.27,93.1v-80H94.73v80A1.63,1.63,0,0,1,93.1,94.73Z"/><circle cx="6.53" cy="6.53" r="1.63"/><circle cx="11.43" cy="6.53" r="1.63"/><circle cx="16.33" cy="6.53" r="1.63"/><path d="M14.7,29.4a6.54,6.54,0,1,0-6.53-6.53A6.53,6.53,0,0,0,14.7,29.4Zm0-9.8a3.27,3.27,0,1,1-3.27,3.27A3.28,3.28,0,0,1,14.7,19.6Z"/><path d="M24.5,18h9.8v3.26H24.5Z"/><path d="M37.57,18H50.63v3.26H37.57Z"/><path d="M24.5,24.5h4.9v3.27H24.5Z"/><path d="M32.67,24.5h9.8v3.27h-9.8Z"/><path d="M88.2,32.67H9.8A1.63,1.63,0,0,0,8.17,34.3V76.77A1.64,1.64,0,0,0,9.8,78.4H88.2a1.64,1.64,0,0,0,1.63-1.63V34.3A1.63,1.63,0,0,0,88.2,32.67ZM86.57,75.13H11.43V35.93H86.57Z"/><path d="M71.87,84.93H78.4V88.2H71.87Z"/><path d="M81.67,84.93H88.2V88.2H81.67Z"/><path d="M15.66,81.67H13.74A3.94,3.94,0,0,0,11,88.4l2.6,2.6a1.64,1.64,0,0,0,2.3,0l2.6-2.6a3.95,3.95,0,0,0-2.8-6.73Zm.47,4.43L14.7,87.53,13.27,86.1a.69.69,0,0,1,0-1,.68.68,0,0,1,.47-.21h1.92a.68.68,0,0,1,.67.68.69.69,0,0,1-.2.49Z"/><path d="M26.13,81.67a4.9,4.9,0,1,0,4.9,4.9h0A4.91,4.91,0,0,0,26.13,81.67Zm0,6.53a1.64,1.64,0,1,1,1.64-1.63A1.64,1.64,0,0,1,26.13,88.2Z"/><path d="M83.3,68.6V65.33H80.63l-6.84-5.69a10.6,10.6,0,0,0-10.09-2V52.94l1.16-1.16a1.62,1.62,0,0,0,.47-1.17V47.35a1.64,1.64,0,0,0-.89-1.47,17.11,17.11,0,0,0-7.66-1.8H42.85a17.13,17.13,0,0,0-7.65,1.8,1.63,1.63,0,0,0-.9,1.47v3.26a1.66,1.66,0,0,0,.47,1.17l1.16,1.16v2.59H24.5A6.53,6.53,0,0,0,18,62.07v3.26H14.7V68.6ZM71.7,62.15l3.82,3.18H58.41l3.82-3.18a7.39,7.39,0,0,1,9.47,0ZM56.78,47.37a14.09,14.09,0,0,1,5.29,1v1.53L60.9,51.1a1.66,1.66,0,0,0-.47,1.17v7.14l-.28.23-6.84,5.69h-1V52.94l1.16-1.16a1.62,1.62,0,0,0,.47-1.17V47.35h2.88Zm-19.21,1a13.66,13.66,0,0,1,5.28-1h2.5a14,14,0,0,1,5.28,1v1.53L49.47,51.1A1.62,1.62,0,0,0,49,52.27V65.33H44.1V62.07a6.55,6.55,0,0,0-4.9-6.33V52.27a1.66,1.66,0,0,0-.47-1.17l-1.16-1.16V48.41ZM21.23,62.07a3.25,3.25,0,0,1,2.33-3.13l1.1,2.23a1.63,1.63,0,0,0,3.09-.74V58.8h.63l1.18,2.37a1.63,1.63,0,0,0,3.09-.74V58.8h.63l1.18,2.37a1.63,1.63,0,0,0,3.09-.74V58.8a3.28,3.28,0,0,1,3.26,3.27v3.26H21.21V62.07Z"/></g></g></svg>