<svg xmlns="http://www.w3.org/2000/svg" viewBox="0 0 98 98"><defs><style>.cls-1{fill:#fff;}.cls-2{fill:#ff5a5a;}.cls-3{fill:#231f20;}.cls-4{fill:#a5dc69;}.cls-5{fill:#78d2fa;}.cls-6{fill:#f5c86e;}</style></defs><title>Asset 55</title><g id="Layer_2" data-name="Layer 2"><g id="Layer_1-2" data-name="Layer 1"><path class="cls-1" d="M15.7,82.63H9.57A7.65,7.65,0,0,1,1.91,75V9.57A7.66,7.66,0,0,1,9.57,1.91H88.43a7.66,7.66,0,0,1,7.66,7.66V75a7.65,7.65,0,0,1-7.66,7.65H15.7Z"/><path class="cls-2" d="M88.43,1.91H9.57A7.66,7.66,0,0,0,1.91,9.57V15.7H96.09V9.57A7.66,7.66,0,0,0,88.43,1.91Z"/><path class="cls-3" d="M4,15.7H94.94"/><rect class="cls-4" x="10.72" y="75.03" width="12.25" height="21.05"/><rect class="cls-5" x="53.59" y="70.05" width="12.25" height="26.03"/><rect class="cls-6" x="32.16" y="53.87" width="12.25" height="42.22"/><rect class="cls-2" x="75.03" y="51.01" width="12.25" height="45.08"/><circle class="cls-6" cx="37.2" cy="32.91" r="4.98"/><circle class="cls-5" cx="59.54" cy="55.7" r="4.98"/><circle class="cls-2" cx="81.16" cy="32.91" r="4.98"/><circle class="cls-4" cx="16.72" cy="53.87" r="4.98"/><path d="M91.32,84.31A6.69,6.69,0,0,0,98,77.63V9.57A9.58,9.58,0,0,0,88.43,0H9.57A9.58,9.58,0,0,0,0,9.57V77.63a6.69,6.69,0,0,0,6.68,6.68H8.8v9.86H1.91a1.92,1.92,0,0,0,0,3.83H96.09a1.92,1.92,0,0,0,0-3.83H89.2V84.31ZM9.57,3.83H88.43a5.74,5.74,0,0,1,5.74,5.74v4.21H3.83V9.57A5.74,5.74,0,0,1,9.57,3.83Zm3.06,90.34V77h8.42V94.17Zm21.44,0V55.78h8.42V94.17Zm21.44,0V72h8.42v22.2Zm21.44,0V73.55a1.92,1.92,0,1,0-3.83,0V94.17H67.76V70.05a1.92,1.92,0,0,0-1.92-1.91H53.59a1.92,1.92,0,0,0-1.91,1.91V94.17H46.32V53.87A1.92,1.92,0,0,0,44.41,52H32.16a1.92,1.92,0,0,0-1.92,1.92v40.3H24.88V75A1.9,1.9,0,0,0,23,73.12H10.72A1.91,1.91,0,0,0,8.8,75v5.46H6.68a2.86,2.86,0,0,1-2.85-2.86v-60H94.17v60a2.86,2.86,0,0,1-2.85,2.86H89.2V51a1.91,1.91,0,0,0-1.92-1.91H75A1.9,1.9,0,0,0,73.12,51v9.67a1.92,1.92,0,0,0,3.83,0V52.92h8.42V94.17Z"/><path d="M42.5,10.72H85.75a1.92,1.92,0,0,0,0-3.83H42.5a1.92,1.92,0,0,0,0,3.83Z"/><path d="M19.91,10.72a2,2,0,0,0,1.35-.56,1.92,1.92,0,0,0,0-2.71,1.92,1.92,0,0,0-2.71,2.71A2,2,0,0,0,19.91,10.72Z"/><path d="M12.25,10.72a1.94,1.94,0,0,0,1.35-.56,1.92,1.92,0,0,0,0-2.71,1.91,1.91,0,0,0-2.7,0,1.92,1.92,0,0,0,0,2.71A1.94,1.94,0,0,0,12.25,10.72Z"/><path d="M27.56,10.72a1.92,1.92,0,0,0,1.36-3.27,1.92,1.92,0,0,0-2.71,0,1.92,1.92,0,0,0,0,2.71A2,2,0,0,0,27.56,10.72Z"/><path d="M75,65.58a1.94,1.94,0,0,0-1.35.56,1.92,1.92,0,0,0,0,2.71,1.91,1.91,0,0,0,2.7,0A1.92,1.92,0,0,0,75,65.58Z"/><path d="M81.16,39.8a6.89,6.89,0,1,0-6.89-6.89,6.8,6.8,0,0,0,1.31,4L62.87,49.67a6.89,6.89,0,0,0-6.36-.16L43.24,36.24a6.89,6.89,0,1,0-12.93-3.33,6.78,6.78,0,0,0,1,3.62L20,47.83a6.91,6.91,0,1,0,2.71,2.71L34.19,39.1a6.85,6.85,0,0,0,6.34-.16L53.68,52.09a6.89,6.89,0,1,0,11.89.28l13.06-13A6.82,6.82,0,0,0,81.16,39.8Zm0-9.95a3.06,3.06,0,1,1-3.07,3.06A3.07,3.07,0,0,1,81.16,29.85ZM16.72,56.93a3.06,3.06,0,1,1,3.06-3.06A3.07,3.07,0,0,1,16.72,56.93ZM37.2,36a3.06,3.06,0,1,1,3.07-3.06A3.07,3.07,0,0,1,37.2,36ZM59.54,58.76A3.06,3.06,0,1,1,62.6,55.7,3.06,3.06,0,0,1,59.54,58.76Z"/><path d="M27,28a2,2,0,0,0,1.35-.56,1.92,1.92,0,0,0,0-2.71A1.92,1.92,0,1,0,27,28Z"/><path d="M10.72,28h9.19a1.92,1.92,0,0,0,0-3.83H10.72a1.92,1.92,0,1,0,0,3.83Z"/><path d="M19.91,37.14a1.92,1.92,0,0,0,0-3.83H10.72a1.92,1.92,0,1,0,0,3.83Z"/></g></g></svg>