<svg xmlns="http://www.w3.org/2000/svg" viewBox="0 0 98 97.96"><defs><style>.cls-1{fill:#f9f7f8;}.cls-2{fill:#efedef;}.cls-3{fill:#ee6161;}.cls-4{fill:#e94444;}.cls-5{fill:#e5e1e5;}</style></defs><title>Asset 56</title><g id="Layer_2" data-name="Layer 2"><g id="Layer_1-2" data-name="Layer 1"><path class="cls-1" d="M89.35,15.4,80.25,11,8.74,12.32v77h74A6.29,6.29,0,0,0,89,83.1l.34-52.58Z"/><path class="cls-2" d="M10.06,84.75V15.46h.06l0,0,4.22-3.06,66.26-1.2L80.25,11,5.67,12.38,1.46,15.44l0,0H1.44V84.75A4.6,4.6,0,0,0,6,89.35h8.63A4.61,4.61,0,0,1,10.06,84.75Z"/><path class="cls-3" d="M84.75,1.44H8v14H89.35V6A4.6,4.6,0,0,0,84.75,1.44Z"/><path class="cls-4" d="M14.67,1.44H6A4.6,4.6,0,0,0,1.44,6v9.42h8.62V6A4.61,4.61,0,0,1,14.67,1.44Z"/><path class="cls-5" d="M74.06,27.31H15.12a1.75,1.75,0,0,0-1.75,1.75V47a1.74,1.74,0,0,0,1.75,1.74h61l0-19.4a2,2,0,0,0-2-2Z"/><path class="cls-1" d="M96.54,49.18l-3.83-4.6H43.28V96.52h48a5.31,5.31,0,0,0,5.31-5.31v-42Z"/><path class="cls-2" d="M44.72,91.21v-42h.06l3.83-4.6H41.33l-3.83,4.6h-.06v42a5.32,5.32,0,0,0,5.32,5.31H50a5.32,5.32,0,0,1-5.32-5.31Z"/><path class="cls-3" d="M91.25,36.27H42.56v12.9h54V41.59a5.32,5.32,0,0,0-5.31-5.32Z"/><path class="cls-4" d="M50,36.27H42.76a5.32,5.32,0,0,0-5.32,5.32v7.59h7.28V41.59A5.32,5.32,0,0,1,50,36.27Z"/><path class="cls-5" d="M83.94,71.42H50.07a3,3,0,0,1-3-2.94V62.37a3,3,0,0,1,3-2.94H83.94a2.94,2.94,0,0,1,2.94,2.94v6.11A2.94,2.94,0,0,1,83.94,71.42Z"/><path d="M1.44,20.94a1.44,1.44,0,0,0,1.44-1.43V16.9h85V30.52a1.44,1.44,0,1,0,2.87,0V6a6,6,0,0,0-6-6H6A6,6,0,0,0,0,6V19.51a1.43,1.43,0,0,0,1.44,1.43ZM6,2.88H84.75A3.16,3.16,0,0,1,87.92,6v8h-85V6A3.15,3.15,0,0,1,6,2.88Z"/><path d="M31.69,87.92H6a3.16,3.16,0,0,1-3.16-3.17V25.63a1.44,1.44,0,0,0-2.88,0V84.75a6,6,0,0,0,6,6H31.69a1.44,1.44,0,1,0,0-2.87Z"/><path d="M91.25,34.83H42.76A6.77,6.77,0,0,0,36,41.59V60.27a1.44,1.44,0,0,0,2.88,0V50.62H95.13V91.21a3.89,3.89,0,0,1-3.88,3.88H42.76a3.88,3.88,0,0,1-3.88-3.88V66.4a1.44,1.44,0,1,0-2.88,0V91.21A6.76,6.76,0,0,0,42.76,98H91.25A6.76,6.76,0,0,0,98,91.21V41.59a6.77,6.77,0,0,0-6.75-6.76ZM38.88,47.75V41.59a3.88,3.88,0,0,1,3.88-3.88H91.25a3.88,3.88,0,0,1,3.87,3.88v6.16Z"/><path d="M8.81,9.82H9.89a1.44,1.44,0,0,0,0-2.88H8.81a1.44,1.44,0,0,0,0,2.88Z"/><path d="M18.81,9.82h1.08a1.44,1.44,0,1,0,0-2.88H18.81a1.44,1.44,0,1,0,0,2.88Z"/><path d="M28.81,9.82h1.08a1.44,1.44,0,0,0,0-2.88H28.81a1.44,1.44,0,0,0,0,2.88Z"/><path d="M83.94,70H77.88a1.44,1.44,0,1,0,0,2.87h6.06a4.39,4.39,0,0,0,4.38-4.38V62.37A4.39,4.39,0,0,0,83.94,58H50.07a4.39,4.39,0,0,0-4.39,4.38v6.11a4.39,4.39,0,0,0,4.39,4.38H71.75a1.44,1.44,0,1,0,0-2.87H50.07a1.52,1.52,0,0,1-1.51-1.51V62.37a1.51,1.51,0,0,1,1.51-1.5H83.94a1.5,1.5,0,0,1,1.5,1.5v6.11A1.51,1.51,0,0,1,83.94,70Z"/><path d="M15.12,28.75h61a1.44,1.44,0,0,0,0-2.88h-61a3.19,3.19,0,0,0-3.19,3.19V47a3.19,3.19,0,0,0,3.19,3.18h13a1.44,1.44,0,1,0,0-2.87H15.12a.31.31,0,0,1-.31-.31V29.06A.31.31,0,0,1,15.12,28.75Z"/><path d="M28,56.27H13.37a1.44,1.44,0,1,0,0,2.87H28a1.44,1.44,0,1,0,0-2.87Z"/><path d="M28,67H13.37a1.44,1.44,0,0,0,0,2.88H28A1.44,1.44,0,1,0,28,67Z"/><path d="M47.12,85.28H86.88a1.44,1.44,0,0,0,0-2.88H47.12a1.44,1.44,0,0,0,0,2.88Z"/></g></g></svg>