<svg xmlns="http://www.w3.org/2000/svg" viewBox="0 0 99 99"><defs><style>.cls-1{fill:#babdce;}.cls-2{fill:#9da3b3;}.cls-3{fill:#ff9259;}.cls-4{fill:#ff7169;}.cls-5{fill:#e6ebef;}.cls-6{fill:#dae2ed;}.cls-7{fill:#ff5178;}.cls-8{fill:#0c0a0b;}</style></defs><title>Asset 54</title><g id="Layer_2" data-name="Layer 2"><g id="Layer_1-2" data-name="Layer 1"><path class="cls-1" d="M34,47.53l-14-14a.78.78,0,0,0-.65-.22,16,16,0,0,1-17.59-19,1.6,1.6,0,0,1,2.7-.84l7.77,7.77a1.62,1.62,0,0,0,1.64.38L19,20a1.6,1.6,0,0,0,1-1l1.7-5.09a1.61,1.61,0,0,0-.39-1.64L13.59,4.46a1.61,1.61,0,0,1,.84-2.71,16,16,0,0,1,19,17.58.78.78,0,0,0,.22.65L79,65.34a.78.78,0,0,0,.65.22,16,16,0,0,1,17.59,19,1.6,1.6,0,0,1-2.7.83l-7.77-7.76a1.59,1.59,0,0,0-1.63-.39L80,79a1.61,1.61,0,0,0-1,1l-1.69,5.09a1.58,1.58,0,0,0,.38,1.64l7.77,7.77a1.6,1.6,0,0,1-.84,2.7,16,16,0,0,1-19-17.58.75.75,0,0,0-.22-.64Z"/><path class="cls-2" d="M92.86,70.15a15.94,15.94,0,0,0-13.21-4.59.78.78,0,0,1-.65-.22L33.64,20a.78.78,0,0,1-.22-.65A16,16,0,0,0,15.32,1.61,16,16,0,0,1,29,19.33a.78.78,0,0,0,.22.65L74.56,65.34a.78.78,0,0,0,.65.22A16,16,0,0,1,92.93,83.8l1.61,1.6a1.6,1.6,0,0,0,2.7-.83A16,16,0,0,0,92.86,70.15Z"/><path class="cls-3" d="M17.89,94.69,4.31,81.11,3.25,82.17a6.19,6.19,0,0,0,0,8.74l4.84,4.83a6.17,6.17,0,0,0,8.74,0Z"/><path class="cls-4" d="M15.24,92.05l-3.77,3.69a6.08,6.08,0,0,1-1.69,1.2,6.17,6.17,0,0,0,7-1.2l1.06-1Z"/><path class="cls-5" d="M53.27,52.51l-6.79-6.79,41-41a1.61,1.61,0,0,1,.56-.37l7.3-2.76a1.6,1.6,0,0,1,2.06,2.06l-2.77,7.29a1.54,1.54,0,0,1-.36.57Z"/><path class="cls-6" d="M95.38,1.56,93,2.46a1.6,1.6,0,0,1,0,1.16l-2.77,7.29a1.54,1.54,0,0,1-.36.57L51.05,50.29l2.22,2.22,41-41a1.54,1.54,0,0,0,.36-.57l2.77-7.29a1.6,1.6,0,0,0-2.06-2.06Z"/><path class="cls-4" d="M52.51,57.81l-1,6.86a3.13,3.13,0,0,1-.9,1.81l-6.26,6.26L33.05,79.53,26,91.06l-4.53,4.53a3.19,3.19,0,0,1-4.52,0L3.41,82a3.2,3.2,0,0,1,0-4.53l4.75-4.74L19.47,66l6.79-11.32,6.26-6.25a3.2,3.2,0,0,1,1.81-.91l6.86-1L49.11,51Z"/><path class="cls-7" d="M49.11,51,49,50.94,47,64.67a3.2,3.2,0,0,1-.91,1.81L17,95.59a3.19,3.19,0,0,0,4.52,0L26,91.06l7-11.53,11.31-6.79,6.26-6.26a3.13,3.13,0,0,0,.9-1.81l1-6.86Z"/><path class="cls-3" d="M54.81,60.11,38.89,44.19a1.55,1.55,0,0,1,0-2.18l2.34-2.34a1.53,1.53,0,0,1,2.18,0L59.33,55.58a1.54,1.54,0,0,1,0,2.19L57,60.11a1.55,1.55,0,0,1-2.18,0Z"/><path class="cls-4" d="M59.33,55.58,43.41,39.67a1.53,1.53,0,0,0-2.18,0L40.1,40.8,54.88,55.58a1.54,1.54,0,0,1,0,2.19L53.68,59l1.13,1.13a1.55,1.55,0,0,0,2.18,0l2.34-2.34a1.54,1.54,0,0,0,0-2.19Z"/><path class="cls-3" d="M12.46,77.48A3.2,3.2,0,0,1,7.94,73L26.48,54.41A3.2,3.2,0,0,1,31,58.94Z"/><path class="cls-3" d="M26,91.06a3.2,3.2,0,1,1-4.53-4.52L40.06,68a3.2,3.2,0,0,1,4.52,4.53Z"/><path class="cls-4" d="M44.58,68,21.51,91.06a3.2,3.2,0,0,0,4.53,0L44.58,72.52a3.2,3.2,0,0,0,0-4.53Z"/><path class="cls-8" d="M36.56,62.44a1.44,1.44,0,0,0-2.05,0L16,81A1.46,1.46,0,0,0,16,83a1.48,1.48,0,0,0,1,.42A1.44,1.44,0,0,0,18,83L36.56,64.49A1.46,1.46,0,0,0,36.56,62.44Z"/><path class="cls-8" d="M79.8,64.09l-18-18L95.33,12.5a2.92,2.92,0,0,0,.7-1.07l2.76-7.29A3.05,3.05,0,0,0,94.86.2L87.57,3a2.94,2.94,0,0,0-1.07.69l-9.58,9.58a1.45,1.45,0,1,0,2,2l9.58-9.58,0,0,7.29-2.77a.16.16,0,0,1,.2.2L93.32,10.4a.1.1,0,0,1,0,0L54.77,49,50,44.23,74.88,19.38a1.45,1.45,0,0,0-2-2.05L52.94,37.22l-18-18A17.46,17.46,0,0,0,14.15.33a3.07,3.07,0,0,0-2.34,2.11,3,3,0,0,0,.76,3l7.77,7.77a.14.14,0,0,1,0,.15l-1.69,5.1a.18.18,0,0,1-.1.09l-5.09,1.7a.16.16,0,0,1-.16,0L5.57,12.49A3.05,3.05,0,0,0,.42,14.06,17.46,17.46,0,0,0,19.28,34.83L31.66,47.2l-.17.15L13.32,65.52a1.44,1.44,0,0,0,0,2,1.44,1.44,0,0,0,2,0L27.51,55.44h0A1.75,1.75,0,1,1,30,57.91L11.44,76.46a1.76,1.76,0,0,1-2.48,0,1.74,1.74,0,0,1-.51-1.24A1.72,1.72,0,0,1,9,74l2.3-2.3a1.46,1.46,0,0,0,0-2,1.44,1.44,0,0,0-2,0L2.38,76.46A4.66,4.66,0,0,0,1,79.75a4.58,4.58,0,0,0,.54,2.16,7.64,7.64,0,0,0,.67,10l4.84,4.84a7.63,7.63,0,0,0,10,.67,4.63,4.63,0,0,0,5.46-.83l29.1-29.1.16-.17L64.19,79.73A17.44,17.44,0,0,0,81.54,98.91a17.7,17.7,0,0,0,3.39-.33,3.05,3.05,0,0,0,1.58-5.15l-7.76-7.76a.17.17,0,0,1,0-.16l1.7-5.09a.15.15,0,0,1,.09-.1l5.09-1.69a.15.15,0,0,1,.16,0l7.76,7.77a3.06,3.06,0,0,0,5.16-1.58A17.46,17.46,0,0,0,79.8,64.09ZM50.35,62.65l-14-14L40.68,48,51,58.32ZM39.91,43.17a.12.12,0,0,1,0-.14l2.34-2.34a.11.11,0,0,1,.07,0,.09.09,0,0,1,.07,0L58.31,56.61a.09.09,0,0,1,0,.13L56,59.08a.1.1,0,0,1-.14,0ZM19.6,31.87A14.57,14.57,0,0,1,3.26,14.62a.15.15,0,0,1,.11-.12.13.13,0,0,1,.15,0l7.76,7.77A3.06,3.06,0,0,0,14.4,23l5.1-1.7a3,3,0,0,0,1.92-1.93l1.7-5.09a3,3,0,0,0-.74-3.12L14.62,3.43a.13.13,0,0,1,0-.14.16.16,0,0,1,.13-.12A14.56,14.56,0,0,1,31.94,19.51a1.42,1.42,0,0,0,.41,1.22L50.89,39.27,48,42.18l-3.54-3.54a3,3,0,0,0-4.24,0L37.86,41a3,3,0,0,0,0,4.24l.26.25L34.54,46,20.83,32.28A1.43,1.43,0,0,0,19.6,31.87ZM9.11,94.72,4.28,89.88a4.73,4.73,0,0,1-.76-5.71l11.3,11.3A4.74,4.74,0,0,1,9.11,94.72Zm10.14.36A1.75,1.75,0,0,1,18,94.56L4.43,81h0a1.76,1.76,0,0,1,0-2.48L5.92,77a4.48,4.48,0,0,0,1,1.48,4.66,4.66,0,0,0,6.58,0L32,60a4.65,4.65,0,0,0-1.48-7.57l2.72-2.72,16,16.06-2.71,2.72A4.65,4.65,0,0,0,39,67L20.49,85.51a4.67,4.67,0,0,0,0,6.58,4.48,4.48,0,0,0,1.48,1l-1.48,1.48a1.75,1.75,0,0,1-1.24.52ZM25,90a1.75,1.75,0,1,1-2.47-2.48L41.08,69a1.74,1.74,0,0,1,2.48,0,1.75,1.75,0,0,1,0,2.47Zm70.81-5.75a.15.15,0,0,1-.11.13.15.15,0,0,1-.15,0L87.8,76.61a3,3,0,0,0-3.12-.73l-5.09,1.69a3.09,3.09,0,0,0-1.93,1.93L76,84.59a3,3,0,0,0,.74,3.12l7.76,7.77a.11.11,0,0,1,0,.15.16.16,0,0,1-.13.11A14.56,14.56,0,0,1,67.14,79.41a1.43,1.43,0,0,0-.4-1.23L53,64.46l.51-3.58.25.25a3,3,0,0,0,4.24,0l2.34-2.34a3,3,0,0,0,0-4.23L56.82,51l2.9-2.91L78.25,66.64a1.43,1.43,0,0,0,1.23.4A14.57,14.57,0,0,1,95.82,84.29Z"/><path class="cls-8" d="M26.15,23.8l-2.27,2.26a1.46,1.46,0,0,0,0,2.05,1.49,1.49,0,0,0,1,.43,1.45,1.45,0,0,0,1-.43l2.27-2.26a1.46,1.46,0,0,0,0-2.05A1.44,1.44,0,0,0,26.15,23.8Z"/><path class="cls-8" d="M73.15,70.8l-2.26,2.26a1.44,1.44,0,0,0,0,2,1.41,1.41,0,0,0,1,.43,1.45,1.45,0,0,0,1-.43l2.26-2.26a1.45,1.45,0,1,0-2-2Z"/></g></g></svg>