<svg id="Layer_1" data-name="Layer 1" xmlns="http://www.w3.org/2000/svg" viewBox="0 0 304 184"><defs><style>.cls-1{fill:#b4d3d6;}.cls-1,.cls-10,.cls-11,.cls-12,.cls-13,.cls-14,.cls-17,.cls-18,.cls-19,.cls-2,.cls-20,.cls-21,.cls-22,.cls-23,.cls-24,.cls-27,.cls-28,.cls-29,.cls-3,.cls-31,.cls-34,.cls-35,.cls-36,.cls-37,.cls-38,.cls-39,.cls-4,.cls-40,.cls-7,.cls-8,.cls-9{fill-rule:evenodd;}.cls-2,.cls-6{fill:#b8b8b8;}.cls-3{fill:#f0c17d;}.cls-4{fill:#032747;}.cls-17,.cls-5{fill:#9e9e9e;}.cls-7{fill:#ffdba7;}.cls-8{fill:#05345e;}.cls-9{fill:#dfe4e8;}.cls-10{fill:#d8ebed;}.cls-11{fill:#632404;}.cls-13{fill:#3f4345;}.cls-14,.cls-41{fill:#95c2d9;}.cls-15{fill:#0b95a1;}.cls-16{fill:#14b0bf;}.cls-18{fill:#01111f;}.cls-19{fill:#212121;}.cls-20{fill:#021c33;}.cls-21{fill:#e4eced;}.cls-22,.cls-25{fill:#c9c9cb;}.cls-23{fill:#749eb8;}.cls-24{fill:#f7fcfc;}.cls-26,.cls-31{fill:#dadada;}.cls-27{fill:#fff9f0;}.cls-28{fill:#e0aa5e;}.cls-29{fill:#cc964a;}.cls-30{fill:#e8e8e8;}.cls-32,.cls-34{fill:#292929;}.cls-33{fill:#1c1c1c;}.cls-35{fill:#2b2a29;}.cls-36{fill:#accce8;}.cls-37{fill:#44515c;}.cls-38{fill:#5e6c78;}.cls-39{fill:#c6def2;}.cls-40{fill:#e3effa;}</style></defs><title>Artboard 5 copy</title><path class="cls-1" d="M111.35,52.7c.46,3.65,1.25,6.88,1.07,10.62l-.91,19.79-4.74-1.78c-.34-.4-.41-.46-.49-.84-.49-2.41-2.6-11-4-17.57-1.54-7.32-2.57-11.73,1.11-14.91C105.6,46.11,110.46,45.71,111.35,52.7Z"/><polygon class="cls-2" points="71.28 55.13 81.41 55.13 90.12 122.17 76.86 122.88 71.28 55.13"/><path class="cls-3" d="M132.77,120.63c-3.4,11.92-9.63,30.38-9.49,35.41s12.15,7.23,11.72,11.28c-1.13.5-7,.69-9.23.28-3-.52-4.42-1.77-7-1.9l-.17,1.45-4.39-.2.16-2.92c0-5.54,2.3-6.92,2.71-9.57,1.15-7.63,1.51-19,1.49-27.08l8.3-14.53,8.84-7.11C136.29,108.76,134.2,115.59,132.77,120.63Z"/><path class="cls-4" d="M131.52,163.37c2.27,1.1,3.64,2.51,3.48,3.95-1.13.5-7,.69-9.23.28-3-.52-4.42-1.76-7-1.9l-.17,1.45-4.39-.2.06-2.92a8.46,8.46,0,0,1,.73-5C116.82,161.88,127.19,164.51,131.52,163.37Z"/><rect class="cls-5" x="98.04" y="121.15" width="6.02" height="44.56"/><rect class="cls-5" x="76.55" y="112.21" width="49" height="10.68" rx="4.65"/><rect class="cls-6" x="88.21" y="162.23" width="25.67" height="5.59" rx="2.44"/><path class="cls-7" d="M135,120.63c-3.4,11.92-9.63,30.38-9.49,35.41s12.15,7.23,11.72,11.28c-1.13.5-7,.69-9.23.28-3-.52-4.42-1.77-7-1.9l-.18,1.45-4.39-.2.17-3.09c0-5.53,2.3-6.75,2.7-9.4,1.15-7.63,1.51-19,1.49-27.08l8.3-14.53,8.84-7.11C138.52,108.76,136.43,115.59,135,120.63Z"/><path class="cls-8" d="M133.75,163.37c2.27,1.1,3.65,2.51,3.48,3.95-1.13.5-7,.69-9.23.28-3-.52-4.42-1.76-7-1.9l-.18,1.45-4.39-.2.06-2.92a8.46,8.46,0,0,1,.73-5C119.05,161.88,129.42,164.51,133.75,163.37Z"/><path class="cls-8" d="M104.44,89.24l-20,.3c-4.13,12.78-2.64,18.93,2.07,22.41,4.4,3.25,29.76,7.06,38.23,9.76,5-8,8.47-11.13,14.28-16.42a145.68,145.68,0,0,0-32.26-11.84Z"/><path class="cls-4" d="M90.2,89.67l-5.75-.13c-4.13,12.78-2.64,18.93,2.07,22.41,4.4,3.25,29.76,7.06,38.23,9.76a64.44,64.44,0,0,1,6.09-8.38c-17.34-8.51-31.48-13.45-37.17-14.9Z"/><path class="cls-3" d="M105.15,39.62c-1.53,4-1,9.16-.32,13.71l-8.45-1.15-.33-14.09-1.29-6.42,7.86,5.5Z"/><path class="cls-8" d="M108.68,73.86l-4.09,10.56,1.65,7L82.09,96.89c1.13-3.7,2.78-7.71,2.87-12.73.22-12.94-2.24-26.8,1.07-31.73,2.93-4.36,8.22-7.88,10.08-11.3a13,13,0,0,0,6.56,4c2.66.76,4.82.66,5.65,1.72,1.73,2.21,1.77,9,3,12.25,1.74,4.51,2.7,4.76,2.72,7.14C114.11,70.35,112.06,71.38,108.68,73.86Z"/><path class="cls-9" d="M96.06,41.09l-1.82,2.32c2.5,2.79,5.15,4.35,8.06,6.72l.51-5A23.6,23.6,0,0,1,96.06,41.09Z"/><path class="cls-9" d="M104.32,43.58c0,.8-.23,1.55-1.44,1.68L105,49.87C104.9,47.09,105.25,46.25,104.32,43.58Z"/><path class="cls-10" d="M96,56.45c0,3.68-.39,6.93-.33,10.67l.19,11.62-8.17,5.49a1.58,1.58,0,0,1-.37-.89c-.17-2.46-1.12-11.3-1.63-18-.57-7.46-1-12,3.06-14.63C91.16,49.16,96,49.41,96,56.45Z"/><path class="cls-7" d="M106.33,41c1.48.44,2.66.58,3.16-.16a4.77,4.77,0,0,0,.48-2.62c0-.22.28-.37.66-.83.75-1.06-.6-1.36-1.39-1.71,1.42,0,2.12.12,2.2-1.19l-.44-.33a2.55,2.55,0,0,1,0-1.52c.21-.73,1.74-1,1.48-2.35a7.77,7.77,0,0,1-2.58-3.65c-.49-1.62.61-2.75-.44-5.85a8.44,8.44,0,0,0-5.4-5.38c-4.6-1.54-11.94-1.26-14.58,2C82.24,26.27,95.25,37,95.45,37.09,98.31,39,102.43,39.8,106.33,41Z"/><path class="cls-11" d="M107.83,17.7c-1.59-3.1-13.83-7.16-19.37,1-5.17,8.94-4.12,21.61-.69,27.58,1.65,2.86,14,4.2,18.13,5a18.75,18.75,0,0,1-4.26-3.9,10,10,0,0,0,1.18.74c-3.46-6.47-5.51-9-3.36-14.9C103.05,29.49,116.24,21.69,107.83,17.7Z"/><path class="cls-7" d="M135.44,49.43c-8.76-.12-8.43,5.3-13.27,10l3.43,2.34c2.5-3.48,8.64-3.27,9.77-4.36C136.65,56.12,142.06,49.15,135.44,49.43Z"/><path class="cls-1" d="M123.06,57.29a61,61,0,0,1,6,3.11c-4.62,7.66-8.69,15-14.62,22.32A3.37,3.37,0,0,1,111,83.93a4.32,4.32,0,0,1-1.49-.47,3.55,3.55,0,0,1-1.68-2.65c-.13-.76.88-2,1.47-3.19,1.08-2.27,2.28-4.76,3.19-5.61C116.86,68,120.55,61.66,123.06,57.29Z"/><path class="cls-3" d="M116.92,87.65a8.4,8.4,0,0,0,2.34,1.12l3.48-.55.52-.5c0-.38.28-2.91.54-4.69a1,1,0,0,0,.24-1.81c-1.93,0-4.43-.32-5.85.41-1.69.91-1.24,1.3-3.44,1.11l-.32,4.37A8.17,8.17,0,0,1,116.92,87.65Z"/><path class="cls-10" d="M116.68,81.77a61,61,0,0,1,.24,6.76c-9-.27-17.37-.21-26.63-1.81a3.35,3.35,0,0,1-2.72-2.38,4.45,4.45,0,0,1-.32-1.52c0-2.68,3-3.87,5-4.71a3.9,3.9,0,0,1,2.27-.27C100,81.56,110.24,81.7,116.68,81.77Z"/><polygon class="cls-12" points="131.01 55.65 131.84 56.06 130.18 59.51 129.36 59.11 131.01 55.65"/><path class="cls-12" d="M138.38,41.79h0c1.17.58,1.45,2.42.63,4.09-1.27,2.57-3.88,8.71-5.85,10.56-1,.91-2.07,1.61-2.63,1.33h0c-.59-.29-.68-1.72-.51-3.12.3-2.52,3.54-8.44,4.74-10.87C135.59,42.11,137.22,41.22,138.38,41.79Z"/><path class="cls-13" d="M142.12,34.47A4.55,4.55,0,1,1,136,36.54,4.56,4.56,0,0,1,142.12,34.47Z"/><path class="cls-12" d="M143.28,35.29a3.88,3.88,0,0,1,.76,1.55,5.28,5.28,0,0,1-2.9,5.87,3.83,3.83,0,0,1-1.68.34,4.28,4.28,0,0,1-1.36-.42,4.91,4.91,0,0,1-1.17-.82,4,4,0,0,1-.75-1.55,5.28,5.28,0,0,1,2.9-5.87,3.83,3.83,0,0,1,1.68-.34,4.86,4.86,0,0,1,1.36.42,4.66,4.66,0,0,1,1.16.82Zm.59,1.59a3.46,3.46,0,0,0-1.79-2.33h0a3.45,3.45,0,0,0-2.93,0,5.12,5.12,0,0,0-2.8,5.67,3.32,3.32,0,0,0,4.72,2.33,4.84,4.84,0,0,0,2.38-2.35A4.9,4.9,0,0,0,143.87,36.88Z"/><path class="cls-12" d="M142.68,34.8a2.87,2.87,0,0,1,.6,1.68,7.25,7.25,0,0,1-2.89,5.85,2.85,2.85,0,0,1-1.69.55,4.47,4.47,0,0,1-.6-.25,5.3,5.3,0,0,1-.57-.33,2.91,2.91,0,0,1-.59-1.67,7.25,7.25,0,0,1,2.89-5.85,2.85,2.85,0,0,1,1.69-.55,5,5,0,0,1,.6.24,4.34,4.34,0,0,1,.56.33Zm.42,1.69a1.86,1.86,0,0,0-3.17-1.57,6.51,6.51,0,0,0-2.08,2.52,6.44,6.44,0,0,0-.73,3.17,1.86,1.86,0,0,0,3.17,1.57,7.06,7.06,0,0,0,2.81-5.69Z"/><path class="cls-12" d="M142.33,34.58a2.53,2.53,0,0,1-.06,1.43,15.29,15.29,0,0,1-1.16,3,15.17,15.17,0,0,1-1.7,2.76,2.56,2.56,0,0,1-1.1.92l-.21-.1-.21-.11a2.44,2.44,0,0,1,.06-1.43,15.23,15.23,0,0,1,1.16-3,14.75,14.75,0,0,1,1.7-2.77,2.45,2.45,0,0,1,1.1-.91l.21.09.21.11ZM142.1,36c.19-.78.2-1.31,0-1.42s-.63.23-1.13.85a16.82,16.82,0,0,0-2.83,5.73c-.19.78-.2,1.32,0,1.42s.63-.22,1.13-.85A15.38,15.38,0,0,0,141,39,15.06,15.06,0,0,0,142.1,36Z"/><path class="cls-12" d="M136.85,35.38a3.88,3.88,0,0,1,1.55-.76,5.28,5.28,0,0,1,5.87,2.9,3.85,3.85,0,0,1,.34,1.69,5,5,0,0,1-.42,1.36,4.85,4.85,0,0,1-.82,1.16,3.86,3.86,0,0,1-1.55.75,5.28,5.28,0,0,1-5.87-2.9,3.8,3.8,0,0,1-.34-1.68,4.28,4.28,0,0,1,.42-1.36,4.66,4.66,0,0,1,.82-1.16Zm1.59-.59a3.44,3.44,0,0,0-2.33,1.79h0a3.45,3.45,0,0,0,0,2.93,5.09,5.09,0,0,0,5.67,2.8,3.31,3.31,0,0,0,2.33-4.72,5.12,5.12,0,0,0-5.67-2.8Z"/><path class="cls-12" d="M136.36,36a2.78,2.78,0,0,1,1.68-.59,7.2,7.2,0,0,1,5.84,2.88,2.72,2.72,0,0,1,.55,1.69,3.85,3.85,0,0,1-.24.61,6.32,6.32,0,0,1-.33.56,2.8,2.8,0,0,1-1.68.59,6.69,6.69,0,0,1-3.26-.75,6.6,6.6,0,0,1-2.58-2.14,2.78,2.78,0,0,1-.56-1.69,5.09,5.09,0,0,1,.25-.6,4.34,4.34,0,0,1,.33-.56Zm1.69-.42a2.17,2.17,0,0,0-1.94,1,2.18,2.18,0,0,0,.37,2.15,7.06,7.06,0,0,0,5.69,2.81,2.18,2.18,0,0,0,1.94-1,2.2,2.2,0,0,0-.37-2.16,7.06,7.06,0,0,0-5.69-2.81Z"/><path class="cls-12" d="M136.14,36.33a2.53,2.53,0,0,1,1.43.06,15.23,15.23,0,0,1,3,1.16,15.51,15.51,0,0,1,2.77,1.7,2.62,2.62,0,0,1,.92,1.1c0,.07-.07.14-.1.22l-.11.2a2.51,2.51,0,0,1-1.43-.05,15.53,15.53,0,0,1-3-1.16,15.15,15.15,0,0,1-2.76-1.71,2.56,2.56,0,0,1-.92-1.1l.1-.21.11-.21Zm1.39.23c-.78-.19-1.31-.19-1.42,0s.23.63.85,1.14a15.41,15.41,0,0,0,2.73,1.68,15.06,15.06,0,0,0,3,1.14c.78.19,1.31.2,1.42,0s-.23-.64-.85-1.14a14.84,14.84,0,0,0-2.73-1.68A15.18,15.18,0,0,0,137.53,36.56Z"/><path class="cls-14" d="M136.12,36.05l8.4,4.15a.33.33,0,0,1,.15.44l-.37.73a.33.33,0,0,1-.44.15l-8.39-4.14a.33.33,0,0,1-.15-.44l.36-.74A.33.33,0,0,1,136.12,36.05Z"/><rect class="cls-15" x="133.61" y="39.78" width="6.9" height="9.88" transform="translate(36.3 147.84) rotate(-63.73)"/><rect class="cls-16" x="134.08" y="40.29" width="5.98" height="8.86" transform="translate(36.3 147.84) rotate(-63.73)"/><path class="cls-7" d="M131.49,51.9,130.63,56c3.14,2.18,4.12,3,5.34,1.52l3.09-6.79C136.4,48.67,134.5,50.52,131.49,51.9Z"/><polygon class="cls-17" points="284 58.37 274.02 58.37 265.43 124.43 278.5 125.14 284 58.37"/><rect class="cls-5" x="251.7" y="123.42" width="5.93" height="43.91"/><rect class="cls-5" x="230.52" y="114.61" width="48.28" height="10.52" rx="4.59"/><rect class="cls-6" x="242.01" y="163.91" width="25.3" height="5.51" rx="2.4"/><polygon class="cls-2" points="284 58.37 281.95 58.37 270.73 125.03 278.5 125.14 284 58.37"/><path class="cls-12" d="M203.43,167.62c5,2.62,14.41-.06,19.33-.89,1.69,1,4.36,0,5.37-.27,2.24-.63,1.68-6.09,1-9.37-.57-2.62-.11-4.73-.11-7.67l-9.41-1.69c.52,4.78,1,6.43-.16,8.57-2.43,4.42-6.88,4.83-10.41,5.83C203.31,163.74,202.46,166.51,203.43,167.62Z"/><path class="cls-18" d="M210.45,121l5,38.42,16-2.24L226.17,119c9.23,0,31.73-.94,36.66-3.67s5.4-8.75,2-23l-6-2a122.67,122.67,0,0,1-15.65,8.14c-7.89,3.6-15.37,5.22-25.36,8.77C208.54,110.54,209.12,110.8,210.45,121Z"/><path class="cls-19" d="M206.48,168.3c5,2.62,14.41-.06,19.33-.9,1.69,1,5.41,0,6.42-.26,2.24-.63,1.68-6.1,1-9.37-.58-2.62-.12-4.74-.12-7.67l-11.61-1.33c.52,4.79,1,6.43-.15,8.58-2.44,4.41-5.74,4.46-9.27,5.46C206.36,164.42,205.52,167.19,206.48,168.3Z"/><path class="cls-20" d="M213.5,121.69l5,38.42,16-2.24-5.24-38.18c9.23,0,31.73-.94,36.66-3.66s5.4-8.75,2-23l-6-2a121.35,121.35,0,0,1-15.65,8.14c-7.89,3.6-15.37,5.22-25.36,8.77C211.59,111.21,212.17,111.48,213.5,121.69Z"/><path class="cls-20" d="M247,64.81c-.72,4.4-1.64,8.84-2.44,12.37-3.72,16.56-13.21-1.14-11.84-2.92,1.69-5.65.78-18.4,2.34-26.39,1.16-5.95,3-8.36,7.81-7.22C251.34,42.67,247.73,60.24,247,64.81Z"/><path class="cls-4" d="M257.15,31.55c1.68,3.39,1.22,5.46,4.89,7.11,5.89,2.66,7.37,4.55,9,7.45,5.06,8.83-4.29,27.42-4.46,42.24l-27.76-2.42c.58-11.07-7.63-38,.2-45.94l9.42-6.86Z"/><path class="cls-21" d="M251.19,29l6,2.38.48,2.38-.95,11.43-5,38.67-6.28,1.28-1.48-29.54.15-9.6c.09-5.44.87-8.62,2-10.61C247,33.58,248.16,32.94,251.19,29Z"/><path class="cls-4" d="M257.69,32.7c1.14,2.49,1.13,4.32,4.35,5.77,5.89,2.65,7.56,4.43,9.22,7.33,4.08,7.13-1.09,24.59-2.19,36.39-.25,2.74.69,17.79,1.06,21.54-7.73,1.53-15.7,1-24,0,.15-9.68,2.21-36.73,4.24-46.21a90.77,90.77,0,0,1,4.5-13.66,42,42,0,0,0,2.81-9.73A8.87,8.87,0,0,0,257.69,32.7Z"/><path class="cls-3" d="M257.24,33.06,256.59,37l-6.92,8.37-1.86-1.77c-2.95-6.83-2.56-6.41-3.21-14l10.61-5.47C255.77,28.81,256.43,29.73,257.24,33.06Z"/><polygon class="cls-22" points="229.99 66.24 166.6 66.24 156.64 97.96 256.2 97.96 229.99 66.24"/><path class="cls-23" d="M248.52,44l.93,5.28A16.68,16.68,0,0,0,248.3,52l.72,5.64c-.65,7-1.93,15-2.87,20.9l-.67.33c-.24-7.7-.14-13.73-.25-21.55l.69-4.95c-.18-2-.54-3.51-.55-3.77,0-1.14,1.41-3.24,2.58-4.82Z"/><path class="cls-24" d="M248.27,43.91c.17,3,.21,5.81,1,7.81,5.46-5,8.19-13.55,8-19.67C256.17,35.78,255.71,39.3,248.27,43.91Z"/><path class="cls-24" d="M248.45,43.88c-1.28-1.26-2.61-5.92-3.16-7.14l-.85,3.62a24.88,24.88,0,0,0,.87,8.48A18.06,18.06,0,0,1,248.45,43.88Z"/><rect class="cls-25" x="185.6" y="104.75" width="26.45" height="68.05"/><rect class="cls-6" x="198.83" y="104.75" width="13.22" height="68.05"/><rect class="cls-26" x="156.64" y="97.71" width="99.31" height="9.85"/><path class="cls-7" d="M238.61,27.36A1.17,1.17,0,0,1,238,28.7a1,1,0,0,0,.6,1.09c1.91-.05,1.14,1.15,1,1.16-1.4.07-1.25.59-1,1,.39.11.55.28.58.48.1.61-1.07,1.74-.27,2.84,1,1.31,6.79-1,9.5-2.09,2.24-.89,1.64-2.43,1.59-4.78,1.22.26,2.2,0,2.4-2,1.79-2.14,2.47-3.93,3.7-6.43,0,0-3.23-10.55-3.47-10.63s-8.31.33-8.31.33c-1.08,1.46-2.76,2.76-3.9,4.47a16.06,16.06,0,0,0-2.16,5,2.53,2.53,0,0,0-.06,2,2.28,2.28,0,0,1,.22.79c-.15,2-2.18,3.52-2.12,4.08A2.22,2.22,0,0,0,238.61,27.36Z"/><path class="cls-11" d="M243.12,14.84c1.41-.4,2.81-.32,3.6.95.31.5,0,7.4.54,9.09l1-.35c1-1.07,3.28-3.56,4.83-3,1.19.48.58,2.68-.38,4.2a2.7,2.7,0,0,0-.37,2.26c.44,1.25,1.61.69,2.76,1.93a17.22,17.22,0,0,1,1.85,3.3c.86-3.12,1.16-4.2,2.42-6.1,2.07-3.15,3-10.37-.22-12.66-3.16-3.18-5.49-6-9.17-6.11C239.27,8,242.37,15.05,243.12,14.84Z"/><polygon class="cls-27" points="182.97 78.44 227.26 78.44 224.68 87.57 180.39 87.57 182.97 78.44"/><path class="cls-11" d="M245.06,15.78c-3.47.46-6.11.59-7.92-3.18,2.72.93,5.52-6.4,15.18-3.9a9.23,9.23,0,0,0-2.62-1,8.21,8.21,0,0,1,7,3.93c2.37,1.42,2.67,2.31,3.93,4.68a6.86,6.86,0,0,0-1.37-1.15c1.71,2.3,2.07,6,.7,9.36-.85,2.07-2.26,3.23-3.14,5.43a5.15,5.15,0,0,1-2-3.24c1.65-1.5.4-5.55-2.09-6.6-1.82-.13-2.4,1.47-3.1,2.88a7.52,7.52,0,0,1-2.22,2.67c-.45-.44-.09-1.32-.48-3.68l-.7.69A7.46,7.46,0,0,0,245.06,15.78Z"/><path class="cls-28" d="M199,77.12l-1.29,2.63-.07.93L200,81.75l2.81-.31,4.3-.32,2.43-1.48s.09-2.76,0-2.94a19,19,0,0,0-3.63-1.35C205.73,75.39,198.84,77.06,199,77.12Z"/><polygon class="cls-29" points="200.9 78.24 200.7 78.38 200.06 79.37 201.39 79.81 204.04 78.83 203.1 77.7 200.9 78.24"/><path class="cls-3" d="M204,74.86a16.48,16.48,0,0,0-4,.22,7.52,7.52,0,0,0-2,1c-.78.44-1.83.87-3.24,1.68-2.76,1.59-4.53,2.34-4.35,3s1.42.48,4.11-.61l4.57-1.85c.58.06,1.21-.06,1.89,0l2.39.24,7.58-.87-.14-2C208.14,75.31,206.35,75,204,74.86Z"/><path class="cls-3" d="M204.79,77.85l-4,2.27c-2.25.79-4.3.69-5.05,1.58-.49.58.27,1.71,1.71,1.52,1.1-.34,4.05-.77,4.78-.93,1.42-.31,1.87.33,3.79.06,2.69-.39,3.49-1.69,5.12-2.49l0-3.09S204.76,77.94,204.79,77.85Z"/><path class="cls-20" d="M237.35,84c-8.83,1.09-17.84.19-26.8.33.11-4.8-.32-6.21-2-9.08,0,0,24.34-5.13,24.93-5.13.78,0,3,2.74,4.87,5.72C240,78.35,241.9,83.4,237.35,84Z"/><path class="cls-12" d="M215.75,70.48h0a.75.75,0,0,0-1.05.11L204.19,83.45l-.73,2.09,1.89-1.14,10.51-12.87A.74.74,0,0,0,215.75,70.48Z"/><path class="cls-7" d="M221,76.74c-1-.25-4.47-1-6.65-1.25a4.84,4.84,0,0,0-3,.38c-1.13.36-2.84.7-3,.77s-2.33,2-2.33,2c-.78,1.91-1.49,2.75-.61,3.28.54.32,1.23-.39,2.5-2l.88-.61a4.47,4.47,0,0,0-1.38,2.16,1.59,1.59,0,0,0,1.43,2.08c.35,0,.33-.25.47-.61l.36-.93c1.1-.33,2.07-.67,3.14-1.06a8.5,8.5,0,0,0-2.7,1.55c-.57.66-.08,1.24.41,1.82.69.8,1.68-.57,3.94-1.21A5.28,5.28,0,0,0,212,84.58c-.43.68.44,1.09,1.09,1.14a97.3,97.3,0,0,0,10.18-.28L223,79.7Z"/><path class="cls-21" d="M222.9,76.25l-2.26.27a16.29,16.29,0,0,1,2.43,9l2.82-.14-1.47-8.17Z"/><path class="cls-8" d="M250.9,85.38c-8.83,1.09-17.65,1-26.61,1.12.11-4.8-.51-8-2.15-10.84,0,0,19.42-.51,26.89-1.85.77-.13,2,.22,3.86,3.2C254.51,79.56,255.44,84.83,250.9,85.38Z"/><path class="cls-8" d="M264.52,69C262.31,73,260,76.71,258,79.9c-2.79,4.49-3.72,5-7.59,5.47-4.24.5-7.24-10-5.87-11l4.34-.64c.81-.59,2.13-3.81,6.09-16.74,3.58-11.69,7.64-15.54,13.41-12.79C276,47.86,266.82,64.8,264.52,69Z"/><rect class="cls-30" x="189.99" y="61.82" width="6.95" height="12.74"/><path class="cls-31" d="M193.47,73.88c1.92,0,3.48.29,3.48.65s-1.56.65-3.48.65-3.48-.29-3.48-.65S191.55,73.88,193.47,73.88Z"/><rect class="cls-32" x="173.12" y="77" width="7.69" height="2.14"/><rect class="cls-33" x="176.97" y="77" width="3.85" height="2.14"/><path class="cls-34" d="M193.66,54.72l.05.13a2.87,2.87,0,0,1-1.46,3.78L189.1,60a2.88,2.88,0,0,1-3.78-1.47l-.06-.13a2.89,2.89,0,0,1,1.46-3.79l3.15-1.39A2.88,2.88,0,0,1,193.66,54.72Z"/><path class="cls-35" d="M186.79,58.44c-9,3.88-9.22,9.67-9.38,18.74h-1c.17-9.5.55-15.58,10-19.65Z"/><rect class="cls-32" x="168.15" y="86.76" width="7.69" height="2.14"/><rect class="cls-33" x="171.99" y="86.76" width="3.85" height="2.14"/><path class="cls-34" d="M188.68,64.48l.06.13a2.89,2.89,0,0,1-1.47,3.79l-3.15,1.39a2.87,2.87,0,0,1-3.78-1.46l-.06-.13a2.88,2.88,0,0,1,1.46-3.79L184.89,63A2.88,2.88,0,0,1,188.68,64.48Z"/><path class="cls-35" d="M181.81,68.2c-9,3.89-9.21,9.68-9.38,18.75l-1,0c.17-9.49.55-15.57,10-19.64Z"/><path class="cls-36" d="M60,57.68c.22,3.65,1.09,6.91.38,10.62l-4.6,24.13-4.62-1.78c-.31-.39-.38-.46-.43-.83-.34-2.41.51-15.4-.44-21.93-1.07-7.31-1.81-11.72,2.08-14.9C54.69,51.09,59.58,50.69,60,57.68Z"/><polygon class="cls-2" points="20.32 60.11 30.45 60.11 39.16 127.15 25.9 127.86 20.32 60.11"/><path class="cls-3" d="M87.08,124.82c-3.39,11.92-9.63,30.38-9.48,35.4s12.14,7.24,11.72,11.29c-1.13.5-7,.69-9.24.28-3-.53-4.42-1.77-7-1.9L73,171.34l-4.38-.2.16-2.92c0-5.54,2.3-6.92,2.7-9.57,1.15-7.64,1.51-19,1.49-27.08L81.22,117,90,110.24C90.56,113.27,88.52,119.77,87.08,124.82Z"/><path class="cls-4" d="M85.83,167.56c2.27,1.1,3.65,2.51,3.49,3.95-1.13.5-7,.68-9.24.28-3-.53-4.42-1.77-7-1.9L73,171.34l-4.38-.21.05-2.91a8.51,8.51,0,0,1,.73-5C71.14,166.07,81.5,168.69,85.83,167.56Z"/><path class="cls-37" d="M87.08,124.82,78.52,162l-7.16-1.57c1.15-7.63,1.58-20.78,1.55-28.89l8-16.22L90,110a3.24,3.24,0,0,1,.33,1.75C90.1,115.19,88.28,120.6,87.08,124.82Z"/><rect class="cls-5" x="47.08" y="126.13" width="6.02" height="44.56"/><rect class="cls-5" x="25.59" y="117.19" width="49" height="10.68" rx="4.65"/><rect class="cls-6" x="37.26" y="167.21" width="25.67" height="5.59" rx="2.44"/><path class="cls-7" d="M84,125.61C80.65,137.53,74.42,156,74.56,161s12.14,7.24,11.72,11.29c-1.13.5-7,.69-9.24.28-3-.53-4.41-1.77-7-1.9l-.18,1.44-4.38-.19.16-3.09c0-5.53,2.3-6.75,2.7-9.4,1.15-7.64,1.51-19,1.49-27.08l8.3-14.54,7.89-5.13C86.61,115.72,85.48,120.57,84,125.61Z"/><path class="cls-8" d="M82.79,168.35c2.27,1.1,3.65,2.5,3.49,4-1.13.5-7,.69-9.24.28-3-.53-4.41-1.77-7-1.9l-.18,1.44-4.38-.19,0-2.92a8.54,8.54,0,0,1,.73-5C68.1,166.86,78.46,169.48,82.79,168.35Z"/><path class="cls-37" d="M53.48,94.22l-20,.3c-4.13,12.78-2.64,18.93,2.08,22.41,4.39,3.24,31.07.21,39.54,2.91,5-8,9-4.55,14.85-9.83-10.78-5.57-22.82-8.7-34.15-11.58Z"/><path class="cls-38" d="M44.64,93.73l-11.15.79c-4.13,12.78-2.64,18.93,2.08,22.41,4.39,3.24,32.26,1.66,40.73,4.35,1.26-.82,11.79-8.58,9.46-9.53-16.66-6.77-30.15-8.12-35.67-9.52Z"/><path class="cls-3" d="M54.19,44.59c-1.53,4-1,9.16-.31,13.72l-8.45-1.15-.34-14.09L43.8,36.64l7.86,5.51Z"/><path class="cls-39" d="M57.73,78.84,53.63,89.4l1.65,7-24.14,5.46c1.12-3.7,2.78-7.71,2.86-12.73.22-12.94-2.24-26.8,1.07-31.73C38,53.05,43.29,49.52,45.15,46.1l7.41,12.61.36-8.26c2.1.46,3.74.52,4.44,1.42,1.74,2.2,1.78,9,3,12.25,1.74,4.51,2.7,4.75,2.73,7.14C63.15,75.33,61.1,76.36,57.73,78.84Z"/><polygon class="cls-40" points="45.1 46.39 42.69 48.32 47.85 59.31 50.08 54.13 45.1 46.39"/><polygon class="cls-9" points="52.97 48.59 52.68 55.04 55.14 55.47 52.97 48.59"/><path class="cls-40" d="M44.71,62.16c0,3.68-.32,6.92-.34,10.67L44.3,86.15l-7.57,3.06c-.28-.44-.35-.51-.37-.89-.18-2.46-1.13-11.3-1.64-17.95-.56-7.46-1.13-11.83,2.93-14.5C40.07,54.27,44.75,55.11,44.71,62.16Z"/><path class="cls-7" d="M55.37,45.93c1.48.43,2.66.58,3.16-.16A4.69,4.69,0,0,0,59,43.15c0-.22.28-.38.66-.83.75-1.06-.59-1.37-1.39-1.71,1.42,0,2.12.11,2.21-1.19L60,39.09a2.63,2.63,0,0,1,0-1.52c.22-.73,1.75-1,1.48-2.35A7.84,7.84,0,0,1,59,31.57c-.48-1.62.62-2.75-.44-5.85a8.42,8.42,0,0,0-5.4-5.38c-4.6-1.54-11.94-1.26-14.58,2-7.28,8.93,5.73,19.62,5.93,19.75C47.35,44,51.47,44.78,55.37,45.93Z"/><path class="cls-11" d="M55.56,21.69C54.43,19.91,42.51,15.33,37,23.52c-4.27,7.37-2,17.29,7.15,17.75,2.67-.82,2.48-5.93,5.34-11.25C50.9,27.37,51.85,23.94,55.56,21.69Z"/><path class="cls-11" d="M55.53,21.78c2.69.71,3.69,3.89,3.39,8.38-2.54,1.07-7,.7-10,.31C49.38,25.74,54.18,22,55.53,21.78Z"/><path class="cls-11" d="M35,32.84c.78,11.94,9,15,11.33,18.44.46-1.22-.53-12.2,3.29-22.19l-10.93.65Z"/><path class="cls-11" d="M56.47,72.09C61.2,55.65,45.28,53,42.86,38,43.2,59.85,53.69,56.7,56.47,72.09Z"/><path class="cls-38" d="M85.09,125.61l-9.61,37.25-8.14-1.31,2.93-29.06L77,117.82l8-6.35C89.34,113.21,86.24,121.58,85.09,125.61Z"/><path class="cls-3" d="M74.6,102c.29.47,4.36,4,3.88,3.84-5-2.11-5.1-1.93-7-1.41-2.48.67-4.32-.67-6-2.28,0,0,.43-2.28.52-2.42a15.53,15.53,0,0,1,3.23-.45C69.36,99.3,74.71,101.93,74.6,102Z"/><path class="cls-3" d="M70.85,99.17a14.05,14.05,0,0,1,3.27.92,6.08,6.08,0,0,1,1.42,1.22c.56.5,1.34,1,2.36,2,2,1.8,3.29,2.74,3,3.25s-1.25.14-3.26-1.25l-3.41-2.35c-.49-.05-1-.26-1.56-.33l-2-.24-6.06-2.09.48-1.65C67.39,98.8,68.91,98.9,70.85,99.17Z"/><path class="cls-36" d="M69.83,98.31l-2.77,5.17-13.19-8,0-6,2.84-1.13C61.71,93.82,64.17,95.22,69.83,98.31Z"/><polygon class="cls-12" points="73.58 81.6 74.47 81.85 73.48 85.55 72.59 85.3 73.58 81.6"/><path class="cls-12" d="M78.27,66.62h0c1.25.35,1.87,2.1,1.37,3.9-.78,2.76-2.21,9.28-3.81,11.45-.78,1.08-1.73,2-2.33,1.8h0c-.63-.18-1-1.56-1.08-3-.17-2.54,1.93-9,2.66-11.56C75.58,67.45,77,66.27,78.27,66.62Z"/><path class="cls-13" d="M80.6,58.73A4.55,4.55,0,1,1,75,61.89,4.56,4.56,0,0,1,80.6,58.73Z"/><path class="cls-12" d="M81.89,59.33a3.83,3.83,0,0,1,1,1.38,5.07,5.07,0,0,1,.22,3.46,5.14,5.14,0,0,1-2,2.84,3.86,3.86,0,0,1-1.59.65,4.35,4.35,0,0,1-1.42-.17,4.46,4.46,0,0,1-1.29-.59,4.06,4.06,0,0,1-1-1.38,5.27,5.27,0,0,1,1.77-6.3,3.86,3.86,0,0,1,1.59-.65,4.63,4.63,0,0,1,1.42.16,4.76,4.76,0,0,1,1.29.6Zm.87,1.45a3.43,3.43,0,0,0-2.19-2h0a3.42,3.42,0,0,0-2.88.54A5.11,5.11,0,0,0,76,65.45a3.46,3.46,0,0,0,2.19,2,3.43,3.43,0,0,0,2.88-.54,5.11,5.11,0,0,0,1.71-6.09Z"/><path class="cls-12" d="M81.21,59a2.82,2.82,0,0,1,.89,1.54A6.78,6.78,0,0,1,82,63.84a6.65,6.65,0,0,1-1.63,2.93,2.77,2.77,0,0,1-1.56.85,3.83,3.83,0,0,1-.64-.13,4.44,4.44,0,0,1-.61-.22,2.79,2.79,0,0,1-.89-1.53,6.67,6.67,0,0,1,.13-3.35,6.56,6.56,0,0,1,1.63-2.93A2.85,2.85,0,0,1,80,58.6a5.19,5.19,0,0,1,.64.13,6.32,6.32,0,0,1,.61.22Zm.72,1.59a2.21,2.21,0,0,0-1.36-1.72,2.17,2.17,0,0,0-2,.76,7.06,7.06,0,0,0-1.71,6.11,2.17,2.17,0,0,0,1.36,1.72,2.2,2.2,0,0,0,2-.76A6.66,6.66,0,0,0,81.8,63.8,6.55,6.55,0,0,0,81.93,60.54Z"/><path class="cls-12" d="M80.82,58.8A2.59,2.59,0,0,1,81,60.22a16,16,0,0,1-.58,3.2,15.13,15.13,0,0,1-1.17,3,2.54,2.54,0,0,1-.91,1.1l-.23-.06-.22-.07A2.53,2.53,0,0,1,77.71,66a17.2,17.2,0,0,1,1.75-6.23,2.48,2.48,0,0,1,.91-1.1l.23,0,.22.07Zm0,1.41c0-.8,0-1.33-.28-1.39s-.58.34-1,1a15.49,15.49,0,0,0-1.15,3A14.77,14.77,0,0,0,77.89,66c0,.8,0,1.32.28,1.39s.58-.34,1-1a17.15,17.15,0,0,0,1.72-6.16Z"/><path class="cls-12" d="M75.58,60.6a3.82,3.82,0,0,1,1.38-1,5.27,5.27,0,0,1,6.31,1.76,4.08,4.08,0,0,1,.64,1.6,4.51,4.51,0,0,1-.75,2.7,3.89,3.89,0,0,1-1.39,1,5.1,5.1,0,0,1-3.45.22,5.16,5.16,0,0,1-2.85-2,4,4,0,0,1-.65-1.6A4.58,4.58,0,0,1,75,61.89a4.34,4.34,0,0,1,.59-1.29ZM77,59.73a3.43,3.43,0,0,0-2,2.18h0a3.49,3.49,0,0,0,.55,2.89,5.07,5.07,0,0,0,6.08,1.7,3.39,3.39,0,0,0,2-2.18,3.45,3.45,0,0,0-.54-2.89,4.94,4.94,0,0,0-2.75-1.91A4.88,4.88,0,0,0,77,59.73Z"/><path class="cls-12" d="M75.21,61.27a2.91,2.91,0,0,1,1.54-.89,6.68,6.68,0,0,1,3.35.14A6.76,6.76,0,0,1,83,62.14a2.83,2.83,0,0,1,.85,1.56,4.84,4.84,0,0,1-.13.64,5.48,5.48,0,0,1-.22.61,2.79,2.79,0,0,1-1.54.89,6.56,6.56,0,0,1-3.35-.13,6.76,6.76,0,0,1-2.93-1.62,2.87,2.87,0,0,1-.85-1.56,4.67,4.67,0,0,1,.35-1.26Zm1.58-.71a1.85,1.85,0,0,0-1,3.4,6.35,6.35,0,0,0,2.85,1.58,6.43,6.43,0,0,0,3.26.13,2.15,2.15,0,0,0,1.71-1.35,2.19,2.19,0,0,0-.76-2.06,7.09,7.09,0,0,0-6.11-1.7Z"/><path class="cls-12" d="M75.06,61.66a2.46,2.46,0,0,1,1.41-.2A17.46,17.46,0,0,1,82.7,63.2a2.59,2.59,0,0,1,1.11.91l-.06.23c0,.08,0,.15-.07.23a2.61,2.61,0,0,1-1.42.2,15.09,15.09,0,0,1-3.19-.58A15.68,15.68,0,0,1,76,63a2.54,2.54,0,0,1-1.1-.91l.06-.23a2,2,0,0,1,.07-.23Zm1.4,0c-.8,0-1.32,0-1.39.28s.34.58,1.05,1a14.52,14.52,0,0,0,3,1.15,15.77,15.77,0,0,0,3.16.58c.8,0,1.33,0,1.39-.28s-.33-.58-1-1a15.19,15.19,0,0,0-3-1.16A15.42,15.42,0,0,0,76.46,61.63Z"/><rect class="cls-41" x="78.56" y="58.36" width="1.48" height="10.02" rx="0.33" transform="translate(-3.1 122.65) rotate(-74.36)"/><rect class="cls-15" x="74.06" y="64.8" width="6.9" height="9.88" transform="translate(-10.54 125.58) rotate(-74.36)"/><rect class="cls-16" x="74.53" y="65.31" width="5.98" height="8.85" transform="translate(-10.54 125.58) rotate(-74.36)"/><path class="cls-7" d="M68.46,79.13c.77-.33,3.53-3.52,4.88-4.3a3.48,3.48,0,0,1,2.1-.57c.84-.07,2-.32,2.19-.32a21.84,21.84,0,0,1,2.08.7c1,1,1.72,1.39,1.28,2-.26.36-.9.08-2.17-.63l-.75-.16a3.2,3.2,0,0,1,1.5,1,1.13,1.13,0,0,1-.38,1.75c-.21.13-.28-.07-.47-.27l-.49-.51c-.81.08-1.54.13-2.35.16a6.11,6.11,0,0,1,2.19.28c.55.28.39.8.23,1.31-.23.71-1.26.08-2.91.27a3.75,3.75,0,0,1,1.91.32c.47.33,0,.83-.41,1a53.21,53.21,0,0,1-5.15,2c-.64.22-2.38-.33-2.79-.19l-2.57-2.61Z"/><path class="cls-40" d="M39.93,83.36l28.09-4c.9,1.77.7,2.59,1.5,3.7,0,0-25.86,8.56-26.38,8.67-2,.44-5.56-.4-6.5-2.53S37.36,83.87,39.93,83.36Z"/></svg>