<?xml version="1.0" encoding="utf-8"?>
<!-- Generator: Adobe Illustrator 23.0.3, SVG Export Plug-In . SVG Version: 6.00 Build 0)  -->
<svg version="1.1" id="Layer_1" xmlns="http://www.w3.org/2000/svg" xmlns:xlink="http://www.w3.org/1999/xlink" x="0px" y="0px"
	 viewBox="0 0 225 232.7" style="enable-background:new 0 0 225 232.7;" xml:space="preserve">
<style type="text/css">
	.st0{opacity:0.14;fill:url(#SVGID_1_);enable-background:new    ;}
	.st1{fill:#ABDEFB;}
	.st2{fill:#6FCAFA;}
	.st3{fill:#00B5F8;}
	.st4{opacity:0.17;fill:#2D47AF;enable-background:new    ;}
	.st5{fill:url(#SVGID_2_);}
	.st6{display:none;}
	.st7{font-family:'Montserrat-Bold';}
	.st8{font-size:4.3866px;}
	.st9{fill:#454545;}
	.st10{fill:#0077D5;}
	.st11{font-size:6.3292px;}
	.st12{fill:#FFFFFF;}
	.st13{font-size:5.423px;}
	.st14{font-size:3.2471px;}
	.st15{fill:#FCCABA;}
	.st16{fill:#FDC828;}
	.st17{fill:#FFAA30;}
	.st18{fill:#263237;}
	.st19{fill:#36474F;}
	.st20{fill:url(#SVGID_3_);}
	.st21{fill:url(#SVGID_4_);}
	.st22{fill:url(#SVGID_5_);}
	.st23{fill:url(#SVGID_6_);}
	.st24{fill:#FDA98F;}
	.st25{fill:url(#SVGID_7_);}
	.st26{fill:none;stroke:#ABDEFB;stroke-miterlimit:10;}
</style>
<g>
	<g>
		
			<linearGradient id="SVGID_1_" gradientUnits="userSpaceOnUse" x1="111.963" y1="850.1235" x2="111.963" y2="987.2874" gradientTransform="matrix(1 0 0 1 0 -768)">
			<stop  offset="0" style="stop-color:#97EAFF"/>
			<stop  offset="1" style="stop-color:#0053FF"/>
		</linearGradient>
		<path class="st0" d="M198.9,118.6c-5.4,7.2-9.2,16.7-6.2,25.2c3.8,10.9,17.2,16.2,20.8,27.2c2.8,8.6-1.4,18.1-7.3,24.8
			c-6,6.8-13.7,1.6-19.9,8.2c-3,3.2-4.4,8.1-6.2,12.1c-0.1,0.3-1.2,0.2-1.2,2.1c0.2,5.1-3.9,9.4-9,9.4c-26.2,0.2-101.5,0.8-125.9,1
			c-4.2,0-7.9-2.9-8.9-7c-1.2-5-2.5-6.4-2.8-6.8c-2.8-3.4-6-6.5-9.2-9.5c-6.4-6-13-1.9-16.9-9.7c-3.9-7.9-4.5-18.1,1-24.9
			c5.1-6.3,14.1-8.6,18.9-15.1c6.7-9.2,2.2-22.1-2.9-32.3c-7-13.9-15.1-27.8-17-43.3s4.6-33.3,19.1-39c17.1-6.8,37.4,5.3,54.5-1.5
			c14.4-5.8,21.3-23.1,35.4-29.8c7.4-3.5,16.4-3.6,23.9-0.2s13.3,10.2,15.5,18.1c2.5,8.9,0.7,19.2,6.1,26.6c6.1,8.4,18.2,9,28.7,8.9
			c10.4-0.1,22.6,0.7,28.4,9.3c5.1,7.4,3,17.8-1.8,25.5C211.3,105.4,204.3,111.4,198.9,118.6z"/>
		<g>
			<g>
				<g>
					<path class="st1" d="M36.9,201.2c0.5,0.4,0.7,0.6,0.7,0.6s3.4-16.1,0.3-20.4c-1-1.4-2.3-2.7-2.9-4.3c-0.9-2.4-0.1-5.1-0.3-7.7
						c-0.4-4.7-4.4-8.5-8.8-10.1s-9.3-1.5-14-1.4c1.1,0.2,2.1,0.8,2.8,1.7C28.4,168.2,33.1,185.4,36.9,201.2z"/>
					<path class="st2" d="M14.7,159.6c0.9,1,1.6,2.4,1.8,3.8c0.5,2.5,0.1,5.1,0,7.6s0.1,5.3,1.7,7.3c1.5,2,4.1,3,5.6,4.9
						c1.6,2,1.9,4.8,2.8,7.3c1.1,3.1,8.1,8.9,10.4,10.7C33.1,185.4,28.4,168.2,14.7,159.6z"/>
					<path class="st3" d="M39.5,226.6H41c1.8-19.2-3.1-38.7-13.8-54.7c-0.5-0.8-1.9-0.1-1.4,0.7C36.4,188.5,41.3,207.6,39.5,226.6z"
						/>
				</g>
			</g>
			<g>
				<g>
					<path class="st2" d="M51.8,214.8c-0.4,0.3-0.7,0.4-0.7,0.4s-0.9-13.7,2.1-16.9c1-1.1,2.2-1.9,2.9-3.2c1-1.9,0.7-4.2,1.1-6.3
						c0.9-3.9,4.6-6.5,8.5-7.3s7.9-0.2,11.8,0.5c-0.9,0-1.8,0.5-2.5,1.1C62.7,188.5,56.8,202.2,51.8,214.8z"/>
					<path class="st1" d="M75,183c-0.9,0.8-1.6,1.8-2,2.9c-0.7,2-0.7,4.2-0.9,6.3c-0.2,2.1-0.7,4.3-2.2,5.8s-3.7,2-5.2,3.4
						c-1.6,1.5-2.1,3.7-3.2,5.7c-1.3,2.4-7.7,6.4-9.8,7.7C56.8,202.2,62.7,188.5,75,183z"/>
					<path class="st3" d="M65.1,189.7C55.9,200,49.9,213,47.9,226.6h1.3c2-13.4,7.9-26,16.9-36.2C66.7,189.8,65.6,189.1,65.1,189.7z
						"/>
				</g>
			</g>
			<g>
				<g>
					<path class="st1" d="M47.7,196.5c0.5,0.6,0.8,0.9,0.8,0.9s7.4-19.3,4.4-25.2c-1-2-2.3-3.8-2.8-5.9c-0.6-3.2,0.9-6.4,1.2-9.6
						c0.4-5.9-3.7-11.4-8.9-14.3c-5.2-2.9-11.2-3.7-17.1-4.5c1.3,0.5,2.4,1.5,3.2,2.6C43.8,153.9,46.2,176.2,47.7,196.5z"/>
					<path class="st2" d="M28.5,140.5c1,1.5,1.5,3.3,1.5,5.1c0.1,3.2-0.9,6.3-1.6,9.4c-0.7,3.1-0.9,6.6,0.6,9.4
						c1.5,2.8,4.4,4.5,6,7.2c1.6,2.9,1.4,6.3,2,9.6c0.7,4,8.2,12.6,10.7,15.4C46.2,176.2,43.8,153.9,28.5,140.5z"/>
					<path class="st3" d="M43.6,226.6h2c6.5-23.9,4.4-49.6-5.8-72.1c-0.5-1.1-2.3-0.5-1.8,0.6C48.2,177.5,50.2,202.9,43.6,226.6z"/>
				</g>
			</g>
		</g>
		<g>
			<g>
				<g>
					<path class="st1" d="M178.2,210.4c0.3,0.2,0.5,0.4,0.5,0.4s0.4-10.3-2-13c-0.8-0.9-1.8-1.7-2.3-2.7c-0.8-1.5-0.6-3.3-1-4.9
						c-0.8-3-3.7-5.4-6.7-6.5c-3-1-6.1-1-9.1-0.9c0.7,0.1,1.4,0.5,2,1.1C169.3,189.4,174.1,200.3,178.2,210.4z"/>
					<path class="st2" d="M159.6,183.9c0.7,0.7,1.3,1.5,1.6,2.4c0.6,1.6,0.6,3.2,0.8,4.9c0.2,1.6,0.6,3.4,1.8,4.6
						c1.2,1.3,2.9,1.9,4.1,3.1c1.3,1.3,1.7,3.1,2.6,4.6c1,2,6.1,5.7,7.8,6.8C174.1,200.3,169.3,189.4,159.6,183.9z"/>
					<path class="st3" d="M182.6,226.6h1c-0.9-12.2-6.1-24.7-14.6-34.9c-0.4-0.5-1.2-0.1-0.8,0.5
						C176.6,202.3,181.7,214.5,182.6,226.6z"/>
				</g>
			</g>
			<g>
				<g>
					<path class="st2" d="M191.2,216.4c-0.4,0.2-0.6,0.3-0.6,0.3s-0.8-11.8,1.8-14.5c0.9-0.9,1.9-1.7,2.5-2.8c0.9-1.6,0.6-3.6,1-5.5
						c0.8-3.3,4-5.6,7.3-6.3s6.8-0.1,10.1,0.4c-0.8,0-1.6,0.4-2.2,0.9C200.6,193.8,195.5,205.6,191.2,216.4z"/>
					<path class="st1" d="M211.3,189c-0.8,0.6-1.4,1.6-1.7,2.5c-0.6,1.7-0.6,3.6-0.7,5.4c-0.2,1.8-0.6,3.7-1.9,5
						c-1.3,1.3-3.2,1.7-4.5,2.9c-1.4,1.3-1.9,3.2-2.7,4.9c-1.1,2.1-6.6,5.5-8.5,6.6C195.5,205.6,200.6,193.8,211.3,189z"/>
					<path class="st3" d="M202.7,194.8c-7.9,8.9-13.1,20.1-14.8,31.8h1.1c1.7-11.5,6.8-22.4,14.6-31.2
						C204.1,194.9,203.1,194.3,202.7,194.8z"/>
				</g>
			</g>
			<g>
				<g>
					<path class="st1" d="M187.3,203.9c0.4,0.4,0.6,0.7,0.6,0.7s4.7-14.6,2.3-19c-0.8-1.5-1.9-2.8-2.3-4.5c-0.6-2.4,0.4-4.8,0.5-7.2
						c0.1-4.5-3.3-8.6-7.4-10.8c-4-2.2-8.6-2.8-13.1-3.4c1,0.4,1.9,1.1,2.5,2C182.5,171.7,185.3,188.5,187.3,203.9z"/>
					<path class="st2" d="M170.3,161.6c0.8,1.1,1.2,2.5,1.4,3.8c0.2,2.4-0.4,4.8-0.8,7.1c-0.4,2.4-0.4,4.9,0.9,7.1
						c1.2,2.1,3.5,3.4,4.8,5.4c1.3,2.2,1.3,4.8,1.9,7.2c0.7,3,6.7,9.5,8.7,11.6C185.3,188.5,182.5,171.7,170.3,161.6z"/>
					<path class="st3" d="M185.4,226.6h1.5c3.9-18,1.2-37.4-7.4-54.4c-0.4-0.8-1.8-0.4-1.4,0.5C186.8,189.6,189.4,208.7,185.4,226.6
						z"/>
				</g>
			</g>
		</g>
	</g>
	<g>
		<g>
			<g>
				<g>
					<path class="st4" d="M143.2,218.1h-76c-5.9,0-10.6-4.8-10.6-10.6V37c0-5.9,4.8-10.6,10.6-10.6h76c5.9,0,10.6,4.8,10.6,10.6
						v170.5C153.8,213.3,149.1,218.1,143.2,218.1z"/>
					
						<linearGradient id="SVGID_2_" gradientUnits="userSpaceOnUse" x1="106.95" y1="833.6578" x2="106.95" y2="1013.9827" gradientTransform="matrix(1 0 0 1 0 -768)">
						<stop  offset="0" style="stop-color:#F0F0F0"/>
						<stop  offset="1" style="stop-color:#BCCEF2"/>
					</linearGradient>
					<path class="st5" d="M147.6,208.4H66.3c-3.4,0-6.2-2.8-6.2-6.2V26.4c0-3.4,2.8-6.2,6.2-6.2h81.3c3.4,0,6.2,2.8,6.2,6.2v175.8
						C153.8,205.6,151,208.4,147.6,208.4z"/>
					<path d="M145,210.2H69c-5.9,0-10.6-4.8-10.6-10.6V29.1c0-5.9,4.8-10.6,10.6-10.6h76c5.9,0,10.6,4.8,10.6,10.6v170.5
						C155.6,205.4,150.8,210.2,145,210.2z M69,22c-3.9,0-7.1,3.2-7.1,7.1v170.5c0,3.9,3.2,7.1,7.1,7.1h76c3.9,0,7.1-3.2,7.1-7.1
						V29.1c0-3.9-3.2-7.1-7.1-7.1H69z"/>
				</g>
				<path class="st6" d="M117,27.2H97c-0.8,0-1.4-0.6-1.4-1.4v-4.1c0-0.8,0.6-1.4,1.4-1.4h20c0.8,0,1.4,0.6,1.4,1.4v4.1
					C118.4,26.5,117.7,27.2,117,27.2z"/>
			</g>
			<g>
				<text transform="matrix(1 0 0 1 65.043 29.0449)" class="st7 st8">9:21</text>
				<g>
					<g>
						<rect x="133.8" y="27.2" width="0.7" height="1.9"/>
						<rect x="134.8" y="26.4" width="0.7" height="2.6"/>
						<rect x="135.7" y="25.9" width="0.7" height="3.1"/>
					</g>
					<g>
						<g>
							<path d="M139.3,28.4l0.4,0.4c0.4-0.3,0.9-0.3,1.2,0l0.4-0.4C140.8,27.9,139.9,27.9,139.3,28.4z"/>
						</g>
						<g>
							<path d="M138.6,27.7l0.4,0.4c0.7-0.7,1.9-0.7,2.6,0l0.4-0.4C141.1,26.8,139.6,26.8,138.6,27.7z"/>
						</g>
						<g>
							<path d="M138,27.1l0.4,0.4c1.1-1,2.8-1,3.9,0l0.4-0.4C141.4,25.8,139.3,25.8,138,27.1z"/>
						</g>
					</g>
					<polygon points="150.1,26.8 149.3,26.8 149.3,26.1 144.7,26.1 144.7,29 149.3,29 149.3,28.4 150.1,28.4 					"/>
				</g>
			</g>
		</g>
		<g>
			<g>
				<path class="st9" d="M107,64.3v3.5h-1v-2.7h-0.6v-0.8H107z"/>
			</g>
			<g>
				<path class="st9" d="M121.2,67v0.8h-2.7v-0.6l1.3-1.2c0.1-0.1,0.2-0.2,0.3-0.3c0-0.1,0.1-0.2,0.1-0.3c0-0.1,0-0.2-0.1-0.3
					c-0.1-0.1-0.2-0.1-0.3-0.1c-0.1,0-0.2,0-0.4,0.1c-0.1,0.1-0.2,0.1-0.3,0.3l-0.7-0.4c0.1-0.2,0.3-0.4,0.6-0.5
					c0.2-0.1,0.5-0.2,0.9-0.2c0.3,0,0.5,0,0.7,0.1s0.4,0.2,0.5,0.4c0.1,0.2,0.2,0.3,0.2,0.6c0,0.2,0,0.4-0.1,0.5
					c-0.1,0.2-0.2,0.4-0.5,0.6l-0.7,0.6L121.2,67L121.2,67z"/>
			</g>
			<g>
				<path class="st9" d="M133.9,66.1c0.2,0.2,0.2,0.4,0.2,0.6s-0.1,0.4-0.2,0.6c-0.1,0.2-0.3,0.3-0.5,0.4s-0.5,0.2-0.8,0.2
					c-0.2,0-0.5,0-0.7-0.1s-0.4-0.1-0.6-0.3l0.4-0.7c0.1,0.1,0.3,0.2,0.5,0.2s0.3,0.1,0.5,0.1s0.3,0,0.4-0.1
					c0.1-0.1,0.1-0.2,0.1-0.3c0-0.2-0.2-0.3-0.5-0.3h-0.4v-0.6l0.6-0.7h-1.4v-0.8h2.5v0.6l-0.7,0.8
					C133.5,65.8,133.7,65.9,133.9,66.1z"/>
			</g>
			<g>
				<path class="st9" d="M147.7,67.1h-0.5v0.7h-1v-0.7h-1.8v-0.6l1.6-2.2h1l-1.4,2h0.7v-0.6h0.9v0.6h0.5V67.1z"/>
			</g>
			<g>
				<path class="st10" d="M69.2,74.1c0.2,0.2,0.3,0.5,0.3,0.8c0,0.2-0.1,0.4-0.2,0.6s-0.3,0.3-0.5,0.4s-0.5,0.2-0.8,0.2
					c-0.2,0-0.5,0-0.7-0.1s-0.4-0.1-0.6-0.3l0.4-0.7c0.1,0.1,0.3,0.2,0.5,0.2s0.3,0.1,0.5,0.1s0.3,0,0.4-0.1s0.2-0.2,0.2-0.3
					c0-0.1,0-0.2-0.1-0.3c-0.1-0.1-0.3-0.1-0.5-0.1H67l0.2-2h2.2v0.8H68v0.5h0.2C68.7,73.8,69,73.9,69.2,74.1z"/>
			</g>
			<g>
				<path class="st9" d="M82.2,74c0.2,0.1,0.3,0.2,0.4,0.4c0.1,0.2,0.2,0.4,0.2,0.6s-0.1,0.4-0.2,0.6s-0.3,0.3-0.5,0.4
					s-0.4,0.1-0.7,0.1c-0.5,0-0.9-0.1-1.2-0.4c-0.3-0.3-0.4-0.7-0.4-1.3c0-0.4,0.1-0.7,0.2-1c0.2-0.3,0.4-0.5,0.6-0.6
					c0.3-0.1,0.6-0.2,1-0.2c0.2,0,0.4,0,0.6,0.1c0.2,0,0.3,0.1,0.5,0.2l-0.4,0.7c-0.2-0.1-0.4-0.2-0.6-0.2c-0.3,0-0.5,0.1-0.6,0.2
					c-0.2,0.1-0.2,0.3-0.3,0.6c0.2-0.2,0.5-0.3,0.8-0.3C81.8,73.8,82,73.9,82.2,74z M81.7,75.3c0.1-0.1,0.1-0.2,0.1-0.3
					c0-0.1,0-0.2-0.1-0.3c-0.1-0.1-0.2-0.1-0.3-0.1c-0.1,0-0.3,0-0.3,0.1C81,74.8,81,74.9,81,75s0,0.2,0.1,0.3
					c0.1,0.1,0.2,0.1,0.4,0.1C81.5,75.4,81.6,75.4,81.7,75.3z"/>
			</g>
			<g>
				<path class="st9" d="M95.5,72.6v0.6L94.3,76h-1.1l1.2-2.7h-0.9v0.5h-0.8v-1.3L95.5,72.6L95.5,72.6z"/>
			</g>
			<g>
				<path class="st9" d="M108.5,74.6c0.1,0.1,0.1,0.3,0.1,0.5s-0.1,0.4-0.2,0.6s-0.3,0.3-0.5,0.4s-0.5,0.1-0.8,0.1s-0.6,0-0.8-0.1
					c-0.2-0.1-0.4-0.2-0.5-0.4c-0.1-0.2-0.2-0.4-0.2-0.6s0-0.3,0.1-0.5c0.1-0.1,0.2-0.2,0.4-0.3c-0.1-0.1-0.2-0.2-0.3-0.3
					c-0.1-0.1-0.1-0.3-0.1-0.4c0-0.2,0.1-0.4,0.2-0.5c0.1-0.2,0.3-0.3,0.5-0.4s0.5-0.1,0.7-0.1c0.3,0,0.5,0,0.7,0.1s0.4,0.2,0.5,0.4
					c0.1,0.2,0.2,0.3,0.2,0.5c0,0.1,0,0.3-0.1,0.4s-0.2,0.2-0.3,0.3C108.3,74.3,108.4,74.4,108.5,74.6z M107.5,75.3
					c0.1-0.1,0.1-0.2,0.1-0.3c0-0.1,0-0.2-0.1-0.3c-0.1-0.1-0.2-0.1-0.4-0.1c-0.2,0-0.3,0-0.4,0.1s-0.1,0.2-0.1,0.3
					c0,0.1,0,0.2,0.1,0.3c0.1,0.1,0.2,0.1,0.4,0.1S107.4,75.4,107.5,75.3z M106.9,73.3c-0.1,0.1-0.1,0.2-0.1,0.3
					c0,0.1,0,0.2,0.1,0.3c0.1,0.1,0.2,0.1,0.3,0.1c0.1,0,0.2,0,0.3-0.1c0.1-0.1,0.1-0.2,0.1-0.3c0-0.1,0-0.2-0.1-0.3
					c-0.1-0.1-0.2-0.1-0.3-0.1C107,73.2,106.9,73.2,106.9,73.3z"/>
			</g>
			<g>
				<path class="st9" d="M121,72.9c0.3,0.3,0.4,0.7,0.4,1.3c0,0.4-0.1,0.7-0.2,1c-0.2,0.3-0.4,0.5-0.6,0.7c-0.3,0.1-0.6,0.2-1,0.2
					c-0.2,0-0.4,0-0.6-0.1c-0.2,0-0.3-0.1-0.5-0.2l0.4-0.7c0.2,0.1,0.4,0.2,0.6,0.2s0.4-0.1,0.6-0.2s0.2-0.3,0.3-0.6
					c-0.2,0.2-0.5,0.3-0.8,0.3c-0.2,0-0.4,0-0.6-0.1s-0.3-0.2-0.4-0.4c-0.1-0.2-0.2-0.4-0.2-0.6s0.1-0.4,0.2-0.6s0.3-0.3,0.5-0.4
					s0.4-0.1,0.7-0.1C120.3,72.5,120.7,72.6,121,72.9z M120.3,74c0.1-0.1,0.1-0.2,0.1-0.3c0-0.1,0-0.2-0.1-0.3
					c-0.1-0.1-0.2-0.1-0.4-0.1c-0.1,0-0.3,0-0.3,0.1c-0.1,0.1-0.1,0.2-0.1,0.3c0,0.1,0,0.2,0.1,0.3c0.1,0.1,0.2,0.1,0.3,0.1
					C120.1,74.1,120.2,74,120.3,74z"/>
			</g>
			<g>
				<path class="st9" d="M131.5,72.6V76h-1v-2.7h-0.6v-0.8L131.5,72.6L131.5,72.6z"/>
				<path class="st9" d="M132.8,75.9c-0.2-0.1-0.4-0.3-0.5-0.6c-0.1-0.3-0.2-0.6-0.2-1s0.1-0.7,0.2-1c0.1-0.3,0.3-0.5,0.5-0.6
					s0.5-0.2,0.8-0.2s0.6,0.1,0.8,0.2s0.4,0.3,0.5,0.6c0.1,0.3,0.2,0.6,0.2,1s-0.1,0.7-0.2,1c-0.1,0.3-0.3,0.5-0.5,0.6
					s-0.5,0.2-0.8,0.2S133,76,132.8,75.9z M134,75.1c0.1-0.2,0.1-0.4,0.1-0.8c0-0.3,0-0.6-0.1-0.8c-0.1-0.2-0.2-0.2-0.4-0.2
					s-0.3,0.1-0.4,0.2c-0.1,0.2-0.1,0.4-0.1,0.8c0,0.3,0,0.6,0.1,0.8c0.1,0.2,0.2,0.2,0.4,0.2C133.7,75.3,133.9,75.2,134,75.1z"/>
			</g>
			<g>
				<path class="st9" d="M144.3,72.6V76h-1v-2.7h-0.6v-0.8L144.3,72.6L144.3,72.6z"/>
				<path class="st9" d="M146.3,72.6V76h-1v-2.7h-0.6v-0.8L146.3,72.6L146.3,72.6z"/>
			</g>
			<g>
				<path class="st10" d="M66.9,80.8v3.5h-1v-2.7h-0.6v-0.8H66.9z"/>
				<path class="st10" d="M70.1,83.5v0.8h-2.7v-0.6l1.3-1.2c0.1-0.1,0.2-0.2,0.3-0.3c0-0.1,0.1-0.2,0.1-0.3c0-0.1,0-0.2-0.1-0.3
					c-0.1-0.1-0.2-0.1-0.3-0.1c-0.1,0-0.2,0-0.4,0.1c-0.1,0.1-0.2,0.1-0.3,0.3l-0.7-0.4c0.1-0.2,0.3-0.4,0.6-0.5
					c0.2-0.1,0.5-0.2,0.9-0.2c0.3,0,0.5,0,0.7,0.1s0.4,0.2,0.5,0.4c0.1,0.2,0.2,0.3,0.2,0.6c0,0.2,0,0.4-0.1,0.5
					c-0.1,0.2-0.2,0.4-0.5,0.6l-0.7,0.6L70.1,83.5L70.1,83.5z"/>
			</g>
			<g>
				<path class="st9" d="M79.8,80.8v3.5h-1v-2.7h-0.6v-0.8H79.8z"/>
				<path class="st9" d="M82.7,82.6c0.2,0.2,0.2,0.4,0.2,0.6s-0.1,0.4-0.2,0.6s-0.3,0.3-0.5,0.4s-0.5,0.2-0.8,0.2
					c-0.2,0-0.5,0-0.7-0.1s-0.4-0.1-0.6-0.3l0.4-0.7c0.1,0.1,0.3,0.2,0.5,0.2s0.3,0.1,0.5,0.1s0.3,0,0.4-0.1s0.1-0.2,0.1-0.3
					c0-0.2-0.2-0.3-0.5-0.3h-0.4v-0.6l0.6-0.7h-1.4v-0.8h2.5v0.6l-0.7,0.8C82.4,82.3,82.6,82.4,82.7,82.6z"/>
			</g>
			<g>
				<path class="st9" d="M92.8,80.8v3.5h-1v-2.7h-0.6v-0.8H92.8z"/>
				<path class="st9" d="M96.6,83.6H96v0.7h-1v-0.7h-1.8V83l1.6-2.2h1l-1.4,2h0.7v-0.6H96v0.6h0.5L96.6,83.6L96.6,83.6z"/>
			</g>
			<g>
				<path class="st9" d="M105.6,80.8v3.5h-1v-2.7H104v-0.8H105.6z"/>
				<path class="st9" d="M108.5,82.4c0.2,0.2,0.3,0.5,0.3,0.8c0,0.2-0.1,0.4-0.2,0.6s-0.3,0.3-0.5,0.4s-0.5,0.2-0.8,0.2
					c-0.2,0-0.5,0-0.7-0.1s-0.4-0.1-0.6-0.3l0.4-0.7c0.1,0.1,0.3,0.2,0.5,0.2s0.3,0.1,0.5,0.1s0.3,0,0.4-0.1s0.2-0.2,0.2-0.3
					c0-0.1,0-0.2-0.1-0.3c-0.1-0.1-0.3-0.1-0.5-0.1h-0.9l0.2-2h2.2v0.8h-1.4v0.5h0.2C107.9,82.1,108.3,82.2,108.5,82.4z"/>
			</g>
			<g>
				<path class="st9" d="M118.6,80.8v3.5h-1v-2.7H117v-0.8H118.6z"/>
				<path class="st9" d="M121.5,82.2c0.2,0.1,0.3,0.2,0.4,0.4c0.1,0.2,0.2,0.4,0.2,0.6s-0.1,0.4-0.2,0.6s-0.3,0.3-0.5,0.4
					s-0.4,0.1-0.7,0.1c-0.5,0-0.9-0.1-1.2-0.4c-0.3-0.3-0.4-0.7-0.4-1.3c0-0.4,0.1-0.7,0.2-1c0.2-0.3,0.4-0.5,0.6-0.7
					c0.3-0.1,0.6-0.2,1-0.2c0.2,0,0.4,0,0.6,0.1c0.2,0,0.3,0.1,0.5,0.2l-0.4,0.7c-0.2-0.1-0.4-0.2-0.6-0.2c-0.3,0-0.5,0.1-0.6,0.2
					c-0.2,0.1-0.2,0.3-0.3,0.6c0.2-0.2,0.5-0.3,0.8-0.3C121.1,82.1,121.3,82.1,121.5,82.2z M121,83.5c0.1-0.1,0.1-0.2,0.1-0.3
					c0-0.1,0-0.2-0.1-0.3c-0.1-0.1-0.2-0.1-0.3-0.1c-0.1,0-0.3,0-0.3,0.1c-0.1,0.1-0.1,0.2-0.1,0.3c0,0.1,0,0.2,0.1,0.3
					c0.1,0.1,0.2,0.1,0.4,0.1C120.8,83.7,120.9,83.6,121,83.5z"/>
			</g>
			<g>
				<path class="st9" d="M131.5,80.8v3.5h-1v-2.7h-0.6v-0.8H131.5z"/>
				<path class="st9" d="M134.8,80.8v0.6l-1.2,2.8h-1.1l1.2-2.7h-0.9V82H132v-1.3L134.8,80.8L134.8,80.8z"/>
			</g>
			<g>
				<path class="st9" d="M144.4,80.8v3.5h-1v-2.7h-0.6v-0.8H144.4z"/>
				<path class="st9" d="M147.8,82.8c0.1,0.1,0.1,0.3,0.1,0.5s-0.1,0.4-0.2,0.6c-0.1,0.2-0.3,0.3-0.5,0.4s-0.5,0.1-0.8,0.1
					s-0.6,0-0.8-0.1s-0.4-0.2-0.5-0.4c-0.1-0.2-0.2-0.4-0.2-0.6s0-0.3,0.1-0.5c0.1-0.1,0.2-0.2,0.4-0.3c-0.1-0.1-0.2-0.2-0.3-0.3
					c-0.1-0.1-0.1-0.3-0.1-0.4c0-0.2,0.1-0.4,0.2-0.5c0.1-0.2,0.3-0.3,0.5-0.4s0.4-0.1,0.7-0.1s0.5,0,0.7,0.1s0.4,0.2,0.5,0.4
					c0.1,0.2,0.2,0.3,0.2,0.5c0,0.1,0,0.3-0.1,0.4s-0.2,0.2-0.3,0.3C147.6,82.5,147.7,82.7,147.8,82.8z M146.8,83.5
					c0.1-0.1,0.1-0.2,0.1-0.3c0-0.1,0-0.2-0.1-0.3c-0.1-0.1-0.2-0.1-0.4-0.1s-0.3,0-0.4,0.1c-0.1,0.1-0.1,0.2-0.1,0.3
					c0,0.1,0,0.2,0.1,0.3c0.1,0.1,0.2,0.1,0.4,0.1C146.6,83.7,146.7,83.6,146.8,83.5z M146.1,81.5c-0.1,0.1-0.1,0.2-0.1,0.3
					c0,0.1,0,0.2,0.1,0.3c0.1,0.1,0.2,0.1,0.3,0.1s0.2,0,0.3-0.1s0.1-0.2,0.1-0.3c0-0.1,0-0.2-0.1-0.3c-0.1-0.1-0.2-0.1-0.3-0.1
					S146.2,81.5,146.1,81.5z"/>
			</g>
			<g>
				<path class="st10" d="M66.9,89.1v3.5h-1v-2.7h-0.6v-0.8H66.9z"/>
				<path class="st10" d="M69.9,89.4c0.3,0.3,0.4,0.7,0.4,1.3c0,0.4-0.1,0.7-0.2,1c-0.2,0.3-0.4,0.5-0.6,0.6c-0.3,0.1-0.6,0.2-1,0.2
					c-0.2,0-0.4,0-0.6-0.1c-0.2,0-0.3-0.1-0.5-0.2l0.4-0.7c0.2,0.1,0.4,0.2,0.6,0.2s0.4-0.1,0.6-0.2s0.2-0.3,0.3-0.6
					c-0.2,0.2-0.5,0.3-0.8,0.3c-0.2,0-0.4,0-0.6-0.1s-0.3-0.2-0.4-0.4c-0.1-0.2-0.2-0.4-0.2-0.6s0.1-0.4,0.2-0.6s0.3-0.3,0.5-0.4
					s0.4-0.1,0.7-0.1C69.2,89,69.6,89.1,69.9,89.4z M69.1,90.4c0.1-0.1,0.1-0.2,0.1-0.3c0-0.1,0-0.2-0.1-0.3
					c-0.1-0.1-0.2-0.1-0.4-0.1c-0.1,0-0.3,0-0.3,0.1c-0.1,0.1-0.1,0.2-0.1,0.3c0,0.1,0,0.2,0.1,0.3c0.1,0.1,0.2,0.1,0.3,0.1
					C68.9,90.6,69,90.5,69.1,90.4z"/>
			</g>
			<g>
				<path class="st9" d="M81.2,91.7v0.8h-2.7v-0.6l1.3-1.2c0.1-0.1,0.2-0.2,0.3-0.3c0-0.1,0.1-0.2,0.1-0.3c0-0.1,0-0.2-0.1-0.3
					c-0.1-0.1-0.2-0.1-0.3-0.1c-0.1,0-0.2,0-0.4,0.1c-0.1,0.1-0.2,0.1-0.3,0.3l-0.7-0.4c0.1-0.2,0.3-0.4,0.6-0.5
					c0.2-0.1,0.5-0.2,0.9-0.2c0.3,0,0.5,0,0.7,0.1s0.4,0.2,0.5,0.4c0.1,0.2,0.2,0.3,0.2,0.6c0,0.2,0,0.4-0.1,0.5
					c-0.1,0.2-0.2,0.4-0.5,0.6L80,91.8L81.2,91.7L81.2,91.7z"/>
				<path class="st9" d="M82.2,92.4c-0.2-0.1-0.4-0.3-0.5-0.6c-0.1-0.3-0.2-0.6-0.2-1s0.1-0.7,0.2-1s0.3-0.5,0.5-0.6S82.7,89,83,89
					s0.6,0.1,0.8,0.2c0.2,0.1,0.4,0.3,0.5,0.6c0.1,0.3,0.2,0.6,0.2,1s-0.1,0.7-0.2,1s-0.3,0.5-0.5,0.6s-0.5,0.2-0.8,0.2
					S82.4,92.5,82.2,92.4z M83.4,91.6c0.1-0.2,0.1-0.4,0.1-0.8c0-0.3,0-0.6-0.1-0.8c-0.1-0.2-0.2-0.2-0.4-0.2
					c-0.2,0-0.3,0.1-0.4,0.2c-0.1,0.2-0.1,0.4-0.1,0.8c0,0.3,0,0.6,0.1,0.8c0.1,0.2,0.2,0.2,0.4,0.2C83.1,91.8,83.3,91.7,83.4,91.6z
					"/>
			</g>
			<g>
				<path class="st9" d="M93.9,91.7v0.8h-2.7v-0.6l1.3-1.2c0.1-0.1,0.2-0.2,0.3-0.3c0-0.1,0.1-0.2,0.1-0.3c0-0.1,0-0.2-0.1-0.3
					c-0.1-0.1-0.2-0.1-0.3-0.1c-0.1,0-0.2,0-0.4,0.1c-0.1,0.1-0.2,0.1-0.3,0.3L91,89.7c0.1-0.2,0.3-0.4,0.6-0.5
					c0.2-0.1,0.5-0.2,0.9-0.2c0.3,0,0.5,0,0.7,0.1s0.4,0.2,0.5,0.4c0.1,0.2,0.2,0.3,0.2,0.6c0,0.2,0,0.4-0.1,0.5
					c-0.1,0.2-0.2,0.4-0.5,0.6l-0.7,0.6L93.9,91.7L93.9,91.7z"/>
				<path class="st9" d="M95.7,89.1v3.5h-1v-2.7h-0.6v-0.8H95.7z"/>
			</g>
			<g>
				<path class="st9" d="M106.9,91.7v0.8h-2.7v-0.6l1.3-1.2c0.1-0.1,0.2-0.2,0.3-0.3c0-0.1,0.1-0.2,0.1-0.3c0-0.1,0-0.2-0.1-0.3
					c-0.1-0.1-0.2-0.1-0.3-0.1c-0.1,0-0.2,0-0.4,0.1c-0.1,0.1-0.2,0.1-0.3,0.3l-0.7-0.4c0.1-0.2,0.3-0.4,0.6-0.5
					c0.2-0.1,0.5-0.2,0.9-0.2c0.3,0,0.5,0,0.7,0.1s0.4,0.2,0.5,0.4c0.1,0.2,0.2,0.3,0.2,0.6c0,0.2,0,0.4-0.1,0.5
					c-0.1,0.2-0.2,0.4-0.5,0.6l-0.7,0.6L106.9,91.7L106.9,91.7z"/>
				<path class="st9" d="M109.9,91.7v0.8h-2.7v-0.6l1.3-1.2c0.1-0.1,0.2-0.2,0.3-0.3c0-0.1,0.1-0.2,0.1-0.3c0-0.1,0-0.2-0.1-0.3
					c-0.1-0.1-0.2-0.1-0.3-0.1c-0.1,0-0.2,0-0.4,0.1c-0.1,0.1-0.2,0.1-0.3,0.3l-0.7-0.4c0.1-0.2,0.3-0.4,0.6-0.5
					c0.2-0.1,0.5-0.2,0.9-0.2c0.3,0,0.5,0,0.7,0.1s0.4,0.2,0.5,0.4c0.1,0.2,0.2,0.3,0.2,0.6c0,0.2,0,0.4-0.1,0.5
					c-0.1,0.2-0.2,0.4-0.5,0.6l-0.7,0.6L109.9,91.7L109.9,91.7z"/>
			</g>
			<g>
				<path class="st9" d="M119.9,91.7v0.8h-2.7v-0.6l1.3-1.2c0.1-0.1,0.2-0.2,0.3-0.3c0-0.1,0.1-0.2,0.1-0.3c0-0.1,0-0.2-0.1-0.3
					c-0.1-0.1-0.2-0.1-0.3-0.1c-0.1,0-0.2,0-0.4,0.1c-0.1,0.1-0.2,0.1-0.3,0.3l-0.7-0.4c0.1-0.2,0.3-0.4,0.6-0.5
					c0.2-0.1,0.5-0.2,0.9-0.2c0.3,0,0.5,0,0.7,0.1s0.4,0.2,0.5,0.4c0.1,0.2,0.2,0.3,0.2,0.6c0,0.2,0,0.4-0.1,0.5
					c-0.1,0.2-0.2,0.4-0.5,0.6l-0.7,0.6L119.9,91.7L119.9,91.7z"/>
				<path class="st9" d="M122.6,90.8c0.2,0.2,0.2,0.4,0.2,0.6s-0.1,0.4-0.2,0.6s-0.3,0.3-0.5,0.4s-0.5,0.2-0.8,0.2
					c-0.2,0-0.5,0-0.7-0.1s-0.4-0.1-0.6-0.3l0.4-0.7c0.1,0.1,0.3,0.2,0.5,0.2s0.3,0.1,0.5,0.1s0.3,0,0.4-0.1s0.1-0.2,0.1-0.3
					c0-0.2-0.2-0.3-0.5-0.3H121v-0.6l0.6-0.7h-1.4V89h2.5v0.6l-0.7,0.8C122.2,90.5,122.4,90.6,122.6,90.8z"/>
			</g>
			<g>
				<path class="st9" d="M132.8,91.7v0.8h-2.7v-0.6l1.3-1.2c0.1-0.1,0.2-0.2,0.3-0.3c0-0.1,0.1-0.2,0.1-0.3c0-0.1,0-0.2-0.1-0.3
					c-0.1-0.1-0.2-0.1-0.3-0.1s-0.2,0-0.4,0.1c-0.1,0.1-0.2,0.1-0.3,0.3l-0.7-0.4c0.1-0.2,0.3-0.4,0.6-0.5c0.2-0.1,0.5-0.2,0.9-0.2
					c0.3,0,0.5,0,0.7,0.1s0.4,0.2,0.5,0.4c0.1,0.2,0.2,0.3,0.2,0.6c0,0.2,0,0.4-0.1,0.5c-0.1,0.2-0.2,0.4-0.5,0.6l-0.7,0.6
					L132.8,91.7L132.8,91.7z"/>
				<path class="st9" d="M136.4,91.9h-0.5v0.7h-1v-0.7h-1.8v-0.6l1.6-2.2h1l-1.4,2h0.7v-0.6h0.9v0.6h0.5V91.9z"/>
			</g>
			<g>
				<path class="st9" d="M145.7,91.7v0.8H143v-0.6l1.3-1.2c0.1-0.1,0.2-0.2,0.3-0.3c0-0.1,0.1-0.2,0.1-0.3c0-0.1,0-0.2-0.1-0.3
					c-0.1-0.1-0.2-0.1-0.3-0.1s-0.2,0-0.4,0.1c-0.1,0.1-0.2,0.1-0.3,0.3l-0.7-0.4c0.1-0.2,0.3-0.4,0.6-0.5c0.2-0.1,0.5-0.2,0.9-0.2
					c0.3,0,0.5,0,0.7,0.1s0.4,0.2,0.5,0.4c0.1,0.2,0.2,0.3,0.2,0.6c0,0.2,0,0.4-0.1,0.5c-0.1,0.2-0.2,0.4-0.5,0.6l-0.7,0.6
					L145.7,91.7L145.7,91.7z"/>
				<path class="st9" d="M148.4,90.6c0.2,0.2,0.3,0.5,0.3,0.8c0,0.2-0.1,0.4-0.2,0.6c-0.1,0.2-0.3,0.3-0.5,0.4s-0.5,0.2-0.8,0.2
					c-0.2,0-0.5,0-0.7-0.1s-0.4-0.1-0.6-0.3l0.4-0.7c0.1,0.1,0.3,0.2,0.5,0.2s0.3,0.1,0.5,0.1s0.3,0,0.4-0.1
					c0.1-0.1,0.2-0.2,0.2-0.3c0-0.1,0-0.2-0.1-0.3c-0.1-0.1-0.3-0.1-0.5-0.1h-0.9l0.2-2h2.2v0.8h-1.4v0.5h0.2
					C147.8,90.3,148.1,90.4,148.4,90.6z"/>
			</g>
			<g>
				<path class="st10" d="M68.2,100v0.8h-2.7v-0.6l1.3-1.2c0.1-0.1,0.2-0.2,0.3-0.3c0-0.1,0.1-0.2,0.1-0.3c0-0.1,0-0.2-0.1-0.3
					C67,98,66.9,98,66.8,98s-0.2,0-0.4,0.1c-0.1,0.1-0.2,0.1-0.3,0.2L65.3,98c0.1-0.2,0.3-0.4,0.6-0.5c0.2-0.1,0.5-0.2,0.9-0.2
					c0.3,0,0.5,0,0.7,0.1s0.4,0.2,0.5,0.4c0.1,0.2,0.2,0.3,0.2,0.6c0,0.2,0,0.4-0.1,0.5c-0.1,0.2-0.2,0.4-0.5,0.6l-0.7,0.6L68.2,100
					L68.2,100z"/>
				<path class="st10" d="M70.9,98.7c0.2,0.1,0.3,0.2,0.4,0.4c0.1,0.2,0.2,0.4,0.2,0.6s-0.1,0.4-0.2,0.6s-0.3,0.3-0.5,0.4
					s-0.4,0.1-0.7,0.1c-0.5,0-0.9-0.1-1.2-0.4c-0.3-0.3-0.4-0.7-0.4-1.3c0-0.4,0.1-0.7,0.2-1c0.2-0.3,0.4-0.5,0.6-0.6
					c0.3-0.1,0.6-0.2,1-0.2c0.2,0,0.4,0,0.6,0.1c0.2,0,0.3,0.1,0.5,0.2L71,98.2c-0.2-0.1-0.4-0.2-0.6-0.2c-0.3,0-0.5,0.1-0.6,0.2
					c-0.2,0.1-0.2,0.3-0.3,0.6c0.2-0.2,0.5-0.3,0.8-0.3C70.5,98.6,70.7,98.6,70.9,98.7z M70.4,100c0.1-0.1,0.1-0.2,0.1-0.3
					c0-0.1,0-0.2-0.1-0.3c-0.1-0.1-0.2-0.1-0.3-0.1c-0.1,0-0.3,0-0.3,0.1c-0.1,0.1-0.1,0.2-0.1,0.3c0,0.1,0,0.2,0.1,0.3
					c0.1,0.1,0.2,0.1,0.4,0.1C70.2,100.1,70.3,100.1,70.4,100z"/>
			</g>
			<g>
				<path class="st9" d="M81.1,100v0.8h-2.7v-0.6l1.3-1.2c0.1-0.1,0.2-0.2,0.3-0.3c0-0.1,0.1-0.2,0.1-0.3c0-0.1,0-0.2-0.1-0.3
					C79.9,98,79.8,98,79.7,98c-0.1,0-0.2,0-0.4,0.1c-0.1,0.1-0.2,0.1-0.3,0.2L78.3,98c0.1-0.2,0.3-0.4,0.6-0.5
					c0.2-0.1,0.5-0.2,0.9-0.2c0.3,0,0.5,0,0.7,0.1s0.4,0.2,0.5,0.4c0.1,0.2,0.2,0.3,0.2,0.6c0,0.2,0,0.4-0.1,0.5
					c-0.1,0.2-0.2,0.4-0.5,0.6l-0.7,0.6L81.1,100L81.1,100z"/>
				<path class="st9" d="M84.2,97.3v0.6l-1.2,2.8h-1.1l1.2-2.7h-0.9v0.5h-0.8v-1.3L84.2,97.3L84.2,97.3z"/>
			</g>
			<g>
				<path class="st9" d="M94.1,100v0.8h-2.7v-0.6l1.3-1.2c0.1-0.1,0.2-0.2,0.3-0.3c0-0.1,0.1-0.2,0.1-0.3c0-0.1,0-0.2-0.1-0.3
					C92.9,98,92.8,98,92.7,98c-0.1,0-0.2,0-0.4,0.1c-0.1,0.1-0.2,0.1-0.3,0.2L91.2,98c0.1-0.2,0.3-0.4,0.6-0.5
					c0.2-0.1,0.5-0.2,0.9-0.2c0.3,0,0.5,0,0.7,0.1s0.4,0.2,0.5,0.4c0.1,0.2,0.2,0.3,0.2,0.6c0,0.2,0,0.4-0.1,0.5
					c-0.1,0.2-0.2,0.4-0.5,0.6l-0.7,0.6L94.1,100L94.1,100z"/>
				<path class="st9" d="M97.2,99.3c0.1,0.1,0.1,0.3,0.1,0.5s-0.1,0.4-0.2,0.6s-0.3,0.3-0.5,0.4s-0.5,0.1-0.8,0.1s-0.6,0-0.8-0.1
					c-0.2-0.1-0.4-0.2-0.5-0.4c-0.1-0.2-0.2-0.4-0.2-0.6s0-0.3,0.1-0.5c0.1-0.1,0.2-0.2,0.4-0.3c-0.1-0.1-0.2-0.2-0.3-0.3
					c-0.1-0.1-0.1-0.3-0.1-0.4c0-0.2,0.1-0.4,0.2-0.5c0.1-0.2,0.3-0.3,0.5-0.4s0.5-0.1,0.7-0.1c0.3,0,0.5,0,0.7,0.1s0.4,0.2,0.5,0.4
					c0.1,0.2,0.2,0.3,0.2,0.5c0,0.1,0,0.3-0.1,0.4s-0.2,0.2-0.3,0.3C97,99,97.1,99.2,97.2,99.3z M96.2,100c0.1-0.1,0.1-0.2,0.1-0.3
					c0-0.1,0-0.2-0.1-0.3c-0.1-0.1-0.2-0.1-0.4-0.1c-0.2,0-0.3,0-0.4,0.1s-0.1,0.2-0.1,0.3c0,0.1,0,0.2,0.1,0.3
					c0.1,0.1,0.2,0.1,0.4,0.1C96,100.2,96.1,100.1,96.2,100z M95.5,98c-0.1,0.1-0.1,0.2-0.1,0.3c0,0.1,0,0.2,0.1,0.3
					c0.1,0.1,0.2,0.1,0.3,0.1c0.1,0,0.2,0,0.3-0.1c0.1-0.1,0.1-0.2,0.1-0.3c0-0.1,0-0.2-0.1-0.3c-0.1-0.1-0.2-0.1-0.3-0.1
					S95.6,98,95.5,98z"/>
			</g>
			<g>
				<path class="st9" d="M107,100v0.8h-2.7v-0.6l1.3-1.2c0.1-0.1,0.2-0.2,0.3-0.3c0-0.1,0.1-0.2,0.1-0.3c0-0.1,0-0.2-0.1-0.3
					c-0.1-0.1-0.2-0.1-0.3-0.1c-0.1,0-0.2,0-0.4,0.1c-0.1,0.1-0.2,0.1-0.3,0.2l-0.7-0.4c0.1-0.2,0.3-0.4,0.6-0.5
					c0.2-0.1,0.5-0.2,0.9-0.2c0.3,0,0.5,0,0.7,0.1s0.4,0.2,0.5,0.4c0.1,0.2,0.2,0.3,0.2,0.6c0,0.2,0,0.4-0.1,0.5
					c-0.1,0.2-0.2,0.4-0.5,0.6l-0.7,0.6C105.8,100,107,100,107,100z"/>
				<path class="st9" d="M109.7,97.7c0.3,0.3,0.4,0.7,0.4,1.3c0,0.4-0.1,0.7-0.2,1c-0.2,0.3-0.4,0.5-0.6,0.7c-0.3,0.1-0.6,0.2-1,0.2
					c-0.2,0-0.4,0-0.6-0.1c-0.2,0-0.3-0.1-0.5-0.2l0.4-0.7c0.2,0.1,0.4,0.2,0.6,0.2s0.4-0.1,0.6-0.2s0.2-0.3,0.3-0.6
					c-0.2,0.2-0.5,0.3-0.8,0.3c-0.2,0-0.4,0-0.6-0.1s-0.3-0.2-0.4-0.4c-0.1-0.2-0.2-0.4-0.2-0.6s0.1-0.4,0.2-0.6s0.3-0.3,0.5-0.4
					s0.4-0.1,0.7-0.1C109,97.2,109.4,97.4,109.7,97.7z M108.9,98.7c0.1-0.1,0.1-0.2,0.1-0.3c0-0.1,0-0.2-0.1-0.3
					c-0.1-0.1-0.2-0.1-0.4-0.1c-0.1,0-0.3,0-0.3,0.1c-0.1,0.1-0.1,0.2-0.1,0.3c0,0.1,0,0.2,0.1,0.3c0.1,0.1,0.2,0.1,0.3,0.1
					C108.7,98.8,108.9,98.8,108.9,98.7z"/>
			</g>
			<g>
				<path class="st9" d="M119.7,99c0.2,0.2,0.2,0.4,0.2,0.6s-0.1,0.4-0.2,0.6s-0.3,0.3-0.5,0.4s-0.5,0.2-0.8,0.2
					c-0.2,0-0.5,0-0.7-0.1s-0.4-0.1-0.6-0.3l0.4-0.7c0.1,0.1,0.3,0.2,0.5,0.2s0.3,0.1,0.5,0.1s0.3,0,0.4-0.1s0.1-0.2,0.1-0.3
					c0-0.2-0.2-0.3-0.5-0.3H118v-0.6l0.6-0.7h-1.4v-0.8h2.5v0.6l-0.7,0.8C119.3,98.8,119.5,98.9,119.7,99z"/>
				<path class="st9" d="M121,100.6c-0.2-0.1-0.4-0.3-0.5-0.6c-0.1-0.3-0.2-0.6-0.2-1s0.1-0.7,0.2-1s0.3-0.5,0.5-0.6
					s0.5-0.2,0.8-0.2s0.6,0.1,0.8,0.2c0.2,0.1,0.4,0.3,0.5,0.6c0.1,0.3,0.2,0.6,0.2,1s-0.1,0.7-0.2,1s-0.3,0.5-0.5,0.6
					s-0.5,0.2-0.8,0.2C121.5,100.8,121.2,100.8,121,100.6z M122.2,99.8c0.1-0.2,0.1-0.4,0.1-0.8c0-0.3,0-0.6-0.1-0.8
					c-0.1-0.2-0.2-0.2-0.4-0.2c-0.2,0-0.3,0.1-0.4,0.2c-0.1,0.2-0.1,0.4-0.1,0.8c0,0.3,0,0.6,0.1,0.8c0.1,0.2,0.2,0.2,0.4,0.2
					C121.9,100,122.1,100,122.2,99.8z"/>
			</g>
			<g>
				<path class="st9" d="M132.4,99c0.2,0.2,0.2,0.4,0.2,0.6s-0.1,0.4-0.2,0.6c-0.1,0.2-0.3,0.3-0.5,0.4s-0.5,0.2-0.8,0.2
					c-0.2,0-0.5,0-0.7-0.1s-0.4-0.1-0.6-0.3l0.4-0.7c0.1,0.1,0.3,0.2,0.5,0.2s0.3,0.1,0.5,0.1s0.3,0,0.4-0.1
					c0.1-0.1,0.1-0.2,0.1-0.3c0-0.2-0.2-0.3-0.5-0.3h-0.4v-0.6l0.6-0.7H130v-0.8h2.5v0.6l-0.7,0.8C132,98.8,132.3,98.9,132.4,99z"/>
				<path class="st9" d="M134.5,97.3v3.5h-1v-2.7h-0.6v-0.8H134.5z"/>
			</g>
			<g>
				<path class="st10" d="M84.2,93.6h-5.6c-1,0-1.9-0.8-1.9-1.9v-2.3c0-1,0.8-1.9,1.9-1.9h5.6c1,0,1.9,0.8,1.9,1.9v2.3
					C86,92.8,85.2,93.6,84.2,93.6z M78.6,88.3c-0.7,0-1.2,0.5-1.2,1.2v2.3c0,0.7,0.5,1.2,1.2,1.2h5.6c0.7,0,1.2-0.5,1.2-1.2v-2.3
					c0-0.7-0.5-1.2-1.2-1.2H78.6z"/>
			</g>
			<g>
				<path class="st10" d="M122.6,85.5H117c-1,0-1.9-0.8-1.9-1.9v-2.3c0-1,0.8-1.9,1.9-1.9h5.6c1,0,1.9,0.8,1.9,1.9v2.3
					C124.5,84.7,123.6,85.5,122.6,85.5z M117,80.2c-0.7,0-1.2,0.5-1.2,1.2v2.3c0,0.7,0.5,1.2,1.2,1.2h5.6c0.7,0,1.2-0.5,1.2-1.2
					v-2.3c0-0.7-0.5-1.2-1.2-1.2H117z"/>
			</g>
		</g>
		<text transform="matrix(1 0 0 1 66.5352 54.5449)" class="st10 st7 st11">BOOK APPOINTMENT</text>
		<g>
			<rect x="110.9" y="106.9" class="st12" width="38.6" height="38.6"/>
			<g>
				<circle class="st10" cx="130.4" cy="127.4" r="5.9"/>
				<g>
					<path class="st12" d="M132.8,128H131v1.7h-1.3V128H128v-1.2h1.7v-1.7h1.3v1.7h1.7v1.2H132.8z"/>
				</g>
			</g>
		</g>
		<g>
			<rect x="64.5" y="151.1" class="st12" width="38.6" height="38.6"/>
			<g>
				<circle class="st10" cx="84.1" cy="170.3" r="5.9"/>
				<g>
					<path class="st12" d="M86.5,171h-1.7v1.7h-1.3V171h-1.7v-1.2h1.7V168h1.3v1.7h1.7V171z"/>
				</g>
			</g>
		</g>
		<g>
			<rect x="110.9" y="151.1" class="st12" width="38.6" height="38.6"/>
			<g>
				<circle class="st10" cx="130.4" cy="170.3" r="5.9"/>
				<g>
					<path class="st12" d="M132.8,171H131v1.7h-1.3V171H128v-1.2h1.7V168h1.3v1.7h1.7v1.3H132.8z"/>
				</g>
			</g>
		</g>
		<g>
			<rect x="64.5" y="106.9" class="st12" width="38.6" height="38.6"/>
			<g>
				<g>
					<text transform="matrix(1 0 0 1 66.9238 114.6777)" class="st10 st7 st13">My Appoi.</text>
				</g>
				<text transform="matrix(1 0 0 1 66.9238 122.1289)" class="st9 st7 st14">@ CAFE</text>
				<text transform="matrix(1 0 0 1 66.9238 126.9453)" class="st9 st7 st14">ABBEY RD 123</text>
				<text transform="matrix(1 0 0 1 66.9238 131.5625)" class="st10 st7 st14">20</text>
				<text transform="matrix(1 0 0 1 71.7238 131.5625)" class="st9 st7 st14"> MAY 14:30</text>
				<g>
					<path class="st10" d="M89.8,142.2H78.2c-0.5,0-1-0.4-1-1v-2.8c0-0.5,0.4-1,1-1h11.5c0.5,0,1,0.4,1,1v2.8
						C90.7,141.8,90.3,142.2,89.8,142.2z"/>
					<g>
						<text transform="matrix(1 0 0 1 79.332 141.0703)" class="st12 st7 st14">EDIT</text>
					</g>
				</g>
			</g>
		</g>
	</g>
	<g>
		<g>
			<g>
				<path class="st15" d="M180.2,118.9c-3.7,4.8-8.9,12.1-9.6,14.8c0.7,0.6,1.3,1.3,2,1.9c5.1-3.9,9.6-8.6,13.4-13.7
					C184,121.4,182,120.3,180.2,118.9z"/>
				<path class="st16" d="M162.8,104.8c0.2,0.1,0.4,0.3,0.6,0.4c4.8,3.4,20.1,9.5,20.1,9.5c-0.5,0.7-1.8,2.3-3.3,4.3
					c1.8,1.3,3.8,2.5,5.9,2.9c2.1-2.8,3.9-5.7,5.6-8.8c-7.1-7-16.3-11.9-26-14.1c-0.1,0-0.1,0-0.2,0
					C164.6,100.9,163.6,102.8,162.8,104.8z"/>
			</g>
			<path class="st17" d="M184.4,114.7c1.3,0.3,2.5,0.4,3.8,0.2c0.3-0.1,0.2-0.6-0.1-0.5c-1.2,0.2-2.4,0.1-3.6-0.2
				C184.3,114.1,184.1,114.6,184.4,114.7z"/>
			<path class="st17" d="M185.2,114.3c0.5-0.1,1-0.2,1.6-0.3c0.3-0.1,0.2-0.6-0.1-0.5c-0.5,0.1-1,0.2-1.6,0.3
				C184.8,113.8,184.9,114.3,185.2,114.3z"/>
		</g>
		<g>
			<path class="st18" d="M177.9,141.8c-0.8-4.7-3.1-9.2-6.9-12.1c-1.6-1.2-4.5-0.5-6.2,0.5c-2.9,1.6-4.4,5.1-4.6,8.4
				c-0.2,3.3,1.5,6.5,1.3,9.8c-0.3,5-0.7,10-1,14.9c-0.4,6.3-0.8,12.5-1.2,18.9c1.8,1.3,5.1,1.7,7.3,1.3c4.3-6.3,6.7-13.2,8.9-20.4
				c0.7-2.3,1.3-4.7,1.8-7.1C178.3,151.3,178.8,146.5,177.9,141.8z"/>
			<path class="st19" d="M167.4,133.7c-0.9-4-5.6-0.2-9.3-2.1c-1.2-0.6-2.6-1.1-4-0.9c-1.4,0.2-2.1,1.4-2.7,2.7
				c-3.6,8.7-6.3,17.8-8.1,27.1c-1.2,6.2-1.9,12.4-2.3,18.7c1.9,0.9,5.4,1.9,7.4,1.5C152.2,175.1,171.6,152.5,167.4,133.7z"/>
			<g>
				<path class="st18" d="M168.4,197.4c0.5-6.4,0.2-13.1-3.4-18.1l-5.3-2c-2.3,11.6-0.5,28.5-0.1,35.5h5.4
					C166.6,207.8,168,202.7,168.4,197.4z"/>
				<path class="st15" d="M159.7,212.9c-0.1,2.2,0.5,4.4-0.1,6.5c1.4-0.1,2.7-0.3,4.1-0.4c0.1-1.3,1.1-5.1,1.4-6.1H159.7z"/>
			</g>
			<g>
				<path class="st19" d="M150,197.4c0.5-6.4,0.7-13.1-2.9-18.1l-5.7-2c-2.3,11.6-0.1,28.4-0.1,35.5h5.4
					C148.2,207.8,149.6,202.7,150,197.4z"/>
				<path class="st15" d="M141.3,212.9c-0.1,2.2,0.5,4.4-0.1,6.5c1.4-0.1,2.7-0.3,4.1-0.4c0.1-1.3,1.1-5.1,1.4-6.1H141.3z"/>
			</g>
			<g>
				
					<linearGradient id="SVGID_3_" gradientUnits="userSpaceOnUse" x1="154.3" y1="12.7" x2="165.7" y2="12.7" gradientTransform="matrix(1 0 0 -1 0 234)">
					<stop  offset="0" style="stop-color:#FDC828"/>
					<stop  offset="1" style="stop-color:#FDC828"/>
				</linearGradient>
				<path class="st20" d="M154.3,220l4.3-1.1l6.1-0.1c0,0,1,2.3,1,5h-10.2L154.3,220z"/>
				
					<linearGradient id="SVGID_4_" gradientUnits="userSpaceOnUse" x1="149.3" y1="12.1" x2="158.4" y2="12.1" gradientTransform="matrix(1 0 0 -1 0 234)">
					<stop  offset="0" style="stop-color:#FDC828"/>
					<stop  offset="1" style="stop-color:#FDC828"/>
				</linearGradient>
				<path class="st21" d="M149.3,223.8c0-2.5,2.5-3.8,5-3.8l0,0c2.5,0,4.1,1.3,4.1,3.8H149.3z"/>
			</g>
			<g>
				
					<linearGradient id="SVGID_5_" gradientUnits="userSpaceOnUse" x1="135.9" y1="12.7" x2="147.3" y2="12.7" gradientTransform="matrix(1 0 0 -1 0 234)">
					<stop  offset="0" style="stop-color:#FDC828"/>
					<stop  offset="1" style="stop-color:#FDC828"/>
				</linearGradient>
				<path class="st22" d="M135.9,220l4.3-1.1l6.1-0.1c0,0,1,2.3,1,5h-10.2L135.9,220z"/>
				
					<linearGradient id="SVGID_6_" gradientUnits="userSpaceOnUse" x1="131" y1="12.1" x2="140.1" y2="12.1" gradientTransform="matrix(1 0 0 -1 0 234)">
					<stop  offset="0" style="stop-color:#FDC828"/>
					<stop  offset="1" style="stop-color:#FDC828"/>
				</linearGradient>
				<path class="st23" d="M131,223.8c0-2.5,2.5-3.8,5-3.8l0,0c2.5,0,4.1,1.3,4.1,3.8H131z"/>
			</g>
		</g>
		<g>
			<g>
				<path class="st15" d="M160.4,98.2c0.8-0.2,1.6-0.4,2.3-0.5c-0.4-3.2-0.6-8.8-0.6-11.4l-5.5,3.4c0.2,2,0.2,6.8,0.4,9.3
					C158.2,98.6,159.3,98.4,160.4,98.2z"/>
				<path class="st24" d="M162.1,88.7c0-0.3,0.1-0.6,0-0.9c0-0.5,0-1,0-1.5l-5.5,3.4c0.1,1.2,0.2,3.4,0.2,5.6
					C158.9,93.3,160.7,91,162.1,88.7z"/>
			</g>
			<path class="st15" d="M155.1,72.7c-2.1,4.3-5.1,13.5-2.2,16.4c1.2,1.2,8.4,0.5,10.3-0.6c1,0.7,2,0.6,3-0.2
				c0.3-0.2,0.6-0.5,0.8-0.9c-0.4-0.3-0.8-0.6-1.1-0.9c-0.4-0.3-0.7-0.6-1-0.9c-3.3-3.3-5.2-7.9-4.9-12.8c-1.3-0.4-2.7-0.6-3.9-0.7
				C155.6,72.2,155.3,72.4,155.1,72.7z"/>
		</g>
		<g>
			
				<linearGradient id="SVGID_7_" gradientUnits="userSpaceOnUse" x1="163.086" y1="884.8469" x2="163.086" y2="927.8156" gradientTransform="matrix(1 0 0 1 0 -768)">
				<stop  offset="0" style="stop-color:#FDC828"/>
				<stop  offset="1" style="stop-color:#FDC828"/>
			</linearGradient>
			<path class="st25" d="M149.1,113c1.1,1.2,1.5,2.8,1.4,4.4c-0.4,6.9-0.7,10.9-1.3,18.8c0,0.2-2.2,8.6-1.9,8.7
				c7.9,1.5,25.1,1.9,31.6-3c-2.2-9.8-13.7-22.5-11.4-29.8c0.8-2.6,2.2-4.9,3.2-7.4s1.6-5.3,0.8-7.9c-0.1-0.3-0.2-0.6-0.4-0.8
				c-0.3-0.3-0.6-0.4-1-0.5c-5.7-1.6-10.9,0.1-15.6,3.2c-0.6,0.4-1.2,0.9-1.7,1.5c-1.7,2.1-4,4.3-4.8,6.8c-0.2,0.5-0.3,1-0.3,1.5
				c0,0.1,0,0.1,0,0.2C147.4,110.2,148,111.9,149.1,113z"/>
			<path class="st17" d="M177.2,140.4c-4.3,2.5-9.1,3.4-13.8,3.7c-2.3,0.2-4.7,0.3-7,0.3c-2.6,0-5.2-0.1-7.6-1.7
				c-0.4-0.2-0.6,0.4-0.3,0.7c4.2,2.7,9.8,1.8,14.3,1.5c5-0.3,10-1.2,14.5-3.8C177.8,140.9,177.5,140.2,177.2,140.4z"/>
		</g>
		<path class="st19" d="M153.5,67.7c-2.3,2.5-2.5,6.9-1.7,10.1c0.9,3.4,3.1,6.5,6.2,8.3c2.1,1.2,2.1,4.9,1.7,7.3
			c-0.4,2.4-1.4,4.6-2,6.9s-0.6,5,0.8,6.9c1.4,1.9,3.9,2.6,6.2,3c2,0.3,4.1,0.6,6.1,0.1c2-0.4,3.9-1.6,4.8-3.5
			c1.5-3-0.1-6.6-0.4-9.9c-0.7-7.7,4.6-15.3-0.1-22.5c-3.5-5.3-13.3-11-19.7-8.1C154.7,66.6,154.1,67.1,153.5,67.7z"/>
		<g>
			<g>
				<path class="st15" d="M131.8,109.4c-2.6-5.5-6.6-13.5-8.8-15.3c-0.9,0.3-1.7,0.6-2.6,0.9c1.2,6.3,3.3,12.5,6.1,18.2
					C127.9,111.6,129.8,110.4,131.8,109.4z"/>
				<path class="st16" d="M152.3,100.4c-0.2,0.1-0.4,0.2-0.6,0.4c-5.2,2.8-17.6,13.5-17.6,13.5c-0.4-0.8-1.2-2.6-2.3-4.9
					c-2,1-3.9,2.2-5.3,3.9c1.5,3.1,3.3,6.1,5.3,9c9.5-3.2,18-9,24.4-16.7l0.1-0.1C155,103.7,153.7,102,152.3,100.4z"/>
				<path class="st15" d="M120.8,95.2c-0.8-0.3-1.4-1.1-1.5-1.9s0.2-1.7,0.9-2.2c-0.2,0.1-0.4,0.1-0.6,0.2c-0.2,0-0.4,0-0.5-0.2
					c-0.2-0.3,0.1-0.6,0.3-0.9c0.5-0.5,1-1.1,1.5-1.6c1.1,0.3,2.2,0.9,3.1,1.5c-0.3,1.7-0.6,3.4-0.9,5.1H120.8z"/>
				<path class="st15" d="M122.6,87.3c0.1,0.9,0.1,2,0.2,3c0.3-0.1,0.8-0.1,1.1-0.2c-0.1-1-0.2-2-0.3-3.1c-0.7-0.6-1.4-1.4-2.1-2
					C120.9,85.5,122,86.8,122.6,87.3z"/>
			</g>
			<path class="st17" d="M133.6,115.1c-0.9,1-1.5,2.1-1.9,3.3c-0.1,0.3,0.4,0.5,0.5,0.2c0.4-1.2,1-2.2,1.8-3.1
				C134.2,115.2,133.9,114.8,133.6,115.1z"/>
			<path class="st17" d="M133.7,115.9c-0.2,0.5-0.3,1-0.5,1.5c-0.1,0.3,0.4,0.5,0.5,0.2c0.2-0.5,0.3-1,0.5-1.5
				C134.2,115.8,133.8,115.6,133.7,115.9z"/>
			<path class="st17" d="M155.1,106.4c-5.8,7-13.4,12.2-22,14.9c-0.3,0.1-0.2,0.6,0.1,0.5c8.7-2.8,16.5-8,22.4-15.1
				C155.7,106.4,155.3,106.1,155.1,106.4z"/>
		</g>
	</g>
	<g>
		<g>
			<path class="st1" d="M34.9,81.7c1-0.6,1.6-1.6,1.6-2.8c0-1.8-1.5-3.3-3.3-3.3s-3.3,1.5-3.3,3.3c0,1.2,0.6,2.2,1.6,2.8
				c-2.1,0.7-3.6,2.7-3.6,5c0,0.2,0,0.4,0,0.5h10.4c0-0.2,0-0.4,0-0.5C38.4,84.4,36.9,82.4,34.9,81.7z"/>
			<path class="st1" d="M41.5,83.6c1-0.6,1.6-1.6,1.6-2.8c0-1.8-1.5-3.3-3.3-3.3s-3.3,1.5-3.3,3.3c0,1.2,0.6,2.2,1.6,2.8
				c-2.1,0.7-3.6,2.7-3.6,5c0,0.2,0,0.4,0,0.5h10.4c0-0.2,0-0.4,0-0.5C45.1,86.2,43.6,84.3,41.5,83.6z"/>
		</g>
		<g>
			<path class="st1" d="M177.2,44.3c-2.9,0-5.2,2.3-5.2,5.2c0,2.8,4.9,8.5,5.1,8.8l0.1,0.1l0.1-0.1c0.2-0.2,5.1-5.9,5.1-8.8
				C182.4,46.6,180.1,44.3,177.2,44.3z M177.2,52.3c-1.5,0-2.8-1.2-2.8-2.8c0-1.5,1.2-2.8,2.8-2.8s2.8,1.2,2.8,2.8
				C180,51,178.7,52.3,177.2,52.3z"/>
			<path class="st1" d="M198.8,58.3c-2.9,0-5.2,2.3-5.2,5.2c0,2.8,4.9,8.5,5.1,8.8l0.1,0.1l0.1-0.1c0.2-0.2,5.1-5.9,5.1-8.8
				C204,60.7,201.7,58.3,198.8,58.3z M198.8,66.3c-1.5,0-2.8-1.2-2.8-2.8c0-1.5,1.2-2.8,2.8-2.8c1.5,0,2.8,1.2,2.8,2.8
				C201.5,65.1,200.3,66.3,198.8,66.3z"/>
			<polyline class="st26" points="177.3,58.3 185.9,62.4 180,70.3 198.8,72.5 			"/>
		</g>
	</g>
</g>
</svg>
