<svg id="Layer_1" data-name="Layer 1" xmlns="http://www.w3.org/2000/svg" viewBox="0 0 304 184"><defs><style>.cls-1{fill:#eee8e2;}.cls-2{fill:#d1beb4;}.cls-3{fill:#c3aca0;}.cls-4{fill:#f6ede8;}.cls-5{fill:#eee8e6;}.cls-6{fill:#ddd5d2;}.cls-7{fill:#e6d8d3;}.cls-8{fill:#47413e;}.cls-9{fill:#80d0e3;}.cls-10{fill:#a7e5ef;}.cls-11{fill:#5ec1d2;}.cls-12{fill:#7cd2db;}.cls-13{fill:#424242;}.cls-14{fill:#9d8f8a;}.cls-15{fill:#90837f;}.cls-16{fill:#7b716b;}.cls-17{fill:#69605b;}.cls-18{fill:#353433;}.cls-19{fill:#603729;}.cls-20{fill:#709124;}.cls-21{fill:#657d1b;}.cls-22{fill:#87776f;}.cls-23{fill:#706059;}</style></defs><title>Artboard 5</title><ellipse class="cls-1" cx="150.83" cy="162.89" rx="150.17" ry="9.98"/><polygon class="cls-2" points="69.49 162.88 146.13 162.88 146.13 13.28 69.49 28.18 69.49 162.88"/><polygon class="cls-3" points="69.49 28.18 69.49 35.63 146.13 20.73 146.13 13.28 69.49 28.18"/><rect class="cls-4" x="29.46" y="39.31" width="51.32" height="65.66"/><rect class="cls-5" x="39.9" y="104.97" width="29.59" height="57.92"/><polygon class="cls-3" points="105.54 113.3 105.54 162.88 107.03 162.88 107.8 162.88 110.51 162.88 111.5 162.88 113.73 162.88 118.98 162.88 128.13 162.88 135.44 162.88 136.93 162.88 136.93 113.3 105.54 113.3"/><rect class="cls-3" x="80.62" y="123.01" width="15.03" height="33.17"/><polygon class="cls-6" points="39.9 127.46 39.9 128.95 39.9 131.93 39.9 133.93 39.9 135.42 39.9 148.59 39.9 150.23 39.9 151.72 59.47 151.72 59.47 127.46 39.9 127.46"/><rect class="cls-7" x="29.46" y="50.96" width="39.37" height="14.09"/><rect class="cls-8" x="29.46" y="49.47" width="37.88" height="14.09"/><rect class="cls-9" x="29.46" y="50.96" width="36.39" height="11.11"/><polygon class="cls-10" points="45.91 62.07 52.2 62.07 55.84 50.96 49.55 50.96 45.91 62.07"/><polygon class="cls-10" points="56.89 62.07 60.52 50.96 57.98 50.96 54.35 62.07 56.89 62.07"/><polygon class="cls-10" points="40.95 62.07 44.59 50.96 40.56 50.96 36.92 62.07 40.95 62.07"/><rect class="cls-11" x="29.46" y="50.96" width="36.39" height="2.98"/><polygon class="cls-12" points="59.55 53.94 60.52 50.96 57.98 50.96 57.01 53.94 59.55 53.94"/><polygon class="cls-12" points="54.86 53.94 55.84 50.96 49.55 50.96 48.57 53.94 54.86 53.94"/><polygon class="cls-12" points="43.61 53.94 44.59 50.96 40.56 50.96 39.58 53.94 43.61 53.94"/><rect class="cls-7" x="29.46" y="82.21" width="39.37" height="14.09"/><rect class="cls-8" x="29.46" y="80.72" width="37.88" height="14.09"/><rect class="cls-9" x="29.46" y="82.21" width="36.39" height="11.11"/><polygon class="cls-10" points="45.91 93.32 52.2 93.32 55.84 82.21 49.55 82.21 45.91 93.32"/><polygon class="cls-10" points="56.89 93.32 60.52 82.21 57.98 82.21 54.35 93.32 56.89 93.32"/><polygon class="cls-10" points="40.95 93.32 44.59 82.21 40.56 82.21 36.92 93.32 40.95 93.32"/><rect class="cls-11" x="29.46" y="82.21" width="36.39" height="2.98"/><polygon class="cls-12" points="59.55 85.19 60.52 82.21 57.98 82.21 57.01 85.19 59.55 85.19"/><polygon class="cls-12" points="54.86 85.19 55.84 82.21 49.55 82.21 48.57 85.19 54.86 85.19"/><polygon class="cls-12" points="43.61 85.19 44.59 82.21 40.56 82.21 39.58 85.19 43.61 85.19"/><rect class="cls-6" x="52.88" y="91.99" width="3.64" height="29.59" transform="translate(-52.09 161.48) rotate(-90)"/><rect class="cls-3" x="73.32" y="101.13" width="3.64" height="11.3" transform="translate(-31.65 181.92) rotate(-90)"/><rect class="cls-8" x="39.9" y="125.97" width="18.08" height="24.27"/><rect class="cls-9" x="39.9" y="127.46" width="16.59" height="21.28"/><rect class="cls-11" x="39.9" y="127.46" width="16.59" height="2.98"/><polygon class="cls-10" points="52.61 127.46 46.32 127.46 39.9 147.09 39.9 148.74 45.65 148.74 52.61 127.46"/><polygon class="cls-10" points="49.81 148.74 56.49 128.32 56.49 127.46 54.23 127.46 47.27 148.74 49.81 148.74"/><polygon class="cls-12" points="51.64 130.44 52.61 127.46 46.32 127.46 45.35 130.44 51.64 130.44"/><polygon class="cls-12" points="54.23 127.46 53.26 130.44 55.8 130.44 56.49 128.32 56.49 127.46 54.23 127.46"/><rect class="cls-8" x="47.82" y="124.51" width="1.49" height="17.33" transform="translate(-84.61 181.75) rotate(-90)"/><rect class="cls-8" x="79.13" y="121.52" width="15.03" height="33.17"/><rect class="cls-9" x="80.62" y="123.01" width="12.05" height="30.19"/><polygon class="cls-11" points="83.6 125.99 92.67 125.99 92.67 123.01 80.62 123.01 80.62 153.19 83.6 153.19 83.6 125.99"/><polygon class="cls-10" points="80.62 136.34 80.62 151.49 89.93 123.01 84.98 123.01 80.62 136.34"/><polygon class="cls-10" points="86 153.19 92.67 132.79 92.67 123.01 92.64 123.01 82.77 153.19 86 153.19"/><polygon class="cls-12" points="83.6 127.22 80.62 136.34 80.62 151.49 83.6 142.38 83.6 127.22"/><polygon class="cls-12" points="88.96 125.99 89.93 123.01 84.98 123.01 84 125.99 88.96 125.99"/><polygon class="cls-12" points="82.77 153.19 83.6 153.19 83.6 150.66 82.77 153.19"/><polygon class="cls-12" points="92.64 123.01 91.67 125.99 92.67 125.99 92.67 123.01 92.64 123.01"/><rect class="cls-8" x="86.02" y="131.14" width="1.49" height="13.91" transform="translate(-51.33 224.87) rotate(-90)"/><rect class="cls-8" x="104.05" y="111.81" width="31.39" height="51.08"/><rect class="cls-9" x="105.54" y="113.31" width="28.41" height="49.57"/><polygon class="cls-11" points="110.01 117.78 133.95 117.78 133.95 113.31 105.54 113.31 105.54 162.88 110.01 162.88 110.01 117.78"/><polygon class="cls-10" points="116.07 113.31 105.54 145.53 105.54 162.88 106.31 162.88 122.52 113.31 116.07 113.31"/><polygon class="cls-10" points="126.64 162.88 133.95 140.53 133.95 113.31 133.69 113.31 117.49 162.88 126.64 162.88"/><polygon class="cls-10" points="109.02 162.88 112.24 162.88 128.45 113.31 125.22 113.31 109.02 162.88"/><polygon class="cls-12" points="133.69 113.31 132.23 117.78 133.95 117.78 133.95 113.31 133.69 113.31"/><polygon class="cls-12" points="121.05 117.78 122.52 113.31 116.07 113.31 114.61 117.78 121.05 117.78"/><polygon class="cls-12" points="110.01 131.86 105.54 145.53 105.54 162.88 106.31 162.88 110.01 151.57 110.01 131.86"/><polygon class="cls-12" points="126.98 117.78 128.45 113.31 125.22 113.31 123.76 117.78 126.98 117.78"/><polygon class="cls-12" points="109.02 162.88 110.01 162.88 110.01 159.85 109.02 162.88"/><rect class="cls-8" x="119" y="105.2" width="1.49" height="28.41" transform="translate(0.33 239.15) rotate(-90)"/><rect class="cls-8" x="128.24" y="134.49" width="0.97" height="12.38"/><rect class="cls-6" x="67.44" y="108.6" width="2.05" height="54.28"/><polygon class="cls-5" points="261.76 162.88 146.13 162.88 146.13 62.25 261.76 77.15 261.76 162.88"/><polygon class="cls-6" points="146.13 162.88 149.11 162.88 149.11 69.7 261.76 84.22 261.76 79.02 146.13 64.12 146.13 162.88"/><polygon class="cls-6" points="162.63 77.33 162.63 106.41 248.23 106.41 248.23 88.36 162.63 77.33"/><rect class="cls-3" x="93.34" y="78.21" width="31.91" height="23.54"/><rect class="cls-3" x="93.34" y="45.5" width="31.91" height="23.54"/><rect class="cls-8" x="91.85" y="76.72" width="31.91" height="23.54"/><rect class="cls-9" x="93.34" y="78.21" width="28.93" height="20.56"/><polygon class="cls-11" points="96.32 81.19 122.27 81.19 122.27 78.21 93.34 78.21 93.34 98.77 96.32 98.77 96.32 81.19"/><polygon class="cls-10" points="97.9 98.77 105.68 98.77 112.4 78.21 104.62 78.21 97.9 98.77"/><polygon class="cls-10" points="108.79 98.77 112.82 98.77 119.54 78.21 115.51 78.21 108.79 98.77"/><polygon class="cls-12" points="111.42 81.19 112.4 78.21 104.62 78.21 103.64 81.19 111.42 81.19"/><polygon class="cls-12" points="118.57 81.19 119.54 78.21 115.51 78.21 114.53 81.19 118.57 81.19"/><rect class="cls-13" x="106.74" y="69.27" width="1.49" height="31.07" transform="translate(22.68 192.28) rotate(-90)"/><rect class="cls-8" x="91.85" y="44.01" width="31.91" height="23.54"/><rect class="cls-9" x="93.34" y="45.5" width="28.93" height="20.56"/><polygon class="cls-11" points="96.32 48.48 122.27 48.48 122.27 45.51 93.34 45.51 93.34 66.07 96.32 66.07 96.32 48.48"/><polygon class="cls-10" points="97.89 66.07 105.67 66.07 112.4 45.51 104.62 45.51 97.89 66.07"/><polygon class="cls-10" points="108.78 66.07 112.82 66.07 119.54 45.51 115.51 45.51 108.78 66.07"/><polygon class="cls-12" points="111.42 48.48 112.4 45.51 104.62 45.51 103.64 48.48 111.42 48.48"/><polygon class="cls-12" points="118.56 48.48 119.54 45.51 115.51 45.51 114.53 48.48 118.56 48.48"/><rect class="cls-13" x="106.74" y="36.56" width="1.49" height="31.07" transform="translate(55.38 159.58) rotate(-90)"/><polygon class="cls-8" points="161.14 104.92 246.74 104.92 246.74 86.87 161.14 75.84 161.14 104.92"/><polygon class="cls-9" points="162.63 103.42 162.63 77.53 245.25 88.18 245.25 103.42 162.63 103.42"/><polygon class="cls-11" points="167.1 82 245.25 92.08 245.25 88.18 162.63 77.53 162.63 103.42 167.1 103.42 167.1 82"/><polygon class="cls-10" points="164.01 103.42 172.65 103.42 183.16 80.18 175 79.13 164.01 103.42"/><polygon class="cls-10" points="183.28 103.42 193.2 81.47 188.05 80.81 177.83 103.42 183.28 103.42"/><polygon class="cls-10" points="203.46 103.42 212.28 83.93 208.82 83.48 199.81 103.42 203.46 103.42"/><polygon class="cls-10" points="225.1 103.42 232.72 86.57 227.16 85.85 219.22 103.42 225.1 103.42"/><polygon class="cls-10" points="234.46 103.42 241.56 87.71 237.69 87.21 230.36 103.42 234.46 103.42"/><polygon class="cls-12" points="173.33 82.81 181.49 83.86 183.16 80.18 175 79.13 173.33 82.81"/><polygon class="cls-12" points="164.01 103.42 167.1 103.42 167.1 96.58 164.01 103.42"/><polygon class="cls-12" points="191.54 85.15 193.2 81.47 190.23 81.09 188.05 80.81 186.39 84.49 191.54 85.15"/><polygon class="cls-12" points="210.61 87.61 212.28 83.93 210.94 83.76 208.82 83.48 207.16 87.17 210.61 87.61"/><polygon class="cls-12" points="225.5 89.53 231.06 90.25 232.72 86.57 229.95 86.21 227.16 85.85 225.5 89.53"/><polygon class="cls-12" points="239.9 91.39 241.56 87.71 239.17 87.4 237.69 87.21 236.03 90.89 239.9 91.39"/><rect class="cls-8" x="189.22" y="80.18" width="1.49" height="23.92"/><rect class="cls-8" x="217.25" y="83.85" width="1.49" height="20.25"/><polygon class="cls-6" points="162.63 113.81 162.63 162.88 166.17 162.88 170.64 162.88 244.7 162.88 248.23 162.88 248.23 113.81 162.63 113.81"/><rect class="cls-13" x="161.14" y="112.32" width="85.6" height="50.57"/><rect class="cls-14" x="164.68" y="115.85" width="78.53" height="47.04"/><polygon class="cls-15" points="169.15 120.32 243.21 120.32 243.21 115.85 164.68 115.85 164.68 162.88 169.15 162.88 169.15 120.32"/><rect class="cls-16" x="164.68" y="124.51" width="78.53" height="0.93"/><rect class="cls-16" x="164.68" y="130.83" width="78.53" height="0.93"/><rect class="cls-16" x="164.68" y="137.15" width="78.53" height="0.93"/><rect class="cls-16" x="164.68" y="143.47" width="78.53" height="0.93"/><rect class="cls-16" x="164.68" y="149.78" width="78.53" height="0.93"/><rect class="cls-16" x="164.68" y="156.1" width="78.53" height="0.93"/><rect class="cls-17" x="164.68" y="124.51" width="4.47" height="0.93"/><rect class="cls-17" x="164.68" y="130.83" width="4.47" height="0.93"/><rect class="cls-17" x="164.68" y="137.15" width="4.47" height="0.93"/><rect class="cls-17" x="164.68" y="143.47" width="4.47" height="0.93"/><rect class="cls-17" x="164.68" y="149.78" width="4.47" height="0.93"/><rect class="cls-17" x="164.68" y="156.1" width="4.47" height="0.93"/><rect class="cls-17" x="164.68" y="115.85" width="78.53" height="2.81"/><polygon class="cls-18" points="150.85 10.09 64.71 26.84 64.71 31.39 150.85 14.64 150.85 10.09"/><polygon class="cls-18" points="141.17 63.86 266.67 80.03 266.67 75.53 141.21 59.36 141.17 59.7 141.17 63.86"/><rect class="cls-19" x="147.75" y="147.75" width="0.98" height="11.48"/><path class="cls-20" d="M148.24,133.93c-6,0-11.11,17.46,0,17.46S154.28,133.93,148.24,133.93Z"/><path class="cls-21" d="M150.18,135.22a3.36,3.36,0,0,1,1.13.2,4.5,4.5,0,0,0-3.07-1.49c-5.44,0-10.07,14.13-2.86,17C141.14,146.44,145.34,135.22,150.18,135.22Z"/><polygon class="cls-22" points="150.29 162.88 146.19 162.88 144.69 155.58 151.79 155.58 150.29 162.88"/><polygon class="cls-23" points="146.18 157.07 151.48 157.07 151.79 155.58 144.69 155.58 146.19 162.88 147.37 162.88 146.18 157.07"/><rect class="cls-19" x="21.67" y="144.25" width="0.99" height="18.37"/><path class="cls-20" d="M14.86,132.14c0-9.87,3.27-17.86,7.3-17.86s7.3,8,7.3,17.86S26.19,150,22.16,150,14.86,142,14.86,132.14Z"/><path class="cls-21" d="M17.5,133.46c0-9.87,3.27-17.86,7.3-17.86h.13a4,4,0,0,0-2.77-1.33c-4,0-7.3,8-7.3,17.86S18.06,149.82,22,150C19.37,147.32,17.5,140.93,17.5,133.46Z"/><rect class="cls-19" x="267.01" y="145.57" width="0.92" height="17.06"/><path class="cls-20" d="M267.47,115.44s-15.67,32.85,0,32.85S267.47,115.44,267.47,115.44Z"/><path class="cls-21" d="M269,118.81c-.86-2.07-1.48-3.37-1.48-3.37S253.36,145,265.34,148C259.33,142.77,266.27,125,269,118.81Z"/><rect class="cls-19" x="30.72" y="148.38" width="0.77" height="14.25"/><path class="cls-20" d="M31.11,123.22s-13.09,27.43,0,27.43S31.11,123.22,31.11,123.22Z"/><path class="cls-21" d="M32.35,126c-.72-1.73-1.24-2.82-1.24-2.82s-11.78,24.71-1.78,27.21C24.31,146,30.11,131.21,32.35,126Z"/><rect class="cls-19" x="276.25" y="144.25" width="0.99" height="18.37"/><path class="cls-20" d="M270.77,132.14c0-9.87,2.68-17.86,6-17.86s6,8,6,17.86S280,150,276.75,150,270.77,142,270.77,132.14Z"/><path class="cls-21" d="M272.93,133.46c0-9.87,2.67-17.86,6-17.86H279a3,3,0,0,0-2.26-1.33c-3.3,0-6,8-6,17.86s2.62,17.68,5.87,17.84C274.47,147.32,272.93,140.93,272.93,133.46Z"/></svg>