<svg xmlns="http://www.w3.org/2000/svg" xmlns:xlink="http://www.w3.org/1999/xlink" viewBox="0 0 304 184"><defs><style>.cls-1{isolation:isolate;}.cls-2{fill:#4a75dd;}.cls-3{fill:#cc9483;}.cls-4{fill:#e0ac9b;}.cls-5{fill:#db3177;}.cls-6{fill:#2f120d;}.cls-7{fill:#4f1109;}.cls-8{fill:#d5a092;}.cls-21,.cls-25,.cls-9{mix-blend-mode:multiply;}.cls-9{fill:url(#linear-gradient);}.cls-10{fill:#282626;}.cls-11{fill:#ba784a;}.cls-12{fill:#a0593a;}.cls-13{fill:#919da8;}.cls-14{fill:#232121;}.cls-15{fill:#e84f94;}.cls-16{fill:#300901;}.cls-17{fill:#5a2570;}.cls-18{fill:#39184f;}.cls-19{fill:#8fa4bc;}.cls-20,.cls-21{fill:#ad4b07;}.cls-21{opacity:0.72;}.cls-22{fill:#5b250e;}.cls-23{fill:#380f01;}.cls-24,.cls-25{fill:#f4e0a6;}.cls-26{fill:#929bb7;}.cls-27,.cls-28{fill:#b2bcce;}.cls-28{opacity:0.71;}.cls-29{fill:#d3dcea;opacity:0.59;}.cls-30{fill:#6597ef;}</style><linearGradient id="linear-gradient" x1="367.27" y1="-41.83" x2="384.3" y2="-41.83" gradientTransform="matrix(-0.78, 0.62, 0.62, 0.78, 511.91, -163.46)" gradientUnits="userSpaceOnUse"><stop offset="0" stop-color="#fff"/><stop offset="0.64" stop-color="#c5bfb8"/></linearGradient></defs><title>Artboard 1</title><g class="cls-1"><g id="Layer_1" data-name="Layer 1"><path class="cls-2" d="M136.69,135.17c-1.58-2.47-2.62-3.51-2.75-5.13-.09-1.08,2.52-4.2,5.21-5.12,2-.67,9.32.29,11.68.29,5.61,0,9.65,8.16,6.51,9.73S136.69,135.17,136.69,135.17Z"/><path class="cls-2" d="M126.48,95.78c.6,2.4,2.23,11.22,4.44,19.38,6.66,4.13,25.7,10.25,27.28,11.48s.6,1.72-1.19,2.09c-1.56.33-16,.08-21.37-.73a6.58,6.58,0,0,0,2.06,2.34c5.39,3.14,50.28,2.33,53.42,2.25,4.49-.12,1.39-5,1.39-5-4.75-9.3-6.1-15.81-9.47-17.2-2.42-1-25-9.6-41.34-21.42-8.3-4.27-11.78-1.8-14.89,0C126.81,89,125.36,91.29,126.48,95.78Z"/><path class="cls-3" d="M184.07,73.58a3.76,3.76,0,0,1,2.21.22c.56.31,2.83.82,3.27,1s1.95-1.07,1.95-1.07l1.95,3.59a28.69,28.69,0,0,1-4.09,2.14c-1.7.33-5.18.8-6,.23S184.07,73.58,184.07,73.58Z"/><path class="cls-4" d="M183.94,76.39c1.32.38,2.34,1,1.72,1.35s-3.45-.55-3.45-.55,3.48.85,3,1.57-5.25-.06-5.38-1C179.65,76.1,183.94,76.39,183.94,76.39Z"/><path class="cls-4" d="M180.47,78.38c-.51.41-.52.89.49,1.38s3.47.54,3.56.11S184,79,183.3,78.82,180.47,78.38,180.47,78.38Z"/><path class="cls-5" d="M199.58,59.6c-.47,2.16.56,1.6.92,2.87s-13.23,11.59-13.23,11.59l7,8.43S206.9,71.33,208.05,70s.34-1.74.24-2.49S199.58,59.6,199.58,59.6Z"/><path class="cls-6" d="M180.41,34.83c1.88,4.23,1.14,19.23-.21,20.48,1.26.7,5.84-2.44,5.77-4-.36,2.31-3.36,3.17-2.57,3.19,7.1.23,14.35-9.07,13.39-13S180.41,34.83,180.41,34.83Z"/><path class="cls-6" d="M174.05,23.82c.46-.9,2.67-8.18,14.53-5.32,4.45,1.07,2.92-1.39,6,5.47,7.64,16.85,10.43,15.2,10.43,15.2L180,53.44l-6.31-23.95Z"/><path class="cls-7" d="M175.34,21.21a91.51,91.51,0,0,0,3.47,26.15c1,3.67-3.88,4.41-5.43,3.06,1.55.08,2-4.09,1.51-6.69-.79-4.18-2.35-15.2-.84-19.91Z"/><path class="cls-7" d="M175.75,21.78c-2,2.23-.32,14.43,2.32,24.9,1.23,4.84-2,6.63-3.26,6.57,1.64.85,5.14,3.6,6.7-2.54s-3.9-16.73-4.77-23.49S175.75,21.78,175.75,21.78Z"/><path class="cls-8" d="M182.92,39.57c11.36,0,9.66,6,11.74,9.66,1.29,2.26,2.12-1.36,4.45-5,2-3.22,2-4.19,3.64-5.83-2.21-.7-12.72-9.35-14.48-14.59S182.92,39.57,182.92,39.57Z"/><path class="cls-9" d="M187.94,23.46c-1-3-3.68,12.22-4.89,16.79l20.14,4.38c1.31-2.18.15-4.88.14-6.2C201.11,37.73,189.71,28.7,187.94,23.46Z"/><path class="cls-3" d="M123.55,66.44a32.28,32.28,0,0,1-5.38-1c.71-.08,3.67-.49,3-1.24-1.3-.16-4.15-.72-4.73-.81s-2.25.6-4.25.93c-3.63-.78-13.37-2.67-15.11-4.91s-9.32-13.34-9.32-13.34L84,57.94s5.85,7.18,6.6,8.69,1,1.43,2.08,1.5c1.23.1,4.38,3.36,19,1.85l.19,0c1,.37,2,1.4,7.41,1a14.64,14.64,0,0,0,3.73-.76c.44-.28-.41-.41-1.36-.47,1.84,0,2-.34,2.3-.61.51-.47-1.51-.19-4.1-.42,1,0,4.54.31,4.67-.57,0-.24-.57-.44-1.3-.58l.36,0C125.23,67.28,124.89,66.76,123.55,66.44Z"/><path class="cls-10" d="M87.13,40.57c1,1.38,7.81,13.72,7.81,13.72l-6.17,4s-4.66-14.61-3.53-16.87S87.13,40.57,87.13,40.57Z"/><path class="cls-11" d="M135.87,46.42c-3-.62-9.57.93-7.93,8.35s5.4,6.57,5.4,6.57L136.8,47.8Zm-3,7.69a2.31,2.31,0,1,1,2.31-2.31A2.31,2.31,0,0,1,132.9,54.11Z"/><path class="cls-11" d="M150.68,43.37c-6.27-.73-6.85,8.85-7.7,11.51,0,0,5-1.14,5.68-1.28a9.33,9.33,0,0,0,5.84-2.92C156.9,48.08,153.76,43.73,150.68,43.37Zm1.86,6.2a2.45,2.45,0,1,1-.14-3.46A2.44,2.44,0,0,1,152.54,49.57Z"/><path class="cls-12" d="M145.45,53.13c.8-3.06,2.51-8.93,5.4-8.33-.92.76-2.56,1.78-2.62,3.1s.51,3.68-.18,4.42S145.45,53.13,145.45,53.13Z"/><path class="cls-12" d="M148.86,50.13c1.63,2.66,4.85,1.09,5.37,0a3.32,3.32,0,0,0,.56-2.35c-.23-1.6-1.54-3.78-4-3.15,1.28,1.35,3.41,2.91,2.6,4.53C152.79,50.36,148.86,50.13,148.86,50.13Z"/><path class="cls-13" d="M148.83,50a3.15,3.15,0,0,1-.25-4.43h0a3.15,3.15,0,0,1,4.44-.1h0a3.14,3.14,0,0,1,.25,4.42h0a3.15,3.15,0,0,1-4.44.11Zm.74-.8a2,2,0,0,0,2.9-.05h0a2.06,2.06,0,0,0-.19-2.89h0a2.07,2.07,0,0,0-2.9,0h0a2.06,2.06,0,0,0,.19,2.9Z"/><path d="M56.08,171.75c-.3,3.61.15,7.26,1.79,7.35,5.53.35,3.89-2.48,8.48-.82,3.46,1.27,10.92.76,12-.4s2.26-2.81-2.56-4.34c-4.59-1.46-7.74-5.89-9.61-8.22s-4.81,0-4.81,0l-4.85,1.48Z"/><path d="M57.61,91.73c0,8.41-.52,27.31-2.09,35.72s-3.24,22.6-2.9,32.9c.4,11.82,3.31,11,3.31,11s12.55-.33,13.6-3-1.94-16.79-1.41-20.47,2.1-13.66,4.2-20S57.61,91.73,57.61,91.73Z"/><path class="cls-14" d="M71.93,174.88c-.39,3.59.39,6.83,2.56,7,4.26.36,4.29-1.65,8.83.14,3.43,1.37,11.17.26,12.3-.88s3.55-2.77-1.23-4.43c-4.54-1.58-9.58-3.94-11.19-8.4-1-2.81-4.81-.17-4.81-.17l-4.9,1.36Z"/><path d="M80.73,86.48c1,6.3,7.71,33.21,8.4,35.19.92,2.62,1.9,5.78-.52,11-.79,1.71-1,3.74-1.51,7.95s-1.91,16.67-1.38,20.88a77.29,77.29,0,0,1,.2,10.58s-14.13,4-15.1,2.65c-2.4-3.32-1.66-17.34-1.45-20.53,1-15.56,2.95-18.91,1.9-22.59s-6.83-24.16-10-27.84-8-13.88-5.26-20.48,1.06-5.26,1.06-5.26l22.59,2.1Z"/><path class="cls-10" d="M86.5,158.58c.39-4.22.66-15.5,1.19-19.7s.13-4.46.92-6.17a13.76,13.76,0,0,0,.52-11.43C87.86,117.63,83.4,94,82.58,89.09l-1.21-8.74L71.54,79c2,13.44,10.83,36.64,12.2,46.89.72,5.27-5.51,31.47-2.61,46.69,2.63-.42,4.79-.84,4.79-.84S85.92,165.08,86.5,158.58Z"/><path class="cls-10" d="M234,158.89c-.43-2.46.43-8.22.43-8.22h-8.94s.95,1.94-1.05,7.72-3.23,9.69-7.34,11c0,0-3.95.93-2.52,3.7.73,1.44,9.38,1.79,11.26-1.83a8.89,8.89,0,0,1,5.19-4.68c.62,1.55.78,6.85.78,6.85a5.14,5.14,0,0,0,1.54-.08c-.21-1.4.15-6.73,1.06-7.71C235.56,164.55,234.36,161.08,234,158.89Z"/><path d="M210.38,78.27c2.91,11.14,8.9,51.64,9.65,53.56,3.81,9.7,3.43,30,3.43,30l12.31,1.46s.09-26.66-5.84-36a245.69,245.69,0,0,0,0-31.48L216.3,75.42Z"/><path class="cls-10" d="M253.46,157.76c.4-1.54-2.6-3.7-4.18-5.29-1.76-1.78-4.34-7-4.34-7l-7.35,5.1s1.89,1.06,3.55,6.94,2.9,9.79.26,13.18c0,0-2.72,3,0,4.5,1.42.75,8.72-3.91,8.2-7.94a8.89,8.89,0,0,1,1.58-6.81c1.39.92,4.55,5.17,4.55,5.17a5,5,0,0,0,1.23-1C256,163.65,253.31,159.12,253.46,157.76Z"/><path class="cls-10" d="M209,80.43c1.52,5.07,4.47,11.17,5.46,15.09,4.4,17.47,10.12,31.52,10.92,35,1,4.31,6.09,6.61,14.78,29.62,4.77-.12,11.61-6,11.61-6s-9.39-23.61-14.21-26.9c-3.18-2.18-6.09-30.22-5.3-33.26a21.79,21.79,0,0,0-.25-13c-2.37-6.34-11-12.81-11-12.81Z"/><path class="cls-5" d="M196.46,41.67a37.69,37.69,0,0,1-4.3,4.52c1,3.94,2.58,15.54,3.29,17.41,1,2.6,4.37,3.23,5.61,4.25,2.8,2.34,3.49,4.07,5.8,10.64.6,1.67,4.17,11.45,4.17,11.45s19.29-10.42,20.54-12.32c.78-1.18-12.26-20.37-16.33-26.25s-7.9-11.3-15.61-15C199.44,39.81,197.83,39.68,196.46,41.67Z"/><path class="cls-15" d="M217.06,50.72c6.46,10.15,15.24,25.91,15.27,26.62L225.43,82s-10.1-20.76-10.64-21.67c-8.19-14-12.56-14.29-13.34-14.51-1.07-.3-2.44-3.95-4.52-4.47,1.4-1.22,1.15-1.85,2.79-4.63A33,33,0,0,1,217.06,50.72Z"/><path class="cls-3" d="M82.22,16.14c-.89,2-4.53,6.3-8.06,9.32-5.41,4.63-1.86,3.12-1.86,3.12L82.48,37s6.31-8.26,9.06-9.06S82.22,16.14,82.22,16.14Z"/><path class="cls-3" d="M100.72,24.3c-.25-1.19.41-4.35.36-5.17a.25.25,0,0,1,0-.07A10.13,10.13,0,0,0,104,10.87c0-.25-1.06-.42-1.42-.88-1.7-5.89-16.13-11.58-20.13-3.5C74.91,21.66,88.83,29,92.19,30.56c.61.28,2,.39,3.59-2.51a18.27,18.27,0,0,0,2.53-2.81c1.08.11,2-.11,2.29-.67A.48.48,0,0,0,100.72,24.3Z"/><path class="cls-16" d="M87,1.63c2-.67,3.65-3,8.22-.46,3.92,2.2,8.71,4.25,9.28,8.33.54,3.82,3.42,4.08,3.42,4.08a3.85,3.85,0,0,1-3.66,2.25c-1.11-.06-4.76-3.56-6.83-2.34a11.61,11.61,0,0,1-4.13,1.24s-4.45.46-5.08,1.75a15.68,15.68,0,0,1-3.77,3.82c-2.56,1.26-6.7.69-6.7.69s1.4-2.92,2-9.46C80.47,3.79,84.11,2.61,87,1.63Z"/><path class="cls-3" d="M92.17,14.88c1.83-3.35-2.33-3-2.8-1.94s-2.71,3.69-1.28,5.35S92.17,14.88,92.17,14.88Z"/><path d="M85.24,35.4c-1.7-2.2-3.56-3.17-5.1-4.4A48.32,48.32,0,0,1,74,24.7C65.12,32,63.21,36,59.81,56.43c-1.62,9.75-4,22.66-7.3,27.7C50.15,87.76,84.46,96,84.74,91.68,86.25,69,89.46,57.56,89.65,51.33,89.71,49.31,86.24,36.69,85.24,35.4Z"/><path class="cls-4" d="M209.63,141.79c2.27,3.52,3.77,8.81,6.29,10.58s8.47,4.11,10,5.63,1.51,1.51-2,1.76-9-1.1-11.24-.35-3.9-.31-4.34-3.18-5-7.65-5.48-9.66S209.63,141.79,209.63,141.79Z"/><path class="cls-14" d="M208.31,156.23c2,2.19,9.2,2.83,12.44,2.76,4.25-.12,2.59-2.7,1.75-3.13,0,0,6.1,1.81,6.67,2.64s.88,3.4-5.06,4.06c-4.16.63-6.07-1-8.32-1.07s-1.94,1.77-5.33.59C208.19,161.29,208.31,156.23,208.31,156.23Z"/><path class="cls-17" d="M141.46,127.43,158,114.17l2.76,2s30.66-4.21,35-2.53c1.56.6,2.41,1.18,4,5.36,2.05,5.39,14.72,28,14.72,28l-8.62,6.48s-15.84-23.82-17-26.63-13.45,6.62-22.62,9.13S143.27,140,141.46,127.43Z"/><path class="cls-3" d="M188,124.77c6.81-.56,7.58,2.1,7.95,5.13a43.84,43.84,0,0,1,.48,10.85c-.12,3.17,2.87,19.53,5.25,27.9,0,0,6.05,6.09,10.16,6.45s-.53,4.83-4.37,3.09-8.5-.73-11.61-.45-3.91-3.06-1.85-6.19c2.28-3.45-8.78-22.82-4-37.06.76-2.27-3.23-5.18-6.8-5.29C181.3,129.14,185.92,124.94,188,124.77Z"/><path class="cls-18" d="M187.38,123.86c1.73-.4,8.11-1,9.37,6,1.46,8,3.75,34.68,5.37,37.45-3.39.52-9.6,2-9.6,2s-7.46-18.25-7.31-27.07-1.38-7.85-1.38-7.85l-11.12-.23S186.64,124,187.38,123.86Z"/><path d="M194,171.05a34.21,34.21,0,0,1,6,3c1.08.67,5.95.89,6.54.9,1.47,0,3-1,3.59-.71,1.52.67,3.46.71,4.13,1.64s-.64,3.11-3.56,3.19-9.19-1.46-11.07-1.1-5.91,1-6.43-.64A8.46,8.46,0,0,1,194,171.05Z"/><path class="cls-4" d="M154.8,64.36c-2.81,2.52-3.71,5.88-2.45,10.76.49,1.93,2.88,2.76,4.65,3.91,2.17,1.42,1.72,16.63-2.3,15.11-3.54-1.33-10.79-18.07-13.07-18.39C143,73.86,144.75,64,143,58.82S154.8,64.36,154.8,64.36Z"/><path d="M155,76.83c-2,2-8.56.5-10.82,0a10.57,10.57,0,0,0-5.9.6c-3.52,1.79-7.38,4.27-7.23,8.83,0,0,4.81,30.6,5.07,35.89s6,18.38,24.68,15.1c14.63-2.57,21.9,1,21.9,1l-.38,7.81s15.42-4.72,14-20.65c-.37-4.08.51-10.57,5-13,0,0,2-.12-19.89-4.65-5.23-1.09-21.66-27.7-23.41-29.47S155,76.83,155,76.83Z"/><path class="cls-4" d="M134.7,66.91c-5.2-5.82-4.62-13.15.73-16.5s11.18-3.93,15.4,2.63a9.7,9.7,0,0,1,.91,2.71,7.86,7.86,0,0,0,3.19,2.72c.52.5,0,1.46-.61,2.24,1.78,4,1.38,6.52-1.19,8.09C149.5,71,139.9,72.74,134.7,66.91Z"/><path class="cls-11" d="M130.25,62.25c-1.14-5.72,1-10.38,7.18-13.49,4.29-2.16,8.95-.8,9.93.55.41.55.13.72.13.72.56,6.48-5.23,10.14-5.63,10.47s-2.52.72-.56,3a4.49,4.49,0,0,0,2.6,1.6l.11,0,.09.07h0c1.67,1.28-2.05,7.87-6.09,13-5,2.28-5.51,6.2-7,6.35C131,84.46,132,71.12,130.25,62.25Z"/><path class="cls-11" d="M144.32,65.4c0,2.39,1.73,11,7.65,16.59s7.55,11.7,2.39,20.27c-1.38-1.77,7.81-8.19-5.41-16-7.31-4.32-16.21-5.84-14.19-12.63C135.8,70.14,144.32,65.4,144.32,65.4Z"/><polygon points="100.7 65.01 96.41 60.52 112.96 44.92 117.25 49.4 100.7 65.01"/><path class="cls-19" d="M117.25,49.4c-.16.16-1.26-.71-2.45-1.95s-2-2.38-1.84-2.53,1.24.73,2.43,2S117.41,49.25,117.25,49.4Z"/><polygon class="cls-19" points="115.86 47.82 114.48 46.38 115.31 45.6 116.68 47.03 115.86 47.82"/><polygon class="cls-19" points="116.58 47.42 114.91 45.68 115.83 44.79 117.51 46.53 116.58 47.42"/><path class="cls-11" d="M131.19,55.08c-2.83,4.62-7.55,6.51-12.08,8.77s-10,7.94-8.31,24.93c.57-.75.47-1.32.28-2.33A9,9,0,0,1,111.5,88s-.28-7.65,2.51-13.34c3.53-7.17,6.43-7,11.27-8.56,6.85-2.22,9.88-4.85,10.26-6.93C135.74,58,131.19,55.08,131.19,55.08Z"/><path class="cls-11" d="M141.4,41c-4.88.16-7.09,3.42-6.05,11.17,0,0,4.7-2,5.46-2.1s2.11,1.58,4.7-1.22S147.43,40.8,141.4,41Zm2,6.66a2.63,2.63,0,0,1-3.87-3.57,2.63,2.63,0,0,1,3.87,3.57Z"/><path class="cls-12" d="M135.76,50c.85-3.29,1.52-7.68,6-7.68-1,.81-2.93,2.09-3,3.5s1.68,4.9-1.63,7.83C136.34,54.41,135.76,50,135.76,50Z"/><path class="cls-12" d="M139.44,48.27c1.76,2.84,5.22,1.17,5.78,0a3.66,3.66,0,0,0,.61-2.53c-.26-1.71-1.66-4.06-4.28-3.39,1.37,1.46,3.66,3.13,2.8,4.86C143.68,48.52,139.44,48.27,139.44,48.27Z"/><path class="cls-13" d="M139.46,48.1a3.32,3.32,0,0,1-.27-4.7h0a3.34,3.34,0,0,1,4.7-.11h0a3.33,3.33,0,0,1,.27,4.7h0a3.32,3.32,0,0,1-4.7.11Zm.73-.79a2.26,2.26,0,0,0,3.18-.05h0a2.25,2.25,0,0,0-.22-3.17h0a2.25,2.25,0,0,0-3.17,0h0a2.25,2.25,0,0,0,.21,3.17Z"/><path class="cls-12" d="M129.14,49.83c-2.4,3.86,3.61,9.09,5.5,11.15,0,0,.57-4.66.79-5.36s3-2.11,1.95-5.49S130.78,47.19,129.14,49.83Zm6.3,1.45a2.44,2.44,0,1,1-3.06-1.59A2.45,2.45,0,0,1,135.44,51.28Z"/><path class="cls-11" d="M135.61,60.45c-2.27-2.2-7.09-7.85-5.14-10.07.19,1.18.28,3.11,1.38,3.82s4.58.92,4.88,1.89S135.61,60.45,135.61,60.45Z"/><path class="cls-12" d="M134.12,54.75c3.1-.09,3.34-3.67,2.63-4.68A3.41,3.41,0,0,0,135,48.42c-1.5-.59-4-.53-4.72,1.89,1.82-.44,4.22-1.51,5.23,0C136.27,51.46,134.12,54.75,134.12,54.75Z"/><path class="cls-13" d="M134,54.71a3.17,3.17,0,0,1-3.14-.68h0a3,3,0,0,1-.83-1.29h0a3.05,3.05,0,0,1,.7-3h0a3.18,3.18,0,0,1,1.41-.9h0a3.2,3.2,0,0,1,3.14.68h0a3.1,3.1,0,0,1,.83,1.3h0a3.06,3.06,0,0,1-.7,3h0a3.21,3.21,0,0,1-1.4.89Zm-2.93-2.29a1.86,1.86,0,0,0,.52.82h0a2.14,2.14,0,0,0,2.08.44h0a2.24,2.24,0,0,0,1-.6h0a2,2,0,0,0,.45-1.94h0a1.93,1.93,0,0,0-.52-.83h0a2.1,2.1,0,0,0-2.08-.44h0l-.17-.52.16.52a2.07,2.07,0,0,0-.94.59h0a2,2,0,0,0-.45,2Z"/><path class="cls-3" d="M116.21,63.42c2,.13,2.21.75,5,.69.78,0,1.08.75-.19.88-3.65.38-4.91,1.58-5.79.82S116.21,63.42,116.21,63.42Z"/><path class="cls-4" d="M114.68,45.86c.76,0,1.77,0,2.31,0,.91-.09.27-.65-.3-1a16.44,16.44,0,0,0-2.33-.43l0,0c-.67-.06-2.33.75-3.16,1a68,68,0,0,0-6.42,3.78L88.71,56l-9-15.3S68.42,46.93,69.26,48.5c5.41,10.19,12.91,15.5,14,16.93,2.27,2.9,3.81,1.2,4.41,1C92.48,64.92,106.25,55,106.83,55a24,24,0,0,0,6.43-1s2.14-.76,2.29-1.11-.49-.53-1.23-.54c1.12-.1,2.44-.3,2.74-.8s-1.09-.69-2.23-.85c.42,0,.9.07,1.51.08,2.45.1-.73-1.55-.73-1.55s-3.93-.74-3-2.25A12.35,12.35,0,0,0,114.68,45.86Z"/><path d="M67.75,37.54c-2.13,2.43,0,11.34,1.88,15.68a24.51,24.51,0,0,0,3.41,6s10.38-6,11.51-7.36-6-17-7.18-17S71.71,33,67.75,37.54Z"/><path class="cls-10" d="M75.07,34.47c6.08.67,11.11,14.24,11.75,15.92l-3.21,2.22s-7.21-12-8.27-14.56S75.07,34.47,75.07,34.47Z"/><path class="cls-10" d="M75.17,23.51c.13,1.13,6.87,9.56,10.89,11.2a7.19,7.19,0,0,1,.13,2.83S75.67,29.42,73.66,24.89C73.27,24,75.17,23.51,75.17,23.51Z"/><path class="cls-4" d="M185.75,16.33c6.34-.16,8.31,3.19,8.53,11.15s-4,13.77-9.15,15.07c-1.76.45-3.52-.52-5.4-3.56-.92,0-1.81-.11-1.89-.76a10,10,0,0,0-.43-4,19.44,19.44,0,0,1-1.88-8C175.32,18.26,179.43,16.51,185.75,16.33Z"/><path class="cls-6" d="M174.45,26.49c.72,3.2,4.18.78,6.9.87s5.35.66,5.56,1.23c.74-1.1,3.16-.71,2.85,1s-.89,1.88-.87,2.27,8.65,13.1,19,7.27a10.47,10.47,0,0,1-6-7.12c-1.09-5.18-7.1-13.74-11.4-14.85-5.16-1.34-11.9-1-14.36,2.82S174.45,26.49,174.45,26.49Z"/><path class="cls-20" d="M152.16,58.27a2.85,2.85,0,0,0-1.22,0,.46.46,0,0,0,.15,0,2.32,2.32,0,0,0-.53.1.62.62,0,0,0-.19.15l.36,0-.4.06.33,0a1,1,0,0,0-.3,0c-.06,0-.08.14,0,.13h.12l-.2,0-.06.13.65-.08-.67.11V59l.65,0-.64.05.08.15,0,0v0h.56l-.52,0v.08l.21,0-.16,0h.41l-.36,0a.59.59,0,0,0,.22.12,2.44,2.44,0,0,0,.53,0l-.14.06a2.89,2.89,0,0,0,1.3-.26h.06s0,0,0,0l0-.22h0l0-.65h0l0-.23h0v-.06Z"/><path class="cls-21" d="M152.18,58.34a2.41,2.41,0,0,0-1.12-.05.29.29,0,0,0,.14,0,2.61,2.61,0,0,0-.51.09.59.59,0,0,0-.19.13h.35l-.39.06h.32l-.29,0c-.05,0-.07.12,0,.12l.12,0-.19,0-.06.12.63-.08-.64.11V59l.62,0-.61.06.08.13,0,0,0,0h.53l-.48,0v.07h.2l-.16,0h.4l-.35,0a.49.49,0,0,0,.2.1,2.37,2.37,0,0,0,.52,0,.38.38,0,0,0-.14,0,2.71,2.71,0,0,0,1.21-.23h0v0h0l0-.2h0v-.59h0v-.21h0V58.3Z"/><path class="cls-21" d="M152.34,58.39a3.16,3.16,0,0,0-1.12,0,.42.42,0,0,0,.14,0,2.61,2.61,0,0,0-.51.09.58.58,0,0,0-.19.11l.35,0-.39.07h.32l-.29,0c-.05,0-.08.12,0,.11h.12l-.19,0-.06.11.63-.07-.64.1V59l.61,0-.61,0,.08.12,0,0h.52l-.49,0v.07h.2l-.15,0h.39l-.35,0a.75.75,0,0,0,.2.09h.52l-.13,0a3.07,3.07,0,0,0,1.2-.21h.06s0,0,0,0v-.19h0l0-.51h0l0-.18h0v-.06Z"/><path class="cls-22" d="M160.89,57.6c6.17-.45,17.82-1.17,17.91-.75s-11.58,1.52-17.75,2c-4.37.32-4.93.12-4.91-.31S156.83,57.9,160.89,57.6Z"/><path class="cls-23" d="M160.7,58.44a37.77,37.77,0,0,1-4.55.17c.08.37.87.52,4.9.22,6.17-.46,17.84-1.55,17.75-2,0,0-.11-.07-.29-.08C174.39,57.31,165.86,58.06,160.7,58.44Z"/><path class="cls-24" d="M152.23,58.2l.07.65,0,.65a3,3,0,0,0,.79-.06,29.91,29.91,0,0,1,3.18-.46,2.9,2.9,0,0,0,1.12,0,1.22,1.22,0,0,1-.1-1,3.09,3.09,0,0,0-1.09.17s-2.06.11-3.2,0A3.06,3.06,0,0,0,152.23,58.2Z"/><path class="cls-25" d="M156.28,58.6a29.91,29.91,0,0,0-3.18.46,3.16,3.16,0,0,1-.79,0l0,.39a3,3,0,0,0,.79-.06,29.91,29.91,0,0,1,3.18-.46,2.9,2.9,0,0,0,1.12,0,.69.69,0,0,1-.15-.37A2.87,2.87,0,0,1,156.28,58.6Z"/><path class="cls-25" d="M153.11,59.15l-.06-.79s.32.12.35.38S153.11,59.15,153.11,59.15Z"/><path class="cls-4" d="M172.21,59.49c-1.4-1.29-4.53-3.76-5.26-3.76a31.17,31.17,0,0,0-3.56.55,5.14,5.14,0,0,0-1.74.93c-.29.3-.2,1,.34.8a17,17,0,0,1,2.35-.52S163,58.36,163,58.7s.22.44.22.44l.74,0s-.67.29-.63.74c0,.22.48.26.79.24-.34.16-.77.21-.47.68s1,.28,1,.28-.54.22-.5.53.88.71,1.3.79,4.57,1.84,5.86,2.08a46.81,46.81,0,0,0,7.09-.16l-.32-5Z"/><path class="cls-15" d="M172.21,59.49l19-5.58,8-9.54s6.42-6.36,8.43,1.44c1.4,5.46-8.33,14.22-12.14,17-3.4,2.52-20.88,4-20.88,4Z"/><rect x="166.99" y="76.17" width="19.39" height="1.13"/><polygon class="cls-10" points="166.99 76.17 170.95 73.65 182.72 73.65 186.37 76.17 166.99 76.17"/><path class="cls-4" d="M173.86,75.37c0,.27-.77.48-1.72.48s-1.71-.21-1.71-.48.77-.47,1.71-.47S173.86,75.11,173.86,75.37Z"/><path class="cls-15" d="M178.48,75.37c0,.27-.77.48-1.72.48s-1.71-.21-1.71-.48.76-.47,1.71-.47S178.48,75.11,178.48,75.37Z"/><path class="cls-5" d="M183.37,75.37c0,.27-.77.48-1.72.48s-1.72-.21-1.72-.48.77-.47,1.72-.47S183.37,75.11,183.37,75.37Z"/><path class="cls-4" d="M174.48,74.29c0,.24-.69.43-1.54.43s-1.54-.19-1.54-.43.69-.42,1.54-.42S174.48,74.06,174.48,74.29Z"/><path class="cls-15" d="M178.62,74.29c0,.24-.69.43-1.55.43s-1.53-.19-1.53-.43.69-.42,1.53-.42S178.62,74.06,178.62,74.29Z"/><path class="cls-5" d="M183,74.29c0,.24-.69.43-1.54.43s-1.55-.19-1.55-.43.7-.42,1.55-.42S183,74.06,183,74.29Z"/><path class="cls-3" d="M184.07,73.58c-.63.06-3.18.53-3.49.53s-.82.51.56.64,2.9,0,3.94.09C185.7,74.92,184.07,73.58,184.07,73.58Z"/><path class="cls-26" d="M161.66,148.41c-1.31-1.08-15.84-4.49-22.25.32,0,0-.26,1.34.81,1.34s4.07-2.17,5.4-2.31c3.35-.34,9.39,1.8,11,1.71A34.73,34.73,0,0,0,161.66,148.41Z"/><rect class="cls-26" x="151.23" y="146.14" width="8.46" height="27.88"/><path class="cls-27" d="M151.23,146.06c0,.33,1.9.6,4.25.6s4.25-.27,4.25-.6-1.9-.6-4.25-.6S151.23,145.73,151.23,146.06Z"/><path class="cls-28" d="M155.07,146.93a21.78,21.78,0,0,1-2.79-.16v26.49h3.8V146.91Z"/><path class="cls-26" d="M134.38,178.26v0h0v-1.4h1.92c3.33-1.18,10.65-2,19.18-2s15.85.81,19.18,2h1.91v1.5h0c-.32,1.84-9.62,3.31-21.07,3.31s-20.75-1.47-21.07-3.31h0Z"/><path class="cls-27" d="M134.38,176.84c0,1.88,9.45,3.4,21.1,3.4s21.09-1.52,21.09-3.4-9.44-3.4-21.09-3.4S134.38,175,134.38,176.84Z"/><path class="cls-27" d="M155.05,176.73c-3.08-.39-14.17-1.83-13.28-1.83a38.45,38.45,0,0,0,9.21-3c.18-.1.34.31,1.94.5a23,23,0,0,0,2.35.1c.55,0,1.43,0,2.23-.12,1.6-.2,1.89-.58,2.06-.48,1.8,1.11,8.57,3,9.59,3s-10.21,1.44-13.29,1.83l0,.11-.39-.06-.38.06Z"/><path class="cls-29" d="M159.53,172.5c1.9,2.15,14.12,5.11,14.72,5-3.5,1.76-22,2.51-29.55,1.41,3.21-1.7,7.21-5.21,7.52-6.21A15.25,15.25,0,0,0,159.53,172.5Z"/><rect class="cls-26" x="153.31" y="133.93" width="4.32" height="11.97"/><path class="cls-26" d="M153.31,146c0-.21,1-.37,2.17-.37s2.17.16,2.17.37-1,.37-2.17.37S153.31,146.15,153.31,146Z"/><path class="cls-28" d="M155.78,145.42v-11h-1.93v11.12a8.25,8.25,0,0,1,1.42-.09Z"/><path class="cls-27" d="M154.23,149.15a1.21,1.21,0,0,0,1.31,1.08l5.05-.51a1.19,1.19,0,0,0,1.07-1.31h0a1.18,1.18,0,0,0-1.31-1.08l-5,.5a1.2,1.2,0,0,0-1.07,1.32Z"/><path class="cls-26" d="M154.64,149.14a.64.64,0,1,0,1.25,0,.64.64,0,1,0-1.25,0Z"/><path class="cls-26" d="M160.52,149.57l-4.69.47c.21-.15.31-1,.31-1l5.42-.5A1.19,1.19,0,0,1,160.52,149.57Z"/><path class="cls-30" d="M124.54,95.14c.56,2.28,2.3,12.45,4.58,22.29,5.07,5.85,25.88,10.57,27.81,11.68,2.09,1.2,0,2.09-1.2,2.09-1,0-17,.21-23.17-1.16,1.33,3.91,2.72,6.79,4.09,7.6,5.39,3.14,35.84,3.44,39,3.36,4.48-.11,2.27-5.17,2.27-5.17-3.47-8.07-5.12-16.48-8.71-17-13.75-2.19-42.2-16.45-42-25.42,0-.63.25-3.11,1.31-3.66.26-.14.85-1.85.48-1.87a8.09,8.09,0,0,0-3.71,2.47A5.87,5.87,0,0,0,124.54,95.14Z"/></g></g></svg>