<svg id="Layer_1" data-name="Layer 1" xmlns="http://www.w3.org/2000/svg" xmlns:xlink="http://www.w3.org/1999/xlink" viewBox="0 0 304 184"><defs><style>.cls-1,.cls-10,.cls-3{fill:#12cbe0;}.cls-1,.cls-11,.cls-12,.cls-13,.cls-14,.cls-16,.cls-18,.cls-19,.cls-2,.cls-20,.cls-21,.cls-22,.cls-24,.cls-25,.cls-27,.cls-28,.cls-29,.cls-3,.cls-4,.cls-5,.cls-6{fill-rule:evenodd;}.cls-1,.cls-10{opacity:0.41;}.cls-2,.cls-23{fill:#3d3e5d;}.cls-4{fill:url(#GradientFill_1);}.cls-5{fill:url(#GradientFill_1-2);}.cls-6,.cls-7{fill:#3d438a;}.cls-12,.cls-8{fill:#818db5;}.cls-28,.cls-9{fill:#515696;}.cls-11,.cls-26{fill:#ffb89c;}.cls-13,.cls-17{fill:#3f4167;}.cls-14,.cls-30{fill:#ffc9b5;}.cls-15,.cls-21{fill:#eaeef9;}.cls-16{fill:#fff;}.cls-18{fill:url(#GradientFill_2);}.cls-19{fill:#ff8f02;}.cls-20{fill:#ffa711;}.cls-22{fill:#ffa104;}.cls-24{fill:#373857;}.cls-25{fill:#373656;}.cls-27{fill:#f3f7ff;}.cls-29{fill:#fecc00;}</style><linearGradient id="GradientFill_1" x1="259.19" y1="65.18" x2="176.7" y2="66.34" gradientUnits="userSpaceOnUse"><stop offset="0" stop-color="#e1e8f6"/><stop offset="1" stop-color="#fff"/></linearGradient><linearGradient id="GradientFill_1-2" x1="219.55" y1="65.57" x2="148.54" y2="66.66" xlink:href="#GradientFill_1"/><linearGradient id="GradientFill_2" x1="75.33" y1="75.45" x2="134.02" y2="75.86" gradientUnits="userSpaceOnUse"><stop offset="0" stop-color="#eef3fa"/><stop offset="1" stop-color="#fff"/></linearGradient></defs><title>Artboard 3</title><path class="cls-1" d="M38.5,127.79c-8.9.24-16.74-18.38-4.63-35.31a6.42,6.42,0,0,1,10.4-.07C55.27,107.31,47.46,127.56,38.5,127.79Z"/><path class="cls-2" d="M39,93.44a0,0,0,0,0-.06,0,69.59,69.59,0,0,0-1.19,9.33c-.16,1.88-.28,3.76-.35,5.65-.25-.32-.54-.62-.79-.94a23.76,23.76,0,0,1-1.37-2,28.13,28.13,0,0,1-2-3.78,0,0,0,0,0,0,0,20.45,20.45,0,0,0,1.81,4A12.47,12.47,0,0,0,37.34,109c0,1.1-.06,2.21-.07,3.31q0,4.83.28,9.65a34.9,34.9,0,0,1-6.75-12.66s0,0,0,0a28.88,28.88,0,0,0,6.85,13.61l.12,1.48a.29.29,0,0,0,0,.32c.19,2.19,1,19.85,1.28,22,.07.46.78.31.72-.16-.3-2.17-1.09-19.82-1.29-22a32.93,32.93,0,0,0,3.94-4.4,24.86,24.86,0,0,0,2.88-5.44s0,0,0,0a27,27,0,0,1-6.86,9.1c-.22-2.66-.37-5.34-.45-8A25.66,25.66,0,0,0,45.8,105s0,0,0,0a28.89,28.89,0,0,1-7.84,10.16c0-1,0-2,0-3,0-2.65.06-5.29.19-7.94a13.83,13.83,0,0,0,2.45-3.57A18.17,18.17,0,0,0,42.1,96.5a0,0,0,1,0-.05,0,25.29,25.29,0,0,1-1.86,4.15c-.61,1.06-1.37,2-2.07,3,0-.27,0-.54,0-.81C38.34,99.66,38.78,96.56,39,93.44Z"/><path class="cls-1" d="M269.18,127.79c-8.91.24-16.75-18.38-4.64-35.31a6.42,6.42,0,0,1,10.4-.07C285.94,107.31,278.13,127.56,269.18,127.79Z"/><path class="cls-2" d="M269.63,93.44a0,0,0,0,0-.06,0,69.59,69.59,0,0,0-1.19,9.33c-.16,1.88-.27,3.76-.35,5.65-.25-.32-.54-.62-.79-.94a22.18,22.18,0,0,1-1.37-2,27,27,0,0,1-1.94-3.78s-.06,0-.05,0a20.45,20.45,0,0,0,1.81,4A13,13,0,0,0,268,109c0,1.1-.06,2.21-.07,3.31,0,3.22.07,6.44.28,9.65a35.05,35.05,0,0,1-6.75-12.66s0,0,0,0a28.79,28.79,0,0,0,6.85,13.61c0,.49.07,1,.11,1.48a.31.31,0,0,0,0,.32c.19,2.19,1,19.85,1.29,22,.06.46.78.31.71-.16-.29-2.17-1.09-19.83-1.29-22a33.71,33.71,0,0,0,3.95-4.4,25.26,25.26,0,0,0,2.87-5.44s0,0,0,0a27.06,27.06,0,0,1-6.85,9.1c-.23-2.66-.38-5.34-.45-8A25.54,25.54,0,0,0,276.47,105s0,0,0,0a28.89,28.89,0,0,1-7.84,10.16c0-1,0-2-.05-3,0-2.65.06-5.3.19-7.94a13.86,13.86,0,0,0,2.46-3.57,17.69,17.69,0,0,0,1.56-4.16,0,0,0,1,0,0,0,24.43,24.43,0,0,1-1.85,4.15c-.61,1.06-1.38,2-2.08,3,0-.27,0-.54,0-.81C269,99.66,269.45,96.56,269.63,93.44Z"/><path class="cls-1" d="M138,38c-8.91.24-16.75-18.38-4.64-35.31a6.42,6.42,0,0,1,10.4-.07C154.78,17.52,147,37.77,138,38Z"/><path class="cls-2" d="M138.47,3.65a0,0,0,0,0-.06,0A69.59,69.59,0,0,0,137.22,13c-.16,1.88-.27,3.76-.35,5.65-.25-.32-.54-.62-.79-.94a22.18,22.18,0,0,1-1.37-2,27,27,0,0,1-1.94-3.78s-.06,0-.05,0a20.45,20.45,0,0,0,1.81,4,12.71,12.71,0,0,0,2.32,3.21c0,1.1-.06,2.21-.07,3.31q0,4.83.28,9.65a35.05,35.05,0,0,1-6.75-12.66s0,0,0,0a28.79,28.79,0,0,0,6.85,13.61c0,.49.07,1,.11,1.48a.29.29,0,0,0,0,.32c.19,2.19,1,19.85,1.29,22,.06.46.77.31.71-.16-.29-2.17-1.09-19.82-1.29-22a32.93,32.93,0,0,0,3.94-4.4,24.86,24.86,0,0,0,2.88-5.44s0,0,0,0a27.06,27.06,0,0,1-6.85,9.1c-.23-2.66-.38-5.34-.45-8a25.57,25.57,0,0,0,7.84-10.79s0,0,0,0a28.89,28.89,0,0,1-7.84,10.16c0-1,0-2,0-3,0-2.65.06-5.29.19-7.94A13.42,13.42,0,0,0,140,10.87a18.17,18.17,0,0,0,1.57-4.16,0,0,0,1,0-.05,0,24.43,24.43,0,0,1-1.85,4.15c-.61,1.06-1.38,2-2.08,3,0-.27,0-.54,0-.81C137.85,9.87,138.29,6.77,138.47,3.65Z"/><path class="cls-1" d="M68.1,104.48c-15.76.41-29.65-32.56-8.2-62.54a11.36,11.36,0,0,1,18.41-.11C97.79,68.2,84,104.06,68.1,104.48Z"/><path class="cls-2" d="M68.91,43.65c0-.06-.09-.08-.1,0a121.94,121.94,0,0,0-2.12,16.52q-.42,5-.61,10c-.45-.57-1-1.1-1.4-1.67A41.36,41.36,0,0,1,62.25,65a48.56,48.56,0,0,1-3.44-6.69s-.1,0-.08,0a36.17,36.17,0,0,0,3.2,7.13A23,23,0,0,0,66,71.17c-.06,2-.11,3.9-.12,5.85q-.09,8.57.49,17.1A62.1,62.1,0,0,1,54.46,71.69s-.07,0-.06,0A50.88,50.88,0,0,0,66.53,95.79c.06.87.13,1.75.2,2.62a.56.56,0,0,0,0,.57c.34,3.88,1.75,35.15,2.28,39,.11.83,1.38.55,1.27-.28-.53-3.85-1.94-35.1-2.29-39A60,60,0,0,0,75,91a45.12,45.12,0,0,0,5.09-9.64s0,0-.06,0c-2.83,5.88-7,11.93-12.13,16.12q-.6-7.09-.8-14.2A45.29,45.29,0,0,0,81,64.12s0,0,0,0a51,51,0,0,1-13.88,18c0-1.76-.08-3.53-.08-5.3,0-4.68.1-9.37.34-14a24.73,24.73,0,0,0,4.34-6.33,32,32,0,0,0,2.77-7.37c0-.06-.07-.09-.09,0a43.94,43.94,0,0,1-3.28,7.35,64,64,0,0,1-3.68,5.24c0-.48,0-1,.07-1.43C67.82,54.66,68.59,49.17,68.91,43.65Z"/><path class="cls-3" d="M255.46,66a53.89,53.89,0,1,1-53.88-53.88A53.88,53.88,0,0,1,255.46,66ZM247.89,82.6A50.35,50.35,0,0,0,250.68,66c0-27.51-22-49.81-49.1-49.81A48.68,48.68,0,0,0,165.14,32.6a50.37,50.37,0,0,0-5.28,59.67,48.83,48.83,0,0,0,88-9.67Z"/><path class="cls-4" d="M247.89,82.6A50.35,50.35,0,0,0,250.68,66c0-27.51-22-49.81-49.1-49.81A48.68,48.68,0,0,0,165.14,32.6a50.37,50.37,0,0,0-5.28,59.67,48.83,48.83,0,0,0,88-9.67Z"/><path class="cls-5" d="M191.76,19.24A46.75,46.75,0,0,0,166,34.06a48.19,48.19,0,0,0-5.05,57.06,47,47,0,0,0,30.84,21.62,58.84,58.84,0,0,0,19.55-27.16A59.57,59.57,0,0,0,214.6,66,58.94,58.94,0,0,0,191.76,19.24Z"/><path class="cls-6" d="M205.91,66a4.34,4.34,0,1,1-4.33-4.33A4.33,4.33,0,0,1,205.91,66Z"/><rect class="cls-7" x="200.37" y="25.51" width="2.42" height="40.48"/><rect class="cls-7" x="177.91" y="72.17" width="25.97" height="2.42" transform="translate(-7.84 121.65) rotate(-34.68)"/><rect class="cls-7" x="199.91" y="107.86" width="3.34" height="6.57"/><rect class="cls-7" x="199.91" y="17.55" width="3.34" height="6.57"/><rect class="cls-7" x="243.45" y="64.32" width="6.57" height="3.34"/><rect class="cls-7" x="153.13" y="64.32" width="6.57" height="3.34"/><rect class="cls-7" x="223.5" y="101.81" width="1.3" height="6.57" transform="translate(-22.51 126.21) rotate(-30.01)"/><rect class="cls-7" x="178.35" y="23.6" width="1.3" height="6.57" transform="translate(10.54 93.09) rotate(-30)"/><rect class="cls-7" x="240.03" y="85.29" width="1.3" height="6.57" transform="matrix(0.5, -0.87, 0.87, 0.5, 43.62, 252.71)"/><rect class="cls-7" x="161.82" y="40.13" width="1.3" height="6.57" transform="translate(43.64 162.41) rotate(-60)"/><rect class="cls-7" x="175.71" y="104.45" width="6.57" height="1.3" transform="translate(-1.56 207.5) rotate(-59.98)"/><rect class="cls-7" x="220.87" y="26.24" width="6.57" height="1.3" transform="translate(88.79 207.57) rotate(-60)"/><rect class="cls-7" x="159.18" y="87.92" width="6.57" height="1.3" transform="translate(-22.52 93.12) rotate(-30.01)"/><rect class="cls-7" x="237.4" y="42.76" width="6.57" height="1.3" transform="translate(10.54 126.17) rotate(-30)"/><rect class="cls-8" x="182.5" y="147.22" width="17.9" height="2.22" transform="matrix(0.35, -0.94, 0.94, 0.35, -14.24, 276.19)"/><rect class="cls-9" x="190.19" y="138.86" width="7.23" height="2.85" rx="0.86"/><rect class="cls-8" x="191.12" y="141.71" width="5.16" height="0.72"/><rect class="cls-8" x="165.01" y="139.38" width="2.22" height="17.9" transform="translate(-41.24 67.09) rotate(-20.37)"/><rect class="cls-9" x="160.14" y="138.86" width="7.23" height="2.85" rx="0.86"/><rect class="cls-8" x="161.29" y="141.71" width="5.16" height="0.72"/><rect class="cls-10" x="164.03" y="173.29" width="29.51" height="2.85" rx="0.86"/><rect class="cls-8" x="186.62" y="157.54" width="1.94" height="17.59"/><rect class="cls-8" x="169" y="157.63" width="1.94" height="17.58"/><rect class="cls-9" x="166.3" y="154.82" width="24.97" height="2.85" rx="0.86"/><rect class="cls-8" x="169.01" y="157.68" width="19.55" height="0.87"/><path class="cls-2" d="M180.48,111.08s5.5,1.32,4.32,11.46c0,0-4.94-4.34-12.79-.74,0,0-.71-6.89,1.92-9.06S180.48,111.08,180.48,111.08Z"/><path class="cls-11" d="M186.6,129a51.26,51.26,0,0,1,7.41,9.19,1.82,1.82,0,0,1-.53,2.44l0,0a1.84,1.84,0,0,1-2.63-.56,59,59,0,0,0-6.56-8.86,1.6,1.6,0,0,1,.53-2.55l.05,0A1.62,1.62,0,0,1,186.6,129Z"/><polygon class="cls-12" points="186.05 126.51 192.96 135.06 188.6 139.17 182.06 128.64 186.05 126.51"/><path class="cls-11" d="M170.73,129a51.26,51.26,0,0,0-7.41,9.19,1.82,1.82,0,0,0,.53,2.44l0,0a1.84,1.84,0,0,0,2.63-.56,59,59,0,0,1,6.56-8.86,1.59,1.59,0,0,0-.53-2.54l0,0A1.62,1.62,0,0,0,170.73,129Z"/><path class="cls-11" d="M156.63,130.88a50.72,50.72,0,0,0,6.94,9.55,1.82,1.82,0,0,0,2.49.13l0,0a1.85,1.85,0,0,0,.15-2.69,57.71,57.71,0,0,1-6.84-8.64,1.6,1.6,0,0,0-2.6-.16l0,0A1.61,1.61,0,0,0,156.63,130.88Z"/><path class="cls-11" d="M158.61,128a.51.51,0,0,1,.15.21,1.62,1.62,0,0,1-1,2.61,1.62,1.62,0,0,1-1-.14.63.63,0,0,1-.32-.19h0a6.92,6.92,0,0,1-3.91-1.67c-.78-.7-.67-1-.6-1.81-.36-.45-.63-1-.18-1.52a1.48,1.48,0,0,1,.17-2.1c0-.47-.47-1.22.58-1.21s2.79,1.57,3.58,2.44c-.35-1.7,1.38-3.8,1.89-2.37a3.11,3.11,0,0,0,.52,3c.56.9.2,1.56-.24,2.35Z"/><path class="cls-11" d="M200.76,130.74a51,51,0,0,1-6.93,9.55,1.83,1.83,0,0,1-2.5.13l0,0a1.84,1.84,0,0,1-.14-2.68,59.64,59.64,0,0,0,6.84-8.65,1.59,1.59,0,0,1,2.59-.15l0,0A1.6,1.6,0,0,1,200.76,130.74Z"/><path class="cls-11" d="M198.78,127.86a.8.8,0,0,0-.15.21,1.56,1.56,0,0,0-.32.73,1.63,1.63,0,0,0,2.32,1.74.7.7,0,0,0,.31-.18h0a6.83,6.83,0,0,0,3.9-1.67c.79-.7.67-1,.6-1.81.36-.45.63-1,.18-1.52a1.47,1.47,0,0,0-.16-2.1c0-.47.47-1.22-.59-1.21s-2.78,1.57-3.58,2.45c.36-1.71-1.38-3.8-1.89-2.37a3.07,3.07,0,0,1-.51,3c-.56.91-.2,1.57.24,2.35Z"/><polygon class="cls-12" points="171.28 126.52 164.37 135.07 168.73 139.18 175.27 128.65 171.28 126.52"/><path class="cls-13" d="M169,157.67l3.21-10.87.59-4.05a7.65,7.65,0,0,0-1.33-5.55h0a5.77,5.77,0,0,1-.68-5.46l.63-1.64-.16-3.58,7.38-3.87h0v0l7.38,3.88-.16,3.58.63,1.63a5.78,5.78,0,0,1-.68,5.47h0a7.63,7.63,0,0,0-1.33,5.54l.59,4.06.83,10.93-7.26-.06v0Z"/><path class="cls-14" d="M177.81,127.28h1.32a1,1,0,0,0,1-1v-5.43h-3.3v5.43A1,1,0,0,0,177.81,127.28Z"/><path class="cls-14" d="M182,115.25l.17,5.76a3.71,3.71,0,0,1-3.65,3.82h0a3.71,3.71,0,0,1-3.76-3.87l.24-5.66Z"/><path class="cls-2" d="M183.36,119.79h0c-.14-2.49-3.42-3.66-5.84-3.66-3.28.07-4.36,5.47-5.21.46-.26-1.54.35-1.9,2-4.41,1.14-1.72,4.59-2.34,7.15-.19S184.13,117.11,183.36,119.79Z"/><path class="cls-14" d="M172.91,169.3c-.07.17-3,4.34-3,4.34l-.51,4,4-1.33,0-2.25Z"/><path class="cls-2" d="M160.45,179.73s.64-5.67,9.44-6.09a4.29,4.29,0,0,0,3.51,2.68l.23,4.06Z"/><path class="cls-14" d="M173.45,151.38c1.71.73,2.91,1.52,2.87,3.38-.1,4.39-2.88,19.31-2.88,19.31a6.38,6.38,0,0,1-3.55-.43s-.64-10.51-.88-18.18c-.08-2.34,1.65-4.93,4.44-4.08Z"/><path class="cls-14" d="M184.05,168.94c.07.17,3,4.34,3,4.34l.52,4-4-1.33,0-2.25Z"/><path class="cls-2" d="M196.51,179.37s-.63-5.67-9.44-6.09a4.27,4.27,0,0,1-3.5,2.68l-.23,4.06Z"/><path class="cls-14" d="M183.57,150.66c-1.7.73-2.91,1.53-2.87,3.38.11,4.39,2.88,19.31,2.88,19.31a8.3,8.3,0,0,0,3.49-.07s.71-10.87,1-18.54c.07-2.34-1.65-4.93-4.45-4.08Z"/><rect class="cls-15" x="163.25" y="129.75" width="19.89" height="13.43"/><path class="cls-16" d="M174.6,136.46a1.41,1.41,0,1,1-1.4-1.4A1.41,1.41,0,0,1,174.6,136.46Z"/><rect class="cls-17" x="169.05" y="147.58" width="18.98" height="10.96" rx="3.3"/><polygon class="cls-13" points="188.04 152.25 187.9 160.3 168.78 159.8 169.11 151.67 181.31 150.49 188.04 152.25"/><path class="cls-18" d="M117.68,17.91c-49,0-50.15,61.29-31.41,80.65,11.84,12.24,17.22,29.95,17.22,29.95l14.19,5.07,14.19-5.07s5.38-17.71,17.22-29.95C167.83,79.2,166.69,17.91,117.68,17.91Z"/><path class="cls-19" d="M122.72,166.28a5,5,0,1,1-5-5A5,5,0,0,1,122.72,166.28Z"/><path class="cls-20" d="M107.62,55a3.63,3.63,0,0,0-3.11,1.76c-1.62,2.65-2.4,6.17-2.29,10.47.27,11.77,3.71,19.86,10.25,24.18l-1-32.69a3.77,3.77,0,0,0-2.86-3.58,4.1,4.1,0,0,0-1-.14Zm19.69,21.83a2.41,2.41,0,0,0-.64.09,2.3,2.3,0,0,0-1.73,2.21c-.08,3.68-.15,9.43-.2,15.86a7.65,7.65,0,0,0,7-8.82,23.62,23.62,0,0,0-2.5-8.23,2.29,2.29,0,0,0-2-1.11Zm-2.8,57.12h-.43c0-.3.08-21.59.22-38.51q-.37,0-.75,0a24.51,24.51,0,0,1-10.63-3.19l1.22,41.2-.43,0-1.23-41.49c-6.82-4.35-10.41-12.61-10.69-24.71-.11-4.39.69-8,2.35-10.7a4.08,4.08,0,0,1,4.61-1.82,4.21,4.21,0,0,1,3.18,4l1,33A23.71,23.71,0,0,0,123.59,95q.36,0,.72,0c0-6.44.12-12.21.2-15.89a2.77,2.77,0,0,1,5.12-1.4,23.47,23.47,0,0,1,2.56,8.38,8.07,8.07,0,0,1-7.46,9.32C124.59,112.32,124.51,133.63,124.51,133.93Z"/><path class="cls-19" d="M107.62,55.25a3.36,3.36,0,0,0-1.65.43,3.44,3.44,0,0,0-1.23,1.2A14.32,14.32,0,0,0,103,61.41a24.45,24.45,0,0,0-.5,5.8A40.34,40.34,0,0,0,105.24,82a20.16,20.16,0,0,0,6.94,8.89l-1-32.16a3.52,3.52,0,0,0-.76-2.11,3.6,3.6,0,0,0-1.9-1.22h0a4.1,4.1,0,0,0-.48-.1,3.59,3.59,0,0,0-.47,0Zm19.69,21.83a1.27,1.27,0,0,0-.28,0l-.29.05a2.06,2.06,0,0,0-1.54,2c0,1.74-.07,3.95-.1,6.48,0,2.72-.07,5.81-.09,9.08a7.38,7.38,0,0,0,6.5-8.49,38.24,38.24,0,0,0-1.06-4.81A15,15,0,0,0,129,78.06a2,2,0,0,0-.74-.72,2,2,0,0,0-1-.26Zm-2.8,57.12h-.7v-.26c0-.2,0-9.67.1-21,0-5.61.07-11.68.12-17.29h-.11l-.39,0a27.78,27.78,0,0,1-5.8-1.07,21.86,21.86,0,0,1-4.53-1.91l1.22,41-1,0-1.23-41.62a20.75,20.75,0,0,1-7.79-9.49,41.22,41.22,0,0,1-2.91-15.35,25.46,25.46,0,0,1,.52-6.05,15.47,15.47,0,0,1,1.88-4.8h0a4.37,4.37,0,0,1,2.11-1.8,4.45,4.45,0,0,1,2.78-.13h0A4.53,4.53,0,0,1,111.23,56a4.47,4.47,0,0,1,1,2.68l1,32.83a20.27,20.27,0,0,0,4.7,2.11,27.2,27.2,0,0,0,5.74,1.07l.35,0H124c0-3.29.06-6.39.1-9.12,0-2.54.06-4.76.1-6.5a3,3,0,0,1,.63-1.82,3.08,3.08,0,0,1,1.62-1.06,3,3,0,0,1,3.37,1.34,14.72,14.72,0,0,1,1.5,3.51,37.33,37.33,0,0,1,1.1,5,8.31,8.31,0,0,1-2.14,7A8.25,8.25,0,0,1,125,95.65c0,5.62-.09,11.7-.12,17.33-.07,11.29-.1,20.75-.1,21v.27Z"/><path class="cls-19" d="M132.52,124.17c-2.76,4-8.37,6.76-14.84,6.76s-12.08-2.75-14.84-6.76a7.81,7.81,0,0,0-2.89,6.07v18.11a17.72,17.72,0,0,0,17.73,17.72h0a17.72,17.72,0,0,0,17.73-17.72V130.24A7.81,7.81,0,0,0,132.52,124.17Z"/><rect class="cls-8" x="119" y="139.61" width="2.22" height="17.9" transform="translate(-44.18 51.06) rotate(-20.36)"/><rect class="cls-9" x="114.14" y="139.09" width="7.23" height="2.85" rx="0.86"/><rect class="cls-8" x="115.28" y="141.94" width="5.16" height="0.72"/><rect class="cls-8" x="136.49" y="147.45" width="17.9" height="2.22" transform="translate(-44.44 233.23) rotate(-69.64)"/><rect class="cls-9" x="144.18" y="139.09" width="7.23" height="2.85" rx="0.86"/><rect class="cls-8" x="145.11" y="141.94" width="5.16" height="0.72"/><rect class="cls-10" x="118.02" y="173.52" width="29.51" height="2.85" rx="0.86"/><rect class="cls-8" x="122.99" y="157.77" width="1.94" height="17.58"/><rect class="cls-8" x="140.62" y="157.86" width="1.94" height="17.59"/><rect class="cls-9" x="120.29" y="155.05" width="24.97" height="2.85" rx="0.86"/><rect class="cls-8" x="123" y="157.91" width="19.55" height="0.87"/><path class="cls-11" d="M120.51,128.7a55,55,0,0,0-5.26,11.6,2,2,0,0,0,1.2,2.41l0,0a2,2,0,0,0,2.6-1.3,63.84,63.84,0,0,1,4.47-11,1.72,1.72,0,0,0-1.24-2.52h-.06A1.74,1.74,0,0,0,120.51,128.7Z"/><polygon class="cls-12" points="123.82 123.15 116.36 132.38 121.07 136.82 128.13 125.45 123.82 123.15"/><path class="cls-11" d="M143.75,128.53a55.12,55.12,0,0,1,4.91,11.76,2,2,0,0,1-1.27,2.37h0a2,2,0,0,1-2.56-1.37,63.8,63.8,0,0,0-4.14-11.16,1.72,1.72,0,0,1,1.31-2.48H142A1.74,1.74,0,0,1,143.75,128.53Z"/><polygon class="cls-12" points="139.78 123.17 147.23 132.39 142.53 136.83 135.47 125.46 139.78 123.17"/><polygon class="cls-21" points="142.21 148.66 138.75 145.06 137.62 137.4 139.59 127.03 139.78 123.17 131.8 118.98 131.79 118.99 131.79 118.97 123.82 123.15 124 127.02 125.97 137.38 124.85 145.04 121.39 148.65 131.8 149.82 142.21 148.66"/><path class="cls-14" d="M132,124h0a1.78,1.78,0,0,1-1.78-1.78v-4.15a1,1,0,0,1,1-1h1.54a1,1,0,0,1,1,1v4.15A1.78,1.78,0,0,1,132,124Z"/><path class="cls-14" d="M128.17,111l-.19,6.22a4,4,0,0,0,3.94,4.12h0a4,4,0,0,0,4.06-4.17l-.26-6.11Z"/><path class="cls-22" d="M141.88,145.12s-15.26-2.15-22.67,3.35c-1.79,5.25-3,17-.24,24.73a26.7,26.7,0,0,0,4.9-1.07s0-9.56,2-17C138.93,155.4,142.71,156.71,141.88,145.12Z"/><path class="cls-14" d="M118.07,139.6a.73.73,0,0,0-.23-.16,1.74,1.74,0,0,0-.78-.35,1.78,1.78,0,0,0-2,1.47,1.81,1.81,0,0,0,.16,1.06.69.69,0,0,0,.21.33h0a7.52,7.52,0,0,0,1.84,4.2c.77.84,1.11.71,2,.63.49.39,1.08.67,1.64.18a1.61,1.61,0,0,0,2.27-.19c.51,0,1.32.49,1.3-.65s-1.72-3-2.68-3.84c1.85.37,4.1-1.52,2.55-2.06a3.33,3.33,0,0,1-3.29-.53c-1-.6-1.69-.2-2.54.28Z"/><path class="cls-22" d="M124.2,145.12s15.26-2.15,22.66,3.35c1.8,5.25,3,17,.24,24.73a26.87,26.87,0,0,1-4.9-1.07s0-9.56-2-17C127.15,155.4,123.36,156.71,124.2,145.12Z"/><path class="cls-14" d="M145.65,139.78a.72.72,0,0,1,.21-.18,1.76,1.76,0,0,1,2.77,2,.84.84,0,0,1-.18.35h0a7.5,7.5,0,0,1-1.6,4.3c-.72.88-1.06.78-1.92.74-.47.41-1,.73-1.63.27a1.59,1.59,0,0,1-2.27-.07c-.51.06-1.3.57-1.34-.57s1.55-3.08,2.46-4c-1.83.47-4.17-1.3-2.66-1.92a3.33,3.33,0,0,0,3.26-.71c.95-.65,1.68-.29,2.55.14Z"/><rect class="cls-23" x="117.95" y="129.68" width="27.43" height="18.52"/><path class="cls-16" d="M133.61,138.94a1.95,1.95,0,1,1-2-1.94A1.94,1.94,0,0,1,133.61,138.94Z"/><path class="cls-2" d="M125.65,114.3s.24,2,1.78,1.56c.67-.2.81,0,1.26.83s1.94,1.22,2.1.09,1.26-1.83,1.46-1.31.85,1.39,1.25,1,0-2,1.1-1,1.33,1.61,1.86.78.12-1.74.57-2.31,1.05-.95,1.05-1.74a2,2,0,0,0-1.3-2c-1-.48-1-1.87-1.82-1.92s-2.09,1-2.9.51-2.32-.49-2.4.25c-.1.89-.09,1.5-.94,1.37s-1.65-.26-2.1.61.49,1.39.12,2C126.51,113.52,125.49,113.47,125.65,114.3Z"/><path class="cls-2" d="M116.12,181.58s-2.49-3.41,2.85-8.38c0,0,4.6-.73,4.9-1.07l2.12,3.93Z"/><path class="cls-2" d="M150,181.5s2.49-3.4-2.85-8.37c0,0-4.6-.73-4.9-1.08L140.11,176Z"/><path class="cls-22" d="M94.57,114.53l8.81,4.5,0-4.25-8.66-4.71a1.27,1.27,0,0,0-1.65.84h0A3.11,3.11,0,0,0,94.57,114.53Z"/><path class="cls-22" d="M111.45,109.83l-10,5.28-.33,1.91,2.14,1.93,10.16-6.31A3.46,3.46,0,0,0,111.45,109.83Z"/><path class="cls-14" d="M112,109.75a.68.68,0,0,0-.13.18,1.28,1.28,0,0,0-.27.63,1.41,1.41,0,0,0,1.17,1.62,1.33,1.33,0,0,0,.84-.13.57.57,0,0,0,.27-.16h0a6,6,0,0,0,3.35-1.48c.67-.62.57-.89.5-1.57.31-.4.54-.87.15-1.32a1.29,1.29,0,0,0-.16-1.81c0-.41.39-1.06-.52-1s-2.39,1.39-3.06,2.15c.28-1.48-1.23-3.27-1.66-2a2.63,2.63,0,0,1-.42,2.63c-.47.79-.15,1.36.23,2Z"/><path class="cls-14" d="M83.64,173.22c2.45-2.3,3.71.1,3.53.41l-.43,4.18-3.42-1.41,0-.76Z"/><path class="cls-2" d="M96.05,99s3,3,1.78,19.27c0,0-6.91-11.44-12.21-7.9,0,0-1-10.39,2.61-11.83C91.15,97.4,96.05,99,96.05,99Z"/><path class="cls-11" d="M93.13,132.14c.32.14,5.14,1.69,5.14,1.69s4.38,16.12,3.89,20.42-.53,19.65-.53,19.65a8.89,8.89,0,0,1-3.41.18S95.54,160,95.51,159a5.55,5.55,0,0,1,.82-2.37s-7.56-10.1-7.89-18.64S93.13,132.14,93.13,132.14Z"/><path class="cls-14" d="M94.64,132.44c.25.25,4.14,3.51,4.14,3.51s-2,16.58-4.06,20.38-7.85,18-7.85,18a8.86,8.86,0,0,1-3.23-1.12s2.81-14.09,3.14-15a5.63,5.63,0,0,1,1.66-1.89s-4.59-12.76-1.69-20.8S94.64,132.44,94.64,132.44Z"/><path class="cls-2" d="M98.13,135.73l1.73,1.61s3.17,10.72,2.43,15.5c0,0-10.77,2.45-15.05.37,0,0-4.65-9.94-1-15.18C90.3,133,98.13,135.73,98.13,135.73Z"/><path class="cls-12" d="M93.47,107.89s-4.16.93-5.91,4.27c3,11.41-5.54,19.74-2.61,29.71,5.83.91,11.21-2.55,14.91-4.53-3.67-8.62,1.06-14.91.38-18.45C97.44,114.75,93.47,107.89,93.47,107.89Z"/><path class="cls-14" d="M93.61,111.39h-.86a1,1,0,0,1-1-1v-4.56H94.6v4.56A1,1,0,0,1,93.61,111.39Z"/><path class="cls-14" d="M90.63,100.59l-.15,5a3.19,3.19,0,0,0,3.14,3.3h0a3.21,3.21,0,0,0,3.25-3.34l-.21-4.9Z"/><path class="cls-2" d="M86.76,104.4s1.65,2.63,1.77.77c.15-2.25,3.85-2.65,9-2.57,1.47,0,1.24-3.44-.43-5.25-1.31-1.42-5.73-1.94-8.37,0S86,102,86.76,104.4Z"/><path class="cls-22" d="M86,116l4.07,9,2.61-3.35-3.83-9.1a1.25,1.25,0,0,0-1.8-.38h0A3.1,3.1,0,0,0,86,116Z"/><path class="cls-2" d="M92.16,100.62s-.72,13.38,0,17.17c0,0-4.93,1.59-6.83.52C84.42,94.83,88.09,99.15,92.16,100.62Z"/><path class="cls-24" d="M94.34,179.42s.47-4.88-7.17-5.79a3.7,3.7,0,0,1-3.89,2l-.45,3.53Z"/><path class="cls-11" d="M98.07,173.49c2.45-2.3,3.71.09,3.53.4l-.43,4.18-3.42-1.41,0-.75Z"/><path class="cls-24" d="M108.77,179.68s.47-4.88-7.17-5.79a3.69,3.69,0,0,1-3.88,2l-.46,3.52Z"/><path class="cls-14" d="M99.82,117.25a.55.55,0,0,0-.14.17,1.47,1.47,0,0,0-.13,1.76,1.49,1.49,0,0,0,1.71.48.62.62,0,0,0,.28-.14h0a5.89,5.89,0,0,0,3.45-1.23c.71-.57.63-.84.61-1.53.34-.37.6-.83.24-1.3a1.28,1.28,0,0,0,0-1.82c.05-.41.47-1-.44-1.08s-2.48,1.21-3.21,1.92c.39-1.46-1-3.35-1.5-2.15a2.68,2.68,0,0,1-.61,2.6c-.53.75-.26,1.34.08,2Z"/><path class="cls-22" d="M99.71,116.93l-9.53,6.19L90,125.05l2.3,1.72,9.54-7.22A3.49,3.49,0,0,0,99.71,116.93Z"/><path class="cls-2" d="M214.56,140.37h-1.09v-4h1.09v4Zm-1.09-4.69V134h-5.25v9.18h5.25V141h1.79v-5.32Z"/><path class="cls-2" d="M229,115.57s5.2-4,8.14-2.68C244,116,249,137,248.91,137.68c-1.57,1.58-11.85-5-11.85-5-.06-.72.19.83,0,0-3.08,1.05-5.81-5.65-5.81-5.65A52.75,52.75,0,0,1,229,115.57Z"/><path class="cls-22" d="M226.71,162.39c0,.15-1.87,4-1.87,4l.25,3.36,3.25-1.74L228,166.2Z"/><path class="cls-25" d="M217.72,172.91s-.43-4.73,7.12-6.49a3.84,3.84,0,0,0,3.5,1.62l.91,3.28Z"/><path class="cls-25" d="M222.13,148c3.49-2.7,19.87-7,19.87-7s2.95-10.27,6.22,1c0,0,2.38,7-4.71,10.39-5.41,2.58-13,1.1-17.23-.25a6.62,6.62,0,0,1-4.16-4.16h0Z"/><path class="cls-25" d="M227.07,147.91c.29.31,2.54,6.83,2.48,7.68-.33,4.92-1,10.35-1,10.35a10.57,10.57,0,0,1-3.78.46s-2-9.58-3.53-15.8a2.75,2.75,0,0,1,3.39-3.18Z"/><path class="cls-11" d="M235.26,138.76a48.88,48.88,0,0,1-10.67,3.58,1.74,1.74,0,0,1-2-1.28v0a1.76,1.76,0,0,1,1.38-2.16,56,56,0,0,0,10.1-2.94,1.53,1.53,0,0,1,2.11,1.32v.06A1.53,1.53,0,0,1,235.26,138.76Z"/><rect class="cls-26" x="230.2" y="130.78" width="12.31" height="3.31" rx="1.13" transform="translate(30 307.98) rotate(-69.65)"/><path class="cls-11" d="M235.38,125.05l-1,7.73,7.63.74-1.26-6.64a4.19,4.19,0,0,0-3.17-3.3h0A1.76,1.76,0,0,0,235.38,125.05Z"/><path class="cls-11" d="M217.14,140.18a5.12,5.12,0,0,0,.7-1.22,2.23,2.23,0,0,1,.2-.58c-1,0-1-1-1-1,.26.16,1,0,1.28-.15a.23.23,0,0,1,.23-.08,1.38,1.38,0,0,1,.42.16,2.3,2.3,0,0,1,1.34.09,19.36,19.36,0,0,0,4.29,1.43l.49.26a1.86,1.86,0,0,1,.89,1.74c0,.55-.25.59-.25.59-.86,1.53-3.37,1.18-4.5-.78-.79-1.36-2.7-.42-3.19,0s-.71.54-1,.49C216.26,140.73,217,140.51,217.14,140.18Z"/><path class="cls-11" d="M223.47,141.69s-1,1-2,.65a5.3,5.3,0,0,0-1.88.13,1.21,1.21,0,0,1,.14-1.33,2.41,2.41,0,0,1,1.93-.33C222.05,140.94,222.69,139.46,223.47,141.69Z"/><path class="cls-22" d="M217,165.18c-.13.1-4.28,1.88-4.28,1.88l-2.24,2.78,3.64.85,1.08-1.67Z"/><path class="cls-2" d="M202.81,167.28s3.1-4,9.92-.22a3.79,3.79,0,0,0,1.4,3.63l-1.7,3.16Z"/><path class="cls-2" d="M222.25,151.53c3.74-2.76,21.13-7.32,21.13-7.32s3.29-10.35,6.57.91c0,0,2.4,7-5.15,10.51-5.77,2.68-13.74,1.32-18.22,0a6.53,6.53,0,0,1-4.34-4.11h0Z"/><path class="cls-2" d="M227.74,154.15a49.07,49.07,0,0,1-3.72,7.66c-3.8,3.61-8.24,7.36-8.24,7.36a10,10,0,0,1-3.11-2.21s5.45-8.81,8.82-14.69a2.84,2.84,0,0,1,4.79-.18Z"/><path class="cls-14" d="M237.72,126.47l.55-.55a.83.83,0,0,0,0-1.17L235.53,122l-1.72,1.71,2.74,2.77A.83.83,0,0,0,237.72,126.47Z"/><path class="cls-22" d="M236.54,123s5,.84,10.24,11.3c4.15,10.52,4.4,13.85,3.21,16.3-4.36,2.49-8.53-1.75-10.83-5.36-2.78-2.17-1.54-4.11-1.82-8.8-6.78-.68-.72-5.65-2.5-10Z"/><path class="cls-14" d="M231.26,137.44a48.74,48.74,0,0,1-11.26,0,1.74,1.74,0,0,1-1.5-1.85v0a1.77,1.77,0,0,1,2-1.62,55.26,55.26,0,0,0,10.51.44,1.53,1.53,0,0,1,1.57,1.93v.05A1.55,1.55,0,0,1,231.26,137.44Z"/><path class="cls-14" d="M230.45,136.58h0a1.64,1.64,0,0,0,2.32-.24l5.66-7a1.64,1.64,0,0,0-.24-2.32h0a1.65,1.65,0,0,0-2.33.24l-5.66,7A1.65,1.65,0,0,0,230.45,136.58Z"/><path class="cls-14" d="M213.64,133a5.39,5.39,0,0,0,1-.93,2,2,0,0,1,.38-.49,1,1,0,0,1-.62-1.25c.2.24.95.26,1.26.26a.25.25,0,0,1,.25,0,1.49,1.49,0,0,1,.35.29,2.34,2.34,0,0,1,1.24.51,19,19,0,0,0,3.6,2.73l.39.39a1.91,1.91,0,0,1,.28,1.95c-.2.5-.42.47-.42.47-1.3,1.18-3.57,0-4-2.18-.31-1.54-2.42-1.25-3-1a1.5,1.5,0,0,1-1.12.13C212.62,133.24,213.35,133.26,213.64,133Z"/><path class="cls-14" d="M219.15,136.46s-1.29.66-2.1,0a5.18,5.18,0,0,0-1.82-.47,1.23,1.23,0,0,1,.56-1.22,2.4,2.4,0,0,1,1.93.3C218,135.3,219.12,134.1,219.15,136.46Z"/><path class="cls-14" d="M235.33,115.54l1.53,4.85a3.27,3.27,0,0,1-2.19,4.12h0a3.27,3.27,0,0,1-4.12-2.38l-1.16-4.87Z"/><path class="cls-2" d="M239.41,117.63s-.89,2.65-1.44,1.11c-.67-1.86-.55-2.65-5.11-1-1.08.4-4.12,2.81-4.54-.49a5.11,5.11,0,0,1,.5-3.22c.84-1.55,4.27-2.84,7.15-1.88S239.56,115.39,239.41,117.63Z"/><path class="cls-27" d="M105,136.36h1.1v4H105v-4Zm-.69-.69V141h1.79v2.18h5.24V134h-5.24v1.68Z"/><rect class="cls-9" x="154.58" y="147.52" width="4.16" height="32.59"/><path class="cls-1" d="M169.72,182H143.59V181a2.46,2.46,0,0,1,2.46-2.46h21.2a2.47,2.47,0,0,1,2.47,2.46Z"/><path class="cls-28" d="M224.88,147.75H88.43a3,3,0,0,1-3-3v-1.54H227.91v1.54A3,3,0,0,1,224.88,147.75Z"/><path class="cls-1" d="M219.91,147.75H93.4a2.35,2.35,0,0,0,2.35,2.35H219.91Z"/><rect class="cls-8" x="85.77" y="142.35" width="17.41" height="0.82"/><polygon class="cls-12" points="103.17 143.17 110.76 127.47 110.31 127.27 102.44 142.8 103.17 143.17"/><rect class="cls-8" x="208.47" y="142.35" width="17.44" height="0.83"/><polygon class="cls-12" points="208.47 143.18 200.87 127.29 201.32 127.08 209.2 142.81 208.47 143.18"/><path class="cls-29" d="M158,140.36h-1.1v-4H158v4Zm-1.1-4.68V134h-5.24v9.18h5.24V141h1.79v-5.32Z"/><path class="cls-11" d="M78.67,140a57,57,0,0,0,13.18,0,2,2,0,0,0,1.75-2.17v0a2.06,2.06,0,0,0-2.34-1.89,65.86,65.86,0,0,1-12.3.54,1.78,1.78,0,0,0-1.84,2.25l0,.06A1.79,1.79,0,0,0,78.67,140Z"/><rect class="cls-26" x="73.15" y="126.21" width="3.87" height="14.41" rx="1.35" transform="matrix(0.78, -0.63, 0.63, 0.78, -67.27, 77.09)"/><path class="cls-12" d="M73.39,124.87l4.67,7.84-4.7,2.8-5.17-6.62A4.91,4.91,0,0,1,70.46,124h0A2.06,2.06,0,0,1,73.39,124.87Z"/><path class="cls-11" d="M99.29,134.8a5.72,5.72,0,0,1-1.22-1.09,2.8,2.8,0,0,0-.46-.57,1.12,1.12,0,0,0,.73-1.46c-.23.27-1.11.31-1.48.31a.24.24,0,0,0-.28,0,1.85,1.85,0,0,0-.41.33,2.79,2.79,0,0,0-1.46.6,22,22,0,0,1-4.21,3.2l-.44.47a2.17,2.17,0,0,0-.34,2.27c.24.59.5.56.5.56,1.52,1.37,4.18,0,4.7-2.56.36-1.8,2.83-1.48,3.51-1.24a1.74,1.74,0,0,0,1.32.15C100.48,135.07,99.62,135.09,99.29,134.8Z"/><path class="cls-11" d="M92.84,138.84s1.51.78,2.45,0a6.52,6.52,0,0,1,2.14-.56,1.44,1.44,0,0,0-.66-1.42,2.86,2.86,0,0,0-2.26.35C94.14,137.49,92.87,136.08,92.84,138.84Z"/><path class="cls-11" d="M86.25,167.45c.07.17,3.11,4.17,3.11,4.17l.52,3.9-4.14-1.2,0-2.2Z"/><path class="cls-25" d="M99.08,177.33s-.65-5.52-9.72-5.71a4.49,4.49,0,0,1-3.62,2.7l-.24,4Z"/><path class="cls-11" d="M82.34,151a52.46,52.46,0,0,0-.2,9.06c1.56,5.55,2.75,8.08,3.55,12,1.45,1.13,3.79-.46,3.79-.46s0-11.44.23-18.94a3.23,3.23,0,0,0-4.65-2.83Z"/><path class="cls-25" d="M87.75,149.69c-4.45-2.62-24.09-5.18-24.09-5.18s-4.94-11.48-7.08,2.08c0,0-1.73,8.49,7,11.37,6.66,2.21,15.23-.62,20-2.82a7.74,7.74,0,0,0,4.22-5.44h0Z"/><path class="cls-2" d="M88.13,153.79c-4.75-2.67-25.61-5.4-25.61-5.4s-5.34-11.54-7.5,2c0,0-1.76,8.48,7.53,11.45,7.08,2.26,16.14-.5,21.15-2.66a7.64,7.64,0,0,0,4.43-5.41Z"/><path class="cls-14" d="M96.68,168.66c.17.08,5.34,1.19,5.34,1.19l3.19,2.68-4,1.8-1.6-1.68Z"/><path class="cls-2" d="M113.46,167.88S109,164,102,169.86a4.44,4.44,0,0,1-.79,4.49l2.66,3.25Z"/><path class="cls-14" d="M83.67,155.38a6.17,6.17,0,0,0,.87,6.5,15.28,15.28,0,0,0,3.19,2.83c3.94,2.64,6.85,3.63,11.84,7.93,1.85.12,2.45-2.79,2.45-2.79s-7.62-9.33-12.8-15.34a3.33,3.33,0,0,0-5.55.87Z"/><path class="cls-14" d="M70.65,125.6l-.57-.63a1,1,0,0,1,.07-1.41l3.36-3,1.9,2.1-3.36,3A1,1,0,0,1,70.65,125.6Z"/><path class="cls-14" d="M73.69,114.64l-1.49,4.73a3.18,3.18,0,0,0,2.13,4h0a3.19,3.19,0,0,0,4-2.32l1.13-4.74Z"/><path class="cls-2" d="M71.31,117.22s.65,2.78,1.22,1.1c.7-2,.64-2.86,4.61-1.3.94.37,3.9,2.3,5.49-.91s-1.28-.61-2.08-3.08c-.54-1.69-3.25-3-5.87-1.83S71.3,114.82,71.31,117.22Z"/><path class="cls-22" d="M72.27,121.6s-5.85.67-12.69,12.55c-5.51,12-6,15.9-4.79,18.84,4.94,3.19,10.08-1.51,13-5.57,5.16-3.61-.63-7.16,6.25-21.73Z"/><path class="cls-14" d="M55.51,128a57.41,57.41,0,0,0,3.7,12.65,2,2,0,0,0,2.58,1.08h0A2.07,2.07,0,0,0,63,139a66.24,66.24,0,0,1-3.94-11.67,1.78,1.78,0,0,0-2.67-1.14l-.05,0A1.8,1.8,0,0,0,55.51,128Z"/><rect class="cls-30" x="55.33" y="123.82" width="14.41" height="3.87" rx="1.35" transform="translate(-43.63 33.8) rotate(-22.66)"/><path class="cls-12" d="M72.21,126.57l-8.86,2.89-2.18-5.63,7.22-2.62a4.92,4.92,0,0,1,4.76,2.46h0A2.07,2.07,0,0,1,72.21,126.57Z"/><path class="cls-14" d="M66.26,146.37a6,6,0,0,1,.71-1.48,2.56,2.56,0,0,0,.42-.59,1.12,1.12,0,0,0,1.61.29c-.33-.15-.61-1-.71-1.33a.27.27,0,0,0-.08-.28,1.86,1.86,0,0,0-.43-.3,2.71,2.71,0,0,0-1-1.23,21.74,21.74,0,0,1-4.24-3.15L62,138a2.2,2.2,0,0,0-2.28.31c-.5.39-.39.63-.39.63-.9,1.85,1.12,4,3.76,3.8,1.83-.15,2.2,2.31,2.16,3a1.82,1.82,0,0,0,.22,1.31C66.33,147.59,66.07,146.77,66.26,146.37Z"/><path class="cls-14" d="M60.59,141.3s-.33,1.67.7,2.35a6.33,6.33,0,0,1,1.13,1.89,1.4,1.4,0,0,0,1.18-1,2.88,2.88,0,0,0-1-2.08C62.25,142.17,63.25,140.56,60.59,141.3Z"/><path class="cls-2" d="M78.62,121.34A11.31,11.31,0,0,1,75.11,120l-.65,1.8s-1.82-2.56-1.72-4.28l-1.11-.24a10.09,10.09,0,0,0,.64,4.34c.86,2,2,3.83,3.33,4.29C75.6,125.89,77.67,125.32,78.62,121.34Z"/><path class="cls-12" d="M56.57,141.73l-2.28.61a1.18,1.18,0,0,1-1.44-.83l-2.05-7.65a1.17,1.17,0,0,1,.84-1.44l2.27-.61Z"/><rect class="cls-9" x="52.69" y="129.91" width="3.53" height="14.57" rx="1.06" transform="translate(-33.64 18.76) rotate(-15)"/><rect class="cls-8" x="48.99" y="136.13" width="3.31" height="4.01" transform="translate(-36.83 19.84) rotate(-16.35)"/><rect class="cls-8" x="53.15" y="138.46" width="1.27" height="23.46" transform="translate(-40.12 21.22) rotate(-16.36)"/><rect class="cls-10" x="63.13" y="168.57" width="21.13" height="2.94" transform="translate(-111.41 161.08) rotate(-63.8)"/><rect class="cls-10" x="52.56" y="168.57" width="21.13" height="2.94" transform="translate(-117.31 151.59) rotate(-63.8)"/><rect class="cls-10" x="52.33" y="177.86" width="24.86" height="2.85" rx="0.86"/><rect class="cls-9" x="67.8" y="152.16" width="17.9" height="2.22" transform="translate(-94.32 142.38) rotate(-59.76)"/><rect class="cls-9" x="62.43" y="143.43" width="20.47" height="2.85" rx="0.86"/><rect class="cls-9" x="55.99" y="159.39" width="24.97" height="2.85" rx="0.86"/><rect class="cls-8" x="59.06" y="162.25" width="19.55" height="0.87"/><rect class="cls-9" x="66.74" y="146.28" width="14.59" height="0.72"/><path class="cls-12" d="M254.74,137.93l2.27.61a1.17,1.17,0,0,0,1.44-.84l2.05-7.65a1.17,1.17,0,0,0-.83-1.44l-2.28-.61Z"/><rect class="cls-9" x="249.55" y="131.62" width="14.57" height="3.53" rx="1.06" transform="translate(61.55 346.99) rotate(-75.01)"/><rect class="cls-8" x="258.66" y="132.67" width="4.01" height="3.31" transform="translate(58.41 346.64) rotate(-73.65)"/><rect class="cls-8" x="245.79" y="145.75" width="23.46" height="1.27" transform="matrix(0.28, -0.96, 0.96, 0.28, 44.55, 352.27)"/><rect class="cls-10" x="236.14" y="155.67" width="2.94" height="21.13" transform="translate(-48.98 121.97) rotate(-26.2)"/><rect class="cls-10" x="246.71" y="155.67" width="2.94" height="21.13" transform="translate(-47.89 126.64) rotate(-26.2)"/><rect class="cls-10" x="234.11" y="174.05" width="24.86" height="2.85" rx="0.86"/><rect class="cls-9" x="233.45" y="140.52" width="2.22" height="17.9" transform="translate(-43.36 138.46) rotate(-30.24)"/><rect class="cls-9" x="228.41" y="139.62" width="20.47" height="2.85" rx="0.86"/><rect class="cls-9" x="230.35" y="155.58" width="24.97" height="2.85" rx="0.86"/><rect class="cls-8" x="232.7" y="158.44" width="19.55" height="0.87"/><rect class="cls-9" x="229.97" y="142.47" width="14.59" height="0.72"/></svg>