<svg xmlns="http://www.w3.org/2000/svg" viewBox="0 0 304 184"><defs><style>.cls-1{isolation:isolate;}.cls-2{fill:#ffe2c0;}.cls-2,.cls-5,.cls-7{fill-rule:evenodd;}.cls-3{fill:#316d8c;}.cls-4{fill:#285973;}.cls-5,.cls-8{fill:#ffe0bb;}.cls-6{fill:#f2f2f2;}.cls-11,.cls-6{mix-blend-mode:multiply;}.cls-7{fill:#d6a35e;}.cls-9{fill:#e8a772;}.cls-10{fill:#d14711;}.cls-11{fill:#e6e6e6;}.cls-12{fill:#61a308;}.cls-13{fill:#8a531d;}.cls-14{fill:#7a4410;}</style></defs><title>Artboard 4</title><g class="cls-1"><g id="Layer_1" data-name="Layer 1"><path class="cls-2" d="M183.21,161.26H116.64c0-.64,0-1.26,0-1.87,0-.2,0-.4,0-.61,0-.42,0-.81.1-1.21A39.42,39.42,0,0,1,119,148a42,42,0,0,1,1.78-4.2c.21-.45.45-.91.68-1.36a30.81,30.81,0,0,1,5.27-7c2.58-2.77,5-5.39,6.1-9.95.11-.45.2-.93.29-1.39,0-.25.07-.48.1-.73l.09-.69v0c0-.49.1-1,.11-1.49s.05-1,.05-1.49,0-1,0-1.49-.05-1-.09-1.48c0-.07,0-.16,0-.23-.12-1.48-.29-2.95-.5-4.4-.14-1-.3-2-.49-3.1-.1-.7-.23-1.38-.39-2.07-.06-.32-.12-.66-.19-1s-.11-.65-.2-1-.2-.92-.31-1.37c0-.1,0-.2-.07-.3-.11-.59-.26-1.19-.42-1.78s-.27-1.19-.43-1.78c-.05-.16-.09-.32-.13-.48l-.39-1.45c-1.26-4.66-2.67-9.3-4.2-13.88h0Q124,79,122.27,74.28c-.52-1.43-1.07-2.85-1.62-4.29-.2-.53-.41-1-.62-1.59-.06-.13,0-.3.17-.48h0a7.93,7.93,0,0,1,1.52-1.12l.61-.39c.21-.13.42-.27.64-.39a37,37,0,0,1,7.62-3.23l.9-.27c.27-.09.58-.16.87-.24a53.78,53.78,0,0,1,9.77-1.33c1.91-.12,3.87-.17,5.81-.17h0c1.27,0,2.52,0,3.75,0,2.08.06,4.11.15,6,.28a66.85,66.85,0,0,1,9.81,1.15l.15,0,1.78.52a35.87,35.87,0,0,1,4.39,1.58l.87.4c.47.24.94.47,1.39.74.24.15.5.28.73.42a27,27,0,0,1,2.84,2c.58.41-.82,3-1.07,3.68-3,7.88-5.78,15.89-8,24-.19.71-.39,1.42-.6,2.14-.62,2.29-1.23,4.64-1.76,7s-1,4.83-1.37,7.27c-.2,1.47-.34,3-.42,4.44,0,.08,0,.16,0,.24a38.19,38.19,0,0,0,0,5c0,.31.06.61.1.91s.09.77.16,1.16c0,.22.08.42.13.64s.13.68.22,1c1.16,4.75,3.72,7,6.42,9.88a30.13,30.13,0,0,1,3.23,4c.24.42.51.86.74,1.28.58,1,1.11,2.08,1.62,3.15a43.89,43.89,0,0,1,1.77,4.22,40.36,40.36,0,0,1,2.26,10.12,2.8,2.8,0,0,1,0,.5c0,.27,0,.56,0,.84C183.19,160,183.21,160.64,183.21,161.26Z"/><path class="cls-3" d="M183.21,161.26H116.64c0-.64,0-1.26,0-1.87,0-.2,0-.4,0-.61,0-.42,0-.81.1-1.21A36.61,36.61,0,0,1,119,148h0a44,44,0,0,1,1.81-4.19l0,0c.21-.45.45-.91.68-1.36a30.81,30.81,0,0,1,5.27-7,101.41,101.41,0,0,0,46.7-.09,30.13,30.13,0,0,1,3.23,4c.24.42.51.86.74,1.28.59,1,1.14,2.07,1.68,3.15a41.5,41.5,0,0,1,1.78,4.19,37.11,37.11,0,0,1,2.19,10.15,2.8,2.8,0,0,1,0,.5c0,.27,0,.56,0,.84C183.19,160,183.21,160.64,183.21,161.26Z"/><path class="cls-4" d="M157.81,161.26c0,.19,0,.39-.07.58,0,0,0,.08,0,.11l0,.26a14.54,14.54,0,0,1-.57,2.34,13.61,13.61,0,0,1-7.21,8,13.45,13.45,0,0,1-7.68,1.1l-16.55-2.43-5.28-.78-6.77-1-9.08-1.34L95,166.74h-.08l-4.35-.65A13.59,13.59,0,0,1,79,150.64l0-.28a13.62,13.62,0,0,1,15.44-11.49l24,3.53h0l27.71,4.08a13.22,13.22,0,0,1,3.67,1.09,13.57,13.57,0,0,1,7.76,10.2A12.6,12.6,0,0,1,157.81,161.26Z"/><path class="cls-4" d="M157.6,173.7l51.72-7.61a13.63,13.63,0,0,0,11.49-15.45l0-.28a13.62,13.62,0,0,0-15.45-11.48l-51.72,7.61a13.62,13.62,0,0,0-11.49,15.45l0,.27A13.62,13.62,0,0,0,157.6,173.7Z"/><path class="cls-5" d="M219,154.74c.48,5.3-7,9.75-18.43,13.58h0c-19.47,6.46-50.34,11-72.87,14.63l-5.79,1V171.56c2.69,1.31,16-4.78,31.36-11.77,19.36-8.77,41.91-19,50.31-17.42C215.49,144.58,218.55,149.76,219,154.74Z"/><path class="cls-5" d="M121.87,171.56v12.35c-15.29,0-24.36-4.1-32.89-2.29a49.56,49.56,0,0,1-8.57.83c-1.74-.25-5.43-2.06-5.74-4.4-1.2.27-3-1.61-2.81-2.94s1.18-2.87,5-3c2-1.1,3.22-2.74,4.55-3a8.36,8.36,0,0,1,2.09-.07c4.8.4,12.12,3.64,15.79,2.46,3-1,7.85-6.29,11-6.31S121.87,171.56,121.87,171.56Z"/><path class="cls-6" d="M200.53,168.32c-19.47,6.46-50.34,11-72.87,14.63-2-.38-3.93-.75-5.79-1.16-17.27-3.62-30.65-7.59-38.42-12.69,4.8.4,12.12,3.64,15.79,2.46,3-1,7.85-6.29,11-6.31s11.61,6.31,11.61,6.31c2.69,1.31,16-4.78,31.36-11.77,9.25,4.23,19.28,8.65,23,9.36,3.74-2.74,9.48-6.42,13.37-6.42,3.55,0,6.54,2.29,9.46,4.45Z"/><path class="cls-2" d="M223,172.15c-2-1.08-3.23-2.73-4.56-3-4.42-.84-13.59,3.77-17.89,2.4-3-1-7.82-6.29-11-6.33S178,171.57,178,171.57c-6.06,3-66.63-32-81.67-29.2-11.94,2.2-15,7.39-15.44,12.37C79.53,169.91,143,178.07,178,183.91c15.3,0,24.39-4.11,32.91-2.29a51.59,51.59,0,0,0,8.56.83c1.75-.25,5.45-2.06,5.74-4.4,1.2.26,3-1.61,2.82-3S226.81,172.23,223,172.15Z"/><path class="cls-7" d="M221.65,179.85c-1.42.2-7.45-.57-8.85-.87-8.81-1.92-18.21,2.42-34,2.42C147.3,176,93.61,168.82,81,156.51c3.51,14,63.33,21.79,96.93,27.4,15.3,0,24.39-4.11,32.91-2.29a51.59,51.59,0,0,0,8.56.83c1.65-.23,5-1.86,5.62-4A9.43,9.43,0,0,1,221.65,179.85Z"/><path class="cls-7" d="M227.59,175.21a4.6,4.6,0,0,1-2,2.84,3.24,3.24,0,0,0,2.39-2.84A1,1,0,0,1,227.59,175.21Z"/><path class="cls-7" d="M227.59,175.21a4.6,4.6,0,0,1-2,2.84,3.24,3.24,0,0,0,2.39-2.84A1,1,0,0,1,227.59,175.21Z"/><path class="cls-8" d="M221.65,179.85c-1.42.2-7.45-.57-8.85-.87-8.81-1.92-18.21,2.42-34,2.42C147.3,176,93.61,168.82,81,156.51c3.51,14,63.33,21.79,96.93,27.4,15.3,0,24.39-4.11,32.91-2.29a51.59,51.59,0,0,0,8.56.83c1.65-.23,5-1.86,5.62-4A9.43,9.43,0,0,1,221.65,179.85Z"/><path class="cls-9" d="M227.59,175.21a4.6,4.6,0,0,1-2,2.84,3.24,3.24,0,0,0,2.39-2.84A1,1,0,0,1,227.59,175.21Z"/><path class="cls-10" d="M177.68,89.83a26.55,26.55,0,0,1-3.49-6A10.79,10.79,0,0,1,170,97.77c-.62,2.36-1.2,4.72-1.71,7-.54,2.48-1,4.91-1.3,7.24h-34.1q-.35-2.52-.88-5.17c-.06-.32-.12-.65-.19-1s-.13-.66-.21-1l-.3-1.36c0-.1,0-.2-.07-.3-.28-1.18-.55-2.38-.86-3.57l-.5-1.91a10.82,10.82,0,0,1-4.22-13.91,26.55,26.55,0,0,1-3.49,6l-9.63-12.51,1.07-1.83c0-.07.09-.16.14-.23s0,0,0,0a27.35,27.35,0,0,1,6.16-7.07,3.45,3.45,0,0,1,.28-.23c.33-.26.68-.52,1-.77s.74-.52,1.12-.75a25.39,25.39,0,0,1,3.46-1.92c.41-.18.81-.36,1.22-.52a12.81,12.81,0,0,1,1.39-.52,9.12,9.12,0,0,1,.88-.3l.23-.07.9-.27v0l1.93-.58c2.21,9.14,10.28,15.5,15,21.38a13.82,13.82,0,0,1,2.62,4.17,13.82,13.82,0,0,1,2.62-4.17c4.66-5.88,12.73-12.24,15-21.38l1.92.58v0l.9.27.23.07a28,28,0,0,1,9.1,4.78,3.23,3.23,0,0,1,.27.23,27.35,27.35,0,0,1,6.16,7.07s0,0,0,0a1.42,1.42,0,0,1,.14.23l1.08,1.83Z"/><path class="cls-11" d="M170,97.77c-10.75,4.67-13.15-3.49-20-3.58s-10.32,8.43-20.06,3.58l.5,1.91c.31,1.19.58,2.39.86,3.57,0,.1,0,.2.07.3.1.45.2.91.29,1.36h0A51.47,51.47,0,0,1,145,101.84V112l-3.41,8.53a63.59,63.59,0,0,1-7.48-3.68c-.25-.14-.5-.27-.73-.42a31.58,31.58,0,0,1-.22,7.65c-.08.47-.17.94-.29,1.39l.06,0,8.75,2.55,3.85,1.17a4.58,4.58,0,0,0,1.32.19,4.5,4.5,0,0,0,3.09-1.22,4.48,4.48,0,0,0,3.08,1.22,4.53,4.53,0,0,0,1.32-.19l3.84-1.17,8.76-2.55.12,0a22.21,22.21,0,0,1-.61-3.72,40.11,40.11,0,0,1,0-5.26l-.67.39a63.88,63.88,0,0,1-7.47,3.66l-3.4-8.53V101.87a57.29,57.29,0,0,1,13.38,2.92l0,0c.51-2.32,1.09-4.68,1.71-7Z"/><path class="cls-2" d="M202,102.06,187.32,77.32l-9.64,12.51c3.57,5.06,7.64,8.5,11.08,13.47-8.22,4.13-14.93,9.24-22.32,13.4a66.45,66.45,0,0,1-9,4.29l-3.56-8.94-.48-1.2V98.22a1.73,1.73,0,0,0-1.73-1.74h0a1.72,1.72,0,0,0-1.72,1.74v25.22a3.08,3.08,0,0,0,4,3l3.85-1.17,8.77-2.55,30.75-8.92A8,8,0,0,0,202,102.06Z"/><path class="cls-2" d="M148.19,96.48h0a1.74,1.74,0,0,0-1.72,1.74v12.63l-.48,1.2L142.39,121a65.56,65.56,0,0,1-9-4.3c-7.38-4.15-14.08-9.26-22.31-13.39,3.13-4.53,6.79-7.79,10.11-12.15.33-.43.65-.87,1-1.32l-9.63-12.51-.23.4L97.87,102.06a8,8,0,0,0,4.7,11.69l30.75,8.92,8.76,2.55,3.85,1.17a3.09,3.09,0,0,0,4-3V98.22A1.73,1.73,0,0,0,148.19,96.48Z"/><path class="cls-12" d="M155.74,3.94c0,2.38-2.56,4.34-5.77,4.37s-5.85-1.86-5.88-4.23,2.56-4.34,5.78-4.37S155.71,1.57,155.74,3.94Z"/><path class="cls-13" d="M162.55,14.21c0,7-6.29,29-13.27,29s-12-22-12-29a12.64,12.64,0,0,1,25.27,0Z"/><path class="cls-14" d="M161.25,17.21c0,6.25-5.65,26-11.9,26s-10.76-19.73-10.76-26a11.33,11.33,0,0,1,22.66,0Z"/><path class="cls-5" d="M151.94,67.71h-4.05a6.35,6.35,0,0,1-6.35-6.35V45.17h16.75V61.36A6.35,6.35,0,0,1,151.94,67.71Z"/><path class="cls-7" d="M141.54,56.68V45.17h16.75V56.68s-6,4.69-8.42,4.68S141.54,56.68,141.54,56.68Z"/><path class="cls-2" d="M168.71,29.55c0,.43,0,.87,0,1.31-.69,14.1-12.34,27-18.77,27-6,0-17.3-11.74-18.65-25.56-.09-.9-.13-1.8-.13-2.71a18.78,18.78,0,0,1,11-17.1,18.26,18.26,0,0,1,4.28-1.36,19.14,19.14,0,0,1,3.5-.33A18.8,18.8,0,0,1,168.71,29.55Z"/><path class="cls-13" d="M168.71,29.55c0,.43-.12,2.27-.14,2.71-10.65,0-21.13-5.55-24.71-9.44-2.29-2.46-1.7-6.74-1.73-10.37a18.26,18.26,0,0,1,4.28-1.36,19.14,19.14,0,0,1,3.5-.33A18.8,18.8,0,0,1,168.71,29.55Z"/><path class="cls-13" d="M147.07,15.5a15,15,0,0,1-1.27,6.06c-2.37,5.46-7.85,9.58-14.54,10.7-.09-.9-.13-1.8-.13-2.71a18.78,18.78,0,0,1,11-17.1,18.26,18.26,0,0,1,4.28-1.36A15.09,15.09,0,0,1,147.07,15.5Z"/><path class="cls-5" d="M131.13,29.55v-.13a3,3,0,0,0-2.47,2.93v1a5.69,5.69,0,0,0,4,5.41A29.89,29.89,0,0,1,131.13,29.55Z"/><path class="cls-5" d="M168.71,29.55s0-.09,0-.13a3,3,0,0,1,2.47,2.93v1a5.68,5.68,0,0,1-4,5.41A30.19,30.19,0,0,0,168.71,29.55Z"/><path class="cls-5" d="M153.6,46.12h-7.37v.17a1.45,1.45,0,0,0,1.46,1.45h4.46a1.45,1.45,0,0,0,1.45-1.45Z"/></g></g></svg>