<svg id="Layer_1" data-name="Layer 1" xmlns="http://www.w3.org/2000/svg" viewBox="0 0 102 102"><defs><style>.cls-1{fill:#0cafc4;}</style></defs><title>Artboard 4</title><path class="cls-1" d="M43.29,84H6.4A6,6,0,0,1,.45,78V17.71a6,6,0,0,1,6-6H78.6a6,6,0,0,1,6,6V36.8a2,2,0,0,1-4,0V17.71a2,2,0,0,0-2-2H6.4a2,2,0,0,0-2,2V78a2,2,0,0,0,2,2H43.29a2,2,0,1,1,0,4Z"/><path class="cls-1" d="M51.25,84a2,2,0,1,1,1.41-.58A2,2,0,0,1,51.25,84Z"/><path class="cls-1" d="M78.6,84H68.28a2,2,0,0,1,0-4H78.6a2,2,0,0,0,2-2V59.56a2,2,0,1,1,4,0V78A6,6,0,0,1,78.6,84Z"/><path class="cls-1" d="M81.77,30H4.05a2,2,0,0,1,0-4H81.77a2,2,0,0,1,0,4Z"/><path class="cls-1" d="M72.78,22.86H43.49a2,2,0,0,1,0-4H72.78a2,2,0,1,1,0,4Z"/><path class="cls-1" d="M17.67,22.87a2,2,0,0,1-1.4-.59,2,2,0,1,1,2.8-2.8,2,2,0,0,1-1.4,3.39Z"/><path class="cls-1" d="M10.36,22.87A2,2,0,0,1,9,22.28a2,2,0,1,1,2.8-2.8,2,2,0,0,1-1.4,3.39Z"/><path class="cls-1" d="M25,22.87a2,2,0,0,1-1.4-.59,2,2,0,1,1,2.8-2.8A2,2,0,0,1,25,22.87Z"/><path class="cls-1" d="M30.44,63A2,2,0,0,1,29,62.4l-6.69-6.69a2,2,0,0,1,0-2.8L29,46.21A2,2,0,0,1,31.85,49l-5.3,5.29,5.3,5.29A2,2,0,0,1,30.44,63Z"/><path class="cls-1" d="M54.56,63a2,2,0,0,1-1.4-3.39l5.29-5.29L53.16,49A2,2,0,0,1,56,46.21l6.7,6.7a2,2,0,0,1,0,2.8L56,62.4A2,2,0,0,1,54.56,63Z"/><path class="cls-1" d="M37.77,64.33a2,2,0,0,1-1-.27,2,2,0,0,1-.7-2.72l9.45-16.08a2,2,0,0,1,3.42,2L39.49,63.35A2,2,0,0,1,37.77,64.33Z"/><path class="cls-1" d="M59,90.83a2,2,0,0,1-2-2.31L59.61,73a2,2,0,0,1,.24-.68l4.75-8.22a2,2,0,0,1,3.44,2L63.47,74,61.84,84l7.81-6.4L97.56,29.27a3.57,3.57,0,0,0-6.19-3.57L76.05,52.23a2,2,0,1,1-3.43-2L87.94,23.71a7.54,7.54,0,1,1,13,7.54L72.91,79.89a2,2,0,0,1-.46.54L60.29,90.38A2,2,0,0,1,59,90.83Z"/><path class="cls-1" d="M70.37,60.09A2,2,0,0,1,69,59.51a2,2,0,0,1,0-2.8,2,2,0,0,1,1.41-.58,2,2,0,0,1,0,4Z"/><path class="cls-1" d="M71,80.75a2,2,0,0,1-1-.27l-8.83-5.09a2,2,0,0,1,2-3.44L72,77.05a2,2,0,0,1-1,3.7Z"/><path class="cls-1" d="M97.36,35.55a2,2,0,0,1-1-.27l-9.62-5.55a2,2,0,0,1,2-3.44l9.62,5.56a2,2,0,0,1-1,3.7Z"/></svg>