<svg id="Layer_1" data-name="Layer 1" xmlns="http://www.w3.org/2000/svg" viewBox="0 0 102 102"><defs><style>.cls-1{fill:#0cafc4;}</style></defs><title>Artboard 3 copy</title><path class="cls-1" d="M69.84,74.61a1.76,1.76,0,1,0,1.76,1.76A1.75,1.75,0,0,0,69.84,74.61Z"/><path class="cls-1" d="M74.17,68.93l-8.35-2.79-3-6A19.25,19.25,0,0,0,68,50l.37-2.25h3.2a5.28,5.28,0,0,0,5.28-5.27V31.37a26.37,26.37,0,0,0-52.74,0V42.44a5.27,5.27,0,0,0,3.52,5v2.06a5.28,5.28,0,0,0,5.27,5.28h1.54a19.46,19.46,0,0,0,3,4.56q.38.44.78.84l-3,6-8.36,2.79c-9.71,3.23-16.76,13.46-16.76,24.31A1.76,1.76,0,0,0,11.84,95H89.18a1.76,1.76,0,0,0,1.76-1.76C90.94,82.39,83.89,72.16,74.17,68.93Zm-.81-26.49A1.76,1.76,0,0,1,71.6,44.2H68.92c.45-3.46.74-7.15.86-10.77,0-.1,0-.2,0-.31h3.57ZM29.41,44.2a1.75,1.75,0,0,1-1.75-1.76V33.12h3.56c0,.19,0,.37,0,.56v0h0c.13,3.53.42,7.11.86,10.5Zm3.52,7a1.76,1.76,0,0,1-1.76-1.76V47.71h1.44L33,50c.07.42.16.85.26,1.27ZM31.17,29.61H27.72a22.85,22.85,0,0,1,45.57,0H69.84A17.8,17.8,0,0,0,52.08,12H48.93A17.81,17.81,0,0,0,31.17,29.61ZM48.93,15.55h3.15A14.29,14.29,0,0,1,66.33,29.86c0,.55,0,1,0,1.47v0L64.12,31a28.17,28.17,0,0,1-15.88-7.94A1.76,1.76,0,0,0,47,22.58a15.89,15.89,0,0,0-12.22,5.78A14.28,14.28,0,0,1,48.93,15.55Zm-12,35.68C36,48.3,35,39.69,34.78,34.17L37.15,31a12.37,12.37,0,0,1,9.15-4.91,31.71,31.71,0,0,0,17.32,8.4l2.59.37c-.18,3.67-.53,7.36-1,10.75h0c-.16,1.09-.29,1.79-.61,3.75C63.63,55,59.46,60,54,61.39a14.42,14.42,0,0,1-6.91,0,14.27,14.27,0,0,1-8.61-6.64H42a5.29,5.29,0,0,0,5,3.51h3.52a5.28,5.28,0,0,0,0-10.55H47a5.27,5.27,0,0,0-5,3.52Zm10,13.71a17.47,17.47,0,0,0,3.67.39,17.28,17.28,0,0,0,2.87-.24l-3.1,3.29Zm1,6-5.58,5.9a67.52,67.52,0,0,1-3.93-9.13l2.09-4.19Zm12.42-8,2.39,4.78a67.74,67.74,0,0,1-3.94,9.13l-6-6ZM45.23,53A1.76,1.76,0,0,1,47,51.23h3.52a1.76,1.76,0,1,1,0,3.52H47A1.76,1.76,0,0,1,45.23,53ZM13.66,91.48c.7-8.7,6.5-16.62,14.3-19.22l7.39-2.47a70.72,70.72,0,0,0,5,10.86v0h0A70.15,70.15,0,0,0,45.18,88l2.16,3.47Zm36.85-1.56-2.39-3.83A.83.83,0,0,0,48,86a66.32,66.32,0,0,1-4-5.92l6.27-6.63L57,80A66.72,66.72,0,0,1,53,86C52.89,86.08,53,85.9,50.51,89.92Zm3.16,1.56L55.84,88a69.68,69.68,0,0,0,4.84-7.4l0,0h0a69.44,69.44,0,0,0,4.95-10.76l7.4,2.47c7.8,2.6,13.59,10.52,14.29,19.22Z"/><path class="cls-1" d="M82.07,84.37a17.66,17.66,0,0,0-5-6A1.76,1.76,0,0,0,75,81.12a14,14,0,0,1,4,4.82,1.76,1.76,0,1,0,3.15-1.57Z"/></svg>