<svg id="Layer_1" data-name="Layer 1" xmlns="http://www.w3.org/2000/svg" viewBox="0 0 102 102"><defs><style>.cls-1{fill:#0cafc4;}</style></defs><title>Artboard 2</title><path class="cls-1" d="M40.68,16a5.2,5.2,0,1,0,5.21,5.19A5.21,5.21,0,0,0,40.68,16Zm0,6.34a1.14,1.14,0,1,1,0-2.28,1.12,1.12,0,0,1,1.15,1.13A1.14,1.14,0,0,1,40.68,22.29Z"/><path class="cls-1" d="M60.15,16a5.2,5.2,0,1,0,5.21,5.19A5.21,5.21,0,0,0,60.15,16Zm0,6.34A1.14,1.14,0,0,1,59,21.14a1.15,1.15,0,0,1,2.3,0A1.14,1.14,0,0,1,60.15,22.29Z"/><path class="cls-1" d="M84.05,30.94H83.8a7.78,7.78,0,0,0-3.86,1V29.85C79.94,21.1,74.87,13,66.6,8.29l4.82-4.82A2,2,0,0,0,68.55.59L62.72,6.42a33.66,33.66,0,0,0-24.61,0L32.28.59a2,2,0,1,0-2.87,2.88l4.82,4.82C26,13,20.89,21.11,20.89,29.85V32a7.78,7.78,0,0,0-3.86-1h-.25a8,8,0,0,0-8,8V64.67a8,8,0,0,0,8,8H17a7.78,7.78,0,0,0,3.86-1v3a7.52,7.52,0,0,0,7.55,7.46h3.78V94a8,8,0,0,0,8,8h.24a8,8,0,0,0,8-8V82.07h4.07V94a8,8,0,0,0,8,8h.24a8,8,0,0,0,8-8V82.07h3.78a7.52,7.52,0,0,0,7.55-7.46v-3a7.78,7.78,0,0,0,3.86,1h.25a8,8,0,0,0,8-8V38.89A8,8,0,0,0,84.05,30.94ZM20.89,64.67A3.88,3.88,0,0,1,17,68.57h-.25a3.9,3.9,0,0,1-3.89-3.9V38.89A3.89,3.89,0,0,1,16.78,35H17a3.88,3.88,0,0,1,3.86,3.89V64.67Zm55,9.94h0A3.49,3.49,0,0,1,72.39,78H66.58a2,2,0,0,0-2,2V94a3.9,3.9,0,0,1-3.9,3.89h-.24A3.9,3.9,0,0,1,56.51,94V80a2,2,0,0,0-2-2H46.35a2,2,0,0,0-2,2V94a3.9,3.9,0,0,1-3.9,3.89h-.24A3.9,3.9,0,0,1,36.28,94V80a2,2,0,0,0-2-2H28.44A3.45,3.45,0,0,1,25,74.61V33.73H62.8a2,2,0,1,0,0-4.06H25C25,22,29.87,14.9,37.63,11.08l1.76-.8a29.62,29.62,0,0,1,22.06,0l1.75.8c7.82,3.84,12.68,11,12.68,18.77Zm12.06-9.94a3.9,3.9,0,0,1-3.89,3.9H83.8a3.88,3.88,0,0,1-3.86-3.9V38.89A3.88,3.88,0,0,1,83.8,35h.25a3.9,3.9,0,0,1,3.89,3.89V64.67Z"/><path class="cls-1" d="M70.72,29.67h-.61a2,2,0,0,0,0,4.06h.61a2,2,0,1,0,0-4.06Z"/></svg>