<svg id="Layer_1" data-name="Layer 1" xmlns="http://www.w3.org/2000/svg" viewBox="0 0 102 102"><defs><style>.cls-1{fill:#0cafc4;}</style></defs><title>Artboard 3</title><path class="cls-1" d="M70.3,4.69a1.89,1.89,0,0,0-2-1.69c-4.8.2-10.54,3.13-14,7.14-2.91,3.36-5.74,9-5,14.72a1.89,1.89,0,0,0,1.73,1.64c.32,0,.65,0,1,0,4.72,0,9.86-2.59,13.32-6.78h0A20.78,20.78,0,0,0,70.3,4.69ZM62.51,17.35a14.57,14.57,0,0,1-9.44,5.36A17.18,17.18,0,0,1,57.26,12.6,18.06,18.06,0,0,1,66.61,7,17.59,17.59,0,0,1,62.51,17.35Z"/><path class="cls-1" d="M89,70.3l-.09,0A18,18,0,0,1,78,53.72c-.09-9.56,7.32-14.63,8.81-15.55l.09-.05a1.9,1.9,0,0,0,.83-1.22,1.92,1.92,0,0,0-.29-1.44,22.84,22.84,0,0,0-18-9.78c-4.75-.47-9.17,1.28-12.73,2.68A17.35,17.35,0,0,1,52,29.82a16.7,16.7,0,0,1-4.9-1.48c-3-1.18-6.36-2.52-10-2.46A24.15,24.15,0,0,0,16.74,38.17c-4.86,8.43-4.45,18.26-3.26,25a58.87,58.87,0,0,0,9.08,22.54C26,90.64,31,98,38.08,98h.38a19,19,0,0,0,7.17-1.89,17.31,17.31,0,0,1,7.56-1.81A16.35,16.35,0,0,1,60.37,96a17,17,0,0,0,7.78,1.85c7.29-.14,11.77-6.67,15.36-11.93A51.87,51.87,0,0,0,90,72.69l0-.06A1.89,1.89,0,0,0,89,70.3Zm-8.6,13.51C76.31,89.78,73,94,68.08,94.1h-.23a14,14,0,0,1-6-1.54,19.94,19.94,0,0,0-8.68-2,21,21,0,0,0-9,2.11,15.44,15.44,0,0,1-5.83,1.59c-4.76.18-8.7-4.93-12.64-10.63C17.54,71.84,12.8,52.6,20,40.05a20.35,20.35,0,0,1,17.1-10.38h.19c2.87,0,5.8,1.16,8.4,2.19,2.35.93,4.39,1.74,6.29,1.74s3.77-.8,6.11-1.72c3.36-1.32,7.16-2.82,11-2.43h.11a19.27,19.27,0,0,1,13.91,6.63,23.89,23.89,0,0,0-4,3.9,21.12,21.12,0,0,0-4.9,13.76A21.65,21.65,0,0,0,85.89,73,48.58,48.58,0,0,1,80.39,83.81Z"/><path class="cls-1" d="M30.64,79.91c-4.82-7-9.16-19.17-7.31-29.56a1.89,1.89,0,0,0-3.72-.66c-2.06,11.5,2.5,24.54,7.92,32.37a1.88,1.88,0,0,0,2.63.48A1.89,1.89,0,0,0,30.64,79.91Z"/><path class="cls-1" d="M25.16,40.66a1.88,1.88,0,0,0-2.58.69c-.25.43-.49.88-.71,1.33a1.89,1.89,0,0,0,3.39,1.68c.19-.38.39-.76.6-1.12A1.89,1.89,0,0,0,25.16,40.66Z"/></svg>