<?xml version="1.0" encoding="utf-8"?>
<!-- Generator: Adobe Illustrator 23.0.3, SVG Export Plug-In . SVG Version: 6.00 Build 0)  -->
<svg version="1.1" id="Layer_1" xmlns="http://www.w3.org/2000/svg" xmlns:xlink="http://www.w3.org/1999/xlink" x="0px" y="0px"
	 viewBox="0 0 100 100" style="enable-background:new 0 0 100 100;" xml:space="preserve">
<style type="text/css">
	.st0{fill:#198FCC;}
	.st1{fill:#FFFFFF;}
</style>
<title>game_development</title>
<g>
	<g id="Layer_1-2">
		<circle class="st0" cx="50" cy="50" r="48"/>
		<path class="st1" d="M60.7,37.5c4.4,0,8.8-0.1,13.2,0c5.4,0,9.9,3.9,10.8,9.2c0.8,5.5,0,10.8-3.4,15.4c-1,1.4-2.5,2.3-4.2,2.6
			c-1.4,0.4-2.8-0.1-3.7-1.2c-1.1-1.4-2.1-2.9-3-4.5c-0.6-1.3-2-2.1-3.4-1.9c-4.3,0.1-8.7,0-13,0c-1.1-0.1-2.2,0.5-2.7,1.6
			c-0.8,1.6-1.8,3.1-2.9,4.4c-1.6,1.9-3.3,2.2-5.6,1.2c-1.3-0.5-2.4-1.5-3.1-2.6c-3.1-4.7-4.1-10.5-2.7-15.9c1.2-4.7,5.4-8,10.3-8.1
			C51.8,37.4,56.3,37.5,60.7,37.5L60.7,37.5z M48.3,47.5c0-1,0-1.8,0-2.7s-0.5-1.4-1.2-1.4s-1.2,0.5-1.2,1.5s0,1.8,0,2.7h-2.7
			c-1,0-1.5,0.4-1.5,1.2s0.5,1.2,1.5,1.2h2.7c0,1,0,2,0,2.9c0,0.7,0.4,1.2,1.1,1.3c0,0,0.1,0,0.1,0c0.7-0.1,1.2-0.6,1.1-1.3
			c0,0,0,0,0,0c0-0.9,0-1.8,0-2.8H51c0.9,0,1.5-0.5,1.5-1.2s-0.6-1.2-1.4-1.2H48.3z M74.3,46.3c1,0,1.7-0.9,1.7-1.9
			c0-0.9-0.7-1.6-1.6-1.7c-1-0.1-1.8,0.6-1.9,1.6c-0.1,1,0.6,1.8,1.6,1.9C74.1,46.3,74.2,46.3,74.3,46.3z M70.1,50.5
			c1-0.2,1.6-1.1,1.5-2c-0.1-0.7-0.6-1.2-1.3-1.4c-1-0.1-1.9,0.6-2,1.6c-0.1,1,0.6,1.9,1.6,2C70,50.5,70,50.5,70.1,50.5L70.1,50.5z
			 M78.5,50.5c1-0.1,1.7-0.9,1.6-1.9c-0.1-0.9-0.8-1.6-1.6-1.6c-1,0.1-1.7,0.9-1.6,1.9C76.9,49.7,77.6,50.4,78.5,50.5z M74.3,54.6
			c1,0,1.7-0.9,1.7-1.9c0-0.9-0.7-1.6-1.6-1.7c-1-0.1-1.8,0.6-1.9,1.6s0.6,1.8,1.6,1.9C74.1,54.6,74.2,54.6,74.3,54.6z M58.3,47.5
			h-0.5c-0.7,0-1.2,0.5-1.2,1.1c0,0,0,0,0,0c0,0.6,0.5,1.2,1.1,1.2c0,0,0,0,0.1,0h0.5c1.2,0,1.8-0.4,1.8-1.2S59.5,47.5,58.3,47.5
			L58.3,47.5z M63.1,47.5h-0.5c-0.7-0.1-1.2,0.4-1.3,1.1c-0.1,0.7,0.4,1.2,1.1,1.3c0.1,0,0.1,0,0.2,0h0.5c1.2,0,1.8-0.4,1.8-1.2
			C64.9,47.8,64.3,47.5,63.1,47.5L63.1,47.5z"/>
		<path class="st1" d="M61.3,35H59v-0.8c0-2.2,0-4.4,0-6.6c0.1-1.3-0.9-2.4-2.2-2.5c-0.1,0-0.2,0-0.3,0c-7.8,0-15.6,0-23.4,0
			c-1.3-0.1-2.4,0.9-2.5,2.2c0,0.1,0,0.2,0,0.3v42.3c-0.1,1.3,0.9,2.4,2.2,2.5c0.1,0,0.2,0,0.3,0h23.3c1.3,0.1,2.4-0.9,2.5-2.1
			c0-0.1,0-0.3,0-0.4c0-3.2,0-6.4,0-9.6v-0.8h2.4v18.7c0.1,3.3-2.4,6-5.7,6.1c-0.2,0-0.3,0-0.5,0H34.4c-3.2,0.2-6-2.3-6.2-5.6
			c0-0.2,0-0.4,0-0.6V21.8c-0.2-3.3,2.4-6,5.6-6.2c0.2,0,0.4,0,0.6,0h20.8c3.3-0.1,6,2.4,6.2,5.6c0,0.2,0,0.4,0,0.5V35z M51.2,18
			H38.3c0,1.3,1,2.3,2.3,2.3c2.8,0,5.6,0,8.3,0C50.2,20.4,51.2,19.3,51.2,18C51.2,18,51.2,18,51.2,18z M42.4,78.3
			c0,1.3,1,2.4,2.3,2.4s2.4-1,2.4-2.3c0-1.3-1-2.4-2.3-2.4c0,0-0.1,0-0.1,0C43.5,76,42.4,77,42.4,78.3z"/>
	</g>
</g>
</svg>
