<?xml version="1.0" encoding="utf-8"?>
<!-- Generator: Adobe Illustrator 23.0.3, SVG Export Plug-In . SVG Version: 6.00 Build 0)  -->
<svg version="1.1" id="Layer_1" xmlns="http://www.w3.org/2000/svg" xmlns:xlink="http://www.w3.org/1999/xlink" x="0px" y="0px"
	 viewBox="0 0 100 100" style="enable-background:new 0 0 100 100;" xml:space="preserve">
<style type="text/css">
	.st0{fill:#198FCC;}
	.st1{fill:#FFFFFF;}
</style>
<title>game_cost</title>
<g>
	<g id="Layer_1-2">
		<circle class="st0" cx="50" cy="50" r="48"/>
		<path class="st1" d="M66.4,55.9c-3,0.1-5.8-1-8.1-2.9c-0.3-0.2-0.6-0.4-1-0.4c-3.9,0-7.7,0-11.6,0c-0.5,0-0.9,0.2-1.3,0.5
			c-3.2,2.8-7.8,3.6-11.8,2c-4.1-1.4-7-4.9-7.6-9.2c-1.1-6.5,3.3-12.6,9.8-13.7c4-0.7,8,0.7,10.7,3.7c0.3,0.3,0.7,0.5,1.2,0.5
			c3.2,0,6.4,0,9.6,0c0.3,0,0.7-0.2,0.9-0.4c4.4-4.9,12-5.2,16.8-0.8s5.2,12,0.8,16.8c-1.8,1.9-4.1,3.2-6.7,3.7
			C67.5,55.8,66.8,55.8,66.4,55.9z M63.9,48.5c0,1.2,0.9,2.2,2.1,2.2c1.2,0,2.2-0.9,2.2-2.1s-0.9-2.2-2.1-2.2c0,0,0,0,0,0
			C64.9,46.4,63.9,47.3,63.9,48.5z M36.8,46.4c-1.2,0-2.1,1-2.1,2.2s1,2.1,2.2,2.1c1.2,0,2.1-1,2.1-2.2C39,47.3,38,46.4,36.8,46.4
			C36.8,46.4,36.8,46.4,36.8,46.4z M32.2,46.1c1.2,0,2.1-1,2.1-2.2c0-1.2-1-2.1-2.2-2.1c-1.2,0-2.1,1-2.1,2.2c0,0,0,0,0,0
			C30.1,45.2,31,46.1,32.2,46.1z M61.5,46.1c1.2-0.1,2.1-1.1,2-2.3c-0.1-1.1-0.9-1.9-2-2c-1.2-0.1-2.2,0.8-2.3,2s0.8,2.2,2,2.3
			C61.3,46.1,61.4,46.1,61.5,46.1z M41.4,46.1c1.2,0,2.2-0.9,2.2-2.1s-0.9-2.2-2.1-2.2c-1.2,0-2.2,0.9-2.2,2.1c0,0,0,0,0,0
			C39.2,45.1,40.2,46.1,41.4,46.1L41.4,46.1z M70.7,46.1c1.2,0,2.1-0.9,2.2-2.1c0-1.2-1-2.2-2.2-2.2c-1.2,0-2.2,1-2.2,2.2
			c0,0,0,0,0,0C68.5,45.2,69.5,46.1,70.7,46.1z M66.1,41.5c1.2,0,2.1-0.9,2.2-2.1c0,0,0-0.1,0-0.1c-0.1-1.2-1.2-2.1-2.4-2
			c-1.1,0.1-1.9,1-2,2.1C63.9,40.5,64.9,41.5,66.1,41.5C66.1,41.5,66.1,41.5,66.1,41.5z M36.8,41.5c1.2,0,2.2-1,2.2-2.1c0,0,0,0,0,0
			c0-1.2-1-2.2-2.2-2.2c-1.2,0-2.2,1-2.2,2.2C34.7,40.5,35.6,41.5,36.8,41.5C36.8,41.5,36.8,41.5,36.8,41.5z M53.1,46.6
			c0-1.3-0.3-1.6-1.5-1.6c-1.4,0-1.7,0.3-1.8,1.5c0,1.4,0.3,1.8,1.5,1.8C52.8,48.3,53.1,48,53.1,46.6z"/>
		<path class="st1" d="M58.8,58.4l1.9,1.9c1-0.4,1.4-0.3,2,0.7c2.6,4.6,2.6,9.3-0.3,13.7c-2.6,4.3-7.5,6.6-12.4,5.8
			c-7.1-1-12.1-7.6-11.1-14.7c0.9-6.6,6.7-11.5,13.4-11.2c2.1,0.1,4.1,0.7,5.8,1.8C59.1,57,59.2,57.4,58.8,58.4z M52.6,74.4l0.5-0.2
			c2.1-0.7,3.2-2.9,2.5-4.9c-0.5-1.4-1.7-2.4-3.1-2.7c-0.5,0-0.9,0-1.4,0c-1,0.1-1.8-0.7-1.9-1.7c0,0,0-0.1,0-0.1
			c0-1,0.7-1.8,1.7-1.8c0.1,0,0.1,0,0.2,0c0.7,0,1.5,0,2.2,0c0.6,0,1.1-0.5,1.1-1.1c0-0.6-0.5-1.1-1.1-1.1c0,0,0,0,0,0h-0.7
			c-0.2-1.5-0.5-1.9-1.1-1.9c-1.3,0.1-1.1,1.1-1.1,1.9L49.8,61c-2.1,0.6-3.3,2.8-2.7,4.8c0.4,1.5,1.7,2.5,3.2,2.8c0.5,0,0.9,0,1.4,0
			c1-0.1,1.8,0.7,1.9,1.6c0.1,1-0.7,1.8-1.6,1.9c-0.1,0-0.2,0-0.3,0c-0.9,0-1.7,0-2.6,0c-0.6-0.1-1.1,0.4-1.2,1c0,0.1,0,0.1,0,0.2
			c0,0.6,0.5,1,1.2,1.1c0.4,0,0.7,0,1,0c0.2,1.6,0.5,1.9,1.2,1.9S52.5,75.8,52.6,74.4z"/>
		<path class="st1" d="M78,59.2v5.3c0.1,2.6-1.8,4.8-4.4,4.9c-2.2,0.1-4.1-1.3-4.7-3.3c-0.8-2.4-1.6-4.7-2.4-7.1
			c-0.3-0.8-0.1-1,0.7-1.1c3.7-0.3,7.2-2,9.6-4.9c0.2-0.2,0.5-0.3,0.8-0.4c0.1,0.3,0.4,0.6,0.4,0.9C78,55.5,78,57.4,78,59.2z"/>
		<path class="st1" d="M24.9,59.2c0-1.9,0-3.8,0-5.7c0-0.3,0.2-0.6,0.4-0.8c0.1-0.1,0.6,0.1,0.8,0.3c2.5,2.9,6,4.7,9.8,5
			c0.6,0.1,0.8,0.3,0.7,1c-0.8,2.5-1.7,5-2.6,7.5c-0.9,2.4-3.6,3.6-6,2.7c-1.9-0.7-3.1-2.5-3-4.5C24.9,62.8,24.9,61,24.9,59.2z"/>
		<path class="st1" d="M54.2,21.8c2.3,0,4.6,0,6.9,0c1.9,0.1,3.4,1.7,3.3,3.6c-0.1,1.8-1.5,3.2-3.3,3.3c-1.1,0-2.3,0-3.4,0
			c-0.6,0-1.1,0-1.7,0.1c-2,0.4-3.4,2-3.5,4c0,0.8-0.5,1.3-1.1,1.3s-1.1-0.6-1-1.4c0.2-3.4,2.9-6.1,6.3-6.2c1.3,0,2.7,0,4,0
			c1,0,1.6-0.5,1.6-1.3S61.7,24,60.7,24h-13c-0.2,0-0.4,0-0.5,0c-0.6,0-1.1-0.4-1.2-1c0,0,0,0,0,0c0-0.6,0.5-1.1,1.1-1.1
			c0,0,0,0,0.1,0c1.1,0,2.2,0,3.4,0H54.2z"/>
	</g>
</g>
</svg>
