<?xml version="1.0" encoding="utf-8"?>
<!-- Generator: Adobe Illustrator 23.0.3, SVG Export Plug-In . SVG Version: 6.00 Build 0)  -->
<svg version="1.1" id="Layer_1" xmlns="http://www.w3.org/2000/svg" xmlns:xlink="http://www.w3.org/1999/xlink" x="0px" y="0px"
	 viewBox="0 0 100 100" style="enable-background:new 0 0 100 100;" xml:space="preserve">
<style type="text/css">
	.st0{fill:#198FCC;}
	.st1{fill:#FFFFFF;}
</style>
<title>ready_on_demand</title>
<g>
	<g id="Layer_1-2">
		<circle class="st0" cx="50" cy="50" r="48"/>
		<path class="st1" d="M48.2,89c-1.6-0.2-3.2-0.4-4.8-0.7c-7.3-1.3-14.1-4.8-19.4-10c-0.1-0.1-0.2-0.3-0.4-0.5L28,75
			c4.9-3.2,9.9-6.3,14.8-9.5c0.6-0.5,1.4-0.5,2,0c6.9,4.2,15.1,4.1,21.1-0.3c2.2-1.6,4.8-5,5.4-6.9c-1.2,0.5-2.4,1-3.5,1.5
			c-2.7,1.1-5.4,2.3-8.1,3.4c-0.5,0.3-1.1,0.2-1.5-0.2c-4.3-3.5-8.7-7.1-13.1-10.6c-0.5-0.3-0.7-0.9-0.5-1.4
			c0.9-5.1,1.7-10.1,2.6-15.2c0-1,0.7-1.8,1.6-2c3.3-1,6.5-2.1,9.7-3.2l1.2-0.5c-4.3-2.1-11.4-2-16.7,1.6
			c-7.5,5.3-9.4,12.7-7.7,21.4L15.2,65.9c-0.7-2.5-1.6-4.7-2.1-7.1c-4.5-20.6,8.6-41,29.2-45.5s41,8.6,45.5,29.2s-8.6,41-29.2,45.5
			c-0.2,0-0.4,0.1-0.7,0.1c-1.7,0.4-3.5,0.5-5.2,0.8H48.2z M50.2,49.5c0.1,0.3,0.3,0.6,0.5,0.8c2.8,2.3,5.6,4.5,8.4,6.8
			c0.3,0.2,0.7,0.3,1.1,0.2c3.1-1.3,6.2-2.6,9.2-3.9c0.3-0.2,0.6-0.5,0.7-0.9c0.5-3.2,0.9-6.5,1.4-9.7c0.1-0.5-0.1-1.1-0.6-1.4
			c-2.5-2-4.9-4.1-7.3-6.1c-0.4-0.5-1.1-0.6-1.7-0.3c-2.4,0.9-4.9,1.8-7.4,2.4c-1.7,0.2-2.9,1.6-2.9,3.3
			C51.3,43.5,50.7,46.4,50.2,49.5z"/>
	</g>
</g>
</svg>
