<?xml version="1.0" encoding="utf-8"?>
<!-- Generator: Adobe Illustrator 23.0.3, SVG Export Plug-In . SVG Version: 6.00 Build 0)  -->
<svg version="1.1" id="Layer_1" xmlns="http://www.w3.org/2000/svg" xmlns:xlink="http://www.w3.org/1999/xlink" x="0px" y="0px"
	 viewBox="0 0 100 100" style="enable-background:new 0 0 100 100;" xml:space="preserve">
<style type="text/css">
	.st0{fill:#198FCC;}
	.st1{fill:#FFFFFF;}
</style>
<title>e_commerce_development</title>
<g>
	<g id="Layer_1-2">
		<circle class="st0" cx="50" cy="50" r="48"/>
	</g>
</g>
<g>
	<g>
		<g>
			<path class="st1" d="M22.5,24.9v33.2h56.6V24.9H22.5z M45,47.5l-2.3,2.3l-8.3-8.3l8.3-8.3l2.3,2.3l-6,6L45,47.5z M50.5,51.5
				l-3.3-0.6l3.9-19.4l3.3,0.6L50.5,51.5z M58.9,49.9l-2.3-2.3l6-6l-6-6l2.3-2.3l8.3,8.3L58.9,49.9z"/>
		</g>
	</g>
	<g>
		<g>
			<polygon class="st1" points="79.1,71.4 79.1,61.4 22.5,61.4 22.5,71.4 40.6,71.4 40.6,74.7 37.3,74.7 37.3,78.1 64.2,78.1 
				64.2,74.7 60.9,74.7 60.9,71.4 			"/>
		</g>
	</g>
</g>
</svg>
