<svg id="Layer_1" data-name="Layer 1" xmlns="http://www.w3.org/2000/svg" viewBox="0 0 150 150"><defs><style>.cls-1{fill:#454545;}</style></defs><title>1</title><path class="cls-1" d="M40.17,46.47A11.85,11.85,0,1,1,52,34.62,11.86,11.86,0,0,1,40.17,46.47Zm0-19.75a7.9,7.9,0,1,0,7.9,7.9A7.9,7.9,0,0,0,40.17,26.72Z"/><path class="cls-1" d="M87.59,101.79v11.85H65.85V86.54L54,82.58V62.28H71.78a9.9,9.9,0,0,0,9.88-9.88V48.45H26.34a9.89,9.89,0,0,0-9.88,9.88V80.06A5.93,5.93,0,0,0,22.39,86h3.95v35.56H16.46v13.83h4V125.5H48.07v9.87h4V117.59H87.59v17.78h4V105.74h39.51v29.63H135V101.79ZM26.34,60.3V82H22.39a2,2,0,0,1-2-2V58.33a5.92,5.92,0,0,1,5.92-5.93H77.71a5.94,5.94,0,0,1-5.93,5.93H50.05v27.1L61.9,89.38v24.26H56V92.52L36.22,85.11v36.43H30.29V60.3Zm21.73,53.34v7.9h-7.9V90.81L52,95.26v18.38Z"/><path class="cls-1" d="M103.39,95.86H119.2V46.47h11.43L111.29,15,92,46.47h11.44ZM99,42.52l12.27-19.94,12.27,19.94h-8.32V91.91h-7.9V42.52Z"/></svg>