<?xml version="1.0" encoding="utf-8"?>
<!-- Generator: Adobe Illustrator 21.0.0, SVG Export Plug-In . SVG Version: 6.00 Build 0)  -->
<svg version="1.1" id="Layer_1" xmlns="http://www.w3.org/2000/svg" xmlns:xlink="http://www.w3.org/1999/xlink" x="0px" y="0px"
	 viewBox="0 0 150 150" style="enable-background:new 0 0 150 150;" xml:space="preserve">
<style type="text/css">
	.st0{fill:#454545;}
</style>
<title>2</title>
<path class="st0" d="M129.2,54.5c-6-14.3-17.2-25.5-31.5-31.4c-7.1-2.9-14.5-4.4-22.1-4.4c-7.7,0-15.2,1.5-22.3,4.5
	c-14.3,6-25.5,17.2-31.4,31.5c-12.2,29.6,2,63.6,31.6,75.8l2.1,0.9l15.1-38.9l-2-0.9c-3.6-1.6-6.4-4.5-8.1-8.1
	c-1.8-4-2-8.4-0.5-12.5c1.5-4.1,4.5-7.4,8.5-9.2c4-1.8,8.4-2,12.5-0.5c4.1,1.5,7.4,4.5,9.2,8.5c3.8,8.2,0.1,17.9-8,21.7l-1.9,0.9
	l15.2,38.9l2.1-0.8c14.2-5.9,25.7-17.4,31.6-31.6C135.2,84.6,135.1,68.8,129.2,54.5z M93.3,87.7c2.9-4.8,3.8-10.4,2.5-15.8
	c-1.3-5.4-4.6-10-9.4-12.9c-4.7-2.9-10.4-3.8-15.8-2.5c-5.4,1.3-10,4.6-12.9,9.4c-2.9,4.7-3.8,10.3-2.5,15.8s4.6,10,9.4,12.9
	l0.3,0.2L53,125.5l-0.4-0.2c-11.2-5.3-20.3-14.4-25.5-25.5C14.4,73,25.9,41,52.6,28.4c12.9-6.1,27.5-6.8,41-2
	c13.5,4.8,24.3,14.6,30.4,27.5c12.6,26.7,1.2,58.7-25.5,71.3l-0.4,0.2L86.1,94.8l0.3-0.2C89.2,92.9,91.6,90.5,93.3,87.7z"/>
</svg>
