<svg id="Layer_1" data-name="Layer 1" xmlns="http://www.w3.org/2000/svg" viewBox="0 0 150 150"><defs><style>.cls-1{fill:#454545;}</style></defs><title>3</title><path class="cls-1" d="M22.7,112.85h-.61a2.32,2.32,0,0,1-2.24-2.37,2.42,2.42,0,0,1,2.37-2.23c.74,0,78.79,1.38,96.49-67.2a2.3,2.3,0,0,1,4.45,1.15C105.39,111,30.27,112.85,22.7,112.85Z"/><path class="cls-1" d="M127.83,55.86a2.27,2.27,0,0,1-2-1.15l-5.75-9.94-10,5.74a2.3,2.3,0,0,1-2.29-4l11.93-6.89a2.3,2.3,0,0,1,3.14.84l6.89,11.94a2.28,2.28,0,0,1-.84,3.13A2.15,2.15,0,0,1,127.83,55.86Z"/><path class="cls-1" d="M118.64,131.22a2.3,2.3,0,0,1-2.3-2.29V69.2a2.3,2.3,0,0,1,4.6,0v59.73A2.3,2.3,0,0,1,118.64,131.22Z"/><path class="cls-1" d="M91.07,131.22a2.3,2.3,0,0,1-2.3-2.29V101.36a2.3,2.3,0,0,1,4.6,0v27.57A2.3,2.3,0,0,1,91.07,131.22Z"/><path class="cls-1" d="M63.5,131.22a2.3,2.3,0,0,1-2.29-2.29V115.14a2.3,2.3,0,0,1,4.59,0v13.79A2.3,2.3,0,0,1,63.5,131.22Z"/><path class="cls-1" d="M35.94,131.22a2.3,2.3,0,0,1-2.3-2.29V122a2.3,2.3,0,0,1,4.59,0v6.9A2.3,2.3,0,0,1,35.94,131.22Z"/><path class="cls-1" d="M63.5,80.68H22.15a2.3,2.3,0,0,1-2.3-2.29V73a11.42,11.42,0,0,1,3.37-8.12L29,59.06V46a25.33,25.33,0,0,1,5.25-15.41L41,21.85a2.38,2.38,0,0,1,3.64,0l6.72,8.74A25.38,25.38,0,0,1,56.61,46V59.06l5.83,5.82A11.41,11.41,0,0,1,65.8,73v5.39a2.3,2.3,0,0,1-2.3,2.29Zm-39-4.59H61.21V73a6.85,6.85,0,0,0-2-4.87l-6.5-6.5A2.29,2.29,0,0,1,52,60V46a20.83,20.83,0,0,0-4.29-12.61L42.83,27l-4.9,6.37A20.74,20.74,0,0,0,33.64,46V60A2.33,2.33,0,0,1,33,61.63l-6.5,6.5a6.85,6.85,0,0,0-2,4.87Z"/><path class="cls-1" d="M54.31,89.87A2.3,2.3,0,0,1,52,87.57V78.39a2.3,2.3,0,1,1,4.59,0v9.18A2.3,2.3,0,0,1,54.31,89.87Z"/><path class="cls-1" d="M31.34,89.87a2.3,2.3,0,0,1-2.3-2.3V78.39a2.3,2.3,0,0,1,4.6,0v9.18A2.3,2.3,0,0,1,31.34,89.87Z"/></svg>