<svg id="Layer_1" data-name="Layer 1" xmlns="http://www.w3.org/2000/svg" viewBox="0 0 150 150"><defs><style>.cls-1{fill:#454545;}</style></defs><title>4</title><path class="cls-1" d="M89.64,79.85A2,2,0,0,0,88.1,79l-6.24-.29-1.94-6.3a2,2,0,0,0-3.82,0l-1.95,6.3L67.91,79A2,2,0,0,0,66,81.09a2,2,0,0,0,.85,1.54h0l5,3.53-1.93,6.25A2,2,0,0,0,73,94.59l5-3.8,5,3.8a2,2,0,0,0,2.8-.38,2,2,0,0,0,.33-1.8l-1.93-6.25,5-3.53A2,2,0,0,0,89.64,79.85Zm-9,3.88A2,2,0,0,0,79.92,86l.51,1.66-1.21-.92a2,2,0,0,0-2.43,0l-1.2.92L76.1,86a2,2,0,0,0-.76-2.22l-1.42-1,1.82-.08a2,2,0,0,0,1.82-1.41L78,79.77l.45,1.46a2,2,0,0,0,1.81,1.41l1.82.08Z"/><path class="cls-1" d="M94.76,33.79l6.87-9.62a2,2,0,0,0-.46-2.79A2,2,0,0,0,99.72,21l-13,1.86-7.29-7.3a2,2,0,0,0-2.83,0h0l-7.29,7.3L56.29,21A2,2,0,0,0,54,22.72a2,2,0,0,0,.35,1.45l6.88,9.62a52,52,0,1,0,33.5,0ZM115.43,53a47.82,47.82,0,0,1,10.39,26H118V65a2,2,0,0,0-2-2H96.52a100.67,100.67,0,0,0-2-10ZM42,99V67h72V99Zm50.46,4a92.67,92.67,0,0,1-2.14,10H65.68a92.67,92.67,0,0,1-2.14-10ZM90.33,53a92.16,92.16,0,0,1,2.14,10H63.54a92.16,92.16,0,0,1,2.14-10Zm-23.4-4c3-8.66,7-14,11.08-14s8.09,5.33,11.07,14Zm44.92,0H93.32a39.51,39.51,0,0,0-6.66-13.2A48,48,0,0,1,111.85,49ZM60.35,25.65,69.72,27a2,2,0,0,0,1.7-.57L78,19.84l6.58,6.58a2,2,0,0,0,1.7.57l9.37-1.34-5,6.93a52,52,0,0,0-25.4,0Zm9,10.15A39.31,39.31,0,0,0,62.7,49H44.17A47.92,47.92,0,0,1,69.35,35.8ZM40.58,53h21a97.85,97.85,0,0,0-2,10H40a2,2,0,0,0-2,2h0V79H30.19A47.82,47.82,0,0,1,40.58,53Zm0,60A47.8,47.8,0,0,1,30,83h8v18a2,2,0,0,0,2,2H59.5a97.85,97.85,0,0,0,2,10Zm3.59,4H62.7a39.45,39.45,0,0,0,6.65,13.21A47.86,47.86,0,0,1,44.17,117ZM78,131c-4.09,0-8.09-5.34-11.08-14H89.08C86.1,125.65,82.09,131,78,131Zm8.65-.79A39.66,39.66,0,0,0,93.32,117h18.53A47.93,47.93,0,0,1,86.66,130.2ZM94.48,113a100.67,100.67,0,0,0,2-10H116a2,2,0,0,0,2-2h0V83h8a47.74,47.74,0,0,1-10.57,30Z"/></svg>