<svg id="Layer_1" data-name="Layer 1" xmlns="http://www.w3.org/2000/svg" viewBox="0 0 150 150"><defs><style>.cls-1{fill:#454545;}</style></defs><title>watch copy</title><path class="cls-1" d="M102.11,90.69c1.28,1.57,3.92-.39,2.55-2.07L94.38,76c-1.29-1.6-3.9.4-2.55,2.07Z"/><path class="cls-1" d="M136,107.61c0-5.54-7.05-10-16.55-10.8a21.21,21.21,0,0,0-5-13.78C108.37,75.78,101,68.75,95.87,60.72c4.76.32,8.18-5.25,4.63-9A5.3,5.3,0,0,0,102,48v0a5.35,5.35,0,0,0-5.34-5.34h-2L96.38,35A7.34,7.34,0,0,0,95,28.72,7.18,7.18,0,0,0,89.32,26H84.07c-1.79-3.66-5.63-4.11-9.26-4-1.27,0-7.32,0-9.12,0a7.4,7.4,0,0,0-6.45,4H54a7.22,7.22,0,0,0-5.68,2.75A7.34,7.34,0,0,0,46.94,35l1.82,7.68h-2A5.35,5.35,0,0,0,41.37,48v0a5.3,5.3,0,0,0,1.45,3.65c-3.5,3.73-.1,9.37,4.63,9a16.77,16.77,0,0,1-1.45,2L28.82,83c-11.17,13.22-1.71,34.5,15.77,34.5H72.68v5.62c0,6.13,8.64,10.93,19.66,10.93,10,0,18-4,19.44-9.29a36.13,36.13,0,0,0,4.56.29c11,0,19.66-4.8,19.66-10.93v-6.54Zm-3.29,0c0,6.37-12.12,7.65-16.37,7.65a32.81,32.81,0,0,1-4.58-.32c-1-3.81-5.48-6.92-11.62-8.36C102,101,111.62,100,116.34,100c4.46,0,16.37,1.28,16.37,7.64ZM89.32,29.25a3.94,3.94,0,0,1,3.1,1.51,4.05,4.05,0,0,1,.76,3.46l-2,8.44H81.72c.74-2.94,1.42-5.9,2.23-8.81a17.7,17.7,0,0,0,.84-4.6Zm-39.18,5a4.05,4.05,0,0,1,.76-3.46A3.94,3.94,0,0,1,54,29.25h4.49a11.93,11.93,0,0,0,.41,2.64c.5,2,3.71,1.29,3.18-.8A5.55,5.55,0,0,1,62,28a4.06,4.06,0,0,1,3.81-2.76c1.75,0,7.81,0,9.11,0,2.95-.05,4.83,0,6,1.76s.53,3.77-.08,6c-.89,3.21-1.65,6.46-2.46,9.69H65l-.58-2.35c-.5-2-3.71-1.28-3.19.8l.39,1.55H52.14ZM44.65,48a2.07,2.07,0,0,1,2.06-2.06h49.9a2,2,0,0,1,0,4.06H46.71A2,2,0,0,1,44.65,48Zm0,7.38a2,2,0,0,1,2.06-2h49.9a2,2,0,0,1,0,4.06H46.71A2.06,2.06,0,0,1,44.65,55.38Zm5.64,22.24a2.38,2.38,0,0,1,1.78-.46l4.69.65c3.05.43,2.38,5.25-.67,4.82L51.4,82a2.47,2.47,0,0,1-1.11-4.36Zm-2.07,9.69a2.44,2.44,0,0,1,2.73-2l4.69.65c3,.42,2.41,5.25-.67,4.82l-4.69-.65A2.45,2.45,0,0,1,48.22,87.31ZM56.76,74.5,53.28,74A37.75,37.75,0,0,1,59,60.72h4.47C60.91,63.57,58.35,67.91,56.76,74.5Zm-22,36.65a17.93,17.93,0,0,1-3.39-26L48.51,64.82a21.31,21.31,0,0,0,2.72-4.1H55a43.32,43.32,0,0,0-5.15,13.44,5.82,5.82,0,0,0-2.67,8.9,5.79,5.79,0,0,0,2.62,10.27l4.68.66a6,6,0,0,0,5.71-2.77,5,5,0,0,0-.37-6.4,5.75,5.75,0,0,0,0-9.15c1.94-8.39,5.5-12.74,8.31-15H92.09a21.31,21.31,0,0,0,2.72,4.1L112,85.15a17.83,17.83,0,0,1,4.17,11.54c-10,0-17.91,4-19.27,9.31a35.19,35.19,0,0,0-4.55-.28c-9.54,0-17.28,3.59-19.2,8.53H44.59A17.21,17.21,0,0,1,34.72,111.15Zm69.6,17.11a26.83,26.83,0,0,1-12,2.53,26.88,26.88,0,0,1-12-2.53c-2.06-1.07-4.53-2.88-4.38-5.49,3.49,2.92,9.46,4.81,16.37,4.81a35.86,35.86,0,0,0,4.52-.29c2-.26,1.72-3.53-.42-3.26a32.7,32.7,0,0,1-4.1.26,26.74,26.74,0,0,1-12-2.54c-5.52-2.85-5.51-7.37,0-10.21a26.74,26.74,0,0,1,12-2.54,26.7,26.7,0,0,1,12,2.54c2.79,1.44,4.39,3.3,4.39,5.11s-1.63,3.7-4.48,5.15c-1.83.93-.43,3.9,1.49,2.93a16.93,16.93,0,0,0,3-1.93c.13,2.6-2.33,4.4-4.39,5.46Zm24-9a26.85,26.85,0,0,1-12,2.54,32.88,32.88,0,0,1-4.35-.29v-3.23a36.69,36.69,0,0,0,4.35.26c6.91,0,12.88-1.88,16.37-4.8v.41c0,1.81-1.59,3.67-4.38,5.11Z"/></svg>