<?xml version="1.0" encoding="utf-8"?>
<!-- Generator: Adobe Illustrator 23.0.3, SVG Export Plug-In . SVG Version: 6.00 Build 0)  -->
<svg version="1.1" id="Layer_1" xmlns="http://www.w3.org/2000/svg" xmlns:xlink="http://www.w3.org/1999/xlink" x="0px" y="0px"
	 viewBox="0 0 100 100" style="enable-background:new 0 0 100 100;" xml:space="preserve">
<style type="text/css">
	.st0{fill:#198FCC;}
	.st1{fill:#FFFFFF;}
</style>
<title>1</title>
<circle class="st0" cx="50" cy="50" r="48"/>
<g>
	<path class="st1" d="M75.2,39.8c-1-4.8-0.4-14.8-16.9-17.4c-16.5-2.6-31.4,5.8-27.7,24.1c0,3.3-6.6,8.5-5,10.3
		c1.6,1.8,4.3,1.8,4.3,1.8s-1.8,3.3-1,4.3c0.8,0.9,3,0.5,3,0.5s-2,1.5-2,2.6c0,1.1,3.5,2.7,3.5,2.7s-0.6,6.3,4.5,5.9
		c5.2-0.4,6.1-1.9,6.1-1.9l1.5,6.4h20.1l-0.7-13.9C64.8,65.1,77.1,51.8,75.2,39.8z M67.4,47.3l-5.6,1.2l-2.5-2.2l0.9-2.2h7.2V47.3z
		 M67.1,28l4.1,4.4l-4.1,3.5h-2.3v-2.2l1.3-1.7L66,29.1L67.1,28z M64.8,26l-0.2,6.1l-2.1,3.2L61,34.9l0.2-3.7L57.6,30l3.1-4.7
		L64.8,26z M50.9,30.3l0.1-5.1l5.3,0l2.5,1.1l-1.6,2.5l-1.3,1.9l4,1.2v2.6L59,36.9l-5.1,0.3v-0.9l-1-0.4l-0.9,2.9l-2.5,1L46,37.3
		l1.4-2.6l2.1,0.7l0.4-1.2l-1.1-0.8l0.8-1.4l4.3,1.4l1.3-0.6L50.9,30.3z M41.3,32.1c0.2,0,5,0,5,0l-4-1.7l1.2-2.1l5.9-2.3v3.6
		l-4,0.1l2.7,1.6l-2.6,5h-4.8C40.8,36.3,41,32.1,41.3,32.1z M40.9,37.3h3.5l4.5,3.1L46,41.6L40.9,37.3z M47.5,44.6v-2.8l1.7-0.9
		l4.1,1.7l2.6,0.8l0.3-1.3l-3.3-1.3l0.2-2.2l5,0.2l4.4-2.6l4.4,1.3l4.6-3.4l2.5,4.2l-6,0.4l-1,2.6l2.7,0.3l-1.9-0.9l0.4-1.3l5.3-0.2
		L73.1,44l-4.9,0L66,42.1l-3.1,1.2l-2.4-0.1l2.1-2l-4.8-0.2l1.7,2.1L58,46.4H50L47.5,44.6z M60,52.5l-4.5-4.7c0.6,0,3.1-0.7,3.1-0.7
		l3.8,4.3L60,52.5z"/>
</g>
</svg>
