<?xml version="1.0" encoding="utf-8"?>
<!-- Generator: Adobe Illustrator 23.0.3, SVG Export Plug-In . SVG Version: 6.00 Build 0)  -->
<svg version="1.1" id="Layer_1" xmlns="http://www.w3.org/2000/svg" xmlns:xlink="http://www.w3.org/1999/xlink" x="0px" y="0px"
	 viewBox="0 0 100 100" style="enable-background:new 0 0 100 100;" xml:space="preserve">
<style type="text/css">
	.st0{fill:#198FCC;}
	.st1{fill:#FFFFFF;}
</style>
<title>2</title>
<circle class="st0" cx="50" cy="50" r="48"/>
<g>
	<path class="st1" d="M78.9,38.4l-6.3-3.8l-1.4-5.9c-0.6-2.6-3.1-4.4-5.7-4.1l-7.2,0.6l-4.1-3.7c-2-1.7-5-1.7-7,0l-4.1,3.7l-7.2-0.6
		c-2.6-0.2-5.1,1.5-5.6,3.9c-0.1,0.4-2.2,6.9-2.1,6.5l-5.7,3.4c-2.3,1.4-3.2,4.2-2.2,6.7l2.5,6l-2.5,6c-1,2.5-0.1,5.3,2.2,6.7
		l6.3,3.8l1.4,5.9c0.6,2.6,3,4.3,5.7,4.1l7.1-0.6l4.2,3.7c1,0.9,2.3,1.3,3.5,1.3c1.3,0,2.5-0.4,3.5-1.3l4.2-3.7l7.1,0.6
		c2.7,0.2,5.1-1.5,5.7-4.1l1.4-5.9l6.3-3.8c2.3-1.4,3.2-4.2,2.2-6.7l-2.5-6l2.5-6C82.1,42.6,81.2,39.8,78.9,38.4L78.9,38.4z
		 M50.5,71c-11,0-19.9-8.9-19.9-19.9s8.9-19.9,19.9-19.9s19.9,8.9,19.9,19.9S61.5,71,50.5,71z"/>
	<path class="st1" d="M50.5,34.8c-9,0-16.3,7.3-16.3,16.3s7.3,16.3,16.3,16.3s16.3-7.3,16.3-16.3S59.5,34.8,50.5,34.8z M60.9,46.9
		L50,57.8c-0.4,0.4-0.8,0.5-1.3,0.5c-0.5,0-0.9-0.2-1.3-0.5l-7.2-7.2c-0.7-0.7-0.7-1.9,0-2.6c0.7-0.7,1.9-0.7,2.6,0l6,6l9.6-9.6
		c0.7-0.7,1.9-0.7,2.6,0S61.6,46.2,60.9,46.9z"/>
</g>
</svg>
