<?xml version="1.0" encoding="utf-8"?>
<!-- Generator: Adobe Illustrator 23.0.3, SVG Export Plug-In . SVG Version: 6.00 Build 0)  -->
<svg version="1.1" id="Layer_1" xmlns="http://www.w3.org/2000/svg" xmlns:xlink="http://www.w3.org/1999/xlink" x="0px" y="0px"
	 viewBox="0 0 100 100" style="enable-background:new 0 0 100 100;" xml:space="preserve">
<style type="text/css">
	.st0{fill:#198FCC;}
	.st1{fill:#FFFFFF;}
</style>
<title>3</title>
<circle class="st0" cx="50" cy="50" r="48"/>
<g>
	<path class="st1" d="M76.3,58.5c0-6.6-3.8-12.6-9.5-15.4c-0.2,12.7-10.5,23-23.2,23.2c2.9,5.7,8.8,9.5,15.4,9.5
		c3.1,0,6.1-0.8,8.8-2.4l8.4,2.3l-2.3-8.4C75.5,64.6,76.3,61.6,76.3,58.5z"/>
	<path class="st1" d="M63.7,42.7c0-11.3-9.2-20.4-20.4-20.4s-20.4,9.2-20.4,20.4c0,3.7,1,7.2,2.8,10.4l-2.8,10l10-2.8
		c3.1,1.9,6.7,2.8,10.4,2.8C54.5,63.1,63.7,53.9,63.7,42.7z M40.1,37.9H37c0-3.5,2.8-6.3,6.3-6.3s6.3,2.8,6.3,6.3
		c0,1.8-0.7,3.4-2,4.6L44.8,45v2.4h-3.1v-3.8l3.7-3.4c0.7-0.6,1-1.4,1-2.3c0-1.7-1.4-3.1-3.1-3.1S40.1,36.2,40.1,37.9z M41.7,50.6
		h3.1v3.1h-3.1V50.6z"/>
</g>
</svg>
