<?xml version="1.0" encoding="utf-8"?>
<!-- Generator: Adobe Illustrator 23.0.3, SVG Export Plug-In . SVG Version: 6.00 Build 0)  -->
<svg version="1.1" id="Layer_1" xmlns="http://www.w3.org/2000/svg" xmlns:xlink="http://www.w3.org/1999/xlink" x="0px" y="0px"
	 viewBox="0 0 225 133.7" style="enable-background:new 0 0 225 133.7;" xml:space="preserve">
<style type="text/css">
	.st0{fill:#ECECEC;}
	.st1{fill:#E1E1E1;}
	.st2{fill:#F5F5F5;}
	.st3{fill:#FAFAFA;}
	.st4{fill:#1A2E35;}
	.st5{fill:#1A2E35;stroke:#000000;stroke-width:0.25;stroke-miterlimit:10;}
	.st6{fill:#FA5C93;}
	.st7{fill:#FF4F5B;}
	.st8{fill:#FFFFFF;}
	.st9{fill:#1D599E;}
	.st10{fill:#375A64;}
	.st11{fill:#FFFFFF;stroke:#000000;stroke-width:0.25;stroke-linecap:square;stroke-linejoin:round;stroke-miterlimit:10;}
	.st12{fill:#1A2E35;stroke:#000000;stroke-width:0.25;stroke-linecap:square;stroke-linejoin:round;stroke-miterlimit:10;}
	.st13{fill:#FFBF9D;}
	.st14{opacity:0.5;}
	.st15{fill:#323442;}
	.st16{opacity:0.3;}
	.st17{fill:#FBBEAC;}
	.st18{fill:#FF9A6C;}
	.st19{opacity:0.2;}
	.st20{fill:#058BC8;}
	.st21{opacity:0.4;}
</style>
<g>
	<g>
		<g>
			<path class="st0" d="M129.4,104h12.7c0.9,0,1.6-0.7,1.6-1.6v-3.9c0-1.5-1.2-2.7-2.7-2.7h-11.7L129.4,104z"/>
		</g>
	</g>
	<g>
		<g>
			<g>
				<g>
					<path class="st0" d="M141.9,106.5h-25c-0.7,0-1.2-0.6-1.2-1.2l0,0c0-0.7,0.6-1.2,1.2-1.2h25c0.7,0,1.2,0.6,1.2,1.2l0,0
						C143.2,105.9,142.6,106.5,141.9,106.5z"/>
				</g>
			</g>
			<g>
				<g>
					<path class="st1" d="M111.8,71.2l13.7-0.2l8.7,33l-18.6,0.2l-7-28.9C108.2,73.2,109.7,71.2,111.8,71.2z"/>
				</g>
			</g>
			<g>
				<g>
					<polygon class="st0" points="118.7,106.5 114.6,130.4 115.7,130.4 121.1,106.5 					"/>
				</g>
			</g>
			<g>
				<g>
					<polygon class="st1" points="128.4,106.5 124,130.4 125.2,130.4 130.8,106.5 					"/>
				</g>
			</g>
			<g>
				<g>
					<polygon class="st0" points="139.1,106.5 144,130.4 142.9,130.4 136.7,106.5 					"/>
				</g>
			</g>
		</g>
	</g>
	<g>
		<g>
			<path class="st0" d="M124,71l6.8,33h5.2l-5.5-29.2c-0.4-2.2-2.4-3.8-4.6-3.8H124z"/>
		</g>
	</g>
</g>
<g>
	<g>
		<g>
			<g>
				<rect x="145.2" y="82" class="st0" width="18.8" height="0.9"/>
			</g>
		</g>
		<g>
			<g>
				<polygon class="st0" points="166.9,83 170.4,69.7 155.7,69.7 152.5,83 				"/>
			</g>
		</g>
	</g>
	<g>
		<g>
			<polygon class="st1" points="153.4,82 166.5,82 169.6,70.3 156.4,70.3 			"/>
		</g>
	</g>
</g>
<g>
	<g>
		<g>
			<g>
				<rect x="141.4" y="85.7" class="st2" width="1" height="45.4"/>
			</g>
		</g>
		<g>
			<g>
				<rect x="142.4" y="85.8" class="st0" width="1" height="45.2"/>
			</g>
		</g>
	</g>
	<g>
		<g>
			<g>
				<rect x="200" y="85.7" class="st0" width="1" height="45.4"/>
			</g>
		</g>
		<g>
			<g>
				<rect x="200.9" y="85.8" class="st1" width="1" height="45.2"/>
			</g>
		</g>
	</g>
	<g>
		<g>
			<rect x="137.3" y="83" class="st1" width="72.2" height="3.7"/>
		</g>
	</g>
	<g>
		<g>
			<rect x="168.7" y="86.8" class="st0" width="31.8" height="6.2"/>
		</g>
	</g>
	<g>
		<g>
			<path class="st1" d="M186,89.4c0,0.4-0.3,0.7-0.7,0.7s-0.7-0.3-0.7-0.7c0-0.4,0.3-0.7,0.7-0.7C185.6,88.7,186,89,186,89.4z"/>
		</g>
	</g>
</g>
<g>
	<g>
		<rect x="8.4" y="9.3" class="st1" width="21.3" height="32.5"/>
	</g>
</g>
<g>
	<g>
		<rect x="9.3" y="10.5" class="st3" width="19.5" height="30.2"/>
	</g>
</g>
<g>
	<g>
		<rect x="16.4" y="20.5" class="st1" width="5.4" height="9.9"/>
	</g>
</g>
<g>
	<g>
		<g>
			<rect x="190.3" y="37.8" class="st1" width="0.7" height="6"/>
		</g>
	</g>
	<g>
		<g>
			<rect x="212.3" y="37.8" class="st1" width="0.7" height="6"/>
		</g>
	</g>
	<g>
		<g>
			<rect x="187.9" y="35.4" class="st0" width="28" height="2.4"/>
		</g>
	</g>
</g>
<g>
	<g>
		<g>
			<g>
				<rect x="206.5" y="17.4" class="st2" width="3.9" height="18"/>
			</g>
		</g>
		<g>
			<g>
				<path class="st1" d="M209.2,31.1c0,0.4-0.3,0.8-0.8,0.8c-0.4,0-0.8-0.3-0.8-0.8c0-0.4,0.3-0.8,0.8-0.8
					C208.9,30.3,209.2,30.7,209.2,31.1z"/>
			</g>
		</g>
		<g>
			<g>
				<rect x="207.8" y="22.2" class="st1" width="1.2" height="7.4"/>
			</g>
		</g>
	</g>
	<g>
		<g>
			<g>
				<rect x="202.5" y="17.4" class="st0" width="3.9" height="18"/>
			</g>
		</g>
		<g>
			<g>
				<path class="st3" d="M205.3,31.1c0,0.4-0.3,0.8-0.8,0.8c-0.4,0-0.8-0.3-0.8-0.8c0-0.4,0.3-0.8,0.8-0.8
					C205,30.3,205.3,30.7,205.3,31.1z"/>
			</g>
		</g>
		<g>
			<g>
				<rect x="203.9" y="22.2" class="st3" width="1.2" height="7.4"/>
			</g>
		</g>
	</g>
	<g>
		<g>
			<g>
				<rect x="198.8" y="17.4" class="st1" width="3.9" height="18"/>
			</g>
		</g>
		<g>
			<g>
				<path class="st3" d="M201.6,31.1c0,0.4-0.3,0.8-0.8,0.8c-0.4,0-0.8-0.3-0.8-0.8c0-0.4,0.3-0.8,0.8-0.8
					C201.2,30.3,201.6,30.7,201.6,31.1z"/>
			</g>
		</g>
		<g>
			<g>
				<rect x="200.2" y="22.2" class="st3" width="1.2" height="7.4"/>
			</g>
		</g>
	</g>
	<g>
		<g>
			<polygon class="st1" points="194,35.1 198.7,19.3 197.1,18.6 192.3,34.6 			"/>
		</g>
	</g>
</g>
<g>
	<g>
		<path class="st0" d="M86.5,101.3c1.6-0.8,3.4-0.9,5.2-0.6c0.9,0.2,1.9,0.4,2.6,1.1c0.6,0.7,0.8,1.9,0,2.5c-0.4,0.4-1,0.4-1.6,0.4
			c-1.4,0-2.9-0.3-4,0.6c-0.6,0.5-1,1.2-1.8,1.5c-0.7,0.2-1.6-0.2-1.9-0.9c-0.4-0.7-0.4-1.5-0.2-2.2
			C84.7,103.7,84.9,102.1,86.5,101.3z"/>
	</g>
	<g>
		<path class="st0" d="M82.9,94.3c1,1.4,2.8,0.9,3.7,0.1c0.9-0.8,1.2-2.1,1.6-3.2c0.8-2.6,1.5-5.4,1-8.1c-0.2-0.8-0.5-1.6-1-2.2
			c-0.6-0.6-1.4-1-2.2-0.7c-0.9,0.2-1.5,1.2-2,2c-1.2,2.6-1.9,5.4-1.9,8.3C82,91.8,82.1,93.2,82.9,94.3"/>
	</g>
	<g>
		<path class="st0" d="M80.2,96.3c1-1.2,1.2-3,0.8-4.6c-0.5-1.6-1.5-2.9-2.7-3.9c-1.4-1.3-3.1-2.2-4.9-2.9c-0.7-0.2-1.4-0.4-2.2-0.4
			c-0.7,0.1-1.5,0.5-1.8,1.1c-0.5,1,0,2.2,0.5,3.1c0.9,1.7,2,3.3,3.2,4.9c1,1.2,2.1,2.5,3.5,3c1.5,0.6,3,0.5,3.8-0.5"/>
	</g>
	<g>
		<g>
			<path class="st1" d="M82.8,115c0,0,0-0.2,0.1-0.6c0-0.5,0.1-1,0.2-1.7s0.2-1.6,0.4-2.5c0.2-0.9,0.5-1.9,0.9-2.9s0.9-1.9,1.5-2.7
				c0.6-0.7,1.3-1.3,1.9-1.6c0.6-0.3,1.2-0.4,1.6-0.5c0.4,0,0.6-0.1,0.6-0.1s-0.2,0-0.6,0s-1,0.1-1.7,0.4s-1.4,0.8-2,1.6
				c-0.6,0.8-1.1,1.7-1.6,2.7c-0.4,1-0.7,2-0.9,3c-0.2,0.9-0.3,1.8-0.3,2.5c-0.1,0.7-0.1,1.3-0.1,1.7C82.8,114.8,82.8,115,82.8,115z
				"/>
		</g>
	</g>
	<g>
		<g>
			<path class="st1" d="M82.9,113.7c0,0,0-0.1,0-0.3c0-0.2,0-0.5,0-0.8c0-0.7,0-1.8,0-3c0.1-2.6,0.3-5.3,0.7-9.2
				c0.4-3.7,0.9-7.9,1.5-10.7c0.1-0.6,0.2-1.2,0.4-1.7c0.1-0.5,0.2-0.9,0.3-1.3c0.1-0.3,0.1-0.6,0.2-0.8c0-0.2,0.1-0.3,0.1-0.3
				s0,0.1-0.1,0.3c-0.1,0.2-0.1,0.5-0.2,0.8s-0.2,0.8-0.3,1.3c-0.1,0.5-0.3,1.1-0.4,1.7c-0.6,2.5-1.2,6-1.6,9.9s-0.6,7.5-0.6,10
				c0,1.3,0,2.3,0,3c0,0.3,0,0.6,0.1,0.8C82.9,113.6,82.9,113.7,82.9,113.7z"/>
		</g>
	</g>
	<g>
		<g>
			<path class="st1" d="M83,106.8c0,0,0-0.3,0-0.9s-0.1-1.4-0.3-2.3c-0.2-1-0.4-2.1-0.8-3.4c-0.2-0.6-0.5-2-1.4-4
				c-1.2-2.8-2.8-5.1-4.2-6.5c-0.3-0.4-0.7-0.6-1-0.9c-0.2-0.1-0.3-0.3-0.4-0.4s-0.3-0.2-0.4-0.3c-0.5-0.3-0.7-0.5-0.7-0.5
				c0,0.1,1,0.7,2.4,2.1c1.3,1.4,2.9,3.7,4.1,6.5c0.7,1.5,1.1,2.9,1.4,4c0.4,1.3,0.6,2.4,0.8,3.4c0.2,1,0.3,1.8,0.3,2.3
				C82.9,106.5,82.9,106.8,83,106.8z"/>
		</g>
	</g>
</g>
<g>
	<polygon class="st1" points="76.3,118.9 77,128.3 89.1,128.3 89.8,118.9 	"/>
</g>
<g>
	<rect x="75.2" y="115.2" class="st1" width="16.1" height="3.7"/>
</g>
<g>
	<polygon class="st0" points="75.2,128 75.2,129 75.9,129 91,129 91,128 	"/>
</g>
<g>
	<polygon class="st1" points="76.7,130.8 75.9,129 90.4,129 89.5,130.8 	"/>
</g>
<g>
	<g>
		<path class="st2" d="M89.6,122L89.6,122c-0.1,0.2-0.2,0.2-0.2,0.3c-0.2,0.2-0.4,0.5-0.7,0.9l0,0l0,0c-0.4-0.6-1-1.4-1.7-2.4h0.1
			c-0.5,0.7-1.1,1.5-1.7,2.4l-0.1,0.1l-0.1-0.1c-0.6-0.7-1.3-1.6-2-2.4h0.1l-0.1,0.1c-0.6,0.8-1.2,1.5-1.8,2.3l-0.1,0.1l-0.1-0.1
			c-0.6-0.9-1.2-1.7-1.7-2.4h0.1c-0.8,1-1.6,1.8-2.1,2.4l0,0l0,0c-0.3-0.5-0.5-0.8-0.7-1.1c-0.1-0.1-0.1-0.2-0.2-0.3
			c0-0.1-0.1-0.1-0.1-0.1s0,0,0.1,0.1c0,0.1,0.1,0.2,0.2,0.3c0.2,0.3,0.4,0.6,0.7,1.1h-0.1c0.5-0.6,1.2-1.5,2.1-2.4l0.1-0.1v0.1
			c0.5,0.7,1.1,1.5,1.7,2.4h-0.1c0.6-0.7,1.2-1.5,1.8-2.3l0.1-0.1l0.1-0.1l0.1,0.1c0.7,0.8,1.4,1.7,2,2.4h-0.1
			c0.6-0.9,1.2-1.7,1.7-2.4l0.1-0.1v0.1c0.7,1,1.3,1.8,1.7,2.4h-0.1c0.3-0.4,0.6-0.7,0.7-0.9C89.4,122.2,89.4,122.1,89.6,122
			C89.5,122,89.6,122,89.6,122z"/>
	</g>
</g>
<g>
	<g>
		<path class="st2" d="M90,118.9c0,0-3,0.1-6.8,0.1c-3.7,0-6.8,0-6.8-0.1c0,0,3-0.1,6.8-0.1C86.9,118.8,90,118.8,90,118.9z"/>
	</g>
</g>
<g>
	<g>
		<path class="st2" d="M90.6,129.1c0,0-3.3,0.1-7.4,0.1s-7.4,0-7.4-0.1c0,0,3.3-0.1,7.4-0.1C87.3,129,90.6,129.1,90.6,129.1z"/>
	</g>
</g>
<g>
	<path class="st4" d="M204,132.2c0,0-33.2,0.1-93.9,0.1c-51.9,0-92.6,0-92.6-0.1c0,0,40.7-0.1,92.6-0.1
		C170.7,132.1,204,132.1,204,132.2z"/>
</g>
<g>
	<g>
		<g>
			<g>
				<path class="st5" d="M20.5,124.4L20.5,124.4c0-0.2,0.1-0.3,0.1-0.4c0.1-0.3,0.3-0.7,0.4-1.2c0.3-1.1,0.4-2.8,0-4.8
					c-0.2-1-0.5-2.1-0.9-3.2s-0.8-2.4-1.2-3.7c-0.4-1.3-0.6-2.7-0.6-4.2c0.1-1.5,0.5-3,1-4.5s1-2.9,1.1-4.4c0.2-1.5-0.1-2.9-0.8-4.1
					c-0.6-1.2-1.5-2.2-2.1-3.3c-0.6-1-1-2.1-1.2-3.1c-0.5-2-0.3-3.7-0.1-4.8c0.2-1.1,0.5-1.7,0.5-1.7s0,0,0,0.1s-0.1,0.2-0.1,0.3
					c-0.1,0.3-0.2,0.7-0.3,1.3c-0.2,1.1-0.3,2.8,0.1,4.8c0.2,1,0.6,2.1,1.2,3.1s1.4,2,2.1,3.2s1,2.7,0.8,4.1c-0.2,1.5-0.7,3-1.1,4.4
					c-0.5,1.5-0.9,3-1,4.4c-0.1,1.5,0.2,2.9,0.6,4.2c0.4,1.3,0.8,2.5,1.2,3.7c0.4,1.1,0.7,2.2,0.9,3.2c0.4,2,0.3,3.7,0,4.8
					c-0.2,0.6-0.3,1-0.5,1.2c-0.1,0.1-0.1,0.2-0.2,0.3C20.5,124.4,20.5,124.4,20.5,124.4z"/>
			</g>
		</g>
	</g>
	<g>
		<g>
			<g>
				<path class="st6" d="M18.5,91.7c0,0-1.2-3.9,1-6.2c0.1-0.1,0.2,0,0.2,0.1C19.8,86.1,19.9,88.1,18.5,91.7z"/>
			</g>
		</g>
		<g>
			<g>
				<g>
					<path class="st4" d="M19.2,86.7c0,0,0,0.3-0.1,0.7c-0.1,0.5-0.2,1.1-0.3,1.7c-0.1,0.6-0.2,1.2-0.3,1.7
						c-0.1,0.4-0.1,0.7-0.1,0.7s0-0.3,0-0.7c0-0.4,0.1-1.1,0.2-1.7c0.1-0.7,0.2-1.3,0.3-1.7C19.1,87,19.2,86.7,19.2,86.7z"/>
				</g>
			</g>
		</g>
	</g>
	<g>
		<g>
			<g>
				<path class="st6" d="M19.9,101c0,0,0.8-4.1,3.8-5.1c0.1,0,0.2,0.1,0.2,0.2C23.7,96.7,22.9,98.5,19.9,101z"/>
			</g>
		</g>
		<g>
			<g>
				<g>
					<path class="st6" d="M22.9,96.9c0,0-0.1,0.2-0.4,0.6s-0.7,0.9-1.1,1.4s-0.8,1-1.1,1.4c-0.3,0.4-0.4,0.6-0.5,0.6
						c0,0,0.1-0.3,0.4-0.6c0.2-0.4,0.6-0.9,1-1.4s0.8-1,1.1-1.4C22.7,97.1,22.9,96.9,22.9,96.9z"/>
				</g>
			</g>
		</g>
	</g>
	<g>
		<g>
			<g>
				<path class="st6" d="M19.1,111.1c0,0-0.5-4.1,2.2-5.9c0.1-0.1,0.2,0,0.2,0.1C21.5,106,21.2,107.9,19.1,111.1z"/>
			</g>
		</g>
		<g>
			<g>
				<g>
					<path class="st4" d="M20.8,106.4c0,0-0.1,0.3-0.2,0.7c-0.2,0.5-0.4,1-0.6,1.7c-0.2,0.6-0.4,1.2-0.6,1.7
						c-0.2,0.4-0.2,0.7-0.3,0.7c0,0,0-0.3,0.2-0.7c0.1-0.4,0.3-1,0.6-1.7c0.2-0.6,0.5-1.2,0.7-1.6C20.6,106.7,20.7,106.4,20.8,106.4
						z"/>
				</g>
			</g>
		</g>
	</g>
	<g>
		<g>
			<g>
				<path class="st6" d="M21.4,121.4c0,0-0.3-4.1,2.4-5.9c0.1-0.1,0.2,0,0.2,0.1C23.9,116.3,23.6,118.2,21.4,121.4z"/>
			</g>
		</g>
		<g>
			<g>
				<g>
					<path class="st4" d="M23.2,116.7c0,0-0.1,0.3-0.2,0.7c-0.2,0.5-0.4,1-0.7,1.6c-0.2,0.6-0.5,1.2-0.7,1.6s-0.3,0.7-0.3,0.7
						s0-0.3,0.2-0.7c0.1-0.4,0.4-1,0.6-1.7c0.3-0.6,0.5-1.2,0.7-1.6C23.1,117,23.2,116.7,23.2,116.7z"/>
				</g>
			</g>
		</g>
	</g>
	<g>
		<g>
			<g>
				<path class="st6" d="M16.7,88.2c0,0-3.7-1.9-3.7-5.1c0-0.1,0.1-0.2,0.2-0.1C13.7,83.4,15.2,84.7,16.7,88.2z"/>
			</g>
		</g>
		<g>
			<g>
				<g>
					<path class="st4" d="M13.7,84.2c0,0,0.2,0.2,0.5,0.6s0.6,0.9,1,1.4s0.7,1,1,1.4c0.3,0.4,0.4,0.6,0.4,0.6s-0.2-0.2-0.5-0.5
						c-0.3-0.3-0.7-0.8-1.1-1.4c-0.4-0.6-0.8-1.1-1-1.5C13.9,84.5,13.7,84.2,13.7,84.2z"/>
				</g>
			</g>
		</g>
	</g>
	<g>
		<g>
			<g>
				<path class="st6" d="M20.6,96.7c0,0-3.8-1.7-4-4.9c0-0.1,0.1-0.2,0.2-0.1C17.4,92,18.9,93.2,20.6,96.7z"/>
			</g>
		</g>
		<g>
			<g>
				<g>
					<path class="st4" d="M17.4,92.8c0,0,0.2,0.2,0.5,0.5c0.3,0.4,0.7,0.9,1.1,1.4s0.8,1,1.1,1.4c0.3,0.3,0.5,0.6,0.5,0.6
						s-0.2-0.2-0.5-0.5s-0.7-0.8-1.2-1.3c-0.4-0.5-0.8-1-1.1-1.4C17.6,93.1,17.4,92.9,17.4,92.8z"/>
				</g>
			</g>
		</g>
	</g>
	<g>
		<g>
			<g>
				<path class="st6" d="M18.5,106.1c0,0-2.6-3.2-1.4-6.2c0-0.1,0.2-0.1,0.2,0C17.7,100.5,18.5,102.3,18.5,106.1z"/>
			</g>
		</g>
		<g>
			<g>
				<g>
					<path class="st4" d="M17.3,101.2c0,0,0.1,0.3,0.2,0.7c0.1,0.5,0.2,1.1,0.4,1.7c0.1,0.6,0.3,1.2,0.4,1.7
						c0.1,0.4,0.2,0.7,0.1,0.7c0,0-0.1-0.3-0.2-0.7c-0.1-0.4-0.3-1-0.4-1.7s-0.3-1.3-0.3-1.7C17.4,101.5,17.3,101.2,17.3,101.2z"/>
				</g>
			</g>
		</g>
	</g>
	<g>
		<g>
			<g>
				<path class="st6" d="M21,117.2c0,0-3.7-1.7-3.9-4.9c0-0.1,0.1-0.2,0.2-0.1C17.8,112.5,19.4,113.7,21,117.2z"/>
			</g>
		</g>
		<g>
			<g>
				<g>
					<path class="st4" d="M17.9,113.3c0,0,0.2,0.2,0.5,0.6s0.7,0.9,1.1,1.4s0.8,1,1.1,1.4c0.3,0.3,0.5,0.6,0.4,0.6
						c0,0-0.2-0.2-0.5-0.5s-0.7-0.8-1.1-1.4c-0.4-0.5-0.8-1-1.1-1.4C18,113.6,17.9,113.3,17.9,113.3z"/>
				</g>
			</g>
		</g>
	</g>
	<g>
		<g>
			<g>
				<g>
					<path class="st4" d="M28.5,101L28.5,101c0,0.2,0,0.2,0,0.4c0,0.2,0,0.6,0,1c0,0.9-0.1,2.1-0.2,3.6l0,0l0,0
						c-0.3,1.5-1,3.1-2,4.8c-0.7,1.2-1.5,2.3-2.2,3.3s-1.3,1.9-1.7,2.7c-0.4,0.8-0.6,1.5-0.8,2c-0.1,0.2-0.1,0.4-0.1,0.6
						c0,0.1,0,0.2-0.1,0.2c0,0,0-0.1,0-0.2s0.1-0.3,0.1-0.6c0.1-0.5,0.3-1.2,0.7-2c0.4-0.8,1-1.8,1.6-2.8c0.7-1,1.5-2.1,2.2-3.3
						c1-1.6,1.8-3.2,2-4.7l0,0c0.1-1.5,0.2-2.7,0.3-3.6c0-0.4,0.1-0.8,0.1-1C28.4,101.2,28.4,101.1,28.5,101L28.5,101z"/>
				</g>
			</g>
		</g>
		<g>
			<g>
				<g>
					<path class="st7" d="M26.2,110.4c0,0,1.6-3.8-0.4-6.3c-0.1-0.1-0.2-0.1-0.2,0C25.4,104.7,25.1,106.7,26.2,110.4z"/>
				</g>
			</g>
			<g>
				<g>
					<g>
						<path class="st4" d="M26,105.4c0,0,0.1,0.3,0.1,0.7c0.1,0.4,0.1,1.1,0.2,1.8c0,0.7,0.1,1.3,0.1,1.8s0,0.7,0,0.7s0-0.3-0.1-0.7
							c0-0.5-0.1-1.1-0.1-1.8c0-0.7-0.1-1.2-0.1-1.8C25.9,105.7,25.9,105.4,26,105.4z"/>
					</g>
				</g>
			</g>
			<g>
				<g>
					<path class="st6" d="M26.2,110.4c0,0,1.6-3.8-0.4-6.3c-0.1-0.1-0.2-0.1-0.2,0C25.4,104.7,25.1,106.7,26.2,110.4z"/>
				</g>
			</g>
		</g>
		<g>
			<g>
				<g>
					<path class="st7" d="M21.3,119.5c0,0,1.3-3.9-0.9-6.3c-0.1-0.1-0.2,0-0.2,0.1C20.1,114,19.9,116,21.3,119.5z"/>
				</g>
			</g>
			<g>
				<g>
					<g>
						<path class="st4" d="M20.6,114.6c0,0,0.1,0.3,0.2,0.7c0.1,0.4,0.2,1.1,0.3,1.7c0.1,0.7,0.2,1.3,0.2,1.8s0,0.7,0,0.7
							s-0.1-0.3-0.1-0.7c-0.1-0.5-0.2-1.1-0.3-1.7c-0.1-0.6-0.2-1.2-0.3-1.7C20.7,114.9,20.6,114.6,20.6,114.6z"/>
					</g>
				</g>
			</g>
			<g>
				<g>
					<path class="st6" d="M21.3,119.5c0,0,1.3-3.9-0.9-6.3c-0.1-0.1-0.2,0-0.2,0.1C20.1,114,19.9,116,21.3,119.5z"/>
				</g>
			</g>
		</g>
		<g>
			<g>
				<g>
					<path class="st7" d="M28.3,105.7c0,0,3.4-2.4,3-5.5c0-0.1-0.1-0.2-0.2-0.1C30.6,100.5,29.3,102,28.3,105.7z"/>
				</g>
			</g>
			<g>
				<g>
					<path class="st6" d="M28.3,105.7c0,0,3.4-2.4,3-5.5c0-0.1-0.1-0.2-0.2-0.1C30.6,100.5,29.3,102,28.3,105.7z"/>
				</g>
			</g>
			<g>
				<g>
					<g>
						<path class="st4" d="M30.7,101.3c0,0-0.1,0.3-0.3,0.7c-0.2,0.4-0.5,1-0.8,1.6s-0.6,1.1-0.9,1.5c-0.2,0.4-0.4,0.6-0.4,0.6
							s0.1-0.3,0.3-0.6c0.2-0.4,0.5-1,0.8-1.5c0.3-0.6,0.6-1.1,0.8-1.5C30.5,101.6,30.7,101.3,30.7,101.3z"/>
					</g>
				</g>
			</g>
		</g>
		<g>
			<g>
				<g>
					<path class="st7" d="M22.7,115.6c0,0,4.1-0.6,5.2-3.6c0-0.1-0.1-0.2-0.2-0.2C27.1,112,25.2,112.8,22.7,115.6z"/>
				</g>
			</g>
			<g>
				<g>
					<path class="st6" d="M22.7,115.6c0,0,4.1-0.6,5.2-3.6c0-0.1-0.1-0.2-0.2-0.2C27.1,112,25.2,112.8,22.7,115.6z"/>
				</g>
			</g>
			<g>
				<g>
					<g>
						<path class="st4" d="M26.8,112.8c0,0-0.2,0.2-0.5,0.5c-0.4,0.3-0.8,0.7-1.4,1.1s-1.1,0.7-1.5,1c-0.4,0.2-0.6,0.4-0.6,0.3
							c0,0,0.2-0.2,0.6-0.4c0.4-0.3,0.9-0.6,1.4-1s1-0.7,1.4-1C26.6,112.9,26.8,112.8,26.8,112.8z"/>
					</g>
				</g>
			</g>
		</g>
	</g>
</g>
<g>
	<g>
		<polygon class="st6" points="18.8,124.1 17.6,132.1 25,132.1 24.1,124.1 		"/>
	</g>
</g>
<g>
	<g>
		<g>
			<path class="st4" d="M24.4,125.6c0,0-1.3,0.1-3,0.1s-3,0-3-0.1s1.3-0.1,3-0.1C23,125.5,24.4,125.6,24.4,125.6z"/>
		</g>
	</g>
</g>
<g>
	<g>
		<g>
			<path class="st4" d="M24.5,126.3c0,0-1.4,0.1-3.1,0.1s-3.1,0-3.1-0.1c0,0,1.4-0.1,3.1-0.1C23.1,126.2,24.5,126.2,24.5,126.3z"/>
		</g>
	</g>
</g>
<g>
	<circle class="st6" cx="63.4" cy="17.4" r="16"/>
</g>
<g>
	<path class="st8" d="M63.4,30.7c-7.3,0-13.3-6-13.3-13.3s6-13.3,13.3-13.3s13.3,6,13.3,13.3S70.8,30.7,63.4,30.7z M63.4,6.4
		c-6.1,0-11,4.9-11,11s4.9,11,11,11s11-4.9,11-11C74.5,11.3,69.5,6.4,63.4,6.4z"/>
</g>
<g>
	<path class="st8" d="M63.3,21.9c-2.7,0-4.9-2.2-4.9-4.9s2.2-4.9,4.9-4.9s4.9,2.2,4.9,4.9S66,21.9,63.3,21.9z M63.3,14.4
		c-1.4,0-2.6,1.2-2.6,2.6s1.2,2.6,2.6,2.6s2.6-1.2,2.6-2.6C66,15.6,64.8,14.4,63.3,14.4z"/>
</g>
<g>
	<polygon class="st9" points="63.3,17 57.2,17 58.2,18.9 43.7,25.6 44.2,26.4 58.8,19.8 59.8,21.7 	"/>
</g>
<g>
	<path class="st9" d="M43.7,25.6l-0.2-0.2c-0.8-0.7-1.9-1-2.9-0.7l-5.8,1.7l3.2,1.4l-1.3,3.5l5.5-1.9c1.2-0.4,2-1.6,2-2.9l0,0
		L43.7,25.6z"/>
</g>
<g>
	<g>
		<path class="st3" d="M178.7,42.3h-37c-0.9,0-1.6-0.7-1.6-1.6V5.9c0-0.9,0.7-1.6,1.6-1.6h37c0.9,0,1.6,0.7,1.6,1.6v34.8
			C180.3,41.6,179.6,42.3,178.7,42.3z"/>
	</g>
	<g>
		<g>
			<path class="st5" d="M178.7,42.3c0,0,0.1,0,0.4-0.1c0.2-0.1,0.6-0.2,0.9-0.7c0.1-0.2,0.3-0.5,0.3-0.8s0-0.7,0-1
				c0-0.7,0-1.6,0-2.6c0-3.9,0-9.5,0-16.5c0-3.5,0-7.3,0-11.4c0-1,0-2.1,0-3.1c0-0.3,0-0.5-0.1-0.8c-0.1-0.2-0.2-0.5-0.4-0.6
				c-0.2-0.2-0.4-0.3-0.7-0.4c-0.2-0.1-0.5,0-0.8-0.1c-2.2,0-4.4,0-6.7,0c-9.2,0-19.3,0-29.9,0c-0.6,0-1.2,0.4-1.4,1
				c-0.1,0.3-0.1,0.6-0.1,0.9v1c0,1.3,0,2.6,0,3.9c0,2.6,0,5.1,0,7.6c0,5,0,9.8,0,14.4c0,2.3,0,4.5,0,6.7c0,0.3,0,0.6,0,0.8
				c0,0.3,0.1,0.5,0.3,0.7c0.3,0.4,0.8,0.7,1.3,0.7c1.1,0,2.1,0,3.1,0c4.1,0,7.9,0,11.4,0c7,0,12.6,0,16.5,0c1.9,0,3.5,0,4.5,0
				c0.5,0,0.9,0,1.2,0C178.5,42.3,178.7,42.3,178.7,42.3s-0.1,0-0.4,0c-0.3,0-0.7,0-1.2,0c-1,0-2.5,0-4.5,0c-3.9,0-9.5,0-16.5,0
				c-3.5,0-7.3,0-11.4,0c-1,0-2.1,0-3.1,0c-0.6,0-1.1-0.3-1.4-0.7c-0.2-0.2-0.3-0.5-0.3-0.8s0-0.5,0-0.8c0-2.2,0-4.4,0-6.7
				c0-4.6,0-9.4,0-14.4c0-2.5,0-5,0-7.6c0-1.3,0-2.6,0-3.9v-1V5.9c0-0.2,0-0.3,0.1-0.5c0.2-0.7,0.9-1.1,1.6-1.1
				c10.6,0,20.7,0,29.9,0c2.3,0,4.5,0,6.7,0h0.4c0.1,0,0.3,0,0.4,0.1c0.3,0.1,0.5,0.2,0.7,0.4c0.2,0.2,0.4,0.4,0.4,0.7
				c0.1,0.3,0.1,0.6,0.1,0.8c0,1.1,0,2.1,0,3.1c0,4.1,0,7.9,0,11.4c0,7,0,12.6,0,16.5c0,1,0,1.8,0,2.6c0,0.4,0,0.7,0,1
				s-0.1,0.6-0.3,0.8c-0.3,0.4-0.7,0.6-0.9,0.7C178.8,42.3,178.7,42.3,178.7,42.3z"/>
		</g>
	</g>
</g>
<g>
	<g>
		<rect x="147.1" y="19.5" class="st7" width="2.2" height="18.6"/>
	</g>
	<g>
		<rect x="156.9" y="18" class="st7" width="2.2" height="20.2"/>
	</g>
	<g>
		<rect x="167.1" y="15.4" class="st7" width="2.2" height="22.7"/>
	</g>
	<g>
		<rect x="162.3" y="29.1" class="st4" width="2.2" height="9.1"/>
	</g>
	<g>
		<rect x="149.6" y="17.5" class="st10" width="2.2" height="20.6"/>
	</g>
	<g>
		<rect x="159.6" y="13.2" class="st10" width="2.2" height="25"/>
	</g>
	<g>
		<rect x="172.7" y="13.2" class="st4" width="2.2" height="25"/>
	</g>
	<g>
		<rect x="170" y="8.3" class="st10" width="2.2" height="29.9"/>
	</g>
	<g>
		<rect x="152.2" y="25.1" class="st4" width="2.2" height="13.1"/>
	</g>
	<g>
		<g>
			<path class="st4" d="M178,39.3c0,0-7.7,0.1-17.3,0.1s-17.3,0-17.3-0.1c0,0,7.7-0.1,17.3-0.1S178,39.2,178,39.3z"/>
		</g>
	</g>
	<g>
		<rect x="142.4" y="34.8" class="st4" width="1.3" height="0.5"/>
	</g>
	<g>
		<rect x="142.4" y="28.2" class="st4" width="1.3" height="0.5"/>
	</g>
	<g>
		<rect x="142.4" y="15.7" class="st4" width="1.3" height="0.5"/>
	</g>
	<g>
		<rect x="142.4" y="9.4" class="st4" width="1.3" height="0.5"/>
	</g>
	<g>
		<rect x="142.5" y="22" class="st4" width="1.3" height="0.5"/>
	</g>
</g>
<g>
	<g>
		<rect x="70.9" y="18.2" class="st11" width="74.9" height="58.3"/>
	</g>
	<g>
		<g>
			<path class="st12" d="M145.8,76.5c0-0.6,0-23.1-0.1-58.3l0.1,0.1c-21.3,0-47.1,0-74.9,0l0,0l0.1-0.1c0,21,0,40.9,0,58.3l-0.1-0.1
				C115.4,76.4,145.2,76.5,145.8,76.5c-0.7,0-30.5,0-74.9,0.1h-0.1v-0.1c0-17.4,0-37.3,0-58.3v-0.1h0.1l0,0c27.8,0,53.6,0,74.9,0
				h0.1v0.1C145.9,53.4,145.8,75.9,145.8,76.5z"/>
		</g>
	</g>
</g>
<g>
	<g>
		<g>
			<path class="st4" d="M93.1,69.3c0,0-0.1-5.9-0.1-13.1c0-7.3,0-13.1,0.1-13.1s0.1,5.9,0.1,13.1C93.1,63.5,93.1,69.3,93.1,69.3z"/>
		</g>
	</g>
	<g>
		<g>
			<path class="st4" d="M123.2,69.3c0,0-0.1-5.9-0.1-13.1c0-7.3,0-13.1,0.1-13.1c0,0,0.1,5.9,0.1,13.1
				C123.3,63.5,123.3,69.3,123.2,69.3z"/>
		</g>
	</g>
	<g>
		<g>
			<path class="st4" d="M103.4,69.3c0,0-0.1-7.5-0.1-16.8s0-16.8,0.1-16.8c0,0,0.1,7.5,0.1,16.8S103.4,69.3,103.4,69.3z"/>
		</g>
	</g>
	<g>
		<g>
			<path class="st4" d="M82.5,69.3c0,0-0.1-7.5-0.1-16.8s0-16.8,0.1-16.8c0,0,0.1,7.5,0.1,16.8S82.5,69.3,82.5,69.3z"/>
		</g>
	</g>
	<g>
		<g>
			<path class="st4" d="M135.1,69.3c0,0-0.1-7.5-0.1-16.8s0-16.8,0.1-16.8c0,0,0.1,7.5,0.1,16.8C135.2,61.8,135.1,69.3,135.1,69.3z"
				/>
		</g>
	</g>
	<g>
		<g>
			<path class="st4" d="M112.4,69.3c0,0-0.1-8.7-0.1-19.4s0-19.4,0.1-19.4s0.1,8.7,0.1,19.4C112.5,60.7,112.4,69.3,112.4,69.3z"/>
		</g>
	</g>
	<g>
		<path class="st4" d="M93.3,43.1c0,0.1-0.1,0.2-0.2,0.2s-0.2-0.1-0.2-0.2s0.1-0.2,0.2-0.2S93.3,42.9,93.3,43.1z"/>
	</g>
	<g>
		<path class="st4" d="M103.6,35.7c0,0.1-0.1,0.2-0.2,0.2s-0.2-0.1-0.2-0.2s0.1-0.2,0.2-0.2S103.6,35.6,103.6,35.7z"/>
	</g>
	<g>
		<path class="st7" d="M103.4,36.6c-0.5,0-0.9-0.4-0.9-0.9s0.4-0.9,0.9-0.9s0.9,0.4,0.9,0.9S103.8,36.6,103.4,36.6z M103.4,35
			c-0.4,0-0.8,0.4-0.8,0.8s0.4,0.8,0.8,0.8s0.8-0.4,0.8-0.8S103.8,35,103.4,35z"/>
	</g>
	<g>
		<circle class="st4" cx="112.4" cy="30.6" r="0.2"/>
	</g>
	<g>
		<path class="st4" d="M123.5,43.3c0,0.1-0.1,0.2-0.2,0.2s-0.2-0.1-0.2-0.2c0-0.1,0.1-0.2,0.2-0.2S123.5,43.2,123.5,43.3z"/>
	</g>
	<g>
		<path class="st4" d="M135.3,35.7c0,0.1-0.1,0.2-0.2,0.2s-0.2-0.1-0.2-0.2s0.1-0.2,0.2-0.2S135.3,35.6,135.3,35.7z"/>
	</g>
	<g>
		<path class="st4" d="M82.7,36c0,0.1-0.1,0.2-0.2,0.2s-0.2-0.1-0.2-0.2c0-0.1,0.1-0.2,0.2-0.2C82.6,35.7,82.7,35.9,82.7,36z"/>
	</g>
	<g>
		<g>
			<path class="st7" d="M137.4,47.6c0,0-0.3,0.1-0.7,0.3c-0.5,0.2-1.1,0.6-1.8,1.4c-0.7,0.7-1.3,1.7-2.2,2.9
				c-0.4,0.6-0.9,1.2-1.5,1.7c-0.3,0.3-0.6,0.6-1,0.8s-0.7,0.5-1.2,0.6c-0.8,0.4-1.8,0.5-2.8,0.5c-0.5,0-1-0.1-1.5-0.2
				c-0.5-0.1-1-0.3-1.5-0.6s-0.8-0.7-1.2-1.2c-0.3-0.5-0.6-0.9-0.9-1.4c-0.5-1-1.1-2-1.7-3s-1.2-2.1-1.9-3.1c-0.7-1-1.4-2.1-2.3-2.9
				c-0.5-0.4-0.9-0.8-1.5-1.1c-0.3-0.2-0.6-0.2-0.9-0.4c-0.2,0-0.3-0.1-0.5-0.1h-0.2c-0.1,0-0.2,0-0.2,0c-1.3-0.1-2.6,0.2-3.7,0.8
				s-2.1,1.6-2.8,2.7c-0.8,1-1.4,2.2-2,3.3c-1.2,2.2-2.6,4.4-4.4,6c-0.9,0.8-1.9,1.4-3.1,1.7c-0.6,0.2-1.1,0.2-1.7,0.2
				s-1.1-0.1-1.6-0.3c-1-0.3-1.9-0.9-2.7-1.4c-0.8-0.6-1.5-1.1-2.3-1.7c-0.7-0.5-1.4-1-2.1-1.3s-1.4-0.5-2.1-0.6s-1.3,0-1.9,0.1
				c-0.1,0-0.3,0.1-0.4,0.1c-0.1,0.1-0.3,0.1-0.4,0.2c-0.2,0.1-0.5,0.2-0.7,0.4c-0.4,0.3-0.7,0.6-1,0.8c-0.3,0.3-0.5,0.5-0.6,0.7
				c-0.3,0.4-0.5,0.6-0.5,0.6s0.1-0.2,0.4-0.7c0.1-0.2,0.4-0.5,0.6-0.8c0.3-0.3,0.6-0.6,1-0.9c0.2-0.2,0.4-0.3,0.7-0.4
				c0.1-0.1,0.3-0.1,0.4-0.2c0.1,0,0.3-0.1,0.4-0.1c0.6-0.2,1.3-0.2,2-0.2c0.7,0.1,1.5,0.3,2.2,0.6c0.8,0.3,1.5,0.8,2.2,1.3
				s1.5,1.1,2.3,1.6s1.7,1,2.6,1.4c0.5,0.1,1,0.2,1.5,0.3c0.5,0,1,0,1.6-0.2c1-0.3,2-0.9,2.9-1.6c1.7-1.5,3.1-3.6,4.3-5.9
				c0.6-1.1,1.3-2.3,2.1-3.3c0.8-1.1,1.8-2.1,3-2.8s2.7-1,4-0.9c0.1,0,0.2,0,0.3,0l0.3,0.1c0.2,0,0.3,0.1,0.5,0.1
				c0.3,0.1,0.7,0.2,0.9,0.4c0.6,0.3,1.1,0.7,1.6,1.2c0.9,0.9,1.7,2,2.3,3c0.7,1.1,1.2,2.1,1.8,3.1c0.6,1,1.2,2,1.7,3
				s1.1,1.9,1.9,2.5c0.4,0.3,0.9,0.5,1.3,0.6c0.5,0.1,1,0.2,1.4,0.2c0.9,0.1,1.9-0.1,2.7-0.4c0.4-0.2,0.8-0.4,1.1-0.6
				c0.3-0.2,0.7-0.5,0.9-0.8c0.6-0.5,1.1-1.1,1.5-1.7c0.9-1.1,1.6-2.1,2.3-2.9c0.7-0.7,1.4-1.1,1.9-1.3c0.3-0.1,0.4-0.1,0.6-0.2
				C137.4,47.6,137.4,47.6,137.4,47.6z"/>
		</g>
	</g>
	<g>
		<rect x="82.2" y="25.8" class="st4" width="12.1" height="0.7"/>
	</g>
	<g>
		<rect x="82.2" y="27.4" class="st4" width="6" height="0.7"/>
	</g>
</g>
<g>
	<rect x="70.6" y="16.5" class="st9" width="75.4" height="4.7"/>
</g>
<g>
	<g>
		<g>
			<polygon class="st13" points="179.7,113.1 190.6,126.4 193.8,123.2 185.1,111.1 			"/>
		</g>
	</g>
</g>
<g>
	<g>
		<g>
			<g>
				<g>
					<path class="st6" d="M190,127.9l-0.4-0.4l4-4.6l1.7,1.5l-0.2,0.2c-1.1,1.2-5.5,6.5-6.5,7.1C187.3,132.5,190,127.9,190,127.9z"
						/>
				</g>
			</g>
			<g class="st14">
				<g>
					<path class="st8" d="M193.6,126.1c-0.4-0.4-0.5-0.9-0.4-1.5c0-0.5,0.2-1,0.6-1.4l1.2,1.1L193.6,126.1z"/>
				</g>
			</g>
		</g>
		<g>
			<g class="st14">
				<path class="st8" d="M188.8,130.3c0,0-0.9,1.6-0.5,1.7c0.4,0,5.1-5.1,7-7.5l-0.1-0.1l-5.5,6C189.6,130.4,189,130.1,188.8,130.3z
					"/>
			</g>
		</g>
		<g>
			<g>
				<g>
					<path class="st4" d="M188.4,131.8c0-0.1,0.1-0.1,0.2-0.2c0.2-0.2,0.5-0.5,0.7-0.7c0.6-0.6,1.5-1.6,2.5-2.6s1.9-2,2.5-2.7
						c0.2-0.4,0.5-0.6,0.7-0.9c0-0.1,0-0.3,0.1-0.4l0,0l0,0c-0.1,0.1-0.1,0.2-0.2,0.4c-0.2,0.2-0.4,0.5-0.7,0.9
						c-0.6,0.7-1.5,1.6-2.4,2.7c-1,1-1.9,2-2.5,2.6c-0.2,0.2-0.6,0.6-0.7,0.7S188.5,131.7,188.4,131.8"/>
				</g>
			</g>
		</g>
	</g>
</g>
<g>
	<g>
		<g>
			<polygon class="st13" points="161.3,123.9 160.4,130.1 164.9,130 166.5,125 			"/>
		</g>
	</g>
</g>
<g>
	<g>
		<g>
			<g>
				<g>
					<path class="st6" d="M160.1,130.4v-0.5h6.1l-0.1,2.2h-0.4c-1.6,0-8.5,0-9.6-0.4C154.9,131.4,160.1,130.4,160.1,130.4z"/>
				</g>
			</g>
			<g class="st14">
				<g>
					<path class="st8" d="M164,132c0.1-0.5,0.4-1,0.9-1.2c0.4-0.2,0.9-0.5,1.4-0.4v1.7L164,132z"/>
				</g>
			</g>
		</g>
		<g>
			<g class="st14">
				<path class="st8" d="M157.5,131c0,0-1.9,0.5-1.6,0.7c0.2,0.2,7.1,0.5,10.2,0.4V132l-8.1-0.2C158,131.8,157.9,131,157.5,131z"/>
			</g>
		</g>
		<g>
			<g>
				<g>
					<path class="st4" d="M166.2,132L166.2,132c-0.2,0-0.2,0-0.4,0s-0.6,0-1.1,0c-0.9,0-2.2,0-3.6-0.1c-1.4,0-2.7-0.1-3.6-0.1
						c-0.4,0-0.7,0-1.1-0.1c-0.1,0-0.2,0-0.2,0c-0.1,0-0.1,0-0.1,0s0,0,0.1,0s0.2,0,0.2,0c0.2,0,0.6,0,1.1,0c0.9,0,2.2,0.1,3.6,0.1
						c1.4,0,2.7,0.1,3.6,0.1c0.4,0,0.7,0,1.1,0C166,132,166,132,166.2,132L166.2,132z"/>
				</g>
			</g>
		</g>
	</g>
</g>
<g>
	<g>
		<path class="st6" d="M180.4,53.4l-8.3,0.7c0,0-2.5,0.1-5.2,6.4l-1.9,3.7l3.6,2.3l0,0l0.2,2.3l0.3,9.2l15.3-1.1
			c-0.3-2.1-2-4.8-2.5-6.6c0.6-1.4,3.8-7.1,3.8-10C185.8,54,180.4,53.4,180.4,53.4"/>
	</g>
</g>
<g>
	<g>
		<path class="st4" d="M168.9,68.7c0,0,0.1-0.5,0-1.4c-0.1-0.4-0.2-0.9-0.3-1.4s-0.3-1.1-0.4-1.8c-0.1-0.6,0-1.3,0.2-1.8
			s0.6-0.9,0.8-1.2c0.3-0.3,0.5-0.5,0.7-0.7s0.3-0.2,0.3-0.2s-0.4,0.4-0.9,1c-0.3,0.3-0.6,0.7-0.8,1.2s-0.3,1.1-0.2,1.7
			c0.1,0.6,0.3,1.2,0.4,1.8c0.1,0.5,0.3,1,0.3,1.5c0.1,0.4,0,0.8,0,1C168.9,68.6,168.9,68.7,168.9,68.7z"/>
	</g>
</g>
<g>
	<path class="st15" d="M169.2,77.9c0,0-3.7,11.3-5.1,22.3c-1.4,11-3.1,26-3.1,26l5.1,0.1l9.4-29.4l9.6-13.6l-1-8.3L169.2,77.9z"/>
</g>
<g>
	<polyline class="st15" points="169.7,79.3 173.2,108.4 187.5,123 190.7,118.6 180.5,102.5 182.8,77 169.1,79.7 	"/>
</g>
<g>
	<g>
		<path class="st10" d="M179.5,91.9c0,0,0,0.1-0.1,0.2s-0.2,0.3-0.3,0.4c-0.3,0.4-0.7,0.9-1.3,1.4c-0.6,0.6-1.3,1.2-2,2
			s-1.1,1.9-1.5,3.1c-0.3,1.2-0.7,2.3-0.9,3.3s-0.4,2-0.6,2.8c-0.2,0.8-0.5,1.4-0.6,1.8s-0.2,0.7-0.2,0.7s0-0.1,0-0.2
			s0.1-0.3,0.1-0.5c0.1-0.4,0.3-1.1,0.5-1.8c0.2-0.8,0.4-1.7,0.6-2.8c0.2-1,0.5-2.2,0.9-3.4c0.4-1.2,0.8-2.3,1.5-3.1
			c0.7-0.8,1.4-1.5,2-2s1-1,1.3-1.4C179.3,92.1,179.4,91.9,179.5,91.9z"/>
	</g>
</g>
<g>
	<g>
		<path class="st10" d="M180.6,102.3c0,0-0.5,0.3-1.1,0.9c-0.5,0.5-0.8,1.1-0.8,1.1s0.1-0.6,0.7-1.2
			C180,102.4,180.6,102.2,180.6,102.3z"/>
	</g>
</g>
<g>
	<g>
		<path class="st10" d="M180.5,102.5c0,0-0.5,0-1.1,0.1s-1.1,0.2-1.1,0.1c0,0,0.5-0.2,1.1-0.3C180,102.3,180.5,102.4,180.5,102.5z"
			/>
	</g>
</g>
<g>
	<polygon class="st7" points="157.6,66.2 156.8,69.7 167.2,70.4 	"/>
</g>
<g class="st16">
	<polygon points="157.6,66.2 156.8,69.7 167.2,70.4 	"/>
</g>
<g>
	<g>
		<path class="st10" d="M193,76.3c0,0-1.5-1.1-1.7-1.1s-1.2,0.8-1.2,0.8s0.4-1.5-0.3-2.2c-0.6-0.7-1.6-0.8-2.8,0s-3.6,1.1-3.6,1.1
			s-0.4-0.6-0.8-1.2c-0.4-0.6-0.8-0.4-2.4-0.3c-1.6,0-5.8-2.2-5.8-2.2s-2.3-1.7-5.2-3.8l0.6-0.8c0.4-0.5,0.3-1.2-0.2-1.6l0,0
			c-0.5-0.4-1.2-0.3-1.6,0.2l-0.1,0.1c0.2-0.3,0.1-0.8-0.2-1c-0.4-0.3-0.9-0.2-1.2,0.1l-0.3,0.4c0-0.3-0.1-0.5-0.3-0.7
			c-0.3-0.3-0.8-0.2-1.1,0.1c-1.7-1.2-3.2-2.4-4.2-3.2c-3.6-2.9-4.4-8.2-4.4-8.2c-1.3,0.3-1.3,1.2-1.3,2.1c0,0.2,0,0.4,0,0.6
			c-1-0.4-2.1-0.4-3.2-0.1c-0.8,0.2-1.6,0.7-2.2,1.4c0.2-0.4,0.2-0.9-0.1-1.4c-0.4-0.6-1.2-0.8-1.9-0.4c-0.6,0.4-0.8,1.2-0.4,1.9
			c0.4,0.6,1.2,0.8,1.9,0.4l0.1-0.1c-0.3,0.3-0.5,0.7-0.6,1.1c-0.5,1.4-0.2,3.1,0.8,4.2l0.5,0.1c-0.3,0.1-0.6,0.2-0.9,0.3
			c-0.9,0.3-1.7,0.5-1.6,1.9c0,0,5.3-0.8,9.1,1.8c1,0.7,2.5,1.7,4.1,2.9l-0.1,0.1c-0.3,0.4-0.2,0.9,0.1,1.2c0.2,0.2,0.5,0.2,0.8,0.1
			l-0.3,0.4c-0.3,0.4-0.2,0.9,0.1,1.2c0.3,0.2,0.7,0.2,1,0l-0.1,0.1c-0.4,0.5-0.3,1.2,0.2,1.6s1.2,0.3,1.6-0.2l1-1.2
			c2.9,2.1,5.3,3.9,5.3,3.9s3.4,3.4,3.9,4.9c0.4,1.5,0.4,2,1,2.2c0.7,0.2,1.4,0.4,1.4,0.4s0.4,2.4,0,3.8s-0.1,2.3,0.8,2.7
			c0.9,0.4,2.2-0.4,2.2-0.4s-0.5,1.3-0.4,1.4c0.1,0.2,1.6,1.2,1.6,1.2l6.2-8.5l-0.3,0.4L193,76.3z"/>
	</g>
	<g>
		<g>
			<path class="st4" d="M155,54.6c0,0,0,0.2,0,0.4c0,0.3,0,0.7-0.1,1.2c0,0.3-0.1,0.5-0.2,0.8c-0.1,0.3-0.4,0.6-0.7,0.7
				c-0.6,0.3-1.4,0.3-2,0.8c-0.3,0.2-0.4,0.6-0.4,1s0.1,0.7,0.1,1.1c0,0.3-0.1,0.7-0.2,1c-0.2,0.3-0.4,0.5-0.6,0.6
				c-0.4,0.3-0.8,0.5-1.1,0.6s-0.4,0.1-0.4,0.1s0.1-0.1,0.4-0.2c0.3-0.1,0.6-0.3,1-0.6c0.2-0.1,0.4-0.3,0.5-0.6
				c0.2-0.2,0.2-0.6,0.2-0.9c0-0.3-0.1-0.7-0.1-1.1c0-0.4,0.1-0.8,0.5-1.1c0.3-0.3,0.7-0.4,1.1-0.5c0.4-0.1,0.7-0.2,1-0.3
				s0.5-0.4,0.6-0.6c0.1-0.3,0.2-0.5,0.2-0.8c0.1-0.5,0.1-0.9,0.1-1.2C155,54.7,155,54.6,155,54.6z"/>
		</g>
	</g>
	<g>
		<g>
			<path class="st4" d="M161.4,71c0,0,0.3-0.3,0.7-0.9c0.5-0.5,1.1-1.3,1.7-2.1c0.7-0.9,1.2-1.6,1.6-2.2c0.4-0.6,0.7-0.9,0.7-0.9
				s0,0.1-0.1,0.3c-0.1,0.2-0.2,0.4-0.4,0.7c-0.4,0.6-0.9,1.4-1.6,2.3c-0.7,0.9-1.3,1.6-1.8,2.1c-0.2,0.3-0.4,0.5-0.6,0.6
				C161.4,70.9,161.4,71,161.4,71z"/>
		</g>
	</g>
	<g>
		<g>
			<path class="st4" d="M168.1,65.2c0,0-0.1,0.1-0.2,0.3c-0.1,0.2-0.3,0.5-0.6,0.8c-0.5,0.7-1.2,1.6-2,2.6s-1.5,1.9-2,2.5
				s-0.9,1-0.9,1s0.1-0.1,0.2-0.3c0.2-0.2,0.4-0.5,0.6-0.8c0.5-0.7,1.2-1.6,2-2.6s1.5-1.9,2-2.5c0.2-0.3,0.5-0.6,0.6-0.8
				C168,65.3,168,65.2,168.1,65.2z"/>
		</g>
	</g>
	<g>
		<g>
			<path class="st4" d="M164.9,72.9c0,0,0.2-0.3,0.7-0.8c0.4-0.5,1-1.1,1.6-1.9s1.1-1.5,1.4-2c0.4-0.5,0.6-0.8,0.6-0.8
				s-0.2,0.4-0.5,0.9s-0.8,1.3-1.4,2c-0.6,0.8-1.2,1.4-1.6,1.9C165.2,72.6,164.9,72.9,164.9,72.9z"/>
		</g>
	</g>
	<g>
		<g>
			<path class="st4" d="M190.6,75.1c0,0,0,0.1-0.1,0.2s-0.2,0.3-0.3,0.4c-0.3,0.4-0.7,0.9-1.2,1.6c-1,1.3-2.5,3.2-4,5.3
				c-1.5,2.1-2.9,4-3.9,5.4c-0.5,0.7-0.9,1.2-1.1,1.6c-0.1,0.2-0.2,0.3-0.3,0.4s-0.1,0.2-0.1,0.1c0,0,0-0.1,0.1-0.2s0.2-0.3,0.3-0.5
				c0.3-0.4,0.6-1,1.1-1.7c0.9-1.4,2.3-3.3,3.8-5.4s3-3.9,4-5.3c0.5-0.7,1-1.2,1.3-1.6C190.3,75.2,190.5,75.1,190.6,75.1
				C190.6,75.2,190.6,75.1,190.6,75.1z"/>
		</g>
	</g>
</g>
<g>
	<g>
		<path class="st17" d="M153.3,63.4c-0.1-0.3,0-0.6,0.3-0.6l0,0c0.2,0,0.3,0.2,0.3,0.3l0.7,2.5l0,0l-0.4-1.9c-0.1-0.3,0-0.5,0.3-0.5
			c0.1,0,0.2,0.2,0.3,0.3l0.6,2.1l-0.3-1.4c-0.1-0.3,0-0.4,0.2-0.5c0.2,0,0.3,0.2,0.3,0.3l0.5,1.5c0.2,0.2,1,0.8,1,1.4l0.1,0.1
			l0.2,0.1l-0.3,1.3c0,0-2.1-1.5-2.7-2c-0.5-0.4-0.6-0.9-0.6-1.1L153.3,63.4z"/>
	</g>
</g>
<g>
	<g>
		<path class="st4" d="M170.9,40.7c-0.8,0.8-1,2-1,3.1s0.2,2.3-0.1,3.4c-0.1,0.5-0.4,1-0.5,1.5s-0.1,1.1,0.1,1.5
			c0.4,0.7,1.4,0.7,2.2,0.8c0.6,0,1.2,0,1.8,0c0.2,0,0.4,0,0.6-0.1c0.1-0.1,0.1-0.4,0.1-0.5c0-3.2-0.3-6.4-1-9.5"/>
	</g>
	<g>
		<g>
			<g>
				<g>
					<g>
						<g>
							<path class="st17" d="M179.4,41.8v0.8l-0.2,12.2c0,1.4-1.3,2.5-2.8,2.5l0,0c-1.5,0-2.8-1.2-2.8-2.6c0-1.5,0-3.1,0-3.1
								s-1.9-0.3-2.3-2.8c-0.2-1.3-0.1-3.3,0-5c0.1-1.5,1.4-2.6,2.9-2.5L179.4,41.8z"/>
						</g>
					</g>
					<g>
						<g>
							<g>
								<path class="st4" d="M171.8,45.1c0,0.2,0.1,0.3,0.3,0.3s0.3-0.1,0.3-0.3s-0.1-0.3-0.3-0.3C171.9,44.8,171.8,45,171.8,45.1z"
									/>
							</g>
						</g>
						<g>
							<g>
								<g>
									<path class="st4" d="M171.7,44.8c0,0,0.3-0.1,0.6-0.1s0.6,0.2,0.6,0.1c0,0,0-0.1-0.1-0.2c-0.1-0.1-0.3-0.2-0.5-0.2
										s-0.4,0.1-0.5,0.2S171.7,44.8,171.7,44.8z"/>
								</g>
							</g>
						</g>
					</g>
					<g>
						<g>
							<g>
								<path class="st4" d="M175.3,45.1c0,0.2,0.1,0.3,0.3,0.3s0.3-0.1,0.3-0.3s-0.1-0.3-0.3-0.3C175.4,44.8,175.3,45,175.3,45.1z"
									/>
							</g>
						</g>
						<g>
							<g>
								<g>
									<path class="st4" d="M175.1,44.9c0,0,0.3-0.1,0.6-0.1s0.6,0.2,0.6,0.1c0,0,0-0.1-0.1-0.2c-0.1-0.1-0.3-0.2-0.5-0.2
										s-0.4,0.1-0.5,0.2C175.1,44.8,175.1,44.8,175.1,44.9z"/>
								</g>
							</g>
						</g>
					</g>
					<g>
						<g>
							<g>
								<path class="st4" d="M173.9,47.4c0,0-0.2-0.1-0.6-0.1c-0.1,0-0.2,0-0.2-0.1s0-0.2,0.1-0.3c0.1-0.2,0.2-0.4,0.3-0.7
									c0.4-1,0.6-1.8,0.6-1.8s-0.4,0.8-0.7,1.7c-0.1,0.2-0.2,0.5-0.3,0.7c0,0.1-0.1,0.2,0,0.3c0,0.1,0.1,0.1,0.1,0.1
									c0.1,0,0.1,0,0.2,0C173.6,47.5,173.9,47.5,173.9,47.4z"/>
							</g>
						</g>
					</g>
					<g>
						<g>
							<path class="st18" d="M173.6,51.5c0,0,1.7,0.1,3.4-0.9c0,0-0.8,1.7-3.3,1.5L173.6,51.5z"/>
						</g>
					</g>
					<g>
						<g>
							<path class="st18" d="M174,48.3c0.1-0.2,0.3-0.3,0.6-0.2c0.2,0,0.3,0.1,0.4,0.2c0.1,0.1,0.1,0.3,0,0.4
								c-0.1,0.1-0.3,0.2-0.5,0.1c-0.2,0-0.3-0.2-0.4-0.3l-0.1-0.1V48.3"/>
						</g>
					</g>
					<g>
						<g>
							<g>
								<path class="st4" d="M174.9,47.7c-0.1,0-0.1,0.4-0.4,0.6c-0.3,0.3-0.7,0.2-0.7,0.3c0,0,0.1,0.1,0.3,0.1s0.4,0,0.6-0.2
									c0.2-0.2,0.3-0.4,0.3-0.5C175,47.8,174.9,47.7,174.9,47.7z"/>
							</g>
						</g>
					</g>
				</g>
			</g>
		</g>
	</g>
</g>
<g>
	<g>
		<path class="st4" d="M182.6,47.6c-0.2-0.7-0.2-1.5-0.3-2.2c-0.2-1.4-0.6-2.9-1.4-4c-0.5-0.8-1.2-1.5-2-1.9c0.5-0.2,1-0.7,1.2-1.2
			c0.2-0.7-0.2-1.5-0.9-1.9c-0.7-0.3-1.6-0.1-2,0.6c-0.4,0.6-0.3,1.4,0.2,2c-0.7-0.1-1.4-0.1-2.1,0.1c-0.1,0-0.1,0-0.2,0
			c-0.8,0.1-1.7-0.1-2.5,0.2s-1.5,0.8-1.9,1.5c-0.4,0.8-0.3,1.8-0.2,2.8c0,0.3,0.1,0.6,0.3,0.7c0.2,0.1,0.4,0.1,0.6,0.1
			c0.6,0,1.2,0,1.7,0c0.4,0,0.8,0,1.2-0.2c0.2-0.1,0.3-0.3,0.4-0.5c0.1,0.3,0.4,0.5,0.7,0.7c0.5,0.2,1,0.1,1.6,0.1
			c0.3,0,0.7-0.1,1-0.2c0,1.6,0.1,3.3,0.1,4.9c0,0.3,0,0.6,0.2,0.8c0.2,0.3,0.7,0.4,1.1,0.5c0.5,0,1.1,0,1.6-0.3
			c0.4-0.2,0.6-0.7,0.6-1.1c0.2,0.4,0.5,0.7,0.9,0.9c0.5,0.2,1.1,0,1.5-0.3C183.1,49,182.7,48.3,182.6,47.6z"/>
	</g>
	<g>
		<g>
			<path class="st10" d="M175.2,39.1c0,0-0.5-0.1-1.2,0s-1.7,0.4-2.4,1.3c-0.7,0.8-0.9,1.9-0.8,2.6c0,0.7,0.2,1.1,0.2,1.1
				s-0.1-0.1-0.1-0.3c-0.1-0.2-0.2-0.5-0.2-0.9c-0.1-0.7,0.1-1.8,0.8-2.7s1.8-1.2,2.5-1.3c0.4,0,0.7,0,0.9,0
				C175,39.1,175.2,39.1,175.2,39.1z"/>
		</g>
	</g>
	<g>
		<g>
			<path class="st10" d="M173.2,44.1c0,0-0.1-0.1-0.1-0.2c-0.1-0.1-0.1-0.3-0.2-0.6c-0.1-0.5-0.2-1.3,0.1-2.1s0.8-1.4,1.2-1.7
				c0.2-0.2,0.4-0.3,0.5-0.3c0.1-0.1,0.2-0.1,0.2-0.1s-0.3,0.2-0.7,0.5s-0.9,0.9-1.1,1.6c-0.3,0.7-0.3,1.5-0.2,2
				C173,43.8,173.2,44.1,173.2,44.1z"/>
		</g>
	</g>
	<g>
		<g>
			<path class="st10" d="M174.4,42.5c0,0-0.1-0.2-0.2-0.5c-0.1-0.3-0.1-0.8,0-1.3s0.4-0.9,0.6-1.2c0.2-0.3,0.4-0.4,0.4-0.4
				s-0.1,0.2-0.3,0.4c-0.2,0.3-0.4,0.7-0.5,1.2s-0.1,1,0,1.3C174.3,42.3,174.4,42.5,174.4,42.5z"/>
		</g>
	</g>
</g>
<g>
	<path class="st3" d="M186,59.6c0,0-0.3-0.3-0.8-0.7s-1.4-0.8-2.4-1s-1.9,0-2.6,0.1c-0.6,0.2-1,0.4-1,0.4s0.1-0.1,0.2-0.2
		c0.2-0.1,0.4-0.2,0.7-0.3c0.6-0.2,1.6-0.4,2.6-0.2s1.9,0.7,2.4,1.1c0.3,0.2,0.5,0.4,0.6,0.5C185.9,59.5,186,59.6,186,59.6z"/>
</g>
<g>
	<g>
		<g>
			<g>
				<path class="st6" d="M164.4,67.8l-1.6,5.3c0,0,7.7,3.1,12.1,3.1c4.1-0.1,5.4-1.4,7-4.1c1.9-3.1,3.3-7.1,3.7-9.3
					c0,0,2.3-10.1-6.6-9.2l-0.2,7.9c0,0-1,3.3-1.1,3.4c-0.7,1.8-1.5,4.3-2.4,4.6C174.5,69.8,164.4,67.8,164.4,67.8z"/>
			</g>
		</g>
	</g>
	<g>
		<g>
			<path class="st4" d="M164.4,67.8c0,0,0.1,0,0.2,0c0.2,0,0.4,0.1,0.6,0.1c0.5,0.1,1.3,0.2,2.3,0.5c1,0.2,2.1,0.5,3.5,0.7
				c1.3,0.2,2.8,0.4,4.3,0.4l-0.1,0.1c0.2-0.4,0.3-0.9,0.5-1.4c1.2-3.3,2.1-6.3,2.8-8.4c0.4-1.1,0.7-1.9,0.9-2.5
				c0.1-0.3,0.2-0.5,0.3-0.7s0.1-0.2,0.1-0.2s0,0.1-0.1,0.2c-0.1,0.2-0.1,0.4-0.2,0.7c-0.2,0.6-0.5,1.5-0.9,2.6
				c-0.7,2.2-1.6,5.2-2.8,8.5c-0.2,0.5-0.3,0.9-0.5,1.4v0.1h-0.1c-1.6,0-3.1-0.2-4.4-0.4c-1.3-0.2-2.5-0.5-3.5-0.7s-1.8-0.4-2.3-0.5
				c-0.3-0.1-0.5-0.1-0.6-0.1C164.4,67.8,164.4,67.8,164.4,67.8z"/>
		</g>
	</g>
	<g>
		<g>
			<path class="st4" d="M162.8,73.1c0,0,0.1,0,0.2,0.1c0.2,0.1,0.4,0.1,0.7,0.2c0.6,0.2,1.5,0.5,2.6,0.8s2.5,0.7,3.9,1
				c1.5,0.4,3.1,0.8,4.9,0.8c0.4,0,0.9,0,1.3,0c0.4,0,0.8-0.1,1.2-0.3c0.8-0.3,1.5-0.7,2-1.2c1.1-1,1.9-2.2,2.4-3.2
				c0.6-1,0.9-1.9,1.2-2.5c0.1-0.3,0.2-0.5,0.3-0.7s0.1-0.2,0.1-0.2s0,0.1-0.1,0.2c-0.1,0.2-0.2,0.4-0.3,0.7
				c-0.3,0.6-0.6,1.5-1.2,2.5c-0.6,1-1.3,2.2-2.4,3.3c-0.6,0.5-1.3,1-2.1,1.3c-0.4,0.1-0.8,0.2-1.3,0.3c-0.4,0-0.9,0-1.3,0
				c-1.8-0.1-3.4-0.5-4.9-0.9s-2.8-0.7-3.9-1.1c-1.1-0.3-2-0.6-2.6-0.9C163.2,73.2,163,73.1,162.8,73.1
				C162.9,73.1,162.8,73.1,162.8,73.1z"/>
		</g>
	</g>
	<g class="st19">
		<g>
			<path d="M168.7,68.6c1.5,0,3,0.1,4.5,0.1c0.4,0,0.7,0,1.1-0.1c0.5-0.2,0.8-0.7,1.1-1.1c0.8-1.3,1.5-2.7,2.2-4.1
				c0,0-1.2,3.8-2,5.5c-0.2,0.5-0.5,0.6-1.1,0.5C172.5,69.4,170.6,69.2,168.7,68.6z"/>
		</g>
	</g>
	<g class="st19">
		<path d="M182.4,71.3c0,0-1.5,5.8-5.5,5.7c-3.9-0.1-7.7-1.8-7.7-1.8l0.2-0.2c0,0,6.7,1.4,8.6,0.5C181.5,73.9,182.4,71.3,182.4,71.3
			z"/>
	</g>
	<g>
		<g>
			<g>
				<g>
					<path class="st17" d="M163,72.5h-1.2c-1.1-0.1-1.8-0.1-2.1-0.4c-0.4-0.4,0.2-0.8,0.2-0.8s-0.8-0.3-0.7-0.8
						c0.1-0.3,0.4-0.4,0.4-0.4s-0.7-0.3-0.9-0.6c-0.2-0.4,0.3-0.6,0.3-0.6c-1-0.6-0.9-1.2-0.7-1.3c0.2-0.1,1,0.3,1,0.3
						c0.6,0.2,2.4,0.7,1.8-0.3c-0.7-1-0.8-2-0.6-2.3s0.6-0.2,0.7,0.2c0,0.3,0.3,0.8,0.5,1.1c0.2,0.3,0.4,0.5,0.6,0.7
						c0.3,0.2,0.5,0.4,0.7,0.6l1.1,1.1L163,72.5z"/>
				</g>
			</g>
		</g>
	</g>
</g>
<g>
	<g>
		<path class="st17" d="M78.8,47.2c0.1,0.3,0.1,0.6,0,0.8L72,60.2c-1.2,1.9-3.8,2.6-5.8,1.5l-3.8-2.2l2.6-4.6l2.8,1.7l6.8-9
			c0-0.1,0.1-0.7,0.1-1.5c0-0.3-0.1-0.5-0.1-0.8c-0.1-0.3-0.3-0.7-0.4-0.9c-0.2-0.2,0-0.6,0.3-0.5s0.8,0.7,1,1.6
			c0.2,0.9,0.9-0.5,1.1-0.9c0.2-0.5,1-2,1.2-2.1c0.3-0.1,0.4,0.2,0.2,0.7c-0.2,0.5-0.9,2-0.6,2.1c0,0,0.5,0.1,0.6,0.4L78.8,47.2z"/>
	</g>
	<g>
		<g>
			<path class="st18" d="M77.9,45.7c0,0,0,0.2-0.1,0.6c-0.1,0.2-0.1,0.4-0.2,0.6c0,0.1-0.1,0.2-0.1,0.4c0,0.1,0,0.1-0.1,0.2
				c-0.1,0.1-0.2,0.1-0.3,0c-0.1,0-0.1-0.1-0.2-0.1s-0.1-0.1-0.1-0.2c0-0.2,0.1-0.3,0.1-0.4c0.1-0.2,0.2-0.4,0.2-0.6
				c0.1-0.3,0.2-0.5,0.3-0.5c0,0,0,0.2-0.1,0.6c-0.1,0.2-0.1,0.4-0.2,0.6c0,0.1-0.1,0.2-0.1,0.3s0.1,0.2,0.2,0.2s0.1,0,0.1,0
				s0-0.1,0.1-0.1c0-0.1,0.1-0.2,0.1-0.4c0.1-0.2,0.2-0.4,0.2-0.6C77.8,45.9,77.9,45.7,77.9,45.7z"/>
		</g>
	</g>
	<g>
		<g>
			<path class="st18" d="M78.2,46.7c0,0,0,0.2-0.1,0.5c-0.1,0.2-0.1,0.4-0.2,0.6L77.8,48c0,0.1,0,0.1-0.1,0.2c-0.1,0.1-0.2,0-0.3,0
				c-0.1,0-0.1-0.1-0.2-0.1s-0.1-0.1-0.1-0.2c0-0.1,0-0.2,0-0.2c0-0.1,0.1-0.2,0.1-0.3c0.1-0.2,0.1-0.4,0.2-0.5
				c0.1-0.3,0.2-0.5,0.2-0.5s0,0.2-0.1,0.5c-0.1,0.2-0.1,0.4-0.2,0.5c0,0.1-0.1,0.2-0.1,0.3s0,0.2,0.1,0.2c0.1,0.1,0.2,0.1,0.2,0.1
				s0.1-0.2,0.1-0.3c0.1-0.2,0.1-0.4,0.2-0.5C78.1,46.9,78.2,46.7,78.2,46.7z"/>
		</g>
	</g>
	<g>
		<g>
			<path class="st18" d="M78.6,47.3c0,0,0,0.2-0.1,0.5c-0.1,0.2-0.1,0.4-0.2,0.6l-0.1,0.2c0,0.1,0,0.1-0.1,0.2c-0.1,0.1-0.2,0-0.3,0
				c-0.1,0-0.1-0.1-0.2-0.1s-0.1-0.1-0.1-0.2c0-0.1,0-0.2,0-0.2c0-0.1,0.1-0.2,0.1-0.3c0.1-0.2,0.1-0.4,0.2-0.5
				C77.9,47.2,78,47,78,47s0,0.2-0.1,0.5c-0.1,0.2-0.1,0.4-0.2,0.5c0,0.1-0.1,0.2-0.1,0.3s0,0.2,0.1,0.2c0.1,0.1,0.2,0.1,0.2,0.1
				s0.1-0.2,0.1-0.3c0.1-0.2,0.1-0.4,0.2-0.5C78.5,47.4,78.6,47.3,78.6,47.3z"/>
		</g>
	</g>
	<g>
		<g>
			<path class="st18" d="M76.6,48.5c0,0,0.1-0.5-0.1-1S76,46.7,76,46.6c0,0,0.1,0,0.3,0.2c0.1,0.1,0.3,0.4,0.4,0.6
				c0.1,0.3,0.1,0.6,0.1,0.7C76.7,48.4,76.6,48.5,76.6,48.5z"/>
		</g>
	</g>
</g>
<g>
	<g>
		<g>
			<path class="st4" d="M55,31.5c-0.8-0.8-2.2-1.1-3.2-0.6c-0.5,0.2-0.9,0.6-1.4,0.7c-0.6,0.2-1.3,0-1.9-0.1c-0.6-0.1-1.4,0-1.7,0.6
				c-0.2,0.3-0.2,0.8-0.5,1.1c-0.4,0.4-1.1,0.2-1.6,0.4s-0.9,0.7-1,1.2s0.1,1.1,0.5,1.5c0.2,0.2,0.5,0.4,0.6,0.7
				c0.2,0.4,0,0.8,0,1.2c-0.1,0.4,0,0.9,0.4,1.1c0.2,0.1,0.5,0.1,0.6-0.1c0.2-0.1,0.2-0.4,0.2-0.6l7.9-2.5c1.2,0,1.6-1.1,1.8-1.4
				C56,33.6,55.8,32.3,55,31.5z"/>
		</g>
		<g>
			<g>
				<g>
					<g>
						<g>
							<path class="st17" d="M45.6,34.2v0.9l0.2,12.8c0,1.5,1.3,2.6,2.9,2.6l0,0c1.6,0,2.9-1.3,2.9-2.8c0-1.6,0-3.2,0-3.2
								s2-0.3,2.4-3c0.2-1.3,0.1-3.5,0-5.2c-0.1-1.6-1.5-2.8-3.1-2.6L45.6,34.2z"/>
						</g>
					</g>
					<g>
						<g>
							<g>
								<path class="st4" d="M53.6,37.7c0,0.2-0.1,0.3-0.3,0.3S53,37.9,53,37.7s0.1-0.3,0.3-0.3C53.4,37.4,53.6,37.5,53.6,37.7z"/>
							</g>
						</g>
						<g>
							<g>
								<g>
									<path class="st4" d="M53.7,37.3c0,0-0.3-0.1-0.7-0.1s-0.6,0.2-0.7,0.1c0,0,0-0.1,0.1-0.2c0.1-0.1,0.3-0.2,0.5-0.2
										s0.4,0.1,0.5,0.2C53.7,37.2,53.7,37.3,53.7,37.3z"/>
								</g>
							</g>
						</g>
					</g>
					<g>
						<g>
							<g>
								<path class="st4" d="M50,37.7c0,0.2-0.1,0.3-0.3,0.3s-0.3-0.1-0.3-0.3s0.1-0.3,0.3-0.3C49.8,37.4,50,37.5,50,37.7z"/>
							</g>
						</g>
						<g>
							<g>
								<g>
									<path class="st4" d="M50.1,37.4c0,0-0.3-0.1-0.7-0.1s-0.6,0.2-0.7,0.1c0,0,0-0.1,0.1-0.2c0.1-0.1,0.3-0.2,0.5-0.2
										s0.4,0.1,0.5,0.2C50.1,37.3,50.1,37.4,50.1,37.4z"/>
								</g>
							</g>
						</g>
					</g>
					<g>
						<g>
							<g>
								<path class="st4" d="M51.4,40.1c0,0,0.2-0.1,0.6-0.1c0.1,0,0.2,0,0.2-0.1s0-0.2-0.1-0.3c-0.1-0.2-0.2-0.5-0.3-0.7
									c-0.4-1-0.7-1.8-0.6-1.9c0,0,0.4,0.8,0.8,1.8c0.1,0.2,0.2,0.5,0.3,0.7c0,0.1,0.1,0.2,0,0.4c0,0.1-0.1,0.1-0.2,0.1
									c-0.1,0-0.1,0-0.2,0C51.7,40.1,51.4,40.1,51.4,40.1z"/>
							</g>
						</g>
					</g>
					<g>
						<g>
							<path class="st18" d="M51.7,44.4c0,0-1.8,0.1-3.5-0.9c0,0,0.9,1.8,3.5,1.6V44.4z"/>
						</g>
					</g>
					<g>
						<g>
							<g>
								<path class="st4" d="M50.4,40.4c0.1,0,0.1,0.4,0.4,0.7c0.3,0.3,0.8,0.2,0.8,0.3c0,0-0.1,0.1-0.3,0.1s-0.4-0.1-0.6-0.2
									c-0.2-0.2-0.3-0.4-0.3-0.6C50.3,40.4,50.3,40.4,50.4,40.4z"/>
							</g>
						</g>
					</g>
				</g>
			</g>
		</g>
		<g>
			<g>
				<path class="st4" d="M50.2,36c0,0.1-0.4,0.1-0.8,0.1c-0.4,0-0.8,0.2-0.8,0.1c0,0,0-0.1,0.2-0.2c0.1-0.1,0.4-0.2,0.6-0.2
					c0.3,0,0.5,0,0.6,0.1C50.1,35.8,50.2,35.9,50.2,36z"/>
			</g>
		</g>
		<g>
			<g>
				<path class="st4" d="M53.5,36.3c-0.1,0.1-0.3,0-0.6,0s-0.6,0.1-0.6,0c0,0,0-0.1,0.1-0.2c0.1-0.1,0.3-0.1,0.5-0.1
					S53.3,36.1,53.5,36.3C53.5,36.2,53.6,36.2,53.5,36.3z"/>
			</g>
		</g>
		<g>
			<g>
				<path class="st4" d="M54.2,35c0,0-1.3,0.7-3.2-0.1c-1.2-0.5-2.6-0.8-2.9-0.5c-0.3,0.2-0.3,1.5-1.5,1.8c0,0,0.2,2.3-0.8,2.2
					c-0.9-0.1-0.8-4.7-0.8-4.7l2.5-0.1l2.4-0.5l2.3,0.3l1.8,0.4L54.2,35z"/>
			</g>
		</g>
		<g>
			<g>
				<g>
					<path class="st4" d="M45.2,33.1c0,0,0.2-0.1,0.5,0s0.4,0.3,0.3,0.3c0,0-0.2-0.1-0.4-0.2C45.4,33.2,45.2,33.2,45.2,33.1z"/>
				</g>
			</g>
		</g>
		<g>
			<g>
				<g>
					<path class="st4" d="M45.9,32.4c0,0,0,0.3,0.1,0.6c0,0.3,0.2,0.5,0.1,0.6c0,0-0.2-0.2-0.3-0.5C45.8,32.6,45.9,32.4,45.9,32.4z"
						/>
				</g>
			</g>
		</g>
	</g>
	<g>
		<g>
			<g>
				<g>
					<path class="st13" d="M46,37.5c0,0-1.5-0.5-1.5,1s1.5,1.2,1.5,1.2V37.5z"/>
				</g>
			</g>
		</g>
		<g>
			<g>
				<g>
					<g>
						<path class="st18" d="M45.6,39.1L45.6,39.1c-0.1,0.1-0.2,0.1-0.3,0C45.1,39,45,38.8,45,38.5c0-0.1,0-0.3,0.1-0.4
							c0-0.1,0.1-0.2,0.2-0.2c0.1,0,0.1,0,0.2,0.1v0.1c0,0,0,0,0-0.1c0,0,0-0.1-0.1-0.1h-0.1c-0.1,0-0.2,0.1-0.3,0.2
							c-0.1,0.1-0.1,0.3-0.1,0.4c0,0.3,0.2,0.6,0.4,0.7C45.4,39.3,45.5,39.2,45.6,39.1C45.6,39.2,45.6,39.1,45.6,39.1z"/>
					</g>
				</g>
			</g>
		</g>
	</g>
</g>
<g>
	<g>
		<g>
			<path class="st20" d="M52.1,47.7c1.1,0.1,3,0.2,6.8,2.4c0.8,0.5,9.2,6.1,9.2,6.1L64.4,61l-6.9-3.9l0.9,8.2l1,9.8l-16.6-0.2
				l-0.4-9.8l-0.1-6.7l-1.1,8.9l-6.6-0.6L36.5,55c0.2-1.4,0.8-2.8,1.7-3.9c1.1-1.3,2.6-2.1,4.2-2.7c0.7-0.3,2.2-0.5,3.1-0.6l-0.1-2
				c0,0,3,0.3,3.7,2.2c0,0,1-2.2,2.9-2.4L52.1,47.7z"/>
		</g>
		<g>
			<g>
				<path class="st4" d="M42,48.8L42,48.8c0.2,0,0.3,0.1,0.4,0.1c0.2,0.1,0.6,0.4,0.9,0.8c0.3,0.4,0.6,0.9,0.7,1.5
					c0.1,0.6,0.2,1.3,0,2.1c-0.1,0.7-0.3,1.4-0.5,2s-0.4,1.1-0.6,1.6c-0.2,0.5-0.3,0.8-0.4,1.1c-0.1,0.3-0.1,0.4-0.1,0.4
					s0-0.2,0.1-0.4c0.1-0.3,0.2-0.6,0.3-1.1c0.3-0.9,0.8-2.2,1-3.6c0.1-0.7,0.1-1.4,0-2s-0.4-1.1-0.7-1.5C42.5,49,41.9,48.8,42,48.8
					z"/>
			</g>
		</g>
		<g>
			<g>
				<path class="st4" d="M57.7,59c0,0,0-0.1-0.1-0.4c0-0.3-0.1-0.7-0.1-1.1c-0.1-0.9-0.3-2.2-0.4-3.6c-0.2-1.4-0.3-2.6-0.4-3.6
					c-0.1-0.4-0.1-0.8-0.1-1.1s0-0.4,0-0.4s0,0.1,0.1,0.4c0,0.3,0.1,0.6,0.2,1.1c0.1,0.9,0.3,2.2,0.5,3.6c0.2,1.4,0.3,2.7,0.4,3.6
					c0,0.5,0.1,0.8,0.1,1.1C57.7,58.8,57.7,59,57.7,59z"/>
			</g>
		</g>
		<g>
			<g>
				<path class="st4" d="M48.7,47.3c0,0-0.2-0.1-0.6,0.1c-0.2,0.1-0.3,0.2-0.4,0.5c0,0.1-0.1,0.2-0.1,0.4c0,0.1,0,0.1-0.1,0.2
					c0,0.1,0,0.1-0.1,0.2l-0.1,0.1c-0.1,0-0.1,0-0.1,0c-0.1,0-0.1-0.1-0.2-0.1c-0.1-0.1-0.2-0.1-0.3-0.2c-0.2-0.1-0.4-0.2-0.6-0.3
					c-0.3-0.2-0.5-0.3-0.5-0.3s0.2,0.1,0.6,0.2c0.2,0.1,0.4,0.2,0.6,0.3c0.1,0.1,0.2,0.1,0.4,0.2c0.1,0,0.1,0.1,0.2,0.1
					c0.1,0,0.1,0,0.1,0c0.1-0.1,0.1-0.2,0.1-0.4c0-0.1,0.1-0.3,0.1-0.4c0.1-0.2,0.3-0.4,0.5-0.5S48.6,47.3,48.7,47.3
					C48.6,47.2,48.7,47.3,48.7,47.3z"/>
			</g>
		</g>
		<g>
			<g>
				<path class="st4" d="M52.1,47.6c0,0-0.5,0.5-1.3,1.1l-0.1,0.1v-0.1c0-0.1,0-0.1,0-0.2c-0.1-0.5-0.2-0.9-0.5-1.1
					c-0.2-0.2-0.4-0.2-0.4-0.3c0,0,0.2,0,0.5,0.2c0.1,0.1,0.3,0.3,0.4,0.5c0.1,0.2,0.2,0.5,0.2,0.7c0,0.1,0,0.1,0,0.2l-0.1-0.1
					C51.5,48,52.1,47.6,52.1,47.6z"/>
			</g>
		</g>
		<g>
			<g>
				<path class="st4" d="M41,67.1c0,0-0.3-0.1-0.8-0.2s-1.2-0.3-1.9-0.5c-0.8-0.2-1.4-0.3-1.9-0.4s-0.8-0.2-0.8-0.2s0.3,0,0.8,0.1
					s1.2,0.2,2,0.4c0.8,0.2,1.4,0.4,1.9,0.6C40.7,66.9,41,67,41,67.1z"/>
			</g>
		</g>
		<g>
			<g>
				<path class="st4" d="M36.1,65c0,0,0.3,0,0.8,0.2c0.5,0.1,1.1,0.3,1.8,0.6c0.4,0.1,0.7,0.3,1,0.4s0.6,0.2,0.8,0.4
					c0.4,0.3,0.5,0.6,0.5,0.6s-0.1-0.3-0.6-0.5c-0.2-0.1-0.5-0.2-0.8-0.3c-0.3-0.1-0.6-0.2-1-0.4c-0.7-0.2-1.4-0.5-1.8-0.6
					C36.3,65.1,36,65,36.1,65z"/>
			</g>
		</g>
		<g>
			<g>
				<path class="st4" d="M64.9,59.8c0,0,0.1-0.3,0.3-0.6c0.2-0.4,0.5-0.9,0.9-1.4s0.7-1,1-1.3s0.5-0.5,0.5-0.5s-0.6,0.8-1.4,1.9
					C65.4,58.9,64.9,59.8,64.9,59.8z"/>
			</g>
		</g>
		<g>
			<g>
				<path class="st4" d="M64.4,59c0,0,0.1-0.2,0.3-0.6c0.2-0.3,0.5-0.8,1-1.2c0.4-0.4,0.9-0.7,1.2-1c0.3-0.2,0.6-0.3,0.6-0.3
					s-0.8,0.5-1.7,1.4C64.9,58.2,64.5,59,64.4,59z"/>
			</g>
		</g>
	</g>
	<g>
		<g>
			<path class="st4" d="M52.7,75.7c0,0,0-0.1,0-0.3c0-0.2-0.1-0.4-0.1-0.8c-0.1-0.7-0.2-1.6-0.3-2.8c-0.3-2.3-0.6-5.6-1.1-9.1
				c-0.4-3.6-0.9-6.8-1.2-9.1c-0.2-1.2-0.3-2.1-0.4-2.8c0-0.3-0.1-0.6-0.1-0.7c0-0.2,0-0.3,0-0.3s0,0.1,0.1,0.3
				c0,0.2,0.1,0.4,0.1,0.7c0.1,0.6,0.3,1.6,0.5,2.7c0.4,2.3,0.8,5.5,1.3,9.1c0.4,3.6,0.8,6.8,1,9.1c0.1,1.2,0.2,2.1,0.3,2.8
				c0,0.3,0,0.6,0.1,0.8C52.7,75.6,52.7,75.7,52.7,75.7z"/>
		</g>
	</g>
	<g>
		<g>
			<path class="st4" d="M50.6,55.4c0,0,0-0.1,0.1-0.3c0.1-0.1,0.2-0.1,0.3,0s0.2,0.2,0.2,0.4s-0.2,0.3-0.3,0.3s-0.3-0.1-0.3-0.2
				C50.6,55.4,50.6,55.4,50.6,55.4C50.7,55.3,50.7,55.3,50.6,55.4C50.7,55.3,50.7,55.4,50.6,55.4c0.1,0.2,0.2,0.2,0.3,0.2
				s0.2-0.1,0.2-0.1c0-0.1,0-0.2-0.1-0.2s-0.1,0-0.2,0C50.6,55.3,50.6,55.4,50.6,55.4z"/>
		</g>
	</g>
	<g>
		<g>
			<path class="st4" d="M51.6,61.1c0,0,0-0.1,0.1-0.3c0.1-0.1,0.2-0.1,0.3,0s0.2,0.2,0.2,0.4s-0.2,0.3-0.3,0.3s-0.3-0.1-0.3-0.2
				C51.6,61.1,51.6,61,51.6,61.1C51.7,61,51.7,61,51.6,61.1C51.7,61,51.7,61.1,51.6,61.1c0.1,0.2,0.2,0.2,0.3,0.2s0.2-0.1,0.2-0.1
				c0-0.1,0-0.2-0.1-0.2s-0.1,0-0.2,0C51.6,61,51.6,61.1,51.6,61.1z"/>
		</g>
	</g>
</g>
<g>
	<g>
		<g>
			<g>
				<g>
					<g>
						<g>
							<path class="st20" d="M50,130.3l-0.1-3.7l-6.8,0.1l0.1,5.3h0.4c1.9,0.1,9.6,0.3,10.9-0.1C55.8,131.6,50,130.3,50,130.3z"/>
						</g>
					</g>
				</g>
			</g>
			<g class="st21">
				<g>
					<g>
						<path class="st8" d="M52.8,131.1c0,0,2,0.5,1.8,0.9c-0.3,0.4-8.1,0.5-11.5,0.3v-0.1l9.1-0.1C52.3,132,52.4,131.1,52.8,131.1z"
							/>
					</g>
				</g>
			</g>
			<g>
				<g>
					<g>
						<g>
							<path class="st4" d="M43.1,132.1L43.1,132.1c0.3,0,0.4,0,0.5,0c0.4,0,0.8,0,1.3,0c1,0,2.5,0,4.2,0s3-0.1,4.2-0.1
								c0.5,0,0.9,0,1.3-0.1c0.1,0,0.3,0,0.4,0c0.1,0,0.1,0,0.1,0s0,0-0.1,0s-0.3,0-0.4,0c-0.4,0-0.8,0-1.3,0c-1,0-2.5,0.1-4.2,0.1
								s-3,0-4.2,0c-0.5,0-0.9,0-1.3,0C43.3,132,43.2,132,43.1,132.1C43.1,132,43.1,132,43.1,132.1z"/>
						</g>
					</g>
				</g>
			</g>
		</g>
	</g>
	<g class="st16">
		<polygon points="43.2,129.9 50,129.7 50,128.9 43.1,129.6 		"/>
	</g>
</g>
<g>
	<g>
		<g>
			<g>
				<g>
					<g>
						<g>
							<path class="st20" d="M62.4,130.3l-0.1-3.7l-6.8,0.1l0.1,5.3H56c1.9,0.1,9.6,0.3,10.9-0.3C68.2,131.4,62.4,130.3,62.4,130.3z
								"/>
						</g>
					</g>
				</g>
			</g>
			<g class="st21">
				<g>
					<g>
						<path class="st8" d="M65.2,130.9c0,0,2,0.5,1.8,0.9c-0.3,0.4-8.1,0.5-11.5,0.3V132l9.1-0.1C64.7,131.8,64.8,131.1,65.2,130.9z
							"/>
					</g>
				</g>
			</g>
			<g>
				<g>
					<g>
						<g>
							<path class="st4" d="M55.5,131.9L55.5,131.9c0.3,0,0.4,0,0.5,0c0.4,0,0.8,0,1.3,0c1,0,2.5,0,4.2,0c1.6,0,3-0.1,4.2-0.1
								c0.5,0,0.9,0,1.3-0.1c0.1,0,0.3,0,0.4,0s0.1,0,0.1,0s0,0-0.1,0s-0.3,0-0.4,0c-0.4,0-0.8,0-1.3,0c-1,0-2.5,0.1-4.2,0.1
								s-3,0-4.2,0c-0.5,0-0.9,0-1.3,0C55.7,131.9,55.6,131.9,55.5,131.9L55.5,131.9z"/>
						</g>
					</g>
				</g>
			</g>
			<g>
				<g>
					<g>
						<g>
							<path class="st4" d="M61.7,130c0,0,0.1,0,0.4,0s0.4,0,0.4,0s-0.1,0-0.4,0S61.7,130,61.7,130z"/>
						</g>
					</g>
				</g>
			</g>
		</g>
	</g>
	<g class="st16">
		<polygon points="55.5,129.9 62.4,129.7 62.3,128.8 55.5,129.5 		"/>
	</g>
</g>
<g>
	<g>
		<g>
			<polygon class="st15" points="42.6,74 42.6,128.9 51.1,128.9 51.9,81.3 54.9,128.9 63.5,128.9 59.6,75 			"/>
		</g>
	</g>
	<g>
		<g>
			<path class="st10" d="M52.6,74.4c0,0,0,0.3,0.1,0.9c0,0.5,0,1.3,0.1,2.1c0,0.4,0,0.8,0,1.2c0,0.4,0,0.7-0.2,1
				c-0.1,0.3-0.3,0.4-0.5,0.5s-0.3,0.1-0.3,0.1s0.1,0,0.2-0.1c0.1-0.1,0.3-0.2,0.4-0.5c0.1-0.2,0.1-0.6,0.1-0.9c0-0.4,0-0.8,0-1.2
				c0-0.8,0-1.6,0-2.1C52.6,74.8,52.6,74.5,52.6,74.4z"/>
		</g>
	</g>
	<g>
		<g>
			<path class="st10" d="M51.1,75.1c0,0-0.1,0.1-0.1,0.3c0,0.1,0,0.2,0.1,0.2c0.1,0.1,0.2,0,0.3,0c0.2-0.1,0.1-0.3,0-0.4
				S51.2,75.1,51.1,75.1L51.1,75.1C51.2,75.1,51.2,75.1,51.1,75.1C51.2,75.1,51.2,75.1,51.1,75.1L51.1,75.1L51.1,75.1
				c0.1-0.1,0.3-0.1,0.5,0c0.1,0.1,0.2,0.2,0.2,0.3c0,0.1-0.1,0.3-0.2,0.3c-0.2,0.1-0.4,0.1-0.5,0s-0.2-0.3-0.1-0.4
				C50.9,75.2,50.9,75.1,51.1,75.1L51.1,75.1z"/>
		</g>
	</g>
</g>
<g>
	<path class="st17" d="M57.2,64.4c-0.2-0.3-2.9,0.2-2.9,0.2l1-0.7c-0.5-0.9-2.2,0.2-2.8,0.7c-0.1,0.1-0.2,0.3-0.3,0.5l-10.9,2.3
		l-6.1-0.6c0,0-0.1,1-0.4,3c-0.3,1.9,2.8,3.7,4.7,3.4c1.7-0.2,12.4-3.3,14.2-3.8l0,0l0,0c0.2,0,0.3-0.1,0.3-0.1l0,0
		c0.6-0.2,2-0.7,2.1-1c0.2-0.3,0.1-2.8,0.1-2.8l1-0.4C57.2,65.1,57.4,64.7,57.2,64.4z"/>
</g>
</svg>
