<?xml version="1.0" encoding="utf-8"?>
<!-- Generator: Adobe Illustrator 23.0.3, SVG Export Plug-In . SVG Version: 6.00 Build 0)  -->
<svg version="1.1" id="Layer_1" xmlns="http://www.w3.org/2000/svg" xmlns:xlink="http://www.w3.org/1999/xlink" x="0px" y="0px"
	 viewBox="0 0 100 100" style="enable-background:new 0 0 100 100;" xml:space="preserve">
<style type="text/css">
	.st0{fill:#198FCC;}
	.st1{fill:#FFFFFF;}
</style>
<title>1</title>
<circle class="st0" cx="50" cy="50" r="48"/>
<g>
	<g>
		<g>
			<path class="st1" d="M74.6,47L53,25.5c-1.3-1.3-3.3-1.3-4.6,0c-1.3,1.3-1.3,3.3,0,4.6L70,51.6c1.3,1.3,3.3,1.3,4.6,0
				C75.8,50.4,75.8,48.3,74.6,47z"/>
		</g>
	</g>
	<g>
		<g>
			<path class="st1" d="M46.8,33l-0.2,0.8c-1.1,5.7-3.9,11.2-7.7,15.6l11.7,11.7c4.4-3.8,9.8-6.6,15.5-7.8l0.8-0.2L46.8,33z"/>
		</g>
	</g>
	<g>
		<g>
			<path class="st1" d="M36.8,51.8l-8,8c-1.9,1.9-1.9,5,0,6.9l4.6,4.6c1.9,1.9,5,1.9,6.9,0l8-8L36.8,51.8z M37.9,64.5
				c-0.6,0.6-1.7,0.6-2.3,0c-0.6-0.6-0.6-1.7,0-2.3l2.3-2.3c0.6-0.6,1.7-0.6,2.3,0s0.6,1.7,0,2.3L37.9,64.5z"/>
		</g>
	</g>
	<g>
		<g>
			<path class="st1" d="M55,72.2l2.2-2.2c1.9-1.9,1.9-5,0-6.9l-1.6-1.6c-0.9,0.6-1.8,1.3-2.6,2l2,2c0.6,0.6,0.6,1.7,0,2.3l-2.2,2.2
				l-3.3-3.2l-4.6,4.6l7.4,7.1c1.3,1.3,3.3,1.3,4.6,0c1.3-1.3,1.3-3.3,0-4.6L55,72.2z"/>
		</g>
	</g>
	<g>
		<g>
			<path class="st1" d="M61.6,24.1c-0.9,0-1.6,0.7-1.6,1.6v3.2c0,0.9,0.7,1.6,1.6,1.6c0.9,0,1.6-0.7,1.6-1.6v-3.2
				C63.2,24.8,62.5,24.1,61.6,24.1z"/>
		</g>
	</g>
	<g>
		<g>
			<path class="st1" d="M74.5,37h-3.2c-0.9,0-1.6,0.7-1.6,1.6s0.7,1.6,1.6,1.6h3.2c0.9,0,1.6-0.7,1.6-1.6S75.4,37,74.5,37z"/>
		</g>
	</g>
	<g>
		<g>
			<path class="st1" d="M72.4,27.8c-0.6-0.6-1.7-0.6-2.3,0L66.9,31c-0.6,0.6-0.6,1.7,0,2.3c0.6,0.6,1.7,0.6,2.3,0l3.2-3.2
				C73.1,29.4,73.1,28.4,72.4,27.8z"/>
		</g>
	</g>
</g>
</svg>
