<?xml version="1.0" encoding="utf-8"?>
<!-- Generator: Adobe Illustrator 23.0.3, SVG Export Plug-In . SVG Version: 6.00 Build 0)  -->
<svg version="1.1" id="Layer_1" xmlns="http://www.w3.org/2000/svg" xmlns:xlink="http://www.w3.org/1999/xlink" x="0px" y="0px"
	 viewBox="0 0 100 100" style="enable-background:new 0 0 100 100;" xml:space="preserve">
<style type="text/css">
	.st0{fill:#198FCC;}
	.st1{fill:#FFFFFF;}
</style>
<title>2</title>
<circle class="st0" cx="50" cy="50" r="48"/>
<g>
	<path class="st1" d="M68.2,32.3c-0.9,0-1.6,0.7-1.6,1.6s0.7,1.6,1.6,1.6h3.2c0.9,0,1.6-0.7,1.6-1.6s-0.7-1.6-1.6-1.6H68.2z"/>
	<path class="st1" d="M66.6,41.6l3.1,1.5c0.2,0.1,0.5,0.2,0.7,0.2c0.6,0,1.2-0.3,1.4-0.9c0.4-0.8,0.1-1.8-0.7-2.1L68,38.7
		c-0.8-0.4-1.8-0.1-2.1,0.7C65.4,40.2,65.8,41.2,66.6,41.6z"/>
	<path class="st1" d="M67.3,29.3c0.2,0,0.5-0.1,0.7-0.2l3.1-1.5c0.8-0.4,1.1-1.3,0.7-2.1c-0.4-0.8-1.3-1.1-2.1-0.7l-3.1,1.5
		c-0.8,0.4-1.1,1.3-0.7,2.1C66.1,29,66.7,29.3,67.3,29.3z"/>
	<path class="st1" d="M30.6,35.5h3.2c0.9,0,1.6-0.7,1.6-1.6s-0.7-1.6-1.6-1.6h-3.2c-0.9,0-1.6,0.7-1.6,1.6S29.7,35.5,30.6,35.5z"/>
	<path class="st1" d="M34,38.7l-3.1,1.5c-0.8,0.4-1.1,1.3-0.7,2.1c0.3,0.6,0.8,0.9,1.4,0.9c0.2,0,0.5-0.1,0.7-0.2l3.1-1.5
		c0.8-0.4,1.1-1.3,0.7-2.1C35.8,38.6,34.8,38.3,34,38.7z"/>
	<path class="st1" d="M30.9,27.7l3.1,1.5c0.2,0.1,0.5,0.2,0.7,0.2c0.6,0,1.2-0.3,1.4-0.9c0.4-0.8,0.1-1.8-0.7-2.1l-3.1-1.5
		c-0.8-0.4-1.8-0.1-2.1,0.7C29.8,26.3,30.1,27.3,30.9,27.7z"/>
	<path class="st1" d="M73.2,63.6l-6.4-8c-0.3-0.4-0.8-0.7-1.3-0.7H52.6v5.3l3.5,5.2c0.3,0.4,0.8,0.7,1.3,0.7h14.4
		c0.6,0,1.1-0.3,1.4-0.8C73.6,64.7,73.5,64.1,73.2,63.6z"/>
	<path class="st1" d="M35.2,55.6l-6.4,8c-0.3,0.5-0.4,1.1-0.1,1.6c0.3,0.5,0.8,0.8,1.4,0.8h14.4c0.5,0,1-0.3,1.3-0.7l3.5-5.2v-5.3
		H36.6C36,54.9,35.5,55.1,35.2,55.6z"/>
	<path class="st1" d="M53.4,67.2L52.6,66v11.4h12.8c0.9,0,1.6-0.7,1.6-1.6v-6.5h-9.6C55.8,69.3,54.3,68.5,53.4,67.2z"/>
	<path class="st1" d="M44.6,69.3h-9.6v6.5c0,0.9,0.7,1.6,1.6,1.6h12.8V66l-0.8,1.2C47.7,68.5,46.2,69.3,44.6,69.3L44.6,69.3z"/>
	<path class="st1" d="M45,47.1h12v4.6H45V47.1z"/>
	<path class="st1" d="M45,43.9h12c0-0.7,0.5-1.3,1.3-2.4c1.4-1.7,3.2-3.9,3.2-8.3c0-5.8-4.8-10.6-10.6-10.6
		c-5.8,0-10.6,4.8-10.6,10.6c0,4.3,1.9,6.6,3.2,8.3C44.5,42.5,45,43.2,45,43.9L45,43.9z M47.5,35.4c0.5-0.7,1.5-0.9,2.2-0.4l1.3,0.8
		l1.3-0.8c0.7-0.5,1.7-0.3,2.2,0.4c0.5,0.7,0.3,1.7-0.4,2.2l-2.1,1.4c-0.3,0.2-0.6,0.3-0.9,0.3c-0.3,0-0.6-0.1-0.9-0.3L48,37.7
		C47.2,37.2,47,36.2,47.5,35.4L47.5,35.4z"/>
</g>
</svg>
