<?xml version="1.0" encoding="utf-8"?>
<!-- Generator: Adobe Illustrator 21.0.0, SVG Export Plug-In . SVG Version: 6.00 Build 0)  -->
<svg version="1.1" id="Layer_1" xmlns="http://www.w3.org/2000/svg" xmlns:xlink="http://www.w3.org/1999/xlink" x="0px" y="0px"
	 viewBox="0 0 78 78" style="enable-background:new 0 0 78 78;" xml:space="preserve">
<style type="text/css">
	.st0{fill:#B5D01E;}
</style>
<g>
	<path class="st0" d="M30.7,72.5c-0.7,0-1.5,0-2.2,0c-2-0.4-3.8-1.3-5.3-2.7c-1.2-1.2-2.4-2.4-3.4-3.7c-3.4-4.5-5.6-9.7-7.1-15.1
		c-1.4-5-2.1-10-1-15.2c1.2-5.7,4-10.2,9.3-13c4.2-2.3,8.5-2.9,13.1-1.1c1.3,0.5,2.7,1,4.1,1.4c0.8,0.3,1.6,0.3,2.4-0.1
		c1.1-0.4,2.1-0.8,3.2-1.2c4.3-1.7,8.5-1.8,12.9-0.3c4,1.4,6.9,4,8.9,7.7c-1,0.8-2.1,1.6-3.1,2.4C56,36.8,56.7,47,63.9,51.1
		c0.5,0.3,1,0.6,1.5,1c1,0.7,1.3,1.5,0.8,2.6c-1.1,2.5-2.2,5.1-3.5,7.6c-1.6,3-3.7,5.8-6.4,7.9C54,72,51.4,73,48.4,72.3
		c-1.5-0.3-3-1-4.4-1.5c-1.8-0.7-3.6-1.1-5.5-0.5C35.8,71,33.4,72.1,30.7,72.5z"/>
	<path class="st0" d="M51.3,5c0.3,5.1-2.2,11-7.2,13.6c-1.6,0.9-3.4,1.3-5.3,1.2c-0.3-1.5-0.1-3,0.4-4.5c1.8-5.1,5.1-8.6,10.4-10.1
		c0.3-0.1,0.5-0.1,0.8-0.2C50.6,5,51,5,51.3,5z"/>
</g>
</svg>
