<?xml version="1.0" encoding="utf-8"?>
<!-- Generator: Adobe Illustrator 21.0.0, SVG Export Plug-In . SVG Version: 6.00 Build 0)  -->
<svg version="1.1" id="Layer_1" xmlns="http://www.w3.org/2000/svg" xmlns:xlink="http://www.w3.org/1999/xlink" x="0px" y="0px"
	 viewBox="0 0 78 78" style="enable-background:new 0 0 78 78;" xml:space="preserve">
<style type="text/css">
	.st0{fill:#B5D01E;}
</style>
<g>
	<path class="st0" d="M20.2,20.2c0,3.5,0,7,0,10.4c0,1.5,0.3,1.8,1.8,1.8c11.9,0,23.7,0,35.6,0c1.4,0,1.7-0.4,1.7-1.8
		c0-3.2,0-6.4,0-9.6c0-0.3,0-0.5,0-0.9c0.3,0,0.5,0,0.7,0c4.2,0,8.3,0,12.5,0c1.1,0,1.6,0.4,1.6,1.5c0,10.8,0,21.6,0,32.3
		c0,0.1,0,0.2,0,0.4c-22.8,0-45.6,0-68.5,0c0-0.2,0-0.5,0-0.8c0-10.5,0-21.1,0-31.6c0-1.4,0.4-1.8,1.8-1.8c4,0,8.1,0,12.1,0
		C19.6,20.2,19.8,20.2,20.2,20.2z M34.8,37.2c-3.3,0-6.5,0-9.8,0c0-0.4,0-0.7,0-1c0-1-0.5-1.4-1.4-1.4c-4.8,0-9.6,0-14.4,0
		c-0.9,0-1.3,0.5-1.4,1.3c0,1.6,0,3.2,0,4.7c0,0.8,0.5,1.3,1.3,1.3c4.8,0,9.7,0,14.5,0c0.8,0,1.2-0.5,1.3-1.3c0-0.4,0-0.7,0-1.1
		c3.3,0,6.5,0,9.8,0c0,0.3,0,0.5,0,0.7c0,1.3,0.4,1.7,1.7,1.7c0.7,0,1.3,0,1.9,0c0,0.9,0,1.7,0,2.4c-0.8,0-1.5,0-2.2,0
		c-0.9,0-1.4,0.5-1.4,1.4c0,1.5,0,3,0,4.5c0,0.9,0.5,1.4,1.4,1.4c2.3,0,4.6,0,7,0c0.9,0,1.4-0.5,1.4-1.4c0-1.5,0-3,0-4.5
		c0-0.9-0.5-1.4-1.4-1.4c-0.7,0-1.5,0-2.2,0c0-0.9,0-1.6,0-2.4c0.8,0,1.5,0,2.2,0c1,0,1.4-0.5,1.4-1.4c0-0.3,0-0.6,0-1
		c3.3,0,6.5,0,9.8,0c0,0.3,0,0.6,0,0.9c0,1,0.5,1.4,1.5,1.5c4.7,0,9.5,0,14.2,0c1,0,1.4-0.5,1.5-1.4c0-1.5,0-2.9,0-4.4
		c0-1.1-0.4-1.5-1.5-1.5c-2.1,0-4.2,0-6.3,0c-2.6,0-5.2,0-7.9,0c-1,0-1.4,0.4-1.5,1.4c0,0.3,0,0.6,0,0.9c-3.3,0-6.5,0-9.8,0
		c0-0.3,0-0.5,0-0.7c0-1.4-0.4-1.7-1.7-1.7c-1.9,0-3.7,0-5.6,0C35,34.8,35,34.8,34.8,37.2z"/>
	<path class="st0" d="M22.7,5.5c11.4,0,22.8,0,34.2,0c0,8.1,0,16.2,0,24.4c-11.4,0-22.7,0-34.2,0C22.7,21.8,22.7,13.7,22.7,5.5z
		 M42.3,6.3c-2.5,7.4-4.9,14.7-7.3,22c0.8,0.3,1.5,0.5,2.3,0.8c2.5-7.4,4.9-14.7,7.3-22C43.8,6.8,43.1,6.6,42.3,6.3z M32.7,25.8
		c0.6-0.6,1.2-1.1,1.8-1.7c-2.2-2.2-4.3-4.3-6.5-6.5c2.2-2.1,4.3-4.3,6.4-6.4c-0.6-0.6-1.1-1.1-1.7-1.7c-0.2,0.2-0.4,0.3-0.5,0.5
		c-2.2,2.2-4.4,4.4-6.5,6.5c-0.9,0.9-0.9,1.4,0,2.3c2.2,2.2,4.4,4.4,6.5,6.5C32.4,25.6,32.6,25.7,32.7,25.8z M46.8,25.8
		c0.1-0.1,0.3-0.3,0.4-0.4c2.2-2.2,4.4-4.4,6.5-6.5c0.9-0.9,0.9-1.5,0-2.4c-2.2-2.2-4.4-4.4-6.5-6.5c-0.2-0.2-0.3-0.3-0.4-0.3
		c-0.6,0.6-1.2,1.1-1.9,1.7c2.2,2.2,4.3,4.3,6.5,6.5c-2.2,2.1-4.3,4.3-6.4,6.4C45.6,24.7,46.2,25.3,46.8,25.8z"/>
	<path class="st0" d="M5.6,56.9c22.8,0,45.6,0,68.4,0c0,1.3,0,2.6,0,3.8c0,0.6-0.5,0.9-1.1,1c-0.3,0-0.6,0-0.8,0
		c-21.6,0-43.1,0-64.7,0c-1.6,0-1.9-0.3-1.9-1.9C5.5,58.9,5.5,58,5.6,56.9C5.5,57.1,5.5,57,5.6,56.9z"/>
	<path class="st0" d="M46.1,64.2c0.3,1.6,0.5,3.2,0.8,4.8c-4.7,0-9.4,0-14.2,0c0.3-1.6,0.5-3.2,0.8-4.8
		C37.6,64.2,41.8,64.2,46.1,64.2z"/>
	<path class="st0" d="M52,73.9c-8.2,0-16.2,0-24.4,0c0.6-0.8,1.1-1.5,1.7-2.2c0.1-0.1,0.4-0.2,0.6-0.2c6.6,0,13.2,0,19.9,0
		c0.2,0,0.5,0.1,0.6,0.2C50.8,72.4,51.4,73.2,52,73.9z"/>
	<path class="st0" d="M10.4,39.7c0-0.8,0-1.6,0-2.4c4.1,0,8.1,0,12.2,0c0,0.8,0,1.5,0,2.4C18.6,39.7,14.5,39.7,10.4,39.7z"/>
	<path class="st0" d="M56.9,39.7c0-0.8,0-1.6,0-2.4c4,0,8.1,0,12.1,0c0,0.8,0,1.5,0,2.4C65,39.7,61,39.7,56.9,39.7z"/>
	<path class="st0" d="M42.2,37.3c0,0.8,0,1.5,0,2.3c-1.6,0-3.2,0-4.8,0c0-0.8,0-1.5,0-2.3C38.9,37.3,40.5,37.3,42.2,37.3z"/>
	<path class="st0" d="M42.1,49.5c-1.6,0-3.2,0-4.8,0c0-0.8,0-1.6,0-2.4c1.6,0,3.2,0,4.8,0C42.1,47.9,42.1,48.7,42.1,49.5z"/>
</g>
</svg>
