<?xml version="1.0" encoding="utf-8"?>
<!-- Generator: Adobe Illustrator 21.0.0, SVG Export Plug-In . SVG Version: 6.00 Build 0)  -->
<svg version="1.1" id="Layer_1" xmlns="http://www.w3.org/2000/svg" xmlns:xlink="http://www.w3.org/1999/xlink" x="0px" y="0px"
	 viewBox="0 0 78 78" style="enable-background:new 0 0 78 78;" xml:space="preserve">
<style type="text/css">
	.st0{fill:#B5D01E;}
</style>
<g>
	<path class="st0" d="M7.1,60.5c0.3,0,0.6,0,0.8,0c7.4,0,14.8,0,22.1,0c0.3,0,0.6,0,0.9,0c0,2.4,0,4.7,0,7.1c-0.2,0-0.3,0.1-0.5,0.1
		c-7.7,0-15.4,0-23,0c-0.1,0-0.2,0-0.3,0C7.1,65.3,7.1,62.9,7.1,60.5z M17.9,65.3c3.6,0,7.2,0,10.7,0c0-0.8,0-1.5,0-2.3
		c-3.6,0-7.1,0-10.7,0C17.9,63.8,17.9,64.5,17.9,65.3z M15.4,65.3c0-0.8,0-1.6,0-2.3c-2,0-3.9,0-5.9,0c0,0.8,0,1.5,0,2.3
		C11.5,65.3,13.4,65.3,15.4,65.3z"/>
	<path class="st0" d="M54.3,6.8c1,0.3,1.9,0.7,2.4,1.7c0.1,0.2,0.2,0.4,0.4,0.7c-0.3,0-0.6,0-0.8,0c-3,0-6,0-9,0
		c-1.6,0-1.9,0.3-1.9,1.9c0,0.1,0,0.3,0,0.5c-7.2,0-14.3,0-21.4,0c-0.3-2.4,0.4-3.5,2.8-4.7C35.9,6.8,45.1,6.8,54.3,6.8z"/>
	<path class="st0" d="M7.1,11.6c1.1,0,2.2,0,3.3,0c2.1,0,4.1,0,6.2,0c0,2.4,0,4.7,0,7.1c-0.1,0-0.2,0-0.4,0c-2.9,0-5.9,0-8.8,0
		c-0.1,0-0.2,0-0.3,0C7.1,16.3,7.1,14,7.1,11.6z M14.2,14c-1.6,0-3.1,0-4.7,0c0,0.8,0,1.5,0,2.3c1.6,0,3.1,0,4.7,0
		C14.2,15.5,14.2,14.8,14.2,14z"/>
	<path class="st0" d="M33.4,64.1c0-1.4,0-2.8,0-4.2s-0.3-1.8-1.8-1.8c-2.3,0-4.7,0-7,0c-0.2,0-0.5,0-0.7,0c0-2.6,0-5,0-7.6
		c0.8,0.1,1.5,0.2,2.3,0.4c0,1.2,0,2.3,0,3.6c0.8,0,1.6,0,2.4,0c0-1.2,0-2.3,0-3.5c1.3-0.3,2.5-0.5,3.7-0.9c5.6-1.7,9.9-7,10.5-12.8
		c0.1-0.6,0.3-0.8,0.8-0.7c0.9,0.1,1.9,0,2.9,0c0-0.8,0-1.6,0-2.4c-1.2,0-2.4,0-3.5,0c-1.3-8.3-6.1-13-14.4-14.4c0-1.1,0-2.3,0-3.5
		c-0.8,0-1.6,0-2.4,0c0,1.2,0,2.4,0,3.6c-0.8,0.1-1.6,0.3-2.4,0.4c0-2.1,0-4.2,0-6.3c7.1,0,14.3,0,21.5,0c0,0.3,0,0.5,0,0.8
		c0,3.1,0,6.3,0,9.4c0,1.3,0.4,1.7,1.7,1.7c3.1,0,6.3,0,9.4,0c0.2,0,0.5,0,0.8,0c0,0.2,0,0.4,0,0.7c0,4.5,0,9,0,13.5
		c0,0.3-0.1,0.7-0.3,0.8c-1.9,1.7-3.8,3.4-5.7,5.1c-0.2,0.2-0.5,0.3-0.8,0.4c-4.4,0.6-7.4,4-7.5,8.4c0,0.7,0,1.5,0,2.2
		c-0.1,1-0.5,1.8-1.3,2.3c-0.9,0.6-1.1,1-1,1.7c0.2,0.6,0.7,0.9,1.7,0.9c2.8,0,5.5,0,8.3-0.1c2.7-0.1,4.8-1.4,6.3-3.5
		c0.1-0.1,0.2-0.2,0.3-0.4c0,2.2,0,4.2,0,6.3C49.3,64.1,41.4,64.1,33.4,64.1z"/>
	<path class="st0" d="M40.5,36.6c-0.4,3.6-1.9,6.5-4.7,8.9c0-1.8-0.3-3.3-1.1-4.7s-1.9-2.5-3.4-3.3c1.6-1.5,2.3-3.3,2-5.4
		c-0.2-1.5-0.9-2.8-2.1-3.8c-2.4-1.9-5.8-1.8-8,0.3c-2,1.9-2.8,5.8,0.3,8.8c-1.4,0.8-2.6,1.9-3.4,3.3c-0.8,1.4-1.1,2.9-1.1,4.5
		c-2.3-1.4-4.6-5.7-4.6-8.8c0.7,0,1.4,0,2.2,0c0-0.8,0-1.6,0-2.4c-0.7,0-1.4,0-2.2,0c0.1-5.1,4.7-11.3,11.7-11.9c0,0.7,0,1.5,0,2.2
		c0.8,0,1.6,0,2.4,0c0-0.7,0-1.4,0-2.2c5.4,0.1,11.4,5,11.8,11.8c-0.7,0-1.5,0-2.2,0c0,0.8,0,1.6,0,2.4
		C38.9,36.6,39.7,36.6,40.5,36.6z"/>
	<path class="st0" d="M47.8,23.5c0-4,0-7.9,0-11.9c8,0,15.9,0,23.8,0c0,4,0,7.9,0,11.9C63.7,23.5,55.7,23.5,47.8,23.5z M69.2,18.8
		c-6.4,0-12.7,0-19,0c0,0.8,0,1.6,0,2.3c6.4,0,12.7,0,19,0C69.2,20.3,69.2,19.5,69.2,18.8z M69.2,14c-4,0-7.9,0-11.9,0
		c0,0.8,0,1.5,0,2.3c4,0,7.9,0,11.9,0C69.2,15.5,69.2,14.8,69.2,14z M50.1,16.3c1.6,0,3.2,0,4.7,0c0-0.8,0-1.5,0-2.3
		c-1.6,0-3.2,0-4.7,0C50.1,14.8,50.1,15.5,50.1,16.3z"/>
	<path class="st0" d="M33.4,66.5c8,0,15.9,0,23.9,0c-0.1,1.6,0.3,3.3-0.3,4.9c-0.5,1.3-1.6,2.1-3,2.2c-0.2,0-0.4,0-0.7,0
		c-8.6,0-17.1,0-25.7,0c-2.2,0-3.8-1.4-3.9-3.5c0.2,0,0.5,0,0.7,0c2.4,0,4.7,0,7.1,0c1.4,0,1.7-0.4,1.7-1.7
		C33.4,67.8,33.4,67.2,33.4,66.5z M41.7,69c-0.8,0-1.6,0-2.3,0c0,0.8,0,1.5,0,2.3c0.8,0,1.5,0,2.3,0C41.7,70.5,41.7,69.8,41.7,69z"
		/>
	<path class="st0" d="M53.1,47.4c1.4-1.2,2.8-2.5,4.2-3.7c4.7-4.1,9.3-8.2,14-12.3c0.2-0.1,0.3-0.3,0.5-0.4c0.6-0.4,1.3-0.3,1.8,0.1
		c0.5,0.5,0.6,1.2,0.1,1.8c-0.1,0.1-0.2,0.2-0.3,0.4c-5.3,6-10.5,11.9-15.8,17.9c-0.1,0.1-0.3,0.3-0.4,0.4
		C55.9,50.2,54.5,48.8,53.1,47.4z"/>
	<path class="st0" d="M28.6,48.5c0-0.8,0-1.5,0-2.2c-0.8,0-1.6,0-2.4,0c0,0.7,0,1.5,0,2.2c-1.6-0.1-3.1-0.6-4.5-1.2
		c-0.1-0.1-0.2-0.2-0.2-0.3c0-1.7-0.1-3.3,0.8-4.9c1.2-2.2,3.7-3.3,6.3-2.9c2.4,0.4,4.4,2.4,4.7,4.8c0.1,1,0.1,2,0.1,2.9
		c0,0.1-0.1,0.4-0.3,0.4C31.7,48,30.2,48.4,28.6,48.5z"/>
	<path class="st0" d="M44.7,59.2c0.9-1.7,0.5-3.5,0.7-5.2c0.2-2.7,2.5-5.1,5.2-5.3c0.2,0,0.4,0.1,0.6,0.2c1.6,1.5,3.1,3.1,4.7,4.7
		c0.1,0.2,0.2,0.5,0.2,0.7c-0.3,2.5-2.3,4.7-4.8,5C49,59.4,46.9,59.2,44.7,59.2z"/>
	<path class="st0" d="M27.4,36.6c-2,0-3.6-1.6-3.6-3.6s1.6-3.6,3.6-3.6S31,31,31,33S29.4,36.6,27.4,36.6z"/>
</g>
</svg>
