<?xml version="1.0" encoding="utf-8"?>
<!-- Generator: Adobe Illustrator 21.0.0, SVG Export Plug-In . SVG Version: 6.00 Build 0)  -->
<svg version="1.1" id="Layer_1" xmlns="http://www.w3.org/2000/svg" xmlns:xlink="http://www.w3.org/1999/xlink" x="0px" y="0px"
	 viewBox="0 0 78 78" style="enable-background:new 0 0 78 78;" xml:space="preserve">
<style type="text/css">
	.st0{fill:#B5D01E;}
</style>
<g>
	<path class="st0" d="M27.9,37.1c-0.9,0.5-1.8,1-2.7,1.5c-1.2,0.7-2.5,1.3-3.7,2c-3.3,1.9-5.1,4.7-5.1,8.6c0,1.6,0,3.2,0,4.8
		c0,0.3,0,0.5,0,0.9c-3.8,0-7.4,0-11.2,0c0-0.3,0-0.6,0-0.8c0-7.2,0-14.4,0-21.6c0-3.2,1.5-5.4,4.5-6.4c1.5-0.6,3-1.1,4.6-1.7
		c0.3-0.1,0.7-0.1,0.9,0c2.8,1.7,5.9,2.2,9.1,1.3c0.1,0,0.1,0,0.3-0.1C24,30,25.1,33.8,27.9,37.1z"/>
	<path class="st0" d="M49.7,37.1c2.7-3.4,3.9-7.1,3.3-11.4c0.8,0.1,1.5,0.3,2.2,0.4c2.5,0.3,4.8-0.3,7-1.6c0.3-0.2,0.8-0.2,1.1-0.1
		c1.6,0.5,3.1,1.1,4.6,1.7c2.8,1,4.3,3.3,4.4,6.2c0,7.3,0,14.6,0,21.9c0,0.2,0,0.4,0,0.7c-3.7,0-7.4,0-11.1,0c0-0.3,0-0.5,0-0.8
		c0-1.7,0-3.4,0-5.2c-0.1-3.6-1.8-6.4-4.9-8.2c-1.9-1.1-3.9-2.1-5.8-3.2C50.1,37.4,49.9,37.3,49.7,37.1z"/>
	<path class="st0" d="M57.9,72.4c-5.9,0-11.7,0-17.5,0C43,61.6,45.6,50.8,48.2,40c0.5,0.3,1,0.5,1.4,0.7c1.7,0.9,3.5,1.8,5.2,2.8
		c2.1,1.2,3.2,3.1,3.2,5.5c0,7.6,0,15.3,0,22.9C57.9,72.1,57.9,72.2,57.9,72.4z"/>
	<path class="st0" d="M19.6,72.4c0-0.3,0-0.6,0-0.9c0-7.4,0-14.7,0-22.1c0-2.9,1.2-4.9,3.7-6.2c1.8-0.9,3.6-1.9,5.3-2.9
		c0.2-0.1,0.4-0.2,0.7-0.4c2.6,10.8,5.2,21.6,7.8,32.4C31.3,72.4,25.5,72.4,19.6,72.4z"/>
	<path class="st0" d="M38.7,16.6c6.2,0,11.2,5,11.2,11.2S44.9,39,38.7,39s-11.2-5-11.2-11.2C27.6,21.6,32.6,16.6,38.7,16.6z"/>
	<path class="st0" d="M21.2,7c5.1,0,9,4.9,7.7,9.8c-0.1,0.3-0.3,0.7-0.5,1c-0.7,1.1-1.5,2.1-2.3,3.1c-0.2,0.3-0.5,0.6-0.8,0.8
		c-2.8,1.8-6.4,1.6-9.1-0.5s-3.7-5.7-2.6-8.9C14.8,9.1,17.8,7,21.2,7z"/>
	<path class="st0" d="M56.3,7c3.4,0,6.4,2.1,7.5,5.3c1.1,3.2,0.1,6.7-2.5,8.9c-2.6,2.1-6.2,2.4-9,0.7c-0.4-0.2-0.7-0.7-1-1
		c-0.6-0.8-1-1.7-1.7-2.4c-1.2-1.2-1.4-2.6-1.3-4.1C48.7,10.2,52.2,7,56.3,7z"/>
	<path class="st0" d="M38.7,65.3c-0.5-2.1-1-4.2-1.5-6.4c0-0.2,0-0.3,0-0.5c0-4.3,0-8.6,0-12.9c0-1.1,0.6-1.8,1.5-1.8
		c1.1-0.1,1.8,0.6,1.8,1.8c0,2.3,0,4.7,0,7c0,0.8-0.1,1.6,0,2.3C40.7,58.5,39.7,61.9,38.7,65.3z"/>
</g>
</svg>
