<?xml version="1.0" encoding="utf-8"?>
<!-- Generator: Adobe Illustrator 21.0.0, SVG Export Plug-In . SVG Version: 6.00 Build 0)  -->
<svg version="1.1" id="Layer_1" xmlns="http://www.w3.org/2000/svg" xmlns:xlink="http://www.w3.org/1999/xlink" x="0px" y="0px"
	 viewBox="0 0 78 78" style="enable-background:new 0 0 78 78;" xml:space="preserve">
<style type="text/css">
	.st0{fill:#B5D01E;}
</style>
<g>
	<path class="st0" d="M49.5,2c1.2,0.6,1.5,1.3,0.9,2.5c-0.8,1.9-1.6,3.7-2.3,5.4c1.4,1.1,2.8,2.1,3.9,3.3c3.1,3.1,4.6,6.9,4.7,11.3
		c0,1.3-0.5,1.9-1.8,1.9c-9.9,0-19.9,0-29.8,0c-1.3,0-1.9-0.6-1.8-2c0.2-6,3-10.6,8.1-13.9c0.2-0.1,0.4-0.3,0.7-0.4
		c-0.8-1.9-1.6-3.7-2.4-5.6c-0.5-1.3-0.3-1.9,0.9-2.5c0.2,0,0.5,0,0.7,0c0.4,0.5,0.9,1,1.2,1.6c0.8,1.7,1.5,3.5,2.3,5.3
		c3.5-1.1,6.9-1.1,10.4,0c0.8-1.8,1.6-3.6,2.3-5.4c0.3-0.7,0.6-1.2,1.3-1.6C49,2,49.2,2,49.5,2z M32.4,18.8c0,0.8,0.7,1.5,1.5,1.5
		s1.6-0.7,1.5-1.5c0-0.8-0.7-1.5-1.5-1.5C33.1,17.3,32.4,17.9,32.4,18.8z M46.2,17.3c-0.8,0-1.5,0.6-1.5,1.5c0,0.8,0.7,1.6,1.5,1.6
		s1.5-0.7,1.5-1.5C47.6,18,47,17.3,46.2,17.3z"/>
	<path class="st0" d="M41.6,63c-1.1,0-2,0-3.1,0c0,0.3,0,0.5,0,0.8c0,2.3,0.1,4.7,0,7c-0.1,3.1-3.3,5.1-6.2,4
		c-1.8-0.7-2.9-2.4-2.9-4.6c0-2.3,0-4.5,0-6.8c0-0.5-0.2-0.7-0.7-0.9c-3.1-0.9-5.3-3.6-5.4-6.8c-0.1-3,0-5.9,0-8.9
		c0-5.1,0-10.2,0-15.4c0-1.7,0.5-2.1,2.1-2.1c9.8,0,19.5,0,29.3,0c1.6,0,2.1,0.5,2.1,2.1c0,7.8,0,15.6,0,23.4c0,3.4-1.5,5.9-4.5,7.4
		c-0.1,0.1-0.3,0.1-0.4,0.2c-1.1,0.4-1.1,0.4-1.1,1.6c0,2.4,0,4.7-0.1,7.1c-0.1,2.3-2.3,4-4.5,4c-2.3,0-4.4-1.9-4.4-4.2
		c-0.1-2.4,0-4.7,0-7.1C41.6,63.6,41.6,63.4,41.6,63z"/>
	<path class="st0" d="M20.2,41.7c0,2.5,0,4.9,0,7.4s-1.6,4.4-3.8,4.7c-2.9,0.4-5.3-1.6-5.3-4.7c-0.1-5,0-10,0-14.9
		c0-2,0.9-3.5,2.8-4.3c1.7-0.7,3.4-0.4,4.8,0.8c0.9,0.8,1.5,1.8,1.5,3C20.2,36.3,20.2,39,20.2,41.7L20.2,41.7z"/>
	<path class="st0" d="M59.9,41.7c0-2.5,0-5,0-7.4s1.5-4.3,3.7-4.7c2.9-0.6,5.4,1.5,5.4,4.6c0.1,5,0.1,10,0,14.9
		c-0.1,3.8-3.8,5.9-6.9,4c-1.3-0.8-2-2-2.2-3.5c0-0.2,0-0.3,0-0.5C59.9,46.7,59.9,44.2,59.9,41.7z"/>
</g>
</svg>
