<?xml version="1.0" encoding="utf-8"?>
<!-- Generator: Adobe Illustrator 21.0.0, SVG Export Plug-In . SVG Version: 6.00 Build 0)  -->
<svg version="1.1" id="Layer_1" xmlns="http://www.w3.org/2000/svg" xmlns:xlink="http://www.w3.org/1999/xlink" x="0px" y="0px"
	 viewBox="0 0 225 232.7" style="enable-background:new 0 0 225 232.7;" xml:space="preserve">
<style type="text/css">
	.st0{opacity:0.26;fill:url(#SVGID_1_);enable-background:new    ;}
	.st1{opacity:0.26;fill:url(#SVGID_2_);enable-background:new    ;}
	.st2{fill:#154284;}
	.st3{fill:#FFFFFF;}
	.st4{fill:url(#SVGID_3_);}
	.st5{fill:url(#SVGID_4_);}
	.st6{fill:url(#SVGID_5_);}
	.st7{fill:url(#SVGID_6_);}
	.st8{fill:url(#SVGID_7_);}
	.st9{fill:url(#SVGID_8_);}
	.st10{fill:url(#SVGID_9_);}
	.st11{fill:url(#SVGID_10_);}
	.st12{fill:url(#SVGID_11_);}
	.st13{fill:#23478E;}
	.st14{fill:#F9BFAD;}
	.st15{fill:#FD5C95;}
	.st16{fill:#323441;}
	.st17{fill:url(#SVGID_12_);}
	.st18{fill:#D9D9D9;}
	.st19{opacity:0.76;}
	.st20{fill:url(#SVGID_13_);}
	.st21{fill:url(#SVGID_14_);}
	.st22{fill:url(#SVGID_15_);}
	.st23{fill:url(#SVGID_16_);}
	.st24{fill:#EF11C5;}
	.st25{fill:url(#SVGID_17_);}
	.st26{fill:url(#SVGID_18_);}
	.st27{fill:url(#SVGID_19_);}
	.st28{fill:url(#SVGID_20_);}
	.st29{fill:#0A8CC8;}
	.st30{fill:#EAD8CF;}
	.st31{fill:#DA9B5B;}
	.st32{fill:#424773;}
	.st33{fill:#E2D2CA;}
	.st34{fill:#EEA886;}
	.st35{fill:#323657;}
	.st36{fill:#184655;}
	.st37{fill:#0E2E35;}
	.st38{fill:#F47458;}
</style>
<g>
	<g>
		<g>
			<g>
				
					<linearGradient id="SVGID_1_" gradientUnits="userSpaceOnUse" x1="-1661.3811" y1="-5.8012" x2="-1661.3811" y2="-5.8012" gradientTransform="matrix(-0.987 0.1606 -0.1606 -0.987 -1435.7605 348.1981)">
					<stop  offset="0" style="stop-color:#B37CFF"/>
					<stop  offset="1" style="stop-color:#F895E7"/>
				</linearGradient>
				<path class="st0" d="M205,87.1L205,87.1L205,87.1z M205,87.1L205,87.1L205,87.1z"/>
			</g>
			<g>
				
					<linearGradient id="SVGID_2_" gradientUnits="userSpaceOnUse" x1="-241.8636" y1="176.5992" x2="-233.4449" y2="176.5992" gradientTransform="matrix(-0.9638 0.2666 -0.2666 -0.9638 -147.6684 363.3615)">
					<stop  offset="0" style="stop-color:#B37CFF"/>
					<stop  offset="1" style="stop-color:#F895E7"/>
				</linearGradient>
				<path class="st1" d="M48.5,180.3h-0.1c-0.5,0.1-1-0.3-1-0.8C42.3,131.3,18.6,84,16.9,81.8c-0.3-0.3-0.4-0.7-0.2-1.1
					c0.2-0.5,0.7-0.7,1.2-0.5c0.3,0.1,0.5,0.2,1.8,2.8c0.6,1.1,1.6,3.2,3.2,6.4c2.2,4.7,5.6,12.4,9.4,22.3
					c6.3,16.6,14.3,41.9,17.1,67.6C49.3,179.8,49,180.2,48.5,180.3z M17.1,81.9L17.1,81.9L17.1,81.9z M17.1,81.9L17.1,81.9
					L17.1,81.9z"/>
			</g>
		</g>
		<g>
			<g>
				<rect x="94.1" y="189.1" class="st2" width="16.4" height="16.4"/>
				<g>
					<path class="st2" d="M12,189.1c0,1.7,1.4,3.2,3.2,3.2h174.5c1.7,0,3.2-1.4,3.2-3.2l1.4-100.2c0-1.7-2-5.2-5.9-5L17.9,79.4
						c-2.3-0.1-4.4,0.8-5.9,2.4c-1.5,1.5-2.5,3.7-2.4,5.9L12,189.1z"/>
					<path class="st3" d="M15.2,184.1c0,1.6,1.3,3,3.1,3h167.3c1.6,0,3.1-1.3,3.1-3l1.3-89.5c-0.2-5.4-4.9-7.3-7.9-7.2L18.6,83.1
						c-1.5,0-3.1,0.5-4.2,1.6s-1.7,2.6-1.6,4.1L15.2,184.1z"/>
					<g>
						<path class="st3" d="M186.7,142.7L186.7,142.7c-0.2,0-0.4-0.2-0.4-0.4l0.1-7.4c0-0.2,0.2-0.4,0.4-0.4c0.2,0,0.4,0.2,0.4,0.4
							l-0.1,7.4C187.1,142.5,187,142.7,186.7,142.7z"/>
						<path class="st3" d="M187,124.6L187,124.6c-0.2,0-0.4-0.2-0.4-0.4l0.4-28.3c0-1.6-0.5-3.1-1.5-4c-1.8-1.7-4.8-1.7-4.9-1.7
							l-52.3-1.4c-0.2,0-0.4-0.2-0.4-0.4c0-0.2,0.2-0.4,0.4-0.4l0,0l52.2,1.4c0.3,0,3.5-0.1,5.5,1.9c1.1,1.1,1.7,2.7,1.7,4.6
							l-0.4,28.3C187.4,124.4,187.2,124.6,187,124.6z"/>
					</g>
				</g>
				<path class="st2" d="M140.9,202.6H63.5c-1.5,0-2.8,1.2-2.8,2.7c0,1.3,1,2.3,2.4,2.3H141c1.3,0,2.3-1.1,2.3-2.5v-0.4
					C143.3,203.5,142.2,202.6,140.9,202.6z"/>
			</g>
			<g>
				<g>
					
						<linearGradient id="SVGID_3_" gradientUnits="userSpaceOnUse" x1="124.3172" y1="151.4039" x2="148.892" y2="77.6793" gradientTransform="matrix(1 0 0 -1 0 232)">
						<stop  offset="0" style="stop-color:#CB236D"/>
						<stop  offset="1" style="stop-color:#4C246D"/>
					</linearGradient>
					<path class="st4" d="M141.8,95.5l-18.1-0.9c-1.4-0.1-2.7,1.1-2.7,2.6l0.5,16.7c0,1.3,1.2,2.4,2.7,2.4l17.2-0.8
						c1.1-0.1,2.2-1.1,2.2-2.4l0.4-15C144,96.6,143,95.5,141.8,95.5z"/>
					<g>
						<path class="st3" d="M132.2,112.1c-3.8,0-6.9-3.1-6.9-6.9s3.1-6.9,6.9-6.9s6.9,3.1,6.9,6.9S136,112.1,132.2,112.1z
							 M132.2,99.6c-3.2,0-5.6,2.6-5.6,5.6c0,3.2,2.6,5.6,5.6,5.6c3.2,0,5.6-2.6,5.6-5.6S135.4,99.6,132.2,99.6z"/>
						<path class="st3" d="M130,107.9V103c0-0.5,0.6-0.8,1-0.6l4.1,2.5c0.4,0.3,0.4,0.9,0,1.1l-4.1,2.5
							C130.6,108.7,130,108.4,130,107.9z"/>
					</g>
				</g>
				<g>
					
						<linearGradient id="SVGID_4_" gradientUnits="userSpaceOnUse" x1="92.4448" y1="152.0812" x2="117.0195" y2="78.3566" gradientTransform="matrix(1 0 0 -1 0 232)">
						<stop  offset="0" style="stop-color:#F9C200"/>
						<stop  offset="0.9964" style="stop-color:#9B1E5F"/>
					</linearGradient>
					<path class="st5" d="M109.9,94.8l-18.1-0.9c-1.4-0.1-2.7,1.1-2.7,2.6l0.5,16.7c0,1.3,1.2,2.4,2.7,2.4l17.2-0.8
						c1.1-0.1,2.2-1.1,2.2-2.4l0.4-15C112.1,96,111.2,94.9,109.9,94.8z"/>
					<g>
						<path class="st3" d="M106.7,109.8H97c-0.3,0-0.5-0.2-0.6-0.4l-2.8-9.3l-2.9-0.4c-0.3,0-0.6-0.3-0.5-0.7c0-0.3,0.3-0.6,0.7-0.5
							l3.3,0.4c0.2,0,0.4,0.2,0.5,0.4l2.8,9.3h8.7l1.2-6.7c0.1-0.3,0.4-0.5,0.7-0.5c0.3,0.1,0.5,0.4,0.5,0.7l-1.3,7.2
							C107.2,109.6,107,109.8,106.7,109.8z"/>
						<path class="st3" d="M107.8,102.4H95c-0.3,0-0.6-0.3-0.6-0.6s0.3-0.6,0.6-0.6h12.8c0.3,0,0.6,0.3,0.6,0.6
							S108.1,102.4,107.8,102.4z"/>
						<g>
							<path class="st3" d="M99.3,109.1c-0.3,0-0.6-0.3-0.6-0.6v-6.7c0-0.3,0.3-0.6,0.6-0.6c0.3,0,0.6,0.3,0.6,0.6v6.7
								C99.9,108.9,99.6,109.1,99.3,109.1z"/>
							<path class="st3" d="M104,109.1c-0.3,0-0.6-0.3-0.6-0.6v-6.7c0-0.3,0.3-0.6,0.6-0.6s0.6,0.3,0.6,0.6v6.7
								C104.6,108.9,104.3,109.1,104,109.1z"/>
						</g>
						<path class="st3" d="M107.1,106.1H96c-0.3,0-0.6-0.3-0.6-0.6s0.3-0.6,0.6-0.6h11.1c0.3,0,0.6,0.3,0.6,0.6
							S107.4,106.1,107.1,106.1z"/>
						<g>
							<circle class="st3" cx="98.6" cy="111.9" r="1.1"/>
							<path class="st3" d="M106.7,111.9c0,0.6-0.5,1.1-1.1,1.1s-1.1-0.5-1.1-1.1c0-0.6,0.5-1.1,1.1-1.1S106.7,111.3,106.7,111.9z"
								/>
						</g>
					</g>
				</g>
				<g>
					
						<linearGradient id="SVGID_5_" gradientUnits="userSpaceOnUse" x1="94.0778" y1="118.873" x2="118.6526" y2="45.1484" gradientTransform="matrix(1 0 0 -1 0 232)">
						<stop  offset="0" style="stop-color:#B37CFF"/>
						<stop  offset="1" style="stop-color:#F895E7"/>
					</linearGradient>
					<path class="st6" d="M111.5,128l-18-0.9c-1.4-0.1-2.7,1.1-2.7,2.6l0.5,16.7c0,1.3,1.2,2.4,2.7,2.4l17.2-0.8
						c1.1-0.1,2.2-1.1,2.2-2.4l0.4-15C113.7,129.2,112.7,128.1,111.5,128z"/>
					<g>
						<path class="st3" d="M108.5,144.3H95.8c-1,0-1.7-0.8-1.7-1.7v-9.2c0-1,0.8-1.7,1.7-1.7h12.7c1,0,1.7,0.8,1.7,1.7v9.2
							C110.2,143.5,109.4,144.3,108.5,144.3z M95.8,132.7c-0.3,0-0.5,0.2-0.5,0.5v9.2c0,0.3,0.2,0.5,0.5,0.5h12.7
							c0.3,0,0.5-0.2,0.5-0.5v-9.2c0-0.3-0.2-0.5-0.5-0.5H95.8z"/>
						<path class="st3" d="M102.1,138.3c-0.1,0-0.2,0-0.3-0.1l-7.1-5c-0.3-0.2-0.3-0.6-0.1-0.8c0.2-0.3,0.6-0.3,0.8-0.1l6.8,4.8
							l6.7-4.7c0.3-0.2,0.6-0.1,0.8,0.1c0.2,0.3,0.1,0.6-0.1,0.8l-7.1,5C102.4,138.1,102.3,138.3,102.1,138.3z"/>
						<path class="st3" d="M95.1,144l-0.2-1.2l0.1,0.6l-0.5-0.3c0.1-0.2,2.7-4.7,4.4-7.7c0.2-0.3,0.5-0.4,0.8-0.2
							c0.3,0.2,0.4,0.5,0.2,0.8c0,0-1.1,1.9-2.2,3.9c-0.5,0.9-1.1,1.9-1.5,2.7C95.4,143.9,95.4,143.9,95.1,144z"/>
						<path class="st3" d="M109.1,144c-0.3,0-0.3,0-1.1-1.5c-0.4-0.7-0.9-1.6-1.5-2.7c-1.1-1.9-2.2-3.9-2.2-3.9
							c-0.2-0.3-0.1-0.7,0.2-0.8c0.3-0.2,0.7-0.1,0.8,0.2c1.7,3,4.3,7.5,4.4,7.7l-0.5,0.3L109.1,144z"/>
					</g>
				</g>
				<g>
					
						<linearGradient id="SVGID_6_" gradientUnits="userSpaceOnUse" x1="124.5215" y1="118.4021" x2="149.0963" y2="44.6776" gradientTransform="matrix(1 0 0 -1 0 232)">
						<stop  offset="0" style="stop-color:#F9C200"/>
						<stop  offset="0.9964" style="stop-color:#9B1E5F"/>
					</linearGradient>
					<path class="st7" d="M142,128.5l-18.1-0.9c-1.4-0.1-2.7,1.1-2.7,2.6l0.5,16.7c0,1.3,1.2,2.4,2.7,2.4l17.2-0.8
						c1.1-0.1,2.2-1.1,2.2-2.4l0.4-15C144.2,129.6,143.3,128.5,142,128.5z"/>
					<g>
						<path class="st3" d="M131.7,137.3c3.2-3.7,6.6-6,7.4-5.1c0.9,0.9-1.4,4.2-5.1,7.4c-3.7,3.2-7.1,5.5-7.4,5.1
							C126.2,144.4,128.5,141.1,131.7,137.3z"/>
						<g>
							<g>
								<path class="st3" d="M133.5,135.7l-7.4-3.5c-0.2-0.1-0.3,0-0.5,0.1l-1,1c-0.1,0.1-0.1,0.2-0.1,0.4c0,0.1,0.1,0.2,0.1,0.3
									l6,4.5L133.5,135.7z"/>
								<path class="st3" d="M128.4,142l-2.5-0.9c-0.2-0.1-0.4-0.1-0.5,0.1l-0.1,0.1c-0.1,0.1-0.1,0.2-0.1,0.3s0.1,0.2,0.2,0.3
									l2.4,1.8L128.4,142z"/>
							</g>
							<g>
								<path class="st3" d="M135.6,137.7l3.5,7.4c0.1,0.2,0,0.3-0.1,0.5l-1,1c-0.1,0.1-0.1,0.2-0.3,0.2c-0.1,0-0.3-0.1-0.3-0.2
									l-4.5-6L135.6,137.7z"/>
								<path class="st3" d="M129.4,143.1l0.9,2.4c0.1,0.2,0,0.3-0.1,0.4l-0.1,0.1c-0.1,0.1-0.1,0.2-0.3,0.2c-0.1,0-0.2,0-0.3-0.1
									l-1.8-2.4L129.4,143.1z"/>
							</g>
						</g>
					</g>
				</g>
				<g>
					
						<linearGradient id="SVGID_7_" gradientUnits="userSpaceOnUse" x1="155.9098" y1="151.1643" x2="180.4846" y2="77.4397" gradientTransform="matrix(1 0 0 -1 0 232)">
						<stop  offset="0" style="stop-color:#2C50FF"/>
						<stop  offset="0.9964" style="stop-color:#1A1B80"/>
					</linearGradient>
					<path class="st8" d="M173.4,95.7l-18.1-0.9c-1.4-0.1-2.7,1.1-2.7,2.6l0.5,16.7c0,1.3,1.2,2.4,2.7,2.4l17.2-0.8
						c1.1-0.1,2.2-1.1,2.2-2.4l0.4-15C175.6,96.9,174.6,95.8,173.4,95.7z"/>
					<path class="st3" d="M165.4,98.8c-0.3-0.1-0.6,0.1-0.6,0.4v0.6v1.3v6.4c-0.6-0.5-1.5-0.8-2.5-0.8c-1.9,0-3.5,1.2-3.5,2.8
						c0,1.5,1.5,2.8,3.5,2.8c1.9,0,3.5-1.2,3.5-2.8l0,0l0,0v-8.3c1.3,0.2,2.4,1.2,2.9,2.2c0.2,0.3,0.8,0.2,0.7-0.2
						C169.3,100.5,166.6,99.3,165.4,98.8z"/>
				</g>
				<g>
					
						<linearGradient id="SVGID_8_" gradientUnits="userSpaceOnUse" x1="156.1835" y1="118.1857" x2="180.7583" y2="44.4611" gradientTransform="matrix(1 0 0 -1 0 232)">
						<stop  offset="0" style="stop-color:#CB236D"/>
						<stop  offset="1" style="stop-color:#4C246D"/>
					</linearGradient>
					<path class="st9" d="M173.7,128.7l-18.1-0.9c-1.4-0.1-2.7,1.1-2.7,2.6l0.5,16.7c0,1.3,1.2,2.4,2.7,2.4l17.2-0.8
						c1.1-0.1,2.2-1.1,2.2-2.4l0.4-15C175.8,129.9,174.8,128.7,173.7,128.7z"/>
					<g>
						<path class="st3" d="M170.4,145.7h-13c-1.4,0-2.6-1.1-2.6-2.6v-8.6c0-1.4,1.1-2.6,2.6-2.6h13c1.4,0,2.6,1.1,2.6,2.6v8.6
							C173.1,144.6,171.8,145.7,170.4,145.7z M157.4,133.2c-0.7,0-1.3,0.6-1.3,1.3v8.6c0,0.7,0.6,1.3,1.3,1.3h13
							c0.7,0,1.3-0.6,1.3-1.3v-8.6c0-0.7-0.6-1.3-1.3-1.3H157.4z"/>
						<path class="st3" d="M170.6,131.6c0,0.5-0.4,0.8-0.8,0.8h-2.3c-0.5,0-0.8-0.4-0.8-0.8l0,0c0-0.5,0.4-0.8,0.8-0.8h2.3
							C170.2,130.8,170.6,131.1,170.6,131.6L170.6,131.6z"/>
						<path class="st3" d="M169.8,135.7c0,0.4-0.3,0.7-0.7,0.7h-2.4c-0.4,0-0.7-0.3-0.7-0.7v-0.1c0-0.4,0.3-0.7,0.7-0.7h2.4
							c0.4,0,0.7,0.3,0.7,0.7V135.7z"/>
						<path class="st3" d="M162.2,143.1h-0.3c-2.2,0-3.9-1.7-3.9-3.9v-0.3c0-2.2,1.7-3.9,3.9-3.9h0.3c2.2,0,3.9,1.7,3.9,3.9v0.3
							C166.1,141.3,164.4,143.1,162.2,143.1z M161.9,136.1c-1.4,0-2.7,1.2-2.7,2.7v0.3c0,1.4,1.2,2.7,2.7,2.7h0.3
							c1.4,0,2.7-1.2,2.7-2.7v-0.3c0-1.4-1.2-2.7-2.7-2.7H161.9z"/>
					</g>
				</g>
				<g>
					
						<linearGradient id="SVGID_9_" gradientUnits="userSpaceOnUse" x1="125.6595" y1="86.7734" x2="150.2343" y2="13.0489" gradientTransform="matrix(1 0 0 -1 0 232)">
						<stop  offset="0" style="stop-color:#9F5699"/>
						<stop  offset="1" style="stop-color:#202278"/>
					</linearGradient>
					<path class="st10" d="M143.1,160.1l-18.1-0.9c-1.4-0.1-2.7,1.1-2.7,2.6l0.5,16.7c0,1.3,1.2,2.4,2.7,2.4l17.2-0.8
						c1.1-0.1,2.2-1.1,2.2-2.4l0.4-15C145.3,161.3,144.4,160.2,143.1,160.1z"/>
					<g>
						<path class="st3" d="M129.8,177.1c-1.1,0-2-0.9-2-2s0.9-2,2-2c1.1,0,2,0.9,2,2C131.9,176.2,131,177.1,129.8,177.1z
							 M129.8,173.7c-0.7,0-1.2,0.6-1.2,1.2c0,0.7,0.6,1.2,1.2,1.2c0.6,0,1.2-0.6,1.2-1.2C131.1,174.2,130.4,173.7,129.8,173.7z"/>
						<g>
							<path class="st3" d="M129.8,170.5c2.5,0,4.5,2,4.5,4.5c0,0.1,0,0.3,0,0.4c0,0.2,0.1,0.4,0.3,0.3l0.6-0.1
								c0.1,0,0.2-0.1,0.3-0.3c0-0.1,0-0.3,0-0.4c0-3.2-2.6-5.7-5.7-5.7c-0.2,0-0.5,0-0.7,0s-0.3,0.2-0.3,0.3l0.1,0.6
								c0,0.2,0.2,0.3,0.3,0.2C129.4,170.5,129.6,170.5,129.8,170.5z"/>
							<path class="st3" d="M129.8,167.3c4.2,0,7.7,3.5,7.7,7.7l0,0c0,0.2,0.2,0.3,0.3,0.3l0.6-0.1c0.1-0.1,0.2-0.2,0.3-0.3
								c0-4.9-4-8.8-8.9-8.8c-0.4,0-0.8,0-1.2,0.1c-0.2,0-0.3,0.2-0.2,0.3l0.1,0.6c0,0.2,0.2,0.3,0.3,0.2
								C129.1,167.4,129.4,167.3,129.8,167.3z"/>
							<path class="st3" d="M129.8,164.1c5.8,0,10.7,4.6,10.9,10.5c0,0.2,0.2,0.3,0.3,0.3l0.6-0.1c0.1,0,0.3-0.2,0.3-0.3
								c-0.3-6.5-5.6-11.6-12.1-11.6c-0.6,0-1.2,0-1.8,0.1c-0.2,0-0.3,0.2-0.2,0.3l0.1,0.6c0,0.2,0.2,0.3,0.3,0.2
								C128.7,164.1,129.2,164.1,129.8,164.1z"/>
						</g>
					</g>
				</g>
				<g>
					
						<linearGradient id="SVGID_10_" gradientUnits="userSpaceOnUse" x1="157.5341" y1="86.7795" x2="182.1089" y2="13.055" gradientTransform="matrix(1 0 0 -1 0 232)">
						<stop  offset="0" style="stop-color:#F9C200"/>
						<stop  offset="0.9964" style="stop-color:#9B1E5F"/>
					</linearGradient>
					<path class="st11" d="M175,160.1l-18.1-0.9c-1.4-0.1-2.7,1.1-2.7,2.6l0.5,16.7c0,1.3,1.2,2.4,2.7,2.4l17.2-0.8
						c1.1-0.1,2.2-1.1,2.2-2.4l0.4-15C177.2,161.3,176.3,160.2,175,160.1z"/>
					<path class="st3" d="M172.7,162.2h-12.8c-1.2,0-2.6,0.6-2.6,1.8v7.2c0,1.1,1.3,2.4,2.6,2.4h8.8c0.3,0,0.5,0.3,0.5,0.6v1
						c0,0.4,0.4,0.6,0.6,0.6c0.1,0.1,0.3,0.2,0.5,0.2c0.2,0,0.3-0.1,0.5-0.2l1.8-2.3c1.2,0,1.6-1.3,1.6-2.5V164
						C174.3,163,173.8,162.2,172.7,162.2z M173.1,171.3c0,0.5,0,1.1-0.4,1.1h-0.5l-2,2.3v-1.5c0-0.3,0-0.7-0.3-0.7h-9.9
						c-0.5,0-1.5-0.6-1.5-1.1v-6.9c0-0.8,1-0.9,1.5-0.9h12.8c0.5,0,0.4,0.1,0.4,0.6V171.3z"/>
					<path class="st3" d="M171.8,165.7c0,0.2-0.2,0.4-0.4,0.4H160c-0.2,0-0.4-0.2-0.4-0.4v-0.1c0-0.2,0.2-0.4,0.4-0.4h11.5
						c0.2,0,0.4,0.2,0.4,0.4V165.7z"/>
					<path class="st3" d="M171.8,168.2c0,0.2-0.2,0.4-0.4,0.4H160c-0.2,0-0.4-0.2-0.4-0.4v-0.1c0-0.2,0.2-0.4,0.4-0.4h11.5
						c0.2,0,0.4,0.2,0.4,0.4V168.2z"/>
					<path class="st3" d="M171.8,170.6c0,0.2-0.2,0.4-0.4,0.4H160c-0.2,0-0.4-0.2-0.4-0.4v-0.1c0-0.2,0.2-0.4,0.4-0.4h11.5
						c0.2,0,0.4,0.2,0.4,0.4V170.6z"/>
				</g>
				<g>
					
						<linearGradient id="SVGID_11_" gradientUnits="userSpaceOnUse" x1="93.158" y1="87.2411" x2="117.7328" y2="13.5165" gradientTransform="matrix(1 0 0 -1 0 232)">
						<stop  offset="0" style="stop-color:#2C50FF"/>
						<stop  offset="0.9964" style="stop-color:#1A1B80"/>
					</linearGradient>
					<path class="st12" d="M110.7,159.7l-18.1-0.9c-1.4-0.1-2.7,1.1-2.7,2.6l0.5,16.7c0,1.3,1.2,2.4,2.7,2.4l17.2-0.8
						c1.1-0.1,2.2-1.1,2.2-2.4l0.4-15C112.8,160.8,111.9,159.7,110.7,159.7z"/>
					<g>
						<path class="st3" d="M101.7,177c-0.1,0-0.2,0-0.4,0c-4.3-0.2-7.6-3.6-7.5-7.6c0.1-1.9,1-3.7,2.6-5c1.5-1.3,3.5-1.9,5.5-1.8
							c4.3,0.2,7.6,3.6,7.5,7.6l0,0c-0.1,1.9-1,3.7-2.6,5C105.5,176.3,103.7,177,101.7,177z M101.6,163.5c-1.6,0-3.3,0.6-4.5,1.6
							c-1.3,1.1-2,2.7-2.2,4.3c-0.1,3.5,2.8,6.4,6.5,6.6c1.8,0.1,3.5-0.5,4.8-1.6c1.3-1.1,2-2.7,2.2-4.3c0.1-3.5-2.8-6.4-6.5-6.6
							C101.8,163.5,101.7,163.5,101.6,163.5z"/>
						<g>
							<g>
								<path class="st3" d="M103.6,169.7c0,1.2-0.1,2.4-0.3,3.6c-0.1,0.3-0.1,0.6-0.2,0.9c-0.1,0.3-0.2,0.6-0.3,0.8
									c-0.1,0.3-0.2,0.5-0.4,0.8c-0.1,0.1-0.2,0.2-0.3,0.3c-0.1,0-0.1,0.1-0.2,0.1s-0.1,0.1-0.2,0.1c-0.1,0-0.2,0-0.2,0
									c-0.1,0-0.1-0.1-0.2-0.1c-0.1-0.1-0.2-0.2-0.3-0.3c-0.2-0.2-0.3-0.5-0.4-0.8c-0.1-0.3-0.2-0.6-0.3-0.8
									c-0.1-0.3-0.1-0.6-0.2-0.9c-0.1-0.6-0.2-1.2-0.2-1.7c0-0.6-0.1-1.2-0.1-1.7c0-0.3,0-0.6,0-0.9c0-0.3,0-0.6,0-0.9
									c0-0.6,0.1-1.2,0.2-1.7c0-0.3,0.1-0.6,0.2-0.9s0.1-0.6,0.2-0.8c0-0.1,0.1-0.3,0.2-0.4c0.1-0.1,0.1-0.3,0.2-0.4
									c0.1-0.1,0.2-0.2,0.3-0.3c0.1,0,0.1-0.1,0.2-0.1c0.1,0,0.1,0,0.2,0s0.1,0,0.2,0.1c0.1,0,0.1,0.1,0.2,0.1
									c0.1,0.1,0.2,0.2,0.3,0.3c0.2,0.2,0.3,0.5,0.4,0.8s0.2,0.5,0.3,0.8c0.1,0.3,0.1,0.6,0.2,0.8
									C103.5,167.4,103.6,168.6,103.6,169.7z M103.5,169.7c0-0.6,0-1.2-0.1-1.7c0-0.6-0.1-1.2-0.2-1.7c-0.1-0.3-0.1-0.6-0.2-0.8
									c-0.1-0.3-0.2-0.6-0.3-0.8c-0.1-0.3-0.2-0.5-0.4-0.8c-0.1-0.1-0.2-0.2-0.3-0.3c-0.1,0-0.1-0.1-0.2-0.1c-0.1,0-0.1,0-0.2-0.1
									c-0.1,0-0.1,0-0.2,0c-0.1,0-0.1,0.1-0.2,0.1c-0.1,0.1-0.2,0.2-0.3,0.3c-0.1,0.1-0.1,0.3-0.2,0.4c-0.1,0.1-0.1,0.3-0.2,0.4
									c-0.1,0.3-0.2,0.6-0.2,0.8c-0.1,0.3-0.1,0.6-0.2,0.9c-0.1,0.6-0.1,1.1-0.2,1.7c0,0.6,0,1.2,0,1.7c0,0.6,0,1.2,0.1,1.7
									c0,0.6,0.1,1.2,0.2,1.7c0,0.3,0.1,0.6,0.2,0.8c0.1,0.3,0.2,0.6,0.2,0.8c0.1,0.3,0.2,0.5,0.4,0.8c0.1,0.1,0.2,0.2,0.3,0.3
									c0.1,0,0.1,0.1,0.2,0.1s0.1,0,0.2,0c0.1,0,0.1,0,0.2,0s0.1-0.1,0.2-0.1c0.1-0.1,0.2-0.2,0.3-0.3c0.2-0.2,0.3-0.5,0.4-0.8
									c0.1-0.3,0.2-0.5,0.2-0.8c0.1-0.3,0.1-0.6,0.2-0.8c0.1-0.6,0.2-1.1,0.2-1.7C103.5,170.9,103.5,170.3,103.5,169.7z"/>
								<path class="st3" d="M101.7,176.6c-0.1,0-0.2,0-0.3-0.1c-0.1,0-0.2-0.1-0.2-0.1c-0.1-0.1-0.2-0.2-0.3-0.4
									c-0.1-0.2-0.3-0.5-0.4-0.8c-0.1-0.3-0.2-0.5-0.3-0.9c-0.1-0.3-0.1-0.6-0.2-0.9c-0.1-0.5-0.2-1.1-0.2-1.7
									c0-0.6-0.1-1.2-0.1-1.8c0-0.3,0-0.6,0-0.9c0-0.3,0-0.6,0-0.9c0-0.6,0.1-1.2,0.2-1.7c0.1-0.3,0.1-0.6,0.2-0.9
									c0.1-0.3,0.2-0.6,0.2-0.9c0.1-0.2,0.1-0.3,0.2-0.4c0.1-0.2,0.1-0.3,0.2-0.4c0.1-0.2,0.2-0.3,0.3-0.4
									c0.1-0.1,0.2-0.1,0.2-0.1c0.1,0,0.2-0.1,0.3-0.1c0.1,0,0.2,0,0.3,0.1c0.1,0,0.2,0.1,0.2,0.1c0.1,0.1,0.2,0.2,0.3,0.4
									c0.2,0.2,0.3,0.5,0.4,0.8c0.1,0.3,0.2,0.5,0.3,0.8c0.1,0.3,0.1,0.6,0.2,0.9c0.2,1.1,0.3,2.3,0.3,3.6l0,0
									c0,1.3-0.1,2.5-0.3,3.6c-0.1,0.3-0.1,0.6-0.2,0.9c-0.1,0.3-0.2,0.6-0.3,0.9c-0.1,0.3-0.3,0.6-0.4,0.8
									c-0.1,0.2-0.2,0.3-0.3,0.4c-0.1,0.1-0.1,0.1-0.2,0.1C101.9,176.5,101.8,176.6,101.7,176.6L101.7,176.6z M101.6,163.4h-0.1
									c0,0-0.1,0-0.1,0.1c-0.1,0.1-0.2,0.2-0.2,0.3c-0.1,0.1-0.1,0.2-0.2,0.4c-0.1,0.1-0.1,0.2-0.2,0.4s-0.2,0.5-0.2,0.8
									c-0.1,0.3-0.1,0.5-0.2,0.8c-0.1,0.5-0.1,1.1-0.2,1.7c0,0.5,0,1.1,0,1.7s0,1.2,0.1,1.7c0,0.6,0.1,1.2,0.2,1.7
									c0.1,0.3,0.1,0.6,0.2,0.8c0.1,0.3,0.2,0.6,0.2,0.8c0.1,0.3,0.2,0.5,0.4,0.7c0.1,0.1,0.2,0.2,0.2,0.3l0.1,0.1h0.1h0.1
									l0.1-0.1c0.1-0.1,0.2-0.2,0.2-0.3c0.1-0.2,0.2-0.4,0.4-0.7c0.1-0.2,0.2-0.5,0.2-0.8c0.1-0.3,0.1-0.5,0.2-0.8
									c0.1-0.5,0.2-1.1,0.2-1.7c0-0.6,0.1-1.1,0.1-1.7l0,0c0-0.6,0-1.2-0.1-1.7c-0.1-0.6-0.1-1.2-0.2-1.7
									c-0.1-0.3-0.1-0.6-0.2-0.8c-0.1-0.3-0.2-0.6-0.3-0.8c-0.1-0.3-0.2-0.5-0.4-0.7c-0.1-0.1-0.2-0.2-0.3-0.3l-0.1-0.1
									C101.7,163.4,101.6,163.4,101.6,163.4L101.6,163.4z"/>
							</g>
							<g>
								<path class="st3" d="M106.6,169.7c0,0.7-0.1,1.5-0.3,2.3c-0.2,0.7-0.5,1.4-0.9,2c-0.2,0.3-0.4,0.6-0.7,0.9
									c-0.3,0.3-0.6,0.5-0.9,0.7s-0.7,0.4-1,0.5c-0.4,0.1-0.7,0.2-1.1,0.2s-0.7-0.1-1.1-0.2s-0.7-0.3-1-0.5s-0.6-0.4-0.9-0.7
									s-0.5-0.6-0.7-0.9c-0.4-0.6-0.7-1.3-0.9-2c-0.1-0.4-0.2-0.7-0.2-1.1s-0.1-0.7-0.1-1.1s0-0.7,0.1-1.1c0-0.4,0.1-0.7,0.2-1.1
									c0.2-0.7,0.5-1.4,0.9-2c0.2-0.3,0.4-0.6,0.7-0.9c0.3-0.3,0.6-0.5,0.9-0.7s0.7-0.4,1-0.5c0.4-0.1,0.7-0.2,1.1-0.2
									s0.7,0.1,1.1,0.2c0.4,0.1,0.7,0.3,1,0.5s0.6,0.4,0.9,0.7c0.3,0.3,0.5,0.6,0.7,0.9c0.4,0.6,0.7,1.3,0.9,2
									C106.5,168.2,106.6,169,106.6,169.7z M106.5,169.7c0-0.7-0.1-1.5-0.3-2.3c-0.2-0.7-0.5-1.4-0.9-2c-0.2-0.3-0.4-0.6-0.7-0.9
									c-0.3-0.3-0.5-0.5-0.9-0.7c-0.3-0.2-0.6-0.4-1-0.5c-0.4-0.1-0.7-0.2-1.1-0.2s-0.7,0.1-1.1,0.2c-0.4,0.1-0.7,0.3-1,0.5
									s-0.6,0.4-0.9,0.7s-0.5,0.6-0.7,0.9c-0.4,0.6-0.7,1.3-0.9,2c-0.1,0.4-0.2,0.7-0.2,1.1c0,0.4-0.1,0.7-0.1,1.1
									c0,0.4,0,0.7,0.1,1.1c0,0.4,0.1,0.7,0.2,1.1c0.2,0.7,0.5,1.4,0.9,2c0.2,0.3,0.4,0.6,0.7,0.9c0.3,0.3,0.5,0.5,0.9,0.7
									c0.3,0.2,0.6,0.4,1,0.5c0.4,0.1,0.7,0.2,1.1,0.2s0.7-0.1,1.1-0.2s0.7-0.3,1-0.5c0.3-0.2,0.6-0.4,0.9-0.7s0.5-0.6,0.7-0.9
									c0.4-0.6,0.7-1.3,0.9-2C106.4,171.3,106.5,170.5,106.5,169.7z"/>
								<path class="st3" d="M101.5,176.6c-0.4,0-0.8-0.1-1.2-0.2c-0.4-0.1-0.7-0.3-1.1-0.5c-0.3-0.2-0.6-0.4-0.9-0.7
									s-0.5-0.6-0.7-0.9c-0.4-0.6-0.7-1.3-0.9-2.2c-0.1-0.4-0.2-0.7-0.2-1.1c0-0.4-0.1-0.8-0.1-1.1c0-0.4,0-0.8,0.1-1.1
									c0.1-0.4,0.1-0.8,0.2-1.1c0.2-0.8,0.5-1.5,1-2.2c0.2-0.3,0.5-0.6,0.7-0.9c0.3-0.3,0.6-0.5,0.9-0.7s0.7-0.4,1.1-0.5
									c0.4-0.1,0.8-0.2,1.1-0.2c0.4,0,0.8,0.1,1.2,0.2c0.4,0.1,0.7,0.3,1.1,0.5c0.3,0.2,0.6,0.4,0.9,0.7c0.3,0.3,0.5,0.6,0.7,0.9
									c0.4,0.6,0.7,1.3,0.9,2.2c0.2,0.7,0.3,1.5,0.3,2.4l0,0c0,0.8-0.1,1.5-0.3,2.4c-0.2,0.8-0.5,1.5-0.9,2.2
									c-0.2,0.3-0.5,0.6-0.7,0.9c-0.3,0.3-0.6,0.5-0.9,0.7c-0.3,0.2-0.7,0.4-1.1,0.5C102.4,176.5,101.9,176.6,101.5,176.6z
									 M101.5,163.4c-0.3,0-0.7,0.1-1,0.2s-0.7,0.3-1,0.4c-0.3,0.2-0.6,0.4-0.8,0.7c-0.2,0.2-0.5,0.5-0.7,0.8
									c-0.4,0.6-0.7,1.2-0.9,2c-0.1,0.3-0.2,0.7-0.2,1.1s-0.1,0.7-0.1,1.1s0,0.7,0.1,1.1c0,0.4,0.1,0.7,0.2,1.1
									c0.2,0.7,0.5,1.4,0.9,2c0.2,0.3,0.4,0.6,0.7,0.8c0.3,0.3,0.5,0.5,0.8,0.7s0.6,0.3,1,0.4c0.3,0.1,0.7,0.2,1,0.2
									s0.7-0.1,1-0.2c0.3-0.1,0.7-0.3,1-0.4c0.3-0.2,0.6-0.4,0.8-0.7c0.2-0.2,0.5-0.5,0.7-0.8c0.4-0.6,0.7-1.2,0.9-2
									c0.2-0.7,0.3-1.4,0.3-2.2s-0.1-1.5-0.3-2.3c-0.2-0.7-0.5-1.4-0.9-2c-0.2-0.3-0.4-0.6-0.7-0.8c-0.3-0.3-0.5-0.5-0.8-0.7
									s-0.6-0.3-1-0.4C102.3,163.4,101.8,163.4,101.5,163.4z"/>
							</g>
							<g>
								<path class="st3" d="M95.7,167.2h1.5h1.5h3.1h3.1h1.5h1.5l0,0l0,0h-1.5h-1.5h-3.1h-3.1h-1.5H95.7
									C95.7,167.2,95.6,167.2,95.7,167.2C95.6,167.2,95.7,167.2,95.7,167.2z"/>
								<polygon class="st3" points="101.7,167.4 97.1,167.4 95.6,167.4 95.5,167.3 95.5,167.2 95.5,167 95.7,167 98.7,167 
									101.7,167 106.2,167 107.9,167 107.9,167.4 107.8,167.4 104.7,167.4 								"/>
							</g>
							<g>
								<path class="st3" d="M97.4,164.6c0.3,0,0.7,0,1,0h1c0.3,0,0.7,0,1,0h1h2.2h1c0.3,0,0.7,0,1,0l0,0l0,0c-0.3,0-0.7,0-1,0h-1
									h-2.2h-1c-0.3,0-0.7,0-1,0h-1C98.2,164.6,97.7,164.6,97.4,164.6L97.4,164.6L97.4,164.6z"/>
								<path class="st3" d="M101.7,164.8h-1.3c-0.3,0-0.5,0-0.8,0h-1.4c-0.2,0-0.5,0-0.7,0h-0.2v-0.3h0.2c0.2,0,0.5,0,0.7,0h1.4
									c0.2,0,0.5,0,0.7,0h1.4h3.6c0.2,0,0.4,0,0.7,0h0.2v0.3H106c-0.2,0-0.5,0-0.7,0h-1.4H101.7z"/>
							</g>
							<g>
								<polygon class="st3" points="95.1,169.7 96.7,169.7 98.5,169.6 101.7,169.6 105,169.6 106.7,169.7 108.3,169.7 108.3,169.7 
									108.3,169.7 106.7,169.7 105,169.7 101.7,169.7 98.5,169.7 96.7,169.7 95.1,169.7 								"/>
								<polygon class="st3" points="101.7,169.9 96.7,169.9 95,169.8 95,169.5 95.1,169.5 98.5,169.5 101.7,169.5 106.7,169.5 
									108.4,169.5 108.5,169.6 108.5,169.8 108.3,169.8 105,169.9 								"/>
							</g>
							<g>
								<path class="st3" d="M95.7,172.2h1.5h1.5h3.1h3.1h1.5h1.5l0,0l0,0h-1.5h-1.5h-3.1h-3.1h-1.5H95.7
									C95.7,172.3,95.6,172.3,95.7,172.2C95.6,172.3,95.7,172.2,95.7,172.2z"/>
								<polygon class="st3" points="101.7,172.5 97.1,172.4 95.6,172.4 95.5,172.3 95.5,172.2 95.5,172.1 95.7,172.1 98.7,172.1 
									101.7,172.1 106.2,172.1 107.9,172.1 107.9,172.4 107.8,172.4 104.7,172.4 								"/>
							</g>
							<g>
								<path class="st3" d="M106.2,174.8h-8.6l0,0l0,0H106.2C106.2,174.7,106.2,174.7,106.2,174.8
									C106.2,174.7,106.2,174.8,106.2,174.8z"/>
								<path class="st3" d="M106.2,174.9h-8.6c-0.1,0-0.2-0.1-0.2-0.2s0.1-0.2,0.2-0.2h8.6c0.1,0,0.2,0.1,0.2,0.2
									C106.5,174.8,106.4,174.9,106.2,174.9z"/>
							</g>
						</g>
					</g>
				</g>
			</g>
		</g>
		<g>
			<g>
				<g>
					<path class="st3" d="M198.5,85L198.5,85L198.5,85z M201.2,84.4L201.2,84.4L201.2,84.4z M197.9,59.4L197.9,59.4L197.9,59.4z"/>
				</g>
			</g>
		</g>
		<g>
			<g>
				<path class="st13" d="M197.7,127.1c0,0,5.8,1.7,5.6,6.6c-0.1,1.4,3.8,1.5,4.1,4.2c0.2,1.3,1.2,2.5,2.6,2.7
					c3.4,0.5,8.7,2.4,9.5,8.3c0.6,4.5-1.6,6.3-4.1,6.9c-1.7,0.4-3,2.2-2.6,4c0.3,1.7-0.2,3.7-3.2,5.3c-6.8,3.6-13.4-8.4-13.4-8.4
					l-1.3-20.8L197.7,127.1z"/>
				<path class="st14" d="M174.5,133c0,0,10.8,10.8,20.7,11.2c0,0-0.7,5.6-1.9,6.6c0,0-13.7-7.1-18.9-15.8L174.5,133z"/>
				<path class="st15" d="M216,209.5l0.3,2.2c0,0.4,0.4,0.7,0.8,0.8c0.7,0.1,1.8,0.2,2.9,0c0.5,0,0.8-0.5,0.6-1
					c-0.3-0.8-0.7-2-1.4-2.9h-2.4C216.3,208.6,215.9,209,216,209.5z"/>
				<path class="st14" d="M197.2,184.1l-0.4,2.4c0,0,1.3,13.7,1.6,19.3c0,0.8-0.2,1.7-0.6,2.5l-2.4,3.8l6-3.6l0.1-0.7l-1-1.3
					l1.3-15.5c0.1-0.9-0.1-1.8-0.5-2.7l-1.2-2.4L197.2,184.1z"/>
				<path class="st15" d="M195,212.6h1.9c0.4,0,0.7-0.2,0.9-0.4c0.6-0.8,1.8-2.3,2.5-2.4c0.8-0.1,0.7,2.8,0.7,2.8h0.4l0.6-3.5
					c0.1-0.9-0.3-1.7-1.1-2.2c0,0-0.2,1.3-1.1,1.9c-1,0.6-4,2.8-4,2.8s-0.4-0.1-0.8,0C194.3,211.6,194.4,212.6,195,212.6z"/>
				<path class="st14" d="M205.4,185.2c0,0,8,15.1,9.2,18.6c1.2,3.5,1.7,6.4,1.7,6.6c0,0.4,0.5,0.8,2,0.8c0.7,0,1.1-0.3,1.3-0.6
					c0.2-0.2,0.2-0.5,0-0.8c-0.4-0.9-1.9-3.9-2.5-5.2c-0.6-1.6-2-8.9-2.8-11.5c-0.7-2.6-1.6-5.3-4.9-7.9
					C209.5,185.2,207.2,182.9,205.4,185.2z"/>
				<path class="st15" d="M203.5,146.8c-2.2-2-5.3-3.4-7.4-4c-1.1-0.4-2.5-0.1-3.4,0.7c-1.6,1.5-4,4-3.5,6.1c0.4,1.9,4,11.5,4,11.5
					s3.4,1.5,7.2-0.7C198.3,151.7,203.5,146.8,203.5,146.8z"/>
				<path class="st16" d="M205,164.7c-0.8-2.6-4.5-4.3-4.5-4.3c-3.8,2.3-7.2,0.7-7.2,0.7s-0.7,2.9-0.2,5.5
					c0.5,2.7,3.8,19.8,3.8,19.8c5.1,1,13-1,13-1C206.5,179.6,205.8,167.3,205,164.7z"/>
				<path class="st14" d="M198,136.4l1.6,7.5c0.2,0.6-0.4,0.5-1.1,0.4c-1.1-0.2-2.5-0.6-3-1.4c0-0.1-0.1-0.2-0.1-0.3l-0.7-5.2
					c-0.1-0.4,0.2-0.8,0.5-1l1.4-0.6C197.3,135.6,197.9,135.9,198,136.4z"/>
				<path class="st14" d="M194.8,129.5c0,0-1.7,1.2-2.6,4.3c-0.7,3.1,0.5,4.2,1.7,4.1c1.2-0.1,3.1-0.4,4.7-2.7
					C200.3,133.1,197.2,128.1,194.8,129.5z"/>
				<path class="st13" d="M197.1,134c0,0,0.6-4.4-3-3.7l-0.7,0.7c0,0-1.7-2,0.2-3.5c1.9-1.5,4.7-1.1,6.3,1.6c1.5,2.8,2,4.7,0.8,6.5
					s-2.3,0.2-2.3,0.2s0.6-1.5,0.1-2.2c-0.5-0.6-1.1,0.4-1.1,0.4L197.1,134z"/>
				<path class="st14" d="M197.6,134.5c0,0,0.3-2.3,1.4-1.6c1.1,0.6-0.4,2.2-1,2.6L197.6,134.5z"/>
				<g>
					<path class="st14" d="M175.1,135.6c0,0.3,1,0.2,1.1-0.9c-0.2-0.4-0.8-2.6-1.2-2.8c-2.4-1.3-6.3-2.5-6.3-2.5
						c-0.3,0.7,0.3,0.9,0.3,0.9l2,0.8c0,0.6-0.2,1.2-0.1,1.9c0.1,0.5,0.4,1,0.8,1.3c0.4,0.3,1,0.7,1.5,1
						C174.3,136,175.1,135.6,175.1,135.6z"/>
					
						<linearGradient id="SVGID_12_" gradientUnits="userSpaceOnUse" x1="-1610.7231" y1="-42.715" x2="-1608.0195" y2="-42.715" gradientTransform="matrix(-0.9762 0.217 -0.217 -0.9762 -1406.9458 440.7976)">
						<stop  offset="0" style="stop-color:#F9B776"/>
						<stop  offset="1" style="stop-color:#F47960"/>
					</linearGradient>
					<path class="st17" d="M174,135c-0.4-0.5-1.4-1.9-1.7-2.2s-0.4-0.3-0.4-0.5c0-0.2,0-0.3,0.2-0.5l0.1-0.1l1.8,0.5l0.9,0.9
						l-0.4,0.1l-0.8-0.8l-1.6-0.4c0,0.1-0.1,0.1-0.1,0.2s0.1,0.2,0.3,0.4c0.5,0.3,1.7,2.2,1.8,2.3L174,135z"/>
				</g>
				<path class="st14" d="M203.5,146.8c0,0,9.2,19,12.6,20.7c0,0,3.4,0.3,5.4,1c0.5,0.2,0.5,0.9,0,1c-1.4,0.4-3.9,0.7-6-0.5
					c0,0,1.2,1.7,0.5,2.5c0,0-1.5-1.8-2.2-2.5c-0.5-0.5-10-10.9-13.9-17.1c-0.3-0.5-0.1-2,0.1-2.6
					C200.5,148.1,201.7,146,203.5,146.8z"/>
			</g>
			<path class="st3" d="M213.8,152.9C213.7,152.9,213.7,152.9,213.8,152.9c-0.1-0.1-0.1-0.2,0-0.2c1.3-0.2,3-1.5,3.4-2.9
				c0.8-2.7-0.8-5.8-3.5-6.9c-0.6-0.2-1.2-0.4-1.8-0.6c-2-0.6-4.3-1.2-5.2-3.5c-0.4-1-0.9-1.6-1.8-2.2c-0.2-0.1-0.4-0.2-0.7-0.4
				c-0.7-0.4-1.4-0.7-1.7-1.7l-0.1-0.2c-0.2-0.7-0.4-1.4-0.8-2v-0.1h0.1c0.3,0.6,0.6,1.3,0.8,2l0.1,0.2c0.3,0.9,0.9,1.2,1.6,1.5
				c0.2,0.1,0.4,0.2,0.7,0.4c0.9,0.5,1.4,1.2,1.9,2.3c0.8,2.2,3.1,2.8,5.1,3.4c0.6,0.2,1.2,0.4,1.8,0.6c2.8,1,4.4,4.4,3.6,7.2
				C216.8,151.4,215.2,152.7,213.8,152.9L213.8,152.9z"/>
			<path class="st3" d="M193.4,130.1C193.4,130.1,193.3,129.9,193.4,130.1c-0.1-0.1-0.4-1.9,1.7-2.5c0.1,0,0.1,0,0.1,0.1
				s0,0.1-0.1,0.1c-1.9,0.4-1.7,2-1.7,2.2C193.5,129.9,193.5,130.1,193.4,130.1L193.4,130.1z"/>
		</g>
	</g>
	<g>
		<g>
			<rect x="59" y="87.7" class="st18" width="10.4" height="1.6"/>
			<rect x="59" y="90.8" class="st18" width="14.8" height="1.6"/>
		</g>
		<path class="st13" d="M81.2,165.7H24.9c-2.7,0-4.8-2.2-4.8-4.8V92.4c0-2.7,2.2-4.8,4.8-4.8h56.4c2.7,0,4.8,2.2,4.8,4.8v68.5
			C86.1,163.6,83.9,165.7,81.2,165.7z"/>
		<g class="st19">
			<g>
				<g>
					<path class="st3" d="M43.7,99.7c-1.4-4-5.3-6.5-9.3-6.4c-1,0-1.9,0.2-3,0.5c-3,1-5,3.4-5.9,6.1c-0.6,1.9-0.6,4.1,0.1,6.1
						c0.1,0.2,0.1,0.4,0.2,0.6c0.4,0.9,0.9,1.6,1.5,2.4c2.6,3,6.7,4.2,10.6,2.9C42.9,110.3,45.5,104.7,43.7,99.7z M37.1,109.8
						c-2.9,1-6,0.1-7.9-2.2c-0.4-0.5-0.8-1.1-1.1-1.7c-0.1-0.1-0.1-0.3-0.2-0.4c-0.5-1.5-0.5-3.2-0.1-4.6c0.6-2,2.3-3.9,4.4-4.6
						c0.7-0.3,1.4-0.4,2.3-0.4c3.1-0.1,5.9,1.7,7,4.8C42.8,104.3,40.9,108.4,37.1,109.8z"/>
				</g>
			</g>
		</g>
		<g>
			<g>
				<g>
					<g>
						<g>
							<polygon class="st3" points="62.2,128.5 72.2,129.1 80.3,118.1 79.7,117.7 71.9,128.4 61.9,127.8 50.4,140.9 38.4,138.4 
								26.4,149.6 26.9,150 38.6,139.1 50.6,141.7 							"/>
						</g>
					</g>
				</g>
			</g>
			<g>
				<g>
					<g>
						<path class="st3" d="M52.2,140.9c0.2,0.9-0.4,1.9-1.3,2.2c-0.9,0.2-1.9-0.4-2.2-1.3c-0.2-0.9,0.4-1.9,1.3-2.2
							C51.1,139.4,52,140,52.2,140.9z"/>
					</g>
				</g>
			</g>
			<g>
				<g>
					<g>
						<path class="st3" d="M63.8,127.9c0.2,0.9-0.4,1.9-1.3,2.2c-0.9,0.2-1.9-0.4-2.2-1.3c-0.2-0.9,0.4-1.9,1.3-2.2
							C62.6,126.4,63.6,127,63.8,127.9z"/>
					</g>
				</g>
			</g>
			<g>
				<g>
					<g>
						<path class="st3" d="M73.8,128.3c0.2,0.9-0.4,1.9-1.3,2.2c-0.9,0.2-1.9-0.4-2.2-1.3c-0.2-0.9,0.4-1.9,1.3-2.2
							C72.6,126.8,73.6,127.4,73.8,128.3z"/>
					</g>
				</g>
			</g>
			<g>
				<g>
					<g>
						<path class="st3" d="M40.2,138.5c0.2,0.9-0.4,1.9-1.3,2.2c-0.9,0.2-1.9-0.4-2.2-1.3c-0.2-0.9,0.4-1.9,1.3-2.2
							C39,136.9,39.9,137.5,40.2,138.5z"/>
					</g>
				</g>
			</g>
		</g>
		<g>
			<rect x="36.7" y="145.5" class="st3" width="7.3" height="1.4"/>
		</g>
		<g>
			<rect x="41.8" y="131.1" class="st3" width="7.3" height="1.4"/>
		</g>
		<g>
			<rect x="56.9" y="141.1" class="st3" width="7.3" height="1.4"/>
		</g>
		<g>
			<rect x="63.5" y="121.3" class="st3" width="7.3" height="1.4"/>
		</g>
		<g>
			<rect x="74.2" y="133.1" class="st3" width="7.3" height="1.4"/>
		</g>
		<g>
			<g>
				
					<linearGradient id="SVGID_13_" gradientUnits="userSpaceOnUse" x1="50.1194" y1="125.4195" x2="52.2885" y2="125.4195" gradientTransform="matrix(1 0 0 -1 0 232)">
					<stop  offset="0" style="stop-color:#D5E4FF"/>
					<stop  offset="1" style="stop-color:#EDFFFE"/>
				</linearGradient>
				<rect x="50.1" y="100.5" class="st20" width="2.2" height="12.1"/>
			</g>
			<g>
				
					<linearGradient id="SVGID_14_" gradientUnits="userSpaceOnUse" x1="53.9279" y1="127.0082" x2="56.0971" y2="127.0082" gradientTransform="matrix(1 0 0 -1 0 232)">
					<stop  offset="0" style="stop-color:#D5E4FF"/>
					<stop  offset="1" style="stop-color:#EDFFFE"/>
				</linearGradient>
				<rect x="54" y="97.4" class="st21" width="2.2" height="15.3"/>
			</g>
			<g>
				
					<linearGradient id="SVGID_15_" gradientUnits="userSpaceOnUse" x1="57.9245" y1="126.1882" x2="60.0938" y2="126.1882" gradientTransform="matrix(1 0 0 -1 0 232)">
					<stop  offset="0" style="stop-color:#D5E4FF"/>
					<stop  offset="1" style="stop-color:#EDFFFE"/>
				</linearGradient>
				<rect x="58" y="99" class="st22" width="2.2" height="13.6"/>
			</g>
			<g>
				
					<linearGradient id="SVGID_16_" gradientUnits="userSpaceOnUse" x1="62.0309" y1="124.2408" x2="64.2001" y2="124.2408" gradientTransform="matrix(1 0 0 -1 0 232)">
					<stop  offset="0" style="stop-color:#D5E4FF"/>
					<stop  offset="1" style="stop-color:#EDFFFE"/>
				</linearGradient>
				<rect x="62.1" y="102.9" class="st23" width="2.2" height="9.7"/>
			</g>
			<g>
				<rect x="50.1" y="104.9" class="st24" width="2.2" height="7.7"/>
			</g>
			<g>
				<rect x="54" y="102.9" class="st24" width="2.2" height="9.7"/>
			</g>
			<g>
				<rect x="58" y="104" class="st24" width="2.2" height="8.6"/>
			</g>
			<g>
				<rect x="62.1" y="106.6" class="st24" width="2.2" height="6"/>
			</g>
		</g>
		<g>
			<g>
				
					<linearGradient id="SVGID_17_" gradientUnits="userSpaceOnUse" x1="66.211" y1="123.4208" x2="68.3803" y2="123.4208" gradientTransform="matrix(1 0 0 -1 0 232)">
					<stop  offset="0" style="stop-color:#D5E4FF"/>
					<stop  offset="1" style="stop-color:#EDFFFE"/>
				</linearGradient>
				<rect x="66.2" y="104.5" class="st25" width="2.2" height="8.1"/>
			</g>
			<g>
				
					<linearGradient id="SVGID_18_" gradientUnits="userSpaceOnUse" x1="70.0196" y1="126.3932" x2="72.1889" y2="126.3932" gradientTransform="matrix(1 0 0 -1 0 232)">
					<stop  offset="0" style="stop-color:#D5E4FF"/>
					<stop  offset="1" style="stop-color:#EDFFFE"/>
				</linearGradient>
				<rect x="70.1" y="98.6" class="st26" width="2.2" height="14"/>
			</g>
			<g>
				
					<linearGradient id="SVGID_19_" gradientUnits="userSpaceOnUse" x1="74.0162" y1="125.112" x2="76.1853" y2="125.112" gradientTransform="matrix(1 0 0 -1 0 232)">
					<stop  offset="0" style="stop-color:#D5E4FF"/>
					<stop  offset="1" style="stop-color:#EDFFFE"/>
				</linearGradient>
				<rect x="74.1" y="101.1" class="st27" width="2.2" height="11.5"/>
			</g>
			<g>
				
					<linearGradient id="SVGID_20_" gradientUnits="userSpaceOnUse" x1="78.1225" y1="128.2382" x2="80.2918" y2="128.2382" gradientTransform="matrix(1 0 0 -1 0 232)">
					<stop  offset="0" style="stop-color:#D5E4FF"/>
					<stop  offset="1" style="stop-color:#EDFFFE"/>
				</linearGradient>
				<rect x="78.2" y="94.9" class="st28" width="2.2" height="17.7"/>
			</g>
			<g>
				<rect x="66.2" y="108.3" class="st24" width="2.2" height="4.3"/>
			</g>
			<g>
				<rect x="70.1" y="106.2" class="st24" width="2.2" height="6.5"/>
			</g>
			<g>
				<rect x="74.1" y="106.9" class="st24" width="2.2" height="5.7"/>
			</g>
			<g>
				<rect x="78.2" y="99.4" class="st24" width="2.2" height="13.1"/>
			</g>
		</g>
	</g>
	<g>
		<g>
			<g>
				<g>
					<path class="st14" d="M6.3,171.9c0,0,0.3,0.6,0.4,1c0,0.4,0.3,0.9,0.5,1.2c0.1,0.3,0.6,1.7,0.6,2c0,0.1-0.3,1.1-0.3,1.3
						c0,0.3,0.2,0.9,0,0.9c-0.3,0-0.6-0.4-0.6-0.4s0,0.3-0.2,0.4c-0.4,0.2-0.7,0-0.7,0s-0.2,0.3-0.4,0.3c-0.4,0.1-0.7-0.1-0.7-0.1
						s-0.2,0.2-0.5,0.2c-0.4,0-0.6-0.3-0.6-0.3s-0.5,0.1-0.6-0.1c-0.1-0.2-0.1-0.5-0.2-0.7c-0.1-0.2,0-2.2,0.6-3.5
						c0.6-1.4-0.2-2.8-0.2-2.8L6.3,171.9z"/>
				</g>
			</g>
		</g>
		<g>
			<g>
				<path class="st14" d="M6.9,177.9c0,0,0-1.7-0.4-2c-0.4-0.4-0.5,0.2-0.5,0.2s0.1-0.6-0.4-0.7S5.1,176,5.1,176s-0.1-0.5-0.6-0.4
					c-0.5,0.1-0.4,0.7-0.4,0.7s-0.5-0.6-0.8,0c-0.5,0.9,0,2,0,2s0.1,0.3,0.6,0.1c0,0,0.3,0.7,1,0.2c0,0,0.7,0.4,1-0.2
					C6,178.4,6.8,178.8,6.9,177.9z"/>
			</g>
		</g>
		<path class="st29" d="M12.2,147.1c0,0-3,9.8-4,13.4c-0.3,1.1-1,12-1.2,12.4c-0.1,0.4-3.9,1-3.9,1s0.4-13.6,0.5-14.3
			c0-0.7,4.1-15.9,5.3-16.5c0.9-0.4,1.3-0.1,2.5,0.7C13,145.1,12.2,147.1,12.2,147.1z"/>
		<path class="st14" d="M48.7,131.4c0,0-0.1,0.4-0.2,0.5c0,0-0.2,0.3-0.4,0.4c0,0.1-0.1,0.1-0.1,0.2c-0.1,0.2-0.2,0.5-0.5,0.8
			s-1.5,1.3-1.5,1.3l-1-0.9l-1.1-0.5c0,0,0.6-2.7,0.9-3.1l0.1-0.1c0.2-0.3,0.5-0.3,0.7-0.5c0.1,0,0.6-0.4,0.8-0.4
			c0.3,0.1,0.4,0.2,0.5,0.4c0,0,0.5,0.2,0.7,0.5c0,0,0.5,0.1,0.6,0.6C48.1,130.9,48.6,131.1,48.7,131.4z"/>
		<g>
			<g>
				<path class="st30" d="M27.8,149.6l0.7-0.3c0,0-0.9-2.3-1.3-2.2c-0.5,0.1-1,0.2-1,0.2L27.8,149.6z"/>
			</g>
		</g>
		<g>
			<g>
				<path class="st31" d="M28,150c-0.1-0.1-1.6-3-1.6-3l-3.3,0.4l1.7,3.5L28,150z"/>
			</g>
		</g>
		<g>
			<g>
				<path class="st32" d="M9.7,214.2c0,0-0.3,1.8-0.3,2.2s-3-0.2-3-0.2l-0.2-2.3C6.2,214,9.4,213.9,9.7,214.2z"/>
			</g>
		</g>
		<g>
			<g>
				<path class="st29" d="M9.5,216.1c0,0,0.9,1.1,1.8,1.6c0.9,0.5,2.4,0.7,2.9,1.2c0.4,0.4,1.4,1.9-2.4,1.9s-5.5,0.2-5.9-0.4
					c-0.5-0.7,0.5-4.6,0.5-4.6S7.3,216.4,9.5,216.1z"/>
			</g>
		</g>
		<g>
			<g>
				<path class="st32" d="M30.9,214.2c0,0-0.3,1.8-0.3,2.2s-3-0.2-3-0.2l-0.2-2.3C27.4,214,30.6,213.9,30.9,214.2z"/>
			</g>
		</g>
		<g>
			<g>
				<path class="st29" d="M30.6,216.1c0,0,0.9,1.1,1.8,1.6c0.9,0.5,4.2,0.9,4.8,1.4c0.4,0.4,1,1.8-4.3,1.7c-3.8-0.1-5.5,0.2-5.9-0.4
					c-0.4-0.6,0.6-4.5,0.6-4.5S28.5,216.4,30.6,216.1z"/>
			</g>
		</g>
		<g>
			<g>
				<path class="st16" d="M12.2,166.2c0,0-2.8,4.4-2.6,8.4c0.2,4-1,8.4-1.4,12.5c-0.5,4.6-2.4,15.7-2.5,18.1
					C5.6,207.7,6,215.7,6,215.7l3.8,0.1c0,0,3.2-19.3,4-21.2s4.9-16,5.1-17.5C19.1,175.5,12.2,166.2,12.2,166.2z"/>
			</g>
		</g>
		<g>
			<g>
				<path class="st16" d="M26.8,166.8c0,0,2,11,2.4,13.4c0.3,2.5,0.4,11.8,0.6,13.3c0.1,1.5,1.3,20,1.6,22.2h-4.9
					c0,0-3.8-13.4-3.8-19.8s-2.9-13.8-4.7-18c-1.8-4.2-6.1-4.3-7.3-12.1C10.7,166,25.3,164.4,26.8,166.8z"/>
			</g>
		</g>
		<g>
			<g>
				<path class="st14" d="M16.8,129c0,0,3.7-1.4,5.4,1.4c1.7,2.9,1.5,8.5-0.3,9.2c-1.8,0.7-4.7,0.3-5.6-1.4c-0.9-1.7-1.8-4.3-1.7-6
					C14.5,130.6,15.8,129.5,16.8,129z"/>
			</g>
		</g>
		<g>
			<g>
				<path class="st14" d="M21.5,139.9c0,0-0.2,1,0.1,1.5s-4.8,0.5-4.8,0.5s-0.4-2.7-1.2-5C14.8,134.7,21.5,139.9,21.5,139.9z"/>
			</g>
		</g>
		<g>
			<g>
				<path class="st16" d="M15.6,136.9c0,0,0.3,0.6,1.7,0.3c1.4-0.2,3.2-2.2,3.8-2.4c0.6-0.2,0.6-0.5,0.6-0.5l0.4,0.5h0.6
					c0,0-0.6-1.7,0.3-2.4c0.9-0.7-0.9-5.5-5.5-3.9c0,0-3.5,1-3.4,3C14.3,133.6,14.8,135.9,15.6,136.9z"/>
			</g>
		</g>
		<g>
			<g>
				<path class="st33" d="M21.9,141.3c0,0,0-0.9-0.4-1c-0.4-0.1-4.7-0.5-5.2-0.3v1.1C16.3,141.1,17.3,141.7,21.9,141.3z"/>
			</g>
		</g>
		<g>
			<g>
				<path class="st34" d="M21.7,133.6c-0.1-0.3-0.9-1.3-1.2-0.3c-0.3,1,0.5,2.5,0.9,2.3C21.8,135.6,21.9,134.5,21.7,133.6z"/>
			</g>
		</g>
		<g>
			<g>
				<path class="st35" d="M39.1,152.5C39.1,152.5,39,152.5,39.1,152.5L39.1,152.5z"/>
			</g>
		</g>
		<g>
			<g>
				<path class="st29" d="M29.1,142.8c-3-0.4-7.2-1.4-7.2-1.4l-5.7-0.2c0,0-5.2,1.1-7.3,2c-0.2,0.1-0.2,4.7-0.7,5.8l1.7,3.6
					c0,0,1,7.2,1.2,10.4c0.1,1.4-2,13.7-2,13.7s2.3,0.7,6.1,1.1c3.9,0.4,13.6-0.2,13.7-0.6c0.1-0.5-1.8-17.1-1.9-18
					c-0.1-1.3,0.4-8.4,0.4-8.4c0.9-0.7,8.8-4.4,11-6.3c0.6-0.5,3-2.9,3.7-3.7c2.5-2.9,4.5-5.4,4.7-5.9c0.3-0.3-2.7-1.9-3-1.9
					c-0.2-0.1-3.6,4.2-4.8,5.6c-0.6,0.6-3,2.4-3,2.4S30.9,142.9,29.1,142.8z"/>
			</g>
		</g>
		<g>
			<g>
				<path class="st16" d="M15.7,129.4c0,0-4.7,0.4-0.1,7.5L15.7,129.4z"/>
			</g>
		</g>
	</g>
	<g>
		<path class="st29" d="M93.8,44.1c0.3,0,1,0.2,2,2.3c1.3,2.6,3.4,10.4,3.4,10.4l-5.9,2.3l-0.8-1.7l-1.2-12.5
			C91.3,44.7,93.7,44,93.8,44.1z"/>
		<path class="st29" d="M86,42.9c1.7,0,5.9,0.5,7.9,1.1c0,0,1.4,12.3-1.3,21.6c-0.6,2,0.5,8.7,0.5,8.7l-17.6-0.2
			c0,0,2-15.9,1.3-18.4C76,53.1,76,44.1,76,44.1s0.1,0,4-0.7C81.8,43.1,84.2,42.9,86,42.9z"/>
		<path class="st14" d="M83.9,97.2c0,0,0.4,4.5,1.1,5.7c0.7,1.2,0,3.4-0.1,3.7c0,0.3-1.5,0.7-3.8,0.4c-2.4-0.2-2.3-0.8-2.2-1.6
			c0.2-0.8,1.4-1.9,1.5-2.9c0.1-0.8-0.7-3.8-0.7-3.8L83.9,97.2z"/>
		<path class="st16" d="M91.1,70.6c0,0,12.1-0.7,14.9,0.9c2.7,1.6-1.9,9.7-1.9,9.7s-8.4-0.3-25,0.6c-3.9,0.2-4.3-10.2-3.5-11.1
			C76.2,69.9,91.1,70.6,91.1,70.6z"/>
		<path class="st29" d="M80.8,107.4c-2.4-0.2-2.2-1.4-1.9-2.4c0.1-0.5,0.8-1.2,1.2-1.8c0.2,0.2,0.6,0.5,1.6,0.8
			c1.1,0.3,2.6-0.3,3.5-0.7c0.3,1.2,0.3,2.9,0.3,3.1C85.5,106.7,83.3,107.6,80.8,107.4z"/>
		<path class="st16" d="M82.2,79.3c0.5,3.7,2.9,21.9,2.9,21.9l-5.5,0.7c0,0-6.9-23.9-6.5-27.5c0.3-3.7,2.9-4,2.9-4
			S80.9,69.6,82.2,79.3z"/>
		<path class="st14" d="M75.8,45.5c1.6-0.6,2.5,14.2,2.7,20.3c2.9,0.3,8,0,9.2-0.1c0.6,0,1.9-0.5,2.6-0.6c0.6-0.1,1.1-0.1,1.4-0.1
			c0.1,0,3.2,1.2,3.4,1.5c0.3,0.3,1.2,1.2,1,1.5c-0.1,0.4-1.6-1-1.6-1l-0.7-0.4c0.9,0.9,2.7,2.2,2.5,2.6c-0.2,0.4-1.8-0.8-3-1.6
			c1,0.9,2.2,2.5,1.9,2.7c-0.2,0.2-1.6-1.6-3.1-2.2c-0.5-0.2-1.1,0.3-1.5,0.4c-0.3,0-0.8,0.1-1.1,0.1l-1.6-0.4
			c-0.5,0-0.5,0.4-1.1,0.5c-0.6,0.1-1.6,0.3-2.5,0.5c-4.7,1.1-6.3,1.6-7.7,1.6C72.1,70.8,71.9,46.9,75.8,45.5z"/>
		<path class="st29" d="M72.6,59.3c-0.3-6.3-0.3-13.9,3.3-15.3c1.3-0.5,3.8,2.6,3.4,15.4C77.4,59.6,74.7,59.7,72.6,59.3z"/>
		<path class="st14" d="M100.8,101.6c0,0-0.8,1.4-0.2,2.6c0.6,1.2,4,3,4.3,3.6c0.3,0.6,0.2,1.1,0.2,1.1l-9.8-2.5l0.7-3l0.9-2
			L100.8,101.6z"/>
		<path class="st29" d="M101.1,104.8c0,0-2.8,0.5-3.9-0.4c-1.1-0.9-1-1-1.4-0.9c-0.3,0.1-0.6,1.3-0.9,2.2c-0.1,0.4,0.1,0.9,0.6,1
			l10.2,2.6c0.8,0.1,1.3-0.3,0.8-0.9c-0.4-0.4-0.8-0.7-1-1C104.7,106.6,101.1,104.8,101.1,104.8z"/>
		<path class="st16" d="M99.9,73.5c0.8-1.6,2.6-3.8,5.7-2.5c3,1.2,3.8,4.3,2.9,7.4s-7.2,21.4-7.4,23.9h-4.9c0,0,0.9-14.5,1.1-17.9
			C97.4,81,98.5,76.3,99.9,73.5z"/>
		<path class="st36" d="M107.9,56.7H91.3c-0.4,0-0.8,0.3-1,0.7l-5.1,12.5H76c-0.2,0-0.5,0.2-0.5,0.5l0,0c0,0.3,0.2,0.5,0.5,0.5h26
			c0.7,0,1.3-0.4,1.6-1.1l5.1-11.5C109.2,57.5,108.7,56.7,107.9,56.7z"/>
		<path class="st3" d="M99,63.9c-0.1,0.5-0.6,0.9-1.1,0.8c-0.5-0.1-0.8-0.6-0.7-1.2c0.1-0.5,0.6-0.9,1.1-0.8
			C98.8,62.9,99.1,63.4,99,63.9z"/>
		<g>
			<path class="st37" d="M90,27.9c-0.5-0.2-1-0.4-1.4-0.6c-0.5-0.3-1.2-0.5-1.6-0.6c-0.9-0.1-2.6,0-3.4,0.9
				c-1.1,1.2-3.1,0.2-2.7,6.5c0.4,7.1,4.4,6.3,4.4,6.1c0.1-0.1,3.5-4.5,3.5-4.5s1.2,2.6,1.2,2.5C89.9,38,96,29.9,90,27.9z"/>
			<path class="st14" d="M87,40.7l0.3,2.6c0,0,0.7,3.6-0.2,4.3c-1,0.7-4.1-4.4-4.1-4.4l0.3-6.4L87,40.7z"/>
			<path class="st38" d="M83.2,38.7c0.8,2.2,2.8,3.5,4.1,4L87,40.6l-3.7-3.9L83.2,38.7z"/>
			<path class="st14" d="M86.8,29.7c2-0.3,3.9,1.3,3.9,3.4c0,0.9-0.1,2-0.3,3.2c-0.4,2.9-2.5,5.4-3.8,5.2c-1.3-0.2-4.6-2.8-4-6.9
				C83,32.2,84.6,30.1,86.8,29.7z"/>
			<path class="st14" d="M83.5,35.2c-0.1,0.6-0.6,1.1-1.1,1c-0.5-0.1-0.8-0.7-0.7-1.3c0.1-0.6,0.6-1.1,1.1-1
				C83.3,34,83.6,34.6,83.5,35.2z"/>
			<path class="st37" d="M82.8,33.9c0,0,1.5,0.4,2.2-0.6c0.6-1,2.7-3.2,5.3-2.4c2.7,0.9-2.4-2.3-2.6-2.3c-0.2,0-2.8,0-2.8,0
				s-1.9,1.6-2,1.8c-0.1,0.2-0.6,2.2-0.6,2.2L82.8,33.9z"/>
		</g>
		<path class="st3" d="M85.6,38.1l2.9,0.5c0,0-0.3,1.1-1.5,0.9C85.4,39.3,85.6,38.1,85.6,38.1z"/>
	</g>
</g>
</svg>
