<svg id="Layer_1" data-name="Layer 1" xmlns="http://www.w3.org/2000/svg" viewBox="0 0 100 100"><title>1</title><path d="M84.63,18h-69a3.84,3.84,0,0,0-3.83,3.83V78.07a3.84,3.84,0,0,0,3.83,3.83h69a3.84,3.84,0,0,0,3.83-3.83V21.84A3.84,3.84,0,0,0,84.63,18Zm1.28,60.06a1.29,1.29,0,0,1-1.28,1.28h-69a1.29,1.29,0,0,1-1.28-1.28V21.84a1.29,1.29,0,0,1,1.28-1.28h69a1.29,1.29,0,0,1,1.28,1.28Z"/><path d="M22,23.12a5.11,5.11,0,1,0,5.11,5.11A5.1,5.1,0,0,0,22,23.12Zm0,7.67a2.56,2.56,0,1,1,2.56-2.56A2.56,2.56,0,0,1,22,30.79Z"/><path d="M29.68,24.4h2.55V27H29.68Z"/><path d="M34.79,24.4H48.85V27H34.79Z"/><path d="M29.68,29.51h7.67v2.56H29.68Z"/><path d="M39.9,29.51h3.84v2.56H39.9Z"/><path d="M48.62,45.82l-2.33,2.33-.37-.37a1.29,1.29,0,0,0-1.8,0h0L33.9,58a5.79,5.79,0,0,0,8.19,8.19h0L52.31,56a1.28,1.28,0,0,0,0-1.81h0L52,53.81l2.33-2.34a11.48,11.48,0,1,0-5.66-5.65ZM40.27,64.38a3.24,3.24,0,0,1-4.59-4.58l5.48-5.48,4.59,4.58Zm7.3-7.28L43,52.51l2-2,4.59,4.59Zm11.5-25a8.95,8.95,0,1,1-9,8.94A9,9,0,0,1,59.07,32.07Zm-7,18L50.12,52l-2-2,1.9-1.9A11.09,11.09,0,0,0,52,50.08Z"/><path d="M18.18,70.4h2.55v5.11H18.18Z"/><path d="M22,70.4h2.56v5.11H22Z"/><path d="M52.68,69.12a3.83,3.83,0,0,0-3.61,2.56H27.12v2.56h22a3.83,3.83,0,1,0,3.61-5.12Zm0,5.12A1.28,1.28,0,1,1,54,73,1.29,1.29,0,0,1,52.68,74.24Z"/><path d="M59.07,71.68H80.79v2.56H59.07Z"/></svg>