<svg id="Layer_1" data-name="Layer 1" xmlns="http://www.w3.org/2000/svg" viewBox="0 0 100 100"><title>2</title><path d="M55.51,20.05A1.35,1.35,0,1,0,54,18.9,1.33,1.33,0,0,0,55.51,20.05Z"/><path d="M31.9,14.52a1.19,1.19,0,0,0,1.19-1.19V9.73a1.19,1.19,0,0,0-2.38,0v3.6A1.17,1.17,0,0,0,31.9,14.52Z"/><path d="M31.9,16.91a1.19,1.19,0,0,0-1.19,1.2V21.7a1.19,1.19,0,1,0,2.38,0V18.12A1.21,1.21,0,0,0,31.9,16.91Z"/><path d="M25.9,16.91h3.59a1.2,1.2,0,1,0,0-2.39H25.9a1.2,1.2,0,1,0,0,2.39Z"/><path d="M34.29,16.91h3.6a1.2,1.2,0,0,0,0-2.39h-3.6a1.2,1.2,0,0,0-1.2,1.2A1.19,1.19,0,0,0,34.29,16.91Z"/><path d="M87,81.64H62.77l-1.73-6H80.29A6.74,6.74,0,0,0,87,68.92V32.08a10.77,10.77,0,1,0-19.09-7.95H24.26a6.74,6.74,0,0,0-6.74,6.74V68.92a6.74,6.74,0,0,0,6.74,6.74H44.68l-1.72,6H15.12a1.2,1.2,0,1,0,0,2.39H87a1.2,1.2,0,0,0,0-2.39ZM78.64,16.91a8.4,8.4,0,1,1-8.4,8.39A8.41,8.41,0,0,1,78.64,16.91ZM24.26,26.52H67.93A10.79,10.79,0,0,0,78.64,36.1a10.66,10.66,0,0,0,6-1.82V64.86H19.91v-34A4.34,4.34,0,0,1,24.26,26.52ZM19.91,68.9V67.27H84.62v1.65a4.35,4.35,0,0,1-4.35,4.35h-56a4.38,4.38,0,0,1-4.35-4.37Zm27.26,6.76H58.55l1.72,6H45.47Z"/><path d="M52.74,68.46a1.83,1.83,0,1,0,1.83,1.83A1.82,1.82,0,0,0,52.74,68.46Z"/><path d="M24.7,39.7a1.2,1.2,0,0,0,0,2.39h3.6a2.41,2.41,0,0,0,2.41-2.41v-2.4a2.41,2.41,0,0,0-2.41-2.41H25.9v-2.4h3.59a1.2,1.2,0,1,0,0-2.39H25.9a2.41,2.41,0,0,0-2.41,2.4v2.41A2.41,2.41,0,0,0,25.9,37.3h2.4v2.4Z"/><path d="M34.29,42.09h3.6a1.2,1.2,0,0,0,0-2.39h-3.6V37.3h3.6a1.2,1.2,0,0,0,1.19-1.2,1.19,1.19,0,0,0-1.19-1.19h-3.6V32.5h3.6a1.19,1.19,0,0,0,1.19-1.19,1.21,1.21,0,0,0-1.19-1.2h-3.6a2.42,2.42,0,0,0-2.41,2.41v7.2A2.42,2.42,0,0,0,34.29,42.09Z"/><path d="M42.68,42.09h2.41a2.41,2.41,0,0,0,2.4-2.41v-7.2a2.41,2.41,0,0,0-2.4-2.4H42.68a2.41,2.41,0,0,0-2.41,2.4v7.2A2.41,2.41,0,0,0,42.68,42.09Zm0-9.59h2.41v7.2H42.68Z"/><path d="M75,27.71a1.2,1.2,0,0,0-1.2,1.19A1.22,1.22,0,0,0,75,30.1h2.4v1.19a1.2,1.2,0,0,0,2.39,0V30.1h2.41a1.2,1.2,0,0,0,1.19-1.2V25.3a1.19,1.19,0,0,0-1.19-1.19H79.83V22.92h2.41a1.2,1.2,0,0,0,0-2.39H79.83v-1.2a1.19,1.19,0,0,0-1.19-1.19,1.21,1.21,0,0,0-1.2,1.19v1.2H75a1.2,1.2,0,0,0-1.2,1.19v3.6a1.2,1.2,0,0,0,1.2,1.2h2.4v1.19Zm1.19-3.6V22.92h1.2v1.19Zm3.6,2.41H81v1.19H79.83Z"/><path d="M28.3,60.07a1.19,1.19,0,0,0-1.19,1.19,1.2,1.2,0,0,0,1.19,1.19H76.23a1.2,1.2,0,0,0,1.2-1.19V46.88a1.19,1.19,0,0,0-1.2-1.19H71.44a1.2,1.2,0,0,0-1.2,1.19v2.41h-2.4v-7.2a1.2,1.2,0,0,0-1.19-1.2h-4.8a1.2,1.2,0,0,0-1.19,1.2v9.58h-3.6a1.19,1.19,0,0,0-1.19,1.2v2.4h-3.6a1.2,1.2,0,0,0-1.2,1.2v3.6Zm44.35-12h2.41v12H72.65Zm-2.41,3.59v8.4h-2.4v-8.4Zm-7.18-8.39h2.41V60.07H63.06Zm-2.4,10.8v6H58.25v-6Zm-7.2,3.6h2.41v2.4H53.46Z"/></svg>