<svg id="Layer_1" data-name="Layer 1" xmlns="http://www.w3.org/2000/svg" viewBox="0 0 100 100"><title>3</title><path d="M59.61,42.12,44.29,33.27a1.32,1.32,0,0,0-1.28,0,1.27,1.27,0,0,0-.64,1.1V52.08a1.27,1.27,0,0,0,.64,1.1,1.29,1.29,0,0,0,1.28,0l15.32-8.85a1.26,1.26,0,0,0,.64-1.1A1.28,1.28,0,0,0,59.61,42.12ZM44.93,49.86V36.59l11.49,6.64Z"/><path d="M71.59,68.76A1.29,1.29,0,0,1,70.31,70H52.59v.57a1.28,1.28,0,1,1-2.55,0V70H32.31a1.28,1.28,0,0,1,0-2.56H50v-.7a1.28,1.28,0,1,1,2.55,0v.7H70.31A1.29,1.29,0,0,1,71.59,68.76Z"/><path d="M82.24,22.14H20.39a6.12,6.12,0,0,0-6.11,6.12V69.65a6.12,6.12,0,0,0,6.11,6.12H82.22a6.12,6.12,0,0,0,6.11-6.12V28.26a6.1,6.1,0,0,0-6.09-6.12ZM85.8,69.67a3.57,3.57,0,0,1-3.56,3.56H20.39a3.57,3.57,0,0,1-3.56-3.56V64.29h69Zm0-7.93h-69V28.26a3.56,3.56,0,0,1,3.56-3.56H82.22a3.56,3.56,0,0,1,3.56,3.56V61.74Z"/><circle cx="21.54" cy="68.76" r="1.28"/><circle cx="26.65" cy="68.76" r="1.28"/><circle cx="75.98" cy="68.76" r="1.28"/><circle cx="81.09" cy="68.76" r="1.28"/></svg>