<svg id="Layer_1" data-name="Layer 1" xmlns="http://www.w3.org/2000/svg" viewBox="0 0 100 100"><title>4</title><path d="M28,50.67A24.71,24.71,0,1,0,52.68,26,24.73,24.73,0,0,0,28,50.67Zm46.68,0a22,22,0,1,1-22-22A22,22,0,0,1,74.65,50.67Z"/><path d="M40.33,63A1.37,1.37,0,0,0,41.7,64.4h22A1.38,1.38,0,0,0,65,63a12.36,12.36,0,0,0-24.71,0ZM62.2,61.65h-19a9.61,9.61,0,0,1,19,0Z"/><path d="M45.82,42.43a6.87,6.87,0,1,0,6.86-6.86A6.86,6.86,0,0,0,45.82,42.43Zm11,0a4.12,4.12,0,1,1-4.12-4.12A4.13,4.13,0,0,1,56.8,42.43Z"/><path d="M26.29,69.85l.17,0a.44.44,0,0,0,.16,0,1.9,1.9,0,0,0,.25,0h0l.17,0h0a.56.56,0,0,0,.16-.07h0l.14-.08s0,0,0,0l.14-.11h0a.87.87,0,0,0,.12-.14h0a.46.46,0,0,0,.09-.15s0,0,0,0l.08-.15s0,0,0,0a.52.52,0,0,0,.06-.16h0l1.35-5.49a1.38,1.38,0,0,0-2.67-.66L26.09,65a29.91,29.91,0,0,1-3.61-14.32,30.24,30.24,0,0,1,30.2-30.21,1.37,1.37,0,1,0,0-2.74,33,33,0,0,0-29,48.65l-2.28-.56a1.37,1.37,0,1,0-.65,2.66l5.51,1.38Z"/><path d="M82.94,37.6a33.49,33.49,0,0,0-4-6.88l2.2.67a1.37,1.37,0,0,0,.79-2.63l-6.86-2.09A1.38,1.38,0,0,0,73.28,28v6.2a1.37,1.37,0,1,0,2.74,0v-2.7a29.9,29.9,0,0,1,6.87,19.18,30.24,30.24,0,0,1-30.21,30.2,1.38,1.38,0,0,0,0,2.75,33,33,0,0,0,30.26-46Z"/><path d="M45.82,76.75H29.91L31.68,75a1.37,1.37,0,1,0-1.94-1.93l-4.12,4.11-.12.14,0,0a1.37,1.37,0,0,0-.16.32s0,0,0,0a1,1,0,0,0,0,.17h0a1,1,0,0,1,0,.17v.22h0a1,1,0,0,0,0,.18s0,0,0,0a.53.53,0,0,0,.05.18h0a1,1,0,0,0,0,.1s0,0,0,0,0,0,0,.07l0,0s0,0,.05.08h0l.08.1h0l4.12,4.12a1.34,1.34,0,0,0,1,.4,1.41,1.41,0,0,0,1-.4,1.35,1.35,0,0,0,0-1.93l-1.78-1.8H45.82a1.38,1.38,0,0,0,0-2.75Z"/></svg>