<svg id="Layer_1" data-name="Layer 1" xmlns="http://www.w3.org/2000/svg" viewBox="0 0 100 100"><title>5</title><path d="M57.33,51.68a6.43,6.43,0,0,0,1.51-4.16V44.93h0V40.87a4.23,4.23,0,0,0-4.22-4.23H50.1a4.23,4.23,0,0,0-4.23,4.23V45h0v2.57a6.4,6.4,0,0,0,1.52,4.16A10.65,10.65,0,0,0,45.28,53a11.3,11.3,0,0,0-3.89,6.28,3.69,3.69,0,0,0,1.84,4,18.88,18.88,0,0,0,18.28,0,3.7,3.7,0,0,0,1.85-4,11.3,11.3,0,0,0-6-7.64ZM47.94,40.85a2.17,2.17,0,0,1,2.16-2.16h4.52a2.17,2.17,0,0,1,2.16,2.16V43a6.78,6.78,0,0,0-5.58-.58L47.92,43.5l0-2.65Zm0,4.82,3.91-1.29A4.72,4.72,0,0,1,56,45l.77.52v2a4.42,4.42,0,0,1-8.84,0ZM60.49,61.53a16.81,16.81,0,0,1-16.27,0,1.61,1.61,0,0,1-.82-1.77,9.23,9.23,0,0,1,5.76-6.6,6.43,6.43,0,0,0,6.39,0,9.15,9.15,0,0,1,5.77,6.59A1.6,1.6,0,0,1,60.49,61.53ZM33.37,26.63H32V24a.81.81,0,0,1,.21-.66,1.61,1.61,0,0,1,1.13-.13,1,1,0,0,0,1.22-.77,1,1,0,0,0-.77-1.24,3.66,3.66,0,0,0-2.88.53,2.77,2.77,0,0,0-1,2.27v2.64h-.78a1,1,0,0,0,0,2.07h.78v9.48a1,1,0,1,0,2.07,0V28.7h1.36a1,1,0,1,0,0-2.07ZM29.26,67.94a1,1,0,0,0-1,1v9.91a1,1,0,0,0,2.07,0V75.16c0-3.07,1.33-5,3.41-5a2.42,2.42,0,0,1,1.85.68c.71.74,1.07,2.17,1,4.13v3.89a1,1,0,0,0,2.06,0V75c.07-2.56-.47-4.45-1.61-5.62A4.42,4.42,0,0,0,33.69,68a4.94,4.94,0,0,0-3.42,1.37V69a1,1,0,0,0-1-1Zm-5.17.64v10.3a1,1,0,0,0,2.07,0V68.58a1,1,0,0,0-1-1A1,1,0,0,0,24.09,68.58Zm45.75-31.9a6.69,6.69,0,0,0,4.33,1.26A4.14,4.14,0,0,0,78,35.22a6.41,6.41,0,0,0,.43-2.35V23.4a1,1,0,0,0-2.07,0,5,5,0,0,0-3-1,5.08,5.08,0,1,0,3,9.16v1.38a4.63,4.63,0,0,1-.28,1.54,2,2,0,0,1-2,1.42,3.92,3.92,0,0,1-2.87-.74,1,1,0,0,0-1.82.89,2.31,2.31,0,0,0,.45.66Zm6.53-9.18a3,3,0,1,1,0-.08Zm-.79,43.93a1,1,0,1,0,0-2.06H72.16V66.08a1,1,0,1,0-2.07,0V76.62a2.62,2.62,0,0,0,2.6,2.61h2.89a1,1,0,1,0,0-2.07H72.69a.54.54,0,0,1-.53-.54V71.43Zm-50.45-7a1,1,0,1,0,1,1A1,1,0,0,0,25.13,64.4Zm48.22-6.5a14,14,0,0,0-2.06.15,20.17,20.17,0,0,0-9.72-24.81,12.19,12.19,0,1,1,13.06,9,1,1,0,0,0-.92,1.13,1,1,0,0,0,1,.92h.11A14.24,14.24,0,1,0,59.1,30.16a14,14,0,0,0,.16,2.06,20.28,20.28,0,0,0-13.8,0,14.25,14.25,0,1,0-14.1,12.19,15.76,15.76,0,0,0,2.07-.15,20.25,20.25,0,0,0,0,13.79,14.41,14.41,0,0,0-2.07-.15,14.15,14.15,0,0,0-7.54,2.16,1,1,0,0,0-.33,1.42,1,1,0,0,0,.88.48,1.11,1.11,0,0,0,.55-.15A12.12,12.12,0,0,1,31.36,60a12.35,12.35,0,0,1,3.09.4,20.19,20.19,0,0,0,8.7,8.7,12.35,12.35,0,0,1,.4,3.09,12.19,12.19,0,0,1-24.37,0,12,12,0,0,1,2.41-7.27,1,1,0,1,0-1.65-1.24,14.11,14.11,0,0,0-2.83,8.51,14.25,14.25,0,1,0,28.35-2.07,20.12,20.12,0,0,0,13.8,0,14.43,14.43,0,0,0-.16,2.07A14.25,14.25,0,1,0,73.35,57.9Zm-42-15.56a12.2,12.2,0,1,1,11.79-9.1,20.3,20.3,0,0,0-8.7,8.7A12.35,12.35,0,0,1,31.36,42.34Zm21,26.89A18.08,18.08,0,1,1,70.43,51.15,18.1,18.1,0,0,1,52.36,69.23Zm21,15.1A12.2,12.2,0,0,1,61.17,72.15a12.35,12.35,0,0,1,.4-3.09,20.19,20.19,0,0,0,8.7-8.7,12.18,12.18,0,1,1,3.08,24Z"/></svg>