<svg xmlns="http://www.w3.org/2000/svg" xmlns:xlink="http://www.w3.org/1999/xlink" viewBox="0 0 163.72 10.95"><defs><style>.cls-1{fill:url(#linear-gradient);}.cls-2{fill:url(#linear-gradient-2);}.cls-3{fill:url(#linear-gradient-3);}.cls-4{fill:url(#linear-gradient-4);}.cls-5{fill:url(#linear-gradient-5);}.cls-6{fill:url(#linear-gradient-6);}.cls-7{fill:url(#linear-gradient-7);}.cls-8{fill:url(#linear-gradient-8);}.cls-9{fill:url(#linear-gradient-9);}</style><linearGradient id="linear-gradient" x1="7.8" y1="5.48" x2="70.72" y2="5.48" gradientUnits="userSpaceOnUse"><stop offset="0" stop-color="#fff"/><stop offset="0" stop-color="#078fcb"/></linearGradient><linearGradient id="linear-gradient-2" x1="0" y1="5.48" x2="7.96" y2="5.48" xlink:href="#linear-gradient"/><linearGradient id="linear-gradient-3" x1="70.47" y1="5.48" x2="75.53" y2="5.48" xlink:href="#linear-gradient"/><linearGradient id="linear-gradient-4" x1="76.26" y1="5.48" x2="78.34" y2="5.48" xlink:href="#linear-gradient"/><linearGradient id="linear-gradient-5" x1="92.99" y1="5.48" x2="155.92" y2="5.48" xlink:href="#linear-gradient"/><linearGradient id="linear-gradient-6" x1="155.75" y1="5.48" x2="163.72" y2="5.48" xlink:href="#linear-gradient"/><linearGradient id="linear-gradient-7" x1="88.18" y1="5.48" x2="93.25" y2="5.48" xlink:href="#linear-gradient"/><linearGradient id="linear-gradient-8" x1="85.38" y1="5.48" x2="87.45" y2="5.48" xlink:href="#linear-gradient"/><linearGradient id="linear-gradient-9" x1="79.81" y1="5.48" x2="83.9" y2="5.48" xlink:href="#linear-gradient"/></defs><title>heading_bottom</title><g id="Layer_2" data-name="Layer 2"><g id="Layer_1-2" data-name="Layer 1"><path class="cls-1" d="M70.72,5.32c-2.62-.44-5.24-.72-7.87-.93-1.31-.12-2.62-.18-3.93-.28L55,3.93q-3.93-.13-7.87,0t-7.87.29l-15.73.46c-5.24.21-10.49.37-15.73.62v.31c5.24.25,10.49.41,15.73.62l15.73.46c2.62.09,5.24.18,7.87.29s5.24.1,7.87,0l3.93-.18c1.31-.09,2.62-.15,3.93-.28,2.62-.21,5.24-.49,7.87-.93Z"/><path class="cls-2" d="M8,1.74l-.08-.08S1.34,5,0,5.48C1.34,5.94,7.88,9.3,7.88,9.3L8,9.23,6.52,5.48Z"/><path class="cls-3" d="M74.73,3.23a4.38,4.38,0,0,0-1.35-1.11,5.05,5.05,0,0,0-2.91-.59c.85.64,1.67,1.2,2.38,1.86a5.63,5.63,0,0,1,.91,1,1.94,1.94,0,0,1,.36,1,1.89,1.89,0,0,1-.33,1,5.4,5.4,0,0,1-.9,1c-.7.66-1.52,1.22-2.37,1.87a5,5,0,0,0,2.91-.6,4.32,4.32,0,0,0,1.35-1.13,3.71,3.71,0,0,0,.54-1,3.71,3.71,0,0,0,.22-1c0-.16,0-.12,0-.31a3.63,3.63,0,0,0-.25-1.27,3.81,3.81,0,0,0-.55-.94"/><path class="cls-4" d="M76.26,0a13.64,13.64,0,0,1,.52,2.77c.09.9.12,1.8.13,2.71s0,1.8-.12,2.71A14,14,0,0,1,76.28,11a4.37,4.37,0,0,0,1.59-2.37,10.08,10.08,0,0,0,.47-3.11,10.09,10.09,0,0,0-.48-3.11A4.34,4.34,0,0,0,76.26,0"/><path class="cls-5" d="M155.92,5.32c-5.24-.25-10.49-.41-15.73-.62l-15.73-.46q-3.93-.13-7.87-.29t-7.86,0l-3.93.18c-1.31.09-2.62.15-3.93.28-2.62.21-5.24.49-7.87.93v.31c2.62.44,5.24.72,7.87.93,1.31.12,2.62.18,3.93.28l3.93.18q3.93.13,7.86,0c2.62-.12,5.24-.21,7.87-.29l15.73-.46c5.24-.21,10.49-.37,15.73-.62Z"/><path class="cls-6" d="M155.84,1.66l-.08.09,1.44,3.73-1.44,3.75.08.07s6.54-3.35,7.88-3.82c-1.34-.47-7.88-3.82-7.88-3.82"/><path class="cls-7" d="M89.94,6.49a1.91,1.91,0,0,1-.33-1,2,2,0,0,1,.36-1,5.63,5.63,0,0,1,.91-1c.71-.66,1.53-1.22,2.38-1.86a5.06,5.06,0,0,0-2.91.59A4.4,4.4,0,0,0,89,3.23a3.88,3.88,0,0,0-.55.94,3.65,3.65,0,0,0-.25,1.27c0,.2,0,.15,0,.31s0,.26,0,.36a3.45,3.45,0,0,0,.17.61,3.72,3.72,0,0,0,.54,1A4.33,4.33,0,0,0,90.3,8.82a5,5,0,0,0,2.91.6c-.84-.65-1.66-1.21-2.37-1.87a5.59,5.59,0,0,1-.9-1.05"/><path class="cls-8" d="M87.45,0a4.35,4.35,0,0,0-1.59,2.37,10.06,10.06,0,0,0-.48,3.11,10.05,10.05,0,0,0,.47,3.11A4.37,4.37,0,0,0,87.44,11a14,14,0,0,1-.51-2.77c-.09-.91-.12-1.79-.12-2.71s0-1.8.13-2.71A13.49,13.49,0,0,1,87.45,0"/><path class="cls-9" d="M82,3l-.15,0-.15,0a2.24,2.24,0,0,0-1.9,2.47,2.24,2.24,0,0,0,1.9,2.47l.15,0,.15,0A2.24,2.24,0,0,0,83.9,5.48,2.24,2.24,0,0,0,82,3"/></g></g></svg>