<?xml version="1.0" encoding="utf-8"?>
<!-- Generator: Adobe Illustrator 21.0.0, SVG Export Plug-In . SVG Version: 6.00 Build 0)  -->
<svg version="1.1" id="home_banner" xmlns="http://www.w3.org/2000/svg" xmlns:xlink="http://www.w3.org/1999/xlink" x="0px"
	 y="0px" viewBox="0 0 225 232.7" style="enable-background:new 0 0 225 232.7;" xml:space="preserve">
<style type="text/css">
	.st0{fill:#944F00;}
	.st1{fill:#C2A091;}
	.st2{fill:#BA6000;}
	.st3{fill:#F0C6B4;}
	.st4{fill:#FF8400;}
	.st5{fill:#0F2034;}
	.st6{fill:#FCD2BB;}
	.st7{fill:#9C251F;}
	.st8{fill:#E31B25;}
	.st9{fill:#603913;}
	.st10{fill:#3C2415;}
	.st11{fill:#1D374E;}
	.st12{fill:#B56100;}
	.st13{fill:#16A89F;}
	.st14{fill:#FF2456;}
	.st15{fill:#121214;}
	.st16{opacity:0.3;}
	.st17{fill:#C7C7C7;}
	.st18{fill:#FFFFFF;}
	.st19{fill:#FF4D75;}
	.st20{fill:#BDAF83;}
	.st21{fill:#E6DAB0;}
	.st22{fill:#9E5E20;}
	.st23{fill:#FF3F4A;}
	.st24{fill:#24D2C1;}
	.st25{fill:#FF9D26;}
	.st26{fill:#202B57;}
	.st27{fill:#364685;}
	.st28{fill:#AB183A;}
	.st29{fill:#0A8074;}
	.st30{fill:#303033;}
	.st31{opacity:0.5;}
	.st32{fill:#EB5561;}
	.st33{fill:#9D4D36;}
	.st34{fill:#2A87C6;}
	.st35{fill:#DC495A;}
	.st36{fill:#3576AB;}
	.st37{fill:#2B5E85;}
	.st38{fill:#81EAB8;}
	.st39{fill:#1E556E;}
	.st40{fill:#50AE7B;}
	.st41{fill:#753F3A;}
	.st42{fill:#C67BB8;}
	.st43{fill:#DEABDC;}
	.st44{fill:#E6E6E6;}
	.st45{fill:#C381CC;}
	.st46{fill:#225276;}
	.st47{fill:#215274;}
	.st48{fill:#E1B4E8;}
	.st49{fill:#F89AB5;}
	.st50{fill:#DB8FAA;}
</style>
<title>Artboard 1</title>
<g>
	<g>
		<g>
			<path class="st0" d="M86.6,53.4c0,0-1.3,0.4-2.2-1.6c-0.8-1.7,0.1-2.7,0.1-2.7l1.9-0.2l1.5,3L86.6,53.4z"/>
		</g>
		<g>
			<polygon class="st1" points="84.4,49.1 82.4,50.5 85,53.5 87.9,52 85.6,48.7 			"/>
		</g>
		<g>
			<path class="st2" d="M93.9,46.8c1,2.5-1,3.7-2.2,4c-1.9,0.5-3.6,1.5-5.1,2.5c0.8-1.7,0-4.3-2.2-4.3c1.5-0.8,4.9-2.7,4.9-2.7
				S93,44.5,93.9,46.8z"/>
		</g>
		<g>
			<path class="st3" d="M89.4,46.4c-0.2,1.1-1.2,2.2-1.2,2.2s-2.4,4-2.7,4.5c-0.3,0.5-1.8,1.5-3,0.4c-1.1-1-0.6-2.6,0-3
				c0.5-0.3,3-2.1,3.2-2.5s-0.1-2.1-0.1-2.9c0.1,0,3.1,0.4,3.1,0.4S89.4,46.2,89.4,46.4z"/>
		</g>
		<g>
			<path class="st4" d="M109.5,90.6c-0.4,1.6-2.2,3.3-2.3,3.7c-0.1,0.2,0,1.1,0.4,1.3c2.1,1,3.8,0.2,4.4-0.9
				c0.7-1.3,2.6-5.3,2.4-6.2c-0.1-0.4-1.2-1.4-1.6-1.3L109.5,90.6z"/>
		</g>
		<g>
			<path class="st4" d="M93.2,94.7c0,0-2.1,1.5-3.7,1.9c-1.4,0.4-1,1.8-0.5,2.3c0.4,0.3,2,0.1,2.7-0.2c0.6-0.2,1.6-0.8,2.5-1.1
				c0.9-0.3,2.8,0.1,3.8-0.6c0.6-0.4,0-2.6,0-2.6L93.2,94.7z"/>
		</g>
		<g>
			<path class="st5" d="M97.9,71.6c0,0-3.1,9.7-3.1,10.5c2.2,3.9,2.5,8.2,3.6,12c0.3,1-2.4,2.2-5.7,0.6c-0.7-5.2-3.2-9.1-3.5-11.7
				s2.7-16.4,2.7-16.4L97.9,71.6z"/>
		</g>
		<g>
			<path class="st5" d="M104.7,67.5c0.6,3,0.5,11.7,0.7,12.4c2.8,2,6,5.9,7.7,7.2c0.4,3-2.6,4.5-4.1,4.2c-2.7-4.1-7.8-7.6-8.4-8.4
				c-0.6-0.7-3.7-11.4-3.7-11.4s-4-2.4-5.2-5.3C91.8,65.5,104.2,66.6,104.7,67.5z"/>
		</g>
		<g>
			<path class="st6" d="M99.2,46.7c-0.1,0.3,0.3,0.5,0.3,0.5v0.6l-2,2.1l-1.8,0.7l-1.5-0.3l-0.8-1.4l0.3-1.7l1.7-1.7l2.4-0.3
				l1.4,0.5C99.3,45.7,99.2,46.4,99.2,46.7z"/>
		</g>
		<g>
			<path class="st4" d="M103.6,51.1c0,0-1.7-2.3-4-4c-0.3,0.4-3,3.6-4.8,2.7c-1.1-0.5-0.4-3.7-0.4-3.7l-1.1,0.4c0,0-2.7,3-2.7,6.9
				c0,1.9,1.1,9,1.1,12.7c0,0,2.6,4,8,4.4c5.3,0.4,5.3-3.4,5-4c-0.3-0.7-1.4-3.6-1.7-5.3C102.5,59.5,103.6,51.1,103.6,51.1z"/>
		</g>
		<g>
			<path class="st3" d="M105,60c0.7,0.7,1.7,1.6,1.7,1.6c0.7,2,3.8,6.4,3.9,8.1c0,0.6-0.5,1.3-0.4,2s0.5,1.3,0.5,1.3
				s0.9,2.4,1.5,2.4c0.7,0,1.5-1.2,1.8-1.9s0.2-1.4,0-2.2c-0.7-2.3-1.2-2.3-1.2-2.3s-1.8-7.1-3.1-9.2c-0.6-0.9-2.1-2-2.1-2
				S104.3,59.3,105,60z"/>
		</g>
		<g>
			<path class="st6" d="M92.6,39.1c-0.5,1.1-0.5,2.5-0.5,2.5s-0.7,1.5-0.7,5.1c0,0.2,0.6,0.8,1,0.8c1.3,0.2,2.9,0.1,3.5-0.1
				c0.6-0.2,1.7-1.5,1.7-1.5s0.8,0.2,1.3-0.2c0.3,0,0.7,0,0.7,0l1-2l-1.4-4.4l-5.6-1.7C93.6,37.7,92.5,38.7,92.6,39.1z"/>
		</g>
		<g>
			<g>
				<polygon class="st2" points="90.3,45.7 90.3,45.4 89.3,45.2 89.3,45.7 				"/>
			</g>
			<g>
				<path class="st4" d="M89.5,45.9L89.5,45.9l-3-0.3l0.1-1l3,0.3l0,0c0.1,0,0.1,0.1,0.2,0.2c0.1,0.2,0.1,0.5-0.1,0.7
					C89.7,45.9,89.6,46,89.5,45.9z"/>
			</g>
			<g>
				<path class="st2" d="M86.7,45.5c0.1-0.2,0.2-0.5,0.1-0.7s-0.3-0.2-0.4,0s-0.2,0.5-0.1,0.7C86.4,45.7,86.6,45.7,86.7,45.5z"/>
			</g>
			<g>
				<path class="st7" d="M81.2,43.5c0-0.3,0.2-0.5,0.4-0.6c0.2-0.1,0.5-0.2,0.7-0.2c0.1,0,0.2,0.1,0.3,0.1L83,43h-0.6l-0.6,0.4v0.8
					l0.3,0.5l-0.4-0.2l0,0c-0.1-0.1-0.2-0.2-0.3-0.3C81.2,44,81.2,43.8,81.2,43.5z"/>
			</g>
			<g>
				<path class="st8" d="M81.6,43.7c0-0.3,0.2-0.5,0.4-0.6c0.2-0.1,0.5-0.2,0.7-0.2c0.3,0,0.5,0.2,0.6,0.4c0.1,0.1,0,0.2,0,0.2
					c-0.1,0.1-0.2,0-0.2,0c-0.1-0.1-0.2-0.2-0.4-0.3c-0.2,0-0.3,0-0.5,0.1c-0.3,0.2-0.4,0.6-0.2,0.9c0.1,0.2,0.3,0.3,0.5,0.3
					c3.1,0.3,4,0.4,4,0.4c0.1,0,0.1,0,0.1,0.2s-0.1,0.2-0.2,0.2l-4-0.5c-0.3,0-0.5-0.2-0.7-0.4C81.6,44.2,81.5,44,81.6,43.7z"/>
			</g>
		</g>
		<g>
			<path class="st9" d="M98.8,45.7c0.2-0.1,1.7-1,0.8-2c-0.9-1-1.6,0.5-1.8,0.7c-0.3-1.9-1.5-1.5-2.8-3.7c-0.5,0.6-1.4,0.4-1.4,0.4
				s-0.2-1.7,0.1-2.1c-0.9-0.6-1.8,0.8-1.8,1c-0.3-5.6,7.5-3.1,7.4-2.8c0,0,2.2-0.1,2.5,3.3c0.4,3.9-2.5,6.1-2.7,6.1
				C99,46.6,98.5,46,98.8,45.7z"/>
		</g>
		<g>
			<path class="st10" d="M98.9,37.5c-3.8,0.3-4.8,1.2-4.8,1.2S94.1,37.4,98.9,37.5z"/>
		</g>
		<g>
			<path class="st2" d="M101,51.1c2.3-1.4,3.9,1.6,3.9,1.6s1.2,1.8,3.1,4.4c1,1.4-2.8,4.3-3.7,3c-1-1.4-3.4-4.8-3.4-4.8
				S98.9,52.4,101,51.1z"/>
		</g>
		<g>
			<path class="st3" d="M87.1,45.9c0,0.3,0.5,0.5,1.1,0.6c0.7,0.1,1.2,0,1.3-0.3c0-0.3-0.5-0.5-1.1-0.6
				C87.7,45.5,87.2,45.6,87.1,45.9z"/>
		</g>
		<g>
			<path class="st3" d="M89.8,44c0.1,0.7,0,1.1-0.5,1.1s-2.5-0.4-2.9-0.3c-0.1,0-0.1,0.1-0.1,0.1l-0.8-0.1c0,0,0-0.9,0.6-1.2
				s1.4-0.4,2.1-0.5C89,43,89.7,43.3,89.8,44z"/>
		</g>
		<g>
			<g>
				<path class="st11" d="M97.7,38.9c0.3,5.7-3,8.6-3,8.6h0.2c0,0,3.4-3,3-8.6H97.7z"/>
			</g>
			<g>
				<path class="st8" d="M94.7,36.7l3.8-6.8l1.5,7.6l0,0c0.1,0.6-0.2,1.1-1,1.4c-1.2,0.4-2.9,0.1-3.9-0.6
					C94.5,37.7,94.3,37.1,94.7,36.7z"/>
			</g>
			<g>
				<path class="st4" d="M96.1,34.9c-0.1,0.4-0.1,0.8,0.2,0.8c0.2,0.1,0.5-0.2,0.7-0.5c0.1-0.4,0.1-0.8-0.2-0.8
					C96.5,34.3,96.2,34.6,96.1,34.9z"/>
			</g>
			<g>
				<path class="st4" d="M99.1,37.2c0,0.2,0.2,0.4,0.3,0.4c0.1,0,0.2-0.2,0.2-0.5c0-0.2-0.2-0.4-0.3-0.4
					C99.2,36.7,99.1,36.9,99.1,37.2z"/>
			</g>
			<g>
				<path class="st4" d="M95.1,36.4c-0.1,0.2-0.1,0.3,0,0.4s0.3,0,0.3-0.2c0.1-0.2,0.1-0.3,0-0.4C95.4,36.1,95.2,36.2,95.1,36.4z"/>
			</g>
			<g>
				<path class="st4" d="M97.4,33.3c0,0.2,0,0.3,0.1,0.3s0.2-0.1,0.3-0.2c0-0.2,0-0.3-0.1-0.3C97.6,33,97.4,33.1,97.4,33.3z"/>
			</g>
			<g>
				<path class="st4" d="M98.2,38.3c0,0.2,0.1,0.3,0.2,0.3s0.2-0.1,0.1-0.3c0-0.2-0.1-0.3-0.2-0.3C98.3,38.1,98.2,38.2,98.2,38.3z"
					/>
			</g>
			<g>
				<path class="st4" d="M97.6,31.8c-0.1,0.2-0.1,0.4,0,0.5s0.3-0.1,0.4-0.3c0.1-0.2,0.1-0.4,0-0.5S97.7,31.6,97.6,31.8z"/>
			</g>
			<g>
				<path class="st4" d="M97.9,35.7c0,0.2,0.1,0.4,0.3,0.4c0.2,0,0.3-0.2,0.3-0.4s-0.1-0.4-0.3-0.4C98,35.2,97.9,35.4,97.9,35.7z"/>
			</g>
			<g>
				<path class="st4" d="M98.4,33.6c0,0.3,0.2,0.6,0.3,0.6c0.2,0,0.3-0.3,0.3-0.6c0-0.3-0.2-0.6-0.3-0.6
					C98.5,33,98.4,33.3,98.4,33.6z"/>
			</g>
			<g>
				<path class="st4" d="M95.9,37.7c-0.1,0.3,0,0.7,0.3,0.7c0.2,0.1,0.5-0.1,0.6-0.5c0.1-0.3,0-0.7-0.3-0.7
					C96.3,37.2,96,37.4,95.9,37.7z"/>
			</g>
		</g>
	</g>
	<g>
		<g>
			<path class="st6" d="M134.6,55.3c1.8,2,1.9,3,3.7,4.3c0.6,0.4,2,2.4,3.4,3.8c0.2,0.2,2.3-3.9,2.3-3.9l-8.2-5.3
				C135.8,54.2,134.4,55.2,134.6,55.3z"/>
		</g>
		<g>
			<path class="st12" d="M145.7,50.3c0,0-2.3,0.2-2.9,2.8c-0.6,2.6,0.2,5.3,0.2,5.3l2-1.2L145.7,50.3z"/>
		</g>
		<g>
			<path class="st6" d="M152.4,88.9c0.2,1.8,0.1,5.7,0.1,5.7s1.7,0.8,3.1,2.1c1.8,1.7,1.7,3,3.7,4.4c0.6,0.4,2.6,0.6,2.5,2
				s-1.7,5.7-2.8,6.5c-1.1,0.7-2.8,0.6-3.8,0.2s-0.8-1.4-0.5-1.7c0.3-0.3,2.5-2.5,2.1-3.6c-2-4-6.9-5.3-8.2-7.3
				c-1-1.5-2.4-6.7-2.6-7.5C149.6,89.7,152.4,88.9,152.4,88.9z"/>
		</g>
		<g>
			<path class="st6" d="M139.9,74.3c-0.2,1.3-0.3,2.6-0.3,2.6L140,79l4.7,2.6l4,0.6l2-2.1l-0.1-1.6c0,0-0.4-0.4-0.6-1
				c-0.3-0.3-0.6-1.8-0.6-1.8S140.1,74.1,139.9,74.3z"/>
		</g>
		<g>
			<path class="st6" d="M138.8,87.1c-0.2,2.9-0.5,8.8-0.2,9.9c2.3,9.2,1.6,12.6,1.4,13.1c-0.1,0.5-0.8,1.3-3.2,3.2
				c-0.8,0.6-0.5,2.5-0.1,2.8s1.7-0.2,2.3-0.6s1.8-2,2.8-2.5s2.5-0.4,2.9-1.5s-0.9-2.4-1-3.2c-0.6-4.6,0.7-7-0.6-11.5
				c-0.1-1,1.6-7.4,1.6-7.4S139,87,138.8,87.1z"/>
		</g>
		<g>
			<path class="st4" d="M146,85.1l-0.8,4.4c-0.2,1-6.7-1.3-6.6-2.2c0.1-1,0.7-6.7,0.7-6.7L146,85.1z"/>
		</g>
		<g>
			<path class="st6" d="M145,51.3c0,0-0.7,1.1-0.8,2c-1.1,2.2-0.8,4.4-0.8,4.4l2.6,3.6l3.9,0.5l0.5-1.3c0,0-0.5-1.1-0.1-2
				c0.2-0.1,0.7-0.2,0.7-0.2l1.9-1.7v-3.5l-2.8-2.2l-4.3-0.8L145,51.3z"/>
		</g>
		<g>
			<path class="st1" d="M149.5,58.5c0,0-1.4,1-2.3,0.9c0.1,0.1,0.2,0.3,0.4,0.3C148.7,59.4,149.5,58.5,149.5,58.5z"/>
		</g>
		<g>
			<path class="st1" d="M149.6,61c0,0-0.6-0.5-0.8-0.7c-2.3-2-5.5-2.8-5.5-2.8s4.9,3.2,5,3.3C148.4,60.8,149.6,61,149.6,61z"/>
		</g>
		<g>
			<path class="st13" d="M152.5,62c-1.5-0.8-2.1-1.6-2.1-1.6s-1.8,1.9-5.2,0.8c-1.3-0.4-1.9-1.7-1.9-1.7s-2.2,2.5-2.6,5.5
				c-0.5,3.5-0.9,9.2-0.9,9.2s3,3.1,6.8,3.6s4.4-1.1,4.4-1.1c0.4-3.9,2.3-8.1,2.8-12.2C153.4,63.8,152.1,62.8,152.5,62z"/>
		</g>
		<g>
			<path class="st12" d="M154.8,54.6c0,0,0.2-4.2-3.3-5.3c-3.5-2.5-6.6,1.3-6.5,2c0,0,0.2-0.3,0.7-0.3c0.4,0,0.6,0.6,1.3,0.4
				c0,0.6,2,1.1,2.6,1.9c1,1.4,1,2.9,1,2.9s1.3-0.5,1.6,0.1c0.2,0.5-1.8,2.1-1.8,2.1s0.5,0,0.8,0c0.7-0.2,1.8-0.9,2.7-2.3
				C154,55.8,154.8,54.6,154.8,54.6z"/>
		</g>
		<g>
			<path class="st14" d="M153.5,55.6c0,0.6,0.5,1,1,1c0.6,0,1-0.5,1-1c0-0.6-0.5-1-1-1C153.9,54.5,153.5,55,153.5,55.6z"/>
		</g>
		<g>
			<path class="st12" d="M154.7,55.2c1.5-0.8,2.8,2.4,2.2,4.3c-0.5,1.9-2.2,3.4-2.6,5.3c-0.7-0.4-2.3-2.5-1.7-4.1
				C154.4,56.3,153.2,56,154.7,55.2z"/>
		</g>
		<g>
			<path class="st0" d="M150.8,49.3c-2.5-0.3-3.6,1.6-3.6,1.6S148.5,49.5,150.8,49.3z"/>
		</g>
		<g>
			<path class="st6" d="M149.6,64.7c-0.1,1.6,0.6,2.9,1.7,3c1.1,0.1,2.1-1.1,2.2-2.7c0.1-1.6-0.6-2.9-1.7-3
				C150.7,62,149.7,63.1,149.6,64.7z"/>
		</g>
		<g>
			<g>
				<path class="st8" d="M134.8,54.1L134.8,54.1l-2.9-4.5l1.4-0.9l2.9,4.5l0,0c0.1,0.1,0.1,0.3,0,0.4c-0.2,0.3-0.6,0.6-1,0.6
					C135,54.2,134.8,54.2,134.8,54.1z"/>
			</g>
			<g>
				<path class="st4" d="M132.1,49.9c0.1,0.1,0.2,0.2,0.4,0.2c0.4,0,0.8-0.3,1-0.6c0.1-0.2,0.1-0.3,0-0.4l0.3,0.5
					c0.1,0.1,0.1,0.3,0,0.4c-0.2,0.3-0.6,0.6-1,0.6c-0.2,0-0.3,0-0.4-0.2L132.1,49.9L132.1,49.9z"/>
			</g>
			<g>
				<path class="st4" d="M132.7,50.7c0.1,0.1,0.2,0.2,0.4,0.2c0.4,0,0.8-0.3,1-0.6c0.1-0.2,0.1-0.3,0-0.4l0.3,0.5
					c0.1,0.1,0.1,0.3,0,0.4c-0.2,0.3-0.6,0.6-1,0.6c-0.2,0-0.3-0.1-0.4-0.2L132.7,50.7L132.7,50.7z"/>
			</g>
			<g>
				<path class="st4" d="M133.2,51.6c0.1,0.1,0.2,0.2,0.4,0.2c0.4,0,0.8-0.3,1-0.6c0.1-0.2,0.1-0.3,0-0.4l0.3,0.5
					c0.1,0.1,0.1,0.3,0,0.4c-0.2,0.3-0.6,0.6-1,0.6c-0.2,0-0.3-0.1-0.4-0.2L133.2,51.6L133.2,51.6z"/>
			</g>
			<g>
				<path class="st4" d="M133.7,52.4c0.1,0.1,0.2,0.2,0.4,0.2c0.4,0,0.8-0.3,1-0.6c0.1-0.2,0.1-0.3,0-0.4l0.3,0.5
					c0.1,0.1,0.1,0.3,0,0.4c-0.2,0.3-0.6,0.6-1,0.6c-0.2,0-0.3-0.1-0.4-0.2L133.7,52.4L133.7,52.4z"/>
			</g>
			<g>
				<path class="st4" d="M134.2,53.2c0.1,0.1,0.2,0.2,0.4,0.2c0.4,0,0.8-0.3,1-0.6c0.1-0.2,0.1-0.3,0-0.4l0.3,0.5
					c0.1,0.1,0.1,0.3,0,0.4c-0.2,0.3-0.6,0.6-1,0.6c-0.2,0-0.3-0.1-0.4-0.2L134.2,53.2L134.2,53.2z"/>
			</g>
			<g>
				<path class="st7" d="M132.3,49.7c0.4,0,0.8-0.3,1-0.6s0-0.6-0.4-0.6s-0.8,0.3-1,0.6C131.7,49.5,131.9,49.7,132.3,49.7z"/>
			</g>
			<g>
				<path class="st15" d="M132.4,49.5c0.3,0,0.6-0.2,0.7-0.5c0.1-0.2,0-0.4-0.3-0.4s-0.6,0.2-0.7,0.5
					C132,49.4,132.1,49.6,132.4,49.5z"/>
			</g>
			<g>
				<path class="st8" d="M133.4,45.6c0,0.2,0.2,0.4,0.4,0.4s0.4-0.2,0.4-0.4s-0.2-0.4-0.4-0.4C133.5,45.2,133.3,45.4,133.4,45.6z"/>
			</g>
			<g>
				<path class="st8" d="M134.6,37.8c0,0.2,0.2,0.4,0.4,0.4s0.4-0.2,0.4-0.4s-0.2-0.4-0.4-0.4C134.7,37.4,134.6,37.6,134.6,37.8z"/>
			</g>
			<g>
				<path class="st8" d="M118.4,39.3c0,0.2,0.2,0.4,0.4,0.4c0.2,0,0.4-0.2,0.4-0.4s-0.2-0.4-0.4-0.4S118.4,39,118.4,39.3z"/>
			</g>
			<g>
				<path class="st8" d="M120.5,47.7c0,0.2,0.2,0.4,0.4,0.4c0.2,0,0.4-0.2,0.4-0.4s-0.2-0.4-0.4-0.4S120.5,47.4,120.5,47.7z"/>
			</g>
			<g>
				<path class="st8" d="M124.1,40.2c0,0.2,0.2,0.4,0.4,0.4s0.4-0.2,0.4-0.4s-0.2-0.4-0.4-0.4C124.3,39.8,124.1,40,124.1,40.2z"/>
			</g>
			<g>
				<path class="st8" d="M128,43.1c0,0.2,0.2,0.4,0.4,0.4s0.4-0.2,0.4-0.4s-0.2-0.4-0.4-0.4C128.2,42.7,128,42.9,128,43.1z"/>
			</g>
			<g>
				<path class="st8" d="M131.1,34.2c0,0.2,0.2,0.4,0.4,0.4s0.4-0.2,0.4-0.4s-0.2-0.4-0.4-0.4C131.3,33.8,131.1,34,131.1,34.2z"/>
			</g>
			<g>
				<path class="st4" d="M130.3,46.4c0,0.2,0.2,0.4,0.4,0.4s0.4-0.2,0.4-0.4s-0.2-0.4-0.4-0.4S130.3,46.1,130.3,46.4z"/>
			</g>
			<g>
				<path class="st4" d="M131,41.8c0,0.2,0.2,0.4,0.4,0.4s0.4-0.2,0.4-0.4c0-0.2-0.2-0.4-0.4-0.4S131,41.6,131,41.8z"/>
			</g>
			<g>
				<path class="st4" d="M121.6,36.1c0,0.2,0.2,0.4,0.4,0.4c0.2,0,0.4-0.2,0.4-0.4c0-0.2-0.2-0.4-0.4-0.4
					C121.8,35.7,121.6,35.9,121.6,36.1z"/>
			</g>
			<g>
				<path class="st4" d="M135.9,34.8c0,0.2,0.2,0.4,0.4,0.4s0.4-0.2,0.4-0.4s-0.2-0.4-0.4-0.4C136.1,34.4,135.9,34.6,135.9,34.8z"/>
			</g>
			<g>
				<path class="st4" d="M127.4,38.3c0,0.2,0.2,0.4,0.4,0.4s0.4-0.2,0.4-0.4s-0.2-0.4-0.4-0.4C127.6,37.9,127.4,38,127.4,38.3z"/>
			</g>
			<g>
				<path class="st4" d="M125.1,48.2c0,0.2,0.2,0.4,0.4,0.4s0.4-0.2,0.4-0.4s-0.2-0.4-0.4-0.4S125.1,48,125.1,48.2z"/>
			</g>
			<g>
				<path class="st4" d="M115.7,47.3c0,0.2,0.2,0.4,0.4,0.4c0.2,0,0.4-0.2,0.4-0.4s-0.2-0.4-0.4-0.4
					C115.9,46.9,115.7,47.1,115.7,47.3z"/>
			</g>
			<g>
				<path class="st13" d="M128.9,49.3c0,0.2,0.2,0.4,0.4,0.4s0.4-0.2,0.4-0.4s-0.2-0.4-0.4-0.4C129,48.9,128.8,49.1,128.9,49.3z"/>
			</g>
			<g>
				<path class="st13" d="M126.3,45.3c0,0.2,0.2,0.4,0.4,0.4s0.4-0.2,0.4-0.4s-0.2-0.4-0.4-0.4C126.4,44.9,126.3,45.1,126.3,45.3z"
					/>
			</g>
			<g>
				<path class="st13" d="M116.9,43.1c0,0.2,0.2,0.4,0.4,0.4c0.2,0,0.4-0.2,0.4-0.4s-0.2-0.4-0.4-0.4
					C117.1,42.7,116.9,42.9,116.9,43.1z"/>
			</g>
			<g>
				<path class="st13" d="M131,37.9c0,0.2,0.2,0.4,0.4,0.4s0.4-0.2,0.4-0.4c0-0.2-0.2-0.4-0.4-0.4S131,37.7,131,37.9z"/>
			</g>
			<g>
				<path class="st13" d="M121.9,43.6c0,0.2,0.2,0.4,0.4,0.4c0.2,0,0.4-0.2,0.4-0.4s-0.2-0.4-0.4-0.4
					C122.1,43.2,121.9,43.4,121.9,43.6z"/>
			</g>
			<g>
				<path class="st13" d="M134.1,41.5c0,0.2,0.2,0.4,0.4,0.4s0.4-0.2,0.4-0.4c0-0.2-0.2-0.4-0.4-0.4
					C134.2,41.1,134.1,41.3,134.1,41.5z"/>
			</g>
			<g>
				<path class="st13" d="M126.5,34.6c0,0.2,0.2,0.4,0.4,0.4s0.4-0.2,0.4-0.4c0-0.2-0.2-0.4-0.4-0.4S126.5,34.4,126.5,34.6z"/>
			</g>
		</g>
		<g>
			<path class="st6" d="M134.2,53.1c0,0,0.8-1.2-0.6-3.1c-0.2-0.2-0.9-0.2-1.4,0.1c-0.3,0.2-0.5,0.7-0.5,0.8c-0.1,0.3,1,1.9,1.4,2.4
				c0.3,0.4,1.6,0.4,1.6,0.4L134.2,53.1z"/>
		</g>
		<g>
			<path class="st6" d="M139.3,55.2c-0.4-0.5-1.9-2-2.5-2.5c-0.3-0.2-1.7-0.4-1.9-0.2c-0.4,0.3-0.9,0.7-1.1,1
				c-0.2,0.4,0.2,1.7,0.7,2.2s1.6,0.3,1.6,0.3s1,0.8,1.4,1c0.4,0.1,1,0.1,1,0.1l0.7-0.1c0-0.1,0.4-0.9,0.4-0.9
				S139.5,55.6,139.3,55.2z"/>
		</g>
		<g>
			<path class="st6" d="M153.8,64.3c0.3-1.1-0.5-2-1.7-2.5c-1.1-0.4-2.5-0.7-3.4-1.2c-2.2-1.9-5.6-2.9-9.3-5.4
				c-0.1,1-0.7,1.8-0.7,1.8c2.6,2.4,5.5,5.7,8.4,6.9c0.7,0.3,2.9,1.3,4,1.5C152.1,65.8,153.5,65.4,153.8,64.3z"/>
		</g>
		<g>
			<path class="st4" d="M139.6,76.9c0,0,3.9,3.5,7.2,3.5c2.9,0,3.8-1.9,3.8-1.9s2.1,1.7,2.1,5.1c0.1,2.3-0.1,3.7,0,5.2
				s-6.9,2.1-7.1,0.8c-0.2-1.4-0.6-2.8-0.9-3.7c-4.3-2.2-5.5-5.4-5.5-5.4L139.6,76.9z"/>
		</g>
		<g>
			<path class="st6" d="M134.2,50.6c0,0.6,0.2,1.1,0.5,1.1s0.4-0.5,0.4-1.1s-0.2-1-0.4-1c-0.1,0-0.5,0.2-0.6,0.2l0.2,0.3
				C134.2,50.3,134.2,50.4,134.2,50.6z"/>
		</g>
	</g>
	<g>
		<g>
			<g class="st16">
				<path d="M153.6,181.2c-22.1,12.8-58.1,12.8-80.2,0c-22.2-12.8-22.2-33.5,0-46.3s58.1-12.8,80.2,0S175.7,168.4,153.6,181.2z"/>
			</g>
			<g>
				<path class="st17" d="M170.2,151.9l-113.4,0.4v2.7l0,0c0,8.4,5.5,16.7,16.6,23.1c22.2,12.8,58.1,12.8,80.2,0
					c11.1-6.4,16.6-14.8,16.6-23.1l0,0V151.9z"/>
			</g>
			<g>
				<path class="st18" d="M153.6,175.2c-22.1,12.8-58.1,12.8-80.2,0c-22.2-12.8-22.2-33.5,0-46.3s58.1-12.8,80.2,0
					S175.7,162.5,153.6,175.2z"/>
			</g>
			<g>
				<path class="st17" d="M156.2,152.4c-0.3-6-4.5-12-12.5-16.7c-16.7-9.6-43.7-9.6-60.4,0c-8,4.6-12.2,10.6-12.5,16.7
					c-0.4-6.6,3.8-13.2,12.5-18.3c16.7-9.6,43.7-9.6,60.4,0C152.4,139.1,156.5,145.8,156.2,152.4z"/>
			</g>
			<g>
				<path class="st18" d="M156.2,152.4c-0.3,6-4.5,12-12.5,16.6c-16.7,9.6-43.7,9.6-60.4,0c-8-4.6-12.2-10.6-12.5-16.6
					c0.4-6,4.5-12,12.5-16.7c16.7-9.6,43.7-9.6,60.4,0C151.7,140.3,155.8,146.3,156.2,152.4z"/>
			</g>
		</g>
		<g>
			<g>
				<path class="st9" d="M154.5,150.3v-32.2h-82v32.2c0,6.1,4,12.1,12,16.7c16,9.2,42,9.2,58,0C150.5,162.4,154.5,156.4,154.5,150.3
					z"/>
			</g>
			<g>
				<path class="st19" d="M142.5,134.8c-16,9.2-42,9.2-58,0s-16-24.2,0-33.5s42-9.3,58,0S158.5,125.6,142.5,134.8z"/>
			</g>
			<g>
				<path class="st20" d="M155.9,118.1c0-7.1-84.4-3.8-84.4-3.8s-3.2,13.6-1.7,14.8c1,0.5,1.4,0.2,1.6-0.2c-0.2,2.4-0.6,7.5,1.1,8.5
					c2.1,1.3,1.3-4.3,2.8-3c1.6,1.3-0.9,7.6,2.9,9.9c3.8,2.4,2-6.2,4.3-5.4c2.3,0.9-0.9,8.3,3.2,10.1s1.7-7.2,4.2-6.3
					s-0.5,6.4,3.3,6.4s1.2-5.9,4-5.8c2.7,0.1,0.3,8,5.3,8.6c5,0.7-0.4-5.8,2.5-5.8s2.2,4.4,6.2,4.2s1-5.3,3.9-5.6
					c2.8-0.3,4,5.7,7.7,5.6c3.7-0.1,0.6-5.4,2.2-5.8c1.6-0.4,1.6,6.5,4.4,5.8c2.8-0.7,0.9-5.9,2.6-6.5c1.7-0.6,1.8,5.2,4.1,3.5
					s1-5,2.8-5.5c1.7-0.4,2.8,3.4,4.8,2.3c2.1-1.1,2.4-7.2,3.8-8.1c1.4-0.9,3.1,0.6,4.2,0.1c1.1-0.5,0.5-4.9,1.5-5.9s1.3,1.3,2,0.7
					C155.8,130.2,156.1,126.7,155.9,118.1z"/>
			</g>
			<g>
				<path class="st21" d="M143.5,135.4c-16.6,9.6-43.5,9.6-60,0c-16.6-9.6-16.6-25.1,0-34.7s43.5-9.6,60,0
					C160.1,110.3,160.1,125.9,143.5,135.4z"/>
			</g>
			<g>
				<g>
					<g>
						<path class="st10" d="M121.4,107.6c-0.5-0.4-1.1-0.7-1.9-0.9c-2.6-0.5-5.8,1.2-7.3,3.8l-0.7-0.4v2.7l0,0c0,1.6,1,3,2.9,3.3
							c2.6,0.5,5.9-1.3,7.3-3.9c0.4-0.8,0.6-1.6,0.6-2.3l0,0l0,0l0,0v-2.6L121.4,107.6z"/>
					</g>
					<g>
						<path class="st9" d="M121.8,109.5c-1.4,2.6-4.7,4.3-7.3,3.9c-2.6-0.5-3.6-3-2.2-5.5c1.4-2.6,4.7-4.3,7.3-3.9
							C122.2,104.4,123.2,106.9,121.8,109.5z"/>
					</g>
					<g>
						<path class="st22" d="M112.7,107.7c-2.8,4.7,1.8,5.7,1.8,5.7c-2.6-0.5-3.6-3-2.2-5.5c1.4-2.6,4.7-4.3,7.3-3.9
							C119.5,104,115.2,103.5,112.7,107.7z"/>
					</g>
				</g>
				<g>
					<g>
						<path class="st10" d="M114.2,114.1l-3.8,0.8c-1.7-0.2-3.8-0.1-6,0.2c-1.9,0.4-3.6,0.9-4.8,1.5l-2-0.6v2.8l0,0
							c0,0.2,0,0.3,0.1,0.5c0.8,1.5,5.1,2.1,9.6,1.3c4-0.7,6.8-2.3,6.8-3.7l0,0v-2.8C114.1,114.1,114.2,114.1,114.2,114.1z"/>
					</g>
					<g>
						<path class="st9" d="M107.3,117.8c4.5-0.8,7.5-2.7,6.7-4.2s-5.1-2.1-9.6-1.3c-4.5,0.8-7.5,2.7-6.7,4.2
							C98.5,118.1,102.8,118.7,107.3,117.8z"/>
					</g>
					<g>
						<path class="st22" d="M104.6,112.6c7.5-1.4,9.5,1.1,9.5,1.1c-0.8-1.5-5.1-2.1-9.6-1.3c-4.5,0.8-7.5,2.7-6.7,4.2
							C97.7,116.5,96.7,114,104.6,112.6z"/>
					</g>
				</g>
				<g>
					<g>
						<path class="st10" d="M127.8,119.5l-2.3-0.7c-0.4-0.3-0.7-0.5-1.2-0.8c-2.6-1.5-5.8-2.2-8-1.9l-2.5-0.7v2.6c0,0.1,0,0.2,0,0.2
							l0,0l0,0c0.1,1.2,1.3,2.7,3.4,3.9c3.3,1.9,7.6,2.6,9.6,1.4c0.6-0.3,0.9-0.8,0.9-1.4l0,0v-2.6H127.8z"/>
					</g>
					<g>
						<path class="st9" d="M117.3,119.3c-3.3-1.9-4.4-4.4-2.5-5.5s6.2-0.5,9.5,1.4s4.5,4.4,2.5,5.5
							C124.9,121.9,120.6,121.3,117.3,119.3z"/>
					</g>
					<g>
						<path class="st22" d="M117.3,119.3c-3.3-1.9-4.4-4.4-2.5-5.5s6.2-0.5,9.5,1.4c0,0-6.2-3.2-9.4-1.3
							C112,115.7,117.3,119.3,117.3,119.3z"/>
					</g>
				</g>
			</g>
		</g>
		<g>
			<g>
				<path class="st8" d="M101.4,80.4h0.5v19.3c0,0.2-0.1,0.4-0.4,0.5c-0.5,0.3-1.3,0.3-1.8,0c-0.2-0.1-0.4-0.3-0.4-0.5V80.4h0.5
					C100.3,80.3,100.9,80.3,101.4,80.4z"/>
			</g>
			<g>
				<path class="st23" d="M99.7,79.9c0.5-0.3,1.3-0.3,1.8,0s0.5,0.7,0,1s-1.3,0.3-1.8,0C99.2,80.7,99.2,80.2,99.7,79.9z"/>
			</g>
			<g>
				<path class="st8" d="M100.6,80.4c2.8,0,0-5.4,0-5.4S97.8,80.4,100.6,80.4z"/>
			</g>
			<g>
				<path class="st4" d="M100.6,80.1c1.7,0,0-3.2,0-3.2S99,80.1,100.6,80.1z"/>
			</g>
		</g>
		<g>
			<g>
				<path class="st8" d="M117.7,77.7h0.5V97c0,0.2-0.1,0.4-0.4,0.5c-0.5,0.3-1.3,0.3-1.8,0c-0.2-0.1-0.4-0.3-0.4-0.5V77.7h0.5
					C116.7,77.5,117.3,77.5,117.7,77.7z"/>
			</g>
			<g>
				<path class="st23" d="M116.1,77.2c0.5-0.3,1.3-0.3,1.8,0s0.5,0.7,0,1s-1.3,0.3-1.8,0C115.6,78,115.6,77.5,116.1,77.2z"/>
			</g>
			<g>
				<path class="st8" d="M117,77.7c2.8,0,0-5.4,0-5.4S114.2,77.7,117,77.7z"/>
			</g>
			<g>
				<path class="st4" d="M117,77.4c1.7,0,0-3.2,0-3.2S115.3,77.4,117,77.4z"/>
			</g>
		</g>
		<g>
			<g>
				<path class="st13" d="M84.3,90.5h0.5v19.3c0,0.2-0.1,0.4-0.4,0.5c-0.5,0.3-1.3,0.3-1.8,0c-0.2-0.2-0.4-0.4-0.4-0.5V90.5h0.5
					C83.2,90.3,83.8,90.3,84.3,90.5z"/>
			</g>
			<g>
				<path class="st24" d="M82.6,89.9c0.5-0.3,1.3-0.3,1.8,0s0.5,0.7,0,1s-1.3,0.3-1.8,0C82.1,90.7,82.1,90.2,82.6,89.9z"/>
			</g>
			<g>
				<path class="st8" d="M83.5,90.5c2.8,0,0-5.4,0-5.4S80.7,90.5,83.5,90.5z"/>
			</g>
			<g>
				<path class="st4" d="M83.5,90.1c1.7,0,0-3.2,0-3.2S81.9,90.1,83.5,90.1z"/>
			</g>
		</g>
		<g>
			<g>
				<path class="st13" d="M128.9,114.2h0.5v19.3c0,0.2-0.1,0.4-0.4,0.5c-0.5,0.3-1.3,0.3-1.8,0c-0.2-0.1-0.4-0.3-0.4-0.5v-19.3h0.5
					C127.8,114,128.4,114,128.9,114.2z"/>
			</g>
			<g>
				<path class="st24" d="M127.2,113.7c0.5-0.3,1.3-0.3,1.8,0s0.5,0.8,0,1c-0.5,0.3-1.3,0.3-1.8,0
					C126.7,114.4,126.7,114,127.2,113.7z"/>
			</g>
			<g>
				<path class="st8" d="M128.1,114.2c2.8,0,0-5.4,0-5.4S125.3,114.2,128.1,114.2z"/>
			</g>
			<g>
				<path class="st4" d="M128.1,113.8c1.7,0,0-3.3,0-3.3S126.5,113.8,128.1,113.8z"/>
			</g>
		</g>
		<g>
			<g>
				<path class="st13" d="M143.9,101.2h0.5v19.3c0,0.2-0.1,0.4-0.4,0.5c-0.5,0.3-1.3,0.3-1.8,0c-0.2-0.1-0.4-0.3-0.4-0.5v-19.3h0.5
					C142.8,101,143.4,101,143.9,101.2z"/>
			</g>
			<g>
				<path class="st24" d="M142.2,100.7c0.5-0.3,1.3-0.3,1.8,0s0.5,0.8,0,1c-0.5,0.3-1.3,0.3-1.8,0
					C141.7,101.5,141.7,101,142.2,100.7z"/>
			</g>
			<g>
				<path class="st8" d="M143.1,101.2c2.8,0,0-5.4,0-5.4S140.3,101.2,143.1,101.2z"/>
			</g>
			<g>
				<path class="st4" d="M143.1,100.9c1.7,0,0-3.2,0-3.2S141.5,100.9,143.1,100.9z"/>
			</g>
		</g>
		<g>
			<g>
				<path class="st4" d="M92.8,109.2h0.5v19.3c0,0.2-0.1,0.4-0.4,0.5c-0.5,0.3-1.3,0.3-1.8,0c-0.2-0.1-0.4-0.3-0.4-0.5v-19.3h0.5
					C91.7,109.1,92.3,109.1,92.8,109.2z"/>
			</g>
			<g>
				<path class="st25" d="M91.1,108.7c0.5-0.3,1.3-0.3,1.8,0s0.5,0.7,0,1s-1.3,0.3-1.8,0C90.6,109.5,90.6,109,91.1,108.7z"/>
			</g>
			<g>
				<path class="st8" d="M92,109.2c2.8,0,0-5.4,0-5.4S89.2,109.2,92,109.2z"/>
			</g>
			<g>
				<path class="st4" d="M92,108.9c1.7,0,0-3.2,0-3.2S90.4,108.9,92,108.9z"/>
			</g>
		</g>
		<g>
			<g>
				<path class="st4" d="M134.9,83h0.5v19.3c0,0.2-0.1,0.4-0.4,0.5c-0.5,0.3-1.3,0.3-1.8,0c-0.2-0.1-0.4-0.3-0.4-0.5V83h0.5
					C133.9,82.8,134.5,82.8,134.9,83z"/>
			</g>
			<g>
				<path class="st25" d="M133.3,82.5c0.5-0.3,1.3-0.3,1.8,0s0.5,0.7,0,1s-1.3,0.3-1.8,0C132.8,83.3,132.8,82.8,133.3,82.5z"/>
			</g>
			<g>
				<path class="st8" d="M134.2,83c2.8,0,0-5.4,0-5.4S131.4,83,134.2,83z"/>
			</g>
			<g>
				<path class="st4" d="M134.2,82.7c1.7,0,0-3.2,0-3.2S132.5,82.7,134.2,82.7z"/>
			</g>
		</g>
		<g>
			<g>
				<path class="st4" d="M107.3,115.3h0.5v19.3c0,0.2-0.1,0.4-0.4,0.5c-0.5,0.3-1.3,0.3-1.8,0c-0.2-0.1-0.4-0.3-0.4-0.5v-19.3h0.5
					C106.2,115.1,106.8,115.1,107.3,115.3z"/>
			</g>
			<g>
				<path class="st25" d="M105.6,114.8c0.5-0.3,1.3-0.3,1.8,0s0.5,0.7,0,1s-1.3,0.3-1.8,0C105.1,115.6,105.1,115.1,105.6,114.8z"/>
			</g>
			<g>
				<path class="st8" d="M106.5,115.3c2.8,0,0-5.4,0-5.4S103.7,115.3,106.5,115.3z"/>
			</g>
			<g>
				<path class="st4" d="M106.5,115c1.7,0,0-3.2,0-3.2S104.9,115,106.5,115z"/>
			</g>
		</g>
	</g>
	<g>
		<g>
			<path class="st14" d="M39.2,101.5c0.1,0.3,0.8,1.1,0.7,1.8c-0.1,1.1-4.1,1.1-4.6-0.4s-0.6-6.6,0-7.2c0.1-0.1,0.3-0.2,0.4-0.3
				L39.2,101.5z"/>
		</g>
		<g>
			<path class="st26" d="M35.7,95.3c0.6-0.3,1.2-0.4,1.7-1.1c1.8-2.5,1.3-4.4,5.2-7c0-0.4,0.1-1.9,0.1-1.9s2.3-1.2,5,0
				c-0.6,1.6-0.4,3.4-1.1,4.2c-0.7,0.8-6.6,5.3-7.8,8.5c-0.3,0.8,0.1,2.8,0.4,3.5c0,0-0.6,1.3-2.1,0.4
				C35.1,100.6,35.7,95.3,35.7,95.3z"/>
		</g>
		<g>
			<path class="st14" d="M46.6,100.8c-0.2,1-0.1,1.7,0.6,1.8c1.9,0.2,2.7,0.1,3.4,0.2c1,0.2,2,0.9,3.4,1.2c1,0.2,2,0.3,2.2-0.3
				c0.2-0.5,0-1.5-2.3-2.2L46.6,100.8z"/>
		</g>
		<g>
			<path class="st26" d="M54,101.5c-1.5-0.4-2.6-1.8-2.6-2.3c-0.4-2.7,2.8-9.8,3-10.9c0.3-1.1,0-3.6,0.2-4.8
				c0.2-1.2-0.6-0.2-0.6-0.2l-4.1,2.6c0,0,0.1,0.8,0.1,1.4c-2.1,3-0.6,6.9-2.6,11.3c-0.6,1-0.7,2.1-0.8,2.3c1.1,0.6,2.1,0.4,4.1,0.8
				c1.7,0.4,3.1,1.2,3.9,0.6C55.2,101.9,54,101.5,54,101.5z"/>
		</g>
		<g>
			<path class="st27" d="M44.1,68.8C39.5,71,41.4,79.4,31,79.6c0,0,0.3,1.4,1.1,2c3.2,2.8,12.2,8.9,21.1,3.4
				c13-8,13.4-23.7,13.4-23.7c-4.1,0-4.1,7.2-12.6,4.8C51.2,65.7,45.2,68.3,44.1,68.8z"/>
		</g>
		<g>
			<path class="st3" d="M63.3,60.3c0,0,1.8-0.7,2.5-0.6c0.7,0.1,2.1,1.5,1.9,2.1c-0.1,0.7-0.1,1.2-0.6,1.4c-0.4,0.2-0.7-0.1-0.7-0.1
				s-0.3,0.7-1.3,0.6c-1.1-0.1-2.8-1.1-3.2-1.5c-0.2-0.4,0-1.7,0-1.7L63.3,60.3z"/>
		</g>
		<g>
			<path class="st28" d="M55.6,51.8c0.9,0.5,2.7,2.6,3.5,3.1c1.8,1.4,3.6,4.5,4.3,5.3c0,0.4-0.4,1.6-1.8,2.1c-1.6-1.6-3.3-3-4.1-4
				c-0.3-0.2-2-1.6-3.5-2.5c-0.3-0.2-1-4.3-1-4.3S54.7,51.3,55.6,51.8z"/>
		</g>
		<g>
			<path class="st26" d="M44.2,67.5L44,69.3c0,0,0.2,1.8,3.1,1.9c3.9,0.2,7.4-2.7,7.4-2.7l0.1-1.6L44.2,67.5z"/>
		</g>
		<g>
			<rect x="47.6" y="51.2" class="st6" width="5.6" height="6.3"/>
		</g>
		<g>
			<path class="st14" d="M46.8,52.7c-1.8,1.1-3.9,3.7-3.9,3.7l0.1,5.3c0,0,1.5,1.6,1.3,5.8c-0.1,1.6,2.2,2.6,4.5,2.2
				c2.9-0.5,6-2.5,6-2.8c0.2-0.6,0.8-8,0.8-9.6c0-2.5-1.7-4.5-1.7-4.5s-2.5-0.4-2,0.4c0.5,0.8,0.4,2.3-0.3,2.6
				C50.5,56.2,47.3,55,46.8,52.7z"/>
		</g>
		<g>
			<path class="st3" d="M32.8,76.9c-0.3,0.3-1.9,0.8-2.3,1.3c-0.4,0.4-0.2,0.9-0.3,1.4s1.2,2.3,1.6,2.4c0.4,0,0.2-0.8,0.2-0.8
				s0.8-0.3,1-0.5c-0.2,0.2-1,1.1-0.6,1.3c0.3,0.2,1.6-0.8,1.9-1.2c0.3-0.3,0.2-1.9,0.6-2.9C35,77.7,33.1,76.6,32.8,76.9z"/>
		</g>
		<g>
			<path class="st10" d="M54.9,45.3c0.6,1.7-0.2,4.6,0.5,6.8c-0.8-0.2-1.2-0.6-1.2-0.6s0.3,3.6,0.7,4.6c-1.9-1.4-2.6-4.6-2.6-4.6
				S54.6,45,54.9,45.3z"/>
		</g>
		<g>
			<path class="st6" d="M54.9,46.9c0.2,1.3-0.1,7-1.3,7.4c-2.5,0.9-5.6-2-5.6-2l2.8-6.9h2.9C53.7,45.4,54.8,46.4,54.9,46.9z"/>
		</g>
		<g>
			<path class="st9" d="M53.1,46.3c0.1,1.7-3.6,4-3.1,6.8c-0.8-0.3-1.2-1.3-1.2-1.3c-0.5,2,0,6.1,0,6.1s-2.1-2.9-2.6-4.7
				c-0.6,0.5-1,0.8-1,0.8s-1.5-10.5,3.6-11c0,0,0.8-1.4,2.8-0.5c1.6,0.7,2.9,2,3.3,2.8C55.3,46,55,47,55,47S54,46.8,53.1,46.3z"/>
		</g>
		<g>
			<path class="st10" d="M49.3,43.2c2.8,0.4,3.5,2.5,3.5,2.5S52,44.3,49.3,43.2z"/>
		</g>
		<g>
			<path class="st28" d="M42.3,56.9c-0.6,0.8-5.3,7.2-6,8.1c-1.5,1.8-3.1,10.8-3.5,11.9c0.5,1.5,2.5,1.5,3,1.4
				c1.3-4,2.9-8.3,3.7-10.7c0.8-1,5-6.2,5.7-6.9s1.6-2.4,0.5-3.8C44.5,55.2,42.9,56.1,42.3,56.9z"/>
		</g>
		<g>
			<g>
				<path class="st11" d="M48,44.4c-0.4,0.7-0.2,3-0.2,3s-0.6-1.5,0-3.1L48,44.4z"/>
			</g>
			<g>
				<path class="st8" d="M52.8,43l-3.1-7.1l-2.2,7.5l0,0c-0.2,0.5,0.1,1.1,0.8,1.5c1.1,0.6,2.9,0.4,3.9-0.2
					C52.9,44.1,53.1,43.5,52.8,43z"/>
			</g>
			<g>
				<path class="st4" d="M51.6,41.2c0.1,0.4,0,0.8-0.2,0.8c-0.2,0.1-0.5-0.2-0.6-0.6c-0.1-0.4,0-0.8,0.2-0.8
					C51.2,40.5,51.5,40.8,51.6,41.2z"/>
			</g>
			<g>
				<path class="st4" d="M48.3,43c-0.1,0.2-0.2,0.4-0.4,0.3c-0.1,0-0.2-0.2-0.1-0.5c0.1-0.2,0.2-0.4,0.4-0.3
					C48.3,42.6,48.4,42.8,48.3,43z"/>
			</g>
			<g>
				<path class="st4" d="M52.4,42.7c0.1,0.2,0,0.4-0.1,0.4S52.1,43,52,42.9c-0.1-0.2,0-0.3,0.1-0.4C52.2,42.4,52.3,42.5,52.4,42.7z"
					/>
			</g>
			<g>
				<path class="st4" d="M50.5,39.4c0,0.2,0,0.3-0.1,0.3s-0.2-0.1-0.2-0.3c0-0.2,0-0.3,0.1-0.3C50.3,39.1,50.4,39.2,50.5,39.4z"/>
			</g>
			<g>
				<path class="st4" d="M49.1,44.3c0,0.2-0.1,0.3-0.2,0.3c-0.1,0-0.1-0.2-0.1-0.3c0-0.2,0.1-0.3,0.2-0.2
					C49.1,44,49.2,44.2,49.1,44.3z"/>
			</g>
			<g>
				<path class="st4" d="M50.4,37.8c0.1,0.2,0.1,0.4,0,0.5c-0.1,0-0.3-0.1-0.4-0.3c-0.1-0.2-0.1-0.4,0-0.5
					C50.2,37.5,50.3,37.6,50.4,37.8z"/>
			</g>
			<g>
				<path class="st4" d="M49.7,41.7c0,0.2-0.2,0.4-0.3,0.4c-0.2,0-0.3-0.2-0.3-0.5c0-0.2,0.2-0.4,0.3-0.4
					C49.7,41.3,49.8,41.5,49.7,41.7z"/>
			</g>
			<g>
				<path class="st4" d="M49.4,39.6c0,0.3-0.2,0.6-0.4,0.6s-0.3-0.3-0.2-0.7c0-0.3,0.2-0.6,0.4-0.6C49.4,39,49.5,39.2,49.4,39.6z"/>
			</g>
			<g>
				<path class="st4" d="M51.5,43.9c0.1,0.3-0.1,0.7-0.3,0.7s-0.5-0.2-0.6-0.5s0.1-0.7,0.3-0.7C51.1,43.4,51.4,43.6,51.5,43.9z"/>
			</g>
		</g>
	</g>
	<g>
		<g>
			<path class="st29" d="M173.5,69.4c0,0-1.3-0.1-1.3-2.7c0-1.7,1.1-2.3,1.1-2.3l2.1,0.7l-0.4,3.4L173.5,69.4z"/>
		</g>
		<g>
			<path class="st6" d="M175.2,68.5c-2.8,0.2-6.1,0.4-6.1,0.4l1.1-3.6l4.6-0.1C174.8,65.3,175.4,68.3,175.2,68.5z"/>
		</g>
		<g>
			<path class="st13" d="M184.3,65.9c0.2,1.4-0.9,2.9-3.8,3c-2.9,0.1-6,0.4-7,0.4c0.9-0.9,0.7-4.5-0.2-4.9c2.8-0.4,4.1-0.6,7-1
				C183,63,184.2,65.1,184.3,65.9z"/>
		</g>
		<g>
			<polygon class="st29" points="178.5,69 177.7,69.1 180.5,64.9 179.3,69.6 			"/>
		</g>
		<g>
			<path d="M195.9,124.1c-0.5,0.9-0.9,1.5-0.6,1.9c0.5,0.8,4.3,1.2,5.3-1.7c0.9-2.7,1.8-4.1,1.8-5.3c0-0.5-0.1-0.9-0.2-1.2
				L195.9,124.1z"/>
		</g>
		<g>
			<path class="st10" d="M202.1,117.8c-0.3-0.7-0.9-1-0.9-1s-3.8,3.1-3.8,3.7c-0.1,1.3-0.9,2.6-1.5,3.6c0,0,1.1,1,2.9,0.2
				c0.7-0.3,1.5-2,2.2-3.5C201.6,119.4,202.2,118.1,202.1,117.8z"/>
		</g>
		<g>
			<path d="M179.2,124.9c0,0-1.8,0.8-1.3,1.8c0.6,1.1,2.1,0.5,3.3,0.1c0.9-0.3,2.3-1.2,3.3-1.6c1.1-0.4,1.4-0.2,2.9-0.7
				c0.6-0.2,0.8-0.8,0.7-1.3L179.2,124.9z"/>
		</g>
		<g>
			<path class="st10" d="M188.2,123.1c0-0.6-0.4-1.6-0.4-1.6l-5.1,0.9c0,0-1.5,1.4-3.4,2.4c0,0,0.1,0.7,1.1,0.7
				c0.8,0,2.6-0.7,4.3-1.3C186.4,123.6,187.3,123.7,188.2,123.1z"/>
		</g>
		<g>
			<path class="st15" d="M179.2,88.5c-0.1,9.8,3.1,17.9,3.5,20.4c1.5,9.5-0.4,13.6-0.4,13.6s3.8,1.4,5.7-0.9
				c-0.4-4.9,1.4-8.4-0.7-14.7c-0.8-2.2,1.3-16.3,1.3-16.3S179.2,87.5,179.2,88.5z"/>
		</g>
		<g>
			<path class="st15" d="M194.4,91.9c1.1,5.6,1.7,11.3,2.6,12.4c3.6,4.3,3.3,8,4.4,12.3c0.9,3.4-3.2,5.3-4.3,4.3
				c-0.2-1.4,0.1-7.3-5.4-14.5c-1.9-2.5-6.4-11.3-7-13.8c2.5-1.7,6.8-3.1,6.8-3.1S193.8,90.4,194.4,91.9z"/>
		</g>
		<g>
			<path class="st6" d="M188.9,61.7c-0.4,1-0.3,2.3-0.3,2.3l0.5,2.6l-0.5,2l-2.8,1.1l-2.8-1.4l-0.3-2.7l0.4-3.9l3.4-2.3l2.9,1.3
				C189.3,61,188.9,61.4,188.9,61.7z"/>
		</g>
		<g>
			<path class="st13" d="M183.5,64.3c0,0-0.6,3.1,0.3,3.6c0.1,0.1,1.4,0.6,1.6,0.6c1.1,0.1,2.2-0.9,2.9-1.7c0.6-0.7,0.3-2.8,0.3-2.8
				s1.5,2.9,4.3,5.2c0.4,1.4-0.4,6.2-0.7,7.8c-0.3,1.6-1.8,4.6-1.7,6.6c0.1,2.1,2.7,2.2,4.3,8.9c-4.7-3.5-8.1,1.5-11.4,1
				c0,0-0.5-1-0.9-2.4c-0.2,1.1-0.3,2-0.3,2c-1.9-1.1-3.1-3.5-3.4-5.7c-0.4-8.1-1.6-10.6-1.9-13.1c-0.2-2.5,1.7-5.1,3.4-8.9
				c0.4-1,1.5-1.7,1.5-1.7C182.6,63.5,183.5,64.3,183.5,64.3z"/>
		</g>
		<g>
			<path class="st29" d="M184.5,68.5c-1,1.6-1.9,3.4-2.4,5.3c-0.5,1.9-0.5,3.9-0.4,5.8s0.3,3.9,0.5,5.8s0.3,3.9,0.3,5.8
				c0-1.9-0.1-3.9-0.2-5.8c-0.1-1.9-0.3-3.9-0.4-5.8c-0.1-1.9-0.1-3.9,0.4-5.8C182.7,71.9,183.5,70.1,184.5,68.5z"/>
		</g>
		<g>
			<path class="st29" d="M191.5,79.3c0,0,0.4-0.9,0.2-1.5c-0.7-2.1-1.8-3.4-1.8-3.4l1.3,5.9L191.5,79.3z"/>
		</g>
		<g>
			<path class="st29" d="M187.8,76.9c-0.9,3.6-4.7,2.3-4.7,2.3S187.5,81.6,187.8,76.9z"/>
		</g>
		<g>
			<path class="st15" d="M191.9,53.3c0.5-0.3,3.4,2.3,2.7,6.2c-0.7,3.8-3.4,5.6-3.7,5.9c-0.6-1.1-1.7-2.5-1.9-3.6
				c0.5-2.9,0.6-6.8,0.6-6.8S191.4,53.6,191.9,53.3z"/>
		</g>
		<g>
			<path class="st3" d="M179,63.3c0,0.3,0.5,0.5,1.1,0.6s1.2-0.1,1.2-0.4c0-0.3-0.5-0.5-1.1-0.6C179.6,62.9,179,63,179,63.3z"/>
		</g>
		<g>
			<path class="st11" d="M185.3,68.5c0,0,0.5-0.1,0.9-0.2c0.3,0,0.4,0,0.4,0s0.3,0.3,0.2,0.3c-0.4,0.4-1.6,0.4-1.6,0.4l-0.1-0.3
				L185.3,68.5z"/>
		</g>
		<g>
			<path class="st11" d="M183.7,67.8c0,0-0.2-1.4-0.2-1.6c0-0.1-0.3-0.1-0.4,0c-0.1,1.1,0.4,2.1,0.4,2.1l0.3-0.1L183.7,67.8z"/>
		</g>
		<g class="st16">
			<path d="M183.7,67.8c0,0-0.2-1.1-0.1-1.6c-0.1,0-0.9-1.7-0.9-1.7s-0.9,1.8-0.9,3.1C182.9,67.5,183.7,67.8,183.7,67.8z"/>
		</g>
		<g>
			<path class="st13" d="M183.1,66.4c0,0-0.7,0.3-1.1,1c0-1.2,0.9-3,0.9-3l0.5,0.2L183.1,66.4z"/>
		</g>
		<g>
			<path class="st29" d="M183.7,67.8c0,0-0.2-1.7-0.1-3.2c-0.2-0.2-0.5-0.1-0.5-0.1s-0.2,0.8-0.1,1.9
				C183.6,66.9,183.7,67.8,183.7,67.8z"/>
		</g>
		<g>
			<path class="st11" d="M184.4,69.5c-0.7,2.3-1.5,6.3-1.5,6.3l-1.8,0.3l-0.5-1.7c0,0,2.1-3.3,3.2-5.2c0.2-0.7,0.4-0.3,0.4-0.3
				S184.3,68.9,184.4,69.5z"/>
		</g>
		<g>
			<polygon class="st5" points="185.3,68.5 183.7,67.8 183.6,68.3 183.8,69.2 184.4,69.5 185.2,69 			"/>
		</g>
		<g>
			<path class="st29" d="M185.8,68c-0.1,0.2-0.4,0.5-0.4,0.5s0.7,0,1.4-0.4c0.2-0.1-0.5,0-0.5,0S185.9,68,185.8,68z"/>
		</g>
		<g class="st16">
			<path d="M185.3,68.5c1.1,0.7,1.7,1.8,1.7,1.8c2.9-2.8,2-5.4,2-5.4s-0.7,2.3-2.1,3.2c-0.6,0-1.1-0.1-1.1-0.1
				S185.6,68.2,185.3,68.5z"/>
		</g>
		<g>
			<path class="st13" d="M185.8,68c0,0,1.1,0.8,1.3,2c2.6-3.1,1.9-5.3,1.9-5.3l-0.5-1.4C188.5,63.3,188.8,66.4,185.8,68z"/>
		</g>
		<g>
			<path class="st6" d="M181.2,63.5c0,0-1.2,1.1-2,1.4c-0.8,0.3-2.6,0.3-3.1,0.4c-0.4,0-6.2,3.5-6.2,3.5s-2.8,1-4-0.8
				c-0.5-0.8,0.4-2.3,1.3-2.7c1.8-0.7,7.5-1.6,8.7-1.9c0.4-0.6,0.7-1,0.7-1L181.2,63.5z"/>
		</g>
		<g>
			<path class="st6" d="M182.2,54.7c0,0-1.1,1.5-1,3.4c-0.6,0.9-0.2,5.5-0.2,5.9c0.1,0.4,1.1,0.9,1.4,0.9c1.2,0,2.9-0.6,3.6-1
				c0.6-0.4,1.7-2,1.7-2s0.6,0.1,0.9-0.2c1-0.3,1.8-0.6,1.8-0.6l0.3-2.8l-5.1-4.2L182.2,54.7z"/>
		</g>
		<g>
			<path class="st4" d="M189.5,54.4c0,0.8,0.6,1.5,1.4,1.5c0.8,0,1.4-0.7,1.4-1.5s-0.6-1.5-1.4-1.5
				C190.2,52.9,189.5,53.6,189.5,54.4z"/>
		</g>
		<g>
			<path class="st30" d="M188.6,61.7c0,0,1.6-1.9,0.8-2.3c-0.4-0.2-0.7,0.9-2.3,1.5c0.1-1.9-1-1.4-0.7-3.8c0-0.5-3.7-0.7-4.1-2.3
				c-0.4-1.4,6.3-5.3,9.2-0.2c2,3.6,0.4,5.9-0.2,6.4C189.9,62.2,188.6,61.7,188.6,61.7z"/>
		</g>
		<g>
			<g>
				<polygon class="st2" points="182,63.3 182,62.9 181,62.7 180.9,63.3 				"/>
			</g>
			<g>
				<path class="st4" d="M181.2,63.5L181.2,63.5l-3.1-0.3l0.1-1l3.1,0.3l0,0c0.1,0,0.1,0.1,0.2,0.2c0.1,0.2,0.1,0.5-0.1,0.7
					C181.3,63.5,181.2,63.5,181.2,63.5z"/>
			</g>
			<g>
				<path class="st2" d="M178.2,63.1c0.1-0.2,0.2-0.5,0.1-0.7c-0.1-0.2-0.3-0.2-0.4,0c-0.1,0.2-0.2,0.5-0.1,0.7
					S178.1,63.3,178.2,63.1z"/>
			</g>
			<g>
				<path class="st7" d="M172.6,61c0-0.3,0.2-0.5,0.4-0.7s0.5-0.2,0.8-0.2c0.1,0,0.2,0.1,0.3,0.1l0.3,0.2h-0.6l-0.6,0.4v0.9l0.3,0.5
					l-0.4-0.2l0,0c-0.1-0.1-0.3-0.2-0.3-0.3C172.6,61.5,172.5,61.3,172.6,61z"/>
			</g>
			<g>
				<path class="st8" d="M173,61.2c0-0.3,0.2-0.5,0.4-0.7s0.5-0.2,0.8-0.2s0.5,0.2,0.6,0.4c0.1,0.1,0,0.2,0,0.2
					c-0.1,0.1-0.2,0-0.2,0c-0.1-0.1-0.3-0.2-0.4-0.3c-0.2,0-0.4,0-0.5,0.1c-0.3,0.2-0.4,0.6-0.2,0.9c0.1,0.2,0.3,0.3,0.5,0.4
					c3.2,0.3,4.2,0.4,4.2,0.4c0.1,0,0.2,0,0.1,0.2c0,0.2-0.1,0.2-0.2,0.2l-4.1-0.5c-0.3,0-0.5-0.2-0.7-0.4
					C173,61.8,172.9,61.5,173,61.2z"/>
			</g>
		</g>
		<g>
			<path class="st6" d="M181.3,62.7c0.2-0.3,0.2-1.4-0.8-1.6c-1-0.2-2.3,0-2.7,0.2c-0.5,0.2-1.1,1.1-1.1,1.1l1.2,0.1
				c0.1-0.3,0.3-0.3,0.3-0.3C178.7,62.6,181,63.1,181.3,62.7z"/>
		</g>
		<g>
			<path class="st3" d="M185.3,84.7c0,0-1.5-0.1-2.1,0c-0.5,0.1-1.2,0.4-1.1,0.8c0.2,0.5,1.3-0.1,2.1,0.4c0.2,0.1,0.9-0.4,0.9-0.4
				L185.3,84.7z"/>
		</g>
		<g>
			<g>
				<g>
					<path class="st29" d="M181.7,89.1L181.7,89.1c0.1-0.1,0.2-0.3,0.4-0.4c0.5-0.3,1.3-0.3,1.8,0c0.2,0.1,0.3,0.3,0.4,0.4l0,0v0.1
						l0,0l0,0l0,0c0,0.2-0.1,0.4-0.4,0.5c-0.5,0.3-1.3,0.3-1.8,0C181.9,89.6,181.7,89.4,181.7,89.1L181.7,89.1L181.7,89.1z"/>
				</g>
				<g>
					<path class="st24" d="M182.1,89.6c0.5,0.3,1.3,0.3,1.8,0s0.5-0.7,0-1s-1.3-0.3-1.8,0S181.6,89.4,182.1,89.6z"/>
				</g>
			</g>
			<g>
				<g>
					<path class="st13" d="M182.7,87L182.7,87C182.7,86.9,182.8,86.9,182.7,87c0.1-0.1,0.3-0.1,0.4-0.1c0,0,0,0,0.1,0.1l0,0v2.1
						c0,0,0,0.1-0.1,0.1c-0.1,0.1-0.2,0.1-0.3,0l-0.1-0.1L182.7,87L182.7,87z"/>
				</g>
				<g>
					<path class="st24" d="M182.8,87.1c0.1,0.1,0.2,0.1,0.3,0c0.1,0,0.1-0.1,0-0.2c-0.1,0-0.2,0-0.3,0S182.7,87,182.8,87.1z"/>
				</g>
			</g>
			<g class="st31">
				<path class="st13" d="M183,82.4c0.4,0,0.9,0.1,1.2,0.3c0.3,0.2,0.5,0.4,0.5,0.6s-0.2,0.5-0.5,0.6c-0.3,0.2-0.7,0.3-1.2,0.3
					c-0.4,0-0.9-0.1-1.2-0.3c-0.3-0.2-0.5-0.4-0.5-0.6s0.2-0.5,0.5-0.6C182.1,82.5,182.5,82.4,183,82.4L183,82.4z"/>
			</g>
			<g>
				<g>
					<path class="st7" d="M184.6,84.5v0.2c0,1.3-0.7,2.2-1.6,2.2c-0.9,0-1.6-1-1.6-2.2v-0.2H184.6z"/>
				</g>
				<g>
					<path class="st8" d="M183,83.6c0.4,0,0.8,0.1,1.1,0.3c0.3,0.2,0.5,0.4,0.5,0.6s-0.2,0.5-0.5,0.6c-0.3,0.2-0.7,0.3-1.1,0.3
						c-0.4,0-0.8-0.1-1.1-0.3c-0.3-0.2-0.5-0.4-0.5-0.6s0.2-0.5,0.5-0.6C182.1,83.7,182.5,83.6,183,83.6L183,83.6z"/>
				</g>
			</g>
			<g class="st31">
				<path class="st29" d="M184.7,83.4v1.3c0,1.4-0.8,2.4-1.7,2.4s-1.7-1-1.7-2.4v-1.3c0,0,0.1,1,1.7,1
					C184.5,84.3,184.7,83.4,184.7,83.4z"/>
			</g>
			<g>
				<path class="st24" d="M183,82.4c0.4,0,0.9,0.1,1.2,0.3c0.3,0.2,0.5,0.4,0.5,0.6s-0.2,0.5-0.5,0.6c-0.3,0.2-0.7,0.3-1.2,0.3
					c-0.4,0-0.9-0.1-1.2-0.3c-0.3-0.2-0.5-0.4-0.5-0.6s0.2-0.5,0.5-0.6C182.1,82.5,182.5,82.4,183,82.4L183,82.4z M183,82.4
					c-0.4,0-0.9,0.1-1.2,0.3c-0.7,0.4-0.7,1,0,1.4c0.3,0.2,0.8,0.3,1.2,0.3s0.9-0.1,1.2-0.3c0.7-0.4,0.7-1,0-1.4
					C183.8,82.5,183.4,82.4,183,82.4L183,82.4z"/>
			</g>
		</g>
		<g>
			<path class="st6" d="M192,80.4c0,0,0.6,1.8,0.9,2.4c-1.8,0.8-5.1,1.9-6.2,2c-1.1,0.1-1.5,0-1.5,0s-1.1,1.4-2.1,1.7
				c-1.1,0.3-1.7-0.5-1.7-0.5c-0.5,0.4-0.9,1-0.4,1.8c0.4,0.8,2.6,1.8,3.4,1.6c0.7-0.1,2.6-2,2.6-2s6.1-0.5,7.2-0.8
				c1.2-0.3,2.9-0.9,2.7-2.5c-0.3-1.6-0.8-4.7-0.8-4.7L192,80.4z"/>
		</g>
		<g>
			<path class="st13" d="M191.3,69.2c1.4-0.5,3,0.4,3.6,3.2c0.6,2.8,1.4,5.8,1.6,6.9c0.2,1.1-4.3,2.4-4.8,1
				c-0.9-2.6-1.3-3.9-2.2-6.7C188.7,71,190.6,69.4,191.3,69.2z"/>
		</g>
		<g>
			<g>
				<path class="st11" d="M187.7,54.7c0.8,5.8-2.2,9.5-2.2,9.5h0.2c0,0,3.1-3.7,2.2-9.5H187.7z"/>
			</g>
			<g>
				<path class="st8" d="M184.3,52.7l3.3-7.3l2.2,7.7l0,0c0.2,0.6-0.1,1.1-0.9,1.5c-1.2,0.6-3,0.4-4-0.3
					C184.2,53.8,184,53.2,184.3,52.7z"/>
			</g>
			<g>
				<path class="st4" d="M185.6,50.8c-0.1,0.4,0,0.8,0.2,0.9c0.2,0.1,0.5-0.2,0.6-0.6c0.1-0.4,0-0.8-0.2-0.9
					C186,50.1,185.7,50.4,185.6,50.8z"/>
			</g>
			<g>
				<path class="st4" d="M188.9,52.8c0.1,0.2,0.2,0.4,0.4,0.4c0.1,0,0.2-0.3,0.1-0.5c-0.1-0.2-0.2-0.4-0.4-0.4
					C188.9,52.3,188.9,52.6,188.9,52.8z"/>
			</g>
			<g>
				<path class="st4" d="M184.7,52.4c-0.1,0.2,0,0.4,0.1,0.4s0.3-0.1,0.3-0.2c0.1-0.2,0-0.4-0.1-0.4
					C184.9,52.1,184.8,52.2,184.7,52.4z"/>
			</g>
			<g>
				<path class="st4" d="M186.8,48.9c0,0.2,0,0.3,0.1,0.3s0.2-0.1,0.2-0.3s0-0.3-0.1-0.3C186.9,48.7,186.8,48.8,186.8,48.9z"/>
			</g>
			<g>
				<path class="st4" d="M188.1,54.1c0,0.2,0.1,0.3,0.2,0.3c0.1,0,0.2-0.2,0.1-0.3c0-0.2-0.1-0.3-0.2-0.3
					C188.1,53.8,188.1,53.9,188.1,54.1z"/>
			</g>
			<g>
				<path class="st4" d="M186.8,47.4c-0.1,0.2-0.1,0.4,0,0.5c0.1,0,0.3-0.1,0.4-0.3c0.1-0.2,0.1-0.4,0-0.5
					C187.1,47,186.9,47.2,186.8,47.4z"/>
			</g>
			<g>
				<path class="st4" d="M187.5,51.4c0,0.3,0.2,0.4,0.3,0.4c0.2,0,0.3-0.2,0.3-0.5s-0.2-0.4-0.3-0.4
					C187.6,50.9,187.5,51.1,187.5,51.4z"/>
			</g>
			<g>
				<path class="st4" d="M187.8,49.2c0,0.4,0.2,0.6,0.4,0.6s0.3-0.3,0.3-0.7s-0.2-0.6-0.4-0.6C187.9,48.5,187.8,48.8,187.8,49.2z"/>
			</g>
			<g>
				<path class="st4" d="M185.7,53.7c-0.1,0.3,0.1,0.7,0.3,0.7c0.3,0.1,0.5-0.2,0.6-0.5s-0.1-0.7-0.3-0.7
					C186,53.1,185.8,53.3,185.7,53.7z"/>
			</g>
		</g>
	</g>
	<g>
		<g>
			<path class="st6" d="M61.7,135.4c-5.2-0.8-6.3,3-6.5,3.8c-0.5,1.9,0.4,4,0.4,5.3s-0.8,3.1-0.8,3.1l-1.3,2.1
				c0,0.1,0.5,1.7,0.8,1.9c0.2,0.2,4.8,0.8,4.8,0.8l2.6-1.8c0,0-0.3-2.9,0.2-3.9c0.4-0.1,1.5,0.4,2.2-0.3c1-0.9,1.3-5.7,1.3-5.7
				S66.2,136.1,61.7,135.4z"/>
		</g>
		<g>
			<path class="st6" d="M50.2,119.1c-0.4-0.1-1.1-1-0.7-2.7c0.2-0.9,1.3-1.4,0.9-2.1c-0.4-0.7-2.6,1.1-2.9,2.5c-0.3,1.4,0,5.5,0,5.5
				l1.4,0.7c0.1,0,1,0.3,1.3-0.4c0.3-0.7,1.3-1.8,1.6-2.7c0.3-0.9,0.9-2.5,0.6-2.8C51.5,116.8,50.6,119.2,50.2,119.1z"/>
		</g>
		<g>
			<path class="st32" d="M51.2,136.5c0.3-1.4-1-13.8-1-13.8s-1.6-1.4-2.7-0.3c-0.4,5.1-2.1,8-0.9,13.8c0.4,3.7-0.9,8.8,2.3,18.5
				c0.8,1.3,3.7-2.3,3.7-2.3s2-3.1,1.7-4.6C53.1,145.3,52,140,51.2,136.5z"/>
		</g>
		<g>
			<path class="st33" d="M57.8,209.8c-2-0.1-5,2.5-5,2.5s-0.7,2.4-0.9,3.3c-0.3,1.2,0.6,1.9,2.2,1.7c0.9-0.1,2.2-2.1,3-2.8
				c1.1-1,3.5-2.3,3.5-3.5C60.8,209.8,59.8,209.9,57.8,209.8z"/>
		</g>
		<g>
			<path class="st34" d="M53.2,194.5c-3.4,6.6-1,17.4-0.9,18.1c0.1,1.6,4.9,1.5,5.6-2.1c-0.3-4.9-0.8-7.7,0.1-13
				c1.2-1.4,3.9-18,3.9-18l-10-1C52,178.5,53.2,193.8,53.2,194.5z"/>
		</g>
		<g>
			<path class="st33" d="M71.9,215.9c-1.3-1.1-4.6,0-5.1-0.7c-1.3-0.6-6.5,1.2-6.5,1.2s-0.9,3,0.4,3.8c1.2,0.7,2.3,0.3,4.4,0.1
				c4-0.3,5.1-0.8,6.4-1.6C72.3,218.2,72.7,216.4,71.9,215.9z"/>
		</g>
		<g>
			<path class="st34" d="M68.1,175.6c-0.4-1.5-9-3.7-9-3.7l-6.4,1c0,0-1.1,2-0.7,5.6c0.3,1.9,5.6,4.1,7,4.8
				c0.8,8.6,1.9,13.9,1.7,15.4c-1.7,7.9-0.6,18.1-0.6,18.1s4.5,2.3,7-1.5c-1.3-9-0.4-17.9-0.4-17.9S69.7,188.1,68.1,175.6z"/>
		</g>
		<g>
			<path class="st35" d="M61.7,150.7c-1.9-0.4-4.4-0.2-6.5-1.4c-0.8-0.4-0.4-1.8-0.4-1.8c-0.9,0.5-2.4,0.6-2.4,0.6s-3.2,1.1-3.4,4.8
				c-1,6.8,2.4,8.1,2.5,23c0,0.7,6.9,3.6,11.5,3.6c3.2,0,5.6-2,5.6-2s-0.1-20-1.6-22.6C66,153.6,62.8,152.5,61.7,150.7z"/>
		</g>
		<g>
			<path class="st6" d="M82.4,158.1c-0.8-0.1-1.5,1.5-1.5,1.5s-1.4,0.7-1.9,0.9c-0.5,0.3,0.4-1.2,0-1.4s-1.8,0.8-2,1.4
				c-0.2,0.6-0.3,2.7-0.3,2.7l0.2,1.4c0,0,1.2,0.9,1.9,0.8c1.4-1.1,2.5-1.6,2.9-2s0.9-1.2,1.1-1.9C82.8,160.9,83.1,158.1,82.4,158.1
				z"/>
		</g>
		<g>
			<path class="st32" d="M76.6,163.3c-1.6,1.6-6.5,4-6.5,4l-1.6-8.1c0,0-1.1-6.6-4.7-5.1c-3.5,1.5-1.9,5.3-1.9,5.3s3.1,12,4.5,12.9
				s2.6,0.8,4.4,0.7c1.9-0.2,7.8-7.5,7.8-7.5S78.6,163.5,76.6,163.3z"/>
		</g>
	</g>
	<g>
		<g>
			<path class="st6" d="M200.4,145.1c0.5,0.5,1.3,2.2,1.3,2.2s-2,1.8-2.4,1.8c-0.4-0.1-1.2-2.3-1.2-2.3s-2-1.9-1.2-2.7
				C197.7,143.3,199.9,144.6,200.4,145.1z"/>
		</g>
		<g>
			<path class="st6" d="M198.6,146.7c0.6,0.3,1,0.7,0.9,0.9s-0.2,0.7-0.8,0.4s-1.5-1.2-1.4-1.4C197.4,146.4,198,146.4,198.6,146.7z"
				/>
		</g>
		<g>
			<path class="st36" d="M206.5,202.2c1.1-0.3,2.5,0.5,2.5,0.5s3,1.3,3.1,1.6c-0.2,2.5,0.3,4.2,0,4.8s-1.7,1.1-2.3,0.3
				c-0.7-0.9-1.1-2.2-1.6-2.8s-2.3-3-2.3-3S205.4,202.5,206.5,202.2z"/>
		</g>
		<g>
			<path class="st21" d="M213.5,166.4c0.7,8.4-1.1,15.8,0.3,21.3c1.8,7.4-1,12-1.6,16.5c-0.3,2-3.8,1.5-3.5-0.3
				c0.9-5.3,0.1-7.6,0-14.9c0.5-1.1-3.4-9.1-5.4-17.1C203.4,170.5,212.9,165.9,213.5,166.4z"/>
		</g>
		<g>
			<path class="st36" d="M198.7,204.2c1.2-0.3,5.7,1.3,5.7,1.3s0.2,2.7-0.5,3.1c-0.7,0.4-7.8-0.3-9.6-0.9c-1.8-0.5-1.7-2.2-1-2.7
				C194,204.5,196,204.9,198.7,204.2z"/>
		</g>
		<g>
			<path class="st21" d="M197.9,163.9c3.3,0.1,7.8-1.4,7.8-1.4l5.2-2.4c0,0,2.6,4.3,2.6,6.9c0,4-6.9,6-6.9,6s-2.3,14.7-2.2,15.7
				c2.5,7.1,0,10.6,0,16.7c-3.1,1.9-5.7-1.3-5.7-1.3s2.7-5.4,0-15.9C198.1,185.7,197.1,168.8,197.9,163.9z"/>
		</g>
		<g>
			<path class="st30" d="M210.2,158.6c0,0,0.4,1,0.6,1.6c-8.5,7.5-13,3.8-13,3.8l0.2-2.7L210.2,158.6z"/>
		</g>
		<g>
			<path class="st37" d="M210.9,144.8c0.6-2.2,2-4.6,4-3.6c1.6,0.8,1.9,3.5,0.7,5.4s-2.6,4.2-3.2,5.4c-0.7,1.2-3.9-1.3-3.4-2.3
				C209.5,148.6,210.3,147,210.9,144.8z"/>
		</g>
		<g>
			<path class="st36" d="M203.5,145.9l1.3-3.2l9.2-1.2l0.5,0.3c0,0,1.3,1,1.2,4.6c0,1.9-3,7.4-3.4,12.1c0.9,4.7,1.9,7.6,1.6,8.2
				c-0.5,1.2-13.4,8.9-16.7,4.1c-0.2-10,2-16.7,1.7-17.5c0,0-1.9-0.8-1.5-2.9C198,148,203.5,145.9,203.5,145.9z"/>
		</g>
		<g>
			<path class="st30" d="M201.2,131.7c0.5-1.4,1.6-3.3,4.9-3c7.6-1.6,9.1,12.3,9.1,12.3s0.7,3.1-3.4,4.2c0.4-1.1,0-1.4,0-1.4
				s-1.6,2.4-5.7,2.6c0.5-1.3-0.8-1.8-0.8-1.8s-2,1.8-3.2,1.5C202.4,141.5,200.7,133.1,201.2,131.7z"/>
		</g>
		<g>
			<path d="M209.5,130.2c-1.1-0.7-3.4-1.5-3.4-1.5S208.8,129,209.5,130.2z"/>
		</g>
		<g>
			<path class="st6" d="M192.7,154.4c0,0-1.9-2.4-1.6-3.5c0.3-1.1,1.6-2.9,2-2.8c0.5,0.1,0,1.5,0,1.5s0.5,1.3,0.9,1.3s0.6-1.2,1-1.1
				c0.4,0.1,0.4,1.3,0.2,2s-0.5,1.5-0.6,1.6L192.7,154.4z"/>
		</g>
		<g>
			<path class="st6" d="M194.7,153.4c0.3,1,1.8,2.8,2.4,3.6l0.4-0.5l0.8-0.5l1.8,0.6l0.5,1.9c0,0-1.7,3.6-2.4,3.9
				c-0.8,0.2-2,0.1-3-1c-1-1-2.6-7.1-2.6-7.1s0-0.4,0.7-0.8C194.1,153.2,194.7,153.4,194.7,153.4z"/>
		</g>
		<g>
			<path class="st37" d="M199.4,151.5c0.6-2.2,2-4.6,4-3.6c1.6,0.8,1.9,3.5,0.7,5.4s-2.6,4.2-3.2,5.4c-0.7,1.2-3.9-1.3-3.4-2.4
				C198,155.3,198.8,153.7,199.4,151.5z"/>
		</g>
	</g>
	<g>
		<g>
			<path class="st6" d="M27.2,99.3C28,100.1,26,102,26,102s-0.8,2.2-1.2,2.3c-0.4,0-2.4-1.8-2.4-1.8s0.8-1.7,1.3-2.2
				C24.1,99.8,26.3,98.5,27.2,99.3z"/>
		</g>
		<g>
			<path class="st6" d="M26.7,101.9c0.1,0.2-0.8,1.1-1.4,1.4s-0.7-0.2-0.8-0.4c-0.1-0.2,0.3-0.6,0.9-0.9
				C26,101.7,26.6,101.7,26.7,101.9z"/>
		</g>
		<g>
			<path class="st38" d="M18,159.7c0,0-1.8,2.4-2.3,3s-0.9,1.9-1.6,2.8c-0.6,0.8-2,0.3-2.3-0.3s0.2-2.3,0-4.9
				c0.1-0.3,3.1-1.6,3.1-1.6s1.4-0.8,2.5-0.5S18,159.7,18,159.7z"/>
		</g>
		<g>
			<path class="st39" d="M20.7,127.5c-2,8.1-6,16.2-5.5,17.3c-0.1,7.4-0.9,9.7,0,15.1c0.3,1.8-3.2,2.3-3.6,0.3
				c-0.6-4.6-3.4-9.2-1.6-16.7c1.4-5.6-0.4-13.1,0.3-21.6C10.9,121.4,20.6,126.1,20.7,127.5z"/>
		</g>
		<g>
			<path class="st38" d="M30.8,161.1c0.7,0.5,0.8,2.2-1,2.7c-1.8,0.6-9,1.3-9.7,0.9c-0.7-0.4-0.5-3.1-0.5-3.1s4.6-1.6,5.8-1.3
				C28.1,161,30.1,160.6,30.8,161.1z"/>
		</g>
		<g>
			<path class="st39" d="M25.3,144.1c-2.7,10.7,0,16.1,0,16.1s-2.6,3.2-5.8,1.3c0-6.2-2.5-9.7,0-16.9c0.1-1-2.2-15.9-2.2-15.9
				s-7-2-7-6.1c0-2.6,2.6-7,2.6-7l5.3,2.4c0,0,4.6,1.5,7.9,1.4C27,124.4,25.9,141.5,25.3,144.1z"/>
		</g>
		<g>
			<path class="st30" d="M26,116.8l0.2,2.7c0,0-4.6,3.8-13.2-3.9c0.2-0.6,0.6-1.6,0.6-1.6L26,116.8z"/>
		</g>
		<g>
			<path class="st40" d="M14.9,105c0.5,1-2.7,3.6-3.4,2.3c-0.6-1.2-2-3.6-3.2-5.5S7.4,97.1,9,96.3c2-1,3.4,1.4,4.1,3.7
				C13.6,102.3,14.4,103.9,14.9,105z"/>
		</g>
		<g>
			<path class="st38" d="M26.6,105.7c0.4,2.1-1.5,2.9-1.5,2.9c-0.3,0.8,1.9,7.6,1.7,17.8c-3.3,4.9-16.4-2.9-16.9-4.2
				c-0.3-0.6,0.7-3.6,1.6-8.3c-0.4-4.7-3.4-10.3-3.4-12.2C8,98,9.3,97,9.3,97l0.5-0.3l9.3,1.2l1.3,3.2
				C20.5,101.1,26,103.3,26.6,105.7z"/>
		</g>
		<g>
			<path class="st30" d="M21.9,101.4c-1.2,0.3-3.2-1.5-3.2-1.5s-1.3,0.5-0.8,1.8c-4.2-0.2-5.8-2.6-5.8-2.6s-0.4,0.3,0,1.4
				c-4.2-1.2-3.5-4.3-3.5-4.3s1.5-14.1,9.2-12.5c3.3-0.3,4.5,1.6,5,3C23.3,88.2,21.6,96.7,21.9,101.4z"/>
		</g>
		<g>
			<path d="M17.8,83.7c0,0-2.3,0.8-3.4,1.5C15.1,84,17.8,83.7,17.8,83.7z"/>
		</g>
		<g>
			<path class="st6" d="M29.5,108.8c-0.1-0.1-0.4-0.9-0.6-1.6s-0.2-1.9,0.2-2s0.6,1.1,1,1.1S31,105,31,105s-0.5-1.4,0-1.5
				c0.4-0.1,1.7,1.7,2,2.8c0.3,1.1-1.6,3.6-1.6,3.6L29.5,108.8z"/>
		</g>
		<g>
			<path class="st6" d="M30.8,108.9c0.7,0.4,0.7,0.8,0.7,0.8s-1.6,6.2-2.6,7.2c-1,1.1-2.2,1.2-3,1c-0.7-0.3-2.4-4-2.4-4L24,112
				l1.8-0.6l0.8,0.5l0.4,0.5c0.6-0.8,2.1-2.6,2.4-3.7C29.4,108.8,30,108.6,30.8,108.9z"/>
		</g>
		<g>
			<path class="st40" d="M26.5,111.7c0.5,1.1-2.7,3.7-3.4,2.4c-0.6-1.2-2-3.6-3.2-5.5s-0.9-4.7,0.7-5.5c2-1,3.4,1.4,4.1,3.7
				C25.2,109.1,26,110.7,26.5,111.7z"/>
		</g>
	</g>
	<path class="st41" d="M57.8,141.4c0.3,0.5,0.8,0.3,0.8,0.3c0-4.7,6.8-1.4,7.1-4c0.6-4.3-8.5-7.7-8.5-4.3c-3.7-0.9-6.3,9.1-0.8,11.8
		"/>
	<g>
		<path class="st42" d="M162.3,221c0,0,0.6,2,2.5,4.1l1.7-0.4v-1.4L162.3,221z"/>
		<path class="st43" d="M162.3,221c-0.1-0.2-0.1-0.5,0.1-0.7c0.1-0.1,0.3-0.3,0.5-0.2c0.6,0.1,3.4,1.5,3.4,1.5s0.8,2.3-0.2,2.6
			C165,224.5,163.9,224.5,162.3,221z"/>
		<path class="st42" d="M154.9,225.1c0,0-0.5,0.5,0.2,1.1c0.7,0.5,5,1.3,5,1.3l1.2-0.8l-0.1-3.2L154.9,225.1z"/>
		<path class="st43" d="M161.1,223.8c-0.7-0.7-2.1-1.2-2.9-0.5c-1.4,1.2-3.2,0.9-3.4,2c-0.1,0.7,3.1,1.3,4.9,1.3c0,0,0,0,0.1,0
			c0.7,0,1.3-0.6,1.3-1.3L161.1,223.8z"/>
		<g>
			<path class="st6" d="M169.3,159l5.3,22.2c0.1,0.5,0.7,0.8,1.3,0.8c0.6-0.1,0.9-0.5,0.9-0.9l-2.7-22.4c-0.1-1.1-1.3-1.9-2.6-1.9
				s-2.3,0.9-2.1,2C169.3,158.9,169.3,159,169.3,159z"/>
			<path class="st44" d="M174.4,161.7l0.1,0.5c0,0-1,1.1-4.4,0.3l-0.2-0.9L174.4,161.7z"/>
			<path class="st45" d="M169.4,161.7c1.6,1,5.1,0.8,5.8-0.4l-1.2-6.1c-0.3-1.2-1.8-2-3.4-1.8c-1.7,0.2-2.9,1.4-2.6,2.6L169.4,161.7
				z"/>
			<g>
				<polygon class="st6" points="174.5,180.5 174.9,182.9 176.2,183.4 177.1,183.6 178,183.7 176.7,180.3 175.6,180.1 				"/>
				<g>
					<path class="st6" d="M176,184.9c0.1,0,0.1,0,0.2-0.1c0.2-0.1,0.2-0.3,0.1-0.5c-0.4-0.5-0.5-1.6-0.5-1.9c0-0.2-0.2-0.4-0.4-0.4
						s-0.4,0.1-0.4,0.3s-0.1,1.6,0.7,2.4C175.7,184.9,175.8,184.9,176,184.9z"/>
				</g>
				<g>
					<path class="st6" d="M174.7,183.5c0.1,0,0.3-0.1,0.3-0.2c0.4-0.9,0.5-1.7,0.5-1.8c0-0.2-0.1-0.4-0.4-0.4
						c-0.2,0-0.4,0.1-0.5,0.3c0,0-0.1,0.8-0.5,1.6c-0.1,0.2,0.1,0.4,0.3,0.4C174.5,183.5,174.6,183.5,174.7,183.5z"/>
				</g>
				<g>
					<path class="st6" d="M176.9,185c0.1,0,0.2,0,0.2-0.1c0.2-0.1,0.1-0.3,0-0.5c-0.5-0.4-0.7-1.5-0.7-1.9c0-0.2-0.2-0.3-0.4-0.3
						s-0.4,0.2-0.4,0.3c0,0.2,0.2,1.6,1,2.3C176.6,185,176.8,185,176.9,185z"/>
				</g>
				<g>
					<path class="st6" d="M177.5,184.6c0.1,0,0.2,0,0.2-0.1c0.2-0.1,0.1-0.3,0-0.5c-0.5-0.4-0.7-1.5-0.7-1.9c0-0.2-0.2-0.3-0.4-0.3
						s-0.4,0.2-0.4,0.3c0,0.2,0.2,1.6,1,2.3C177.2,184.6,177.3,184.6,177.5,184.6z"/>
				</g>
				<g>
					<path class="st6" d="M178,184.1c0.1,0,0.2-0.1,0.3-0.1c0.1-0.2,0.1-0.4-0.1-0.5c-0.6-0.3-0.8-1.2-0.9-1.5
						c0-0.2-0.2-0.3-0.5-0.3c-0.2,0-0.4,0.2-0.3,0.4c0,0.1,0.3,1.5,1.3,2C177.8,184.1,177.9,184.1,178,184.1z"/>
				</g>
			</g>
		</g>
		<path class="st46" d="M160.9,179.6c0.1,1.8,0.2,3.6,0.3,5.4c0.1,1.8,0.2,3.6,0.3,5.4l0.8,10.9L164,223c0.1,0.7,0.7,1.3,1.4,1.2
			c0.6-0.1,1.1-0.6,1.2-1.2l2.4-21.7l1.2-10.8c0.2-1.8,0.3-3.6,0.5-5.4c0.1-1.8,0.3-3.6,0.4-5.4c0.2-2.8-1.9-5.2-4.7-5.4
			s-5.2,1.9-5.4,4.7C160.9,179.2,160.9,179.4,160.9,179.6z"/>
		<path class="st46" d="M155.4,180.2c0.1,1.8,0.2,3.6,0.2,5.4c0.1,1.8,0.2,3.6,0.3,5.4l0.8,10.9l1.7,21.7c0.1,0.7,0.7,1.3,1.4,1.2
			c0.6-0.1,1.1-0.6,1.2-1.2l2.4-21.7l1.2-10.8c0.2-1.8,0.3-3.6,0.5-5.4c0.1-1.8,0.3-3.6,0.4-5.4c0.2-2.8-1.9-5.2-4.7-5.4
			s-5.2,1.9-5.4,4.7C155.4,179.9,155.4,180.1,155.4,180.2z"/>
		<path class="st47" d="M164.9,187.6l5.7-2.4c0,0,1.1-6.2,0-7.7l-6.8,4L164.9,187.6z"/>
		<path class="st48" d="M158.5,156l10.2-4.3c0.3-0.1,0.6-0.1,0.8,0s0.4,0.4,0.5,0.7c0.6,3,1.7,11.4-1.2,17.3c0,0,0.9,5.7,2,7.6
			c0,0-6.2,6.7-14.9,5.2l2.5-14.3c0,0-4-4.7-0.6-8.1L158.5,156z"/>
		<g>
			<path class="st6" d="M155.4,162.6l-0.2,27.5c0,0.6,0.5,1.1,1.1,1.1s1.1-0.4,1.1-1l2.8-27.4c0.1-1.3-0.8-2.5-2.2-2.6
				c-1.3-0.1-2.5,0.8-2.6,2.2C155.5,162.4,155.4,162.5,155.4,162.6z"/>
			<path class="st44" d="M159.9,166.6l-0.1,0.6c0,0-1.3,1.2-4.4-0.3v-1.1L159.9,166.6z"/>
			<path class="st45" d="M154.8,165.8c1.4,1.5,4.9,1.6,5.9,0.3l0.3-7.6c0-1.4-1.3-2.6-2.9-2.6c-1.8,0-3.2,1.2-3.2,2.8L154.8,165.8z"
				/>
			<g>
				<polygon class="st6" points="155.2,189.3 155.1,192.2 156.3,193 157.2,193.3 158,193.7 157.5,189.3 156.5,188.9 				"/>
				<g>
					<path class="st6" d="M155.6,194.7c0.1,0,0.1,0,0.2,0c0.2-0.1,0.3-0.4,0.2-0.6c-0.3-0.6-0.1-2,0-2.4c0.1-0.2-0.1-0.4-0.3-0.5
						s-0.4,0.1-0.5,0.3s-0.5,2,0.1,3C155.4,194.7,155.5,194.7,155.6,194.7z"/>
				</g>
				<g>
					<path class="st6" d="M154.7,192.9c0.1,0,0.3-0.1,0.4-0.2c0.6-1.1,0.9-2,0.9-2.1c0.1-0.2,0-0.5-0.3-0.5c-0.2-0.1-0.5,0-0.5,0.3
						c0,0-0.3,0.9-0.9,1.9c-0.1,0.2,0,0.5,0.2,0.6C154.6,192.9,154.6,192.9,154.7,192.9z"/>
				</g>
				<g>
					<path class="st6" d="M156.5,195c0.1,0,0.2,0,0.2-0.1c0.2-0.1,0.2-0.4,0.1-0.6c-0.4-0.6-0.3-1.9-0.3-2.4c0-0.2-0.1-0.4-0.4-0.5
						c-0.2,0-0.4,0.1-0.5,0.4c0,0.2-0.2,2,0.4,2.9C156.3,195,156.4,195,156.5,195z"/>
				</g>
				<g>
					<path class="st6" d="M157.2,194.6c0.1,0,0.2,0,0.2-0.1c0.2-0.1,0.2-0.4,0.1-0.6c-0.4-0.6-0.3-1.9-0.3-2.4
						c0-0.2-0.1-0.4-0.4-0.5c-0.2,0-0.4,0.1-0.5,0.4c0,0.2-0.2,2,0.4,2.9C157,194.6,157.1,194.6,157.2,194.6z"/>
				</g>
				<g>
					<path class="st6" d="M157.9,194.1c0.1,0,0.2,0,0.3-0.1c0.2-0.2,0.2-0.4,0-0.6c-0.5-0.5-0.5-1.6-0.5-2c0-0.2-0.2-0.4-0.4-0.4
						s-0.4,0.2-0.4,0.4s-0.1,1.8,0.8,2.6C157.7,194,157.8,194.1,157.9,194.1z"/>
				</g>
			</g>
		</g>
		<path class="st49" d="M162.8,149.4l-1,4.6c0,0,0.6,1.7,2.6,1.1c2.1-0.7,1.7-1.9,1.7-1.9v-2.8L162.8,149.4z"/>
		<path class="st50" d="M162.4,151.1c0,0,0.4,1.1,3.7,1v-1.8L162.4,151.1z"/>
		<path class="st6" d="M160,144.6c-0.6,3.9-0.7,6.6,0.3,6.8c1.5,0.2,6.8,0.4,7.5-3.9c0.5-3-0.4-6.9-2.6-7.2
			C161.6,139.8,160.5,141.6,160,144.6z"/>
		<path class="st12" d="M160.2,144c0,0,1.4,0.2,1.4,2c-0.1,2-0.3,3.8-1.4,4.6c-0.7,0.5-2,1.7-1.8,3.7c0.1,2,1.5,4.3,1.1,5.2
			s-2,3.4-1.5,5.6c0.5,2.1,1.4,3.5,4.1,3.8c0.4,0,0.7,0,1.1-0.1c1.5-0.5,6.2-2,7.5-3.4c1.1-1.2,2.8-2,2.3-5c0,0,1.8-3,1.7-4.6
			s-0.2-4.1-2.7-5c0,0,1.3-2.2-0.1-5c-1.3-2.8-2.6-3.3-2.9-3.7c-0.3-0.4-0.6-3-4.9-3.4c0,0-1.6,0-2.4,0.8c0,0-0.4,0.3-0.9-0.1
			c0,0-0.3,0.7,0,1c0,0-0.5-0.2-0.6-0.3c0,0-0.1,0.4,0,0.5C160.2,140.6,158.5,143,160.2,144z"/>
	</g>
</g>
</svg>
