<?xml version="1.0" encoding="iso-8859-1"?>
<!-- Generator: Adobe Illustrator 24.0.1, SVG Export Plug-In . SVG Version: 6.00 Build 0)  -->
<svg version="1.1" id="Layer_3" xmlns="http://www.w3.org/2000/svg" xmlns:xlink="http://www.w3.org/1999/xlink" x="0px" y="0px"
	 viewBox="0 0 150 150" style="enable-background:new 0 0 150 150;" xml:space="preserve">
<g>
	<g>
		<path style="fill:#DC6200;" d="M142.623,72.93h-33.329v-4.71h8.992c1.143,0,2.07-0.927,2.07-2.07s-0.927-2.07-2.07-2.07h-8.992
			v-4.71h6.243c2.326,0,4.513-0.906,6.157-2.55l13.614-13.614c0.887,0.442,1.87,0.677,2.891,0.677c1.735,0,3.366-0.676,4.593-1.902
			c1.227-1.227,1.902-2.858,1.902-4.593c0-1.735-0.676-3.366-1.902-4.593c-1.227-1.227-2.858-1.902-4.593-1.902
			c-1.735,0-3.366,0.676-4.593,1.902c-1.227,1.227-1.902,2.858-1.902,4.593c0,1.02,0.235,2.003,0.677,2.891l-13.614,13.614
			c-0.863,0.862-2.01,1.338-3.23,1.338h-6.243v-4.567c0-6.021-4.899-10.92-10.92-10.92h-4.567V21.419
			c2.569-0.866,4.425-3.297,4.425-6.155c0-3.581-2.914-6.495-6.495-6.495c-3.581,0-6.495,2.914-6.495,6.495
			c0,2.858,1.856,5.288,4.425,6.155v18.325h-4.71v-8.992c0-1.143-0.927-2.07-2.07-2.07s-2.07,0.927-2.07,2.07v8.992h-4.71V6.414
			c0-1.143-0.927-2.07-2.07-2.07c-1.143,0-2.07,0.927-2.07,2.07v33.329h-4.71v-8.992c0-1.143-0.927-2.07-2.07-2.07
			c-1.143,0-2.07,0.927-2.07,2.07v8.992h-4.71V33.5c0-2.326-0.906-4.513-2.551-6.157L42.239,13.725
			c1.203-2.429,0.8-5.458-1.22-7.478c-2.533-2.532-6.653-2.532-9.185,0c-2.532,2.532-2.532,6.653,0,9.185
			c1.266,1.266,2.929,1.899,4.593,1.899c0.99,0,1.979-0.23,2.886-0.679L52.93,30.271c0.863,0.862,1.338,2.01,1.338,3.229v6.243
			h-4.567c-0.923,0-1.841,0.116-2.729,0.344c-1.107,0.285-1.774,1.413-1.489,2.521c0.285,1.107,1.414,1.774,2.521,1.489
			c0.551-0.142,1.121-0.214,1.697-0.214h48.674c3.738,0,6.78,3.042,6.78,6.78v48.674c0,0.575-0.072,1.145-0.213,1.695
			c-0.285,1.107,0.382,2.236,1.489,2.52c0.173,0.044,0.346,0.066,0.517,0.066c0.922,0,1.763-0.621,2.003-1.555
			c0.228-0.887,0.344-1.804,0.344-2.726v-4.567h18.325c0.866,2.569,3.297,4.425,6.155,4.425c3.581,0,6.495-2.913,6.495-6.495
			c0-3.581-2.914-6.495-6.495-6.495c-2.858,0-5.288,1.856-6.155,4.425h-18.325v-4.71h8.992c1.143,0,2.07-0.927,2.07-2.07
			s-0.927-2.07-2.07-2.07h-8.992V77.07h33.329c1.143,0,2.07-0.927,2.07-2.07C144.693,73.857,143.766,72.93,142.623,72.93z
			 M136.533,35.723c0.445-0.445,1.036-0.69,1.665-0.69s1.22,0.245,1.665,0.69c0.445,0.445,0.69,1.036,0.69,1.665
			s-0.245,1.22-0.69,1.665c-0.445,0.445-1.036,0.69-1.665,0.69s-1.22-0.245-1.665-0.69c-0.445-0.445-0.69-1.036-0.69-1.665
			C135.843,36.759,136.088,36.168,136.533,35.723z M38.091,12.505c-0.918,0.918-2.412,0.918-3.33,0c-0.918-0.918-0.918-2.412,0-3.33
			c0.459-0.459,1.062-0.689,1.665-0.689c0.603,0,1.206,0.23,1.665,0.689C39.009,10.092,39.009,11.586,38.091,12.505z M91.737,17.619
			c-1.298,0-2.355-1.057-2.355-2.355s1.056-2.355,2.355-2.355c1.299,0,2.355,1.057,2.355,2.355S93.035,17.619,91.737,17.619z
			 M133.773,90.345c1.299,0,2.355,1.057,2.355,2.355c0,1.299-1.057,2.355-2.355,2.355c-1.298,0-2.355-1.057-2.355-2.355
			C131.418,91.401,132.475,90.345,133.773,90.345z"/>
	</g>
</g>
<g>
	<g>
		<path style="fill:#DC6200;" d="M116.241,134.568c-2.02-2.02-5.049-2.424-7.478-1.22l-13.619-13.619
			c-0.863-0.863-1.338-2.01-1.338-3.229v-6.243h4.567c0.923,0,1.841-0.116,2.729-0.344c1.107-0.285,1.774-1.413,1.489-2.521
			c-0.285-1.107-1.413-1.774-2.521-1.489c-0.55,0.142-1.121,0.213-1.697,0.213H49.7c-3.738,0-6.78-3.042-6.78-6.78V50.663
			c0-0.575,0.072-1.146,0.213-1.696c0.285-1.107-0.381-2.236-1.488-2.521c-1.107-0.285-2.236,0.381-2.521,1.488
			c-0.229,0.887-0.344,1.805-0.344,2.729v4.567H20.456c-0.866-2.569-3.297-4.425-6.155-4.425c-3.581,0-6.495,2.913-6.495,6.495
			s2.914,6.495,6.495,6.495c2.858,0,5.288-1.856,6.155-4.425H38.78v4.71h-8.992c-1.143,0-2.07,0.927-2.07,2.07s0.927,2.07,2.07,2.07
			h8.992v4.71H5.451c-1.143,0-2.07,0.927-2.07,2.07c0,1.143,0.927,2.07,2.07,2.07H38.78v4.71h-8.992c-1.143,0-2.07,0.927-2.07,2.07
			s0.927,2.07,2.07,2.07h8.992v4.71h-6.243c-2.326,0-4.513,0.906-6.157,2.55l-13.614,13.614c-0.887-0.442-1.87-0.677-2.891-0.677
			c-1.735,0-3.366,0.676-4.593,1.902c-1.226,1.227-1.902,2.858-1.902,4.593s0.676,3.366,1.902,4.593
			c1.227,1.227,2.858,1.902,4.593,1.902s3.366-0.676,4.593-1.902c1.227-1.227,1.902-2.858,1.902-4.593
			c0-1.02-0.235-2.003-0.677-2.891l13.614-13.614c0.862-0.863,2.01-1.338,3.23-1.338h6.243v4.567c0,6.021,4.899,10.92,10.92,10.92
			h4.567v18.325c-2.569,0.866-4.425,3.297-4.425,6.155c0,3.581,2.914,6.495,6.495,6.495c3.581,0,6.495-2.914,6.495-6.495
			c0-2.858-1.856-5.288-4.425-6.155v-18.325h4.71v8.992c0,1.143,0.927,2.07,2.07,2.07s2.07-0.927,2.07-2.07v-8.992h4.709v33.33
			c0,1.143,0.927,2.07,2.07,2.07c1.143,0,2.07-0.927,2.07-2.07v-33.329h4.71v8.992c0,1.143,0.927,2.07,2.07,2.07
			s2.07-0.927,2.07-2.07v-8.992h4.71v6.243c0,2.326,0.906,4.513,2.551,6.157l13.619,13.619c-1.203,2.429-0.8,5.458,1.22,7.478
			c1.266,1.266,2.929,1.899,4.593,1.899c1.663,0,3.327-0.633,4.593-1.899C118.774,141.221,118.774,137.101,116.241,134.568z
			 M14.301,59.655c-1.299,0-2.355-1.057-2.355-2.355c0-1.299,1.057-2.355,2.355-2.355s2.355,1.057,2.355,2.355
			C16.656,58.599,15.6,59.655,14.301,59.655z M11.541,114.277c-0.445,0.445-1.036,0.69-1.665,0.69s-1.22-0.245-1.665-0.69
			c-0.445-0.445-0.69-1.036-0.69-1.665s0.245-1.22,0.69-1.665c0.445-0.445,1.036-0.69,1.665-0.69s1.22,0.245,1.665,0.69
			c0.445,0.445,0.69,1.036,0.69,1.665S11.986,113.832,11.541,114.277z M58.692,134.736c0,1.298-1.056,2.355-2.355,2.355
			c-1.299,0-2.355-1.057-2.355-2.355s1.057-2.355,2.355-2.355C57.636,132.381,58.692,133.438,58.692,134.736z M113.314,140.826
			c-0.918,0.918-2.412,0.918-3.33,0c-0.918-0.918-0.918-2.412,0-3.33c0.459-0.459,1.062-0.689,1.665-0.689s1.206,0.23,1.665,0.689
			C114.232,138.414,114.232,139.908,113.314,140.826z"/>
	</g>
</g>
<g>
	<g>
		<path style="fill:#DC6200;" d="M96.019,69.469c0-4.427-3.238-8.177-7.671-9.396c0.131-0.541,0.204-1.098,0.204-1.667
			c0-4.191-3.72-7.601-8.292-7.601c-2.477,0-4.702,1.002-6.222,2.585c-1.521-1.583-3.746-2.585-6.222-2.585
			c-4.572,0-8.292,3.41-8.292,7.601c0,0.569,0.073,1.126,0.204,1.667c-4.433,1.218-7.671,4.968-7.671,9.396
			c0,2.164,0.766,4.205,2.18,5.891c-1.383,1.79-2.18,3.964-2.18,6.278c-0.001,3.52,1.88,6.806,4.978,8.844c0,0.002,0,0.003,0,0.005
			c0,4.801,4.278,8.708,9.537,8.708c3.022,0,5.718-1.291,7.467-3.3c1.748,2.009,4.445,3.3,7.467,3.3c5.061,0,9.212-3.618,9.517-8.17
			c3.074-1.784,4.998-4.908,4.998-8.281c0-2.481-1.058-4.848-2.879-6.637C94.961,74.317,96.019,71.95,96.019,69.469z M88.693,77.937
			c1.995,1.053,3.185,2.85,3.185,4.807c0,1.459-0.678,2.851-1.824,3.892c-1.088-2.015-3.012-3.619-5.442-4.383
			c-1.09-0.343-2.252,0.264-2.595,1.354c-0.343,1.091,0.264,2.253,1.354,2.595c2.11,0.663,3.528,2.385,3.528,4.285
			c0,2.519-2.421,4.568-5.397,4.568c-2.976,0-5.397-2.049-5.397-4.568V77.213c0-2.518,2.421-4.567,5.397-4.567
			c1.143,0,2.07-0.927,2.07-2.07s-0.927-2.07-2.07-2.07c-2.002,0-3.861,0.567-5.397,1.534v-2.644c0-1.143-0.927-2.07-2.07-2.07
			c-1.143,0-2.07,0.927-2.07,2.07v11.492c-0.697-0.437-1.461-0.799-2.287-1.059c-1.091-0.343-2.253,0.264-2.595,1.354
			c-0.343,1.091,0.264,2.253,1.354,2.595c2.11,0.663,3.528,2.385,3.528,4.285v4.425c0,2.518-2.421,4.568-5.397,4.568
			c-2.976,0-5.397-2.049-5.397-4.568c0-1.079,0.458-2.129,1.288-2.955c0.811-0.806,0.815-2.117,0.009-2.928
			c-0.806-0.811-2.116-0.815-2.927-0.009c-0.496,0.493-0.923,1.032-1.278,1.605c-1.307-1.236-2.07-2.863-2.07-4.564
			c0-3.067,2.407-5.761,5.853-6.552c1.114-0.256,1.81-1.366,1.555-2.48c-0.256-1.114-1.366-1.81-2.48-1.555
			c-1.387,0.318-2.665,0.85-3.797,1.547c-0.734-0.922-1.13-2.003-1.13-3.128c0.001-3.114,2.952-5.648,6.591-5.672
			c0.018,0.001,0.037,0.003,0.055,0.003c0.473,0,0.948-0.161,1.336-0.49c0.794-0.672,0.953-1.812,0.42-2.669
			c-0.016-0.025-0.03-0.051-0.047-0.076c-0.009-0.012-0.019-0.024-0.028-0.037c-0.032-0.045-0.065-0.089-0.1-0.132
			c-0.001-0.001-0.002-0.003-0.003-0.004c-0.345-0.408-0.757-1.084-0.757-1.985c0-1.909,1.863-3.461,4.152-3.461
			s4.152,1.553,4.152,3.461c0,1.143,0.927,2.07,2.07,2.07c1.143,0,2.07-0.927,2.07-2.07c0-1.909,1.863-3.461,4.152-3.461
			s4.152,1.553,4.152,3.461c0,0.51-0.134,0.945-0.31,1.303c-1.177,0.111-2.316,0.396-3.397,0.852
			c-1.053,0.444-1.547,1.658-1.103,2.712c0.444,1.053,1.658,1.548,2.712,1.103c0.895-0.377,1.857-0.571,2.862-0.579
			c0.02,0.001,0.039,0.002,0.059,0.002c0.018,0,0.037-0.002,0.055-0.003c3.639,0.024,6.59,2.559,6.59,5.672
			c0,1.957-1.191,3.754-3.185,4.807c-0.679,0.358-1.104,1.063-1.104,1.831C87.589,76.874,88.014,77.579,88.693,77.937z"/>
	</g>
</g>
</svg>
