<?xml version="1.0" encoding="iso-8859-1"?>
<!-- Generator: Adobe Illustrator 24.0.1, SVG Export Plug-In . SVG Version: 6.00 Build 0)  -->
<svg version="1.1" id="Layer_3" xmlns="http://www.w3.org/2000/svg" xmlns:xlink="http://www.w3.org/1999/xlink" x="0px" y="0px"
	 viewBox="0 0 150 150" style="enable-background:new 0 0 150 150;" xml:space="preserve">
<g>
	<path style="fill:#DC6200;" d="M104.726,65.232L77.723,92.236H67.144v-4.613h-0.06c4.447-3.328,7.672-8.205,8.82-13.84h0.466
		c5.088,0,9.226-4.138,9.226-9.226c0-2.32-0.888-4.417-2.307-6.039v-7.801c0-16.534-13.452-29.986-29.986-29.986
		S23.319,34.183,23.319,50.717v7.801c-1.419,1.622-2.307,3.718-2.307,6.039c0,5.088,4.138,9.226,9.226,9.226h0.466
		c1.149,5.635,4.373,10.511,8.82,13.84h-0.06v4.613H27.932c-12.719,0-23.066,10.347-23.066,23.066v27.679
		c0,1.276,1.031,2.307,2.307,2.307h92.264c1.276,0,2.307-1.031,2.307-2.307v-27.679c0-10.998-7.743-20.208-18.061-22.503
		l23.629-23.629h40.564v-4.613h-41.519C105.743,64.556,105.157,64.798,104.726,65.232z M40.69,96.849l8.977,10.772l-8.855,4.426
		l-5.068-15.198L40.69,96.849z M52.89,122.222h0.833l3.691,18.453h-8.214L52.89,122.222z M54.186,117.608h-1.762l-2.482-4.966
		l3.363-1.682l3.363,1.682L54.186,117.608z M56.942,107.621l8.977-10.772h4.945l-5.068,15.201L56.942,107.621z M76.371,69.169
		v-9.226c2.544,0,4.613,2.069,4.613,4.613C80.984,67.1,78.915,69.169,76.371,69.169z M25.625,64.556
		c0-2.544,2.069-4.613,4.613-4.613v9.226C27.695,69.169,25.625,67.1,25.625,64.556z M30.239,55.33c-0.8,0-1.564,0.134-2.307,0.328
		v-4.941c0-13.99,11.383-25.373,25.373-25.373s25.373,11.383,25.373,25.373v4.941c-0.743-0.194-1.506-0.328-2.307-0.328
		c0-1.276-1.031-2.307-2.307-2.307c-3.61,0-7.061-1.725-9.226-4.616l-2.768-3.691c-0.87-1.158-2.821-1.158-3.691,0l-2.768,3.693
		c-2.166,2.888-5.617,4.613-9.226,4.613h-13.84C31.27,53.023,30.239,54.054,30.239,55.33L30.239,55.33z M34.852,69.169V57.636
		h11.533c5.054,0,9.884-2.415,12.917-6.459l0.923-1.232l0.923,1.229c2.567,3.423,6.419,5.681,10.61,6.292v11.701
		c0,10.174-8.278,18.453-18.453,18.453S34.852,79.344,34.852,69.169L34.852,69.169z M53.305,92.236c3.28,0,6.399-0.699,9.226-1.94
		v3.411l-9.226,11.072l-9.226-11.072v-3.411C46.906,91.537,50.025,92.236,53.305,92.236z M9.479,115.302
		c0-10.174,8.278-18.453,18.453-18.453h2.952l6.394,19.182c0.21,0.632,0.687,1.144,1.303,1.4c0.284,0.12,0.584,0.178,0.883,0.178
		c0.353,0,0.708-0.081,1.031-0.242l5.317-2.66l2.766,5.534l-4.085,20.434H23.319v-13.84h-4.613v13.84H9.479V115.302z M97.13,115.302
		v25.373h-9.226v-13.84h-4.613v13.84H62.116l-4.087-20.434l2.766-5.534l5.317,2.66c0.325,0.161,0.68,0.242,1.033,0.242
		c0.3,0,0.6-0.058,0.883-0.175c0.618-0.256,1.096-0.768,1.303-1.4l6.394-19.184h2.952C88.852,96.849,97.13,105.127,97.13,115.302z"
		/>
	<path style="fill:#DC6200;" d="M143.263,55.33V23.037c0-1.276-1.031-2.307-2.307-2.307h-9.226c-1.276,0-2.307,1.031-2.307,2.307
		V55.33h-4.613V36.877c0-1.276-1.031-2.307-2.307-2.307h-9.226c-1.276,0-2.307,1.031-2.307,2.307V55.33h-4.613V43.797
		c0-1.276-1.031-2.307-2.307-2.307h-9.226c-1.276,0-2.307,1.031-2.307,2.307V55.33h-4.613v4.613h59.972V55.33H143.263z
		 M134.036,25.344h4.613V55.33h-4.613V25.344z M115.583,39.184h4.613V55.33h-4.613V39.184z M97.13,46.103h4.613v9.226H97.13V46.103z
		"/>
	<path style="fill:#DC6200;" d="M109.618,16.117h12.885c0.614,0,1.199-0.242,1.631-0.676l5.289-5.289v5.965h4.613V4.584
		c0-1.276-1.031-2.307-2.307-2.307h-11.533v4.613h5.965l-4.613,4.613h-12.885c-0.614,0-1.199,0.242-1.631,0.676l-13.84,13.84
		l3.262,3.262L109.618,16.117z"/>
</g>
</svg>
