<?xml version="1.0" encoding="iso-8859-1"?>
<!-- Generator: Adobe Illustrator 24.0.1, SVG Export Plug-In . SVG Version: 6.00 Build 0)  -->
<svg version="1.1" id="Layer_3" xmlns="http://www.w3.org/2000/svg" xmlns:xlink="http://www.w3.org/1999/xlink" x="0px" y="0px"
	 viewBox="0 0 150 150" style="enable-background:new 0 0 150 150;" xml:space="preserve">
<path style="fill:#DC6200;" d="M92.051,95.387h-0.679c-2.003,0.002-3.944,0.695-5.496,1.962L68.06,111.928
	c-0.509-2.839-2.58-5.146-5.347-5.958l-16.506-4.949c-2.164-0.65-4.411-0.982-6.67-0.983h-0.572
	c-4.112,0.004-8.149,1.098-11.701,3.169L4.249,116.629c-0.717,0.414-1.16,1.178-1.162,2.006v25.573c0,1.284,1.041,2.324,2.325,2.324
	c0.332,0,0.66-0.071,0.962-0.209l25.115-11.415H68.18c0.55,0,1.082-0.194,1.502-0.549l27.974-23.669
	c3.658-3.099,4.111-8.577,1.012-12.235C97.021,96.511,94.601,95.389,92.051,95.387z M94.653,107.141L67.33,130.259H30.984
	c-0.332,0-0.66,0.072-0.962,0.209L7.736,140.597v-20.626l21.853-12.751c2.846-1.659,6.081-2.533,9.376-2.534h0.572
	c1.811,0,3.612,0.265,5.347,0.786l16.506,4.952c1.591,0.475,2.496,2.149,2.021,3.74c-0.381,1.275-1.555,2.149-2.886,2.146H44.933
	v4.65h18.598c0.536,0,1.056-0.186,1.472-0.525l23.817-19.486c0.722-0.589,1.625-0.911,2.557-0.911h0.679
	c2.225,0,4.028,1.805,4.028,4.03c0,1.185-0.522,2.31-1.427,3.075H94.653z"/>
<path style="fill:#DC6200;" d="M146.159,2.765c-0.665-0.428-1.503-0.489-2.223-0.16L118.821,14.02H82.129
	c-0.55,0-1.082,0.195-1.502,0.551L52.653,38.242c-3.658,3.095-4.114,8.57-1.019,12.227c1.649,1.949,4.072,3.072,6.624,3.072h0.679
	c2.003-0.001,3.944-0.694,5.496-1.96L82.25,37.002c0.509,2.839,2.58,5.146,5.347,5.958l16.506,4.952
	c2.164,0.649,4.411,0.979,6.67,0.979h0.572c4.115-0.001,8.157-1.093,11.712-3.166l23.015-13.423
	c0.713-0.417,1.152-1.182,1.151-2.009V4.72C147.224,3.93,146.823,3.194,146.159,2.765z M142.574,28.959L120.721,41.71
	c-2.846,1.659-6.082,2.532-9.376,2.532h-0.572c-1.811,0.001-3.612-0.263-5.347-0.783L88.92,38.507
	c-1.591-0.479-2.492-2.157-2.013-3.748c0.383-1.27,1.551-2.139,2.878-2.141h15.592v-4.65H86.779
	c-0.537,0.001-1.057,0.187-1.472,0.528L61.49,47.982c-0.722,0.588-1.626,0.909-2.557,0.909h-0.679
	c-2.225-0.002-4.027-1.807-4.025-4.032c0.001-1.183,0.522-2.305,1.424-3.07l27.328-23.12h36.346c0.332,0.001,0.66-0.07,0.962-0.207
	l22.285-10.131V28.959z"/>
<path style="fill:#DC6200;" d="M63.531,76.789L63.531,76.789v-4.65l0,0c1.284,0,2.325,1.041,2.325,2.325h4.65
	c0-3.852-3.123-6.974-6.974-6.974l0,0v-2.325h-4.65v2.325l0,0c-3.852,0-6.974,3.123-6.974,6.974s3.123,6.974,6.974,6.974l0,0v4.65
	l0,0c-1.284,0-2.325-1.041-2.325-2.325h-4.65c0,3.852,3.123,6.974,6.974,6.974l0,0v2.325h4.65v-2.325l0,0
	c3.852,0,6.974-3.123,6.974-6.974C70.505,79.911,67.383,76.789,63.531,76.789z M58.881,76.789L58.881,76.789
	c-1.284,0-2.325-1.041-2.325-2.325c0-1.284,1.041-2.325,2.325-2.325l0,0V76.789z M63.531,86.088L63.531,86.088v-4.65l0,0
	c1.284,0,2.325,1.041,2.325,2.325S64.815,86.088,63.531,86.088z"/>
<path style="fill:#DC6200;" d="M89.104,46.567c-7.972-0.008-15.386,4.094-19.614,10.852c-11.988-4.598-25.433,1.393-30.031,13.381
	s1.393,25.433,13.381,30.031c10.356,3.972,22.076,0.075,27.991-9.307c2.64,1.018,5.445,1.539,8.274,1.539
	c12.839,0,23.248-10.408,23.248-23.248S101.943,46.567,89.104,46.567z M61.206,97.712c-10.272,0-18.598-8.327-18.598-18.598
	s8.327-18.598,18.598-18.598s18.598,8.327,18.598,18.598C79.793,89.38,71.473,97.7,61.206,97.712z M89.104,88.413
	c-2.107,0.005-4.2-0.352-6.186-1.055c0.782-2.046,1.267-4.193,1.441-6.377c0.773,0.296,1.592,0.451,2.42,0.458l0,0v2.325h4.65
	v-2.325l0,0c3.852,0,6.974-3.123,6.974-6.974s-3.123-6.974-6.974-6.974l0,0v-4.65l0,0c1.284,0,2.325,1.041,2.325,2.325h4.65
	c0-3.852-3.123-6.974-6.974-6.974l0,0v-2.325h-4.65v2.325l0,0c-3.852,0-6.974,3.123-6.974,6.974c0,0.023,0,0.044,0,0.067
	c-1.693-2.265-3.782-4.205-6.165-5.726c5.693-8.55,17.239-10.865,25.788-5.172c8.55,5.693,10.865,17.239,5.172,25.788
	C101.148,85.306,95.331,88.418,89.104,88.413z M86.779,72.139L86.779,72.139v4.65l0,0c-1.284,0-2.325-1.041-2.325-2.325h-0.465
	c-0.249-1.188-0.593-2.354-1.028-3.487C84.092,71.73,85.42,72.135,86.779,72.139z M84.454,65.165c0-1.284,1.041-2.325,2.325-2.325
	l0,0v4.65l0,0C85.495,67.49,84.454,66.449,84.454,65.165z M91.428,76.789v-4.65l0,0c1.284,0,2.325,1.041,2.325,2.325
	C93.753,75.748,92.712,76.789,91.428,76.789z"/>
</svg>
