<?xml version="1.0" encoding="iso-8859-1"?>
<!-- Generator: Adobe Illustrator 24.0.1, SVG Export Plug-In . SVG Version: 6.00 Build 0)  -->
<svg version="1.1" id="Layer_3" xmlns="http://www.w3.org/2000/svg" xmlns:xlink="http://www.w3.org/1999/xlink" x="0px" y="0px"
	 viewBox="0 0 150 150" style="enable-background:new 0 0 150 150;" xml:space="preserve">
<path style="fill:#DC6200;" d="M74.679,41.381c-1.554,0-2.815,1.261-2.815,2.815s1.261,2.815,2.815,2.815s2.815-1.261,2.815-2.815
	S76.233,41.381,74.679,41.381z"/>
<path style="fill:#DC6200;" d="M27.946,92.055c1.554,0,2.815-1.261,2.815-2.815s-1.261-2.815-2.815-2.815
	c-1.554,0-2.815,1.261-2.815,2.815S26.392,92.055,27.946,92.055z"/>
<path style="fill:#DC6200;" d="M97.2,13.229c-25.345,0-46.146,17.474-47.755,39.484C25.308,53.924,2.609,71.329,2.609,94.87
	c0,9.838,3.893,19.37,10.979,26.923c1.402,5.78-0.3,11.906-4.524,16.13c-0.805,0.805-1.046,2.016-0.61,3.068
	c0.435,1.051,1.461,1.738,2.601,1.738c8.029,0,15.766-3.148,21.515-8.696c5.601,1.909,12.908,3.066,19.587,3.066
	c25.341,0,46.141-17.47,47.754-39.476c5.894-0.262,12.025-1.35,16.876-3.003c5.749,5.548,13.487,8.696,21.515,8.696
	c1.139,0,2.165-0.686,2.601-1.738c0.435-1.052,0.195-2.263-0.61-3.068c-4.224-4.224-5.926-10.35-4.524-16.13
	c7.086-7.553,10.979-17.085,10.979-26.923C146.748,30.997,122.301,13.229,97.2,13.229z M52.157,131.468
	c-6.644,0-14.216-1.304-19.287-3.322c-1.086-0.433-2.328-0.148-3.119,0.715c-3.399,3.716-7.819,6.307-12.634,7.498
	c2.654-5.084,3.331-11.077,1.717-16.756c-0.128-0.448-0.364-0.857-0.688-1.19c-6.387-6.578-9.905-14.939-9.905-23.542
	c0-19.838,20.111-36.598,43.917-36.598c22.48,0,42.228,15.632,42.228,36.598C94.385,115.05,75.442,131.468,52.157,131.468z
	 M131.213,78.999c-0.324,0.334-0.561,0.743-0.688,1.19c-1.614,5.679-0.937,11.672,1.717,16.756
	c-4.816-1.19-9.235-3.782-12.634-7.498c-0.791-0.862-2.032-1.148-3.119-0.715c-4.395,1.749-10.666,2.959-16.586,3.252
	C99.08,81.338,93.769,71.332,84.69,63.903h36.721c1.555,0,2.815-1.26,2.815-2.815c0-1.555-1.26-2.815-2.815-2.815h-45.37
	c-6.39-3.253-13.566-5.15-20.951-5.548c1.618-18.908,19.887-33.865,42.11-33.865c23.806,0,43.917,16.759,43.917,36.598
	C141.118,64.06,137.6,72.421,131.213,78.999z"/>
<path style="fill:#DC6200;" d="M74.679,86.424H39.207c-1.555,0-2.815,1.26-2.815,2.815s1.26,2.815,2.815,2.815h35.472
	c1.555,0,2.815-1.26,2.815-2.815S76.234,86.424,74.679,86.424z"/>
<path style="fill:#DC6200;" d="M74.679,103.316H27.946c-1.555,0-2.815,1.26-2.815,2.815c0,1.555,1.26,2.815,2.815,2.815h46.732
	c1.555,0,2.815-1.26,2.815-2.815C77.494,104.576,76.234,103.316,74.679,103.316z"/>
<path style="fill:#DC6200;" d="M121.411,41.381H85.94c-1.555,0-2.815,1.26-2.815,2.815s1.26,2.815,2.815,2.815h35.472
	c1.555,0,2.815-1.26,2.815-2.815S122.966,41.381,121.411,41.381z"/>
</svg>
