<?xml version="1.0" encoding="iso-8859-1"?>
<!-- Generator: Adobe Illustrator 24.0.1, SVG Export Plug-In . SVG Version: 6.00 Build 0)  -->
<svg version="1.1" id="Layer_3" xmlns="http://www.w3.org/2000/svg" xmlns:xlink="http://www.w3.org/1999/xlink" x="0px" y="0px"
	 viewBox="0 0 150 150" style="enable-background:new 0 0 150 150;" xml:space="preserve">
<g id="Outline_43_">
	<path style="fill:#DC6200;" d="M134.149,66.95l-11.252-16.878H98.816l1.57-10.098H90.111
		c-1.059-10.693-10.105-19.073-21.072-19.073s-20.012,8.38-21.072,19.073H21.917v4.207h26.051
		c1.059,10.693,10.105,19.073,21.072,19.073s20.012-8.38,21.072-19.073h5.363l-7.761,49.927H48.414
		c-7.708-11.975-25.11-11.947-32.8,0H2.984v12.622h9.652c1.053,9.763,9.341,17.39,19.379,17.39s18.326-7.627,19.379-17.39h40.06
		c1.053,9.763,9.341,17.39,19.379,17.39s18.326-7.627,19.379-17.39h16.384c0-3.863,0-23.046,0-26.226
		C146.595,73.394,141.11,67.54,134.149,66.95z M69.039,59.048c-9.357,0-16.97-7.613-16.97-16.97s7.612-16.97,16.97-16.97
		s16.97,7.613,16.97,16.97S78.396,59.048,69.039,59.048z M12.636,102.524H7.191v-4.207h6.384
		C13.114,99.66,12.793,101.067,12.636,102.524z M32.014,119.914c-8.429,0-15.287-6.857-15.287-15.287s6.858-15.287,15.287-15.287
		s15.287,6.857,15.287,15.287S40.443,119.914,32.014,119.914z M108.126,54.28h12.519l8.415,12.622h-23.037L108.126,54.28z
		 M91.453,102.524h-40.06c-0.157-1.457-0.478-2.864-0.939-4.207h41.938C91.931,99.66,91.61,101.067,91.453,102.524z
		 M110.832,119.914c-8.429,0-15.287-6.857-15.287-15.287s6.858-15.287,15.287-15.287s15.287,6.857,15.287,15.287
		S119.261,119.914,110.832,119.914z M142.387,102.524h-12.176c-0.157-1.457-0.478-2.864-0.939-4.207h13.115V102.524z
		 M142.387,94.109h-15.155c-7.708-11.975-25.11-11.947-32.8,0h-2.462l6.191-39.83h5.699l-2.805,16.829h31.935
		c4.458,0,8.198,3.122,9.156,7.293h-7.473c-3.48,0-6.311,2.831-6.311,6.311c0,3.48,2.831,6.311,6.311,6.311h7.713V94.109z
		 M142.387,86.816h-7.713c-2.784,0-2.781-4.207,0-4.207h7.713V86.816z"/>
	<path style="fill:#DC6200;" d="M7.331,50.633h4.207v4.207H7.331V50.633z"/>
	<path style="fill:#DC6200;" d="M15.746,50.633h18.793v4.207H15.746V50.633z"/>
	<path style="fill:#DC6200;" d="M16.026,60.871h4.207v4.207h-4.207V60.871z"/>
	<path style="fill:#DC6200;" d="M24.441,60.871h24.122v4.207H24.441V60.871z"/>
	<path style="fill:#DC6200;" d="M11.819,71.109h24.122v4.207H11.819V71.109z"/>
	<path style="fill:#DC6200;" d="M3.404,71.109h4.207v4.207H3.404V71.109z"/>
	<path style="fill:#DC6200;" d="M32.014,98.317c-3.48,0-6.311,2.831-6.311,6.311c0,3.48,2.831,6.311,6.311,6.311
		s6.311-2.831,6.311-6.311C38.325,101.148,35.494,98.317,32.014,98.317z M29.911,104.628c0-2.784,4.207-2.781,4.207,0
		C34.118,105.788,29.911,107.409,29.911,104.628z"/>
	<path style="fill:#DC6200;" d="M110.832,98.317c-3.48,0-6.311,2.831-6.311,6.311c0,3.48,2.831,6.311,6.311,6.311
		s6.311-2.831,6.311-6.311C117.143,101.148,114.312,98.317,110.832,98.317z M110.832,106.731c-2.784,0-2.781-4.207,0-4.207
		C113.616,102.524,113.613,106.731,110.832,106.731z"/>
	<path style="fill:#DC6200;" d="M71.423,30.017h-4.207v15.287h9.957v-4.207h-5.75V30.017z"/>
</g>
</svg>
