<?xml version="1.0" encoding="iso-8859-1"?>
<!-- Generator: Adobe Illustrator 24.0.1, SVG Export Plug-In . SVG Version: 6.00 Build 0)  -->
<svg version="1.1" id="Layer_3" xmlns="http://www.w3.org/2000/svg" xmlns:xlink="http://www.w3.org/1999/xlink" x="0px" y="0px"
	 viewBox="0 0 150 150" style="enable-background:new 0 0 150 150;" xml:space="preserve">
<g>
	<g>
		<path style="fill:#DC6200;" d="M87.403,116.426c-0.72,1.133-1.505,2.242-2.335,3.299l3.347,2.627
			c0.916-1.167,1.784-2.393,2.579-3.644L87.403,116.426z"/>
	</g>
</g>
<g>
	<g>
		<path style="fill:#DC6200;" d="M90.526,110.466c-0.52,1.235-1.111,2.46-1.754,3.639l3.736,2.037
			c0.711-1.304,1.364-2.658,1.939-4.024L90.526,110.466z"/>
	</g>
</g>
<g>
	<g>
		<path style="fill:#DC6200;" d="M83.335,121.788c-0.897,0.998-1.855,1.964-2.847,2.87l2.869,3.142c1.095-1,2.153-2.066,3.143-3.169
			L83.335,121.788z"/>
	</g>
</g>
<g>
	<g>
		<path style="fill:#DC6200;" d="M78.439,126.408c-1.05,0.838-2.153,1.632-3.279,2.361l2.311,3.572
			c1.244-0.805,2.463-1.682,3.623-2.608L78.439,126.408z"/>
	</g>
</g>
<g>
	<g>
		<path style="fill:#DC6200;" d="M42.645,133.792l-1.123,4.104c1.43,0.391,2.898,0.714,4.362,0.96l0.704-4.196
			C45.264,134.437,43.938,134.145,42.645,133.792z"/>
	</g>
</g>
<g>
	<g>
		<path style="fill:#DC6200;" d="M49.257,135.016l-0.422,4.234c1.47,0.147,2.97,0.221,4.457,0.221v-4.255
			C51.945,135.215,50.588,135.148,49.257,135.016z"/>
	</g>
</g>
<g>
	<g>
		<path style="fill:#DC6200;" d="M12.909,94.833H8.655c0,18.991,12.066,35.942,30.024,42.18l1.396-4.019
			C23.826,127.35,12.909,112.014,12.909,94.833z"/>
	</g>
</g>
<g>
	<g>
		<path style="fill:#DC6200;" d="M65.767,19.384c-5.598,4.874-9.929,11.114-12.524,18.044l3.985,1.492
			c2.347-6.27,6.266-11.916,11.333-16.327L65.767,19.384z"/>
	</g>
</g>
<g>
	<g>
		<path style="fill:#DC6200;" d="M109.674,10.884l-1.396,4.019c16.248,5.644,27.165,20.98,27.165,38.161h4.255
			C139.697,34.074,127.632,17.123,109.674,10.884z"/>
	</g>
</g>
<g>
	<g>
		<path style="fill:#DC6200;" d="M102.468,9.043l-0.704,4.196c1.323,0.222,2.65,0.514,3.943,0.868l1.123-4.104
			C105.399,9.611,103.932,9.288,102.468,9.043z"/>
	</g>
</g>
<g>
	<g>
		<path style="fill:#DC6200;" d="M95.06,8.428v4.255c1.346,0,2.704,0.067,4.035,0.2l0.421-4.234
			C98.046,8.502,96.546,8.428,95.06,8.428z"/>
	</g>
</g>
<g>
	<g>
		<path style="fill:#DC6200;" d="M95.06,1.337c-12.486,0-24.543,4.51-33.949,12.7C52.194,21.8,46.208,32.362,44.142,43.915
			c-11.553,2.066-22.115,8.051-29.879,16.969C6.074,70.29,1.564,82.347,1.564,94.833c0,28.523,23.205,51.728,51.728,51.728
			c12.486,0,24.543-4.51,33.949-12.7c8.918-7.764,14.904-18.325,16.969-29.879c11.553-2.066,22.115-8.052,29.879-16.969
			c8.19-9.406,12.7-21.463,12.7-33.949C146.788,24.542,123.583,1.337,95.06,1.337z M100.252,101.82
			c-3.403,23.081-23.592,40.487-46.961,40.487c-26.177,0-47.473-21.297-47.473-47.473c0-23.369,17.406-43.557,40.487-46.961
			c2.307-0.34,4.658-0.513,6.986-0.513c26.177,0,47.473,21.297,47.473,47.474C100.765,97.162,100.593,99.513,100.252,101.82z
			 M104.807,99.533c0.142-1.565,0.213-3.137,0.213-4.7c0-28.523-23.205-51.728-51.728-51.728c-1.563,0-3.136,0.071-4.7,0.213
			C53.134,21.623,72.633,5.591,95.06,5.591c26.177,0,47.473,21.297,47.473,47.473C142.534,75.492,126.501,94.991,104.807,99.533z"/>
	</g>
</g>
<g>
	<g>
		<path style="fill:#DC6200;" d="M96.48,100.517c-0.474,0.014-0.952,0.021-1.42,0.021c-26.177,0-47.474-21.297-47.474-47.474
			c0-0.471,0.007-0.95,0.021-1.424l-4.253-0.126c-0.015,0.516-0.023,1.037-0.023,1.55c0,28.523,23.205,51.728,51.728,51.728
			c0.51,0,1.03-0.008,1.546-0.023L96.48,100.517z"/>
	</g>
</g>
<g>
	<g>
		<path style="fill:#DC6200;" d="M68.907,53.014l-1.493,3.984c1.256,0.47,2.503,1.011,3.707,1.606l1.885-3.814
			C71.676,54.132,70.296,53.535,68.907,53.014z"/>
	</g>
</g>
<g>
	<g>
		<path style="fill:#DC6200;" d="M75.632,56.198l-2.136,3.68c10.2,5.92,17.299,15.919,19.476,27.435l4.18-0.791
			C94.746,73.792,86.902,62.739,75.632,56.198z"/>
	</g>
</g>
<g>
	<g>
		<path style="fill:#DC6200;" d="M61.742,50.999l-0.804,4.178c1.318,0.254,2.638,0.577,3.924,0.963l1.221-4.076
			C64.661,51.637,63.2,51.279,61.742,50.999z"/>
	</g>
</g>
</svg>
