<?xml version="1.0" encoding="iso-8859-1"?>
<!-- Generator: Adobe Illustrator 24.0.1, SVG Export Plug-In . SVG Version: 6.00 Build 0)  -->
<svg version="1.1" id="Layer_3" xmlns="http://www.w3.org/2000/svg" xmlns:xlink="http://www.w3.org/1999/xlink" x="0px" y="0px"
	 viewBox="0 0 150 150" style="enable-background:new 0 0 150 150;" xml:space="preserve">
<g id="Page-1">
	<g id="_x30_62---Distribution-Strategy" transform="translate(-1 -1)">
		<path id="Shape" style="fill:#DC6200;" d="M54.26,53.062v12.086c0,1.335,1.082,2.417,2.417,2.417h38.674
			c1.335,0,2.417-1.082,2.417-2.417V53.062h-4.834v2.417c-0.008,2.667-2.168,4.826-4.834,4.834h-4.834
			c-2.667-0.008-4.826-2.168-4.834-4.834v-2.417h-4.834v2.417c-0.008,2.667-2.168,4.826-4.834,4.834h-4.834
			c-2.667-0.008-4.826-2.168-4.834-4.834v-2.417H54.26z"/>
		<path id="Shape_1_" style="fill:#DC6200;" d="M86.891,77.233l3.626-4.834H61.512l3.626,4.834H86.891z"/>
		<path id="Shape_2_" style="fill:#DC6200;" d="M91.073,101.404L88.1,96.425c-1.587-2.625-2.423-5.634-2.417-8.702v-5.656H66.346
			v5.656c0.006,3.067-0.83,6.077-2.417,8.702l-2.973,4.979H91.073z"/>
		<path id="Shape_3_" style="fill:#DC6200;" d="M95.351,106.238H56.677c-1.335,0-2.417,1.082-2.417,2.417v3.819
			c5.898,3.426,12.525,5.404,19.337,5.77v12.61c-3.33,1.177-5.327,4.582-4.73,8.063c0.597,3.481,3.615,6.025,7.147,6.025
			c3.532,0,6.55-2.544,7.147-6.025c0.597-3.481-1.4-6.886-4.73-8.063v-12.61c6.811-0.366,13.439-2.343,19.337-5.77v-3.819
			C97.768,107.32,96.686,106.238,95.351,106.238z"/>
		<path id="Shape_4_" style="fill:#DC6200;" d="M138.859,67.564c-3.064,0.005-5.792,1.943-6.807,4.834h-12.654
			c-0.532-9.847-4.411-19.216-10.995-26.557l8.943-8.943c3.187,1.522,7.007,0.525,9.046-2.359c2.038-2.884,1.702-6.818-0.796-9.314
			c-2.498-2.497-6.432-2.83-9.315-0.79c-2.883,2.04-3.876,5.861-2.353,9.047l-8.943,8.943c-7.34-6.584-16.709-10.463-26.554-10.995
			V18.777c3.33-1.177,5.327-4.582,4.73-8.063S79.546,4.69,76.014,4.69c-3.532,0-6.55,2.544-7.147,6.025
			c-0.597,3.481,1.4,6.886,4.73,8.063v12.654c-9.847,0.532-19.216,4.411-26.557,10.995l-8.943-8.943
			c1.522-3.187,0.525-7.007-2.359-9.046c-2.884-2.038-6.818-1.702-9.314,0.796s-2.83,6.432-0.79,9.315s5.861,3.876,9.047,2.353
			l8.943,8.943c-6.584,7.34-10.463,16.709-10.995,26.554H19.976c-1.177-3.33-4.582-5.327-8.063-4.73s-6.025,3.615-6.025,7.147
			s2.544,6.55,6.025,7.147s6.886-1.4,8.063-4.73h12.6c0.534,9.857,4.426,19.234,11.027,26.574l-8.922,8.924
			c-3.187-1.522-7.007-0.527-9.046,2.356c-2.039,2.884-1.704,6.817,0.793,9.314c2.497,2.497,6.431,2.832,9.314,0.793
			c2.884-2.039,3.879-5.859,2.356-9.046l8.926-8.926c0.778,0.696,1.574,1.375,2.4,2.013v-0.58c-0.001-3.446,2.424-6.417,5.801-7.106
			l4.568-7.614c1.116-1.881,1.708-4.025,1.716-6.212v-7.275l-6.139-8.17c-3.441-0.635-5.94-3.632-5.946-7.13V53.062
			c0.008-2.667,2.168-4.826,4.834-4.834h4.834c2.667,0.008,4.826,2.168,4.834,4.834v2.417h4.834v-2.417
			c0.008-2.667,2.168-4.826,4.834-4.834h4.834c2.667,0.008,4.826,2.168,4.834,4.834v2.417H88.1v-2.417
			c0.008-2.667,2.168-4.826,4.834-4.834h4.834c2.667,0.008,4.826,2.168,4.834,4.834v12.086c-0.006,3.499-2.505,6.496-5.946,7.13
			l-6.139,8.17v7.275c0.008,2.187,0.601,4.331,1.716,6.212l4.568,7.614c3.377,0.689,5.802,3.66,5.801,7.106v0.58
			c0.827-0.638,1.622-1.317,2.4-2.013l8.926,8.926c-1.522,3.187-0.527,7.007,2.356,9.046c2.884,2.039,6.817,1.704,9.314-0.793
			c2.497-2.497,2.832-6.431,0.793-9.314c-2.039-2.884-5.859-3.879-9.046-2.356l-8.922-8.924
			c6.601-7.339,10.493-16.717,11.027-26.574h12.6c1.235,3.468,4.876,5.456,8.461,4.621s5.973-4.227,5.55-7.883
			S142.54,67.558,138.859,67.564L138.859,67.564z"/>
	</g>
</g>
</svg>
