<?xml version="1.0" encoding="iso-8859-1"?>
<!-- Generator: Adobe Illustrator 24.0.1, SVG Export Plug-In . SVG Version: 6.00 Build 0)  -->
<svg version="1.1" id="Layer_3" xmlns="http://www.w3.org/2000/svg" xmlns:xlink="http://www.w3.org/1999/xlink" x="0px" y="0px"
	 viewBox="0 0 150 150" style="enable-background:new 0 0 150 150;" xml:space="preserve">
<path style="fill:#DC6200;" d="M143.63,39.382V19.464c0-6.589-5.361-11.95-11.95-11.95H19.612c-6.589,0-11.95,5.361-11.95,11.95
	v19.917H143.63z M99.547,23.448h23.901c2.2,0,3.983,1.784,3.983,3.983s-1.784,3.983-3.983,3.983H99.547
	c-2.2,0-3.983-1.784-3.983-3.983S97.347,23.448,99.547,23.448z M59.712,23.448c2.2,0,3.983,1.784,3.983,3.983
	s-1.784,3.983-3.983,3.983s-3.983-1.784-3.983-3.983S57.512,23.448,59.712,23.448z M43.778,23.448c2.2,0,3.983,1.784,3.983,3.983
	s-1.784,3.983-3.983,3.983s-3.983-1.784-3.983-3.983S41.578,23.448,43.778,23.448z M27.844,23.448c2.2,0,3.983,1.784,3.983,3.983
	s-1.784,3.983-3.983,3.983s-3.983-1.784-3.983-3.983S25.644,23.448,27.844,23.448z"/>
<path style="fill:#DC6200;" d="M7.662,47.349v83.653c0,6.589,5.361,11.95,11.95,11.95H131.68c6.589,0,11.95-5.361,11.95-11.95
	V47.349H7.662z M54.234,103.99c1.718,1.374,1.997,3.881,0.622,5.599c-1.374,1.718-3.881,1.997-5.599,0.622L29.34,94.277
	c-1.991-1.593-1.993-4.627,0-6.221l19.917-15.934c1.717-1.374,4.224-1.096,5.599,0.622c1.374,1.718,1.096,4.225-0.622,5.599
	L38.205,91.167L54.234,103.99z M91.258,64.852L67.357,120.62c-0.867,2.022-3.208,2.959-5.231,2.092
	c-2.022-0.867-2.959-3.209-2.092-5.231l23.901-55.768c0.867-2.022,3.209-2.959,5.231-2.092
	C91.188,60.488,92.124,62.829,91.258,64.852L91.258,64.852z M121.952,94.277l-19.917,15.934c-1.715,1.372-4.222,1.098-5.599-0.622
	c-1.374-1.718-1.096-4.225,0.622-5.599l16.029-12.824L97.058,78.343c-1.718-1.374-1.997-3.881-0.622-5.599
	c1.374-1.718,3.881-1.997,5.599-0.622l19.917,15.934C123.944,89.649,123.945,92.683,121.952,94.277L121.952,94.277z"/>
</svg>
