<?xml version="1.0" encoding="iso-8859-1"?>
<!-- Generator: Adobe Illustrator 24.0.1, SVG Export Plug-In . SVG Version: 6.00 Build 0)  -->
<svg version="1.1" id="Layer_3" xmlns="http://www.w3.org/2000/svg" xmlns:xlink="http://www.w3.org/1999/xlink" x="0px" y="0px"
	 viewBox="0 0 150 150" style="enable-background:new 0 0 150 150;" xml:space="preserve">
<g>
	<path style="fill:#DC6200;" d="M101.258,74.904c-0.65,5.306-3.036,10.364-6.967,14.295c-4.778,4.781-11.457,7.032-19.845,6.693
		c-5.883-0.234-8.599,1.305-9.046,1.584c-1.802,1.579-4.089,2.443-6.504,2.443c-2.641,0-5.123-1.028-6.99-2.895
		c-3.222-3.222-3.742-8.193-1.542-11.98l1.579-2.502c0.537-1.308,1.262-3.889,1.093-8.06c-0.336-8.39,1.915-15.066,6.693-19.845
		c3.914-3.911,8.918-6.334,14.329-6.981c0.765-3.68,2.423-7.122,4.815-10.014H22.116c-6.236,0-11.31,5.072-11.31,11.308v56.083
		h117.99V49.347l-14.338,17.571C111.086,71.038,106.403,73.843,101.258,74.904L101.258,74.904z"/>
	<path style="fill:#DC6200;" d="M10.805,117.122c0,6.233,5.075,11.305,11.31,11.305h32.143v9.698h-7.125
		c-2.339,0-4.236,1.897-4.236,4.236c0,2.339,1.897,4.236,4.236,4.236h45.33c2.339,0,4.236-1.897,4.236-4.236
		c0-2.339-1.897-4.236-4.236-4.236H85.34v-9.698h32.145c6.236,0,11.31-5.072,11.31-11.305v-3.615H10.805L10.805,117.122
		L10.805,117.122z"/>
	<path style="fill:#DC6200;" d="M58,88.939c-0.001,0.001-0.002,0.001-0.002,0.002c-0.001,0-0.001,0.001-0.001,0.001l-0.001,0.001
		c-0.001,0-0.001,0.001-0.001,0.001c0,0.001-0.001,0.001-0.001,0.001l0,0c0,0.001-0.001,0.001-0.001,0.001c0,0,0,0,0,0
		c0,0-0.001,0.001-0.001,0.001c0,0,0,0,0,0c-0.001,0-0.001,0.001-0.001,0.001c0,0,0,0,0,0l-0.001,0.001
		c-0.535,0.553-0.53,1.435,0.016,1.981c0.276,0.276,0.637,0.413,0.999,0.413c0.358,0,0.716-0.135,0.991-0.406
		c0.086-0.082,4.364-4.036,14.902-3.613c5.929,0.239,10.474-1.181,13.512-4.219c6.225-6.225,6.225-16.354,0-22.579
		c-3.016-3.016-7.025-4.676-11.29-4.676s-8.274,1.661-11.29,4.676c-3.038,3.038-4.457,7.584-4.219,13.512
		c0.426,10.595-3.573,14.861-3.605,14.894C58.001,88.938,58.001,88.939,58,88.939L58,88.939z"/>
	<path style="fill:#DC6200;" d="M100.891,66.195c2.762-0.827,5.25-2.465,7.105-4.733l5.413-6.633L94.127,35.547l-6.606,5.395
		c-2.273,1.853-3.917,4.338-4.747,7.1c4.366,1.025,8.371,3.248,11.621,6.498C97.722,57.867,99.888,61.919,100.891,66.195
		L100.891,66.195z"/>
	<path style="fill:#DC6200;" d="M144.39,4.548c-3.154-3.154-8.142-3.406-11.598-0.582l-32.07,26.194l18.07,18.07l26.182-32.087
		C147.796,12.69,147.544,7.703,144.39,4.548L144.39,4.548z"/>
</g>
</svg>
