<?xml version="1.0" encoding="iso-8859-1"?>
<!-- Generator: Adobe Illustrator 24.0.1, SVG Export Plug-In . SVG Version: 6.00 Build 0)  -->
<svg version="1.1" id="Layer_3" xmlns="http://www.w3.org/2000/svg" xmlns:xlink="http://www.w3.org/1999/xlink" x="0px" y="0px"
	 viewBox="0 0 150 150" style="enable-background:new 0 0 150 150;" xml:space="preserve">
<path style="fill:#DC6200;" d="M26.555,42.272c0,1.992,0.03,3.896-0.033,5.796c-0.009,0.276-0.411,0.656-0.717,0.786
	c-1.695,0.719-2.51,1.97-2.509,3.798c0.004,17.815,0.016,35.629-0.024,53.444c-0.003,1.288,0.667,1.2,1.52,1.2
	c31.684-0.007,63.368-0.006,95.053-0.006c2.237,0,4.476-0.045,6.71,0.028c1.038,0.034,1.293-0.331,1.291-1.322
	c-0.03-12.568-0.021-25.136-0.022-37.704c-0.001-5.084-0.008-10.168-0.001-15.252c0.004-2.943-1.442-4.393-4.421-4.397
	c-1.136-0.002-2.272,0-3.519,0c0-2.148,0-4.231,0-6.313c4.67-0.571,7.805-0.085,10.26,3.34c1.103,1.539,1.481,3.307,1.481,5.185
	c-0.005,21.109,0.009,42.219-0.029,63.328c-0.002,1.151,0.392,1.723,1.368,2.239c4.347,2.3,8.653,4.677,12.976,7.022
	c2.095,1.137,2.957,2.812,2.442,4.768c-0.565,2.142-2.003,3.194-4.428,3.194c-22.614,0.003-45.228,0.003-67.842,0.002
	c-23.062-0.002-46.123-0.006-69.185-0.012c-2.404-0.001-3.956-1.026-4.504-2.955c-0.581-2.049,0.192-3.806,2.186-4.89
	c4.464-2.426,8.923-4.865,13.415-7.238c0.924-0.488,1.214-1.069,1.212-2.097C19.2,92.944,19.199,71.672,19.206,50.4
	C19.208,46.028,22.343,42.493,26.555,42.272z M8.595,124.825c0.015,0.123,0.031,0.246,0.046,0.37c0.468,0,0.935,0,1.403,0
	c15.981,0.015,31.961,0.031,47.942,0.047c0.447,0,0.913-0.064,1.335,0.043c0.268,0.068,0.63,0.366,0.676,0.613
	c0.327,1.763,0.584,2.026,2.366,2.031c4.92,0.014,9.841,0.015,14.761,0.018c3.253,0.002,6.506-0.009,9.76,0.002
	c1.049,0.003,2.019-0.326,2.043-1.445c0.026-1.19,0.582-1.326,1.497-1.292c0.609,0.023,1.22-0.015,1.829-0.015
	c15.94,0.014,31.88,0.031,47.82,0.041c0.692,0,1.385-0.062,2.332-0.107c-0.364-0.313-0.467-0.439-0.6-0.511
	c-3.464-1.881-6.923-3.77-10.408-5.613c-0.438-0.232-1.011-0.293-1.522-0.293c-36.354-0.015-72.709-0.016-109.063-0.011
	c-0.398,0-0.854-0.012-1.185,0.164C15.939,120.832,12.269,122.833,8.595,124.825z"/>
<path style="fill:#DC6200;" d="M68.959,35.079c1.059,0.315,1.91,0.554,2.753,0.82c6.077,1.925,12.147,3.873,18.236,5.763
	c0.881,0.273,1.306,0.728,1.576,1.595c2.075,6.668,4.198,13.321,6.304,19.98c0.085,0.269,0.149,0.544,0.267,0.981
	c-0.465-0.117-0.833-0.19-1.188-0.303c-6.581-2.082-13.156-4.182-19.746-6.236c-0.857-0.267-1.339-0.663-1.617-1.56
	c-2.068-6.669-4.196-13.32-6.303-19.977C69.156,35.873,69.096,35.597,68.959,35.079z"/>
<path style="fill:#DC6200;" d="M66.427,37.479c1.252,3.933,2.473,7.759,3.688,11.586c0.86,2.709,1.739,5.412,2.542,8.138
	c0.123,0.417,0.05,1.113-0.225,1.392c-4.276,4.345-8.6,8.642-12.916,12.947c-0.053,0.053-0.144,0.069-0.323,0.149
	c-0.141-0.365-0.297-0.72-0.417-1.087c-1.986-6.099-3.963-12.201-5.954-18.298c-0.193-0.591-0.377-1.065,0.197-1.631
	c4.339-4.283,8.64-8.604,12.955-12.911C66.055,37.683,66.172,37.637,66.427,37.479z"/>
<path style="fill:#DC6200;" d="M95.898,66.938c-0.88,0.814-1.675,1.504-2.418,2.245c-3.429,3.414-6.829,6.858-10.286,10.243
	c-0.352,0.345-1.093,0.629-1.529,0.504c-6.519-1.872-13.016-3.817-19.518-5.749c-0.187-0.055-0.362-0.149-0.643-0.268
	c0.283-0.326,0.5-0.607,0.748-0.856c4.02-4.031,8.048-8.054,12.064-12.09c0.444-0.447,0.799-0.772,1.552-0.529
	c6.455,2.083,12.926,4.112,19.392,6.161C95.372,66.635,95.472,66.71,95.898,66.938z"/>
<path style="fill:#DC6200;" d="M85.488,85.676c-0.944,3.255-1.999,6.278-3.79,8.977c-0.579,0.873-1.256,1.71-2.014,2.431
	c-2.662,2.534-6.134,2.589-8.693-0.053c-1.305-1.347-2.401-2.981-3.257-4.657c-1.059-2.074-1.771-4.325-2.736-6.759
	c1.751,0.457,3.161,0.775,4.53,1.219c0.324,0.105,0.562,0.605,0.754,0.968c0.948,1.786,1.695,3.708,2.841,5.353
	c1.541,2.212,2.954,2.202,4.478-0.017c1.136-1.655,1.869-3.582,2.858-5.345c0.256-0.455,0.742-0.913,1.223-1.084
	C82.858,86.293,84.094,86.042,85.488,85.676z"/>
<path style="fill:#DC6200;" d="M91.496,33.67c4.32-1.467,8.45-2.877,12.909-2.02c3.605,0.693,5.557,3.686,4.892,7.314
	c-0.637,3.475-3.226,8.392-5.786,10.972c-0.533-1.362-1.099-2.702-1.563-4.077c-0.1-0.295,0.117-0.741,0.278-1.073
	c0.899-1.856,2.011-3.632,2.696-5.562c0.861-2.424,0.101-3.585-2.448-3.597c-2.036-0.009-4.088,0.491-6.107,0.898
	c-0.767,0.155-1.28,0.085-1.859-0.437C93.61,35.279,92.625,34.567,91.496,33.67z"/>
<path style="fill:#DC6200;" d="M59.12,33.69c-1.213,0.985-2.272,1.921-3.421,2.729c-0.312,0.219-0.899,0.11-1.349,0.058
	c-2.238-0.257-4.473-0.761-6.708-0.756c-1.922,0.005-2.649,1.135-1.998,2.983c0.72,2.045,1.779,3.977,2.784,5.91
	c0.326,0.626,0.486,1.093,0.168,1.779c-0.526,1.133-0.92,2.328-1.453,3.712c-2.829-3.857-5.566-7.588-5.869-12.427
	c-0.205-3.279,2.114-5.742,5.792-6.173C51.236,31.018,55.146,32.216,59.12,33.69z"/>
<path style="fill:#DC6200;" d="M103.52,66.138c2.624,3.521,5.031,6.923,5.785,11.193c0.681,3.855-1.616,6.961-5.524,7.414
	c-4.244,0.492-8.188-0.689-12.207-2.164c1.225-1.002,2.321-1.951,3.485-2.809c0.249-0.183,0.752-0.083,1.125-0.028
	c2.039,0.303,4.066,0.815,6.113,0.909c2.557,0.117,3.443-1.099,2.645-3.546c-0.535-1.641-1.293-3.251-2.213-4.711
	c-0.721-1.146-0.988-2.07-0.296-3.303C102.903,68.258,103.113,67.278,103.52,66.138z"/>
<path style="fill:#DC6200;" d="M47.177,66.316c0.559,1.414,1.126,2.717,1.569,4.061c0.108,0.329-0.138,0.817-0.312,1.189
	c-0.91,1.94-2.023,3.804-2.731,5.813c-0.741,2.1,0.144,3.32,2.373,3.25c2.128-0.067,4.238-0.609,6.366-0.858
	c0.52-0.061,1.174,0.061,1.6,0.348c1.038,0.699,1.979,1.543,3.185,2.51c-1.804,0.541-3.416,1.189-5.091,1.484
	c-2.145,0.378-4.352,0.732-6.51,0.632c-4.854-0.225-7.221-3.665-6.039-8.4C42.346,73.294,44.819,68.831,47.177,66.316z"/>
<path style="fill:#DC6200;" d="M65.161,30.633c1.305-4.198,2.585-8.141,5.588-11.204c2.833-2.89,6.4-2.858,9.251,0.031
	c2.44,2.472,3.652,5.627,4.778,8.818c0.251,0.711,0.437,1.445,0.69,2.292c-1.528-0.389-2.905-0.688-4.241-1.117
	c-0.333-0.107-0.597-0.6-0.78-0.971c-0.682-1.382-1.254-2.821-1.994-4.17c-0.422-0.769-1.023-1.473-1.662-2.082
	c-1.078-1.027-2.076-1.119-2.927,0.073c-1.329,1.862-2.406,3.915-3.462,5.953c-0.384,0.74-0.68,1.256-1.594,1.402
	C67.658,29.843,66.543,30.252,65.161,30.633z"/>
</svg>
