<?xml version="1.0" encoding="iso-8859-1"?>
<!-- Generator: Adobe Illustrator 24.0.1, SVG Export Plug-In . SVG Version: 6.00 Build 0)  -->
<svg version="1.1" id="Capa_1" xmlns="http://www.w3.org/2000/svg" xmlns:xlink="http://www.w3.org/1999/xlink" x="0px" y="0px"
	 viewBox="0 0 150 150" style="enable-background:new 0 0 150 150;" xml:space="preserve">
<g>
	<linearGradient id="SVGID_1_" gradientUnits="userSpaceOnUse" x1="39.4978" y1="29.9071" x2="110.6127" y2="29.9071">
		<stop  offset="0" style="stop-color:#FF4A2B"/>
		<stop  offset="0.9944" style="stop-color:#FF416B"/>
	</linearGradient>
	<path style="fill:url(#SVGID_1_);" d="M60.896,43.783c-2.54-3.121-4.067-7.099-4.067-11.428c0-10,8.136-18.136,18.136-18.136
		s18.136,8.136,18.136,18.136c0,4.319-1.52,8.289-4.051,11.408c3.216,1.349,6.176,3.39,8.714,6.055
		c2.39,2.51,4.261,5.472,5.528,8.66c4.589-5.989,7.321-13.473,7.321-21.584c0-19.606-15.951-35.557-35.557-35.557
		S39.498,17.288,39.498,36.894c0,8.066,2.701,15.511,7.244,21.483c1.266-3.15,3.125-6.075,5.49-8.559
		C54.756,47.166,57.699,45.132,60.896,43.783z"/>
	<linearGradient id="SVGID_2_" gradientUnits="userSpaceOnUse" x1="15.3362" y1="136.4655" x2="58.4164" y2="136.4655">
		<stop  offset="0" style="stop-color:#FF4A2B"/>
		<stop  offset="0.9944" style="stop-color:#FF416B"/>
	</linearGradient>
	<path style="fill:url(#SVGID_2_);" d="M41.471,124.268h-9.192c-8.976,0-16.587,7.742-16.943,17.055
		c5.993,4.601,13.487,7.341,21.609,7.341c8.06,0,15.501-2.697,21.471-7.234C58.115,132.069,50.481,124.268,41.471,124.268z"/>
	<linearGradient id="SVGID_3_" gradientUnits="userSpaceOnUse" x1="91.1888" y1="136.4655" x2="134.2693" y2="136.4655">
		<stop  offset="0" style="stop-color:#FF4A2B"/>
		<stop  offset="0.9944" style="stop-color:#FF416B"/>
	</linearGradient>
	<path style="fill:url(#SVGID_3_);" d="M117.319,124.268h-9.192c-8.913,0-16.484,7.633-16.938,16.859
		c6.035,4.72,13.627,7.537,21.865,7.537c7.945,0,15.289-2.62,21.215-7.04C134.068,132.177,126.391,124.268,117.319,124.268z"/>
	<linearGradient id="SVGID_4_" gradientUnits="userSpaceOnUse" x1="103.1865" y1="106.1314" x2="122.1939" y2="106.1314">
		<stop  offset="0" style="stop-color:#FF4A2B"/>
		<stop  offset="0.9944" style="stop-color:#FF416B"/>
	</linearGradient>
	<path style="fill:url(#SVGID_4_);" d="M112.69,115.635c5.24,0,9.504-4.263,9.504-9.504c0-5.24-4.263-9.504-9.504-9.504
		s-9.504,4.263-9.504,9.504S107.45,115.635,112.69,115.635z"/>
	<linearGradient id="SVGID_5_" gradientUnits="userSpaceOnUse" x1="1.3882" y1="92.3257" x2="148.6118" y2="92.3257">
		<stop  offset="0" style="stop-color:#FF4A2B"/>
		<stop  offset="0.9944" style="stop-color:#FF416B"/>
	</linearGradient>
	<path style="fill:url(#SVGID_5_);" d="M98.621,117.56c-2.54-3.121-4.067-7.099-4.067-11.428c0-10,8.136-18.136,18.136-18.136
		s18.136,8.136,18.136,18.136c0,4.319-1.52,8.289-4.051,11.408c3.216,1.349,6.176,3.39,8.713,6.055
		c2.86,3.004,4.974,6.655,6.201,10.566c4.348-5.898,6.922-13.181,6.922-21.054c0-19.606-15.951-35.557-35.558-35.557
		c-9.255,0-17.695,3.556-24.028,9.371l-9.639-8.209v-6.524c6.297-0.768,12.09-3.189,16.933-6.814
		c-1.35-8.314-8.459-14.882-16.726-14.882h-9.192c-8.241,0-15.332,6.528-16.713,14.806c4.868,3.671,10.705,6.122,17.053,6.893v6.498
		l-9.692,8.304c-6.341-5.858-14.812-9.443-24.105-9.443c-19.607,0-35.558,15.951-35.558,35.557c0,7.704,2.464,14.843,6.643,20.672
		c1.242-3.766,3.31-7.278,6.077-10.184c2.524-2.651,5.468-4.686,8.665-6.034c-2.54-3.121-4.067-7.099-4.067-11.428
		c0-10,8.136-18.136,18.136-18.136s18.136,8.136,18.136,18.136c0,4.319-1.52,8.289-4.051,11.408c3.216,1.349,6.176,3.39,8.714,6.055
		c2.799,2.94,4.883,6.501,6.12,10.318c4.239-5.854,6.741-13.043,6.741-20.806c0-7.206-2.157-13.917-5.856-19.525l8.408-7.203
		l8.356,7.116c-3.735,5.626-5.914,12.369-5.914,19.613c0,7.593,2.394,14.637,6.465,20.42c1.251-3.671,3.29-7.09,5.995-9.931
		C92.481,120.943,95.424,118.908,98.621,117.56z"/>
	<linearGradient id="SVGID_6_" gradientUnits="userSpaceOnUse" x1="65.4616" y1="32.3546" x2="84.4691" y2="32.3546">
		<stop  offset="0" style="stop-color:#FF4A2B"/>
		<stop  offset="0.9944" style="stop-color:#FF416B"/>
	</linearGradient>
	<path style="fill:url(#SVGID_6_);" d="M74.965,41.858c5.24,0,9.504-4.263,9.504-9.504s-4.263-9.504-9.504-9.504
		c-5.24,0-9.504,4.263-9.504,9.504S69.725,41.858,74.965,41.858z"/>
	<linearGradient id="SVGID_7_" gradientUnits="userSpaceOnUse" x1="27.3387" y1="106.1314" x2="46.3462" y2="106.1314">
		<stop  offset="0" style="stop-color:#FF4A2B"/>
		<stop  offset="0.9944" style="stop-color:#FF416B"/>
	</linearGradient>
	<path style="fill:url(#SVGID_7_);" d="M36.842,115.635c5.24,0,9.504-4.263,9.504-9.504c0-5.24-4.263-9.504-9.504-9.504
		s-9.504,4.263-9.504,9.504S31.602,115.635,36.842,115.635z"/>
</g>
</svg>
