<?xml version="1.0" encoding="iso-8859-1"?>
<!-- Generator: Adobe Illustrator 24.0.1, SVG Export Plug-In . SVG Version: 6.00 Build 0)  -->
<svg version="1.1" id="Capa_1" xmlns="http://www.w3.org/2000/svg" xmlns:xlink="http://www.w3.org/1999/xlink" x="0px" y="0px"
	 viewBox="0 0 150 150" style="enable-background:new 0 0 150 150;" xml:space="preserve">
<g>
	<g>
		<linearGradient id="SVGID_1_" gradientUnits="userSpaceOnUse" x1="46.9546" y1="75" x2="103.1559" y2="75">
			<stop  offset="0" style="stop-color:#FF4A2B"/>
			<stop  offset="0.9944" style="stop-color:#FF416B"/>
		</linearGradient>
		<rect x="46.955" y="46.899" style="fill:url(#SVGID_1_);" width="56.201" height="56.201"/>
	</g>
</g>
<g>
	<g>
		<linearGradient id="SVGID_2_" gradientUnits="userSpaceOnUse" x1="4.8036" y1="75" x2="145.3069" y2="75">
			<stop  offset="0" style="stop-color:#FF4A2B"/>
			<stop  offset="0.9944" style="stop-color:#FF416B"/>
		</linearGradient>
		<path style="fill:url(#SVGID_2_);" d="M138.282,82.025c4.215,0,7.025-2.81,7.025-7.025c0-3.513-2.81-7.025-7.025-7.025h-7.025
			v-14.05h7.025c4.215,0,7.025-2.81,7.025-7.025c0-3.513-2.81-7.025-7.025-7.025h-7.025v-7.025c0-7.728-6.323-14.05-14.05-14.05
			h-7.025v-7.025c0-3.513-2.81-7.025-7.025-7.025c-3.513,0-7.025,2.81-7.025,7.025v7.025H82.08v-7.025
			c0-3.513-2.81-7.025-7.025-7.025c-4.215,0-7.025,2.81-7.025,7.025v7.025H53.98v-7.025c0-3.513-2.81-7.025-7.025-7.025
			s-7.025,2.81-7.025,7.025v7.025h-7.025c-7.728,0-14.05,6.323-14.05,14.05v7.025h-7.025c-4.215,0-7.025,2.81-7.025,7.025
			c0,3.513,2.81,7.025,7.025,7.025h7.025v14.05h-7.025c-4.215,0-7.025,2.81-7.025,7.025c0,3.513,2.81,7.025,7.025,7.025h7.025v14.05
			h-7.025c-4.215,0-7.025,2.81-7.025,7.025c0,3.513,2.81,7.025,7.025,7.025h7.025v7.025c0,7.728,6.323,14.05,14.05,14.05h7.025
			v7.025c0,3.513,2.81,7.025,7.025,7.025s7.025-2.81,7.025-7.025v-7.025h14.05v7.025c0,3.513,2.81,7.025,7.025,7.025
			c4.215,0,7.025-2.81,7.025-7.025v-7.025h14.05v7.025c0,3.513,2.81,7.025,7.025,7.025c3.513,0,7.025-2.81,7.025-7.025v-7.025h7.025
			c7.728,0,14.05-6.323,14.05-14.05v-7.025h7.025c4.215,0,7.025-2.81,7.025-7.025c0-3.513-2.81-7.025-7.025-7.025h-7.025v-14.05
			L138.282,82.025L138.282,82.025z M117.206,117.151H32.904V32.849h84.302V117.151z"/>
	</g>
</g>
</svg>
