<?xml version="1.0" encoding="iso-8859-1"?>
<!-- Generator: Adobe Illustrator 24.0.1, SVG Export Plug-In . SVG Version: 6.00 Build 0)  -->
<svg version="1.1" id="Capa_1" xmlns="http://www.w3.org/2000/svg" xmlns:xlink="http://www.w3.org/1999/xlink" x="0px" y="0px"
	 viewBox="0 0 150 150" style="enable-background:new 0 0 150 150;" xml:space="preserve">
<g>
	<linearGradient id="SVGID_1_" gradientUnits="userSpaceOnUse" x1="32.2766" y1="120.9124" x2="117.7228" y2="120.9124">
		<stop  offset="0" style="stop-color:#FF4A2B"/>
		<stop  offset="0.9944" style="stop-color:#FF416B"/>
	</linearGradient>
	<path style="fill:url(#SVGID_1_);" d="M113.422,101.885H97.365v-8.11c-6.8,3.177-14.378,4.956-22.365,4.956
		s-15.566-1.779-22.365-4.956v8.11H36.578c-1.748,0-3.323,1.058-3.983,2.678s-0.274,3.477,0.976,4.699l38.422,37.562
		c0.836,0.817,1.921,1.225,3.006,1.225s2.171-0.409,3.006-1.225l38.422-37.562c1.25-1.222,1.636-3.079,0.976-4.699
		C116.745,102.944,115.17,101.885,113.422,101.885z"/>
	<linearGradient id="SVGID_2_" gradientUnits="userSpaceOnUse" x1="30.5878" y1="45.7174" x2="119.4122" y2="45.7174">
		<stop  offset="0" style="stop-color:#FF4A2B"/>
		<stop  offset="0.9944" style="stop-color:#FF416B"/>
	</linearGradient>
	<path style="fill:url(#SVGID_2_);" d="M75,90.129c24.489,0,44.412-19.923,44.412-44.412S99.489,1.305,75,1.305
		S30.588,21.228,30.588,45.717S50.511,90.129,75,90.129z M65.445,26.756c1.426-1.091,3.128-1.885,4.987-2.355v-3.019
		c0-2.375,1.926-4.301,4.301-4.301c2.375,0,4.301,1.926,4.301,4.301v3.141c5.31,1.47,9.849,5.516,9.849,11.815
		c0,2.375-1.926,4.301-4.301,4.301c-2.375,0-4.301-1.926-4.301-4.301c0-2.776-3.543-3.826-5.777-3.836
		c-1.517-0.016-5.065,0.36-5.097,3.911c-0.016,1.821,0.722,2.895,5.175,4.54c0.515,0.19,1.034,0.375,1.555,0.558
		c2.811,0.99,5.662,1.956,8.099,3.708c3.222,2.316,4.994,5.77,4.958,9.749c-0.035,3.916-1.683,7.318-4.64,9.58
		c-1.425,1.09-3.128,1.887-4.986,2.358v3.147c0,2.375-1.926,4.301-4.301,4.301c-2.375,0-4.301-1.926-4.301-4.301v-3.272
		c-5.31-1.47-9.85-5.516-9.85-11.815c0-2.375,1.926-4.301,4.301-4.301c2.375,0,4.301,1.926,4.301,4.301
		c0,2.776,3.543,3.826,5.777,3.836c0.013,0,0.027,0,0.041,0c0.255,0,0.509-0.01,0.763-0.032c1.415-0.12,2.967-0.596,3.76-1.866
		c1.162-1.863,0.384-4.043-1.402-5.1c-1.932-1.143-4.152-1.748-6.252-2.491c-3.791-1.339-11.679-4.125-11.599-12.977
		C60.841,32.42,62.488,29.018,65.445,26.756L65.445,26.756z"/>
</g>
</svg>
