<?xml version="1.0" encoding="iso-8859-1"?>
<!-- Generator: Adobe Illustrator 24.0.1, SVG Export Plug-In . SVG Version: 6.00 Build 0)  -->
<svg version="1.1" id="Capa_1" xmlns="http://www.w3.org/2000/svg" xmlns:xlink="http://www.w3.org/1999/xlink" x="0px" y="0px"
	 viewBox="0 0 150 150" style="enable-background:new 0 0 150 150;" xml:space="preserve">
<linearGradient id="Fast_Delivery_2_" gradientUnits="userSpaceOnUse" x1="1.7287" y1="77.8056" x2="148.8323" y2="77.8056">
	<stop  offset="0" style="stop-color:#FF4A2B"/>
	<stop  offset="0.9944" style="stop-color:#FF416B"/>
</linearGradient>
<path id="Fast_Delivery_1_" style="fill:url(#Fast_Delivery_2_);" d="M51.106,105.066c2.031,2.421,2.804,5.71,2.176,9.264
	c-1.368,7.766-8.78,14.082-16.521,14.082c-3.441,0-6.424-1.296-8.396-3.644c-2.031-2.421-2.804-5.71-2.176-9.264
	c1.37-7.766,8.782-14.082,16.523-14.082C46.154,101.422,49.134,102.718,51.106,105.066z M14.433,128.412H5.999
	c-1.862,0-3.374,1.511-3.374,3.374s1.511,3.374,3.374,3.374h8.434c1.862,0,3.374-1.511,3.374-3.374S16.296,128.412,14.433,128.412z
	 M86.97,128.412H71.788c-1.862,0-3.374,1.511-3.374,3.374s1.511,3.374,3.374,3.374H86.97c1.862,0,3.374-1.511,3.374-3.374
	S88.832,128.412,86.97,128.412z M115.249,101.422c-7.741,0-15.152,6.316-16.521,14.082c-0.628,3.554,0.145,6.845,2.176,9.264
	c1.972,2.35,4.954,3.644,8.396,3.644c7.741,0,15.152-6.316,16.521-14.082c0.628-3.554-0.145-6.845-2.176-9.264
	C121.671,102.718,118.69,101.422,115.249,101.422L115.249,101.422z M148.74,89.17l-2.112,20.059
	c-0.543,5.165-4.87,9.062-10.066,9.062h-4.803c0.285-0.913,0.536-1.837,0.703-2.788c0.98-5.552-0.317-10.799-3.652-14.774
	c-3.276-3.905-8.094-6.054-13.563-6.054c-11.047,0-21.223,8.635-23.166,19.657c-0.238,1.343-0.334,2.665-0.309,3.959h-9.865H59.225
	c0.285-0.913,0.536-1.837,0.703-2.788c0.98-5.552-0.317-10.799-3.652-14.774c-3.278-3.905-8.095-6.054-13.564-6.054
	c-11.047,0-21.223,8.635-23.166,19.657c-0.238,1.343-0.334,2.665-0.309,3.959h-7.387c-2.874,0-5.622-1.23-7.54-3.37
	s-2.837-5.01-2.52-7.868l2.125-19.126h47.629c1.862,0,3.374-1.511,3.374-3.374s-1.511-3.374-3.374-3.374H4.665l3.75-33.738h19.514
	c1.862,0,3.374-1.511,3.374-3.374c0-1.862-1.511-3.374-3.374-3.374H9.165l1.248-11.238c0.57-5.133,4.897-9.005,10.059-9.005h64.019
	c2.874,0,5.622,1.23,7.54,3.37c1.918,2.141,2.837,5.01,2.52,7.868l-1.751,15.752H111.3c4.794,0,9.376,2.05,12.571,5.621
	l20.664,23.094C147.704,79.702,149.238,84.445,148.74,89.17L148.74,89.17z M41.424,64.31c0-1.862-1.511-3.374-3.374-3.374H14.433
	c-1.862,0-3.374,1.511-3.374,3.374s1.511,3.374,3.374,3.374H38.05C39.912,67.684,41.424,66.173,41.424,64.31z M61.666,64.31
	c0-1.862-1.511-3.374-3.374-3.374h-6.748c-1.862,0-3.374,1.511-3.374,3.374s1.511,3.374,3.374,3.374h6.748
	C60.155,67.684,61.666,66.173,61.666,64.31z M68.414,44.068c0-1.862-1.511-3.374-3.374-3.374H41.424
	c-1.862,0-3.374,1.511-3.374,3.374c0,1.862,1.511,3.374,3.374,3.374H65.04C66.902,47.442,68.414,45.93,68.414,44.068z
	 M131.63,82.272L113.074,62.03c-0.639-0.697-1.542-1.093-2.488-1.093h-8.434c-1.754,0-3.215,1.344-3.362,3.094l-1.687,20.243
	c-0.078,0.941,0.241,1.869,0.879,2.566c0.639,0.693,1.538,1.088,2.483,1.088h28.677c1.338,0,2.551-0.791,3.089-2.014
	C132.769,84.686,132.533,83.259,131.63,82.272z"/>
</svg>
