<svg id="Layer_1" data-name="Layer 1" xmlns="http://www.w3.org/2000/svg" viewBox="0 0 150 150"><defs><style>.cls-1{fill:#454545;}</style></defs><title>1</title><path class="cls-1" d="M53.51,38.28a1.37,1.37,0,1,0,2.73,0V30.64C74.47,52.5,95.81,69,119.72,79.65c3.41,1.53,6.92,2.95,10.43,4.23a1.36,1.36,0,1,0,1-2.55h0c-3.46-1.26-6.91-2.66-10.26-4.16-23.78-10.61-45-27.08-63.08-49h8.44a1.36,1.36,0,1,0,0-2.72H54.62l-.07,0h-.06l-.07,0-.06,0-.06,0-.06,0-.06,0,0,0-.07.05,0,0h0l-.06,0-.05,0,0,0a1.35,1.35,0,0,0-.2.27h0l0,.07s0,0,0,.05v0a1,1,0,0,0-.08.3s0,0,0,.06v.05s0,.05,0,.08h0Z"/><path class="cls-1" d="M130.62,98.93H106.53V82.43a1.36,1.36,0,0,0-1.36-1.37H77.63V62.24a1.37,1.37,0,0,0-1.37-1.37H49.64v-20a1.36,1.36,0,0,0-1.36-1.36h-26a1.37,1.37,0,0,0-1.37,1.35l-.86,88.34a1.36,1.36,0,0,0,1.35,1.37h109.2a1.36,1.36,0,0,0,1.36-1.36V100.3A1.36,1.36,0,0,0,130.62,98.93ZM103.81,83.79V100.3l-.36,27.52H77.63v-44ZM74.9,63.6v64.22H49.64V63.6ZM23.65,42.21H46.91v85.61H22.81Zm105.6,85.61H106.18l.34-26.16h22.73Z"/></svg>