<svg id="Layer_1" data-name="Layer 1" xmlns="http://www.w3.org/2000/svg" viewBox="0 0 150 150"><defs><style>.cls-1{fill:#454545;}</style></defs><title>2</title><path class="cls-1" d="M134.67,48.46a1.74,1.74,0,0,0-1.74,1.74V74.9A13.15,13.15,0,0,1,119.79,88H108.4a3.36,3.36,0,0,0-3.12,2.11c-2.06,5.07-2.17,9.57-.34,13.38a13.46,13.46,0,0,0,3,4,10.28,10.28,0,0,1-6.88-2.84c-1.18-1.23-3.83-4.94-2.85-12.84A3.36,3.36,0,0,0,94.84,88H77a1.75,1.75,0,0,0,0,3.49h8.82V105A13.5,13.5,0,0,1,72.34,118.5h-7.9A2.44,2.44,0,0,0,62,120.87c-.16,5.55-2.29,9.26-7.84,9.62,2.51-2.6,2.83-6.6,2.09-10.07a2.46,2.46,0,0,0-2.38-1.92H34.55A13.5,13.5,0,0,1,21.07,105v-3.74a1.74,1.74,0,0,0-3.48,0V105a17,17,0,0,0,17,17H53c.35,2.29.3,6.2-3.57,7.4a2.2,2.2,0,0,0,.24,4.27,20.43,20.43,0,0,0,3.63.35c7,0,11.58-4.05,12.14-12h6.9a17,17,0,0,0,17-17V91.52h5.4c-.47,3.91-.57,11,3.82,15.55,2.54,2.63,6.14,4,10.74,4,.76,0,1.55,0,2.36-.11a2.3,2.3,0,0,0,.94-4.29c-7.17-4.09-5.65-11.19-4.08-15.1h11.31A16.64,16.64,0,0,0,136.41,74.9V50.2a1.74,1.74,0,0,0-1.74-1.74Z"/><path class="cls-1" d="M119.79,24h-71A16.64,16.64,0,0,0,32.21,40.62V65.24A17,17,0,0,0,17.59,82V103.1a1.74,1.74,0,0,0,3.48,0V82A13.56,13.56,0,0,1,32.21,68.76V74.9A16.64,16.64,0,0,0,48.83,91.52h32.4a1.75,1.75,0,0,0,0-3.49H48.83A13.15,13.15,0,0,1,35.69,74.9V40.62A13.16,13.16,0,0,1,48.83,27.48h71a13.15,13.15,0,0,1,13.14,13.14V52.09a1.74,1.74,0,0,0,3.48,0V40.62A16.63,16.63,0,0,0,119.79,24Z"/><path class="cls-1" d="M56.17,55.08a5.92,5.92,0,1,0,5.91-5.92,5.92,5.92,0,0,0-5.91,5.92Zm8.35,0a2.44,2.44,0,1,1-2.44-2.44A2.44,2.44,0,0,1,64.52,55.08Z"/><path class="cls-1" d="M82.88,61A5.92,5.92,0,1,0,77,55.08,5.93,5.93,0,0,0,82.88,61Zm0-8.36a2.44,2.44,0,1,1-2.44,2.44A2.45,2.45,0,0,1,82.88,52.64Z"/><path class="cls-1" d="M103.68,61a5.92,5.92,0,1,0-5.92-5.92A5.92,5.92,0,0,0,103.68,61Zm0-8.36a2.44,2.44,0,1,1-2.44,2.44A2.44,2.44,0,0,1,103.68,52.64Z"/></svg>