<svg id="Layer_1" data-name="Layer 1" xmlns="http://www.w3.org/2000/svg" viewBox="0 0 150 150"><defs><style>.cls-1{fill:#454545;}</style></defs><title>3</title><path class="cls-1" d="M129.93,38.1a1.81,1.81,0,0,0-1.33-1.25l-11-2.48-2.48-11A1.8,1.8,0,0,0,113,22a1.84,1.84,0,0,0-.87.49L99.5,35.15A51.08,51.08,0,1,0,116.85,52.5l12.63-12.63a1.8,1.8,0,0,0,.45-1.77Zm-9.32,40.8A47.5,47.5,0,1,1,96.89,37.77l-5.8,5.8-.14.18a39.47,39.47,0,1,0,17.29,17.31.9.9,0,0,0,.19-.15l5.8-5.8a47.34,47.34,0,0,1,6.38,23.79ZM104,60.77A35.77,35.77,0,1,1,91.23,48l1.89,8.36-1.81,1.81a27.66,27.66,0,1,0,2.53,2.53l1.81-1.81ZM80.8,78.9a7.72,7.72,0,1,1-3.68-6.56l-5.28,5.29a1.79,1.79,0,0,0,2.48,2.58l.05,0,5.29-5.29A7.65,7.65,0,0,1,80.8,78.9Zm-1.1-9.14a11.33,11.33,0,1,0,2.54,2.54l9.06-9.07a24.07,24.07,0,1,1-2.53-2.53ZM113.32,51l-6.72,6.73-1-.23h0l-9-2-2.26-10,18.05-18,2,8.91a1.79,1.79,0,0,0,1.35,1.35l8.91,2Z"/></svg>