<?xml version="1.0" encoding="utf-8"?>
<!-- Generator: Adobe Illustrator 21.0.0, SVG Export Plug-In . SVG Version: 6.00 Build 0)  -->
<svg version="1.1" id="Layer_1" xmlns="http://www.w3.org/2000/svg" xmlns:xlink="http://www.w3.org/1999/xlink" x="0px" y="0px"
	 viewBox="0 0 150 150" style="enable-background:new 0 0 150 150;" xml:space="preserve">
<style type="text/css">
	.st0{fill:#454545;}
</style>
<title>5</title>
<path class="st0" d="M118.9,86.7h-12.2V27.4c0-1-0.8-1.7-1.7-1.7H49.1c-1,0-1.7,0.8-1.7,1.7l0,0v59.3H35.1c-0.5,0-0.9,0.2-1.3,0.5
	c-0.7,0.7-0.7,1.8,0,2.5c0,0,0,0,0,0l41.9,40.2c0.7,0.6,1.7,0.6,2.4,0L120,89.7c0.3-0.3,0.5-0.8,0.5-1.3
	C120.6,87.5,119.8,86.7,118.9,86.7z M77,126.2l-37.5-36h9.6c1,0,1.7-0.8,1.7-1.7V29.2h52.3v59.3c0,1,0.8,1.7,1.7,1.7h9.6L77,126.2z"
	/>
<path class="st0" d="M77,51.8c3.9,0,7,3.1,7,7h3.4c0-5.1-3.7-9.5-8.7-10.3v-3.6h-3.4v3.6c-5.7,1-9.5,6.4-8.5,12.1
	c0.9,5,5.2,8.6,10.2,8.6c3.9,0,7,3.1,7,7c0,3.9-3.1,7-7,7c-3.9,0-7-3.1-7-7h-3.4c0,5.1,3.7,9.5,8.7,10.3v3.6h3.4v-3.7
	c5.7-1,9.5-6.4,8.5-12.1c-0.9-5-5.2-8.6-10.2-8.6c-3.9,0-7-3.1-7-7C70,55,73.2,51.8,77,51.8z"/>
<rect x="54.3" y="32.6" class="st0" width="3.5" height="3.5"/>
<rect x="61.3" y="32.6" class="st0" width="3.5" height="3.5"/>
<rect x="68.3" y="32.6" class="st0" width="3.5" height="3.5"/>
<rect x="75.3" y="32.6" class="st0" width="3.5" height="3.5"/>
<rect x="82.2" y="32.6" class="st0" width="3.5" height="3.5"/>
<rect x="89.2" y="32.6" class="st0" width="3.5" height="3.5"/>
<rect x="96.2" y="32.6" class="st0" width="3.5" height="3.5"/>
</svg>
