<?xml version="1.0" encoding="utf-8"?>
<!-- Generator: Adobe Illustrator 23.0.3, SVG Export Plug-In . SVG Version: 6.00 Build 0)  -->
<svg version="1.1" id="Layer_1" xmlns="http://www.w3.org/2000/svg" xmlns:xlink="http://www.w3.org/1999/xlink" x="0px" y="0px"
	 viewBox="0 0 100 100" style="enable-background:new 0 0 100 100;" xml:space="preserve">
<title>1</title>
<path d="M77,46.8L31,19.1c-0.8-0.5-1.8-0.8-2.7-0.8c-1.9,0-3.8,1.4-3.8,4.5V79c0,3.1,1.9,4.5,3.7,4.5l0,0c1,0,1.9-0.3,2.7-0.8
	l46-28.1c2.1-1,3.1-3.5,2.1-5.6C78.7,48,77.9,47.3,77,46.8z M63.5,41.8l-6.5,7L33.5,23.7L63.5,41.8z M27.6,80.5
	c-0.3-0.5-0.4-1-0.4-1.5V22.8c0-0.5,0.1-1,0.4-1.5l27.5,29.5L27.6,80.5z M33.7,77.9L57,52.7l6.5,7L33.7,77.9z M75.6,52.3l-9.8,6
	l-7-7.5l7-7.6l9.8,5.9c0.6,0.3,1.1,0.9,1.2,1.6C76.7,51.4,76.2,52,75.6,52.3z"/>
</svg>
