<?xml version="1.0" encoding="utf-8"?>
<!-- Generator: Adobe Illustrator 23.0.3, SVG Export Plug-In . SVG Version: 6.00 Build 0)  -->
<svg version="1.1" id="Layer_1" xmlns="http://www.w3.org/2000/svg" xmlns:xlink="http://www.w3.org/1999/xlink" x="0px" y="0px"
	 viewBox="0 0 100 100" style="enable-background:new 0 0 100 100;" xml:space="preserve">
<title>2</title>
<g>
	<g>
		<g id="group-6svg">
			<path id="path-1_37_" d="M62,85.5c-2,0-3.9-0.6-5.5-1.7l-0.1-0.1c0,0-1.4-1-3.7-1c-1.4,0-3,0.4-4.5,1.2c-0.5,0.3-2.6,1.5-5.4,1.5
				c-2.3,0-4.3-0.8-6.1-2.3c-2.9-2.5-12.3-11.6-13.2-26.9c-0.4-7,1.8-13.6,6.2-18.3c4-4.2,9.2-6.1,14.3-5.1c0.1,0,3.9,0.6,7.5,2.7
				c1.9-1,6.8-3.1,12-3.1c6.3,0,11.2,3,14.1,8.8l0.7,1.3L77,43.2c-0.1,0-6.5,4.7-6.5,10.3c0,3.1,2,6,5.9,8.7
				c1.2,0.9,2.1,2.2,2.3,3.6c1.3,4.6-7.4,15.8-12.6,18.7L66,84.7C65.8,84.7,64.2,85.5,62,85.5z M58.4,81c1.1,0.7,2.3,1.1,3.6,1.1
				c1.3,0,2.3-0.4,2.6-0.5c5.3-3.1,11.4-12.9,10.9-14.8l-0.1-0.3c-0.1-0.6-0.4-1.2-0.9-1.5c-4.9-3.4-7.3-7.3-7.3-11.5
				c0-5.7,4.5-10.2,6.7-12.1c-2.4-3.8-5.9-5.8-10.4-5.8c-5.8,0-11.2,3.1-11.2,3.1l-0.9,0.5l-0.9-0.6c-3.3-2.1-7.1-2.8-7.2-2.8
				c-0.7-0.1-1.4-0.2-2.1-0.2c-3.2,0-6.5,1.5-9.1,4.3c-3.7,3.9-5.7,9.8-5.3,15.8c0.9,14,9.4,22.4,12,24.6c1.2,1,2.5,1.5,3.9,1.5
				c2,0,3.6-1,3.6-1l0.1-0.1c2-1.1,4.1-1.6,6.1-1.6C55.9,79.3,58,80.7,58.4,81z"/>
			<path id="path-2_25_" d="M51.1,32.6c-0.4,0-0.7-0.1-1-0.4c-0.4-0.3-0.6-0.8-0.7-1.3c0-0.5-0.2-11.6,13.7-16.3
				c0.5-0.2,1-0.1,1.4,0.2c0.4,0.3,0.7,0.7,0.8,1.2c0,0.1,1.3,13.1-13.9,16.5C51.4,32.6,51.3,32.6,51.1,32.6z M62,18.8
				c-6.1,2.8-8.2,7.2-8.8,9.9C59.8,26.3,61.5,21.6,62,18.8z"/>
		</g>
	</g>
</g>
</svg>
