<svg id="Layer_1" data-name="Layer 1" xmlns="http://www.w3.org/2000/svg" viewBox="0 0 100 100"><title>4</title><g id="shopping_online" data-name="shopping online"><path d="M78.34,50.74H72.88a24.55,24.55,0,0,0-42-23.47l-.28-3.1a1.06,1.06,0,0,0-1.81-.65L27.27,25,22,19.74a1.06,1.06,0,0,0-1.51,0l-3,3a1.08,1.08,0,0,0,0,1.51l5.29,5.28-1.52,1.53a1,1,0,0,0-.24,1.1,1.07,1.07,0,0,0,.9.71l5.16.47A24.53,24.53,0,0,0,47.37,67.71V71a3.21,3.21,0,0,0,3.21,3.21H61l-.53,2.13h-2.8a1.06,1.06,0,0,0-1,.71l-1.57,4.27a1.05,1.05,0,0,0,.64,1.36,1.15,1.15,0,0,0,.36.07H72.87a1.07,1.07,0,0,0,1.07-1.07,1.15,1.15,0,0,0-.07-.36L72.3,77.09a1.05,1.05,0,0,0-1-.71H68.49L68,74.25H78.34A3.21,3.21,0,0,0,81.55,71V53.94A3.21,3.21,0,0,0,78.34,50.74Zm-6.46-8.55H63.1a39.61,39.61,0,0,0-2-11.78,24.46,24.46,0,0,0,4.26-2.94A22.32,22.32,0,0,1,71.88,42.19Zm0,2.14a21.26,21.26,0,0,1-1.25,6.41H62.46a43.19,43.19,0,0,0,.61-6.41ZM63.82,26a22.35,22.35,0,0,1-3.43,2.38A20.21,20.21,0,0,0,56.3,21.9,22.35,22.35,0,0,1,63.82,26ZM50.58,20.94c3.12.6,5.94,3.79,7.83,8.42a21.89,21.89,0,0,1-7.83,1.82Zm0,12.38a24.32,24.32,0,0,0,8.57-1.95,37.77,37.77,0,0,1,1.79,10.81H50.58Zm0,11H61a39.37,39.37,0,0,1-.67,6.41h-9.7ZM42.71,21.89a20.08,20.08,0,0,0-4.08,6.49A23.78,23.78,0,0,1,35.18,26,22.85,22.85,0,0,1,42.71,21.89ZM24.34,31l.66-.66a1.09,1.09,0,0,0,0-1.52l-5.29-5.27L21.22,22l5.29,5.28a1.09,1.09,0,0,0,1.52,0l.65-.65.44,4.77Zm5,2.6.89.08h.09a1.11,1.11,0,0,0,.77-.31,1.06,1.06,0,0,0,.3-.85l-.18-2.11a22.67,22.67,0,0,1,2.43-2.92,24.21,24.21,0,0,0,4.27,2.95,40.26,40.26,0,0,0-1.95,11.78H27.11A22.1,22.1,0,0,1,29.3,33.57ZM27.13,44.33h8.81a39.87,39.87,0,0,0,2,11.77,24.31,24.31,0,0,0-4.29,3A22.37,22.37,0,0,1,27.13,44.33Zm8,16.18a21.55,21.55,0,0,1,3.47-2.38,20.26,20.26,0,0,0,4.13,6.5A22.13,22.13,0,0,1,35.17,60.51Zm12.2,4.77c-2.75-1-5.14-4-6.81-8.11a22.46,22.46,0,0,1,6.81-1.73Zm1.07-13.71a3.15,3.15,0,0,0-1,1.7,23.89,23.89,0,0,0-7.62,1.89,39,39,0,0,1-1.75-10.83H48.44Zm0-9.38H38.08a37.82,37.82,0,0,1,1.79-10.81,24.6,24.6,0,0,0,8.57,1.95v8.86Zm0-11a21.94,21.94,0,0,1-7.84-1.82c1.9-4.63,4.72-7.82,7.84-8.42ZM70.55,78.51l.79,2.13H57.59l.78-2.13Zm-7.93-2.14.53-2.14h2.61l.53,2.14ZM79.41,71a1.07,1.07,0,0,1-1.07,1.07H50.58A1.07,1.07,0,0,1,49.51,71V70h29.9Zm0-3.2H49.51V53.94a1.07,1.07,0,0,1,1.07-1.07H78.34a1.07,1.07,0,0,1,1.07,1.07Z"/></g></svg>