<svg id="Layer_1" data-name="Layer 1" xmlns="http://www.w3.org/2000/svg" viewBox="0 0 100 100"><title>5</title><path d="M21.28,18.46s0,.06,0,.07L47.52,45a6.36,6.36,0,0,1,4.77-1.06,6.12,6.12,0,0,1,3.34,1.76c2,2,2.28,4.66.83,7.78l6.21,6.2a13.46,13.46,0,0,0,2.8-5.23,15.07,15.07,0,0,0-3.88-15.3,6.09,6.09,0,0,1-.44-.44,1.19,1.19,0,0,1,0-1.75A1.23,1.23,0,0,1,63,37a17.79,17.79,0,0,1,1.53,24.46l8.07,8.06c.75-1,1.64-2,2.4-3.12A29,29,0,0,0,72,30c-.13-.14-.27-.27-.39-.41a1.24,1.24,0,0,1,.06-1.8,1.14,1.14,0,0,1,1.73.11c1.06,1.17,2.15,2.33,3.09,3.6a30.3,30.3,0,0,1,6,16,6,6,0,0,0,.12.61V52c0,.21-.1.41-.12.61A30.34,30.34,0,0,1,77.35,67.2c-1,1.44-2.07,2.78-3.17,4.26a6.7,6.7,0,0,1,.55.46q3.52,3.51,7,7c.28.27.51.59.77.89v1.68H80.86c-.3-.26-.62-.49-.89-.77L20,20.85l-.58-.57V18.46ZM54.42,51.52a3.79,3.79,0,0,0-1-4.47c-1.1-.92-3.15-1.1-3.82-.5Z"/><path d="M19.46,47.91c.23-1.49.41-3,.7-4.46a30.24,30.24,0,0,1,6.07-12.88l1.7,1.72c-.69,1.08-1.47,2.21-2.14,3.4A28.83,28.83,0,0,0,30.06,70l.29.3a1.26,1.26,0,0,1,0,1.91,1.13,1.13,0,0,1-1.77-.19c-.9-1-1.81-1.94-2.61-3a30.48,30.48,0,0,1-6.39-16.45c0-.22-.08-.44-.12-.67Z"/><path d="M36.17,40.28c.54.57,1.08,1.09,1.54,1.67a.88.88,0,0,1,0,.76,15.23,15.23,0,0,0-1.8,8.12,15.51,15.51,0,0,0,4.46,10.09c.18.19.37.36.53.56a1.19,1.19,0,1,1-1.74,1.63,28.75,28.75,0,0,1-3.36-4.23c-3.44-6-3.21-12.13.07-18.17C35.93,40.59,36,40.49,36.17,40.28Z"/><path d="M44.78,49.21l7,7a6.07,6.07,0,0,1-5.27-1.77A6,6,0,0,1,44.78,49.21Z"/></svg>