<?xml version="1.0" encoding="utf-8"?>
<!-- Generator: Adobe Illustrator 21.0.0, SVG Export Plug-In . SVG Version: 6.00 Build 0)  -->
<svg version="1.1" id="home_banner" xmlns="http://www.w3.org/2000/svg" xmlns:xlink="http://www.w3.org/1999/xlink" x="0px"
	 y="0px" viewBox="0 0 225 232.7" style="enable-background:new 0 0 225 232.7;" xml:space="preserve">
<style type="text/css">
	.st0{opacity:0.2;fill:#92B4D1;enable-background:new    ;}
	.st1{fill:#2672AB;}
	.st2{fill:#D1EBFF;}
	.st3{opacity:0.5;fill:#3F92D1;enable-background:new    ;}
	.st4{fill:#3F92D1;}
	.st5{fill:#FFFFFF;}
	.st6{opacity:0.3;fill:#FFFFFF;enable-background:new    ;}
	.st7{fill:#A8CFF0;}
	.st8{fill:#72B5E8;}
	.st9{fill:#03336E;}
	.st10{fill:#022652;}
	.st11{fill:#4F9FDB;}
	.st12{opacity:0.1;fill:#001A46;enable-background:new    ;}
	.st13{fill:#FEDA8E;}
	.st14{opacity:0.5;fill:#FFCC00;enable-background:new    ;}
	.st15{fill:#603913;}
	.st16{fill:#084C94;}
	.st17{fill:#0FBAB8;}
	.st18{opacity:0.5;}
	.st19{opacity:0.1;fill:url(#SVGID_1_);enable-background:new    ;}
	.st20{opacity:0.1429;fill:url(#SVGID_2_);enable-background:new    ;}
	.st21{opacity:0.1857;fill:url(#SVGID_3_);enable-background:new    ;}
	.st22{opacity:0.2286;fill:url(#SVGID_4_);enable-background:new    ;}
	.st23{opacity:0.2714;fill:url(#SVGID_5_);enable-background:new    ;}
	.st24{opacity:0.3143;fill:url(#SVGID_6_);enable-background:new    ;}
	.st25{opacity:0.3571;fill:url(#SVGID_7_);enable-background:new    ;}
	.st26{opacity:0.4;fill:url(#SVGID_8_);enable-background:new    ;}
	.st27{opacity:0.4429;fill:url(#SVGID_9_);enable-background:new    ;}
	.st28{opacity:0.4857;fill:url(#SVGID_10_);enable-background:new    ;}
	.st29{opacity:0.5286;fill:url(#SVGID_11_);enable-background:new    ;}
	.st30{opacity:0.5714;fill:url(#SVGID_12_);enable-background:new    ;}
	.st31{opacity:0.6143;fill:url(#SVGID_13_);enable-background:new    ;}
	.st32{opacity:0.6571;fill:url(#SVGID_14_);enable-background:new    ;}
	.st33{opacity:0.7;fill:url(#SVGID_15_);enable-background:new    ;}
	.st34{opacity:0.7429;fill:url(#SVGID_16_);enable-background:new    ;}
	.st35{opacity:0.7857;fill:url(#SVGID_17_);enable-background:new    ;}
	.st36{opacity:0.8286;fill:url(#SVGID_18_);enable-background:new    ;}
	.st37{opacity:0.8714;fill:url(#SVGID_19_);enable-background:new    ;}
	.st38{opacity:0.9143;fill:url(#SVGID_20_);enable-background:new    ;}
	.st39{opacity:0.9571;fill:url(#SVGID_21_);enable-background:new    ;}
	.st40{fill:url(#SVGID_22_);}
	.st41{fill:url(#SVGID_23_);}
	.st42{fill:#001A46;}
	.st43{fill:#F76195;}
	.st44{fill:#EB4680;}
	.st45{fill:#F5B500;}
	.st46{fill:#FFD70F;}
	.st47{fill:#0BA19F;}
	.st48{fill:#3ECFCD;}
	.st49{opacity:0.7;fill:#FFFFFF;enable-background:new    ;}
</style>
<title>Artboard 1</title>
<g>
	<g>
		<g>
			<path class="st0" d="M134.3,194.5l-86.7-50c-3.4-2-3-5.4,0.9-7.7l49.2-28.4c4-2.3,9.9-2.6,13.4-0.6l86.7,50c3.4,2,3,5.4-0.9,7.7
				l-49.2,28.4C143.8,196.2,137.8,196.5,134.3,194.5z"/>
			<path class="st1" d="M134.3,191.2l-86.7-50c-1.5-0.9-2.3-2.1-2.3-3.3v-4.3c0-1.5,1.1,1.1,3.3-0.1l49.2-28.4
				c4-2.3,9.9-2.6,13.4-0.6l86.7,50c1.1,0.7,2-2.2,2.3-1.2c0.1,0.3,0,4.3,0,4.5c0,1.5-1,3.1-3.3,4.5l-49.2,28.4
				C143.8,192.9,137.8,193.2,134.3,191.2z"/>
			<path class="st2" d="M134.3,186.9l-86.7-50c-3.4-2-3-5.4,0.9-7.7l49.2-28.4c4-2.3,9.9-2.6,13.4-0.6l86.7,50c3.4,2,3,5.4-0.9,7.7
				l-49.2,28.4C143.8,188.6,137.8,188.9,134.3,186.9z"/>
			<path class="st3" d="M134.3,191.2c3.4,2,9.4,1.7,13.4-0.6v-4.2c-4,2.3-9.9,2.6-13.4,0.6V191.2z"/>
			<path class="st4" d="M134.3,186.9l-86.7-50c-1.6-0.9-2.4-2.3-2.3-3.6c0,0.1,0,0.1,0,0.2v4.3c0,1.2,0.8,2.4,2.3,3.3l86.7,50V186.9
				z"/>
			<path class="st5" d="M197,157.3l-49.2,28.4c-4,2.3-9.9,2.6-13.4,0.6l-86.7-50c-1.4-0.9-2.2-1.9-2.3-3c-0.2,1.4,0.6,2.7,2.3,3.8
				l86.7,50c3.4,2,9.4,1.7,13.4-0.6L197,158c2.3-1.3,3.4-3,3.2-4.6C200,154.7,198.9,156.1,197,157.3z"/>
			<path class="st6" d="M114.6,169.5l-30.9-17.8c-0.7-0.4-0.6-0.9,0.2-1.4l11.6-6.7c0.8-0.4,1.8-0.5,2.4-0.1l30.9,17.8
				c0.7,0.4,0.6,0.9-0.2,1.4l-11.6,6.7C116.3,169.8,115.3,169.8,114.6,169.5z"/>
			<path class="st7" d="M83.9,151l11.6-6.7c0.8-0.4,1.8-0.5,2.4-0.1l30.9,17.8c0.1,0.1,0.2,0.2,0.3,0.3c0.2-0.4,0.2-0.8-0.3-0.9
				l-30.9-17.8c-0.7-0.4-1.7-0.3-2.4,0.1l-11.6,6.7c-0.6,0.3-0.8,0.8-0.5,1.1C83.6,151.2,83.7,151.1,83.9,151z"/>
			<path class="st8" d="M105.5,106.7l5.3,3c0.7,0.4,1.8,0.4,2.5,0c0.7-0.4,0.7-1,0-1.4l-5.3-3c-0.7-0.4-1.8-0.4-2.5,0
				C104.9,105.6,104.9,106.3,105.5,106.7z M114.6,111.9l2.6,1.4c0.7,0.4,1.8,0.4,2.5,0c0.7-0.4,0.7-1,0-1.4l-2.6-1.4
				c-0.7-0.4-1.8-0.4-2.5,0C114,110.9,114,111.5,114.6,111.9z M121,115.6l2.6,1.4c0.7,0.4,1.8,0.4,2.5,0c0.7-0.4,0.7-1,0-1.4
				l-2.6-1.4c-0.7-0.4-1.8-0.4-2.5,0C120.3,114.5,120.3,115.2,121,115.6z M127.2,119.2l2.6,1.4c0.7,0.4,1.8,0.4,2.5,0
				c0.7-0.4,0.7-1,0-1.4l-2.6-1.4c-0.7-0.4-1.8-0.4-2.5,0C126.6,118.1,126.6,118.8,127.2,119.2z M133.6,122.9l2.6,1.4
				c0.7,0.4,1.8,0.4,2.5,0c0.7-0.4,0.7-1,0-1.4l-2.6-1.4c-0.7-0.4-1.8-0.4-2.5,0C132.9,121.8,132.9,122.4,133.6,122.9z M139.9,126.5
				l2.6,1.4c0.7,0.4,1.8,0.4,2.5,0c0.7-0.4,0.7-1,0-1.4l-2.6-1.4c-0.7-0.4-1.8-0.4-2.5,0C139.2,125.4,139.2,126.1,139.9,126.5z
				 M146.2,130.1l2.6,1.4c0.7,0.4,1.8,0.4,2.5,0c0.7-0.4,0.7-1,0-1.4l-2.6-1.4c-0.7-0.4-1.8-0.4-2.5,0
				C145.5,129.1,145.5,129.7,146.2,130.1z M152.5,133.8l2.6,1.4c0.7,0.4,1.8,0.4,2.5,0c0.7-0.4,0.7-1,0-1.4l-2.6-1.4
				c-0.7-0.4-1.8-0.4-2.5,0C151.8,132.7,151.8,133.4,152.5,133.8z M158.8,137.4l2.6,1.4c0.7,0.4,1.8,0.4,2.5,0c0.7-0.4,0.7-1,0-1.4
				l-2.6-1.4c-0.7-0.4-1.8-0.4-2.5,0S158.1,137,158.8,137.4z M165.1,141.1l2.6,1.4c0.7,0.4,1.8,0.4,2.5,0c0.7-0.4,0.7-1,0-1.4
				l-2.6-1.4c-0.7-0.4-1.8-0.4-2.5,0C164.5,140,164.5,140.7,165.1,141.1z M171.4,144.7l2.6,1.4c0.7,0.4,1.8,0.4,2.5,0
				c0.7-0.4,0.7-1,0-1.4l-2.6-1.4c-0.7-0.4-1.8-0.4-2.5,0C170.7,143.6,170.7,144.3,171.4,144.7z M177.7,148.4l2.6,1.4
				c0.7,0.4,1.8,0.4,2.5,0s0.7-1,0-1.4l-2.6-1.4c-0.7-0.4-1.8-0.4-2.5,0C177.1,147.3,177.1,147.9,177.7,148.4z M184.2,152.1l2.6,1.4
				c0.7,0.4,1.8,0.4,2.5,0c0.7-0.4,0.7-1,0-1.4l-2.6-1.4c-0.7-0.4-1.8-0.4-2.5,0C183.5,151,183.5,151.7,184.2,152.1z M99.8,110.1
				l2.2,1.2c0.8,0.5,2,0.5,2.7,0l2.2-1.2c0.8-0.5,0.8-1.1,0-1.6l-2.2-1.2c-0.8-0.5-2-0.5-2.7,0l-2.2,1.2
				C99.1,108.9,99.1,109.7,99.8,110.1z M111.1,115l2.2-1.2c0.8-0.5,0.8-1.1,0-1.6l-2.2-1.2c-0.8-0.5-2-0.5-2.7,0l-2.2,1.2
				c-0.8,0.5-0.8,1.1,0,1.6l2.2,1.2C109.1,115.5,110.4,115.5,111.1,115z M112.5,117.4l2.2,1.2c0.8,0.5,2,0.5,2.7,0l2.2-1.2
				c0.8-0.5,0.8-1.1,0-1.6l-2.2-1.2c-0.8-0.5-2-0.5-2.7,0l-2.2,1.2C111.7,116.2,111.7,117,112.5,117.4z M118.8,121.1l2.2,1.2
				c0.8,0.5,2,0.5,2.7,0l2.2-1.2c0.8-0.5,0.8-1.1,0-1.6l-2.2-1.2c-0.8-0.5-2-0.5-2.7,0l-2.2,1.2C118,119.8,118,120.6,118.8,121.1z
				 M132.2,123.1l-2.2-1.2c-0.8-0.5-2-0.5-2.7,0l-2.2,1.2c-0.8,0.5-0.8,1.1,0,1.6l2.2,1.2c0.8,0.5,2,0.5,2.7,0l2.2-1.2
				C133,124.3,133,123.5,132.2,123.1z M138.5,126.8l-2.2-1.2c-0.8-0.5-2-0.5-2.7,0l-2.2,1.2c-0.8,0.5-0.8,1.1,0,1.6l2.2,1.2
				c0.8,0.5,2,0.5,2.7,0l2.2-1.2C139.3,127.9,139.3,127.1,138.5,126.8z M144.8,130.4l-2.2-1.2c-0.8-0.5-2-0.5-2.7,0l-2.2,1.2
				c-0.8,0.5-0.8,1.1,0,1.6l2.2,1.2c0.8,0.5,2,0.5,2.7,0l2.2-1.2C145.6,131.5,145.6,130.8,144.8,130.4z M151.1,134l-2.2-1.2
				c-0.8-0.5-2-0.5-2.7,0L144,134c-0.8,0.5-0.8,1.1,0,1.6l2.2,1.2c0.8,0.5,2,0.5,2.7,0l2.2-1.2C152,135.2,151.9,134.4,151.1,134z
				 M157.4,137.6l-2.2-1.2c-0.8-0.5-2-0.5-2.7,0l-2.2,1.2c-0.8,0.5-0.8,1.1,0,1.6l2.2,1.2c0.8,0.5,2,0.5,2.7,0l2.2-1.2
				C158.2,138.8,158.2,138.1,157.4,137.6z M163.7,141.2l-2.2-1.2c-0.8-0.5-2-0.5-2.7,0l-2.2,1.2c-0.8,0.5-0.8,1.1,0,1.6l2.2,1.2
				c0.8,0.5,2,0.5,2.7,0l2.2-1.2C164.6,142.5,164.6,141.7,163.7,141.2z M162.9,146.6l2.2,1.2c0.8,0.5,2,0.5,2.7,0l2.2-1.2
				c0.8-0.5,0.8-1.1,0-1.6l-2.2-1.2c-0.8-0.5-2-0.5-2.7,0l-2.2,1.2C162.2,145.3,162.2,146.1,162.9,146.6z M176.4,148.5l-2.2-1.2
				c-0.8-0.5-2-0.5-2.7,0l-2.2,1.2c-0.8,0.5-0.8,1.1,0,1.6l2.2,1.2c0.8,0.5,2,0.5,2.7,0l2.2-1.2C177.2,149.8,177.2,149,176.4,148.5z
				 M185.6,153.9l-5-2.8c-0.8-0.5-2-0.5-2.7,0l-2.2,1.2c-0.8,0.5-0.8,1.1,0,1.6l5,2.8c0.8,0.5,2,0.5,2.7,0l2.2-1.2
				C186.3,155.1,186.3,154.3,185.6,153.9z M94.1,113.5l5,2.8c0.8,0.5,2,0.5,2.7,0l2.2-1.2c0.8-0.5,0.8-1.1,0-1.6l-5-2.8
				c-0.8-0.5-2-0.5-2.7,0l-2.2,1.2C93.3,112.3,93.3,113,94.1,113.5z M103.2,118.8l2.2,1.2c0.8,0.5,2,0.5,2.7,0l2.2-1.2
				c0.8-0.5,0.8-1.1,0-1.6l-2.2-1.2c-0.8-0.5-2-0.5-2.7,0l-2.2,1.2C102.4,117.6,102.4,118.3,103.2,118.8z M111.6,123.6
				c0.8,0.5,2,0.5,2.7,0l2.2-1.2c0.8-0.5,0.8-1.1,0-1.6l-2.2-1.2c-0.8-0.5-2-0.5-2.7,0l-2.2,1.2c-0.8,0.5-0.8,1.1,0,1.6L111.6,123.6
				z M117.9,127.3c0.8,0.5,2,0.5,2.7,0l2.2-1.2c0.8-0.5,0.8-1.1,0-1.6l-2.2-1.2c-0.8-0.5-2-0.5-2.7,0l-2.2,1.2
				c-0.8,0.5-0.8,1.1,0,1.6L117.9,127.3z M124.2,126.8l-2.2,1.2c-0.8,0.5-0.8,1.1,0,1.6l2.2,1.2c0.8,0.5,2,0.5,2.7,0l2.2-1.2
				c0.8-0.5,0.8-1.1,0-1.6l-2.2-1.2C126.2,126.4,124.9,126.4,124.2,126.8z M130.6,130.4l-2.5,1.4c-0.7,0.4-0.7,1,0,1.4l2.5,1.4
				c0.7,0.4,1.8,0.4,2.5,0l2.5-1.4c0.7-0.4,0.7-1,0-1.4l-2.5-1.4C132.4,130,131.4,130,130.6,130.4z M137,134l-2.5,1.4
				c-0.7,0.4-0.7,1,0,1.4l2.5,1.4c0.7,0.4,1.8,0.4,2.5,0l2.5-1.4c0.7-0.4,0.7-1,0-1.4l-2.5-1.4C138.8,133.6,137.6,133.6,137,134z
				 M143.2,137.6l-2.5,1.4c-0.7,0.4-0.7,1,0,1.4l2.5,1.4c0.7,0.4,1.8,0.4,2.5,0l2.5-1.4c0.7-0.4,0.7-1,0-1.4l-2.5-1.4
				C145,137.3,144,137.3,143.2,137.6z M149.6,141.3l-2.5,1.4c-0.7,0.4-0.7,1,0,1.4l2.5,1.4c0.7,0.4,1.8,0.4,2.5,0l2.5-1.4
				c0.7-0.4,0.7-1,0-1.4l-2.5-1.4C151.4,140.9,150.2,140.9,149.6,141.3z M155.8,144.9l-2.5,1.4c-0.7,0.4-0.7,1,0,1.4l2.5,1.4
				c0.7,0.4,1.8,0.4,2.5,0l2.5-1.4c0.7-0.4,0.7-1,0-1.4l-2.5-1.4C157.7,144.6,156.6,144.6,155.8,144.9z M164.7,152.8l2.5-1.4
				c0.7-0.4,0.7-1,0-1.4l-2.5-1.4c-0.7-0.4-1.8-0.4-2.5,0l-2.5,1.4c-0.7,0.4-0.7,1,0,1.4l2.5,1.4C162.9,153.3,164,153.3,164.7,152.8
				z M171,156.5l2.5-1.4c0.7-0.4,0.7-1,0-1.4l-2.5-1.4c-0.7-0.4-1.8-0.4-2.5,0l-2.5,1.4c-0.7,0.4-0.7,1,0,1.4l2.5,1.4
				C169.2,156.9,170.3,156.9,171,156.5z M179.9,157.4l-2.5-1.4c-0.7-0.4-1.8-0.4-2.5,0l-2.5,1.4c-0.7,0.4-0.7,1,0,1.4l2.5,1.4
				c0.7,0.4,1.8,0.4,2.5,0l2.5-1.4C180.6,158.4,180.6,157.7,179.9,157.4z M88.1,116.8l7.9,4.5c0.7,0.4,1.8,0.4,2.5,0l2.5-1.4
				c0.7-0.4,0.7-1,0-1.4L93,114c-0.7-0.4-1.8-0.4-2.5,0l-2.5,1.4C87.3,115.8,87.3,116.4,88.1,116.8z M99.8,123.6l2.5,1.4
				c0.7,0.4,1.8,0.4,2.5,0l2.5-1.4c0.7-0.4,0.7-1,0-1.4l-2.5-1.4c-0.7-0.4-1.8-0.4-2.5,0l-2.5,1.4C99.2,122.5,99.2,123.1,99.8,123.6
				z M106.1,127.2l2.5,1.4c0.7,0.4,1.8,0.4,2.5,0l2.5-1.4c0.7-0.4,0.7-1,0-1.4l-2.5-1.4c-0.7-0.4-1.8-0.4-2.5,0l-2.5,1.4
				C105.4,126.2,105.4,126.8,106.1,127.2z M112.4,130.8l2.5,1.4c0.7,0.4,1.8,0.4,2.5,0l2.5-1.4c0.7-0.4,0.7-1,0-1.4l-2.5-1.4
				c-0.7-0.4-1.8-0.4-2.5,0l-2.5,1.4C111.8,129.8,111.8,130.4,112.4,130.8z M123.7,135.9l2.5-1.4c0.7-0.4,0.7-1,0-1.4l-2.5-1.4
				c-0.7-0.4-1.8-0.4-2.5,0l-2.5,1.4c-0.7,0.4-0.7,1,0,1.4l2.5,1.4C121.9,136.3,123.1,136.3,123.7,135.9z M130,139.5l2.5-1.4
				c0.7-0.4,0.7-1,0-1.4l-2.5-1.4c-0.7-0.4-1.8-0.4-2.5,0l-2.5,1.4c-0.7,0.4-0.7,1,0,1.4l2.5,1.4C128.2,139.9,129.3,139.9,130,139.5
				z M136.3,143.2l2.5-1.4c0.7-0.4,0.7-1,0-1.4l-2.5-1.4c-0.7-0.4-1.8-0.4-2.5,0l-2.5,1.4c-0.7,0.4-0.7,1,0,1.4l2.5,1.4
				C134.5,143.6,135.7,143.6,136.3,143.2z M142.6,146.8l2.5-1.4c0.7-0.4,0.7-1,0-1.4l-2.5-1.4c-0.7-0.4-1.8-0.4-2.5,0l-2.5,1.4
				c-0.7,0.4-0.7,1,0,1.4l2.5,1.4C140.8,147.2,141.9,147.2,142.6,146.8z M148.9,150.4l2.5-1.4c0.7-0.4,0.7-1,0-1.4l-2.5-1.4
				c-0.7-0.4-1.8-0.4-2.5,0l-2.5,1.4c-0.7,0.4-0.7,1,0,1.4l2.5,1.4C147.1,150.9,148.3,150.9,148.9,150.4z M155.3,154.1l2.5-1.4
				c0.7-0.4,0.7-1,0-1.4l-2.5-1.4c-0.7-0.4-1.8-0.4-2.5,0l-2.5,1.4c-0.7,0.4-0.7,1,0,1.4l2.5,1.4
				C153.4,154.5,154.5,154.5,155.3,154.1z M156.6,156.3l2.5,1.4c0.7,0.4,1.8,0.4,2.5,0l2.5-1.4c0.7-0.4,0.7-1,0-1.4l-2.5-1.4
				c-0.7-0.4-1.8-0.4-2.5,0l-2.5,1.4C155.8,155.3,155.8,155.9,156.6,156.3z M174,160.8l-6.3-3.6c-0.7-0.4-1.8-0.4-2.5,0l-2.5,1.4
				c-0.7,0.4-0.7,1,0,1.4l6.3,3.6c0.7,0.4,1.8,0.4,2.5,0l2.5-1.4C174.7,161.8,174.7,161.1,174,160.8z M82.2,120.3l11.2,6.4
				c0.8,0.5,2.1,0.5,2.8,0l2.1-1.2c0.8-0.5,0.8-1.1,0-1.6l-11.2-6.4c-0.8-0.5-2.1-0.5-2.8,0l-2.1,1.2
				C81.5,119.2,81.5,119.8,82.2,120.3z M97.7,129.2l2.1,1.2c0.8,0.5,2.1,0.5,2.8,0l2.1-1.2c0.8-0.5,0.8-1.1,0-1.6l-2.1-1.2
				c-0.8-0.5-2.1-0.5-2.8,0l-2.1,1.2C96.9,128.1,96.9,128.7,97.7,129.2z M103.9,132.9l2.1,1.2c0.8,0.5,2.1,0.5,2.8,0l2.1-1.2
				c0.8-0.5,0.8-1.1,0-1.6l-2.1-1.2c-0.8-0.5-2.1-0.5-2.8,0l-2.1,1.2C103.2,131.7,103.2,132.4,103.9,132.9z M110.3,136.5l2.1,1.2
				c0.8,0.5,2.1,0.5,2.8,0l2.1-1.2c0.8-0.5,0.8-1.1,0-1.6l-2.1-1.2c-0.8-0.5-2.1-0.5-2.8,0l-2.1,1.2
				C109.5,135.3,109.5,136,110.3,136.5z M116.6,140.1l2.1,1.2c0.8,0.5,2.1,0.5,2.8,0l2.1-1.2c0.8-0.5,0.8-1.1,0-1.6l-2.1-1.2
				c-0.8-0.5-2.1-0.5-2.8,0l-2.1,1.2C115.8,139,115.8,139.7,116.6,140.1z M122.9,143.8l2.1,1.2c0.8,0.5,2.1,0.5,2.8,0l2.1-1.2
				c0.8-0.5,0.8-1.1,0-1.6l-2.1-1.2c-0.8-0.5-2.1-0.5-2.8,0l-2.1,1.2C122.1,142.6,122.1,143.3,122.9,143.8z M129.2,147.4l2.1,1.2
				c0.8,0.5,2.1,0.5,2.8,0l2.1-1.2c0.8-0.5,0.8-1.1,0-1.6l-2.1-1.2c-0.8-0.5-2.1-0.5-2.8,0l-2.1,1.2
				C128.4,146.3,128.4,146.9,129.2,147.4z M135.5,151.1l2.1,1.2c0.8,0.5,2.1,0.5,2.8,0l2.1-1.2c0.8-0.5,0.8-1.1,0-1.6l-2.1-1.2
				c-0.8-0.5-2.1-0.5-2.8,0l-2.1,1.2C134.7,149.9,134.7,150.6,135.5,151.1z M141.8,154.7l2.1,1.2c0.8,0.5,2.1,0.5,2.8,0l2.1-1.2
				c0.8-0.5,0.8-1.1,0-1.6l-2.1-1.2c-0.8-0.5-2.1-0.5-2.8,0l-2.1,1.2C141,153.5,141,154.2,141.8,154.7z M148.1,158.3l2.1,1.2
				c0.8,0.5,2.1,0.5,2.8,0l2.1-1.2c0.8-0.5,0.8-1.1,0-1.6l-2.1-1.2c-0.8-0.5-2.1-0.5-2.8,0l-2.1,1.2
				C147.3,157.2,147.3,157.9,148.1,158.3z M154.4,162l2.1,1.2c0.8,0.5,2.1,0.5,2.8,0l2.1-1.2c0.8-0.5,0.8-1.1,0-1.6l-2.1-1.2
				c-0.8-0.5-2.1-0.5-2.8,0l-2.1,1.2C153.6,160.8,153.7,161.5,154.4,162z M167.9,164.1l-2.1-1.2c-0.8-0.5-2.1-0.5-2.8,0l-2.1,1.2
				c-0.8,0.5-0.8,1.1,0,1.6l2.1,1.2c0.8,0.5,2.1,0.5,2.8,0l2.1-1.2C168.7,165.3,168.7,164.6,167.9,164.1z M86.3,123.7l-4.9-2.8
				c-0.8-0.5-2.1-0.5-2.8,0l-2.1,1.2c-0.8,0.5-0.8,1.1,0,1.6l4.9,2.8c0.8,0.5,2.1,0.5,2.8,0l2.1-1.2C87,124.9,87,124.2,86.3,123.7z
				 M92.5,127.3l-2.1-1.2c-0.8-0.5-2.1-0.5-2.8,0l-2.1,1.2c-0.8,0.5-0.8,1.1,0,1.6l2.1,1.2c0.8,0.5,2.1,0.5,2.8,0l2.1-1.2
				C93.4,128.6,93.4,127.8,92.5,127.3z M98.9,131l-2.1-1.2c-0.8-0.5-2.1-0.5-2.8,0l-2.1,1.2c-0.8,0.5-0.8,1.1,0,1.6l2.1,1.2
				c0.8,0.5,2.1,0.5,2.8,0l2.1-1.2C99.6,132.2,99.6,131.4,98.9,131z M143,156.5l-40-23.1c-0.8-0.5-2.1-0.5-2.8,0l-2.1,1.2
				c-0.8,0.5-0.8,1.1,0,1.6l40,23c0.8,0.5,2.1,0.5,2.8,0l2.1-1.2C143.8,157.6,143.8,156.9,143,156.5z M149.3,160.1l-2.1-1.2
				c-0.8-0.5-2.1-0.5-2.8,0l-2.1,1.2c-0.8,0.5-0.8,1.1,0,1.6l2.1,1.2c0.8,0.5,2.1,0.5,2.8,0l2.1-1.2
				C150.2,161.2,150.1,160.6,149.3,160.1z M155.6,163.7l-2.1-1.2c-0.8-0.5-2.1-0.5-2.8,0l-2.1,1.2c-0.8,0.5-0.8,1.1,0,1.6l2.1,1.2
				c0.8,0.5,2.1,0.5,2.8,0l2.1-1.2C156.4,164.9,156.4,164.2,155.6,163.7z M162.1,167.5l-2.1-1.2c-0.8-0.5-2.1-0.5-2.8,0l-2.1,1.2
				c-0.8,0.5-0.8,1.1,0,1.6l2.1,1.2c0.8,0.5,2.1,0.5,2.8,0l2.1-1.2C162.8,168.6,162.8,167.9,162.1,167.5z"/>
			<path class="st7" d="M105.5,106.1l5.3,3c0.7,0.4,1.8,0.4,2.5,0c0.7-0.4,0.7-1,0-1.4l-5.3-3c-0.7-0.4-1.8-0.4-2.5,0
				S104.9,105.7,105.5,106.1z M114.6,111.3l2.6,1.4c0.7,0.4,1.8,0.4,2.5,0c0.7-0.4,0.7-1,0-1.4l-2.6-1.4c-0.7-0.4-1.8-0.4-2.5,0
				C114,110.3,114,110.9,114.6,111.3z M121,115l2.6,1.4c0.7,0.4,1.8,0.4,2.5,0c0.7-0.4,0.7-1,0-1.4l-2.6-1.4c-0.7-0.4-1.8-0.4-2.5,0
				C120.3,114,120.3,114.5,121,115z M127.2,118.6l2.6,1.4c0.7,0.4,1.8,0.4,2.5,0c0.7-0.4,0.7-1,0-1.4l-2.6-1.4
				c-0.7-0.4-1.8-0.4-2.5,0C126.6,117.6,126.6,118.2,127.2,118.6z M133.6,122.2l2.6,1.4c0.7,0.4,1.8,0.4,2.5,0c0.7-0.4,0.7-1,0-1.4
				l-2.6-1.4c-0.7-0.4-1.8-0.4-2.5,0C132.9,121.3,132.9,121.8,133.6,122.2z M139.9,125.9l2.6,1.4c0.7,0.4,1.8,0.4,2.5,0
				c0.7-0.4,0.7-1,0-1.4l-2.6-1.4c-0.7-0.4-1.8-0.4-2.5,0C139.2,124.9,139.2,125.5,139.9,125.9z M146.2,129.5l2.6,1.4
				c0.7,0.4,1.8,0.4,2.5,0c0.7-0.4,0.7-1,0-1.4l-2.6-1.4c-0.7-0.4-1.8-0.4-2.5,0C145.5,128.5,145.5,129.1,146.2,129.5z M152.5,133.2
				l2.6,1.4c0.7,0.4,1.8,0.4,2.5,0c0.7-0.4,0.7-1,0-1.4l-2.6-1.4c-0.7-0.4-1.8-0.4-2.5,0C151.8,132.2,151.8,132.8,152.5,133.2z
				 M158.8,136.8l2.6,1.4c0.7,0.4,1.8,0.4,2.5,0c0.7-0.4,0.7-1,0-1.4l-2.6-1.4c-0.7-0.4-1.8-0.4-2.5,0
				C158.1,135.8,158.1,136.4,158.8,136.8z M165.1,140.4l2.6,1.4c0.7,0.4,1.8,0.4,2.5,0c0.7-0.4,0.7-1,0-1.4l-2.6-1.4
				c-0.7-0.4-1.8-0.4-2.5,0C164.5,139.4,164.5,140,165.1,140.4z M171.4,144.1l2.6,1.4c0.7,0.4,1.8,0.4,2.5,0c0.7-0.4,0.7-1,0-1.4
				l-2.6-1.4c-0.7-0.4-1.8-0.4-2.5,0C170.7,143,170.7,143.7,171.4,144.1z M177.7,147.7l2.6,1.4c0.7,0.4,1.8,0.4,2.5,0
				c0.7-0.4,0.7-1,0-1.4l-2.6-1.4c-0.7-0.4-1.8-0.4-2.5,0C177.1,146.7,177.1,147.3,177.7,147.7z M184.2,151.5l2.6,1.4
				c0.7,0.4,1.8,0.4,2.5,0c0.7-0.4,0.7-1,0-1.4l-2.6-1.4c-0.7-0.4-1.8-0.4-2.5,0C183.5,150.4,183.5,151,184.2,151.5z M99.8,109.5
				l2.2,1.2c0.8,0.5,2,0.5,2.7,0l2.2-1.2c0.8-0.5,0.8-1.1,0-1.6l-2.2-1.2c-0.8-0.5-2-0.5-2.7,0l-2.2,1.2
				C99.1,108.4,99.1,109.1,99.8,109.5z M111.1,114.4l2.2-1.2c0.8-0.5,0.8-1.1,0-1.6l-2.2-1.2c-0.8-0.5-2-0.5-2.7,0l-2.2,1.2
				c-0.8,0.5-0.8,1.1,0,1.6l2.2,1.2C109.1,114.9,110.4,114.9,111.1,114.4z M112.5,116.8l2.2,1.2c0.8,0.5,2,0.5,2.7,0l2.2-1.2
				c0.8-0.5,0.8-1.1,0-1.6l-2.2-1.2c-0.8-0.5-2-0.5-2.7,0l-2.2,1.2C111.7,115.7,111.7,116.3,112.5,116.8z M118.8,120.5l2.2,1.2
				c0.8,0.5,2,0.5,2.7,0l2.2-1.2c0.8-0.5,0.8-1.1,0-1.6l-2.2-1.2c-0.8-0.5-2-0.5-2.7,0l-2.2,1.2C118,119.3,118,120,118.8,120.5z
				 M132.2,122.5l-2.2-1.2c-0.8-0.5-2-0.5-2.7,0l-2.2,1.2c-0.8,0.5-0.8,1.1,0,1.6l2.2,1.2c0.8,0.5,2,0.5,2.7,0l2.2-1.2
				C133,123.6,133,123,132.2,122.5z M138.5,126.2l-2.2-1.2c-0.8-0.5-2-0.5-2.7,0l-2.2,1.2c-0.8,0.5-0.8,1.1,0,1.6l2.2,1.2
				c0.8,0.5,2,0.5,2.7,0l2.2-1.2C139.3,127.3,139.3,126.6,138.5,126.2z M144.8,129.8l-2.2-1.2c-0.8-0.5-2-0.5-2.7,0l-2.2,1.2
				c-0.8,0.5-0.8,1.1,0,1.6l2.2,1.2c0.8,0.5,2,0.5,2.7,0l2.2-1.2C145.6,130.9,145.6,130.3,144.8,129.8z M151.1,133.4l-2.2-1.2
				c-0.8-0.5-2-0.5-2.7,0l-2.2,1.2c-0.8,0.5-0.8,1.1,0,1.6l2.2,1.2c0.8,0.5,2,0.5,2.7,0l2.2-1.2C152,134.6,151.9,133.9,151.1,133.4z
				 M157.4,137.1l-2.2-1.2c-0.8-0.5-2-0.5-2.7,0l-2.2,1.2c-0.8,0.5-0.8,1.1,0,1.6l2.2,1.2c0.8,0.5,2,0.5,2.7,0l2.2-1.2
				C158.2,138.2,158.2,137.6,157.4,137.1z M163.7,140.7l-2.2-1.2c-0.8-0.5-2-0.5-2.7,0l-2.2,1.2c-0.8,0.5-0.8,1.1,0,1.6l2.2,1.2
				c0.8,0.5,2,0.5,2.7,0l2.2-1.2C164.6,141.9,164.6,141.2,163.7,140.7z M162.9,145.9l2.2,1.2c0.8,0.5,2,0.5,2.7,0l2.2-1.2
				c0.8-0.5,0.8-1.1,0-1.6l-2.2-1.2c-0.8-0.5-2-0.5-2.7,0l-2.2,1.2C162.2,144.8,162.2,145.5,162.9,145.9z M176.4,148l-2.2-1.2
				c-0.8-0.5-2-0.5-2.7,0l-2.2,1.2c-0.8,0.5-0.8,1.1,0,1.6l2.2,1.2c0.8,0.5,2,0.5,2.7,0l2.2-1.2C177.2,149.1,177.2,148.4,176.4,148z
				 M185.6,153.3l-5-2.8c-0.8-0.5-2-0.5-2.7,0l-2.2,1.2c-0.8,0.5-0.8,1.1,0,1.6l5,2.8c0.8,0.5,2,0.5,2.7,0l2.2-1.2
				C186.3,154.5,186.3,153.8,185.6,153.3z M94.1,112.9l5,2.8c0.8,0.5,2,0.5,2.7,0l2.2-1.2c0.8-0.5,0.8-1.1,0-1.6l-5-2.8
				c-0.8-0.5-2-0.5-2.7,0l-2.2,1.2C93.3,111.8,93.3,112.4,94.1,112.9z M103.2,118.1l2.2,1.2c0.8,0.5,2,0.5,2.7,0l2.2-1.2
				c0.8-0.5,0.8-1.1,0-1.6l-2.2-1.2c-0.8-0.5-2-0.5-2.7,0l-2.2,1.2C102.4,117,102.4,117.7,103.2,118.1z M111.6,123.1
				c0.8,0.5,2,0.5,2.7,0l2.2-1.2c0.8-0.5,0.8-1.1,0-1.6l-2.2-1.2c-0.8-0.5-2-0.5-2.7,0l-2.2,1.2c-0.8,0.5-0.8,1.1,0,1.6L111.6,123.1
				z M117.9,126.7c0.8,0.5,2,0.5,2.7,0l2.2-1.2c0.8-0.5,0.8-1.1,0-1.6l-2.2-1.2c-0.8-0.5-2-0.5-2.7,0l-2.2,1.2
				c-0.8,0.5-0.8,1.1,0,1.6L117.9,126.7z M124.2,126.2l-2.2,1.2c-0.8,0.5-0.8,1.1,0,1.6l2.2,1.2c0.8,0.5,2,0.5,2.7,0l2.2-1.2
				c0.8-0.5,0.8-1.1,0-1.6l-2.2-1.2C126.2,125.8,124.9,125.8,124.2,126.2z M130.6,129.8l-2.5,1.4c-0.7,0.4-0.7,1,0,1.4l2.5,1.4
				c0.7,0.4,1.8,0.4,2.5,0l2.5-1.4c0.7-0.4,0.7-1,0-1.4l-2.5-1.4C132.4,129.4,131.4,129.4,130.6,129.8z M137,133.4l-2.5,1.4
				c-0.7,0.4-0.7,1,0,1.4l2.5,1.4c0.7,0.4,1.8,0.4,2.5,0l2.5-1.4c0.7-0.4,0.7-1,0-1.4l-2.5-1.4C138.8,133,137.6,133,137,133.4z
				 M143.2,137.1l-2.5,1.4c-0.7,0.4-0.7,1,0,1.4l2.5,1.4c0.7,0.4,1.8,0.4,2.5,0l2.5-1.4c0.7-0.4,0.7-1,0-1.4l-2.5-1.4
				C145,136.7,144,136.7,143.2,137.1z M149.6,140.7l-2.5,1.4c-0.7,0.4-0.7,1,0,1.4l2.5,1.4c0.7,0.4,1.8,0.4,2.5,0l2.5-1.4
				c0.7-0.4,0.7-1,0-1.4l-2.5-1.4C151.4,140.3,150.2,140.3,149.6,140.7z M155.8,144.4l-2.5,1.4c-0.7,0.4-0.7,1,0,1.4l2.5,1.4
				c0.7,0.4,1.8,0.4,2.5,0l2.5-1.4c0.7-0.4,0.7-1,0-1.4l-2.5-1.4C157.7,144,156.6,144,155.8,144.4z M164.7,152.2l2.5-1.4
				c0.7-0.4,0.7-1,0-1.4l-2.5-1.4c-0.7-0.4-1.8-0.4-2.5,0l-2.5,1.4c-0.7,0.4-0.7,1,0,1.4l2.5,1.4C162.9,152.6,164,152.6,164.7,152.2
				z M171,155.9l2.5-1.4c0.7-0.4,0.7-1,0-1.4l-2.5-1.4c-0.7-0.4-1.8-0.4-2.5,0l-2.5,1.4c-0.7,0.4-0.7,1,0,1.4l2.5,1.4
				C169.2,156.3,170.3,156.3,171,155.9z M179.9,156.8l-2.5-1.4c-0.7-0.4-1.8-0.4-2.5,0l-2.5,1.4c-0.7,0.4-0.7,1,0,1.4l2.5,1.4
				c0.7,0.4,1.8,0.4,2.5,0l2.5-1.4C180.6,157.8,180.6,157.2,179.9,156.8z M88.1,116.2l7.9,4.5c0.7,0.4,1.8,0.4,2.5,0l2.5-1.4
				c0.7-0.4,0.7-1,0-1.4l-7.9-4.5c-0.7-0.4-1.8-0.4-2.5,0l-2.5,1.4C87.3,115.2,87.3,115.8,88.1,116.2z M99.8,123l2.5,1.4
				c0.7,0.4,1.8,0.4,2.5,0l2.5-1.4c0.7-0.4,0.7-1,0-1.4l-2.5-1.4c-0.7-0.4-1.8-0.4-2.5,0l-2.5,1.4C99.2,121.9,99.2,122.6,99.8,123z
				 M106.1,126.7l2.5,1.4c0.7,0.4,1.8,0.4,2.5,0l2.5-1.4c0.7-0.4,0.7-1,0-1.4l-2.5-1.4c-0.7-0.4-1.8-0.4-2.5,0l-2.5,1.4
				C105.4,125.6,105.4,126.2,106.1,126.7z M112.4,130.3l2.5,1.4c0.7,0.4,1.8,0.4,2.5,0l2.5-1.4c0.7-0.4,0.7-1,0-1.4l-2.5-1.4
				c-0.7-0.4-1.8-0.4-2.5,0l-2.5,1.4C111.8,129.2,111.8,129.9,112.4,130.3z M123.7,135.4l2.5-1.4c0.7-0.4,0.7-1,0-1.4l-2.5-1.4
				c-0.7-0.4-1.8-0.4-2.5,0l-2.5,1.4c-0.7,0.4-0.7,1,0,1.4l2.5,1.4C121.9,135.8,123.1,135.8,123.7,135.4z M130,139l2.5-1.4
				c0.7-0.4,0.7-1,0-1.4l-2.5-1.4c-0.7-0.4-1.8-0.4-2.5,0l-2.5,1.4c-0.7,0.4-0.7,1,0,1.4l2.5,1.4C128.2,139.4,129.3,139.4,130,139z
				 M136.3,142.6l2.5-1.4c0.7-0.4,0.7-1,0-1.4l-2.5-1.4c-0.7-0.4-1.8-0.4-2.5,0l-2.5,1.4c-0.7,0.4-0.7,1,0,1.4l2.5,1.4
				C134.5,143,135.7,143,136.3,142.6z M142.6,146.3l2.5-1.4c0.7-0.4,0.7-1,0-1.4l-2.5-1.4c-0.7-0.4-1.8-0.4-2.5,0l-2.5,1.4
				c-0.7,0.4-0.7,1,0,1.4l2.5,1.4C140.8,146.6,141.9,146.6,142.6,146.3z M148.9,149.9l2.5-1.4c0.7-0.4,0.7-1,0-1.4l-2.5-1.4
				c-0.7-0.4-1.8-0.4-2.5,0L144,147c-0.7,0.4-0.7,1,0,1.4l2.5,1.4C147.1,150.2,148.3,150.2,148.9,149.9z M155.3,153.6l2.5-1.4
				c0.7-0.4,0.7-1,0-1.4l-2.5-1.4c-0.7-0.4-1.8-0.4-2.5,0l-2.5,1.4c-0.7,0.4-0.7,1,0,1.4l2.5,1.4
				C153.4,153.9,154.5,153.9,155.3,153.6z M156.6,155.7l2.5,1.4c0.7,0.4,1.8,0.4,2.5,0l2.5-1.4c0.7-0.4,0.7-1,0-1.4l-2.5-1.4
				c-0.7-0.4-1.8-0.4-2.5,0l-2.5,1.4C155.8,154.7,155.8,155.4,156.6,155.7z M174,160.1l-6.3-3.6c-0.7-0.4-1.8-0.4-2.5,0l-2.5,1.4
				c-0.7,0.4-0.7,1,0,1.4l6.3,3.6c0.7,0.4,1.8,0.4,2.5,0l2.5-1.4C174.7,161.1,174.7,160.6,174,160.1z M82.2,119.7l11.2,6.4
				c0.8,0.5,2.1,0.5,2.8,0l2.1-1.2c0.8-0.5,0.8-1.1,0-1.6l-11.2-6.4c-0.8-0.5-2.1-0.5-2.8,0l-2.1,1.2
				C81.5,118.6,81.5,119.3,82.2,119.7z M97.7,128.6l2.1,1.2c0.8,0.5,2.1,0.5,2.8,0l2.1-1.2c0.8-0.5,0.8-1.1,0-1.6l-2.1-1.2
				c-0.8-0.5-2.1-0.5-2.8,0l-2.1,1.2C96.9,127.4,96.9,128.2,97.7,128.6z M103.9,132.2l2.1,1.2c0.8,0.5,2.1,0.5,2.8,0l2.1-1.2
				c0.8-0.5,0.8-1.1,0-1.6l-2.1-1.2c-0.8-0.5-2.1-0.5-2.8,0l-2.1,1.2C103.2,131.1,103.2,131.9,103.9,132.2z M110.3,135.9l2.1,1.2
				c0.8,0.5,2.1,0.5,2.8,0l2.1-1.2c0.8-0.5,0.8-1.1,0-1.6l-2.1-1.2c-0.8-0.5-2.1-0.5-2.8,0l-2.1,1.2
				C109.5,134.7,109.5,135.5,110.3,135.9z M116.6,139.5l2.1,1.2c0.8,0.5,2.1,0.5,2.8,0l2.1-1.2c0.8-0.5,0.8-1.1,0-1.6l-2.1-1.2
				c-0.8-0.5-2.1-0.5-2.8,0l-2.1,1.2C115.8,138.4,115.8,139.1,116.6,139.5z M122.9,143.2l2.1,1.2c0.8,0.5,2.1,0.5,2.8,0l2.1-1.2
				c0.8-0.5,0.8-1.1,0-1.6l-2.1-1.2c-0.8-0.5-2.1-0.5-2.8,0l-2.1,1.2C122.1,142,122.1,142.8,122.9,143.2z M129.2,146.8l2.1,1.2
				c0.8,0.5,2.1,0.5,2.8,0l2.1-1.2c0.8-0.5,0.8-1.1,0-1.6l-2.1-1.2c-0.8-0.5-2.1-0.5-2.8,0l-2.1,1.2
				C128.4,145.6,128.4,146.4,129.2,146.8z M135.5,150.4l2.1,1.2c0.8,0.5,2.1,0.5,2.8,0l2.1-1.2c0.8-0.5,0.8-1.1,0-1.6l-2.1-1.2
				c-0.8-0.5-2.1-0.5-2.8,0l-2.1,1.2C134.7,149.3,134.7,150.1,135.5,150.4z M141.8,154.1l2.1,1.2c0.8,0.5,2.1,0.5,2.8,0l2.1-1.2
				c0.8-0.5,0.8-1.1,0-1.6l-2.1-1.2c-0.8-0.5-2.1-0.5-2.8,0l-2.1,1.2C141,152.9,141,153.7,141.8,154.1z M148.1,157.7l2.1,1.2
				c0.8,0.5,2.1,0.5,2.8,0l2.1-1.2c0.8-0.5,0.8-1.1,0-1.6l-2.1-1.2c-0.8-0.5-2.1-0.5-2.8,0l-2.1,1.2
				C147.3,156.6,147.3,157.3,148.1,157.7z M154.4,161.4l2.1,1.2c0.8,0.5,2.1,0.5,2.8,0l2.1-1.2c0.8-0.5,0.8-1.1,0-1.6l-2.1-1.2
				c-0.8-0.5-2.1-0.5-2.8,0l-2.1,1.2C153.6,160.2,153.7,161,154.4,161.4z M167.9,163.5l-2.1-1.2c-0.8-0.5-2.1-0.5-2.8,0l-2.1,1.2
				c-0.8,0.5-0.8,1.1,0,1.6l2.1,1.2c0.8,0.5,2.1,0.5,2.8,0l2.1-1.2C168.7,164.7,168.7,164,167.9,163.5z M86.3,123.1l-4.9-2.8
				c-0.8-0.5-2.1-0.5-2.8,0l-2.1,1.2c-0.8,0.5-0.8,1.1,0,1.6l4.9,2.8c0.8,0.5,2.1,0.5,2.8,0l2.1-1.2C87,124.3,87,123.5,86.3,123.1z
				 M92.5,126.8l-2.1-1.2c-0.8-0.5-2.1-0.5-2.8,0l-2.1,1.2c-0.8,0.5-0.8,1.1,0,1.6l2.1,1.2c0.8,0.5,2.1,0.5,2.8,0l2.1-1.2
				C93.4,127.9,93.4,127.2,92.5,126.8z M98.9,130.4l-2.1-1.2c-0.8-0.5-2.1-0.5-2.8,0l-2.1,1.2c-0.8,0.5-0.8,1.1,0,1.6l2.1,1.2
				c0.8,0.5,2.1,0.5,2.8,0l2.1-1.2C99.6,131.6,99.6,130.8,98.9,130.4z M143,155.8l-40-23c-0.8-0.5-2.1-0.5-2.8,0l-2.1,1.2
				c-0.8,0.5-0.8,1.1,0,1.6l40,23c0.8,0.5,2.1,0.5,2.8,0l2.1-1.2C143.8,157.1,143.8,156.3,143,155.8z M149.3,159.5l-2.1-1.2
				c-0.8-0.5-2.1-0.5-2.8,0l-2.1,1.2c-0.8,0.5-0.8,1.1,0,1.6l2.1,1.2c0.8,0.5,2.1,0.5,2.8,0l2.1-1.2
				C150.2,160.7,150.1,160,149.3,159.5z M155.6,163.1l-2.1-1.2c-0.8-0.5-2.1-0.5-2.8,0l-2.1,1.2c-0.8,0.5-0.8,1.1,0,1.6l2.1,1.2
				c0.8,0.5,2.1,0.5,2.8,0l2.1-1.2C156.4,164.4,156.4,163.6,155.6,163.1z M162.1,166.8l-2.1-1.2c-0.8-0.5-2.1-0.5-2.8,0l-2.1,1.2
				c-0.8,0.5-0.8,1.1,0,1.6l2.1,1.2c0.8,0.5,2.1,0.5,2.8,0l2.1-1.2C162.8,168.1,162.8,167.3,162.1,166.8z"/>
			<g>
				<path class="st7" d="M196.5,149.6L113,101.4c-3.2-1.9-5.9-6.9-5.9-11.2V24.6c0-4.4,2.7-6.3,5.9-4.5l83.5,48.2
					c3.2,1.9,5.9,6.9,5.9,11.2V145C202.4,149.5,199.7,151.5,196.5,149.6z"/>
				<path class="st9" d="M197.2,146.3l-82.6-47.8c-2.6-1.6-4.2-4.9-4.2-8.3V24.3c0-0.8,0.9-1.3,1.5-0.9c0.1,0,0.2,0.1,0.2,0.1
					l82.7,47.8c3.1,1.8,4.2,4.9,4.2,8.3v65.7C199,146.2,198.1,146.7,197.2,146.3C197.3,146.3,197.3,146.3,197.2,146.3z"/>
				<path class="st10" d="M194.9,71.3l-82.7-47.8c0,0-0.1-0.1-0.2-0.1c-0.7-0.4-1.5,0.1-1.5,0.9v65.9c0,3.4,1.6,6.7,4.2,8.3
					l82.6,47.8c0,0,0.1,0,0.1,0.1c0.8,0.4,1.7-0.1,1.7-0.9V79.7C199,76.2,198,73.1,194.9,71.3z M198.4,145.3c0,0.3-0.3,0.5-0.5,0.5
					c-0.1,0-0.2,0-0.2-0.1L115,97.8c-2.4-1.5-3.9-4.5-3.9-7.8V24.3c0-0.2,0.2-0.4,0.4-0.4c0.1,0,0.1,0,0.2,0.1l82.9,47.9
					c3.2,1.9,3.9,5.2,3.9,7.8L198.4,145.3L198.4,145.3z"/>
				<path class="st4" d="M198.2,67.6l-83.5-48.2c-1.3-0.8-2.5-0.9-3.4-0.5c-0.1,0-1.8,0.9-1.9,0.9l0,0c1-0.5,2.3-0.4,3.6,0.4
					l83.5,48.2c3.2,1.9,5.9,6.9,5.9,11.2v65.5c0,2.7-1,4.5-2.6,5c0.1,0,0.3,0,0.5-0.2c0.1,0,1.8-1,1.9-1.1c1.1-0.8,1.8-2.4,1.8-4.5
					V78.8C204.1,74.4,201.4,69.4,198.2,67.6z"/>
				<path class="st11" d="M198.2,67.6l-83.5-48.2c-1.3-0.8-2.5-0.9-3.4-0.5c-0.1,0-1.8,0.9-1.9,0.9l0,0c1-0.5,2.3-0.4,3.6,0.4
					l83.5,48.2L198.2,67.6z"/>
				<path class="st5" d="M196.8,68.3l-83.5-48.2c-1.3-0.8-2.6-0.9-3.5-0.5c0.9-0.1,1.8,0.1,2.8,0.7l83.5,48.2
					c3.2,1.9,5.9,6.9,5.9,11.2v65.5c0,2.6-0.9,4.3-2.4,4.8c1.8-0.3,3-2.2,3-5.1V79.5C202.6,75.2,200,70.2,196.8,68.3z"/>
			</g>
		</g>
	</g>
	<path class="st12" d="M189.5,71.7L119.6,32c-0.2,9.3,0,38.4-0.1,47.9c-0.1,15.4-2.4,27.6-20.2,41.5c-5.7,4.5-30.6,18-50.9,28.7
		c-8.2,4.4-8.8,6.2-13,9.7c-4.1,3.4-10.2,6.5-12,7.7l69.4,40.1c1.3-0.8,8.1-4.2,12.5-7.9c4.2-3.5,4.7-7.3,13-11.6
		c20.3-10.6,55-31.9,61.1-35.6c7.9-4.7,9.9-7.8,9.9-20.2C189.4,122.6,189.3,80.8,189.5,71.7z"/>
	<path class="st5" d="M189.5,72l-69.8-39.7c-0.2,4.5,0,41.3-0.1,50.8c-0.1,15.4-2.4,19.8-20.2,33.7c-5.7,4.5-30.6,18-50.9,28.7
		c-8.2,4.4-9.6,9.9-13.7,13.4c-4.1,3.4-8.5,4.4-10.3,5.4l69.4,40.1c1.3-0.8,6.3-1.9,10.8-5.7c4.2-3.5,5.5-9,13.7-13.4
		c20.3-10.6,45.2-24.3,50.9-28.7c17.8-13.9,20.1-18.3,20.2-33.7C189.5,113.4,189.3,76.2,189.5,72z"/>
	<g>
		<g>
			<path class="st13" d="M171.1,206.6c-1.9,11.7-15.3,10-23.6,10c-1.1-0.3-2.2-0.7-3.3-1.2c-5.2-2.7-8.9-8.2-3.4-13.7
				c0.7-0.7,1.4-1.3,2.2-1.8c2.7-1.9,5.9-3.1,9.1-3.5c0.9-0.1,1.6-0.2,2.5-0.2c6.2-1.1,12.9,2.2,15.8,7.9
				C170.8,204.8,171.1,205.7,171.1,206.6z"/>
		</g>
		<path class="st14" d="M170.7,204.8c-0.5,2.6-1.3,5.1-2.7,6.5c-0.9,0.9-1.8,0.4-2.8,0.9c-2,1-3.8,2.6-6.2,2.8
			c-1.9,0.2-3.5-0.7-5.5-0.9c-2.1-0.2-4.6,0.4-6.3,0.4c-1.1-0.3-2.2-0.7-3.3-1.2c-2.7-1.3-4.9-3.5-5.8-6c0.1,3.3,2.7,6.2,6.2,7.9
			c1,0.6,2.2,0.9,3.3,1.2c8.3,0,21.7,1.7,23.6-10C171.1,206,170.9,205.4,170.7,204.8z"/>
		<g>
			<path class="st15" d="M160.9,199.2c0.2-0.1,0.3-0.4,0.3-0.6c0-0.4-0.2-0.9-0.6-1c-0.4-0.2-0.9,0-1,0.4c0,0.1-0.1,0.2-0.1,0.3
				c-0.2,0.2-0.5,0.1-0.8,0c-0.2-0.1-0.5-0.3-0.8-0.2c-0.3,0.2-0.1,0.7,0.2,0.9s0.7,0.1,0.9,0.1c0.3-0.1,0.7-0.1,0.9,0
				C160.3,199,160.6,199.3,160.9,199.2z"/>
			<path class="st15" d="M167.3,202.1c-0.2-0.1-0.4-0.1-0.6-0.2c-0.2-0.1-0.4-0.3-0.6-0.4c-0.3-0.1-0.6,0-0.9,0
				c-0.3,0.1-0.7,0.1-0.9,0.2c-0.1,0-0.2,0-0.3,0.1c-0.1,0.1-0.1,0.2-0.1,0.3c0,0.6,0.6,0.9,1,1c0.6,0.1,1,0,1.6,0.1
				c0.1,0.2,0.2,0.5,0.4,0.7c0.1,0.2,0.3,0.4,0.5,0.4c0.3,0.1,0.6-0.3,0.7-0.6C168.2,203.2,168,202.4,167.3,202.1z"/>
			<path class="st15" d="M157.4,204.6c0.7,0.3,1.2,0.8,1.9,0.9c0.1,0,0.2,0,0.3,0c0.1-0.1,0.1-0.1,0.1-0.2c0.1-0.4,0.1-0.9,0-1.2
				c0.2,0,0.4-0.1,0.7-0.1c-0.4-0.3-0.9-0.4-1.2-0.5c-1.1-0.2-2.3-0.2-3.4,0c-0.1,0.2,0.1,0.5,0.3,0.7
				C156.4,204.5,156.9,204.5,157.4,204.6z"/>
			<path class="st15" d="M150.7,197.8c-0.4,0-0.7,0-1,0c-0.1,0-0.2,0-0.3,0c-0.3,0.1-0.4,0.6-0.3,0.9c0.2,0.3,0.5,0.5,0.8,0.5
				c0.4,0.1,0.8,0.1,1.1-0.1c0.4-0.1,0.7-0.3,1-0.2c0.3,0.1,0.6,0.3,0.8,0.1c0.1-0.1,0.1-0.2,0.1-0.2c0.1-0.5-0.4-0.9-0.9-1
				c-0.5-0.1-1,0-1.5,0L150.7,197.8z"/>
			<path class="st15" d="M144.4,202.6c-0.4,0.1-0.9,0.3-1.1,0.6c-0.1,0-0.1,0.1-0.1,0.2s0.1,0.3,0.2,0.3c0.6,0.3,1.3,0.4,2,0.1
				c0.5-0.2,0.9-0.6,1.5-0.7c0.1-0.1,0.1-0.3,0-0.4c-0.1-0.1-0.2-0.2-0.4-0.2c-0.5-0.2-0.9-0.4-1.5-0.4c-0.2,0-0.5-0.1-0.7,0
				c-0.2,0.1-0.4,0.3-0.4,0.5L144.4,202.6z"/>
			<path class="st15" d="M141.3,208.9c0-0.1,0-0.2,0-0.3c-0.1-0.4-0.4-0.8-0.7-0.9c-0.3-0.1-0.6-0.2-0.9-0.3
				c-0.3-0.1-0.6-0.3-0.6-0.6c0,0.6,0,1,0.2,1.5c0.2,0.5,0.7,0.9,1.1,0.9C141,209.3,141.2,209.2,141.3,208.9z"/>
			<path class="st15" d="M152,209.2c0.1-0.1,0.2-0.1,0.3-0.2c0.1,0,0.1-0.1,0.1-0.1c0-0.1,0-0.2,0-0.3c-0.1-0.3-0.4-0.6-0.7-0.7
				c-0.3-0.1-0.7-0.1-0.9-0.1c-0.4,0.1-0.8,0.2-1.1,0.4c0.5,0.5,0.9,0.8,1.5,1c0.2,0.1,0.3,0.1,0.5,0.1
				C151.8,209.3,151.9,209.2,152,209.2z"/>
			<path class="st15" d="M161.4,208.3c-0.5,0.1-0.9,0.3-1.3,0.4s-0.9-0.1-1.3,0.1c0.6,1.1,2.7,1.2,3.7,1c0.6-0.1,2-0.2,1.6-0.9
				C163.7,208.1,162,208.2,161.4,208.3z"/>
			<path class="st15" d="M167.6,207.7c0.6,0,1,0.1,1.6,0.1c0.2,0,0.4,0,0.5-0.1c0.2-0.1,0.2-0.3,0.2-0.6c-0.1-0.6-0.7-1-1.2-1.1
				c-0.3,0-0.5-0.1-0.8,0.1c-0.2,0.1-0.4,0.4-0.4,0.6c0,0.2,0.1,0.4,0,0.5s-0.2,0.1-0.3,0.1c-0.2,0.1-0.2,0.5,0,0.6
				c0.2,0.1,0.5,0.1,0.7,0.1L167.6,207.7z"/>
			<path class="st15" d="M149.9,203.7c0.1,0.1,0.2,0.1,0.3,0.1c0.2,0,0.4,0.1,0.7,0.1c0.2,0,0.4,0.1,0.6,0c0.3-0.1,0.4-0.5,0.6-0.8
				c0.2-0.3,0.5-0.5,0.8-0.7c0.1,0,0.1-0.1,0.2-0.1c0.3-0.2,0.5-0.3,0.9-0.4c0.1-0.4-0.3-0.8-0.7-0.7c-0.3,0.1-0.5,0.4-0.7,0.6
				c-0.5,0.6-1.3,0.6-2,0.9c-0.2,0.1-0.4,0.2-0.6,0.4C149.8,203.2,149.7,203.5,149.9,203.7z"/>
			<path class="st15" d="M147.3,212.2c0.3,0.2,0.1,0.7,0.3,1c0.1,0.1,0.2,0.3,0.3,0.3c0.3,0.1,0.7,0.1,0.9-0.2
				c0.2-0.3,0.2-0.7-0.1-0.9c-0.1-0.1-0.3-0.2-0.5-0.3c-0.1-0.1-0.2-0.2-0.2-0.3c-0.3-0.5-0.7-1-1.1-1.1c-0.3-0.1-0.7,0-0.9,0.1
				c-0.3,0-0.7,0-0.9-0.2c-0.1,0.9,0.8,1.6,1.6,1.6C146.9,212.1,147.1,212.1,147.3,212.2z"/>
			<path class="st15" d="M158.4,211.8c0,0.1-0.1,0.2-0.2,0.2c-0.5,0.1-0.9,0.2-1.3,0.2c-0.3,0-0.8,0-0.9,0.3
				c-0.1,0.2,0.1,0.5,0.3,0.6c0.2,0.1,0.5,0.1,0.7,0.1c1,0,2-0.1,2.9-0.3c0.2,0,0.4-0.1,0.5-0.2c0.3-0.3,0.3-0.9-0.1-1
				c-0.4-0.2-0.9-0.2-1.1,0.1c-0.1,0.1-0.3,0.3-0.5,0.3C158.6,212.1,158.4,211.9,158.4,211.8L158.4,211.8z"/>
		</g>
	</g>
	<g>
		<path class="st13" d="M123.1,218.5c0.7-0.7,1.4-1.3,2.2-1.8c2.7-1.9,5.9-3.1,9.1-3.5c0.9-0.1,0.4-0.2,1.2-0.2c0.1,0,0.2,0,0.2,0
			c-0.2-0.3,0.1-2-0.1-2.3c-1.9-2.4-8.5-6.5-14.3-5.5c-0.9,0-1.7,0.1-2.5,0.2c-3.3,0.4-6.5,1.7-9.1,3.5c-0.8,0.6-1.5,1.1-2.2,1.8
			c-5.6,5.6-1.9,11.1,3.4,13.7c1,0.6,2.2,0.9,3.3,1.2c1.9,0,4.1,0.1,6.3,0.1C120,223.5,120.7,221,123.1,218.5z"/>
		<path class="st14" d="M135.7,210.6c-0.6,0-1.1,0.1-1.8,0.1c-3.3,0.4-6.5,1.7-9.1,3.5c-0.8,0.6-1.5,1.1-2.2,1.8
			c-2.6,2.6-3.1,5-2.6,7.3c-2.2,0-4.4-0.1-6.3-0.1c-1.1-0.3-2.2-0.7-3.3-1.2c-2.5-1.2-4.5-3.1-5.6-5.3c0.2,3.2,2.8,6,6.2,7.7
			c1,0.6,2.2,0.9,3.3,1.2c1.9,0,4.1,0.1,6.3,0.1c-0.6-2.3,0-4.8,2.6-7.3c0.7-0.7,1.4-1.3,2.2-1.8c2.7-1.9,5.9-3.1,9.1-3.5
			c0.9-0.1,0.4-0.2,1.2-0.2c0.1,0,0.2,0,0.2,0C135.5,212.1,136.2,211.4,135.7,210.6z"/>
		<g>
			<path class="st15" d="M127.6,208.2c0.2-0.1,0.3-0.4,0.3-0.6c0-0.4-0.2-0.9-0.6-1c-0.4-0.2-0.9,0-1,0.4c0,0.1-0.1,0.2-0.1,0.3
				c-0.2,0.2-0.5,0.1-0.8,0c-0.2-0.1-0.5-0.3-0.8-0.2c-0.3,0.2-0.1,0.7,0.2,0.9c0.3,0.2,0.7,0.1,0.9,0.1c0.3,0,0.7-0.1,0.9,0
				C127,208.1,127.3,208.3,127.6,208.2z"/>
			<path class="st15" d="M133.5,210.3c-0.2-0.1-0.4-0.1-0.6-0.2c-0.2-0.1-0.4-0.3-0.6-0.4c-0.3-0.1-0.6,0-0.9,0
				c-0.3,0.1-0.7,0.1-0.9,0.2c-0.1,0-0.2,0-0.3,0.1c-0.1,0.1-0.1,0.2-0.1,0.3c0,0.6,0.6,0.9,1,1c0.6,0.1,1,0,1.6,0.1
				c0.1,0.2,0.2,0.5,0.4,0.7c0.1,0.2,0.3,0.4,0.5,0.4c0.3,0.1,0.6-0.3,0.7-0.6C134.4,211.4,134.1,210.5,133.5,210.3z"/>
			<path class="st15" d="M124.3,211.9c0.7,0.3,1.2,0.8,1.9,0.9c0.1,0,0.2,0,0.3,0c0.1-0.1,0.1-0.1,0.1-0.2c0.1-0.4,0.1-0.9,0-1.2
				c0.2,0,0.4-0.1,0.7-0.1c-0.4-0.3-0.9-0.4-1.2-0.5c-1.1-0.2-2.3-0.2-3.4,0c-0.1,0.2,0.1,0.5,0.3,0.7
				C123.2,211.7,123.8,211.7,124.3,211.9z"/>
			<path class="st15" d="M117.5,206.8c-0.4,0-0.7,0-1,0c-0.1,0-0.2,0-0.3,0c-0.3,0.1-0.4,0.6-0.3,0.9c0.2,0.3,0.5,0.5,0.8,0.5
				c0.4,0.1,0.8,0.1,1.1-0.1c0.4-0.1,0.7-0.3,1-0.2c0.3,0.1,0.6,0.3,0.8,0.1c0.1-0.1,0.1-0.2,0.1-0.2c0.1-0.5-0.4-0.9-0.9-1
				c-0.5-0.1-1,0-1.5,0L117.5,206.8z"/>
			<path class="st15" d="M111.1,211.6c-0.4,0.1-0.9,0.3-1.1,0.6c-0.1,0-0.1,0.1-0.1,0.2c0,0.1,0.1,0.3,0.2,0.3
				c0.6,0.3,1.3,0.4,2,0.1c0.5-0.2,0.9-0.6,1.5-0.7c0.1-0.1,0.1-0.3,0-0.4s-0.2-0.2-0.4-0.2c-0.5-0.2-0.9-0.4-1.5-0.4
				c-0.2,0-0.5-0.1-0.7,0c-0.2,0.1-0.4,0.3-0.4,0.5L111.1,211.6z"/>
			<path class="st15" d="M108.2,217.9c0-0.1,0-0.2,0-0.3c-0.1-0.4-0.4-0.8-0.7-0.9c-0.3-0.1-0.6-0.2-0.9-0.3
				c-0.3-0.1-0.6-0.3-0.6-0.6c0,0.6,0,1,0.2,1.5c0.2,0.5,0.7,0.9,1.1,0.9C107.7,218.3,108.1,218.2,108.2,217.9z"/>
			<path class="st15" d="M117.4,216c-0.5,0.1-0.9,0.3-1.3,0.4s-0.9-0.1-1.3,0.1c0.6,1.1,2.7,1.2,3.7,1c0.6-0.1,2-0.2,1.6-0.9
				C119.6,215.9,117.9,215.9,117.4,216z"/>
			<path class="st15" d="M116.7,212.7c0.1,0.1,0.2,0.1,0.3,0.1c0.2,0,0.4,0.1,0.7,0.1c0.2,0,0.4,0.1,0.6,0c0.3-0.1,0.4-0.5,0.6-0.8
				c0.2-0.3,0.5-0.5,0.8-0.7c0.1,0,0.1-0.1,0.2-0.1c0.3-0.2,0.5-0.3,0.9-0.4c0.1-0.4-0.3-0.8-0.7-0.7c-0.3,0.1-0.5,0.4-0.7,0.6
				c-0.5,0.6-1.3,0.6-2,0.9c-0.2,0.1-0.4,0.2-0.6,0.4C116.5,212.2,116.5,212.5,116.7,212.7z"/>
			<path class="st15" d="M114.1,221.2c0.3,0.2,0.1,0.7,0.3,1c0.1,0.1,0.2,0.3,0.3,0.3c0.3,0.1,0.7,0.1,0.9-0.2
				c0.2-0.3,0.2-0.7-0.1-0.9c-0.1-0.1-0.3-0.2-0.5-0.3c-0.1-0.1-0.2-0.2-0.2-0.3c-0.3-0.5-0.7-1-1.1-1.1c-0.3-0.1-0.7,0-0.9,0.1
				c-0.3,0-0.7,0-0.9-0.2c-0.1,0.9,0.8,1.6,1.6,1.6C113.7,221.2,114,221.1,114.1,221.2z"/>
		</g>
		<path class="st13" d="M130.1,219.6c-2.8,0.9-0.1,3.6,2.7,3C135.5,222.1,137.8,217,130.1,219.6z"/>
		<path class="st14" d="M134.8,219.1c-0.2,0.9-1.3,2.2-2.6,2.5c-1.3,0.3-2.7-0.2-3.3-0.9c-0.1,1.1,1.8,2.4,3.9,1.9
			C134.5,222.3,136.2,219.9,134.8,219.1z"/>
		<path class="st13" d="M123.7,221.3c-1.2,0.4-0.1,1.6,1.1,1.3C126.1,222.4,127,220.2,123.7,221.3z"/>
		<path class="st14" d="M125.8,221.1c-0.1,0.4-0.6,0.9-1.1,1c-0.6,0.1-1.1-0.1-1.4-0.4c-0.1,0.5,0.8,1,1.7,0.9
			C125.6,222.5,126.4,221.4,125.8,221.1z"/>
		<path class="st13" d="M127.4,223.5c-1.2,0.4-0.1,1.6,1.1,1.3C129.8,224.5,130.7,222.4,127.4,223.5z"/>
		<path class="st14" d="M129.4,223.2c-0.1,0.4-0.6,0.9-1.1,1c-0.6,0.1-1.1-0.1-1.4-0.4c-0.1,0.5,0.8,1,1.7,0.9
			C129.3,224.6,130.1,223.6,129.4,223.2z"/>
	</g>
	<g>
		<path class="st16" d="M125.9,46.2l2.1,1.1c0.7,0.4,1.2,0.9,1.5,1.5c0.4,0.7,0.5,1.3,0.5,2.2v1c0,0.9-0.2,1.3-0.5,1.6
			c-0.4,0.2-0.9,0.1-1.5-0.3l-0.7-0.4v4.1l-1.4-0.8V46.2z M128,51.9c0.2,0.1,0.4,0.2,0.5,0.1c0.1-0.1,0.2-0.3,0.2-0.7v-1.2
			c0-0.4-0.1-0.7-0.2-0.9c-0.1-0.2-0.3-0.4-0.5-0.5l-0.7-0.4v3.1L128,51.9z"/>
		<path class="st16" d="M130.7,49l2.1,1.1c0.8,0.4,1.2,0.9,1.5,1.5c0.3,0.6,0.5,1.2,0.5,2.1v0.7c0,1-0.3,1.5-0.9,1.5l0,0
			c0.4,0.3,0.6,0.7,0.8,1.1c0.1,0.5,0.2,0.9,0.2,1.5v1.8c0,0.3,0,0.6,0,0.8s0.1,0.4,0.1,0.6l-1.4-0.9c-0.1-0.2-0.1-0.4-0.1-0.5
			c0-0.2,0-0.4,0-0.8v-1.9c0-0.5-0.1-0.9-0.2-1c-0.1-0.3-0.4-0.5-0.7-0.7l-0.5-0.3v4.4l-1.4-0.8L130.7,49L130.7,49z M132.6,54.5
			c0.3,0.2,0.5,0.2,0.7,0.1c0.1-0.1,0.2-0.3,0.2-0.7v-0.8c0-0.4-0.1-0.7-0.2-0.9c-0.1-0.2-0.3-0.4-0.6-0.6l-0.7-0.4v2.8L132.6,54.5z
			"/>
		<path class="st16" d="M135.8,52l1.4,0.8v10.1l-1.4-0.8V52z"/>
		<path class="st16" d="M137.8,53.1l1.4,0.9l0.9,8.3l0,0l0.9-7.3l1.2,0.8l-1.3,9.4l-1.8-1L137.8,53.1z"/>
		<path class="st16" d="M143.8,56.5l1.9,1l1.4,10.9l-1.4-0.8l-0.3-2.2l0,0l-1.6-0.9l-0.3,1.8l-1.3-0.8L143.8,56.5z M145.3,64.1
			l-0.7-5.3l0,0l-0.6,4.6L145.3,64.1z"/>
		<path class="st16" d="M148.2,68.7c-0.4-0.7-0.6-1.3-0.6-2.2v-5.4c0-0.8,0.2-1.3,0.6-1.5c0.4-0.2,0.9-0.2,1.5,0.2
			c0.7,0.4,1.1,0.9,1.5,1.5c0.4,0.7,0.6,1.3,0.6,2.2v1l-1.3-0.8v-1.1c0-0.7-0.2-1-0.7-1.3c-0.5-0.3-0.7-0.1-0.7,0.6v5.7
			c0,0.7,0.2,1,0.7,1.3s0.7,0.1,0.7-0.6v-1.5l1.3,0.8v1.4c0,0.8-0.2,1.3-0.6,1.5c-0.4,0.2-0.9,0.2-1.5-0.2
			C149,69.8,148.5,69.3,148.2,68.7z"/>
		<path class="st16" d="M153.7,68.1l-1.7-6.7l1.5,0.9l0.9,4.3l0,0l0.9-3.1l1.3,0.8l-1.7,4.8v4.3l-1.4-0.8L153.7,68.1L153.7,68.1z"/>
		<path class="st16" d="M159.4,65.5l2.1,1.1c0.7,0.4,1.2,0.9,1.5,1.5c0.4,0.7,0.5,1.3,0.5,2.2v1c0,0.9-0.2,1.3-0.5,1.6
			c-0.4,0.2-0.9,0.1-1.5-0.3l-0.7-0.4v4.1l-1.4-0.8V65.5z M161.4,71.3c0.2,0.1,0.4,0.2,0.5,0.1s0.2-0.3,0.2-0.7v-1.2
			c0-0.4-0.1-0.7-0.2-0.9c-0.1-0.2-0.3-0.4-0.5-0.5l-0.7-0.4v3.1L161.4,71.3z"/>
		<path class="st16" d="M164.6,78.2c-0.4-0.7-0.6-1.4-0.6-2.2v-5.3c0-0.9,0.2-1.3,0.6-1.6c0.4-0.2,0.9-0.2,1.5,0.2
			c0.7,0.4,1.2,0.9,1.5,1.6c0.4,0.7,0.6,1.4,0.6,2.2v5.3c0,0.9-0.2,1.3-0.6,1.6c-0.4,0.2-0.9,0.2-1.5-0.2
			C165.6,79.4,165,78.8,164.6,78.2z M166.9,77.8v-5.5c0-0.7-0.3-1.1-0.8-1.4s-0.8-0.1-0.8,0.6v5.5c0,0.7,0.3,1.1,0.8,1.4
			C166.7,78.6,166.9,78.4,166.9,77.8z"/>
		<path class="st16" d="M169.3,71.2l1.4,0.8v8.6l2.3,1.3v1.4l-3.7-2.1V71.2z"/>
		<path class="st16" d="M173.7,73.8l1.4,0.8v10.1l-1.4-0.8V73.8z"/>
		<path class="st16" d="M176.5,85c-0.4-0.7-0.6-1.3-0.6-2.2v-5.3c0-0.8,0.2-1.3,0.6-1.5s0.9-0.2,1.5,0.2c0.7,0.4,1.1,0.9,1.5,1.5
			c0.4,0.7,0.6,1.3,0.6,2.2v1l-1.3-0.8V79c0-0.7-0.2-1-0.7-1.3c-0.5-0.3-0.7-0.1-0.7,0.6v5.7c0,0.7,0.2,1,0.7,1.3
			c0.5,0.3,0.7,0.1,0.7-0.6v-1.5l1.3,0.8v1.4c0,0.8-0.2,1.3-0.6,1.5c-0.4,0.2-0.9,0.2-1.5-0.2C177.3,86.2,176.8,85.6,176.5,85z"/>
		<path class="st16" d="M182,84.4l-1.7-6.7l1.5,0.9l0.9,4.3l0,0l0.9-3.1l1.3,0.8l-1.7,4.8v4.3l-1.4-0.8L182,84.4L182,84.4z"/>
	</g>
	<g>
		<path class="st7" d="M75.1,147.7c-0.8,0.4-1.4,0.8-2.2,1.1l49.1,28.4c0.8-0.4,1.4-0.8,2.2-1.1L75.1,147.7z"/>
		<path class="st7" d="M79.7,145.2c-0.8,0.4-1.4,0.8-2.2,1.1l49.2,28.4c0.8-0.4,1.4-0.8,2.2-1.1L79.7,145.2z"/>
		<path class="st7" d="M88.7,140.3c-0.7,0.4-1.4,0.8-2.1,1.1l49.3,28.4c0.8-0.4,1.4-0.8,2.2-1.1L88.7,140.3z"/>
		<path class="st7" d="M84.2,142.8c-0.8,0.4-1.4,0.8-2.2,1.1l49.3,28.4c0.8-0.4,1.4-0.8,2.2-1.1L84.2,142.8z"/>
		<path class="st7" d="M93.2,137.7c-0.7,0.4-1.4,0.8-2.1,1.1l49.4,28.4c0.8-0.4,1.4-0.8,2.2-1.2L93.2,137.7z"/>
		<path class="st17" d="M57.6,147c-0.8,0.4-2.5,1.1-3.1,1.5l38.3,22c0.7-0.4,2.3-1.2,3-1.6L57.6,147z"/>
		<path class="st7" d="M52,149.9c-0.4,0.2-0.7,0.4-0.9,0.5c-0.4,0.2-0.8,0.5-1.1,0.7l59.3,34.2c0.6-0.5,1-0.9,1.7-1.4L52,149.9z"/>
		<path class="st17" d="M89.4,129.5c-0.7,0.4-2.4,1.3-3.1,1.7l40,22.9c0.8-0.4,2.5-1.3,3.2-1.7L89.4,129.5z"/>
		<path class="st7" d="M41.8,159.3c-0.4,0.6-0.9,1-1.3,1.6l59.7,34.5c0.3-0.2,0.7-0.5,0.9-0.8c0.3-0.2,0.5-0.5,0.8-0.7L41.8,159.3z"
			/>
		<path class="st17" d="M125,67.2l36.2,20.2c0-1,0-2.8,0-3.8L125,63.1c0,0.1,0,1,0,1.1C125,65.2,125,66.2,125,67.2z"/>
		<path class="st7" d="M125,72.3l58.9,33.2c0-0.5,0-0.9,0-1.4c0-0.3,0-0.7,0-0.9L125,69.9C125,70.7,125,71.5,125,72.3z"/>
		<path class="st7" d="M47.7,152.4c-0.6,0.5-1.1,0.9-1.6,1.4l60,34.6c0.5-0.6,0.9-1,1.4-1.6L47.7,152.4z"/>
		<path class="st7" d="M44.5,155.7c-0.5,0.6-0.9,1.1-1.3,1.7l60.1,34.7c0.2-0.3,0.5-0.7,0.8-0.9c0.2-0.3,0.4-0.5,0.6-0.8L44.5,155.7
			z"/>
		<path class="st7" d="M121,103.1c-0.4,0.6-0.8,1.1-1.1,1.8l60.5,34.3c0.4-0.6,0.8-1.2,1.1-1.8L121,103.1z"/>
		<path class="st7" d="M122.9,99c-0.3,0.7-0.5,1.3-0.9,1.9l60.4,34.2c0.3-0.7,0.5-1.3,0.7-2.1L122.9,99z"/>
		<path class="st17" d="M124.1,93.3c-0.2,0.8-0.3,2.7-0.5,3.4l48.8,27.5c0.1-0.8,0.2-2.8,0.3-3.6L124.1,93.3z"/>
		<path class="st7" d="M125,74.9c0,0.9,0,1.6,0,2.4l58.9,33.3c0-0.8,0-1.6,0-2.5L125,74.9z"/>
		<path class="st7" d="M125,79.9c0,0.9,0,1.7,0,2.4l58.9,33.3c0-0.8,0-1.6,0-2.5L125,79.9z"/>
		<path class="st7" d="M124.9,85.1c0,0.9,0,1.6-0.1,2.4l59,33.4c0-0.8,0-1.5,0-2.5L124.9,85.1z"/>
		<path class="st7" d="M105,119.3c-0.6,0.5-1.1,0.9-1.8,1.4l59.4,33.9c0.8-0.5,1.4-0.9,2-1.3L105,119.3z"/>
		<path class="st7" d="M101.3,122.2c-0.6,0.4-1.2,0.9-1.9,1.3l59,33.7c0.8-0.5,1.4-0.9,2.1-1.2L101.3,122.2z"/>
		<path class="st7" d="M97.1,124.9c-0.7,0.4-1.3,0.9-2,1.2l58.8,33.6c0.8-0.4,1.4-0.9,2.1-1.2L97.1,124.9z"/>
		<path class="st7" d="M118.5,106.7c-0.4,0.6-0.9,1-1.3,1.6l60.3,34.2c0.6-0.6,1-1,1.4-1.6L118.5,106.7z"/>
		<path class="st17" d="M113,112.4c-0.6,0.5-1.8,1.8-2.4,2.3l42.6,24.3c0.6-0.5,2-1.8,2.5-2.3L113,112.4z"/>
		<path class="st7" d="M108.7,116.3c-0.6,0.5-1.1,0.9-1.7,1.4l59.7,34c0.6-0.5,1.2-0.9,1.8-1.4L108.7,116.3z"/>
		<g>
			<path class="st17" d="M91.1,137.6c-0.8,0.4-1.9,0.4-2.7,0c-0.8-0.4-0.8-1.1,0-1.5c0.8-0.4,1.9-0.4,2.7,0
				C91.9,136.5,91.9,137.3,91.1,137.6z"/>
			<path class="st17" d="M86.7,140.1c-0.8,0.4-1.9,0.4-2.7,0c-0.8-0.4-0.8-1.1,0-1.5c0.8-0.4,1.9-0.4,2.7,0S87.4,139.6,86.7,140.1z"
				/>
			<path class="st17" d="M82.2,142.5c-0.8,0.4-1.9,0.4-2.7,0c-0.8-0.4-0.8-1.1,0-1.5c0.8-0.4,1.9-0.4,2.7,0
				C83,141.4,83,142.1,82.2,142.5z"/>
			<path class="st17" d="M77.9,144.9c-0.8,0.4-1.9,0.4-2.7,0c-0.8-0.4-0.8-1.1,0-1.5c0.8-0.4,1.9-0.4,2.7,0
				C78.5,143.8,78.5,144.6,77.9,144.9z"/>
			<path class="st17" d="M73.4,147.4c-0.8,0.4-1.9,0.4-2.7,0c-0.8-0.4-0.8-1.1,0-1.5c0.8-0.4,1.9-0.4,2.7,0
				C74.2,146.3,74.2,146.9,73.4,147.4z"/>
		</g>
	</g>
	<g>
		<g class="st18">
			
				<linearGradient id="SVGID_1_" gradientUnits="userSpaceOnUse" x1="105.6064" y1="156.9922" x2="167.2162" y2="174.1719" gradientTransform="matrix(1 0 0 -1 0 232)">
				<stop  offset="5.618000e-02" style="stop-color:#92A3B0"/>
				<stop  offset="1" style="stop-color:#FFFFFF"/>
			</linearGradient>
			<path class="st19" d="M101,122.9c0,0,26.9-0.8,37-5.8c10-5,15.2-19.8,15.2-27.1c0-7.3,1.1-25.2,1.1-25.2s-12.8-3.9-25.6-14.7
				c-7.5-6.3-21.3-27.1-21.3-27.1s0,52.3,0,66.3S101,122.9,101,122.9z"/>
			
				<linearGradient id="SVGID_2_" gradientUnits="userSpaceOnUse" x1="105.4594" y1="156.5727" x2="165.1661" y2="173.2216" gradientTransform="matrix(1 0 0 -1 0 232)">
				<stop  offset="5.618000e-02" style="stop-color:#92A3B0"/>
				<stop  offset="1" style="stop-color:#FFFFFF"/>
			</linearGradient>
			<path class="st20" d="M101,122.9c0,0,26.2-0.9,36.1-5.9c10-5.1,15-19.6,15-26.8c0-7.2,1.1-25.3,1.1-25.3s-12.5-3.5-25.1-14.1
				c-7.3-6.3-20.9-26.6-20.9-26.6s0,51.9,0,65.7S101,122.9,101,122.9z"/>
			
				<linearGradient id="SVGID_3_" gradientUnits="userSpaceOnUse" x1="105.3389" y1="156.0583" x2="163.1722" y2="172.1849" gradientTransform="matrix(1 0 0 -1 0 232)">
				<stop  offset="5.618000e-02" style="stop-color:#92A3B0"/>
				<stop  offset="1" style="stop-color:#FFFFFF"/>
			</linearGradient>
			<path class="st21" d="M101,122.9c0,0,25.7-1,35.3-6c10-5.2,14.8-19.5,14.8-26.6s1.1-25.5,1.1-25.5s-12.3-2.8-24.6-13.3
				c-7.2-6.1-20.5-26.2-20.5-26.2s0,51.6,0,65S101,122.9,101,122.9z"/>
			
				<linearGradient id="SVGID_4_" gradientUnits="userSpaceOnUse" x1="105.1862" y1="155.6591" x2="161.1759" y2="171.2716" gradientTransform="matrix(1 0 0 -1 0 232)">
				<stop  offset="5.618000e-02" style="stop-color:#92A3B0"/>
				<stop  offset="1" style="stop-color:#FFFFFF"/>
			</linearGradient>
			<path class="st22" d="M101,122.9c0,0,25.1-1.2,34.5-6.2c10-5.3,14.6-19.3,14.6-26.3c0-7,1.1-25.7,1.1-25.7s-12-2.4-24.2-12.6
				c-7-6-20.1-25.6-20.1-25.6s0,51.3,0,64.4S101,122.9,101,122.9z"/>
			
				<linearGradient id="SVGID_5_" gradientUnits="userSpaceOnUse" x1="105.072" y1="155.1221" x2="159.2479" y2="170.2289" gradientTransform="matrix(1 0 0 -1 0 232)">
				<stop  offset="5.618000e-02" style="stop-color:#92A3B0"/>
				<stop  offset="1" style="stop-color:#FFFFFF"/>
			</linearGradient>
			<path class="st23" d="M101,122.9c0,0,24.5-1.3,33.7-6.3c10-5.3,14.4-19.2,14.4-26.1c0-6.8,1-25.8,1-25.8s-11.8-1.8-23.7-11.8
				c-6.9-5.9-19.7-25.1-19.7-25.1s0,50.9,0,63.8S101,122.9,101,122.9z"/>
			
				<linearGradient id="SVGID_6_" gradientUnits="userSpaceOnUse" x1="104.9662" y1="154.5548" x2="157.358" y2="169.164" gradientTransform="matrix(1 0 0 -1 0 232)">
				<stop  offset="5.618000e-02" style="stop-color:#92A3B0"/>
				<stop  offset="1" style="stop-color:#FFFFFF"/>
			</linearGradient>
			<path class="st24" d="M101,122.9c0,0,23.9-1.5,32.9-6.3c10-5.4,14.2-19,14.2-25.8c0-6.6,1-26,1-26s-11.6-1.2-23.1-11
				c-6.7-5.7-19.3-24.5-19.3-24.5s0,50.5,0,63.1S101,122.9,101,122.9z"/>
			
				<linearGradient id="SVGID_7_" gradientUnits="userSpaceOnUse" x1="104.8299" y1="154.097" x2="155.4673" y2="168.2171" gradientTransform="matrix(1 0 0 -1 0 232)">
				<stop  offset="5.618000e-02" style="stop-color:#92A3B0"/>
				<stop  offset="1" style="stop-color:#FFFFFF"/>
			</linearGradient>
			<path class="st25" d="M101,122.9c0,0,23.3-1.6,32-6.4c10-5.5,14-19,14-25.5s1-26.1,1-26.1s-11.4-0.8-22.6-10.4
				c-6.6-5.6-18.9-24.1-18.9-24.1s0,50.1,0,62.4S101,122.9,101,122.9z"/>
			
				<linearGradient id="SVGID_8_" gradientUnits="userSpaceOnUse" x1="104.7156" y1="153.5601" x2="153.6284" y2="167.1992" gradientTransform="matrix(1 0 0 -1 0 232)">
				<stop  offset="5.618000e-02" style="stop-color:#92A3B0"/>
				<stop  offset="1" style="stop-color:#FFFFFF"/>
			</linearGradient>
			<path class="st26" d="M101,122.9c0,0,22.7-1.8,31.3-6.5c10-5.6,13.8-18.8,13.8-25.2c0-6.3,1-26.2,1-26.2s-11.1-0.3-22.2-9.7
				c-6.4-5.5-18.5-23.5-18.5-23.5s0,49.7,0,61.9S101,122.9,101,122.9z"/>
			
				<linearGradient id="SVGID_9_" gradientUnits="userSpaceOnUse" x1="104.6016" y1="153.0224" x2="151.8195" y2="166.189" gradientTransform="matrix(1 0 0 -1 0 232)">
				<stop  offset="5.618000e-02" style="stop-color:#92A3B0"/>
				<stop  offset="1" style="stop-color:#FFFFFF"/>
			</linearGradient>
			<path class="st27" d="M101,122.9c0,0,22.2-1.9,30.4-6.6c10-5.7,13.7-18.7,13.7-24.9c0-6.3,0.9-26.3,0.9-26.3s-10.9,0.3-21.7-8.9
				c-6.3-5.4-18.1-23-18.1-23s0,49.4,0,61.2S101,122.9,101,122.9z"/>
			
				<linearGradient id="SVGID_10_" gradientUnits="userSpaceOnUse" x1="104.4623" y1="152.5752" x2="150.0152" y2="165.2774" gradientTransform="matrix(1 0 0 -1 0 232)">
				<stop  offset="5.618000e-02" style="stop-color:#92A3B0"/>
				<stop  offset="1" style="stop-color:#FFFFFF"/>
			</linearGradient>
			<path class="st28" d="M101,122.9c0,0,21.5-2.1,29.7-6.7c10-5.8,13.6-18.5,13.6-24.6s0.9-26.5,0.9-26.5s-10.6,0.8-21.2-8.2
				c-6.2-5.2-17.7-22.6-17.7-22.6s0,49,0,60.5S101,122.9,101,122.9z"/>
			
				<linearGradient id="SVGID_11_" gradientUnits="userSpaceOnUse" x1="104.3654" y1="151.976" x2="148.283" y2="164.2223" gradientTransform="matrix(1 0 0 -1 0 232)">
				<stop  offset="5.618000e-02" style="stop-color:#92A3B0"/>
				<stop  offset="1" style="stop-color:#FFFFFF"/>
			</linearGradient>
			<path class="st29" d="M101,122.9c0,0,20.9-2.2,28.8-6.8c10-5.9,13.4-18.4,13.4-24.4s0.9-26.6,0.9-26.6s-10.3,1.3-20.8-7.5
				c-6.1-5.1-17.2-22-17.2-22s0,48.6,0,60S101,122.9,101,122.9z"/>
			
				<linearGradient id="SVGID_12_" gradientUnits="userSpaceOnUse" x1="104.2411" y1="151.4753" x2="146.5531" y2="163.2738" gradientTransform="matrix(1 0 0 -1 0 232)">
				<stop  offset="5.618000e-02" style="stop-color:#92A3B0"/>
				<stop  offset="1" style="stop-color:#FFFFFF"/>
			</linearGradient>
			<path class="st30" d="M101,122.9c0,0,20.4-2.4,28-6.9c10-6,13.2-18.2,13.2-24.1c0-5.9,0.9-26.8,0.9-26.8s-10.1,1.8-20.3-6.7
				c-5.9-5-16.9-21.5-16.9-21.5s0,48.2,0,59.3S101,122.9,101,122.9z"/>
			
				<linearGradient id="SVGID_13_" gradientUnits="userSpaceOnUse" x1="104.1217" y1="150.9568" x2="144.8579" y2="162.3159" gradientTransform="matrix(1 0 0 -1 0 232)">
				<stop  offset="5.618000e-02" style="stop-color:#92A3B0"/>
				<stop  offset="1" style="stop-color:#FFFFFF"/>
			</linearGradient>
			<path class="st31" d="M101,122.9c0,0,19.8-2.6,27.2-7c9.9-6.1,13-18.1,13-23.8s0.9-26.9,0.9-26.9s-9.9,2.4-19.8-6.1
				c-5.8-4.9-16.5-20.9-16.5-20.9s0,47.9,0,58.7S101,122.9,101,122.9z"/>
			
				<linearGradient id="SVGID_14_" gradientUnits="userSpaceOnUse" x1="104.0054" y1="150.4271" x2="143.1956" y2="161.3551" gradientTransform="matrix(1 0 0 -1 0 232)">
				<stop  offset="5.618000e-02" style="stop-color:#92A3B0"/>
				<stop  offset="1" style="stop-color:#FFFFFF"/>
			</linearGradient>
			<path class="st32" d="M101,122.9c0,0,19.1-2.7,26.3-7.1c9.9-6.2,12.9-18,12.9-23.5c0-5.6,0.9-27.1,0.9-27.1s-9.7,2.8-19.2-5.3
				c-5.6-4.7-16.1-20.5-16.1-20.5s0,47.6,0,58.1S101,122.9,101,122.9z"/>
			
				<linearGradient id="SVGID_15_" gradientUnits="userSpaceOnUse" x1="103.9" y1="149.8586" x2="141.5739" y2="160.3639" gradientTransform="matrix(1 0 0 -1 0 232)">
				<stop  offset="5.618000e-02" style="stop-color:#92A3B0"/>
				<stop  offset="1" style="stop-color:#FFFFFF"/>
			</linearGradient>
			<path class="st33" d="M101,122.9c0,0,18.6-2.8,25.6-7.2c9.9-6.3,12.7-17.8,12.7-23.2c0-5.4,0.9-27.2,0.9-27.2s-9.4,3.4-18.8-4.6
				c-5.5-4.6-15.6-19.9-15.6-19.9s0,47.2,0,57.4S101,122.9,101,122.9z"/>
			
				<linearGradient id="SVGID_16_" gradientUnits="userSpaceOnUse" x1="103.7761" y1="149.3559" x2="139.9636" y2="159.4466" gradientTransform="matrix(1 0 0 -1 0 232)">
				<stop  offset="5.618000e-02" style="stop-color:#92A3B0"/>
				<stop  offset="1" style="stop-color:#FFFFFF"/>
			</linearGradient>
			<path class="st34" d="M101,122.9c0,0,18-3,24.7-7.3c9.9-6.3,12.5-17.7,12.5-22.9s0.9-27.4,0.9-27.4s-9.2,3.9-18.3-3.9
				c-5.3-4.5-15.3-19.4-15.3-19.4s0,46.8,0,56.8S101,122.9,101,122.9z"/>
			
				<linearGradient id="SVGID_17_" gradientUnits="userSpaceOnUse" x1="103.6749" y1="148.7723" x2="138.4055" y2="158.4568" gradientTransform="matrix(1 0 0 -1 0 232)">
				<stop  offset="5.618000e-02" style="stop-color:#92A3B0"/>
				<stop  offset="1" style="stop-color:#FFFFFF"/>
			</linearGradient>
			<path class="st35" d="M101,122.9c0,0,17.3-3.1,24-7.4c9.9-6.4,12.3-17.5,12.3-22.6s0.9-27.5,0.9-27.5s-8.9,4.5-17.8-3.1
				c-5.2-4.5-14.9-19-14.9-19s0,46.4,0,56.2S101,122.9,101,122.9z"/>
			
				<linearGradient id="SVGID_18_" gradientUnits="userSpaceOnUse" x1="103.5563" y1="148.2509" x2="136.8599" y2="157.5375" gradientTransform="matrix(1 0 0 -1 0 232)">
				<stop  offset="5.618000e-02" style="stop-color:#92A3B0"/>
				<stop  offset="1" style="stop-color:#FFFFFF"/>
			</linearGradient>
			<path class="st36" d="M101,122.9c0,0,16.8-3.3,23.1-7.5c9.9-6.5,12.1-17.4,12.1-22.4c0-5,0.8-27.7,0.8-27.7s-8.6,4.9-17.3-2.5
				c-5-4.3-14.4-18.4-14.4-18.4s0,46.1,0,55.5S101,122.9,101,122.9z"/>
			
				<linearGradient id="SVGID_19_" gradientUnits="userSpaceOnUse" x1="103.4578" y1="147.6574" x2="135.3643" y2="156.5543" gradientTransform="matrix(1 0 0 -1 0 232)">
				<stop  offset="5.618000e-02" style="stop-color:#92A3B0"/>
				<stop  offset="1" style="stop-color:#FFFFFF"/>
			</linearGradient>
			<path class="st37" d="M101,122.9c0,0,16.2-3.5,22.4-7.6c9.9-6.6,11.9-17.2,11.9-22.1c0-4.8,0.8-27.8,0.8-27.8s-8.4,5.4-16.9-1.7
				c-4.9-4.2-14-17.9-14-17.9s0,45.7,0,54.9S101,122.9,101,122.9z"/>
			
				<linearGradient id="SVGID_20_" gradientUnits="userSpaceOnUse" x1="103.3667" y1="147.0376" x2="133.9056" y2="155.5532" gradientTransform="matrix(1 0 0 -1 0 232)">
				<stop  offset="5.618000e-02" style="stop-color:#92A3B0"/>
				<stop  offset="1" style="stop-color:#FFFFFF"/>
			</linearGradient>
			<path class="st38" d="M101,122.9c0,0,15.5-3.6,21.5-7.7c9.9-6.7,11.8-17.2,11.8-21.8c0-4.7,0.8-28,0.8-28s-8.1,6-16.4-0.9
				C114,60.4,105,47.2,105,47.2s0,45.3,0,54.2S101,122.9,101,122.9z"/>
			
				<linearGradient id="SVGID_21_" gradientUnits="userSpaceOnUse" x1="103.2514" y1="146.5043" x2="132.4526" y2="154.647" gradientTransform="matrix(1 0 0 -1 0 232)">
				<stop  offset="5.618000e-02" style="stop-color:#92A3B0"/>
				<stop  offset="1" style="stop-color:#FFFFFF"/>
			</linearGradient>
			<path class="st39" d="M101,122.9c0,0,15-3.8,20.7-7.8c9.9-6.8,11.7-17,11.7-21.5s0.8-28.1,0.8-28.1s-8,6.4-15.9-0.3
				c-4.6-3.9-13.3-16.9-13.3-16.9s0,44.9,0,53.6S101,122.9,101,122.9z"/>
			
				<linearGradient id="SVGID_22_" gradientUnits="userSpaceOnUse" x1="103.1717" y1="145.8434" x2="131.0649" y2="153.6213" gradientTransform="matrix(1 0 0 -1 0 232)">
				<stop  offset="5.618000e-02" style="stop-color:#92A3B0"/>
				<stop  offset="1" style="stop-color:#FFFFFF"/>
			</linearGradient>
			<path class="st40" d="M101,122.9c0,0,14.3-4,19.9-7.9c9.8-6.9,11.5-16.9,11.5-21.3s0.7-28.2,0.7-28.2s-7.7,7-15.4,0.5
				c-4.5-3.8-12.8-16.3-12.8-16.3s0,44.5,0,53S101,122.9,101,122.9z"/>
		</g>
		<path class="st7" d="M128.6,69.4c-9.8-5.5-19.3-15-27.4-27l-0.1-0.1c-8.1,2.7-17.6,1.1-27.5-4.6l-0.4-0.2l0.6,18.3
			c1.9,28.3,11.6,40.7,27.1,67.1l0.4,0.2c15.5-8.4,25.2-9.6,27.1-35.8l0.6-17.7L128.6,69.4z"/>
		<path class="st2" d="M134.1,65.2c-9.8-5.5-19.3-15-27.4-27l-0.1-0.1c-8.1,2.7-17.6,1.1-27.4-4.6l-0.4-0.2l-5.4,4.3l0.3,0.2
			c9.8,5.8,19.3,7.4,27.4,4.6l0.1,0.1c8.1,12,17.6,21.5,27.4,27l0.4,0.2l-0.6,17.7c-1.2,17.2-5.8,23.6-13.1,28.3
			c9.2-5.4,17.2-13.3,18.6-32.5l0.6-17.7L134.1,65.2z"/>
		<path class="st2" d="M134.5,65.4l-0.4-0.2c-9.8-5.5-19.3-15-27.4-27l-0.1-0.1l-5.5,4.2l0.1,0.1c8.1,12,17.6,21.5,27.4,27l0.4,0.2
			L134.5,65.4z"/>
		<path class="st8" d="M128.9,69.6l-0.6,17.7c-1.2,17.2-5.8,23.6-13.1,28.3c9.2-5.4,17.2-13.3,18.6-32.5l0.6-17.7L128.9,69.6z"/>
		<path class="st16" d="M99.2,110.8C87,90.7,81,80.7,79.6,58.7l-0.3-11.6c7.8,3.5,15.2,4.6,21.9,3.3c6.7,9.1,14.1,16.6,21.9,22
			l-0.4,11.2c-1.4,20.3-7.6,23.4-19.6,29.5c-0.7,0.3-1.2,0.7-1.9,0.9C100.5,113,99.8,111.9,99.2,110.8z"/>
		
			<radialGradient id="SVGID_23_" cx="7794.2783" cy="-1818.1573" r="18.0131" gradientTransform="matrix(-0.866 -0.5 0 -0.9938 6850.104 2170.0271)" gradientUnits="userSpaceOnUse">
			<stop  offset="0" style="stop-color:#FFFFFF"/>
			<stop  offset="1" style="stop-color:#FFFFFF"/>
		</radialGradient>
		<path class="st41" d="M79.7,67.9c0,13.1,9.2,28.9,20.6,35.5c11.4,6.5,20.6,1.3,20.6-11.7s-9.2-28.9-20.6-35.5
			C88.9,49.6,79.7,54.8,79.7,67.9z"/>
		<path class="st42" d="M104.1,112.3c-0.7,0.3-1.2,0.7-1.9,0.9c-0.7-1.1-1.3-2.2-1.9-3.2C88.2,89.9,82.1,79.8,80.7,57.9l-0.3-10.2
			c-0.4-0.2-0.7-0.3-1-0.5l0.4,11.6c1.4,22,7.6,32.1,19.6,52.1c0.7,1,1.2,2.1,1.9,3.2c0.7-0.4,1.3-0.7,1.9-0.9
			c4.9-2.5,8.9-4.5,11.8-7.3C112.1,108.2,108.5,110,104.1,112.3z"/>
		<path class="st5" d="M128.9,69c-9.8-5.5-19.3-15-27.4-27l-0.1-0.1c-8.1,2.7-17.6,1.1-27.4-4.6l-0.4,0.4c9.8,5.8,19.3,7.3,27.4,4.5
			l0.1,0.1c8.1,12,17.6,21.5,27.4,27l0.4,0.2l-0.6,17.7c-1,14.2-4.3,21-9.6,25.7c5.5-4.6,9-11.5,10-26.1l0.6-17.7L128.9,69z"/>
		<g>
			<path class="st7" d="M63.9,69.3c-0.2,0-0.4-0.2-0.4-0.4c0-0.6,0-1,0-1.6c0-0.2,0.2-0.4,0.4-0.4c0.2,0,0.4,0.2,0.4,0.4
				c0,0.5,0,1,0,1.5C64.3,69.1,64.1,69.3,63.9,69.3z M64.1,65.4L64.1,65.4c-0.3,0-0.4-0.2-0.4-0.5c0.1-0.6,0.2-1,0.3-1.5
				c0-0.2,0.3-0.4,0.5-0.3c0.2,0,0.4,0.3,0.3,0.5c-0.1,0.5-0.2,0.9-0.2,1.5C64.5,65.3,64.3,65.4,64.1,65.4z M64.9,61.7L64.9,61.7
				c-0.3-0.1-0.4-0.3-0.4-0.5c0.2-0.5,0.3-1,0.5-1.5c0.1-0.2,0.3-0.3,0.5-0.2c0.2,0.1,0.3,0.3,0.2,0.5c-0.2,0.5-0.4,0.9-0.5,1.4
				C65.2,61.6,65.1,61.7,64.9,61.7z M66.4,58.1c-0.1,0-0.1,0-0.2,0C66,58,65.9,57.7,66,57.5c0.3-0.5,0.6-0.9,0.9-1.3
				c0.1-0.2,0.4-0.2,0.6-0.1c0.2,0.1,0.2,0.4,0.1,0.6C67.2,57,67,57.5,66.8,58C66.6,58.1,66.5,58.1,66.4,58.1z M68.6,54.9
				c-0.1,0-0.2,0-0.3-0.1c-0.2-0.2-0.2-0.4,0-0.6c0.4-0.4,0.8-0.8,1.1-1.1c0.2-0.1,0.4-0.1,0.6,0c0.1,0.2,0.1,0.4-0.1,0.6
				c-0.4,0.3-0.8,0.7-1,1C68.8,54.9,68.7,54.9,68.6,54.9z M71.6,52.6c-0.1,0-0.3-0.1-0.4-0.2c-0.1-0.2,0-0.4,0.2-0.6
				c0.5-0.3,0.9-0.5,1.4-0.7c0.2-0.1,0.4,0,0.5,0.2s0,0.4-0.2,0.5c-0.5,0.2-0.9,0.4-1.3,0.7C71.7,52.6,71.7,52.6,71.6,52.6z
				 M75.2,51.2c-0.2,0-0.4-0.1-0.4-0.3c0-0.2,0.1-0.4,0.3-0.5c0.5-0.1,1-0.2,1.6-0.3c0.2,0,0.4,0.1,0.4,0.4c0,0.2-0.1,0.4-0.4,0.4
				C76.2,51,75.8,51,75.2,51.2C75.3,51.2,75.2,51.2,75.2,51.2z"/>
		</g>
		<g>
			<path class="st7" d="M79.4,105.6c-0.1,0-0.2,0-0.3-0.1c-0.4-0.4-0.7-0.8-1-1.1c-0.1-0.2-0.1-0.4,0-0.6c0.2-0.1,0.4-0.1,0.6,0
				c0.4,0.4,0.7,0.8,1,1.1c0.2,0.2,0.1,0.4,0,0.6C79.6,105.6,79.5,105.6,79.4,105.6z M76.9,102.7c-0.1,0-0.2-0.1-0.3-0.2
				c-0.3-0.4-0.7-0.9-0.9-1.2c-0.1-0.2-0.1-0.4,0.1-0.6c0.2-0.1,0.4-0.1,0.6,0.1c0.3,0.4,0.7,0.9,0.9,1.2c0.1,0.2,0.1,0.4-0.1,0.6
				C77,102.7,77,102.7,76.9,102.7z M74.5,99.6c-0.1,0-0.3-0.1-0.3-0.2c-0.3-0.4-0.6-0.9-0.9-1.3c-0.1-0.2-0.1-0.4,0.1-0.6
				c0.2-0.1,0.4-0.1,0.6,0.1c0.3,0.5,0.6,0.9,0.9,1.2c0.1,0.2,0.1,0.4-0.1,0.6C74.7,99.6,74.6,99.6,74.5,99.6z M72.5,96.3
				c-0.1,0-0.3-0.1-0.3-0.2c-0.3-0.5-0.6-0.9-0.8-1.3c-0.1-0.2,0-0.4,0.1-0.6c0.2-0.1,0.4,0,0.6,0.1c0.3,0.5,0.6,0.9,0.8,1.3
				c0.1,0.2,0.1,0.4-0.1,0.6C72.5,96.3,72.5,96.3,72.5,96.3z M70.5,93c-0.1,0-0.3-0.1-0.4-0.2c-0.3-0.5-0.5-0.9-0.8-1.4
				c-0.1-0.2,0-0.4,0.2-0.5c0.2-0.1,0.4,0,0.5,0.2c0.2,0.5,0.5,0.9,0.8,1.3C70.8,92.6,70.7,92.8,70.5,93C70.6,93,70.6,93,70.5,93z
				 M68.8,89.5c-0.2,0-0.3-0.1-0.4-0.2c-0.2-0.5-0.5-0.9-0.7-1.4c-0.1-0.2,0-0.4,0.2-0.5c0.2-0.1,0.4,0,0.5,0.2
				c0.2,0.5,0.4,0.9,0.7,1.4C69.1,89.2,69,89.4,68.8,89.5C68.8,89.5,68.8,89.5,68.8,89.5z"/>
		</g>
		<g>
			<path class="st43" d="M89.8,106.7c-10.9-6.3-19.7-21.5-19.7-33.9c0-6.1,2.1-10.6,5.9-12.8c3.8-2.2,8.8-1.7,14.2,1.4
				c1.8,1,3.6,2.4,5.3,3.9l-0.6,0.4c-1.7-1.5-3.4-2.7-5.1-3.8c-5.1-2.9-9.9-3.4-13.5-1.4c-3.5,2.1-5.5,6.3-5.5,12.1
				c0,12.2,8.6,27.1,19.3,33.3L89.8,106.7z"/>
		</g>
		<path class="st44" d="M91.3,106.9c0,0.7-0.5,0.9-0.9,0.7c-0.5-0.3-0.9-1-0.9-1.7s0.5-0.9,0.9-0.7
			C90.9,105.6,91.3,106.4,91.3,106.9z"/>
		<g>
			<path class="st43" d="M96.2,66.2l-3-0.8c-0.2-0.1-0.4-0.3-0.3-0.5s0.3-0.4,0.5-0.3l1.6,0.4l-0.6-1.5c-0.1-0.2,0-0.4,0.2-0.5
				c0.2-0.1,0.4,0,0.5,0.2L96.2,66.2z"/>
		</g>
		<g>
			<g>
				<path class="st45" d="M79.2,76.4c0.2-7.8,5.9-10.9,12.8-6.8c3.6,2.1,6.8,5.6,9.1,9.7l2.6-0.7c-2.9-5.3-7.1-9.9-11.7-12.6
					c-8.7-5-15.8-1-15.9,8.9l2.1,1.9L79.2,76.4z"/>
				<path class="st45" d="M98.3,100.7c-1.9,0.2-4.1-0.4-6.4-1.7c-6.5-3.8-11.9-12.6-12.7-20.4L76.1,77c0,0.1-1,0.3-1,0.3
					c0.9,9.7,8.7,20.5,16.9,25.2c2.9,1.7,5,2.7,7.4,2.4c0.1,0,0.9-0.3,1-0.3L98.3,100.7z"/>
				<path class="st45" d="M102.2,81.6c1.5,3.3,2.5,6.8,2.5,10c0,4.6-1.9,7.7-4.8,8.7l2,3.9c3.6-1.2,6-5,6-10.8c0-4-1.1-8.4-3-12.5
					L102.2,81.6z"/>
			</g>
			<path class="st45" d="M96.3,88c-0.9-0.8-1.6-1.7-2.3-2.7c-0.4-0.7-0.4-1.3,0-1.5c0.5-0.3,0.9-0.7,1.1-1.2c0.4,0.1,0.9,0,0.9-0.6
				s-0.3-1.1-0.6-1.4c-0.1-2.4-0.9-4.7-3.6-6.3c-0.9-0.6-1.7-0.8-2.2-0.7c-0.1,0-1.2,0.3-1.3,0.4c-0.8,0.4-0.1,1.1-0.1,2.5
				c-0.3-0.1-0.6,0.3-0.6,0.8c0,0.6,0.5,1.2,0.9,1.6c0.3,0.9,0.7,1.8,1.1,2.6c0.4,0.7,0.4,1.3,0,1.5c-0.6,0.3-1.4,0.4-2.3,0.1
				c-0.4-0.1-0.7-0.1-0.9,0c-0.1,0-1,0.3-1.1,0.3c-0.5,0.3,0.1,0.7,0.1,1.5v2.5c0,0.5,0.4,1,0.8,1.3l10.4,6.9
				c0.2,0.1,1.2-0.3,1.3-0.3c0.2-0.1,0.3-0.3,0.3-0.5v-2.5C98.3,90.6,97.5,89,96.3,88z"/>
			<g>
				<path class="st5" d="M78.4,76.6c0.2-7.8,5.9-10.9,12.8-6.8c3.6,2.1,6.8,5.6,9.1,9.7l2.6-0.7c-2.9-5.3-7.1-9.9-11.7-12.6
					c-8.7-5-15.8-1-15.9,8.9L78.4,76.6z"/>
				<path class="st5" d="M97.7,100.9c-1.9,0.2-4.1-0.4-6.4-1.7c-6.5-3.8-11.9-12.6-12.7-20.4l-3.1-1.6c0.9,9.7,7.6,20.8,15.8,25.5
					c3.1,1.8,6,2.5,8.4,2.1L97.7,100.9z"/>
				<path class="st5" d="M101.5,81.7c1.5,3.3,2.5,6.8,2.5,10c0,4.6-1.9,7.7-4.8,8.7l2,3.9c3.6-1.2,6-5,6-10.8c0-4-1.1-8.4-3-12.5
					L101.5,81.7z"/>
			</g>
			<path class="st5" d="M95.6,88.2c-0.9-0.8-1.6-1.7-2.3-2.7c-0.4-0.7-0.4-1.3,0-1.5c0.5-0.3,0.9-0.7,1.1-1.2c0.4,0.1,0.9,0,0.9-0.6
				c0-0.6-0.3-1.1-0.6-1.4c-0.1-2.4-0.9-4.7-3.6-6.3c-2.7-1.6-3.5-0.1-3.6,2.2c-0.3-0.1-0.6,0.3-0.6,0.8c0,0.6,0.5,1.2,0.9,1.6
				c0.3,0.9,0.7,1.8,1.1,2.6c0.4,0.7,0.4,1.3,0,1.5c-0.6,0.3-1.4,0.4-2.3,0.1c-1.1-0.4-2,0.4-2,1.7v2.5c0,0.5,0.4,1,0.8,1.3
				l11.3,6.5c0.4,0.3,0.8,0,0.8-0.4v-2.5C97.6,90.8,96.7,89.2,95.6,88.2z"/>
			<g>
				<path class="st46" d="M78,76.7c0.2-7.8,5.9-10.9,12.8-6.8c3.6,2.1,6.8,5.6,9.1,9.7l2.6-0.7c-2.9-5.3-7.1-9.9-11.7-12.6
					c-8.7-5-15.8-1-15.9,8.9L78,76.7z"/>
				<path class="st46" d="M97.3,101c-1.9,0.2-4.1-0.4-6.4-1.7c-6.5-3.8-12-12.6-12.7-20.4L75,77.4c0.9,9.7,7.6,20.8,15.8,25.5
					c3.1,1.8,6,2.5,8.4,2.1L97.3,101z"/>
				<path class="st46" d="M101.2,81.8c1.5,3.3,2.5,6.8,2.5,10c0,4.6-1.9,7.7-4.8,8.7l2,3.9c3.6-1.2,6-5,6-10.8c0-4-1.1-8.4-3-12.5
					L101.2,81.8z"/>
			</g>
			<path class="st46" d="M95.2,88.3c-0.9-0.8-1.6-1.7-2.3-2.7c-0.4-0.7-0.4-1.3,0-1.5c0.5-0.3,0.9-0.7,1.1-1.2
				c0.4,0.1,0.9,0,0.9-0.6s-0.3-1.1-0.6-1.4c-0.1-2.4-0.9-4.7-3.6-6.3c-2.7-1.6-3.5-0.1-3.6,2.2c-0.3-0.1-0.6,0.3-0.6,0.8
				c0,0.6,0.5,1.2,0.9,1.6c0.3,0.9,0.7,1.8,1.1,2.6c0.4,0.7,0.4,1.3,0,1.5c-0.6,0.3-1.4,0.4-2.3,0.1c-1.1-0.4-2,0.4-2,1.7v2.5
				c0,0.5,0.4,1,0.8,1.3l11.3,6.5c0.4,0.3,0.8,0,0.8-0.4v-2.5C97.2,90.9,96.3,89.3,95.2,88.3z"/>
		</g>
	</g>
	<g>
		<path class="st17" d="M204.8,127.5l-30.1-17.4c-1.7-0.9-3.1-3.7-3.1-6V97c0-2.3,1.4-3.3,3.1-2.4l30.1,17.4c1.7,0.9,3.1,3.7,3.1,6
			v7.1C208,127.4,206.5,128.5,204.8,127.5z"/>
		<path class="st16" d="M205.2,124.5l-29.7-17.2c-1.4-0.9-2.3-2.7-2.3-4.5v-5.1c0-0.4,0.5-0.7,0.9-0.5c0,0,0.1,0,0.1,0.1l29.7,17.2
			c1.6,0.9,2.3,2.7,2.3,4.5v5C206.2,124.5,205.7,124.8,205.2,124.5C205.3,124.6,205.3,124.5,205.2,124.5z"/>
		<path class="st42" d="M205.8,124.1L205.8,124.1L176,106.9c-1.4-0.9-2.3-2.7-2.3-4.5v-5.1c0-0.1,0-0.1,0-0.1
			c-0.3,0-0.5,0.3-0.5,0.6v5.1c0,1.8,0.9,3.5,2.3,4.5l29.7,17.2c0,0,0,0,0.1,0c0.4,0.2,0.8,0,0.9-0.4
			C206.1,124.2,206,124.2,205.8,124.1z"/>
		<path class="st47" d="M206.3,111.3l-30.1-17.4c-0.7-0.4-1.3-0.5-1.8-0.3c-0.1,0-1.5,0.8-1.6,0.8l0,0c0.6-0.3,1.2-0.2,1.9,0.2
			l30.1,17.4c1.7,0.9,3.1,3.7,3.1,6v7.1c0,1.4-0.6,2.4-1.3,2.7c0.1,0,0.2,0,0.3-0.1l1.6-0.9c0.6-0.4,0.9-1.2,0.9-2.5v-7
			C209.5,115,208,112.3,206.3,111.3z"/>
		<path class="st48" d="M206.3,111.3l-30.1-17.4c-0.7-0.4-1.3-0.5-1.8-0.3c-0.1,0-1.5,0.8-1.6,0.8l0,0c0.6-0.3,1.2-0.2,1.9,0.2
			l30.1,17.4L206.3,111.3z"/>
		<path class="st49" d="M205,112l-30.1-17.4c-0.7-0.4-1.3-0.5-1.9-0.3c0.5-0.1,0.9,0,1.5,0.4l30.1,17.4c1.7,0.9,3.1,3.7,3.1,6v7.1
			c0,1.3-0.5,2.3-1.2,2.6c0.9-0.2,1.6-1.1,1.6-2.7v-7.1C208.1,115.7,206.7,113,205,112z"/>
		<g>
			<path class="st42" d="M197.9,115.2c0,1.2,0.9,2.7,1.9,3.2c1,0.6,1.9,0.1,1.9-1c0-1.2-0.9-2.7-1.9-3.2
				C198.8,113.5,197.9,114,197.9,115.2z"/>
			<path class="st42" d="M193.1,112.3c0,1.2,0.9,2.7,1.9,3.2c1,0.6,1.9,0.1,1.9-1c0-1.2-0.9-2.7-1.9-3.2
				C193.9,110.7,193.1,111.2,193.1,112.3z"/>
			<path class="st42" d="M188.2,109.6c0,1.2,0.9,2.7,1.9,3.2s1.9,0.1,1.9-1c0-1.2-0.9-2.7-1.9-3.2
				C189.1,107.9,188.2,108.4,188.2,109.6z"/>
			<path class="st42" d="M183.4,106.8c0,1.2,0.9,2.7,1.9,3.2c1,0.6,1.9,0.1,1.9-1c0-1.2-0.9-2.7-1.9-3.2
				C184.2,105.1,183.4,105.5,183.4,106.8z"/>
			<path class="st42" d="M178.6,103.9c0,1.2,0.9,2.7,1.9,3.2c1,0.6,1.9,0.1,1.9-1c0-1.2-0.9-2.7-1.9-3.2
				C179.3,102.3,178.6,102.8,178.6,103.9z"/>
		</g>
		<g>
			<path class="st7" d="M197.3,115.2c0,1.2,0.9,2.7,1.9,3.2s1.9,0.1,1.9-1c0-1.2-0.9-2.7-1.9-3.2
				C198.1,113.6,197.3,114.1,197.3,115.2z"/>
			<path class="st7" d="M192.5,112.4c0,1.2,0.9,2.7,1.9,3.2c1,0.6,1.9,0.1,1.9-1c0-1.2-0.9-2.7-1.9-3.2
				C193.3,110.7,192.5,111.2,192.5,112.4z"/>
			<path class="st7" d="M187.7,109.6c0,1.2,0.9,2.7,1.9,3.2c1,0.6,1.9,0.1,1.9-1c0-1.2-0.9-2.7-1.9-3.2
				C188.4,107.9,187.7,108.4,187.7,109.6z"/>
			<path class="st7" d="M182.7,106.8c0,1.2,0.9,2.7,1.9,3.2c1,0.6,1.9,0.1,1.9-1c0-1.2-0.9-2.7-1.9-3.2
				C183.6,105.1,182.7,105.6,182.7,106.8z"/>
			<path class="st7" d="M177.9,104c0,1.2,0.9,2.7,1.9,3.2c1,0.6,1.9,0.1,1.9-1c0-1.2-0.9-2.7-1.9-3.2
				C178.8,102.3,177.9,102.8,177.9,104z"/>
		</g>
	</g>
	<g>
		<path class="st44" d="M94.9,171.3c0,0.6,0.9,1,1.9,1s1.9-0.5,1.9-1c0-0.6-0.9-1-1.9-1S94.9,170.7,94.9,171.3z"/>
		<polygon class="st44" points="133.7,201.4 131.1,203.5 135.7,205.1 		"/>
		<g>
			<path class="st7" d="M212.6,118.5c-0.2,0-0.4-0.2-0.4-0.4v-1.5c0-0.2,0.2-0.4,0.4-0.4c0.2,0,0.4,0.2,0.4,0.4v1.5
				C213,118.3,212.8,118.5,212.6,118.5z M212.6,114.6c-0.2,0-0.4-0.2-0.4-0.4c0-0.5-0.1-0.9-0.2-1.4c-0.1-0.2,0.1-0.4,0.3-0.5
				s0.4,0.1,0.5,0.3c0.2,0.6,0.3,1,0.3,1.6C213,114.4,212.8,114.6,212.6,114.6L212.6,114.6z M211.3,111c-0.1,0-0.2-0.1-0.3-0.2
				c-0.3-0.4-0.7-0.7-1-0.9c-0.2-0.1-0.2-0.4-0.1-0.6s0.4-0.2,0.6-0.1c0.5,0.3,0.9,0.7,1.2,1.1c0.1,0.2,0.1,0.4-0.1,0.6
				C211.5,111,211.4,111,211.3,111z M208.2,108.7c-0.1,0-0.1,0-0.2-0.1l-1.3-0.8c-0.2-0.1-0.3-0.4-0.1-0.6c0.1-0.2,0.4-0.3,0.6-0.1
				l1.3,0.8c0.2,0.1,0.3,0.4,0.1,0.6C208.4,108.7,208.3,108.7,208.2,108.7z"/>
		</g>
		<g>
			<path class="st44" d="M134.7,204.3c-0.1,0-0.1,0-0.2-0.1l-0.6-0.4c-0.2-0.1-0.3-0.4-0.1-0.6c0.1-0.2,0.4-0.2,0.6-0.1l0.6,0.4
				c0.2,0.1,0.3,0.4,0.1,0.6C134.9,204.2,134.8,204.3,134.7,204.3z M132.1,202.7c-0.1,0-0.1,0-0.2-0.1l-1.3-0.9
				c-0.2-0.1-0.3-0.4-0.1-0.6c0.2-0.2,0.4-0.2,0.6-0.1l1.3,0.9c0.2,0.1,0.3,0.4,0.1,0.6C132.3,202.6,132.2,202.7,132.1,202.7z
				 M128.8,200.6c-0.1,0-0.1,0-0.2-0.1l-1.3-0.9c-0.2-0.1-0.3-0.4-0.1-0.6c0.1-0.2,0.4-0.3,0.6-0.1l1.3,0.9c0.2,0.1,0.3,0.4,0.1,0.6
				C129,200.6,128.9,200.6,128.8,200.6z M125.5,198.6c-0.1,0-0.1,0-0.2-0.1l-1.3-0.9c-0.2-0.1-0.3-0.4-0.1-0.6
				c0.1-0.2,0.4-0.3,0.6-0.1l1.3,0.9c0.2,0.1,0.3,0.4,0.1,0.6C125.8,198.5,125.6,198.6,125.5,198.6z M122.8,196
				c-0.2,0-0.4-0.1-0.4-0.3c-0.1-0.2-0.1-0.4-0.1-0.6v-1c0-0.2,0.2-0.4,0.4-0.4s0.4,0.2,0.4,0.4v1c0,0.2,0,0.3,0.1,0.5
				C123.1,195.7,123.1,196,122.8,196L122.8,196z M122.7,192.1c-0.2,0-0.4-0.2-0.4-0.4v-1.5c0-0.2,0.2-0.4,0.4-0.4s0.4,0.2,0.4,0.4
				v1.5C123.1,191.9,122.9,192.1,122.7,192.1z M122.7,188.2c-0.2,0-0.4-0.2-0.4-0.4c-0.1-0.5-0.2-0.9-0.5-1.2
				c-0.1-0.2-0.1-0.4,0.1-0.6c0.2-0.1,0.4-0.1,0.6,0.1c0.4,0.5,0.6,1,0.7,1.6C123.1,188.1,122.9,188.2,122.7,188.2L122.7,188.2z
				 M120.2,185.5c-0.1,0-0.1,0-0.2-0.1l-1.3-0.8c-0.2-0.1-0.3-0.4-0.1-0.6c0.1-0.2,0.4-0.3,0.6-0.1l1.3,0.8c0.2,0.1,0.3,0.4,0.1,0.6
				C120.5,185.4,120.3,185.5,120.2,185.5z M116.9,183.5c-0.1,0-0.1,0-0.2-0.1l-1.3-0.8c-0.2-0.1-0.3-0.4-0.1-0.6
				c0.1-0.2,0.4-0.3,0.6-0.1l1.3,0.8c0.2,0.1,0.3,0.4,0.1,0.6C117.1,183.5,117,183.5,116.9,183.5z M113.5,181.6
				c-0.1,0-0.1,0-0.2-0.1l-1.3-0.8c-0.2-0.1-0.3-0.4-0.1-0.6c0.1-0.2,0.4-0.3,0.6-0.1l1.3,0.8c0.2,0.1,0.3,0.4,0.1,0.6
				C113.8,181.5,113.7,181.6,113.5,181.6z M110.2,179.6c-0.1,0-0.1,0-0.2-0.1l-1.3-0.8c-0.2-0.1-0.3-0.4-0.1-0.6
				c0.1-0.2,0.4-0.3,0.6-0.1l1.3,0.8c0.2,0.1,0.3,0.4,0.1,0.6C110.4,179.5,110.4,179.6,110.2,179.6z M106.8,177.6
				c-0.1,0-0.1,0-0.2-0.1l-1.3-0.8c-0.2-0.1-0.3-0.4-0.1-0.6c0.1-0.2,0.4-0.3,0.6-0.1l1.3,0.8c0.2,0.1,0.3,0.4,0.1,0.6
				C107.1,177.5,106.9,177.6,106.8,177.6z M103.5,175.6c-0.1,0-0.1,0-0.2-0.1l-1.3-0.8c-0.2-0.1-0.3-0.4-0.1-0.6
				c0.1-0.2,0.4-0.3,0.6-0.1l1.3,0.8c0.2,0.1,0.3,0.4,0.1,0.6C103.7,175.6,103.6,175.6,103.5,175.6z M100.1,173.7
				c-0.1,0-0.1,0-0.2-0.1l-1.3-0.8c-0.2-0.1-0.3-0.4-0.1-0.6c0.1-0.2,0.4-0.3,0.6-0.1l1.3,0.8c0.2,0.1,0.3,0.4,0.1,0.6
				C100.4,173.7,100.3,173.7,100.1,173.7z"/>
		</g>
		<g>
			<path class="st17" d="M83.1,137.9c-0.1,0-0.1,0-0.2-0.1l-1-0.7c-0.2-0.1-0.3-0.4-0.1-0.6c0.1-0.2,0.4-0.3,0.6-0.1l1,0.7
				c0.2,0.1,0.3,0.4,0.1,0.6C83.3,137.9,83.3,137.9,83.1,137.9z M80,136.1c-0.1,0-0.1,0-0.2-0.1l-1.3-0.8c-0.2-0.1-0.3-0.4-0.1-0.6
				c0.1-0.2,0.4-0.3,0.6-0.1l1.3,0.8c0.2,0.1,0.3,0.4,0.1,0.6C80.2,136.1,80.1,136.1,80,136.1z M76.6,134.2c-0.1,0-0.1,0-0.2-0.1
				l-1.3-0.8c-0.2-0.1-0.3-0.4-0.1-0.6c0.1-0.2,0.4-0.3,0.6-0.1l1.3,0.8c0.2,0.1,0.3,0.4,0.1,0.6C76.9,134.1,76.8,134.2,76.6,134.2z
				 M73.3,132.2c-0.1,0-0.1,0-0.2-0.1l-1.3-0.8c-0.2-0.1-0.3-0.4-0.1-0.6c0.1-0.2,0.4-0.3,0.6-0.1l1.3,0.8c0.2,0.1,0.3,0.4,0.1,0.6
				C73.6,132.2,73.4,132.2,73.3,132.2z M70,130.4c-0.1,0-0.1,0-0.2-0.1l-1.3-0.8c-0.2-0.1-0.3-0.4-0.1-0.6c0.1-0.2,0.4-0.3,0.6-0.1
				l1.3,0.8c0.2,0.1,0.3,0.4,0.1,0.6C70.2,130.3,70.1,130.4,70,130.4z M66.6,128.4c-0.1,0-0.1,0-0.2-0.1l-1.3-0.8
				c-0.2-0.1-0.3-0.4-0.1-0.6c0.1-0.2,0.4-0.3,0.6-0.1l1.3,0.8c0.2,0.1,0.3,0.4,0.1,0.6C66.9,128.3,66.8,128.4,66.6,128.4z
				 M63.3,126.4c-0.1,0-0.1,0-0.2-0.1l-1.3-0.8c-0.2-0.1-0.3-0.4-0.1-0.6c0.1-0.2,0.4-0.3,0.6-0.1l1.3,0.8c0.2,0.1,0.3,0.4,0.1,0.6
				C63.5,126.4,63.4,126.4,63.3,126.4z M59.9,124.5c-0.1,0-0.1,0-0.2-0.1l-1.3-0.8c-0.2-0.1-0.3-0.4-0.1-0.6
				c0.1-0.2,0.4-0.3,0.6-0.1l1.3,0.8c0.2,0.1,0.3,0.4,0.1,0.6C60.1,124.4,60,124.5,59.9,124.5z M55.5,123.6c-0.2,0-0.4-0.2-0.4-0.4
				c0-0.8,0.6-1.3,1.3-1.4l0,0c0.2,0,0.4,0.2,0.4,0.4c0,0.2-0.2,0.4-0.4,0.4c-0.3,0-0.6,0.3-0.6,0.6
				C55.9,123.4,55.8,123.6,55.5,123.6z"/>
		</g>
		<g>
			<path class="st17" d="M53.4,125.7c-0.1,0-0.1,0-0.2-0.1l-1.3-0.8c-0.2-0.1-0.3-0.4-0.1-0.6c0.1-0.2,0.4-0.3,0.6-0.1l1.3,0.8
				c0.2,0.1,0.3,0.4,0.1,0.6C53.6,125.6,53.5,125.7,53.4,125.7z M50,123.7c-0.1,0-0.1,0-0.2-0.1l-1.3-0.8c-0.2-0.1-0.3-0.4-0.1-0.6
				c0.1-0.2,0.4-0.3,0.6-0.1l1.3,0.8c0.2,0.1,0.3,0.4,0.1,0.6C50.3,123.6,50.2,123.7,50,123.7z M46.7,121.7c-0.1,0-0.1,0-0.2-0.1
				l-1.3-0.8c-0.2-0.1-0.3-0.4-0.1-0.6c0.1-0.2,0.4-0.3,0.6-0.1L47,121c0.2,0.1,0.3,0.4,0.1,0.6C47,121.6,46.9,121.7,46.7,121.7z
				 M43.4,119.7c-0.1,0-0.1,0-0.2-0.1l-1.3-0.8c-0.2-0.1-0.3-0.4-0.1-0.6c0.1-0.2,0.4-0.3,0.6-0.1l1.3,0.8c0.2,0.1,0.3,0.4,0.1,0.6
				C43.6,119.7,43.5,119.7,43.4,119.7z M40,117.8c-0.1,0-0.1,0-0.2-0.1l-1.3-0.8c-0.2-0.1-0.3-0.4-0.1-0.6c0.1-0.2,0.4-0.3,0.6-0.1
				l1.3,0.8c0.2,0.1,0.3,0.4,0.1,0.6C40.2,117.7,40.1,117.8,40,117.8z"/>
		</g>
		<polygon class="st17" points="41.7,117 39.3,118.7 37.7,115.9 		"/>
	</g>
	<g>
		<path class="st0" d="M200.1,193.1l-23.8-13.7c-2.5-1.4-2.2-3.9,0.7-5.6l0,0c2.8-1.6,12.3-1.7,14.8-0.2l21.1,12.2
			c3.8,2.3,0,5.3-3.1,6.9l0,0C206.9,194.3,202.6,194.5,200.1,193.1z"/>
		<path class="st8" d="M209.4,164.3L175,151.5V177l0,0c-0.1,0.9,0.3,1.6,1.3,2.2l23.3,13.5c2,1.1,5.5,1,7.9-0.3l0,0
			c1.2-0.8,1.9-1.6,1.9-2.5l0,0V164.3z"/>
		<path class="st7" d="M199.6,167l-23.3-13.5c-2-1.1-1.8-3.2,0.6-4.5l0,0c2.4-1.3,5.9-1.5,7.9-0.3l23.3,13.5c2,1.1,1.8,3.2-0.6,4.5
			l0,0C205.1,168.1,201.6,168.2,199.6,167z"/>
		<path class="st5" d="M207.5,166.4c-2.4,1.3-5.9,1.5-7.9,0.3l-23.3-13.4c-0.9-0.5-1.3-1.1-1.3-1.8c-0.1,0.9,0.4,1.6,1.3,2.2
			l23.3,13.5c2,1.1,5.5,1,7.9-0.3c1.3-0.8,2-1.8,1.9-2.7C209.3,164.8,208.6,165.7,207.5,166.4z"/>
		<g>
			<path class="st1" d="M194.5,133L194.5,133c-6.5-3.8-14.6,0.9-14.6,8.4v10.6l0,0l0,0c0,1,1.4,1.9,3.2,1.9s3.2-0.9,3.2-1.9l0,0l0,0
				v-9.2c0-3.2,3.4-5.2,6.2-3.6l0,0c3.2,1.8,5.2,5.2,5.2,8.9v14.1l0,0c0,1,1.4,1.8,3.2,1.8c1.8,0,3.2-0.9,3.2-1.8l0,0v-12.6
				C204.1,142.8,200.5,136.4,194.5,133z"/>
			<g>
				<path class="st4" d="M194.3,137.9c-0.2-0.1-0.4-0.2-0.6-0.3c3,2.1,4.9,5.6,4.9,9.3v16.6c0.4,0.2,0.8,0.4,1.2,0.5v-16.3
					C199.9,143.6,197.8,139.9,194.3,137.9z"/>
			</g>
			<g>
				<path class="st16" d="M187.8,136.2c-2.8,0-5.2,2.4-5.2,5.2v11.1v1.1c0,0.1,1.8-0.1,1.8-0.2v-1.1v-11.1c0-2.4,1.5-4.4,3.7-5
					C188,136.2,187.9,136.2,187.8,136.2z"/>
			</g>
			<path class="st4" d="M191,134c1.7,0,3.2,0.4,4.7,1.2c-0.6-0.4-1.1-0.9-1.8-1.1c-1.3-0.8-2.7-1.1-4.3-1.1c-4.2,0-8.6,3.3-8.6,8.6
				l0,0C182.3,136.8,186.7,134,191,134z"/>
			<path class="st16" d="M201.6,151.6V164c0.7-0.1,1.2-0.3,1.6-0.6c0.1-0.1,0.1-0.3,0.1-0.5v-12.6
				C203.3,144.8,201.6,146,201.6,151.6z"/>
		</g>
		<path class="st16" d="M192.4,171.6c0-2-1.4-4.5-3.1-5.4c-1.7-1-3.1-0.2-3.1,1.8c0,1.3,0.7,2.9,1.6,4.1v6.3l3.1,1.8v-6.3
			C191.7,173.7,192.4,172.9,192.4,171.6z"/>
		<path class="st42" d="M188.2,178.1v-6.3c-0.9-1.1-1.6-2.7-1.6-4.1c0-0.9,0.3-1.6,0.9-2c-0.9,0.2-1.3,0.9-1.3,2.2
			c0,1.3,0.7,2.9,1.6,4.1v6.3l3.1,1.8v-0.6L188.2,178.1z"/>
	</g>
	<g>
		<path class="st16" d="M27.2,113.2c-0.6,0.4-1.5,0.4-2.1,0c-0.1-0.1-0.2-0.1-0.3,0l-8.1,4.6l-1-0.7c-0.1-0.1-0.1-0.1,0-0.2l9.2-5.3
			c0.1-0.1,0.2-0.1,0.3,0c0.6,0.3,1.5,0.3,2.1,0c0.3-0.2,0.5-0.4,0.5-0.6l0,0v1.4l0,0C27.6,112.8,27.4,113,27.2,113.2z"/>
		<path class="st16" d="M29.8,107.2c0,0.5,0.3,0.9,0.9,1.3c0.6,0.3,1.5,0.3,2.1,0c0.6-0.4,0.6-0.9,0-1.2c-0.1-0.1-0.1-0.1,0-0.2
			l9.2-5.3c0.1-0.1,0.2-0.1,0.3,0l5.2,3c0.1,0.1,0.1,0.1,0,0.2l-1,0.7l-4.2-2.4c-0.1-0.1-0.2-0.1-0.3,0l-8.7,5v1l0,0
			c0,0.2-0.1,0.5-0.5,0.7c-0.6,0.4-1.5,0.4-2.1,0c-0.6-0.3-0.9-0.8-0.9-1.1l0,0L29.8,107.2L29.8,107.2z"/>
		<path class="st4" d="M24.7,115c0.8,0.4,1.9,0.4,2.6,0l11.7-6.8c0.8-0.4,0.8-1,0-1.5c-0.8-0.4-1.9-0.4-2.6,0l-11.7,6.8
			C24,113.9,24,114.5,24.7,115z"/>
		<path class="st16" d="M30.4,114.8c0.1,0.1,0.1,0.1,0,0.2l-0.5,0.3v-1.1l0,0C29.9,114.3,30,114.6,30.4,114.8z"/>
		<path class="st16" d="M13.5,118.4l5.2,3c1.2,0.8,3.2,0.7,4.5,0l9.2-5.3c0.7-0.4,0.9-0.9,0.9-1.4l0,0v1.6l0,0
			c0,0.5-0.4,0.9-0.9,1.2l-9.2,5.3c-1.2,0.8-3.2,0.8-4.5,0l-5.2-3c-0.6-0.3-0.9-0.8-0.9-1.1l0,0v-1.4
			C12.6,117.7,12.9,118.1,13.5,118.4z"/>
		<path class="st16" d="M24.7,115c0.8,0.4,1.9,0.4,2.6,0l11.7-6.8c0.3-0.2,0.5-0.4,0.5-0.6v1.1c0.1,0.3-0.1,0.7-0.5,0.9l-11.7,6.8
			c-0.8,0.4-1.9,0.4-2.6,0c-0.3-0.2-0.5-0.4-0.5-0.6l0,0l0,0c0-0.1,0-0.2,0-0.3v-1.2C24.2,114.6,24.4,114.8,24.7,115z"/>
		<path class="st4" d="M30.7,108.5c0.6,0.3,1.5,0.3,2.1,0c0.6-0.4,0.6-0.9,0-1.2c-0.1-0.1-0.1-0.1,0-0.2l9.2-5.3
			c0.1-0.1,0.2-0.1,0.3,0l5.2,3c0.1,0.1,0.1,0.1,0,0.2l-9.2,5.3c-0.1,0.1-0.2,0.1-0.3,0c-0.6-0.3-1.5-0.3-2.1,0
			c-0.6,0.4-0.6,0.9,0,1.2c1.2,0.8,3.2,0.7,4.5,0l9.2-5.3c1.2-0.8,1.2-1.9,0-2.6l-5.2-3c-1.2-0.8-3.2-0.7-4.5,0l-9.2,5.3
			C29.5,106.7,29.4,107.8,30.7,108.5z"/>
		<path class="st16" d="M36,111.5c1.2,0.8,3.2,0.7,4.5,0l9.2-5.3c0.7-0.4,0.9-0.9,0.9-1.3l0,0v1.6l0,0c-0.1,0.4-0.4,0.9-0.9,1.1
			l-9.2,5.3c-1.2,0.8-3.2,0.8-4.5,0c-0.3-0.2-0.4-0.3-0.4-0.5l0,0v-1.5l0,0C35.5,111.1,35.7,111.4,36,111.5z"/>
		<path class="st4" d="M13.5,118.4l5.2,3c1.2,0.8,3.2,0.7,4.5,0l9.2-5.3c1.2-0.8,1.2-1.9,0-2.6c-0.6-0.3-1.5-0.3-2.1,0
			c-0.6,0.4-0.6,0.9,0,1.2c0.1,0.1,0.1,0.1,0,0.2l-9.2,5.3c-0.1,0.1-0.2,0.1-0.3,0l-5.2-3c-0.1-0.1-0.1-0.1,0-0.2l9.2-5.3
			c0.1-0.1,0.2-0.1,0.3,0c0.6,0.3,1.5,0.3,2.1,0c0.6-0.4,0.6-0.9,0-1.2c-1.2-0.8-3.2-0.7-4.5,0l-9.2,5.3
			C12.3,116.6,12.3,117.7,13.5,118.4z"/>
		<path class="st8" d="M24.7,114.9c0.8,0.4,1.9,0.4,2.6,0l11.7-6.8c0.3-0.2,0.5-0.4,0.5-0.6v0.1c0,0.2-0.2,0.5-0.6,0.7l-11.7,6.8
			c-0.8,0.4-1.9,0.4-2.6,0c-0.3-0.2-0.5-0.4-0.5-0.7v-0.1C24.3,114.5,24.4,114.7,24.7,114.9z"/>
		<path class="st8" d="M47.4,104.8l-5.1-2.9c-0.1-0.1-0.2-0.1-0.3,0l-9.1,5.2l-0.1-0.1l0,0l0,0l9.2-5.3c0.1-0.1,0.2-0.1,0.3,0
			L47.4,104.8L47.4,104.8L47.4,104.8L47.4,104.8z"/>
		<path class="st8" d="M36,111.4c1.2,0.8,3.2,0.7,4.5,0l9.2-5.3c0.6-0.3,0.9-0.8,0.9-1.1v0.1c0,0.5-0.3,0.9-0.9,1.2l-9.2,5.3
			c-1.2,0.8-3.2,0.8-4.5,0c-0.3-0.2-0.4-0.3-0.4-0.5V111C35.6,111.1,35.8,111.3,36,111.4z"/>
		<path class="st8" d="M30.7,108.4c0.6,0.3,1.5,0.3,2.1,0c0.2-0.1,0.4-0.3,0.4-0.5v0.1c0,0.2-0.2,0.4-0.4,0.5
			C32.2,108.8,31.2,108.8,30.7,108.4c-0.6-0.3-0.9-0.7-0.9-1.1v-0.1C29.9,107.7,30.2,108.1,30.7,108.4z"/>
		<path class="st8" d="M24.8,111.6c0.1-0.1,0.2-0.1,0.3,0c0.6,0.3,1.5,0.3,2.1,0c0.2-0.1,0.4-0.3,0.4-0.5v0.1c0,0.2-0.2,0.4-0.4,0.5
			c-0.6,0.4-1.5,0.4-2.1,0C25,111.6,24.9,111.6,24.8,111.6l-9.1,5.3l-0.1-0.1l0,0l0,0L24.8,111.6z"/>
		<path class="st8" d="M13.5,118.3l5.2,3c1.2,0.8,3.2,0.7,4.5,0l9.2-5.3c0.6-0.3,0.9-0.8,0.9-1.1v0.1c0,0.5-0.3,0.9-0.9,1.2
			l-9.2,5.3c-1.2,0.8-3.2,0.8-4.5,0l-5.2-3c-0.6-0.4-0.9-0.8-0.9-1.2v-0.1C12.7,117.7,12.9,118,13.5,118.3z"/>
	</g>
	<g>
		<path class="st0" d="M9.2,157.7c-1.3-0.8-1.3-2,0-2.7l10.6-6.2c1.8-1,4.7-1,6.5,0c1.8,1,1.8,2.7,0,3.8l-9.5,5.5
			c-0.2,0.1-0.5,0.1-0.8,0c-0.2-0.1-0.2-0.3,0-0.4l9.5-5.5c1.4-0.8,1.4-2.1,0-2.9c-1.4-0.9-3.7-0.9-5,0l-10.6,6.2
			c-0.9,0.5-0.9,1.3,0,1.9c0.9,0.5,2.4,0.5,3.2,0l10.1-5.9c0.4-0.2,0.4-0.6,0-0.9c-0.4-0.2-1-0.2-1.4,0l-8.4,4.8v0.1
			c0,0,0.1,0,0.2,0l6.3-3.6c0.2-0.1,0.5-0.1,0.8,0c0.2,0.1,0.2,0.3,0,0.4l-6.3,3.6c-0.5,0.3-1.1,0.3-1.6,0c-0.5-0.3-0.5-0.7,0-0.9
			l8.4-4.8c0.8-0.5,2.1-0.5,2.9,0c0.8,0.5,0.8,1.2,0,1.7L14,157.8C12.6,158.5,10.5,158.5,9.2,157.7z"/>
		<path class="st1" d="M9.2,157.5c-1.3-0.8-1.3-2,0-2.7l10.6-6.2c1.8-1,4.7-1,6.5,0c1.8,1,1.8,2.7,0,3.8l-9.5,5.5
			c-0.2,0.1-0.5,0.1-0.8,0c-0.2-0.1-0.2-0.3,0-0.4l9.5-5.5c1.4-0.8,1.4-2.1,0-2.9c-1.4-0.9-3.7-0.9-5,0l-10.7,6.1
			c-0.9,0.5-0.9,1.3,0,1.9c0.9,0.5,2.4,0.5,3.2,0l10.1-5.9c0.4-0.2,0.4-0.6,0-0.9c-0.4-0.2-1-0.2-1.4,0l-8.4,4.8v0.1
			c0,0,0.1,0,0.2,0l6.3-3.6c0.2-0.1,0.5-0.1,0.8,0c0.2,0.1,0.2,0.3,0,0.4l-6.3,3.6c-0.5,0.3-1.1,0.3-1.6,0c-0.5-0.3-0.5-0.7,0-0.9
			l8.4-4.8c0.8-0.5,2.1-0.5,2.9,0c0.8,0.5,0.8,1.2,0,1.7l-10.1,5.9C12.6,158.2,10.5,158.2,9.2,157.5z"/>
		<g>
			<path class="st16" d="M23.3,150.1c-0.4-0.2-1-0.2-1.4,0l-8.4,4.8v0.1c0,0,0.1,0,0.2,0l6.3-3.6c0.1,0,0.2,0,0.3-0.1l1.8-1
				c0.4-0.2,1-0.2,1.4,0c0.1,0.1,0.2,0.2,0.3,0.3C23.6,150.4,23.5,150.2,23.3,150.1z"/>
			<path class="st16" d="M12.6,155.7c0.5,0.3,1.1,0.3,1.6,0l6.3-3.6c0.2-0.1,0.2-0.2,0.1-0.4c0,0,0,0.1-0.1,0.1l-6.3,3.6
				c-0.5,0.3-1.1,0.3-1.6,0c-0.2-0.1-0.3-0.2-0.3-0.3C12.3,155.4,12.3,155.6,12.6,155.7z"/>
			<path class="st16" d="M25.5,148.8c-1.4-0.9-3.7-0.9-5,0L9.9,155c-0.5,0.3-0.7,0.7-0.7,1c0.1-0.3,0.3-0.6,0.7-0.8l10.6-6.2
				c1.4-0.8,3.7-0.8,5,0c0.7,0.4,0.9,0.9,1,1.3C26.6,149.9,26.3,149.2,25.5,148.8z"/>
			<path class="st16" d="M26.2,152.1l-9.5,5.5c-0.2,0.1-0.5,0.1-0.8,0c0,0-0.1,0-0.1-0.1c-0.1,0.1-0.1,0.3,0.1,0.4
				c0.2,0.1,0.6,0.1,0.8,0l9.5-5.5c0.9-0.6,1.4-1.3,1.3-2C27.5,151,27.1,151.7,26.2,152.1z"/>
			<path class="st16" d="M24.5,150.6c-0.1,0.3-0.2,0.5-0.6,0.7l-10.1,5.9c-1.3,0.8-3.4,0.8-4.6,0c-0.6-0.4-0.9-0.8-0.9-1.2
				c-0.1,0.6,0.3,1,0.9,1.5c1.3,0.8,3.4,0.8,4.6,0l10.1-5.9C24.4,151.4,24.6,151,24.5,150.6z"/>
		</g>
		<g>
			<path class="st0" d="M28.5,140.8c1.3-0.8,1.3-2,0-2.7L17.9,132c-1.8-1-4.7-1-6.5,0c-1.8,1-1.8,2.7,0,3.8l9.5,5.5
				c0.2,0.1,0.5,0.1,0.8,0c0.2-0.1,0.2-0.3,0-0.4l-9.5-5.5c-1.4-0.8-1.4-2.1,0-2.9c1.4-0.9,3.7-0.9,5,0l10.6,6.2
				c0.9,0.5,0.9,1.3,0,1.9c-0.9,0.5-2.4,0.5-3.2,0l-10.1-6.1c-0.4-0.2-0.4-0.6,0-0.9c0.4-0.2,1-0.2,1.4,0l8.4,4.8v0.1
				c0,0-0.1,0-0.2,0l-6.3-3.6c-0.2-0.1-0.5-0.1-0.8,0c-0.2,0.1-0.2,0.3,0,0.4l6.3,3.6c0.5,0.3,1.1,0.3,1.6,0s0.5-0.7,0-0.9l-8.4-4.8
				c-0.8-0.5-2.1-0.5-2.9,0c-0.8,0.5-0.8,1.2,0,1.7l10.1,5.9C25.1,141.4,27.2,141.4,28.5,140.8z"/>
			<path class="st8" d="M28.5,140.4c1.3-0.8,1.3-2,0-2.7l-10.6-6.2c-1.8-1-4.7-1-6.5,0c-1.8,1-1.8,2.7,0,3.8l9.5,5.5
				c0.2,0.1,0.5,0.1,0.8,0c0.2-0.1,0.2-0.3,0-0.4l-9.5-5.5c-1.4-0.8-1.4-2.1,0-2.9s3.7-0.9,5,0l10.6,6.2c0.9,0.5,0.9,1.3,0,1.9
				c-0.9,0.5-2.4,0.5-3.2,0l-10.1-6c-0.4-0.2-0.4-0.6,0-0.9c0.4-0.2,1-0.2,1.4,0l8.4,4.8v0.1c0,0-0.1,0-0.2,0l-6.3-3.6
				c-0.2-0.1-0.5-0.1-0.8,0c-0.2,0.1-0.2,0.3,0,0.4l6.3,3.6c0.5,0.3,1.1,0.3,1.6,0s0.5-0.7,0-0.9l-8.4-4.8c-0.8-0.5-2.1-0.5-2.9,0
				c-0.8,0.5-0.8,1.2,0,1.7l10.1,5.9C25.1,141.2,27.2,141.2,28.5,140.4z"/>
			<g>
				<path class="st4" d="M27.7,137.8l-10.5-6.1c-1.4-0.8-3.7-0.8-5,0c-0.8,0.5-1.1,1-1,1.6c0.1-0.5,0.4-0.9,1-1.3
					c1.4-0.9,3.7-0.9,5,0l10.6,6.2c0.4,0.2,0.6,0.5,0.7,0.8C28.5,138.6,28.3,138.1,27.7,137.8z"/>
				<path class="st4" d="M14.4,133.3c0.4-0.2,1-0.2,1.4,0l1.9,1.1c0.1,0,0.1,0,0.2,0l6.3,3.6c0,0,0.1,0,0.2,0v-0.1l-8.4-4.8
					c-0.4-0.2-1-0.2-1.4,0c-0.3,0.2-0.4,0.4-0.3,0.6C14.2,133.5,14.3,133.4,14.4,133.3z"/>
				<path class="st4" d="M25,138.4c-0.5,0.3-1.1,0.3-1.6,0l-6.3-3.6l-0.1-0.1c-0.1,0.1-0.1,0.3,0.1,0.3l6.3,3.6
					c0.5,0.3,1.1,0.3,1.6,0c0.3-0.2,0.4-0.4,0.3-0.6C25.3,138.2,25.2,138.3,25,138.4z"/>
				<path class="st4" d="M21.7,140.5L21.7,140.5c-0.3,0.2-0.7,0.2-0.9,0.1l-9.5-5.5c-0.9-0.5-1.2-1.1-1.3-1.7
					c-0.1,0.8,0.4,1.4,1.3,2l9.5,5.5c0.2,0.1,0.5,0.1,0.8,0C21.7,140.7,21.8,140.6,21.7,140.5z"/>
				<path class="st4" d="M28.5,140.1c-1.3,0.8-3.4,0.8-4.6,0l-10.1-5.8c-0.4-0.2-0.6-0.5-0.6-0.7c-0.1,0.4,0.1,0.7,0.6,0.9l10.1,5.9
					c1.3,0.8,3.4,0.8,4.6,0c0.7-0.4,1-0.9,0.9-1.5C29.3,139.4,29.1,139.8,28.5,140.1z"/>
			</g>
		</g>
		<path class="st0" d="M34.1,143.4c-1.7,0.3-3.6-0.3-4.3-1.1l-5.6-7.4c-0.9-1.2,0.2-2.6,2.6-2.9s5,0.4,6,1.6l4.9,6.5
			c0.1,0.1,0,0.3-0.3,0.3s-0.6,0-0.7-0.2l-4.9-6.5c-0.8-0.9-2.8-1.5-4.6-1.2c-1.8,0.3-2.7,1.3-2,2.3l5.6,7.4
			c0.5,0.6,1.8,0.9,2.9,0.8c1.1-0.2,1.7-0.9,1.2-1.4l-5.3-7c-0.2-0.3-0.9-0.5-1.3-0.4c-0.6,0.1-0.8,0.4-0.6,0.7l4.5,5.9
			c0,0,0.1,0.1,0.2,0c0.1,0,0.1,0,0.1-0.1l-3.2-4.4c-0.1-0.1,0-0.3,0.3-0.3c0.3,0,0.6,0,0.7,0.2l3.2,4.4c0.2,0.3-0.1,0.7-0.7,0.8
			c-0.6,0.1-1.2-0.1-1.4-0.4l-4.5-5.9c-0.4-0.6,0.1-1.1,1.1-1.3c1-0.2,2.3,0.2,2.7,0.8l5.3,7C36.5,142.2,35.7,143.1,34.1,143.4z"/>
		<path class="st1" d="M34.1,143c-1.7,0.3-3.6-0.3-4.3-1.1l-5.6-7.4c-0.9-1.2,0.2-2.6,2.6-2.9c2.4-0.4,5,0.4,6,1.6l4.9,6.5
			c0.1,0.1,0,0.3-0.3,0.3s-0.6,0-0.7-0.2l-4.9-6.5c-0.8-0.9-2.8-1.5-4.6-1.2s-2.7,1.3-2,2.3l5.6,7.4c0.5,0.6,1.8,0.9,2.9,0.8
			c1.1-0.2,1.7-0.9,1.2-1.4l-5.3-7c-0.2-0.3-0.9-0.5-1.3-0.4c-0.6,0.1-0.8,0.4-0.6,0.7l4.5,5.9c0,0,0.1,0.1,0.2,0
			c0.1,0,0.1,0,0.1-0.1l-3.2-4.4c-0.1-0.1,0-0.3,0.3-0.3c0.3,0,0.6,0,0.7,0.2l3.1,4.4c0.2,0.3-0.1,0.7-0.7,0.8
			c-0.6,0.1-1.2-0.1-1.4-0.4l-4.5-5.9c-0.4-0.6,0.1-1.1,1.1-1.3s2.3,0.2,2.7,0.8l5.3,7C36.5,141.8,35.7,142.8,34.1,143z"/>
		<g>
			<path class="st16" d="M29.1,135.7c-0.1,0.1-0.1,0.2-0.1,0.2l3,4.1h0.1c0.1,0,0.1,0,0.1-0.1L29.1,135.7z"/>
			<path class="st16" d="M34.9,140.8l-5.3-7c-0.2-0.3-0.9-0.5-1.3-0.4c-0.5,0.1-0.8,0.4-0.6,0.6c0.1-0.2,0.3-0.3,0.6-0.3
				c0.6-0.1,1.1,0.1,1.3,0.4l5.3,7c0.1,0.1,0.1,0.2,0.1,0.3C35.1,141.2,35,141,34.9,140.8z"/>
			<path class="st16" d="M37.6,139.7c-0.1,0-0.1,0.1-0.2,0.1c-0.3,0-0.6,0-0.7-0.2l-4.9-6.5c-0.8-0.9-2.8-1.5-4.6-1.2
				c-1.5,0.2-2.4,0.9-2.2,1.7c0.1-0.7,0.9-1.2,2.2-1.4c1.8-0.3,3.9,0.3,4.6,1.2l4.9,6.5c0.1,0.1,0.4,0.2,0.7,0.2
				S37.8,139.9,37.6,139.7L37.6,139.7z"/>
			<path class="st16" d="M26.8,134.5l4.5,5.9c0.2,0.3,0.9,0.5,1.4,0.4c0.6-0.1,0.8-0.4,0.7-0.7c-0.1,0.2-0.3,0.3-0.7,0.4
				c-0.6,0.1-1.2-0.1-1.4-0.4l-4.5-5.9c-0.1-0.1-0.1-0.2-0.1-0.2C26.6,134.1,26.6,134.3,26.8,134.5z"/>
			<path class="st16" d="M34.1,142.8c-1.7,0.3-3.6-0.3-4.3-1.1l-5.6-7.4c-0.2-0.3-0.3-0.5-0.3-0.8c-0.1,0.4,0,0.7,0.3,1l5.6,7.4
				c0.7,0.9,2.6,1.4,4.3,1.1c1.3-0.2,2.2-0.9,2-1.6C36,142,35.2,142.6,34.1,142.8z"/>
		</g>
	</g>
</g>
</svg>
