<?xml version="1.0" encoding="utf-8"?>
<!-- Generator: Adobe Illustrator 21.0.0, SVG Export Plug-In . SVG Version: 6.00 Build 0)  -->
<svg version="1.1" id="Layer_1" xmlns="http://www.w3.org/2000/svg" xmlns:xlink="http://www.w3.org/1999/xlink" x="0px" y="0px"
	 viewBox="0 0 225 232.7" style="enable-background:new 0 0 225 232.7;" xml:space="preserve">
<style type="text/css">
	.st0{opacity:5.000000e-02;enable-background:new    ;}
	.st1{fill:#315271;}
	.st2{opacity:0.3;}
	.st3{opacity:0.3;enable-background:new    ;}
	.st4{fill:#FFBD99;}
	.st5{opacity:0.2;enable-background:new    ;}
	.st6{fill:#C0A8FF;}
	.st7{opacity:0.1;enable-background:new    ;}
	.st8{opacity:0.4;enable-background:new    ;}
	.st9{fill:#5FA0CE;}
	.st10{opacity:0.7;fill:#FFFFFF;enable-background:new    ;}
	.st11{fill:#D4D4D4;}
	.st12{fill:#EDEDEF;}
	.st13{fill:#EEEEF3;}
	.st14{opacity:0.15;enable-background:new    ;}
	.st15{fill:#6885A5;}
	.st16{fill:#C3C5CE;}
	.st17{fill:#A4A7B5;}
	.st18{fill:#4E5268;}
	.st19{fill:#383D4C;}
	.st20{fill:#FFFFFF;}
	.st21{fill:#C6D0E6;}
	.st22{fill:#A5BACC;}
	.st23{fill:#B9CCDF;}
	.st24{fill:#9B4D36;}
	.st25{fill:#2A85C4;}
	.st26{fill:#FF8879;}
	.st27{fill:#FCD2BB;}
	.st28{fill:#DC495A;}
	.st29{opacity:0.3;fill:#FCD2BB;enable-background:new    ;}
	.st30{fill:#EB5561;}
	.st31{opacity:0.5;enable-background:new    ;}
	.st32{fill:#F4767A;}
	.st33{fill:#ED5561;}
	.st34{fill:#D8395A;}
	.st35{fill:#FCEC32;}
	.st36{fill:#F5D012;}
	.st37{fill:#EAA10C;}
	.st38{fill:#FFA8E1;}
	.st39{fill:#FF7AD2;}
	.st40{fill:#BBCEE1;}
	.st41{fill:#DE64C6;}
	.st42{fill:url(#SVGID_1_);}
	.st43{fill:url(#SVGID_2_);}
	.st44{fill:url(#SVGID_3_);}
	.st45{fill:none;stroke:#FFA48D;stroke-width:0.25;stroke-miterlimit:10;}
	.st46{fill:url(#SVGID_4_);}
	.st47{fill:url(#SVGID_5_);}
	.st48{fill:#FFFFFF;stroke:#FFFFFF;stroke-width:0.25;stroke-miterlimit:10;}
	.st49{fill:none;stroke:#FFFFFF;stroke-width:0.25;stroke-miterlimit:10;}
</style>
<title>faq</title>
<g>
	<g id="Layer_1_1_">
		<path class="st0" d="M53.9,153.8c3.1-4.2,9.5-5.6,7.9-8.5c-1.1-2.8-8-5.7-13.9-6.5c-6-0.8-8.4,3.4-13.7,2.7
			c-6.5-0.8-11.3,4.5-14.3,7.1c-6.8,5.1,5,13.4,11.7,11.1C38.9,157.2,48.5,161,53.9,153.8z"/>
		<path class="st1" d="M50.7,138.5c0,2,2.7,4.3,6,5.6c3.3,1.3,4.8,3.2,1.5,4.1c-1.6,0.4-10.2-1.8-14.1-3.6c-0.8-0.3-1.4-1.1-1.2-2
			c0.1-1.5,1.3-2.7,1-4.4C43.6,136,50.7,133.3,50.7,138.5z"/>
		<g class="st2">
			<path d="M58.3,147.3c-1.7,0.4-10.2-1.8-14.1-3.6c-0.6-0.2-1.1-0.8-1.2-1.4v0.2c-0.1,0.9,0.4,1.7,1.2,2c3.9,1.8,12.4,4,14.1,3.6
				s2.1-1.1,1.7-1.9C59.6,146.8,59,147.2,58.3,147.3z"/>
			<path d="M44,137.7c0,0.2,0,0.3,0,0.5c0,0.1,0,0.1,0,0.2C44,138.1,44,137.9,44,137.7z"/>
		</g>
		<path class="st3" d="M49.6,139.9c0.5-0.1,0.9-0.4,1.3-0.7c-0.1-0.2-0.1-0.4-0.1-0.7c0-5.2-7.2-2.4-6.8-0.3
			c0.1,0.4,0.1,0.7,0.1,1.1C45.4,140.4,48,140.4,49.6,139.9z"/>
		<path class="st3" d="M42.9,142.6c-0.1,0.9,0.4,1.7,1.2,2c3.9,1.8,12.4,4,14.1,3.6c2-0.5,2.2-1.4,1.4-2.3l-0.3-0.3l0,0
			c-1.2,1.6-3.9,1.3-5.2,0.8c-1.4-0.5-4.2-1.5-6.2-2.1c-1.9-0.5-2-2.1-1.9-3.1c0.7-6.1-0.4-2.9-1-4.7l0,0c-0.2,0.1-0.3,0.2-0.5,0.4
			h0l0,0l-0.2,0.2l-0.1,0.2l0,0l-0.1,0.1c-0.1,0.1-0.1,0.2-0.1,0.3c0,0,0,0,0,0.1c0,0.1,0,0.2,0,0.4C44.3,139.9,43,141,42.9,142.6z"
			/>
		<path class="st4" d="M60.5,82.3c0.7,1.3,2.1,2.9,3.8,5.5c0.7,1.1,1,2.4,0.8,3.7c0,0.8-0.3,1.6-0.8,2.3c-0.5,0.8-0.7,1.2-1,1.1
			c-0.3,0-0.5-0.5-0.5-0.5s-0.2,0.6-0.7,0.6c-0.5,0-0.5-0.8-0.5-0.8c-0.2,0.1-0.5,0-0.7-0.1c-0.3-0.3,0.1-1,0.1-1
			c-0.2,0-0.4-0.2-0.5-0.4c0,0,0-0.1,0-0.1c0-0.5,0.6-1.4,0.5-2c-0.1-0.6,0.2-0.5-0.5-1.4c-0.9-0.9-1.5-2-1.9-3.1
			c-0.3-1.1,0-1.1-0.8-2c-6.2-7.2-0.4-2.1,0.3-2.7C59,80.9,59.7,80.9,60.5,82.3z"/>
		<path class="st3" d="M64.1,90.2c-0.2-1.6-1.8-2.8-3-4.6c-1-1.4-2-2.8-3.2-4.1c-1.4-0.3-5.6-3.8,0,2.7c0.8,0.9,0.5,0.9,0.8,2
			c0.4,1.2,1.1,2.2,1.9,3.1c0.7,0.9,0.4,0.8,0.5,1.4c0.1,0.6-0.5,1.5-0.5,2c0,0.2,0.1,0.4,0.3,0.5c0,0,0.1,0,0.1,0
			c0,0-0.4,0.7-0.1,1c0.2,0.2,0.4,0.2,0.7,0.1c0,0,0,0.8,0.5,0.8c0.5,0,0.7-0.6,0.7-0.6c0.1,0.1,0.2,0.2,0.3,0.3
			C64.8,92.7,64.2,91.8,64.1,90.2z"/>
		<path class="st5" d="M63,93.7c0.6,0.6,0.9,0.4,1.1,0.1c0.2-0.3,0-0.7-0.1-0.8s0.1-0.2,0.2-0.6c0.1-0.3-0.1-0.4-0.1-0.8
			c0-0.6-0.1-1.1-0.3-1.6c-0.2-0.5-0.4-1.1-0.5-1.6c-0.1-0.5-0.3-0.3-0.4,0.3c-0.1,0.6,0.3,1.1,0.8,2.4c0.5,1.2,0.6,1.7,0,1.9
			c-0.6,0.3-1.4-1.2-1.6-1.9c-0.2-0.7-0.7-0.8-1.3-1.5l0,0c0.5,0.6,0.2,0.6,0.3,1.1c0,0.2,0,0.4-0.1,0.6c0.3,0.3,0.6,0.6,0.9,0.8
			C62.6,92.7,62.4,93.1,63,93.7z"/>
		<path class="st6" d="M54.9,67.5L62.6,85c0.2,2-2.8,3.3-3.9,2.1c-2.3-2.4-10.3-13.5-11.2-18.6C46.2,62.3,52.6,63.1,54.9,67.5z"/>
		<path class="st7" d="M54.9,67.5L62.6,85c0.2,2-2.8,3.3-3.9,2.1c-2.3-2.4-10.3-13.5-11.2-18.6C46.2,62.3,52.6,63.1,54.9,67.5z"/>
		<path class="st6" d="M46,46.7c-1.4,2.5,0.3,20.4,1.9,23c0.5,0.9,3,7.1,4.2,6.9c0.5-0.1,0.9-0.3,1.3-0.6c1.9-1.9,1.3-13.3,1.4-17.8
			c0-4.2-1-11.6-6.1-12.8C47.5,45.1,46.4,45.7,46,46.7z"/>
		<path class="st7" d="M46,46.7c-1.4,2.5,0.3,20.4,1.9,23c0.5,0.9,3,7.1,4.2,6.9c0.5-0.1,0.9-0.3,1.3-0.6c1.9-1.9,1.3-13.3,1.4-17.8
			c0-4.2-1-11.6-6.1-12.8C47.5,45.1,46.4,45.7,46,46.7z"/>
		<path class="st7" d="M50.4,69.1L50.4,69.1C49,64.4,47.8,49.6,49,47.3c0.2-0.4,0.4-0.9,0.7-1.5c-0.3-0.2-0.7-0.3-1-0.4
			c-1.1-0.3-2.2,0.2-2.7,1.3c-1.2,2.3,0,17.1,1.4,21.9l0,0c0.9,5.1,8.9,16.2,11.2,18.6c0.8,0.6,1.8,0.6,2.6,0.1
			C58.4,84.1,51.4,74,50.4,69.1z"/>
		<path class="st1" d="M28.1,144.3c-0.1,2-0.9,8.1,1.4,9.9s6,2,5.4-1.9s-2.1-7.7-1.9-11.4S28.2,140,28.1,144.3z"/>
		<g class="st2">
			<path class="st8" d="M28.1,144.3c-0.1,2-0.9,8.1,1.4,9.9c2.2,1.7,5.6,2,5.4-1.2c-6.1,2.4-5.2-3.3-5.3-6.6c0-2,0.2-4,0.6-6
				c0-0.2,0-0.4,0-0.5C29,141,28.2,142.6,28.1,144.3z"/>
		</g>
		<path class="st3" d="M29.9,153.3c-2.3-1.9-1.5-7.9-1.4-9.9c0-0.5,0.1-0.9,0.2-1.4c-0.4,0.7-0.5,1.5-0.6,2.3
			c-0.1,2-0.9,8.1,1.4,9.9c2,1.6,5,1.9,5.4-0.5C34,155.1,31.5,154.6,29.9,153.3z"/>
		<path class="st3" d="M33,141c0.3-3.7-4.8-0.9-4.9,3.4c0,0.4,0,0.9-0.1,1.4c0.9,0.6,4,1.2,5.3-0.5C33,143.9,32.9,142.4,33,141z"/>
		<path class="st1" d="M51.4,80.3l-14.7,2.5l7.3,55.7c1.4,1.2,3.9,1.2,5.4,0.7c0.5-0.1,0.9-0.4,1.3-0.7l0,0c0-0.2,0-0.3,0-0.5
			L51.4,80.3z"/>
		<path class="st5" d="M44.2,91.9c0-1.9-0.5-3.7-1.5-5.3l-0.4-4.7l-5.6,0.9l0.1,0.5c-3.7,0.3-6.6,4-6.6,8.6c0,4.8,3.1,8.6,7,8.6
			c0.6,0,1.2-0.1,1.8-0.3l5,38.4c0.9,0.7,1.9,1,3,1l-3.6-43.8C43.9,94.5,44.2,93.2,44.2,91.9z"/>
		<path class="st1" d="M44.7,89.7c0-1.6-0.4-3.2-1.1-4.6l0.5-3.3h-3.6c-1.8-1-4-1-5.8,0h-5.5l-2,60.7c-0.1,1.6,1,3,2.6,3.3
			c2,0.4,3.9-0.9,4.2-2.9c0,0,0,0,0,0l7.7-46.2C43.7,95,44.8,92.4,44.7,89.7z"/>
		<path class="st5" d="M29.9,145.2l4.7-60.5l9.1,0.4l0.5-3.2l-14.9,0.1l-2.1,60.6c-0.1,1.6,1,3,2.6,3.3h0.1
			C29.9,145.7,29.9,145.4,29.9,145.2z"/>
		<path class="st3" d="M51.9,81.1l-0.5-0.9c-0.7-0.1-0.5-0.5-1.2-0.5c-6.8,0-12.1-6.7-12.9,4.9l-6.7-1.2v2.6
			c0.8,0.6,1.8,1.1,2.9,1.3C38.3,88.4,50.7,86.5,51.9,81.1z"/>
		<path class="st6" d="M53.4,53c0-3.3-0.8-5.4-2.1-6.5c-3.5-3-12-0.4-15.9,1c-1.7,0.6-3.4,1.3-5,2.2c-1.9,1.1-3.4,2.4-3.4,4.6
			l2.2,13.1c0,6.9-1.3,7.2-0.4,14c0,2.6,2.1,4.5,4.8,5.1c5.1,1.1,18.6-1,18.6-7.1c0-3.7-0.4-7.5-0.3-10.5C52.1,60,53.4,58.9,53.4,53
			L53.4,53z"/>
		<path class="st7" d="M36.1,78.7c0.4-8.9,0-9.9,0-15.8c0-3.3-0.8-5.4-2.1-6.5c-1.3-0.9-2.8-1.4-4.4-1.4c0.3-1.7,1.4-3.1,2.9-4
			c1.6-0.9,3.3-1.6,5-2.2c3.4-1.2,10.3-3.3,14.3-1.9c-0.1-0.2-0.3-0.3-0.5-0.5c-3.5-3-12-0.4-15.9,1c-1.7,0.6-3.4,1.3-5,2.1
			c-1.9,1.1-3.4,2.4-3.4,4.6l2.2,13.1c0,6.9-1.3,7.2-0.4,14c0,2.6,2.1,4.5,4.8,5.1c0.4,0.1,2.2,0.1,2.6,0.2
			C35.9,83.8,36,80.9,36.1,78.7z"/>
		<path class="st4" d="M21.7,96.7c0,0.6,1.3,1.8,2.6,2.7c1.4,0.9,3.3,1.1,3.3-0.9s-4.1-4.1-4.8-3.3C22.1,96,21.7,95.8,21.7,96.7z"/>
		<path class="st3" d="M21.7,96.7c0,0.6,1.3,1.8,2.6,2.7c1.4,0.9,3.3,1.1,3.3-0.9s-4.1-4.1-4.8-3.3C22.1,96,21.7,95.8,21.7,96.7z"/>
		<path class="st9" d="M12.1,71.5c0.5-0.5,1.3-0.5,1.8-0.1l24.8,14.3c1.3,0.8,2.1,2.2,2.2,3.7V105c0.1,0.5-0.2,1.1-0.6,1.4l0,0
			l0.7-0.4l0,0c0.5-0.3,0.7-0.9,0.7-1.4V89.1c-0.1-1.5-0.9-2.9-2.2-3.7L14.6,71.1c-0.4-0.3-1-0.4-1.5-0.1l0,0l-0.7,0.4
			C12.3,71.4,12.2,71.5,12.1,71.5z"/>
		<path class="st8" d="M12.1,71.5c0.5-0.5,1.3-0.5,1.8-0.1l24.8,14.3c1.3,0.8,2.1,2.2,2.2,3.7V105c0.1,0.5-0.2,1.1-0.6,1.4l0,0
			l0.7-0.4l0,0c0.5-0.3,0.7-0.9,0.7-1.4V89.1c-0.1-1.5-0.9-2.9-2.2-3.7L14.6,71.1c-0.4-0.3-1-0.4-1.5-0.1l0,0l-0.7,0.4
			C12.3,71.4,12.2,71.5,12.1,71.5z"/>
		<path class="st9" d="M40.8,105.1c0,1.4-0.9,1.9-2.2,1.2L13.9,92c-1.3-0.8-2.1-2.2-2.2-3.7V72.7c0-1.4,0.9-1.9,2.2-1.2l24.8,14.3
			c1.3,0.8,2.1,2.2,2.2,3.7V105.1z"/>
		<path class="st9" d="M33.5,95.9C33.5,95.9,33.4,95.9,33.5,95.9l-0.2,0.1c0,0-0.1,0-0.1,0.1c0,0-0.1,0-0.1,0.1c0,0-0.1,0-0.1,0
			c0,0-0.1,0-0.1,0.1c0,0-0.1,0-0.1,0c0.1-0.1,0.1-0.2,0.1-0.3c0-0.4-0.2-0.7-0.5-0.9l-3.2-1.9c-0.1,0-0.2,0-0.3,0
			c0,0,0.1,0,0.1-0.1c0,0,0.1,0,0.1,0c0,0,0.1,0,0.1-0.1c0,0,0.1,0,0.1-0.1h0.1c0,0,0.1,0,0.1-0.1c0,0,0.1,0,0.1,0
			c0.1-0.1,0.3-0.1,0.4,0l3.2,1.9c0.3,0.2,0.5,0.6,0.5,0.9C33.7,95.8,33.6,95.8,33.5,95.9z M29.6,88C29.6,88,29.5,88.1,29.6,88
			c-0.1,0.1-0.2,0.1-0.2,0.1c0,0-0.1,0-0.1,0.1c0,0-0.1,0-0.1,0c0,0-0.1,0-0.1,0.1h-0.1c0,0-0.1,0-0.1,0.1l0,0c0.1,0,0.2,0,0.3,0
			l6.1,3.5c0.3,0.2,0.5,0.6,0.5,0.9c0,0.1,0,0.2-0.1,0.3h0.1c0,0,0.1,0,0.1-0.1H36c0,0,0.1,0,0.1-0.1h0.1c0,0,0.1,0,0.1-0.1h0.1
			c0.1-0.1,0.2-0.2,0.2-0.4c0-0.4-0.2-0.7-0.5-0.9L30,88C29.9,87.9,29.7,87.9,29.6,88z M29.6,95.2C29.6,95.2,29.5,95.2,29.6,95.2
			c-0.1,0-0.2,0-0.2,0.1h-0.1c0,0-0.1,0-0.1,0.1c0,0-0.1,0-0.1,0c0,0-0.1,0-0.1,0.1c0,0-0.1,0-0.1,0.1c0.1-0.1,0.2-0.1,0.3,0
			l6.1,3.5c0.3,0.2,0.5,0.6,0.5,0.9c0,0.1,0,0.2-0.1,0.3l0,0c0,0,0.1,0,0.1-0.1c0,0,0.1,0,0.1,0c0,0,0.1,0,0.1-0.1c0,0,0.1,0,0.1,0
			c0,0,0.1,0,0.1-0.1h0.1c0,0,0.1,0,0.1-0.1c0.1-0.1,0.2-0.2,0.2-0.3c0-0.4-0.2-0.7-0.5-0.9L30,95.2C29.9,95.1,29.7,95.1,29.6,95.2z
			 M29.3,86l4.3,2.5c0.3,0.2,0.5,0.6,0.5,0.9c0,0.1,0,0.2-0.1,0.3l0,0c0,0,0.1,0,0.1-0.1c0,0,0.1,0,0.1-0.1h0.1c0,0,0.1,0,0.1-0.1
			h0.1c0,0,0.1,0,0.1-0.1h0.1c0.1-0.1,0.2-0.2,0.2-0.4c0-0.4-0.2-0.7-0.5-0.9L30,85.6c-0.1-0.1-0.3-0.1-0.4,0c0,0-0.1,0-0.1,0.1
			h-0.1c0,0-0.1,0-0.1,0.1c0,0-0.1,0-0.1,0.1h-0.1c-0.1,0-0.1,0.1-0.1,0.2H29C29.1,86,29.2,86,29.3,86z M29.6,90.4L29.6,90.4
			c-0.1,0-0.2,0-0.2,0.1c0,0-0.1,0-0.1,0.1c0,0-0.1,0-0.1,0c0,0-0.1,0-0.1,0.1h-0.1c0,0-0.1,0-0.1,0.1c0.1,0,0.2,0,0.3,0l6.1,3.7
			c0.3,0.2,0.5,0.6,0.5,0.9c0,0.1,0,0.2-0.1,0.3l0,0c0,0,0.1,0,0.1,0c0,0,0.1,0,0.1-0.1H36c0,0,0.1,0,0.1-0.1c0,0,0.1,0,0.1-0.1h0.1
			c0,0,0.1,0,0.1-0.1c0.1-0.1,0.2-0.2,0.2-0.3c0-0.4-0.2-0.7-0.5-0.9L30,90.4C29.9,90.3,29.7,90.3,29.6,90.4z"/>
		<path class="st8" d="M33.5,95.9C33.5,95.9,33.4,95.9,33.5,95.9l-0.2,0.1c0,0-0.1,0-0.1,0.1c0,0-0.1,0-0.1,0.1c0,0-0.1,0-0.1,0
			c0,0-0.1,0-0.1,0.1c0,0-0.1,0-0.1,0c0.1-0.1,0.1-0.2,0.1-0.3c0-0.4-0.2-0.7-0.5-0.9l-3.2-1.9c-0.1,0-0.2,0-0.3,0
			c0,0,0.1,0,0.1-0.1c0,0,0.1,0,0.1,0c0,0,0.1,0,0.1-0.1c0,0,0.1,0,0.1-0.1h0.1c0,0,0.1,0,0.1-0.1c0,0,0.1,0,0.1,0
			c0.1-0.1,0.3-0.1,0.4,0l3.2,1.9c0.3,0.2,0.5,0.6,0.5,0.9C33.7,95.8,33.6,95.8,33.5,95.9z M29.6,88C29.6,88,29.5,88.1,29.6,88
			c-0.1,0.1-0.2,0.1-0.2,0.1c0,0-0.1,0-0.1,0.1c0,0-0.1,0-0.1,0c0,0-0.1,0-0.1,0.1h-0.1c0,0-0.1,0-0.1,0.1l0,0c0.1,0,0.2,0,0.3,0
			l6.1,3.5c0.3,0.2,0.5,0.6,0.5,0.9c0,0.1,0,0.2-0.1,0.3h0.1c0,0,0.1,0,0.1-0.1H36c0,0,0.1,0,0.1-0.1h0.1c0,0,0.1,0,0.1-0.1h0.1
			c0.1-0.1,0.2-0.2,0.2-0.4c0-0.4-0.2-0.7-0.5-0.9L30,88C29.9,87.9,29.7,87.9,29.6,88z M29.6,95.2C29.6,95.2,29.5,95.2,29.6,95.2
			c-0.1,0-0.2,0-0.2,0.1h-0.1c0,0-0.1,0-0.1,0.1c0,0-0.1,0-0.1,0c0,0-0.1,0-0.1,0.1c0,0-0.1,0-0.1,0.1c0.1-0.1,0.2-0.1,0.3,0
			l6.1,3.5c0.3,0.2,0.5,0.6,0.5,0.9c0,0.1,0,0.2-0.1,0.3l0,0c0,0,0.1,0,0.1-0.1c0,0,0.1,0,0.1,0c0,0,0.1,0,0.1-0.1c0,0,0.1,0,0.1,0
			c0,0,0.1,0,0.1-0.1h0.1c0,0,0.1,0,0.1-0.1c0.1-0.1,0.2-0.2,0.2-0.3c0-0.4-0.2-0.7-0.5-0.9L30,95.2C29.9,95.1,29.7,95.1,29.6,95.2z
			 M29.3,86l4.3,2.5c0.3,0.2,0.5,0.6,0.5,0.9c0,0.1,0,0.2-0.1,0.3l0,0c0,0,0.1,0,0.1-0.1c0,0,0.1,0,0.1-0.1h0.1c0,0,0.1,0,0.1-0.1
			h0.1c0,0,0.1,0,0.1-0.1h0.1c0.1-0.1,0.2-0.2,0.2-0.4c0-0.4-0.2-0.7-0.5-0.9L30,85.6c-0.1-0.1-0.3-0.1-0.4,0c0,0-0.1,0-0.1,0.1
			h-0.1c0,0-0.1,0-0.1,0.1c0,0-0.1,0-0.1,0.1h-0.1c-0.1,0-0.1,0.1-0.1,0.2H29C29.1,86,29.2,86,29.3,86z M29.6,90.4L29.6,90.4
			c-0.1,0-0.2,0-0.2,0.1c0,0-0.1,0-0.1,0.1c0,0-0.1,0-0.1,0c0,0-0.1,0-0.1,0.1h-0.1c0,0-0.1,0-0.1,0.1c0.1,0,0.2,0,0.3,0l6.1,3.7
			c0.3,0.2,0.5,0.6,0.5,0.9c0,0.1,0,0.2-0.1,0.3l0,0c0,0,0.1,0,0.1,0c0,0,0.1,0,0.1-0.1H36c0,0,0.1,0,0.1-0.1c0,0,0.1,0,0.1-0.1h0.1
			c0,0,0.1,0,0.1-0.1c0.1-0.1,0.2-0.2,0.2-0.3c0-0.4-0.2-0.7-0.5-0.9L30,90.4C29.9,90.3,29.7,90.3,29.6,90.4z"/>
		<path class="st10" d="M35.9,92.8c0,0.3-0.2,0.5-0.5,0.3l-6.1-3.5c-0.3-0.2-0.5-0.6-0.5-0.9l0,0c0-0.3,0.2-0.5,0.5-0.3l6.1,3.5
			C35.7,92.1,35.9,92.5,35.9,92.8L35.9,92.8z M34.1,89.4c0-0.4-0.2-0.7-0.5-0.9L29.3,86c-0.3-0.2-0.5,0-0.5,0.3l0,0
			c0,0.4,0.2,0.7,0.5,0.9l4.3,2.5C33.9,89.9,34.1,89.7,34.1,89.4L34.1,89.4z M35.9,95.2c0,0.3-0.2,0.5-0.5,0.3L29.3,92
			c-0.3-0.2-0.5-0.6-0.5-0.9l0,0c0-0.3,0.2-0.5,0.5-0.3l6.1,3.6C35.7,94.6,35.9,94.9,35.9,95.2L35.9,95.2z M35.9,100
			c0,0.3-0.2,0.5-0.5,0.3l-6.1-3.5c-0.3-0.2-0.5-0.6-0.5-0.9l0,0c0-0.3,0.2-0.5,0.5-0.3l6.1,3.5C35.7,99.3,35.9,99.6,35.9,100z
			 M33,96c0-0.4-0.2-0.7-0.5-0.9l-3.2-1.9c-0.3-0.2-0.5,0-0.5,0.3l0,0c0,0.4,0.2,0.7,0.5,0.9l3.2,1.9C32.7,96.4,33,96.2,33,96z"/>
		<path class="st5" d="M15.9,82.9c0,1.4,0.4,2.7,1,3.9c0.1-0.3,0.3-0.6,0.6-0.9c-0.1,0-0.2,0.1-0.3,0.1l0.1-0.1h0.1l0.1-0.1l0.1,0
			l0.1-0.1l0.1-0.1h0.1c0.1-0.1,0.2-0.1,0.3-0.1l0,0c0.1,0,0.2-0.1,0.3-0.1l0,0c0.3,0,0.7,0,1,0.1c-0.5-0.6-0.7-1.4-0.7-2.2
			c0-0.3,0.1-0.6,0.2-0.9c-0.1,0-0.2,0-0.4,0.1l0.1-0.1h0.1l0.1-0.1H19l0.1-0.1l0.1-0.1h0.1l0.1-0.1l0.7-0.4l0,0
			c0.4-0.2,0.9-0.1,1.2,0.1c1.1,0.7,1.8,1.9,1.9,3.2c0,0.7-0.3,1.1-0.8,1.3c1.1,1.1,2,2.4,2.5,3.9c-0.1,0.2-0.2,0.3-0.3,0.4
			c0.5-0.7,0.7-1.5,0.7-2.3c-0.2-3.3-1.9-6.3-4.7-8.1C18,78.7,15.9,79.9,15.9,82.9z"/>
		<path class="st8" d="M16.7,82.5c-0.1-1,0.3-2.1,1-2.8c-1.1,0.4-1.8,1.5-1.8,3.2c0,1.4,0.4,2.7,1,3.9c0.1-0.3,0.3-0.6,0.5-0.8
			C17,84.9,16.7,83.7,16.7,82.5z"/>
		<path class="st10" d="M18.5,85.4c0.1,0.2,0.2,0.3,0.3,0.5c-0.5-0.2-1.1-0.1-1.6,0.1l0.1-0.1h0.1l0.1-0.1l0.1,0l0.1-0.1l0.1-0.1
			h0.1C18.1,85.6,18.3,85.6,18.5,85.4L18.5,85.4z M18.7,82.6L18.7,82.6l0.2-0.1l0.1-0.1H19l0.1-0.1l0.1-0.1h0.1l0.8-0.5l0,0
			c0.4-0.2,0.9-0.1,1.2,0.1c1.1,0.7,1.8,1.9,1.9,3.2c0,0.7-0.3,1.1-0.8,1.3c1.1,1.1,2,2.4,2.5,3.9c-0.1,0.3-0.3,0.6-0.6,0.8
			c-0.1,0.1-0.3,0.2-0.4,0.3l-0.1,0.1h-0.1l-0.1,0.1l-0.1,0l-0.1,0l-0.1,0.1h-0.1l0,0c0.1-0.1,0.2-0.1,0.3-0.2
			c-0.5-1.6-1.4-3.1-2.6-4.3c0.5-0.1,0.8-0.6,0.8-1.3c-0.1-1.3-0.8-2.5-1.9-3.2C19.5,82.4,19.1,82.4,18.7,82.6z"/>
		<path d="M18.5,85.4c0.1,0.2,0.2,0.3,0.3,0.5c-0.5-0.2-1.1-0.1-1.6,0.1l0.1-0.1h0.1l0.1-0.1l0.1,0l0.1-0.1l0.1-0.1h0.1
			C18.1,85.6,18.3,85.6,18.5,85.4L18.5,85.4z M18.7,82.6L18.7,82.6l0.2-0.1l0.1-0.1H19l0.1-0.1l0.1-0.1h0.1l0.8-0.5l0,0
			c0.4-0.2,0.9-0.1,1.2,0.1c1.1,0.7,1.8,1.9,1.9,3.2c0,0.7-0.3,1.1-0.8,1.3c1.1,1.1,2,2.4,2.5,3.9c-0.1,0.3-0.3,0.6-0.6,0.8
			c-0.1,0.1-0.3,0.2-0.4,0.3l-0.1,0.1h-0.1l-0.1,0.1l-0.1,0l-0.1,0l-0.1,0.1h-0.1l0,0c0.1-0.1,0.2-0.1,0.3-0.2
			c-0.5-1.6-1.4-3.1-2.6-4.3c0.5-0.1,0.8-0.6,0.8-1.3c-0.1-1.3-0.8-2.5-1.9-3.2C19.5,82.4,19.1,82.4,18.7,82.6z"/>
		<path class="st10" d="M19.9,91.4c1.5,0.9,2.8,0.8,3.7,0c-0.5-1.6-1.4-3.1-2.6-4.3c0.5-0.1,0.8-0.6,0.8-1.3
			c-0.1-1.3-0.8-2.5-1.9-3.2c-1-0.6-1.9-0.1-1.9,1.1c0,0.8,0.3,1.6,0.8,2.2c-1.1-0.4-2.2,0.2-2.6,1.3C17,88.9,18.3,90.4,19.9,91.4z"
			/>
		<path class="st4" d="M25.6,88.6c0.2,2.4-0.2,3.6,0.9,4.7c1.1,1.1,0.5,0.6,0.9,1.3c0.5,0.7,0.8,1.5,0.9,2.4c0.2,1,0.8,2,0.4,2.3
			c-0.4,0.3-0.8-0.2-1-0.4c-0.2-0.2-0.8-1.8-0.9-1.8c-0.1,0-0.3,0.7-0.5,1.2c-0.2,0.6-0.3,1.2-0.3,1.8c-0.6-0.1-1.2-0.3-1.7-0.7
			c-1.3-0.9-2.6-2.1-2.6-2.7c0.2-1.6,1-3.7,0.7-4.8c-0.3-1.1-0.5-2.2-0.6-3.4C21.7,87.7,25.5,86.8,25.6,88.6z"/>
		<path class="st3" d="M24.1,87.6L24.1,87.6L24.1,87.6L24.1,87.6c0,0.2,0,0.5,0,0.7c0.2,2.4,0.1,3.5,0.2,3.9c0.3,1.1,1.3,2.5,1,4
			c-0.1,0.4-0.3,1.9-0.4,3.5h-0.1c-0.2-0.1-0.4-0.2-0.6-0.3c-1.3-0.9-2.6-2.1-2.6-2.7c0.2-1.6,1-3.7,0.7-4.8
			c-0.3-1.1-0.5-2.1-0.6-3.3l0,0c0-0.1,0-0.1,0-0.1C21.7,88.1,23,87.6,24.1,87.6z"/>
		<path class="st6" d="M27.2,73.9L26.7,93c-0.7,1.9-4,1.7-4.5,0.2c-1.1-3.2-3.5-16.6-2.2-21.6C21.6,65.4,27,68.8,27.2,73.9z"/>
		<path class="st6" d="M28.1,51.2c-2.3,1.7-8.5,18.6-8.2,21.6c0.1,1-0.3,7.7,0.8,8c0.5,0.1,1,0.1,1.4,0c2.6-0.9,6.9-11.4,8.9-15.5
			c1.9-3.8,4.1-10.9,0-14.1C30.2,50.5,29,50.5,28.1,51.2z"/>
		<path class="st7" d="M22.5,73.4L22.5,73.4c0.8-4.9,5.7-19.3,7.8-20.8c0.4-0.3,0.8-0.6,1.2-0.9c-0.1-0.2-0.3-0.3-0.5-0.4
			c-0.8-0.7-2.1-0.7-2.9,0c-2.1,1.5-7.3,15.5-8.1,20.4l0,0c-1.4,5.1,1.1,18.5,2.1,21.6c0.4,0.8,1.3,1.3,2.3,1.2
			C23.3,90.3,21.2,78.2,22.5,73.4z"/>
		<path class="st4" d="M34.7,47.8c0.1,0.2,0.3,0.3,0.4,0.4c1,0.8,5.4,4.4,8.4,3.3c4.2-1.5,1.9-4.8,0.9-6.1l0.5-0.1
			c-0.6-0.7-0.9-2-0.9-4.5c0-3.4-2.6-5.5-4.7-5.4c-2.1,0.1-4.7,1.2-4.1,4.1C35.6,41.5,36.6,45.9,34.7,47.8z"/>
		<path class="st3" d="M34.7,47.8c0.1,0.2,0.3,0.3,0.4,0.4c0.2,0.2,0.7,0.5,1.2,0.9c2.2-1.1,2-4.7,1.9-7.9c0-1.6,1.2-3.3,2.9-5.4
			c-0.5-0.3-1.2-0.4-1.8-0.4c-2.1,0.1-4.7,1.2-4.1,4.1C35.6,41.5,36.6,45.9,34.7,47.8z"/>
		<path class="st11" d="M43.5,51.5c1.8-0.6,2.4-1.6,2.4-2.6c-0.4-0.8-0.5-1.1-1-0.4s-1.2,2-2.9,1.5c-0.7-0.2-1.4,0.5-1.7,1.4
			C41.3,51.7,42.4,51.8,43.5,51.5z"/>
		<path class="st12" d="M35.8,44.7c0.3,1.6,1.4,3,3,3.7c2.5,1,4.2,0.8,4.2,1.6s-1.1,1-0.9,2.1c0.2,1.1,1.5,2-1.2,1
			c-2.7-1-5.6-2.9-6.3-5.2C33.9,45.5,35.7,44.2,35.8,44.7z"/>
		<path class="st12" d="M44.6,46.5c0.1,1.6-0.8,2.4-0.5,3s1.2,0.2,1.6,1.6c0.3,1.3,0.3,2.9,0.6,0.7C46.6,48.7,44.4,43.9,44.6,46.5z"
			/>
		<path class="st4" d="M47.2,35.5c0,3.8,0.1,9.9-2.8,10.3s-10.2-4.5-10.2-10s4.3-8.5,8-7.5C45.7,29.3,47.2,33.1,47.2,35.5z"/>
		<path class="st3" d="M34.2,35.9c0,5.5,7.2,10.4,10.2,10c0.6-0.1,1.1-0.4,1.5-0.9c-0.7,0.5-1.6,0.6-2.4,0.3
			c-1.9-0.9-4.6-3.3-4.8-5.4c-0.2-1.9-0.6-3.8-1.3-5.5c0,0,0-0.7-0.5-4.7C35.1,31.3,34.1,33.5,34.2,35.9z"/>
		<path class="st1" d="M45.7,29.5c1.9,1.9,4,2.4-0.2,4.5c-3,1.5-4.4-0.4-6.6,0.3c-1.3,0.4-0.1,3.7-0.5,3.8c-0.4,0.1-1.1,0.4-1.3-0.2
			c-0.8-2.4-2.5-1.1-2.3,0.2s1.5,2.9,1.1,4.1c-0.4,1.3-0.9-1.2-2.2-3.8c-1.3-2.6-1.4-7.4,2.4-9.8S43.5,27.3,45.7,29.5z"/>
		<path class="st5" d="M36,28.6c-3.8,2.4-3.7,7.2-2.4,9.8c1.3,2.6,1.9,5.1,2.2,3.8s-0.9-2.8-1.1-4.1c-0.2-1.3,1.5-2.6,2.3-0.2
			c0.2,0.6,0.9,0.3,1.3,0.2c-0.4-1.1-0.9-2.2-1.6-3.2c-0.9-1.5-0.9-3.4,0.2-4.8c2.1-3.1,5.9-2.1,7.5-1.6
			C41.9,26.8,38.5,26.9,36,28.6z"/>
		<path class="st0" d="M170.8,211.7c-3.3,1.6-7.1,1.6-10.3,0l-104-60.1c-2.9-1.7-2.9-4.3,0-6l39.4-22.8c3.3-1.6,7.1-1.6,10.4,0
			l104,60.1c2.9,1.6,2.9,4.3,0,6L170.8,211.7z"/>
		<path class="st13" d="M42.5,122.4l-0.1,0.1l41.6-24l0,0c1.6-0.9,3.9-0.8,6.4,0.7l87.6,50.6c5,2.9,9.1,10,9.1,15.7v36.9l-41.6,24
			l-4.7-2.7v-36.9c-0.2-3.1-1.8-5.9-4.4-7.6l-55.7-32.1l-36.3,21l-4.7-2.7v-36.9C39.7,125.4,40.7,123.3,42.5,122.4z"/>
		<path class="st14" d="M44.3,131c0-2.8,2-4,4.4-2.5l87.6,50.6l-55.7-32.1l-36.3,21V131z"/>
		<path class="st12" d="M48.8,128.5l87.6,50.6c2.6,1.7,4.2,4.5,4.4,7.6v3.4l-92.3-53.3v-8.2c0-0.1,0-0.2,0-0.3L48.8,128.5z"/>
		<path d="M136.3,183.5l-87.6-50.6l-0.3-0.1c0,0.1,0,0.2,0,0.3v-4.4c0-0.1,0-0.2,0-0.3l0.3,0.1l87.6,50.6c2.6,1.7,4.2,4.5,4.4,7.6
			v3.4h-0.1C140.2,187.4,138.6,185,136.3,183.5z"/>
		<path class="st15" d="M39.7,165.2l4.7,2.7V131c0-2.8,2-4,4.4-2.5l87.6,50.6c2.6,1.7,4.2,4.5,4.4,7.6v36.9l4.7,2.7v-36.9
			c0-5.8-4.1-12.8-9.1-15.7l-87.6-50.6c-5-2.9-9.1-0.5-9.1,5.2L39.7,165.2z"/>
		<path class="st16" d="M39.7,165.2l4.7,2.7V131c0-2.8,2-4,4.4-2.5l87.6,50.6c2.6,1.7,4.2,4.5,4.4,7.6v36.9l4.7,2.7v-36.9
			c0-5.8-4.1-12.8-9.1-15.7l-87.6-50.6c-5-2.9-9.1-0.5-9.1,5.2L39.7,165.2z"/>
		<polygon class="st17" points="187,202.2 145.4,226.2 145.4,189.4 187,165.4 		"/>
		<path class="st14" d="M89.2,135l28,16.2c0.3,0.2,0.7,0.2,1.1,0l9-5.2c0.1-0.1,0.2-0.2,0.2-0.3c0-0.1-0.1-0.3-0.2-0.3l-28-16.2
			c-0.3-0.2-0.7-0.2-1.1,0l-9,5.2c-0.1,0.1-0.2,0.2-0.2,0.3C89,134.8,89.1,134.9,89.2,135z"/>
		<path class="st18" d="M126.5,146.3v-0.6l0,0c0-0.2-0.1-0.3-0.2-0.3l-29.8-17.2c-0.4-0.2-0.8-0.2-1.1,0l-9.6,5.5
			c-0.1,0.1-0.2,0.2-0.2,0.3l0,0v0.6l0,0c0,0.2,0.1,0.3,0.2,0.3l29.8,17.2c0.4,0.2,0.8,0.2,1.2,0l9.6-5.5
			C126.4,146.6,126.5,146.5,126.5,146.3L126.5,146.3L126.5,146.3L126.5,146.3z"/>
		<path class="st19" d="M126.3,146.1l-9.6,5.5c-0.4,0.2-0.8,0.2-1.2,0l-29.8-17.2c-0.1-0.1-0.2-0.2-0.2-0.3l0,0v0.6l0,0
			c0,0.2,0.1,0.3,0.2,0.3l29.8,17.2c0.4,0.2,0.8,0.2,1.2,0l9.6-5.5c0.1-0.1,0.2-0.2,0.2-0.3l0,0l0,0l0,0v-0.6l0,0
			C126.5,145.9,126.4,146.1,126.3,146.1z"/>
		<path class="st12" d="M109.8,138.2c0.1,0.1,0,0.2-0.1,0.3l-1,0.6c-0.2,0.1-0.5,0.1-0.8,0l-1-0.6c-0.2-0.1-0.2-0.2-0.1-0.3
			c0,0,0.1,0.1,0.1,0.1l1,0.6c0.2,0.1,0.5,0.1,0.8,0l1-0.6C109.8,138.2,109.8,138.2,109.8,138.2z M98.2,133.5l1,0.6
			c0.2,0.1,0.5,0.1,0.8,0l1-0.6c0.2-0.1,0.2-0.2,0.1-0.3c0,0-0.1,0.1-0.1,0.1l-1,0.6c-0.2,0.1-0.5,0.1-0.8,0l-1-0.6
			c-0.1,0-0.1-0.1-0.1-0.1C98,133.2,98,133.4,98.2,133.5L98.2,133.5z M101.3,137.8l1,0.6c0.2,0.1,0.5,0.1,0.8,0l1-0.6
			c0.2-0.1,0.2-0.2,0.1-0.3c0,0-0.1,0.1-0.1,0.1l-1,0.6c-0.2,0.1-0.5,0.1-0.8,0l-1-0.6c0,0-0.1-0.1-0.1-0.1
			C101.1,137.6,101.2,137.7,101.3,137.8L101.3,137.8z M108.5,140.4c0.2-0.1,0.2-0.2,0.1-0.3c0,0-0.1,0.1-0.1,0.1l-1,0.6
			c-0.2,0.1-0.5,0.1-0.8,0l-1-0.6c0,0-0.1-0.1-0.1-0.1c-0.1,0.1,0,0.2,0.1,0.3l1,0.6c0.2,0.1,0.5,0.1,0.8,0L108.5,140.4z
			 M110.7,141.6c0.2-0.1,0.2-0.2,0.1-0.3c0,0-0.1,0.1-0.1,0.1l-1,0.6c-0.2,0.1-0.5,0.1-0.8,0l-1-0.6c0,0-0.1-0.1-0.1-0.1
			c-0.1,0.1,0,0.2,0.1,0.3l1,0.6c0.2,0.1,0.5,0.1,0.8,0L110.7,141.6z M111.9,139.6l-1,0.6c-0.2,0.1-0.5,0.1-0.8,0l-1-0.6
			c-0.1,0-0.1-0.1-0.1-0.1c-0.1,0.1,0,0.2,0.1,0.3l1,0.6c0.2,0.1,0.5,0.1,0.8,0l1-0.6c0.2-0.1,0.2-0.2,0.1-0.3
			C112,139.5,111.9,139.5,111.9,139.6L111.9,139.6z M114.1,140.8l-1,0.6c-0.2,0.1-0.5,0.1-0.8,0l-1-0.6c0,0-0.1-0.1-0.1-0.1
			c-0.1,0.1,0,0.3,0.1,0.3l1,0.6c0.2,0.1,0.5,0.1,0.8,0l1-0.6c0.2-0.1,0.2-0.2,0.1-0.3C114.2,140.7,114.1,140.8,114.1,140.8
			L114.1,140.8z M106.3,139.1c0.2-0.1,0.2-0.2,0.1-0.3c0,0-0.1,0.1-0.1,0.1l-1,0.6c-0.2,0.1-0.5,0.1-0.8,0l-1-0.6
			c0,0-0.1-0.1-0.1-0.1c-0.1,0.1,0,0.2,0.1,0.3l1,0.6c0.2,0.1,0.5,0.1,0.8,0L106.3,139.1z M99.2,136.6l1,0.6c0.2,0.1,0.5,0.1,0.8,0
			l1-0.6c0.1-0.1,0.2-0.2,0.1-0.3c0,0-0.1,0.1-0.1,0.1l-1,0.6c-0.2,0.1-0.5,0.1-0.8,0l-1-0.6c0,0-0.1-0.1-0.1-0.1
			C99,136.3,99,136.4,99.2,136.6L99.2,136.6z M116.4,141.9c0,0-0.1,0.1-0.1,0.1l-1,0.6c-0.2,0.1-0.5,0.1-0.8,0l-1-0.6
			c-0.1,0-0.1-0.1-0.1-0.1c-0.1,0.1,0,0.2,0.1,0.3l1,0.6c0.2,0.1,0.5,0.1,0.8,0l1-0.6C116.4,142.2,116.5,142,116.4,141.9z
			 M102.3,140.8l1,0.6c0.2,0.1,0.5,0.1,0.8,0l1-0.6c0.1-0.1,0.2-0.2,0.1-0.3c0,0-0.1,0.1-0.1,0.1l-1,0.6c-0.2,0.1-0.5,0.1-0.8,0
			l-1-0.6c-0.1,0-0.1-0.1-0.1-0.1C102.1,140.6,102.1,140.7,102.3,140.8L102.3,140.8z M113,142.4c0,0-0.1,0.1-0.1,0.1l-1,0.6
			c-0.2,0.1-0.5,0.1-0.8,0l-1-0.6c0,0-0.1-0.1-0.1-0.1c-0.1,0.1,0,0.2,0.1,0.3l1,0.6c0.2,0.1,0.5,0.1,0.8,0l1-0.6
			C113,142.7,113.1,142.6,113,142.4L113,142.4z M100.1,139.6l1,0.6c0.2,0.1,0.5,0.1,0.8,0l1-0.6c0.2-0.1,0.2-0.2,0.1-0.3
			c0,0-0.1,0.1-0.1,0.1l-1,0.6c-0.2,0.1-0.5,0.1-0.8,0l-1-0.6c-0.1,0-0.1-0.1-0.1-0.1C99.9,139.4,100,139.5,100.1,139.6L100.1,139.6
			z M97.9,138.3l1,0.6c0.2,0.1,0.5,0.1,0.8,0l1-0.6c0.2-0.1,0.2-0.2,0.1-0.3c0,0-0.1,0.1-0.1,0.1l-1,0.6c-0.2,0.1-0.5,0.1-0.8,0
			l-1-0.6c-0.1,0-0.1-0.1-0.1-0.1C97.7,138.1,97.8,138.2,97.9,138.3L97.9,138.3z M108.8,144.6l1,0.6c0.2,0.1,0.5,0.1,0.8,0l1-0.6
			c0.2-0.1,0.2-0.2,0.1-0.3c0,0-0.1,0.1-0.1,0.1l-1,0.6c-0.2,0.1-0.5,0.1-0.8,0l-1-0.6c-0.1,0-0.1-0.1-0.1-0.1
			C108.6,144.4,108.7,144.5,108.8,144.6L108.8,144.6z M107.9,135.7l-0.1,0.1c-0.2,0.1-0.5,0.1-0.8,0l-1-0.6c0,0-0.1-0.1-0.1-0.1
			c-0.1,0.1,0,0.2,0.1,0.3l1,0.6c0.2,0.1,0.5,0.1,0.8,0l0.1-0.1c0.2-0.1,0.2-0.2,0.1-0.3C108,135.6,107.9,135.7,107.9,135.7
			L107.9,135.7z M110.1,136.9L110,137c-0.2,0.1-0.5,0.1-0.8,0l-1-0.6c0,0-0.1-0.1-0.1-0.1c-0.1,0.1,0,0.2,0.1,0.3l1,0.6
			c0.2,0.1,0.5,0.1,0.8,0l0.1-0.1c0.1-0.1,0.2-0.2,0.1-0.3C110.2,136.9,110.1,136.9,110.1,136.9L110.1,136.9z M112.3,138.2l-0.1,0.1
			c-0.2,0.1-0.5,0.1-0.8,0l-1-0.6c0,0-0.1-0.1-0.1-0.1c-0.1,0.1,0,0.2,0.1,0.3l1,0.6c0.2,0.1,0.5,0.1,0.8,0l0.1-0.1
			c0.1,0,0.2-0.2,0.1-0.3c0,0,0,0,0,0C112.4,138.1,112.3,138.2,112.3,138.2L112.3,138.2z M99.4,131.6l1,0.6c0.2,0.1,0.5,0.1,0.8,0
			l0.1-0.1c0.1,0,0.2-0.2,0.1-0.3c0,0,0,0,0,0c0,0.1-0.1,0.1-0.1,0.1l-0.1,0.1c-0.2,0.1-0.5,0.1-0.8,0l-1-0.6c0,0-0.1-0.1-0.1-0.1
			C99.2,131.4,99.3,131.5,99.4,131.6z M114.4,139.5l-0.1,0.1c-0.2,0.1-0.5,0.1-0.8,0l-1-0.6c0,0-0.1-0.1-0.1-0.1
			c-0.1,0.1,0,0.2,0.1,0.3l1,0.6c0.2,0.1,0.5,0.1,0.8,0l0.1-0.1c0.2-0.1,0.2-0.2,0.1-0.3C114.5,139.4,114.5,139.5,114.4,139.5z
			 M103.5,133.2l-0.1,0.1c-0.2,0.1-0.5,0.1-0.8,0l-1-0.6c0,0-0.1-0.1-0.1-0.1c-0.1,0.1,0,0.2,0.1,0.3l1,0.6c0.2,0.1,0.5,0.1,0.8,0
			l0.1-0.1c0.2-0.1,0.2-0.2,0.1-0.3C103.6,133.1,103.6,133.2,103.5,133.2z M105.7,134.4l-0.1,0.1c-0.2,0.1-0.5,0.1-0.8,0l-1-0.6
			c0,0-0.1-0.1-0.1-0.1c-0.1,0.1,0,0.2,0.1,0.3l1,0.6c0.2,0.1,0.5,0.1,0.8,0l0.1-0.1c0.2-0.1,0.2-0.2,0.1-0.3
			C105.8,134.4,105.7,134.4,105.7,134.4L105.7,134.4z M120.9,143.3l-0.1,0.1c-0.2,0.1-0.5,0.1-0.8,0l-1-0.6c0,0-0.1-0.1-0.1-0.1
			c-0.1,0.1,0,0.2,0.1,0.3l1,0.6c0.2,0.1,0.5,0.1,0.8,0l0.1-0.1c0.1-0.1,0.2-0.2,0.1-0.3C121,143.2,121,143.2,120.9,143.3z
			 M100.4,134.7l1,0.6c0.2,0.1,0.5,0.1,0.8,0l1-0.6c0.2-0.1,0.2-0.2,0.1-0.3c0,0-0.1,0.1-0.1,0.1l-1,0.6c-0.2,0.1-0.5,0.1-0.8,0
			l-1-0.6c-0.1,0-0.1-0.1-0.1-0.1C100.2,134.5,100.2,134.6,100.4,134.7z M97.6,137.7l1-0.6c0.2-0.1,0.2-0.2,0.1-0.3
			c0,0-0.1,0.1-0.1,0.1l-1,0.6c-0.2,0.1-0.5,0.1-0.8,0l-1-0.6c-0.1,0-0.1-0.1-0.1-0.1c-0.1,0.1,0,0.2,0.1,0.3l1,0.6
			C97,137.8,97.3,137.8,97.6,137.7L97.6,137.7z M105.4,135.7l-1,0.6c-0.2,0.1-0.5,0.1-0.8,0l-1-0.6c-0.1,0-0.1-0.1-0.1-0.1
			c-0.1,0.1,0,0.3,0.1,0.3l1,0.6c0.2,0.1,0.5,0.1,0.8,0l1-0.6c0.1-0.1,0.2-0.2,0.1-0.3C105.5,135.7,105.4,135.7,105.4,135.7
			L105.4,135.7z M107.6,137l-1,0.6c-0.2,0.1-0.5,0.1-0.8,0l-1-0.6c-0.1,0-0.1-0.1-0.1-0.1c-0.1,0.1,0,0.3,0.1,0.3l1,0.6
			c0.2,0.1,0.5,0.1,0.8,0l1-0.6c0.2-0.1,0.2-0.2,0.1-0.3C107.6,136.9,107.6,137,107.6,137L107.6,137z M115.5,146.4
			c0,0.1-0.1,0.1-0.1,0.1l-1,0.6c-0.2,0.1-0.5,0.1-0.8,0l-2.5-1.5c-0.1,0-0.1-0.1-0.1-0.1c-0.1,0.1,0,0.2,0.1,0.3l2.5,1.4
			c0.2,0.1,0.5,0.1,0.8,0l1-0.6C115.5,146.6,115.5,146.6,115.5,146.4L115.5,146.4z M118.8,142l-0.1,0.1c-0.2,0.1-0.5,0.1-0.8,0
			l-1-0.6c0,0-0.1-0.1-0.1-0.1c-0.1,0.1,0,0.2,0.1,0.3l1,0.6c0.2,0.1,0.5,0.1,0.8,0l0.1-0.1c0.2-0.1,0.2-0.2,0.1-0.3
			C118.9,141.9,118.8,142,118.8,142L118.8,142z M116.6,140.7l-0.1,0.1c-0.2,0.1-0.5,0.1-0.8,0l-1-0.6c0,0-0.1-0.1-0.1-0.1
			c-0.1,0.1,0,0.2,0.1,0.3l1,0.6c0.2,0.1,0.5,0.1,0.8,0l0.1-0.1c0.2-0.1,0.2-0.2,0.1-0.3C116.7,140.7,116.6,140.7,116.6,140.7
			L116.6,140.7z M120.8,144.5c0,0-0.1,0.1-0.1,0.1l-1,0.6c-0.2,0.1-0.5,0.1-0.8,0l-1-0.6c-0.1,0-0.1-0.1-0.1-0.1
			c-0.1,0.1,0,0.2,0.1,0.3l1,0.6c0.2,0.1,0.5,0.1,0.8,0l1-0.6C120.8,144.7,120.8,144.5,120.8,144.5L120.8,144.5z M107.4,144.3
			c0,0-0.1,0.1-0.1,0.1l-1,0.6c-0.2,0.1-0.5,0.1-0.8,0l-1-0.6c0,0-0.1-0.1-0.1-0.1c-0.1,0.1,0,0.2,0.1,0.3l1,0.6
			c0.2,0.1,0.5,0.1,0.8,0l1-0.6C107.4,144.5,107.5,144.4,107.4,144.3L107.4,144.3z M105.3,143c0,0-0.1,0.1-0.1,0.1l-1,0.6
			c-0.2,0.1-0.5,0.1-0.8,0l-7.6-4.4c0,0-0.1-0.1-0.1-0.1c-0.1,0.1,0,0.2,0.1,0.3l7.6,4.4c0.2,0.1,0.5,0.1,0.8,0l1-0.6
			C105.3,143.3,105.3,143.1,105.3,143L105.3,143z M111.1,146.4c0,0-0.1,0.1-0.1,0.1l-1,0.6c-0.2,0.1-0.5,0.1-0.8,0l-2.5-1.4
			c0,0-0.1-0.1-0.1-0.1c-0.1,0.1,0,0.2,0.1,0.3l2.5,1.4c0.2,0.1,0.5,0.1,0.8,0l1-0.6C111.1,146.6,111.2,146.6,111.1,146.4
			L111.1,146.4z M92.2,135.5c0,0.1-0.1,0.1-0.1,0.1l-1,0.6c-0.2,0.1-0.5,0.1-0.8,0l-1-0.6c-0.1,0-0.1-0.1-0.1-0.1
			c-0.1,0.1,0,0.2,0.1,0.3l1,0.6c0.2,0.1,0.5,0.1,0.8,0l1-0.6C92.2,135.7,92.2,135.6,92.2,135.5L92.2,135.5z M113.3,147.7
			c0,0-0.1,0.1-0.1,0.1l-1,0.6c-0.2,0.1-0.5,0.1-0.8,0l-1-0.6c0,0-0.1-0.1-0.1-0.1c-0.1,0.1,0,0.2,0.1,0.3l1,0.6
			c0.2,0.1,0.5,0.1,0.8,0l1-0.6C113.3,147.9,113.3,147.8,113.3,147.7L113.3,147.7z M94.4,136.8c0,0-0.1,0.1-0.1,0.1l-1,0.6
			c-0.2,0.1-0.5,0.1-0.8,0l-1-0.6c-0.1,0-0.1-0.1-0.1-0.1c-0.1,0.1,0,0.2,0.1,0.3l1,0.6c0.2,0.1,0.5,0.1,0.8,0l1-0.6
			C94.4,137,94.4,136.8,94.4,136.8L94.4,136.8z M90,134.2c0,0-0.1,0.1-0.1,0.1l-1,0.6c-0.2,0.1-0.5,0.1-0.8,0l-1.4-0.8
			c-0.1,0-0.1-0.1-0.1-0.1c-0.1,0.1,0,0.2,0.1,0.3l1.4,0.8c0.2,0.1,0.5,0.1,0.8,0l1-0.6C90,134.4,90.1,134.3,90,134.2L90,134.2z
			 M96.5,138c0,0-0.1,0.1-0.1,0.1l-1,0.6c-0.2,0.1-0.5,0.1-0.8,0l-1-0.6c0,0-0.1-0.1-0.1-0.1c-0.1,0.1,0,0.2,0.1,0.3l1,0.6
			c0.2,0.1,0.5,0.1,0.8,0l1-0.6C96.6,138.2,96.6,138.1,96.5,138L96.5,138z M124,146.6l-1,0.6c-0.2,0.1-0.5,0.1-0.8,0l-2.3-1.3
			c-0.1,0-0.1-0.1-0.1-0.1c-0.1,0.1,0,0.2,0.1,0.3l2.3,1.3c0.2,0.1,0.5,0.1,0.8,0l1-0.6c0.2-0.1,0.2-0.2,0.1-0.3
			C124.1,146.5,124.1,146.5,124,146.6z M121.8,147.8l-1,0.6c-0.2,0.1-0.5,0.1-0.8,0l-3.5-2c0,0-0.1-0.1-0.1-0.1
			c-0.1,0.1,0,0.3,0.1,0.3c0,0,0,0,0,0l3.5,2c0.2,0.1,0.5,0.1,0.8,0l1-0.6c0.2-0.1,0.2-0.2,0.1-0.3
			C121.9,147.7,121.9,147.8,121.8,147.8L121.8,147.8z M115.4,148.9c0,0-0.1,0.1-0.1,0.1l-1,0.6c-0.2,0.1-0.5,0.1-0.8,0l-1-0.6
			c0,0-0.1-0.1-0.1-0.1c-0.1,0.1,0,0.2,0.1,0.3l1,0.6c0.2,0.1,0.5,0.1,0.8,0l1-0.6C115.5,149.2,115.5,149,115.4,148.9L115.4,148.9z
			 M125.3,145.8l-0.1,0.1c-0.2,0.1-0.5,0.1-0.8,0l-1-0.6c0,0-0.1-0.1-0.1-0.1c-0.1,0.1,0,0.2,0.1,0.3l1,0.6c0.2,0.1,0.5,0.1,0.8,0
			l0.1-0.1c0.2-0.1,0.2-0.2,0.1-0.3C125.4,145.7,125.3,145.8,125.3,145.8L125.3,145.8z M117.5,150.3l-1,0.6c-0.2,0.1-0.5,0.1-0.8,0
			l-1-0.6c0,0-0.1-0.1-0.1-0.1c-0.1,0.1,0,0.2,0.1,0.3l1,0.6c0.2,0.1,0.5,0.1,0.8,0l1-0.6c0.2-0.1,0.2-0.2,0.1-0.3
			C117.6,150.2,117.5,150.3,117.5,150.3z M119.7,149l-1,0.6c-0.2,0.1-0.5,0.1-0.8,0l-1-0.6c-0.1,0-0.1-0.1-0.1-0.1
			c-0.1,0.1,0,0.2,0.1,0.3l1,0.6c0.2,0.1,0.5,0.1,0.8,0l1-0.6c0.2-0.1,0.2-0.2,0.1-0.3C119.8,149,119.7,149,119.7,149z M118.5,143.2
			c0,0-0.1,0.1-0.1,0.1l-1,0.6c-0.2,0.1-0.5,0.1-0.8,0l-1-0.6c-0.1,0-0.1-0.1-0.1-0.1c-0.1,0.1,0,0.2,0.1,0.3l1,0.6
			c0.2,0.1,0.5,0.1,0.8,0l1-0.6C118.6,143.4,118.6,143.3,118.5,143.2z M93.5,135.8l1,0.6c0.2,0.1,0.5,0.1,0.8,0l1-0.6
			c0.2-0.1,0.2-0.2,0.1-0.3c0,0-0.1,0.1-0.1,0.1l-1,0.6c-0.2,0.1-0.5,0.1-0.8,0l-1-0.6c-0.1,0-0.1-0.1-0.1-0.1
			C93.4,135.6,93.4,135.7,93.5,135.8L93.5,135.8z M96.9,135.3l1,0.6c0.2,0.1,0.5,0.1,0.8,0l1-0.6c0.1-0.1,0.2-0.2,0.1-0.3
			c0,0-0.1,0.1-0.1,0.1l-1,0.6c-0.2,0.1-0.5,0.1-0.8,0l-1-0.6c0,0-0.1-0.1-0.1-0.1C96.8,135,96.8,135.2,96.9,135.3L96.9,135.3z
			 M94.8,134l1,0.6c0.2,0.1,0.5,0.1,0.8,0l1-0.6c0.2-0.1,0.2-0.2,0.1-0.3c0,0-0.1,0.1-0.1,0.1l-1,0.6c-0.2,0.1-0.5,0.1-0.8,0l-1-0.6
			c-0.1,0-0.1-0.1-0.1-0.1C94.6,133.8,94.6,133.9,94.8,134L94.8,134z M96,132.2l1,0.6c0.2,0.1,0.5,0.1,0.8,0l1-0.6
			c0.2-0.1,0.2-0.2,0.1-0.3c0,0-0.1,0.1-0.1,0.1l-1,0.6c-0.2,0.1-0.5,0.1-0.8,0l-1-0.6c0,0-0.1-0.1-0.1-0.1
			C95.8,132,95.9,132.1,96,132.2L96,132.2z M115.2,143.8c0,0-0.1,0.1-0.1,0.1l-1,0.6c-0.2,0.1-0.5,0.1-0.8,0l-1-0.6
			c0,0-0.1-0.1-0.1-0.1c-0.1,0.1,0,0.2,0.1,0.3l1,0.6c0.2,0.1,0.5,0.1,0.8,0l1-0.6C115.2,144,115.2,143.8,115.2,143.8z M106.3,142.7
			l1-0.6c0.2-0.1,0.2-0.2,0.1-0.3c0,0.1-0.1,0.1-0.1,0.1l-1,0.6c-0.2,0.1-0.5,0.1-0.8,0l-1-0.6c0,0-0.1-0.1-0.1-0.1
			c-0.1,0.1,0,0.2,0.1,0.3l1,0.6C105.7,142.8,106,142.8,106.3,142.7L106.3,142.7z M108.4,144l1-0.6c0.2-0.1,0.2-0.2,0.1-0.3
			c0,0-0.1,0.1-0.1,0.1l-1,0.6c-0.2,0.1-0.5,0.1-0.8,0l-1-0.6c-0.1,0-0.1-0.1-0.1-0.1c-0.1,0.1,0,0.2,0.1,0.3l1,0.6
			C107.9,144.1,108.2,144.1,108.4,144L108.4,144z M88.9,133.1l3.6,2c0.2,0.1,0.5,0.1,0.8,0l1-0.6c0.1-0.1,0.2-0.2,0.1-0.3
			c0,0-0.1,0.1-0.1,0.1l-1,0.6c-0.2,0.1-0.5,0.1-0.8,0l-3.6-2.1c-0.1,0-0.1-0.1-0.1-0.1C88.6,132.8,88.7,133,88.9,133.1L88.9,133.1z
			 M93.2,130.6l1.7,0.9c0.2,0.1,0.5,0.1,0.8,0l1-0.6c0.2-0.1,0.2-0.2,0.1-0.3c0,0-0.1,0.1-0.1,0.1l-1,0.6c-0.2,0.1-0.5,0.1-0.8,0
			l-1.7-0.9c0,0-0.1-0.1-0.1-0.1C93,130.3,93,130.5,93.2,130.6L93.2,130.6z M95.4,129.3l2.9,1.7c0.2,0.1,0.5,0.1,0.8,0l0.1-0.1
			c0.1-0.1,0.2-0.2,0.1-0.3c0,0-0.1,0.1-0.1,0.1l-0.1,0.1c-0.2,0.1-0.5,0.1-0.8,0l-2.9-1.7c0,0-0.1-0.1-0.1-0.1
			C95.2,129.1,95.2,129.2,95.4,129.3L95.4,129.3z M117.6,147.7c0,0-0.1,0.1-0.1,0.1l-1,0.6c-0.2,0.1-0.5,0.1-0.8,0l-1-0.6
			c-0.1,0-0.1-0.1-0.1-0.1c-0.1,0.1,0,0.2,0.1,0.3l1,0.6c0.2,0.1,0.5,0.1,0.8,0l1-0.6C117.6,147.9,117.7,147.8,117.6,147.7z
			 M91,131.8l2.6,1.5c0.2,0.1,0.5,0.1,0.8,0l1-0.6c0.2-0.1,0.2-0.2,0.1-0.3c0,0-0.1,0.1-0.1,0.1l-1,0.6c-0.2,0.1-0.5,0.1-0.8,0
			l-2.6-1.5c0,0-0.1-0.1-0.1-0.1C90.8,131.6,90.9,131.7,91,131.8L91,131.8z M123.2,144.4c0,0-0.1,0.1-0.1,0.1l-0.1,0.1
			c-0.2,0.1-0.5,0.1-0.8,0l-1-0.6c0,0-0.1-0.1-0.1-0.1c-0.1,0.1,0,0.2,0.1,0.3l1,0.6c0.2,0.1,0.5,0.1,0.8,0l0.1-0.1
			C123.3,144.7,123.3,144.5,123.2,144.4L123.2,144.4z M117.3,145c0,0-0.1,0.1-0.1,0.1l-1,0.6c-0.2,0.1-0.5,0.1-0.8,0l-1-0.6
			c0,0-0.1-0.1-0.1-0.1c-0.1,0.1,0,0.2,0.1,0.3l1,0.6c0.2,0.1,0.5,0.1,0.8,0l1-0.6C117.4,145.2,117.4,145.1,117.3,145L117.3,145z"/>
		<path d="M109.8,138.2c0.1,0.1,0,0.2-0.1,0.3l-1,0.6c-0.2,0.1-0.5,0.1-0.8,0l-1-0.6c-0.2-0.1-0.2-0.2-0.1-0.3c0,0,0.1,0.1,0.1,0.1
			l1,0.6c0.2,0.1,0.5,0.1,0.8,0l1-0.6C109.8,138.2,109.8,138.2,109.8,138.2z M98.2,133.5l1,0.6c0.2,0.1,0.5,0.1,0.8,0l1-0.6
			c0.2-0.1,0.2-0.2,0.1-0.3c0,0-0.1,0.1-0.1,0.1l-1,0.6c-0.2,0.1-0.5,0.1-0.8,0l-1-0.6c-0.1,0-0.1-0.1-0.1-0.1
			C98,133.2,98,133.4,98.2,133.5L98.2,133.5z M101.3,137.8l1,0.6c0.2,0.1,0.5,0.1,0.8,0l1-0.6c0.2-0.1,0.2-0.2,0.1-0.3
			c0,0-0.1,0.1-0.1,0.1l-1,0.6c-0.2,0.1-0.5,0.1-0.8,0l-1-0.6c0,0-0.1-0.1-0.1-0.1C101.1,137.6,101.2,137.7,101.3,137.8L101.3,137.8
			z M108.5,140.4c0.2-0.1,0.2-0.2,0.1-0.3c0,0-0.1,0.1-0.1,0.1l-1,0.6c-0.2,0.1-0.5,0.1-0.8,0l-1-0.6c0,0-0.1-0.1-0.1-0.1
			c-0.1,0.1,0,0.2,0.1,0.3l1,0.6c0.2,0.1,0.5,0.1,0.8,0L108.5,140.4z M110.7,141.6c0.2-0.1,0.2-0.2,0.1-0.3c0,0-0.1,0.1-0.1,0.1
			l-1,0.6c-0.2,0.1-0.5,0.1-0.8,0l-1-0.6c0,0-0.1-0.1-0.1-0.1c-0.1,0.1,0,0.2,0.1,0.3l1,0.6c0.2,0.1,0.5,0.1,0.8,0L110.7,141.6z
			 M111.9,139.6l-1,0.6c-0.2,0.1-0.5,0.1-0.8,0l-1-0.6c-0.1,0-0.1-0.1-0.1-0.1c-0.1,0.1,0,0.2,0.1,0.3l1,0.6c0.2,0.1,0.5,0.1,0.8,0
			l1-0.6c0.2-0.1,0.2-0.2,0.1-0.3C112,139.5,111.9,139.5,111.9,139.6L111.9,139.6z M114.1,140.8l-1,0.6c-0.2,0.1-0.5,0.1-0.8,0
			l-1-0.6c0,0-0.1-0.1-0.1-0.1c-0.1,0.1,0,0.3,0.1,0.3l1,0.6c0.2,0.1,0.5,0.1,0.8,0l1-0.6c0.2-0.1,0.2-0.2,0.1-0.3
			C114.2,140.7,114.1,140.8,114.1,140.8L114.1,140.8z M106.3,139.1c0.2-0.1,0.2-0.2,0.1-0.3c0,0-0.1,0.1-0.1,0.1l-1,0.6
			c-0.2,0.1-0.5,0.1-0.8,0l-1-0.6c0,0-0.1-0.1-0.1-0.1c-0.1,0.1,0,0.2,0.1,0.3l1,0.6c0.2,0.1,0.5,0.1,0.8,0L106.3,139.1z
			 M99.2,136.6l1,0.6c0.2,0.1,0.5,0.1,0.8,0l1-0.6c0.1-0.1,0.2-0.2,0.1-0.3c0,0-0.1,0.1-0.1,0.1l-1,0.6c-0.2,0.1-0.5,0.1-0.8,0
			l-1-0.6c0,0-0.1-0.1-0.1-0.1C99,136.3,99,136.4,99.2,136.6L99.2,136.6z M116.4,141.9c0,0-0.1,0.1-0.1,0.1l-1,0.6
			c-0.2,0.1-0.5,0.1-0.8,0l-1-0.6c-0.1,0-0.1-0.1-0.1-0.1c-0.1,0.1,0,0.2,0.1,0.3l1,0.6c0.2,0.1,0.5,0.1,0.8,0l1-0.6
			C116.4,142.2,116.5,142,116.4,141.9z M102.3,140.8l1,0.6c0.2,0.1,0.5,0.1,0.8,0l1-0.6c0.1-0.1,0.2-0.2,0.1-0.3
			c0,0-0.1,0.1-0.1,0.1l-1,0.6c-0.2,0.1-0.5,0.1-0.8,0l-1-0.6c-0.1,0-0.1-0.1-0.1-0.1C102.1,140.6,102.1,140.7,102.3,140.8
			L102.3,140.8z M113,142.4c0,0-0.1,0.1-0.1,0.1l-1,0.6c-0.2,0.1-0.5,0.1-0.8,0l-1-0.6c0,0-0.1-0.1-0.1-0.1c-0.1,0.1,0,0.2,0.1,0.3
			l1,0.6c0.2,0.1,0.5,0.1,0.8,0l1-0.6C113,142.7,113.1,142.6,113,142.4L113,142.4z M100.1,139.6l1,0.6c0.2,0.1,0.5,0.1,0.8,0l1-0.6
			c0.2-0.1,0.2-0.2,0.1-0.3c0,0-0.1,0.1-0.1,0.1l-1,0.6c-0.2,0.1-0.5,0.1-0.8,0l-1-0.6c-0.1,0-0.1-0.1-0.1-0.1
			C99.9,139.4,100,139.5,100.1,139.6L100.1,139.6z M97.9,138.3l1,0.6c0.2,0.1,0.5,0.1,0.8,0l1-0.6c0.2-0.1,0.2-0.2,0.1-0.3
			c0,0-0.1,0.1-0.1,0.1l-1,0.6c-0.2,0.1-0.5,0.1-0.8,0l-1-0.6c-0.1,0-0.1-0.1-0.1-0.1C97.7,138.1,97.8,138.2,97.9,138.3L97.9,138.3z
			 M108.8,144.6l1,0.6c0.2,0.1,0.5,0.1,0.8,0l1-0.6c0.2-0.1,0.2-0.2,0.1-0.3c0,0-0.1,0.1-0.1,0.1l-1,0.6c-0.2,0.1-0.5,0.1-0.8,0
			l-1-0.6c-0.1,0-0.1-0.1-0.1-0.1C108.6,144.4,108.7,144.5,108.8,144.6L108.8,144.6z M107.9,135.7l-0.1,0.1c-0.2,0.1-0.5,0.1-0.8,0
			l-1-0.6c0,0-0.1-0.1-0.1-0.1c-0.1,0.1,0,0.2,0.1,0.3l1,0.6c0.2,0.1,0.5,0.1,0.8,0l0.1-0.1c0.2-0.1,0.2-0.2,0.1-0.3
			C108,135.6,107.9,135.7,107.9,135.7L107.9,135.7z M110.1,136.9L110,137c-0.2,0.1-0.5,0.1-0.8,0l-1-0.6c0,0-0.1-0.1-0.1-0.1
			c-0.1,0.1,0,0.2,0.1,0.3l1,0.6c0.2,0.1,0.5,0.1,0.8,0l0.1-0.1c0.1-0.1,0.2-0.2,0.1-0.3C110.2,136.9,110.1,136.9,110.1,136.9
			L110.1,136.9z M112.3,138.2l-0.1,0.1c-0.2,0.1-0.5,0.1-0.8,0l-1-0.6c0,0-0.1-0.1-0.1-0.1c-0.1,0.1,0,0.2,0.1,0.3l1,0.6
			c0.2,0.1,0.5,0.1,0.8,0l0.1-0.1c0.1,0,0.2-0.2,0.1-0.3c0,0,0,0,0,0C112.4,138.1,112.3,138.2,112.3,138.2L112.3,138.2z M99.4,131.6
			l1,0.6c0.2,0.1,0.5,0.1,0.8,0l0.1-0.1c0.1,0,0.2-0.2,0.1-0.3c0,0,0,0,0,0c0,0.1-0.1,0.1-0.1,0.1l-0.1,0.1c-0.2,0.1-0.5,0.1-0.8,0
			l-1-0.6c0,0-0.1-0.1-0.1-0.1C99.2,131.4,99.3,131.5,99.4,131.6z M114.4,139.5l-0.1,0.1c-0.2,0.1-0.5,0.1-0.8,0l-1-0.6
			c0,0-0.1-0.1-0.1-0.1c-0.1,0.1,0,0.2,0.1,0.3l1,0.6c0.2,0.1,0.5,0.1,0.8,0l0.1-0.1c0.2-0.1,0.2-0.2,0.1-0.3
			C114.5,139.4,114.5,139.5,114.4,139.5z M103.5,133.2l-0.1,0.1c-0.2,0.1-0.5,0.1-0.8,0l-1-0.6c0,0-0.1-0.1-0.1-0.1
			c-0.1,0.1,0,0.2,0.1,0.3l1,0.6c0.2,0.1,0.5,0.1,0.8,0l0.1-0.1c0.2-0.1,0.2-0.2,0.1-0.3C103.6,133.1,103.6,133.2,103.5,133.2z
			 M105.7,134.4l-0.1,0.1c-0.2,0.1-0.5,0.1-0.8,0l-1-0.6c0,0-0.1-0.1-0.1-0.1c-0.1,0.1,0,0.2,0.1,0.3l1,0.6c0.2,0.1,0.5,0.1,0.8,0
			l0.1-0.1c0.2-0.1,0.2-0.2,0.1-0.3C105.8,134.4,105.7,134.4,105.7,134.4L105.7,134.4z M120.9,143.3l-0.1,0.1
			c-0.2,0.1-0.5,0.1-0.8,0l-1-0.6c0,0-0.1-0.1-0.1-0.1c-0.1,0.1,0,0.2,0.1,0.3l1,0.6c0.2,0.1,0.5,0.1,0.8,0l0.1-0.1
			c0.1-0.1,0.2-0.2,0.1-0.3C121,143.2,121,143.2,120.9,143.3z M100.4,134.7l1,0.6c0.2,0.1,0.5,0.1,0.8,0l1-0.6
			c0.2-0.1,0.2-0.2,0.1-0.3c0,0-0.1,0.1-0.1,0.1l-1,0.6c-0.2,0.1-0.5,0.1-0.8,0l-1-0.6c-0.1,0-0.1-0.1-0.1-0.1
			C100.2,134.5,100.2,134.6,100.4,134.7z M97.6,137.7l1-0.6c0.2-0.1,0.2-0.2,0.1-0.3c0,0-0.1,0.1-0.1,0.1l-1,0.6
			c-0.2,0.1-0.5,0.1-0.8,0l-1-0.6c-0.1,0-0.1-0.1-0.1-0.1c-0.1,0.1,0,0.2,0.1,0.3l1,0.6C97,137.8,97.3,137.8,97.6,137.7L97.6,137.7z
			 M105.4,135.7l-1,0.6c-0.2,0.1-0.5,0.1-0.8,0l-1-0.6c-0.1,0-0.1-0.1-0.1-0.1c-0.1,0.1,0,0.3,0.1,0.3l1,0.6c0.2,0.1,0.5,0.1,0.8,0
			l1-0.6c0.1-0.1,0.2-0.2,0.1-0.3C105.5,135.7,105.4,135.7,105.4,135.7L105.4,135.7z M107.6,137l-1,0.6c-0.2,0.1-0.5,0.1-0.8,0
			l-1-0.6c-0.1,0-0.1-0.1-0.1-0.1c-0.1,0.1,0,0.3,0.1,0.3l1,0.6c0.2,0.1,0.5,0.1,0.8,0l1-0.6c0.2-0.1,0.2-0.2,0.1-0.3
			C107.6,136.9,107.6,137,107.6,137L107.6,137z M115.5,146.4c0,0.1-0.1,0.1-0.1,0.1l-1,0.6c-0.2,0.1-0.5,0.1-0.8,0l-2.5-1.5
			c-0.1,0-0.1-0.1-0.1-0.1c-0.1,0.1,0,0.2,0.1,0.3l2.5,1.4c0.2,0.1,0.5,0.1,0.8,0l1-0.6C115.5,146.6,115.5,146.6,115.5,146.4
			L115.5,146.4z M118.8,142l-0.1,0.1c-0.2,0.1-0.5,0.1-0.8,0l-1-0.6c0,0-0.1-0.1-0.1-0.1c-0.1,0.1,0,0.2,0.1,0.3l1,0.6
			c0.2,0.1,0.5,0.1,0.8,0l0.1-0.1c0.2-0.1,0.2-0.2,0.1-0.3C118.9,141.9,118.8,142,118.8,142L118.8,142z M116.6,140.7l-0.1,0.1
			c-0.2,0.1-0.5,0.1-0.8,0l-1-0.6c0,0-0.1-0.1-0.1-0.1c-0.1,0.1,0,0.2,0.1,0.3l1,0.6c0.2,0.1,0.5,0.1,0.8,0l0.1-0.1
			c0.2-0.1,0.2-0.2,0.1-0.3C116.7,140.7,116.6,140.7,116.6,140.7L116.6,140.7z M120.8,144.5c0,0-0.1,0.1-0.1,0.1l-1,0.6
			c-0.2,0.1-0.5,0.1-0.8,0l-1-0.6c-0.1,0-0.1-0.1-0.1-0.1c-0.1,0.1,0,0.2,0.1,0.3l1,0.6c0.2,0.1,0.5,0.1,0.8,0l1-0.6
			C120.8,144.7,120.8,144.5,120.8,144.5L120.8,144.5z M107.4,144.3c0,0-0.1,0.1-0.1,0.1l-1,0.6c-0.2,0.1-0.5,0.1-0.8,0l-1-0.6
			c0,0-0.1-0.1-0.1-0.1c-0.1,0.1,0,0.2,0.1,0.3l1,0.6c0.2,0.1,0.5,0.1,0.8,0l1-0.6C107.4,144.5,107.5,144.4,107.4,144.3L107.4,144.3
			z M105.3,143c0,0-0.1,0.1-0.1,0.1l-1,0.6c-0.2,0.1-0.5,0.1-0.8,0l-7.6-4.4c0,0-0.1-0.1-0.1-0.1c-0.1,0.1,0,0.2,0.1,0.3l7.6,4.4
			c0.2,0.1,0.5,0.1,0.8,0l1-0.6C105.3,143.3,105.3,143.1,105.3,143L105.3,143z M111.1,146.4c0,0-0.1,0.1-0.1,0.1l-1,0.6
			c-0.2,0.1-0.5,0.1-0.8,0l-2.5-1.4c0,0-0.1-0.1-0.1-0.1c-0.1,0.1,0,0.2,0.1,0.3l2.5,1.4c0.2,0.1,0.5,0.1,0.8,0l1-0.6
			C111.1,146.6,111.2,146.6,111.1,146.4L111.1,146.4z M92.2,135.5c0,0.1-0.1,0.1-0.1,0.1l-1,0.6c-0.2,0.1-0.5,0.1-0.8,0l-1-0.6
			c-0.1,0-0.1-0.1-0.1-0.1c-0.1,0.1,0,0.2,0.1,0.3l1,0.6c0.2,0.1,0.5,0.1,0.8,0l1-0.6C92.2,135.7,92.2,135.6,92.2,135.5L92.2,135.5z
			 M113.3,147.7c0,0-0.1,0.1-0.1,0.1l-1,0.6c-0.2,0.1-0.5,0.1-0.8,0l-1-0.6c0,0-0.1-0.1-0.1-0.1c-0.1,0.1,0,0.2,0.1,0.3l1,0.6
			c0.2,0.1,0.5,0.1,0.8,0l1-0.6C113.3,147.9,113.3,147.8,113.3,147.7L113.3,147.7z M94.4,136.8c0,0-0.1,0.1-0.1,0.1l-1,0.6
			c-0.2,0.1-0.5,0.1-0.8,0l-1-0.6c-0.1,0-0.1-0.1-0.1-0.1c-0.1,0.1,0,0.2,0.1,0.3l1,0.6c0.2,0.1,0.5,0.1,0.8,0l1-0.6
			C94.4,137,94.4,136.8,94.4,136.8L94.4,136.8z M90,134.2c0,0-0.1,0.1-0.1,0.1l-1,0.6c-0.2,0.1-0.5,0.1-0.8,0l-1.4-0.8
			c-0.1,0-0.1-0.1-0.1-0.1c-0.1,0.1,0,0.2,0.1,0.3l1.4,0.8c0.2,0.1,0.5,0.1,0.8,0l1-0.6C90,134.4,90.1,134.3,90,134.2L90,134.2z
			 M96.5,138c0,0-0.1,0.1-0.1,0.1l-1,0.6c-0.2,0.1-0.5,0.1-0.8,0l-1-0.6c0,0-0.1-0.1-0.1-0.1c-0.1,0.1,0,0.2,0.1,0.3l1,0.6
			c0.2,0.1,0.5,0.1,0.8,0l1-0.6C96.6,138.2,96.6,138.1,96.5,138L96.5,138z M124,146.6l-1,0.6c-0.2,0.1-0.5,0.1-0.8,0l-2.3-1.3
			c-0.1,0-0.1-0.1-0.1-0.1c-0.1,0.1,0,0.2,0.1,0.3l2.3,1.3c0.2,0.1,0.5,0.1,0.8,0l1-0.6c0.2-0.1,0.2-0.2,0.1-0.3
			C124.1,146.5,124.1,146.5,124,146.6z M121.8,147.8l-1,0.6c-0.2,0.1-0.5,0.1-0.8,0l-3.5-2c0,0-0.1-0.1-0.1-0.1
			c-0.1,0.1,0,0.3,0.1,0.3c0,0,0,0,0,0l3.5,2c0.2,0.1,0.5,0.1,0.8,0l1-0.6c0.2-0.1,0.2-0.2,0.1-0.3
			C121.9,147.7,121.9,147.8,121.8,147.8L121.8,147.8z M115.4,148.9c0,0-0.1,0.1-0.1,0.1l-1,0.6c-0.2,0.1-0.5,0.1-0.8,0l-1-0.6
			c0,0-0.1-0.1-0.1-0.1c-0.1,0.1,0,0.2,0.1,0.3l1,0.6c0.2,0.1,0.5,0.1,0.8,0l1-0.6C115.5,149.2,115.5,149,115.4,148.9L115.4,148.9z
			 M125.3,145.8l-0.1,0.1c-0.2,0.1-0.5,0.1-0.8,0l-1-0.6c0,0-0.1-0.1-0.1-0.1c-0.1,0.1,0,0.2,0.1,0.3l1,0.6c0.2,0.1,0.5,0.1,0.8,0
			l0.1-0.1c0.2-0.1,0.2-0.2,0.1-0.3C125.4,145.7,125.3,145.8,125.3,145.8L125.3,145.8z M117.5,150.3l-1,0.6c-0.2,0.1-0.5,0.1-0.8,0
			l-1-0.6c0,0-0.1-0.1-0.1-0.1c-0.1,0.1,0,0.2,0.1,0.3l1,0.6c0.2,0.1,0.5,0.1,0.8,0l1-0.6c0.2-0.1,0.2-0.2,0.1-0.3
			C117.6,150.2,117.5,150.3,117.5,150.3z M119.7,149l-1,0.6c-0.2,0.1-0.5,0.1-0.8,0l-1-0.6c-0.1,0-0.1-0.1-0.1-0.1
			c-0.1,0.1,0,0.2,0.1,0.3l1,0.6c0.2,0.1,0.5,0.1,0.8,0l1-0.6c0.2-0.1,0.2-0.2,0.1-0.3C119.8,149,119.7,149,119.7,149z M118.5,143.2
			c0,0-0.1,0.1-0.1,0.1l-1,0.6c-0.2,0.1-0.5,0.1-0.8,0l-1-0.6c-0.1,0-0.1-0.1-0.1-0.1c-0.1,0.1,0,0.2,0.1,0.3l1,0.6
			c0.2,0.1,0.5,0.1,0.8,0l1-0.6C118.6,143.4,118.6,143.3,118.5,143.2z M93.5,135.8l1,0.6c0.2,0.1,0.5,0.1,0.8,0l1-0.6
			c0.2-0.1,0.2-0.2,0.1-0.3c0,0-0.1,0.1-0.1,0.1l-1,0.6c-0.2,0.1-0.5,0.1-0.8,0l-1-0.6c-0.1,0-0.1-0.1-0.1-0.1
			C93.4,135.6,93.4,135.7,93.5,135.8L93.5,135.8z M96.9,135.3l1,0.6c0.2,0.1,0.5,0.1,0.8,0l1-0.6c0.1-0.1,0.2-0.2,0.1-0.3
			c0,0-0.1,0.1-0.1,0.1l-1,0.6c-0.2,0.1-0.5,0.1-0.8,0l-1-0.6c0,0-0.1-0.1-0.1-0.1C96.8,135,96.8,135.2,96.9,135.3L96.9,135.3z
			 M94.8,134l1,0.6c0.2,0.1,0.5,0.1,0.8,0l1-0.6c0.2-0.1,0.2-0.2,0.1-0.3c0,0-0.1,0.1-0.1,0.1l-1,0.6c-0.2,0.1-0.5,0.1-0.8,0l-1-0.6
			c-0.1,0-0.1-0.1-0.1-0.1C94.6,133.8,94.6,133.9,94.8,134L94.8,134z M96,132.2l1,0.6c0.2,0.1,0.5,0.1,0.8,0l1-0.6
			c0.2-0.1,0.2-0.2,0.1-0.3c0,0-0.1,0.1-0.1,0.1l-1,0.6c-0.2,0.1-0.5,0.1-0.8,0l-1-0.6c0,0-0.1-0.1-0.1-0.1
			C95.8,132,95.9,132.1,96,132.2L96,132.2z M115.2,143.8c0,0-0.1,0.1-0.1,0.1l-1,0.6c-0.2,0.1-0.5,0.1-0.8,0l-1-0.6
			c0,0-0.1-0.1-0.1-0.1c-0.1,0.1,0,0.2,0.1,0.3l1,0.6c0.2,0.1,0.5,0.1,0.8,0l1-0.6C115.2,144,115.2,143.8,115.2,143.8z M106.3,142.7
			l1-0.6c0.2-0.1,0.2-0.2,0.1-0.3c0,0.1-0.1,0.1-0.1,0.1l-1,0.6c-0.2,0.1-0.5,0.1-0.8,0l-1-0.6c0,0-0.1-0.1-0.1-0.1
			c-0.1,0.1,0,0.2,0.1,0.3l1,0.6C105.7,142.8,106,142.8,106.3,142.7L106.3,142.7z M108.4,144l1-0.6c0.2-0.1,0.2-0.2,0.1-0.3
			c0,0-0.1,0.1-0.1,0.1l-1,0.6c-0.2,0.1-0.5,0.1-0.8,0l-1-0.6c-0.1,0-0.1-0.1-0.1-0.1c-0.1,0.1,0,0.2,0.1,0.3l1,0.6
			C107.9,144.1,108.2,144.1,108.4,144L108.4,144z M88.9,133.1l3.6,2c0.2,0.1,0.5,0.1,0.8,0l1-0.6c0.1-0.1,0.2-0.2,0.1-0.3
			c0,0-0.1,0.1-0.1,0.1l-1,0.6c-0.2,0.1-0.5,0.1-0.8,0l-3.6-2.1c-0.1,0-0.1-0.1-0.1-0.1C88.6,132.8,88.7,133,88.9,133.1L88.9,133.1z
			 M93.2,130.6l1.7,0.9c0.2,0.1,0.5,0.1,0.8,0l1-0.6c0.2-0.1,0.2-0.2,0.1-0.3c0,0-0.1,0.1-0.1,0.1l-1,0.6c-0.2,0.1-0.5,0.1-0.8,0
			l-1.7-0.9c0,0-0.1-0.1-0.1-0.1C93,130.3,93,130.5,93.2,130.6L93.2,130.6z M95.4,129.3l2.9,1.7c0.2,0.1,0.5,0.1,0.8,0l0.1-0.1
			c0.1-0.1,0.2-0.2,0.1-0.3c0,0-0.1,0.1-0.1,0.1l-0.1,0.1c-0.2,0.1-0.5,0.1-0.8,0l-2.9-1.7c0,0-0.1-0.1-0.1-0.1
			C95.2,129.1,95.2,129.2,95.4,129.3L95.4,129.3z M117.6,147.7c0,0-0.1,0.1-0.1,0.1l-1,0.6c-0.2,0.1-0.5,0.1-0.8,0l-1-0.6
			c-0.1,0-0.1-0.1-0.1-0.1c-0.1,0.1,0,0.2,0.1,0.3l1,0.6c0.2,0.1,0.5,0.1,0.8,0l1-0.6C117.6,147.9,117.7,147.8,117.6,147.7z
			 M91,131.8l2.6,1.5c0.2,0.1,0.5,0.1,0.8,0l1-0.6c0.2-0.1,0.2-0.2,0.1-0.3c0,0-0.1,0.1-0.1,0.1l-1,0.6c-0.2,0.1-0.5,0.1-0.8,0
			l-2.6-1.5c0,0-0.1-0.1-0.1-0.1C90.8,131.6,90.9,131.7,91,131.8L91,131.8z M123.2,144.4c0,0-0.1,0.1-0.1,0.1l-0.1,0.1
			c-0.2,0.1-0.5,0.1-0.8,0l-1-0.6c0,0-0.1-0.1-0.1-0.1c-0.1,0.1,0,0.2,0.1,0.3l1,0.6c0.2,0.1,0.5,0.1,0.8,0l0.1-0.1
			C123.3,144.7,123.3,144.5,123.2,144.4L123.2,144.4z M117.3,145c0,0-0.1,0.1-0.1,0.1l-1,0.6c-0.2,0.1-0.5,0.1-0.8,0l-1-0.6
			c0,0-0.1-0.1-0.1-0.1c-0.1,0.1,0,0.2,0.1,0.3l1,0.6c0.2,0.1,0.5,0.1,0.8,0l1-0.6C117.4,145.2,117.4,145.1,117.3,145L117.3,145z"/>
		<path class="st12" d="M88.8,134.9c-0.2,0.1-0.5,0.1-0.8,0l-1.4-0.8c-0.2-0.1-0.2-0.3,0-0.4l1-0.6c0.2-0.1,0.5-0.1,0.8,0l1.4,0.8
			c0.2,0.1,0.2,0.3,0,0.4L88.8,134.9z M94.2,134.3c0.2-0.1,0.2-0.3,0-0.4l-3.6-2.1c-0.2-0.1-0.5-0.1-0.8,0l-1,0.6
			c-0.2,0.1-0.2,0.3,0,0.4l3.6,2.1c0.2,0.1,0.5,0.1,0.8,0L94.2,134.3z M92,135.6c0.2-0.1,0.2-0.3,0-0.4l-1-0.6
			c-0.2-0.1-0.5-0.1-0.8,0l-1,0.6c-0.1,0-0.2,0.2-0.2,0.3c0,0.1,0.1,0.1,0.2,0.2l1,0.6c0.2,0.1,0.5,0.1,0.8,0L92,135.6z M94.2,136.8
			c0.2-0.1,0.2-0.3,0-0.4l-1-0.6c-0.2-0.1-0.5-0.1-0.8,0l-1,0.6c-0.2,0.1-0.2,0.3,0,0.4l1,0.6c0.2,0.1,0.5,0.1,0.8,0L94.2,136.8z
			 M96.4,138.1c0.2-0.1,0.2-0.3,0-0.4l-1-0.6c-0.2-0.1-0.5-0.1-0.8,0l-1,0.6c-0.2,0.1-0.2,0.3,0,0.4l1,0.6c0.2,0.1,0.5,0.1,0.8,0
			L96.4,138.1z M111,146.5c0.1,0,0.2-0.2,0.2-0.3c0-0.1-0.1-0.1-0.2-0.2l-2.5-1.4c-0.2-0.1-0.5-0.1-0.8,0l-1,0.6
			c-0.1,0-0.2,0.2-0.2,0.3c0,0.1,0.1,0.1,0.2,0.2l2.5,1.4c0.2,0.1,0.5,0.1,0.8,0L111,146.5z M115.3,146.5c0.2-0.1,0.2-0.3,0-0.4
			l-2.5-1.5c-0.2-0.1-0.5-0.1-0.8,0l-1,0.6c-0.2,0.1-0.2,0.3,0,0.4l2.5,1.5c0.2,0.1,0.5,0.1,0.8,0L115.3,146.5z M107.3,144.4
			c0.2-0.1,0.2-0.3,0-0.4l-1-0.6c-0.2-0.1-0.5-0.1-0.8,0l-1,0.6c-0.1,0.1-0.2,0.2-0.1,0.3c0,0.1,0.1,0.1,0.1,0.1l1,0.6
			c0.2,0.1,0.5,0.1,0.8,0L107.3,144.4z M105.1,143.1c0.2-0.1,0.2-0.3,0-0.4l-7.6-4.4c-0.2-0.1-0.5-0.1-0.8,0l-1,0.6
			c-0.1,0-0.2,0.2-0.2,0.3c0,0.1,0.1,0.1,0.2,0.2l7.6,4.4c0.2,0.1,0.5,0.1,0.8,0L105.1,143.1z M99.2,130.7c0.1,0,0.2-0.2,0.1-0.3
			c0-0.1-0.1-0.1-0.1-0.1l-2.9-1.7c-0.2-0.1-0.5-0.1-0.8,0l-0.1,0.1c-0.2,0.1-0.2,0.3,0,0.4l2.9,1.7c0.2,0.1,0.5,0.1,0.8,0
			L99.2,130.7z M101.3,132c0.2-0.1,0.2-0.3,0-0.4l-1-0.6c-0.2-0.1-0.5-0.1-0.8,0l-0.1,0.1c-0.2,0.1-0.2,0.3,0,0.4l1,0.6
			c0.2,0.1,0.5,0.1,0.8,0L101.3,132z M103.5,133.2c0.2-0.1,0.2-0.3,0-0.4l-1-0.6c-0.2-0.1-0.5-0.1-0.8,0l-0.1,0.1
			c-0.1,0-0.2,0.2-0.2,0.3c0,0.1,0.1,0.1,0.2,0.2l1,0.6c0.2,0.1,0.5,0.1,0.8,0L103.5,133.2z M105.7,134.5c0.2-0.1,0.2-0.3,0-0.4
			l-1-0.6c-0.2-0.1-0.5-0.1-0.8,0l-0.1,0.1c-0.1,0-0.2,0.2-0.2,0.3c0,0.1,0.1,0.1,0.2,0.2l1,0.6c0.2,0.1,0.5,0.1,0.8,0L105.7,134.5z
			 M107.9,135.7c0.2-0.1,0.2-0.3,0-0.4l-1-0.6c-0.2-0.1-0.5-0.1-0.8,0l-0.1,0.1c-0.2,0.1-0.2,0.3,0,0.4l1,0.6c0.2,0.1,0.5,0.1,0.8,0
			L107.9,135.7z M110.1,137c0.1,0,0.2-0.2,0.1-0.3c0-0.1-0.1-0.1-0.1-0.1l-1-0.6c-0.2-0.1-0.5-0.1-0.8,0l-0.1,0.1
			c-0.2,0.1-0.2,0.3,0,0.4l1,0.6c0.2,0.1,0.5,0.1,0.8,0L110.1,137z M112.2,138.3c0.2-0.1,0.2-0.3,0-0.4l-1-0.6
			c-0.2-0.1-0.5-0.1-0.8,0l-0.1,0.1c-0.1,0-0.2,0.2-0.2,0.3c0,0.1,0.1,0.1,0.2,0.2l1,0.6c0.2,0.1,0.5,0.1,0.8,0L112.2,138.3z
			 M114.4,139.5c0.2-0.1,0.2-0.3,0-0.4l-1-0.6c-0.2-0.1-0.5-0.1-0.8,0l-0.1,0.1c-0.1,0-0.2,0.2-0.2,0.3c0,0.1,0.1,0.1,0.2,0.2l1,0.6
			c0.2,0.1,0.5,0.1,0.8,0L114.4,139.5z M116.6,140.8c0.2-0.1,0.2-0.3,0-0.4l-1-0.6c-0.2-0.1-0.5-0.1-0.8,0l-0.1,0.1
			c-0.2,0.1-0.2,0.3,0,0.4l1,0.6c0.2,0.1,0.5,0.1,0.8,0L116.6,140.8z M118.8,142c0.2-0.1,0.2-0.3,0-0.4l-1-0.6
			c-0.2-0.1-0.5-0.1-0.8,0l-0.1,0.1c-0.2,0.1-0.2,0.3,0,0.4l1,0.6c0.2,0.1,0.5,0.1,0.8,0L118.8,142z M120.9,143.3
			c0.1,0,0.2-0.2,0.1-0.3c0-0.1-0.1-0.1-0.1-0.1l-1-0.6c-0.2-0.1-0.5-0.1-0.8,0l-0.1,0.1c-0.2,0.1-0.2,0.3,0,0.4l1,0.6
			c0.2,0.1,0.5,0.1,0.8,0L120.9,143.3z M123.1,144.5c0.2-0.1,0.2-0.3,0-0.4l-1-0.6c-0.2-0.1-0.5-0.1-0.8,0l-0.1,0.1
			c-0.2,0.1-0.2,0.3,0,0.4l1,0.6c0.2,0.1,0.5,0.1,0.8,0L123.1,144.5z M125.3,145.8c0.2-0.1,0.2-0.3,0-0.4l-1-0.6
			c-0.2-0.1-0.5-0.1-0.8,0l-0.1,0.1c-0.2,0.1-0.2,0.3,0,0.4l1,0.6c0.2,0.1,0.5,0.1,0.8,0L125.3,145.8z M96.4,135.6
			c0.2-0.1,0.2-0.3,0-0.4l-1-0.6c-0.2-0.1-0.5-0.1-0.8,0l-1,0.6c-0.2,0.1-0.2,0.3,0,0.4l1,0.6c0.2,0.1,0.5,0.1,0.8,0L96.4,135.6z
			 M98.6,136.9c0.2-0.1,0.2-0.3,0-0.4l-1-0.6c-0.2-0.1-0.5-0.1-0.8,0l-1,0.6c-0.2,0.1-0.2,0.3,0,0.4l1,0.6c0.2,0.1,0.5,0.1,0.8,0
			L98.6,136.9z M100.8,138.1c0.2-0.1,0.2-0.3,0-0.4l-1-0.6c-0.2-0.1-0.5-0.1-0.8,0l-1,0.6c-0.2,0.1-0.2,0.3,0,0.4l1,0.6
			c0.2,0.1,0.5,0.1,0.8,0L100.8,138.1z M103,139.4c0.2-0.1,0.2-0.3,0-0.4l-1-0.6c-0.2-0.1-0.5-0.1-0.8,0l-1,0.6
			c-0.2,0.1-0.2,0.3,0,0.4l1,0.6c0.2,0.1,0.5,0.1,0.8,0L103,139.4z M105.1,140.7c0.1,0,0.2-0.2,0.1-0.3c0-0.1-0.1-0.1-0.1-0.1
			l-1-0.6c-0.2-0.1-0.5-0.1-0.8,0l-1,0.6c-0.2,0.1-0.2,0.3,0,0.4l1,0.6c0.2,0.1,0.5,0.1,0.8,0L105.1,140.7z M107.3,141.9
			c0.2-0.1,0.2-0.3,0-0.4l-1-0.6c-0.2-0.1-0.5-0.1-0.8,0l-1,0.6c-0.2,0.1-0.2,0.3,0,0.4l1,0.6c0.2,0.1,0.5,0.1,0.8,0L107.3,141.9z
			 M109.5,143.2c0.2-0.1,0.2-0.3,0-0.4l-1-0.6c-0.2-0.1-0.5-0.1-0.8,0l-1,0.6c-0.2,0.1-0.2,0.3,0,0.4l1,0.6c0.2,0.1,0.5,0.1,0.8,0
			L109.5,143.2z M111.7,144.4c0.2-0.1,0.2-0.3,0-0.4l-1-0.6c-0.2-0.1-0.5-0.1-0.8,0l-1,0.6c-0.2,0.1-0.2,0.3,0,0.4l1,0.6
			c0.2,0.1,0.5,0.1,0.8,0L111.7,144.4z M102,136.3c0.1-0.1,0.2-0.2,0.1-0.3c0-0.1-0.1-0.1-0.1-0.1l-1-0.6c-0.2-0.1-0.5-0.1-0.8,0
			l-1,0.6c-0.1,0-0.2,0.2-0.2,0.3c0,0.1,0.1,0.1,0.2,0.2l1,0.6c0.2,0.1,0.5,0.1,0.8,0L102,136.3z M104.1,137.6
			c0.2-0.1,0.2-0.3,0-0.4l-1-0.6c-0.2-0.1-0.5-0.1-0.8,0l-1,0.6c-0.1,0-0.2,0.2-0.2,0.3c0,0.1,0.1,0.1,0.2,0.2l1,0.6
			c0.2,0.1,0.5,0.1,0.8,0L104.1,137.6z M106.3,138.8c0.1,0,0.2-0.2,0.2-0.3c0-0.1-0.1-0.1-0.2-0.2l-1-0.6c-0.2-0.1-0.5-0.1-0.8,0
			l-1,0.6c-0.1,0-0.2,0.2-0.2,0.3c0,0.1,0.1,0.1,0.2,0.2l1,0.6c0.2,0.1,0.5,0.1,0.8,0L106.3,138.8z M108.5,140.1
			c0.1,0,0.2-0.2,0.2-0.3c0-0.1-0.1-0.1-0.2-0.2l-1-0.6c-0.2-0.1-0.5-0.1-0.8,0l-1,0.6c-0.1,0.1-0.2,0.2-0.1,0.3
			c0,0.1,0.1,0.1,0.1,0.1l1,0.6c0.2,0.1,0.5,0.1,0.8,0L108.5,140.1z M110.7,141.3c0.1-0.1,0.2-0.2,0.1-0.3c0-0.1-0.1-0.1-0.1-0.1
			l-1-0.6c-0.2-0.1-0.5-0.1-0.8,0l-1,0.6c-0.1,0.1-0.2,0.2-0.1,0.3c0,0.1,0.1,0.1,0.1,0.1l1,0.6c0.2,0.1,0.5,0.1,0.8,0L110.7,141.3z
			 M112.9,142.6c0.1,0,0.2-0.2,0.2-0.3c0-0.1-0.1-0.1-0.2-0.2l-1-0.6c-0.2-0.1-0.5-0.1-0.8,0l-1,0.6c-0.1,0-0.2,0.2-0.2,0.3
			c0,0.1,0.1,0.1,0.2,0.2l1,0.6c0.2,0.1,0.5,0.1,0.8,0L112.9,142.6z M115,143.9c0.1,0,0.2-0.2,0.2-0.3c0-0.1-0.1-0.1-0.2-0.2l-1-0.6
			c-0.2-0.1-0.5-0.1-0.8,0l-1,0.6c-0.1,0-0.2,0.2-0.2,0.3c0,0.1,0.1,0.1,0.2,0.2l1,0.6c0.2,0.1,0.5,0.1,0.8,0L115,143.9z
			 M117.2,145.1c0.1,0,0.2-0.2,0.2-0.3c0-0.1-0.1-0.1-0.2-0.2l-1-0.6c-0.2-0.1-0.5-0.1-0.8,0l-1,0.6c-0.1,0-0.2,0.2-0.2,0.3
			c0,0.1,0.1,0.1,0.2,0.2l1,0.6c0.2,0.1,0.5,0.1,0.8,0L117.2,145.1z M121.9,147.8c0.2-0.1,0.2-0.3,0-0.4l-3.5-2
			c-0.2-0.1-0.5-0.1-0.8,0l-1,0.6c-0.2,0.1-0.2,0.3,0,0.4l3.5,2c0.2,0.1,0.5,0.1,0.8,0L121.9,147.8z M119.7,149
			c0.2-0.1,0.2-0.3,0-0.4l-1-0.6c-0.2-0.1-0.5-0.1-0.8,0l-1,0.6c-0.1,0.1-0.2,0.2-0.1,0.3c0,0.1,0.1,0.1,0.1,0.1l1,0.6
			c0.2,0.1,0.5,0.1,0.8,0L119.7,149z M117.5,150.3c0.2-0.1,0.2-0.3,0-0.4l-1-0.6c-0.2-0.1-0.5-0.1-0.8,0l-1,0.6
			c-0.1,0-0.2,0.2-0.2,0.3c0,0.1,0.1,0.1,0.2,0.2l1,0.6c0.2,0.1,0.5,0.1,0.8,0L117.5,150.3z M115.3,149c0.2-0.1,0.2-0.3,0-0.4
			l-1-0.6c-0.2-0.1-0.5-0.1-0.8,0l-1,0.6c-0.1,0-0.2,0.2-0.2,0.3c0,0.1,0.1,0.1,0.2,0.2l1,0.6c0.2,0.1,0.5,0.1,0.8,0L115.3,149z
			 M117.5,147.8c0.2-0.1,0.2-0.3,0-0.4l-1-0.6c-0.2-0.1-0.5-0.1-0.8,0l-1,0.6c-0.2,0.1-0.2,0.3,0,0.4l1,0.6c0.2,0.1,0.5,0.1,0.8,0
			L117.5,147.8z M113.1,147.8c0.2-0.1,0.2-0.3,0-0.4l-1-0.6c-0.2-0.1-0.5-0.1-0.8,0l-1,0.6c-0.1,0.1-0.2,0.2-0.1,0.3
			c0,0.1,0.1,0.1,0.1,0.1l1,0.6c0.2,0.1,0.5,0.1,0.8,0L113.1,147.8z M95.4,132.5c0.2-0.1,0.2-0.3,0-0.4l-2.6-1.5
			c-0.2-0.1-0.5-0.1-0.8,0l-1,0.6c-0.2,0.1-0.2,0.3,0,0.4l2.6,1.5c0.2,0.1,0.5,0.1,0.8,0L95.4,132.5z M97.6,133.8
			c0.1,0,0.2-0.2,0.2-0.3c0-0.1-0.1-0.1-0.2-0.2l-1-0.6c-0.2-0.1-0.5-0.1-0.8,0l-1,0.6c-0.1,0-0.2,0.2-0.2,0.3
			c0,0.1,0.1,0.1,0.2,0.2l1,0.6c0.2,0.1,0.5,0.1,0.8,0L97.6,133.8z M99.8,135c0.1-0.1,0.2-0.2,0.1-0.3c0-0.1-0.1-0.1-0.1-0.1l-1-0.6
			c-0.2-0.1-0.5-0.1-0.8,0l-1,0.6c-0.1,0.1-0.2,0.2-0.1,0.3c0,0.1,0.1,0.1,0.1,0.1l1,0.6c0.2,0.1,0.5,0.1,0.8,0L99.8,135z
			 M107.5,137c0.2-0.1,0.2-0.3,0-0.4l-1-0.6c-0.2-0.1-0.5-0.1-0.8,0l-1,0.6c-0.2,0.1-0.2,0.3,0,0.4l1,0.6c0.2,0.1,0.5,0.1,0.8,0
			L107.5,137z M109.7,138.3c0.2-0.1,0.2-0.3,0-0.4l-1-0.6c-0.2-0.1-0.5-0.1-0.8,0l-1,0.6c-0.2,0.1-0.2,0.3,0,0.4l1,0.6
			c0.2,0.1,0.5,0.1,0.8,0L109.7,138.3z M111.9,139.5c0.2-0.1,0.2-0.3,0-0.4l-1-0.6c-0.2-0.1-0.5-0.1-0.8,0l-1,0.6
			c-0.2,0.1-0.2,0.3,0,0.4l1,0.6c0.2,0.1,0.5,0.1,0.8,0L111.9,139.5z M114.1,140.8c0.2-0.1,0.2-0.3,0-0.4l-1-0.6
			c-0.2-0.1-0.5-0.1-0.8,0l-1,0.6c-0.1,0-0.2,0.2-0.1,0.3c0,0.1,0.1,0.1,0.1,0.1l1,0.6c0.2,0.1,0.5,0.1,0.8,0L114.1,140.8z
			 M116.3,142c0.1,0,0.2-0.2,0.1-0.3c0-0.1-0.1-0.1-0.1-0.1l-1-0.6c-0.2-0.1-0.5-0.1-0.8,0l-1,0.6c-0.2,0.1-0.2,0.3,0,0.4l1,0.6
			c0.2,0.1,0.5,0.1,0.8,0L116.3,142z M118.4,143.3c0.2-0.1,0.2-0.3,0-0.4l-1-0.6c-0.2-0.1-0.5-0.1-0.8,0l-1,0.6
			c-0.2,0.1-0.2,0.3,0,0.4l1,0.6c0.2,0.1,0.5,0.1,0.8,0L118.4,143.3z M120.6,144.5c0.2-0.1,0.2-0.3,0-0.4l-1-0.6
			c-0.2-0.1-0.5-0.1-0.8,0l-1,0.6c-0.2,0.1-0.2,0.3,0,0.4l1,0.6c0.2,0.1,0.5,0.1,0.8,0L120.6,144.5z M124,146.6
			c0.2-0.1,0.2-0.3,0-0.4l-2.3-1.3c-0.2-0.1-0.5-0.1-0.8,0l-1,0.6c-0.2,0.1-0.2,0.3,0,0.4l2.3,1.3c0.2,0.1,0.5,0.1,0.8,0L124,146.6z
			 M103.2,134.5c0.1-0.1,0.2-0.2,0.1-0.3c0-0.1-0.1-0.1-0.1-0.1l-1-0.6c-0.2-0.1-0.5-0.1-0.8,0l-1,0.6c-0.2,0.1-0.2,0.3,0,0.4l1,0.6
			c0.2,0.1,0.5,0.1,0.8,0L103.2,134.5z M105.4,135.8c0.1,0,0.2-0.2,0.1-0.3c0-0.1-0.1-0.1-0.1-0.1l-1-0.6c-0.2-0.1-0.5-0.1-0.8,0
			l-1,0.6c-0.2,0.1-0.2,0.3,0,0.4l1,0.6c0.2,0.1,0.5,0.1,0.8,0L105.4,135.8z M96.6,130.7c0.2-0.1,0.2-0.3,0-0.4l-1.7-0.9
			c-0.2-0.1-0.5-0.1-0.8,0l-1,0.6c-0.1,0.1-0.2,0.2-0.1,0.3c0,0.1,0.1,0.1,0.1,0.1l1.7,0.9c0.2,0.1,0.5,0.1,0.8,0L96.6,130.7z
			 M98.8,132c0.2-0.1,0.2-0.3,0-0.4l-1-0.6c-0.2-0.1-0.5-0.1-0.8,0l-1,0.6c-0.2,0.1-0.2,0.3,0,0.4l1,0.6c0.2,0.1,0.5,0.1,0.8,0
			L98.8,132z M101,133.2c0.2-0.1,0.2-0.3,0-0.4l-1-0.6c-0.2-0.1-0.5-0.1-0.8,0l-1,0.6c-0.2,0.1-0.2,0.3,0,0.4l1,0.6
			c0.2,0.1,0.5,0.1,0.8,0L101,133.2z"/>
		<path class="st20" d="M88.8,134.9c-0.2,0.1-0.5,0.1-0.8,0l-1.4-0.8c-0.2-0.1-0.2-0.3,0-0.4l1-0.6c0.2-0.1,0.5-0.1,0.8,0l1.4,0.8
			c0.2,0.1,0.2,0.3,0,0.4L88.8,134.9z M94.2,134.3c0.2-0.1,0.2-0.3,0-0.4l-3.6-2.1c-0.2-0.1-0.5-0.1-0.8,0l-1,0.6
			c-0.2,0.1-0.2,0.3,0,0.4l3.6,2.1c0.2,0.1,0.5,0.1,0.8,0L94.2,134.3z M92,135.6c0.2-0.1,0.2-0.3,0-0.4l-1-0.6
			c-0.2-0.1-0.5-0.1-0.8,0l-1,0.6c-0.1,0-0.2,0.2-0.2,0.3c0,0.1,0.1,0.1,0.2,0.2l1,0.6c0.2,0.1,0.5,0.1,0.8,0L92,135.6z M94.2,136.8
			c0.2-0.1,0.2-0.3,0-0.4l-1-0.6c-0.2-0.1-0.5-0.1-0.8,0l-1,0.6c-0.2,0.1-0.2,0.3,0,0.4l1,0.6c0.2,0.1,0.5,0.1,0.8,0L94.2,136.8z
			 M96.4,138.1c0.2-0.1,0.2-0.3,0-0.4l-1-0.6c-0.2-0.1-0.5-0.1-0.8,0l-1,0.6c-0.2,0.1-0.2,0.3,0,0.4l1,0.6c0.2,0.1,0.5,0.1,0.8,0
			L96.4,138.1z M111,146.5c0.1,0,0.2-0.2,0.2-0.3c0-0.1-0.1-0.1-0.2-0.2l-2.5-1.4c-0.2-0.1-0.5-0.1-0.8,0l-1,0.6
			c-0.1,0-0.2,0.2-0.2,0.3c0,0.1,0.1,0.1,0.2,0.2l2.5,1.4c0.2,0.1,0.5,0.1,0.8,0L111,146.5z M115.3,146.5c0.2-0.1,0.2-0.3,0-0.4
			l-2.5-1.5c-0.2-0.1-0.5-0.1-0.8,0l-1,0.6c-0.2,0.1-0.2,0.3,0,0.4l2.5,1.5c0.2,0.1,0.5,0.1,0.8,0L115.3,146.5z M107.3,144.4
			c0.2-0.1,0.2-0.3,0-0.4l-1-0.6c-0.2-0.1-0.5-0.1-0.8,0l-1,0.6c-0.1,0.1-0.2,0.2-0.1,0.3c0,0.1,0.1,0.1,0.1,0.1l1,0.6
			c0.2,0.1,0.5,0.1,0.8,0L107.3,144.4z M105.1,143.1c0.2-0.1,0.2-0.3,0-0.4l-7.6-4.4c-0.2-0.1-0.5-0.1-0.8,0l-1,0.6
			c-0.1,0-0.2,0.2-0.2,0.3c0,0.1,0.1,0.1,0.2,0.2l7.6,4.4c0.2,0.1,0.5,0.1,0.8,0L105.1,143.1z M99.2,130.7c0.1,0,0.2-0.2,0.1-0.3
			c0-0.1-0.1-0.1-0.1-0.1l-2.9-1.7c-0.2-0.1-0.5-0.1-0.8,0l-0.1,0.1c-0.2,0.1-0.2,0.3,0,0.4l2.9,1.7c0.2,0.1,0.5,0.1,0.8,0
			L99.2,130.7z M101.3,132c0.2-0.1,0.2-0.3,0-0.4l-1-0.6c-0.2-0.1-0.5-0.1-0.8,0l-0.1,0.1c-0.2,0.1-0.2,0.3,0,0.4l1,0.6
			c0.2,0.1,0.5,0.1,0.8,0L101.3,132z M103.5,133.2c0.2-0.1,0.2-0.3,0-0.4l-1-0.6c-0.2-0.1-0.5-0.1-0.8,0l-0.1,0.1
			c-0.1,0-0.2,0.2-0.2,0.3c0,0.1,0.1,0.1,0.2,0.2l1,0.6c0.2,0.1,0.5,0.1,0.8,0L103.5,133.2z M105.7,134.5c0.2-0.1,0.2-0.3,0-0.4
			l-1-0.6c-0.2-0.1-0.5-0.1-0.8,0l-0.1,0.1c-0.1,0-0.2,0.2-0.2,0.3c0,0.1,0.1,0.1,0.2,0.2l1,0.6c0.2,0.1,0.5,0.1,0.8,0L105.7,134.5z
			 M107.9,135.7c0.2-0.1,0.2-0.3,0-0.4l-1-0.6c-0.2-0.1-0.5-0.1-0.8,0l-0.1,0.1c-0.2,0.1-0.2,0.3,0,0.4l1,0.6c0.2,0.1,0.5,0.1,0.8,0
			L107.9,135.7z M110.1,137c0.1,0,0.2-0.2,0.1-0.3c0-0.1-0.1-0.1-0.1-0.1l-1-0.6c-0.2-0.1-0.5-0.1-0.8,0l-0.1,0.1
			c-0.2,0.1-0.2,0.3,0,0.4l1,0.6c0.2,0.1,0.5,0.1,0.8,0L110.1,137z M112.2,138.3c0.2-0.1,0.2-0.3,0-0.4l-1-0.6
			c-0.2-0.1-0.5-0.1-0.8,0l-0.1,0.1c-0.1,0-0.2,0.2-0.2,0.3c0,0.1,0.1,0.1,0.2,0.2l1,0.6c0.2,0.1,0.5,0.1,0.8,0L112.2,138.3z
			 M114.4,139.5c0.2-0.1,0.2-0.3,0-0.4l-1-0.6c-0.2-0.1-0.5-0.1-0.8,0l-0.1,0.1c-0.1,0-0.2,0.2-0.2,0.3c0,0.1,0.1,0.1,0.2,0.2l1,0.6
			c0.2,0.1,0.5,0.1,0.8,0L114.4,139.5z M116.6,140.8c0.2-0.1,0.2-0.3,0-0.4l-1-0.6c-0.2-0.1-0.5-0.1-0.8,0l-0.1,0.1
			c-0.2,0.1-0.2,0.3,0,0.4l1,0.6c0.2,0.1,0.5,0.1,0.8,0L116.6,140.8z M118.8,142c0.2-0.1,0.2-0.3,0-0.4l-1-0.6
			c-0.2-0.1-0.5-0.1-0.8,0l-0.1,0.1c-0.2,0.1-0.2,0.3,0,0.4l1,0.6c0.2,0.1,0.5,0.1,0.8,0L118.8,142z M120.9,143.3
			c0.1,0,0.2-0.2,0.1-0.3c0-0.1-0.1-0.1-0.1-0.1l-1-0.6c-0.2-0.1-0.5-0.1-0.8,0l-0.1,0.1c-0.2,0.1-0.2,0.3,0,0.4l1,0.6
			c0.2,0.1,0.5,0.1,0.8,0L120.9,143.3z M123.1,144.5c0.2-0.1,0.2-0.3,0-0.4l-1-0.6c-0.2-0.1-0.5-0.1-0.8,0l-0.1,0.1
			c-0.2,0.1-0.2,0.3,0,0.4l1,0.6c0.2,0.1,0.5,0.1,0.8,0L123.1,144.5z M125.3,145.8c0.2-0.1,0.2-0.3,0-0.4l-1-0.6
			c-0.2-0.1-0.5-0.1-0.8,0l-0.1,0.1c-0.2,0.1-0.2,0.3,0,0.4l1,0.6c0.2,0.1,0.5,0.1,0.8,0L125.3,145.8z M96.4,135.6
			c0.2-0.1,0.2-0.3,0-0.4l-1-0.6c-0.2-0.1-0.5-0.1-0.8,0l-1,0.6c-0.2,0.1-0.2,0.3,0,0.4l1,0.6c0.2,0.1,0.5,0.1,0.8,0L96.4,135.6z
			 M98.6,136.9c0.2-0.1,0.2-0.3,0-0.4l-1-0.6c-0.2-0.1-0.5-0.1-0.8,0l-1,0.6c-0.2,0.1-0.2,0.3,0,0.4l1,0.6c0.2,0.1,0.5,0.1,0.8,0
			L98.6,136.9z M100.8,138.1c0.2-0.1,0.2-0.3,0-0.4l-1-0.6c-0.2-0.1-0.5-0.1-0.8,0l-1,0.6c-0.2,0.1-0.2,0.3,0,0.4l1,0.6
			c0.2,0.1,0.5,0.1,0.8,0L100.8,138.1z M103,139.4c0.2-0.1,0.2-0.3,0-0.4l-1-0.6c-0.2-0.1-0.5-0.1-0.8,0l-1,0.6
			c-0.2,0.1-0.2,0.3,0,0.4l1,0.6c0.2,0.1,0.5,0.1,0.8,0L103,139.4z M105.1,140.7c0.1,0,0.2-0.2,0.1-0.3c0-0.1-0.1-0.1-0.1-0.1
			l-1-0.6c-0.2-0.1-0.5-0.1-0.8,0l-1,0.6c-0.2,0.1-0.2,0.3,0,0.4l1,0.6c0.2,0.1,0.5,0.1,0.8,0L105.1,140.7z M107.3,141.9
			c0.2-0.1,0.2-0.3,0-0.4l-1-0.6c-0.2-0.1-0.5-0.1-0.8,0l-1,0.6c-0.2,0.1-0.2,0.3,0,0.4l1,0.6c0.2,0.1,0.5,0.1,0.8,0L107.3,141.9z
			 M109.5,143.2c0.2-0.1,0.2-0.3,0-0.4l-1-0.6c-0.2-0.1-0.5-0.1-0.8,0l-1,0.6c-0.2,0.1-0.2,0.3,0,0.4l1,0.6c0.2,0.1,0.5,0.1,0.8,0
			L109.5,143.2z M111.7,144.4c0.2-0.1,0.2-0.3,0-0.4l-1-0.6c-0.2-0.1-0.5-0.1-0.8,0l-1,0.6c-0.2,0.1-0.2,0.3,0,0.4l1,0.6
			c0.2,0.1,0.5,0.1,0.8,0L111.7,144.4z M102,136.3c0.1-0.1,0.2-0.2,0.1-0.3c0-0.1-0.1-0.1-0.1-0.1l-1-0.6c-0.2-0.1-0.5-0.1-0.8,0
			l-1,0.6c-0.1,0-0.2,0.2-0.2,0.3c0,0.1,0.1,0.1,0.2,0.2l1,0.6c0.2,0.1,0.5,0.1,0.8,0L102,136.3z M104.1,137.6
			c0.2-0.1,0.2-0.3,0-0.4l-1-0.6c-0.2-0.1-0.5-0.1-0.8,0l-1,0.6c-0.1,0-0.2,0.2-0.2,0.3c0,0.1,0.1,0.1,0.2,0.2l1,0.6
			c0.2,0.1,0.5,0.1,0.8,0L104.1,137.6z M106.3,138.8c0.1,0,0.2-0.2,0.2-0.3c0-0.1-0.1-0.1-0.2-0.2l-1-0.6c-0.2-0.1-0.5-0.1-0.8,0
			l-1,0.6c-0.1,0-0.2,0.2-0.2,0.3c0,0.1,0.1,0.1,0.2,0.2l1,0.6c0.2,0.1,0.5,0.1,0.8,0L106.3,138.8z M108.5,140.1
			c0.1,0,0.2-0.2,0.2-0.3c0-0.1-0.1-0.1-0.2-0.2l-1-0.6c-0.2-0.1-0.5-0.1-0.8,0l-1,0.6c-0.1,0.1-0.2,0.2-0.1,0.3
			c0,0.1,0.1,0.1,0.1,0.1l1,0.6c0.2,0.1,0.5,0.1,0.8,0L108.5,140.1z M110.7,141.3c0.1-0.1,0.2-0.2,0.1-0.3c0-0.1-0.1-0.1-0.1-0.1
			l-1-0.6c-0.2-0.1-0.5-0.1-0.8,0l-1,0.6c-0.1,0.1-0.2,0.2-0.1,0.3c0,0.1,0.1,0.1,0.1,0.1l1,0.6c0.2,0.1,0.5,0.1,0.8,0L110.7,141.3z
			 M112.9,142.6c0.1,0,0.2-0.2,0.2-0.3c0-0.1-0.1-0.1-0.2-0.2l-1-0.6c-0.2-0.1-0.5-0.1-0.8,0l-1,0.6c-0.1,0-0.2,0.2-0.2,0.3
			c0,0.1,0.1,0.1,0.2,0.2l1,0.6c0.2,0.1,0.5,0.1,0.8,0L112.9,142.6z M115,143.9c0.1,0,0.2-0.2,0.2-0.3c0-0.1-0.1-0.1-0.2-0.2l-1-0.6
			c-0.2-0.1-0.5-0.1-0.8,0l-1,0.6c-0.1,0-0.2,0.2-0.2,0.3c0,0.1,0.1,0.1,0.2,0.2l1,0.6c0.2,0.1,0.5,0.1,0.8,0L115,143.9z
			 M117.2,145.1c0.1,0,0.2-0.2,0.2-0.3c0-0.1-0.1-0.1-0.2-0.2l-1-0.6c-0.2-0.1-0.5-0.1-0.8,0l-1,0.6c-0.1,0-0.2,0.2-0.2,0.3
			c0,0.1,0.1,0.1,0.2,0.2l1,0.6c0.2,0.1,0.5,0.1,0.8,0L117.2,145.1z M121.9,147.8c0.2-0.1,0.2-0.3,0-0.4l-3.5-2
			c-0.2-0.1-0.5-0.1-0.8,0l-1,0.6c-0.2,0.1-0.2,0.3,0,0.4l3.5,2c0.2,0.1,0.5,0.1,0.8,0L121.9,147.8z M119.7,149
			c0.2-0.1,0.2-0.3,0-0.4l-1-0.6c-0.2-0.1-0.5-0.1-0.8,0l-1,0.6c-0.1,0.1-0.2,0.2-0.1,0.3c0,0.1,0.1,0.1,0.1,0.1l1,0.6
			c0.2,0.1,0.5,0.1,0.8,0L119.7,149z M117.5,150.3c0.2-0.1,0.2-0.3,0-0.4l-1-0.6c-0.2-0.1-0.5-0.1-0.8,0l-1,0.6
			c-0.1,0-0.2,0.2-0.2,0.3c0,0.1,0.1,0.1,0.2,0.2l1,0.6c0.2,0.1,0.5,0.1,0.8,0L117.5,150.3z M115.3,149c0.2-0.1,0.2-0.3,0-0.4
			l-1-0.6c-0.2-0.1-0.5-0.1-0.8,0l-1,0.6c-0.1,0-0.2,0.2-0.2,0.3c0,0.1,0.1,0.1,0.2,0.2l1,0.6c0.2,0.1,0.5,0.1,0.8,0L115.3,149z
			 M117.5,147.8c0.2-0.1,0.2-0.3,0-0.4l-1-0.6c-0.2-0.1-0.5-0.1-0.8,0l-1,0.6c-0.2,0.1-0.2,0.3,0,0.4l1,0.6c0.2,0.1,0.5,0.1,0.8,0
			L117.5,147.8z M113.1,147.8c0.2-0.1,0.2-0.3,0-0.4l-1-0.6c-0.2-0.1-0.5-0.1-0.8,0l-1,0.6c-0.1,0.1-0.2,0.2-0.1,0.3
			c0,0.1,0.1,0.1,0.1,0.1l1,0.6c0.2,0.1,0.5,0.1,0.8,0L113.1,147.8z M95.4,132.5c0.2-0.1,0.2-0.3,0-0.4l-2.6-1.5
			c-0.2-0.1-0.5-0.1-0.8,0l-1,0.6c-0.2,0.1-0.2,0.3,0,0.4l2.6,1.5c0.2,0.1,0.5,0.1,0.8,0L95.4,132.5z M97.6,133.8
			c0.1,0,0.2-0.2,0.2-0.3c0-0.1-0.1-0.1-0.2-0.2l-1-0.6c-0.2-0.1-0.5-0.1-0.8,0l-1,0.6c-0.1,0-0.2,0.2-0.2,0.3
			c0,0.1,0.1,0.1,0.2,0.2l1,0.6c0.2,0.1,0.5,0.1,0.8,0L97.6,133.8z M99.8,135c0.1-0.1,0.2-0.2,0.1-0.3c0-0.1-0.1-0.1-0.1-0.1l-1-0.6
			c-0.2-0.1-0.5-0.1-0.8,0l-1,0.6c-0.1,0.1-0.2,0.2-0.1,0.3c0,0.1,0.1,0.1,0.1,0.1l1,0.6c0.2,0.1,0.5,0.1,0.8,0L99.8,135z
			 M107.5,137c0.2-0.1,0.2-0.3,0-0.4l-1-0.6c-0.2-0.1-0.5-0.1-0.8,0l-1,0.6c-0.2,0.1-0.2,0.3,0,0.4l1,0.6c0.2,0.1,0.5,0.1,0.8,0
			L107.5,137z M109.7,138.3c0.2-0.1,0.2-0.3,0-0.4l-1-0.6c-0.2-0.1-0.5-0.1-0.8,0l-1,0.6c-0.2,0.1-0.2,0.3,0,0.4l1,0.6
			c0.2,0.1,0.5,0.1,0.8,0L109.7,138.3z M111.9,139.5c0.2-0.1,0.2-0.3,0-0.4l-1-0.6c-0.2-0.1-0.5-0.1-0.8,0l-1,0.6
			c-0.2,0.1-0.2,0.3,0,0.4l1,0.6c0.2,0.1,0.5,0.1,0.8,0L111.9,139.5z M114.1,140.8c0.2-0.1,0.2-0.3,0-0.4l-1-0.6
			c-0.2-0.1-0.5-0.1-0.8,0l-1,0.6c-0.1,0-0.2,0.2-0.1,0.3c0,0.1,0.1,0.1,0.1,0.1l1,0.6c0.2,0.1,0.5,0.1,0.8,0L114.1,140.8z
			 M116.3,142c0.1,0,0.2-0.2,0.1-0.3c0-0.1-0.1-0.1-0.1-0.1l-1-0.6c-0.2-0.1-0.5-0.1-0.8,0l-1,0.6c-0.2,0.1-0.2,0.3,0,0.4l1,0.6
			c0.2,0.1,0.5,0.1,0.8,0L116.3,142z M118.4,143.3c0.2-0.1,0.2-0.3,0-0.4l-1-0.6c-0.2-0.1-0.5-0.1-0.8,0l-1,0.6
			c-0.2,0.1-0.2,0.3,0,0.4l1,0.6c0.2,0.1,0.5,0.1,0.8,0L118.4,143.3z M120.6,144.5c0.2-0.1,0.2-0.3,0-0.4l-1-0.6
			c-0.2-0.1-0.5-0.1-0.8,0l-1,0.6c-0.2,0.1-0.2,0.3,0,0.4l1,0.6c0.2,0.1,0.5,0.1,0.8,0L120.6,144.5z M124,146.6
			c0.2-0.1,0.2-0.3,0-0.4l-2.3-1.3c-0.2-0.1-0.5-0.1-0.8,0l-1,0.6c-0.2,0.1-0.2,0.3,0,0.4l2.3,1.3c0.2,0.1,0.5,0.1,0.8,0L124,146.6z
			 M103.2,134.5c0.1-0.1,0.2-0.2,0.1-0.3c0-0.1-0.1-0.1-0.1-0.1l-1-0.6c-0.2-0.1-0.5-0.1-0.8,0l-1,0.6c-0.2,0.1-0.2,0.3,0,0.4l1,0.6
			c0.2,0.1,0.5,0.1,0.8,0L103.2,134.5z M105.4,135.8c0.1,0,0.2-0.2,0.1-0.3c0-0.1-0.1-0.1-0.1-0.1l-1-0.6c-0.2-0.1-0.5-0.1-0.8,0
			l-1,0.6c-0.2,0.1-0.2,0.3,0,0.4l1,0.6c0.2,0.1,0.5,0.1,0.8,0L105.4,135.8z M96.6,130.7c0.2-0.1,0.2-0.3,0-0.4l-1.7-0.9
			c-0.2-0.1-0.5-0.1-0.8,0l-1,0.6c-0.1,0.1-0.2,0.2-0.1,0.3c0,0.1,0.1,0.1,0.1,0.1l1.7,0.9c0.2,0.1,0.5,0.1,0.8,0L96.6,130.7z
			 M98.8,132c0.2-0.1,0.2-0.3,0-0.4l-1-0.6c-0.2-0.1-0.5-0.1-0.8,0l-1,0.6c-0.2,0.1-0.2,0.3,0,0.4l1,0.6c0.2,0.1,0.5,0.1,0.8,0
			L98.8,132z M101,133.2c0.2-0.1,0.2-0.3,0-0.4l-1-0.6c-0.2-0.1-0.5-0.1-0.8,0l-1,0.6c-0.2,0.1-0.2,0.3,0,0.4l1,0.6
			c0.2,0.1,0.5,0.1,0.8,0L101,133.2z"/>
		<path class="st19" d="M132.4,129.8L132.4,129.8c0-0.2-0.2-0.4-0.4-0.5l-10.3-5.9c-0.5-0.2-1-0.3-1.5-0.1l-10.8,4.2
			c-0.2,0.1-0.4,0.3-0.5,0.5v0.1l0,0v1.1l0,0c0,0.2,0.2,0.4,0.4,0.5l13.7,7.9c0.3,0.2,0.6,0.2,0.9,0.2c0.3,0,0.7-0.1,0.9-0.3
			l7.3-6.2c0.1-0.1,0.2-0.2,0.2-0.4l0,0L132.4,129.8z"/>
		<path d="M132,129.2l-10.3-5.9c-0.5-0.2-1-0.3-1.5-0.1l-6.7,2.6l14.1,8.1l4.5-3.8C132.5,129.9,132.4,129.5,132,129.2z"/>
		<path d="M132.4,129.8c0,0.2-0.1,0.3-0.2,0.4l-7.3,6.2c-0.3,0.2-0.6,0.3-0.9,0.3c-0.3,0-0.6,0-0.9-0.2l-13.7-7.9
			c-0.2-0.1-0.3-0.3-0.4-0.5l0,0v1.1l0,0c0,0.2,0.2,0.4,0.4,0.5l13.7,7.9c0.3,0.2,0.6,0.2,0.9,0.2c0.3,0,0.7-0.1,0.9-0.3l7.3-6.2
			c0.1-0.1,0.2-0.2,0.2-0.4l0,0V129.8z"/>
		<path class="st14" d="M132.4,129.8c0,0.2-0.1,0.3-0.2,0.4l-4.5,3.8v1.1l4.5-3.8c0.1-0.1,0.2-0.2,0.2-0.4l0,0V129.8z"/>
		<path class="st12" d="M101.5,83.6l-1.2,0.7l0,0c-0.3,0.2-0.4,0.5-0.4,0.8v29c0,0.9,0.5,1.7,1.2,2.1l40.6,23.4
			c0.3,0.2,0.6,0.2,0.9,0.1l0,0l1.2-0.7l0,0c0.3-0.2,0.4-0.5,0.4-0.8v-29c0-0.9-0.5-1.7-1.2-2.1l-40.6-23.5
			C102.2,83.5,101.8,83.5,101.5,83.6L101.5,83.6L101.5,83.6z"/>
		<path class="st19" d="M101.5,83.6l-1.2,0.7l0,0c-0.3,0.2-0.4,0.5-0.4,0.8v29c0,0.9,0.5,1.7,1.2,2.1l40.6,23.4
			c0.3,0.2,0.6,0.2,0.9,0.1l0,0l1.2-0.7l0,0c0.3-0.2,0.4-0.5,0.4-0.8v-29c0-0.9-0.5-1.7-1.2-2.1l-40.6-23.5
			C102.2,83.5,101.8,83.5,101.5,83.6L101.5,83.6L101.5,83.6z"/>
		<path class="st21" d="M141.8,136.8l-40.6-23.4c-0.3-0.2-0.5-0.5-0.5-0.8v-27c0-0.3,0.2-0.4,0.5-0.3l40.6,23.4
			c0.3,0.2,0.5,0.5,0.5,0.8v27C142.3,136.9,142,137,141.8,136.8z"/>
		<path class="st0" d="M115.2,195.5c-0.7-2.9-1.8-3.6-7.5-4.5c-0.3-2-1.8-3.9-4.4-5.4c-5.9-3.4-15.6-3.4-21.4,0l-23,13.1
			c-5.9,3.4-5.9,9,0,12.4c5.6,3.2,14.3,3.4,20.2,0.6l0,0l0.3-0.2c0.2-0.1,9-5.2,15.9-9.1c1.5,3.6,5.9,6.5,10.1,1.9
			C109.4,200,116.5,198.5,115.2,195.5z"/>
		<path class="st22" d="M85.2,204.8v-2.6l0,0c0-2.3-1.5-4.5-4.5-6.3c-6-3.5-15.7-3.5-21.7,0c-3,1.7-4.5,4-4.5,6.3l0,0v2.6l0,0
			c0,2.3,1.5,4.5,4.5,6.3c6,3.5,15.7,3.5,21.7,0C83.7,209.4,85.2,207.1,85.2,204.8L85.2,204.8L85.2,204.8z"/>
		<path class="st3" d="M80.7,208.5c-6,3.5-15.7,3.5-21.7,0c-3-1.7-4.5-4-4.5-6.3v2.6c0,2.3,1.5,4.5,4.5,6.3c6,3.5,15.7,3.5,21.7,0
			c3-1.7,4.5-4,4.5-6.3l0,0v-2.6l0,0C85.2,204.5,83.7,206.8,80.7,208.5z"/>
		<path class="st3" d="M73.7,200c-2.4-1.2-5.3-1.2-7.7,0c-2.1,1.2-2.1,3.2,0,4.5c2.4,1.2,5.3,1.2,7.7,0
			C75.8,203.2,75.8,201.2,73.7,200z"/>
		<path class="st22" d="M73.4,180L73.4,180c-0.1-0.6-0.5-1.2-1.1-1.5c-1.6-0.8-3.5-0.8-5.1,0c-0.6,0.3-1,0.8-1.1,1.5l0,0v22.2l0,0
			c0.1,0.6,0.5,1.2,1.1,1.5c1.6,0.8,3.5,0.8,5.1,0c0.6-0.3,1-0.8,1.1-1.5l0,0V180z"/>
		<path d="M73.4,180c-0.1-0.6-0.5-1.2-1.1-1.5c-0.8-0.4-1.7-0.6-2.5-0.6v26.4c0.9,0,1.8-0.2,2.5-0.6c0.6-0.3,1-0.8,1.1-1.5l0,0V180z
			"/>
		<path class="st15" d="M89.4,179.9l-17.3,10.2l-4.8-8.9L65,166.4l0.4-0.3c0.3-0.2,0.7-0.3,1-0.1l24,13.9
			C90.1,179.7,89.7,179.7,89.4,179.9z"/>
		<path class="st23" d="M89.4,179.9l-17.3,10.2l-4.8-8.9L65,166.4l0.4-0.3c0.3-0.2,0.7-0.3,1-0.1l24,13.9
			C90.1,179.7,89.7,179.7,89.4,179.9z"/>
		<path class="st24" d="M98.2,195.5c0,0-2.3,5.7-0.2,6.8c2.1,1.1,3.9-0.1,6.2-1s6-2.7,6.7-3c0.7-0.3,2.4-1.2,2.2-3.1
			c-0.2-1.9-3.2-2-7.2-1C101.9,195.1,98.2,195.5,98.2,195.5z"/>
		<path class="st3" d="M103.8,194.5l1,1.1c0.1,1.6-0.7,3.6-2.3,3.8c-1.9,0.5-3.9-0.3-5-1.9c0.2-0.7,0.4-1.3,0.6-2
			C98.2,195.5,100.7,195.2,103.8,194.5z"/>
		<path class="st24" d="M101.8,196c0,0,0.4-0.5,1.1-1.3c0.9-0.2,2-0.4,3-0.7c4-0.9,7-0.9,7.2,1c0.2,1.9-1.5,2.8-2.2,3.1
			c-0.7,0.4-4.4,2.1-6.7,3c-1.1,0.4-2,0.9-3,1.2C99.8,200.9,101.8,196,101.8,196z"/>
		<path class="st3" d="M98,201.7c2.1,1.1,3.9-0.1,6.2-1s6-2.7,6.7-3c1.1-0.4,1.9-1.3,2.2-2.5c0.1,1.9-1.5,2.7-2.2,3s-4.4,2.1-6.7,3
			c-2.3,0.9-4.1,2.1-6.2,1c-0.7-0.4-0.9-1.3-0.8-2.4C97.1,200.6,97.4,201.3,98,201.7z"/>
		<path class="st1" d="M80.5,170.8c0-3.2,2.3-13.8-9.7-6s-0.7,12.5,3.8,10.9C78.9,174.2,80.5,174.6,80.5,170.8z"/>
		<path class="st25" d="M80.5,170.8c0-3.2,2.3-13.8-9.7-6s-0.7,12.5,3.8,10.9C78.9,174.2,80.5,174.6,80.5,170.8z"/>
		<path class="st25" d="M76.2,168.7l16.5-4.1c3.9-1,7.9,1.4,8.9,5.4c0.1,0.3,0.1,0.6,0.2,0.9l3.1,24.7c0.2,1.3-0.6,2.6-1.9,3.1
			c-2.3,0.9-5-0.3-5.8-2.6c0-0.1-0.1-0.2-0.1-0.4l-4.9-17.7c-0.2-0.8-1-1.2-1.8-1c-0.1,0-0.1,0-0.2,0.1l-11.7,5.7
			c-4.3,2.1-9.2,2.5-13.7,1l-4.4-1.4c-4.3-1.4-6.9-5.8-6-10.3l2.1-10L76.2,168.7z"/>
		<path class="st25" d="M62.7,181c7.3,1.6,10.4-1.7,10-6.3c-0.1-1.5,0.8-3.9,2.5-6.4l1,0.3l16.5-4.1c3.9-1,7.9,1.4,8.9,5.4
			c0.1,0.3,0.1,0.6,0.2,0.9l3.1,24.7c0.2,1.3-0.6,2.6-1.9,3.1c-0.6,0.2-1.2,0.3-1.8,0.3l-6.3-22.2c-0.2-0.8-1-1.2-1.8-1
			c-0.1,0-0.1,0-0.2,0.1l-2.5,1.2c-0.1,0-0.2,0.1-0.3,0.1l-11.7,5.7c-4.3,2.1-9.2,2.5-13.7,1l-4.4-1.4c-3.4-1.1-5.8-4-6.1-7.5
			C54.9,177.1,56.8,179.8,62.7,181z"/>
		<path class="st3" d="M64.5,171.3c2.1-4.2,6.8,0,12.3,0c0.7,0,1.3,0,2,0.1l0.1,0.9c-0.5,2.1-2.4,3.6-4.8,4.1
			c-4.4,1-15.1-0.4-18.1-4.7v-2.1L64.5,171.3z"/>
		<path class="st26" d="M59.4,135.7c1.6,2.5,0.6,6.3,0.8,11.3c0.2,5-0.1,9.7-1.1,11.5c-1.9,3.7-3.9,2.8-5.4,0
			c-2.8-5.2-4.6-19.4,1.3-23.3C56.4,134.2,58.3,134.4,59.4,135.7z"/>
		<path class="st7" d="M59.4,135.7c1.6,2.5,0.6,6.3,0.8,11.3c0.2,5-0.1,9.7-1.1,11.5c-1.9,3.7-3.9,2.8-5.4,0
			c-2.8-5.2-4.6-19.4,1.3-23.3C56.4,134.2,58.3,134.4,59.4,135.7z"/>
		<path class="st27" d="M69.7,129c-0.4,2.3,0.1,7.2,2.3,8.1c2.3,0.9-2.7,2.3-4.7,2.1c-2-0.2-9.3-1.6-8.2-3.1c1.1-1.5,0-2,0.9-1.9
			c0.9,0.1,2.6-1.9,2.7-8.2C62.8,119.7,70.1,126.5,69.7,129z"/>
		<path class="st4" d="M68.3,115.8c2.4,0,2.5-0.3,3.9,1.7c0.7,1,0.9,2.3,0.8,3.5c-0.6,1.9,0.6,3,0.5,4.8c-0.2,2.4-0.9,8.6-8.7,4
			c-3.9-2.3,1.7-3.4,3.2-6.4C69.5,120.5,66.8,115.8,68.3,115.8z"/>
		<path class="st1" d="M70.4,125c0.2,1.1,1.5,4.7,2.3,2.2c0.8-2.4,1.1-1.6,1-0.9c0,0.7-0.1,0.1-0.3,0.9c-0.2,0.8,0,0.8-0.2,1.4
			c-0.2,0.6,1.2,3,0,3.4c-1.2,0.4-3.5,0.5-3.5-1c-0.1-1.5,0.5-4.1,0.1-5.6c-0.4-1.5-0.4-2.3-0.1-2.3C69.9,123.1,70.3,124.5,70.4,125
			z"/>
		<path class="st27" d="M66.7,139.2L66.7,139.2l-0.4,0h-0.1l-0.4-0.1l0,0l-0.4-0.1h-0.1l-0.5-0.1l0,0l-0.5-0.1l0,0l-0.6-0.1
			c2.9-3.2,2.4-7.7,2.3-11.1c0-1.1-0.1-2.3-0.3-3.7c0.3,0.1,0.5,0.3,0.7,0.4l0,0c0.2,0.2,0.5,0.3,0.7,0.5l0,0l0,0
			c0.2-0.2,0.3-0.3,0.4-0.5c0.2-0.2,0.4-0.5,0.5-0.8c1.5-2.8-1.2-7.5,0.3-7.5c2.4,0,2.5-0.3,3.9,1.7c0.7,1,0.9,2.3,0.8,3.5
			c-0.5,1.9,0.5,2.9,0.5,4.5c0.1,0,0.2,0.4,0.2,0.7c-0.1,0.7-0.1,0.1-0.3,0.9c0,0.1,0,0.2-0.1,0.3c0,0.4-0.1,0.7-0.1,1.1
			c-0.2,0.6,1.2,3,0,3.4c-1.2,0.4-3,0.5-3.4-0.6h-0.1c0,1.6,0.4,3.1,1.1,4.5l0,0l0.1,0.1c0.3,0.4,0.7,0.8,1.2,1
			c2.3,0.9-2.7,2.3-4.7,2.1h-0.3H67L66.7,139.2z"/>
		<path class="st27" d="M68.4,130.5c-0.1-2,2.5,0,3.7-2.8s-0.4-4.3-0.1-6.1c0.3-1.8-0.6-2.9-1.6-4.7c-0.3-0.4-0.6-0.8-0.9-1.1h0.4
			h0.3l0,0l0.3,0.1l0,0c0.1,0,0.2,0.1,0.3,0.1l0,0c0.1,0.1,0.2,0.1,0.3,0.2l0,0c0.1,0.1,0.2,0.2,0.3,0.3l0,0
			c0.1,0.1,0.2,0.2,0.3,0.4l0.1,0.1l0.3,0.5c0.7,1,0.9,2.3,0.8,3.5c0,0.1-0.1,0.3-0.1,0.4c-0.3,1.6,0.6,2.6,0.6,4.1
			c0.1,0,0.2,0.4,0.2,0.7c-0.1,0.7-0.1,0.1-0.3,0.9c0,0.1,0,0.2-0.1,0.3c0,0.4-0.1,0.7-0.1,1.1c-0.2,0.6,1.2,3,0,3.4
			c-1.2,0.4-3,0.5-3.4-0.6h-0.1c0,1.6,0.4,3.1,1.1,4.5l0,0l0.1,0.1c0.3,0.4,0.7,0.8,1.2,1c0.1,0,0.2,0.1,0.3,0.2c0,0,0,0,0.1,0
			c0,0,0.1,0.1,0.1,0.1c0,0,0,0,0,0c0,0.1,0,0.1,0,0.2l0,0c0,0.1,0,0.1-0.1,0.2l0,0.1l-0.1,0.1l-0.1,0.1l-0.2,0.1h-0.1l-0.3,0.2
			l-0.1,0.1l-0.2,0.1l-0.2,0.1l-0.2,0.1l-0.2,0.1l-0.2,0.1l-0.5,0.1h-0.2l-0.3,0.1h-0.1l-0.3,0.1C68.6,136.1,68.4,133.3,68.4,130.5z
			"/>
		<path class="st24" d="M66.7,114.1c-4.4,0-8.3,1.5-8.3,7.5c0,5.9,3,5.8,3.3,7.5c0.5,2.9,4.8,1.9,5.2,0.2c0.4-1.7,0.3-4.1,1.4-4.6
			c1.9-0.9,1,1.5,1.9,1.4s-0.4-1.9,0.6-2.9c1.5-1.5,0.5-3.4,0.6-4.2c0.1-0.4,0.4-0.8,0.8-1C73.4,116.9,71.2,114.1,66.7,114.1z"/>
		<path class="st24" d="M72.1,117.8c-0.4,0.2-0.6,0.6-0.8,1c-0.1,0.8,0.9,2.7-0.6,4.2c-1,1,0.2,2.8-0.6,2.9
			c-0.8,0.1,0.1-2.3-1.9-1.4c-1.1,0.5-1,3-1.4,4.6c-0.4,1.6-4.7,2.7-5.2-0.2c-0.2-1.2-1.9-1.5-2.7-3.8c1.5,2.9,5.8,3.7,6.5,0.8
			c1.2-5.5-0.7-5.1,3.4-9.2c1.2-1.2-1.8-2.3-4.4-2.5c0.7-0.1,1.5-0.2,2.2-0.1C71.2,114.1,73.4,116.9,72.1,117.8z"/>
		<path class="st26" d="M52.4,142.2c0-3.3,0.8-5.4,2.2-6.5c3.6-3,12.2-0.4,16.2,0.9c3.5,1.2,6.9,2.8,8.2,4.7v19v10.2
			c0,2.6-2.1,4.5-4.9,5.1c-5.2,1.2-18.9-1-18.9-7c0.6-3.8,2-9.2-0.2-15.6C53.3,148.2,52.4,144.7,52.4,142.2z"/>
		<path class="st28" d="M52.4,142.2c0-3.3,0.8-5.4,2.2-6.5c3.6-3,12.2-0.4,16.2,0.9c1.3,0.4,2.5,0.9,3.7,1.5c0.2,0,0.3,0.1,0.5,0.2
			c2.3,1.1,4.7,2,7.2,2.5c7,1.2,6.3,9.3,2.6,8.9c-3.7-0.4-4.9,3.4-5.3,7.4c-0.3,2.8-0.5,5.6-0.5,8.1c0,2.2,0.2,5-0.2,6.3
			c-0.4,2.1-2.4,3.6-4.8,4.2c-5.2,1.2-18.9-1-18.9-7c0.6-3.8,2-9.2-0.2-15.6C53.3,148.2,52.4,144.7,52.4,142.2z"/>
		<path class="st28" d="M82.2,140.8c-2.5-0.6-4.9-1.4-7.2-2.5c-0.2-0.1-0.3-0.1-0.5-0.2c-1.2-0.6-2.5-1-3.7-1.5
			c-4-1.3-12.7-4-16.2-0.9c-0.5,0.4-0.9,0.9-1.1,1.4c3.6-2.8,12.1-0.2,16.1,1.1c1.5,0.5,2.9,1,4.2,1.7c1.5,0.7,0.9,2.4,0,4.2
			c-0.3,0.5-0.5,1-0.7,1.5l0,0c-0.4,1.1-0.7,2.2-0.8,3.4c-0.9-1.7-3.5-3.5-10-5.4c-4.6-1.4-7.6-0.6-9.5,1.3c0.6,2.7,1.3,5.3,2.3,7.9
			c2.2,6.5,0.8,11.8,0.2,15.6c0,6.1,13.7,8.2,19,7.1c0.3-0.1,0.5-0.1,0.8-0.2l0.5-0.2l0.2-0.1c0.2-0.1,0.4-0.2,0.6-0.3l0,0
			c1.3-0.7,2.3-1.9,2.6-3.3c0.4-1.3,0.2-4.1,0.2-6.3c0-2.5,0.2-5.3,0.5-8.1c0.4-4,1.5-7.8,5.3-7.4S89.2,141.9,82.2,140.8z"/>
		<path class="st12" d="M61.8,131.9c-0.4,1-1.1,1.8-2,2.4c0.1,2.9,7.8,4.2,12,2.7c-1-1-1.6-2.2-1.9-3.6
			C65.7,134.6,61.9,132.8,61.8,131.9z"/>
		<path class="st27" d="M100.3,139.5c0.3-0.6,1-2.7,2-3.1c1-0.4,1.6-0.7,1.9-1.6s0.4-0.6,0.6-0.7c0.2-0.1,0.6,0,0.9-0.1
			s0.6-0.6,0.7-1s0.1-0.8,0.2-1.2c0.1-0.3-0.4-0.8-0.3-1.1s0.1-0.6-0.8-1c-0.4-0.2-0.7-0.3-1.1-0.4c0,0,0.2-0.6,0.5-1
			c0.2-0.5,0.6-0.9,0.9-1.3c0.5-0.4,0.9-1.4,0.5-1.5c-0.5-0.2-1.4,0.6-2,1.3c-0.6,0.7-1.3,1.4-2,2c-0.7,0.6-1.3,1.3-1.7,2
			c-0.8,1.5-1.8,3-3,4.2c-1.5,1.4-1.4,3.1-0.5,3.8C98.2,139.4,99.8,140.5,100.3,139.5z"/>
		<path class="st29" d="M100.3,139.5c0.3-0.6,1-2.7,2-3.1c1-0.4,1.6-0.7,1.9-1.6s0.4-0.6,0.6-0.7c0.2-0.1,0.6,0,0.9-0.1
			s0.6-0.6,0.7-1s0.1-0.8,0.2-1.2c0.1-0.3-0.4-0.8-0.3-1.1s0.1-0.6-0.8-1c-0.4-0.2-0.7-0.3-1.1-0.4c0,0,0.2-0.6,0.5-1
			c0.2-0.5,0.6-0.9,0.9-1.3c0.4-0.4,0.7-1,0.6-1.4c-1,1.2-3,3.7-2.5,4.1c0.6,0.3,1.1,0.9,1.2,1.6c0.1,0.8-0.6,1.3-1.4,1.9
			c-0.8,0.6-2,0.3-5.8,6.1C99,139.8,99.9,140.3,100.3,139.5z"/>
		<path class="st30" d="M72.6,143.6L72.6,143.6c-0.2,2.2,1.3,4.2,3.4,4.6l12.4,2.1c2.5,0.5,5.1-0.5,6.6-2.6l6-8.2
			c1.1-1.6,0.8-3.8-0.8-5c0,0-0.1,0-0.1-0.1c-0.8-0.6-2-0.4-2.6,0.4l-6,6.8c-0.3,0.4-0.8,0.5-1.3,0.5l-12.8-2
			c-2.2-0.4-4.3,1.1-4.7,3.3C72.7,143.4,72.7,143.5,72.6,143.6z"/>
		<path class="st30" d="M73.7,144.1c0.6-1.3,1.1-2.6,0.8-3.5c0.1-0.1,0.2-0.1,0.3-0.2l0,0l0.1-0.1l0.3-0.1l0.3-0.1l0.3-0.1l0.4-0.1
			h0.3c0.1,0,0.3,0,0.4,0h0.1c0.2,0,0.4,0,0.6,0.1l12.2,1.9c1.6,0.3,4.8,1.2,6.9-1.5c1.9-2.5,2.5-3.5,4.5-5.1c0.9,1.2,0.9,2.8,0,4.1
			l-6,8.2c-1.5,2.1-4.1,3.2-6.6,2.7l-12.4-2.1c-1.4-0.3-2.6-1.2-3.1-2.6C73.1,145.1,73.4,144.6,73.7,144.1z"/>
		<path class="st23" d="M43.8,136.4c0-0.6,0.3-1.1,0.8-1.4c0.2-0.1,0.4-0.2,0.6-0.1l0,0l16,9.2l0,0c-0.2-0.1-0.4,0-0.6,0.1
			c-0.5,0.3-0.8,0.9-0.8,1.4l5.4,37.3c0,0.1,0,0.3,0.1,0.4l0,0l4.9,9.9c0.1,0.1,0.2,0.2,0.3,0.3l0,0l0,0l-24-13.8l0,0
			c-0.1-0.1-0.2-0.2-0.3-0.3l-4.9-9.9l0,0c-0.1-0.1-0.1-0.2-0.1-0.4L43.8,136.4z"/>
		<path class="st15" d="M60.6,144.2c0.5-0.3,0.8-0.1,0.9,0.4l5.9,36.7l4.8,8.9l17.3-10.2c0.8-0.4,1.4-0.1,1.4,0.8
			c-0.1,1-0.6,1.9-1.4,2.5l0,0l-18,10.2c-0.5,0.3-0.9,0.2-1.1-0.2l-4.9-9.9l0,0c-0.1-0.1-0.1-0.2-0.1-0.4l-5.4-37.3
			C59.8,145,60.1,144.5,60.6,144.2z"/>
		<path class="st22" d="M60.6,144.2c0.5-0.3,0.8-0.1,0.9,0.4l5.9,36.7l4.8,8.9l17.3-10.2c0.8-0.4,1.4-0.1,1.4,0.8
			c-0.1,1-0.6,1.9-1.4,2.5l0,0l-18,10.2c-0.5,0.3-0.9,0.2-1.1-0.2l-4.9-9.9l0,0c-0.1-0.1-0.1-0.2-0.1-0.4l-5.4-37.3
			C59.8,145,60.1,144.5,60.6,144.2z"/>
		<path class="st14" d="M45.2,134.8L45.2,134.8l16,9.2l0,0c-0.2-0.1-0.4,0-0.6,0.1l-16-9.3C44.8,134.8,45,134.7,45.2,134.8z"/>
		<path class="st14" d="M65.2,182.9c0,0.1,0,0.3,0.1,0.4l0,0l4.9,9.9c0.1,0.1,0.2,0.2,0.3,0.3l0,0l0,0l-24-13.8l0,0
			c-0.1-0.1-0.2-0.2-0.3-0.3l-4.9-9.9l0,0c-0.1-0.1-0.1-0.2-0.1-0.4L65.2,182.9z"/>
		<path class="st14" d="M128.3,163c-0.8,0.4-1.7,0.4-2.4,0l-7.7-4.5c-0.4-0.1-0.6-0.5-0.5-0.9c0.1-0.2,0.3-0.4,0.5-0.5l13.5-7.8
			c0.8-0.4,1.7-0.4,2.4,0l7.7,4.5c0.7,0.4,0.7,1,0,1.4L128.3,163z"/>
		<path class="st12" d="M134.1,155.6V155l0,0c-0.1-0.5-0.3-0.9-0.8-1.1c-1.2-0.6-2.6-0.6-3.7,0l-3,1.7c-0.4,0.2-0.7,0.6-0.8,1.1l0,0
			v0.6l0,0c0,0.5,0.3,0.9,0.8,1.1c1.2,0.6,2.6,0.6,3.7,0l3-1.7C133.8,156.5,134.1,156.1,134.1,155.6L134.1,155.6L134.1,155.6z"/>
		<path d="M133.4,156.1l-3,1.7c-1.2,0.6-2.6,0.6-3.7,0c-0.4-0.2-0.7-0.6-0.8-1.1v0.6l0,0c0,0.5,0.3,0.9,0.8,1.1
			c1.2,0.6,2.6,0.6,3.7,0l3-1.7c0.4-0.2,0.7-0.6,0.8-1.1l0,0V155l0,0C134.1,155.5,133.8,155.9,133.4,156.1z"/>
		<path class="st12" d="M133.4,154c-1.8-1-4-0.8-5.7,0.3c-1.1,0.7-1.9,1.7-1.6,2.6c0.1,0.4,0.4,0.7,0.7,0.8c0.1,0.1,0.2,0.1,0.3,0.2
			c1.1,0.4,2.3,0.4,3.4-0.2l3-1.7c0.6-0.2,0.9-0.8,0.7-1.4C134,154.4,133.7,154.1,133.4,154z"/>
		<path class="st14" d="M83.4,124c1.6,0.8,3.5,0.8,5,0c0.6-0.3,1-0.8,1-1.5c-0.1-0.6-0.5-1.2-1-1.5c-1.6-0.8-3.5-0.8-5,0
			c-0.6,0.3-1,0.8-1,1.4l0,0C82.4,123.2,82.8,123.7,83.4,124z"/>
		<path class="st12" d="M88.2,113.1c-1.5-0.7-3.2-0.7-4.7,0c-0.5,0.2-0.9,0.8-0.9,1.3l0,0c0,3.5,0.7,7.5,0.7,8.1l0,0
			c0,0.5,0.3,0.9,0.7,1c1.1,0.6,2.5,0.6,3.6,0c0.4-0.2,0.7-0.6,0.7-1c0-0.7,0.7-4.6,0.7-8.1C89.1,113.8,88.8,113.3,88.2,113.1z"/>
		<path d="M88.2,113.1c-0.6-0.3-1.3-0.5-2-0.5c0,0.1,0.1,0.1,0.1,0.2c0.1,0.5,0.2,0.9,0.2,1.4c0,3.7-0.1,7.9-0.1,8.6
			c0,0.4,0,0.7-0.1,1.1v0.1c0.5,0,1-0.2,1.5-0.4c0.4-0.2,0.7-0.6,0.7-1c0-0.7,0.7-4.6,0.7-8.1C89.2,113.8,88.8,113.3,88.2,113.1z"/>
		<path class="st12" d="M83.6,115.8c1.5,0.7,3.2,0.7,4.7,0c0.5-0.2,0.9-0.8,0.9-1.3c0-0.6-0.4-1.1-0.9-1.3c-1.5-0.7-3.2-0.7-4.7,0
			c-0.5,0.2-0.9,0.8-0.9,1.3l0,0C82.7,115,83.1,115.6,83.6,115.8z"/>
		<path class="st31" d="M83.6,115.8c1.5,0.7,3.2,0.7,4.7,0c0.5-0.2,0.9-0.8,0.9-1.3c0-0.6-0.4-1.1-0.9-1.3c-1.5-0.7-3.2-0.7-4.7,0
			c-0.5,0.2-0.9,0.8-0.9,1.3l0,0C82.7,115,83.1,115.6,83.6,115.8z"/>
		<path class="st15" d="M88,112.8l-0.1-0.1c-0.1-0.1-0.2-0.1-0.2-0.2c-1.1-0.5-2.3-0.5-3.3,0l0,0c-0.1,0-0.2,0.1-0.3,0.2
			c0,0-0.1,0.1-0.1,0.1c-0.5,0.4-0.8,1-0.8,1.7l0,0c0,0.5,0.4,0.9,0.8,1.1c1.3,0.6,2.7,0.6,4,0c0.5-0.2,0.8-0.6,0.8-1.1
			C88.7,113.8,88.4,113.2,88,112.8z"/>
		<path class="st3" d="M88,112.8l-0.1-0.1c-0.1-0.1-0.2-0.1-0.2-0.2c-0.4-0.2-0.8-0.3-1.2-0.4l0.6,3.8c0.3-0.1,0.6-0.2,0.9-0.3
			c0.5-0.2,0.8-0.6,0.8-1.1C88.8,113.8,88.5,113.2,88,112.8z"/>
		<path class="st15" d="M84.3,114.4c1.1,0.5,2.3,0.5,3.3,0c0.4-0.2,0.6-0.5,0.7-0.9c-0.1-0.4-0.3-0.8-0.7-0.9
			c-1.1-0.5-2.3-0.5-3.3,0c-0.4,0.2-0.6,0.5-0.7,0.9l0,0C83.6,113.9,83.9,114.2,84.3,114.4z"/>
		<path class="st7" d="M84.3,114.4c1.1,0.5,2.3,0.5,3.3,0c0.4-0.2,0.6-0.5,0.7-0.9c-0.1-0.4-0.3-0.8-0.7-0.9c-1.1-0.5-2.3-0.5-3.3,0
			c-0.4,0.2-0.6,0.5-0.7,0.9l0,0C83.6,113.9,83.9,114.2,84.3,114.4z"/>
		<path class="st32" d="M95.7,50.8l-15.2-8.8c-0.5-0.3-1.1-0.3-1.5,0.1l0,0L75.6,44l1.6,2.1l0.6,0.7v15.1c0,0.9,0.4,1.7,1.2,2.1
			l11.4,6.6l0.1,0.7l2.3,3.3l3.5-2.1l0,0c0.3-0.2,0.6-0.5,0.6-0.9V53.2C96.9,52.3,96.5,51.4,95.7,50.8z"/>
		<path class="st33" d="M92.2,53L76.7,44c-0.6-0.3-1.3-0.1-1.6,0.5c-0.1,0.2-0.2,0.4-0.2,0.6v18.5c0,0.9,0.4,1.7,1.2,2.1l15.4,8.9
			c0.6,0.3,1.3,0.1,1.6-0.5c0.1-0.2,0.1-0.4,0.1-0.6V55.2C93.3,54.3,92.9,53.4,92.2,53z"/>
		<path class="st34" d="M93.4,73.6V55.2c0-0.3-0.1-0.6-0.2-0.9l3.5-2.1c0.1,0.3,0.2,0.6,0.2,0.8v18.5c0,0.4-0.2,0.8-0.6,1l0,0
			l-3.5,2.1C93.1,74.4,93.4,74,93.4,73.6z"/>
		<path class="st35" d="M157,53.3l-15.2-8.8c-0.5-0.3-1.1-0.3-1.5,0.1l0,0l-3.4,2l1.6,2.1l0.6,0.7v15.1c0,0.9,0.4,1.7,1.2,2.1
			l11.4,6.6l0.1,0.7l2.3,3.3l3.5-2.1l0,0c0.3-0.2,0.5-0.6,0.6-0.9V55.5C158.2,54.6,157.8,53.8,157,53.3z"/>
		<path class="st36" d="M153.5,55.4L138,46.6c-0.6-0.3-1.3-0.1-1.6,0.5c-0.1,0.2-0.2,0.4-0.2,0.6V66c0,0.9,0.4,1.7,1.2,2.1l15.4,8.9
			c0.6,0.3,1.3,0.1,1.6-0.5c0.1-0.2,0.2-0.4,0.2-0.6V57.6C154.7,56.7,154.3,55.9,153.5,55.4z"/>
		<path class="st37" d="M154.8,76V57.6c0-0.3-0.1-0.6-0.2-0.9l3.5-2.1c0.1,0.3,0.2,0.6,0.2,0.8v18.4c0,0.4-0.2,0.8-0.6,0.9l0,0
			l-3.5,2.1C154.5,76.8,154.7,76.4,154.8,76z"/>
		<path class="st38" d="M194.5,97.2l-16-9.2c-0.5-0.3-1.1-0.3-1.6,0.1l0,0l-3.5,2l1.6,2.2l0.6,0.7v15.8c0,0.9,0.5,1.8,1.3,2.3
			l11.9,6.9l0.1,0.7l2.4,3.4l3.7-2.2l0,0c0.4-0.2,0.6-0.6,0.6-1V99.6C195.9,98.6,195.4,97.7,194.5,97.2z"/>
		<path class="st39" d="M190.8,99.4l-16.1-9.3c-0.6-0.3-1.3-0.1-1.6,0.4c-0.1,0.2-0.2,0.4-0.2,0.6v19.3c0,0.9,0.5,1.8,1.3,2.3
			l16.1,9.3c0.6,0.4,1.3,0.2,1.7-0.4c0.1-0.2,0.2-0.4,0.2-0.7v-19.2C192.2,100.8,191.7,99.9,190.8,99.4z"/>
		<path class="st40" d="M191.5,122.1L191.5,122.1L191.5,122.1z"/>
		<path class="st41" d="M192.1,121v-19.2c0-0.3-0.1-0.6-0.2-0.9l3.7-2.2c0.1,0.3,0.2,0.6,0.2,0.9v19.2c0,0.4-0.2,0.8-0.6,1l0,0
			l-3.7,2.2C191.9,121.9,192.2,121.5,192.1,121z"/>
		
			<linearGradient id="SVGID_1_" gradientUnits="userSpaceOnUse" x1="117.6402" y1="113.3573" x2="119.1778" y2="113.3573" gradientTransform="matrix(1 0 0 -1 0 232)">
			<stop  offset="0" style="stop-color:#F57076"/>
			<stop  offset="1" style="stop-color:#9C3467"/>
		</linearGradient>
		<polygon class="st42" points="118.1,116.9 119.2,116.2 118.7,120.4 117.6,121 		"/>
		
			<linearGradient id="SVGID_2_" gradientUnits="userSpaceOnUse" x1="109.7749" y1="122.3688" x2="132.5372" y2="122.3688" gradientTransform="matrix(1 0 0 -1 0 232)">
			<stop  offset="0" style="stop-color:#F57076"/>
			<stop  offset="1" style="stop-color:#9C3467"/>
		</linearGradient>
		<path class="st43" d="M131.4,106.9l-19.8-11.4c-0.2-0.2-0.5-0.2-0.8-0.1l-1.1,0.6c0.3-0.1,0.6-0.1,0.8,0.1l19.8,11.4
			c0.6,0.4,1,1.1,1.1,1.9v13.9c0,0.3-0.1,0.5-0.3,0.7l1.1-0.6c0.2-0.2,0.4-0.4,0.3-0.7v-13.9C132.5,108,132.1,107.3,131.4,106.9z"/>
		
			<linearGradient id="SVGID_3_" gradientUnits="userSpaceOnUse" x1="116.1858" y1="140.9923" x2="127.5457" y2="90.3712" gradientTransform="matrix(1 0 0 -1 0 232)">
			<stop  offset="0" style="stop-color:#F57076"/>
			<stop  offset="1" style="stop-color:#9C3467"/>
		</linearGradient>
		<path class="st44" d="M130.3,107.5c0.6,0.4,1,1.1,1.1,1.9v13.9c0,0.7-0.5,1-1.1,0.6l-12.2-7.1l-0.4,4.2l-2.3-5.7l-4.8-2.8
			c-0.6-0.4-1-1.1-1.1-1.9V96.7c0-0.7,0.5-0.9,1.1-0.6L130.3,107.5z"/>
		<path class="st45" d="M130.3,107.5c0.7,0.4,1.1,1.2,1.1,2v13.6c0,0.8-0.6,1.1-1.3,0.7l-11.9-6.9c0,0-0.1,0-0.1,0c0,0,0,0,0,0.1
			l-0.4,3.7c0,0,0,0.1-0.1,0.1c0,0-0.1,0-0.1-0.1l-2.2-5.5c0,0,0,0,0-0.1l-4.7-2.7c-0.7-0.4-1.1-1.2-1.2-2V96.8
			c0-0.8,0.6-1.1,1.3-0.7L130.3,107.5z"/>
		
			<linearGradient id="SVGID_4_" gradientUnits="userSpaceOnUse" x1="113.1584" y1="132.2659" x2="123.633" y2="106.3683" gradientTransform="matrix(1 0 0 -1 0 232)">
			<stop  offset="0" style="stop-color:#B49FDB"/>
			<stop  offset="1" style="stop-color:#FFF9FF"/>
		</linearGradient>
		<path class="st46" d="M117,104.7l-2.1,5.1l0.8,0.4l0.6-1.6l2.3,1.3l0.6,2.3l0.8,0.5l-2.2-7.6L117,104.7z M116.4,108.1l0.6-1.5
			c0.1-0.3,0.2-0.7,0.3-1c0.1,0.4,0.2,0.9,0.4,1.5l0.6,2.1L116.4,108.1z"/>
		<polygon class="st20" points="112,102.6 114.9,104.3 114.9,103.6 111.3,101.4 111.2,107.7 112,108.1 112,105.3 114.5,106.8 
			114.5,106 112,104.5 		"/>
		<path class="st20" d="M125.3,114.1c0.2-0.4,0.2-0.8,0.2-1.3c0-0.6-0.1-1.3-0.3-1.9c-0.2-0.6-0.5-1.2-0.9-1.7
			c-0.4-0.5-0.8-0.9-1.4-1.2c-0.4-0.3-0.9-0.4-1.4-0.4c-0.4,0-0.8,0.3-0.9,0.6c-0.2,0.5-0.4,1-0.3,1.5c0,0.6,0.1,1.3,0.3,1.9
			c0.2,0.6,0.5,1.2,0.9,1.7c0.4,0.5,0.8,0.9,1.4,1.2c0.4,0.3,0.9,0.4,1.3,0.4c0.3,0.5,0.7,1,1.2,1.4l0.2-0.5
			c-0.3-0.3-0.6-0.7-0.9-1.1C125,114.7,125.2,114.4,125.3,114.1z M124.1,114c-0.3-0.4-0.6-0.8-1-1.2l-0.2,0.5
			c0.3,0.2,0.5,0.5,0.7,0.8c-0.3,0-0.5-0.1-0.7-0.3c-0.6-0.3-1-0.8-1.4-1.4c-0.4-0.7-0.5-1.4-0.5-2.2c0-0.8,0.2-1.4,0.5-1.6
			c0.4-0.2,1-0.2,1.3,0.1c0.4,0.2,0.7,0.5,0.9,0.9c0.3,0.4,0.5,0.8,0.7,1.3c0.2,0.5,0.2,1,0.2,1.5
			C124.8,113.3,124.6,113.8,124.1,114L124.1,114z"/>
		
			<linearGradient id="SVGID_5_" gradientUnits="userSpaceOnUse" x1="119.9289" y1="135.0039" x2="130.4035" y2="109.1063" gradientTransform="matrix(1 0 0 -1 0 232)">
			<stop  offset="0" style="stop-color:#B49FDB"/>
			<stop  offset="1" style="stop-color:#FFF9FF"/>
		</linearGradient>
		<polygon class="st47" points="127.6,117.2 128.4,117.6 128.4,116.8 127.6,116.3 		"/>
		<path class="st20" d="M129.3,112.3c-0.3-0.5-0.8-0.9-1.3-1.2c-0.3-0.3-0.8-0.4-1.2-0.2c-0.3,0.1-0.5,0.5-0.6,1l0.7,0.5
			c0.1-0.4,0.2-0.7,0.4-0.7c0.2-0.1,0.5,0,0.7,0.1c0.3,0.2,0.6,0.5,0.8,0.8c0.2,0.3,0.3,0.6,0.3,0.9c0,0.1,0,0.3-0.1,0.4
			c-0.1,0.1-0.3,0.2-0.5,0.3c-0.2,0.1-0.3,0.2-0.5,0.3c-0.1,0.1-0.2,0.2-0.3,0.3c-0.1,0.2-0.1,0.5-0.1,0.7c0,0.1,0,0.1,0,0.2
			l0.6,0.4c0-0.2,0-0.4,0.1-0.6c0-0.1,0.1-0.2,0.1-0.3c0.1-0.1,0.3-0.2,0.4-0.2c0.3-0.1,0.5-0.3,0.7-0.5c0.1-0.2,0.2-0.4,0.2-0.7
			C129.8,113.2,129.6,112.7,129.3,112.3z"/>
		<path class="st48" d="M117,104.7l-2.1,5.1l0.8,0.4l0.6-1.6l2.3,1.3l0.6,2.3l0.8,0.5l-2.2-7.6L117,104.7z M116.4,108.1l0.6-1.5
			c0.1-0.3,0.2-0.7,0.3-1c0.1,0.4,0.2,0.9,0.4,1.5l0.6,2.1L116.4,108.1z"/>
		<polygon class="st49" points="112,102.6 114.9,104.3 114.9,103.6 111.3,101.4 111.2,107.7 112,108.1 112,105.3 114.5,106.8 
			114.5,106 112,104.5 		"/>
		<path class="st49" d="M125.3,114.1c0.2-0.4,0.2-0.8,0.2-1.3c0-0.6-0.1-1.3-0.3-1.9c-0.2-0.6-0.5-1.2-0.9-1.7
			c-0.4-0.5-0.8-0.9-1.4-1.2c-0.4-0.3-0.9-0.4-1.4-0.4c-0.4,0-0.8,0.3-0.9,0.6c-0.2,0.5-0.4,1-0.3,1.5c0,0.6,0.1,1.3,0.3,1.9
			c0.2,0.6,0.5,1.2,0.9,1.7c0.4,0.5,0.8,0.9,1.4,1.2c0.4,0.3,0.9,0.4,1.3,0.4c0.3,0.5,0.7,1,1.2,1.4l0.2-0.5
			c-0.3-0.3-0.6-0.7-0.9-1.1C125,114.7,125.2,114.4,125.3,114.1z M124.1,114c-0.3-0.4-0.6-0.8-1-1.2l-0.2,0.5
			c0.3,0.2,0.5,0.5,0.7,0.8c-0.3,0-0.5-0.1-0.7-0.3c-0.6-0.3-1-0.8-1.4-1.4c-0.4-0.7-0.5-1.4-0.5-2.2c0-0.8,0.2-1.4,0.5-1.6
			c0.4-0.2,1-0.2,1.3,0.1c0.4,0.2,0.7,0.5,0.9,0.9c0.3,0.4,0.5,0.8,0.7,1.3c0.2,0.5,0.2,1,0.2,1.5
			C124.8,113.3,124.6,113.8,124.1,114L124.1,114z"/>
		<polygon class="st49" points="127.6,117.2 128.4,117.6 128.4,116.8 127.6,116.3 		"/>
		<path class="st49" d="M129.3,112.3c-0.3-0.5-0.8-0.9-1.3-1.2c-0.3-0.3-0.8-0.4-1.2-0.2c-0.3,0.1-0.5,0.5-0.6,1l0.7,0.5
			c0.1-0.4,0.2-0.7,0.4-0.7c0.2-0.1,0.5,0,0.7,0.1c0.3,0.2,0.6,0.5,0.8,0.8c0.2,0.3,0.3,0.6,0.3,0.9c0,0.1,0,0.3-0.1,0.4
			c-0.1,0.1-0.3,0.2-0.5,0.3c-0.2,0.1-0.3,0.2-0.5,0.3c-0.1,0.1-0.2,0.2-0.3,0.3c-0.1,0.2-0.1,0.5-0.1,0.7c0,0.1,0,0.1,0,0.2
			l0.6,0.4c0-0.2,0-0.4,0.1-0.6c0-0.1,0.1-0.2,0.1-0.3c0.1-0.1,0.3-0.2,0.4-0.2c0.3-0.1,0.5-0.3,0.7-0.5c0.1-0.2,0.2-0.4,0.2-0.7
			C129.8,113.2,129.6,112.7,129.3,112.3z"/>
		<path class="st20" d="M144.4,66.8c-0.3,0.4-0.5,0.7-0.8,1.1c-0.1,0.2-0.3,0.3-0.6,0.2c0,0-0.1,0-0.1-0.1c-0.2-0.2-0.4-0.4-0.5-0.6
			l-0.7-1.9c0-0.1-0.1-0.2-0.2-0.2c-0.3-0.1-0.5-0.3-0.8-0.4c-0.8-0.4-1.3-1.1-1.5-1.9c-0.1-0.2-0.1-0.5-0.1-0.7
			c0-2.7,0.1-5.3,0.1-8c0-0.2,0-0.5,0.1-0.7c0.2-0.4,0.6-0.6,1-0.5c0,0,0,0,0,0c0.1,0,0.2,0.1,0.3,0.1c3.2,1.7,6.4,3.3,9.6,4.9
			c0.8,0.4,1.4,1.1,1.5,2c0,0.2,0.1,0.4,0.1,0.6c0,2.7,0,5.4-0.1,8.1c0,0.2,0,0.4-0.1,0.6c-0.1,0.4-0.6,0.7-1,0.5c0,0,0,0,0,0
			c-0.1,0-0.2-0.1-0.3-0.1l-5.8-3L144.4,66.8z M148.2,61.2c0-0.3-0.2-0.6-0.4-0.7l-4.2-2.2c-0.2-0.1-0.4,0-0.4,0.3
			c0,0.3,0.2,0.6,0.5,0.8l4.2,2.1C148,61.7,148.2,61.6,148.2,61.2z M143.1,61.7c0,0.3,0.2,0.6,0.5,0.7l0.7,0.4l3.4,1.8
			c0.3,0.1,0.5,0,0.5-0.3c0-0.3-0.2-0.6-0.5-0.8l-4.1-2.1C143.3,61.2,143.1,61.3,143.1,61.7z"/>
		<path class="st20" d="M85.2,63.3L85,63.2l-2.8-1.6c-0.1,0-0.1-0.1-0.1-0.2c0-0.9,0.1-1.9,0.1-2.9c0-0.1,0-0.1,0.1-0.1
			c0.6-0.2,1.2-0.5,1.9-0.7c0.4-0.1,0.6-0.5,0.6-0.9c0,0,0-0.1,0-0.1c-0.1-0.5-0.3-0.9-0.7-1.2c-0.1-0.1-0.2-0.1-0.3-0.2
			c-0.3-0.1-0.6-0.1-0.7,0.2c0,0.1-0.1,0.1-0.1,0.2c0,0.2,0,0.4,0,0.6l-0.1-0.1L80,54.8c-0.1,0-0.1-0.1-0.1-0.2
			c0-0.6,0.1-1.1,0.3-1.7c0.3-0.7,0.9-1.3,1.7-1.4c0.5-0.1,1.1,0,1.6,0.2c0.9,0.4,1.6,1,2.2,1.7c1,1.2,1.7,2.6,2,4.1
			c0.2,0.8,0.1,1.7-0.2,2.5c-0.2,0.6-0.7,1.1-1.4,1.4c-0.3,0.1-0.5,0.2-0.8,0.3c-0.1,0-0.1,0.1-0.1,0.2
			C85.2,62.4,85.2,62.8,85.2,63.3z"/>
		<path class="st20" d="M82.1,64.2c0-0.2,0.1-0.4,0.1-0.6c0.1-0.4,0.6-0.7,1-0.5c0,0,0,0,0,0c0.4,0.1,0.7,0.3,0.9,0.6
			c0.5,0.5,0.9,1.2,0.9,2c0,0.3,0,0.5-0.1,0.7c-0.1,0.4-0.6,0.7-1,0.6c0,0,0,0-0.1,0c-0.3-0.1-0.5-0.2-0.7-0.4
			C82.5,65.9,82.1,65.1,82.1,64.2z"/>
		<path class="st20" d="M178.4,102.7c0-1.2,0.1-2.4,0.4-3.5c0.1-0.4,0.4-0.7,0.8-0.6c0.1,0,0.2,0.1,0.3,0.1l1.9,1.1
			c0.5,0.3,0.8,0.9,0.7,1.5c-0.2,0.7-0.3,1.5-0.3,2.3c0,0.2,0,0.4-0.1,0.6c-0.1,0.1-0.2,0.2-0.3,0.3c-0.4,0.3-0.8,0.5-1.2,0.8
			c-0.1,0-0.1,0.1-0.1,0.2c0.3,1.7,0.9,3.3,1.9,4.7c0.2,0.3,0.2,0.3,0.5,0.2l1.2-0.3c0.2,0,0.4,0,0.6,0.1c0.1,0.1,0.2,0.1,0.3,0.2
			c0.5,0.5,1.1,1,1.7,1.4c0.5,0.3,0.8,0.9,0.6,1.5c-0.2,0.8-0.4,1.5-0.6,2.3c-0.1,0.4-0.5,0.6-0.9,0.6c-0.1,0-0.2-0.1-0.3-0.1
			c-1.5-0.9-2.8-2-3.8-3.4c-1.6-2.1-2.7-4.5-3.2-7.2C178.5,104.5,178.4,103.6,178.4,102.7z"/>
	</g>
</g>
</svg>
