<?xml version="1.0" encoding="iso-8859-1"?>
<!-- Generator: Adobe Illustrator 24.0.1, SVG Export Plug-In . SVG Version: 6.00 Build 0)  -->
<svg version="1.1" id="Layer_3" xmlns="http://www.w3.org/2000/svg" xmlns:xlink="http://www.w3.org/1999/xlink" x="0px" y="0px"
	 viewBox="0 0 150 150" style="enable-background:new 0 0 150 150;" xml:space="preserve">
<g id="YFmaUt.tif">
	<g>
		<linearGradient id="SVGID_1_" gradientUnits="userSpaceOnUse" x1="74.8659" y1="144.8" x2="74.8659" y2="6.7003">
			<stop  offset="0" style="stop-color:#6368FF"/>
			<stop  offset="1" style="stop-color:#9530FF"/>
		</linearGradient>
		<path style="fill:url(#SVGID_1_);" d="M144.277,45.296c-0.449,2.885-0.908,5.769-1.343,8.656
			c-0.221,1.469-0.359,2.952-0.607,4.416c-0.28,1.658-1.162,2.363-2.843,2.173c-2.506-0.282-4.996-0.694-7.499-1.002
			c-0.796-0.098-1.66-0.223-2.407-0.019c-1.472,0.401-1.941,2.279-0.942,3.674c1.498,2.091,3.072,4.129,4.619,6.185
			c1.661,2.206,1.537,3.145-0.681,4.813c-3.175,2.388-6.354,4.77-9.538,7.145c-1.745,1.302-2.816,1.173-4.129-0.538
			c-1.567-2.041-3.113-4.099-4.632-6.175c-0.758-1.035-1.679-1.721-2.982-1.323c-1.234,0.376-1.594,1.421-1.74,2.633
			c-0.313,2.592-0.703,5.176-1.088,7.759c-0.254,1.704-1.128,2.473-2.891,2.266c-3.532-0.414-7.049-0.958-10.572-1.456
			c-0.892-0.126-1.783-0.258-2.668-0.423c-1.478-0.275-2.165-1.018-2.022-2.525c0.23-2.419,0.621-4.823,0.939-7.233
			c0.071-0.536,0.14-1.073,0.185-1.611c0.09-1.063-0.157-1.98-1.195-2.503c-1.009-0.507-1.928-0.252-2.779,0.382
			c-2.172,1.618-4.326,3.259-6.509,4.863c-1.604,1.179-2.727,1.014-3.918-0.564c-2.529-3.351-5.049-6.709-7.55-10.082
			c-1.314-1.772-1.156-2.757,0.604-4.09c2.087-1.581,4.171-3.167,6.283-4.714c0.973-0.713,1.478-1.592,1.195-2.788
			c-0.262-1.106-1.083-1.587-2.157-1.744c-2.807-0.412-5.615-0.813-8.415-1.272c-1.673-0.274-2.364-1.149-2.139-2.841
			c0.588-4.419,1.234-8.831,1.898-13.239c0.218-1.448,1.414-2.262,2.841-2.05c2.761,0.41,5.521,0.83,8.281,1.243
			c1.113,0.166,2.094-0.07,2.703-1.091c0.604-1.012,0.386-1.98-0.3-2.89c-1.549-2.054-3.122-4.093-4.612-6.19
			c-0.553-0.778-0.899-1.702-1.439-2.753c-3.846,0.041-7.882,0.656-11.767,2.029c-13.114,4.636-21.747,13.696-25.38,27.055
			c-4.279,15.734,1.681,32.378,15.225,41.879c2.982,2.091,6.05,4.125,7.386,7.673c0.811,2.154,1.348,4.482,1.558,6.773
			c0.263,2.868,0.055,5.778,0.066,8.669c0.011,2.996,1.813,4.991,4.833,5.033c6.008,0.083,12.019,0.081,18.028,0.001
			c3.03-0.04,4.765-1.976,4.819-5.027c0.061-3.43-0.005-6.869,0.23-10.287c0.3-4.362,2.374-7.899,5.763-10.615
			c2.003-1.604,4.129-3.054,6.349-4.683c0.913,1.015,1.865,2.072,2.984,3.315c-1.694,1.284-3.264,2.625-4.979,3.743
			c-4.069,2.65-5.951,6.318-5.796,11.176c0.097,3.061,0.033,6.142-0.202,9.195c-0.189,2.454-1.56,4.398-3.553,5.824
			c-0.629,0.45-0.847,0.908-0.84,1.657c0.034,3.66,0.019,7.32,0.015,10.979c-0.007,5.815-3.518,9.691-9.326,9.952
			c-3.463,0.155-6.955,0.042-10.415-0.21c-3.945-0.288-7.414-3.782-7.631-7.72c-0.235-4.278-0.197-8.572-0.223-12.86
			c-0.005-0.843-0.226-1.366-0.936-1.889c-2.596-1.909-3.646-4.613-3.675-7.763c-0.017-1.888-0.003-3.777-0.003-6.055
			c-1.175,1.166-2.108,2.097-3.047,3.023c-1.561,1.539-2.3,1.609-4.13,0.367c-1.856-1.26-3.701-2.535-5.729-3.925
			c-0.53,2.464-1.021,4.723-1.501,6.985c-0.384,1.811-1.122,2.446-2.974,2.457c-2.666,0.015-5.332,0.019-7.997-0.002
			c-1.76-0.014-2.517-0.672-2.887-2.399c-0.48-2.242-0.966-4.482-1.454-6.722c-0.006-0.029-0.065-0.047-0.265-0.181
			c-1.594,1.09-3.256,2.221-4.912,3.36c-2.628,1.807-3.04,1.773-5.277-0.465c-1.789-1.789-3.588-3.569-5.364-5.371
			c-1.362-1.383-1.431-2.206-0.349-3.812c1.299-1.929,2.617-3.846,4.028-5.918c-2.496-0.537-4.766-1.026-7.036-1.513
			c-1.727-0.371-2.38-1.124-2.396-2.89c-0.024-2.666-0.021-5.332-0.001-7.997c0.014-1.854,0.654-2.594,2.46-2.976
			c2.238-0.474,4.474-0.958,6.96-1.491c-1.028-1.511-1.971-2.913-2.929-4.305c-2.522-3.668-2.524-3.666,0.632-6.823
			c1.566-1.565,3.119-3.144,4.702-4.691c1.297-1.268,2.212-1.34,3.72-0.318c1.933,1.309,3.849,2.642,5.96,4.093
			c0.5-2.327,1.045-4.441,1.389-6.588c0.291-1.818,1.127-2.896,2.709-2.91c0.973-4.12,1.585-8.204,2.909-12.043
			c3.955-11.466,11.572-19.808,22.479-25.11c6.973-3.39,14.37-4.547,22.073-4.085c0.682,0.041,1.497-0.254,2.071-0.651
			c1.856-1.282,3.618-2.698,5.435-4.037c1.673-1.232,2.786-1.087,4.05,0.558c1.54,2.004,3.042,4.038,4.551,6.066
			c0.728,0.979,1.536,1.86,2.902,1.539c1.426-0.334,1.787-1.515,1.968-2.778c0.369-2.585,0.724-5.173,1.106-7.757
			c0.248-1.674,1.087-2.402,2.793-2.185c4.377,0.556,8.75,1.157,13.11,1.835c1.874,0.291,2.501,1.354,2.216,3.184
			c-0.423,2.714-0.922,5.422-1.162,8.153c-0.07,0.793,0.446,1.843,1.035,2.436c0.767,0.772,1.849,0.547,2.731-0.107
			c2.139-1.586,4.268-3.187,6.4-4.782c1.999-1.496,2.977-1.348,4.507,0.688c2.386,3.177,4.777,6.349,7.151,9.535
			c1.443,1.937,1.283,2.988-0.618,4.415c-2.022,1.517-4.044,3.035-6.063,4.556c-0.908,0.683-1.636,1.492-1.312,2.731
			c0.328,1.253,1.265,1.73,2.511,1.881c2.502,0.303,4.991,0.721,7.49,1.05c1.287,0.169,2.315,0.66,2.874,1.899
			C144.277,44.573,144.277,44.934,144.277,45.296z M129.405,21.891c-1.965,1.445-3.812,2.881-5.739,4.2
			c-2.143,1.466-4.471,1.57-6.806,0.493c-2.977-1.374-4.324-4.522-3.671-8.22c0.319-1.806,0.528-3.632,0.809-5.61
			c-3.139-0.447-6.133-0.873-9.193-1.308c-0.232,1.623-0.344,3.111-0.676,4.548c-0.399,1.729-0.639,3.634-1.554,5.078
			c-2.386,3.766-7.775,3.978-10.7,0.564c-1.548-1.807-2.919-3.767-4.431-5.738c-2.509,1.887-4.943,3.718-7.376,5.548
			c1.512,2.063,3.016,3.932,4.317,5.933c1.898,2.919,1.303,6.482-1.295,8.804c-2.068,1.849-4.499,1.798-7.016,1.408
			c-1.705-0.264-3.418-0.477-5.16-0.718c-0.442,3.189-0.853,6.153-1.273,9.182c1.589,0.221,2.969,0.4,4.345,0.606
			c2.134,0.32,4.299,0.52,6.011,2.098c3.249,2.995,2.893,7.866-0.846,10.798c-1.651,1.294-3.348,2.53-5.085,3.838
			c1.905,2.537,3.713,4.945,5.575,7.424c1.831-1.372,3.57-2.733,5.37-4.008c2.548-1.806,5.46-1.904,7.86-0.347
			c2.449,1.588,3.541,4.364,3.02,7.422c-0.337,1.98-0.552,3.98-0.834,6.058c1.625,0.219,3.092,0.41,4.557,0.617
			c1.504,0.212,3.005,0.44,4.602,0.675c0.349-2.367,0.657-4.589,1.01-6.803c0.305-1.915,1.247-3.459,2.861-4.556
			c3.012-2.045,6.769-1.566,9.117,1.251c1.517,1.82,2.901,3.752,4.366,5.662c2.523-1.901,4.928-3.713,7.378-5.559
			c-1.469-2.003-2.935-3.837-4.219-5.791c-1.642-2.501-1.617-5.135,0.053-7.609c1.643-2.433,4.037-3.319,6.936-2.893
			c2.078,0.306,4.162,0.578,6.368,0.882c0.446-3.072,0.877-6.039,1.332-9.171c-1.897-0.277-3.704-0.596-5.524-0.797
			c-3.609-0.398-5.973-2.156-6.852-5.194c-0.808-2.792,0.331-5.611,3.136-7.743c1.568-1.191,3.142-2.375,4.788-3.619
			C133.069,26.772,131.265,24.368,129.405,21.891z M38.172,112.488c0.39-1.769,0.775-3.513,1.158-5.257
			c0.824-3.754,4.217-5.159,7.418-3.051c1.281,0.843,2.501,1.783,3.813,2.573c0.311,0.187,1.024,0.112,1.305-0.129
			c1.024-0.882,1.944-1.885,2.903-2.842c1.688-1.685,1.688-1.685,0.419-3.694c-0.024-0.038-0.055-0.072-0.077-0.111
			c-1.735-2.993-4.934-4.27-7.429-6.463c-3.785,6.068-9.109,8.69-16.023,6.917c-5.978-1.533-9.961-6.481-10.011-12.782
			c-0.063-7.913,4.473-12.456,12.062-14.256c-0.361-1.263-0.744-2.456-1.036-3.672c-0.281-1.169-0.467-2.361-0.752-3.842
			c-0.204,0.521-0.313,0.721-0.362,0.935c-1.022,4.393-4.228,5.624-7.979,3.057c-1.33-0.91-2.658-1.822-3.825-2.622
			c-1.497,1.487-2.863,2.844-4.305,4.276c0.976,1.435,2.045,2.937,3.041,4.485c1.984,3.085,0.551,6.476-3.035,7.255
			c-1.783,0.387-3.565,0.775-5.321,1.156c0,1.935,0,3.731,0,5.554c1.765,0.383,3.475,0.762,5.19,1.124
			c3.755,0.792,5.204,4.211,3.112,7.405c-0.84,1.283-1.784,2.5-2.576,3.81c-0.192,0.318-0.148,1.038,0.089,1.311
			c0.948,1.087,1.981,2.107,3.062,3.063c0.251,0.222,0.923,0.275,1.213,0.097c1.306-0.8,2.532-1.73,3.811-2.576
			c3.251-2.151,6.671-0.712,7.482,3.123c0.367,1.736,0.76,3.467,1.131,5.158C34.58,112.488,36.335,112.488,38.172,112.488z
			 M35.034,96.358c3.392,0.278,7.021-1.873,8.589-5.018c0.376-0.754,0.34-1.26-0.259-1.887c-2.784-2.915-5.097-6.175-6.945-9.762
			c-1.047-2.031-1.08-2.044-3.31-1.444c-4.491,1.206-7.187,5.016-6.938,9.431C26.449,92.603,30.036,95.948,35.034,96.358z
			 M65.925,133.236c0,0.74-0.003,1.324,0,1.908c0.016,3.155,1.886,5.035,5.026,5.042c2.703,0.006,5.415-0.131,8.109,0.034
			c3.557,0.218,6.247-2.511,5.094-6.984C78.135,133.236,72.113,133.236,65.925,133.236z M66.037,123.959c0,1.697,0,3.199,0,4.712
			c6.141,0,12.169,0,18.264,0c0-1.578,0-3.081,0-4.667c-0.389-0.018-0.695-0.044-1.001-0.044
			C77.577,123.958,71.853,123.959,66.037,123.959z"/>
		<linearGradient id="SVGID_2_" gradientUnits="userSpaceOnUse" x1="35.9593" y1="25.5263" x2="35.9593" y2="5.9836">
			<stop  offset="0" style="stop-color:#6368FF"/>
			<stop  offset="1" style="stop-color:#9530FF"/>
		</linearGradient>
		<path style="fill:url(#SVGID_2_);" d="M35.83,5.984c1.533,6.084,3.066,12.168,4.632,18.384c-1.402,0.376-2.776,0.744-4.322,1.159
			c-1.562-6.093-3.117-12.156-4.683-18.265c1.411-0.439,2.757-0.858,4.102-1.278C35.649,5.984,35.74,5.984,35.83,5.984z"/>
		<linearGradient id="SVGID_3_" gradientUnits="userSpaceOnUse" x1="60.1792" y1="103.2739" x2="60.1792" y2="32.3147">
			<stop  offset="0" style="stop-color:#6368FF"/>
			<stop  offset="1" style="stop-color:#9530FF"/>
		</linearGradient>
		<path style="fill:url(#SVGID_3_);" d="M77.332,103.274c-1.533,0-2.878,0-4.174,0c-0.444-1.826-0.705-3.664-1.342-5.361
			c-1.356-3.612-3.838-6.318-7.392-7.869c-4.502-1.965-8.752-4.291-12.173-7.888c-6.654-6.997-9.863-15.291-9.124-24.975
			c0.812-10.652,5.935-18.785,14.779-24.866c0.453,0.701,0.86,1.324,1.261,1.951c0.384,0.6,0.761,1.204,0.971,1.536
			c-2.357,2.339-4.84,4.348-6.77,6.794C42.254,56.677,47.463,77.488,63.885,84.79c3.813,1.696,7.325,3.698,9.797,7.164
			C76.069,95.302,77.403,98.997,77.332,103.274z"/>
		<linearGradient id="SVGID_4_" gradientUnits="userSpaceOnUse" x1="21.0409" y1="33.7252" x2="21.0409" y2="18.5941">
			<stop  offset="0" style="stop-color:#6368FF"/>
			<stop  offset="1" style="stop-color:#9530FF"/>
		</linearGradient>
		<path style="fill:url(#SVGID_4_);" d="M11.711,22.258c0.906-1.265,1.733-2.42,2.624-3.664c5.35,3.819,10.616,7.579,16.036,11.448
			c-0.877,1.233-1.719,2.417-2.618,3.683C22.369,29.877,17.075,26.092,11.711,22.258z"/>
		<linearGradient id="SVGID_5_" gradientUnits="userSpaceOnUse" x1="17.5071" y1="50.211" x2="17.5071" y2="41.2553">
			<stop  offset="0" style="stop-color:#6368FF"/>
			<stop  offset="1" style="stop-color:#9530FF"/>
		</linearGradient>
		<path style="fill:url(#SVGID_5_);" d="M26.186,41.255c0.303,1.172,0.553,2.262,0.871,3.331c0.228,0.767,0.077,1.094-0.781,1.302
			c-5.716,1.389-11.415,2.848-17.272,4.322c-0.37-1.413-0.73-2.787-1.143-4.367C13.971,44.314,20.046,42.793,26.186,41.255z"/>
		<linearGradient id="SVGID_6_" gradientUnits="userSpaceOnUse" x1="123.5372" y1="118.8373" x2="123.5372" y2="103.9213">
			<stop  offset="0" style="stop-color:#6368FF"/>
			<stop  offset="1" style="stop-color:#9530FF"/>
		</linearGradient>
		<path style="fill:url(#SVGID_6_);" d="M115.223,107.387c1.006-1.205,1.924-2.305,2.893-3.466
			c4.593,3.826,9.13,7.604,13.734,11.439c-0.955,1.154-1.868,2.257-2.878,3.477C124.404,115.033,119.88,111.265,115.223,107.387z"/>
		<linearGradient id="SVGID_7_" gradientUnits="userSpaceOnUse" x1="127.0643" y1="96.2226" x2="127.0643" y2="91.9861">
			<stop  offset="0" style="stop-color:#6368FF"/>
			<stop  offset="1" style="stop-color:#9530FF"/>
		</linearGradient>
		<path style="fill:url(#SVGID_7_);" d="M135.014,91.986c0,1.453,0,2.796,0,4.237c-5.299,0-10.554,0-15.899,0
			c0-1.388,0-2.764,0-4.237C124.377,91.986,129.635,91.986,135.014,91.986z"/>
		<linearGradient id="SVGID_8_" gradientUnits="userSpaceOnUse" x1="107.361" y1="126.2538" x2="107.361" y2="110.423">
			<stop  offset="0" style="stop-color:#6368FF"/>
			<stop  offset="1" style="stop-color:#9530FF"/>
		</linearGradient>
		<path style="fill:url(#SVGID_8_);" d="M105.264,126.254c-0.022-0.319-0.056-0.582-0.056-0.844
			c-0.003-4.961-0.002-9.922-0.002-14.987c1.451,0,2.825,0,4.312,0c0,5.222,0,10.477,0,15.831
			C108.177,126.254,106.801,126.254,105.264,126.254z"/>
		<linearGradient id="SVGID_9_" gradientUnits="userSpaceOnUse" x1="75.1526" y1="114.6252" x2="75.1526" y2="107.9638">
			<stop  offset="0" style="stop-color:#6368FF"/>
			<stop  offset="1" style="stop-color:#9530FF"/>
		</linearGradient>
		<path style="fill:url(#SVGID_9_);" d="M73.033,107.964c1.45,0,2.787,0,4.238,0c0,2.199,0,4.372,0,6.661c-1.348,0-2.751,0-4.238,0
			C73.033,112.449,73.033,110.273,73.033,107.964z"/>
		<linearGradient id="SVGID_10_" gradientUnits="userSpaceOnUse" x1="104.5208" y1="64.7275" x2="104.5208" y2="27.9441">
			<stop  offset="0" style="stop-color:#6368FF"/>
			<stop  offset="1" style="stop-color:#9530FF"/>
		</linearGradient>
		<path style="fill:url(#SVGID_10_);" d="M86.174,46.371c-0.024-10.126,8.148-18.382,18.236-18.426
			c10.125-0.045,18.445,8.233,18.457,18.363c0.012,10.158-8.291,18.475-18.388,18.42C94.322,64.672,86.198,56.526,86.174,46.371z
			 M118.351,46.311c-0.029-7.641-6.234-13.803-13.882-13.785c-7.603,0.018-13.867,6.283-13.85,13.853
			c0.017,7.584,6.4,13.862,14.052,13.823C112.133,60.163,118.379,53.821,118.351,46.311z"/>
	</g>
</g>
</svg>
