<?xml version="1.0" encoding="iso-8859-1"?>
<!-- Generator: Adobe Illustrator 24.0.1, SVG Export Plug-In . SVG Version: 6.00 Build 0)  -->
<svg version="1.1" id="Layer_3" xmlns="http://www.w3.org/2000/svg" xmlns:xlink="http://www.w3.org/1999/xlink" x="0px" y="0px"
	 viewBox="0 0 150 150" style="enable-background:new 0 0 150 150;" xml:space="preserve">
<g id="_x39_2A2Li.tif">
	<g>
		<linearGradient id="SVGID_1_" gradientUnits="userSpaceOnUse" x1="13.6494" y1="74.8394" x2="129.8069" y2="74.8394">
			<stop  offset="0" style="stop-color:#6368FF"/>
			<stop  offset="1" style="stop-color:#9530FF"/>
		</linearGradient>
		<path style="fill:url(#SVGID_1_);" d="M72.531,5.003c1.375,0.396,2.847,0.597,4.108,1.222c4.493,2.227,6.636,5.966,6.628,10.964
			c-0.005,2.862,0.04,5.725-0.022,8.586c-0.021,0.972,0.271,1.432,1.221,1.744c7.103,2.332,13.112,6.354,17.98,12.015
			c6.285,7.309,9.593,15.826,9.864,25.46c0.134,4.767,0.073,9.541,0.03,14.311c-0.091,10.094,2.485,19.422,7.796,28.017
			c2.955,4.782,5.783,9.642,8.694,14.452c0.753,1.245,1.438,2.485,0.573,3.913c-0.812,1.34-2.163,1.469-3.583,1.467
			c-12.765-0.015-25.53-0.009-38.294-0.009c-0.494,0-0.987,0-1.542,0c0.905,6.841-1.409,12.179-7.342,15.56
			c-4.988,2.842-10.181,2.589-14.911-0.624c-5.15-3.499-7.186-8.557-6.252-14.936c-0.533,0-1.057,0-1.581,0
			c-12.856,0-25.711,0.002-38.567-0.002c-2.437-0.001-3.881-1.209-3.659-3.148c0.073-0.641,0.403-1.287,0.741-1.856
			c2.964-4.989,5.915-9.986,8.951-14.932c5.233-8.525,7.76-17.769,7.732-27.767c-0.017-5.947-0.235-11.933,0.329-17.835
			c1.08-11.288,6.426-20.429,15.265-27.514c3.715-2.978,7.879-5.149,12.392-6.631c0.856-0.281,1.099-0.691,1.094-1.549
			c-0.016-3.406-0.037-6.815,0.087-10.218c0.191-5.256,4.637-9.893,9.877-10.455c0.257-0.028,0.503-0.154,0.754-0.235
			C71.44,5.003,71.985,5.003,72.531,5.003z M121.817,121.338c-0.302-0.552-0.518-0.981-0.764-1.392
			c-2.051-3.422-4.106-6.842-6.164-10.259c-4.83-8.02-7.729-16.662-8.071-26.049c-0.215-5.898-0.098-11.808-0.238-17.71
			c-0.055-2.302-0.193-4.642-0.666-6.886c-1.581-7.491-5.152-13.924-10.966-18.958c-9.889-8.562-21.232-11.057-33.724-7.275
			C46.65,37.222,36.56,51.094,36.809,66.486c0.073,4.496,0.043,8.995,0.004,13.493c-0.074,8.536-1.565,16.807-5.504,24.429
			c-2.743,5.307-5.948,10.375-8.944,15.551c-0.239,0.414-0.458,0.839-0.751,1.38C55.082,121.338,88.349,121.338,121.817,121.338z
			 M71.711,127.145c-2.402,0-4.805,0.036-7.206-0.019c-0.846-0.019-1.351,0.223-1.309,1.089c0.079,1.646-0.076,3.383,0.405,4.914
			c1.377,4.383,6.331,6.636,10.917,5.193c4.186-1.318,6.823-6.104,5.719-10.257c-0.192-0.725-0.474-0.942-1.184-0.932
			C76.606,127.166,74.159,127.145,71.711,127.145z M65.991,25.595c3.844,0,7.667,0,11.434,0c0-3.387,0.177-6.791-0.057-10.165
			c-0.182-2.617-3.011-4.707-5.708-4.672c-2.738,0.035-5.451,2.137-5.618,4.777C65.831,18.867,65.991,22.224,65.991,25.595z"/>
	</g>
</g>
</svg>
