<?xml version="1.0" encoding="iso-8859-1"?>
<!-- Generator: Adobe Illustrator 24.0.1, SVG Export Plug-In . SVG Version: 6.00 Build 0)  -->
<svg version="1.1" id="Layer_3" xmlns="http://www.w3.org/2000/svg" xmlns:xlink="http://www.w3.org/1999/xlink" x="0px" y="0px"
	 viewBox="0 0 150 150" style="enable-background:new 0 0 150 150;" xml:space="preserve">
<g id="ouiVwj.tif">
	<g>
		<linearGradient id="SVGID_1_" gradientUnits="userSpaceOnUse" x1="6.8956" y1="74.8394" x2="143.1044" y2="74.8394">
			<stop  offset="0" style="stop-color:#6368FF"/>
			<stop  offset="1" style="stop-color:#9530FF"/>
		</linearGradient>
		<path style="fill:url(#SVGID_1_);" d="M6.896,123.611c0.228-1.119,0.394-2.255,0.692-3.355c2.058-7.591,8.285-12.76,16.175-13.464
			c0.085-0.008,0.167-0.052,0.388-0.125c-0.629-1.553-1.244-3.102-1.883-4.641C17.436,90.38,12.6,78.735,7.765,67.089
			c-1.435-3.457-0.529-5.701,2.9-7.126c5.801-2.41,11.605-4.815,17.412-7.21c3.255-1.342,5.504-0.413,6.843,2.817
			c3.829,9.237,7.664,18.471,11.457,27.722c0.445,1.085,0.848,1.655,2.187,1.209c1.109-0.369,2.349-0.342,3.769-0.52
			c-0.364-1.61-0.708-3.179-1.073-4.743c-3.346-14.335-6.701-28.668-10.031-43.006c-0.157-0.678-0.168-1.405-0.145-2.106
			c0.231-6.834,0.481-13.667,0.737-20.501c0.032-0.841,0.086-1.686,0.212-2.516c0.336-2.22,1.888-3.864,3.978-4.277
			c2.31-0.457,4.393,0.378,5.572,2.426c1.591,2.764,3.074,5.59,4.594,8.394c2.048,3.778,4.3,7.465,6.058,11.374
			c1.198,2.662,1.815,5.61,2.496,8.477c3.156,13.289,6.244,26.594,9.359,39.892c0.027,0.117,0.095,0.225,0.159,0.372
			c1.792-1.185,3.575-2.314,5.285-3.544c0.291-0.209,0.37-0.846,0.381-1.29c0.11-4.171,0.054-8.35,0.308-12.511
			c0.224-3.665,0.759-7.312,1.209-10.961c0.129-1.047,0.075-1.878-0.651-2.809c-4.74-6.08-4.184-13.491,0.759-18.752
			c2.767-2.945,5.035-6.402,7.254-9.807c1.616-2.48,1.971-5.364,1.298-8.322c-0.246-1.082-0.176-2.141,0.937-2.812
			C92.01,6.37,92.93,6.56,93.732,7.257c5.963,5.189,10.746,11.213,12.888,18.971c2.131,7.719,0.589,14.8-3.997,21.306
			c-0.466,0.661-0.782,1.594-0.773,2.396c0.075,6.576-0.103,13.133-1.075,19.651c-0.064,0.427-0.008,0.872-0.008,1.175
			c2.731,0.991,5.373,1.95,8.126,2.948c1.612-3.891,3.206-7.864,4.902-11.793c1.779-4.12,3.476-8.305,3.746-12.799
			c0.194-3.239,1.803-4.948,4.424-6.445c4.385-2.506,8.594-5.32,12.885-7.99c2.16-1.344,3.618-0.751,4.198,1.726
			c1.352,5.767,2.728,11.529,3.963,17.321c0.202,0.946,0.091,2.33-0.477,3.009c-4.079,4.879-6.588,10.56-8.914,16.384
			c-2.773,6.943-5.723,13.815-8.548,20.738c-0.283,0.695-0.319,1.524-0.326,2.292c-0.03,3.18-0.005,6.361-0.001,9.542
			c0,0.305,0,0.61,0,0.889c1.579,0.248,3.123,0.383,4.614,0.742c8.181,1.969,14.072,9.457,13.699,18.265
			c-0.385,9.07-7.047,16.153-15.869,17.262c-0.207,0.026-0.402,0.148-0.602,0.225c-34.388,0-68.775,0-103.163,0
			c-0.201-0.077-0.397-0.197-0.605-0.224c-7.314-0.941-13.198-6.01-15.157-13.103c-0.315-1.139-0.513-2.311-0.766-3.467
			C6.896,125.388,6.896,124.499,6.896,123.611z M75.053,138.539c16.571,0,33.143,0.005,49.714-0.012
			c1.057-0.001,2.13-0.086,3.17-0.273c6.847-1.229,11.946-8.368,10.847-15.137c-1.318-8.118-8.303-13.075-16.441-11.67
			c-2.025,0.35-3.265-0.967-2.731-2.959c1.011-3.769,1.384-7.575,0.798-11.453c-1.77-11.73-11.474-20.976-23.274-22.17
			c-11.489-1.163-22.403,5.366-26.849,16.064c-1.066,2.564-2.205,2.921-4.457,1.352c-3.203-2.231-6.771-3.469-10.631-3.806
			c-9.116-0.796-18.132,4.634-21.554,13.176c-0.921,2.298-1.346,4.85-1.636,7.327c-0.252,2.161-1.606,3.16-3.419,2.724
			c-1.724-0.415-3.603-0.47-5.382-0.316c-6.095,0.527-11.463,6.252-11.768,12.361c-0.419,8.411,5.628,14.79,14.032,14.792
			C41.999,138.541,58.526,138.539,75.053,138.539z M34,64.98c-2.765,1.139-5.375,2.231-8.001,3.28
			c-0.516,0.206-1.123,0.396-1.648,0.32c-0.998-0.145-1.679-0.766-1.809-1.842c-0.141-1.167,0.348-1.977,1.419-2.427
			c2.446-1.027,4.898-2.039,7.344-3.066c0.332-0.139,0.642-0.331,0.956-0.495c-0.618-1.466-1.165-2.762-1.757-4.168
			c-6.368,2.637-12.637,5.232-18.996,7.865c5.51,13.282,10.96,26.418,16.537,39.858c2.308-8.463,7.211-14.317,14.779-18.027
			c-0.644-1.536-1.251-2.984-1.876-4.475c-2.74,1.133-5.351,2.222-7.97,3.291c-1.551,0.632-2.899,0.222-3.374-0.991
			c-0.516-1.318,0.081-2.449,1.656-3.127c0.325-0.14,0.658-0.258,0.985-0.395c2.313-0.966,4.624-1.935,7.014-2.935
			c-0.627-1.492-1.198-2.85-1.788-4.256c-1.405,0.581-2.622,1.101-3.853,1.588c-1.567,0.621-2.79,0.187-3.294-1.137
			c-0.489-1.285,0.074-2.341,1.617-2.999c1.247-0.532,2.5-1.047,3.829-1.602C35.159,67.772,34.604,66.436,34,64.98z M47.073,41.75
			c0.199,0.844,0.391,1.65,0.579,2.458c3.036,12.995,6.066,25.991,9.127,38.98c0.096,0.409,0.427,0.976,0.765,1.076
			c1.421,0.42,2.886,0.691,4.473,1.047c-0.668-2.865-1.302-5.607-1.946-8.346c-1.264-5.377-2.543-10.751-3.795-16.131
			c-0.368-1.584,0.375-2.842,1.733-3.06c1.33-0.214,2.308,0.611,2.705,2.314c1.092,4.691,2.165,9.386,3.264,14.076
			c0.993,4.237,2.01,8.468,3.06,12.884c0.998-1.523,1.825-2.921,2.795-4.212c0.529-0.703,0.681-1.326,0.482-2.172
			c-3.151-13.377-6.278-26.76-9.414-40.14c-0.152-0.65-0.342-1.291-0.507-1.912c-1.16,0.857-2.137,1.701-3.232,2.343
			c-0.692,0.406-0.779,0.838-0.621,1.501c0.451,1.891,0.904,3.782,1.324,5.68c0.331,1.492-0.373,2.69-1.682,2.946
			c-1.222,0.24-2.288-0.573-2.642-2.036c-0.447-1.847-0.938-3.686-1.293-5.551c-0.149-0.782-0.487-0.98-1.211-1.063
			C49.768,42.289,48.517,42.007,47.073,41.75z M95.061,14.784c-1.147,2.513-1.983,5.132-3.439,7.344
			c-2.137,3.246-4.62,6.282-7.135,9.256c-3.075,3.635-3.349,8.584-0.487,12.351c0.608,0.8,1.289,1.198,2.336,1.236
			c3.634,0.133,7.269,0.321,10.894,0.602c0.956,0.074,1.443-0.229,1.95-0.959c4.276-6.156,5.029-12.704,2.279-19.667
			C99.934,21.082,97.839,17.587,95.061,14.784z M131.752,42.217c-0.075-0.066-0.149-0.133-0.224-0.199
			c-2.741,1.704-5.462,3.443-8.236,5.091c-0.786,0.467-1.013,1.085-1.201,1.895c-0.796,3.436-1.684,6.851-2.475,10.288
			c-0.136,0.589-0.147,1.339,0.102,1.864c1.693,3.57,5.767,5.681,9.692,5.099c1.592-0.236,2.769-0.812,3.493-2.529
			c0.923-2.184,2.066-4.391,3.596-6.173c1.862-2.169,2.182-4.24,1.314-6.854c-0.735-2.213-1.111-4.546-1.734-7.2
			c-1.198,2.867-2.175,5.378-3.313,7.814c-0.316,0.676-1.031,1.415-1.707,1.598c-0.612,0.166-1.722-0.177-2.062-0.673
			c-0.417-0.609-0.553-1.712-0.303-2.423C129.599,47.242,130.715,44.743,131.752,42.217z M117.064,65.654
			c-1.437,3.463-2.844,6.796-4.171,10.159c-0.106,0.269,0.242,0.881,0.547,1.125c3.66,2.923,6.524,6.475,8.598,10.671
			c0.105,0.213,0.262,0.4,0.489,0.74c2.437-5.887,4.812-11.623,7.248-17.507C124.633,71.111,120.503,69.348,117.064,65.654z
			 M45.558,26.66c0,2.646-0.029,5.117,0.028,7.586c0.01,0.427,0.29,0.937,0.603,1.253c2.007,2.032,4.448,2.979,7.244,2.209
			c2.613-0.72,4.261-2.601,5.058-5.186c0.11-0.358,0.169-0.849,0.011-1.154c-1.176-2.266-2.414-4.5-3.683-6.839
			C52.101,26.62,49.15,27.232,45.558,26.66z M97.19,61.44c-4.203-0.247-8.293-0.488-12.65-0.745c0,3.652,0,7.411,0,10.942
			c3.846-0.557,7.71-1.116,11.733-1.698C96.563,67.25,96.88,64.314,97.19,61.44z M97.346,56.941c0-2.568,0-4.7,0-6.886
			c-3.914-0.229-7.685-0.449-11.465-0.67c-0.297,2.32-0.565,4.414-0.88,6.876C89.152,56.489,93.181,56.711,97.346,56.941z
			 M46.254,22.181c2,0.484,3.96,0.314,5.665-1.065c0.278-0.225,0.473-0.949,0.321-1.245c-1.368-2.674-2.802-5.315-4.274-7.934
			c-0.192-0.341-0.708-0.501-1.074-0.744c-0.18,0.368-0.479,0.725-0.517,1.107c-0.101,1.011-0.111,2.033-0.117,3.051
			C46.244,17.598,46.254,19.844,46.254,22.181z"/>
		<linearGradient id="SVGID_2_" gradientUnits="userSpaceOnUse" x1="62.387" y1="116.9557" x2="102.2029" y2="116.9557">
			<stop  offset="0" style="stop-color:#6368FF"/>
			<stop  offset="1" style="stop-color:#9530FF"/>
		</linearGradient>
		<path style="fill:url(#SVGID_2_);" d="M87.004,112.372c6.891-2.905,12.827,0.567,14.99,5.23c0.315,0.68,0.271,1.837-0.12,2.441
			c-0.35,0.541-1.419,0.866-2.15,0.831c-0.558-0.027-1.324-0.651-1.583-1.203c-1.729-3.692-6.75-5.267-10.406-2.54
			c-1.512,1.127-2.704,0.663-3.757-1.193c-1.776-3.131-4.514-4.789-8.053-4.751c-3.644,0.039-6.442,1.794-8.126,5.086
			c-1.141,2.231-1.246,4.58-0.477,6.964c0.095,0.295,0.236,0.576,0.311,0.875c0.335,1.328-0.271,2.516-1.455,2.887
			c-1.129,0.353-2.231-0.226-2.767-1.456c-2.11-4.839-0.881-10.908,2.983-14.738c5.753-5.702,14.985-5.242,20.13,1.002
			C86.662,111.977,86.807,112.142,87.004,112.372z"/>
		<linearGradient id="SVGID_3_" gradientUnits="userSpaceOnUse" x1="77.4034" y1="86.2107" x2="93.2776" y2="86.2107">
			<stop  offset="0" style="stop-color:#6368FF"/>
			<stop  offset="1" style="stop-color:#9530FF"/>
		</linearGradient>
		<path style="fill:url(#SVGID_3_);" d="M77.403,90.975c0.616-3.276,2.085-5.796,4.328-7.858c2.505-2.302,5.514-3.464,8.89-3.697
			c1.421-0.098,2.536,0.769,2.646,2.025c0.115,1.311-0.804,2.34-2.23,2.444c-4.676,0.341-7.684,2.783-9.156,7.199
			c-0.609,1.827-2.296,2.497-3.566,1.368C77.866,92.055,77.65,91.39,77.403,90.975z"/>
		<linearGradient id="SVGID_4_" gradientUnits="userSpaceOnUse" x1="38.8501" y1="102.1223" x2="50.0763" y2="102.1223">
			<stop  offset="0" style="stop-color:#6368FF"/>
			<stop  offset="1" style="stop-color:#9530FF"/>
		</linearGradient>
		<path style="fill:url(#SVGID_4_);" d="M38.853,105.892c0.163-5.294,4.338-9.072,8.456-10.477c1.094-0.373,2.227,0.331,2.64,1.449
			c0.37,1.002-0.084,2.141-1.107,2.692c-0.736,0.397-1.55,0.672-2.233,1.142c-1.968,1.352-3,3.287-3.359,5.631
			c-0.278,1.811-1.141,2.704-2.384,2.592C39.472,108.796,38.799,107.783,38.853,105.892z"/>
		<linearGradient id="SVGID_5_" gradientUnits="userSpaceOnUse" x1="92.7036" y1="34.2858" x2="100.0573" y2="34.2858">
			<stop  offset="0" style="stop-color:#6368FF"/>
			<stop  offset="1" style="stop-color:#9530FF"/>
		</linearGradient>
		<path style="fill:url(#SVGID_5_);" d="M100.057,31.326c-0.067,3.531-1.099,6.722-3.086,9.61c-0.939,1.365-2.123,1.685-3.276,0.929
			c-1.126-0.738-1.325-2.041-0.436-3.38c1.813-2.729,2.604-5.687,2.146-8.956c-0.049-0.35-0.053-0.71-0.039-1.063
			c0.045-1.18,0.818-2.022,1.95-2.147c1.088-0.12,2.113,0.571,2.338,1.719C99.865,29.12,99.929,30.23,100.057,31.326z"/>
	</g>
</g>
</svg>
