<?xml version="1.0" encoding="iso-8859-1"?>
<!-- Generator: Adobe Illustrator 24.0.1, SVG Export Plug-In . SVG Version: 6.00 Build 0)  -->
<svg version="1.1" id="Layer_3" xmlns="http://www.w3.org/2000/svg" xmlns:xlink="http://www.w3.org/1999/xlink" x="0px" y="0px"
	 viewBox="0 0 150 150" style="enable-background:new 0 0 150 150;" xml:space="preserve">
<g id="Zcaz7k.tif">
	<g>
		<linearGradient id="SVGID_1_" gradientUnits="userSpaceOnUse" x1="6.7392" y1="73.5822" x2="120.0687" y2="73.5822">
			<stop  offset="0" style="stop-color:#6368FF"/>
			<stop  offset="1" style="stop-color:#9530FF"/>
		</linearGradient>
		<path style="fill:url(#SVGID_1_);" d="M6.739,84.753c0.695-2.51,2.402-4.401,3.918-6.409c3.511-4.651,6.473-9.633,9.047-14.857
			c0.539-1.093,0.454-1.918-0.443-2.713c-0.731-0.647-1.48-1.284-2.133-2.005c-1.882-2.075-2.894-4.488-1.669-7.185
			c2.315-5.1,3.59-10.521,5.306-15.811c4.615-14.218,14.257-23.117,28.93-26.435c9.388-2.123,18.847-3.777,28.492-3.953
			c2.728-0.05,5.472,0.418,8.198,0.737c1.412,0.165,2.278,1.249,2.131,2.401c-0.167,1.309-1.151,2.04-2.701,1.919
			c-2.031-0.159-4.055-0.502-6.087-0.544c-8.244-0.169-16.348,1.079-24.363,2.825c-4.044,0.881-8.092,1.956-11.951,3.433
			c-8.916,3.411-14.246,10.372-17.72,18.949c-0.694,1.713-1.083,3.547-1.672,5.305c-1.232,3.679-2.427,7.373-3.784,11.006
			c-1.102,2.95-1.074,3.217,1.281,5.358c0.9,0.818,1.697,1.81,2.321,2.855c1.02,1.709,0.953,3.503,0.083,5.326
			c-3.011,6.307-6.681,12.194-10.944,17.732c-2.226,2.892-2.567,2.607,1.009,4.76c0.758,0.457,1.568,0.829,2.325,1.288
			c3.184,1.929,4.189,4.624,3.029,8.18c-0.245,0.752-0.511,1.545-0.97,2.169c-0.911,1.237-0.619,1.962,0.585,2.83
			c2.763,1.992,2.731,2.13,1.124,5.137c-0.06,0.113-0.073,0.252-0.104,0.368c0.058,0.087,0.089,0.189,0.155,0.222
			c4.182,2.096,5.225,5.122,4.191,9.62c-0.429,1.866-0.352,3.678,0.268,5.491c0.843,2.463,2.763,3.512,5.313,2.907
			c9.482-2.246,18.604-5.626,27.78-8.831c2.539-0.887,5.076-1.861,7.459-3.094c2.58-1.334,4.704-3.179,4.794-6.5
			c0.029-1.078,1.202-1.822,2.336-1.69c1.156,0.134,1.855,0.785,1.935,1.986c0.182,2.747-0.869,5.029-2.737,6.956
			c-3.123,3.222-7.163,4.815-11.289,6.236c-1.837,0.633-3.675,1.26-5.683,1.949c0.599,0.743,1.122,1.375,1.627,2.02
			c2.703,3.454,4.724,7.274,6.017,11.463c0.244,0.79,0.54,1.12,1.427,1.117c16.475-0.054,32.95-0.071,49.425-0.099
			c0.298-0.001,0.596-0.043,1.098-0.081c-0.474-0.798-0.892-1.451-1.262-2.13c-2.811-5.148-4.327-10.722-5.355-16.449
			c-0.344-1.915-0.627-3.845-0.823-5.78c-0.155-1.532,0.661-2.533,1.956-2.654c1.185-0.111,2.079,0.748,2.382,2.166
			c1.061,4.965,1.91,9.993,3.323,14.858c0.811,2.792,2.551,5.315,3.879,7.955c0.536,1.066,1.174,2.09,1.618,3.193
			c0.763,1.895-0.201,3.277-2.241,3.285c-8.881,0.037-17.762,0.056-26.643,0.092c-0.524,0.002-1.048,0.1-1.572,0.154
			c-9.683,0-19.365,0-29.048,0c-1.037-0.476-1.509-1.326-1.88-2.39c-0.885-2.541-1.814-5.077-2.926-7.524
			c-1.162-2.557-2.776-4.841-4.972-6.665c-0.695-0.577-1.329-0.719-2.27-0.43c-5.992,1.84-11.986,3.684-18.034,5.326
			c-3.942,1.07-8.08-1.241-9.572-5.074c-1.013-2.601-1.405-5.27-0.864-8.07c0.726-3.75,0.675-3.76-2.621-5.858
			c-1.856-1.181-2.411-2.552-1.657-4.645c0.365-1.014,0.152-1.547-0.686-2.177c-2.385-1.792-2.609-3.032-1.232-5.696
			c0.467-0.904,0.997-1.781,1.393-2.714c0.71-1.673,0.411-2.494-1.148-3.41c-0.687-0.403-1.393-0.777-2.102-1.14
			c-2.272-1.165-4.165-2.687-4.994-5.228C6.739,85.642,6.739,85.198,6.739,84.753z"/>
		<linearGradient id="SVGID_2_" gradientUnits="userSpaceOnUse" x1="68.1704" y1="66.7786" x2="127.2291" y2="66.7786">
			<stop  offset="0" style="stop-color:#6368FF"/>
			<stop  offset="1" style="stop-color:#9530FF"/>
		</linearGradient>
		<path style="fill:url(#SVGID_2_);" d="M106.784,85.309c3.34,1.64,4.661,4.073,4.483,7.388c-0.062,1.151-0.017,2.308-0.011,3.463
			c0.014,2.798-1.267,4.842-3.696,6.137c-0.648,0.345-0.855,0.713-0.885,1.416c-0.198,4.615-4.099,8.364-8.776,8.487
			c-4.531,0.119-8.62-3.372-9.102-7.834c-0.115-1.067-0.369-1.807-1.452-2.377c-1.767-0.93-2.92-2.548-3.065-4.561
			c-0.164-2.286-0.159-4.604,0.014-6.89c0.153-2.022,1.361-3.582,3.12-4.527c0.998-0.537,0.955-1.062,0.567-1.888
			c-1.091-2.321-2.92-3.993-4.86-5.562c-3.168-2.564-6.514-4.909-8.961-8.28C62.957,54.844,67.608,31.58,86.95,23.512
			c15.863-6.617,33.417,2.703,38.647,18.164c4.173,12.334,0.245,26.913-10.654,34.831c-2.175,1.58-4.152,3.465-6.049,5.38
			C108,82.788,107.512,84.094,106.784,85.309z M104.587,79.483c2.653-2.261,5.36-4.538,8.029-6.857
			c1.371-1.191,2.838-2.324,3.984-3.713c8.214-9.964,8.235-23.739,0.132-33.807c-6.139-7.629-16.177-11.029-25.106-8.505
			c-12.122,3.427-20.11,15.254-18.821,27.891c0.773,7.582,4.162,13.668,10.219,18.368c2.648,2.054,4.981,4.513,7.461,6.784
			c0.083,0.076,0.202,0.111,0.371,0.2c0-6.664,0-13.249,0-19.858c-1.137-0.083-2.2-0.107-3.247-0.246
			c-3.57-0.471-5.909-3.455-5.73-7.257c0.147-3.125,3.007-5.976,6.136-6.116c3.822-0.171,6.766,2.149,7.24,5.749
			c0.142,1.076,0.175,2.167,0.254,3.204c1.574,0,3.012,0,4.503,0c0-0.907-0.026-1.706,0.004-2.503
			c0.135-3.517,3.058-6.403,6.521-6.457c3.803-0.059,6.757,2.593,7.057,6.335c0.274,3.423-2.354,6.602-5.874,7.057
			c-1.035,0.134-2.084,0.163-3.133,0.241C104.587,66.653,104.587,73.202,104.587,79.483z M97.666,98.609
			c2.176,0,4.352,0.011,6.529-0.003c1.663-0.011,2.594-0.838,2.672-2.475c0.068-1.418,0.068-2.844-0.004-4.262
			c-0.077-1.512-0.942-2.389-2.467-2.404c-4.485-0.044-8.971-0.047-13.456,0.007c-1.541,0.019-2.344,0.933-2.375,2.457
			c-0.028,1.376-0.025,2.754-0.001,4.13c0.029,1.646,0.919,2.529,2.574,2.544C93.314,98.623,95.49,98.608,97.666,98.609z
			 M95.484,59.97c0,8.345,0,16.614,0,24.959c1.511,0,2.948,0,4.455,0c0-8.341,0-16.613,0-24.959
			C98.435,59.97,96.999,59.97,95.484,59.97z M93.176,103.187c-0.194,2.24,2.101,4.68,4.743,4.506
			c2.406-0.158,4.228-1.971,4.251-4.506C99.169,103.187,96.17,103.187,93.176,103.187z M90.934,55.419
			c0-0.904,0.044-1.648-0.01-2.384c-0.096-1.327-1.073-2.24-2.32-2.24c-1.246,0.001-2.272,1.009-2.295,2.256
			c-0.023,1.251,0.877,2.252,2.195,2.357C89.244,55.468,89.992,55.419,90.934,55.419z M104.532,55.402c1,0,1.805,0.084,2.586-0.019
			c1.267-0.166,2.078-1.309,1.949-2.575c-0.116-1.137-1.095-2.013-2.257-2.019c-1.261-0.007-2.214,0.924-2.272,2.263
			C104.505,53.794,104.532,54.538,104.532,55.402z"/>
		<linearGradient id="SVGID_3_" gradientUnits="userSpaceOnUse" x1="27.3845" y1="33.1775" x2="52.1783" y2="33.1775">
			<stop  offset="0" style="stop-color:#6368FF"/>
			<stop  offset="1" style="stop-color:#9530FF"/>
		</linearGradient>
		<path style="fill:url(#SVGID_3_);" d="M27.384,45.042c1.195-3.501,2.132-7.118,3.636-10.481
			c3.498-7.821,9.358-13.121,17.708-15.484c1.817-0.514,2.966-0.059,3.347,1.336c0.362,1.326-0.238,2.36-1.727,2.795
			c-3.359,0.98-6.482,2.432-9.117,4.752c-4.411,3.883-6.929,8.893-8.365,14.508c-0.285,1.113-0.499,2.245-0.811,3.349
			c-0.344,1.216-1.32,1.813-2.527,1.633c-1.082-0.161-1.791-1.074-1.775-2.285C27.63,45.125,27.507,45.083,27.384,45.042z"/>
		<linearGradient id="SVGID_4_" gradientUnits="userSpaceOnUse" x1="52.2953" y1="50.815" x2="63.5155" y2="50.815">
			<stop  offset="0" style="stop-color:#6368FF"/>
			<stop  offset="1" style="stop-color:#9530FF"/>
		</linearGradient>
		<path style="fill:url(#SVGID_4_);" d="M57.836,53.043c-1.11,0-2.222,0.034-3.331-0.009c-1.268-0.05-2.127-0.882-2.204-2.047
			c-0.078-1.187,0.628-2.257,1.883-2.32c2.476-0.124,4.968-0.124,7.444,0.001c1.253,0.063,1.962,1.139,1.88,2.323
			c-0.08,1.166-0.939,1.995-2.21,2.043C60.146,53.077,58.99,53.043,57.836,53.043z"/>
		<linearGradient id="SVGID_5_" gradientUnits="userSpaceOnUse" x1="95.4653" y1="10.9822" x2="99.9788" y2="10.9822">
			<stop  offset="0" style="stop-color:#6368FF"/>
			<stop  offset="1" style="stop-color:#9530FF"/>
		</linearGradient>
		<path style="fill:url(#SVGID_5_);" d="M99.958,11.108c0,1.066,0.055,2.135-0.013,3.196c-0.098,1.522-1.01,2.36-2.37,2.296
			c-1.295-0.061-2.079-0.937-2.093-2.413c-0.02-2.131-0.023-4.263,0.001-6.394c0.016-1.366,0.937-2.375,2.144-2.43
			c1.13-0.052,2.177,0.849,2.288,2.152c0.101,1.19,0.021,2.395,0.021,3.594C99.943,11.108,99.951,11.108,99.958,11.108z"/>
		<linearGradient id="SVGID_6_" gradientUnits="userSpaceOnUse" x1="64.873" y1="22.5925" x2="74.4127" y2="22.5925">
			<stop  offset="0" style="stop-color:#6368FF"/>
			<stop  offset="1" style="stop-color:#9530FF"/>
		</linearGradient>
		<path style="fill:url(#SVGID_6_);" d="M74.413,25.302c-0.479,0.593-0.844,1.46-1.448,1.685c-0.675,0.251-1.822,0.217-2.318-0.21
			c-1.839-1.586-3.539-3.344-5.201-5.122c-0.85-0.909-0.708-2.172,0.124-2.99c0.78-0.767,2.169-0.871,3.015-0.069
			c1.735,1.644,3.414,3.349,5.065,5.078C73.985,24.026,74.092,24.594,74.413,25.302z"/>
		<linearGradient id="SVGID_7_" gradientUnits="userSpaceOnUse" x1="131.917" y1="50.7974" x2="143.1598" y2="50.7974">
			<stop  offset="0" style="stop-color:#6368FF"/>
			<stop  offset="1" style="stop-color:#9530FF"/>
		</linearGradient>
		<path style="fill:url(#SVGID_7_);" d="M137.38,53.045c-1.066-0.001-2.132,0.026-3.197-0.007c-1.356-0.042-2.213-0.864-2.264-2.109
			c-0.052-1.273,0.684-2.252,2.046-2.312c2.348-0.105,4.706-0.1,7.055-0.003c1.296,0.054,2.198,1.167,2.136,2.295
			c-0.066,1.206-1.077,2.088-2.446,2.136c-0.044,0.002-0.089,0.001-0.133,0.001C139.512,53.046,138.446,53.046,137.38,53.045z"/>
		<linearGradient id="SVGID_8_" gradientUnits="userSpaceOnUse" x1="121.3679" y1="22.7573" x2="130.4904" y2="22.7573">
			<stop  offset="0" style="stop-color:#6368FF"/>
			<stop  offset="1" style="stop-color:#9530FF"/>
		</linearGradient>
		<path style="fill:url(#SVGID_8_);" d="M123.15,27.481c-0.57-0.466-1.439-0.838-1.651-1.441c-0.236-0.675-0.161-1.806,0.275-2.307
			c1.591-1.83,3.356-3.515,5.122-5.184c0.805-0.761,2.119-0.637,2.891,0.101c0.822,0.786,0.978,2.132,0.174,2.986
			c-1.667,1.768-3.4,3.475-5.16,5.15C124.454,27.116,123.865,27.191,123.15,27.481z"/>
		<linearGradient id="SVGID_9_" gradientUnits="userSpaceOnUse" x1="25.0174" y1="53.0868" x2="29.4005" y2="53.0868">
			<stop  offset="0" style="stop-color:#6368FF"/>
			<stop  offset="1" style="stop-color:#9530FF"/>
		</linearGradient>
		<path style="fill:url(#SVGID_9_);" d="M27.243,55.275c-1.244,0.021-2.195-0.885-2.225-2.12c-0.03-1.237,0.877-2.214,2.094-2.256
			c1.303-0.045,2.285,0.893,2.289,2.186C29.404,54.316,28.479,55.255,27.243,55.275z"/>
	</g>
</g>
</svg>
